<?xml version="1.0" encoding="UTF-8" standalone="no"?>
<!DOCTYPE svg PUBLIC "-//W3C//DTD SVG 1.1//EN"
 "http://www.w3.org/Graphics/SVG/1.1/DTD/svg11.dtd">
<!-- Generated by graphviz version 12.2.1 (20241206.2353)
 -->
<!-- Title: operator leds spec Pages: 1 -->
<svg width="720pt" height="145pt"
 viewBox="0.00 0.00 720.00 144.64" xmlns="http://www.w3.org/2000/svg" xmlns:xlink="http://www.w3.org/1999/xlink">
<g id="graph0" class="graph" transform="scale(0.847089 0.847089) rotate(0) translate(4 166.75)">
<title>operator leds spec</title>
<!-- dot_dummyinit_1 -->
<g id="node1" class="node">
<title>dot_dummyinit_1</title>
</g>
<!-- Idle -->
<g id="node2" class="node">
<title>Idle</title>
<path fill="none" stroke="black" d="M87.47,-36C87.47,-36 49.72,-36 49.72,-36 43.72,-36 37.72,-30 37.72,-24 37.72,-24 37.72,-12 37.72,-12 37.72,-6 43.72,0 49.72,0 49.72,0 87.47,0 87.47,0 93.47,0 99.47,-6 99.47,-12 99.47,-12 99.47,-24 99.47,-24 99.47,-30 93.47,-36 87.47,-36"/>
<text text-anchor="start" x="49.72" y="-12.57" font-family="Arial" font-size="14.00">Idle</text>
<polygon fill="black" stroke="none" points="81.47,-8.12 81.47,-27.88 89.47,-27.88 89.47,-8.12 81.47,-8.12"/>
</g>
<!-- dot_dummyinit_1&#45;&gt;Idle -->
<g id="edge1" class="edge">
<title>dot_dummyinit_1&#45;&gt;Idle</title>
<path fill="none" stroke="black" d="M0.77,-18C1.6,-18 12.92,-18 26.02,-18"/>
<polygon fill="black" stroke="black" points="25.74,-21.5 35.74,-18 25.74,-14.5 25.74,-21.5"/>
</g>
<!-- On1 -->
<g id="node3" class="node">
<title>On1</title>
<path fill="none" stroke="black" d="M218.72,-66C218.72,-66 188.72,-66 188.72,-66 182.72,-66 176.72,-60 176.72,-54 176.72,-54 176.72,-42 176.72,-42 176.72,-36 182.72,-30 188.72,-30 188.72,-30 218.72,-30 218.72,-30 224.72,-30 230.72,-36 230.72,-42 230.72,-42 230.72,-54 230.72,-54 230.72,-60 224.72,-66 218.72,-66"/>
<text text-anchor="middle" x="203.72" y="-42.58" font-family="Arial" font-size="14.00">On1</text>
</g>
<!-- Idle&#45;&gt;On1 -->
<g id="edge2" class="edge">
<title>Idle&#45;&gt;On1</title>
<path fill="none" stroke="black" d="M99.8,-24.81C119.22,-29.18 144.59,-34.9 165.29,-39.56"/>
<polygon fill="black" stroke="black" points="164.23,-42.91 174.76,-41.7 165.77,-36.09 164.23,-42.91"/>
<text text-anchor="middle" x="138.1" y="-39.89" font-family="Arial" font-size="14.00">a_start</text>
</g>
<!-- On2 -->
<g id="node4" class="node">
<title>On2</title>
<path fill="none" stroke="black" d="M356.72,-66C356.72,-66 326.72,-66 326.72,-66 320.72,-66 314.72,-60 314.72,-54 314.72,-54 314.72,-42 314.72,-42 314.72,-36 320.72,-30 326.72,-30 326.72,-30 356.72,-30 356.72,-30 362.72,-30 368.72,-36 368.72,-42 368.72,-42 368.72,-54 368.72,-54 368.72,-60 362.72,-66 356.72,-66"/>
<text text-anchor="middle" x="341.72" y="-42.58" font-family="Arial" font-size="14.00">On2</text>
</g>
<!-- On1&#45;&gt;On2 -->
<g id="edge3" class="edge">
<title>On1&#45;&gt;On2</title>
<path fill="none" stroke="black" d="M230.94,-48C251.45,-48 280.23,-48 303.18,-48"/>
<polygon fill="black" stroke="black" points="303.06,-51.5 313.06,-48 303.06,-44.5 303.06,-51.5"/>
<text text-anchor="middle" x="272.72" y="-50.45" font-family="Arial" font-size="14.00">o_uplon</text>
</g>
<!-- Busy -->
<g id="node5" class="node">
<title>Busy</title>
<path fill="none" stroke="black" d="M504.85,-66C504.85,-66 474.85,-66 474.85,-66 468.85,-66 462.85,-60 462.85,-54 462.85,-54 462.85,-42 462.85,-42 462.85,-36 468.85,-30 474.85,-30 474.85,-30 504.85,-30 504.85,-30 510.85,-30 516.85,-36 516.85,-42 516.85,-42 516.85,-54 516.85,-54 516.85,-60 510.85,-66 504.85,-66"/>
<text text-anchor="middle" x="489.85" y="-42.58" font-family="Arial" font-size="14.00">Busy</text>
</g>
<!-- On2&#45;&gt;Busy -->
<g id="edge4" class="edge">
<title>On2&#45;&gt;Busy</title>
<path fill="none" stroke="black" d="M369.18,-48C392.15,-48 425.66,-48 451.38,-48"/>
<polygon fill="black" stroke="black" points="451.07,-51.5 461.07,-48 451.07,-44.5 451.07,-51.5"/>
<text text-anchor="middle" x="409.6" y="-50.45" font-family="Arial" font-size="14.00">o_lwlon</text>
</g>
<!-- Busy&#45;&gt;Busy -->
<g id="edge5" class="edge">
<title>Busy&#45;&gt;Busy</title>
<path fill="none" stroke="black" d="M475.33,-66.15C473.09,-75.54 477.93,-84 489.85,-84 496.55,-84 501.01,-81.32 503.23,-77.31"/>
<polygon fill="black" stroke="black" points="506.68,-77.96 504.21,-67.66 499.72,-77.26 506.68,-77.96"/>
<text text-anchor="middle" x="489.85" y="-149.45" font-family="Arial" font-size="14.00">d_open, d_close, </text>
<text text-anchor="middle" x="489.85" y="-133.7" font-family="Arial" font-size="14.00">d_stp, </text>
<text text-anchor="middle" x="489.85" y="-117.95" font-family="Arial" font-size="14.00">c_up, </text>
<text text-anchor="middle" x="489.85" y="-102.2" font-family="Arial" font-size="14.00">c_down, </text>
<text text-anchor="middle" x="489.85" y="-86.45" font-family="Arial" font-size="14.00">c_stp</text>
</g>
<!-- Off1 -->
<g id="node6" class="node">
<title>Off1</title>
<path fill="none" stroke="black" d="M691.97,-66C691.97,-66 661.97,-66 661.97,-66 655.97,-66 649.97,-60 649.97,-54 649.97,-54 649.97,-42 649.97,-42 649.97,-36 655.97,-30 661.97,-30 661.97,-30 691.97,-30 691.97,-30 697.97,-30 703.97,-36 703.97,-42 703.97,-42 703.97,-54 703.97,-54 703.97,-60 697.97,-66 691.97,-66"/>
<text text-anchor="middle" x="676.97" y="-42.58" font-family="Arial" font-size="14.00">Off1</text>
</g>
<!-- Busy&#45;&gt;Off1 -->
<g id="edge6" class="edge">
<title>Busy&#45;&gt;Off1</title>
<path fill="none" stroke="black" d="M516.98,-48C548.72,-48 602.51,-48 638.62,-48"/>
<polygon fill="black" stroke="black" points="638.16,-51.5 648.16,-48 638.16,-44.5 638.16,-51.5"/>
<text text-anchor="middle" x="589.6" y="-50.45" font-family="Arial" font-size="14.00">a_done, a_fail</text>
</g>
<!-- Off2 -->
<g id="node7" class="node">
<title>Off2</title>
<path fill="none" stroke="black" d="M829.97,-36C829.97,-36 799.97,-36 799.97,-36 793.97,-36 787.97,-30 787.97,-24 787.97,-24 787.97,-12 787.97,-12 787.97,-6 793.97,0 799.97,0 799.97,0 829.97,0 829.97,0 835.97,0 841.97,-6 841.97,-12 841.97,-12 841.97,-24 841.97,-24 841.97,-30 835.97,-36 829.97,-36"/>
<text text-anchor="middle" x="814.97" y="-12.57" font-family="Arial" font-size="14.00">Off2</text>
</g>
<!-- Off1&#45;&gt;Off2 -->
<g id="edge7" class="edge">
<title>Off1&#45;&gt;Off2</title>
<path fill="none" stroke="black" d="M704.19,-42.22C724.79,-37.67 753.75,-31.28 776.75,-26.21"/>
<polygon fill="black" stroke="black" points="777.34,-29.66 786.35,-24.09 775.83,-22.83 777.34,-29.66"/>
<text text-anchor="middle" x="745.97" y="-39.89" font-family="Arial" font-size="14.00">o_uploff</text>
</g>
<!-- Off2&#45;&gt;Idle -->
<g id="edge8" class="edge">
<title>Off2&#45;&gt;Idle</title>
<path fill="none" stroke="black" d="M787.5,-13.03C760.17,-8.33 716.25,-2 677.97,-2 202.72,-2 202.72,-2 202.72,-2 171.8,-2 137.12,-6.31 110.91,-10.45"/>
<polygon fill="black" stroke="black" points="110.67,-6.95 101.37,-12.02 111.8,-13.85 110.67,-6.95"/>
<text text-anchor="middle" x="409.6" y="-4.45" font-family="Arial" font-size="14.00">o_lwloff</text>
</g>
</g>
</svg>
