<?xml version="1.0" encoding="UTF-8" standalone="no"?>
<!DOCTYPE svg PUBLIC "-//W3C//DTD SVG 1.1//EN"
 "http://www.w3.org/Graphics/SVG/1.1/DTD/svg11.dtd">
<!-- Generated by graphviz version 12.2.1 (20241206.2353)
 -->
<!-- Title: Controller A (process unit) Pages: 1 -->
<svg width="563pt" height="143pt"
 viewBox="0.00 0.00 562.97 142.75" xmlns="http://www.w3.org/2000/svg" xmlns:xlink="http://www.w3.org/1999/xlink">
<g id="graph0" class="graph" transform="scale(1 1) rotate(0) translate(4 138.75)">
<title>Controller A (process unit)</title>
<!-- dot_dummyinit_1 -->
<g id="node1" class="node">
<title>dot_dummyinit_1</title>
</g>
<!-- 1 -->
<g id="node2" class="node">
<title>1</title>
<ellipse fill="none" stroke="black" cx="59.72" cy="-60" rx="18" ry="18"/>
<ellipse fill="none" stroke="black" cx="59.72" cy="-60" rx="22" ry="22"/>
<text text-anchor="middle" x="59.72" y="-54.58" font-family="Arial" font-size="14.00">1</text>
</g>
<!-- dot_dummyinit_1&#45;&gt;1 -->
<g id="edge1" class="edge">
<title>dot_dummyinit_1&#45;&gt;1</title>
<path fill="none" stroke="black" d="M0.89,-60C2.38,-60 13.74,-60 26,-60"/>
<polygon fill="black" stroke="black" points="25.74,-63.5 35.74,-60 25.74,-56.5 25.74,-63.5"/>
</g>
<!-- 2 -->
<g id="node3" class="node">
<title>2</title>
<ellipse fill="none" stroke="black" cx="168.72" cy="-60" rx="18" ry="18"/>
<text text-anchor="middle" x="168.72" y="-54.58" font-family="Arial" font-size="14.00">2</text>
</g>
<!-- 1&#45;&gt;2 -->
<g id="edge2" class="edge">
<title>1&#45;&gt;2</title>
<path fill="none" stroke="black" d="M82.12,-60C98.37,-60 120.89,-60 138.76,-60"/>
<polygon fill="black" stroke="black" points="138.74,-63.5 148.74,-60 138.74,-56.5 138.74,-63.5"/>
<text text-anchor="middle" x="116.22" y="-62.45" font-family="Arial" font-size="14.00">alpha</text>
</g>
<!-- 3 -->
<g id="node4" class="node">
<title>3</title>
<ellipse fill="none" stroke="black" cx="281.97" cy="-60" rx="18" ry="18"/>
<text text-anchor="middle" x="281.97" y="-54.58" font-family="Arial" font-size="14.00">3</text>
</g>
<!-- 2&#45;&gt;3 -->
<g id="edge3" class="edge">
<title>2&#45;&gt;3</title>
<path fill="none" stroke="black" d="M187.1,-60C204.57,-60 231.8,-60 252.44,-60"/>
<polygon fill="black" stroke="black" points="252.2,-63.5 262.2,-60 252.2,-56.5 252.2,-63.5"/>
<text text-anchor="middle" x="225.35" y="-62.45" font-family="Arial" font-size="14.00">p_start</text>
</g>
<!-- 4 -->
<g id="node5" class="node">
<title>4</title>
<ellipse fill="none" stroke="black" cx="424.47" cy="-73" rx="18" ry="18"/>
<text text-anchor="middle" x="424.47" y="-67.58" font-family="Arial" font-size="14.00">4</text>
</g>
<!-- 3&#45;&gt;4 -->
<g id="edge4" class="edge">
<title>3&#45;&gt;4</title>
<path fill="none" stroke="black" d="M300.2,-61.59C323.79,-63.78 366.47,-67.73 394.89,-70.36"/>
<polygon fill="black" stroke="black" points="394.31,-73.82 404.59,-71.25 394.96,-66.85 394.31,-73.82"/>
<text text-anchor="middle" x="353.22" y="-71.96" font-family="Arial" font-size="14.00">p_complete</text>
</g>
<!-- 6 -->
<g id="node7" class="node">
<title>6</title>
<ellipse fill="none" stroke="black" cx="424.47" cy="-18" rx="18" ry="18"/>
<text text-anchor="middle" x="424.47" y="-12.57" font-family="Arial" font-size="14.00">6</text>
</g>
<!-- 3&#45;&gt;6 -->
<g id="edge5" class="edge">
<title>3&#45;&gt;6</title>
<path fill="none" stroke="black" d="M298.35,-51.77C304.35,-48.79 311.37,-45.59 317.97,-43.25 343.46,-34.21 373.56,-27.37 395.06,-23.1"/>
<polygon fill="black" stroke="black" points="395.69,-26.55 404.85,-21.23 394.37,-19.67 395.69,-26.55"/>
<text text-anchor="middle" x="353.22" y="-45.7" font-family="Arial" font-size="14.00">lambda</text>
</g>
<!-- 5 -->
<g id="node6" class="node">
<title>5</title>
<ellipse fill="none" stroke="black" cx="536.97" cy="-96" rx="18" ry="18"/>
<text text-anchor="middle" x="536.97" y="-90.58" font-family="Arial" font-size="14.00">5</text>
</g>
<!-- 4&#45;&gt;5 -->
<g id="edge6" class="edge">
<title>4&#45;&gt;5</title>
<path fill="none" stroke="black" d="M442.25,-76.49C459.7,-80.12 487.29,-85.87 508.03,-90.18"/>
<polygon fill="black" stroke="black" points="507.04,-93.55 517.55,-92.17 508.47,-86.7 507.04,-93.55"/>
<text text-anchor="middle" x="480.72" y="-91.01" font-family="Arial" font-size="14.00">p_stop</text>
</g>
<!-- 5&#45;&gt;1 -->
<g id="edge7" class="edge">
<title>5&#45;&gt;1</title>
<path fill="none" stroke="black" d="M519.72,-101.57C498.36,-108.37 459.57,-119 425.47,-119 167.72,-119 167.72,-119 167.72,-119 136.26,-119 105.35,-99.2 84.9,-82.54"/>
<polygon fill="black" stroke="black" points="87.31,-80 77.43,-76.18 82.77,-85.33 87.31,-80"/>
<text text-anchor="middle" x="281.97" y="-121.45" font-family="Arial" font-size="14.00">beta</text>
</g>
<!-- 6&#45;&gt;1 -->
<g id="edge8" class="edge">
<title>6&#45;&gt;1</title>
<path fill="none" stroke="black" d="M406.07,-17.51C362.62,-16.61 245.98,-16.1 150.72,-33 130.56,-36.58 108.54,-43.14 91.32,-48.89"/>
<polygon fill="black" stroke="black" points="90.52,-45.47 82.2,-52.03 92.8,-52.09 90.52,-45.47"/>
<text text-anchor="middle" x="225.35" y="-27.49" font-family="Arial" font-size="14.00">p_stop</text>
</g>
</g>
</svg>
