<?xml version="1.0" encoding="UTF-8" standalone="no"?>
<!DOCTYPE svg PUBLIC "-//W3C//DTD SVG 1.1//EN"
 "http://www.w3.org/Graphics/SVG/1.1/DTD/svg11.dtd">
<!-- Generated by graphviz version 12.2.1 (20241206.2353)
 -->
<!-- Title: E_lbracket Pages: 1 -->
<svg width="268pt" height="117pt"
 viewBox="0.00 0.00 268.22 116.66" xmlns="http://www.w3.org/2000/svg" xmlns:xlink="http://www.w3.org/1999/xlink">
<g id="graph0" class="graph" transform="scale(1 1) rotate(0) translate(4 112.66)">
<title>E_lbracket</title>
<!-- dot_dummyinit_1 -->
<g id="node1" class="node">
<title>dot_dummyinit_1</title>
</g>
<!-- Free -->
<g id="node2" class="node">
<title>Free</title>
<path fill="none" stroke="black" d="M93.47,-69C93.47,-69 49.72,-69 49.72,-69 43.72,-69 37.72,-63 37.72,-57 37.72,-57 37.72,-45 37.72,-45 37.72,-39 43.72,-33 49.72,-33 49.72,-33 93.47,-33 93.47,-33 99.47,-33 105.47,-39 105.47,-45 105.47,-45 105.47,-57 105.47,-57 105.47,-63 99.47,-69 93.47,-69"/>
<text text-anchor="start" x="49.72" y="-45.58" font-family="Arial" font-size="14.00">Free</text>
<polygon fill="black" stroke="none" points="87.47,-41.12 87.47,-60.88 95.47,-60.88 95.47,-41.12 87.47,-41.12"/>
</g>
<!-- dot_dummyinit_1&#45;&gt;Free -->
<g id="edge1" class="edge">
<title>dot_dummyinit_1&#45;&gt;Free</title>
<path fill="none" stroke="black" d="M0.77,-51C1.61,-51 12.77,-51 25.94,-51"/>
<polygon fill="black" stroke="black" points="25.77,-54.5 35.77,-51 25.77,-47.5 25.77,-54.5"/>
</g>
<!-- Closed -->
<g id="node3" class="node">
<title>Closed</title>
<path fill="none" stroke="black" d="M248.22,-102C248.22,-102 190.22,-102 190.22,-102 184.22,-102 178.22,-96 178.22,-90 178.22,-90 178.22,-78 178.22,-78 178.22,-72 184.22,-66 190.22,-66 190.22,-66 248.22,-66 248.22,-66 254.22,-66 260.22,-72 260.22,-78 260.22,-78 260.22,-90 260.22,-90 260.22,-96 254.22,-102 248.22,-102"/>
<text text-anchor="start" x="190.22" y="-78.58" font-family="Arial" font-size="14.00">Closed</text>
<polygon fill="black" stroke="none" points="242.22,-74.12 242.22,-93.88 250.22,-93.88 250.22,-74.12 242.22,-74.12"/>
</g>
<!-- Free&#45;&gt;Closed -->
<g id="edge3" class="edge">
<title>Free&#45;&gt;Closed</title>
<path fill="none" stroke="black" d="M91.74,-69.36C100.65,-76.66 111.84,-84.22 123.47,-88 137.06,-92.42 152.33,-93.38 166.57,-92.72"/>
<polygon fill="black" stroke="black" points="166.51,-96.24 176.21,-92 165.98,-89.26 166.51,-96.24"/>
<text text-anchor="middle" x="141.85" y="-95.36" font-family="Arial" font-size="14.00">d_arcl</text>
</g>
<!-- Block -->
<g id="node4" class="node">
<title>Block</title>
<path fill="none" stroke="black" d="M234.22,-36C234.22,-36 204.22,-36 204.22,-36 198.22,-36 192.22,-30 192.22,-24 192.22,-24 192.22,-12 192.22,-12 192.22,-6 198.22,0 204.22,0 204.22,0 234.22,0 234.22,0 240.22,0 246.22,-6 246.22,-12 246.22,-12 246.22,-24 246.22,-24 246.22,-30 240.22,-36 234.22,-36"/>
<text text-anchor="middle" x="219.22" y="-12.57" font-family="Arial" font-size="14.00">Block</text>
</g>
<!-- Free&#45;&gt;Block -->
<g id="edge2" class="edge">
<title>Free&#45;&gt;Block</title>
<path fill="none" stroke="black" d="M105.73,-38.5C111.58,-36.56 117.67,-34.72 123.47,-33.25 142.06,-28.55 163.09,-24.99 180.61,-22.5"/>
<polygon fill="black" stroke="black" points="180.89,-26 190.33,-21.18 179.95,-19.06 180.89,-26"/>
<text text-anchor="middle" x="141.85" y="-35.7" font-family="Arial" font-size="14.00">d_lbbl</text>
</g>
<!-- Closed&#45;&gt;Free -->
<g id="edge5" class="edge">
<title>Closed&#45;&gt;Free</title>
<path fill="none" stroke="black" d="M177.75,-72.62C171.89,-71.08 165.91,-69.58 160.22,-68.25 146.18,-64.97 130.79,-61.79 116.87,-59.08"/>
<polygon fill="black" stroke="black" points="117.55,-55.65 107.07,-57.21 116.23,-62.53 117.55,-55.65"/>
<text text-anchor="middle" x="141.85" y="-70.7" font-family="Arial" font-size="14.00">d_lvcl</text>
</g>
<!-- Block&#45;&gt;Free -->
<g id="edge4" class="edge">
<title>Block&#45;&gt;Free</title>
<path fill="none" stroke="black" d="M192.1,-8.26C172.61,-2.53 145.65,2.12 123.47,-6.25 113.12,-10.15 103.52,-17.22 95.5,-24.61"/>
<polygon fill="black" stroke="black" points="93.15,-22.01 88.54,-31.54 98.09,-26.96 93.15,-22.01"/>
<text text-anchor="middle" x="141.85" y="-8.7" font-family="Arial" font-size="14.00">d_lbrl</text>
</g>
</g>
</svg>
