<?xml version="1.0" encoding="UTF-8" standalone="no"?>
<!DOCTYPE svg PUBLIC "-//W3C//DTD SVG 1.1//EN"
 "http://www.w3.org/Graphics/SVG/1.1/DTD/svg11.dtd">
<!-- Generated by graphviz version 12.2.1 (20241206.2353)
 -->
<!-- Title: E_opcmd Pages: 1 -->
<svg width="235pt" height="187pt"
 viewBox="0.00 0.00 234.97 186.64" xmlns="http://www.w3.org/2000/svg" xmlns:xlink="http://www.w3.org/1999/xlink">
<g id="graph0" class="graph" transform="scale(1 1) rotate(0) translate(4 182.64)">
<title>E_opcmd</title>
<!-- dot_dummyinit_1 -->
<g id="node1" class="node">
<title>dot_dummyinit_1</title>
</g>
<!-- Idle -->
<g id="node2" class="node">
<title>Idle</title>
<path fill="none" stroke="black" d="M87.47,-43.64C87.47,-43.64 49.72,-43.64 49.72,-43.64 43.72,-43.64 37.72,-37.64 37.72,-31.64 37.72,-31.64 37.72,-19.64 37.72,-19.64 37.72,-13.64 43.72,-7.64 49.72,-7.64 49.72,-7.64 87.47,-7.64 87.47,-7.64 93.47,-7.64 99.47,-13.64 99.47,-19.64 99.47,-19.64 99.47,-31.64 99.47,-31.64 99.47,-37.64 93.47,-43.64 87.47,-43.64"/>
<text text-anchor="start" x="49.72" y="-20.21" font-family="Arial" font-size="14.00">Idle</text>
<polygon fill="black" stroke="none" points="81.47,-15.76 81.47,-35.51 89.47,-35.51 89.47,-15.76 81.47,-15.76"/>
</g>
<!-- dot_dummyinit_1&#45;&gt;Idle -->
<g id="edge1" class="edge">
<title>dot_dummyinit_1&#45;&gt;Idle</title>
<path fill="none" stroke="black" d="M0.77,-25.64C1.6,-25.64 12.92,-25.64 26.02,-25.64"/>
<polygon fill="black" stroke="black" points="25.74,-29.14 35.74,-25.64 25.74,-22.14 25.74,-29.14"/>
</g>
<!-- Busy -->
<g id="node3" class="node">
<title>Busy</title>
<path fill="none" stroke="black" d="M214.97,-43.64C214.97,-43.64 184.97,-43.64 184.97,-43.64 178.97,-43.64 172.97,-37.64 172.97,-31.64 172.97,-31.64 172.97,-19.64 172.97,-19.64 172.97,-13.64 178.97,-7.64 184.97,-7.64 184.97,-7.64 214.97,-7.64 214.97,-7.64 220.97,-7.64 226.97,-13.64 226.97,-19.64 226.97,-19.64 226.97,-31.64 226.97,-31.64 226.97,-37.64 220.97,-43.64 214.97,-43.64"/>
<text text-anchor="middle" x="199.97" y="-20.21" font-family="Arial" font-size="14.00">Busy</text>
</g>
<!-- Idle&#45;&gt;Busy -->
<g id="edge2" class="edge">
<title>Idle&#45;&gt;Busy</title>
<path fill="none" stroke="black" d="M99.83,-38.11C105.59,-39.99 111.65,-41.63 117.47,-42.64 133.89,-45.47 138.59,-45.69 154.97,-42.64 157.3,-42.2 159.66,-41.65 162.02,-41.01"/>
<polygon fill="black" stroke="black" points="163.02,-44.37 171.47,-37.97 160.87,-37.7 163.02,-44.37"/>
<text text-anchor="middle" x="136.22" y="-47.29" font-family="Arial" font-size="14.00">o_upb</text>
</g>
<!-- Idle&#45;&gt;Busy -->
<g id="edge3" class="edge">
<title>Idle&#45;&gt;Busy</title>
<path fill="none" stroke="black" d="M99.72,-23.64C105.6,-23.33 111.73,-23.05 117.47,-22.89 134.13,-22.41 138.31,-22.37 154.97,-22.89 157.15,-22.95 159.39,-23.04 161.65,-23.14"/>
<polygon fill="black" stroke="black" points="161.24,-26.63 171.41,-23.66 161.61,-19.64 161.24,-26.63"/>
<text text-anchor="middle" x="136.22" y="-25.34" font-family="Arial" font-size="14.00">o_lwb</text>
</g>
<!-- Busy&#45;&gt;Idle -->
<g id="edge6" class="edge">
<title>Busy&#45;&gt;Idle</title>
<path fill="none" stroke="black" d="M172.78,-9.54C167.1,-6.79 160.99,-4.35 154.97,-2.89 138.78,1.05 133.73,0.78 117.47,-2.89 115.16,-3.41 112.82,-4.06 110.5,-4.8"/>
<polygon fill="black" stroke="black" points="109.31,-1.51 101.19,-8.32 111.78,-8.05 109.31,-1.51"/>
<text text-anchor="middle" x="136.22" y="-5.34" font-family="Arial" font-size="14.00">c_stp</text>
</g>
<!-- Busy&#45;&gt;Busy -->
<g id="edge4" class="edge">
<title>Busy&#45;&gt;Busy</title>
<path fill="none" stroke="black" d="M197.09,-43.79C196.64,-53.18 197.6,-61.64 199.97,-61.64 201.26,-61.64 202.14,-59.11 202.59,-55.28"/>
<polygon fill="black" stroke="black" points="206.09,-55.38 202.82,-45.3 199.09,-55.22 206.09,-55.38"/>
<text text-anchor="middle" x="199.97" y="-64.09" font-family="Arial" font-size="14.00">o_upb</text>
</g>
<!-- Busy&#45;&gt;Busy -->
<g id="edge5" class="edge">
<title>Busy&#45;&gt;Busy</title>
<path fill="none" stroke="black" d="M195.14,-43.89C192.63,-61.04 194.24,-79.64 199.97,-79.64 204.44,-79.64 206.41,-68.28 205.86,-55.14"/>
<polygon fill="black" stroke="black" points="209.36,-55.03 204.94,-45.4 202.39,-55.68 209.36,-55.03"/>
<text text-anchor="middle" x="199.97" y="-82.09" font-family="Arial" font-size="14.00">o_lwb</text>
</g>
<!-- Busy&#45;&gt;Busy -->
<g id="edge7" class="edge">
<title>Busy&#45;&gt;Busy</title>
<path fill="none" stroke="black" d="M193.84,-44.08C188.59,-68.34 190.63,-97.64 199.97,-97.64 207.89,-97.64 210.56,-76.59 207.99,-55.4"/>
<polygon fill="black" stroke="black" points="211.45,-54.86 206.35,-45.57 204.55,-56.01 211.45,-54.86"/>
<text text-anchor="middle" x="199.97" y="-100.09" font-family="Arial" font-size="14.00">c_up</text>
</g>
<!-- Busy&#45;&gt;Busy -->
<g id="edge8" class="edge">
<title>Busy&#45;&gt;Busy</title>
<path fill="none" stroke="black" d="M193.04,-43.75C184.52,-74.88 186.83,-115.64 199.97,-115.64 211.62,-115.64 214.75,-83.59 209.38,-54.62"/>
<polygon fill="black" stroke="black" points="212.87,-54.2 207.23,-45.22 206.04,-55.75 212.87,-54.2"/>
<text text-anchor="middle" x="199.97" y="-118.09" font-family="Arial" font-size="14.00">c_down</text>
</g>
</g>
</svg>
