<?xml version="1.0" encoding="UTF-8" standalone="no"?>
<!DOCTYPE svg PUBLIC "-//W3C//DTD SVG 1.1//EN"
 "http://www.w3.org/Graphics/SVG/1.1/DTD/svg11.dtd">
<!-- Generated by graphviz version 12.2.1 (20241206.2353)
 -->
<!-- Title: elevator supervisor (core) [minstate] Pages: 1 -->
<svg width="720pt" height="86pt"
 viewBox="0.00 0.00 720.00 86.39" xmlns="http://www.w3.org/2000/svg" xmlns:xlink="http://www.w3.org/1999/xlink">
<g id="graph0" class="graph" transform="scale(0.648958 0.648958) rotate(0) translate(4 129.13)">
<title>elevator supervisor (core) [minstate]</title>
<!-- dot_dummyinit_1 -->
<g id="node1" class="node">
<title>dot_dummyinit_1</title>
</g>
<!-- 1 -->
<g id="node2" class="node">
<title>1</title>
<ellipse fill="none" stroke="black" cx="59.72" cy="-22" rx="18" ry="18"/>
<ellipse fill="none" stroke="black" cx="59.72" cy="-22" rx="22" ry="22"/>
<text text-anchor="middle" x="59.72" y="-16.57" font-family="Arial" font-size="14.00">1</text>
</g>
<!-- dot_dummyinit_1&#45;&gt;1 -->
<g id="edge1" class="edge">
<title>dot_dummyinit_1&#45;&gt;1</title>
<path fill="none" stroke="black" d="M0.89,-22C2.38,-22 13.74,-22 26,-22"/>
<polygon fill="black" stroke="black" points="25.74,-25.5 35.74,-22 25.74,-18.5 25.74,-25.5"/>
</g>
<!-- 2 -->
<g id="node4" class="node">
<title>2</title>
<ellipse fill="none" stroke="black" cx="180.72" cy="-52" rx="18" ry="18"/>
<text text-anchor="middle" x="180.72" y="-46.58" font-family="Arial" font-size="14.00">2</text>
</g>
<!-- 1&#45;&gt;2 -->
<g id="edge2" class="edge">
<title>1&#45;&gt;2</title>
<path fill="none" stroke="black" d="M81.45,-27.23C101,-32.15 130.45,-39.58 152.01,-45.01"/>
<polygon fill="black" stroke="black" points="151.04,-48.38 161.6,-47.43 152.76,-41.59 151.04,-48.38"/>
<text text-anchor="middle" x="122.22" y="-61.34" font-family="Arial" font-size="14.00">o_upb, </text>
<text text-anchor="middle" x="122.22" y="-45.59" font-family="Arial" font-size="14.00">o_lwb</text>
</g>
<!-- 9 -->
<g id="node3" class="node">
<title>9</title>
<ellipse fill="none" stroke="black" cx="617.47" cy="-56" rx="18" ry="18"/>
<ellipse fill="none" stroke="black" cx="617.47" cy="-56" rx="22" ry="22"/>
<text text-anchor="middle" x="617.47" y="-50.58" font-family="Arial" font-size="14.00">9</text>
</g>
<!-- 3 -->
<g id="node5" class="node">
<title>3</title>
<ellipse fill="none" stroke="black" cx="738.47" cy="-55" rx="18" ry="18"/>
<text text-anchor="middle" x="738.47" y="-49.58" font-family="Arial" font-size="14.00">3</text>
</g>
<!-- 9&#45;&gt;3 -->
<g id="edge17" class="edge">
<title>9&#45;&gt;3</title>
<path fill="none" stroke="black" d="M639.75,-55.82C659.06,-55.66 687.69,-55.42 708.98,-55.24"/>
<polygon fill="black" stroke="black" points="708.75,-58.74 718.72,-55.16 708.7,-51.74 708.75,-58.74"/>
<text text-anchor="middle" x="679.97" y="-73.85" font-family="Arial" font-size="14.00">o_upb, </text>
<text text-anchor="middle" x="679.97" y="-58.1" font-family="Arial" font-size="14.00">o_lwb</text>
</g>
<!-- 2&#45;&gt;2 -->
<g id="edge3" class="edge">
<title>2&#45;&gt;2</title>
<path fill="none" stroke="black" d="M171.98,-67.92C169.7,-78.15 172.61,-88 180.72,-88 185.66,-88 188.67,-84.34 189.76,-79.17"/>
<polygon fill="black" stroke="black" points="193.26,-79.33 189.5,-69.43 186.26,-79.52 193.26,-79.33"/>
<text text-anchor="middle" x="180.72" y="-106.2" font-family="Arial" font-size="14.00">o_upb, </text>
<text text-anchor="middle" x="180.72" y="-90.45" font-family="Arial" font-size="14.00">o_lwb</text>
</g>
<!-- 6 -->
<g id="node8" class="node">
<title>6</title>
<ellipse fill="none" stroke="black" cx="281.97" cy="-53" rx="18" ry="18"/>
<text text-anchor="middle" x="281.97" y="-47.58" font-family="Arial" font-size="14.00">6</text>
</g>
<!-- 2&#45;&gt;6 -->
<g id="edge4" class="edge">
<title>2&#45;&gt;6</title>
<path fill="none" stroke="black" d="M199.01,-52.17C213.65,-52.32 234.94,-52.54 252.15,-52.71"/>
<polygon fill="black" stroke="black" points="252,-56.21 262.03,-52.81 252.07,-49.21 252,-56.21"/>
<text text-anchor="middle" x="231.34" y="-55.07" font-family="Arial" font-size="14.00">c_up</text>
</g>
<!-- 3&#45;&gt;3 -->
<g id="edge5" class="edge">
<title>3&#45;&gt;3</title>
<path fill="none" stroke="black" d="M728.47,-70.54C725.65,-80.91 728.99,-91 738.47,-91 744.25,-91 747.74,-87.25 748.96,-81.98"/>
<polygon fill="black" stroke="black" points="752.46,-81.9 748.54,-72.05 745.46,-82.19 752.46,-81.9"/>
<text text-anchor="middle" x="738.47" y="-109.2" font-family="Arial" font-size="14.00">o_upb, </text>
<text text-anchor="middle" x="738.47" y="-93.45" font-family="Arial" font-size="14.00">o_lwb</text>
</g>
<!-- 7 -->
<g id="node9" class="node">
<title>7</title>
<ellipse fill="none" stroke="black" cx="856.97" cy="-55" rx="18" ry="18"/>
<text text-anchor="middle" x="856.97" y="-49.58" font-family="Arial" font-size="14.00">7</text>
</g>
<!-- 3&#45;&gt;7 -->
<g id="edge6" class="edge">
<title>3&#45;&gt;7</title>
<path fill="none" stroke="black" d="M756.91,-55C775.55,-55 805.39,-55 827.45,-55"/>
<polygon fill="black" stroke="black" points="827.28,-58.5 837.28,-55 827.28,-51.5 827.28,-58.5"/>
<text text-anchor="middle" x="797.72" y="-57.45" font-family="Arial" font-size="14.00">c_down</text>
</g>
<!-- 4 -->
<g id="node6" class="node">
<title>4</title>
<ellipse fill="none" stroke="black" cx="967.97" cy="-54" rx="18" ry="18"/>
<text text-anchor="middle" x="967.97" y="-48.58" font-family="Arial" font-size="14.00">4</text>
</g>
<!-- 4&#45;&gt;4 -->
<g id="edge7" class="edge">
<title>4&#45;&gt;4</title>
<path fill="none" stroke="black" d="M958.48,-69.54C955.81,-79.91 958.97,-90 967.97,-90 973.45,-90 976.77,-86.25 977.92,-80.98"/>
<polygon fill="black" stroke="black" points="981.42,-80.91 977.52,-71.05 974.42,-81.19 981.42,-80.91"/>
<text text-anchor="middle" x="967.97" y="-108.2" font-family="Arial" font-size="14.00">o_upb, </text>
<text text-anchor="middle" x="967.97" y="-92.45" font-family="Arial" font-size="14.00">o_lwb</text>
</g>
<!-- 8 -->
<g id="node10" class="node">
<title>8</title>
<ellipse fill="none" stroke="black" cx="1078.97" cy="-22" rx="18" ry="18"/>
<text text-anchor="middle" x="1078.97" y="-16.57" font-family="Arial" font-size="14.00">8</text>
</g>
<!-- 4&#45;&gt;8 -->
<g id="edge8" class="edge">
<title>4&#45;&gt;8</title>
<path fill="none" stroke="black" d="M985.53,-49.14C1002.73,-44.09 1029.95,-36.1 1050.41,-30.09"/>
<polygon fill="black" stroke="black" points="1051.2,-33.51 1059.81,-27.33 1049.23,-26.79 1051.2,-33.51"/>
<text text-anchor="middle" x="1023.47" y="-46.1" font-family="Arial" font-size="14.00">c_arlw</text>
</g>
<!-- 5 -->
<g id="node7" class="node">
<title>5</title>
<ellipse fill="none" stroke="black" cx="390.72" cy="-54" rx="18" ry="18"/>
<text text-anchor="middle" x="390.72" y="-48.58" font-family="Arial" font-size="14.00">5</text>
</g>
<!-- 5&#45;&gt;5 -->
<g id="edge9" class="edge">
<title>5&#45;&gt;5</title>
<path fill="none" stroke="black" d="M381.33,-69.92C378.88,-80.15 382.01,-90 390.72,-90 396.03,-90 399.26,-86.34 400.43,-81.17"/>
<polygon fill="black" stroke="black" points="403.93,-81.33 400.15,-71.43 396.93,-81.52 403.93,-81.33"/>
<text text-anchor="middle" x="390.72" y="-108.2" font-family="Arial" font-size="14.00">o_upb, </text>
<text text-anchor="middle" x="390.72" y="-92.45" font-family="Arial" font-size="14.00">o_lwb</text>
</g>
<!-- 10 -->
<g id="node11" class="node">
<title>10</title>
<ellipse fill="none" stroke="black" cx="506.6" cy="-55" rx="20.63" ry="20.63"/>
<text text-anchor="middle" x="506.6" y="-49.58" font-family="Arial" font-size="14.00">10</text>
</g>
<!-- 5&#45;&gt;10 -->
<g id="edge10" class="edge">
<title>5&#45;&gt;10</title>
<path fill="none" stroke="black" d="M409.02,-54.15C426.36,-54.3 453.46,-54.54 474.54,-54.73"/>
<polygon fill="black" stroke="black" points="474.29,-58.23 484.32,-54.81 474.35,-51.23 474.29,-58.23"/>
<text text-anchor="middle" x="447.34" y="-57.1" font-family="Arial" font-size="14.00">c_arup</text>
</g>
<!-- 6&#45;&gt;5 -->
<g id="edge11" class="edge">
<title>6&#45;&gt;5</title>
<path fill="none" stroke="black" d="M300.12,-53.16C316.52,-53.31 341.56,-53.55 361,-53.73"/>
<polygon fill="black" stroke="black" points="360.71,-57.23 370.74,-53.82 360.78,-50.23 360.71,-57.23"/>
<text text-anchor="middle" x="336.34" y="-56.1" font-family="Arial" font-size="14.00">c_lvlw</text>
</g>
<!-- 6&#45;&gt;6 -->
<g id="edge12" class="edge">
<title>6&#45;&gt;6</title>
<path fill="none" stroke="black" d="M273.23,-68.92C270.95,-79.15 273.86,-89 281.97,-89 286.91,-89 289.92,-85.34 291.01,-80.17"/>
<polygon fill="black" stroke="black" points="294.51,-80.33 290.75,-70.43 287.51,-80.52 294.51,-80.33"/>
<text text-anchor="middle" x="281.97" y="-107.2" font-family="Arial" font-size="14.00">o_upb, </text>
<text text-anchor="middle" x="281.97" y="-91.45" font-family="Arial" font-size="14.00">o_lwb</text>
</g>
<!-- 7&#45;&gt;4 -->
<g id="edge13" class="edge">
<title>7&#45;&gt;4</title>
<path fill="none" stroke="black" d="M875,-54.84C891.94,-54.69 918.24,-54.45 938.38,-54.26"/>
<polygon fill="black" stroke="black" points="938.22,-57.76 948.19,-54.17 938.15,-50.76 938.22,-57.76"/>
<text text-anchor="middle" x="912.47" y="-57.13" font-family="Arial" font-size="14.00">c_lvup</text>
</g>
<!-- 7&#45;&gt;7 -->
<g id="edge14" class="edge">
<title>7&#45;&gt;7</title>
<path fill="none" stroke="black" d="M847.48,-70.54C844.81,-80.91 847.97,-91 856.97,-91 862.45,-91 865.77,-87.25 866.92,-81.98"/>
<polygon fill="black" stroke="black" points="870.42,-81.91 866.52,-72.05 863.42,-82.19 870.42,-81.91"/>
<text text-anchor="middle" x="856.97" y="-109.2" font-family="Arial" font-size="14.00">o_upb, </text>
<text text-anchor="middle" x="856.97" y="-93.45" font-family="Arial" font-size="14.00">o_lwb</text>
</g>
<!-- 8&#45;&gt;1 -->
<g id="edge15" class="edge">
<title>8&#45;&gt;1</title>
<path fill="none" stroke="black" d="M1061.09,-17.96C1039.76,-13.22 1001.87,-6 968.97,-6 179.72,-6 179.72,-6 179.72,-6 150.12,-6 116.74,-10.92 92.88,-15.31"/>
<polygon fill="black" stroke="black" points="92.32,-11.85 83.16,-17.17 93.64,-18.73 92.32,-11.85"/>
<text text-anchor="middle" x="561.35" y="-8.45" font-family="Arial" font-size="14.00">c_stp</text>
</g>
<!-- 8&#45;&gt;8 -->
<g id="edge16" class="edge">
<title>8&#45;&gt;8</title>
<path fill="none" stroke="black" d="M1069.48,-37.54C1066.81,-47.91 1069.97,-58 1078.97,-58 1084.45,-58 1087.77,-54.25 1088.92,-48.98"/>
<polygon fill="black" stroke="black" points="1092.42,-48.91 1088.52,-39.05 1085.42,-49.19 1092.42,-48.91"/>
<text text-anchor="middle" x="1078.97" y="-76.2" font-family="Arial" font-size="14.00">o_upb, </text>
<text text-anchor="middle" x="1078.97" y="-60.45" font-family="Arial" font-size="14.00">o_lwb</text>
</g>
<!-- 10&#45;&gt;9 -->
<g id="edge18" class="edge">
<title>10&#45;&gt;9</title>
<path fill="none" stroke="black" d="M527.56,-55.18C543.28,-55.33 565.5,-55.53 583.79,-55.7"/>
<polygon fill="black" stroke="black" points="583.59,-59.2 593.63,-55.79 583.66,-52.2 583.59,-59.2"/>
<text text-anchor="middle" x="561.35" y="-58.07" font-family="Arial" font-size="14.00">c_stp</text>
</g>
<!-- 10&#45;&gt;10 -->
<g id="edge19" class="edge">
<title>10&#45;&gt;10</title>
<path fill="none" stroke="black" d="M496.82,-73.68C495,-84.06 498.25,-93.63 506.6,-93.63 511.68,-93.63 514.87,-90.07 516.18,-84.95"/>
<polygon fill="black" stroke="black" points="519.68,-85.25 516.34,-75.19 512.68,-85.13 519.68,-85.25"/>
<text text-anchor="middle" x="506.6" y="-111.83" font-family="Arial" font-size="14.00">o_upb, </text>
<text text-anchor="middle" x="506.6" y="-96.08" font-family="Arial" font-size="14.00">o_lwb</text>
</g>
</g>
</svg>
