<?xml version="1.0" encoding="UTF-8" standalone="no"?>
<!DOCTYPE svg PUBLIC "-//W3C//DTD SVG 1.0//EN"
 "http://www.w3.org/TR/2001/REC-SVG-20010904/DTD/svg10.dtd" [
 <!ATTLIST svg xmlns:xlink CDATA #FIXED "http://www.w3.org/1999/xlink">
]>
<!-- Generated by Graphviz version 2.20.2 (Tue Mar &#160;2 21:46:26 UTC 2010)
     For user: (mtmoor) Prof. Thomas Moor -->
<!-- Title: Controller B (maintenance unit) Pages: 1 -->
<svg width="720pt" height="73pt"
 viewBox="0.00 0.00 720.00 72.58" xmlns="http://www.w3.org/2000/svg" xmlns:xlink="http://www.w3.org/1999/xlink">
<g id="graph0" class="graph" transform="scale(0.967742 0.967742) rotate(0) translate(4 71)">
<title>Controller B (maintenance unit)</title>
<polygon style="fill:none;stroke:none;" points="-4,4 -4,-71 740,-71 740,4 -4,4"/>
<!-- dot_dummyinit_1 -->
<g id="node1" class="node"><title>dot_dummyinit_1</title>
</g>
<!-- 1 -->
<g id="node3" class="node"><title>1</title>
<ellipse style="fill:none;stroke:black;" cx="62" cy="-22" rx="18" ry="18"/>
<ellipse style="fill:none;stroke:black;" cx="62" cy="-22" rx="22" ry="22"/>
<text text-anchor="middle" x="62" y="-17.9" style="font-family:Times New Roman;font-size:14.00;">1</text>
</g>
<!-- dot_dummyinit_1&#45;&gt;1 -->
<g id="edge2" class="edge"><title>dot_dummyinit_1&#45;&gt;1</title>
<path style="fill:none;stroke:black;" d="M2,-22C5,-22 17,-22 30,-22"/>
<polygon style="fill:black;stroke:black;" points="30,-25.5001 40,-22 30,-18.5001 30,-25.5001"/>
</g>
<!-- 2 -->
<g id="node4" class="node"><title>2</title>
<ellipse style="fill:none;stroke:black;" cx="212" cy="-49" rx="18" ry="18"/>
<text text-anchor="middle" x="212" y="-44.9" style="font-family:Times New Roman;font-size:14.00;">2</text>
</g>
<!-- 1&#45;&gt;2 -->
<g id="edge4" class="edge"><title>1&#45;&gt;2</title>
<path style="fill:none;stroke:black;" d="M84,-26C110,-30 155,-39 184,-44"/>
<polygon style="fill:black;stroke:black;" points="183.508,-47.4708 194,-46 184.881,-40.6067 183.508,-47.4708"/>
<text text-anchor="middle" x="139" y="-43.9" style="font-family:Times New Roman;font-size:14.00;">m_request</text>
</g>
<!-- 3 -->
<g id="node5" class="node"><title>3</title>
<ellipse style="fill:none;stroke:black;" cx="314" cy="-49" rx="18" ry="18"/>
<text text-anchor="middle" x="314" y="-44.9" style="font-family:Times New Roman;font-size:14.00;">3</text>
</g>
<!-- 2&#45;&gt;3 -->
<g id="edge6" class="edge"><title>2&#45;&gt;3</title>
<path style="fill:none;stroke:black;" d="M230,-49C246,-49 268,-49 286,-49"/>
<polygon style="fill:black;stroke:black;" points="286,-52.5001 296,-49 286,-45.5001 286,-52.5001"/>
<text text-anchor="middle" x="263" y="-52.9" style="font-family:Times New Roman;font-size:14.00;">mue</text>
</g>
<!-- 4 -->
<g id="node6" class="node"><title>4</title>
<ellipse style="fill:none;stroke:black;" cx="440" cy="-49" rx="18" ry="18"/>
<text text-anchor="middle" x="440" y="-44.9" style="font-family:Times New Roman;font-size:14.00;">4</text>
</g>
<!-- 3&#45;&gt;4 -->
<g id="edge8" class="edge"><title>3&#45;&gt;4</title>
<path style="fill:none;stroke:black;" d="M332,-49C353,-49 387,-49 412,-49"/>
<polygon style="fill:black;stroke:black;" points="412,-52.5001 422,-49 412,-45.5001 412,-52.5001"/>
<text text-anchor="middle" x="377" y="-52.9" style="font-family:Times New Roman;font-size:14.00;">m_start</text>
</g>
<!-- 5 -->
<g id="node7" class="node"><title>5</title>
<ellipse style="fill:none;stroke:black;" cx="596" cy="-49" rx="18" ry="18"/>
<text text-anchor="middle" x="596" y="-44.9" style="font-family:Times New Roman;font-size:14.00;">5</text>
</g>
<!-- 4&#45;&gt;5 -->
<g id="edge10" class="edge"><title>4&#45;&gt;5</title>
<path style="fill:none;stroke:black;" d="M458,-49C485,-49 536,-49 568,-49"/>
<polygon style="fill:black;stroke:black;" points="568,-52.5001 578,-49 568,-45.5001 568,-52.5001"/>
<text text-anchor="middle" x="518" y="-52.9" style="font-family:Times New Roman;font-size:14.00;">m_complete</text>
</g>
<!-- 6 -->
<g id="node8" class="node"><title>6</title>
<ellipse style="fill:none;stroke:black;" cx="718" cy="-22" rx="18" ry="18"/>
<text text-anchor="middle" x="718" y="-17.9" style="font-family:Times New Roman;font-size:14.00;">6</text>
</g>
<!-- 5&#45;&gt;6 -->
<g id="edge12" class="edge"><title>5&#45;&gt;6</title>
<path style="fill:none;stroke:black;" d="M614,-45C634,-41 667,-33 690,-28"/>
<polygon style="fill:black;stroke:black;" points="690.881,-31.3933 700,-26 689.508,-24.5292 690.881,-31.3933"/>
<text text-anchor="middle" x="657" y="-43.9" style="font-family:Times New Roman;font-size:14.00;">m_stop</text>
</g>
<!-- 6&#45;&gt;1 -->
<g id="edge14" class="edge"><title>6&#45;&gt;1</title>
<path style="fill:none;stroke:black;" d="M700,-17C677,-12 634,-3 596,-3 212,-3 212,-3 212,-3 171,-3 124,-10 94,-15"/>
<polygon style="fill:black;stroke:black;" points="93.1194,-11.6067 84,-17 94.4922,-18.4708 93.1194,-11.6067"/>
<text text-anchor="middle" x="377" y="-6.9" style="font-family:Times New Roman;font-size:14.00;">lambda</text>
</g>
</g>
</svg>
