<?xml version="1.0" encoding="UTF-8" standalone="no"?>
<!DOCTYPE svg PUBLIC "-//W3C//DTD SVG 1.1//EN"
 "http://www.w3.org/Graphics/SVG/1.1/DTD/svg11.dtd">
<!-- Generated by graphviz version 12.2.1 (20241206.2353)
 -->
<!-- Title: E_drmot1 Pages: 1 -->
<svg width="720pt" height="113pt"
 viewBox="0.00 0.00 720.00 113.34" xmlns="http://www.w3.org/2000/svg" xmlns:xlink="http://www.w3.org/1999/xlink">
<g id="graph0" class="graph" transform="scale(0.579025 0.579025) rotate(0) translate(4 191.75)">
<title>E_drmot1</title>
<!-- dot_dummyinit_1 -->
<g id="node1" class="node">
<title>dot_dummyinit_1</title>
</g>
<!-- Opened -->
<g id="node2" class="node">
<title>Opened</title>
<path fill="none" stroke="black" d="M114.47,-36C114.47,-36 49.72,-36 49.72,-36 43.72,-36 37.72,-30 37.72,-24 37.72,-24 37.72,-12 37.72,-12 37.72,-6 43.72,0 49.72,0 49.72,0 114.47,0 114.47,0 120.47,0 126.47,-6 126.47,-12 126.47,-12 126.47,-24 126.47,-24 126.47,-30 120.47,-36 114.47,-36"/>
<text text-anchor="start" x="49.72" y="-12.57" font-family="Arial" font-size="14.00">Opened</text>
<polygon fill="black" stroke="none" points="108.47,-8.12 108.47,-27.88 116.47,-27.88 116.47,-8.12 108.47,-8.12"/>
</g>
<!-- dot_dummyinit_1&#45;&gt;Opened -->
<g id="edge1" class="edge">
<title>dot_dummyinit_1&#45;&gt;Opened</title>
<path fill="none" stroke="black" d="M0.78,-18C1.67,-18 12.71,-18 26.34,-18"/>
<polygon fill="black" stroke="black" points="26.17,-21.5 36.17,-18 26.17,-14.5 26.17,-21.5"/>
</g>
<!-- Opened&#45;&gt;Opened -->
<g id="edge3" class="edge">
<title>Opened&#45;&gt;Opened</title>
<path fill="none" stroke="black" d="M70.72,-36.15C68.97,-45.54 72.76,-54 82.09,-54 87.34,-54 90.84,-51.32 92.58,-47.31"/>
<polygon fill="black" stroke="black" points="96.05,-47.91 93.35,-37.66 89.07,-47.35 96.05,-47.91"/>
<text text-anchor="middle" x="82.09" y="-56.45" font-family="Arial" font-size="14.00">a_done</text>
</g>
<!-- CloseA -->
<g id="node7" class="node">
<title>CloseA</title>
<path fill="none" stroke="black" d="M256.47,-135C256.47,-135 220.97,-135 220.97,-135 214.97,-135 208.97,-129 208.97,-123 208.97,-123 208.97,-111 208.97,-111 208.97,-105 214.97,-99 220.97,-99 220.97,-99 256.47,-99 256.47,-99 262.47,-99 268.47,-105 268.47,-111 268.47,-111 268.47,-123 268.47,-123 268.47,-129 262.47,-135 256.47,-135"/>
<text text-anchor="middle" x="238.72" y="-111.58" font-family="Arial" font-size="14.00">CloseA</text>
</g>
<!-- Opened&#45;&gt;CloseA -->
<g id="edge2" class="edge">
<title>Opened&#45;&gt;CloseA</title>
<path fill="none" stroke="black" d="M111.82,-36.39C136.47,-52.18 172.22,-75.06 199.33,-92.42"/>
<polygon fill="black" stroke="black" points="197.31,-95.28 207.62,-97.73 201.08,-89.39 197.31,-95.28"/>
<text text-anchor="middle" x="167.72" y="-87.43" font-family="Arial" font-size="14.00">d_close</text>
</g>
<!-- Closed -->
<g id="node3" class="node">
<title>Closed</title>
<path fill="none" stroke="black" d="M818.47,-66C818.47,-66 760.47,-66 760.47,-66 754.47,-66 748.47,-60 748.47,-54 748.47,-54 748.47,-42 748.47,-42 748.47,-36 754.47,-30 760.47,-30 760.47,-30 818.47,-30 818.47,-30 824.47,-30 830.47,-36 830.47,-42 830.47,-42 830.47,-54 830.47,-54 830.47,-60 824.47,-66 818.47,-66"/>
<text text-anchor="start" x="760.47" y="-42.58" font-family="Arial" font-size="14.00">Closed</text>
<polygon fill="black" stroke="none" points="812.47,-38.12 812.47,-57.88 820.47,-57.88 820.47,-38.12 812.47,-38.12"/>
</g>
<!-- Closed&#45;&gt;Closed -->
<g id="edge5" class="edge">
<title>Closed&#45;&gt;Closed</title>
<path fill="none" stroke="black" d="M774.73,-66.15C772.46,-75.54 777.37,-84 789.47,-84 796.27,-84 800.81,-81.32 803.07,-77.31"/>
<polygon fill="black" stroke="black" points="806.52,-77.96 804.06,-67.66 799.55,-77.25 806.52,-77.96"/>
<text text-anchor="middle" x="789.47" y="-86.45" font-family="Arial" font-size="14.00">a_done</text>
</g>
<!-- OpenA -->
<g id="node4" class="node">
<title>OpenA</title>
<path fill="none" stroke="black" d="M958.22,-105C958.22,-105 923.47,-105 923.47,-105 917.47,-105 911.47,-99 911.47,-93 911.47,-93 911.47,-81 911.47,-81 911.47,-75 917.47,-69 923.47,-69 923.47,-69 958.22,-69 958.22,-69 964.22,-69 970.22,-75 970.22,-81 970.22,-81 970.22,-93 970.22,-93 970.22,-99 964.22,-105 958.22,-105"/>
<text text-anchor="middle" x="940.84" y="-81.58" font-family="Arial" font-size="14.00">OpenA</text>
</g>
<!-- Closed&#45;&gt;OpenA -->
<g id="edge4" class="edge">
<title>Closed&#45;&gt;OpenA</title>
<path fill="none" stroke="black" d="M830.89,-58.55C852.43,-64.18 878.81,-71.06 900.22,-76.65"/>
<polygon fill="black" stroke="black" points="899.2,-80.01 909.76,-79.15 900.97,-73.23 899.2,-80.01"/>
<text text-anchor="middle" x="870.97" y="-76.84" font-family="Arial" font-size="14.00">d_open</text>
</g>
<!-- OpenB -->
<g id="node5" class="node">
<title>OpenB</title>
<path fill="none" stroke="black" d="M1094.97,-105C1094.97,-105 1060.22,-105 1060.22,-105 1054.22,-105 1048.22,-99 1048.22,-93 1048.22,-93 1048.22,-81 1048.22,-81 1048.22,-75 1054.22,-69 1060.22,-69 1060.22,-69 1094.97,-69 1094.97,-69 1100.97,-69 1106.97,-75 1106.97,-81 1106.97,-81 1106.97,-93 1106.97,-93 1106.97,-99 1100.97,-105 1094.97,-105"/>
<text text-anchor="middle" x="1077.59" y="-81.58" font-family="Arial" font-size="14.00">OpenB</text>
</g>
<!-- OpenA&#45;&gt;OpenB -->
<g id="edge6" class="edge">
<title>OpenA&#45;&gt;OpenB</title>
<path fill="none" stroke="black" d="M970.42,-87C989.72,-87 1015.45,-87 1036.75,-87"/>
<polygon fill="black" stroke="black" points="1036.55,-90.5 1046.55,-87 1036.55,-83.5 1036.55,-90.5"/>
<text text-anchor="middle" x="1009.22" y="-89.45" font-family="Arial" font-size="14.00">d_arop</text>
</g>
<!-- OpenC -->
<g id="node6" class="node">
<title>OpenC</title>
<path fill="none" stroke="black" d="M1223.47,-105C1223.47,-105 1187.97,-105 1187.97,-105 1181.97,-105 1175.97,-99 1175.97,-93 1175.97,-93 1175.97,-81 1175.97,-81 1175.97,-75 1181.97,-69 1187.97,-69 1187.97,-69 1223.47,-69 1223.47,-69 1229.47,-69 1235.47,-75 1235.47,-81 1235.47,-81 1235.47,-93 1235.47,-93 1235.47,-99 1229.47,-105 1223.47,-105"/>
<text text-anchor="middle" x="1205.72" y="-81.58" font-family="Arial" font-size="14.00">OpenC</text>
</g>
<!-- OpenB&#45;&gt;OpenC -->
<g id="edge7" class="edge">
<title>OpenB&#45;&gt;OpenC</title>
<path fill="none" stroke="black" d="M1107.21,-87C1124.11,-87 1145.76,-87 1164.36,-87"/>
<polygon fill="black" stroke="black" points="1164.26,-90.5 1174.26,-87 1164.26,-83.5 1164.26,-90.5"/>
<text text-anchor="middle" x="1141.47" y="-89.45" font-family="Arial" font-size="14.00">d_stp</text>
</g>
<!-- OpenC&#45;&gt;Opened -->
<g id="edge8" class="edge">
<title>OpenC&#45;&gt;Opened</title>
<path fill="none" stroke="black" d="M1190.18,-68.56C1168.69,-43.56 1125.86,-2 1078.59,-2 237.72,-2 237.72,-2 237.72,-2 204.6,-2 167.71,-5.68 138.26,-9.5"/>
<polygon fill="black" stroke="black" points="137.9,-6.02 128.46,-10.83 138.84,-12.96 137.9,-6.02"/>
<text text-anchor="middle" x="635.84" y="-4.45" font-family="Arial" font-size="14.00">a_open</text>
</g>
<!-- CloseA&#45;&gt;OpenC -->
<g id="edge9" class="edge">
<title>CloseA&#45;&gt;OpenC</title>
<path fill="none" stroke="black" d="M266.46,-135.31C292.46,-151.31 333.68,-172 372.97,-172 372.97,-172 372.97,-172 1078.59,-172 1120.88,-172 1159.61,-138.75 1182.69,-113.84"/>
<polygon fill="black" stroke="black" points="1185.13,-116.36 1189.17,-106.57 1179.9,-111.7 1185.13,-116.36"/>
<text text-anchor="middle" x="707.22" y="-174.45" font-family="Arial" font-size="14.00">d_stp</text>
</g>
<!-- CloseB -->
<g id="node8" class="node">
<title>CloseB</title>
<path fill="none" stroke="black" d="M391.72,-135C391.72,-135 356.22,-135 356.22,-135 350.22,-135 344.22,-129 344.22,-123 344.22,-123 344.22,-111 344.22,-111 344.22,-105 350.22,-99 356.22,-99 356.22,-99 391.72,-99 391.72,-99 397.72,-99 403.72,-105 403.72,-111 403.72,-111 403.72,-123 403.72,-123 403.72,-129 397.72,-135 391.72,-135"/>
<text text-anchor="middle" x="373.97" y="-111.58" font-family="Arial" font-size="14.00">CloseB</text>
</g>
<!-- CloseA&#45;&gt;CloseB -->
<g id="edge10" class="edge">
<title>CloseA&#45;&gt;CloseB</title>
<path fill="none" stroke="black" d="M268.96,-117C287.62,-117 312.06,-117 332.56,-117"/>
<polygon fill="black" stroke="black" points="332.28,-120.5 342.28,-117 332.28,-113.5 332.28,-120.5"/>
<text text-anchor="middle" x="306.34" y="-119.45" font-family="Arial" font-size="14.00">d_lvop</text>
</g>
<!-- CloseB&#45;&gt;OpenA -->
<g id="edge11" class="edge">
<title>CloseB&#45;&gt;OpenA</title>
<path fill="none" stroke="black" d="M403.96,-120.85C430.4,-124.02 470.55,-128 505.59,-128 505.59,-128 505.59,-128 790.47,-128 828.91,-128 871,-115.22 900.67,-103.93"/>
<polygon fill="black" stroke="black" points="901.58,-107.33 909.6,-100.41 899.02,-100.82 901.58,-107.33"/>
<text text-anchor="middle" x="635.84" y="-130.45" font-family="Arial" font-size="14.00">d_open</text>
</g>
<!-- CloseC -->
<g id="node9" class="node">
<title>CloseC</title>
<path fill="none" stroke="black" d="M524.72,-95C524.72,-95 488.47,-95 488.47,-95 482.47,-95 476.47,-89 476.47,-83 476.47,-83 476.47,-71 476.47,-71 476.47,-65 482.47,-59 488.47,-59 488.47,-59 524.72,-59 524.72,-59 530.72,-59 536.72,-65 536.72,-71 536.72,-71 536.72,-83 536.72,-83 536.72,-89 530.72,-95 524.72,-95"/>
<text text-anchor="middle" x="506.59" y="-71.58" font-family="Arial" font-size="14.00">CloseC</text>
</g>
<!-- CloseB&#45;&gt;CloseC -->
<g id="edge12" class="edge">
<title>CloseB&#45;&gt;CloseC</title>
<path fill="none" stroke="black" d="M404.18,-104.59C409.94,-102.34 415.98,-100.12 421.72,-98.25 435.67,-93.71 451.18,-89.54 465.03,-86.12"/>
<polygon fill="black" stroke="black" points="465.83,-89.53 474.74,-83.79 464.2,-82.72 465.83,-89.53"/>
<text text-anchor="middle" x="440.09" y="-100.7" font-family="Arial" font-size="14.00">d_arcl</text>
</g>
<!-- CloseD -->
<g id="node10" class="node">
<title>CloseD</title>
<path fill="none" stroke="black" d="M653.97,-82C653.97,-82 617.72,-82 617.72,-82 611.72,-82 605.72,-76 605.72,-70 605.72,-70 605.72,-58 605.72,-58 605.72,-52 611.72,-46 617.72,-46 617.72,-46 653.97,-46 653.97,-46 659.97,-46 665.97,-52 665.97,-58 665.97,-58 665.97,-70 665.97,-70 665.97,-76 659.97,-82 653.97,-82"/>
<text text-anchor="middle" x="635.84" y="-58.58" font-family="Arial" font-size="14.00">CloseD</text>
</g>
<!-- CloseC&#45;&gt;CloseD -->
<g id="edge13" class="edge">
<title>CloseC&#45;&gt;CloseD</title>
<path fill="none" stroke="black" d="M537.11,-73.98C554.05,-72.25 575.58,-70.05 594.11,-68.16"/>
<polygon fill="black" stroke="black" points="594.39,-71.65 603.99,-67.15 593.68,-64.69 594.39,-71.65"/>
<text text-anchor="middle" x="571.22" y="-74.5" font-family="Arial" font-size="14.00">d_stp</text>
</g>
<!-- CloseD&#45;&gt;Closed -->
<g id="edge14" class="edge">
<title>CloseD&#45;&gt;Closed</title>
<path fill="none" stroke="black" d="M666.44,-60.88C686.44,-58.77 713.37,-55.92 736.85,-53.45"/>
<polygon fill="black" stroke="black" points="736.97,-56.95 746.55,-52.42 736.23,-49.99 736.97,-56.95"/>
<text text-anchor="middle" x="707.22" y="-61.27" font-family="Arial" font-size="14.00">a_close</text>
</g>
</g>
</svg>
