<?xml version="1.0" encoding="UTF-8" standalone="no"?>
<!DOCTYPE svg PUBLIC "-//W3C//DTD SVG 1.1//EN"
 "http://www.w3.org/Graphics/SVG/1.1/DTD/svg11.dtd">
<!-- Generated by graphviz version 12.2.1 (20241206.2353)
 -->
<!-- Title: E_drsaf1 Pages: 1 -->
<svg width="434pt" height="215pt"
 viewBox="0.00 0.00 434.22 214.50" xmlns="http://www.w3.org/2000/svg" xmlns:xlink="http://www.w3.org/1999/xlink">
<g id="graph0" class="graph" transform="scale(1 1) rotate(0) translate(4 210.5)">
<title>E_drsaf1</title>
<!-- dot_dummyinit_1 -->
<g id="node1" class="node">
<title>dot_dummyinit_1</title>
</g>
<!-- Open -->
<g id="node2" class="node">
<title>Open</title>
<path fill="none" stroke="black" d="M99.47,-48C99.47,-48 49.72,-48 49.72,-48 43.72,-48 37.72,-42 37.72,-36 37.72,-36 37.72,-24 37.72,-24 37.72,-18 43.72,-12 49.72,-12 49.72,-12 99.47,-12 99.47,-12 105.47,-12 111.47,-18 111.47,-24 111.47,-24 111.47,-36 111.47,-36 111.47,-42 105.47,-48 99.47,-48"/>
<text text-anchor="start" x="49.72" y="-24.57" font-family="Arial" font-size="14.00">Open</text>
<polygon fill="black" stroke="none" points="93.47,-20.12 93.47,-39.88 101.47,-39.88 101.47,-20.12 93.47,-20.12"/>
</g>
<!-- dot_dummyinit_1&#45;&gt;Open -->
<g id="edge1" class="edge">
<title>dot_dummyinit_1&#45;&gt;Open</title>
<path fill="none" stroke="black" d="M0.77,-30C1.64,-30 12.98,-30 26.47,-30"/>
<polygon fill="black" stroke="black" points="26.08,-33.5 36.08,-30 26.08,-26.5 26.08,-33.5"/>
</g>
<!-- Open&#45;&gt;Open -->
<g id="edge2" class="edge">
<title>Open&#45;&gt;Open</title>
<path fill="none" stroke="black" d="M64.58,-48.15C63.04,-57.54 66.38,-66 74.6,-66 79.22,-66 82.3,-63.32 83.83,-59.31"/>
<polygon fill="black" stroke="black" points="87.3,-59.88 84.51,-49.66 80.32,-59.39 87.3,-59.88"/>
<text text-anchor="middle" x="74.6" y="-115.7" font-family="Arial" font-size="14.00">d_stp, </text>
<text text-anchor="middle" x="74.6" y="-99.95" font-family="Arial" font-size="14.00">d_open, </text>
<text text-anchor="middle" x="74.6" y="-84.2" font-family="Arial" font-size="14.00">d_close, </text>
<text text-anchor="middle" x="74.6" y="-68.45" font-family="Arial" font-size="14.00">a_open</text>
</g>
<!-- Closed -->
<g id="node3" class="node">
<title>Closed</title>
<path fill="none" stroke="black" d="M263.97,-94C263.97,-94 205.97,-94 205.97,-94 199.97,-94 193.97,-88 193.97,-82 193.97,-82 193.97,-70 193.97,-70 193.97,-64 199.97,-58 205.97,-58 205.97,-58 263.97,-58 263.97,-58 269.97,-58 275.97,-64 275.97,-70 275.97,-70 275.97,-82 275.97,-82 275.97,-88 269.97,-94 263.97,-94"/>
<text text-anchor="start" x="205.97" y="-70.58" font-family="Arial" font-size="14.00">Closed</text>
<polygon fill="black" stroke="none" points="257.97,-66.12 257.97,-85.88 265.97,-85.88 265.97,-66.12 257.97,-66.12"/>
</g>
<!-- Open&#45;&gt;Closed -->
<g id="edge3" class="edge">
<title>Open&#45;&gt;Closed</title>
<path fill="none" stroke="black" d="M111.93,-40.55C132.88,-46.64 159.57,-54.39 182.64,-61.09"/>
<polygon fill="black" stroke="black" points="181.6,-64.43 192.18,-63.86 183.55,-57.71 181.6,-64.43"/>
<text text-anchor="middle" x="152.72" y="-60.92" font-family="Arial" font-size="14.00">a_close</text>
</g>
<!-- Opening -->
<g id="node4" class="node">
<title>Opening</title>
<path fill="none" stroke="black" d="M414.22,-36C414.22,-36 370.47,-36 370.47,-36 364.47,-36 358.47,-30 358.47,-24 358.47,-24 358.47,-12 358.47,-12 358.47,-6 364.47,0 370.47,0 370.47,0 414.22,0 414.22,0 420.22,0 426.22,-6 426.22,-12 426.22,-12 426.22,-24 426.22,-24 426.22,-30 420.22,-36 414.22,-36"/>
<text text-anchor="middle" x="392.35" y="-12.57" font-family="Arial" font-size="14.00">Opening</text>
</g>
<!-- Closed&#45;&gt;Opening -->
<g id="edge4" class="edge">
<title>Closed&#45;&gt;Opening</title>
<path fill="none" stroke="black" d="M272.43,-57.57C279.5,-54.28 286.9,-51.02 293.97,-48.25 311.14,-41.52 330.46,-35.25 347.34,-30.19"/>
<polygon fill="black" stroke="black" points="347.97,-33.66 356.58,-27.48 346,-26.94 347.97,-33.66"/>
<text text-anchor="middle" x="317.22" y="-50.7" font-family="Arial" font-size="14.00">d_open</text>
</g>
<!-- Moving -->
<g id="node5" class="node">
<title>Moving</title>
<path fill="none" stroke="black" d="M410.47,-157C410.47,-157 374.22,-157 374.22,-157 368.22,-157 362.22,-151 362.22,-145 362.22,-145 362.22,-133 362.22,-133 362.22,-127 368.22,-121 374.22,-121 374.22,-121 410.47,-121 410.47,-121 416.47,-121 422.47,-127 422.47,-133 422.47,-133 422.47,-145 422.47,-145 422.47,-151 416.47,-157 410.47,-157"/>
<text text-anchor="middle" x="392.35" y="-133.57" font-family="Arial" font-size="14.00">Moving</text>
</g>
<!-- Closed&#45;&gt;Moving -->
<g id="edge5" class="edge">
<title>Closed&#45;&gt;Moving</title>
<path fill="none" stroke="black" d="M276.36,-73.34C296.71,-73.71 321.12,-76.86 340.47,-87.5 351.69,-93.67 349.64,-100.73 358.47,-110 359.44,-111.02 360.45,-112.05 361.48,-113.07"/>
<polygon fill="black" stroke="black" points="358.86,-115.42 368.53,-119.76 363.68,-110.34 358.86,-115.42"/>
<text text-anchor="middle" x="317.22" y="-105.7" font-family="Arial" font-size="14.00">c_up, </text>
<text text-anchor="middle" x="317.22" y="-89.95" font-family="Arial" font-size="14.00">c_down</text>
</g>
<!-- Opening&#45;&gt;Open -->
<g id="edge6" class="edge">
<title>Opening&#45;&gt;Open</title>
<path fill="none" stroke="black" d="M358.4,-19.25C302.33,-21.38 188.13,-25.72 123.32,-28.19"/>
<polygon fill="black" stroke="black" points="123.19,-24.69 113.33,-28.57 123.45,-31.68 123.19,-24.69"/>
<text text-anchor="middle" x="234.97" y="-27.84" font-family="Arial" font-size="14.00">a_open</text>
</g>
<!-- Opening&#45;&gt;Opening -->
<g id="edge7" class="edge">
<title>Opening&#45;&gt;Opening</title>
<path fill="none" stroke="black" d="M378.75,-36.15C376.66,-45.54 381.19,-54 392.35,-54 398.62,-54 402.8,-51.32 404.88,-47.31"/>
<polygon fill="black" stroke="black" points="408.33,-47.95 405.79,-37.66 401.36,-47.28 408.33,-47.95"/>
<text text-anchor="middle" x="392.35" y="-87.95" font-family="Arial" font-size="14.00">d_stp, </text>
<text text-anchor="middle" x="392.35" y="-72.2" font-family="Arial" font-size="14.00">d_open, </text>
<text text-anchor="middle" x="392.35" y="-56.45" font-family="Arial" font-size="14.00">d_close</text>
</g>
<!-- Moving&#45;&gt;Closed -->
<g id="edge8" class="edge">
<title>Moving&#45;&gt;Closed</title>
<path fill="none" stroke="black" d="M361.78,-136.31C341.93,-133.7 315.56,-128.65 293.97,-119 283.88,-114.49 273.87,-107.99 265.07,-101.41"/>
<polygon fill="black" stroke="black" points="267.27,-98.68 257.25,-95.25 262.94,-104.19 267.27,-98.68"/>
<text text-anchor="middle" x="317.22" y="-134.82" font-family="Arial" font-size="14.00">c_stp</text>
</g>
<!-- Moving&#45;&gt;Moving -->
<g id="edge9" class="edge">
<title>Moving&#45;&gt;Moving</title>
<path fill="none" stroke="black" d="M378.75,-157.15C376.66,-166.54 381.19,-175 392.35,-175 398.62,-175 402.8,-172.32 404.88,-168.31"/>
<polygon fill="black" stroke="black" points="408.33,-168.95 405.79,-158.66 401.36,-168.28 408.33,-168.95"/>
<text text-anchor="middle" x="392.35" y="-193.2" font-family="Arial" font-size="14.00">c_up, </text>
<text text-anchor="middle" x="392.35" y="-177.45" font-family="Arial" font-size="14.00">c_down</text>
</g>
</g>
</svg>
