<?xml version="1.0" encoding="UTF-8" standalone="no"?>
<!DOCTYPE svg PUBLIC "-//W3C//DTD SVG 1.1//EN"
 "http://www.w3.org/Graphics/SVG/1.1/DTD/svg11.dtd">
<!-- Generated by graphviz version 12.2.1 (20241206.2353)
 -->
<!-- Title: operator leds spec Pages: 1 -->
<svg width="720pt" height="253pt"
 viewBox="0.00 0.00 720.00 253.45" xmlns="http://www.w3.org/2000/svg" xmlns:xlink="http://www.w3.org/1999/xlink">
<g id="graph0" class="graph" transform="scale(0.916649 0.916649) rotate(0) translate(4 272.5)">
<title>operator leds spec</title>
<!-- dot_dummyinit_1 -->
<g id="node1" class="node">
<title>dot_dummyinit_1</title>
</g>
<!-- Idle -->
<g id="node2" class="node">
<title>Idle</title>
<path fill="none" stroke="black" d="M87.47,-36C87.47,-36 49.72,-36 49.72,-36 43.72,-36 37.72,-30 37.72,-24 37.72,-24 37.72,-12 37.72,-12 37.72,-6 43.72,0 49.72,0 49.72,0 87.47,0 87.47,0 93.47,0 99.47,-6 99.47,-12 99.47,-12 99.47,-24 99.47,-24 99.47,-30 93.47,-36 87.47,-36"/>
<text text-anchor="start" x="49.72" y="-12.57" font-family="Arial" font-size="14.00">Idle</text>
<polygon fill="black" stroke="none" points="81.47,-8.12 81.47,-27.88 89.47,-27.88 89.47,-8.12 81.47,-8.12"/>
</g>
<!-- dot_dummyinit_1&#45;&gt;Idle -->
<g id="edge1" class="edge">
<title>dot_dummyinit_1&#45;&gt;Idle</title>
<path fill="none" stroke="black" d="M0.77,-18C1.6,-18 12.92,-18 26.02,-18"/>
<polygon fill="black" stroke="black" points="25.74,-21.5 35.74,-18 25.74,-14.5 25.74,-21.5"/>
</g>
<!-- On1 -->
<g id="node3" class="node">
<title>On1</title>
<path fill="none" stroke="black" d="M218.72,-66C218.72,-66 188.72,-66 188.72,-66 182.72,-66 176.72,-60 176.72,-54 176.72,-54 176.72,-42 176.72,-42 176.72,-36 182.72,-30 188.72,-30 188.72,-30 218.72,-30 218.72,-30 224.72,-30 230.72,-36 230.72,-42 230.72,-42 230.72,-54 230.72,-54 230.72,-60 224.72,-66 218.72,-66"/>
<text text-anchor="middle" x="203.72" y="-42.58" font-family="Arial" font-size="14.00">On1</text>
</g>
<!-- Idle&#45;&gt;On1 -->
<g id="edge2" class="edge">
<title>Idle&#45;&gt;On1</title>
<path fill="none" stroke="black" d="M99.8,-24.81C119.22,-29.18 144.59,-34.9 165.29,-39.56"/>
<polygon fill="black" stroke="black" points="164.23,-42.91 174.76,-41.7 165.77,-36.09 164.23,-42.91"/>
<text text-anchor="middle" x="138.1" y="-39.89" font-family="Arial" font-size="14.00">a_start</text>
</g>
<!-- On2 -->
<g id="node4" class="node">
<title>On2</title>
<path fill="none" stroke="black" d="M356.72,-66C356.72,-66 326.72,-66 326.72,-66 320.72,-66 314.72,-60 314.72,-54 314.72,-54 314.72,-42 314.72,-42 314.72,-36 320.72,-30 326.72,-30 326.72,-30 356.72,-30 356.72,-30 362.72,-30 368.72,-36 368.72,-42 368.72,-42 368.72,-54 368.72,-54 368.72,-60 362.72,-66 356.72,-66"/>
<text text-anchor="middle" x="341.72" y="-42.58" font-family="Arial" font-size="14.00">On2</text>
</g>
<!-- On1&#45;&gt;On2 -->
<g id="edge3" class="edge">
<title>On1&#45;&gt;On2</title>
<path fill="none" stroke="black" d="M230.94,-48C251.45,-48 280.23,-48 303.18,-48"/>
<polygon fill="black" stroke="black" points="303.06,-51.5 313.06,-48 303.06,-44.5 303.06,-51.5"/>
<text text-anchor="middle" x="272.72" y="-50.45" font-family="Arial" font-size="14.00">o_uplon</text>
</g>
<!-- Busy -->
<g id="node5" class="node">
<title>Busy</title>
<path fill="none" stroke="black" d="M492.47,-66C492.47,-66 462.47,-66 462.47,-66 456.47,-66 450.47,-60 450.47,-54 450.47,-54 450.47,-42 450.47,-42 450.47,-36 456.47,-30 462.47,-30 462.47,-30 492.47,-30 492.47,-30 498.47,-30 504.47,-36 504.47,-42 504.47,-42 504.47,-54 504.47,-54 504.47,-60 498.47,-66 492.47,-66"/>
<text text-anchor="middle" x="477.47" y="-42.58" font-family="Arial" font-size="14.00">Busy</text>
</g>
<!-- On2&#45;&gt;Busy -->
<g id="edge4" class="edge">
<title>On2&#45;&gt;Busy</title>
<path fill="none" stroke="black" d="M369.14,-48C389.02,-48 416.53,-48 438.73,-48"/>
<polygon fill="black" stroke="black" points="438.59,-51.5 448.59,-48 438.59,-44.5 438.59,-51.5"/>
<text text-anchor="middle" x="409.6" y="-50.45" font-family="Arial" font-size="14.00">o_lwlon</text>
</g>
<!-- Busy&#45;&gt;Busy -->
<g id="edge7" class="edge">
<title>Busy&#45;&gt;Busy</title>
<path fill="none" stroke="black" d="M475.43,-66.15C475.12,-75.54 475.8,-84 477.47,-84 478.38,-84 479,-81.47 479.32,-77.64"/>
<polygon fill="black" stroke="black" points="482.82,-77.72 479.48,-67.67 475.82,-77.61 482.82,-77.72"/>
<text text-anchor="middle" x="477.47" y="-86.45" font-family="Arial" font-size="14.00">d_open</text>
</g>
<!-- Busy&#45;&gt;Busy -->
<g id="edge8" class="edge">
<title>Busy&#45;&gt;Busy</title>
<path fill="none" stroke="black" d="M474.06,-66.26C472.29,-83.4 473.43,-102 477.47,-102 480.63,-102 482.01,-90.65 481.62,-77.51"/>
<polygon fill="black" stroke="black" points="485.13,-77.52 480.98,-67.77 478.15,-77.98 485.13,-77.52"/>
<text text-anchor="middle" x="477.47" y="-104.45" font-family="Arial" font-size="14.00">d_close</text>
</g>
<!-- Busy&#45;&gt;Busy -->
<g id="edge9" class="edge">
<title>Busy&#45;&gt;Busy</title>
<path fill="none" stroke="black" d="M473.14,-66.44C469.44,-90.7 470.88,-120 477.47,-120 483.06,-120 484.94,-98.95 483.13,-77.76"/>
<polygon fill="black" stroke="black" points="486.62,-77.47 481.97,-67.94 479.67,-78.29 486.62,-77.47"/>
<text text-anchor="middle" x="477.47" y="-122.45" font-family="Arial" font-size="14.00">d_stp</text>
</g>
<!-- Busy&#45;&gt;Busy -->
<g id="edge10" class="edge">
<title>Busy&#45;&gt;Busy</title>
<path fill="none" stroke="black" d="M472.58,-66.11C466.57,-97.24 468.2,-138 477.47,-138 485.66,-138 487.89,-106.23 484.16,-77.37"/>
<polygon fill="black" stroke="black" points="487.63,-76.93 482.6,-67.61 480.72,-78.03 487.63,-76.93"/>
<text text-anchor="middle" x="477.47" y="-140.45" font-family="Arial" font-size="14.00">c_up</text>
</g>
<!-- Busy&#45;&gt;Busy -->
<g id="edge11" class="edge">
<title>Busy&#45;&gt;Busy</title>
<path fill="none" stroke="black" d="M472.08,-66.32C463.73,-104.03 465.52,-156 477.47,-156 488.3,-156 490.79,-113.32 484.94,-77.24"/>
<polygon fill="black" stroke="black" points="488.45,-76.97 483.14,-67.8 481.58,-78.28 488.45,-76.97"/>
<text text-anchor="middle" x="477.47" y="-158.45" font-family="Arial" font-size="14.00">c_down</text>
</g>
<!-- Busy&#45;&gt;Busy -->
<g id="edge12" class="edge">
<title>Busy&#45;&gt;Busy</title>
<path fill="none" stroke="black" d="M471.71,-66.36C460.88,-110.55 462.8,-174 477.47,-174 490.93,-174 493.66,-120.53 485.64,-77.58"/>
<polygon fill="black" stroke="black" points="489.07,-76.89 483.55,-67.84 482.22,-78.36 489.07,-76.89"/>
<text text-anchor="middle" x="477.47" y="-176.45" font-family="Arial" font-size="14.00">c_stp</text>
</g>
<!-- Off1 -->
<g id="node6" class="node">
<title>Off1</title>
<path fill="none" stroke="black" d="M627.47,-66C627.47,-66 597.47,-66 597.47,-66 591.47,-66 585.47,-60 585.47,-54 585.47,-54 585.47,-42 585.47,-42 585.47,-36 591.47,-30 597.47,-30 597.47,-30 627.47,-30 627.47,-30 633.47,-30 639.47,-36 639.47,-42 639.47,-42 639.47,-54 639.47,-54 639.47,-60 633.47,-66 627.47,-66"/>
<text text-anchor="middle" x="612.47" y="-42.58" font-family="Arial" font-size="14.00">Off1</text>
</g>
<!-- Busy&#45;&gt;Off1 -->
<g id="edge5" class="edge">
<title>Busy&#45;&gt;Off1</title>
<path fill="none" stroke="black" d="M504.83,-55C510.6,-56.25 516.71,-57.35 522.47,-58 542.35,-60.23 547.59,-60.23 567.47,-58 569.63,-57.76 571.84,-57.45 574.06,-57.09"/>
<polygon fill="black" stroke="black" points="574.45,-60.58 583.62,-55.28 573.14,-53.71 574.45,-60.58"/>
<text text-anchor="middle" x="544.97" y="-62.12" font-family="Arial" font-size="14.00">a_done</text>
</g>
<!-- Busy&#45;&gt;Off1 -->
<g id="edge6" class="edge">
<title>Busy&#45;&gt;Off1</title>
<path fill="none" stroke="black" d="M504.84,-41.18C510.61,-39.96 516.71,-38.88 522.47,-38.25 542.35,-36.07 547.59,-36.07 567.47,-38.25 569.54,-38.48 571.65,-38.76 573.78,-39.09"/>
<polygon fill="black" stroke="black" points="573.14,-42.53 583.61,-40.9 574.41,-35.65 573.14,-42.53"/>
<text text-anchor="middle" x="544.97" y="-40.7" font-family="Arial" font-size="14.00">a_fail</text>
</g>
<!-- Off2 -->
<g id="node7" class="node">
<title>Off2</title>
<path fill="none" stroke="black" d="M765.47,-36C765.47,-36 735.47,-36 735.47,-36 729.47,-36 723.47,-30 723.47,-24 723.47,-24 723.47,-12 723.47,-12 723.47,-6 729.47,0 735.47,0 735.47,0 765.47,0 765.47,0 771.47,0 777.47,-6 777.47,-12 777.47,-12 777.47,-24 777.47,-24 777.47,-30 771.47,-36 765.47,-36"/>
<text text-anchor="middle" x="750.47" y="-12.57" font-family="Arial" font-size="14.00">Off2</text>
</g>
<!-- Off1&#45;&gt;Off2 -->
<g id="edge13" class="edge">
<title>Off1&#45;&gt;Off2</title>
<path fill="none" stroke="black" d="M639.69,-42.22C660.29,-37.67 689.25,-31.28 712.25,-26.21"/>
<polygon fill="black" stroke="black" points="712.84,-29.66 721.85,-24.09 711.33,-22.83 712.84,-29.66"/>
<text text-anchor="middle" x="681.47" y="-39.89" font-family="Arial" font-size="14.00">o_uploff</text>
</g>
<!-- Off2&#45;&gt;Idle -->
<g id="edge14" class="edge">
<title>Off2&#45;&gt;Idle</title>
<path fill="none" stroke="black" d="M723,-13.03C695.67,-8.33 651.75,-2 613.47,-2 202.72,-2 202.72,-2 202.72,-2 171.8,-2 137.12,-6.31 110.91,-10.45"/>
<polygon fill="black" stroke="black" points="110.67,-6.95 101.37,-12.02 111.8,-13.85 110.67,-6.95"/>
<text text-anchor="middle" x="409.6" y="-4.45" font-family="Arial" font-size="14.00">o_lwloff</text>
</g>
</g>
</svg>
