<?xml version="1.0" encoding="UTF-8" standalone="no"?>
<!DOCTYPE svg PUBLIC "-//W3C//DTD SVG 1.1//EN"
 "http://www.w3.org/Graphics/SVG/1.1/DTD/svg11.dtd">
<!-- Generated by graphviz version 12.2.1 (20241206.2353)
 -->
<!-- Title: operator leds spec Pages: 1 -->
<svg width="720pt" height="161pt"
 viewBox="0.00 0.00 720.00 161.11" xmlns="http://www.w3.org/2000/svg" xmlns:xlink="http://www.w3.org/1999/xlink">
<g id="graph0" class="graph" transform="scale(0.863858 0.863858) rotate(0) translate(4 182.5)">
<title>operator leds spec</title>
<!-- dot_dummyinit_1 -->
<g id="node1" class="node">
<title>dot_dummyinit_1</title>
</g>
<!-- Idle -->
<g id="node2" class="node">
<title>Idle</title>
<path fill="none" stroke="black" d="M87.47,-36C87.47,-36 49.72,-36 49.72,-36 43.72,-36 37.72,-30 37.72,-24 37.72,-24 37.72,-12 37.72,-12 37.72,-6 43.72,0 49.72,0 49.72,0 87.47,0 87.47,0 93.47,0 99.47,-6 99.47,-12 99.47,-12 99.47,-24 99.47,-24 99.47,-30 93.47,-36 87.47,-36"/>
<text text-anchor="start" x="49.72" y="-12.57" font-family="Arial" font-size="14.00">Idle</text>
<polygon fill="black" stroke="none" points="81.47,-8.12 81.47,-27.88 89.47,-27.88 89.47,-8.12 81.47,-8.12"/>
</g>
<!-- dot_dummyinit_1&#45;&gt;Idle -->
<g id="edge1" class="edge">
<title>dot_dummyinit_1&#45;&gt;Idle</title>
<path fill="none" stroke="black" d="M0.77,-18C1.6,-18 12.92,-18 26.02,-18"/>
<polygon fill="black" stroke="black" points="25.74,-21.5 35.74,-18 25.74,-14.5 25.74,-21.5"/>
</g>
<!-- On1 -->
<g id="node3" class="node">
<title>On1</title>
<path fill="none" stroke="black" d="M218.72,-66C218.72,-66 188.72,-66 188.72,-66 182.72,-66 176.72,-60 176.72,-54 176.72,-54 176.72,-42 176.72,-42 176.72,-36 182.72,-30 188.72,-30 188.72,-30 218.72,-30 218.72,-30 224.72,-30 230.72,-36 230.72,-42 230.72,-42 230.72,-54 230.72,-54 230.72,-60 224.72,-66 218.72,-66"/>
<text text-anchor="middle" x="203.72" y="-42.58" font-family="Arial" font-size="14.00">On1</text>
</g>
<!-- Idle&#45;&gt;On1 -->
<g id="edge2" class="edge">
<title>Idle&#45;&gt;On1</title>
<path fill="none" stroke="black" d="M99.8,-24.81C119.22,-29.18 144.59,-34.9 165.29,-39.56"/>
<polygon fill="black" stroke="black" points="164.23,-42.91 174.76,-41.7 165.77,-36.09 164.23,-42.91"/>
<text text-anchor="middle" x="138.1" y="-39.89" font-family="Arial" font-size="14.00">a_start</text>
</g>
<!-- On2 -->
<g id="node4" class="node">
<title>On2</title>
<path fill="none" stroke="black" d="M356.72,-66C356.72,-66 326.72,-66 326.72,-66 320.72,-66 314.72,-60 314.72,-54 314.72,-54 314.72,-42 314.72,-42 314.72,-36 320.72,-30 326.72,-30 326.72,-30 356.72,-30 356.72,-30 362.72,-30 368.72,-36 368.72,-42 368.72,-42 368.72,-54 368.72,-54 368.72,-60 362.72,-66 356.72,-66"/>
<text text-anchor="middle" x="341.72" y="-42.58" font-family="Arial" font-size="14.00">On2</text>
</g>
<!-- On1&#45;&gt;On2 -->
<g id="edge3" class="edge">
<title>On1&#45;&gt;On2</title>
<path fill="none" stroke="black" d="M230.94,-48C251.45,-48 280.23,-48 303.18,-48"/>
<polygon fill="black" stroke="black" points="303.06,-51.5 313.06,-48 303.06,-44.5 303.06,-51.5"/>
<text text-anchor="middle" x="272.72" y="-50.45" font-family="Arial" font-size="14.00">o_uplon</text>
</g>
<!-- Busy -->
<g id="node5" class="node">
<title>Busy</title>
<path fill="none" stroke="black" d="M512.72,-66C512.72,-66 482.72,-66 482.72,-66 476.72,-66 470.72,-60 470.72,-54 470.72,-54 470.72,-42 470.72,-42 470.72,-36 476.72,-30 482.72,-30 482.72,-30 512.72,-30 512.72,-30 518.72,-30 524.72,-36 524.72,-42 524.72,-42 524.72,-54 524.72,-54 524.72,-60 518.72,-66 512.72,-66"/>
<text text-anchor="middle" x="497.72" y="-42.58" font-family="Arial" font-size="14.00">Busy</text>
</g>
<!-- On2&#45;&gt;Busy -->
<g id="edge4" class="edge">
<title>On2&#45;&gt;Busy</title>
<path fill="none" stroke="black" d="M369.19,-48C393.95,-48 431.18,-48 459.04,-48"/>
<polygon fill="black" stroke="black" points="458.82,-51.5 468.82,-48 458.82,-44.5 458.82,-51.5"/>
<text text-anchor="middle" x="409.6" y="-50.45" font-family="Arial" font-size="14.00">o_lwlon</text>
</g>
<!-- Busy&#45;&gt;Busy -->
<g id="edge5" class="edge">
<title>Busy&#45;&gt;Busy</title>
<path fill="none" stroke="black" d="M481.78,-66.15C479.32,-75.54 484.64,-84 497.72,-84 505.08,-84 509.98,-81.32 512.42,-77.31"/>
<polygon fill="black" stroke="black" points="515.87,-77.98 513.5,-67.66 508.91,-77.21 515.87,-77.98"/>
<text text-anchor="middle" x="497.72" y="-165.2" font-family="Arial" font-size="14.00">d_open, </text>
<text text-anchor="middle" x="497.72" y="-149.45" font-family="Arial" font-size="14.00">d_close, </text>
<text text-anchor="middle" x="497.72" y="-133.7" font-family="Arial" font-size="14.00">d_stp, </text>
<text text-anchor="middle" x="497.72" y="-117.95" font-family="Arial" font-size="14.00">c_up, </text>
<text text-anchor="middle" x="497.72" y="-102.2" font-family="Arial" font-size="14.00">c_down, </text>
<text text-anchor="middle" x="497.72" y="-86.45" font-family="Arial" font-size="14.00">c_stp</text>
</g>
<!-- Off1 -->
<g id="node6" class="node">
<title>Off1</title>
<path fill="none" stroke="black" d="M675.47,-66C675.47,-66 645.47,-66 645.47,-66 639.47,-66 633.47,-60 633.47,-54 633.47,-54 633.47,-42 633.47,-42 633.47,-36 639.47,-30 645.47,-30 645.47,-30 675.47,-30 675.47,-30 681.47,-30 687.47,-36 687.47,-42 687.47,-42 687.47,-54 687.47,-54 687.47,-60 681.47,-66 675.47,-66"/>
<text text-anchor="middle" x="660.47" y="-42.58" font-family="Arial" font-size="14.00">Off1</text>
</g>
<!-- Busy&#45;&gt;Off1 -->
<g id="edge6" class="edge">
<title>Busy&#45;&gt;Off1</title>
<path fill="none" stroke="black" d="M524.91,-48C551.22,-48 592.03,-48 621.81,-48"/>
<polygon fill="black" stroke="black" points="621.52,-51.5 631.52,-48 621.52,-44.5 621.52,-51.5"/>
<text text-anchor="middle" x="589.22" y="-66.2" font-family="Arial" font-size="14.00">a_done, </text>
<text text-anchor="middle" x="589.22" y="-50.45" font-family="Arial" font-size="14.00">a_fail</text>
</g>
<!-- Off2 -->
<g id="node7" class="node">
<title>Off2</title>
<path fill="none" stroke="black" d="M813.47,-36C813.47,-36 783.47,-36 783.47,-36 777.47,-36 771.47,-30 771.47,-24 771.47,-24 771.47,-12 771.47,-12 771.47,-6 777.47,0 783.47,0 783.47,0 813.47,0 813.47,0 819.47,0 825.47,-6 825.47,-12 825.47,-12 825.47,-24 825.47,-24 825.47,-30 819.47,-36 813.47,-36"/>
<text text-anchor="middle" x="798.47" y="-12.57" font-family="Arial" font-size="14.00">Off2</text>
</g>
<!-- Off1&#45;&gt;Off2 -->
<g id="edge7" class="edge">
<title>Off1&#45;&gt;Off2</title>
<path fill="none" stroke="black" d="M687.69,-42.22C708.29,-37.67 737.25,-31.28 760.25,-26.21"/>
<polygon fill="black" stroke="black" points="760.84,-29.66 769.85,-24.09 759.33,-22.83 760.84,-29.66"/>
<text text-anchor="middle" x="729.47" y="-39.89" font-family="Arial" font-size="14.00">o_uploff</text>
</g>
<!-- Off2&#45;&gt;Idle -->
<g id="edge8" class="edge">
<title>Off2&#45;&gt;Idle</title>
<path fill="none" stroke="black" d="M771,-13.03C743.67,-8.33 699.75,-2 661.47,-2 202.72,-2 202.72,-2 202.72,-2 171.8,-2 137.12,-6.31 110.91,-10.45"/>
<polygon fill="black" stroke="black" points="110.67,-6.95 101.37,-12.02 111.8,-13.85 110.67,-6.95"/>
<text text-anchor="middle" x="409.6" y="-4.45" font-family="Arial" font-size="14.00">o_lwloff</text>
</g>
</g>
</svg>
