<?xml version="1.0" encoding="UTF-8" standalone="no"?>
<!DOCTYPE svg PUBLIC "-//W3C//DTD SVG 1.1//EN"
 "http://www.w3.org/Graphics/SVG/1.1/DTD/svg11.dtd">
<!-- Generated by graphviz version 12.2.1 (20241206.2353)
 -->
<!-- Title: FullLanguage(NameSet)||E_opcmd||E_cabmot Pages: 1 -->
<svg width="432pt" height="252pt"
 viewBox="0.00 0.00 431.72 251.93" xmlns="http://www.w3.org/2000/svg" xmlns:xlink="http://www.w3.org/1999/xlink">
<g id="graph0" class="graph" transform="scale(1 1) rotate(0) translate(4 247.93)">
<title>FullLanguage(NameSet)||E_opcmd||E_cabmot</title>
<!-- dot_dummyinit_1 -->
<g id="node1" class="node">
<title>dot_dummyinit_1</title>
</g>
<!-- 1 -->
<g id="node2" class="node">
<title>1</title>
<ellipse fill="none" stroke="black" cx="59.72" cy="-23.43" rx="18" ry="18"/>
<ellipse fill="none" stroke="black" cx="59.72" cy="-23.43" rx="22" ry="22"/>
<text text-anchor="middle" x="59.72" y="-18.01" font-family="Arial" font-size="14.00">1</text>
</g>
<!-- dot_dummyinit_1&#45;&gt;1 -->
<g id="edge1" class="edge">
<title>dot_dummyinit_1&#45;&gt;1</title>
<path fill="none" stroke="black" d="M0.89,-23.43C2.38,-23.43 13.74,-23.43 26,-23.43"/>
<polygon fill="black" stroke="black" points="25.74,-26.93 35.74,-23.43 25.74,-19.93 25.74,-26.93"/>
</g>
<!-- 1&#45;&gt;1 -->
<g id="edge2" class="edge">
<title>1&#45;&gt;1</title>
<path fill="none" stroke="black" d="M55.98,-45.24C55.63,-54.99 56.87,-63.43 59.72,-63.43 61.32,-63.43 62.42,-60.76 63,-56.69"/>
<polygon fill="black" stroke="black" points="66.5,-56.88 63.4,-46.75 59.51,-56.6 66.5,-56.88"/>
<text text-anchor="middle" x="59.72" y="-65.88" font-family="Arial" font-size="14.00">c_arlw</text>
</g>
<!-- 1&#45;&gt;1 -->
<g id="edge3" class="edge">
<title>1&#45;&gt;1</title>
<path fill="none" stroke="black" d="M53.28,-44.85C50.53,-62.74 52.68,-81.43 59.72,-81.43 65.28,-81.43 67.78,-69.79 67.24,-56.09"/>
<polygon fill="black" stroke="black" points="70.75,-55.97 66.3,-46.35 63.78,-56.64 70.75,-55.97"/>
<text text-anchor="middle" x="59.72" y="-83.88" font-family="Arial" font-size="14.00">c_arup</text>
</g>
<!-- 2 -->
<g id="node3" class="node">
<title>2</title>
<ellipse fill="none" stroke="black" cx="173.22" cy="-55.43" rx="18" ry="18"/>
<text text-anchor="middle" x="173.22" y="-50.01" font-family="Arial" font-size="14.00">2</text>
</g>
<!-- 1&#45;&gt;2 -->
<g id="edge4" class="edge">
<title>1&#45;&gt;2</title>
<path fill="none" stroke="black" d="M79.86,-32.71C86.09,-35.48 93.1,-38.33 99.72,-40.43 114.03,-44.98 130.37,-48.49 143.91,-50.98"/>
<polygon fill="black" stroke="black" points="143.03,-54.38 153.48,-52.64 144.22,-47.48 143.03,-54.38"/>
<text text-anchor="middle" x="118.47" y="-52.1" font-family="Arial" font-size="14.00">o_upb</text>
</g>
<!-- 1&#45;&gt;2 -->
<g id="edge5" class="edge">
<title>1&#45;&gt;2</title>
<path fill="none" stroke="black" d="M81.35,-18.19C97.23,-15.2 119.4,-13.34 137.22,-20.68 143.61,-23.31 149.45,-27.74 154.45,-32.57"/>
<polygon fill="black" stroke="black" points="151.66,-34.71 161,-39.71 156.82,-29.98 151.66,-34.71"/>
<text text-anchor="middle" x="118.47" y="-23.13" font-family="Arial" font-size="14.00">o_lwb</text>
</g>
<!-- 2&#45;&gt;2 -->
<g id="edge8" class="edge">
<title>2&#45;&gt;2</title>
<path fill="none" stroke="black" d="M170.74,-73.58C170.36,-82.97 171.19,-91.43 173.22,-91.43 174.33,-91.43 175.08,-88.9 175.47,-85.07"/>
<polygon fill="black" stroke="black" points="178.97,-85.16 175.67,-75.1 171.97,-85.03 178.97,-85.16"/>
<text text-anchor="middle" x="173.22" y="-93.88" font-family="Arial" font-size="14.00">c_arlw</text>
</g>
<!-- 2&#45;&gt;2 -->
<g id="edge9" class="edge">
<title>2&#45;&gt;2</title>
<path fill="none" stroke="black" d="M169.11,-73.41C166.9,-90.63 168.27,-109.43 173.22,-109.43 177.08,-109.43 178.77,-97.96 178.27,-84.72"/>
<polygon fill="black" stroke="black" points="181.77,-84.6 177.46,-74.92 174.79,-85.17 181.77,-84.6"/>
<text text-anchor="middle" x="173.22" y="-111.88" font-family="Arial" font-size="14.00">c_arup</text>
</g>
<!-- 2&#45;&gt;2 -->
<g id="edge10" class="edge">
<title>2&#45;&gt;2</title>
<path fill="none" stroke="black" d="M168.09,-73.15C163.41,-97.55 165.12,-127.43 173.22,-127.43 180.12,-127.43 182.38,-105.76 180.01,-84.26"/>
<polygon fill="black" stroke="black" points="183.51,-84.01 178.57,-74.64 176.59,-85.05 183.51,-84.01"/>
<text text-anchor="middle" x="173.22" y="-129.88" font-family="Arial" font-size="14.00">o_upb</text>
</g>
<!-- 2&#45;&gt;2 -->
<g id="edge11" class="edge">
<title>2&#45;&gt;2</title>
<path fill="none" stroke="black" d="M167.48,-72.66C159.92,-103.89 161.83,-145.43 173.22,-145.43 183.32,-145.43 185.97,-112.77 181.16,-83.6"/>
<polygon fill="black" stroke="black" points="184.67,-83.26 179.26,-74.14 177.8,-84.64 184.67,-83.26"/>
<text text-anchor="middle" x="173.22" y="-147.88" font-family="Arial" font-size="14.00">o_lwb</text>
</g>
<!-- 3 -->
<g id="node4" class="node">
<title>3</title>
<ellipse fill="none" stroke="black" cx="291.72" cy="-158.43" rx="18" ry="18"/>
<text text-anchor="middle" x="291.72" y="-153.01" font-family="Arial" font-size="14.00">3</text>
</g>
<!-- 2&#45;&gt;3 -->
<g id="edge6" class="edge">
<title>2&#45;&gt;3</title>
<path fill="none" stroke="black" d="M187.13,-66.85C206.99,-84.4 245.24,-118.22 269.29,-139.49"/>
<polygon fill="black" stroke="black" points="266.81,-141.96 276.62,-145.96 271.44,-136.72 266.81,-141.96"/>
<text text-anchor="middle" x="232.47" y="-127.56" font-family="Arial" font-size="14.00">c_up</text>
</g>
<!-- 4 -->
<g id="node5" class="node">
<title>4</title>
<ellipse fill="none" stroke="black" cx="291.72" cy="-36.43" rx="18" ry="18"/>
<text text-anchor="middle" x="291.72" y="-31.01" font-family="Arial" font-size="14.00">4</text>
</g>
<!-- 2&#45;&gt;4 -->
<g id="edge7" class="edge">
<title>2&#45;&gt;4</title>
<path fill="none" stroke="black" d="M191.41,-52.63C210.08,-49.58 240.2,-44.67 262.38,-41.05"/>
<polygon fill="black" stroke="black" points="262.66,-44.55 271.97,-39.49 261.53,-37.64 262.66,-44.55"/>
<text text-anchor="middle" x="232.47" y="-51.74" font-family="Arial" font-size="14.00">c_down</text>
</g>
<!-- 3&#45;&gt;3 -->
<g id="edge13" class="edge">
<title>3&#45;&gt;3</title>
<path fill="none" stroke="black" d="M286.63,-176.21C285.77,-185.75 287.46,-194.43 291.72,-194.43 294.12,-194.43 295.7,-191.68 296.47,-187.58"/>
<polygon fill="black" stroke="black" points="299.97,-187.82 296.76,-177.73 292.97,-187.62 299.97,-187.82"/>
<text text-anchor="middle" x="291.72" y="-196.88" font-family="Arial" font-size="14.00">o_upb</text>
</g>
<!-- 3&#45;&gt;3 -->
<g id="edge14" class="edge">
<title>3&#45;&gt;3</title>
<path fill="none" stroke="black" d="M283.59,-175.02C278.5,-192.6 281.21,-212.43 291.72,-212.43 300.01,-212.43 303.45,-200.08 302.03,-186.24"/>
<polygon fill="black" stroke="black" points="305.48,-185.65 300.13,-176.5 298.61,-186.99 305.48,-185.65"/>
<text text-anchor="middle" x="291.72" y="-214.88" font-family="Arial" font-size="14.00">o_lwb</text>
</g>
<!-- 5 -->
<g id="node6" class="node">
<title>5</title>
<ellipse fill="none" stroke="black" cx="404.97" cy="-36.43" rx="18" ry="18"/>
<text text-anchor="middle" x="404.97" y="-31.01" font-family="Arial" font-size="14.00">5</text>
</g>
<!-- 3&#45;&gt;5 -->
<g id="edge12" class="edge">
<title>3&#45;&gt;5</title>
<path fill="none" stroke="black" d="M304.63,-145.37C323.78,-124.37 361.62,-82.88 384.67,-57.6"/>
<polygon fill="black" stroke="black" points="386.98,-60.26 391.13,-50.51 381.81,-55.54 386.98,-60.26"/>
<text text-anchor="middle" x="348.35" y="-121.42" font-family="Arial" font-size="14.00">c_arup</text>
</g>
<!-- 4&#45;&gt;4 -->
<g id="edge16" class="edge">
<title>4&#45;&gt;4</title>
<path fill="none" stroke="black" d="M286.63,-54.21C285.77,-63.75 287.46,-72.43 291.72,-72.43 294.12,-72.43 295.7,-69.68 296.47,-65.58"/>
<polygon fill="black" stroke="black" points="299.97,-65.82 296.76,-55.73 292.97,-65.62 299.97,-65.82"/>
<text text-anchor="middle" x="291.72" y="-74.88" font-family="Arial" font-size="14.00">o_upb</text>
</g>
<!-- 4&#45;&gt;4 -->
<g id="edge17" class="edge">
<title>4&#45;&gt;4</title>
<path fill="none" stroke="black" d="M283.59,-53.02C278.5,-70.6 281.21,-90.43 291.72,-90.43 300.01,-90.43 303.45,-78.08 302.03,-64.24"/>
<polygon fill="black" stroke="black" points="305.48,-63.65 300.13,-54.5 298.61,-64.99 305.48,-63.65"/>
<text text-anchor="middle" x="291.72" y="-92.88" font-family="Arial" font-size="14.00">o_lwb</text>
</g>
<!-- 4&#45;&gt;5 -->
<g id="edge15" class="edge">
<title>4&#45;&gt;5</title>
<path fill="none" stroke="black" d="M310.1,-36.43C327.57,-36.43 354.8,-36.43 375.44,-36.43"/>
<polygon fill="black" stroke="black" points="375.2,-39.93 385.2,-36.43 375.2,-32.93 375.2,-39.93"/>
<text text-anchor="middle" x="348.35" y="-38.88" font-family="Arial" font-size="14.00">c_arlw</text>
</g>
<!-- 5&#45;&gt;1 -->
<g id="edge18" class="edge">
<title>5&#45;&gt;1</title>
<path fill="none" stroke="black" d="M387.59,-30.22C369.02,-23.55 337.7,-13.36 309.72,-9.43 217.29,3.55 191.94,2.98 99.72,-11.43 97.06,-11.85 94.34,-12.4 91.62,-13.05"/>
<polygon fill="black" stroke="black" points="90.86,-9.63 82.16,-15.67 92.73,-16.37 90.86,-9.63"/>
<text text-anchor="middle" x="232.47" y="-5.06" font-family="Arial" font-size="14.00">c_stp</text>
</g>
<!-- 5&#45;&gt;5 -->
<g id="edge19" class="edge">
<title>5&#45;&gt;5</title>
<path fill="none" stroke="black" d="M399.88,-54.21C399.02,-63.75 400.71,-72.43 404.97,-72.43 407.37,-72.43 408.95,-69.68 409.72,-65.58"/>
<polygon fill="black" stroke="black" points="413.22,-65.82 410.01,-55.73 406.22,-65.62 413.22,-65.82"/>
<text text-anchor="middle" x="404.97" y="-74.88" font-family="Arial" font-size="14.00">o_upb</text>
</g>
<!-- 5&#45;&gt;5 -->
<g id="edge20" class="edge">
<title>5&#45;&gt;5</title>
<path fill="none" stroke="black" d="M396.84,-53.02C391.75,-70.6 394.46,-90.43 404.97,-90.43 413.26,-90.43 416.7,-78.08 415.28,-64.24"/>
<polygon fill="black" stroke="black" points="418.73,-63.65 413.38,-54.5 411.86,-64.99 418.73,-63.65"/>
<text text-anchor="middle" x="404.97" y="-92.88" font-family="Arial" font-size="14.00">o_lwb</text>
</g>
</g>
</svg>
