<?xml version="1.0" encoding="UTF-8" standalone="no"?>
<!DOCTYPE svg PUBLIC "-//W3C//DTD SVG 1.1//EN"
 "http://www.w3.org/Graphics/SVG/1.1/DTD/svg11.dtd">
<!-- Generated by graphviz version 12.2.1 (20241206.2353)
 -->
<!-- Title: PlantA (process) Pages: 1 -->
<svg width="569pt" height="115pt"
 viewBox="0.00 0.00 568.97 115.15" xmlns="http://www.w3.org/2000/svg" xmlns:xlink="http://www.w3.org/1999/xlink">
<g id="graph0" class="graph" transform="scale(1 1) rotate(0) translate(4 111.15)">
<title>PlantA (process)</title>
<!-- dot_dummyinit_1 -->
<g id="node1" class="node">
<title>dot_dummyinit_1</title>
</g>
<!-- POff -->
<g id="node2" class="node">
<title>POff</title>
<path fill="none" stroke="black" d="M93.47,-54.4C93.47,-54.4 49.72,-54.4 49.72,-54.4 43.72,-54.4 37.72,-48.4 37.72,-42.4 37.72,-42.4 37.72,-30.4 37.72,-30.4 37.72,-24.4 43.72,-18.4 49.72,-18.4 49.72,-18.4 93.47,-18.4 93.47,-18.4 99.47,-18.4 105.47,-24.4 105.47,-30.4 105.47,-30.4 105.47,-42.4 105.47,-42.4 105.47,-48.4 99.47,-54.4 93.47,-54.4"/>
<text text-anchor="start" x="49.72" y="-30.97" font-family="Arial" font-size="14.00">POff</text>
<polygon fill="black" stroke="none" points="87.47,-26.52 87.47,-46.27 95.47,-46.27 95.47,-26.52 87.47,-26.52"/>
</g>
<!-- dot_dummyinit_1&#45;&gt;POff -->
<g id="edge1" class="edge">
<title>dot_dummyinit_1&#45;&gt;POff</title>
<path fill="none" stroke="black" d="M0.77,-36.4C1.61,-36.4 12.77,-36.4 25.94,-36.4"/>
<polygon fill="black" stroke="black" points="25.77,-39.9 35.77,-36.4 25.77,-32.9 25.77,-39.9"/>
</g>
<!-- POff&#45;&gt;POff -->
<g id="edge3" class="edge">
<title>POff&#45;&gt;POff</title>
<path fill="none" stroke="black" d="M62.12,-54.55C60.66,-63.93 63.82,-72.4 71.6,-72.4 75.97,-72.4 78.88,-69.72 80.33,-65.71"/>
<polygon fill="black" stroke="black" points="83.8,-66.27 80.97,-56.06 76.82,-65.81 83.8,-66.27"/>
<text text-anchor="middle" x="71.6" y="-74.85" font-family="Arial" font-size="14.00">p_stop</text>
</g>
<!-- POn1 -->
<g id="node4" class="node">
<title>POn1</title>
<path fill="none" stroke="black" d="M224.72,-54.4C224.72,-54.4 194.72,-54.4 194.72,-54.4 188.72,-54.4 182.72,-48.4 182.72,-42.4 182.72,-42.4 182.72,-30.4 182.72,-30.4 182.72,-24.4 188.72,-18.4 194.72,-18.4 194.72,-18.4 224.72,-18.4 224.72,-18.4 230.72,-18.4 236.72,-24.4 236.72,-30.4 236.72,-30.4 236.72,-42.4 236.72,-42.4 236.72,-48.4 230.72,-54.4 224.72,-54.4"/>
<text text-anchor="middle" x="209.72" y="-30.97" font-family="Arial" font-size="14.00">POn1</text>
</g>
<!-- POff&#45;&gt;POn1 -->
<g id="edge2" class="edge">
<title>POff&#45;&gt;POn1</title>
<path fill="none" stroke="black" d="M105.89,-36.4C125.63,-36.4 150.71,-36.4 171.15,-36.4"/>
<polygon fill="black" stroke="black" points="171.06,-39.9 181.06,-36.4 171.06,-32.9 171.06,-39.9"/>
<text text-anchor="middle" x="144.1" y="-38.85" font-family="Arial" font-size="14.00">p_start</text>
</g>
<!-- POn3 -->
<g id="node3" class="node">
<title>POn3</title>
<path fill="none" stroke="black" d="M548.97,-41.4C548.97,-41.4 497.72,-41.4 497.72,-41.4 491.72,-41.4 485.72,-35.4 485.72,-29.4 485.72,-29.4 485.72,-17.4 485.72,-17.4 485.72,-11.4 491.72,-5.4 497.72,-5.4 497.72,-5.4 548.97,-5.4 548.97,-5.4 554.97,-5.4 560.97,-11.4 560.97,-17.4 560.97,-17.4 560.97,-29.4 560.97,-29.4 560.97,-35.4 554.97,-41.4 548.97,-41.4"/>
<text text-anchor="start" x="497.72" y="-17.97" font-family="Arial" font-size="14.00">POn3</text>
<polygon fill="black" stroke="none" points="542.97,-13.52 542.97,-33.27 550.97,-33.27 550.97,-13.52 542.97,-13.52"/>
</g>
<!-- POn3&#45;&gt;POff -->
<g id="edge10" class="edge">
<title>POn3&#45;&gt;POff</title>
<path fill="none" stroke="black" d="M485.47,-15C479.56,-13.94 473.49,-13.01 467.72,-12.4 265.76,9.06 232.58,-3.37 182.72,-9.4 160.73,-12.05 136.79,-17.59 116.86,-22.96"/>
<polygon fill="black" stroke="black" points="116.1,-19.54 107.4,-25.59 117.98,-26.29 116.1,-19.54"/>
<text text-anchor="middle" x="280.97" y="-3.53" font-family="Arial" font-size="14.00">p_stop</text>
</g>
<!-- POn3&#45;&gt;POn3 -->
<g id="edge9" class="edge">
<title>POn3&#45;&gt;POn3</title>
<path fill="none" stroke="black" d="M506.9,-41.55C504.38,-50.93 509.86,-59.4 523.35,-59.4 530.93,-59.4 535.99,-56.72 538.51,-52.71"/>
<polygon fill="black" stroke="black" points="541.95,-53.39 539.61,-43.05 535,-52.59 541.95,-53.39"/>
<text text-anchor="middle" x="523.35" y="-61.85" font-family="Arial" font-size="14.00">p_start</text>
</g>
<!-- POn2 -->
<g id="node5" class="node">
<title>POn2</title>
<path fill="none" stroke="black" d="M367.22,-73.4C367.22,-73.4 337.22,-73.4 337.22,-73.4 331.22,-73.4 325.22,-67.4 325.22,-61.4 325.22,-61.4 325.22,-49.4 325.22,-49.4 325.22,-43.4 331.22,-37.4 337.22,-37.4 337.22,-37.4 367.22,-37.4 367.22,-37.4 373.22,-37.4 379.22,-43.4 379.22,-49.4 379.22,-49.4 379.22,-61.4 379.22,-61.4 379.22,-67.4 373.22,-73.4 367.22,-73.4"/>
<text text-anchor="middle" x="352.22" y="-49.97" font-family="Arial" font-size="14.00">POn2</text>
</g>
<!-- POn1&#45;&gt;POn2 -->
<g id="edge4" class="edge">
<title>POn1&#45;&gt;POn2</title>
<path fill="none" stroke="black" d="M237.15,-39.97C258.73,-42.89 289.51,-47.05 313.66,-50.32"/>
<polygon fill="black" stroke="black" points="313.03,-53.76 323.41,-51.63 313.97,-46.83 313.03,-53.76"/>
<text text-anchor="middle" x="280.97" y="-51.7" font-family="Arial" font-size="14.00">p_inprog</text>
</g>
<!-- POn2&#45;&gt;POff -->
<g id="edge6" class="edge">
<title>POn2&#45;&gt;POff</title>
<path fill="none" stroke="black" d="M325.01,-65.18C319.23,-66.93 313.08,-68.49 307.22,-69.4 226.32,-81.96 202.87,-76.34 123.47,-56.4 121.2,-55.83 118.91,-55.18 116.6,-54.48"/>
<polygon fill="black" stroke="black" points="117.88,-51.22 107.29,-51.36 115.66,-57.86 117.88,-51.22"/>
<text text-anchor="middle" x="209.72" y="-78.52" font-family="Arial" font-size="14.00">p_stop</text>
</g>
<!-- POn2&#45;&gt;POn3 -->
<g id="edge7" class="edge">
<title>POn2&#45;&gt;POn3</title>
<path fill="none" stroke="black" d="M374.2,-36.92C381.08,-31.97 389.05,-27.26 397.22,-24.65 421.76,-16.79 450.41,-15.94 474.1,-17.3"/>
<polygon fill="black" stroke="black" points="473.56,-20.77 483.79,-18.01 474.07,-13.78 473.56,-20.77"/>
<text text-anchor="middle" x="432.47" y="-27.1" font-family="Arial" font-size="14.00">p_complete</text>
</g>
<!-- POn2&#45;&gt;POn3 -->
<g id="edge8" class="edge">
<title>POn2&#45;&gt;POn3</title>
<path fill="none" stroke="black" d="M379.36,-53.26C402.71,-51.04 437.76,-46.97 467.72,-40.4 469.87,-39.92 472.05,-39.41 474.25,-38.86"/>
<polygon fill="black" stroke="black" points="475.06,-42.26 483.79,-36.27 473.23,-35.51 475.06,-42.26"/>
<text text-anchor="middle" x="432.47" y="-53.55" font-family="Arial" font-size="14.00">m_request</text>
</g>
<!-- POn2&#45;&gt;POn2 -->
<g id="edge5" class="edge">
<title>POn2&#45;&gt;POn2</title>
<path fill="none" stroke="black" d="M339.33,-73.55C337.35,-82.93 341.64,-91.4 352.22,-91.4 358.17,-91.4 362.13,-88.72 364.11,-84.71"/>
<polygon fill="black" stroke="black" points="367.56,-85.33 364.97,-75.06 360.59,-84.7 367.56,-85.33"/>
<text text-anchor="middle" x="352.22" y="-93.85" font-family="Arial" font-size="14.00">p_start</text>
</g>
</g>
</svg>
