<?xml version="1.0" encoding="UTF-8" standalone="no"?>
<!DOCTYPE svg PUBLIC "-//W3C//DTD SVG 1.1//EN"
 "http://www.w3.org/Graphics/SVG/1.1/DTD/svg11.dtd">
<!-- Generated by graphviz version 12.2.1 (20241206.2353)
 -->
<!-- Title: E_opcmds Pages: 1 -->
<svg width="366pt" height="213pt"
 viewBox="0.00 0.00 366.22 212.75" xmlns="http://www.w3.org/2000/svg" xmlns:xlink="http://www.w3.org/1999/xlink">
<g id="graph0" class="graph" transform="scale(1 1) rotate(0) translate(4 208.75)">
<title>E_opcmds</title>
<!-- dot_dummyinit_1 -->
<g id="node1" class="node">
<title>dot_dummyinit_1</title>
</g>
<!-- Idle -->
<g id="node2" class="node">
<title>Idle</title>
<path fill="none" stroke="black" d="M87.47,-52C87.47,-52 49.72,-52 49.72,-52 43.72,-52 37.72,-46 37.72,-40 37.72,-40 37.72,-28 37.72,-28 37.72,-22 43.72,-16 49.72,-16 49.72,-16 87.47,-16 87.47,-16 93.47,-16 99.47,-22 99.47,-28 99.47,-28 99.47,-40 99.47,-40 99.47,-46 93.47,-52 87.47,-52"/>
<text text-anchor="start" x="49.72" y="-28.57" font-family="Arial" font-size="14.00">Idle</text>
<polygon fill="black" stroke="none" points="81.47,-24.12 81.47,-43.88 89.47,-43.88 89.47,-24.12 81.47,-24.12"/>
</g>
<!-- dot_dummyinit_1&#45;&gt;Idle -->
<g id="edge1" class="edge">
<title>dot_dummyinit_1&#45;&gt;Idle</title>
<path fill="none" stroke="black" d="M0.77,-34C1.6,-34 12.92,-34 26.02,-34"/>
<polygon fill="black" stroke="black" points="25.74,-37.5 35.74,-34 25.74,-30.5 25.74,-37.5"/>
</g>
<!-- Start -->
<g id="node3" class="node">
<title>Start</title>
<path fill="none" stroke="black" d="M214.97,-88C214.97,-88 184.97,-88 184.97,-88 178.97,-88 172.97,-82 172.97,-76 172.97,-76 172.97,-64 172.97,-64 172.97,-58 178.97,-52 184.97,-52 184.97,-52 214.97,-52 214.97,-52 220.97,-52 226.97,-58 226.97,-64 226.97,-64 226.97,-76 226.97,-76 226.97,-82 220.97,-88 214.97,-88"/>
<text text-anchor="middle" x="199.97" y="-64.58" font-family="Arial" font-size="14.00">Start</text>
</g>
<!-- Idle&#45;&gt;Start -->
<g id="edge2" class="edge">
<title>Idle&#45;&gt;Start</title>
<path fill="none" stroke="black" d="M89.55,-52.19C97.62,-58.42 107.41,-64.65 117.47,-68 131.32,-72.61 147.24,-73.83 161.31,-73.64"/>
<polygon fill="black" stroke="black" points="161.24,-77.14 171.1,-73.26 160.97,-70.15 161.24,-77.14"/>
<text text-anchor="middle" x="136.22" y="-76.07" font-family="Arial" font-size="14.00">o_upb</text>
</g>
<!-- Idle&#45;&gt;Start -->
<g id="edge3" class="edge">
<title>Idle&#45;&gt;Start</title>
<path fill="none" stroke="black" d="M99.74,-36.84C116.32,-38.95 137.09,-42.48 154.97,-48.25 157.34,-49.02 159.75,-49.89 162.14,-50.84"/>
<polygon fill="black" stroke="black" points="160.55,-53.96 171.12,-54.76 163.35,-47.55 160.55,-53.96"/>
<text text-anchor="middle" x="136.22" y="-50.7" font-family="Arial" font-size="14.00">o_lwb</text>
</g>
<!-- Start&#45;&gt;Start -->
<g id="edge4" class="edge">
<title>Start&#45;&gt;Start</title>
<path fill="none" stroke="black" d="M194.2,-88.15C193.32,-97.54 195.24,-106 199.97,-106 202.56,-106 204.3,-103.47 205.21,-99.64"/>
<polygon fill="black" stroke="black" points="208.71,-99.81 205.67,-89.66 201.71,-99.49 208.71,-99.81"/>
<text text-anchor="middle" x="199.97" y="-108.45" font-family="Arial" font-size="14.00">o_upb</text>
</g>
<!-- Start&#45;&gt;Start -->
<g id="edge5" class="edge">
<title>Start&#45;&gt;Start</title>
<path fill="none" stroke="black" d="M190.3,-88.26C185.29,-105.4 188.51,-124 199.97,-124 208.92,-124 212.84,-112.65 211.74,-99.51"/>
<polygon fill="black" stroke="black" points="215.19,-98.93 209.91,-89.75 208.31,-100.22 215.19,-98.93"/>
<text text-anchor="middle" x="199.97" y="-126.45" font-family="Arial" font-size="14.00">o_lwb</text>
</g>
<!-- Busy -->
<g id="node4" class="node">
<title>Busy</title>
<path fill="none" stroke="black" d="M346.22,-36C346.22,-36 316.22,-36 316.22,-36 310.22,-36 304.22,-30 304.22,-24 304.22,-24 304.22,-12 304.22,-12 304.22,-6 310.22,0 316.22,0 316.22,0 346.22,0 346.22,0 352.22,0 358.22,-6 358.22,-12 358.22,-12 358.22,-24 358.22,-24 358.22,-30 352.22,-36 346.22,-36"/>
<text text-anchor="middle" x="331.22" y="-12.57" font-family="Arial" font-size="14.00">Busy</text>
</g>
<!-- Start&#45;&gt;Busy -->
<g id="edge6" class="edge">
<title>Start&#45;&gt;Busy</title>
<path fill="none" stroke="black" d="M227.44,-59.35C246.43,-51.71 272.28,-41.31 293.3,-32.86"/>
<polygon fill="black" stroke="black" points="294.41,-36.18 302.38,-29.2 291.8,-29.68 294.41,-36.18"/>
<text text-anchor="middle" x="265.6" y="-54.15" font-family="Arial" font-size="14.00">a_start</text>
</g>
<!-- Busy&#45;&gt;Idle -->
<g id="edge9" class="edge">
<title>Busy&#45;&gt;Idle</title>
<path fill="none" stroke="black" d="M303.78,-19.5C272.54,-21.29 218.96,-24.4 172.97,-27.25 152.7,-28.51 130.2,-29.97 111.38,-31.21"/>
<polygon fill="black" stroke="black" points="111.16,-27.72 101.41,-31.87 111.62,-34.7 111.16,-27.72"/>
<text text-anchor="middle" x="199.97" y="-29.7" font-family="Arial" font-size="14.00">a_done</text>
</g>
<!-- Busy&#45;&gt;Idle -->
<g id="edge10" class="edge">
<title>Busy&#45;&gt;Idle</title>
<path fill="none" stroke="black" d="M303.97,-12.07C272.67,-5.85 218.83,2.22 172.97,-4.25 152.04,-7.2 129.42,-13.36 110.69,-19.31"/>
<polygon fill="black" stroke="black" points="109.71,-15.94 101.3,-22.38 111.9,-22.59 109.71,-15.94"/>
<text text-anchor="middle" x="199.97" y="-6.7" font-family="Arial" font-size="14.00">a_fail</text>
</g>
<!-- Busy&#45;&gt;Busy -->
<g id="edge7" class="edge">
<title>Busy&#45;&gt;Busy</title>
<path fill="none" stroke="black" d="M328.85,-36.15C328.48,-45.54 329.27,-54 331.22,-54 332.29,-54 333,-51.47 333.38,-47.64"/>
<polygon fill="black" stroke="black" points="336.88,-47.73 333.57,-37.67 329.88,-47.6 336.88,-47.73"/>
<text text-anchor="middle" x="331.22" y="-56.45" font-family="Arial" font-size="14.00">o_upb</text>
</g>
<!-- Busy&#45;&gt;Busy -->
<g id="edge8" class="edge">
<title>Busy&#45;&gt;Busy</title>
<path fill="none" stroke="black" d="M327.24,-36.26C325.18,-53.4 326.5,-72 331.22,-72 334.9,-72 336.52,-60.65 336.07,-47.51"/>
<polygon fill="black" stroke="black" points="339.57,-47.47 335.32,-37.77 332.6,-48.01 339.57,-47.47"/>
<text text-anchor="middle" x="331.22" y="-74.45" font-family="Arial" font-size="14.00">o_lwb</text>
</g>
<!-- Busy&#45;&gt;Busy -->
<g id="edge11" class="edge">
<title>Busy&#45;&gt;Busy</title>
<path fill="none" stroke="black" d="M326.17,-36.44C321.85,-60.7 323.53,-90 331.22,-90 337.74,-90 339.94,-68.95 337.83,-47.76"/>
<polygon fill="black" stroke="black" points="341.31,-47.37 336.47,-37.94 334.37,-48.33 341.31,-47.37"/>
<text text-anchor="middle" x="331.22" y="-92.45" font-family="Arial" font-size="14.00">c_up</text>
</g>
<!-- Busy&#45;&gt;Busy -->
<g id="edge12" class="edge">
<title>Busy&#45;&gt;Busy</title>
<path fill="none" stroke="black" d="M325.52,-36.11C318.5,-67.24 320.4,-108 331.22,-108 340.77,-108 343.37,-76.23 339.02,-47.37"/>
<polygon fill="black" stroke="black" points="342.48,-46.79 337.2,-37.6 335.59,-48.07 342.48,-46.79"/>
<text text-anchor="middle" x="331.22" y="-110.45" font-family="Arial" font-size="14.00">c_down</text>
</g>
<!-- Busy&#45;&gt;Busy -->
<g id="edge13" class="edge">
<title>Busy&#45;&gt;Busy</title>
<path fill="none" stroke="black" d="M324.93,-36.32C315.18,-74.03 317.28,-126 331.22,-126 343.85,-126 346.76,-83.32 339.94,-47.24"/>
<polygon fill="black" stroke="black" points="343.42,-46.8 337.84,-37.79 336.59,-48.32 343.42,-46.8"/>
<text text-anchor="middle" x="331.22" y="-128.45" font-family="Arial" font-size="14.00">c_stp</text>
</g>
</g>
</svg>
