<?xml version="1.0" encoding="UTF-8" standalone="no"?>
<!DOCTYPE svg PUBLIC "-//W3C//DTD SVG 1.1//EN"
 "http://www.w3.org/Graphics/SVG/1.1/DTD/svg11.dtd">
<!-- Generated by graphviz version 12.2.1 (20241206.2353)
 -->
<!-- Title: operator leds Pages: 1 -->
<svg width="109pt" height="125pt"
 viewBox="0.00 0.00 108.72 125.00" xmlns="http://www.w3.org/2000/svg" xmlns:xlink="http://www.w3.org/1999/xlink">
<g id="graph0" class="graph" transform="scale(1 1) rotate(0) translate(4 121)">
<title>operator leds</title>
<!-- dot_dummyinit_1 -->
<g id="node1" class="node">
<title>dot_dummyinit_1</title>
</g>
<!-- Idle -->
<g id="node2" class="node">
<title>Idle</title>
<path fill="none" stroke="black" d="M88.09,-36C88.09,-36 50.34,-36 50.34,-36 44.34,-36 38.34,-30 38.34,-24 38.34,-24 38.34,-12 38.34,-12 38.34,-6 44.34,0 50.34,0 50.34,0 88.09,0 88.09,0 94.09,0 100.09,-6 100.09,-12 100.09,-12 100.09,-24 100.09,-24 100.09,-30 94.09,-36 88.09,-36"/>
<text text-anchor="start" x="50.34" y="-12.57" font-family="Arial" font-size="14.00">Idle</text>
<polygon fill="black" stroke="none" points="82.09,-8.12 82.09,-27.88 90.09,-27.88 90.09,-8.12 82.09,-8.12"/>
</g>
<!-- dot_dummyinit_1&#45;&gt;Idle -->
<g id="edge1" class="edge">
<title>dot_dummyinit_1&#45;&gt;Idle</title>
<path fill="none" stroke="black" d="M0.77,-18C1.61,-18 13.21,-18 26.56,-18"/>
<polygon fill="black" stroke="black" points="26.47,-21.5 36.47,-18 26.47,-14.5 26.47,-21.5"/>
</g>
<!-- Idle&#45;&gt;Idle -->
<g id="edge2" class="edge">
<title>Idle&#45;&gt;Idle</title>
<path fill="none" stroke="black" d="M60.17,-36.15C58.78,-45.54 61.8,-54 69.22,-54 73.39,-54 76.18,-51.32 77.56,-47.31"/>
<polygon fill="black" stroke="black" points="81.03,-47.86 78.17,-37.66 74.05,-47.42 81.03,-47.86"/>
<text text-anchor="middle" x="69.22" y="-103.7" font-family="Arial" font-size="14.00">o_uplon, </text>
<text text-anchor="middle" x="69.22" y="-87.95" font-family="Arial" font-size="14.00">o_uploff, </text>
<text text-anchor="middle" x="69.22" y="-72.2" font-family="Arial" font-size="14.00">o_lwlon, </text>
<text text-anchor="middle" x="69.22" y="-56.45" font-family="Arial" font-size="14.00">o_lwloff</text>
</g>
</g>
</svg>
