<?xml version="1.0" encoding="UTF-8" standalone="no"?>
<!DOCTYPE svg PUBLIC "-//W3C//DTD SVG 1.1//EN"
 "http://www.w3.org/Graphics/SVG/1.1/DTD/svg11.dtd">
<!-- Generated by graphviz version 12.2.1 (20241206.2353)
 -->
<!-- Title: E_drsaf1 Pages: 1 -->
<svg width="434pt" height="267pt"
 viewBox="0.00 0.00 434.22 266.50" xmlns="http://www.w3.org/2000/svg" xmlns:xlink="http://www.w3.org/1999/xlink">
<g id="graph0" class="graph" transform="scale(1 1) rotate(0) translate(4 262.5)">
<title>E_drsaf1</title>
<!-- dot_dummyinit_1 -->
<g id="node1" class="node">
<title>dot_dummyinit_1</title>
</g>
<!-- Open -->
<g id="node2" class="node">
<title>Open</title>
<path fill="none" stroke="black" d="M99.47,-54C99.47,-54 49.72,-54 49.72,-54 43.72,-54 37.72,-48 37.72,-42 37.72,-42 37.72,-30 37.72,-30 37.72,-24 43.72,-18 49.72,-18 49.72,-18 99.47,-18 99.47,-18 105.47,-18 111.47,-24 111.47,-30 111.47,-30 111.47,-42 111.47,-42 111.47,-48 105.47,-54 99.47,-54"/>
<text text-anchor="start" x="49.72" y="-30.57" font-family="Arial" font-size="14.00">Open</text>
<polygon fill="black" stroke="none" points="93.47,-26.12 93.47,-45.88 101.47,-45.88 101.47,-26.12 93.47,-26.12"/>
</g>
<!-- dot_dummyinit_1&#45;&gt;Open -->
<g id="edge1" class="edge">
<title>dot_dummyinit_1&#45;&gt;Open</title>
<path fill="none" stroke="black" d="M0.77,-36C1.64,-36 12.98,-36 26.47,-36"/>
<polygon fill="black" stroke="black" points="26.08,-39.5 36.08,-36 26.08,-32.5 26.08,-39.5"/>
</g>
<!-- Open&#45;&gt;Open -->
<g id="edge2" class="edge">
<title>Open&#45;&gt;Open</title>
<path fill="none" stroke="black" d="M72.09,-54.15C71.71,-63.54 72.54,-72 74.6,-72 75.72,-72 76.48,-69.47 76.87,-65.64"/>
<polygon fill="black" stroke="black" points="80.37,-65.73 77.07,-55.67 73.37,-65.59 80.37,-65.73"/>
<text text-anchor="middle" x="74.6" y="-74.45" font-family="Arial" font-size="14.00">d_stp</text>
</g>
<!-- Open&#45;&gt;Open -->
<g id="edge3" class="edge">
<title>Open&#45;&gt;Open</title>
<path fill="none" stroke="black" d="M70.4,-54.26C68.22,-71.4 69.62,-90 74.6,-90 78.48,-90 80.19,-78.65 79.71,-65.51"/>
<polygon fill="black" stroke="black" points="83.21,-65.45 78.92,-55.77 76.24,-66.02 83.21,-65.45"/>
<text text-anchor="middle" x="74.6" y="-92.45" font-family="Arial" font-size="14.00">d_open</text>
</g>
<!-- Open&#45;&gt;Open -->
<g id="edge4" class="edge">
<title>Open&#45;&gt;Open</title>
<path fill="none" stroke="black" d="M69.27,-54.44C64.71,-78.7 66.48,-108 74.6,-108 81.47,-108 83.79,-86.95 81.56,-65.76"/>
<polygon fill="black" stroke="black" points="85.04,-65.33 80.14,-55.94 78.11,-66.34 85.04,-65.33"/>
<text text-anchor="middle" x="74.6" y="-110.45" font-family="Arial" font-size="14.00">d_close</text>
</g>
<!-- Open&#45;&gt;Open -->
<g id="edge5" class="edge">
<title>Open&#45;&gt;Open</title>
<path fill="none" stroke="black" d="M68.58,-54.11C61.18,-85.24 63.18,-126 74.6,-126 84.67,-126 87.41,-94.23 82.83,-65.37"/>
<polygon fill="black" stroke="black" points="86.27,-64.73 80.9,-55.6 79.4,-66.08 86.27,-64.73"/>
<text text-anchor="middle" x="74.6" y="-128.45" font-family="Arial" font-size="14.00">a_open</text>
</g>
<!-- Closed -->
<g id="node3" class="node">
<title>Closed</title>
<path fill="none" stroke="black" d="M263.97,-113C263.97,-113 205.97,-113 205.97,-113 199.97,-113 193.97,-107 193.97,-101 193.97,-101 193.97,-89 193.97,-89 193.97,-83 199.97,-77 205.97,-77 205.97,-77 263.97,-77 263.97,-77 269.97,-77 275.97,-83 275.97,-89 275.97,-89 275.97,-101 275.97,-101 275.97,-107 269.97,-113 263.97,-113"/>
<text text-anchor="start" x="205.97" y="-89.58" font-family="Arial" font-size="14.00">Closed</text>
<polygon fill="black" stroke="none" points="257.97,-85.12 257.97,-104.88 265.97,-104.88 265.97,-85.12 257.97,-85.12"/>
</g>
<!-- Open&#45;&gt;Closed -->
<g id="edge6" class="edge">
<title>Open&#45;&gt;Closed</title>
<path fill="none" stroke="black" d="M111.93,-49.54C132.98,-57.38 159.81,-67.37 182.95,-75.99"/>
<polygon fill="black" stroke="black" points="181.62,-79.23 192.21,-79.44 184.06,-72.67 181.62,-79.23"/>
<text text-anchor="middle" x="152.72" y="-74.97" font-family="Arial" font-size="14.00">a_close</text>
</g>
<!-- Opening -->
<g id="node4" class="node">
<title>Opening</title>
<path fill="none" stroke="black" d="M414.22,-36C414.22,-36 370.47,-36 370.47,-36 364.47,-36 358.47,-30 358.47,-24 358.47,-24 358.47,-12 358.47,-12 358.47,-6 364.47,0 370.47,0 370.47,0 414.22,0 414.22,0 420.22,0 426.22,-6 426.22,-12 426.22,-12 426.22,-24 426.22,-24 426.22,-30 420.22,-36 414.22,-36"/>
<text text-anchor="middle" x="392.35" y="-12.57" font-family="Arial" font-size="14.00">Opening</text>
</g>
<!-- Closed&#45;&gt;Opening -->
<g id="edge9" class="edge">
<title>Closed&#45;&gt;Opening</title>
<path fill="none" stroke="black" d="M261.88,-76.6C271.69,-70.05 283.1,-62.91 293.97,-57.25 311.11,-48.33 330.75,-40.06 347.88,-33.44"/>
<polygon fill="black" stroke="black" points="348.65,-36.89 356.76,-30.08 346.17,-30.35 348.65,-36.89"/>
<text text-anchor="middle" x="317.22" y="-59.7" font-family="Arial" font-size="14.00">d_open</text>
</g>
<!-- Moving -->
<g id="node5" class="node">
<title>Moving</title>
<path fill="none" stroke="black" d="M410.47,-191C410.47,-191 374.22,-191 374.22,-191 368.22,-191 362.22,-185 362.22,-179 362.22,-179 362.22,-167 362.22,-167 362.22,-161 368.22,-155 374.22,-155 374.22,-155 410.47,-155 410.47,-155 416.47,-155 422.47,-161 422.47,-167 422.47,-167 422.47,-179 422.47,-179 422.47,-185 416.47,-191 410.47,-191"/>
<text text-anchor="middle" x="392.35" y="-167.57" font-family="Arial" font-size="14.00">Moving</text>
</g>
<!-- Closed&#45;&gt;Moving -->
<g id="edge7" class="edge">
<title>Closed&#45;&gt;Moving</title>
<path fill="none" stroke="black" d="M276.31,-107.66C296.19,-114.62 320.2,-124.1 340.47,-135.25 347.14,-138.92 353.92,-143.36 360.26,-147.89"/>
<polygon fill="black" stroke="black" points="357.85,-150.46 367.97,-153.62 362.03,-144.84 357.85,-150.46"/>
<text text-anchor="middle" x="317.22" y="-137.7" font-family="Arial" font-size="14.00">c_up</text>
</g>
<!-- Closed&#45;&gt;Moving -->
<g id="edge8" class="edge">
<title>Closed&#45;&gt;Moving</title>
<path fill="none" stroke="black" d="M276.28,-84.73C297.22,-81.79 322.18,-82.3 340.47,-95.25 357.71,-107.46 347.82,-122.4 359.82,-145.1"/>
<polygon fill="black" stroke="black" points="356.71,-146.74 365.05,-153.28 362.61,-142.97 356.71,-146.74"/>
<text text-anchor="middle" x="317.22" y="-97.7" font-family="Arial" font-size="14.00">c_down</text>
</g>
<!-- Opening&#45;&gt;Open -->
<g id="edge13" class="edge">
<title>Opening&#45;&gt;Open</title>
<path fill="none" stroke="black" d="M358.4,-19.88C302.21,-23.08 187.66,-29.61 122.92,-33.3"/>
<polygon fill="black" stroke="black" points="123.11,-29.79 113.33,-33.85 123.51,-36.77 123.11,-29.79"/>
<text text-anchor="middle" x="234.97" y="-31.53" font-family="Arial" font-size="14.00">a_open</text>
</g>
<!-- Opening&#45;&gt;Opening -->
<g id="edge10" class="edge">
<title>Opening&#45;&gt;Opening</title>
<path fill="none" stroke="black" d="M387.81,-36.15C387.12,-45.54 388.63,-54 392.35,-54 394.38,-54 395.75,-51.47 396.46,-47.64"/>
<polygon fill="black" stroke="black" points="399.96,-47.78 396.82,-37.67 392.96,-47.53 399.96,-47.78"/>
<text text-anchor="middle" x="392.35" y="-56.45" font-family="Arial" font-size="14.00">d_stp</text>
</g>
<!-- Opening&#45;&gt;Opening -->
<g id="edge11" class="edge">
<title>Opening&#45;&gt;Opening</title>
<path fill="none" stroke="black" d="M384.75,-36.26C380.81,-53.4 383.35,-72 392.35,-72 399.38,-72 402.46,-60.65 401.59,-47.51"/>
<polygon fill="black" stroke="black" points="405.08,-47.14 400.16,-37.76 398.15,-48.16 405.08,-47.14"/>
<text text-anchor="middle" x="392.35" y="-74.45" font-family="Arial" font-size="14.00">d_open</text>
</g>
<!-- Opening&#45;&gt;Opening -->
<g id="edge12" class="edge">
<title>Opening&#45;&gt;Opening</title>
<path fill="none" stroke="black" d="M382.72,-36.44C374.46,-60.7 377.67,-90 392.35,-90 404.84,-90 409.02,-68.76 404.89,-47.47"/>
<polygon fill="black" stroke="black" points="408.3,-46.68 402.36,-37.9 401.54,-48.47 408.3,-46.68"/>
<text text-anchor="middle" x="392.35" y="-92.45" font-family="Arial" font-size="14.00">d_close</text>
</g>
<!-- Moving&#45;&gt;Closed -->
<g id="edge14" class="edge">
<title>Moving&#45;&gt;Closed</title>
<path fill="none" stroke="black" d="M361.77,-170.53C341.67,-167.87 315.02,-162.36 293.97,-151 280.36,-143.65 267.7,-132.22 257.7,-121.59"/>
<polygon fill="black" stroke="black" points="260.58,-119.57 251.29,-114.47 255.37,-124.24 260.58,-119.57"/>
<text text-anchor="middle" x="317.22" y="-169.27" font-family="Arial" font-size="14.00">c_stp</text>
</g>
<!-- Moving&#45;&gt;Moving -->
<g id="edge15" class="edge">
<title>Moving&#45;&gt;Moving</title>
<path fill="none" stroke="black" d="M385.55,-191.15C384.5,-200.54 386.77,-209 392.35,-209 395.39,-209 397.45,-206.47 398.52,-202.64"/>
<polygon fill="black" stroke="black" points="402.02,-202.84 399.06,-192.66 395.03,-202.46 402.02,-202.84"/>
<text text-anchor="middle" x="392.35" y="-211.45" font-family="Arial" font-size="14.00">c_up</text>
</g>
<!-- Moving&#45;&gt;Moving -->
<g id="edge16" class="edge">
<title>Moving&#45;&gt;Moving</title>
<path fill="none" stroke="black" d="M380.96,-191.26C375.05,-208.4 378.85,-227 392.35,-227 403,-227 407.61,-215.42 406.18,-202.11"/>
<polygon fill="black" stroke="black" points="409.68,-201.72 404.07,-192.73 402.85,-203.26 409.68,-201.72"/>
<text text-anchor="middle" x="392.35" y="-229.45" font-family="Arial" font-size="14.00">c_down</text>
</g>
</g>
</svg>
