<?xml version="1.0" encoding="UTF-8" standalone="no"?>
<!DOCTYPE svg PUBLIC "-//W3C//DTD SVG 1.1//EN"
 "http://www.w3.org/Graphics/SVG/1.1/DTD/svg11.dtd">
<!-- Generated by graphviz version 12.2.1 (20241206.2353)
 -->
<!-- Title: E_drsaf1 Pages: 1 -->
<svg width="484pt" height="184pt"
 viewBox="0.00 0.00 483.60 183.75" xmlns="http://www.w3.org/2000/svg" xmlns:xlink="http://www.w3.org/1999/xlink">
<g id="graph0" class="graph" transform="scale(1 1) rotate(0) translate(4 179.75)">
<title>E_drsaf1</title>
<!-- dot_dummyinit_1 -->
<g id="node1" class="node">
<title>dot_dummyinit_1</title>
</g>
<!-- Open -->
<g id="node2" class="node">
<title>Open</title>
<path fill="none" stroke="black" d="M99.47,-49C99.47,-49 49.72,-49 49.72,-49 43.72,-49 37.72,-43 37.72,-37 37.72,-37 37.72,-25 37.72,-25 37.72,-19 43.72,-13 49.72,-13 49.72,-13 99.47,-13 99.47,-13 105.47,-13 111.47,-19 111.47,-25 111.47,-25 111.47,-37 111.47,-37 111.47,-43 105.47,-49 99.47,-49"/>
<text text-anchor="start" x="49.72" y="-25.57" font-family="Arial" font-size="14.00">Open</text>
<polygon fill="black" stroke="none" points="93.47,-21.12 93.47,-40.88 101.47,-40.88 101.47,-21.12 93.47,-21.12"/>
</g>
<!-- dot_dummyinit_1&#45;&gt;Open -->
<g id="edge1" class="edge">
<title>dot_dummyinit_1&#45;&gt;Open</title>
<path fill="none" stroke="black" d="M0.77,-31C1.64,-31 12.98,-31 26.47,-31"/>
<polygon fill="black" stroke="black" points="26.08,-34.5 36.08,-31 26.08,-27.5 26.08,-34.5"/>
</g>
<!-- Open&#45;&gt;Open -->
<g id="edge2" class="edge">
<title>Open&#45;&gt;Open</title>
<path fill="none" stroke="black" d="M64.58,-49.15C63.04,-58.54 66.38,-67 74.6,-67 79.22,-67 82.3,-64.32 83.83,-60.31"/>
<polygon fill="black" stroke="black" points="87.3,-60.88 84.51,-50.66 80.32,-60.39 87.3,-60.88"/>
<text text-anchor="middle" x="74.6" y="-100.95" font-family="Arial" font-size="14.00">d_stp, d_open, </text>
<text text-anchor="middle" x="74.6" y="-85.2" font-family="Arial" font-size="14.00">d_close, </text>
<text text-anchor="middle" x="74.6" y="-69.45" font-family="Arial" font-size="14.00">a_open</text>
</g>
<!-- Closed -->
<g id="node3" class="node">
<title>Closed</title>
<path fill="none" stroke="black" d="M263.97,-95C263.97,-95 205.97,-95 205.97,-95 199.97,-95 193.97,-89 193.97,-83 193.97,-83 193.97,-71 193.97,-71 193.97,-65 199.97,-59 205.97,-59 205.97,-59 263.97,-59 263.97,-59 269.97,-59 275.97,-65 275.97,-71 275.97,-71 275.97,-83 275.97,-83 275.97,-89 269.97,-95 263.97,-95"/>
<text text-anchor="start" x="205.97" y="-71.58" font-family="Arial" font-size="14.00">Closed</text>
<polygon fill="black" stroke="none" points="257.97,-67.12 257.97,-86.88 265.97,-86.88 265.97,-67.12 257.97,-67.12"/>
</g>
<!-- Open&#45;&gt;Closed -->
<g id="edge3" class="edge">
<title>Open&#45;&gt;Closed</title>
<path fill="none" stroke="black" d="M111.93,-41.55C132.88,-47.64 159.57,-55.39 182.64,-62.09"/>
<polygon fill="black" stroke="black" points="181.6,-65.43 192.18,-64.86 183.55,-58.71 181.6,-65.43"/>
<text text-anchor="middle" x="152.72" y="-61.92" font-family="Arial" font-size="14.00">a_close</text>
</g>
<!-- Opening -->
<g id="node4" class="node">
<title>Opening</title>
<path fill="none" stroke="black" d="M450.97,-36C450.97,-36 407.22,-36 407.22,-36 401.22,-36 395.22,-30 395.22,-24 395.22,-24 395.22,-12 395.22,-12 395.22,-6 401.22,0 407.22,0 407.22,0 450.97,0 450.97,0 456.97,0 462.97,-6 462.97,-12 462.97,-12 462.97,-24 462.97,-24 462.97,-30 456.97,-36 450.97,-36"/>
<text text-anchor="middle" x="429.1" y="-12.57" font-family="Arial" font-size="14.00">Opening</text>
</g>
<!-- Closed&#45;&gt;Opening -->
<g id="edge4" class="edge">
<title>Closed&#45;&gt;Opening</title>
<path fill="none" stroke="black" d="M276.37,-61.33C282.25,-59.2 288.24,-57.11 293.97,-55.25 323.6,-45.6 357.4,-36.22 383.66,-29.29"/>
<polygon fill="black" stroke="black" points="384.53,-32.68 393.32,-26.76 382.76,-25.91 384.53,-32.68"/>
<text text-anchor="middle" x="335.6" y="-57.7" font-family="Arial" font-size="14.00">d_open</text>
</g>
<!-- Moving -->
<g id="node5" class="node">
<title>Moving</title>
<path fill="none" stroke="black" d="M447.22,-142C447.22,-142 410.97,-142 410.97,-142 404.97,-142 398.97,-136 398.97,-130 398.97,-130 398.97,-118 398.97,-118 398.97,-112 404.97,-106 410.97,-106 410.97,-106 447.22,-106 447.22,-106 453.22,-106 459.22,-112 459.22,-118 459.22,-118 459.22,-130 459.22,-130 459.22,-136 453.22,-142 447.22,-142"/>
<text text-anchor="middle" x="429.1" y="-118.58" font-family="Arial" font-size="14.00">Moving</text>
</g>
<!-- Closed&#45;&gt;Moving -->
<g id="edge5" class="edge">
<title>Closed&#45;&gt;Moving</title>
<path fill="none" stroke="black" d="M276.43,-74.65C305.33,-74.28 344.71,-76.53 377.22,-88.25 384.45,-90.86 391.6,-94.78 398.15,-99.09"/>
<polygon fill="black" stroke="black" points="395.84,-101.74 406.02,-104.68 399.89,-96.04 395.84,-101.74"/>
<text text-anchor="middle" x="335.6" y="-90.7" font-family="Arial" font-size="14.00">c_up, c_down</text>
</g>
<!-- Opening&#45;&gt;Open -->
<g id="edge6" class="edge">
<title>Opening&#45;&gt;Open</title>
<path fill="none" stroke="black" d="M394.92,-19.22C332.13,-21.54 195.69,-26.57 123.16,-29.25"/>
<polygon fill="black" stroke="black" points="123.04,-25.75 113.17,-29.61 123.3,-32.74 123.04,-25.75"/>
<text text-anchor="middle" x="234.97" y="-29.08" font-family="Arial" font-size="14.00">a_open</text>
</g>
<!-- Opening&#45;&gt;Opening -->
<g id="edge7" class="edge">
<title>Opening&#45;&gt;Opening</title>
<path fill="none" stroke="black" d="M412.18,-36.15C409.58,-45.54 415.22,-54 429.1,-54 436.9,-54 442.1,-51.32 444.69,-47.31"/>
<polygon fill="black" stroke="black" points="448.14,-48 445.83,-37.66 441.18,-47.18 448.14,-48"/>
<text text-anchor="middle" x="429.1" y="-72.2" font-family="Arial" font-size="14.00">d_stp, d_open, </text>
<text text-anchor="middle" x="429.1" y="-56.45" font-family="Arial" font-size="14.00">d_close</text>
</g>
<!-- Moving&#45;&gt;Closed -->
<g id="edge8" class="edge">
<title>Moving&#45;&gt;Closed</title>
<path fill="none" stroke="black" d="M398.52,-122.04C370.99,-119.65 329.03,-114.53 293.97,-104 289.96,-102.79 285.87,-101.36 281.81,-99.79"/>
<polygon fill="black" stroke="black" points="283.2,-96.57 272.62,-95.95 280.5,-103.03 283.2,-96.57"/>
<text text-anchor="middle" x="335.6" y="-122.23" font-family="Arial" font-size="14.00">c_stp</text>
</g>
<!-- Moving&#45;&gt;Moving -->
<g id="edge9" class="edge">
<title>Moving&#45;&gt;Moving</title>
<path fill="none" stroke="black" d="M412.18,-142.15C409.58,-151.54 415.22,-160 429.1,-160 436.9,-160 442.1,-157.32 444.69,-153.31"/>
<polygon fill="black" stroke="black" points="448.14,-154 445.83,-143.66 441.18,-153.18 448.14,-154"/>
<text text-anchor="middle" x="429.1" y="-162.45" font-family="Arial" font-size="14.00">c_up, c_down</text>
</g>
</g>
</svg>
