<?xml version="1.0" encoding="UTF-8" standalone="no"?>
<!DOCTYPE svg PUBLIC "-//W3C//DTD SVG 1.0//EN"
 "http://www.w3.org/TR/2001/REC-SVG-20010904/DTD/svg10.dtd" [
 <!ATTLIST svg xmlns:xlink CDATA #FIXED "http://www.w3.org/1999/xlink">
]>
<!-- Generated by Graphviz version 2.20.2 (Tue Mar &#160;2 21:46:26 UTC 2010)
     For user: (mtmoor) Prof. Thomas Moor -->
<!-- Title: cabin Pages: 1 -->
<svg width="720pt" height="304pt"
 viewBox="0.00 0.00 720.00 303.98" xmlns="http://www.w3.org/2000/svg" xmlns:xlink="http://www.w3.org/1999/xlink">
<g id="graph0" class="graph" transform="scale(0.518732 0.518732) rotate(0) translate(4 582)">
<title>cabin</title>
<polygon style="fill:none;stroke:none;" points="-4,4 -4,-582 1384,-582 1384,4 -4,4"/>
<!-- dot_dummyinit_1 -->
<g id="node1" class="node"><title>dot_dummyinit_1</title>
</g>
<!-- IdleLw -->
<g id="node3" class="node"><title>IdleLw</title>
<ellipse style="fill:none;stroke:black;" cx="87" cy="-56" rx="43.0827" ry="43.0827"/>
<ellipse style="fill:none;stroke:black;" cx="87" cy="-56" rx="47.0827" ry="47.0827"/>
<text text-anchor="middle" x="87" y="-51.9" style="font-family:Times New Roman;font-size:14.00;">IdleLw</text>
</g>
<!-- dot_dummyinit_1&#45;&gt;IdleLw -->
<g id="edge2" class="edge"><title>dot_dummyinit_1&#45;&gt;IdleLw</title>
<path style="fill:none;stroke:black;" d="M2,-56C6,-56 17,-56 30,-56"/>
<polygon style="fill:black;stroke:black;" points="30,-59.5001 40,-56 30,-52.5001 30,-59.5001"/>
</g>
<!-- IdleLw&#45;&gt;IdleLw -->
<g id="edge8" class="edge"><title>IdleLw&#45;&gt;IdleLw</title>
<path style="fill:none;stroke:black;" d="M75,-102C76,-113 80,-121 87,-121 92,-121 95,-118 97,-112"/>
<polygon style="fill:black;stroke:black;" points="100.471,-112.492 99,-102 93.6067,-111.119 100.471,-112.492"/>
<text text-anchor="middle" x="87" y="-124.9" style="font-family:Times New Roman;font-size:14.00;">c_stp</text>
</g>
<!-- UpLw -->
<g id="node6" class="node"><title>UpLw</title>
<ellipse style="fill:none;stroke:black;" cx="245" cy="-113" rx="38.9134" ry="38.9134"/>
<text text-anchor="middle" x="245" y="-108.9" style="font-family:Times New Roman;font-size:14.00;">UpLw</text>
</g>
<!-- IdleLw&#45;&gt;UpLw -->
<g id="edge4" class="edge"><title>IdleLw&#45;&gt;UpLw</title>
<path style="fill:none;stroke:black;" d="M128,-80C136,-84 144,-88 152,-91 166,-97 182,-101 196,-104"/>
<polygon style="fill:black;stroke:black;" points="195.508,-107.471 206,-106 196.881,-100.607 195.508,-107.471"/>
<text text-anchor="middle" x="170" y="-102.9" style="font-family:Times New Roman;font-size:14.00;">c_up</text>
</g>
<!-- DownLw -->
<g id="node9" class="node"><title>DownLw</title>
<ellipse style="fill:none;stroke:black;" cx="1326" cy="-86" rx="54.2008" ry="54.2008"/>
<text text-anchor="middle" x="1326" y="-81.9" style="font-family:Times New Roman;font-size:14.00;">DownLw</text>
</g>
<!-- IdleLw&#45;&gt;DownLw -->
<g id="edge6" class="edge"><title>IdleLw&#45;&gt;DownLw</title>
<path style="fill:none;stroke:black;" d="M134,-49C165,-45 208,-40 245,-40 245,-40 245,-40 1136,-40 1180,-40 1228,-52 1265,-64"/>
<polygon style="fill:black;stroke:black;" points="1264.42,-67.4788 1275,-67 1266.43,-60.7741 1264.42,-67.4788"/>
<text text-anchor="middle" x="656" y="-43.9" style="font-family:Times New Roman;font-size:14.00;">c_down</text>
</g>
<!-- IdleUp -->
<g id="node4" class="node"><title>IdleUp</title>
<ellipse style="fill:none;stroke:black;" cx="761" cy="-431" rx="41.2348" ry="41.2348"/>
<ellipse style="fill:none;stroke:black;" cx="761" cy="-431" rx="45.1908" ry="45.1908"/>
<text text-anchor="middle" x="761" y="-426.9" style="font-family:Times New Roman;font-size:14.00;">IdleUp</text>
</g>
<!-- IdleUp&#45;&gt;IdleUp -->
<g id="edge20" class="edge"><title>IdleUp&#45;&gt;IdleUp</title>
<path style="fill:none;stroke:black;" d="M745,-473C745,-485 751,-494 761,-494 768,-494 773,-490 775,-483"/>
<polygon style="fill:black;stroke:black;" points="778.471,-483.492 777,-473 771.607,-482.119 778.471,-483.492"/>
<text text-anchor="middle" x="761" y="-497.9" style="font-family:Times New Roman;font-size:14.00;">c_stp</text>
</g>
<!-- UpUp -->
<g id="node8" class="node"><title>UpUp</title>
<ellipse style="fill:none;stroke:black;" cx="559" cy="-351" rx="37.0233" ry="37.0233"/>
<text text-anchor="middle" x="559" y="-346.9" style="font-family:Times New Roman;font-size:14.00;">UpUp</text>
</g>
<!-- IdleUp&#45;&gt;UpUp -->
<g id="edge16" class="edge"><title>IdleUp&#45;&gt;UpUp</title>
<path style="fill:none;stroke:black;" d="M725,-404C716,-399 707,-394 698,-390 682,-382 639,-370 605,-362"/>
<polygon style="fill:black;stroke:black;" points="605.492,-358.529 595,-360 604.119,-365.393 605.492,-358.529"/>
<text text-anchor="middle" x="656" y="-393.9" style="font-family:Times New Roman;font-size:14.00;">c_up</text>
</g>
<!-- DownUp -->
<g id="node11" class="node"><title>DownUp</title>
<ellipse style="fill:none;stroke:black;" cx="949" cy="-351" rx="52.8111" ry="52.8111"/>
<text text-anchor="middle" x="949" y="-346.9" style="font-family:Times New Roman;font-size:14.00;">DownUp</text>
</g>
<!-- IdleUp&#45;&gt;DownUp -->
<g id="edge18" class="edge"><title>IdleUp&#45;&gt;DownUp</title>
<path style="fill:none;stroke:black;" d="M806,-427C828,-423 855,-417 878,-407 886,-403 894,-399 902,-393"/>
<polygon style="fill:black;stroke:black;" points="904.1,-395.8 910,-387 899.9,-390.2 904.1,-395.8"/>
<text text-anchor="middle" x="851" y="-425.9" style="font-family:Times New Roman;font-size:14.00;">c_down</text>
</g>
<!-- IdleMd -->
<g id="node5" class="node"><title>IdleMd</title>
<ellipse style="fill:none;stroke:black;" cx="656" cy="-494" rx="41.8891" ry="41.8891"/>
<text text-anchor="middle" x="656" y="-489.9" style="font-family:Times New Roman;font-size:14.00;">IdleMd</text>
</g>
<!-- IdleMd&#45;&gt;IdleMd -->
<g id="edge14" class="edge"><title>IdleMd&#45;&gt;IdleMd</title>
<path style="fill:none;stroke:black;" d="M638,-532C638,-544 644,-554 656,-554 664,-554 670,-549 672,-542"/>
<polygon style="fill:black;stroke:black;" points="675.471,-542.492 674,-532 668.607,-541.119 675.471,-542.492"/>
<text text-anchor="middle" x="656" y="-557.9" style="font-family:Times New Roman;font-size:14.00;">c_stp</text>
</g>
<!-- UpMd -->
<g id="node7" class="node"><title>UpMd</title>
<ellipse style="fill:none;stroke:black;" cx="402" cy="-288" rx="38.2185" ry="38.2185"/>
<text text-anchor="middle" x="402" y="-283.9" style="font-family:Times New Roman;font-size:14.00;">UpMd</text>
</g>
<!-- IdleMd&#45;&gt;UpMd -->
<g id="edge10" class="edge"><title>IdleMd&#45;&gt;UpMd</title>
<path style="fill:none;stroke:black;" d="M616,-480C588,-470 551,-453 522,-432 485,-403 450,-360 429,-329"/>
<polygon style="fill:black;stroke:black;" points="431.459,-326.379 423,-320 425.635,-330.262 431.459,-326.379"/>
<text text-anchor="middle" x="481" y="-417.9" style="font-family:Times New Roman;font-size:14.00;">c_up</text>
</g>
<!-- DownMd -->
<g id="node10" class="node"><title>DownMd</title>
<ellipse style="fill:none;stroke:black;" cx="1136" cy="-298" rx="54.2008" ry="54.2008"/>
<text text-anchor="middle" x="1136" y="-293.9" style="font-family:Times New Roman;font-size:14.00;">DownMd</text>
</g>
<!-- IdleMd&#45;&gt;DownMd -->
<g id="edge12" class="edge"><title>IdleMd&#45;&gt;DownMd</title>
<path style="fill:none;stroke:black;" d="M682,-527C691,-537 703,-547 716,-553 768,-575 1064,-553 1064,-553 1094,-529 1116,-429 1126,-362"/>
<polygon style="fill:black;stroke:black;" points="1129.47,-362.492 1128,-352 1122.61,-361.119 1129.47,-362.492"/>
<text text-anchor="middle" x="851" y="-565.9" style="font-family:Times New Roman;font-size:14.00;">c_down</text>
</g>
<!-- UpLw&#45;&gt;IdleLw -->
<g id="edge26" class="edge"><title>UpLw&#45;&gt;IdleLw</title>
<path style="fill:none;stroke:black;" d="M218,-85C209,-78 199,-71 188,-67 174,-61 159,-58 144,-56"/>
<polygon style="fill:black;stroke:black;" points="144.299,-52.5125 134,-55 143.602,-59.4778 144.299,-52.5125"/>
<text text-anchor="middle" x="170" y="-70.9" style="font-family:Times New Roman;font-size:14.00;">c_stp</text>
</g>
<!-- UpLw&#45;&gt;UpLw -->
<g id="edge22" class="edge"><title>UpLw&#45;&gt;UpLw</title>
<path style="fill:none;stroke:black;" d="M232,-150C232,-161 236,-170 245,-170 251,-170 255,-166 257,-160"/>
<polygon style="fill:black;stroke:black;" points="260.488,-160.299 258,-150 253.522,-159.602 260.488,-160.299"/>
<text text-anchor="middle" x="245" y="-173.9" style="font-family:Times New Roman;font-size:14.00;">c_up</text>
</g>
<!-- UpLw&#45;&gt;UpMd -->
<g id="edge28" class="edge"><title>UpLw&#45;&gt;UpMd</title>
<path style="fill:none;stroke:black;" d="M271,-142C298,-173 340,-219 369,-252"/>
<polygon style="fill:black;stroke:black;" points="366.454,-254.404 376,-259 371.404,-249.454 366.454,-254.404"/>
<text text-anchor="middle" x="324" y="-223.9" style="font-family:Times New Roman;font-size:14.00;">c_lvlw</text>
</g>
<!-- UpLw&#45;&gt;DownLw -->
<g id="edge24" class="edge"><title>UpLw&#45;&gt;DownLw</title>
<path style="fill:none;stroke:black;" d="M283,-123C315,-130 361,-139 402,-139 402,-139 402,-139 1136,-139 1181,-139 1230,-125 1267,-111"/>
<polygon style="fill:black;stroke:black;" points="1267.62,-114.483 1276,-108 1265.41,-107.842 1267.62,-114.483"/>
<text text-anchor="middle" x="761" y="-142.9" style="font-family:Times New Roman;font-size:14.00;">c_down</text>
</g>
<!-- UpMd&#45;&gt;IdleMd -->
<g id="edge34" class="edge"><title>UpMd&#45;&gt;IdleMd</title>
<path style="fill:none;stroke:black;" d="M408,-326C415,-358 429,-405 458,-435 496,-474 559,-488 604,-492"/>
<polygon style="fill:black;stroke:black;" points="603.701,-495.488 614,-493 604.398,-488.522 603.701,-495.488"/>
<text text-anchor="middle" x="481" y="-468.9" style="font-family:Times New Roman;font-size:14.00;">c_stp</text>
</g>
<!-- UpMd&#45;&gt;UpMd -->
<g id="edge30" class="edge"><title>UpMd&#45;&gt;UpMd</title>
<path style="fill:none;stroke:black;" d="M388,-323C388,-335 393,-344 402,-344 408,-344 412,-340 415,-333"/>
<polygon style="fill:black;stroke:black;" points="418.488,-333.299 416,-323 411.522,-332.602 418.488,-333.299"/>
<text text-anchor="middle" x="402" y="-347.9" style="font-family:Times New Roman;font-size:14.00;">c_up</text>
</g>
<!-- UpMd&#45;&gt;UpUp -->
<g id="edge36" class="edge"><title>UpMd&#45;&gt;UpUp</title>
<path style="fill:none;stroke:black;" d="M438,-302C461,-312 491,-324 516,-333"/>
<polygon style="fill:black;stroke:black;" points="514.44,-336.137 525,-337 517.283,-329.74 514.44,-336.137"/>
<text text-anchor="middle" x="481" y="-328.9" style="font-family:Times New Roman;font-size:14.00;">c_arup</text>
</g>
<!-- UpMd&#45;&gt;DownMd -->
<g id="edge32" class="edge"><title>UpMd&#45;&gt;DownMd</title>
<path style="fill:none;stroke:black;" d="M437,-273C468,-260 516,-245 559,-245 559,-245 559,-245 949,-245 993,-245 1041,-258 1076,-272"/>
<polygon style="fill:black;stroke:black;" points="1075.42,-275.536 1086,-276 1078.02,-269.036 1075.42,-275.536"/>
<text text-anchor="middle" x="761" y="-248.9" style="font-family:Times New Roman;font-size:14.00;">c_down</text>
</g>
<!-- UpUp&#45;&gt;IdleUp -->
<g id="edge42" class="edge"><title>UpUp&#45;&gt;IdleUp</title>
<path style="fill:none;stroke:black;" d="M582,-380C591,-390 602,-400 614,-407 630,-415 672,-422 706,-426"/>
<polygon style="fill:black;stroke:black;" points="705.701,-429.488 716,-427 706.398,-422.522 705.701,-429.488"/>
<text text-anchor="middle" x="656" y="-426.9" style="font-family:Times New Roman;font-size:14.00;">c_stp</text>
</g>
<!-- UpUp&#45;&gt;UpUp -->
<g id="edge38" class="edge"><title>UpUp&#45;&gt;UpUp</title>
<path style="fill:none;stroke:black;" d="M545,-385C545,-397 549,-406 559,-406 565,-406 569,-402 572,-395"/>
<polygon style="fill:black;stroke:black;" points="575.488,-395.299 573,-385 568.522,-394.602 575.488,-395.299"/>
<text text-anchor="middle" x="559" y="-409.9" style="font-family:Times New Roman;font-size:14.00;">c_up</text>
</g>
<!-- UpUp&#45;&gt;DownUp -->
<g id="edge40" class="edge"><title>UpUp&#45;&gt;DownUp</title>
<path style="fill:none;stroke:black;" d="M596,-351C662,-351 804,-351 886,-351"/>
<polygon style="fill:black;stroke:black;" points="886,-354.5 896,-351 886,-347.5 886,-354.5"/>
<text text-anchor="middle" x="761" y="-354.9" style="font-family:Times New Roman;font-size:14.00;">c_down</text>
</g>
<!-- DownLw&#45;&gt;IdleLw -->
<g id="edge48" class="edge"><title>DownLw&#45;&gt;IdleLw</title>
<path style="fill:none;stroke:black;" d="M1283,-54C1246,-30 1190,-1 1136,-0 245,-0 245,-0 245,-0 208,-1 168,-15 137,-29"/>
<polygon style="fill:black;stroke:black;" points="135.717,-25.7402 128,-33 138.56,-32.1369 135.717,-25.7402"/>
<text text-anchor="middle" x="656" y="-4.9" style="font-family:Times New Roman;font-size:14.00;">c_stp</text>
</g>
<!-- DownLw&#45;&gt;UpLw -->
<g id="edge44" class="edge"><title>DownLw&#45;&gt;UpLw</title>
<path style="fill:none;stroke:black;" d="M1272,-86C1234,-86 1182,-86 1136,-86 402,-86 402,-86 402,-86 365,-86 323,-93 293,-101"/>
<polygon style="fill:black;stroke:black;" points="292.119,-97.6067 283,-103 293.492,-104.471 292.119,-97.6067"/>
<text text-anchor="middle" x="761" y="-89.9" style="font-family:Times New Roman;font-size:14.00;">c_up</text>
</g>
<!-- DownLw&#45;&gt;DownLw -->
<g id="edge46" class="edge"><title>DownLw&#45;&gt;DownLw</title>
<path style="fill:none;stroke:black;" d="M1309,-137C1311,-149 1316,-158 1326,-158 1333,-158 1338,-154 1340,-147"/>
<polygon style="fill:black;stroke:black;" points="1343.48,-147.584 1343,-137 1336.77,-145.573 1343.48,-147.584"/>
<text text-anchor="middle" x="1326" y="-161.9" style="font-family:Times New Roman;font-size:14.00;">c_down</text>
</g>
<!-- DownMd&#45;&gt;IdleMd -->
<g id="edge54" class="edge"><title>DownMd&#45;&gt;IdleMd</title>
<path style="fill:none;stroke:black;" d="M1105,-343C1081,-375 1044,-419 1002,-448 926,-500 898,-503 806,-520 767,-527 756,-528 716,-520 712,-519 708,-518 704,-516"/>
<polygon style="fill:black;stroke:black;" points="704.584,-512.521 694,-513 702.573,-519.226 704.584,-512.521"/>
<text text-anchor="middle" x="851" y="-518.9" style="font-family:Times New Roman;font-size:14.00;">c_stp</text>
</g>
<!-- DownMd&#45;&gt;UpMd -->
<g id="edge50" class="edge"><title>DownMd&#45;&gt;UpMd</title>
<path style="fill:none;stroke:black;" d="M1097,-260C1062,-230 1006,-192 949,-192 559,-192 559,-192 559,-192 511,-192 465,-226 436,-253"/>
<polygon style="fill:black;stroke:black;" points="433.221,-250.781 428,-260 437.831,-256.049 433.221,-250.781"/>
<text text-anchor="middle" x="761" y="-195.9" style="font-family:Times New Roman;font-size:14.00;">c_up</text>
</g>
<!-- DownMd&#45;&gt;DownLw -->
<g id="edge56" class="edge"><title>DownMd&#45;&gt;DownLw</title>
<path style="fill:none;stroke:black;" d="M1172,-258C1204,-223 1249,-171 1283,-134"/>
<polygon style="fill:black;stroke:black;" points="1286.05,-135.831 1290,-126 1280.78,-131.221 1286.05,-135.831"/>
<text text-anchor="middle" x="1231" y="-219.9" style="font-family:Times New Roman;font-size:14.00;">c_arlw</text>
</g>
<!-- DownMd&#45;&gt;DownMd -->
<g id="edge52" class="edge"><title>DownMd&#45;&gt;DownMd</title>
<path style="fill:none;stroke:black;" d="M1119,-349C1121,-361 1126,-370 1136,-370 1143,-370 1148,-366 1150,-359"/>
<polygon style="fill:black;stroke:black;" points="1153.48,-359.584 1153,-349 1146.77,-357.573 1153.48,-359.584"/>
<text text-anchor="middle" x="1136" y="-373.9" style="font-family:Times New Roman;font-size:14.00;">c_down</text>
</g>
<!-- DownUp&#45;&gt;IdleUp -->
<g id="edge62" class="edge"><title>DownUp&#45;&gt;IdleUp</title>
<path style="fill:none;stroke:black;" d="M897,-361C874,-367 847,-375 824,-386 817,-389 811,-392 804,-396"/>
<polygon style="fill:black;stroke:black;" points="801.9,-393.2 796,-402 806.1,-398.8 801.9,-393.2"/>
<text text-anchor="middle" x="851" y="-389.9" style="font-family:Times New Roman;font-size:14.00;">c_stp</text>
</g>
<!-- DownUp&#45;&gt;UpUp -->
<g id="edge58" class="edge"><title>DownUp&#45;&gt;UpUp</title>
<path style="fill:none;stroke:black;" d="M897,-341C870,-337 836,-332 806,-330 767,-327 756,-327 716,-330 679,-332 637,-338 606,-342"/>
<polygon style="fill:black;stroke:black;" points="605.119,-338.607 596,-344 606.492,-345.471 605.119,-338.607"/>
<text text-anchor="middle" x="761" y="-333.9" style="font-family:Times New Roman;font-size:14.00;">c_up</text>
</g>
<!-- DownUp&#45;&gt;DownMd -->
<g id="edge64" class="edge"><title>DownUp&#45;&gt;DownMd</title>
<path style="fill:none;stroke:black;" d="M1000,-337C1023,-330 1050,-322 1074,-316"/>
<polygon style="fill:black;stroke:black;" points="1075.43,-319.226 1084,-313 1073.42,-312.521 1075.43,-319.226"/>
<text text-anchor="middle" x="1042" y="-333.9" style="font-family:Times New Roman;font-size:14.00;">c_lvup</text>
</g>
<!-- DownUp&#45;&gt;DownUp -->
<g id="edge60" class="edge"><title>DownUp&#45;&gt;DownUp</title>
<path style="fill:none;stroke:black;" d="M932,-402C934,-413 939,-422 949,-422 956,-422 960,-418 963,-412"/>
<polygon style="fill:black;stroke:black;" points="966.479,-412.584 966,-402 959.774,-410.573 966.479,-412.584"/>
<text text-anchor="middle" x="949" y="-425.9" style="font-family:Times New Roman;font-size:14.00;">c_down</text>
</g>
</g>
</svg>
