<?xml version="1.0" encoding="UTF-8" standalone="no"?>
<!DOCTYPE svg PUBLIC "-//W3C//DTD SVG 1.0//EN"
 "http://www.w3.org/TR/2001/REC-SVG-20010904/DTD/svg10.dtd" [
 <!ATTLIST svg xmlns:xlink CDATA #FIXED "http://www.w3.org/1999/xlink">
]>
<!-- Generated by Graphviz version 2.20.2 (Tue Mar &#160;2 21:46:26 UTC 2010)
     For user: (mtmoor) Prof. Thomas Moor -->
<!-- Title: E_cabmot Pages: 1 -->
<svg width="428pt" height="186pt"
 viewBox="0.00 0.00 428.00 186.00" xmlns="http://www.w3.org/2000/svg" xmlns:xlink="http://www.w3.org/1999/xlink">
<g id="graph0" class="graph" transform="scale(1 1) rotate(0) translate(4 182)">
<title>E_cabmot</title>
<polygon style="fill:none;stroke:none;" points="-4,4 -4,-182 424,-182 424,4 -4,4"/>
<!-- dot_dummyinit_1 -->
<g id="node1" class="node"><title>dot_dummyinit_1</title>
</g>
<!-- Idle -->
<g id="node3" class="node"><title>Idle</title>
<ellipse style="fill:none;stroke:black;" cx="72" cy="-58" rx="28.0519" ry="28.0519"/>
<ellipse style="fill:none;stroke:black;" cx="72" cy="-58" rx="31.9903" ry="31.9903"/>
<text text-anchor="middle" x="72" y="-53.9" style="font-family:Times New Roman;font-size:14.00;">Idle</text>
</g>
<!-- dot_dummyinit_1&#45;&gt;Idle -->
<g id="edge2" class="edge"><title>dot_dummyinit_1&#45;&gt;Idle</title>
<path style="fill:none;stroke:black;" d="M2,-58C5,-58 17,-58 30,-58"/>
<polygon style="fill:black;stroke:black;" points="30,-61.5001 40,-58 30,-54.5001 30,-61.5001"/>
</g>
<!-- Idle&#45;&gt;Idle -->
<g id="edge4" class="edge"><title>Idle&#45;&gt;Idle</title>
<path style="fill:none;stroke:black;" d="M68,-90C68,-100 69,-108 72,-108 74,-108 75,-105 76,-100"/>
<polygon style="fill:black;stroke:black;" points="79.5001,-100 76,-90 72.5001,-100 79.5001,-100"/>
<text text-anchor="middle" x="72" y="-111.9" style="font-family:Times New Roman;font-size:14.00;">c_arlw</text>
</g>
<!-- Idle&#45;&gt;Idle -->
<g id="edge6" class="edge"><title>Idle&#45;&gt;Idle</title>
<path style="fill:none;stroke:black;" d="M45,-76C24,-98 33,-126 72,-126 106,-126 117,-104 105,-84"/>
<polygon style="fill:black;stroke:black;" points="107.8,-81.9 99,-76 102.2,-86.1 107.8,-81.9"/>
<text text-anchor="middle" x="72" y="-129.9" style="font-family:Times New Roman;font-size:14.00;">c_arup</text>
</g>
<!-- Down -->
<g id="node4" class="node"><title>Down</title>
<ellipse style="fill:none;stroke:black;" cx="233" cy="-139" rx="39.1069" ry="39.1069"/>
<text text-anchor="middle" x="233" y="-134.9" style="font-family:Times New Roman;font-size:14.00;">Down</text>
</g>
<!-- Idle&#45;&gt;Down -->
<g id="edge10" class="edge"><title>Idle&#45;&gt;Down</title>
<path style="fill:none;stroke:black;" d="M101,-72C125,-85 161,-103 189,-117"/>
<polygon style="fill:black;stroke:black;" points="187.44,-120.137 198,-121 190.283,-113.74 187.44,-120.137"/>
<text text-anchor="middle" x="149" y="-110.9" style="font-family:Times New Roman;font-size:14.00;">c_down</text>
</g>
<!-- Up -->
<g id="node5" class="node"><title>Up</title>
<ellipse style="fill:none;stroke:black;" cx="233" cy="-58" rx="23.8245" ry="23.8245"/>
<text text-anchor="middle" x="233" y="-53.9" style="font-family:Times New Roman;font-size:14.00;">Up</text>
</g>
<!-- Idle&#45;&gt;Up -->
<g id="edge8" class="edge"><title>Idle&#45;&gt;Up</title>
<path style="fill:none;stroke:black;" d="M104,-58C131,-58 171,-58 199,-58"/>
<polygon style="fill:black;stroke:black;" points="199,-61.5001 209,-58 199,-54.5001 199,-61.5001"/>
<text text-anchor="middle" x="149" y="-61.9" style="font-family:Times New Roman;font-size:14.00;">c_up</text>
</g>
<!-- Stop -->
<g id="node6" class="node"><title>Stop</title>
<ellipse style="fill:none;stroke:black;" cx="387" cy="-58" rx="32.8565" ry="32.8565"/>
<text text-anchor="middle" x="387" y="-53.9" style="font-family:Times New Roman;font-size:14.00;">Stop</text>
</g>
<!-- Down&#45;&gt;Stop -->
<g id="edge12" class="edge"><title>Down&#45;&gt;Stop</title>
<path style="fill:none;stroke:black;" d="M268,-121C292,-109 324,-91 349,-78"/>
<polygon style="fill:black;stroke:black;" points="350.958,-80.916 358,-73 347.559,-74.7969 350.958,-80.916"/>
<text text-anchor="middle" x="313" y="-110.9" style="font-family:Times New Roman;font-size:14.00;">c_arlw</text>
</g>
<!-- Up&#45;&gt;Stop -->
<g id="edge14" class="edge"><title>Up&#45;&gt;Stop</title>
<path style="fill:none;stroke:black;" d="M257,-58C280,-58 316,-58 344,-58"/>
<polygon style="fill:black;stroke:black;" points="344,-61.5001 354,-58 344,-54.5001 344,-61.5001"/>
<text text-anchor="middle" x="313" y="-61.9" style="font-family:Times New Roman;font-size:14.00;">c_arup</text>
</g>
<!-- Stop&#45;&gt;Idle -->
<g id="edge16" class="edge"><title>Stop&#45;&gt;Idle</title>
<path style="fill:none;stroke:black;" d="M358,-41C335,-29 303,-14 272,-8 239,-0 229,-1 194,-8 165,-13 133,-27 109,-38"/>
<polygon style="fill:black;stroke:black;" points="107.042,-35.084 100,-43 110.441,-41.2031 107.042,-35.084"/>
<text text-anchor="middle" x="233" y="-11.9" style="font-family:Times New Roman;font-size:14.00;">c_stp</text>
</g>
</g>
</svg>
