<?xml version="1.0" encoding="UTF-8" standalone="no"?>
<!DOCTYPE svg PUBLIC "-//W3C//DTD SVG 1.1//EN"
 "http://www.w3.org/Graphics/SVG/1.1/DTD/svg11.dtd">
<!-- Generated by graphviz version 12.2.1 (20241206.2353)
 -->
<!-- Title: FullLanguage(NameSet)||E_opcmd||E_cabmot Pages: 1 -->
<svg width="507pt" height="200pt"
 viewBox="0.00 0.00 507.10 199.75" xmlns="http://www.w3.org/2000/svg" xmlns:xlink="http://www.w3.org/1999/xlink">
<g id="graph0" class="graph" transform="scale(1 1) rotate(0) translate(4 195.75)">
<title>FullLanguage(NameSet)||E_opcmd||E_cabmot</title>
<!-- dot_dummyinit_1 -->
<g id="node1" class="node">
<title>dot_dummyinit_1</title>
</g>
<!-- 1 -->
<g id="node2" class="node">
<title>1</title>
<ellipse fill="none" stroke="black" cx="59.72" cy="-22" rx="18" ry="18"/>
<ellipse fill="none" stroke="black" cx="59.72" cy="-22" rx="22" ry="22"/>
<text text-anchor="middle" x="59.72" y="-16.57" font-family="Arial" font-size="14.00">1</text>
</g>
<!-- dot_dummyinit_1&#45;&gt;1 -->
<g id="edge1" class="edge">
<title>dot_dummyinit_1&#45;&gt;1</title>
<path fill="none" stroke="black" d="M0.89,-22C2.38,-22 13.74,-22 26,-22"/>
<polygon fill="black" stroke="black" points="25.74,-25.5 35.74,-22 25.74,-18.5 25.74,-25.5"/>
</g>
<!-- 1&#45;&gt;1 -->
<g id="edge2" class="edge">
<title>1&#45;&gt;1</title>
<path fill="none" stroke="black" d="M52.31,-42.99C51.4,-53.09 53.87,-62 59.72,-62 63.2,-62 65.48,-58.86 66.57,-54.19"/>
<polygon fill="black" stroke="black" points="70.05,-54.66 67.05,-44.5 63.06,-54.31 70.05,-54.66"/>
<text text-anchor="middle" x="59.72" y="-64.45" font-family="Arial" font-size="14.00">c_arlw, c_arup</text>
</g>
<!-- 2 -->
<g id="node3" class="node">
<title>2</title>
<ellipse fill="none" stroke="black" cx="221.6" cy="-52" rx="18" ry="18"/>
<text text-anchor="middle" x="221.6" y="-46.58" font-family="Arial" font-size="14.00">2</text>
</g>
<!-- 1&#45;&gt;2 -->
<g id="edge3" class="edge">
<title>1&#45;&gt;2</title>
<path fill="none" stroke="black" d="M81.62,-25.92C109.99,-31.25 160.78,-40.78 192.47,-46.72"/>
<polygon fill="black" stroke="black" points="191.63,-50.13 202.11,-48.53 192.92,-43.25 191.63,-50.13"/>
<text text-anchor="middle" x="139.85" y="-46.4" font-family="Arial" font-size="14.00">o_upb, o_lwb</text>
</g>
<!-- 2&#45;&gt;2 -->
<g id="edge4" class="edge">
<title>2&#45;&gt;2</title>
<path fill="none" stroke="black" d="M210.74,-66.79C207.21,-77.42 210.82,-88 221.6,-88 228.33,-88 232.26,-83.87 233.41,-78.17"/>
<polygon fill="black" stroke="black" points="236.9,-77.97 232.58,-68.3 229.93,-78.56 236.9,-77.97"/>
<text text-anchor="middle" x="221.6" y="-121.95" font-family="Arial" font-size="14.00">c_arlw, c_arup, </text>
<text text-anchor="middle" x="221.6" y="-106.2" font-family="Arial" font-size="14.00">o_upb, </text>
<text text-anchor="middle" x="221.6" y="-90.45" font-family="Arial" font-size="14.00">o_lwb</text>
</g>
<!-- 3 -->
<g id="node4" class="node">
<title>3</title>
<ellipse fill="none" stroke="black" cx="345.72" cy="-140" rx="18" ry="18"/>
<text text-anchor="middle" x="345.72" y="-134.57" font-family="Arial" font-size="14.00">3</text>
</g>
<!-- 2&#45;&gt;3 -->
<g id="edge5" class="edge">
<title>2&#45;&gt;3</title>
<path fill="none" stroke="black" d="M236.6,-62.09C257.29,-77 296.26,-105.08 321.33,-123.14"/>
<polygon fill="black" stroke="black" points="319.11,-125.86 329.27,-128.87 323.2,-120.18 319.11,-125.86"/>
<text text-anchor="middle" x="286.47" y="-116.45" font-family="Arial" font-size="14.00">c_up</text>
</g>
<!-- 4 -->
<g id="node5" class="node">
<title>4</title>
<ellipse fill="none" stroke="black" cx="345.72" cy="-52" rx="18" ry="18"/>
<text text-anchor="middle" x="345.72" y="-46.58" font-family="Arial" font-size="14.00">4</text>
</g>
<!-- 2&#45;&gt;4 -->
<g id="edge6" class="edge">
<title>2&#45;&gt;4</title>
<path fill="none" stroke="black" d="M240.09,-52C259.86,-52 292.34,-52 315.88,-52"/>
<polygon fill="black" stroke="black" points="315.74,-55.5 325.74,-52 315.74,-48.5 315.74,-55.5"/>
<text text-anchor="middle" x="286.47" y="-54.45" font-family="Arial" font-size="14.00">c_down</text>
</g>
<!-- 3&#45;&gt;3 -->
<g id="edge7" class="edge">
<title>3&#45;&gt;3</title>
<path fill="none" stroke="black" d="M336.04,-155.54C333.31,-165.91 336.54,-176 345.72,-176 351.31,-176 354.7,-172.25 355.87,-166.98"/>
<polygon fill="black" stroke="black" points="359.37,-166.9 355.46,-157.05 352.38,-167.19 359.37,-166.9"/>
<text text-anchor="middle" x="345.72" y="-178.45" font-family="Arial" font-size="14.00">o_upb, o_lwb</text>
</g>
<!-- 5 -->
<g id="node6" class="node">
<title>5</title>
<ellipse fill="none" stroke="black" cx="458.97" cy="-52" rx="18" ry="18"/>
<text text-anchor="middle" x="458.97" y="-46.58" font-family="Arial" font-size="14.00">5</text>
</g>
<!-- 3&#45;&gt;5 -->
<g id="edge8" class="edge">
<title>3&#45;&gt;5</title>
<path fill="none" stroke="black" d="M360.36,-129.21C379.04,-114.43 412.83,-87.7 435.34,-69.9"/>
<polygon fill="black" stroke="black" points="437.36,-72.77 443.03,-63.82 433.02,-67.28 437.36,-72.77"/>
<text text-anchor="middle" x="402.35" y="-113.99" font-family="Arial" font-size="14.00">c_arup</text>
</g>
<!-- 4&#45;&gt;4 -->
<g id="edge9" class="edge">
<title>4&#45;&gt;4</title>
<path fill="none" stroke="black" d="M336.04,-67.54C333.31,-77.91 336.54,-88 345.72,-88 351.31,-88 354.7,-84.25 355.87,-78.98"/>
<polygon fill="black" stroke="black" points="359.37,-78.9 355.46,-69.05 352.38,-79.19 359.37,-78.9"/>
<text text-anchor="middle" x="345.72" y="-90.45" font-family="Arial" font-size="14.00">o_upb, o_lwb</text>
</g>
<!-- 4&#45;&gt;5 -->
<g id="edge10" class="edge">
<title>4&#45;&gt;5</title>
<path fill="none" stroke="black" d="M364.1,-52C381.57,-52 408.8,-52 429.44,-52"/>
<polygon fill="black" stroke="black" points="429.2,-55.5 439.2,-52 429.2,-48.5 429.2,-55.5"/>
<text text-anchor="middle" x="402.35" y="-54.45" font-family="Arial" font-size="14.00">c_arlw</text>
</g>
<!-- 5&#45;&gt;1 -->
<g id="edge11" class="edge">
<title>5&#45;&gt;1</title>
<path fill="none" stroke="black" d="M441.58,-45.84C423.01,-39.21 391.68,-29.07 363.72,-25 265.99,-10.78 148.66,-15.8 93.03,-19.49"/>
<polygon fill="black" stroke="black" points="93.05,-15.98 83.32,-20.17 93.54,-22.97 93.05,-15.98"/>
<text text-anchor="middle" x="286.47" y="-21.32" font-family="Arial" font-size="14.00">c_stp</text>
</g>
<!-- 5&#45;&gt;5 -->
<g id="edge12" class="edge">
<title>5&#45;&gt;5</title>
<path fill="none" stroke="black" d="M449.29,-67.54C446.56,-77.91 449.79,-88 458.97,-88 464.56,-88 467.95,-84.25 469.12,-78.98"/>
<polygon fill="black" stroke="black" points="472.62,-78.9 468.71,-69.05 465.63,-79.19 472.62,-78.9"/>
<text text-anchor="middle" x="458.97" y="-90.45" font-family="Arial" font-size="14.00">o_upb, o_lwb</text>
</g>
</g>
</svg>
