<?xml version="1.0" encoding="UTF-8" standalone="no"?>
<!DOCTYPE svg PUBLIC "-//W3C//DTD SVG 1.1//EN"
 "http://www.w3.org/Graphics/SVG/1.1/DTD/svg11.dtd">
<!-- Generated by graphviz version 12.2.1 (20241206.2353)
 -->
<!-- Title: E_cabmot Pages: 1 -->
<svg width="501pt" height="139pt"
 viewBox="0.00 0.00 501.22 139.25" xmlns="http://www.w3.org/2000/svg" xmlns:xlink="http://www.w3.org/1999/xlink">
<g id="graph0" class="graph" transform="scale(1 1) rotate(0) translate(4 135.25)">
<title>E_cabmot</title>
<!-- dot_dummyinit_1 -->
<g id="node1" class="node">
<title>dot_dummyinit_1</title>
</g>
<!-- Idle -->
<g id="node2" class="node">
<title>Idle</title>
<path fill="none" stroke="black" d="M87.47,-66C87.47,-66 49.72,-66 49.72,-66 43.72,-66 37.72,-60 37.72,-54 37.72,-54 37.72,-42 37.72,-42 37.72,-36 43.72,-30 49.72,-30 49.72,-30 87.47,-30 87.47,-30 93.47,-30 99.47,-36 99.47,-42 99.47,-42 99.47,-54 99.47,-54 99.47,-60 93.47,-66 87.47,-66"/>
<text text-anchor="start" x="49.72" y="-42.58" font-family="Arial" font-size="14.00">Idle</text>
<polygon fill="black" stroke="none" points="81.47,-38.12 81.47,-57.88 89.47,-57.88 89.47,-38.12 81.47,-38.12"/>
</g>
<!-- dot_dummyinit_1&#45;&gt;Idle -->
<g id="edge1" class="edge">
<title>dot_dummyinit_1&#45;&gt;Idle</title>
<path fill="none" stroke="black" d="M0.77,-48C1.6,-48 12.92,-48 26.02,-48"/>
<polygon fill="black" stroke="black" points="25.74,-51.5 35.74,-48 25.74,-44.5 25.74,-51.5"/>
</g>
<!-- Idle&#45;&gt;Idle -->
<g id="edge2" class="edge">
<title>Idle&#45;&gt;Idle</title>
<path fill="none" stroke="black" d="M59.66,-66.15C58.29,-75.54 61.27,-84 68.6,-84 72.72,-84 75.46,-81.32 76.83,-77.31"/>
<polygon fill="black" stroke="black" points="80.3,-77.86 77.43,-67.66 73.32,-77.43 80.3,-77.86"/>
<text text-anchor="middle" x="68.6" y="-117.95" font-family="Arial" font-size="14.00">c_arlw, </text>
<text text-anchor="middle" x="68.6" y="-102.2" font-family="Arial" font-size="14.00">c_arup, </text>
<text text-anchor="middle" x="68.6" y="-86.45" font-family="Arial" font-size="14.00">a_fail</text>
</g>
<!-- Down -->
<g id="node3" class="node">
<title>Down</title>
<path fill="none" stroke="black" d="M223.97,-120C223.97,-120 193.97,-120 193.97,-120 187.97,-120 181.97,-114 181.97,-108 181.97,-108 181.97,-96 181.97,-96 181.97,-90 187.97,-84 193.97,-84 193.97,-84 223.97,-84 223.97,-84 229.97,-84 235.97,-90 235.97,-96 235.97,-96 235.97,-108 235.97,-108 235.97,-114 229.97,-120 223.97,-120"/>
<text text-anchor="middle" x="208.97" y="-96.58" font-family="Arial" font-size="14.00">Down</text>
</g>
<!-- Idle&#45;&gt;Down -->
<g id="edge3" class="edge">
<title>Idle&#45;&gt;Down</title>
<path fill="none" stroke="black" d="M99.92,-60.86C105.73,-63.27 111.78,-65.74 117.47,-68 135.13,-75 154.87,-82.46 171.39,-88.6"/>
<polygon fill="black" stroke="black" points="169.72,-91.72 180.32,-91.91 172.15,-85.15 169.72,-91.72"/>
<text text-anchor="middle" x="140.72" y="-87.5" font-family="Arial" font-size="14.00">c_down</text>
</g>
<!-- Up -->
<g id="node4" class="node">
<title>Up</title>
<path fill="none" stroke="black" d="M223.97,-66C223.97,-66 193.97,-66 193.97,-66 187.97,-66 181.97,-60 181.97,-54 181.97,-54 181.97,-42 181.97,-42 181.97,-36 187.97,-30 193.97,-30 193.97,-30 223.97,-30 223.97,-30 229.97,-30 235.97,-36 235.97,-42 235.97,-42 235.97,-54 235.97,-54 235.97,-60 229.97,-66 223.97,-66"/>
<text text-anchor="middle" x="208.97" y="-42.58" font-family="Arial" font-size="14.00">Up</text>
</g>
<!-- Idle&#45;&gt;Up -->
<g id="edge4" class="edge">
<title>Idle&#45;&gt;Up</title>
<path fill="none" stroke="black" d="M99.96,-48C120.73,-48 148.4,-48 170.54,-48"/>
<polygon fill="black" stroke="black" points="170.35,-51.5 180.35,-48 170.35,-44.5 170.35,-51.5"/>
<text text-anchor="middle" x="140.72" y="-50.45" font-family="Arial" font-size="14.00">c_up</text>
</g>
<!-- Stop -->
<g id="node5" class="node">
<title>Stop</title>
<path fill="none" stroke="black" d="M358.97,-66C358.97,-66 328.97,-66 328.97,-66 322.97,-66 316.97,-60 316.97,-54 316.97,-54 316.97,-42 316.97,-42 316.97,-36 322.97,-30 328.97,-30 328.97,-30 358.97,-30 358.97,-30 364.97,-30 370.97,-36 370.97,-42 370.97,-42 370.97,-54 370.97,-54 370.97,-60 364.97,-66 358.97,-66"/>
<text text-anchor="middle" x="343.97" y="-42.58" font-family="Arial" font-size="14.00">Stop</text>
</g>
<!-- Down&#45;&gt;Stop -->
<g id="edge5" class="edge">
<title>Down&#45;&gt;Stop</title>
<path fill="none" stroke="black" d="M236.23,-92.45C254.04,-85.86 278.06,-76.74 298.97,-68 301.3,-67.03 303.69,-66.01 306.09,-64.96"/>
<polygon fill="black" stroke="black" points="307.45,-68.19 315.18,-60.94 304.62,-61.79 307.45,-68.19"/>
<text text-anchor="middle" x="276.47" y="-87.72" font-family="Arial" font-size="14.00">c_arlw</text>
</g>
<!-- Up&#45;&gt;Stop -->
<g id="edge6" class="edge">
<title>Up&#45;&gt;Stop</title>
<path fill="none" stroke="black" d="M236.25,-48C256.01,-48 283.37,-48 305.44,-48"/>
<polygon fill="black" stroke="black" points="305.23,-51.5 315.23,-48 305.23,-44.5 305.23,-51.5"/>
<text text-anchor="middle" x="276.47" y="-50.45" font-family="Arial" font-size="14.00">c_arup</text>
</g>
<!-- Done -->
<g id="node6" class="node">
<title>Done</title>
<path fill="none" stroke="black" d="M481.22,-36C481.22,-36 451.22,-36 451.22,-36 445.22,-36 439.22,-30 439.22,-24 439.22,-24 439.22,-12 439.22,-12 439.22,-6 445.22,0 451.22,0 451.22,0 481.22,0 481.22,0 487.22,0 493.22,-6 493.22,-12 493.22,-12 493.22,-24 493.22,-24 493.22,-30 487.22,-36 481.22,-36"/>
<text text-anchor="middle" x="466.22" y="-12.57" font-family="Arial" font-size="14.00">Done</text>
</g>
<!-- Stop&#45;&gt;Done -->
<g id="edge7" class="edge">
<title>Stop&#45;&gt;Done</title>
<path fill="none" stroke="black" d="M371.36,-41.42C387.96,-37.27 409.64,-31.87 427.98,-27.29"/>
<polygon fill="black" stroke="black" points="428.57,-30.75 437.42,-24.93 426.87,-23.96 428.57,-30.75"/>
<text text-anchor="middle" x="405.1" y="-39.02" font-family="Arial" font-size="14.00">c_stp</text>
</g>
<!-- Done&#45;&gt;Idle -->
<g id="edge8" class="edge">
<title>Done&#45;&gt;Idle</title>
<path fill="none" stroke="black" d="M438.92,-16.31C388.74,-13.53 275.92,-9.37 181.97,-21 158,-23.97 131.73,-30.11 110.62,-35.79"/>
<polygon fill="black" stroke="black" points="109.94,-32.35 101.24,-38.39 111.81,-39.1 109.94,-32.35"/>
<text text-anchor="middle" x="276.47" y="-17.34" font-family="Arial" font-size="14.00">a_done</text>
</g>
</g>
</svg>
