<?xml version="1.0" encoding="UTF-8" standalone="no"?>
<!DOCTYPE svg PUBLIC "-//W3C//DTD SVG 1.1//EN"
 "http://www.w3.org/Graphics/SVG/1.1/DTD/svg11.dtd">
<!-- Generated by graphviz version 12.2.1 (20241206.2353)
 -->
<!-- Title: E_drsaf2 Pages: 1 -->
<svg width="720pt" height="177pt"
 viewBox="0.00 0.00 720.00 176.69" xmlns="http://www.w3.org/2000/svg" xmlns:xlink="http://www.w3.org/1999/xlink">
<g id="graph0" class="graph" transform="scale(0.982975 0.982975) rotate(0) translate(4 175.75)">
<title>E_drsaf2</title>
<!-- dot_dummyinit_1 -->
<g id="node1" class="node">
<title>dot_dummyinit_1</title>
</g>
<!-- IdleFree -->
<g id="node2" class="node">
<title>IdleFree</title>
<path fill="none" stroke="black" d="M115.22,-43C115.22,-43 49.72,-43 49.72,-43 43.72,-43 37.72,-37 37.72,-31 37.72,-31 37.72,-19 37.72,-19 37.72,-13 43.72,-7 49.72,-7 49.72,-7 115.22,-7 115.22,-7 121.22,-7 127.22,-13 127.22,-19 127.22,-19 127.22,-31 127.22,-31 127.22,-37 121.22,-43 115.22,-43"/>
<text text-anchor="start" x="49.72" y="-19.57" font-family="Arial" font-size="14.00">IdleFree</text>
<polygon fill="black" stroke="none" points="109.22,-15.12 109.22,-34.88 117.22,-34.88 117.22,-15.12 109.22,-15.12"/>
</g>
<!-- dot_dummyinit_1&#45;&gt;IdleFree -->
<g id="edge1" class="edge">
<title>dot_dummyinit_1&#45;&gt;IdleFree</title>
<path fill="none" stroke="black" d="M0.78,-25C1.67,-25 12.58,-25 26.12,-25"/>
<polygon fill="black" stroke="black" points="25.87,-28.5 35.87,-25 25.87,-21.5 25.87,-28.5"/>
</g>
<!-- IdleFree&#45;&gt;IdleFree -->
<g id="edge2" class="edge">
<title>IdleFree&#45;&gt;IdleFree</title>
<path fill="none" stroke="black" d="M71.03,-43.15C69.27,-52.54 73.08,-61 82.47,-61 87.75,-61 91.27,-58.32 93.02,-54.31"/>
<polygon fill="black" stroke="black" points="96.49,-54.91 93.79,-44.66 89.51,-54.35 96.49,-54.91"/>
<text text-anchor="middle" x="82.47" y="-79.2" font-family="Arial" font-size="14.00">d_open, d_stp, </text>
<text text-anchor="middle" x="82.47" y="-63.45" font-family="Arial" font-size="14.00">d_arcl</text>
</g>
<!-- ClosingFree -->
<g id="node3" class="node">
<title>ClosingFree</title>
<path fill="none" stroke="black" d="M310.47,-128C310.47,-128 221.72,-128 221.72,-128 215.72,-128 209.72,-122 209.72,-116 209.72,-116 209.72,-104 209.72,-104 209.72,-98 215.72,-92 221.72,-92 221.72,-92 310.47,-92 310.47,-92 316.47,-92 322.47,-98 322.47,-104 322.47,-104 322.47,-116 322.47,-116 322.47,-122 316.47,-128 310.47,-128"/>
<text text-anchor="start" x="221.72" y="-104.58" font-family="Arial" font-size="14.00">ClosingFree</text>
<polygon fill="black" stroke="none" points="304.47,-100.12 304.47,-119.88 312.47,-119.88 312.47,-100.12 304.47,-100.12"/>
</g>
<!-- IdleFree&#45;&gt;ClosingFree -->
<g id="edge3" class="edge">
<title>IdleFree&#45;&gt;ClosingFree</title>
<path fill="none" stroke="black" d="M112.15,-43.48C122.39,-49.72 134.14,-56.5 145.22,-62 163.69,-71.16 184.36,-79.93 203.26,-87.41"/>
<polygon fill="black" stroke="black" points="201.86,-90.62 212.45,-91 204.41,-84.1 201.86,-90.62"/>
<text text-anchor="middle" x="168.47" y="-84.73" font-family="Arial" font-size="14.00">d_close</text>
</g>
<!-- Block -->
<g id="node6" class="node">
<title>Block</title>
<path fill="none" stroke="black" d="M695.72,-36C695.72,-36 646.72,-36 646.72,-36 640.72,-36 634.72,-30 634.72,-24 634.72,-24 634.72,-12 634.72,-12 634.72,-6 640.72,0 646.72,0 646.72,0 695.72,0 695.72,0 701.72,0 707.72,-6 707.72,-12 707.72,-12 707.72,-24 707.72,-24 707.72,-30 701.72,-36 695.72,-36"/>
<text text-anchor="start" x="646.72" y="-12.57" font-family="Arial" font-size="14.00">Block</text>
<polygon fill="black" stroke="none" points="689.72,-8.12 689.72,-27.88 697.72,-27.88 697.72,-8.12 689.72,-8.12"/>
</g>
<!-- IdleFree&#45;&gt;Block -->
<g id="edge4" class="edge">
<title>IdleFree&#45;&gt;Block</title>
<path fill="none" stroke="black" d="M127.58,-24.29C178.77,-23.49 265.73,-22.16 340.47,-21.25 441.25,-20.02 559.36,-18.94 623.3,-18.39"/>
<polygon fill="black" stroke="black" points="623.12,-21.89 633.08,-18.31 623.06,-14.89 623.12,-21.89"/>
<text text-anchor="middle" x="358.85" y="-23.7" font-family="Arial" font-size="14.00">d_lbbl</text>
</g>
<!-- ClosingBlock -->
<g id="node4" class="node">
<title>ClosingBlock</title>
<path fill="none" stroke="black" d="M501.22,-138C501.22,-138 407.22,-138 407.22,-138 401.22,-138 395.22,-132 395.22,-126 395.22,-126 395.22,-114 395.22,-114 395.22,-108 401.22,-102 407.22,-102 407.22,-102 501.22,-102 501.22,-102 507.22,-102 513.22,-108 513.22,-114 513.22,-114 513.22,-126 513.22,-126 513.22,-132 507.22,-138 501.22,-138"/>
<text text-anchor="start" x="407.22" y="-114.58" font-family="Arial" font-size="14.00">ClosingBlock</text>
<polygon fill="black" stroke="none" points="495.22,-110.12 495.22,-129.88 503.22,-129.88 503.22,-110.12 495.22,-110.12"/>
</g>
<!-- ClosingFree&#45;&gt;ClosingBlock -->
<g id="edge5" class="edge">
<title>ClosingFree&#45;&gt;ClosingBlock</title>
<path fill="none" stroke="black" d="M309.46,-128.45C319.44,-131.99 330.18,-135.17 340.47,-137 354.39,-139.48 369.31,-139.25 383.6,-137.64"/>
<polygon fill="black" stroke="black" points="383.97,-141.12 393.39,-136.28 383.01,-134.19 383.97,-141.12"/>
<text text-anchor="middle" x="358.85" y="-141.3" font-family="Arial" font-size="14.00">d_lbbl</text>
</g>
<!-- ClosedFree -->
<g id="node5" class="node">
<title>ClosedFree</title>
<path fill="none" stroke="black" d="M497.1,-66C497.1,-66 411.35,-66 411.35,-66 405.35,-66 399.35,-60 399.35,-54 399.35,-54 399.35,-42 399.35,-42 399.35,-36 405.35,-30 411.35,-30 411.35,-30 497.1,-30 497.1,-30 503.1,-30 509.1,-36 509.1,-42 509.1,-42 509.1,-54 509.1,-54 509.1,-60 503.1,-66 497.1,-66"/>
<text text-anchor="start" x="411.35" y="-42.58" font-family="Arial" font-size="14.00">ClosedFree</text>
<polygon fill="black" stroke="none" points="491.1,-38.12 491.1,-57.88 499.1,-57.88 499.1,-38.12 491.1,-38.12"/>
</g>
<!-- ClosingFree&#45;&gt;ClosedFree -->
<g id="edge6" class="edge">
<title>ClosingFree&#45;&gt;ClosedFree</title>
<path fill="none" stroke="black" d="M322.43,-91.57C343.15,-84.66 366.87,-76.76 388.37,-69.6"/>
<polygon fill="black" stroke="black" points="389.24,-73 397.62,-66.52 387.03,-66.36 389.24,-73"/>
<text text-anchor="middle" x="358.85" y="-87" font-family="Arial" font-size="14.00">d_arcl</text>
</g>
<!-- ClosingBlock&#45;&gt;ClosingFree -->
<g id="edge7" class="edge">
<title>ClosingBlock&#45;&gt;ClosingFree</title>
<path fill="none" stroke="black" d="M394.83,-116.86C375.64,-115.83 354.16,-114.68 334.37,-113.61"/>
<polygon fill="black" stroke="black" points="334.62,-110.12 324.45,-113.08 334.25,-117.11 334.62,-110.12"/>
<text text-anchor="middle" x="358.85" y="-118.35" font-family="Arial" font-size="14.00">d_lbrl</text>
</g>
<!-- ClosingBlock&#45;&gt;ClosingBlock -->
<g id="edge8" class="edge">
<title>ClosingBlock&#45;&gt;ClosingBlock</title>
<path fill="none" stroke="black" d="M436.97,-138.15C434.31,-147.54 440.06,-156 454.22,-156 462.18,-156 467.49,-153.32 470.13,-149.31"/>
<polygon fill="black" stroke="black" points="473.57,-150 471.29,-139.66 466.62,-149.17 473.57,-150"/>
<text text-anchor="middle" x="454.22" y="-158.45" font-family="Arial" font-size="14.00">d_arcl</text>
</g>
<!-- ClosingBlock&#45;&gt;Block -->
<g id="edge9" class="edge">
<title>ClosingBlock&#45;&gt;Block</title>
<path fill="none" stroke="black" d="M511.27,-101.55C543.05,-90.17 583.06,-74.28 616.72,-56 623.65,-52.24 630.74,-47.73 637.4,-43.16"/>
<polygon fill="black" stroke="black" points="639.43,-46.02 645.55,-37.37 635.37,-40.31 639.43,-46.02"/>
<text text-anchor="middle" x="573.97" y="-95.3" font-family="Arial" font-size="14.00">d_open, d_stp</text>
</g>
<!-- ClosedFree&#45;&gt;IdleFree -->
<g id="edge10" class="edge">
<title>ClosedFree&#45;&gt;IdleFree</title>
<path fill="none" stroke="black" d="M399.05,-44.63C329.44,-40.3 209.2,-32.82 138.95,-28.45"/>
<polygon fill="black" stroke="black" points="139.41,-24.97 129.21,-27.85 138.98,-31.96 139.41,-24.97"/>
<text text-anchor="middle" x="266.1" y="-41.98" font-family="Arial" font-size="14.00">d_stp</text>
</g>
<!-- ClosedFree&#45;&gt;Block -->
<g id="edge11" class="edge">
<title>ClosedFree&#45;&gt;Block</title>
<path fill="none" stroke="black" d="M509.47,-40.43C544.53,-35.54 589.68,-29.24 623.21,-24.56"/>
<polygon fill="black" stroke="black" points="623.62,-28.04 633.04,-23.19 622.66,-21.1 623.62,-28.04"/>
<text text-anchor="middle" x="573.97" y="-39.02" font-family="Arial" font-size="14.00">d_lbbl</text>
</g>
<!-- Block&#45;&gt;IdleFree -->
<g id="edge12" class="edge">
<title>Block&#45;&gt;IdleFree</title>
<path fill="none" stroke="black" d="M634.25,-15.2C628.4,-14.78 622.39,-14.36 616.72,-14 498.13,-6.41 426.46,2.65 340.47,-1.25 253.42,-5.2 231.97,-10.84 145.22,-19 143.18,-19.19 141.1,-19.39 139,-19.59"/>
<polygon fill="black" stroke="black" points="138.78,-16.09 129.16,-20.53 139.45,-23.06 138.78,-16.09"/>
<text text-anchor="middle" x="358.85" y="-3.7" font-family="Arial" font-size="14.00">d_lbrl</text>
</g>
<!-- Block&#45;&gt;Block -->
<g id="edge13" class="edge">
<title>Block&#45;&gt;Block</title>
<path fill="none" stroke="black" d="M653.63,-36.15C650.92,-45.54 656.78,-54 671.22,-54 679.34,-54 684.75,-51.32 687.44,-47.31"/>
<polygon fill="black" stroke="black" points="690.88,-48.01 688.63,-37.65 683.94,-47.15 690.88,-48.01"/>
<text text-anchor="middle" x="671.22" y="-72.2" font-family="Arial" font-size="14.00">d_close, d_open, </text>
<text text-anchor="middle" x="671.22" y="-56.45" font-family="Arial" font-size="14.00">d_stp</text>
</g>
</g>
</svg>
