<?xml version="1.0" encoding="UTF-8" standalone="no"?>
<!DOCTYPE svg PUBLIC "-//W3C//DTD SVG 1.0//EN"
 "http://www.w3.org/TR/2001/REC-SVG-20010904/DTD/svg10.dtd" [
 <!ATTLIST svg xmlns:xlink CDATA #FIXED "http://www.w3.org/1999/xlink">
]>
<!-- Generated by Graphviz version 2.20.2 (Tue Mar &#160;2 21:46:26 UTC 2010)
     For user: (mtmoor) Prof. Thomas Moor -->
<!-- Title: door Pages: 1 -->
<svg width="720pt" height="311pt"
 viewBox="0.00 0.00 720.00 310.59" xmlns="http://www.w3.org/2000/svg" xmlns:xlink="http://www.w3.org/1999/xlink">
<g id="graph0" class="graph" transform="scale(0.504202 0.504202) rotate(0) translate(4 612)">
<title>door</title>
<polygon style="fill:none;stroke:none;" points="-4,4 -4,-612 1424,-612 1424,4 -4,4"/>
<!-- dot_dummyinit_1 -->
<g id="node1" class="node"><title>dot_dummyinit_1</title>
</g>
<!-- IdleOp -->
<g id="node3" class="node"><title>IdleOp</title>
<ellipse style="fill:none;stroke:black;" cx="85" cy="-57" rx="41.2348" ry="41.2348"/>
<ellipse style="fill:none;stroke:black;" cx="85" cy="-57" rx="45.1908" ry="45.1908"/>
<text text-anchor="middle" x="85" y="-52.9" style="font-family:Times New Roman;font-size:14.00;">IdleOp</text>
</g>
<!-- dot_dummyinit_1&#45;&gt;IdleOp -->
<g id="edge2" class="edge"><title>dot_dummyinit_1&#45;&gt;IdleOp</title>
<path style="fill:none;stroke:black;" d="M2,-57C5,-57 17,-57 30,-57"/>
<polygon style="fill:black;stroke:black;" points="30,-60.5001 40,-57 30,-53.5001 30,-60.5001"/>
</g>
<!-- IdleOp&#45;&gt;IdleOp -->
<g id="edge8" class="edge"><title>IdleOp&#45;&gt;IdleOp</title>
<path style="fill:none;stroke:black;" d="M73,-101C74,-112 78,-120 85,-120 90,-120 93,-117 95,-111"/>
<polygon style="fill:black;stroke:black;" points="98.4708,-111.492 97,-101 91.6067,-110.119 98.4708,-111.492"/>
<text text-anchor="middle" x="85" y="-123.9" style="font-family:Times New Roman;font-size:14.00;">d_stp</text>
</g>
<!-- CloseOp -->
<g id="node6" class="node"><title>CloseOp</title>
<ellipse style="fill:none;stroke:black;" cx="266" cy="-118" rx="50.0315" ry="50.0315"/>
<text text-anchor="middle" x="266" y="-113.9" style="font-family:Times New Roman;font-size:14.00;">CloseOp</text>
</g>
<!-- IdleOp&#45;&gt;CloseOp -->
<g id="edge6" class="edge"><title>IdleOp&#45;&gt;CloseOp</title>
<path style="fill:none;stroke:black;" d="M123,-82C131,-86 140,-91 148,-94 167,-101 187,-106 206,-110"/>
<polygon style="fill:black;stroke:black;" points="205.508,-113.471 216,-112 206.881,-106.607 205.508,-113.471"/>
<text text-anchor="middle" x="173" y="-109.9" style="font-family:Times New Roman;font-size:14.00;">d_close</text>
</g>
<!-- OpenOp -->
<g id="node9" class="node"><title>OpenOp</title>
<ellipse style="fill:none;stroke:black;" cx="1370" cy="-86" rx="50.0315" ry="50.0315"/>
<text text-anchor="middle" x="1370" y="-81.9" style="font-family:Times New Roman;font-size:14.00;">OpenOp</text>
</g>
<!-- IdleOp&#45;&gt;OpenOp -->
<g id="edge4" class="edge"><title>IdleOp&#45;&gt;OpenOp</title>
<path style="fill:none;stroke:black;" d="M130,-50C166,-46 220,-40 266,-40 266,-40 266,-40 1186,-40 1230,-40 1278,-53 1313,-65"/>
<polygon style="fill:black;stroke:black;" points="1312.42,-68.4788 1323,-68 1314.43,-61.7741 1312.42,-68.4788"/>
<text text-anchor="middle" x="738" y="-43.9" style="font-family:Times New Roman;font-size:14.00;">d_open</text>
</g>
<!-- IdleMd -->
<g id="node4" class="node"><title>IdleMd</title>
<ellipse style="fill:none;stroke:black;" cx="738" cy="-527" rx="41.932" ry="41.932"/>
<ellipse style="fill:none;stroke:black;" cx="738" cy="-527" rx="45.889" ry="45.889"/>
<text text-anchor="middle" x="738" y="-522.9" style="font-family:Times New Roman;font-size:14.00;">IdleMd</text>
</g>
<!-- IdleMd&#45;&gt;IdleMd -->
<g id="edge14" class="edge"><title>IdleMd&#45;&gt;IdleMd</title>
<path style="fill:none;stroke:black;" d="M719,-569C719,-581 726,-591 738,-591 746,-591 752,-586 755,-579"/>
<polygon style="fill:black;stroke:black;" points="758.471,-579.492 757,-569 751.607,-578.119 758.471,-579.492"/>
<text text-anchor="middle" x="738" y="-594.9" style="font-family:Times New Roman;font-size:14.00;">d_stp</text>
</g>
<!-- CloseMd -->
<g id="node7" class="node"><title>CloseMd</title>
<ellipse style="fill:none;stroke:black;" cx="446" cy="-288" rx="50.2242" ry="50.2242"/>
<text text-anchor="middle" x="446" y="-283.9" style="font-family:Times New Roman;font-size:14.00;">CloseMd</text>
</g>
<!-- IdleMd&#45;&gt;CloseMd -->
<g id="edge12" class="edge"><title>IdleMd&#45;&gt;CloseMd</title>
<path style="fill:none;stroke:black;" d="M696,-508C663,-493 617,-469 582,-441 544,-411 507,-368 482,-336"/>
<polygon style="fill:black;stroke:black;" points="484.8,-333.9 476,-328 479.2,-338.1 484.8,-333.9"/>
<text text-anchor="middle" x="539" y="-424.9" style="font-family:Times New Roman;font-size:14.00;">d_close</text>
</g>
<!-- OpenMd -->
<g id="node10" class="node"><title>OpenMd</title>
<ellipse style="fill:none;stroke:black;" cx="1186" cy="-298" rx="50.2242" ry="50.2242"/>
<text text-anchor="middle" x="1186" y="-293.9" style="font-family:Times New Roman;font-size:14.00;">OpenMd</text>
</g>
<!-- IdleMd&#45;&gt;OpenMd -->
<g id="edge10" class="edge"><title>IdleMd&#45;&gt;OpenMd</title>
<path style="fill:none;stroke:black;" d="M780,-545C857,-575 1019,-622 1118,-545 1147,-521 1168,-423 1178,-358"/>
<polygon style="fill:black;stroke:black;" points="1181.49,-358.299 1179,-348 1174.52,-357.602 1181.49,-358.299"/>
<text text-anchor="middle" x="927" y="-587.9" style="font-family:Times New Roman;font-size:14.00;">d_open</text>
</g>
<!-- IdleCl -->
<g id="node5" class="node"><title>IdleCl</title>
<ellipse style="fill:none;stroke:black;" cx="843" cy="-427" rx="37.0716" ry="37.0716"/>
<ellipse style="fill:none;stroke:black;" cx="843" cy="-427" rx="41.0234" ry="41.0234"/>
<text text-anchor="middle" x="843" y="-422.9" style="font-family:Times New Roman;font-size:14.00;">IdleCl</text>
</g>
<!-- IdleCl&#45;&gt;IdleCl -->
<g id="edge20" class="edge"><title>IdleCl&#45;&gt;IdleCl</title>
<path style="fill:none;stroke:black;" d="M827,-465C828,-477 833,-486 843,-486 850,-486 854,-482 857,-475"/>
<polygon style="fill:black;stroke:black;" points="860.471,-475.492 859,-465 853.607,-474.119 860.471,-475.492"/>
<text text-anchor="middle" x="843" y="-489.9" style="font-family:Times New Roman;font-size:14.00;">d_stp</text>
</g>
<!-- CloseCl -->
<g id="node8" class="node"><title>CloseCl</title>
<ellipse style="fill:none;stroke:black;" cx="628" cy="-351" rx="45.8622" ry="45.8622"/>
<text text-anchor="middle" x="628" y="-346.9" style="font-family:Times New Roman;font-size:14.00;">CloseCl</text>
</g>
<!-- IdleCl&#45;&gt;CloseCl -->
<g id="edge18" class="edge"><title>IdleCl&#45;&gt;CloseCl</title>
<path style="fill:none;stroke:black;" d="M811,-401C802,-396 793,-391 784,-387 767,-379 720,-369 683,-361"/>
<polygon style="fill:black;stroke:black;" points="683.492,-357.529 673,-359 682.119,-364.393 683.492,-357.529"/>
<text text-anchor="middle" x="738" y="-390.9" style="font-family:Times New Roman;font-size:14.00;">d_close</text>
</g>
<!-- OpenCl -->
<g id="node11" class="node"><title>OpenCl</title>
<ellipse style="fill:none;stroke:black;" cx="1016" cy="-351" rx="45.8622" ry="45.8622"/>
<text text-anchor="middle" x="1016" y="-346.9" style="font-family:Times New Roman;font-size:14.00;">OpenCl</text>
</g>
<!-- IdleCl&#45;&gt;OpenCl -->
<g id="edge16" class="edge"><title>IdleCl&#45;&gt;OpenCl</title>
<path style="fill:none;stroke:black;" d="M884,-423C905,-420 931,-414 952,-404 960,-400 968,-395 975,-390"/>
<polygon style="fill:black;stroke:black;" points="977.779,-392.219 983,-383 973.169,-386.951 977.779,-392.219"/>
<text text-anchor="middle" x="927" y="-422.9" style="font-family:Times New Roman;font-size:14.00;">d_open</text>
</g>
<!-- CloseOp&#45;&gt;IdleOp -->
<g id="edge26" class="edge"><title>CloseOp&#45;&gt;IdleOp</title>
<path style="fill:none;stroke:black;" d="M227,-86C218,-80 208,-74 198,-70 180,-62 159,-59 140,-58"/>
<polygon style="fill:black;stroke:black;" points="140.299,-54.5125 130,-57 139.602,-61.4778 140.299,-54.5125"/>
<text text-anchor="middle" x="173" y="-73.9" style="font-family:Times New Roman;font-size:14.00;">d_stp</text>
</g>
<!-- CloseOp&#45;&gt;CloseOp -->
<g id="edge24" class="edge"><title>CloseOp&#45;&gt;CloseOp</title>
<path style="fill:none;stroke:black;" d="M250,-165C251,-177 256,-186 266,-186 273,-186 277,-182 280,-175"/>
<polygon style="fill:black;stroke:black;" points="283.471,-175.492 282,-165 276.607,-174.119 283.471,-175.492"/>
<text text-anchor="middle" x="266" y="-189.9" style="font-family:Times New Roman;font-size:14.00;">d_close</text>
</g>
<!-- CloseOp&#45;&gt;CloseMd -->
<g id="edge28" class="edge"><title>CloseOp&#45;&gt;CloseMd</title>
<path style="fill:none;stroke:black;" d="M302,-152C331,-180 371,-218 403,-247"/>
<polygon style="fill:black;stroke:black;" points="400.454,-249.404 410,-254 405.404,-244.454 400.454,-249.404"/>
<text text-anchor="middle" x="356" y="-221.9" style="font-family:Times New Roman;font-size:14.00;">d_lvop</text>
</g>
<!-- CloseOp&#45;&gt;OpenOp -->
<g id="edge22" class="edge"><title>CloseOp&#45;&gt;OpenOp</title>
<path style="fill:none;stroke:black;" d="M315,-127C351,-133 402,-139 446,-139 446,-139 446,-139 1186,-139 1231,-139 1279,-125 1314,-111"/>
<polygon style="fill:black;stroke:black;" points="1316.02,-113.964 1324,-107 1313.42,-107.464 1316.02,-113.964"/>
<text text-anchor="middle" x="843" y="-142.9" style="font-family:Times New Roman;font-size:14.00;">d_open</text>
</g>
<!-- CloseMd&#45;&gt;IdleMd -->
<g id="edge34" class="edge"><title>CloseMd&#45;&gt;IdleMd</title>
<path style="fill:none;stroke:black;" d="M459,-336C469,-369 487,-412 514,-442 558,-490 631,-511 682,-520"/>
<polygon style="fill:black;stroke:black;" points="681.508,-523.471 692,-522 682.881,-516.607 681.508,-523.471"/>
<text text-anchor="middle" x="539" y="-481.9" style="font-family:Times New Roman;font-size:14.00;">d_stp</text>
</g>
<!-- CloseMd&#45;&gt;CloseMd -->
<g id="edge32" class="edge"><title>CloseMd&#45;&gt;CloseMd</title>
<path style="fill:none;stroke:black;" d="M430,-335C431,-347 436,-356 446,-356 453,-356 457,-352 460,-345"/>
<polygon style="fill:black;stroke:black;" points="463.471,-345.492 462,-335 456.607,-344.119 463.471,-345.492"/>
<text text-anchor="middle" x="446" y="-359.9" style="font-family:Times New Roman;font-size:14.00;">d_close</text>
</g>
<!-- CloseMd&#45;&gt;CloseCl -->
<g id="edge36" class="edge"><title>CloseMd&#45;&gt;CloseCl</title>
<path style="fill:none;stroke:black;" d="M493,-304C518,-313 549,-323 576,-333"/>
<polygon style="fill:black;stroke:black;" points="574.406,-336.158 585,-336 576.62,-329.517 574.406,-336.158"/>
<text text-anchor="middle" x="539" y="-328.9" style="font-family:Times New Roman;font-size:14.00;">d_arcl</text>
</g>
<!-- CloseMd&#45;&gt;OpenMd -->
<g id="edge30" class="edge"><title>CloseMd&#45;&gt;OpenMd</title>
<path style="fill:none;stroke:black;" d="M493,-271C530,-259 581,-245 628,-245 628,-245 628,-245 1016,-245 1056,-245 1099,-258 1132,-272"/>
<polygon style="fill:black;stroke:black;" points="1130.44,-275.137 1141,-276 1133.28,-268.74 1130.44,-275.137"/>
<text text-anchor="middle" x="843" y="-248.9" style="font-family:Times New Roman;font-size:14.00;">d_open</text>
</g>
<!-- CloseCl&#45;&gt;IdleCl -->
<g id="edge42" class="edge"><title>CloseCl&#45;&gt;IdleCl</title>
<path style="fill:none;stroke:black;" d="M661,-383C670,-391 681,-399 692,-404 723,-417 762,-424 792,-426"/>
<polygon style="fill:black;stroke:black;" points="792,-429.5 802,-426 792,-422.5 792,-429.5"/>
<text text-anchor="middle" x="738" y="-427.9" style="font-family:Times New Roman;font-size:14.00;">d_stp</text>
</g>
<!-- CloseCl&#45;&gt;CloseCl -->
<g id="edge40" class="edge"><title>CloseCl&#45;&gt;CloseCl</title>
<path style="fill:none;stroke:black;" d="M612,-394C612,-406 618,-415 628,-415 635,-415 640,-411 642,-404"/>
<polygon style="fill:black;stroke:black;" points="645.471,-404.492 644,-394 638.607,-403.119 645.471,-404.492"/>
<text text-anchor="middle" x="628" y="-418.9" style="font-family:Times New Roman;font-size:14.00;">d_close</text>
</g>
<!-- CloseCl&#45;&gt;OpenCl -->
<g id="edge38" class="edge"><title>CloseCl&#45;&gt;OpenCl</title>
<path style="fill:none;stroke:black;" d="M674,-351C746,-351 883,-351 960,-351"/>
<polygon style="fill:black;stroke:black;" points="960,-354.5 970,-351 960,-347.5 960,-354.5"/>
<text text-anchor="middle" x="843" y="-354.9" style="font-family:Times New Roman;font-size:14.00;">d_open</text>
</g>
<!-- OpenOp&#45;&gt;IdleOp -->
<g id="edge48" class="edge"><title>OpenOp&#45;&gt;IdleOp</title>
<path style="fill:none;stroke:black;" d="M1330,-55C1295,-31 1240,-1 1186,-0 266,-0 266,-0 266,-0 220,-1 170,-18 134,-33"/>
<polygon style="fill:black;stroke:black;" points="132.717,-29.7402 125,-37 135.56,-36.1369 132.717,-29.7402"/>
<text text-anchor="middle" x="738" y="-4.9" style="font-family:Times New Roman;font-size:14.00;">d_stp</text>
</g>
<!-- OpenOp&#45;&gt;CloseOp -->
<g id="edge46" class="edge"><title>OpenOp&#45;&gt;CloseOp</title>
<path style="fill:none;stroke:black;" d="M1320,-86C1283,-86 1231,-86 1186,-86 446,-86 446,-86 446,-86 405,-86 360,-94 325,-103"/>
<polygon style="fill:black;stroke:black;" points="324.119,-99.6067 315,-105 325.492,-106.471 324.119,-99.6067"/>
<text text-anchor="middle" x="843" y="-89.9" style="font-family:Times New Roman;font-size:14.00;">d_close</text>
</g>
<!-- OpenOp&#45;&gt;OpenOp -->
<g id="edge44" class="edge"><title>OpenOp&#45;&gt;OpenOp</title>
<path style="fill:none;stroke:black;" d="M1353,-133C1354,-145 1360,-154 1370,-154 1377,-154 1382,-150 1385,-143"/>
<polygon style="fill:black;stroke:black;" points="1388.47,-143.492 1387,-133 1381.61,-142.119 1388.47,-143.492"/>
<text text-anchor="middle" x="1370" y="-157.9" style="font-family:Times New Roman;font-size:14.00;">d_open</text>
</g>
<!-- OpenMd&#45;&gt;IdleMd -->
<g id="edge54" class="edge"><title>OpenMd&#45;&gt;IdleMd</title>
<path style="fill:none;stroke:black;" d="M1158,-340C1136,-371 1101,-413 1062,-441 993,-490 967,-491 884,-512 855,-519 822,-523 794,-525"/>
<polygon style="fill:black;stroke:black;" points="794,-521.5 784,-525 794,-528.5 794,-521.5"/>
<text text-anchor="middle" x="927" y="-509.9" style="font-family:Times New Roman;font-size:14.00;">d_stp</text>
</g>
<!-- OpenMd&#45;&gt;CloseMd -->
<g id="edge52" class="edge"><title>OpenMd&#45;&gt;CloseMd</title>
<path style="fill:none;stroke:black;" d="M1152,-261C1121,-230 1070,-192 1016,-192 628,-192 628,-192 628,-192 577,-192 527,-222 492,-248"/>
<polygon style="fill:black;stroke:black;" points="489.9,-245.2 484,-254 494.1,-250.8 489.9,-245.2"/>
<text text-anchor="middle" x="843" y="-195.9" style="font-family:Times New Roman;font-size:14.00;">d_close</text>
</g>
<!-- OpenMd&#45;&gt;OpenOp -->
<g id="edge56" class="edge"><title>OpenMd&#45;&gt;OpenOp</title>
<path style="fill:none;stroke:black;" d="M1219,-260C1250,-225 1297,-170 1330,-132"/>
<polygon style="fill:black;stroke:black;" points="1333.05,-133.831 1337,-124 1327.78,-129.221 1333.05,-133.831"/>
<text text-anchor="middle" x="1278" y="-219.9" style="font-family:Times New Roman;font-size:14.00;">d_arop</text>
</g>
<!-- OpenMd&#45;&gt;OpenMd -->
<g id="edge50" class="edge"><title>OpenMd&#45;&gt;OpenMd</title>
<path style="fill:none;stroke:black;" d="M1171,-346C1172,-357 1177,-366 1186,-366 1192,-366 1196,-362 1199,-356"/>
<polygon style="fill:black;stroke:black;" points="1202.47,-356.492 1201,-346 1195.61,-355.119 1202.47,-356.492"/>
<text text-anchor="middle" x="1186" y="-369.9" style="font-family:Times New Roman;font-size:14.00;">d_open</text>
</g>
<!-- OpenCl&#45;&gt;IdleCl -->
<g id="edge62" class="edge"><title>OpenCl&#45;&gt;IdleCl</title>
<path style="fill:none;stroke:black;" d="M971,-359C949,-365 924,-372 902,-383 895,-386 889,-390 882,-394"/>
<polygon style="fill:black;stroke:black;" points="879.9,-391.2 874,-400 884.1,-396.8 879.9,-391.2"/>
<text text-anchor="middle" x="927" y="-386.9" style="font-family:Times New Roman;font-size:14.00;">d_stp</text>
</g>
<!-- OpenCl&#45;&gt;CloseCl -->
<g id="edge60" class="edge"><title>OpenCl&#45;&gt;CloseCl</title>
<path style="fill:none;stroke:black;" d="M971,-342C945,-337 913,-332 884,-330 816,-324 736,-334 684,-341"/>
<polygon style="fill:black;stroke:black;" points="683.119,-337.607 674,-343 684.492,-344.471 683.119,-337.607"/>
<text text-anchor="middle" x="843" y="-333.9" style="font-family:Times New Roman;font-size:14.00;">d_close</text>
</g>
<!-- OpenCl&#45;&gt;OpenMd -->
<g id="edge64" class="edge"><title>OpenCl&#45;&gt;OpenMd</title>
<path style="fill:none;stroke:black;" d="M1060,-337C1081,-331 1106,-323 1128,-316"/>
<polygon style="fill:black;stroke:black;" points="1129.43,-319.226 1138,-313 1127.42,-312.521 1129.43,-319.226"/>
<text text-anchor="middle" x="1099" y="-333.9" style="font-family:Times New Roman;font-size:14.00;">d_lvcl</text>
</g>
<!-- OpenCl&#45;&gt;OpenCl -->
<g id="edge58" class="edge"><title>OpenCl&#45;&gt;OpenCl</title>
<path style="fill:none;stroke:black;" d="M1001,-395C1002,-406 1007,-415 1016,-415 1022,-415 1026,-411 1029,-405"/>
<polygon style="fill:black;stroke:black;" points="1032.47,-405.492 1031,-395 1025.61,-404.119 1032.47,-405.492"/>
<text text-anchor="middle" x="1016" y="-418.9" style="font-family:Times New Roman;font-size:14.00;">d_open</text>
</g>
</g>
</svg>
