<?xml version="1.0" encoding="UTF-8" standalone="no"?>
<!DOCTYPE svg PUBLIC "-//W3C//DTD SVG 1.1//EN"
 "http://www.w3.org/Graphics/SVG/1.1/DTD/svg11.dtd">
<!-- Generated by graphviz version 12.2.1 (20241206.2353)
 -->
<!-- Title: operator leds Pages: 1 -->
<svg width="107pt" height="179pt"
 viewBox="0.00 0.00 107.47 179.00" xmlns="http://www.w3.org/2000/svg" xmlns:xlink="http://www.w3.org/1999/xlink">
<g id="graph0" class="graph" transform="scale(1 1) rotate(0) translate(4 175)">
<title>operator leds</title>
<!-- dot_dummyinit_1 -->
<g id="node1" class="node">
<title>dot_dummyinit_1</title>
</g>
<!-- Idle -->
<g id="node2" class="node">
<title>Idle</title>
<path fill="none" stroke="black" d="M87.47,-36C87.47,-36 49.72,-36 49.72,-36 43.72,-36 37.72,-30 37.72,-24 37.72,-24 37.72,-12 37.72,-12 37.72,-6 43.72,0 49.72,0 49.72,0 87.47,0 87.47,0 93.47,0 99.47,-6 99.47,-12 99.47,-12 99.47,-24 99.47,-24 99.47,-30 93.47,-36 87.47,-36"/>
<text text-anchor="start" x="49.72" y="-12.57" font-family="Arial" font-size="14.00">Idle</text>
<polygon fill="black" stroke="none" points="81.47,-8.12 81.47,-27.88 89.47,-27.88 89.47,-8.12 81.47,-8.12"/>
</g>
<!-- dot_dummyinit_1&#45;&gt;Idle -->
<g id="edge1" class="edge">
<title>dot_dummyinit_1&#45;&gt;Idle</title>
<path fill="none" stroke="black" d="M0.77,-18C1.6,-18 12.92,-18 26.02,-18"/>
<polygon fill="black" stroke="black" points="25.74,-21.5 35.74,-18 25.74,-14.5 25.74,-21.5"/>
</g>
<!-- Idle&#45;&gt;Idle -->
<g id="edge2" class="edge">
<title>Idle&#45;&gt;Idle</title>
<path fill="none" stroke="black" d="M66.36,-36.15C66.02,-45.54 66.76,-54 68.59,-54 69.6,-54 70.27,-51.47 70.62,-47.64"/>
<polygon fill="black" stroke="black" points="74.12,-47.73 70.8,-37.67 67.13,-47.6 74.12,-47.73"/>
<text text-anchor="middle" x="68.59" y="-56.45" font-family="Arial" font-size="14.00">o_uplon</text>
</g>
<!-- Idle&#45;&gt;Idle -->
<g id="edge3" class="edge">
<title>Idle&#45;&gt;Idle</title>
<path fill="none" stroke="black" d="M64.85,-36.26C62.91,-53.4 64.16,-72 68.59,-72 72.06,-72 73.58,-60.65 73.15,-47.51"/>
<polygon fill="black" stroke="black" points="76.66,-47.49 72.45,-37.77 69.68,-47.99 76.66,-47.49"/>
<text text-anchor="middle" x="68.59" y="-74.45" font-family="Arial" font-size="14.00">o_uploff</text>
</g>
<!-- Idle&#45;&gt;Idle -->
<g id="edge4" class="edge">
<title>Idle&#45;&gt;Idle</title>
<path fill="none" stroke="black" d="M63.85,-36.44C59.78,-60.7 61.36,-90 68.59,-90 74.73,-90 76.8,-68.95 74.81,-47.76"/>
<polygon fill="black" stroke="black" points="78.29,-47.41 73.54,-37.94 71.35,-48.31 78.29,-47.41"/>
<text text-anchor="middle" x="68.59" y="-92.45" font-family="Arial" font-size="14.00">o_lwlon</text>
</g>
<!-- Idle&#45;&gt;Idle -->
<g id="edge5" class="edge">
<title>Idle&#45;&gt;Idle</title>
<path fill="none" stroke="black" d="M63.23,-36.11C56.63,-67.24 58.42,-108 68.59,-108 77.58,-108 80.02,-76.23 75.93,-47.37"/>
<polygon fill="black" stroke="black" points="79.4,-46.85 74.22,-37.6 72.5,-48.06 79.4,-46.85"/>
<text text-anchor="middle" x="68.59" y="-110.45" font-family="Arial" font-size="14.00">o_lwloff</text>
</g>
</g>
</svg>
