<?xml version="1.0" encoding="UTF-8" standalone="no"?>
<!DOCTYPE svg PUBLIC "-//W3C//DTD SVG 1.0//EN"
 "http://www.w3.org/TR/2001/REC-SVG-20010904/DTD/svg10.dtd" [
 <!ATTLIST svg xmlns:xlink CDATA #FIXED "http://www.w3.org/1999/xlink">
]>
<!-- Generated by Graphviz version 2.20.2 (Tue Mar &#160;2 21:46:26 UTC 2010)
     For user: (mtmoor) Prof. Thomas Moor -->
<!-- Title: E_opcmd Pages: 1 -->
<svg width="269pt" height="217pt"
 viewBox="0.00 0.00 269.00 217.00" xmlns="http://www.w3.org/2000/svg" xmlns:xlink="http://www.w3.org/1999/xlink">
<g id="graph0" class="graph" transform="scale(1 1) rotate(0) translate(4 213)">
<title>E_opcmd</title>
<polygon style="fill:none;stroke:none;" points="-4,4 -4,-213 265,-213 265,4 -4,4"/>
<!-- dot_dummyinit_1 -->
<g id="node1" class="node"><title>dot_dummyinit_1</title>
</g>
<!-- Idle -->
<g id="node3" class="node"><title>Idle</title>
<ellipse style="fill:none;stroke:black;" cx="72" cy="-35" rx="28.0519" ry="28.0519"/>
<ellipse style="fill:none;stroke:black;" cx="72" cy="-35" rx="31.9903" ry="31.9903"/>
<text text-anchor="middle" x="72" y="-30.9" style="font-family:Times New Roman;font-size:14.00;">Idle</text>
</g>
<!-- dot_dummyinit_1&#45;&gt;Idle -->
<g id="edge2" class="edge"><title>dot_dummyinit_1&#45;&gt;Idle</title>
<path style="fill:none;stroke:black;" d="M2,-35C5,-35 17,-35 30,-35"/>
<polygon style="fill:black;stroke:black;" points="30,-38.5001 40,-35 30,-31.5001 30,-38.5001"/>
</g>
<!-- Busy -->
<g id="node4" class="node"><title>Busy</title>
<ellipse style="fill:none;stroke:black;" cx="216" cy="-35" rx="34.2406" ry="34.2406"/>
<text text-anchor="middle" x="216" y="-30.9" style="font-family:Times New Roman;font-size:14.00;">Busy</text>
</g>
<!-- Idle&#45;&gt;Busy -->
<g id="edge4" class="edge"><title>Idle&#45;&gt;Busy</title>
<path style="fill:none;stroke:black;" d="M102,-47C108,-49 115,-52 122,-53 141,-56 146,-56 164,-53 167,-53 171,-52 174,-51"/>
<polygon style="fill:black;stroke:black;" points="175.427,-54.2259 184,-48 173.416,-47.5212 175.427,-54.2259"/>
<text text-anchor="middle" x="143" y="-57.9" style="font-family:Times New Roman;font-size:14.00;">o_upb</text>
</g>
<!-- Idle&#45;&gt;Busy -->
<g id="edge6" class="edge"><title>Idle&#45;&gt;Busy</title>
<path style="fill:none;stroke:black;" d="M104,-30C110,-30 116,-29 122,-29 141,-27 146,-27 164,-29 167,-29 169,-29 172,-29"/>
<polygon style="fill:black;stroke:black;" points="171.701,-32.4875 182,-30 172.398,-25.5222 171.701,-32.4875"/>
<text text-anchor="middle" x="143" y="-32.9" style="font-family:Times New Roman;font-size:14.00;">o_lwb</text>
</g>
<!-- Busy&#45;&gt;Idle -->
<g id="edge12" class="edge"><title>Busy&#45;&gt;Idle</title>
<path style="fill:none;stroke:black;" d="M188,-15C181,-11 172,-7 164,-5 146,-0 140,-0 122,-5 117,-6 112,-8 107,-11"/>
<polygon style="fill:black;stroke:black;" points="105.042,-8.08397 98,-16 108.441,-14.2031 105.042,-8.08397"/>
<text text-anchor="middle" x="143" y="-8.9" style="font-family:Times New Roman;font-size:14.00;">c_stp</text>
</g>
<!-- Busy&#45;&gt;Busy -->
<g id="edge8" class="edge"><title>Busy&#45;&gt;Busy</title>
<path style="fill:none;stroke:black;" d="M213,-69C213,-79 214,-87 216,-87 217,-87 218,-84 219,-79"/>
<polygon style="fill:black;stroke:black;" points="222.5,-79 219,-69 215.5,-79 222.5,-79"/>
<text text-anchor="middle" x="216" y="-90.9" style="font-family:Times New Roman;font-size:14.00;">o_upb</text>
</g>
<!-- Busy&#45;&gt;Busy -->
<g id="edge10" class="edge"><title>Busy&#45;&gt;Busy</title>
<path style="fill:none;stroke:black;" d="M190,-57C174,-80 183,-105 216,-105 245,-105 255,-86 247,-66"/>
<polygon style="fill:black;stroke:black;" points="249.916,-64.0418 242,-57 243.797,-67.4414 249.916,-64.0418"/>
<text text-anchor="middle" x="216" y="-108.9" style="font-family:Times New Roman;font-size:14.00;">o_lwb</text>
</g>
<!-- Busy&#45;&gt;Busy -->
<g id="edge14" class="edge"><title>Busy&#45;&gt;Busy</title>
<path style="fill:none;stroke:black;" d="M191,-58C169,-87 178,-123 216,-123 250,-123 261,-94 247,-67"/>
<polygon style="fill:black;stroke:black;" points="249.459,-64.3791 241,-58 243.635,-68.262 249.459,-64.3791"/>
<text text-anchor="middle" x="216" y="-126.9" style="font-family:Times New Roman;font-size:14.00;">c_up</text>
</g>
<!-- Busy&#45;&gt;Busy -->
<g id="edge16" class="edge"><title>Busy&#45;&gt;Busy</title>
<path style="fill:none;stroke:black;" d="M191,-59C165,-95 173,-141 216,-141 256,-141 266,-102 246,-68"/>
<polygon style="fill:black;stroke:black;" points="248.916,-66.0418 241,-59 242.797,-69.4414 248.916,-66.0418"/>
<text text-anchor="middle" x="216" y="-144.9" style="font-family:Times New Roman;font-size:14.00;">c_down</text>
</g>
</g>
</svg>
