<?xml version="1.0" encoding="UTF-8" standalone="no"?>
<!DOCTYPE svg PUBLIC "-//W3C//DTD SVG 1.1//EN"
 "http://www.w3.org/Graphics/SVG/1.1/DTD/svg11.dtd">
<!-- Generated by graphviz version 12.2.1 (20241206.2353)
 -->
<!-- Title: E_shed Pages: 1 -->
<svg width="720pt" height="181pt"
 viewBox="0.00 0.00 720.00 180.68" xmlns="http://www.w3.org/2000/svg" xmlns:xlink="http://www.w3.org/1999/xlink">
<g id="graph0" class="graph" transform="scale(0.892226 0.892226) rotate(0) translate(4 198.5)">
<title>E_shed</title>
<!-- dot_dummyinit_1 -->
<g id="node1" class="node">
<title>dot_dummyinit_1</title>
</g>
<!-- Idle -->
<g id="node2" class="node">
<title>Idle</title>
<path fill="none" stroke="black" d="M87.47,-58C87.47,-58 49.72,-58 49.72,-58 43.72,-58 37.72,-52 37.72,-46 37.72,-46 37.72,-34 37.72,-34 37.72,-28 43.72,-22 49.72,-22 49.72,-22 87.47,-22 87.47,-22 93.47,-22 99.47,-28 99.47,-34 99.47,-34 99.47,-46 99.47,-46 99.47,-52 93.47,-58 87.47,-58"/>
<text text-anchor="start" x="49.72" y="-34.58" font-family="Arial" font-size="14.00">Idle</text>
<polygon fill="black" stroke="none" points="81.47,-30.12 81.47,-49.88 89.47,-49.88 89.47,-30.12 81.47,-30.12"/>
</g>
<!-- dot_dummyinit_1&#45;&gt;Idle -->
<g id="edge1" class="edge">
<title>dot_dummyinit_1&#45;&gt;Idle</title>
<path fill="none" stroke="black" d="M0.77,-40C1.6,-40 12.92,-40 26.02,-40"/>
<polygon fill="black" stroke="black" points="25.74,-43.5 35.74,-40 25.74,-36.5 25.74,-43.5"/>
</g>
<!-- CloseA -->
<g id="node3" class="node">
<title>CloseA</title>
<path fill="none" stroke="black" d="M224.22,-104C224.22,-104 188.72,-104 188.72,-104 182.72,-104 176.72,-98 176.72,-92 176.72,-92 176.72,-80 176.72,-80 176.72,-74 182.72,-68 188.72,-68 188.72,-68 224.22,-68 224.22,-68 230.22,-68 236.22,-74 236.22,-80 236.22,-80 236.22,-92 236.22,-92 236.22,-98 230.22,-104 224.22,-104"/>
<text text-anchor="middle" x="206.47" y="-80.58" font-family="Arial" font-size="14.00">CloseA</text>
</g>
<!-- Idle&#45;&gt;CloseA -->
<g id="edge2" class="edge">
<title>Idle&#45;&gt;CloseA</title>
<path fill="none" stroke="black" d="M99.75,-50.21C119.1,-56.76 144.45,-65.34 165.47,-72.46"/>
<polygon fill="black" stroke="black" points="164.3,-75.76 174.9,-75.65 166.55,-69.13 164.3,-75.76"/>
<text text-anchor="middle" x="138.1" y="-72.26" font-family="Arial" font-size="14.00">a_start</text>
</g>
<!-- CloseB -->
<g id="node4" class="node">
<title>CloseB</title>
<path fill="none" stroke="black" d="M366.22,-104C366.22,-104 330.72,-104 330.72,-104 324.72,-104 318.72,-98 318.72,-92 318.72,-92 318.72,-80 318.72,-80 318.72,-74 324.72,-68 330.72,-68 330.72,-68 366.22,-68 366.22,-68 372.22,-68 378.22,-74 378.22,-80 378.22,-80 378.22,-92 378.22,-92 378.22,-98 372.22,-104 366.22,-104"/>
<text text-anchor="middle" x="348.47" y="-80.58" font-family="Arial" font-size="14.00">CloseB</text>
</g>
<!-- CloseA&#45;&gt;CloseB -->
<g id="edge3" class="edge">
<title>CloseA&#45;&gt;CloseB</title>
<path fill="none" stroke="black" d="M236.48,-86C256.94,-86 284.61,-86 307.21,-86"/>
<polygon fill="black" stroke="black" points="306.99,-89.5 316.99,-86 306.99,-82.5 306.99,-89.5"/>
<text text-anchor="middle" x="277.47" y="-88.45" font-family="Arial" font-size="14.00">d_close</text>
</g>
<!-- CloseB&#45;&gt;CloseB -->
<g id="edge6" class="edge">
<title>CloseB&#45;&gt;CloseB</title>
<path fill="none" stroke="black" d="M342.05,-104.15C341.06,-113.54 343.2,-122 348.47,-122 351.35,-122 353.3,-119.47 354.31,-115.64"/>
<polygon fill="black" stroke="black" points="357.8,-115.83 354.82,-105.66 350.81,-115.47 357.8,-115.83"/>
<text text-anchor="middle" x="348.47" y="-124.45" font-family="Arial" font-size="14.00">d_open</text>
</g>
<!-- CloseB&#45;&gt;CloseB -->
<g id="edge7" class="edge">
<title>CloseB&#45;&gt;CloseB</title>
<path fill="none" stroke="black" d="M337.71,-104.26C332.12,-121.4 335.71,-140 348.47,-140 358.44,-140 362.81,-128.65 361.58,-115.51"/>
<polygon fill="black" stroke="black" points="365.01,-114.81 359.54,-105.74 358.16,-116.24 365.01,-114.81"/>
<text text-anchor="middle" x="348.47" y="-142.45" font-family="Arial" font-size="14.00">d_close</text>
</g>
<!-- Fail -->
<g id="node5" class="node">
<title>Fail</title>
<path fill="none" stroke="black" d="M505.1,-71C505.1,-71 475.1,-71 475.1,-71 469.1,-71 463.1,-65 463.1,-59 463.1,-59 463.1,-47 463.1,-47 463.1,-41 469.1,-35 475.1,-35 475.1,-35 505.1,-35 505.1,-35 511.1,-35 517.1,-41 517.1,-47 517.1,-47 517.1,-59 517.1,-59 517.1,-65 511.1,-71 505.1,-71"/>
<text text-anchor="middle" x="490.1" y="-47.58" font-family="Arial" font-size="14.00">Fail</text>
</g>
<!-- CloseB&#45;&gt;Fail -->
<g id="edge5" class="edge">
<title>CloseB&#45;&gt;Fail</title>
<path fill="none" stroke="black" d="M378.62,-78.57C384.45,-77.12 390.52,-75.62 396.22,-74.25 414.38,-69.89 434.6,-65.24 451.52,-61.41"/>
<polygon fill="black" stroke="black" points="452.18,-64.85 461.16,-59.23 450.64,-58.02 452.18,-64.85"/>
<text text-anchor="middle" x="419.47" y="-76.7" font-family="Arial" font-size="14.00">a_open</text>
</g>
<!-- MoveA -->
<g id="node6" class="node">
<title>MoveA</title>
<path fill="none" stroke="black" d="M507.47,-127C507.47,-127 472.72,-127 472.72,-127 466.72,-127 460.72,-121 460.72,-115 460.72,-115 460.72,-103 460.72,-103 460.72,-97 466.72,-91 472.72,-91 472.72,-91 507.47,-91 507.47,-91 513.47,-91 519.47,-97 519.47,-103 519.47,-103 519.47,-115 519.47,-115 519.47,-121 513.47,-127 507.47,-127"/>
<text text-anchor="middle" x="490.1" y="-103.58" font-family="Arial" font-size="14.00">MoveA</text>
</g>
<!-- CloseB&#45;&gt;MoveA -->
<g id="edge4" class="edge">
<title>CloseB&#45;&gt;MoveA</title>
<path fill="none" stroke="black" d="M378.4,-90.77C398.94,-94.15 426.78,-98.73 449.39,-102.46"/>
<polygon fill="black" stroke="black" points="448.75,-105.9 459.19,-104.07 449.89,-98.99 448.75,-105.9"/>
<text text-anchor="middle" x="419.47" y="-103.35" font-family="Arial" font-size="14.00">a_close</text>
</g>
<!-- Fail&#45;&gt;Idle -->
<g id="edge8" class="edge">
<title>Fail&#45;&gt;Idle</title>
<path fill="none" stroke="black" d="M462.75,-52.18C391.93,-49.99 197,-43.95 111.13,-41.29"/>
<polygon fill="black" stroke="black" points="111.38,-37.79 101.28,-40.98 111.16,-44.79 111.38,-37.79"/>
<text text-anchor="middle" x="277.47" y="-49.55" font-family="Arial" font-size="14.00">a_fail</text>
</g>
<!-- MoveA&#45;&gt;MoveA -->
<g id="edge10" class="edge">
<title>MoveA&#45;&gt;MoveA</title>
<path fill="none" stroke="black" d="M483.77,-127.15C482.8,-136.54 484.91,-145 490.1,-145 492.93,-145 494.85,-142.47 495.84,-138.64"/>
<polygon fill="black" stroke="black" points="499.34,-138.83 496.34,-128.66 492.34,-138.48 499.34,-138.83"/>
<text text-anchor="middle" x="490.1" y="-147.45" font-family="Arial" font-size="14.00">c_up</text>
</g>
<!-- MoveA&#45;&gt;MoveA -->
<g id="edge11" class="edge">
<title>MoveA&#45;&gt;MoveA</title>
<path fill="none" stroke="black" d="M479.5,-127.26C474.01,-144.4 477.54,-163 490.1,-163 499.9,-163 504.21,-151.65 503,-138.51"/>
<polygon fill="black" stroke="black" points="506.43,-137.83 500.99,-128.74 499.58,-139.24 506.43,-137.83"/>
<text text-anchor="middle" x="490.1" y="-165.45" font-family="Arial" font-size="14.00">c_down</text>
</g>
<!-- OpenA -->
<g id="node7" class="node">
<title>OpenA</title>
<path fill="none" stroke="black" d="M647.22,-93C647.22,-93 612.47,-93 612.47,-93 606.47,-93 600.47,-87 600.47,-81 600.47,-81 600.47,-69 600.47,-69 600.47,-63 606.47,-57 612.47,-57 612.47,-57 647.22,-57 647.22,-57 653.22,-57 659.22,-63 659.22,-69 659.22,-69 659.22,-81 659.22,-81 659.22,-87 653.22,-93 647.22,-93"/>
<text text-anchor="middle" x="629.85" y="-69.58" font-family="Arial" font-size="14.00">OpenA</text>
</g>
<!-- MoveA&#45;&gt;OpenA -->
<g id="edge9" class="edge">
<title>MoveA&#45;&gt;OpenA</title>
<path fill="none" stroke="black" d="M519.64,-101.96C539.77,-96.99 567,-90.26 589.23,-84.78"/>
<polygon fill="black" stroke="black" points="590,-88.19 598.87,-82.4 588.32,-81.4 590,-88.19"/>
<text text-anchor="middle" x="559.97" y="-99.48" font-family="Arial" font-size="14.00">d_open</text>
</g>
<!-- OpenB -->
<g id="node8" class="node">
<title>OpenB</title>
<path fill="none" stroke="black" d="M786.97,-36C786.97,-36 752.22,-36 752.22,-36 746.22,-36 740.22,-30 740.22,-24 740.22,-24 740.22,-12 740.22,-12 740.22,-6 746.22,0 752.22,0 752.22,0 786.97,0 786.97,0 792.97,0 798.97,-6 798.97,-12 798.97,-12 798.97,-24 798.97,-24 798.97,-30 792.97,-36 786.97,-36"/>
<text text-anchor="middle" x="769.6" y="-12.57" font-family="Arial" font-size="14.00">OpenB</text>
</g>
<!-- OpenA&#45;&gt;OpenB -->
<g id="edge12" class="edge">
<title>OpenA&#45;&gt;OpenB</title>
<path fill="none" stroke="black" d="M659.39,-63.19C679.7,-54.78 707.25,-43.38 729.59,-34.14"/>
<polygon fill="black" stroke="black" points="730.79,-37.43 738.69,-30.37 728.11,-30.96 730.79,-37.43"/>
<text text-anchor="middle" x="699.72" y="-57.39" font-family="Arial" font-size="14.00">a_open</text>
</g>
<!-- OpenB&#45;&gt;Idle -->
<g id="edge13" class="edge">
<title>OpenB&#45;&gt;Idle</title>
<path fill="none" stroke="black" d="M739.95,-12.72C712.17,-8.06 668.76,-2 630.85,-2 205.47,-2 205.47,-2 205.47,-2 172.64,-2 136.94,-12.42 110.38,-22.34"/>
<polygon fill="black" stroke="black" points="109.42,-18.96 101.36,-25.84 111.95,-25.49 109.42,-18.96"/>
<text text-anchor="middle" x="419.47" y="-4.45" font-family="Arial" font-size="14.00">a_done</text>
</g>
</g>
</svg>
