<?xml version="1.0" encoding="UTF-8" standalone="no"?>
<!DOCTYPE svg PUBLIC "-//W3C//DTD SVG 1.0//EN"
 "http://www.w3.org/TR/2001/REC-SVG-20010904/DTD/svg10.dtd" [
 <!ATTLIST svg xmlns:xlink CDATA #FIXED "http://www.w3.org/1999/xlink">
]>
<!-- Generated by Graphviz version 2.20.2 (Tue Mar &#160;2 21:46:26 UTC 2010)
     For user: (mtmoor) Prof. Thomas Moor -->
<!-- Title: E_shed Pages: 1 -->
<svg width="720pt" height="205pt"
 viewBox="0.00 0.00 720.00 205.30" xmlns="http://www.w3.org/2000/svg" xmlns:xlink="http://www.w3.org/1999/xlink">
<g id="graph0" class="graph" transform="scale(0.733198 0.733198) rotate(0) translate(4 276)">
<title>E_shed</title>
<polygon style="fill:none;stroke:none;" points="-4,4 -4,-276 978,-276 978,4 -4,4"/>
<!-- dot_dummyinit_1 -->
<g id="node1" class="node"><title>dot_dummyinit_1</title>
</g>
<!-- Idle -->
<g id="node3" class="node"><title>Idle</title>
<ellipse style="fill:none;stroke:black;" cx="72" cy="-60" rx="28.0519" ry="28.0519"/>
<ellipse style="fill:none;stroke:black;" cx="72" cy="-60" rx="31.9903" ry="31.9903"/>
<text text-anchor="middle" x="72" y="-55.9" style="font-family:Times New Roman;font-size:14.00;">Idle</text>
</g>
<!-- dot_dummyinit_1&#45;&gt;Idle -->
<g id="edge2" class="edge"><title>dot_dummyinit_1&#45;&gt;Idle</title>
<path style="fill:none;stroke:black;" d="M2,-60C5,-60 17,-60 30,-60"/>
<polygon style="fill:black;stroke:black;" points="30,-63.5001 40,-60 30,-56.5001 30,-63.5001"/>
</g>
<!-- CloseA -->
<g id="node4" class="node"><title>CloseA</title>
<ellipse style="fill:none;stroke:black;" cx="234" cy="-132" rx="43.7776" ry="43.7776"/>
<text text-anchor="middle" x="234" y="-127.9" style="font-family:Times New Roman;font-size:14.00;">CloseA</text>
</g>
<!-- Idle&#45;&gt;CloseA -->
<g id="edge4" class="edge"><title>Idle&#45;&gt;CloseA</title>
<path style="fill:none;stroke:black;" d="M101,-73C124,-84 157,-98 185,-110"/>
<polygon style="fill:black;stroke:black;" points="183.44,-113.137 194,-114 186.283,-106.74 183.44,-113.137"/>
<text text-anchor="middle" x="147" y="-104.9" style="font-family:Times New Roman;font-size:14.00;">a_start</text>
</g>
<!-- CloseB -->
<g id="node5" class="node"><title>CloseB</title>
<ellipse style="fill:none;stroke:black;" cx="408" cy="-132" rx="43.7776" ry="43.7776"/>
<text text-anchor="middle" x="408" y="-127.9" style="font-family:Times New Roman;font-size:14.00;">CloseB</text>
</g>
<!-- CloseA&#45;&gt;CloseB -->
<g id="edge6" class="edge"><title>CloseA&#45;&gt;CloseB</title>
<path style="fill:none;stroke:black;" d="M278,-132C301,-132 330,-132 354,-132"/>
<polygon style="fill:black;stroke:black;" points="354,-135.5 364,-132 354,-128.5 354,-135.5"/>
<text text-anchor="middle" x="321" y="-135.9" style="font-family:Times New Roman;font-size:14.00;">d_close</text>
</g>
<!-- CloseB&#45;&gt;CloseB -->
<g id="edge12" class="edge"><title>CloseB&#45;&gt;CloseB</title>
<path style="fill:none;stroke:black;" d="M401,-176C401,-186 404,-194 408,-194 410,-194 413,-191 414,-186"/>
<polygon style="fill:black;stroke:black;" points="417.488,-186.299 415,-176 410.522,-185.602 417.488,-186.299"/>
<text text-anchor="middle" x="408" y="-197.9" style="font-family:Times New Roman;font-size:14.00;">d_open</text>
</g>
<!-- CloseB&#45;&gt;CloseB -->
<g id="edge14" class="edge"><title>CloseB&#45;&gt;CloseB</title>
<path style="fill:none;stroke:black;" d="M372,-158C352,-183 364,-212 408,-212 447,-212 461,-189 450,-167"/>
<polygon style="fill:black;stroke:black;" points="452.459,-164.379 444,-158 446.635,-168.262 452.459,-164.379"/>
<text text-anchor="middle" x="408" y="-215.9" style="font-family:Times New Roman;font-size:14.00;">d_close</text>
</g>
<!-- Fail -->
<g id="node6" class="node"><title>Fail</title>
<ellipse style="fill:none;stroke:black;" cx="582" cy="-69" rx="27.1004" ry="27.1004"/>
<text text-anchor="middle" x="582" y="-64.9" style="font-family:Times New Roman;font-size:14.00;">Fail</text>
</g>
<!-- CloseB&#45;&gt;Fail -->
<g id="edge10" class="edge"><title>CloseB&#45;&gt;Fail</title>
<path style="fill:none;stroke:black;" d="M450,-117C480,-106 519,-92 547,-81"/>
<polygon style="fill:black;stroke:black;" points="548.427,-84.2259 557,-78 546.416,-77.5212 548.427,-84.2259"/>
<text text-anchor="middle" x="495" y="-111.9" style="font-family:Times New Roman;font-size:14.00;">a_open</text>
</g>
<!-- MoveA -->
<g id="node7" class="node"><title>MoveA</title>
<ellipse style="fill:none;stroke:black;" cx="582" cy="-158" rx="43.7776" ry="43.7776"/>
<text text-anchor="middle" x="582" y="-153.9" style="font-family:Times New Roman;font-size:14.00;">MoveA</text>
</g>
<!-- CloseB&#45;&gt;MoveA -->
<g id="edge8" class="edge"><title>CloseB&#45;&gt;MoveA</title>
<path style="fill:none;stroke:black;" d="M452,-139C475,-143 504,-147 528,-150"/>
<polygon style="fill:black;stroke:black;" points="527.701,-153.488 538,-151 528.398,-146.522 527.701,-153.488"/>
<text text-anchor="middle" x="495" y="-150.9" style="font-family:Times New Roman;font-size:14.00;">a_close</text>
</g>
<!-- Fail&#45;&gt;Idle -->
<g id="edge16" class="edge"><title>Fail&#45;&gt;Idle</title>
<path style="fill:none;stroke:black;" d="M555,-69C471,-67 216,-63 114,-61"/>
<polygon style="fill:black;stroke:black;" points="114,-57.5001 104,-61 114,-64.5001 114,-57.5001"/>
<text text-anchor="middle" x="321" y="-67.9" style="font-family:Times New Roman;font-size:14.00;">a_fail</text>
</g>
<!-- MoveA&#45;&gt;MoveA -->
<g id="edge22" class="edge"><title>MoveA&#45;&gt;MoveA</title>
<path style="fill:none;stroke:black;" d="M553,-192C545,-215 555,-238 582,-238 605,-238 616,-221 613,-202"/>
<polygon style="fill:black;stroke:black;" points="616.393,-201.119 611,-192 609.529,-202.492 616.393,-201.119"/>
<text text-anchor="middle" x="582" y="-241.9" style="font-family:Times New Roman;font-size:14.00;">c_down</text>
</g>
<!-- MoveA&#45;&gt;MoveA -->
<g id="edge20" class="edge"><title>MoveA&#45;&gt;MoveA</title>
<path style="fill:none;stroke:black;" d="M575,-202C575,-212 578,-220 582,-220 584,-220 587,-217 588,-212"/>
<polygon style="fill:black;stroke:black;" points="591.488,-212.299 589,-202 584.522,-211.602 591.488,-212.299"/>
<text text-anchor="middle" x="582" y="-223.9" style="font-family:Times New Roman;font-size:14.00;">c_up</text>
</g>
<!-- OpenA -->
<g id="node8" class="node"><title>OpenA</title>
<ellipse style="fill:none;stroke:black;" cx="756" cy="-104" rx="43.7776" ry="43.7776"/>
<text text-anchor="middle" x="756" y="-99.9" style="font-family:Times New Roman;font-size:14.00;">OpenA</text>
</g>
<!-- MoveA&#45;&gt;OpenA -->
<g id="edge18" class="edge"><title>MoveA&#45;&gt;OpenA</title>
<path style="fill:none;stroke:black;" d="M624,-145C648,-138 679,-129 704,-120"/>
<polygon style="fill:black;stroke:black;" points="705.427,-123.226 714,-117 703.416,-116.521 705.427,-123.226"/>
<text text-anchor="middle" x="669" y="-141.9" style="font-family:Times New Roman;font-size:14.00;">d_open</text>
</g>
<!-- OpenB -->
<g id="node9" class="node"><title>OpenB</title>
<ellipse style="fill:none;stroke:black;" cx="930" cy="-44" rx="43.7776" ry="43.7776"/>
<text text-anchor="middle" x="930" y="-39.9" style="font-family:Times New Roman;font-size:14.00;">OpenB</text>
</g>
<!-- OpenA&#45;&gt;OpenB -->
<g id="edge24" class="edge"><title>OpenA&#45;&gt;OpenB</title>
<path style="fill:none;stroke:black;" d="M798,-90C822,-81 853,-71 879,-61"/>
<polygon style="fill:black;stroke:black;" points="879.62,-64.4827 888,-58 877.406,-57.842 879.62,-64.4827"/>
<text text-anchor="middle" x="843" y="-84.9" style="font-family:Times New Roman;font-size:14.00;">a_open</text>
</g>
<!-- OpenB&#45;&gt;Idle -->
<g id="edge26" class="edge"><title>OpenB&#45;&gt;Idle</title>
<path style="fill:none;stroke:black;" d="M887,-32C852,-24 802,-14 756,-14 234,-14 234,-14 234,-14 190,-14 143,-30 111,-43"/>
<polygon style="fill:black;stroke:black;" points="108.985,-40.0364 101,-47 111.585,-46.5357 108.985,-40.0364"/>
<text text-anchor="middle" x="495" y="-17.9" style="font-family:Times New Roman;font-size:14.00;">a_done</text>
</g>
</g>
</svg>
