<?xml version="1.0" encoding="UTF-8" standalone="no"?>
<!DOCTYPE svg PUBLIC "-//W3C//DTD SVG 1.0//EN"
 "http://www.w3.org/TR/2001/REC-SVG-20010904/DTD/svg10.dtd" [
 <!ATTLIST svg xmlns:xlink CDATA #FIXED "http://www.w3.org/1999/xlink">
]>
<!-- Generated by Graphviz version 2.20.2 (Tue Mar &#160;2 21:46:26 UTC 2010)
     For user: (mtmoor) Prof. Thomas Moor -->
<!-- Title: Closed loop (monolithic) Pages: 1 -->
<svg width="720pt" height="93pt"
 viewBox="0.00 0.00 720.00 93.38" xmlns="http://www.w3.org/2000/svg" xmlns:xlink="http://www.w3.org/1999/xlink">
<g id="graph0" class="graph" transform="scale(0.5625 0.5625) rotate(0) translate(4 162)">
<title>Closed loop (monolithic)</title>
<polygon style="fill:none;stroke:none;" points="-4,4 -4,-162 1276,-162 1276,4 -4,4"/>
<!-- dot_dummyinit_1 -->
<g id="node1" class="node"><title>dot_dummyinit_1</title>
</g>
<!-- 1 -->
<g id="node3" class="node"><title>1</title>
<ellipse style="fill:none;stroke:black;" cx="62" cy="-40" rx="18" ry="18"/>
<ellipse style="fill:none;stroke:black;" cx="62" cy="-40" rx="22" ry="22"/>
<text text-anchor="middle" x="62" y="-35.9" style="font-family:Times New Roman;font-size:14.00;">1</text>
</g>
<!-- dot_dummyinit_1&#45;&gt;1 -->
<g id="edge2" class="edge"><title>dot_dummyinit_1&#45;&gt;1</title>
<path style="fill:none;stroke:black;" d="M2,-40C5,-40 17,-40 30,-40"/>
<polygon style="fill:black;stroke:black;" points="30,-43.5001 40,-40 30,-36.5001 30,-43.5001"/>
</g>
<!-- 2 -->
<g id="node4" class="node"><title>2</title>
<ellipse style="fill:none;stroke:black;" cx="176" cy="-86" rx="18" ry="18"/>
<text text-anchor="middle" x="176" y="-81.9" style="font-family:Times New Roman;font-size:14.00;">2</text>
</g>
<!-- 1&#45;&gt;2 -->
<g id="edge4" class="edge"><title>1&#45;&gt;2</title>
<path style="fill:none;stroke:black;" d="M83,-48C101,-56 129,-67 149,-75"/>
<polygon style="fill:black;stroke:black;" points="148.415,-78.5357 159,-79 151.015,-72.0364 148.415,-78.5357"/>
<text text-anchor="middle" x="121" y="-73.9" style="font-family:Times New Roman;font-size:14.00;">alpha</text>
</g>
<!-- 3 -->
<g id="node5" class="node"><title>3</title>
<ellipse style="fill:none;stroke:black;" cx="298" cy="-86" rx="18" ry="18"/>
<text text-anchor="middle" x="298" y="-81.9" style="font-family:Times New Roman;font-size:14.00;">3</text>
</g>
<!-- 2&#45;&gt;3 -->
<g id="edge6" class="edge"><title>2&#45;&gt;3</title>
<path style="fill:none;stroke:black;" d="M194,-86C214,-86 246,-86 270,-86"/>
<polygon style="fill:black;stroke:black;" points="270,-89.5001 280,-86 270,-82.5001 270,-89.5001"/>
<text text-anchor="middle" x="237" y="-89.9" style="font-family:Times New Roman;font-size:14.00;">p_start</text>
</g>
<!-- 4 -->
<g id="node6" class="node"><title>4</title>
<ellipse style="fill:none;stroke:black;" cx="430" cy="-86" rx="18" ry="18"/>
<text text-anchor="middle" x="430" y="-81.9" style="font-family:Times New Roman;font-size:14.00;">4</text>
</g>
<!-- 3&#45;&gt;4 -->
<g id="edge8" class="edge"><title>3&#45;&gt;4</title>
<path style="fill:none;stroke:black;" d="M316,-86C338,-86 375,-86 402,-86"/>
<polygon style="fill:black;stroke:black;" points="402,-89.5001 412,-86 402,-82.5001 402,-89.5001"/>
<text text-anchor="middle" x="364" y="-89.9" style="font-family:Times New Roman;font-size:14.00;">p_inprog</text>
</g>
<!-- 5 -->
<g id="node7" class="node"><title>5</title>
<ellipse style="fill:none;stroke:black;" cx="580" cy="-86" rx="18" ry="18"/>
<text text-anchor="middle" x="580" y="-81.9" style="font-family:Times New Roman;font-size:14.00;">5</text>
</g>
<!-- 4&#45;&gt;5 -->
<g id="edge10" class="edge"><title>4&#45;&gt;5</title>
<path style="fill:none;stroke:black;" d="M448,-86C474,-86 521,-86 552,-86"/>
<polygon style="fill:black;stroke:black;" points="552,-89.5001 562,-86 552,-82.5001 552,-89.5001"/>
<text text-anchor="middle" x="505" y="-89.9" style="font-family:Times New Roman;font-size:14.00;">p_complete</text>
</g>
<!-- 6 -->
<g id="node8" class="node"><title>6</title>
<ellipse style="fill:none;stroke:black;" cx="580" cy="-140" rx="18" ry="18"/>
<text text-anchor="middle" x="580" y="-135.9" style="font-family:Times New Roman;font-size:14.00;">6</text>
</g>
<!-- 4&#45;&gt;6 -->
<g id="edge12" class="edge"><title>4&#45;&gt;6</title>
<path style="fill:none;stroke:black;" d="M445,-96C452,-100 459,-104 466,-107 494,-119 529,-128 552,-134"/>
<polygon style="fill:black;stroke:black;" points="551.508,-137.471 562,-136 552.881,-130.607 551.508,-137.471"/>
<text text-anchor="middle" x="505" y="-133.9" style="font-family:Times New Roman;font-size:14.00;">m_request</text>
</g>
<!-- 12 -->
<g id="node14" class="node"><title>12</title>
<ellipse style="fill:none;stroke:black;" cx="703" cy="-61" rx="23.1233" ry="23.1233"/>
<text text-anchor="middle" x="703" y="-56.9" style="font-family:Times New Roman;font-size:14.00;">12</text>
</g>
<!-- 5&#45;&gt;12 -->
<g id="edge14" class="edge"><title>5&#45;&gt;12</title>
<path style="fill:none;stroke:black;" d="M598,-82C617,-79 647,-72 670,-68"/>
<polygon style="fill:black;stroke:black;" points="670.881,-71.3933 680,-66 669.508,-64.5292 670.881,-71.3933"/>
<text text-anchor="middle" x="639" y="-80.9" style="font-family:Times New Roman;font-size:14.00;">p_stop</text>
</g>
<!-- 7 -->
<g id="node9" class="node"><title>7</title>
<ellipse style="fill:none;stroke:black;" cx="703" cy="-124" rx="18" ry="18"/>
<text text-anchor="middle" x="703" y="-119.9" style="font-family:Times New Roman;font-size:14.00;">7</text>
</g>
<!-- 6&#45;&gt;7 -->
<g id="edge16" class="edge"><title>6&#45;&gt;7</title>
<path style="fill:none;stroke:black;" d="M598,-138C618,-135 651,-131 675,-127"/>
<polygon style="fill:black;stroke:black;" points="675.398,-130.478 685,-126 674.701,-123.512 675.398,-130.478"/>
<text text-anchor="middle" x="639" y="-137.9" style="font-family:Times New Roman;font-size:14.00;">mue</text>
</g>
<!-- 8 -->
<g id="node10" class="node"><title>8</title>
<ellipse style="fill:none;stroke:black;" cx="834" cy="-87" rx="18" ry="18"/>
<text text-anchor="middle" x="834" y="-82.9" style="font-family:Times New Roman;font-size:14.00;">8</text>
</g>
<!-- 7&#45;&gt;8 -->
<g id="edge18" class="edge"><title>7&#45;&gt;8</title>
<path style="fill:none;stroke:black;" d="M720,-119C742,-113 781,-102 807,-95"/>
<polygon style="fill:black;stroke:black;" points="808.427,-98.2259 817,-92 806.416,-91.5212 808.427,-98.2259"/>
<text text-anchor="middle" x="771" y="-114.9" style="font-family:Times New Roman;font-size:14.00;">m_start</text>
</g>
<!-- 9 -->
<g id="node11" class="node"><title>9</title>
<ellipse style="fill:none;stroke:black;" cx="990" cy="-60" rx="18" ry="18"/>
<text text-anchor="middle" x="990" y="-55.9" style="font-family:Times New Roman;font-size:14.00;">9</text>
</g>
<!-- 8&#45;&gt;9 -->
<g id="edge20" class="edge"><title>8&#45;&gt;9</title>
<path style="fill:none;stroke:black;" d="M852,-84C879,-80 930,-70 962,-65"/>
<polygon style="fill:black;stroke:black;" points="962.881,-68.3933 972,-63 961.508,-61.5292 962.881,-68.3933"/>
<text text-anchor="middle" x="912" y="-83.9" style="font-family:Times New Roman;font-size:14.00;">m_complete</text>
</g>
<!-- 10 -->
<g id="node12" class="node"><title>10</title>
<ellipse style="fill:none;stroke:black;" cx="1117" cy="-54" rx="23.1233" ry="23.1233"/>
<text text-anchor="middle" x="1117" y="-49.9" style="font-family:Times New Roman;font-size:14.00;">10</text>
</g>
<!-- 9&#45;&gt;10 -->
<g id="edge22" class="edge"><title>9&#45;&gt;10</title>
<path style="fill:none;stroke:black;" d="M1008,-59C1027,-58 1059,-56 1084,-55"/>
<polygon style="fill:black;stroke:black;" points="1084,-58.5001 1094,-55 1084,-51.5001 1084,-58.5001"/>
<text text-anchor="middle" x="1051" y="-59.9" style="font-family:Times New Roman;font-size:14.00;">m_stop</text>
</g>
<!-- 11 -->
<g id="node13" class="node"><title>11</title>
<ellipse style="fill:none;stroke:black;" cx="1249" cy="-23" rx="23.1233" ry="23.1233"/>
<text text-anchor="middle" x="1249" y="-18.9" style="font-family:Times New Roman;font-size:14.00;">11</text>
</g>
<!-- 10&#45;&gt;11 -->
<g id="edge24" class="edge"><title>10&#45;&gt;11</title>
<path style="fill:none;stroke:black;" d="M1139,-49C1160,-44 1192,-36 1216,-30"/>
<polygon style="fill:black;stroke:black;" points="1216.88,-33.3933 1226,-28 1215.51,-26.5292 1216.88,-33.3933"/>
<text text-anchor="middle" x="1183" y="-46.9" style="font-family:Times New Roman;font-size:14.00;">lambda</text>
</g>
<!-- 11&#45;&gt;1 -->
<g id="edge26" class="edge"><title>11&#45;&gt;1</title>
<path style="fill:none;stroke:black;" d="M1226,-17C1200,-11 1156,-2 1117,-2 176,-2 176,-2 176,-2 146,-2 114,-14 91,-25"/>
<polygon style="fill:black;stroke:black;" points="89.7166,-21.7402 82,-29 92.5596,-28.1369 89.7166,-21.7402"/>
<text text-anchor="middle" x="639" y="-5.9" style="font-family:Times New Roman;font-size:14.00;">p_stop</text>
</g>
<!-- 12&#45;&gt;1 -->
<g id="edge28" class="edge"><title>12&#45;&gt;1</title>
<path style="fill:none;stroke:black;" d="M681,-55C656,-49 616,-40 580,-40 176,-40 176,-40 176,-40 148,-40 117,-40 94,-40"/>
<polygon style="fill:black;stroke:black;" points="94,-36.5001 84,-40 94,-43.5001 94,-36.5001"/>
<text text-anchor="middle" x="364" y="-43.9" style="font-family:Times New Roman;font-size:14.00;">beta</text>
</g>
</g>
</svg>
