<?xml version="1.0" encoding="UTF-8" standalone="no"?>
<!DOCTYPE svg PUBLIC "-//W3C//DTD SVG 1.1//EN"
 "http://www.w3.org/Graphics/SVG/1.1/DTD/svg11.dtd">
<!-- Generated by graphviz version 12.2.1 (20241206.2353)
 -->
<!-- Title: E_drsaf2 Pages: 1 -->
<svg width="675pt" height="188pt"
 viewBox="0.00 0.00 675.22 187.54" xmlns="http://www.w3.org/2000/svg" xmlns:xlink="http://www.w3.org/1999/xlink">
<g id="graph0" class="graph" transform="scale(1 1) rotate(0) translate(4 183.54)">
<title>E_drsaf2</title>
<!-- dot_dummyinit_1 -->
<g id="node1" class="node">
<title>dot_dummyinit_1</title>
</g>
<!-- IdleFree -->
<g id="node2" class="node">
<title>IdleFree</title>
<path fill="none" stroke="black" d="M115.22,-50.79C115.22,-50.79 49.72,-50.79 49.72,-50.79 43.72,-50.79 37.72,-44.79 37.72,-38.79 37.72,-38.79 37.72,-26.79 37.72,-26.79 37.72,-20.79 43.72,-14.79 49.72,-14.79 49.72,-14.79 115.22,-14.79 115.22,-14.79 121.22,-14.79 127.22,-20.79 127.22,-26.79 127.22,-26.79 127.22,-38.79 127.22,-38.79 127.22,-44.79 121.22,-50.79 115.22,-50.79"/>
<text text-anchor="start" x="49.72" y="-27.36" font-family="Arial" font-size="14.00">IdleFree</text>
<polygon fill="black" stroke="none" points="109.22,-22.91 109.22,-42.66 117.22,-42.66 117.22,-22.91 109.22,-22.91"/>
</g>
<!-- dot_dummyinit_1&#45;&gt;IdleFree -->
<g id="edge1" class="edge">
<title>dot_dummyinit_1&#45;&gt;IdleFree</title>
<path fill="none" stroke="black" d="M0.78,-32.79C1.67,-32.79 12.58,-32.79 26.12,-32.79"/>
<polygon fill="black" stroke="black" points="25.87,-36.29 35.87,-32.79 25.87,-29.29 25.87,-36.29"/>
</g>
<!-- IdleFree&#45;&gt;IdleFree -->
<g id="edge3" class="edge">
<title>IdleFree&#45;&gt;IdleFree</title>
<path fill="none" stroke="black" d="M78.66,-50.94C78.07,-60.32 79.34,-68.79 82.47,-68.79 84.18,-68.79 85.34,-66.25 85.94,-62.43"/>
<polygon fill="black" stroke="black" points="89.43,-62.55 86.24,-52.45 82.44,-62.34 89.43,-62.55"/>
<text text-anchor="middle" x="82.47" y="-71.24" font-family="Arial" font-size="14.00">d_open</text>
</g>
<!-- IdleFree&#45;&gt;IdleFree -->
<g id="edge4" class="edge">
<title>IdleFree&#45;&gt;IdleFree</title>
<path fill="none" stroke="black" d="M76.08,-51.04C72.76,-68.19 74.89,-86.79 82.47,-86.79 88.39,-86.79 90.98,-75.43 90.26,-62.29"/>
<polygon fill="black" stroke="black" points="93.75,-62.04 89.05,-52.54 86.81,-62.9 93.75,-62.04"/>
<text text-anchor="middle" x="82.47" y="-89.24" font-family="Arial" font-size="14.00">d_stp</text>
</g>
<!-- IdleFree&#45;&gt;IdleFree -->
<g id="edge5" class="edge">
<title>IdleFree&#45;&gt;IdleFree</title>
<path fill="none" stroke="black" d="M74.36,-51.23C67.41,-75.49 70.12,-104.79 82.47,-104.79 92.99,-104.79 96.51,-83.54 93.03,-62.25"/>
<polygon fill="black" stroke="black" points="96.5,-61.7 90.91,-52.7 89.66,-63.23 96.5,-61.7"/>
<text text-anchor="middle" x="82.47" y="-107.24" font-family="Arial" font-size="14.00">d_arcl</text>
</g>
<!-- ClosingFree -->
<g id="node3" class="node">
<title>ClosingFree</title>
<path fill="none" stroke="black" d="M310.47,-135.79C310.47,-135.79 221.72,-135.79 221.72,-135.79 215.72,-135.79 209.72,-129.79 209.72,-123.79 209.72,-123.79 209.72,-111.79 209.72,-111.79 209.72,-105.79 215.72,-99.79 221.72,-99.79 221.72,-99.79 310.47,-99.79 310.47,-99.79 316.47,-99.79 322.47,-105.79 322.47,-111.79 322.47,-111.79 322.47,-123.79 322.47,-123.79 322.47,-129.79 316.47,-135.79 310.47,-135.79"/>
<text text-anchor="start" x="221.72" y="-112.36" font-family="Arial" font-size="14.00">ClosingFree</text>
<polygon fill="black" stroke="none" points="304.47,-107.91 304.47,-127.66 312.47,-127.66 312.47,-107.91 304.47,-107.91"/>
</g>
<!-- IdleFree&#45;&gt;ClosingFree -->
<g id="edge2" class="edge">
<title>IdleFree&#45;&gt;ClosingFree</title>
<path fill="none" stroke="black" d="M112.15,-51.26C122.39,-57.51 134.14,-64.29 145.22,-69.79 163.69,-78.94 184.36,-87.72 203.26,-95.2"/>
<polygon fill="black" stroke="black" points="201.86,-98.41 212.45,-98.78 204.41,-91.89 201.86,-98.41"/>
<text text-anchor="middle" x="168.47" y="-92.52" font-family="Arial" font-size="14.00">d_close</text>
</g>
<!-- Block -->
<g id="node6" class="node">
<title>Block</title>
<path fill="none" stroke="black" d="M655.22,-67.79C655.22,-67.79 606.22,-67.79 606.22,-67.79 600.22,-67.79 594.22,-61.79 594.22,-55.79 594.22,-55.79 594.22,-43.79 594.22,-43.79 594.22,-37.79 600.22,-31.79 606.22,-31.79 606.22,-31.79 655.22,-31.79 655.22,-31.79 661.22,-31.79 667.22,-37.79 667.22,-43.79 667.22,-43.79 667.22,-55.79 667.22,-55.79 667.22,-61.79 661.22,-67.79 655.22,-67.79"/>
<text text-anchor="start" x="606.22" y="-44.36" font-family="Arial" font-size="14.00">Block</text>
<polygon fill="black" stroke="none" points="649.22,-39.91 649.22,-59.66 657.22,-59.66 657.22,-39.91 649.22,-39.91"/>
</g>
<!-- IdleFree&#45;&gt;Block -->
<g id="edge6" class="edge">
<title>IdleFree&#45;&gt;Block</title>
<path fill="none" stroke="black" d="M127.51,-29.53C205.46,-24.39 372.76,-16.23 513.22,-28.79 536.19,-30.84 561.41,-35.13 582.49,-39.3"/>
<polygon fill="black" stroke="black" points="581.76,-42.72 592.25,-41.28 583.15,-35.86 581.76,-42.72"/>
<text text-anchor="middle" x="358.85" y="-24.81" font-family="Arial" font-size="14.00">d_lbbl</text>
</g>
<!-- ClosingBlock -->
<g id="node4" class="node">
<title>ClosingBlock</title>
<path fill="none" stroke="black" d="M501.22,-145.79C501.22,-145.79 407.22,-145.79 407.22,-145.79 401.22,-145.79 395.22,-139.79 395.22,-133.79 395.22,-133.79 395.22,-121.79 395.22,-121.79 395.22,-115.79 401.22,-109.79 407.22,-109.79 407.22,-109.79 501.22,-109.79 501.22,-109.79 507.22,-109.79 513.22,-115.79 513.22,-121.79 513.22,-121.79 513.22,-133.79 513.22,-133.79 513.22,-139.79 507.22,-145.79 501.22,-145.79"/>
<text text-anchor="start" x="407.22" y="-122.36" font-family="Arial" font-size="14.00">ClosingBlock</text>
<polygon fill="black" stroke="none" points="495.22,-117.91 495.22,-137.66 503.22,-137.66 503.22,-117.91 495.22,-117.91"/>
</g>
<!-- ClosingFree&#45;&gt;ClosingBlock -->
<g id="edge8" class="edge">
<title>ClosingFree&#45;&gt;ClosingBlock</title>
<path fill="none" stroke="black" d="M309.46,-136.24C319.44,-139.78 330.18,-142.95 340.47,-144.79 354.39,-147.26 369.31,-147.04 383.6,-145.42"/>
<polygon fill="black" stroke="black" points="383.97,-148.9 393.39,-144.06 383.01,-141.97 383.97,-148.9"/>
<text text-anchor="middle" x="358.85" y="-149.09" font-family="Arial" font-size="14.00">d_lbbl</text>
</g>
<!-- ClosedFree -->
<g id="node5" class="node">
<title>ClosedFree</title>
<path fill="none" stroke="black" d="M497.1,-73.79C497.1,-73.79 411.35,-73.79 411.35,-73.79 405.35,-73.79 399.35,-67.79 399.35,-61.79 399.35,-61.79 399.35,-49.79 399.35,-49.79 399.35,-43.79 405.35,-37.79 411.35,-37.79 411.35,-37.79 497.1,-37.79 497.1,-37.79 503.1,-37.79 509.1,-43.79 509.1,-49.79 509.1,-49.79 509.1,-61.79 509.1,-61.79 509.1,-67.79 503.1,-73.79 497.1,-73.79"/>
<text text-anchor="start" x="411.35" y="-50.36" font-family="Arial" font-size="14.00">ClosedFree</text>
<polygon fill="black" stroke="none" points="491.1,-45.91 491.1,-65.66 499.1,-65.66 499.1,-45.91 491.1,-45.91"/>
</g>
<!-- ClosingFree&#45;&gt;ClosedFree -->
<g id="edge7" class="edge">
<title>ClosingFree&#45;&gt;ClosedFree</title>
<path fill="none" stroke="black" d="M322.43,-99.35C343.15,-92.45 366.87,-84.55 388.37,-77.39"/>
<polygon fill="black" stroke="black" points="389.24,-80.79 397.62,-74.31 387.03,-74.15 389.24,-80.79"/>
<text text-anchor="middle" x="358.85" y="-94.79" font-family="Arial" font-size="14.00">d_arcl</text>
</g>
<!-- ClosingBlock&#45;&gt;ClosingFree -->
<g id="edge12" class="edge">
<title>ClosingBlock&#45;&gt;ClosingFree</title>
<path fill="none" stroke="black" d="M394.83,-124.65C375.64,-123.62 354.16,-122.46 334.37,-121.4"/>
<polygon fill="black" stroke="black" points="334.62,-117.91 324.45,-120.87 334.25,-124.9 334.62,-117.91"/>
<text text-anchor="middle" x="358.85" y="-126.13" font-family="Arial" font-size="14.00">d_lbrl</text>
</g>
<!-- ClosingBlock&#45;&gt;ClosingBlock -->
<g id="edge11" class="edge">
<title>ClosingBlock&#45;&gt;ClosingBlock</title>
<path fill="none" stroke="black" d="M436.97,-145.94C434.31,-155.32 440.06,-163.79 454.22,-163.79 462.18,-163.79 467.49,-161.11 470.13,-157.1"/>
<polygon fill="black" stroke="black" points="473.57,-157.79 471.29,-147.44 466.62,-156.95 473.57,-157.79"/>
<text text-anchor="middle" x="454.22" y="-166.24" font-family="Arial" font-size="14.00">d_arcl</text>
</g>
<!-- ClosingBlock&#45;&gt;Block -->
<g id="edge9" class="edge">
<title>ClosingBlock&#45;&gt;Block</title>
<path fill="none" stroke="black" d="M490.92,-109.38C503.55,-103.05 517.93,-96.04 531.22,-90.04 548.07,-82.42 566.8,-74.61 583.36,-67.92"/>
<polygon fill="black" stroke="black" points="584.51,-71.23 592.49,-64.26 581.9,-64.73 584.51,-71.23"/>
<text text-anchor="middle" x="553.72" y="-92.49" font-family="Arial" font-size="14.00">d_open</text>
</g>
<!-- ClosingBlock&#45;&gt;Block -->
<g id="edge10" class="edge">
<title>ClosingBlock&#45;&gt;Block</title>
<path fill="none" stroke="black" d="M513.7,-124.6C534.39,-121.59 557.23,-116.01 576.22,-105.79 589.26,-98.76 600.98,-87.41 610.11,-76.76"/>
<polygon fill="black" stroke="black" points="612.61,-79.24 616.18,-69.27 607.17,-74.83 612.61,-79.24"/>
<text text-anchor="middle" x="553.72" y="-123.73" font-family="Arial" font-size="14.00">d_stp</text>
</g>
<!-- ClosedFree&#45;&gt;IdleFree -->
<g id="edge13" class="edge">
<title>ClosedFree&#45;&gt;IdleFree</title>
<path fill="none" stroke="black" d="M399.05,-52.42C329.44,-48.09 209.2,-40.61 138.95,-36.24"/>
<polygon fill="black" stroke="black" points="139.41,-32.76 129.21,-35.63 138.98,-39.74 139.41,-32.76"/>
<text text-anchor="middle" x="266.1" y="-49.77" font-family="Arial" font-size="14.00">d_stp</text>
</g>
<!-- ClosedFree&#45;&gt;Block -->
<g id="edge14" class="edge">
<title>ClosedFree&#45;&gt;Block</title>
<path fill="none" stroke="black" d="M509.59,-52.06C516.86,-51.66 524.22,-51.3 531.22,-51.04 548,-50.4 566.39,-50.07 582.7,-49.91"/>
<polygon fill="black" stroke="black" points="582.66,-53.41 592.63,-49.82 582.6,-46.41 582.66,-53.41"/>
<text text-anchor="middle" x="553.72" y="-53.49" font-family="Arial" font-size="14.00">d_lbbl</text>
</g>
<!-- Block&#45;&gt;IdleFree -->
<g id="edge18" class="edge">
<title>Block&#45;&gt;IdleFree</title>
<path fill="none" stroke="black" d="M593.95,-32.79C588.12,-30.49 582.07,-28.38 576.22,-26.79 548.99,-19.36 541.23,-22.29 513.22,-18.79 452.79,-11.23 438.01,-5.76 377.22,-2.04 273.93,4.3 247.71,-7.49 145.22,-21.79 143.08,-22.08 140.89,-22.4 138.69,-22.74"/>
<polygon fill="black" stroke="black" points="138.41,-19.24 129.09,-24.27 139.51,-26.15 138.41,-19.24"/>
<text text-anchor="middle" x="358.85" y="-4.49" font-family="Arial" font-size="14.00">d_lbrl</text>
</g>
<!-- Block&#45;&gt;Block -->
<g id="edge15" class="edge">
<title>Block&#45;&gt;Block</title>
<path fill="none" stroke="black" d="M626.08,-67.94C625.36,-77.32 626.91,-85.79 630.72,-85.79 632.8,-85.79 634.21,-83.25 634.94,-79.43"/>
<polygon fill="black" stroke="black" points="638.44,-79.57 635.31,-69.45 631.44,-79.32 638.44,-79.57"/>
<text text-anchor="middle" x="630.72" y="-88.24" font-family="Arial" font-size="14.00">d_close</text>
</g>
<!-- Block&#45;&gt;Block -->
<g id="edge16" class="edge">
<title>Block&#45;&gt;Block</title>
<path fill="none" stroke="black" d="M622.94,-68.04C618.9,-85.19 621.5,-103.79 630.72,-103.79 637.93,-103.79 641.09,-92.43 640.2,-79.29"/>
<polygon fill="black" stroke="black" points="643.68,-78.91 638.73,-69.54 636.76,-79.95 643.68,-78.91"/>
<text text-anchor="middle" x="630.72" y="-106.24" font-family="Arial" font-size="14.00">d_open</text>
</g>
<!-- Block&#45;&gt;Block -->
<g id="edge17" class="edge">
<title>Block&#45;&gt;Block</title>
<path fill="none" stroke="black" d="M620.85,-68.23C612.39,-92.49 615.68,-121.79 630.72,-121.79 643.53,-121.79 647.81,-100.54 643.58,-79.25"/>
<polygon fill="black" stroke="black" points="646.98,-78.42 640.99,-69.69 640.23,-80.26 646.98,-78.42"/>
<text text-anchor="middle" x="630.72" y="-124.24" font-family="Arial" font-size="14.00">d_stp</text>
</g>
</g>
</svg>
