<?xml version="1.0" encoding="UTF-8" standalone="no"?>
<!DOCTYPE svg PUBLIC "-//W3C//DTD SVG 1.0//EN"
 "http://www.w3.org/TR/2001/REC-SVG-20010904/DTD/svg10.dtd" [
 <!ATTLIST svg xmlns:xlink CDATA #FIXED "http://www.w3.org/1999/xlink">
]>
<!-- Generated by Graphviz version 2.20.2 (Tue Mar &#160;2 21:46:26 UTC 2010)
     For user: (mtmoor) Prof. Thomas Moor -->
<!-- Title: PlantB (maintenance) Pages: 1 -->
<svg width="693pt" height="200pt"
 viewBox="0.00 0.00 693.00 200.00" xmlns="http://www.w3.org/2000/svg" xmlns:xlink="http://www.w3.org/1999/xlink">
<g id="graph0" class="graph" transform="scale(1 1) rotate(0) translate(4 196)">
<title>PlantB (maintenance)</title>
<polygon style="fill:none;stroke:none;" points="-4,4 -4,-196 689,-196 689,4 -4,4"/>
<!-- dot_dummyinit_1 -->
<g id="node1" class="node"><title>dot_dummyinit_1</title>
</g>
<!-- MOff -->
<g id="node3" class="node"><title>MOff</title>
<ellipse style="fill:none;stroke:black;" cx="78" cy="-45" rx="34.0492" ry="34.0492"/>
<ellipse style="fill:none;stroke:black;" cx="78" cy="-45" rx="38.0492" ry="38.0492"/>
<text text-anchor="middle" x="78" y="-40.9" style="font-family:Times New Roman;font-size:14.00;">MOff</text>
</g>
<!-- dot_dummyinit_1&#45;&gt;MOff -->
<g id="edge2" class="edge"><title>dot_dummyinit_1&#45;&gt;MOff</title>
<path style="fill:none;stroke:black;" d="M2,-45C5,-45 17,-45 30,-45"/>
<polygon style="fill:black;stroke:black;" points="30,-48.5001 40,-45 30,-41.5001 30,-48.5001"/>
</g>
<!-- MOff&#45;&gt;MOff -->
<g id="edge8" class="edge"><title>MOff&#45;&gt;MOff</title>
<path style="fill:none;stroke:black;" d="M68,-82C68,-93 71,-101 78,-101 83,-101 85,-98 87,-92"/>
<polygon style="fill:black;stroke:black;" points="90.4875,-92.2987 88,-82 83.5222,-91.6021 90.4875,-92.2987"/>
<text text-anchor="middle" x="78" y="-104.9" style="font-family:Times New Roman;font-size:14.00;">m_stop</text>
</g>
<!-- MOn -->
<g id="node4" class="node"><title>MOn</title>
<ellipse style="fill:none;stroke:black;" cx="243" cy="-81" rx="32.9096" ry="32.9096"/>
<ellipse style="fill:none;stroke:black;" cx="243" cy="-81" rx="36.8563" ry="36.8563"/>
<text text-anchor="middle" x="243" y="-76.9" style="font-family:Times New Roman;font-size:14.00;">MOn</text>
</g>
<!-- MOff&#45;&gt;MOn -->
<g id="edge6" class="edge"><title>MOff&#45;&gt;MOn</title>
<path style="fill:none;stroke:black;" d="M114,-57C121,-59 128,-61 134,-63 154,-67 177,-71 196,-74"/>
<polygon style="fill:black;stroke:black;" points="195.508,-77.4708 206,-76 196.881,-70.6067 195.508,-77.4708"/>
<text text-anchor="middle" x="161" y="-74.9" style="font-family:Times New Roman;font-size:14.00;">m_start</text>
</g>
<!-- MOffR -->
<g id="node5" class="node"><title>MOffR</title>
<ellipse style="fill:none;stroke:black;" cx="615" cy="-45" rx="40.9981" ry="40.9981"/>
<ellipse style="fill:none;stroke:black;" cx="615" cy="-45" rx="44.9981" ry="44.9981"/>
<text text-anchor="middle" x="615" y="-40.9" style="font-family:Times New Roman;font-size:14.00;">MOffR</text>
</g>
<!-- MOff&#45;&gt;MOffR -->
<g id="edge4" class="edge"><title>MOff&#45;&gt;MOffR</title>
<path style="fill:none;stroke:black;" d="M114,-32C121,-30 127,-29 134,-28 158,-24 165,-27 188,-28 350,-29 391,-18 552,-34 555,-34 558,-34 561,-35"/>
<polygon style="fill:black;stroke:black;" points="560.701,-38.4875 571,-36 561.398,-31.5222 560.701,-38.4875"/>
<text text-anchor="middle" x="340" y="-29.9" style="font-family:Times New Roman;font-size:14.00;">m_request</text>
</g>
<!-- MOn&#45;&gt;MOff -->
<g id="edge14" class="edge"><title>MOn&#45;&gt;MOff</title>
<path style="fill:none;stroke:black;" d="M217,-55C208,-48 198,-42 188,-39 168,-32 145,-33 125,-35"/>
<polygon style="fill:black;stroke:black;" points="124.602,-31.5222 115,-36 125.299,-38.4875 124.602,-31.5222"/>
<text text-anchor="middle" x="161" y="-42.9" style="font-family:Times New Roman;font-size:14.00;">m_stop</text>
</g>
<!-- MOn&#45;&gt;MOn -->
<g id="edge12" class="edge"><title>MOn&#45;&gt;MOn</title>
<path style="fill:none;stroke:black;" d="M228,-115C228,-127 233,-136 243,-136 250,-136 254,-132 257,-125"/>
<polygon style="fill:black;stroke:black;" points="260.488,-125.299 258,-115 253.522,-124.602 260.488,-125.299"/>
<text text-anchor="middle" x="243" y="-139.9" style="font-family:Times New Roman;font-size:14.00;">m_start</text>
</g>
<!-- MOnR -->
<g id="node6" class="node"><title>MOnR</title>
<ellipse style="fill:none;stroke:black;" cx="440" cy="-82" rx="39.8056" ry="39.8056"/>
<text text-anchor="middle" x="440" y="-77.9" style="font-family:Times New Roman;font-size:14.00;">MOnR</text>
</g>
<!-- MOn&#45;&gt;MOnR -->
<g id="edge10" class="edge"><title>MOn&#45;&gt;MOnR</title>
<path style="fill:none;stroke:black;" d="M280,-83C286,-83 292,-84 298,-84 336,-85 345,-84 382,-84 385,-84 387,-84 390,-84"/>
<polygon style="fill:black;stroke:black;" points="390.398,-87.4778 400,-83 389.701,-80.5125 390.398,-87.4778"/>
<text text-anchor="middle" x="340" y="-87.9" style="font-family:Times New Roman;font-size:14.00;">m_request</text>
</g>
<!-- MOffR&#45;&gt;MOffR -->
<g id="edge16" class="edge"><title>MOffR&#45;&gt;MOffR</title>
<path style="fill:none;stroke:black;" d="M607,-89C608,-100 610,-108 615,-108 618,-108 620,-105 622,-99"/>
<polygon style="fill:black;stroke:black;" points="625.488,-99.2987 623,-89 618.522,-98.6021 625.488,-99.2987"/>
<text text-anchor="middle" x="615" y="-111.9" style="font-family:Times New Roman;font-size:14.00;">m_request</text>
</g>
<!-- MOffR&#45;&gt;MOffR -->
<g id="edge20" class="edge"><title>MOffR&#45;&gt;MOffR</title>
<path style="fill:none;stroke:black;" d="M574,-64C534,-92 548,-126 615,-126 677,-126 694,-97 664,-70"/>
<polygon style="fill:black;stroke:black;" points="666.1,-67.2 656,-64 661.9,-72.8 666.1,-67.2"/>
<text text-anchor="middle" x="615" y="-129.9" style="font-family:Times New Roman;font-size:14.00;">m_stop</text>
</g>
<!-- MOffR&#45;&gt;MOnR -->
<g id="edge18" class="edge"><title>MOffR&#45;&gt;MOnR</title>
<path style="fill:none;stroke:black;" d="M570,-40C548,-38 521,-39 498,-46 492,-47 486,-50 481,-53"/>
<polygon style="fill:black;stroke:black;" points="479.042,-50.084 472,-58 482.441,-56.2031 479.042,-50.084"/>
<text text-anchor="middle" x="525" y="-49.9" style="font-family:Times New Roman;font-size:14.00;">m_start</text>
</g>
<!-- MOnR&#45;&gt;MOn -->
<g id="edge28" class="edge"><title>MOnR&#45;&gt;MOn</title>
<path style="fill:none;stroke:black;" d="M404,-65C397,-63 389,-61 382,-60 346,-53 335,-53 298,-60 294,-61 290,-61 287,-63"/>
<polygon style="fill:black;stroke:black;" points="285.573,-59.7741 277,-66 287.584,-66.4788 285.573,-59.7741"/>
<text text-anchor="middle" x="340" y="-63.9" style="font-family:Times New Roman;font-size:14.00;">m_complete</text>
</g>
<!-- MOnR&#45;&gt;MOffR -->
<g id="edge26" class="edge"><title>MOnR&#45;&gt;MOffR</title>
<path style="fill:none;stroke:black;" d="M480,-76C501,-73 528,-68 552,-63 555,-62 559,-61 562,-60"/>
<polygon style="fill:black;stroke:black;" points="562.881,-63.3933 572,-58 561.508,-56.5292 562.881,-63.3933"/>
<text text-anchor="middle" x="525" y="-75.9" style="font-family:Times New Roman;font-size:14.00;">m_stop</text>
</g>
<!-- MOnR&#45;&gt;MOnR -->
<g id="edge22" class="edge"><title>MOnR&#45;&gt;MOnR</title>
<path style="fill:none;stroke:black;" d="M433,-121C433,-132 435,-140 440,-140 443,-140 445,-137 446,-131"/>
<polygon style="fill:black;stroke:black;" points="449.488,-131.299 447,-121 442.522,-130.602 449.488,-131.299"/>
<text text-anchor="middle" x="440" y="-143.9" style="font-family:Times New Roman;font-size:14.00;">m_request</text>
</g>
<!-- MOnR&#45;&gt;MOnR -->
<g id="edge24" class="edge"><title>MOnR&#45;&gt;MOnR</title>
<path style="fill:none;stroke:black;" d="M403,-98C360,-124 372,-158 440,-158 503,-158 518,-129 486,-104"/>
<polygon style="fill:black;stroke:black;" points="487.262,-100.635 477,-98 483.379,-106.459 487.262,-100.635"/>
<text text-anchor="middle" x="440" y="-161.9" style="font-family:Times New Roman;font-size:14.00;">m_start</text>
</g>
</g>
</svg>
