<?xml version="1.0" encoding="UTF-8" standalone="no"?>
<!DOCTYPE svg PUBLIC "-//W3C//DTD SVG 1.1//EN"
 "http://www.w3.org/Graphics/SVG/1.1/DTD/svg11.dtd">
<!-- Generated by graphviz version 12.2.1 (20241206.2353)
 -->
<!-- Title: operator buttons Pages: 1 -->
<svg width="107pt" height="112pt"
 viewBox="0.00 0.00 107.47 111.50" xmlns="http://www.w3.org/2000/svg" xmlns:xlink="http://www.w3.org/1999/xlink">
<g id="graph0" class="graph" transform="scale(1 1) rotate(0) translate(4 107.5)">
<title>operator buttons</title>
<!-- dot_dummyinit_1 -->
<g id="node1" class="node">
<title>dot_dummyinit_1</title>
</g>
<!-- Idle -->
<g id="node2" class="node">
<title>Idle</title>
<path fill="none" stroke="black" d="M87.47,-36C87.47,-36 49.72,-36 49.72,-36 43.72,-36 37.72,-30 37.72,-24 37.72,-24 37.72,-12 37.72,-12 37.72,-6 43.72,0 49.72,0 49.72,0 87.47,0 87.47,0 93.47,0 99.47,-6 99.47,-12 99.47,-12 99.47,-24 99.47,-24 99.47,-30 93.47,-36 87.47,-36"/>
<text text-anchor="start" x="49.72" y="-12.57" font-family="Arial" font-size="14.00">Idle</text>
<polygon fill="black" stroke="none" points="81.47,-8.12 81.47,-27.88 89.47,-27.88 89.47,-8.12 81.47,-8.12"/>
</g>
<!-- dot_dummyinit_1&#45;&gt;Idle -->
<g id="edge1" class="edge">
<title>dot_dummyinit_1&#45;&gt;Idle</title>
<path fill="none" stroke="black" d="M0.77,-18C1.6,-18 12.92,-18 26.02,-18"/>
<polygon fill="black" stroke="black" points="25.74,-21.5 35.74,-18 25.74,-14.5 25.74,-21.5"/>
</g>
<!-- Idle&#45;&gt;Idle -->
<g id="edge2" class="edge">
<title>Idle&#45;&gt;Idle</title>
<path fill="none" stroke="black" d="M64.13,-36.15C63.44,-45.54 64.93,-54 68.59,-54 70.6,-54 71.95,-51.47 72.65,-47.64"/>
<polygon fill="black" stroke="black" points="76.15,-47.78 73.01,-37.67 69.16,-47.54 76.15,-47.78"/>
<text text-anchor="middle" x="68.59" y="-56.45" font-family="Arial" font-size="14.00">o_upb</text>
</g>
<!-- Idle&#45;&gt;Idle -->
<g id="edge3" class="edge">
<title>Idle&#45;&gt;Idle</title>
<path fill="none" stroke="black" d="M61.11,-36.26C57.23,-53.4 59.72,-72 68.59,-72 75.53,-72 78.57,-60.65 77.71,-47.51"/>
<polygon fill="black" stroke="black" points="81.2,-47.15 76.3,-37.76 74.27,-48.15 81.2,-47.15"/>
<text text-anchor="middle" x="68.59" y="-74.45" font-family="Arial" font-size="14.00">o_lwb</text>
</g>
</g>
</svg>
