<?xml version="1.0" encoding="UTF-8" standalone="no"?>
<!DOCTYPE svg PUBLIC "-//W3C//DTD SVG 1.0//EN"
 "http://www.w3.org/TR/2001/REC-SVG-20010904/DTD/svg10.dtd" [
 <!ATTLIST svg xmlns:xlink CDATA #FIXED "http://www.w3.org/1999/xlink">
]>
<!-- Generated by Graphviz version 2.20.2 (Tue Mar &#160;2 21:46:26 UTC 2010)
     For user: (mtmoor) Prof. Thomas Moor -->
<!-- Title: E_drmot1 Pages: 1 -->
<svg width="720pt" height="123pt"
 viewBox="0.00 0.00 720.00 122.71" xmlns="http://www.w3.org/2000/svg" xmlns:xlink="http://www.w3.org/1999/xlink">
<g id="graph0" class="graph" transform="scale(0.477454 0.477454) rotate(0) translate(4 253)">
<title>E_drmot1</title>
<polygon style="fill:none;stroke:none;" points="-4,4 -4,-253 1504,-253 1504,4 -4,4"/>
<!-- dot_dummyinit_1 -->
<g id="node1" class="node"><title>dot_dummyinit_1</title>
</g>
<!-- Opened -->
<g id="node3" class="node"><title>Opened</title>
<ellipse style="fill:none;stroke:black;" cx="92" cy="-52" rx="47.9469" ry="47.9469"/>
<ellipse style="fill:none;stroke:black;" cx="92" cy="-52" rx="51.9469" ry="51.9469"/>
<text text-anchor="middle" x="92" y="-47.9" style="font-family:Times New Roman;font-size:14.00;">Opened</text>
</g>
<!-- dot_dummyinit_1&#45;&gt;Opened -->
<g id="edge2" class="edge"><title>dot_dummyinit_1&#45;&gt;Opened</title>
<path style="fill:none;stroke:black;" d="M2,-52C5,-52 16,-52 30,-52"/>
<polygon style="fill:black;stroke:black;" points="30,-55.5001 40,-52 30,-48.5001 30,-55.5001"/>
</g>
<!-- Opened&#45;&gt;Opened -->
<g id="edge6" class="edge"><title>Opened&#45;&gt;Opened</title>
<path style="fill:none;stroke:black;" d="M80,-103C81,-114 85,-122 92,-122 97,-122 100,-119 102,-113"/>
<polygon style="fill:black;stroke:black;" points="105.471,-113.492 104,-103 98.6067,-112.119 105.471,-113.492"/>
<text text-anchor="middle" x="92" y="-125.9" style="font-family:Times New Roman;font-size:14.00;">a_done</text>
</g>
<!-- CloseA -->
<g id="node8" class="node"><title>CloseA</title>
<ellipse style="fill:none;stroke:black;" cx="274" cy="-135" rx="43.7776" ry="43.7776"/>
<text text-anchor="middle" x="274" y="-130.9" style="font-family:Times New Roman;font-size:14.00;">CloseA</text>
</g>
<!-- Opened&#45;&gt;CloseA -->
<g id="edge4" class="edge"><title>Opened&#45;&gt;CloseA</title>
<path style="fill:none;stroke:black;" d="M139,-74C165,-86 198,-100 225,-113"/>
<polygon style="fill:black;stroke:black;" points="223.44,-116.137 234,-117 226.283,-109.74 223.44,-116.137"/>
<text text-anchor="middle" x="187" y="-108.9" style="font-family:Times New Roman;font-size:14.00;">d_close</text>
</g>
<!-- Closed -->
<g id="node4" class="node"><title>Closed</title>
<ellipse style="fill:none;stroke:black;" cx="946" cy="-79" rx="41.932" ry="41.932"/>
<ellipse style="fill:none;stroke:black;" cx="946" cy="-79" rx="45.889" ry="45.889"/>
<text text-anchor="middle" x="946" y="-74.9" style="font-family:Times New Roman;font-size:14.00;">Closed</text>
</g>
<!-- Closed&#45;&gt;Closed -->
<g id="edge10" class="edge"><title>Closed&#45;&gt;Closed</title>
<path style="fill:none;stroke:black;" d="M930,-122C930,-134 936,-143 946,-143 953,-143 958,-139 960,-132"/>
<polygon style="fill:black;stroke:black;" points="963.471,-132.492 962,-122 956.607,-131.119 963.471,-132.492"/>
<text text-anchor="middle" x="946" y="-146.9" style="font-family:Times New Roman;font-size:14.00;">a_done</text>
</g>
<!-- OpenA -->
<g id="node5" class="node"><title>OpenA</title>
<ellipse style="fill:none;stroke:black;" cx="1122" cy="-140" rx="43.7776" ry="43.7776"/>
<text text-anchor="middle" x="1122" y="-135.9" style="font-family:Times New Roman;font-size:14.00;">OpenA</text>
</g>
<!-- Closed&#45;&gt;OpenA -->
<g id="edge8" class="edge"><title>Closed&#45;&gt;OpenA</title>
<path style="fill:none;stroke:black;" d="M990,-94C1015,-103 1045,-113 1070,-122"/>
<polygon style="fill:black;stroke:black;" points="1069.42,-125.479 1080,-125 1071.43,-118.774 1069.42,-125.479"/>
<text text-anchor="middle" x="1035" y="-119.9" style="font-family:Times New Roman;font-size:14.00;">d_open</text>
</g>
<!-- OpenB -->
<g id="node6" class="node"><title>OpenB</title>
<ellipse style="fill:none;stroke:black;" cx="1294" cy="-140" rx="43.7776" ry="43.7776"/>
<text text-anchor="middle" x="1294" y="-135.9" style="font-family:Times New Roman;font-size:14.00;">OpenB</text>
</g>
<!-- OpenA&#45;&gt;OpenB -->
<g id="edge12" class="edge"><title>OpenA&#45;&gt;OpenB</title>
<path style="fill:none;stroke:black;" d="M1166,-140C1189,-140 1216,-140 1240,-140"/>
<polygon style="fill:black;stroke:black;" points="1240,-143.5 1250,-140 1240,-136.5 1240,-143.5"/>
<text text-anchor="middle" x="1208" y="-143.9" style="font-family:Times New Roman;font-size:14.00;">d_arop</text>
</g>
<!-- OpenC -->
<g id="node7" class="node"><title>OpenC</title>
<ellipse style="fill:none;stroke:black;" cx="1456" cy="-140" rx="43.7776" ry="43.7776"/>
<text text-anchor="middle" x="1456" y="-135.9" style="font-family:Times New Roman;font-size:14.00;">OpenC</text>
</g>
<!-- OpenB&#45;&gt;OpenC -->
<g id="edge14" class="edge"><title>OpenB&#45;&gt;OpenC</title>
<path style="fill:none;stroke:black;" d="M1338,-140C1358,-140 1381,-140 1402,-140"/>
<polygon style="fill:black;stroke:black;" points="1402,-143.5 1412,-140 1402,-136.5 1402,-143.5"/>
<text text-anchor="middle" x="1375" y="-143.9" style="font-family:Times New Roman;font-size:14.00;">d_stp</text>
</g>
<!-- OpenC&#45;&gt;Opened -->
<g id="edge16" class="edge"><title>OpenC&#45;&gt;Opened</title>
<path style="fill:none;stroke:black;" d="M1433,-102C1406,-62 1355,-5 1294,-5 274,-5 274,-5 274,-5 232,-5 186,-18 150,-29"/>
<polygon style="fill:black;stroke:black;" points="148.573,-25.7741 140,-32 150.584,-32.4788 148.573,-25.7741"/>
<text text-anchor="middle" x="770" y="-8.9" style="font-family:Times New Roman;font-size:14.00;">a_open</text>
</g>
<!-- CloseA&#45;&gt;OpenC -->
<g id="edge18" class="edge"><title>CloseA&#45;&gt;OpenC</title>
<path style="fill:none;stroke:black;" d="M305,-167C337,-195 389,-233 442,-233 442,-233 442,-233 1294,-233 1341,-233 1386,-204 1417,-178"/>
<polygon style="fill:black;stroke:black;" points="1419.78,-180.219 1425,-171 1415.17,-174.951 1419.78,-180.219"/>
<text text-anchor="middle" x="857" y="-236.9" style="font-family:Times New Roman;font-size:14.00;">d_stp</text>
</g>
<!-- CloseB -->
<g id="node9" class="node"><title>CloseB</title>
<ellipse style="fill:none;stroke:black;" cx="442" cy="-135" rx="43.7776" ry="43.7776"/>
<text text-anchor="middle" x="442" y="-130.9" style="font-family:Times New Roman;font-size:14.00;">CloseB</text>
</g>
<!-- CloseA&#45;&gt;CloseB -->
<g id="edge20" class="edge"><title>CloseA&#45;&gt;CloseB</title>
<path style="fill:none;stroke:black;" d="M318,-135C340,-135 365,-135 388,-135"/>
<polygon style="fill:black;stroke:black;" points="388,-138.5 398,-135 388,-131.5 388,-138.5"/>
<text text-anchor="middle" x="358" y="-138.9" style="font-family:Times New Roman;font-size:14.00;">d_lvop</text>
</g>
<!-- CloseB&#45;&gt;OpenA -->
<g id="edge22" class="edge"><title>CloseB&#45;&gt;OpenA</title>
<path style="fill:none;stroke:black;" d="M481,-155C514,-170 563,-188 608,-188 608,-188 608,-188 946,-188 990,-188 1038,-174 1073,-161"/>
<polygon style="fill:black;stroke:black;" points="1073.62,-164.483 1082,-158 1071.41,-157.842 1073.62,-164.483"/>
<text text-anchor="middle" x="770" y="-191.9" style="font-family:Times New Roman;font-size:14.00;">d_open</text>
</g>
<!-- CloseC -->
<g id="node10" class="node"><title>CloseC</title>
<ellipse style="fill:none;stroke:black;" cx="608" cy="-102" rx="43.7776" ry="43.7776"/>
<text text-anchor="middle" x="608" y="-97.9" style="font-family:Times New Roman;font-size:14.00;">CloseC</text>
</g>
<!-- CloseB&#45;&gt;CloseC -->
<g id="edge24" class="edge"><title>CloseB&#45;&gt;CloseC</title>
<path style="fill:none;stroke:black;" d="M485,-126C506,-123 532,-118 555,-113"/>
<polygon style="fill:black;stroke:black;" points="555.881,-116.393 565,-111 554.508,-109.529 555.881,-116.393"/>
<text text-anchor="middle" x="525" y="-125.9" style="font-family:Times New Roman;font-size:14.00;">d_arcl</text>
</g>
<!-- CloseD -->
<g id="node11" class="node"><title>CloseD</title>
<ellipse style="fill:none;stroke:black;" cx="770" cy="-96" rx="43.9728" ry="43.9728"/>
<text text-anchor="middle" x="770" y="-91.9" style="font-family:Times New Roman;font-size:14.00;">CloseD</text>
</g>
<!-- CloseC&#45;&gt;CloseD -->
<g id="edge26" class="edge"><title>CloseC&#45;&gt;CloseD</title>
<path style="fill:none;stroke:black;" d="M652,-100C672,-100 695,-99 716,-98"/>
<polygon style="fill:black;stroke:black;" points="716,-101.5 726,-98 716,-94.5001 716,-101.5"/>
<text text-anchor="middle" x="689" y="-101.9" style="font-family:Times New Roman;font-size:14.00;">d_stp</text>
</g>
<!-- CloseD&#45;&gt;Closed -->
<g id="edge28" class="edge"><title>CloseD&#45;&gt;Closed</title>
<path style="fill:none;stroke:black;" d="M814,-92C837,-89 866,-87 890,-85"/>
<polygon style="fill:black;stroke:black;" points="890.398,-88.4778 900,-84 889.701,-81.5125 890.398,-88.4778"/>
<text text-anchor="middle" x="857" y="-92.9" style="font-family:Times New Roman;font-size:14.00;">a_close</text>
</g>
</g>
</svg>
