<?xml version="1.0" encoding="UTF-8" standalone="no"?>
<!DOCTYPE svg PUBLIC "-//W3C//DTD SVG 1.0//EN"
 "http://www.w3.org/TR/2001/REC-SVG-20010904/DTD/svg10.dtd" [
 <!ATTLIST svg xmlns:xlink CDATA #FIXED "http://www.w3.org/1999/xlink">
]>
<!-- Generated by Graphviz version 2.20.2 (Tue Mar &#160;2 21:46:26 UTC 2010)
     For user: (mtmoor) Prof. Thomas Moor -->
<!-- Title: elevator supervisor (core) [minstate] Pages: 1 -->
<svg width="720pt" height="100pt"
 viewBox="0.00 0.00 720.00 100.48" xmlns="http://www.w3.org/2000/svg" xmlns:xlink="http://www.w3.org/1999/xlink">
<g id="graph0" class="graph" transform="scale(0.616438 0.616438) rotate(0) translate(4 159)">
<title>elevator supervisor (core) [minstate]</title>
<polygon style="fill:none;stroke:none;" points="-4,4 -4,-159 1164,-159 1164,4 -4,4"/>
<!-- dot_dummyinit_1 -->
<g id="node1" class="node"><title>dot_dummyinit_1</title>
</g>
<!-- 1 -->
<g id="node3" class="node"><title>1</title>
<ellipse style="fill:none;stroke:black;" cx="62" cy="-33" rx="18" ry="18"/>
<ellipse style="fill:none;stroke:black;" cx="62" cy="-33" rx="22" ry="22"/>
<text text-anchor="middle" x="62" y="-28.9" style="font-family:Times New Roman;font-size:14.00;">1</text>
</g>
<!-- dot_dummyinit_1&#45;&gt;1 -->
<g id="edge2" class="edge"><title>dot_dummyinit_1&#45;&gt;1</title>
<path style="fill:none;stroke:black;" d="M2,-33C5,-33 17,-33 30,-33"/>
<polygon style="fill:black;stroke:black;" points="30,-36.5001 40,-33 30,-29.5001 30,-36.5001"/>
</g>
<!-- 2 -->
<g id="node5" class="node"><title>2</title>
<ellipse style="fill:none;stroke:black;" cx="180" cy="-62" rx="18" ry="18"/>
<text text-anchor="middle" x="180" y="-57.9" style="font-family:Times New Roman;font-size:14.00;">2</text>
</g>
<!-- 1&#45;&gt;2 -->
<g id="edge4" class="edge"><title>1&#45;&gt;2</title>
<path style="fill:none;stroke:black;" d="M82,-43C88,-46 95,-49 102,-51 118,-55 137,-58 152,-60"/>
<polygon style="fill:black;stroke:black;" points="151.701,-63.4875 162,-61 152.398,-56.5222 151.701,-63.4875"/>
<text text-anchor="middle" x="123" y="-60.9" style="font-family:Times New Roman;font-size:14.00;">o_upb</text>
</g>
<!-- 1&#45;&gt;2 -->
<g id="edge6" class="edge"><title>1&#45;&gt;2</title>
<path style="fill:none;stroke:black;" d="M83,-26C100,-22 125,-19 144,-27 151,-30 157,-34 163,-40"/>
<polygon style="fill:black;stroke:black;" points="160.454,-42.4038 170,-47 165.404,-37.454 160.454,-42.4038"/>
<text text-anchor="middle" x="123" y="-30.9" style="font-family:Times New Roman;font-size:14.00;">o_lwb</text>
</g>
<!-- 9 -->
<g id="node4" class="node"><title>9</title>
<ellipse style="fill:none;stroke:black;" cx="640" cy="-62" rx="18" ry="18"/>
<ellipse style="fill:none;stroke:black;" cx="640" cy="-62" rx="22" ry="22"/>
<text text-anchor="middle" x="640" y="-57.9" style="font-family:Times New Roman;font-size:14.00;">9</text>
</g>
<!-- 3 -->
<g id="node6" class="node"><title>3</title>
<ellipse style="fill:none;stroke:black;" cx="758" cy="-46" rx="18" ry="18"/>
<text text-anchor="middle" x="758" y="-41.9" style="font-family:Times New Roman;font-size:14.00;">3</text>
</g>
<!-- 9&#45;&gt;3 -->
<g id="edge50" class="edge"><title>9&#45;&gt;3</title>
<path style="fill:none;stroke:black;" d="M662,-62C679,-62 702,-60 722,-57 725,-57 728,-56 731,-55"/>
<polygon style="fill:black;stroke:black;" points="732.427,-58.2259 741,-52 730.416,-51.5212 732.427,-58.2259"/>
<text text-anchor="middle" x="701" y="-63.9" style="font-family:Times New Roman;font-size:14.00;">o_upb</text>
</g>
<!-- 9&#45;&gt;3 -->
<g id="edge52" class="edge"><title>9&#45;&gt;3</title>
<path style="fill:none;stroke:black;" d="M657,-48C664,-43 672,-38 680,-36 697,-31 716,-34 731,-37"/>
<polygon style="fill:black;stroke:black;" points="730.416,-40.4788 741,-40 732.427,-33.7741 730.416,-40.4788"/>
<text text-anchor="middle" x="701" y="-39.9" style="font-family:Times New Roman;font-size:14.00;">o_lwb</text>
</g>
<!-- 2&#45;&gt;2 -->
<g id="edge10" class="edge"><title>2&#45;&gt;2</title>
<path style="fill:none;stroke:black;" d="M176,-80C175,-89 176,-98 180,-98 182,-98 184,-95 184,-90"/>
<polygon style="fill:black;stroke:black;" points="187.5,-90 184,-80 180.5,-90 187.5,-90"/>
<text text-anchor="middle" x="180" y="-101.9" style="font-family:Times New Roman;font-size:14.00;">o_upb</text>
</g>
<!-- 2&#45;&gt;2 -->
<g id="edge12" class="edge"><title>2&#45;&gt;2</title>
<path style="fill:none;stroke:black;" d="M164,-70C134,-89 139,-116 180,-116 217,-116 225,-94 204,-76"/>
<polygon style="fill:black;stroke:black;" points="206.1,-73.2 196,-70 201.9,-78.8 206.1,-73.2"/>
<text text-anchor="middle" x="180" y="-119.9" style="font-family:Times New Roman;font-size:14.00;">o_lwb</text>
</g>
<!-- 6 -->
<g id="node9" class="node"><title>6</title>
<ellipse style="fill:none;stroke:black;" cx="284" cy="-62" rx="18" ry="18"/>
<text text-anchor="middle" x="284" y="-57.9" style="font-family:Times New Roman;font-size:14.00;">6</text>
</g>
<!-- 2&#45;&gt;6 -->
<g id="edge8" class="edge"><title>2&#45;&gt;6</title>
<path style="fill:none;stroke:black;" d="M198,-62C214,-62 237,-62 256,-62"/>
<polygon style="fill:black;stroke:black;" points="256,-65.5001 266,-62 256,-58.5001 256,-65.5001"/>
<text text-anchor="middle" x="232" y="-65.9" style="font-family:Times New Roman;font-size:14.00;">c_up</text>
</g>
<!-- 3&#45;&gt;3 -->
<g id="edge16" class="edge"><title>3&#45;&gt;3</title>
<path style="fill:none;stroke:black;" d="M753,-63C752,-73 754,-82 758,-82 761,-82 762,-78 763,-73"/>
<polygon style="fill:black;stroke:black;" points="766.5,-73 763,-63 759.5,-73 766.5,-73"/>
<text text-anchor="middle" x="758" y="-85.9" style="font-family:Times New Roman;font-size:14.00;">o_upb</text>
</g>
<!-- 3&#45;&gt;3 -->
<g id="edge18" class="edge"><title>3&#45;&gt;3</title>
<path style="fill:none;stroke:black;" d="M741,-54C711,-73 716,-100 758,-100 796,-100 804,-78 783,-60"/>
<polygon style="fill:black;stroke:black;" points="785.1,-57.2 775,-54 780.9,-62.8 785.1,-57.2"/>
<text text-anchor="middle" x="758" y="-103.9" style="font-family:Times New Roman;font-size:14.00;">o_lwb</text>
</g>
<!-- 7 -->
<g id="node10" class="node"><title>7</title>
<ellipse style="fill:none;stroke:black;" cx="884" cy="-46" rx="18" ry="18"/>
<text text-anchor="middle" x="884" y="-41.9" style="font-family:Times New Roman;font-size:14.00;">7</text>
</g>
<!-- 3&#45;&gt;7 -->
<g id="edge14" class="edge"><title>3&#45;&gt;7</title>
<path style="fill:none;stroke:black;" d="M776,-46C797,-46 831,-46 856,-46"/>
<polygon style="fill:black;stroke:black;" points="856,-49.5001 866,-46 856,-42.5001 856,-49.5001"/>
<text text-anchor="middle" x="821" y="-49.9" style="font-family:Times New Roman;font-size:14.00;">c_down</text>
</g>
<!-- 4 -->
<g id="node7" class="node"><title>4</title>
<ellipse style="fill:none;stroke:black;" cx="1000" cy="-46" rx="18" ry="18"/>
<text text-anchor="middle" x="1000" y="-41.9" style="font-family:Times New Roman;font-size:14.00;">4</text>
</g>
<!-- 4&#45;&gt;4 -->
<g id="edge22" class="edge"><title>4&#45;&gt;4</title>
<path style="fill:none;stroke:black;" d="M995,-63C994,-73 996,-82 1000,-82 1003,-82 1004,-78 1005,-73"/>
<polygon style="fill:black;stroke:black;" points="1008.5,-73 1005,-63 1001.5,-73 1008.5,-73"/>
<text text-anchor="middle" x="1000" y="-85.9" style="font-family:Times New Roman;font-size:14.00;">o_upb</text>
</g>
<!-- 4&#45;&gt;4 -->
<g id="edge24" class="edge"><title>4&#45;&gt;4</title>
<path style="fill:none;stroke:black;" d="M983,-54C953,-73 958,-100 1000,-100 1038,-100 1046,-78 1025,-60"/>
<polygon style="fill:black;stroke:black;" points="1027.1,-57.2 1017,-54 1022.9,-62.8 1027.1,-57.2"/>
<text text-anchor="middle" x="1000" y="-103.9" style="font-family:Times New Roman;font-size:14.00;">o_lwb</text>
</g>
<!-- 8 -->
<g id="node11" class="node"><title>8</title>
<ellipse style="fill:none;stroke:black;" cx="1118" cy="-19" rx="18" ry="18"/>
<text text-anchor="middle" x="1118" y="-14.9" style="font-family:Times New Roman;font-size:14.00;">8</text>
</g>
<!-- 4&#45;&gt;8 -->
<g id="edge20" class="edge"><title>4&#45;&gt;8</title>
<path style="fill:none;stroke:black;" d="M1018,-42C1037,-38 1068,-30 1090,-25"/>
<polygon style="fill:black;stroke:black;" points="1090.88,-28.3933 1100,-23 1089.51,-21.5292 1090.88,-28.3933"/>
<text text-anchor="middle" x="1059" y="-40.9" style="font-family:Times New Roman;font-size:14.00;">c_arlw</text>
</g>
<!-- 5 -->
<g id="node8" class="node"><title>5</title>
<ellipse style="fill:none;stroke:black;" cx="400" cy="-62" rx="18" ry="18"/>
<text text-anchor="middle" x="400" y="-57.9" style="font-family:Times New Roman;font-size:14.00;">5</text>
</g>
<!-- 5&#45;&gt;5 -->
<g id="edge28" class="edge"><title>5&#45;&gt;5</title>
<path style="fill:none;stroke:black;" d="M395,-79C394,-89 396,-98 400,-98 403,-98 404,-94 405,-89"/>
<polygon style="fill:black;stroke:black;" points="408.5,-89 405,-79 401.5,-89 408.5,-89"/>
<text text-anchor="middle" x="400" y="-101.9" style="font-family:Times New Roman;font-size:14.00;">o_upb</text>
</g>
<!-- 5&#45;&gt;5 -->
<g id="edge30" class="edge"><title>5&#45;&gt;5</title>
<path style="fill:none;stroke:black;" d="M383,-70C353,-89 358,-116 400,-116 438,-116 446,-94 425,-76"/>
<polygon style="fill:black;stroke:black;" points="427.1,-73.2 417,-70 422.9,-78.8 427.1,-73.2"/>
<text text-anchor="middle" x="400" y="-119.9" style="font-family:Times New Roman;font-size:14.00;">o_lwb</text>
</g>
<!-- 10 -->
<g id="node12" class="node"><title>10</title>
<ellipse style="fill:none;stroke:black;" cx="523" cy="-62" rx="23.1233" ry="23.1233"/>
<text text-anchor="middle" x="523" y="-57.9" style="font-family:Times New Roman;font-size:14.00;">10</text>
</g>
<!-- 5&#45;&gt;10 -->
<g id="edge26" class="edge"><title>5&#45;&gt;10</title>
<path style="fill:none;stroke:black;" d="M418,-62C437,-62 467,-62 490,-62"/>
<polygon style="fill:black;stroke:black;" points="490,-65.5001 500,-62 490,-58.5001 490,-65.5001"/>
<text text-anchor="middle" x="459" y="-65.9" style="font-family:Times New Roman;font-size:14.00;">c_arup</text>
</g>
<!-- 6&#45;&gt;5 -->
<g id="edge32" class="edge"><title>6&#45;&gt;5</title>
<path style="fill:none;stroke:black;" d="M302,-62C321,-62 350,-62 372,-62"/>
<polygon style="fill:black;stroke:black;" points="372,-65.5001 382,-62 372,-58.5001 372,-65.5001"/>
<text text-anchor="middle" x="342" y="-65.9" style="font-family:Times New Roman;font-size:14.00;">c_lvlw</text>
</g>
<!-- 6&#45;&gt;6 -->
<g id="edge34" class="edge"><title>6&#45;&gt;6</title>
<path style="fill:none;stroke:black;" d="M280,-80C279,-89 280,-98 284,-98 286,-98 288,-95 288,-90"/>
<polygon style="fill:black;stroke:black;" points="291.5,-90 288,-80 284.5,-90 291.5,-90"/>
<text text-anchor="middle" x="284" y="-101.9" style="font-family:Times New Roman;font-size:14.00;">o_upb</text>
</g>
<!-- 6&#45;&gt;6 -->
<g id="edge36" class="edge"><title>6&#45;&gt;6</title>
<path style="fill:none;stroke:black;" d="M268,-70C238,-89 243,-116 284,-116 321,-116 329,-94 308,-76"/>
<polygon style="fill:black;stroke:black;" points="310.1,-73.2 300,-70 305.9,-78.8 310.1,-73.2"/>
<text text-anchor="middle" x="284" y="-119.9" style="font-family:Times New Roman;font-size:14.00;">o_lwb</text>
</g>
<!-- 7&#45;&gt;4 -->
<g id="edge38" class="edge"><title>7&#45;&gt;4</title>
<path style="fill:none;stroke:black;" d="M902,-46C921,-46 950,-46 972,-46"/>
<polygon style="fill:black;stroke:black;" points="972,-49.5001 982,-46 972,-42.5001 972,-49.5001"/>
<text text-anchor="middle" x="942" y="-49.9" style="font-family:Times New Roman;font-size:14.00;">c_lvup</text>
</g>
<!-- 7&#45;&gt;7 -->
<g id="edge40" class="edge"><title>7&#45;&gt;7</title>
<path style="fill:none;stroke:black;" d="M879,-63C878,-73 880,-82 884,-82 887,-82 888,-78 889,-73"/>
<polygon style="fill:black;stroke:black;" points="892.5,-73 889,-63 885.5,-73 892.5,-73"/>
<text text-anchor="middle" x="884" y="-85.9" style="font-family:Times New Roman;font-size:14.00;">o_upb</text>
</g>
<!-- 7&#45;&gt;7 -->
<g id="edge42" class="edge"><title>7&#45;&gt;7</title>
<path style="fill:none;stroke:black;" d="M867,-54C837,-73 842,-100 884,-100 922,-100 930,-78 909,-60"/>
<polygon style="fill:black;stroke:black;" points="911.1,-57.2 901,-54 906.9,-62.8 911.1,-57.2"/>
<text text-anchor="middle" x="884" y="-103.9" style="font-family:Times New Roman;font-size:14.00;">o_lwb</text>
</g>
<!-- 8&#45;&gt;1 -->
<g id="edge44" class="edge"><title>8&#45;&gt;1</title>
<path style="fill:none;stroke:black;" d="M1100,-14C1078,-9 1036,-0 1000,-0 180,-0 180,-0 180,-0 149,-0 115,-11 91,-20"/>
<polygon style="fill:black;stroke:black;" points="89.7166,-16.7402 82,-24 92.5596,-23.1369 89.7166,-16.7402"/>
<text text-anchor="middle" x="582" y="-3.9" style="font-family:Times New Roman;font-size:14.00;">c_stp</text>
</g>
<!-- 8&#45;&gt;8 -->
<g id="edge46" class="edge"><title>8&#45;&gt;8</title>
<path style="fill:none;stroke:black;" d="M1113,-36C1112,-46 1114,-55 1118,-55 1121,-55 1122,-51 1123,-46"/>
<polygon style="fill:black;stroke:black;" points="1126.5,-46 1123,-36 1119.5,-46 1126.5,-46"/>
<text text-anchor="middle" x="1118" y="-58.9" style="font-family:Times New Roman;font-size:14.00;">o_upb</text>
</g>
<!-- 8&#45;&gt;8 -->
<g id="edge48" class="edge"><title>8&#45;&gt;8</title>
<path style="fill:none;stroke:black;" d="M1101,-27C1071,-46 1076,-73 1118,-73 1156,-73 1164,-51 1143,-33"/>
<polygon style="fill:black;stroke:black;" points="1145.1,-30.2 1135,-27 1140.9,-35.8 1145.1,-30.2"/>
<text text-anchor="middle" x="1118" y="-76.9" style="font-family:Times New Roman;font-size:14.00;">o_lwb</text>
</g>
<!-- 10&#45;&gt;9 -->
<g id="edge54" class="edge"><title>10&#45;&gt;9</title>
<path style="fill:none;stroke:black;" d="M546,-62C564,-62 588,-62 608,-62"/>
<polygon style="fill:black;stroke:black;" points="608,-65.5001 618,-62 608,-58.5001 608,-65.5001"/>
<text text-anchor="middle" x="582" y="-65.9" style="font-family:Times New Roman;font-size:14.00;">c_stp</text>
</g>
<!-- 10&#45;&gt;10 -->
<g id="edge56" class="edge"><title>10&#45;&gt;10</title>
<path style="fill:none;stroke:black;" d="M518,-84C517,-94 519,-103 523,-103 526,-103 527,-99 528,-94"/>
<polygon style="fill:black;stroke:black;" points="531.5,-94 528,-84 524.5,-94 531.5,-94"/>
<text text-anchor="middle" x="523" y="-106.9" style="font-family:Times New Roman;font-size:14.00;">o_upb</text>
</g>
<!-- 10&#45;&gt;10 -->
<g id="edge58" class="edge"><title>10&#45;&gt;10</title>
<path style="fill:none;stroke:black;" d="M503,-73C476,-94 483,-121 523,-121 559,-121 568,-99 550,-80"/>
<polygon style="fill:black;stroke:black;" points="552.546,-77.5962 543,-73 547.596,-82.546 552.546,-77.5962"/>
<text text-anchor="middle" x="523" y="-124.9" style="font-family:Times New Roman;font-size:14.00;">o_lwb</text>
</g>
</g>
</svg>
