<?xml version="1.0" encoding="UTF-8" standalone="no"?>
<!DOCTYPE svg PUBLIC "-//W3C//DTD SVG 1.0//EN"
 "http://www.w3.org/TR/2001/REC-SVG-20010904/DTD/svg10.dtd" [
 <!ATTLIST svg xmlns:xlink CDATA #FIXED "http://www.w3.org/1999/xlink">
]>
<!-- Generated by Graphviz version 2.20.2 (Tue Mar &#160;2 21:46:26 UTC 2010)
     For user: (mtmoor) Prof. Thomas Moor -->
<!-- Title: E_drsaf1 Pages: 1 -->
<svg width="504pt" height="395pt"
 viewBox="0.00 0.00 504.00 395.00" xmlns="http://www.w3.org/2000/svg" xmlns:xlink="http://www.w3.org/1999/xlink">
<g id="graph0" class="graph" transform="scale(1 1) rotate(0) translate(4 391)">
<title>E_drsaf1</title>
<polygon style="fill:none;stroke:none;" points="-4,4 -4,-391 500,-391 500,4 -4,4"/>
<!-- dot_dummyinit_1 -->
<g id="node1" class="node"><title>dot_dummyinit_1</title>
</g>
<!-- Open -->
<g id="node3" class="node"><title>Open</title>
<ellipse style="fill:none;stroke:black;" cx="85" cy="-116" rx="36.8288" ry="36.8288"/>
<ellipse style="fill:none;stroke:black;" cx="85" cy="-116" rx="40.8288" ry="40.8288"/>
<text text-anchor="middle" x="85" y="-111.9" style="font-family:Times New Roman;font-size:14.00;">Open</text>
</g>
<!-- dot_dummyinit_1&#45;&gt;Open -->
<g id="edge2" class="edge"><title>dot_dummyinit_1&#45;&gt;Open</title>
<path style="fill:none;stroke:black;" d="M6,-116C9,-116 21,-116 34,-116"/>
<polygon style="fill:black;stroke:black;" points="34,-119.5 44,-116 34,-112.5 34,-119.5"/>
</g>
<!-- Open&#45;&gt;Open -->
<g id="edge4" class="edge"><title>Open&#45;&gt;Open</title>
<path style="fill:none;stroke:black;" d="M83,-157C83,-167 84,-175 85,-175 86,-175 86,-172 87,-167"/>
<polygon style="fill:black;stroke:black;" points="90.5001,-167 87,-157 83.5001,-167 90.5001,-167"/>
<text text-anchor="middle" x="85" y="-178.9" style="font-family:Times New Roman;font-size:14.00;">d_stp</text>
</g>
<!-- Open&#45;&gt;Open -->
<g id="edge6" class="edge"><title>Open&#45;&gt;Open</title>
<path style="fill:none;stroke:black;" d="M58,-147C50,-170 58,-193 85,-193 108,-193 117,-176 114,-157"/>
<polygon style="fill:black;stroke:black;" points="117.393,-156.119 112,-147 110.529,-157.492 117.393,-156.119"/>
<text text-anchor="middle" x="85" y="-196.9" style="font-family:Times New Roman;font-size:14.00;">d_open</text>
</g>
<!-- Open&#45;&gt;Open -->
<g id="edge8" class="edge"><title>Open&#45;&gt;Open</title>
<path style="fill:none;stroke:black;" d="M48,-134C-3,-166 10,-211 85,-211 156,-211 171,-171 130,-140"/>
<polygon style="fill:black;stroke:black;" points="132.1,-137.2 122,-134 127.9,-142.8 132.1,-137.2"/>
<text text-anchor="middle" x="85" y="-214.9" style="font-family:Times New Roman;font-size:14.00;">d_close</text>
</g>
<!-- Open&#45;&gt;Open -->
<g id="edge10" class="edge"><title>Open&#45;&gt;Open</title>
<path style="fill:none;stroke:black;" d="M49,-135C-6,-175 6,-229 85,-229 160,-229 175,-180 129,-141"/>
<polygon style="fill:black;stroke:black;" points="131.1,-138.2 121,-135 126.9,-143.8 131.1,-138.2"/>
<text text-anchor="middle" x="85" y="-232.9" style="font-family:Times New Roman;font-size:14.00;">a_open</text>
</g>
<!-- Closed -->
<g id="node4" class="node"><title>Closed</title>
<ellipse style="fill:none;stroke:black;" cx="258" cy="-191" rx="41.932" ry="41.932"/>
<ellipse style="fill:none;stroke:black;" cx="258" cy="-191" rx="45.889" ry="45.889"/>
<text text-anchor="middle" x="258" y="-186.9" style="font-family:Times New Roman;font-size:14.00;">Closed</text>
</g>
<!-- Open&#45;&gt;Closed -->
<g id="edge12" class="edge"><title>Open&#45;&gt;Closed</title>
<path style="fill:none;stroke:black;" d="M123,-132C147,-143 179,-157 207,-169"/>
<polygon style="fill:black;stroke:black;" points="205.44,-172.137 216,-173 208.283,-165.74 205.44,-172.137"/>
<text text-anchor="middle" x="169" y="-164.9" style="font-family:Times New Roman;font-size:14.00;">a_close</text>
</g>
<!-- Opening -->
<g id="node5" class="node"><title>Opening</title>
<ellipse style="fill:none;stroke:black;" cx="445" cy="-51" rx="50.9221" ry="50.9221"/>
<text text-anchor="middle" x="445" y="-46.9" style="font-family:Times New Roman;font-size:14.00;">Opening</text>
</g>
<!-- Closed&#45;&gt;Opening -->
<g id="edge18" class="edge"><title>Closed&#45;&gt;Opening</title>
<path style="fill:none;stroke:black;" d="M295,-163C323,-142 364,-112 396,-88"/>
<polygon style="fill:black;stroke:black;" points="398.1,-90.8 404,-82 393.9,-85.2 398.1,-90.8"/>
<text text-anchor="middle" x="349" y="-144.9" style="font-family:Times New Roman;font-size:14.00;">d_open</text>
</g>
<!-- Moving -->
<g id="node6" class="node"><title>Moving</title>
<ellipse style="fill:none;stroke:black;" cx="445" cy="-271" rx="45.8622" ry="45.8622"/>
<text text-anchor="middle" x="445" y="-266.9" style="font-family:Times New Roman;font-size:14.00;">Moving</text>
</g>
<!-- Closed&#45;&gt;Moving -->
<g id="edge14" class="edge"><title>Closed&#45;&gt;Moving</title>
<path style="fill:none;stroke:black;" d="M302,-204C325,-211 352,-221 376,-232 383,-235 390,-238 397,-242"/>
<polygon style="fill:black;stroke:black;" points="395.559,-245.203 406,-247 398.958,-239.084 395.559,-245.203"/>
<text text-anchor="middle" x="349" y="-235.9" style="font-family:Times New Roman;font-size:14.00;">c_up</text>
</g>
<!-- Closed&#45;&gt;Moving -->
<g id="edge16" class="edge"><title>Closed&#45;&gt;Moving</title>
<path style="fill:none;stroke:black;" d="M303,-179C326,-176 354,-176 376,-188 389,-195 385,-204 394,-216 398,-220 402,-225 406,-230"/>
<polygon style="fill:black;stroke:black;" points="403.781,-232.779 413,-238 409.049,-228.169 403.781,-232.779"/>
<text text-anchor="middle" x="349" y="-191.9" style="font-family:Times New Roman;font-size:14.00;">c_down</text>
</g>
<!-- Opening&#45;&gt;Open -->
<g id="edge26" class="edge"><title>Opening&#45;&gt;Open</title>
<path style="fill:none;stroke:black;" d="M395,-60C327,-72 205,-95 136,-107"/>
<polygon style="fill:black;stroke:black;" points="135.119,-103.607 126,-109 136.492,-110.471 135.119,-103.607"/>
<text text-anchor="middle" x="258" y="-98.9" style="font-family:Times New Roman;font-size:14.00;">a_open</text>
</g>
<!-- Opening&#45;&gt;Opening -->
<g id="edge22" class="edge"><title>Opening&#45;&gt;Opening</title>
<path style="fill:none;stroke:black;" d="M413,-91C406,-115 417,-138 445,-138 469,-138 481,-121 479,-101"/>
<polygon style="fill:black;stroke:black;" points="482.393,-100.119 477,-91 475.529,-101.492 482.393,-100.119"/>
<text text-anchor="middle" x="445" y="-141.9" style="font-family:Times New Roman;font-size:14.00;">d_open</text>
</g>
<!-- Opening&#45;&gt;Opening -->
<g id="edge24" class="edge"><title>Opening&#45;&gt;Opening</title>
<path style="fill:none;stroke:black;" d="M411,-89C397,-122 408,-156 445,-156 478,-156 491,-128 482,-99"/>
<polygon style="fill:black;stroke:black;" points="485.226,-97.5725 479,-89 478.521,-99.584 485.226,-97.5725"/>
<text text-anchor="middle" x="445" y="-159.9" style="font-family:Times New Roman;font-size:14.00;">d_close</text>
</g>
<!-- Opening&#45;&gt;Opening -->
<g id="edge20" class="edge"><title>Opening&#45;&gt;Opening</title>
<path style="fill:none;stroke:black;" d="M439,-102C440,-112 442,-120 445,-120 447,-120 448,-117 449,-112"/>
<polygon style="fill:black;stroke:black;" points="452.471,-112.492 451,-102 445.607,-111.119 452.471,-112.492"/>
<text text-anchor="middle" x="445" y="-123.9" style="font-family:Times New Roman;font-size:14.00;">d_stp</text>
</g>
<!-- Moving&#45;&gt;Closed -->
<g id="edge28" class="edge"><title>Moving&#45;&gt;Closed</title>
<path style="fill:none;stroke:black;" d="M399,-269C375,-266 346,-260 322,-249 313,-245 305,-238 297,-232"/>
<polygon style="fill:black;stroke:black;" points="298.831,-228.951 289,-225 294.221,-234.219 298.831,-228.951"/>
<text text-anchor="middle" x="349" y="-267.9" style="font-family:Times New Roman;font-size:14.00;">c_stp</text>
</g>
<!-- Moving&#45;&gt;Moving -->
<g id="edge30" class="edge"><title>Moving&#45;&gt;Moving</title>
<path style="fill:none;stroke:black;" d="M436,-316C437,-327 440,-335 445,-335 448,-335 451,-332 452,-326"/>
<polygon style="fill:black;stroke:black;" points="455.471,-326.492 454,-316 448.607,-325.119 455.471,-326.492"/>
<text text-anchor="middle" x="445" y="-338.9" style="font-family:Times New Roman;font-size:14.00;">c_up</text>
</g>
<!-- Moving&#45;&gt;Moving -->
<g id="edge32" class="edge"><title>Moving&#45;&gt;Moving</title>
<path style="fill:none;stroke:black;" d="M415,-306C406,-330 416,-353 445,-353 470,-353 481,-336 478,-316"/>
<polygon style="fill:black;stroke:black;" points="481.226,-314.573 475,-306 474.521,-316.584 481.226,-314.573"/>
<text text-anchor="middle" x="445" y="-356.9" style="font-family:Times New Roman;font-size:14.00;">c_down</text>
</g>
</g>
</svg>
