<?xml version="1.0" encoding="UTF-8" standalone="no"?>
<!DOCTYPE svg PUBLIC "-//W3C//DTD SVG 1.1//EN"
 "http://www.w3.org/Graphics/SVG/1.1/DTD/svg11.dtd">
<!-- Generated by graphviz version 12.2.1 (20241206.2353)
 -->
<!-- Title: cabin Pages: 1 -->
<svg width="720pt" height="356pt"
 viewBox="0.00 0.00 720.00 355.83" xmlns="http://www.w3.org/2000/svg" xmlns:xlink="http://www.w3.org/1999/xlink">
<g id="graph0" class="graph" transform="scale(0.645613 0.645613) rotate(0) translate(4 547.15)">
<title>cabin</title>
<!-- dot_dummyinit_1 -->
<g id="node1" class="node">
<title>dot_dummyinit_1</title>
</g>
<!-- IdleLw -->
<g id="node2" class="node">
<title>IdleLw</title>
<path fill="none" stroke="black" d="M104.72,-73C104.72,-73 49.72,-73 49.72,-73 43.72,-73 37.72,-67 37.72,-61 37.72,-61 37.72,-49 37.72,-49 37.72,-43 43.72,-37 49.72,-37 49.72,-37 104.72,-37 104.72,-37 110.72,-37 116.72,-43 116.72,-49 116.72,-49 116.72,-61 116.72,-61 116.72,-67 110.72,-73 104.72,-73"/>
<text text-anchor="start" x="49.72" y="-49.58" font-family="Arial" font-size="14.00">IdleLw</text>
<polygon fill="black" stroke="none" points="98.72,-45.12 98.72,-64.88 106.72,-64.88 106.72,-45.12 98.72,-45.12"/>
</g>
<!-- dot_dummyinit_1&#45;&gt;IdleLw -->
<g id="edge1" class="edge">
<title>dot_dummyinit_1&#45;&gt;IdleLw</title>
<path fill="none" stroke="black" d="M0.77,-55C1.65,-55 12.88,-55 26.41,-55"/>
<polygon fill="black" stroke="black" points="26.1,-58.5 36.1,-55 26.1,-51.5 26.1,-58.5"/>
</g>
<!-- IdleLw&#45;&gt;IdleLw -->
<g id="edge2" class="edge">
<title>IdleLw&#45;&gt;IdleLw</title>
<path fill="none" stroke="black" d="M66.73,-73.15C65.11,-82.54 68.61,-91 77.22,-91 82.06,-91 85.29,-88.32 86.9,-84.31"/>
<polygon fill="black" stroke="black" points="90.36,-84.89 87.6,-74.66 83.38,-84.38 90.36,-84.89"/>
<text text-anchor="middle" x="77.22" y="-93.45" font-family="Arial" font-size="14.00">c_stp</text>
</g>
<!-- UpLw -->
<g id="node5" class="node">
<title>UpLw</title>
<path fill="none" stroke="black" d="M226.97,-129C226.97,-129 196.97,-129 196.97,-129 190.97,-129 184.97,-123 184.97,-117 184.97,-117 184.97,-105 184.97,-105 184.97,-99 190.97,-93 196.97,-93 196.97,-93 226.97,-93 226.97,-93 232.97,-93 238.97,-99 238.97,-105 238.97,-105 238.97,-117 238.97,-117 238.97,-123 232.97,-129 226.97,-129"/>
<text text-anchor="middle" x="211.97" y="-105.58" font-family="Arial" font-size="14.00">UpLw</text>
</g>
<!-- IdleLw&#45;&gt;UpLw -->
<g id="edge3" class="edge">
<title>IdleLw&#45;&gt;UpLw</title>
<path fill="none" stroke="black" d="M105.61,-73.45C114.62,-78.97 124.86,-84.7 134.72,-89 147,-94.36 160.95,-98.82 173.53,-102.29"/>
<polygon fill="black" stroke="black" points="172.59,-105.66 183.15,-104.82 174.37,-98.89 172.59,-105.66"/>
<text text-anchor="middle" x="150.84" y="-102.42" font-family="Arial" font-size="14.00">c_up</text>
</g>
<!-- DownLw -->
<g id="node8" class="node">
<title>DownLw</title>
<path fill="none" stroke="black" d="M1095.22,-103C1095.22,-103 1051.47,-103 1051.47,-103 1045.47,-103 1039.47,-97 1039.47,-91 1039.47,-91 1039.47,-79 1039.47,-79 1039.47,-73 1045.47,-67 1051.47,-67 1051.47,-67 1095.22,-67 1095.22,-67 1101.22,-67 1107.22,-73 1107.22,-79 1107.22,-79 1107.22,-91 1107.22,-91 1107.22,-97 1101.22,-103 1095.22,-103"/>
<text text-anchor="middle" x="1073.34" y="-79.58" font-family="Arial" font-size="14.00">DownLw</text>
</g>
<!-- IdleLw&#45;&gt;DownLw -->
<g id="edge4" class="edge">
<title>IdleLw&#45;&gt;DownLw</title>
<path fill="none" stroke="black" d="M116.99,-47.84C143.38,-43.58 179.17,-39 210.97,-39 210.97,-39 210.97,-39 930.47,-39 964.64,-39 1001.29,-51.23 1028.78,-63.07"/>
<polygon fill="black" stroke="black" points="1027.27,-66.23 1037.83,-67.12 1030.13,-59.84 1027.27,-66.23"/>
<text text-anchor="middle" x="543.59" y="-41.45" font-family="Arial" font-size="14.00">c_down</text>
</g>
<!-- IdleUp -->
<g id="node3" class="node">
<title>IdleUp</title>
<path fill="none" stroke="black" d="M657.22,-415C657.22,-415 602.22,-415 602.22,-415 596.22,-415 590.22,-409 590.22,-403 590.22,-403 590.22,-391 590.22,-391 590.22,-385 596.22,-379 602.22,-379 602.22,-379 657.22,-379 657.22,-379 663.22,-379 669.22,-385 669.22,-391 669.22,-391 669.22,-403 669.22,-403 669.22,-409 663.22,-415 657.22,-415"/>
<text text-anchor="start" x="602.22" y="-391.57" font-family="Arial" font-size="14.00">IdleUp</text>
<polygon fill="black" stroke="none" points="651.22,-387.12 651.22,-406.88 659.22,-406.88 659.22,-387.12 651.22,-387.12"/>
</g>
<!-- IdleUp&#45;&gt;IdleUp -->
<g id="edge8" class="edge">
<title>IdleUp&#45;&gt;IdleUp</title>
<path fill="none" stroke="black" d="M615.11,-415.15C612.86,-424.54 617.73,-433 629.72,-433 636.46,-433 640.95,-430.32 643.19,-426.31"/>
<polygon fill="black" stroke="black" points="646.64,-426.96 644.17,-416.66 639.68,-426.25 646.64,-426.96"/>
<text text-anchor="middle" x="629.72" y="-435.45" font-family="Arial" font-size="14.00">c_stp</text>
</g>
<!-- UpUp -->
<g id="node7" class="node">
<title>UpUp</title>
<path fill="none" stroke="black" d="M484.97,-363C484.97,-363 454.97,-363 454.97,-363 448.97,-363 442.97,-357 442.97,-351 442.97,-351 442.97,-339 442.97,-339 442.97,-333 448.97,-327 454.97,-327 454.97,-327 484.97,-327 484.97,-327 490.97,-327 496.97,-333 496.97,-339 496.97,-339 496.97,-351 496.97,-351 496.97,-357 490.97,-363 484.97,-363"/>
<text text-anchor="middle" x="469.97" y="-339.57" font-family="Arial" font-size="14.00">UpUp</text>
</g>
<!-- IdleUp&#45;&gt;UpUp -->
<g id="edge9" class="edge">
<title>IdleUp&#45;&gt;UpUp</title>
<path fill="none" stroke="black" d="M589.8,-384.17C564.86,-375.95 532.66,-365.34 508.08,-357.23"/>
<polygon fill="black" stroke="black" points="509.4,-353.98 498.81,-354.18 507.21,-360.63 509.4,-353.98"/>
<text text-anchor="middle" x="543.59" y="-379.64" font-family="Arial" font-size="14.00">c_up</text>
</g>
<!-- DownUp -->
<g id="node10" class="node">
<title>DownUp</title>
<path fill="none" stroke="black" d="M807.47,-363C807.47,-363 763.72,-363 763.72,-363 757.72,-363 751.72,-357 751.72,-351 751.72,-351 751.72,-339 751.72,-339 751.72,-333 757.72,-327 763.72,-327 763.72,-327 807.47,-327 807.47,-327 813.47,-327 819.47,-333 819.47,-339 819.47,-339 819.47,-351 819.47,-351 819.47,-357 813.47,-363 807.47,-363"/>
<text text-anchor="middle" x="785.59" y="-339.57" font-family="Arial" font-size="14.00">DownUp</text>
</g>
<!-- IdleUp&#45;&gt;DownUp -->
<g id="edge10" class="edge">
<title>IdleUp&#45;&gt;DownUp</title>
<path fill="none" stroke="black" d="M669.31,-402.88C689.27,-404.31 713.61,-403.46 733.72,-395 745.49,-390.05 756.02,-380.98 764.41,-371.92"/>
<polygon fill="black" stroke="black" points="766.92,-374.37 770.79,-364.5 761.61,-369.81 766.92,-374.37"/>
<text text-anchor="middle" x="710.47" y="-405.87" font-family="Arial" font-size="14.00">c_down</text>
</g>
<!-- IdleMd -->
<g id="node4" class="node">
<title>IdleMd</title>
<path fill="none" stroke="black" d="M560.22,-493C560.22,-493 526.97,-493 526.97,-493 520.97,-493 514.97,-487 514.97,-481 514.97,-481 514.97,-469 514.97,-469 514.97,-463 520.97,-457 526.97,-457 526.97,-457 560.22,-457 560.22,-457 566.22,-457 572.22,-463 572.22,-469 572.22,-469 572.22,-481 572.22,-481 572.22,-487 566.22,-493 560.22,-493"/>
<text text-anchor="middle" x="543.59" y="-469.57" font-family="Arial" font-size="14.00">IdleMd</text>
</g>
<!-- IdleMd&#45;&gt;IdleMd -->
<g id="edge5" class="edge">
<title>IdleMd&#45;&gt;IdleMd</title>
<path fill="none" stroke="black" d="M530.28,-493.15C528.23,-502.54 532.67,-511 543.59,-511 549.74,-511 553.84,-508.32 555.88,-504.31"/>
<polygon fill="black" stroke="black" points="559.33,-504.94 556.77,-494.66 552.36,-504.29 559.33,-504.94"/>
<text text-anchor="middle" x="543.59" y="-513.45" font-family="Arial" font-size="14.00">c_stp</text>
</g>
<!-- UpMd -->
<g id="node6" class="node">
<title>UpMd</title>
<path fill="none" stroke="black" d="M353.72,-302C353.72,-302 323.72,-302 323.72,-302 317.72,-302 311.72,-296 311.72,-290 311.72,-290 311.72,-278 311.72,-278 311.72,-272 317.72,-266 323.72,-266 323.72,-266 353.72,-266 353.72,-266 359.72,-266 365.72,-272 365.72,-278 365.72,-278 365.72,-290 365.72,-290 365.72,-296 359.72,-302 353.72,-302"/>
<text text-anchor="middle" x="338.72" y="-278.57" font-family="Arial" font-size="14.00">UpMd</text>
</g>
<!-- IdleMd&#45;&gt;UpMd -->
<g id="edge6" class="edge">
<title>IdleMd&#45;&gt;UpMd</title>
<path fill="none" stroke="black" d="M514.82,-458.01C494.18,-444.86 465.77,-425.63 442.97,-406 413.84,-380.92 408.42,-372.45 383.72,-343 375.38,-333.06 366.74,-321.72 359.34,-311.66"/>
<polygon fill="black" stroke="black" points="362.28,-309.75 353.57,-303.71 356.61,-313.86 362.28,-309.75"/>
<text text-anchor="middle" x="404.34" y="-391.76" font-family="Arial" font-size="14.00">c_up</text>
</g>
<!-- DownMd -->
<g id="node9" class="node">
<title>DownMd</title>
<path fill="none" stroke="black" d="M952.47,-294C952.47,-294 906.47,-294 906.47,-294 900.47,-294 894.47,-288 894.47,-282 894.47,-282 894.47,-270 894.47,-270 894.47,-264 900.47,-258 906.47,-258 906.47,-258 952.47,-258 952.47,-258 958.47,-258 964.47,-264 964.47,-270 964.47,-270 964.47,-282 964.47,-282 964.47,-288 958.47,-294 952.47,-294"/>
<text text-anchor="middle" x="929.47" y="-270.57" font-family="Arial" font-size="14.00">DownMd</text>
</g>
<!-- IdleMd&#45;&gt;DownMd -->
<g id="edge7" class="edge">
<title>IdleMd&#45;&gt;DownMd</title>
<path fill="none" stroke="black" d="M572.38,-487.34C634.58,-512.86 786.56,-563.3 876.47,-491 905.14,-467.95 920.02,-358.99 925.69,-305.61"/>
<polygon fill="black" stroke="black" points="929.17,-306.03 926.7,-295.73 922.21,-305.32 929.17,-306.03"/>
<text text-anchor="middle" x="710.47" y="-529.85" font-family="Arial" font-size="14.00">c_down</text>
</g>
<!-- UpLw&#45;&gt;IdleLw -->
<g id="edge11" class="edge">
<title>UpLw&#45;&gt;IdleLw</title>
<path fill="none" stroke="black" d="M196.5,-92.91C188.67,-84.37 178.3,-74.85 166.97,-69.25 155.07,-63.37 141.28,-59.82 128.16,-57.71"/>
<polygon fill="black" stroke="black" points="128.76,-54.25 118.38,-56.4 127.83,-61.19 128.76,-54.25"/>
<text text-anchor="middle" x="150.84" y="-71.7" font-family="Arial" font-size="14.00">c_stp</text>
</g>
<!-- UpLw&#45;&gt;UpLw -->
<g id="edge12" class="edge">
<title>UpLw&#45;&gt;UpLw</title>
<path fill="none" stroke="black" d="M200.91,-129.15C199.21,-138.54 202.9,-147 211.97,-147 217.07,-147 220.47,-144.32 222.17,-140.31"/>
<polygon fill="black" stroke="black" points="225.63,-140.9 222.91,-130.66 218.65,-140.36 225.63,-140.9"/>
<text text-anchor="middle" x="211.97" y="-149.45" font-family="Arial" font-size="14.00">c_up</text>
</g>
<!-- UpLw&#45;&gt;UpMd -->
<g id="edge13" class="edge">
<title>UpLw&#45;&gt;UpMd</title>
<path fill="none" stroke="black" d="M226.08,-129.19C248.02,-159.61 292.27,-220.98 317.99,-256.63"/>
<polygon fill="black" stroke="black" points="314.83,-258.24 323.52,-264.31 320.51,-254.15 314.83,-258.24"/>
<text text-anchor="middle" x="275.34" y="-220.53" font-family="Arial" font-size="14.00">c_lvlw</text>
</g>
<!-- UpLw&#45;&gt;DownLw -->
<g id="edge14" class="edge">
<title>UpLw&#45;&gt;DownLw</title>
<path fill="none" stroke="black" d="M239.41,-119.8C264.43,-127.35 303.21,-137 337.72,-137 337.72,-137 337.72,-137 930.47,-137 966.06,-137 1003.77,-122.4 1031.36,-108.67"/>
<polygon fill="black" stroke="black" points="1032.79,-111.87 1040.07,-104.17 1029.58,-105.65 1032.79,-111.87"/>
<text text-anchor="middle" x="629.72" y="-139.45" font-family="Arial" font-size="14.00">c_down</text>
</g>
<!-- UpMd&#45;&gt;IdleMd -->
<g id="edge15" class="edge">
<title>UpMd&#45;&gt;IdleMd</title>
<path fill="none" stroke="black" d="M341.88,-302.23C345.87,-328.61 356.61,-377.69 383.72,-409 414.42,-444.45 467.22,-461.24 503.47,-468.93"/>
<polygon fill="black" stroke="black" points="502.63,-472.33 513.12,-470.82 503.98,-465.46 502.63,-472.33"/>
<text text-anchor="middle" x="404.34" y="-442.18" font-family="Arial" font-size="14.00">c_stp</text>
</g>
<!-- UpMd&#45;&gt;UpMd -->
<g id="edge16" class="edge">
<title>UpMd&#45;&gt;UpMd</title>
<path fill="none" stroke="black" d="M327.25,-302.15C325.49,-311.54 329.31,-320 338.72,-320 344.01,-320 347.54,-317.32 349.29,-313.31"/>
<polygon fill="black" stroke="black" points="352.76,-313.91 350.06,-303.66 345.78,-313.35 352.76,-313.91"/>
<text text-anchor="middle" x="338.72" y="-322.45" font-family="Arial" font-size="14.00">c_up</text>
</g>
<!-- UpMd&#45;&gt;UpUp -->
<g id="edge17" class="edge">
<title>UpMd&#45;&gt;UpUp</title>
<path fill="none" stroke="black" d="M366.19,-296.49C385.27,-305.5 411.26,-317.76 432.34,-327.71"/>
<polygon fill="black" stroke="black" points="430.63,-330.78 441.17,-331.88 433.62,-324.45 430.63,-330.78"/>
<text text-anchor="middle" x="404.34" y="-325.98" font-family="Arial" font-size="14.00">c_arup</text>
</g>
<!-- UpMd&#45;&gt;DownMd -->
<g id="edge18" class="edge">
<title>UpMd&#45;&gt;DownMd</title>
<path fill="none" stroke="black" d="M366.1,-269.68C391.64,-257.17 431.84,-241 468.97,-241 468.97,-241 468.97,-241 786.59,-241 819.6,-241 855.69,-250.04 883.21,-258.93"/>
<polygon fill="black" stroke="black" points="882.04,-262.22 892.64,-262.09 884.27,-255.59 882.04,-262.22"/>
<text text-anchor="middle" x="629.72" y="-243.45" font-family="Arial" font-size="14.00">c_down</text>
</g>
<!-- UpUp&#45;&gt;IdleUp -->
<g id="edge19" class="edge">
<title>UpUp&#45;&gt;IdleUp</title>
<path fill="none" stroke="black" d="M481.5,-363.31C489.17,-374.7 500.7,-388.4 514.97,-395 534.47,-404.02 557.93,-405.74 578.47,-404.73"/>
<polygon fill="black" stroke="black" points="578.63,-408.23 588.34,-404 578.11,-401.25 578.63,-408.23"/>
<text text-anchor="middle" x="543.59" y="-407.43" font-family="Arial" font-size="14.00">c_stp</text>
</g>
<!-- UpUp&#45;&gt;UpUp -->
<g id="edge20" class="edge">
<title>UpUp&#45;&gt;UpUp</title>
<path fill="none" stroke="black" d="M458.1,-363.15C456.27,-372.54 460.23,-381 469.97,-381 475.45,-381 479.1,-378.32 480.92,-374.31"/>
<polygon fill="black" stroke="black" points="484.38,-374.92 481.72,-364.66 477.4,-374.34 484.38,-374.92"/>
<text text-anchor="middle" x="469.97" y="-383.45" font-family="Arial" font-size="14.00">c_up</text>
</g>
<!-- UpUp&#45;&gt;DownUp -->
<g id="edge21" class="edge">
<title>UpUp&#45;&gt;DownUp</title>
<path fill="none" stroke="black" d="M497.44,-345C551.21,-345 673.75,-345 740.03,-345"/>
<polygon fill="black" stroke="black" points="739.83,-348.5 749.83,-345 739.83,-341.5 739.83,-348.5"/>
<text text-anchor="middle" x="629.72" y="-347.45" font-family="Arial" font-size="14.00">c_down</text>
</g>
<!-- DownLw&#45;&gt;IdleLw -->
<g id="edge22" class="edge">
<title>DownLw&#45;&gt;IdleLw</title>
<path fill="none" stroke="black" d="M1055.51,-66.56C1030.75,-41.56 981.87,0 930.47,0 210.97,0 210.97,0 210.97,0 176.39,0 140.34,-16.12 114.55,-30.91"/>
<polygon fill="black" stroke="black" points="112.95,-27.79 106.15,-35.91 116.53,-33.8 112.95,-27.79"/>
<text text-anchor="middle" x="543.59" y="-2.45" font-family="Arial" font-size="14.00">c_stp</text>
</g>
<!-- DownLw&#45;&gt;UpLw -->
<g id="edge23" class="edge">
<title>DownLw&#45;&gt;UpLw</title>
<path fill="none" stroke="black" d="M1039.09,-85C1010.34,-85 967.66,-85 930.47,-85 337.72,-85 337.72,-85 337.72,-85 307.93,-85 274.96,-92.2 250.4,-99.02"/>
<polygon fill="black" stroke="black" points="249.49,-95.63 240.86,-101.78 251.44,-102.36 249.49,-95.63"/>
<text text-anchor="middle" x="629.72" y="-87.45" font-family="Arial" font-size="14.00">c_up</text>
</g>
<!-- DownLw&#45;&gt;DownLw -->
<g id="edge24" class="edge">
<title>DownLw&#45;&gt;DownLw</title>
<path fill="none" stroke="black" d="M1060.43,-103.15C1058.45,-112.54 1062.75,-121 1073.34,-121 1079.3,-121 1083.27,-118.32 1085.25,-114.31"/>
<polygon fill="black" stroke="black" points="1088.71,-114.93 1086.12,-104.66 1081.74,-114.31 1088.71,-114.93"/>
<text text-anchor="middle" x="1073.34" y="-123.45" font-family="Arial" font-size="14.00">c_down</text>
</g>
<!-- DownMd&#45;&gt;IdleMd -->
<g id="edge25" class="edge">
<title>DownMd&#45;&gt;IdleMd</title>
<path fill="none" stroke="black" d="M917.76,-294.23C900.49,-322.13 863.86,-375.43 819.47,-406 746.65,-456.15 640.6,-469.9 583.87,-473.63"/>
<polygon fill="black" stroke="black" points="583.84,-470.13 574.05,-474.2 584.24,-477.12 583.84,-470.13"/>
<text text-anchor="middle" x="710.47" y="-461.5" font-family="Arial" font-size="14.00">c_stp</text>
</g>
<!-- DownMd&#45;&gt;UpMd -->
<g id="edge26" class="edge">
<title>DownMd&#45;&gt;UpMd</title>
<path fill="none" stroke="black" d="M912.13,-257.55C887.62,-232.01 838.6,-189 786.59,-189 468.97,-189 468.97,-189 468.97,-189 422.93,-189 382.46,-228.61 359.56,-256.68"/>
<polygon fill="black" stroke="black" points="356.84,-254.47 353.42,-264.49 362.35,-258.79 356.84,-254.47"/>
<text text-anchor="middle" x="629.72" y="-191.45" font-family="Arial" font-size="14.00">c_up</text>
</g>
<!-- DownMd&#45;&gt;DownLw -->
<g id="edge27" class="edge">
<title>DownMd&#45;&gt;DownLw</title>
<path fill="none" stroke="black" d="M944.07,-257.69C969.18,-223.89 1022.9,-151.56 1052.23,-112.08"/>
<polygon fill="black" stroke="black" points="1054.73,-114.59 1057.88,-104.47 1049.11,-110.41 1054.73,-114.59"/>
<text text-anchor="middle" x="1001.97" y="-205.67" font-family="Arial" font-size="14.00">c_arlw</text>
</g>
<!-- DownMd&#45;&gt;DownMd -->
<g id="edge28" class="edge">
<title>DownMd&#45;&gt;DownMd</title>
<path fill="none" stroke="black" d="M916.35,-294.15C914.34,-303.54 918.71,-312 929.47,-312 935.52,-312 939.56,-309.32 941.57,-305.31"/>
<polygon fill="black" stroke="black" points="945.02,-305.94 942.45,-295.66 938.05,-305.3 945.02,-305.94"/>
<text text-anchor="middle" x="929.47" y="-314.45" font-family="Arial" font-size="14.00">c_down</text>
</g>
<!-- DownUp&#45;&gt;IdleUp -->
<g id="edge29" class="edge">
<title>DownUp&#45;&gt;IdleUp</title>
<path fill="none" stroke="black" d="M751.51,-354.68C732.59,-360.37 708.46,-367.87 687.22,-375.25 684.88,-376.06 682.49,-376.91 680.09,-377.78"/>
<polygon fill="black" stroke="black" points="679.09,-374.42 670.92,-381.16 681.51,-380.98 679.09,-374.42"/>
<text text-anchor="middle" x="710.47" y="-377.7" font-family="Arial" font-size="14.00">c_stp</text>
</g>
<!-- DownUp&#45;&gt;UpUp -->
<g id="edge30" class="edge">
<title>DownUp&#45;&gt;UpUp</title>
<path fill="none" stroke="black" d="M751.46,-337.79C728.51,-333.18 697.16,-327.62 669.22,-325.25 634.23,-322.28 625.21,-322.37 590.22,-325.25 562.67,-327.52 531.89,-332.68 508.51,-337.16"/>
<polygon fill="black" stroke="black" points="507.96,-333.7 498.82,-339.06 509.31,-340.57 507.96,-333.7"/>
<text text-anchor="middle" x="629.72" y="-327.7" font-family="Arial" font-size="14.00">c_up</text>
</g>
<!-- DownUp&#45;&gt;DownMd -->
<g id="edge31" class="edge">
<title>DownUp&#45;&gt;DownMd</title>
<path fill="none" stroke="black" d="M819.86,-328.82C839.06,-319.49 863.44,-307.63 884.24,-297.51"/>
<polygon fill="black" stroke="black" points="885.61,-300.74 893.07,-293.22 882.54,-294.44 885.61,-300.74"/>
<text text-anchor="middle" x="856.97" y="-321.16" font-family="Arial" font-size="14.00">c_lvup</text>
</g>
<!-- DownUp&#45;&gt;DownUp -->
<g id="edge32" class="edge">
<title>DownUp&#45;&gt;DownUp</title>
<path fill="none" stroke="black" d="M772.68,-363.15C770.7,-372.54 775,-381 785.59,-381 791.55,-381 795.52,-378.32 797.5,-374.31"/>
<polygon fill="black" stroke="black" points="800.96,-374.93 798.37,-364.66 793.99,-374.31 800.96,-374.93"/>
<text text-anchor="middle" x="785.59" y="-383.45" font-family="Arial" font-size="14.00">c_down</text>
</g>
</g>
</svg>
