<?xml version="1.0" encoding="UTF-8" standalone="no"?>
<!DOCTYPE svg PUBLIC "-//W3C//DTD SVG 1.1//EN"
 "http://www.w3.org/Graphics/SVG/1.1/DTD/svg11.dtd">
<!-- Generated by graphviz version 12.2.1 (20241206.2353)
 -->
<!-- Title: elevator supervisor (core) [minstate] Pages: 1 -->
<svg width="720pt" height="105pt"
 viewBox="0.00 0.00 720.00 105.04" xmlns="http://www.w3.org/2000/svg" xmlns:xlink="http://www.w3.org/1999/xlink">
<g id="graph0" class="graph" transform="scale(0.660114 0.660114) rotate(0) translate(4 155.13)">
<title>elevator supervisor (core) [minstate]</title>
<!-- dot_dummyinit_1 -->
<g id="node1" class="node">
<title>dot_dummyinit_1</title>
</g>
<!-- 1 -->
<g id="node2" class="node">
<title>1</title>
<ellipse fill="none" stroke="black" cx="59.72" cy="-35" rx="18" ry="18"/>
<ellipse fill="none" stroke="black" cx="59.72" cy="-35" rx="22" ry="22"/>
<text text-anchor="middle" x="59.72" y="-29.57" font-family="Arial" font-size="14.00">1</text>
</g>
<!-- dot_dummyinit_1&#45;&gt;1 -->
<g id="edge1" class="edge">
<title>dot_dummyinit_1&#45;&gt;1</title>
<path fill="none" stroke="black" d="M0.89,-35C2.38,-35 13.74,-35 26,-35"/>
<polygon fill="black" stroke="black" points="25.74,-38.5 35.74,-35 25.74,-31.5 25.74,-38.5"/>
</g>
<!-- 2 -->
<g id="node4" class="node">
<title>2</title>
<ellipse fill="none" stroke="black" cx="173.22" cy="-63" rx="18" ry="18"/>
<text text-anchor="middle" x="173.22" y="-57.58" font-family="Arial" font-size="14.00">2</text>
</g>
<!-- 1&#45;&gt;2 -->
<g id="edge2" class="edge">
<title>1&#45;&gt;2</title>
<path fill="none" stroke="black" d="M79.79,-44.5C86.02,-47.27 93.05,-50.08 99.72,-52 114.01,-56.12 130.35,-58.77 143.89,-60.43"/>
<polygon fill="black" stroke="black" points="143.13,-63.87 153.45,-61.49 143.9,-56.91 143.13,-63.87"/>
<text text-anchor="middle" x="118.47" y="-61.97" font-family="Arial" font-size="14.00">o_upb</text>
</g>
<!-- 1&#45;&gt;2 -->
<g id="edge3" class="edge">
<title>1&#45;&gt;2</title>
<path fill="none" stroke="black" d="M81.55,-30.01C97.35,-27.21 119.31,-25.5 137.22,-32.25 142.85,-34.37 148.16,-37.85 152.86,-41.73"/>
<polygon fill="black" stroke="black" points="150.28,-44.1 159.97,-48.37 155.06,-38.99 150.28,-44.1"/>
<text text-anchor="middle" x="118.47" y="-34.7" font-family="Arial" font-size="14.00">o_lwb</text>
</g>
<!-- 9 -->
<g id="node3" class="node">
<title>9</title>
<ellipse fill="none" stroke="black" cx="609.97" cy="-63" rx="18" ry="18"/>
<ellipse fill="none" stroke="black" cx="609.97" cy="-63" rx="22" ry="22"/>
<text text-anchor="middle" x="609.97" y="-57.58" font-family="Arial" font-size="14.00">9</text>
</g>
<!-- 3 -->
<g id="node5" class="node">
<title>3</title>
<ellipse fill="none" stroke="black" cx="723.47" cy="-48" rx="18" ry="18"/>
<text text-anchor="middle" x="723.47" y="-42.58" font-family="Arial" font-size="14.00">3</text>
</g>
<!-- 9&#45;&gt;3 -->
<g id="edge25" class="edge">
<title>9&#45;&gt;3</title>
<path fill="none" stroke="black" d="M632.22,-62.82C647.65,-62.4 668.98,-61.21 687.47,-58 689.95,-57.57 692.5,-57.03 695.05,-56.43"/>
<polygon fill="black" stroke="black" points="695.69,-59.88 704.44,-53.91 693.88,-53.12 695.69,-59.88"/>
<text text-anchor="middle" x="668.72" y="-64.5" font-family="Arial" font-size="14.00">o_upb</text>
</g>
<!-- 9&#45;&gt;3 -->
<g id="edge26" class="edge">
<title>9&#45;&gt;3</title>
<path fill="none" stroke="black" d="M627.8,-49.38C634.33,-44.92 642.12,-40.53 649.97,-38.25 664.64,-33.99 681.54,-35.88 695.32,-39.09"/>
<polygon fill="black" stroke="black" points="694.03,-42.37 704.6,-41.6 695.85,-35.61 694.03,-42.37"/>
<text text-anchor="middle" x="668.72" y="-40.7" font-family="Arial" font-size="14.00">o_lwb</text>
</g>
<!-- 2&#45;&gt;2 -->
<g id="edge5" class="edge">
<title>2&#45;&gt;2</title>
<path fill="none" stroke="black" d="M168.67,-80.78C167.9,-90.31 169.41,-99 173.22,-99 175.36,-99 176.78,-96.25 177.47,-92.15"/>
<polygon fill="black" stroke="black" points="180.97,-92.38 177.73,-82.29 173.97,-92.2 180.97,-92.38"/>
<text text-anchor="middle" x="173.22" y="-101.45" font-family="Arial" font-size="14.00">o_upb</text>
</g>
<!-- 2&#45;&gt;2 -->
<g id="edge6" class="edge">
<title>2&#45;&gt;2</title>
<path fill="none" stroke="black" d="M165.88,-79.86C161.43,-97.38 163.88,-117 173.22,-117 180.59,-117 183.67,-104.78 182.45,-91.02"/>
<polygon fill="black" stroke="black" points="185.94,-90.63 180.81,-81.36 179.04,-91.8 185.94,-90.63"/>
<text text-anchor="middle" x="173.22" y="-119.45" font-family="Arial" font-size="14.00">o_lwb</text>
</g>
<!-- 6 -->
<g id="node8" class="node">
<title>6</title>
<ellipse fill="none" stroke="black" cx="274.47" cy="-63" rx="18" ry="18"/>
<text text-anchor="middle" x="274.47" y="-57.58" font-family="Arial" font-size="14.00">6</text>
</g>
<!-- 2&#45;&gt;6 -->
<g id="edge4" class="edge">
<title>2&#45;&gt;6</title>
<path fill="none" stroke="black" d="M191.51,-63C206.15,-63 227.44,-63 244.65,-63"/>
<polygon fill="black" stroke="black" points="244.53,-66.5 254.53,-63 244.53,-59.5 244.53,-66.5"/>
<text text-anchor="middle" x="223.84" y="-65.45" font-family="Arial" font-size="14.00">c_up</text>
</g>
<!-- 3&#45;&gt;3 -->
<g id="edge8" class="edge">
<title>3&#45;&gt;3</title>
<path fill="none" stroke="black" d="M718.55,-65.78C717.71,-75.31 719.35,-84 723.47,-84 725.79,-84 727.32,-81.25 728.07,-77.15"/>
<polygon fill="black" stroke="black" points="731.56,-77.39 728.35,-67.29 724.56,-77.19 731.56,-77.39"/>
<text text-anchor="middle" x="723.47" y="-86.45" font-family="Arial" font-size="14.00">o_upb</text>
</g>
<!-- 3&#45;&gt;3 -->
<g id="edge9" class="edge">
<title>3&#45;&gt;3</title>
<path fill="none" stroke="black" d="M715.61,-64.59C710.69,-82.17 713.31,-102 723.47,-102 731.49,-102 734.81,-89.65 733.43,-75.81"/>
<polygon fill="black" stroke="black" points="736.89,-75.26 731.61,-66.07 730.01,-76.55 736.89,-75.26"/>
<text text-anchor="middle" x="723.47" y="-104.45" font-family="Arial" font-size="14.00">o_lwb</text>
</g>
<!-- 7 -->
<g id="node9" class="node">
<title>7</title>
<ellipse fill="none" stroke="black" cx="841.97" cy="-48" rx="18" ry="18"/>
<text text-anchor="middle" x="841.97" y="-42.58" font-family="Arial" font-size="14.00">7</text>
</g>
<!-- 3&#45;&gt;7 -->
<g id="edge7" class="edge">
<title>3&#45;&gt;7</title>
<path fill="none" stroke="black" d="M741.91,-48C760.55,-48 790.39,-48 812.45,-48"/>
<polygon fill="black" stroke="black" points="812.28,-51.5 822.28,-48 812.28,-44.5 812.28,-51.5"/>
<text text-anchor="middle" x="782.72" y="-50.45" font-family="Arial" font-size="14.00">c_down</text>
</g>
<!-- 4 -->
<g id="node6" class="node">
<title>4</title>
<ellipse fill="none" stroke="black" cx="952.97" cy="-48" rx="18" ry="18"/>
<text text-anchor="middle" x="952.97" y="-42.58" font-family="Arial" font-size="14.00">4</text>
</g>
<!-- 4&#45;&gt;4 -->
<g id="edge11" class="edge">
<title>4&#45;&gt;4</title>
<path fill="none" stroke="black" d="M947.98,-65.78C947.13,-75.31 948.8,-84 952.97,-84 955.32,-84 956.87,-81.25 957.63,-77.15"/>
<polygon fill="black" stroke="black" points="961.12,-77.39 957.91,-67.29 954.13,-77.19 961.12,-77.39"/>
<text text-anchor="middle" x="952.97" y="-86.45" font-family="Arial" font-size="14.00">o_upb</text>
</g>
<!-- 4&#45;&gt;4 -->
<g id="edge12" class="edge">
<title>4&#45;&gt;4</title>
<path fill="none" stroke="black" d="M945.01,-64.59C940.02,-82.17 942.67,-102 952.97,-102 961.1,-102 964.46,-89.65 963.07,-75.81"/>
<polygon fill="black" stroke="black" points="966.53,-75.24 961.22,-66.07 959.65,-76.55 966.53,-75.24"/>
<text text-anchor="middle" x="952.97" y="-104.45" font-family="Arial" font-size="14.00">o_lwb</text>
</g>
<!-- 8 -->
<g id="node10" class="node">
<title>8</title>
<ellipse fill="none" stroke="black" cx="1063.97" cy="-18" rx="18" ry="18"/>
<text text-anchor="middle" x="1063.97" y="-12.57" font-family="Arial" font-size="14.00">8</text>
</g>
<!-- 4&#45;&gt;8 -->
<g id="edge10" class="edge">
<title>4&#45;&gt;8</title>
<path fill="none" stroke="black" d="M970.53,-43.44C987.73,-38.71 1014.95,-31.22 1035.41,-25.59"/>
<polygon fill="black" stroke="black" points="1036.09,-29.03 1044.8,-23 1034.23,-22.28 1036.09,-29.03"/>
<text text-anchor="middle" x="1008.47" y="-40.75" font-family="Arial" font-size="14.00">c_arlw</text>
</g>
<!-- 5 -->
<g id="node7" class="node">
<title>5</title>
<ellipse fill="none" stroke="black" cx="383.22" cy="-63" rx="18" ry="18"/>
<text text-anchor="middle" x="383.22" y="-57.58" font-family="Arial" font-size="14.00">5</text>
</g>
<!-- 5&#45;&gt;5 -->
<g id="edge14" class="edge">
<title>5&#45;&gt;5</title>
<path fill="none" stroke="black" d="M378.33,-80.78C377.5,-90.31 379.13,-99 383.22,-99 385.52,-99 387.04,-96.25 387.79,-92.15"/>
<polygon fill="black" stroke="black" points="391.28,-92.39 388.06,-82.29 384.28,-92.19 391.28,-92.39"/>
<text text-anchor="middle" x="383.22" y="-101.45" font-family="Arial" font-size="14.00">o_upb</text>
</g>
<!-- 5&#45;&gt;5 -->
<g id="edge15" class="edge">
<title>5&#45;&gt;5</title>
<path fill="none" stroke="black" d="M375.42,-79.59C370.53,-97.17 373.13,-117 383.22,-117 391.18,-117 394.48,-104.65 393.12,-90.81"/>
<polygon fill="black" stroke="black" points="396.58,-90.26 391.3,-81.07 389.69,-91.55 396.58,-90.26"/>
<text text-anchor="middle" x="383.22" y="-119.45" font-family="Arial" font-size="14.00">o_lwb</text>
</g>
<!-- 10 -->
<g id="node11" class="node">
<title>10</title>
<ellipse fill="none" stroke="black" cx="499.1" cy="-63" rx="20.63" ry="20.63"/>
<text text-anchor="middle" x="499.1" y="-57.58" font-family="Arial" font-size="14.00">10</text>
</g>
<!-- 5&#45;&gt;10 -->
<g id="edge13" class="edge">
<title>5&#45;&gt;10</title>
<path fill="none" stroke="black" d="M401.52,-63C418.86,-63 445.96,-63 467.04,-63"/>
<polygon fill="black" stroke="black" points="466.82,-66.5 476.82,-63 466.82,-59.5 466.82,-66.5"/>
<text text-anchor="middle" x="439.84" y="-65.45" font-family="Arial" font-size="14.00">c_arup</text>
</g>
<!-- 6&#45;&gt;5 -->
<g id="edge16" class="edge">
<title>6&#45;&gt;5</title>
<path fill="none" stroke="black" d="M292.62,-63C309.02,-63 334.06,-63 353.5,-63"/>
<polygon fill="black" stroke="black" points="353.24,-66.5 363.24,-63 353.24,-59.5 353.24,-66.5"/>
<text text-anchor="middle" x="328.84" y="-65.45" font-family="Arial" font-size="14.00">c_lvlw</text>
</g>
<!-- 6&#45;&gt;6 -->
<g id="edge17" class="edge">
<title>6&#45;&gt;6</title>
<path fill="none" stroke="black" d="M269.92,-80.78C269.15,-90.31 270.66,-99 274.47,-99 276.61,-99 278.03,-96.25 278.72,-92.15"/>
<polygon fill="black" stroke="black" points="282.22,-92.38 278.98,-82.29 275.22,-92.2 282.22,-92.38"/>
<text text-anchor="middle" x="274.47" y="-101.45" font-family="Arial" font-size="14.00">o_upb</text>
</g>
<!-- 6&#45;&gt;6 -->
<g id="edge18" class="edge">
<title>6&#45;&gt;6</title>
<path fill="none" stroke="black" d="M267.13,-79.86C262.68,-97.38 265.13,-117 274.47,-117 281.84,-117 284.92,-104.78 283.7,-91.02"/>
<polygon fill="black" stroke="black" points="287.19,-90.63 282.06,-81.36 280.29,-91.8 287.19,-90.63"/>
<text text-anchor="middle" x="274.47" y="-119.45" font-family="Arial" font-size="14.00">o_lwb</text>
</g>
<!-- 7&#45;&gt;4 -->
<g id="edge19" class="edge">
<title>7&#45;&gt;4</title>
<path fill="none" stroke="black" d="M860,-48C876.94,-48 903.24,-48 923.38,-48"/>
<polygon fill="black" stroke="black" points="923.19,-51.5 933.19,-48 923.19,-44.5 923.19,-51.5"/>
<text text-anchor="middle" x="897.47" y="-50.45" font-family="Arial" font-size="14.00">c_lvup</text>
</g>
<!-- 7&#45;&gt;7 -->
<g id="edge20" class="edge">
<title>7&#45;&gt;7</title>
<path fill="none" stroke="black" d="M836.98,-65.78C836.13,-75.31 837.8,-84 841.97,-84 844.32,-84 845.87,-81.25 846.63,-77.15"/>
<polygon fill="black" stroke="black" points="850.12,-77.39 846.91,-67.29 843.13,-77.19 850.12,-77.39"/>
<text text-anchor="middle" x="841.97" y="-86.45" font-family="Arial" font-size="14.00">o_upb</text>
</g>
<!-- 7&#45;&gt;7 -->
<g id="edge21" class="edge">
<title>7&#45;&gt;7</title>
<path fill="none" stroke="black" d="M834.01,-64.59C829.02,-82.17 831.67,-102 841.97,-102 850.1,-102 853.46,-89.65 852.07,-75.81"/>
<polygon fill="black" stroke="black" points="855.53,-75.24 850.22,-66.07 848.65,-76.55 855.53,-75.24"/>
<text text-anchor="middle" x="841.97" y="-104.45" font-family="Arial" font-size="14.00">o_lwb</text>
</g>
<!-- 8&#45;&gt;1 -->
<g id="edge22" class="edge">
<title>8&#45;&gt;1</title>
<path fill="none" stroke="black" d="M1046.09,-13.96C1024.76,-9.22 986.87,-2 953.97,-2 172.22,-2 172.22,-2 172.22,-2 143.55,-2 112.38,-12.15 90.3,-21.2"/>
<polygon fill="black" stroke="black" points="89.15,-17.88 81.34,-25.04 91.91,-24.32 89.15,-17.88"/>
<text text-anchor="middle" x="553.85" y="-4.45" font-family="Arial" font-size="14.00">c_stp</text>
</g>
<!-- 8&#45;&gt;8 -->
<g id="edge23" class="edge">
<title>8&#45;&gt;8</title>
<path fill="none" stroke="black" d="M1058.98,-35.78C1058.13,-45.31 1059.8,-54 1063.97,-54 1066.32,-54 1067.87,-51.25 1068.63,-47.15"/>
<polygon fill="black" stroke="black" points="1072.12,-47.39 1068.91,-37.29 1065.13,-47.19 1072.12,-47.39"/>
<text text-anchor="middle" x="1063.97" y="-56.45" font-family="Arial" font-size="14.00">o_upb</text>
</g>
<!-- 8&#45;&gt;8 -->
<g id="edge24" class="edge">
<title>8&#45;&gt;8</title>
<path fill="none" stroke="black" d="M1056.01,-34.59C1051.02,-52.17 1053.67,-72 1063.97,-72 1072.1,-72 1075.46,-59.65 1074.07,-45.81"/>
<polygon fill="black" stroke="black" points="1077.53,-45.24 1072.22,-36.07 1070.65,-46.55 1077.53,-45.24"/>
<text text-anchor="middle" x="1063.97" y="-74.45" font-family="Arial" font-size="14.00">o_lwb</text>
</g>
<!-- 10&#45;&gt;9 -->
<g id="edge27" class="edge">
<title>10&#45;&gt;9</title>
<path fill="none" stroke="black" d="M520.06,-63C535.78,-63 558,-63 576.29,-63"/>
<polygon fill="black" stroke="black" points="576.13,-66.5 586.13,-63 576.13,-59.5 576.13,-66.5"/>
<text text-anchor="middle" x="553.85" y="-65.45" font-family="Arial" font-size="14.00">c_stp</text>
</g>
<!-- 10&#45;&gt;10 -->
<g id="edge28" class="edge">
<title>10&#45;&gt;10</title>
<path fill="none" stroke="black" d="M494.09,-83.27C493.47,-93.02 495.14,-101.63 499.1,-101.63 501.38,-101.63 502.91,-98.75 503.66,-94.44"/>
<polygon fill="black" stroke="black" points="507.15,-94.91 504.04,-84.78 500.15,-94.64 507.15,-94.91"/>
<text text-anchor="middle" x="499.1" y="-104.08" font-family="Arial" font-size="14.00">o_upb</text>
</g>
<!-- 10&#45;&gt;10 -->
<g id="edge29" class="edge">
<title>10&#45;&gt;10</title>
<path fill="none" stroke="black" d="M490.79,-82.15C486.49,-100.12 489.26,-119.63 499.1,-119.63 506.93,-119.63 510.28,-107.24 509.14,-93.11"/>
<polygon fill="black" stroke="black" points="512.66,-92.96 507.63,-83.64 505.75,-94.07 512.66,-92.96"/>
<text text-anchor="middle" x="499.1" y="-122.08" font-family="Arial" font-size="14.00">o_lwb</text>
</g>
</g>
</svg>
