<?xml version="1.0" encoding="UTF-8" standalone="no"?>
<!DOCTYPE svg PUBLIC "-//W3C//DTD SVG 1.1//EN"
 "http://www.w3.org/Graphics/SVG/1.1/DTD/svg11.dtd">
<!-- Generated by graphviz version 12.2.1 (20241206.2353)
 -->
<!-- Title: E_opcmd Pages: 1 -->
<svg width="251pt" height="130pt"
 viewBox="0.00 0.00 251.47 129.65" xmlns="http://www.w3.org/2000/svg" xmlns:xlink="http://www.w3.org/1999/xlink">
<g id="graph0" class="graph" transform="scale(1 1) rotate(0) translate(4 125.65)">
<title>E_opcmd</title>
<!-- dot_dummyinit_1 -->
<g id="node1" class="node">
<title>dot_dummyinit_1</title>
</g>
<!-- Idle -->
<g id="node2" class="node">
<title>Idle</title>
<path fill="none" stroke="black" d="M87.47,-40.65C87.47,-40.65 49.72,-40.65 49.72,-40.65 43.72,-40.65 37.72,-34.65 37.72,-28.65 37.72,-28.65 37.72,-16.65 37.72,-16.65 37.72,-10.65 43.72,-4.65 49.72,-4.65 49.72,-4.65 87.47,-4.65 87.47,-4.65 93.47,-4.65 99.47,-10.65 99.47,-16.65 99.47,-16.65 99.47,-28.65 99.47,-28.65 99.47,-34.65 93.47,-40.65 87.47,-40.65"/>
<text text-anchor="start" x="49.72" y="-17.23" font-family="Arial" font-size="14.00">Idle</text>
<polygon fill="black" stroke="none" points="81.47,-12.78 81.47,-32.53 89.47,-32.53 89.47,-12.78 81.47,-12.78"/>
</g>
<!-- dot_dummyinit_1&#45;&gt;Idle -->
<g id="edge1" class="edge">
<title>dot_dummyinit_1&#45;&gt;Idle</title>
<path fill="none" stroke="black" d="M0.77,-22.65C1.6,-22.65 12.92,-22.65 26.02,-22.65"/>
<polygon fill="black" stroke="black" points="25.74,-26.15 35.74,-22.65 25.74,-19.15 25.74,-26.15"/>
</g>
<!-- Busy -->
<g id="node3" class="node">
<title>Busy</title>
<path fill="none" stroke="black" d="M226.97,-40.65C226.97,-40.65 196.97,-40.65 196.97,-40.65 190.97,-40.65 184.97,-34.65 184.97,-28.65 184.97,-28.65 184.97,-16.65 184.97,-16.65 184.97,-10.65 190.97,-4.65 196.97,-4.65 196.97,-4.65 226.97,-4.65 226.97,-4.65 232.97,-4.65 238.97,-10.65 238.97,-16.65 238.97,-16.65 238.97,-28.65 238.97,-28.65 238.97,-34.65 232.97,-40.65 226.97,-40.65"/>
<text text-anchor="middle" x="211.97" y="-17.23" font-family="Arial" font-size="14.00">Busy</text>
</g>
<!-- Idle&#45;&gt;Busy -->
<g id="edge2" class="edge">
<title>Idle&#45;&gt;Busy</title>
<path fill="none" stroke="black" d="M99.92,-22.65C121.34,-22.65 150.19,-22.65 173.12,-22.65"/>
<polygon fill="black" stroke="black" points="172.99,-26.15 182.99,-22.65 172.99,-19.15 172.99,-26.15"/>
<text text-anchor="middle" x="139.97" y="-40.85" font-family="Arial" font-size="14.00">o_upb, </text>
<text text-anchor="middle" x="139.97" y="-25.1" font-family="Arial" font-size="14.00">o_lwb</text>
</g>
<!-- Busy&#45;&gt;Idle -->
<g id="edge3" class="edge">
<title>Busy&#45;&gt;Idle</title>
<path fill="none" stroke="black" d="M184.6,-9.77C177.58,-6.94 169.88,-4.35 162.47,-2.9 142.84,0.94 137.09,0.98 117.47,-2.9 115.29,-3.34 113.08,-3.87 110.87,-4.48"/>
<polygon fill="black" stroke="black" points="109.79,-1.15 101.38,-7.6 111.98,-7.8 109.79,-1.15"/>
<text text-anchor="middle" x="139.97" y="-5.35" font-family="Arial" font-size="14.00">c_stp</text>
</g>
<!-- Busy&#45;&gt;Busy -->
<g id="edge4" class="edge">
<title>Busy&#45;&gt;Busy</title>
<path fill="none" stroke="black" d="M198.94,-40.81C196.94,-50.19 201.28,-58.65 211.97,-58.65 217.98,-58.65 221.99,-55.98 223.98,-51.96"/>
<polygon fill="black" stroke="black" points="227.44,-52.59 224.86,-42.31 220.47,-51.96 227.44,-52.59"/>
<text text-anchor="middle" x="211.97" y="-108.35" font-family="Arial" font-size="14.00">o_upb, </text>
<text text-anchor="middle" x="211.97" y="-92.6" font-family="Arial" font-size="14.00">o_lwb, </text>
<text text-anchor="middle" x="211.97" y="-76.85" font-family="Arial" font-size="14.00">c_up, </text>
<text text-anchor="middle" x="211.97" y="-61.1" font-family="Arial" font-size="14.00">c_down</text>
</g>
</g>
</svg>
