<?xml version="1.0" encoding="UTF-8" standalone="no"?>
<!DOCTYPE svg PUBLIC "-//W3C//DTD SVG 1.0//EN"
 "http://www.w3.org/TR/2001/REC-SVG-20010904/DTD/svg10.dtd" [
 <!ATTLIST svg xmlns:xlink CDATA #FIXED "http://www.w3.org/1999/xlink">
]>
<!-- Generated by Graphviz version 2.20.2 (Tue Mar &#160;2 21:46:26 UTC 2010)
     For user: (mtmoor) Prof. Thomas Moor -->
<!-- Title: FullLanguage(NameSet)||E_opcmd||E_cabmot Pages: 1 -->
<svg width="474pt" height="265pt"
 viewBox="0.00 0.00 474.00 265.00" xmlns="http://www.w3.org/2000/svg" xmlns:xlink="http://www.w3.org/1999/xlink">
<g id="graph0" class="graph" transform="scale(1 1) rotate(0) translate(4 261)">
<title>FullLanguage(NameSet)||E_opcmd||E_cabmot</title>
<polygon style="fill:none;stroke:none;" points="-4,4 -4,-261 470,-261 470,4 -4,4"/>
<!-- dot_dummyinit_1 -->
<g id="node1" class="node"><title>dot_dummyinit_1</title>
</g>
<!-- 1 -->
<g id="node3" class="node"><title>1</title>
<ellipse style="fill:none;stroke:black;" cx="62" cy="-32" rx="18" ry="18"/>
<ellipse style="fill:none;stroke:black;" cx="62" cy="-32" rx="22" ry="22"/>
<text text-anchor="middle" x="62" y="-27.9" style="font-family:Times New Roman;font-size:14.00;">1</text>
</g>
<!-- dot_dummyinit_1&#45;&gt;1 -->
<g id="edge2" class="edge"><title>dot_dummyinit_1&#45;&gt;1</title>
<path style="fill:none;stroke:black;" d="M2,-32C5,-32 17,-32 30,-32"/>
<polygon style="fill:black;stroke:black;" points="30,-35.5001 40,-32 30,-28.5001 30,-35.5001"/>
</g>
<!-- 1&#45;&gt;1 -->
<g id="edge4" class="edge"><title>1&#45;&gt;1</title>
<path style="fill:none;stroke:black;" d="M58,-54C58,-64 59,-72 62,-72 64,-72 65,-69 66,-64"/>
<polygon style="fill:black;stroke:black;" points="69.5001,-64 66,-54 62.5001,-64 69.5001,-64"/>
<text text-anchor="middle" x="62" y="-75.9" style="font-family:Times New Roman;font-size:14.00;">c_arlw</text>
</g>
<!-- 1&#45;&gt;1 -->
<g id="edge6" class="edge"><title>1&#45;&gt;1</title>
<path style="fill:none;stroke:black;" d="M42,-42C13,-62 20,-90 62,-90 100,-90 109,-68 90,-49"/>
<polygon style="fill:black;stroke:black;" points="91.8306,-45.9511 82,-42 87.221,-51.2191 91.8306,-45.9511"/>
<text text-anchor="middle" x="62" y="-93.9" style="font-family:Times New Roman;font-size:14.00;">c_arup</text>
</g>
<!-- 2 -->
<g id="node4" class="node"><title>2</title>
<ellipse style="fill:none;stroke:black;" cx="180" cy="-65" rx="18" ry="18"/>
<text text-anchor="middle" x="180" y="-60.9" style="font-family:Times New Roman;font-size:14.00;">2</text>
</g>
<!-- 1&#45;&gt;2 -->
<g id="edge8" class="edge"><title>1&#45;&gt;2</title>
<path style="fill:none;stroke:black;" d="M82,-42C88,-45 95,-48 102,-50 118,-55 137,-58 152,-61"/>
<polygon style="fill:black;stroke:black;" points="151.508,-64.4708 162,-63 152.881,-57.6067 151.508,-64.4708"/>
<text text-anchor="middle" x="123" y="-61.9" style="font-family:Times New Roman;font-size:14.00;">o_upb</text>
</g>
<!-- 1&#45;&gt;2 -->
<g id="edge10" class="edge"><title>1&#45;&gt;2</title>
<path style="fill:none;stroke:black;" d="M83,-25C100,-21 125,-17 144,-26 152,-30 158,-36 164,-42"/>
<polygon style="fill:black;stroke:black;" points="161.454,-44.4038 171,-49 166.404,-39.454 161.454,-44.4038"/>
<text text-anchor="middle" x="123" y="-29.9" style="font-family:Times New Roman;font-size:14.00;">o_lwb</text>
</g>
<!-- 2&#45;&gt;2 -->
<g id="edge22" class="edge"><title>2&#45;&gt;2</title>
<path style="fill:none;stroke:black;" d="M165,-75C127,-107 132,-155 180,-155 225,-155 232,-114 202,-82"/>
<polygon style="fill:black;stroke:black;" points="204.546,-79.5962 195,-75 199.596,-84.546 204.546,-79.5962"/>
<text text-anchor="middle" x="180" y="-158.9" style="font-family:Times New Roman;font-size:14.00;">o_lwb</text>
</g>
<!-- 2&#45;&gt;2 -->
<g id="edge16" class="edge"><title>2&#45;&gt;2</title>
<path style="fill:none;stroke:black;" d="M178,-83C177,-93 178,-101 180,-101 181,-101 182,-98 182,-93"/>
<polygon style="fill:black;stroke:black;" points="185.5,-93 182,-83 178.5,-93 185.5,-93"/>
<text text-anchor="middle" x="180" y="-104.9" style="font-family:Times New Roman;font-size:14.00;">c_arlw</text>
</g>
<!-- 2&#45;&gt;2 -->
<g id="edge18" class="edge"><title>2&#45;&gt;2</title>
<path style="fill:none;stroke:black;" d="M163,-73C133,-92 138,-119 180,-119 218,-119 226,-97 205,-79"/>
<polygon style="fill:black;stroke:black;" points="207.1,-76.2 197,-73 202.9,-81.8 207.1,-76.2"/>
<text text-anchor="middle" x="180" y="-122.9" style="font-family:Times New Roman;font-size:14.00;">c_arup</text>
</g>
<!-- 2&#45;&gt;2 -->
<g id="edge20" class="edge"><title>2&#45;&gt;2</title>
<path style="fill:none;stroke:black;" d="M164,-74C130,-100 135,-137 180,-137 221,-137 229,-106 204,-81"/>
<polygon style="fill:black;stroke:black;" points="205.831,-77.9511 196,-74 201.221,-83.2191 205.831,-77.9511"/>
<text text-anchor="middle" x="180" y="-140.9" style="font-family:Times New Roman;font-size:14.00;">o_upb</text>
</g>
<!-- 3 -->
<g id="node5" class="node"><title>3</title>
<ellipse style="fill:none;stroke:black;" cx="306" cy="-169" rx="18" ry="18"/>
<text text-anchor="middle" x="306" y="-164.9" style="font-family:Times New Roman;font-size:14.00;">3</text>
</g>
<!-- 2&#45;&gt;3 -->
<g id="edge12" class="edge"><title>2&#45;&gt;3</title>
<path style="fill:none;stroke:black;" d="M194,-77C216,-95 258,-130 284,-151"/>
<polygon style="fill:black;stroke:black;" points="281.9,-153.8 292,-157 286.1,-148.2 281.9,-153.8"/>
<text text-anchor="middle" x="243" y="-140.9" style="font-family:Times New Roman;font-size:14.00;">c_up</text>
</g>
<!-- 4 -->
<g id="node6" class="node"><title>4</title>
<ellipse style="fill:none;stroke:black;" cx="306" cy="-45" rx="18" ry="18"/>
<text text-anchor="middle" x="306" y="-40.9" style="font-family:Times New Roman;font-size:14.00;">4</text>
</g>
<!-- 2&#45;&gt;4 -->
<g id="edge14" class="edge"><title>2&#45;&gt;4</title>
<path style="fill:none;stroke:black;" d="M198,-62C219,-59 253,-54 278,-50"/>
<polygon style="fill:black;stroke:black;" points="278.881,-53.3933 288,-48 277.508,-46.5292 278.881,-53.3933"/>
<text text-anchor="middle" x="243" y="-61.9" style="font-family:Times New Roman;font-size:14.00;">c_down</text>
</g>
<!-- 3&#45;&gt;3 -->
<g id="edge26" class="edge"><title>3&#45;&gt;3</title>
<path style="fill:none;stroke:black;" d="M301,-186C300,-196 302,-205 306,-205 309,-205 310,-201 311,-196"/>
<polygon style="fill:black;stroke:black;" points="314.5,-196 311,-186 307.5,-196 314.5,-196"/>
<text text-anchor="middle" x="306" y="-208.9" style="font-family:Times New Roman;font-size:14.00;">o_upb</text>
</g>
<!-- 3&#45;&gt;3 -->
<g id="edge28" class="edge"><title>3&#45;&gt;3</title>
<path style="fill:none;stroke:black;" d="M289,-177C259,-196 264,-223 306,-223 344,-223 352,-201 331,-183"/>
<polygon style="fill:black;stroke:black;" points="333.1,-180.2 323,-177 328.9,-185.8 333.1,-180.2"/>
<text text-anchor="middle" x="306" y="-226.9" style="font-family:Times New Roman;font-size:14.00;">o_lwb</text>
</g>
<!-- 5 -->
<g id="node7" class="node"><title>5</title>
<ellipse style="fill:none;stroke:black;" cx="424" cy="-45" rx="18" ry="18"/>
<text text-anchor="middle" x="424" y="-40.9" style="font-family:Times New Roman;font-size:14.00;">5</text>
</g>
<!-- 3&#45;&gt;5 -->
<g id="edge24" class="edge"><title>3&#45;&gt;5</title>
<path style="fill:none;stroke:black;" d="M319,-156C339,-134 380,-91 404,-65"/>
<polygon style="fill:black;stroke:black;" points="406.404,-67.546 411,-58 401.454,-62.5962 406.404,-67.546"/>
<text text-anchor="middle" x="365" y="-134.9" style="font-family:Times New Roman;font-size:14.00;">c_arup</text>
</g>
<!-- 4&#45;&gt;4 -->
<g id="edge32" class="edge"><title>4&#45;&gt;4</title>
<path style="fill:none;stroke:black;" d="M301,-62C300,-72 302,-81 306,-81 309,-81 310,-77 311,-72"/>
<polygon style="fill:black;stroke:black;" points="314.5,-72 311,-62 307.5,-72 314.5,-72"/>
<text text-anchor="middle" x="306" y="-84.9" style="font-family:Times New Roman;font-size:14.00;">o_upb</text>
</g>
<!-- 4&#45;&gt;4 -->
<g id="edge34" class="edge"><title>4&#45;&gt;4</title>
<path style="fill:none;stroke:black;" d="M289,-53C259,-72 264,-99 306,-99 344,-99 352,-77 331,-59"/>
<polygon style="fill:black;stroke:black;" points="333.1,-56.2 323,-53 328.9,-61.8 333.1,-56.2"/>
<text text-anchor="middle" x="306" y="-102.9" style="font-family:Times New Roman;font-size:14.00;">o_lwb</text>
</g>
<!-- 4&#45;&gt;5 -->
<g id="edge30" class="edge"><title>4&#45;&gt;5</title>
<path style="fill:none;stroke:black;" d="M324,-45C343,-45 374,-45 396,-45"/>
<polygon style="fill:black;stroke:black;" points="396,-48.5001 406,-45 396,-41.5001 396,-48.5001"/>
<text text-anchor="middle" x="365" y="-48.9" style="font-family:Times New Roman;font-size:14.00;">c_arlw</text>
</g>
<!-- 5&#45;&gt;1 -->
<g id="edge36" class="edge"><title>5&#45;&gt;1</title>
<path style="fill:none;stroke:black;" d="M407,-39C387,-32 354,-22 324,-18 145,7 136,-8 102,-15 98,-16 95,-17 91,-18"/>
<polygon style="fill:black;stroke:black;" points="89.7166,-14.7402 82,-22 92.5596,-21.1369 89.7166,-14.7402"/>
<text text-anchor="middle" x="243" y="-13.9" style="font-family:Times New Roman;font-size:14.00;">c_stp</text>
</g>
<!-- 5&#45;&gt;5 -->
<g id="edge38" class="edge"><title>5&#45;&gt;5</title>
<path style="fill:none;stroke:black;" d="M419,-62C418,-72 420,-81 424,-81 427,-81 428,-77 429,-72"/>
<polygon style="fill:black;stroke:black;" points="432.5,-72 429,-62 425.5,-72 432.5,-72"/>
<text text-anchor="middle" x="424" y="-84.9" style="font-family:Times New Roman;font-size:14.00;">o_upb</text>
</g>
<!-- 5&#45;&gt;5 -->
<g id="edge40" class="edge"><title>5&#45;&gt;5</title>
<path style="fill:none;stroke:black;" d="M407,-53C377,-72 382,-99 424,-99 462,-99 470,-77 449,-59"/>
<polygon style="fill:black;stroke:black;" points="451.1,-56.2 441,-53 446.9,-61.8 451.1,-56.2"/>
<text text-anchor="middle" x="424" y="-102.9" style="font-family:Times New Roman;font-size:14.00;">o_lwb</text>
</g>
</g>
</svg>
