<?xml version="1.0" encoding="UTF-8" standalone="no"?>
<!DOCTYPE svg PUBLIC "-//W3C//DTD SVG 1.1//EN"
 "http://www.w3.org/Graphics/SVG/1.1/DTD/svg11.dtd">
<!-- Generated by graphviz version 12.2.1 (20241206.2353)
 -->
<!-- Title: E_opcmd Pages: 1 -->
<svg width="295pt" height="116pt"
 viewBox="0.00 0.00 294.60 116.47" xmlns="http://www.w3.org/2000/svg" xmlns:xlink="http://www.w3.org/1999/xlink">
<g id="graph0" class="graph" transform="scale(1 1) rotate(0) translate(4 112.47)">
<title>E_opcmd</title>
<!-- dot_dummyinit_1 -->
<g id="node1" class="node">
<title>dot_dummyinit_1</title>
</g>
<!-- Idle -->
<g id="node2" class="node">
<title>Idle</title>
<path fill="none" stroke="black" d="M87.47,-43.22C87.47,-43.22 49.72,-43.22 49.72,-43.22 43.72,-43.22 37.72,-37.22 37.72,-31.22 37.72,-31.22 37.72,-19.22 37.72,-19.22 37.72,-13.22 43.72,-7.22 49.72,-7.22 49.72,-7.22 87.47,-7.22 87.47,-7.22 93.47,-7.22 99.47,-13.22 99.47,-19.22 99.47,-19.22 99.47,-31.22 99.47,-31.22 99.47,-37.22 93.47,-43.22 87.47,-43.22"/>
<text text-anchor="start" x="49.72" y="-19.79" font-family="Arial" font-size="14.00">Idle</text>
<polygon fill="black" stroke="none" points="81.47,-15.34 81.47,-35.09 89.47,-35.09 89.47,-15.34 81.47,-15.34"/>
</g>
<!-- dot_dummyinit_1&#45;&gt;Idle -->
<g id="edge1" class="edge">
<title>dot_dummyinit_1&#45;&gt;Idle</title>
<path fill="none" stroke="black" d="M0.77,-25.22C1.6,-25.22 12.92,-25.22 26.02,-25.22"/>
<polygon fill="black" stroke="black" points="25.74,-28.72 35.74,-25.22 25.74,-21.72 25.74,-28.72"/>
</g>
<!-- Busy -->
<g id="node3" class="node">
<title>Busy</title>
<path fill="none" stroke="black" d="M257.72,-43.22C257.72,-43.22 227.72,-43.22 227.72,-43.22 221.72,-43.22 215.72,-37.22 215.72,-31.22 215.72,-31.22 215.72,-19.22 215.72,-19.22 215.72,-13.22 221.72,-7.22 227.72,-7.22 227.72,-7.22 257.72,-7.22 257.72,-7.22 263.72,-7.22 269.72,-13.22 269.72,-19.22 269.72,-19.22 269.72,-31.22 269.72,-31.22 269.72,-37.22 263.72,-43.22 257.72,-43.22"/>
<text text-anchor="middle" x="242.72" y="-19.79" font-family="Arial" font-size="14.00">Busy</text>
</g>
<!-- Idle&#45;&gt;Busy -->
<g id="edge2" class="edge">
<title>Idle&#45;&gt;Busy</title>
<path fill="none" stroke="black" d="M99.58,-25.22C128.62,-25.22 172.74,-25.22 204.12,-25.22"/>
<polygon fill="black" stroke="black" points="203.95,-28.72 213.95,-25.22 203.95,-21.72 203.95,-28.72"/>
<text text-anchor="middle" x="157.6" y="-27.67" font-family="Arial" font-size="14.00">o_upb, o_lwb</text>
</g>
<!-- Busy&#45;&gt;Idle -->
<g id="edge3" class="edge">
<title>Busy&#45;&gt;Idle</title>
<path fill="none" stroke="black" d="M215.34,-11.23C209.67,-8.84 203.62,-6.73 197.72,-5.47 162.84,2 152.46,1.47 117.47,-5.47 115.29,-5.9 113.08,-6.43 110.87,-7.04"/>
<polygon fill="black" stroke="black" points="109.79,-3.72 101.38,-10.16 111.98,-10.37 109.79,-3.72"/>
<text text-anchor="middle" x="157.6" y="-7.92" font-family="Arial" font-size="14.00">c_stp</text>
</g>
<!-- Busy&#45;&gt;Busy -->
<g id="edge4" class="edge">
<title>Busy&#45;&gt;Busy</title>
<path fill="none" stroke="black" d="M227.32,-43.37C224.95,-52.76 230.08,-61.22 242.72,-61.22 249.83,-61.22 254.56,-58.54 256.92,-54.53"/>
<polygon fill="black" stroke="black" points="260.37,-55.19 257.96,-44.88 253.41,-54.44 260.37,-55.19"/>
<text text-anchor="middle" x="242.72" y="-95.17" font-family="Arial" font-size="14.00">o_upb, o_lwb, </text>
<text text-anchor="middle" x="242.72" y="-79.42" font-family="Arial" font-size="14.00">c_up, </text>
<text text-anchor="middle" x="242.72" y="-63.67" font-family="Arial" font-size="14.00">c_down</text>
</g>
</g>
</svg>
