<?xml version="1.0" encoding="UTF-8" standalone="no"?>
<!DOCTYPE svg PUBLIC "-//W3C//DTD SVG 1.0//EN"
 "http://www.w3.org/TR/2001/REC-SVG-20010904/DTD/svg10.dtd" [
 <!ATTLIST svg xmlns:xlink CDATA #FIXED "http://www.w3.org/1999/xlink">
]>
<!-- Generated by Graphviz version 2.20.2 (Tue Mar &#160;2 21:46:26 UTC 2010)
     For user: (mtmoor) Prof. Thomas Moor -->
<!-- Title: E_drsaf2 Pages: 1 -->
<svg width="720pt" height="377pt"
 viewBox="0.00 0.00 720.00 376.93" xmlns="http://www.w3.org/2000/svg" xmlns:xlink="http://www.w3.org/1999/xlink">
<g id="graph0" class="graph" transform="scale(0.914867 0.914867) rotate(0) translate(4 408)">
<title>E_drsaf2</title>
<polygon style="fill:none;stroke:none;" points="-4,4 -4,-408 783,-408 783,4 -4,4"/>
<!-- dot_dummyinit_1 -->
<g id="node1" class="node"><title>dot_dummyinit_1</title>
</g>
<!-- IdleFree -->
<g id="node3" class="node"><title>IdleFree</title>
<ellipse style="fill:none;stroke:black;" cx="93" cy="-66" rx="48.8756" ry="48.8756"/>
<ellipse style="fill:none;stroke:black;" cx="93" cy="-66" rx="52.8382" ry="52.8382"/>
<text text-anchor="middle" x="93" y="-61.9" style="font-family:Times New Roman;font-size:14.00;">IdleFree</text>
</g>
<!-- dot_dummyinit_1&#45;&gt;IdleFree -->
<g id="edge2" class="edge"><title>dot_dummyinit_1&#45;&gt;IdleFree</title>
<path style="fill:none;stroke:black;" d="M2,-66C5,-66 16,-66 30,-66"/>
<polygon style="fill:black;stroke:black;" points="30,-69.5001 40,-66 30,-62.5001 30,-69.5001"/>
</g>
<!-- IdleFree&#45;&gt;IdleFree -->
<g id="edge6" class="edge"><title>IdleFree&#45;&gt;IdleFree</title>
<path style="fill:none;stroke:black;" d="M89,-119C89,-130 91,-137 93,-137 94,-137 96,-134 96,-129"/>
<polygon style="fill:black;stroke:black;" points="99.4875,-129.299 97,-119 92.5222,-128.602 99.4875,-129.299"/>
<text text-anchor="middle" x="93" y="-140.9" style="font-family:Times New Roman;font-size:14.00;">d_open</text>
</g>
<!-- IdleFree&#45;&gt;IdleFree -->
<g id="edge8" class="edge"><title>IdleFree&#45;&gt;IdleFree</title>
<path style="fill:none;stroke:black;" d="M55,-103C44,-129 56,-155 93,-155 125,-155 139,-135 134,-113"/>
<polygon style="fill:black;stroke:black;" points="137.226,-111.573 131,-103 130.521,-113.584 137.226,-111.573"/>
<text text-anchor="middle" x="93" y="-158.9" style="font-family:Times New Roman;font-size:14.00;">d_stp</text>
</g>
<!-- IdleFree&#45;&gt;IdleFree -->
<g id="edge10" class="edge"><title>IdleFree&#45;&gt;IdleFree</title>
<path style="fill:none;stroke:black;" d="M55,-103C36,-137 49,-173 93,-173 133,-173 147,-143 135,-112"/>
<polygon style="fill:black;stroke:black;" points="138.26,-110.717 131,-103 131.863,-113.56 138.26,-110.717"/>
<text text-anchor="middle" x="93" y="-176.9" style="font-family:Times New Roman;font-size:14.00;">d_arcl</text>
</g>
<!-- ClosingFree -->
<g id="node4" class="node"><title>ClosingFree</title>
<ellipse style="fill:none;stroke:black;" cx="302" cy="-210" rx="66.2356" ry="66.2356"/>
<ellipse style="fill:none;stroke:black;" cx="302" cy="-210" rx="70.2072" ry="70.2072"/>
<text text-anchor="middle" x="302" y="-205.9" style="font-family:Times New Roman;font-size:14.00;">ClosingFree</text>
</g>
<!-- IdleFree&#45;&gt;ClosingFree -->
<g id="edge4" class="edge"><title>IdleFree&#45;&gt;ClosingFree</title>
<path style="fill:none;stroke:black;" d="M137,-96C165,-115 203,-142 235,-164"/>
<polygon style="fill:black;stroke:black;" points="233.738,-167.365 244,-170 237.621,-161.541 233.738,-167.365"/>
<text text-anchor="middle" x="189" y="-148.9" style="font-family:Times New Roman;font-size:14.00;">d_close</text>
</g>
<!-- Block -->
<g id="node7" class="node"><title>Block</title>
<ellipse style="fill:none;stroke:black;" cx="727" cy="-134" rx="36.8288" ry="36.8288"/>
<ellipse style="fill:none;stroke:black;" cx="727" cy="-134" rx="40.8288" ry="40.8288"/>
<text text-anchor="middle" x="727" y="-129.9" style="font-family:Times New Roman;font-size:14.00;">Block</text>
</g>
<!-- IdleFree&#45;&gt;Block -->
<g id="edge12" class="edge"><title>IdleFree&#45;&gt;Block</title>
<path style="fill:none;stroke:black;" d="M145,-56C239,-39 439,-14 600,-58 632,-66 663,-85 687,-102"/>
<polygon style="fill:black;stroke:black;" points="684.9,-104.8 695,-108 689.1,-99.2 684.9,-104.8"/>
<text text-anchor="middle" x="411" y="-39.9" style="font-family:Times New Roman;font-size:14.00;">d_lbbl</text>
</g>
<!-- ClosingBlock -->
<g id="node5" class="node"><title>ClosingBlock</title>
<ellipse style="fill:none;stroke:black;" cx="525" cy="-294" rx="70.878" ry="70.878"/>
<ellipse style="fill:none;stroke:black;" cx="525" cy="-294" rx="74.878" ry="74.878"/>
<text text-anchor="middle" x="525" y="-289.9" style="font-family:Times New Roman;font-size:14.00;">ClosingBlock</text>
</g>
<!-- ClosingFree&#45;&gt;ClosingBlock -->
<g id="edge16" class="edge"><title>ClosingFree&#45;&gt;ClosingBlock</title>
<path style="fill:none;stroke:black;" d="M368,-235C392,-244 420,-254 446,-264"/>
<polygon style="fill:black;stroke:black;" points="444.44,-267.137 455,-268 447.283,-260.74 444.44,-267.137"/>
<text text-anchor="middle" x="411" y="-259.9" style="font-family:Times New Roman;font-size:14.00;">d_lbbl</text>
</g>
<!-- ClosedFree -->
<g id="node6" class="node"><title>ClosedFree</title>
<ellipse style="fill:none;stroke:black;" cx="525" cy="-134" rx="63.2343" ry="63.2343"/>
<ellipse style="fill:none;stroke:black;" cx="525" cy="-134" rx="67.2343" ry="67.2343"/>
<text text-anchor="middle" x="525" y="-129.9" style="font-family:Times New Roman;font-size:14.00;">ClosedFree</text>
</g>
<!-- ClosingFree&#45;&gt;ClosedFree -->
<g id="edge14" class="edge"><title>ClosingFree&#45;&gt;ClosedFree</title>
<path style="fill:none;stroke:black;" d="M367,-185C375,-182 383,-179 390,-177 410,-170 431,-163 451,-157"/>
<polygon style="fill:black;stroke:black;" points="452.427,-160.226 461,-154 450.416,-153.521 452.427,-160.226"/>
<text text-anchor="middle" x="411" y="-180.9" style="font-family:Times New Roman;font-size:14.00;">d_arcl</text>
</g>
<!-- ClosingBlock&#45;&gt;ClosingFree -->
<g id="edge24" class="edge"><title>ClosingBlock&#45;&gt;ClosingFree</title>
<path style="fill:none;stroke:black;" d="M470,-243C458,-235 445,-227 432,-222 417,-215 399,-212 382,-210"/>
<polygon style="fill:black;stroke:black;" points="382.299,-206.512 372,-209 381.602,-213.478 382.299,-206.512"/>
<text text-anchor="middle" x="411" y="-225.9" style="font-family:Times New Roman;font-size:14.00;">d_lbrl</text>
</g>
<!-- ClosingBlock&#45;&gt;ClosingBlock -->
<g id="edge22" class="edge"><title>ClosingBlock&#45;&gt;ClosingBlock</title>
<path style="fill:none;stroke:black;" d="M505,-367C508,-379 515,-387 525,-387 532,-387 538,-383 541,-377"/>
<polygon style="fill:black;stroke:black;" points="544.536,-377.585 545,-367 538.036,-374.985 544.536,-377.585"/>
<text text-anchor="middle" x="525" y="-390.9" style="font-family:Times New Roman;font-size:14.00;">d_arcl</text>
</g>
<!-- ClosingBlock&#45;&gt;Block -->
<g id="edge18" class="edge"><title>ClosingBlock&#45;&gt;Block</title>
<path style="fill:none;stroke:black;" d="M584,-247C617,-221 657,-189 687,-166"/>
<polygon style="fill:black;stroke:black;" points="689.1,-168.8 695,-160 684.9,-163.2 689.1,-168.8"/>
<text text-anchor="middle" x="643" y="-221.9" style="font-family:Times New Roman;font-size:14.00;">d_open</text>
</g>
<!-- ClosingBlock&#45;&gt;Block -->
<g id="edge20" class="edge"><title>ClosingBlock&#45;&gt;Block</title>
<path style="fill:none;stroke:black;" d="M598,-277C622,-268 648,-256 668,-239 686,-223 699,-202 709,-182"/>
<polygon style="fill:black;stroke:black;" points="712.137,-183.56 713,-173 705.74,-180.717 712.137,-183.56"/>
<text text-anchor="middle" x="643" y="-270.9" style="font-family:Times New Roman;font-size:14.00;">d_stp</text>
</g>
<!-- ClosedFree&#45;&gt;IdleFree -->
<g id="edge26" class="edge"><title>ClosedFree&#45;&gt;IdleFree</title>
<path style="fill:none;stroke:black;" d="M459,-123C377,-111 237,-88 156,-76"/>
<polygon style="fill:black;stroke:black;" points="156.492,-72.5292 146,-74 155.119,-79.3933 156.492,-72.5292"/>
<text text-anchor="middle" x="302" y="-111.9" style="font-family:Times New Roman;font-size:14.00;">d_stp</text>
</g>
<!-- ClosedFree&#45;&gt;Block -->
<g id="edge28" class="edge"><title>ClosedFree&#45;&gt;Block</title>
<path style="fill:none;stroke:black;" d="M592,-134C619,-134 650,-134 676,-134"/>
<polygon style="fill:black;stroke:black;" points="676,-137.5 686,-134 676,-130.5 676,-137.5"/>
<text text-anchor="middle" x="643" y="-137.9" style="font-family:Times New Roman;font-size:14.00;">d_lbbl</text>
</g>
<!-- Block&#45;&gt;IdleFree -->
<g id="edge36" class="edge"><title>Block&#45;&gt;IdleFree</title>
<path style="fill:none;stroke:black;" d="M705,-99C695,-85 682,-71 668,-60 642,-41 632,-41 600,-32 442,8 394,-8 232,-31 202,-36 194,-36 164,-43 160,-44 157,-45 154,-46"/>
<polygon style="fill:black;stroke:black;" points="152.573,-42.7741 144,-49 154.584,-49.4788 152.573,-42.7741"/>
<text text-anchor="middle" x="411" y="-15.9" style="font-family:Times New Roman;font-size:14.00;">d_lbrl</text>
</g>
<!-- Block&#45;&gt;Block -->
<g id="edge30" class="edge"><title>Block&#45;&gt;Block</title>
<path style="fill:none;stroke:black;" d="M722,-175C722,-185 724,-193 727,-193 729,-193 730,-190 731,-185"/>
<polygon style="fill:black;stroke:black;" points="734.488,-185.299 732,-175 727.522,-184.602 734.488,-185.299"/>
<text text-anchor="middle" x="727" y="-196.9" style="font-family:Times New Roman;font-size:14.00;">d_close</text>
</g>
<!-- Block&#45;&gt;Block -->
<g id="edge32" class="edge"><title>Block&#45;&gt;Block</title>
<path style="fill:none;stroke:black;" d="M694,-158C674,-183 685,-211 727,-211 764,-211 777,-189 766,-167"/>
<polygon style="fill:black;stroke:black;" points="768.459,-164.379 760,-158 762.635,-168.262 768.459,-164.379"/>
<text text-anchor="middle" x="727" y="-214.9" style="font-family:Times New Roman;font-size:14.00;">d_open</text>
</g>
<!-- Block&#45;&gt;Block -->
<g id="edge34" class="edge"><title>Block&#45;&gt;Block</title>
<path style="fill:none;stroke:black;" d="M694,-159C666,-190 677,-229 727,-229 773,-229 786,-196 766,-167"/>
<polygon style="fill:black;stroke:black;" points="768.8,-164.9 760,-159 763.2,-169.1 768.8,-164.9"/>
<text text-anchor="middle" x="727" y="-232.9" style="font-family:Times New Roman;font-size:14.00;">d_stp</text>
</g>
</g>
</svg>
