<?xml version="1.0" encoding="UTF-8" standalone="no"?>
<!DOCTYPE svg PUBLIC "-//W3C//DTD SVG 1.1//EN"
 "http://www.w3.org/Graphics/SVG/1.1/DTD/svg11.dtd">
<!-- Generated by graphviz version 12.2.1 (20241206.2353)
 -->
<!-- Title: E_opcmds Pages: 1 -->
<svg width="461pt" height="125pt"
 viewBox="0.00 0.00 461.10 125.00" xmlns="http://www.w3.org/2000/svg" xmlns:xlink="http://www.w3.org/1999/xlink">
<g id="graph0" class="graph" transform="scale(1 1) rotate(0) translate(4 121)">
<title>E_opcmds</title>
<!-- dot_dummyinit_1 -->
<g id="node1" class="node">
<title>dot_dummyinit_1</title>
</g>
<!-- Idle -->
<g id="node2" class="node">
<title>Idle</title>
<path fill="none" stroke="black" d="M87.47,-36C87.47,-36 49.72,-36 49.72,-36 43.72,-36 37.72,-30 37.72,-24 37.72,-24 37.72,-12 37.72,-12 37.72,-6 43.72,0 49.72,0 49.72,0 87.47,0 87.47,0 93.47,0 99.47,-6 99.47,-12 99.47,-12 99.47,-24 99.47,-24 99.47,-30 93.47,-36 87.47,-36"/>
<text text-anchor="start" x="49.72" y="-12.57" font-family="Arial" font-size="14.00">Idle</text>
<polygon fill="black" stroke="none" points="81.47,-8.12 81.47,-27.88 89.47,-27.88 89.47,-8.12 81.47,-8.12"/>
</g>
<!-- dot_dummyinit_1&#45;&gt;Idle -->
<g id="edge1" class="edge">
<title>dot_dummyinit_1&#45;&gt;Idle</title>
<path fill="none" stroke="black" d="M0.77,-18C1.6,-18 12.92,-18 26.02,-18"/>
<polygon fill="black" stroke="black" points="25.74,-21.5 35.74,-18 25.74,-14.5 25.74,-21.5"/>
</g>
<!-- Start -->
<g id="node3" class="node">
<title>Start</title>
<path fill="none" stroke="black" d="M273.1,-72C273.1,-72 243.1,-72 243.1,-72 237.1,-72 231.1,-66 231.1,-60 231.1,-60 231.1,-48 231.1,-48 231.1,-42 237.1,-36 243.1,-36 243.1,-36 273.1,-36 273.1,-36 279.1,-36 285.1,-42 285.1,-48 285.1,-48 285.1,-60 285.1,-60 285.1,-66 279.1,-72 273.1,-72"/>
<text text-anchor="middle" x="258.1" y="-48.58" font-family="Arial" font-size="14.00">Start</text>
</g>
<!-- Idle&#45;&gt;Start -->
<g id="edge2" class="edge">
<title>Idle&#45;&gt;Start</title>
<path fill="none" stroke="black" d="M99.72,-23.78C132.27,-30.03 184.2,-40 219.43,-46.77"/>
<polygon fill="black" stroke="black" points="218.71,-50.19 229.19,-48.64 220.03,-43.32 218.71,-50.19"/>
<text text-anchor="middle" x="157.6" y="-44.81" font-family="Arial" font-size="14.00">o_upb, o_lwb</text>
</g>
<!-- Start&#45;&gt;Start -->
<g id="edge3" class="edge">
<title>Start&#45;&gt;Start</title>
<path fill="none" stroke="black" d="M243.44,-72.15C241.19,-81.54 246.07,-90 258.1,-90 264.86,-90 269.36,-87.32 271.61,-83.31"/>
<polygon fill="black" stroke="black" points="275.06,-83.96 272.59,-73.66 268.1,-83.25 275.06,-83.96"/>
<text text-anchor="middle" x="258.1" y="-92.45" font-family="Arial" font-size="14.00">o_upb, o_lwb</text>
</g>
<!-- Busy -->
<g id="node4" class="node">
<title>Busy</title>
<path fill="none" stroke="black" d="M424.22,-36C424.22,-36 394.22,-36 394.22,-36 388.22,-36 382.22,-30 382.22,-24 382.22,-24 382.22,-12 382.22,-12 382.22,-6 388.22,0 394.22,0 394.22,0 424.22,0 424.22,0 430.22,0 436.22,-6 436.22,-12 436.22,-12 436.22,-24 436.22,-24 436.22,-30 430.22,-36 424.22,-36"/>
<text text-anchor="middle" x="409.22" y="-12.57" font-family="Arial" font-size="14.00">Busy</text>
</g>
<!-- Start&#45;&gt;Busy -->
<g id="edge4" class="edge">
<title>Start&#45;&gt;Busy</title>
<path fill="none" stroke="black" d="M285.41,-47.65C309.08,-41.93 344.13,-33.47 370.73,-27.05"/>
<polygon fill="black" stroke="black" points="371.54,-30.45 380.44,-24.71 369.9,-23.65 371.54,-30.45"/>
<text text-anchor="middle" x="339.1" y="-41.67" font-family="Arial" font-size="14.00">a_start</text>
</g>
<!-- Busy&#45;&gt;Idle -->
<g id="edge5" class="edge">
<title>Busy&#45;&gt;Idle</title>
<path fill="none" stroke="black" d="M382.11,-15.91C360.31,-14.27 328.38,-12.12 300.47,-11.25 234.29,-9.18 157.43,-12.59 111.2,-15.27"/>
<polygon fill="black" stroke="black" points="111.13,-11.77 101.36,-15.86 111.55,-18.75 111.13,-11.77"/>
<text text-anchor="middle" x="258.1" y="-13.7" font-family="Arial" font-size="14.00">a_done, a_fail</text>
</g>
<!-- Busy&#45;&gt;Busy -->
<g id="edge6" class="edge">
<title>Busy&#45;&gt;Busy</title>
<path fill="none" stroke="black" d="M396.53,-36.15C394.58,-45.54 398.81,-54 409.22,-54 415.08,-54 418.97,-51.32 420.92,-47.31"/>
<polygon fill="black" stroke="black" points="424.38,-47.93 421.77,-37.66 417.4,-47.31 424.38,-47.93"/>
<text text-anchor="middle" x="409.22" y="-103.7" font-family="Arial" font-size="14.00">o_upb, o_lwb, </text>
<text text-anchor="middle" x="409.22" y="-87.95" font-family="Arial" font-size="14.00">c_up, </text>
<text text-anchor="middle" x="409.22" y="-72.2" font-family="Arial" font-size="14.00">c_down, </text>
<text text-anchor="middle" x="409.22" y="-56.45" font-family="Arial" font-size="14.00">c_stp</text>
</g>
</g>
</svg>
