<?xml version="1.0" encoding="UTF-8" standalone="no"?>
<!DOCTYPE svg PUBLIC "-//W3C//DTD SVG 1.0//EN"
 "http://www.w3.org/TR/2001/REC-SVG-20010904/DTD/svg10.dtd" [
 <!ATTLIST svg xmlns:xlink CDATA #FIXED "http://www.w3.org/1999/xlink">
]>
<!-- Generated by Graphviz version 2.20.2 (Tue Mar &#160;2 21:46:26 UTC 2010)
     For user: (mtmoor) Prof. Thomas Moor -->
<!-- Title: E_opcmds Pages: 1 -->
<svg width="425pt" height="251pt"
 viewBox="0.00 0.00 425.00 251.00" xmlns="http://www.w3.org/2000/svg" xmlns:xlink="http://www.w3.org/1999/xlink">
<g id="graph0" class="graph" transform="scale(1 1) rotate(0) translate(4 247)">
<title>E_opcmds</title>
<polygon style="fill:none;stroke:none;" points="-4,4 -4,-247 421,-247 421,4 -4,4"/>
<!-- dot_dummyinit_1 -->
<g id="node1" class="node"><title>dot_dummyinit_1</title>
</g>
<!-- Idle -->
<g id="node3" class="node"><title>Idle</title>
<ellipse style="fill:none;stroke:black;" cx="72" cy="-50" rx="28.0519" ry="28.0519"/>
<ellipse style="fill:none;stroke:black;" cx="72" cy="-50" rx="31.9903" ry="31.9903"/>
<text text-anchor="middle" x="72" y="-45.9" style="font-family:Times New Roman;font-size:14.00;">Idle</text>
</g>
<!-- dot_dummyinit_1&#45;&gt;Idle -->
<g id="edge2" class="edge"><title>dot_dummyinit_1&#45;&gt;Idle</title>
<path style="fill:none;stroke:black;" d="M2,-50C5,-50 17,-50 30,-50"/>
<polygon style="fill:black;stroke:black;" points="30,-53.5001 40,-50 30,-46.5001 30,-53.5001"/>
</g>
<!-- Start -->
<g id="node4" class="node"><title>Start</title>
<ellipse style="fill:none;stroke:black;" cx="217" cy="-104" rx="34.9399" ry="34.9399"/>
<text text-anchor="middle" x="217" y="-99.9" style="font-family:Times New Roman;font-size:14.00;">Start</text>
</g>
<!-- Idle&#45;&gt;Start -->
<g id="edge4" class="edge"><title>Idle&#45;&gt;Start</title>
<path style="fill:none;stroke:black;" d="M97,-70C105,-76 114,-81 122,-85 138,-92 156,-95 172,-98"/>
<polygon style="fill:black;stroke:black;" points="171.508,-101.471 182,-100 172.881,-94.6067 171.508,-101.471"/>
<text text-anchor="middle" x="143" y="-98.9" style="font-family:Times New Roman;font-size:14.00;">o_upb</text>
</g>
<!-- Idle&#45;&gt;Start -->
<g id="edge6" class="edge"><title>Idle&#45;&gt;Start</title>
<path style="fill:none;stroke:black;" d="M104,-49C122,-50 145,-53 164,-61 171,-64 178,-68 184,-73"/>
<polygon style="fill:black;stroke:black;" points="181.9,-75.8 192,-79 186.1,-70.2 181.9,-75.8"/>
<text text-anchor="middle" x="143" y="-64.9" style="font-family:Times New Roman;font-size:14.00;">o_lwb</text>
</g>
<!-- Start&#45;&gt;Start -->
<g id="edge8" class="edge"><title>Start&#45;&gt;Start</title>
<path style="fill:none;stroke:black;" d="M210,-138C210,-149 213,-157 217,-157 220,-157 222,-154 223,-148"/>
<polygon style="fill:black;stroke:black;" points="226.488,-148.299 224,-138 219.522,-147.602 226.488,-148.299"/>
<text text-anchor="middle" x="217" y="-160.9" style="font-family:Times New Roman;font-size:14.00;">o_upb</text>
</g>
<!-- Start&#45;&gt;Start -->
<g id="edge10" class="edge"><title>Start&#45;&gt;Start</title>
<path style="fill:none;stroke:black;" d="M189,-125C170,-148 180,-175 217,-175 250,-175 261,-154 251,-133"/>
<polygon style="fill:black;stroke:black;" points="253.8,-130.9 245,-125 248.2,-135.1 253.8,-130.9"/>
<text text-anchor="middle" x="217" y="-178.9" style="font-family:Times New Roman;font-size:14.00;">o_lwb</text>
</g>
<!-- Busy -->
<g id="node5" class="node"><title>Busy</title>
<ellipse style="fill:none;stroke:black;" cx="372" cy="-34" rx="34.2406" ry="34.2406"/>
<text text-anchor="middle" x="372" y="-29.9" style="font-family:Times New Roman;font-size:14.00;">Busy</text>
</g>
<!-- Start&#45;&gt;Busy -->
<g id="edge12" class="edge"><title>Start&#45;&gt;Busy</title>
<path style="fill:none;stroke:black;" d="M249,-89C273,-78 306,-64 332,-52"/>
<polygon style="fill:black;stroke:black;" points="333.283,-55.2598 341,-48 330.44,-48.8631 333.283,-55.2598"/>
<text text-anchor="middle" x="295" y="-81.9" style="font-family:Times New Roman;font-size:14.00;">a_start</text>
</g>
<!-- Busy&#45;&gt;Idle -->
<g id="edge18" class="edge"><title>Busy&#45;&gt;Idle</title>
<path style="fill:none;stroke:black;" d="M338,-35C300,-37 237,-40 182,-43 160,-44 135,-45 114,-47"/>
<polygon style="fill:black;stroke:black;" points="113.602,-43.5222 104,-48 114.299,-50.4875 113.602,-43.5222"/>
<text text-anchor="middle" x="217" y="-46.9" style="font-family:Times New Roman;font-size:14.00;">a_done</text>
</g>
<!-- Busy&#45;&gt;Idle -->
<g id="edge20" class="edge"><title>Busy&#45;&gt;Idle</title>
<path style="fill:none;stroke:black;" d="M339,-26C301,-18 237,-8 182,-16 158,-19 132,-27 111,-35"/>
<polygon style="fill:black;stroke:black;" points="110.38,-31.5173 102,-38 112.594,-38.158 110.38,-31.5173"/>
<text text-anchor="middle" x="217" y="-19.9" style="font-family:Times New Roman;font-size:14.00;">a_fail</text>
</g>
<!-- Busy&#45;&gt;Busy -->
<g id="edge22" class="edge"><title>Busy&#45;&gt;Busy</title>
<path style="fill:none;stroke:black;" d="M347,-58C327,-87 336,-122 372,-122 404,-122 415,-94 402,-67"/>
<polygon style="fill:black;stroke:black;" points="404.916,-65.0418 397,-58 398.797,-68.4414 404.916,-65.0418"/>
<text text-anchor="middle" x="372" y="-125.9" style="font-family:Times New Roman;font-size:14.00;">c_up</text>
</g>
<!-- Busy&#45;&gt;Busy -->
<g id="edge24" class="edge"><title>Busy&#45;&gt;Busy</title>
<path style="fill:none;stroke:black;" d="M348,-58C324,-94 332,-140 372,-140 409,-140 418,-101 401,-67"/>
<polygon style="fill:black;stroke:black;" points="403.916,-65.0418 396,-58 397.797,-68.4414 403.916,-65.0418"/>
<text text-anchor="middle" x="372" y="-143.9" style="font-family:Times New Roman;font-size:14.00;">c_down</text>
</g>
<!-- Busy&#45;&gt;Busy -->
<g id="edge26" class="edge"><title>Busy&#45;&gt;Busy</title>
<path style="fill:none;stroke:black;" d="M349,-59C321,-102 328,-158 372,-158 413,-158 422,-109 400,-68"/>
<polygon style="fill:black;stroke:black;" points="402.916,-66.0418 395,-59 396.797,-69.4414 402.916,-66.0418"/>
<text text-anchor="middle" x="372" y="-161.9" style="font-family:Times New Roman;font-size:14.00;">c_stp</text>
</g>
<!-- Busy&#45;&gt;Busy -->
<g id="edge14" class="edge"><title>Busy&#45;&gt;Busy</title>
<path style="fill:none;stroke:black;" d="M370,-68C370,-78 371,-86 372,-86 373,-86 373,-83 374,-78"/>
<polygon style="fill:black;stroke:black;" points="377.5,-78 374,-68 370.5,-78 377.5,-78"/>
<text text-anchor="middle" x="372" y="-89.9" style="font-family:Times New Roman;font-size:14.00;">o_upb</text>
</g>
<!-- Busy&#45;&gt;Busy -->
<g id="edge16" class="edge"><title>Busy&#45;&gt;Busy</title>
<path style="fill:none;stroke:black;" d="M346,-56C331,-79 340,-104 372,-104 400,-104 410,-85 403,-65"/>
<polygon style="fill:black;stroke:black;" points="405.916,-63.0418 398,-56 399.797,-66.4414 405.916,-63.0418"/>
<text text-anchor="middle" x="372" y="-107.9" style="font-family:Times New Roman;font-size:14.00;">o_lwb</text>
</g>
</g>
</svg>
