<?xml version="1.0" encoding="UTF-8" standalone="no"?>
<!DOCTYPE svg PUBLIC "-//W3C//DTD SVG 1.1//EN"
 "http://www.w3.org/Graphics/SVG/1.1/DTD/svg11.dtd">
<!-- Generated by graphviz version 12.2.1 (20241206.2353)
 -->
<!-- Title: FullLanguage(NameSet)||E_opcmd||E_cabmot Pages: 1 -->
<svg width="470pt" height="232pt"
 viewBox="0.00 0.00 469.97 231.50" xmlns="http://www.w3.org/2000/svg" xmlns:xlink="http://www.w3.org/1999/xlink">
<g id="graph0" class="graph" transform="scale(1 1) rotate(0) translate(4 227.5)">
<title>FullLanguage(NameSet)||E_opcmd||E_cabmot</title>
<!-- dot_dummyinit_1 -->
<g id="node1" class="node">
<title>dot_dummyinit_1</title>
</g>
<!-- 1 -->
<g id="node2" class="node">
<title>1</title>
<ellipse fill="none" stroke="black" cx="59.72" cy="-22" rx="18" ry="18"/>
<ellipse fill="none" stroke="black" cx="59.72" cy="-22" rx="22" ry="22"/>
<text text-anchor="middle" x="59.72" y="-16.57" font-family="Arial" font-size="14.00">1</text>
</g>
<!-- dot_dummyinit_1&#45;&gt;1 -->
<g id="edge1" class="edge">
<title>dot_dummyinit_1&#45;&gt;1</title>
<path fill="none" stroke="black" d="M0.89,-22C2.38,-22 13.74,-22 26,-22"/>
<polygon fill="black" stroke="black" points="25.74,-25.5 35.74,-22 25.74,-18.5 25.74,-25.5"/>
</g>
<!-- 1&#45;&gt;1 -->
<g id="edge2" class="edge">
<title>1&#45;&gt;1</title>
<path fill="none" stroke="black" d="M52.31,-42.99C51.4,-53.09 53.87,-62 59.72,-62 63.2,-62 65.48,-58.86 66.57,-54.19"/>
<polygon fill="black" stroke="black" points="70.05,-54.66 67.05,-44.5 63.06,-54.31 70.05,-54.66"/>
<text text-anchor="middle" x="59.72" y="-80.2" font-family="Arial" font-size="14.00">c_arlw, </text>
<text text-anchor="middle" x="59.72" y="-64.45" font-family="Arial" font-size="14.00">c_arup</text>
</g>
<!-- 2 -->
<g id="node3" class="node">
<title>2</title>
<ellipse fill="none" stroke="black" cx="194.22" cy="-52" rx="18" ry="18"/>
<text text-anchor="middle" x="194.22" y="-46.58" font-family="Arial" font-size="14.00">2</text>
</g>
<!-- 1&#45;&gt;2 -->
<g id="edge3" class="edge">
<title>1&#45;&gt;2</title>
<path fill="none" stroke="black" d="M81.42,-26.69C104.04,-31.81 140.39,-40.04 165.47,-45.72"/>
<polygon fill="black" stroke="black" points="164.44,-49.07 174.96,-47.87 165.98,-42.24 164.44,-49.07"/>
<text text-anchor="middle" x="122.22" y="-58.77" font-family="Arial" font-size="14.00">o_upb, </text>
<text text-anchor="middle" x="122.22" y="-43.02" font-family="Arial" font-size="14.00">o_lwb</text>
</g>
<!-- 2&#45;&gt;2 -->
<g id="edge4" class="edge">
<title>2&#45;&gt;2</title>
<path fill="none" stroke="black" d="M182.46,-66.04C178.07,-76.91 181.99,-88 194.22,-88 202.06,-88 206.48,-83.45 207.49,-77.32"/>
<polygon fill="black" stroke="black" points="210.98,-76.99 206.18,-67.54 204.04,-77.92 210.98,-76.99"/>
<text text-anchor="middle" x="194.22" y="-137.7" font-family="Arial" font-size="14.00">c_arlw, </text>
<text text-anchor="middle" x="194.22" y="-121.95" font-family="Arial" font-size="14.00">c_arup, </text>
<text text-anchor="middle" x="194.22" y="-106.2" font-family="Arial" font-size="14.00">o_upb, </text>
<text text-anchor="middle" x="194.22" y="-90.45" font-family="Arial" font-size="14.00">o_lwb</text>
</g>
<!-- 3 -->
<g id="node4" class="node">
<title>3</title>
<ellipse fill="none" stroke="black" cx="326.22" cy="-156" rx="18" ry="18"/>
<text text-anchor="middle" x="326.22" y="-150.57" font-family="Arial" font-size="14.00">3</text>
</g>
<!-- 2&#45;&gt;3 -->
<g id="edge5" class="edge">
<title>2&#45;&gt;3</title>
<path fill="none" stroke="black" d="M208.64,-62.74C230.93,-80.57 275.78,-116.45 302.89,-138.14"/>
<polygon fill="black" stroke="black" points="300.5,-140.71 310.49,-144.22 304.87,-135.24 300.5,-140.71"/>
<text text-anchor="middle" x="266.97" y="-127.72" font-family="Arial" font-size="14.00">c_up</text>
</g>
<!-- 4 -->
<g id="node5" class="node">
<title>4</title>
<ellipse fill="none" stroke="black" cx="326.22" cy="-52" rx="18" ry="18"/>
<text text-anchor="middle" x="326.22" y="-46.58" font-family="Arial" font-size="14.00">4</text>
</g>
<!-- 2&#45;&gt;4 -->
<g id="edge6" class="edge">
<title>2&#45;&gt;4</title>
<path fill="none" stroke="black" d="M212.48,-52C233.95,-52 270.89,-52 296.61,-52"/>
<polygon fill="black" stroke="black" points="296.37,-55.5 306.37,-52 296.37,-48.5 296.37,-55.5"/>
<text text-anchor="middle" x="266.97" y="-54.45" font-family="Arial" font-size="14.00">c_down</text>
</g>
<!-- 3&#45;&gt;3 -->
<g id="edge7" class="edge">
<title>3&#45;&gt;3</title>
<path fill="none" stroke="black" d="M316.54,-171.54C313.81,-181.91 317.04,-192 326.22,-192 331.81,-192 335.2,-188.25 336.37,-182.98"/>
<polygon fill="black" stroke="black" points="339.87,-182.9 335.96,-173.05 332.88,-183.19 339.87,-182.9"/>
<text text-anchor="middle" x="326.22" y="-210.2" font-family="Arial" font-size="14.00">o_upb, </text>
<text text-anchor="middle" x="326.22" y="-194.45" font-family="Arial" font-size="14.00">o_lwb</text>
</g>
<!-- 5 -->
<g id="node6" class="node">
<title>5</title>
<ellipse fill="none" stroke="black" cx="439.47" cy="-52" rx="18" ry="18"/>
<text text-anchor="middle" x="439.47" y="-46.58" font-family="Arial" font-size="14.00">5</text>
</g>
<!-- 3&#45;&gt;5 -->
<g id="edge8" class="edge">
<title>3&#45;&gt;5</title>
<path fill="none" stroke="black" d="M339.98,-144.07C358.83,-126.45 394.32,-93.27 417.16,-71.92"/>
<polygon fill="black" stroke="black" points="419.49,-74.53 424.41,-65.14 414.71,-69.42 419.49,-74.53"/>
<text text-anchor="middle" x="382.85" y="-124.81" font-family="Arial" font-size="14.00">c_arup</text>
</g>
<!-- 4&#45;&gt;4 -->
<g id="edge9" class="edge">
<title>4&#45;&gt;4</title>
<path fill="none" stroke="black" d="M316.54,-67.54C313.81,-77.91 317.04,-88 326.22,-88 331.81,-88 335.2,-84.25 336.37,-78.98"/>
<polygon fill="black" stroke="black" points="339.87,-78.9 335.96,-69.05 332.88,-79.19 339.87,-78.9"/>
<text text-anchor="middle" x="326.22" y="-106.2" font-family="Arial" font-size="14.00">o_upb, </text>
<text text-anchor="middle" x="326.22" y="-90.45" font-family="Arial" font-size="14.00">o_lwb</text>
</g>
<!-- 4&#45;&gt;5 -->
<g id="edge10" class="edge">
<title>4&#45;&gt;5</title>
<path fill="none" stroke="black" d="M344.6,-52C362.07,-52 389.3,-52 409.94,-52"/>
<polygon fill="black" stroke="black" points="409.7,-55.5 419.7,-52 409.7,-48.5 409.7,-55.5"/>
<text text-anchor="middle" x="382.85" y="-54.45" font-family="Arial" font-size="14.00">c_arlw</text>
</g>
<!-- 5&#45;&gt;1 -->
<g id="edge11" class="edge">
<title>5&#45;&gt;1</title>
<path fill="none" stroke="black" d="M422.08,-45.85C403.51,-39.22 372.18,-29.08 344.22,-25 254.07,-11.86 146.09,-16.15 93.18,-19.54"/>
<polygon fill="black" stroke="black" points="93.1,-16.03 83.36,-20.2 93.58,-23.02 93.1,-16.03"/>
<text text-anchor="middle" x="266.97" y="-21.46" font-family="Arial" font-size="14.00">c_stp</text>
</g>
<!-- 5&#45;&gt;5 -->
<g id="edge12" class="edge">
<title>5&#45;&gt;5</title>
<path fill="none" stroke="black" d="M429.79,-67.54C427.06,-77.91 430.29,-88 439.47,-88 445.06,-88 448.45,-84.25 449.62,-78.98"/>
<polygon fill="black" stroke="black" points="453.12,-78.9 449.21,-69.05 446.13,-79.19 453.12,-78.9"/>
<text text-anchor="middle" x="439.47" y="-106.2" font-family="Arial" font-size="14.00">o_upb, </text>
<text text-anchor="middle" x="439.47" y="-90.45" font-family="Arial" font-size="14.00">o_lwb</text>
</g>
</g>
</svg>
