<?xml version="1.0" encoding="UTF-8" standalone="no"?>
<!DOCTYPE svg PUBLIC "-//W3C//DTD SVG 1.1//EN"
 "http://www.w3.org/Graphics/SVG/1.1/DTD/svg11.dtd">
<!-- Generated by graphviz version 12.2.1 (20241206.2353)
 -->
<!-- Title: door Pages: 1 -->
<svg width="720pt" height="333pt"
 viewBox="0.00 0.00 720.00 333.28" xmlns="http://www.w3.org/2000/svg" xmlns:xlink="http://www.w3.org/1999/xlink">
<g id="graph0" class="graph" transform="scale(0.604549 0.604549) rotate(0) translate(4 547.28)">
<title>door</title>
<!-- dot_dummyinit_1 -->
<g id="node1" class="node">
<title>dot_dummyinit_1</title>
</g>
<!-- IdleOp -->
<g id="node2" class="node">
<title>IdleOp</title>
<path fill="none" stroke="black" d="M106.22,-73C106.22,-73 49.72,-73 49.72,-73 43.72,-73 37.72,-67 37.72,-61 37.72,-61 37.72,-49 37.72,-49 37.72,-43 43.72,-37 49.72,-37 49.72,-37 106.22,-37 106.22,-37 112.22,-37 118.22,-43 118.22,-49 118.22,-49 118.22,-61 118.22,-61 118.22,-67 112.22,-73 106.22,-73"/>
<text text-anchor="start" x="49.72" y="-49.58" font-family="Arial" font-size="14.00">IdleOp</text>
<polygon fill="black" stroke="none" points="100.22,-45.12 100.22,-64.88 108.22,-64.88 108.22,-45.12 100.22,-45.12"/>
</g>
<!-- dot_dummyinit_1&#45;&gt;IdleOp -->
<g id="edge1" class="edge">
<title>dot_dummyinit_1&#45;&gt;IdleOp</title>
<path fill="none" stroke="black" d="M0.78,-55C1.65,-55 12.81,-55 26.34,-55"/>
<polygon fill="black" stroke="black" points="26.03,-58.5 36.03,-55 26.03,-51.5 26.03,-58.5"/>
</g>
<!-- IdleOp&#45;&gt;IdleOp -->
<g id="edge2" class="edge">
<title>IdleOp&#45;&gt;IdleOp</title>
<path fill="none" stroke="black" d="M67.34,-73.15C65.71,-82.54 69.25,-91 77.97,-91 82.88,-91 86.14,-88.32 87.77,-84.31"/>
<polygon fill="black" stroke="black" points="91.24,-84.89 88.49,-74.66 84.26,-84.38 91.24,-84.89"/>
<text text-anchor="middle" x="77.97" y="-93.45" font-family="Arial" font-size="14.00">d_stp</text>
</g>
<!-- CloseOp -->
<g id="node5" class="node">
<title>CloseOp</title>
<path fill="none" stroke="black" d="M257.97,-129C257.97,-129 212.72,-129 212.72,-129 206.72,-129 200.72,-123 200.72,-117 200.72,-117 200.72,-105 200.72,-105 200.72,-99 206.72,-93 212.72,-93 212.72,-93 257.97,-93 257.97,-93 263.97,-93 269.97,-99 269.97,-105 269.97,-105 269.97,-117 269.97,-117 269.97,-123 263.97,-129 257.97,-129"/>
<text text-anchor="middle" x="235.34" y="-105.58" font-family="Arial" font-size="14.00">CloseOp</text>
</g>
<!-- IdleOp&#45;&gt;CloseOp -->
<g id="edge3" class="edge">
<title>IdleOp&#45;&gt;CloseOp</title>
<path fill="none" stroke="black" d="M106.02,-73.44C115.28,-79.1 125.91,-84.9 136.22,-89 153.12,-95.72 172.52,-100.61 189.58,-104.05"/>
<polygon fill="black" stroke="black" points="188.44,-107.4 198.92,-105.83 189.75,-100.52 188.44,-107.4"/>
<text text-anchor="middle" x="159.47" y="-104.68" font-family="Arial" font-size="14.00">d_close</text>
</g>
<!-- OpenOp -->
<g id="node8" class="node">
<title>OpenOp</title>
<path fill="none" stroke="black" d="M1170.97,-103C1170.97,-103 1126.47,-103 1126.47,-103 1120.47,-103 1114.47,-97 1114.47,-91 1114.47,-91 1114.47,-79 1114.47,-79 1114.47,-73 1120.47,-67 1126.47,-67 1126.47,-67 1170.97,-67 1170.97,-67 1176.97,-67 1182.97,-73 1182.97,-79 1182.97,-79 1182.97,-91 1182.97,-91 1182.97,-97 1176.97,-103 1170.97,-103"/>
<text text-anchor="middle" x="1148.72" y="-79.58" font-family="Arial" font-size="14.00">OpenOp</text>
</g>
<!-- IdleOp&#45;&gt;OpenOp -->
<g id="edge4" class="edge">
<title>IdleOp&#45;&gt;OpenOp</title>
<path fill="none" stroke="black" d="M118.45,-48.68C149.78,-44.2 194.75,-39 234.34,-39 234.34,-39 234.34,-39 1002.84,-39 1037.94,-39 1075.68,-51.42 1103.84,-63.35"/>
<polygon fill="black" stroke="black" points="1102.18,-66.45 1112.75,-67.26 1105,-60.04 1102.18,-66.45"/>
<text text-anchor="middle" x="620.09" y="-41.45" font-family="Arial" font-size="14.00">d_open</text>
</g>
<!-- IdleMd -->
<g id="node3" class="node">
<title>IdleMd</title>
<path fill="none" stroke="black" d="M648.72,-493C648.72,-493 591.47,-493 591.47,-493 585.47,-493 579.47,-487 579.47,-481 579.47,-481 579.47,-469 579.47,-469 579.47,-463 585.47,-457 591.47,-457 591.47,-457 648.72,-457 648.72,-457 654.72,-457 660.72,-463 660.72,-469 660.72,-469 660.72,-481 660.72,-481 660.72,-487 654.72,-493 648.72,-493"/>
<text text-anchor="start" x="591.47" y="-469.57" font-family="Arial" font-size="14.00">IdleMd</text>
<polygon fill="black" stroke="none" points="642.72,-465.12 642.72,-484.88 650.72,-484.88 650.72,-465.12 642.72,-465.12"/>
</g>
<!-- IdleMd&#45;&gt;IdleMd -->
<g id="edge5" class="edge">
<title>IdleMd&#45;&gt;IdleMd</title>
<path fill="none" stroke="black" d="M603.77,-493.15C601.26,-502.54 606.7,-511 620.09,-511 627.63,-511 632.65,-508.32 635.15,-504.31"/>
<polygon fill="black" stroke="black" points="638.6,-504.99 636.25,-494.66 631.64,-504.2 638.6,-504.99"/>
<text text-anchor="middle" x="620.09" y="-513.45" font-family="Arial" font-size="14.00">d_stp</text>
</g>
<!-- CloseMd -->
<g id="node6" class="node">
<title>CloseMd</title>
<path fill="none" stroke="black" d="M403.72,-302C403.72,-302 357.72,-302 357.72,-302 351.72,-302 345.72,-296 345.72,-290 345.72,-290 345.72,-278 345.72,-278 345.72,-272 351.72,-266 357.72,-266 357.72,-266 403.72,-266 403.72,-266 409.72,-266 415.72,-272 415.72,-278 415.72,-278 415.72,-290 415.72,-290 415.72,-296 409.72,-302 403.72,-302"/>
<text text-anchor="middle" x="380.72" y="-278.57" font-family="Arial" font-size="14.00">CloseMd</text>
</g>
<!-- IdleMd&#45;&gt;CloseMd -->
<g id="edge6" class="edge">
<title>IdleMd&#45;&gt;CloseMd</title>
<path fill="none" stroke="black" d="M581.34,-456.63C556.69,-443.89 524.36,-425.71 498.22,-406 466.23,-381.87 461.32,-372.05 433.72,-343 423.97,-332.74 413.6,-321.12 404.7,-310.92"/>
<polygon fill="black" stroke="black" points="407.49,-308.8 398.3,-303.53 402.2,-313.38 407.49,-308.8"/>
<text text-anchor="middle" x="456.97" y="-393.75" font-family="Arial" font-size="14.00">d_close</text>
</g>
<!-- OpenMd -->
<g id="node9" class="node">
<title>OpenMd</title>
<path fill="none" stroke="black" d="M1024.47,-294C1024.47,-294 979.22,-294 979.22,-294 973.22,-294 967.22,-288 967.22,-282 967.22,-282 967.22,-270 967.22,-270 967.22,-264 973.22,-258 979.22,-258 979.22,-258 1024.47,-258 1024.47,-258 1030.47,-258 1036.47,-264 1036.47,-270 1036.47,-270 1036.47,-282 1036.47,-282 1036.47,-288 1030.47,-294 1024.47,-294"/>
<text text-anchor="middle" x="1001.84" y="-270.57" font-family="Arial" font-size="14.00">OpenMd</text>
</g>
<!-- IdleMd&#45;&gt;OpenMd -->
<g id="edge7" class="edge">
<title>IdleMd&#45;&gt;OpenMd</title>
<path fill="none" stroke="black" d="M661.12,-492.25C728.66,-518.35 865.99,-558.15 949.22,-491 977.84,-467.91 992.54,-358.97 998.12,-305.61"/>
<polygon fill="black" stroke="black" points="1001.6,-306.02 999.11,-295.72 994.63,-305.32 1001.6,-306.02"/>
<text text-anchor="middle" x="793.72" y="-529.98" font-family="Arial" font-size="14.00">d_open</text>
</g>
<!-- IdleCl -->
<g id="node4" class="node">
<title>IdleCl</title>
<path fill="none" stroke="black" d="M741.22,-415C741.22,-415 690.72,-415 690.72,-415 684.72,-415 678.72,-409 678.72,-403 678.72,-403 678.72,-391 678.72,-391 678.72,-385 684.72,-379 690.72,-379 690.72,-379 741.22,-379 741.22,-379 747.22,-379 753.22,-385 753.22,-391 753.22,-391 753.22,-403 753.22,-403 753.22,-409 747.22,-415 741.22,-415"/>
<text text-anchor="start" x="690.72" y="-391.57" font-family="Arial" font-size="14.00">IdleCl</text>
<polygon fill="black" stroke="none" points="735.22,-387.12 735.22,-406.88 743.22,-406.88 743.22,-387.12 735.22,-387.12"/>
</g>
<!-- IdleCl&#45;&gt;IdleCl -->
<g id="edge8" class="edge">
<title>IdleCl&#45;&gt;IdleCl</title>
<path fill="none" stroke="black" d="M701.9,-415.15C699.74,-424.54 704.43,-433 715.97,-433 722.46,-433 726.79,-430.32 728.94,-426.31"/>
<polygon fill="black" stroke="black" points="732.39,-426.95 729.89,-416.66 725.43,-426.27 732.39,-426.95"/>
<text text-anchor="middle" x="715.97" y="-435.45" font-family="Arial" font-size="14.00">d_stp</text>
</g>
<!-- CloseCl -->
<g id="node7" class="node">
<title>CloseCl</title>
<path fill="none" stroke="black" d="M549.47,-363C549.47,-363 510.22,-363 510.22,-363 504.22,-363 498.22,-357 498.22,-351 498.22,-351 498.22,-339 498.22,-339 498.22,-333 504.22,-327 510.22,-327 510.22,-327 549.47,-327 549.47,-327 555.47,-327 561.47,-333 561.47,-339 561.47,-339 561.47,-351 561.47,-351 561.47,-357 555.47,-363 549.47,-363"/>
<text text-anchor="middle" x="529.84" y="-339.57" font-family="Arial" font-size="14.00">CloseCl</text>
</g>
<!-- IdleCl&#45;&gt;CloseCl -->
<g id="edge9" class="edge">
<title>IdleCl&#45;&gt;CloseCl</title>
<path fill="none" stroke="black" d="M678.29,-384.68C672.43,-382.8 666.42,-380.93 660.72,-379.25 631.63,-370.66 598.57,-361.96 573.09,-355.48"/>
<polygon fill="black" stroke="black" points="573.97,-352.09 563.42,-353.03 572.26,-358.88 573.97,-352.09"/>
<text text-anchor="middle" x="620.09" y="-381.7" font-family="Arial" font-size="14.00">d_close</text>
</g>
<!-- OpenCl -->
<g id="node10" class="node">
<title>OpenCl</title>
<path fill="none" stroke="black" d="M884.72,-363C884.72,-363 846.22,-363 846.22,-363 840.22,-363 834.22,-357 834.22,-351 834.22,-351 834.22,-339 834.22,-339 834.22,-333 840.22,-327 846.22,-327 846.22,-327 884.72,-327 884.72,-327 890.72,-327 896.72,-333 896.72,-339 896.72,-339 896.72,-351 896.72,-351 896.72,-357 890.72,-363 884.72,-363"/>
<text text-anchor="middle" x="865.47" y="-339.57" font-family="Arial" font-size="14.00">OpenCl</text>
</g>
<!-- IdleCl&#45;&gt;OpenCl -->
<g id="edge10" class="edge">
<title>IdleCl&#45;&gt;OpenCl</title>
<path fill="none" stroke="black" d="M753.3,-402.77C772.74,-404.29 796.63,-403.55 816.22,-395 827.5,-390.08 837.45,-381.14 845.34,-372.17"/>
<polygon fill="black" stroke="black" points="847.97,-374.48 851.56,-364.51 842.54,-370.06 847.97,-374.48"/>
<text text-anchor="middle" x="793.72" y="-405.83" font-family="Arial" font-size="14.00">d_open</text>
</g>
<!-- CloseOp&#45;&gt;IdleOp -->
<g id="edge11" class="edge">
<title>CloseOp&#45;&gt;IdleOp</title>
<path fill="none" stroke="black" d="M216.86,-92.82C207.55,-84.26 195.42,-74.74 182.72,-69.25 166.16,-62.09 146.84,-58.33 129.4,-56.43"/>
<polygon fill="black" stroke="black" points="130.03,-52.97 119.76,-55.56 129.4,-59.94 130.03,-52.97"/>
<text text-anchor="middle" x="159.47" y="-71.7" font-family="Arial" font-size="14.00">d_stp</text>
</g>
<!-- CloseOp&#45;&gt;CloseOp -->
<g id="edge12" class="edge">
<title>CloseOp&#45;&gt;CloseOp</title>
<path fill="none" stroke="black" d="M222.23,-129.15C220.21,-138.54 224.58,-147 235.34,-147 241.4,-147 245.43,-144.32 247.44,-140.31"/>
<polygon fill="black" stroke="black" points="250.9,-140.94 248.32,-130.66 243.93,-140.3 250.9,-140.94"/>
<text text-anchor="middle" x="235.34" y="-149.45" font-family="Arial" font-size="14.00">d_close</text>
</g>
<!-- CloseOp&#45;&gt;CloseMd -->
<g id="edge13" class="edge">
<title>CloseOp&#45;&gt;CloseMd</title>
<path fill="none" stroke="black" d="M251.42,-129.19C276.74,-159.74 327.92,-221.5 357.42,-257.09"/>
<polygon fill="black" stroke="black" points="354.38,-258.9 363.45,-264.37 359.77,-254.44 354.38,-258.9"/>
<text text-anchor="middle" x="307.84" y="-220.53" font-family="Arial" font-size="14.00">d_lvop</text>
</g>
<!-- CloseOp&#45;&gt;OpenOp -->
<g id="edge14" class="edge">
<title>CloseOp&#45;&gt;OpenOp</title>
<path fill="none" stroke="black" d="M270.22,-120.68C299.07,-128.07 341.77,-137 379.72,-137 379.72,-137 379.72,-137 1002.84,-137 1039.1,-137 1077.62,-122.4 1105.81,-108.67"/>
<polygon fill="black" stroke="black" points="1107.39,-111.79 1114.74,-104.16 1104.24,-105.54 1107.39,-111.79"/>
<text text-anchor="middle" x="715.97" y="-139.45" font-family="Arial" font-size="14.00">d_open</text>
</g>
<!-- CloseMd&#45;&gt;IdleMd -->
<g id="edge15" class="edge">
<title>CloseMd&#45;&gt;IdleMd</title>
<path fill="none" stroke="black" d="M384.78,-302.33C390.16,-329.35 403.75,-379.99 433.72,-411 469.08,-447.58 526.34,-463.27 567.87,-469.98"/>
<polygon fill="black" stroke="black" points="567.23,-473.43 577.63,-471.43 568.25,-466.5 567.23,-473.43"/>
<text text-anchor="middle" x="456.97" y="-445.88" font-family="Arial" font-size="14.00">d_stp</text>
</g>
<!-- CloseMd&#45;&gt;CloseMd -->
<g id="edge16" class="edge">
<title>CloseMd&#45;&gt;CloseMd</title>
<path fill="none" stroke="black" d="M367.54,-302.15C365.51,-311.54 369.9,-320 380.72,-320 386.8,-320 390.86,-317.32 392.88,-313.31"/>
<polygon fill="black" stroke="black" points="396.33,-313.94 393.77,-303.66 389.36,-313.3 396.33,-313.94"/>
<text text-anchor="middle" x="380.72" y="-322.45" font-family="Arial" font-size="14.00">d_close</text>
</g>
<!-- CloseMd&#45;&gt;CloseCl -->
<g id="edge17" class="edge">
<title>CloseMd&#45;&gt;CloseCl</title>
<path fill="none" stroke="black" d="M416.21,-298.3C437.53,-307.14 465,-318.53 487.48,-327.85"/>
<polygon fill="black" stroke="black" points="486.09,-331.06 496.67,-331.66 488.77,-324.6 486.09,-331.06"/>
<text text-anchor="middle" x="456.97" y="-325.98" font-family="Arial" font-size="14.00">d_arcl</text>
</g>
<!-- CloseMd&#45;&gt;OpenMd -->
<g id="edge18" class="edge">
<title>CloseMd&#45;&gt;OpenMd</title>
<path fill="none" stroke="black" d="M415.97,-267.99C445.28,-255.76 488.93,-241 528.84,-241 528.84,-241 528.84,-241 866.47,-241 897.16,-241 930.56,-249.66 956.38,-258.36"/>
<polygon fill="black" stroke="black" points="954.93,-261.56 965.53,-261.57 957.25,-254.95 954.93,-261.56"/>
<text text-anchor="middle" x="715.97" y="-243.45" font-family="Arial" font-size="14.00">d_open</text>
</g>
<!-- CloseCl&#45;&gt;IdleCl -->
<g id="edge19" class="edge">
<title>CloseCl&#45;&gt;IdleCl</title>
<path fill="none" stroke="black" d="M542.91,-363.36C551.57,-374.78 564.35,-388.48 579.47,-395 606.76,-406.76 640.1,-407.41 666.89,-405.04"/>
<polygon fill="black" stroke="black" points="667.23,-408.52 676.8,-403.98 666.49,-401.56 667.23,-408.52"/>
<text text-anchor="middle" x="620.09" y="-408.59" font-family="Arial" font-size="14.00">d_stp</text>
</g>
<!-- CloseCl&#45;&gt;CloseCl -->
<g id="edge20" class="edge">
<title>CloseCl&#45;&gt;CloseCl</title>
<path fill="none" stroke="black" d="M516.66,-363.15C514.63,-372.54 519.03,-381 529.84,-381 535.93,-381 539.98,-378.32 542,-374.31"/>
<polygon fill="black" stroke="black" points="545.46,-374.94 542.89,-364.66 538.49,-374.3 545.46,-374.94"/>
<text text-anchor="middle" x="529.84" y="-383.45" font-family="Arial" font-size="14.00">d_close</text>
</g>
<!-- CloseCl&#45;&gt;OpenCl -->
<g id="edge21" class="edge">
<title>CloseCl&#45;&gt;OpenCl</title>
<path fill="none" stroke="black" d="M561.93,-345C622.18,-345 754.87,-345 822.73,-345"/>
<polygon fill="black" stroke="black" points="822.31,-348.5 832.31,-345 822.31,-341.5 822.31,-348.5"/>
<text text-anchor="middle" x="715.97" y="-347.45" font-family="Arial" font-size="14.00">d_open</text>
</g>
<!-- OpenOp&#45;&gt;IdleOp -->
<g id="edge22" class="edge">
<title>OpenOp&#45;&gt;IdleOp</title>
<path fill="none" stroke="black" d="M1130.45,-66.56C1105.08,-41.56 1055.04,0 1002.84,0 234.34,0 234.34,0 234.34,0 194.29,0 151.57,-16.45 121.09,-31.35"/>
<polygon fill="black" stroke="black" points="119.54,-28.22 112.2,-35.85 122.7,-34.46 119.54,-28.22"/>
<text text-anchor="middle" x="620.09" y="-2.45" font-family="Arial" font-size="14.00">d_stp</text>
</g>
<!-- OpenOp&#45;&gt;CloseOp -->
<g id="edge23" class="edge">
<title>OpenOp&#45;&gt;CloseOp</title>
<path fill="none" stroke="black" d="M1114.06,-85C1084.69,-85 1040.95,-85 1002.84,-85 379.72,-85 379.72,-85 379.72,-85 346.37,-85 309.34,-91.9 281.27,-98.58"/>
<polygon fill="black" stroke="black" points="280.55,-95.16 271.68,-100.96 282.23,-101.95 280.55,-95.16"/>
<text text-anchor="middle" x="715.97" y="-87.45" font-family="Arial" font-size="14.00">d_close</text>
</g>
<!-- OpenOp&#45;&gt;OpenOp -->
<g id="edge24" class="edge">
<title>OpenOp&#45;&gt;OpenOp</title>
<path fill="none" stroke="black" d="M1135.47,-103.15C1133.43,-112.54 1137.85,-121 1148.72,-121 1154.84,-121 1158.91,-118.32 1160.94,-114.31"/>
<polygon fill="black" stroke="black" points="1164.4,-114.94 1161.83,-104.66 1157.43,-114.3 1164.4,-114.94"/>
<text text-anchor="middle" x="1148.72" y="-123.45" font-family="Arial" font-size="14.00">d_open</text>
</g>
<!-- OpenMd&#45;&gt;IdleMd -->
<g id="edge25" class="edge">
<title>OpenMd&#45;&gt;IdleMd</title>
<path fill="none" stroke="black" d="M990.77,-294.17C974.46,-322 939.74,-375.19 896.72,-406 829.24,-454.34 731.37,-468.94 672.23,-473.27"/>
<polygon fill="black" stroke="black" points="672.2,-469.77 662.45,-473.91 672.66,-476.75 672.2,-469.77"/>
<text text-anchor="middle" x="793.72" y="-460.9" font-family="Arial" font-size="14.00">d_stp</text>
</g>
<!-- OpenMd&#45;&gt;CloseMd -->
<g id="edge26" class="edge">
<title>OpenMd&#45;&gt;CloseMd</title>
<path fill="none" stroke="black" d="M985.57,-257.55C962.61,-232.01 916.5,-189 866.47,-189 528.84,-189 528.84,-189 528.84,-189 478.15,-189 431.07,-229.31 404.41,-257.41"/>
<polygon fill="black" stroke="black" points="402.02,-254.84 397.84,-264.57 407.18,-259.57 402.02,-254.84"/>
<text text-anchor="middle" x="715.97" y="-191.45" font-family="Arial" font-size="14.00">d_close</text>
</g>
<!-- OpenMd&#45;&gt;OpenOp -->
<g id="edge27" class="edge">
<title>OpenMd&#45;&gt;OpenOp</title>
<path fill="none" stroke="black" d="M1016.74,-257.69C1042.37,-223.89 1097.23,-151.56 1127.18,-112.08"/>
<polygon fill="black" stroke="black" points="1129.7,-114.55 1132.96,-104.46 1124.12,-110.32 1129.7,-114.55"/>
<text text-anchor="middle" x="1075.47" y="-205.67" font-family="Arial" font-size="14.00">d_arop</text>
</g>
<!-- OpenMd&#45;&gt;OpenMd -->
<g id="edge28" class="edge">
<title>OpenMd&#45;&gt;OpenMd</title>
<path fill="none" stroke="black" d="M989.2,-294.15C987.26,-303.54 991.47,-312 1001.84,-312 1007.68,-312 1011.57,-309.32 1013.5,-305.31"/>
<polygon fill="black" stroke="black" points="1016.96,-305.93 1014.35,-295.66 1009.99,-305.31 1016.96,-305.93"/>
<text text-anchor="middle" x="1001.84" y="-314.45" font-family="Arial" font-size="14.00">d_open</text>
</g>
<!-- OpenCl&#45;&gt;IdleCl -->
<g id="edge29" class="edge">
<title>OpenCl&#45;&gt;IdleCl</title>
<path fill="none" stroke="black" d="M834.06,-354.29C815.74,-360.03 792.02,-367.72 771.22,-375.25 768.89,-376.09 766.52,-376.97 764.13,-377.87"/>
<polygon fill="black" stroke="black" points="763.1,-374.52 755.02,-381.38 765.61,-381.05 763.1,-374.52"/>
<text text-anchor="middle" x="793.72" y="-377.7" font-family="Arial" font-size="14.00">d_stp</text>
</g>
<!-- OpenCl&#45;&gt;CloseCl -->
<g id="edge30" class="edge">
<title>OpenCl&#45;&gt;CloseCl</title>
<path fill="none" stroke="black" d="M833.97,-338.09C811.72,-333.42 780.77,-327.68 753.22,-325.25 690.49,-319.72 617.81,-329.17 573.08,-336.81"/>
<polygon fill="black" stroke="black" points="572.51,-333.35 563.27,-338.54 573.73,-340.25 572.51,-333.35"/>
<text text-anchor="middle" x="715.97" y="-327.7" font-family="Arial" font-size="14.00">d_close</text>
</g>
<!-- OpenCl&#45;&gt;OpenMd -->
<g id="edge31" class="edge">
<title>OpenCl&#45;&gt;OpenMd</title>
<path fill="none" stroke="black" d="M896.96,-329.34C914.68,-320.24 937.32,-308.62 956.93,-298.55"/>
<polygon fill="black" stroke="black" points="958.53,-301.66 965.83,-293.98 955.33,-295.44 958.53,-301.66"/>
<text text-anchor="middle" x="931.97" y="-321.16" font-family="Arial" font-size="14.00">d_lvcl</text>
</g>
<!-- OpenCl&#45;&gt;OpenCl -->
<g id="edge32" class="edge">
<title>OpenCl&#45;&gt;OpenCl</title>
<path fill="none" stroke="black" d="M853.44,-363.15C851.59,-372.54 855.6,-381 865.47,-381 871.02,-381 874.72,-378.32 876.56,-374.31"/>
<polygon fill="black" stroke="black" points="880.03,-374.92 877.37,-364.66 873.05,-374.33 880.03,-374.92"/>
<text text-anchor="middle" x="865.47" y="-383.45" font-family="Arial" font-size="14.00">d_open</text>
</g>
</g>
</svg>
