<?xml version="1.0" encoding="UTF-8" standalone="no"?>
<!DOCTYPE svg PUBLIC "-//W3C//DTD SVG 1.0//EN"
 "http://www.w3.org/TR/2001/REC-SVG-20010904/DTD/svg10.dtd" [
 <!ATTLIST svg xmlns:xlink CDATA #FIXED "http://www.w3.org/1999/xlink">
]>
<!-- Generated by Graphviz version 2.20.2 (Tue Mar &#160;2 21:46:26 UTC 2010)
     For user: (mtmoor) Prof. Thomas Moor -->
<!-- Title: E_cabmot Pages: 1 -->
<svg width="578pt" height="211pt"
 viewBox="0.00 0.00 578.00 211.00" xmlns="http://www.w3.org/2000/svg" xmlns:xlink="http://www.w3.org/1999/xlink">
<g id="graph0" class="graph" transform="scale(1 1) rotate(0) translate(4 207)">
<title>E_cabmot</title>
<polygon style="fill:none;stroke:none;" points="-4,4 -4,-207 574,-207 574,4 -4,4"/>
<!-- dot_dummyinit_1 -->
<g id="node1" class="node"><title>dot_dummyinit_1</title>
</g>
<!-- Idle -->
<g id="node3" class="node"><title>Idle</title>
<ellipse style="fill:none;stroke:black;" cx="72" cy="-66" rx="28.0519" ry="28.0519"/>
<ellipse style="fill:none;stroke:black;" cx="72" cy="-66" rx="31.9903" ry="31.9903"/>
<text text-anchor="middle" x="72" y="-61.9" style="font-family:Times New Roman;font-size:14.00;">Idle</text>
</g>
<!-- dot_dummyinit_1&#45;&gt;Idle -->
<g id="edge2" class="edge"><title>dot_dummyinit_1&#45;&gt;Idle</title>
<path style="fill:none;stroke:black;" d="M2,-66C5,-66 17,-66 30,-66"/>
<polygon style="fill:black;stroke:black;" points="30,-69.5001 40,-66 30,-62.5001 30,-69.5001"/>
</g>
<!-- Idle&#45;&gt;Idle -->
<g id="edge4" class="edge"><title>Idle&#45;&gt;Idle</title>
<path style="fill:none;stroke:black;" d="M69,-98C69,-108 70,-116 72,-116 73,-116 74,-113 75,-108"/>
<polygon style="fill:black;stroke:black;" points="78.5001,-108 75,-98 71.5001,-108 78.5001,-108"/>
<text text-anchor="middle" x="72" y="-119.9" style="font-family:Times New Roman;font-size:14.00;">c_arlw</text>
</g>
<!-- Idle&#45;&gt;Idle -->
<g id="edge6" class="edge"><title>Idle&#45;&gt;Idle</title>
<path style="fill:none;stroke:black;" d="M46,-85C26,-107 34,-134 72,-134 105,-134 116,-113 104,-93"/>
<polygon style="fill:black;stroke:black;" points="106.8,-90.9 98,-85 101.2,-95.1 106.8,-90.9"/>
<text text-anchor="middle" x="72" y="-137.9" style="font-family:Times New Roman;font-size:14.00;">c_arup</text>
</g>
<!-- Idle&#45;&gt;Idle -->
<g id="edge12" class="edge"><title>Idle&#45;&gt;Idle</title>
<path style="fill:none;stroke:black;" d="M47,-86C21,-115 30,-152 72,-152 110,-152 121,-121 103,-94"/>
<polygon style="fill:black;stroke:black;" points="105.8,-91.9 97,-86 100.2,-96.1 105.8,-91.9"/>
<text text-anchor="middle" x="72" y="-155.9" style="font-family:Times New Roman;font-size:14.00;">a_fail</text>
</g>
<!-- Down -->
<g id="node4" class="node"><title>Down</title>
<ellipse style="fill:none;stroke:black;" cx="233" cy="-147" rx="39.1069" ry="39.1069"/>
<text text-anchor="middle" x="233" y="-142.9" style="font-family:Times New Roman;font-size:14.00;">Down</text>
</g>
<!-- Idle&#45;&gt;Down -->
<g id="edge10" class="edge"><title>Idle&#45;&gt;Down</title>
<path style="fill:none;stroke:black;" d="M101,-80C125,-93 161,-111 189,-125"/>
<polygon style="fill:black;stroke:black;" points="187.44,-128.137 198,-129 190.283,-121.74 187.44,-128.137"/>
<text text-anchor="middle" x="149" y="-118.9" style="font-family:Times New Roman;font-size:14.00;">c_down</text>
</g>
<!-- Up -->
<g id="node5" class="node"><title>Up</title>
<ellipse style="fill:none;stroke:black;" cx="233" cy="-66" rx="23.8245" ry="23.8245"/>
<text text-anchor="middle" x="233" y="-61.9" style="font-family:Times New Roman;font-size:14.00;">Up</text>
</g>
<!-- Idle&#45;&gt;Up -->
<g id="edge8" class="edge"><title>Idle&#45;&gt;Up</title>
<path style="fill:none;stroke:black;" d="M104,-66C131,-66 171,-66 199,-66"/>
<polygon style="fill:black;stroke:black;" points="199,-69.5001 209,-66 199,-62.5001 199,-69.5001"/>
<text text-anchor="middle" x="149" y="-69.9" style="font-family:Times New Roman;font-size:14.00;">c_up</text>
</g>
<!-- Stop -->
<g id="node6" class="node"><title>Stop</title>
<ellipse style="fill:none;stroke:black;" cx="391" cy="-75" rx="32.8565" ry="32.8565"/>
<text text-anchor="middle" x="391" y="-70.9" style="font-family:Times New Roman;font-size:14.00;">Stop</text>
</g>
<!-- Down&#45;&gt;Stop -->
<g id="edge14" class="edge"><title>Down&#45;&gt;Stop</title>
<path style="fill:none;stroke:black;" d="M269,-131C293,-119 326,-105 352,-93"/>
<polygon style="fill:black;stroke:black;" points="353.283,-96.2598 361,-89 350.44,-89.8631 353.283,-96.2598"/>
<text text-anchor="middle" x="315" y="-123.9" style="font-family:Times New Roman;font-size:14.00;">c_arlw</text>
</g>
<!-- Up&#45;&gt;Stop -->
<g id="edge16" class="edge"><title>Up&#45;&gt;Stop</title>
<path style="fill:none;stroke:black;" d="M257,-67C281,-69 319,-71 348,-72"/>
<polygon style="fill:black;stroke:black;" points="347.701,-75.4875 358,-73 348.398,-68.5222 347.701,-75.4875"/>
<text text-anchor="middle" x="315" y="-74.9" style="font-family:Times New Roman;font-size:14.00;">c_arup</text>
</g>
<!-- Done -->
<g id="node7" class="node"><title>Done</title>
<ellipse style="fill:none;stroke:black;" cx="533" cy="-37" rx="36.8288" ry="36.8288"/>
<text text-anchor="middle" x="533" y="-32.9" style="font-family:Times New Roman;font-size:14.00;">Done</text>
</g>
<!-- Stop&#45;&gt;Done -->
<g id="edge18" class="edge"><title>Stop&#45;&gt;Done</title>
<path style="fill:none;stroke:black;" d="M423,-66C442,-61 466,-55 487,-49"/>
<polygon style="fill:black;stroke:black;" points="488.427,-52.2259 497,-46 486.416,-45.5212 488.427,-52.2259"/>
<text text-anchor="middle" x="460" y="-63.9" style="font-family:Times New Roman;font-size:14.00;">c_stp</text>
</g>
<!-- Done&#45;&gt;Idle -->
<g id="edge20" class="edge"><title>Done&#45;&gt;Idle</title>
<path style="fill:none;stroke:black;" d="M496,-33C434,-28 303,-19 194,-33 166,-37 136,-45 112,-52"/>
<polygon style="fill:black;stroke:black;" points="110.573,-48.7741 102,-55 112.584,-55.4788 110.573,-48.7741"/>
<text text-anchor="middle" x="315" y="-30.9" style="font-family:Times New Roman;font-size:14.00;">a_done</text>
</g>
</g>
</svg>
