<?xml version="1.0" encoding="UTF-8" standalone="no"?>
<!DOCTYPE svg PUBLIC "-//W3C//DTD SVG 1.1//EN"
 "http://www.w3.org/Graphics/SVG/1.1/DTD/svg11.dtd">
<!-- Generated by graphviz version 12.2.1 (20241206.2353)
 -->
<!-- Title: elevator core plant (cabin plus buttons) Pages: 1 -->
<svg width="720pt" height="439pt"
 viewBox="0.00 0.00 720.00 439.06" xmlns="http://www.w3.org/2000/svg" xmlns:xlink="http://www.w3.org/1999/xlink">
<g id="graph0" class="graph" transform="scale(0.778825 0.778825) rotate(0) translate(4 559.75)">
<title>elevator core plant (cabin plus buttons)</title>
<!-- dot_dummyinit_1 -->
<g id="node1" class="node">
<title>dot_dummyinit_1</title>
</g>
<!-- 1 -->
<g id="node2" class="node">
<title>1</title>
<ellipse fill="none" stroke="black" cx="59.72" cy="-55" rx="18" ry="18"/>
<ellipse fill="none" stroke="black" cx="59.72" cy="-55" rx="22" ry="22"/>
<text text-anchor="middle" x="59.72" y="-49.58" font-family="Arial" font-size="14.00">1</text>
</g>
<!-- dot_dummyinit_1&#45;&gt;1 -->
<g id="edge1" class="edge">
<title>dot_dummyinit_1&#45;&gt;1</title>
<path fill="none" stroke="black" d="M0.89,-55C2.38,-55 13.74,-55 26,-55"/>
<polygon fill="black" stroke="black" points="25.74,-58.5 35.74,-55 25.74,-51.5 25.74,-58.5"/>
</g>
<!-- 1&#45;&gt;1 -->
<g id="edge2" class="edge">
<title>1&#45;&gt;1</title>
<path fill="none" stroke="black" d="M52.31,-75.99C51.4,-86.09 53.87,-95 59.72,-95 63.2,-95 65.48,-91.86 66.57,-87.19"/>
<polygon fill="black" stroke="black" points="70.05,-87.66 67.05,-77.5 63.06,-87.31 70.05,-87.66"/>
<text text-anchor="middle" x="59.72" y="-113.2" font-family="Arial" font-size="14.00">c_stp, o_upb, </text>
<text text-anchor="middle" x="59.72" y="-97.45" font-family="Arial" font-size="14.00">o_lwb</text>
</g>
<!-- 2 -->
<g id="node4" class="node">
<title>2</title>
<ellipse fill="none" stroke="black" cx="167.97" cy="-111" rx="18" ry="18"/>
<text text-anchor="middle" x="167.97" y="-105.58" font-family="Arial" font-size="14.00">2</text>
</g>
<!-- 1&#45;&gt;2 -->
<g id="edge3" class="edge">
<title>1&#45;&gt;2</title>
<path fill="none" stroke="black" d="M75.55,-70.45C82.41,-76.9 90.97,-84.03 99.72,-89 111.9,-95.92 126.58,-101.04 139.12,-104.59"/>
<polygon fill="black" stroke="black" points="137.86,-107.88 148.42,-107.04 139.64,-101.11 137.86,-107.88"/>
<text text-anchor="middle" x="115.85" y="-104.82" font-family="Arial" font-size="14.00">c_up</text>
</g>
<!-- 3 -->
<g id="node5" class="node">
<title>3</title>
<ellipse fill="none" stroke="black" cx="866.97" cy="-85" rx="18" ry="18"/>
<text text-anchor="middle" x="866.97" y="-79.58" font-family="Arial" font-size="14.00">3</text>
</g>
<!-- 1&#45;&gt;3 -->
<g id="edge4" class="edge">
<title>1&#45;&gt;3</title>
<path fill="none" stroke="black" d="M81.35,-50.03C102.66,-45.33 136.94,-39 166.97,-39 166.97,-39 166.97,-39 749.47,-39 783.26,-39 818.95,-55.95 841.79,-69.27"/>
<polygon fill="black" stroke="black" points="839.96,-72.25 850.32,-74.46 843.59,-66.27 839.96,-72.25"/>
<text text-anchor="middle" x="449.22" y="-41.45" font-family="Arial" font-size="14.00">c_down</text>
</g>
<!-- 9 -->
<g id="node3" class="node">
<title>9</title>
<ellipse fill="none" stroke="black" cx="513.72" cy="-245" rx="18" ry="18"/>
<ellipse fill="none" stroke="black" cx="513.72" cy="-245" rx="22" ry="22"/>
<text text-anchor="middle" x="513.72" y="-239.57" font-family="Arial" font-size="14.00">9</text>
</g>
<!-- 9&#45;&gt;9 -->
<g id="edge32" class="edge">
<title>9&#45;&gt;9</title>
<path fill="none" stroke="black" d="M502.29,-263.93C499.96,-274.84 503.77,-285 513.72,-285 519.94,-285 523.76,-281.03 525.18,-275.39"/>
<polygon fill="black" stroke="black" points="528.68,-275.43 525.15,-265.44 521.68,-275.45 528.68,-275.43"/>
<text text-anchor="middle" x="513.72" y="-303.2" font-family="Arial" font-size="14.00">c_stp, o_upb, </text>
<text text-anchor="middle" x="513.72" y="-287.45" font-family="Arial" font-size="14.00">o_lwb</text>
</g>
<!-- 7 -->
<g id="node9" class="node">
<title>7</title>
<ellipse fill="none" stroke="black" cx="389.97" cy="-284" rx="18" ry="18"/>
<text text-anchor="middle" x="389.97" y="-278.57" font-family="Arial" font-size="14.00">7</text>
</g>
<!-- 9&#45;&gt;7 -->
<g id="edge30" class="edge">
<title>9&#45;&gt;7</title>
<path fill="none" stroke="black" d="M492.04,-239.29C473.77,-235.39 446.86,-232.5 425.97,-242.25 418.07,-245.93 411.33,-252.37 405.93,-259.11"/>
<polygon fill="black" stroke="black" points="403.25,-256.84 400.29,-267.01 408.95,-260.9 403.25,-256.84"/>
<text text-anchor="middle" x="449.22" y="-244.7" font-family="Arial" font-size="14.00">c_up</text>
</g>
<!-- 8 -->
<g id="node10" class="node">
<title>8</title>
<ellipse fill="none" stroke="black" cx="637.47" cy="-284" rx="18" ry="18"/>
<text text-anchor="middle" x="637.47" y="-278.57" font-family="Arial" font-size="14.00">8</text>
</g>
<!-- 9&#45;&gt;8 -->
<g id="edge31" class="edge">
<title>9&#45;&gt;8</title>
<path fill="none" stroke="black" d="M534.17,-253.84C540.7,-256.65 548.08,-259.63 554.97,-262 572.42,-268.01 592.42,-273.43 608.24,-277.38"/>
<polygon fill="black" stroke="black" points="607.39,-280.78 617.94,-279.75 609.05,-273.98 607.39,-280.78"/>
<text text-anchor="middle" x="578.22" y="-278.01" font-family="Arial" font-size="14.00">c_down</text>
</g>
<!-- 2&#45;&gt;1 -->
<g id="edge5" class="edge">
<title>2&#45;&gt;1</title>
<path fill="none" stroke="black" d="M157.85,-95.59C151.68,-86.52 142.71,-75.62 131.97,-69.25 120.34,-62.35 105.96,-58.73 93.17,-56.86"/>
<polygon fill="black" stroke="black" points="93.83,-53.41 83.5,-55.75 93.03,-60.36 93.83,-53.41"/>
<text text-anchor="middle" x="115.85" y="-71.7" font-family="Arial" font-size="14.00">c_stp</text>
</g>
<!-- 2&#45;&gt;2 -->
<g id="edge6" class="edge">
<title>2&#45;&gt;2</title>
<path fill="none" stroke="black" d="M158.97,-126.92C156.62,-137.15 159.62,-147 167.97,-147 173.06,-147 176.16,-143.34 177.27,-138.17"/>
<polygon fill="black" stroke="black" points="180.78,-138.33 177.01,-128.43 173.78,-138.52 180.78,-138.33"/>
<text text-anchor="middle" x="167.97" y="-165.2" font-family="Arial" font-size="14.00">c_up, o_upb, </text>
<text text-anchor="middle" x="167.97" y="-149.45" font-family="Arial" font-size="14.00">o_lwb</text>
</g>
<!-- 2&#45;&gt;3 -->
<g id="edge7" class="edge">
<title>2&#45;&gt;3</title>
<path fill="none" stroke="black" d="M184.95,-104.57C205.57,-96.87 242.72,-85 275.72,-85 275.72,-85 275.72,-85 749.47,-85 779.44,-85 813.74,-85 837.33,-85"/>
<polygon fill="black" stroke="black" points="837.09,-88.5 847.09,-85 837.09,-81.5 837.09,-88.5"/>
<text text-anchor="middle" x="513.72" y="-87.45" font-family="Arial" font-size="14.00">c_down</text>
</g>
<!-- 4 -->
<g id="node6" class="node">
<title>4</title>
<ellipse fill="none" stroke="black" cx="276.72" cy="-431" rx="18" ry="18"/>
<text text-anchor="middle" x="276.72" y="-425.57" font-family="Arial" font-size="14.00">4</text>
</g>
<!-- 2&#45;&gt;4 -->
<g id="edge8" class="edge">
<title>2&#45;&gt;4</title>
<path fill="none" stroke="black" d="M174.71,-128.2C192.2,-180.63 244.95,-338.75 266.45,-403.2"/>
<polygon fill="black" stroke="black" points="263.12,-404.28 269.6,-412.66 269.76,-402.07 263.12,-404.28"/>
<text text-anchor="middle" x="222.35" y="-320.81" font-family="Arial" font-size="14.00">c_lvlw</text>
</g>
<!-- 3&#45;&gt;1 -->
<g id="edge9" class="edge">
<title>3&#45;&gt;1</title>
<path fill="none" stroke="black" d="M856.62,-70.17C850.23,-60.92 841.12,-49.25 830.97,-41 799.5,-15.43 790.02,0 749.47,0 166.97,0 166.97,0 166.97,0 136.49,0 106.04,-18.08 85.6,-33.5"/>
<polygon fill="black" stroke="black" points="83.54,-30.66 77.87,-39.61 87.88,-36.16 83.54,-30.66"/>
<text text-anchor="middle" x="449.22" y="-2.45" font-family="Arial" font-size="14.00">c_stp</text>
</g>
<!-- 3&#45;&gt;2 -->
<g id="edge10" class="edge">
<title>3&#45;&gt;2</title>
<path fill="none" stroke="black" d="M852.15,-95.77C831.2,-111.01 789.56,-137 749.47,-137 275.72,-137 275.72,-137 275.72,-137 247.88,-137 217.08,-128.55 195.75,-121.28"/>
<polygon fill="black" stroke="black" points="196.97,-118 186.38,-117.94 194.62,-124.59 196.97,-118"/>
<text text-anchor="middle" x="513.72" y="-139.45" font-family="Arial" font-size="14.00">c_up</text>
</g>
<!-- 3&#45;&gt;3 -->
<g id="edge11" class="edge">
<title>3&#45;&gt;3</title>
<path fill="none" stroke="black" d="M856.95,-100.17C853.91,-110.66 857.25,-121 866.97,-121 873.05,-121 876.63,-116.96 877.72,-111.37"/>
<polygon fill="black" stroke="black" points="881.23,-111.43 877.09,-101.68 874.25,-111.88 881.23,-111.43"/>
<text text-anchor="middle" x="866.97" y="-139.2" font-family="Arial" font-size="14.00">c_down, o_upb, </text>
<text text-anchor="middle" x="866.97" y="-123.45" font-family="Arial" font-size="14.00">o_lwb</text>
</g>
<!-- 4&#45;&gt;4 -->
<g id="edge12" class="edge">
<title>4&#45;&gt;4</title>
<path fill="none" stroke="black" d="M267.33,-446.92C264.88,-457.15 268.01,-467 276.72,-467 282.03,-467 285.26,-463.34 286.43,-458.17"/>
<polygon fill="black" stroke="black" points="289.93,-458.33 286.15,-448.43 282.93,-458.52 289.93,-458.33"/>
<text text-anchor="middle" x="276.72" y="-485.2" font-family="Arial" font-size="14.00">c_up, o_upb, </text>
<text text-anchor="middle" x="276.72" y="-469.45" font-family="Arial" font-size="14.00">o_lwb</text>
</g>
<!-- 5 -->
<g id="node7" class="node">
<title>5</title>
<ellipse fill="none" stroke="black" cx="748.47" cy="-405" rx="18" ry="18"/>
<text text-anchor="middle" x="748.47" y="-399.57" font-family="Arial" font-size="14.00">5</text>
</g>
<!-- 4&#45;&gt;5 -->
<g id="edge13" class="edge">
<title>4&#45;&gt;5</title>
<path fill="none" stroke="black" d="M294.03,-424.71C315.47,-417.01 354.46,-405 388.97,-405 388.97,-405 388.97,-405 638.47,-405 665.65,-405 696.64,-405 718.61,-405"/>
<polygon fill="black" stroke="black" points="718.59,-408.5 728.59,-405 718.59,-401.5 718.59,-408.5"/>
<text text-anchor="middle" x="513.72" y="-407.45" font-family="Arial" font-size="14.00">c_down</text>
</g>
<!-- 6 -->
<g id="node8" class="node">
<title>6</title>
<ellipse fill="none" stroke="black" cx="866.97" cy="-485" rx="18" ry="18"/>
<text text-anchor="middle" x="866.97" y="-479.57" font-family="Arial" font-size="14.00">6</text>
</g>
<!-- 4&#45;&gt;6 -->
<g id="edge14" class="edge">
<title>4&#45;&gt;6</title>
<path fill="none" stroke="black" d="M289.21,-444.5C307.88,-464.84 346.98,-501 388.97,-501 388.97,-501 388.97,-501 749.47,-501 779.89,-501 814.37,-495.58 837.88,-491.05"/>
<polygon fill="black" stroke="black" points="838.49,-494.49 847.61,-489.09 837.11,-487.63 838.49,-494.49"/>
<text text-anchor="middle" x="578.22" y="-503.45" font-family="Arial" font-size="14.00">c_stp</text>
</g>
<!-- 4&#45;&gt;7 -->
<g id="edge15" class="edge">
<title>4&#45;&gt;7</title>
<path fill="none" stroke="black" d="M286.69,-415.49C293.46,-404.1 303.18,-388.38 312.72,-375.25 330.87,-350.28 353.83,-323.34 369.79,-305.26"/>
<polygon fill="black" stroke="black" points="371.97,-308.07 376.01,-298.27 366.74,-303.42 371.97,-308.07"/>
<text text-anchor="middle" x="333.35" y="-377.7" font-family="Arial" font-size="14.00">c_arup</text>
</g>
<!-- 5&#45;&gt;3 -->
<g id="edge16" class="edge">
<title>5&#45;&gt;3</title>
<path fill="none" stroke="black" d="M755.57,-388.25C774.52,-336.2 832.49,-176.97 855.95,-112.52"/>
<polygon fill="black" stroke="black" points="859.14,-113.99 859.27,-103.4 852.56,-111.6 859.14,-113.99"/>
<text text-anchor="middle" x="807.72" y="-303.94" font-family="Arial" font-size="14.00">c_arlw</text>
</g>
<!-- 5&#45;&gt;4 -->
<g id="edge17" class="edge">
<title>5&#45;&gt;4</title>
<path fill="none" stroke="black" d="M734,-416.28C714.34,-431.58 676,-457 638.47,-457 388.97,-457 388.97,-457 388.97,-457 359.58,-457 326.94,-448.29 304.66,-440.95"/>
<polygon fill="black" stroke="black" points="306.05,-437.73 295.46,-437.79 303.78,-444.35 306.05,-437.73"/>
<text text-anchor="middle" x="513.72" y="-459.45" font-family="Arial" font-size="14.00">c_up</text>
</g>
<!-- 5&#45;&gt;5 -->
<g id="edge18" class="edge">
<title>5&#45;&gt;5</title>
<path fill="none" stroke="black" d="M738.98,-420.54C736.31,-430.91 739.47,-441 748.47,-441 753.95,-441 757.27,-437.25 758.42,-431.98"/>
<polygon fill="black" stroke="black" points="761.92,-431.91 758.02,-422.05 754.92,-432.19 761.92,-431.91"/>
<text text-anchor="middle" x="748.47" y="-459.2" font-family="Arial" font-size="14.00">c_down, o_upb, </text>
<text text-anchor="middle" x="748.47" y="-443.45" font-family="Arial" font-size="14.00">o_lwb</text>
</g>
<!-- 5&#45;&gt;6 -->
<g id="edge19" class="edge">
<title>5&#45;&gt;6</title>
<path fill="none" stroke="black" d="M766.72,-405.46C784.44,-406.75 812.06,-411.1 830.97,-425.25 841.95,-433.46 850.1,-446.22 855.75,-457.84"/>
<polygon fill="black" stroke="black" points="852.4,-458.92 859.64,-466.65 858.8,-456.09 852.4,-458.92"/>
<text text-anchor="middle" x="807.72" y="-427.7" font-family="Arial" font-size="14.00">c_stp</text>
</g>
<!-- 6&#45;&gt;4 -->
<g id="edge20" class="edge">
<title>6&#45;&gt;4</title>
<path fill="none" stroke="black" d="M852.6,-496.13C831.89,-512.2 790.18,-540 749.47,-540 388.97,-540 388.97,-540 388.97,-540 349.39,-540 340.2,-522.48 312.72,-494 302.81,-483.73 294.78,-470.1 288.93,-458.15"/>
<polygon fill="black" stroke="black" points="292.15,-456.79 284.8,-449.16 285.79,-459.71 292.15,-456.79"/>
<text text-anchor="middle" x="578.22" y="-542.45" font-family="Arial" font-size="14.00">c_up</text>
</g>
<!-- 6&#45;&gt;5 -->
<g id="edge21" class="edge">
<title>6&#45;&gt;5</title>
<path fill="none" stroke="black" d="M850.11,-478.2C833.04,-470.49 805.51,-456.9 784.47,-441 778.95,-436.82 773.48,-431.77 768.57,-426.79"/>
<polygon fill="black" stroke="black" points="771.35,-424.64 761.95,-419.75 766.25,-429.43 771.35,-424.64"/>
<text text-anchor="middle" x="807.72" y="-470.74" font-family="Arial" font-size="14.00">c_down</text>
</g>
<!-- 6&#45;&gt;6 -->
<g id="edge22" class="edge">
<title>6&#45;&gt;6</title>
<path fill="none" stroke="black" d="M856.95,-500.17C853.91,-510.66 857.25,-521 866.97,-521 873.05,-521 876.63,-516.96 877.72,-511.37"/>
<polygon fill="black" stroke="black" points="881.23,-511.43 877.09,-501.68 874.25,-511.88 881.23,-511.43"/>
<text text-anchor="middle" x="866.97" y="-539.2" font-family="Arial" font-size="14.00">c_stp, o_upb, </text>
<text text-anchor="middle" x="866.97" y="-523.45" font-family="Arial" font-size="14.00">o_lwb</text>
</g>
<!-- 7&#45;&gt;9 -->
<g id="edge25" class="edge">
<title>7&#45;&gt;9</title>
<path fill="none" stroke="black" d="M408.03,-280.11C424.66,-276.15 450.58,-269.54 472.47,-262 475.81,-260.85 479.26,-259.56 482.67,-258.21"/>
<polygon fill="black" stroke="black" points="483.96,-261.47 491.87,-254.42 481.3,-255 483.96,-261.47"/>
<text text-anchor="middle" x="449.22" y="-278.01" font-family="Arial" font-size="14.00">c_stp</text>
</g>
<!-- 7&#45;&gt;7 -->
<g id="edge23" class="edge">
<title>7&#45;&gt;7</title>
<path fill="none" stroke="black" d="M380.29,-299.54C377.56,-309.91 380.79,-320 389.97,-320 395.56,-320 398.95,-316.25 400.12,-310.98"/>
<polygon fill="black" stroke="black" points="403.62,-310.9 399.71,-301.05 396.63,-311.19 403.62,-310.9"/>
<text text-anchor="middle" x="389.97" y="-338.2" font-family="Arial" font-size="14.00">c_up, o_upb, </text>
<text text-anchor="middle" x="389.97" y="-322.45" font-family="Arial" font-size="14.00">o_lwb</text>
</g>
<!-- 7&#45;&gt;8 -->
<g id="edge24" class="edge">
<title>7&#45;&gt;8</title>
<path fill="none" stroke="black" d="M399.02,-267.91C405.22,-256.76 414.62,-242.16 425.97,-232 464.39,-197.61 487.13,-185.05 536.97,-198.25 568.86,-206.7 576.98,-212.89 601.47,-235 609.08,-241.87 616,-250.67 621.64,-258.92"/>
<polygon fill="black" stroke="black" points="618.66,-260.75 627.02,-267.25 624.54,-256.95 618.66,-260.75"/>
<text text-anchor="middle" x="513.72" y="-200.7" font-family="Arial" font-size="14.00">c_down</text>
</g>
<!-- 8&#45;&gt;9 -->
<g id="edge29" class="edge">
<title>8&#45;&gt;9</title>
<path fill="none" stroke="black" d="M627.09,-269C620.94,-260.64 612.08,-250.97 601.47,-246.25 584.48,-238.69 563.69,-238.13 546.72,-239.58"/>
<polygon fill="black" stroke="black" points="546.72,-236.06 537.19,-240.67 547.52,-243.01 546.72,-236.06"/>
<text text-anchor="middle" x="578.22" y="-248.7" font-family="Arial" font-size="14.00">c_stp</text>
</g>
<!-- 8&#45;&gt;5 -->
<g id="edge26" class="edge">
<title>8&#45;&gt;5</title>
<path fill="none" stroke="black" d="M650.13,-296.95C668.72,-317.58 705.27,-358.15 727.91,-383.28"/>
<polygon fill="black" stroke="black" points="725.25,-385.57 734.55,-390.65 730.45,-380.88 725.25,-385.57"/>
<text text-anchor="middle" x="692.97" y="-368.31" font-family="Arial" font-size="14.00">c_lvup</text>
</g>
<!-- 8&#45;&gt;7 -->
<g id="edge27" class="edge">
<title>8&#45;&gt;7</title>
<path fill="none" stroke="black" d="M621.24,-292.71C602.23,-303.04 568.4,-319.64 536.97,-326 516.71,-330.1 510.73,-330.1 490.47,-326 463.95,-320.63 435.72,-307.97 416.13,-297.95"/>
<polygon fill="black" stroke="black" points="418.02,-294.99 407.54,-293.42 414.75,-301.18 418.02,-294.99"/>
<text text-anchor="middle" x="513.72" y="-331.52" font-family="Arial" font-size="14.00">c_up</text>
</g>
<!-- 8&#45;&gt;8 -->
<g id="edge28" class="edge">
<title>8&#45;&gt;8</title>
<path fill="none" stroke="black" d="M627.98,-299.54C625.31,-309.91 628.47,-320 637.47,-320 642.95,-320 646.27,-316.25 647.42,-310.98"/>
<polygon fill="black" stroke="black" points="650.92,-310.91 647.02,-301.05 643.92,-311.19 650.92,-310.91"/>
<text text-anchor="middle" x="637.47" y="-338.2" font-family="Arial" font-size="14.00">c_down, o_upb, </text>
<text text-anchor="middle" x="637.47" y="-322.45" font-family="Arial" font-size="14.00">o_lwb</text>
</g>
</g>
</svg>
