<?xml version="1.0" encoding="UTF-8" standalone="no"?>
<!DOCTYPE svg PUBLIC "-//W3C//DTD SVG 1.0//EN"
 "http://www.w3.org/TR/2001/REC-SVG-20010904/DTD/svg10.dtd" [
 <!ATTLIST svg xmlns:xlink CDATA #FIXED "http://www.w3.org/1999/xlink">
]>
<!-- Generated by Graphviz version 2.20.2 (Tue Mar &#160;2 21:46:26 UTC 2010)
     For user: (mtmoor) Prof. Thomas Moor -->
<!-- Title: Controller A (process unit) Pages: 1 -->
<svg width="592pt" height="148pt"
 viewBox="0.00 0.00 592.00 148.00" xmlns="http://www.w3.org/2000/svg" xmlns:xlink="http://www.w3.org/1999/xlink">
<g id="graph0" class="graph" transform="scale(1 1) rotate(0) translate(4 144)">
<title>Controller A (process unit)</title>
<polygon style="fill:none;stroke:none;" points="-4,4 -4,-144 588,-144 588,4 -4,4"/>
<!-- dot_dummyinit_1 -->
<g id="node1" class="node"><title>dot_dummyinit_1</title>
</g>
<!-- 1 -->
<g id="node3" class="node"><title>1</title>
<ellipse style="fill:none;stroke:black;" cx="62" cy="-60" rx="18" ry="18"/>
<ellipse style="fill:none;stroke:black;" cx="62" cy="-60" rx="22" ry="22"/>
<text text-anchor="middle" x="62" y="-55.9" style="font-family:Times New Roman;font-size:14.00;">1</text>
</g>
<!-- dot_dummyinit_1&#45;&gt;1 -->
<g id="edge2" class="edge"><title>dot_dummyinit_1&#45;&gt;1</title>
<path style="fill:none;stroke:black;" d="M2,-60C5,-60 17,-60 30,-60"/>
<polygon style="fill:black;stroke:black;" points="30,-63.5001 40,-60 30,-56.5001 30,-63.5001"/>
</g>
<!-- 2 -->
<g id="node4" class="node"><title>2</title>
<ellipse style="fill:none;stroke:black;" cx="176" cy="-60" rx="18" ry="18"/>
<text text-anchor="middle" x="176" y="-55.9" style="font-family:Times New Roman;font-size:14.00;">2</text>
</g>
<!-- 1&#45;&gt;2 -->
<g id="edge4" class="edge"><title>1&#45;&gt;2</title>
<path style="fill:none;stroke:black;" d="M84,-60C102,-60 128,-60 148,-60"/>
<polygon style="fill:black;stroke:black;" points="148,-63.5001 158,-60 148,-56.5001 148,-63.5001"/>
<text text-anchor="middle" x="121" y="-63.9" style="font-family:Times New Roman;font-size:14.00;">alpha</text>
</g>
<!-- 3 -->
<g id="node5" class="node"><title>3</title>
<ellipse style="fill:none;stroke:black;" cx="298" cy="-60" rx="18" ry="18"/>
<text text-anchor="middle" x="298" y="-55.9" style="font-family:Times New Roman;font-size:14.00;">3</text>
</g>
<!-- 2&#45;&gt;3 -->
<g id="edge6" class="edge"><title>2&#45;&gt;3</title>
<path style="fill:none;stroke:black;" d="M194,-60C214,-60 246,-60 270,-60"/>
<polygon style="fill:black;stroke:black;" points="270,-63.5001 280,-60 270,-56.5001 270,-63.5001"/>
<text text-anchor="middle" x="237" y="-63.9" style="font-family:Times New Roman;font-size:14.00;">p_start</text>
</g>
<!-- 4 -->
<g id="node6" class="node"><title>4</title>
<ellipse style="fill:none;stroke:black;" cx="448" cy="-78" rx="18" ry="18"/>
<text text-anchor="middle" x="448" y="-73.9" style="font-family:Times New Roman;font-size:14.00;">4</text>
</g>
<!-- 3&#45;&gt;4 -->
<g id="edge8" class="edge"><title>3&#45;&gt;4</title>
<path style="fill:none;stroke:black;" d="M316,-62C342,-66 389,-71 420,-75"/>
<polygon style="fill:black;stroke:black;" points="419.701,-78.4875 430,-76 420.398,-71.5222 419.701,-78.4875"/>
<text text-anchor="middle" x="373" y="-75.9" style="font-family:Times New Roman;font-size:14.00;">p_complete</text>
</g>
<!-- 6 -->
<g id="node8" class="node"><title>6</title>
<ellipse style="fill:none;stroke:black;" cx="448" cy="-18" rx="18" ry="18"/>
<text text-anchor="middle" x="448" y="-13.9" style="font-family:Times New Roman;font-size:14.00;">6</text>
</g>
<!-- 3&#45;&gt;6 -->
<g id="edge10" class="edge"><title>3&#45;&gt;6</title>
<path style="fill:none;stroke:black;" d="M314,-52C321,-49 328,-46 334,-44 363,-35 397,-27 420,-23"/>
<polygon style="fill:black;stroke:black;" points="420.881,-26.3933 430,-21 419.508,-19.5292 420.881,-26.3933"/>
<text text-anchor="middle" x="373" y="-51.9" style="font-family:Times New Roman;font-size:14.00;">lambda</text>
</g>
<!-- 5 -->
<g id="node7" class="node"><title>5</title>
<ellipse style="fill:none;stroke:black;" cx="566" cy="-104" rx="18" ry="18"/>
<text text-anchor="middle" x="566" y="-99.9" style="font-family:Times New Roman;font-size:14.00;">5</text>
</g>
<!-- 4&#45;&gt;5 -->
<g id="edge12" class="edge"><title>4&#45;&gt;5</title>
<path style="fill:none;stroke:black;" d="M466,-81C483,-83 509,-88 530,-93 533,-93 536,-94 539,-95"/>
<polygon style="fill:black;stroke:black;" points="538.416,-98.4788 549,-98 540.427,-91.7741 538.416,-98.4788"/>
<text text-anchor="middle" x="507" y="-96.9" style="font-family:Times New Roman;font-size:14.00;">p_stop</text>
</g>
<!-- 5&#45;&gt;1 -->
<g id="edge14" class="edge"><title>5&#45;&gt;1</title>
<path style="fill:none;stroke:black;" d="M548,-109C526,-115 484,-124 448,-124 176,-124 176,-124 176,-124 141,-124 108,-101 86,-83"/>
<polygon style="fill:black;stroke:black;" points="87.8306,-79.9511 78,-76 83.221,-85.2191 87.8306,-79.9511"/>
<text text-anchor="middle" x="298" y="-127.9" style="font-family:Times New Roman;font-size:14.00;">beta</text>
</g>
<!-- 6&#45;&gt;1 -->
<g id="edge16" class="edge"><title>6&#45;&gt;1</title>
<path style="fill:none;stroke:black;" d="M430,-18C384,-17 260,-17 158,-33 136,-37 111,-44 93,-50"/>
<polygon style="fill:black;stroke:black;" points="91.5725,-46.7741 83,-53 93.584,-53.4788 91.5725,-46.7741"/>
<text text-anchor="middle" x="237" y="-32.9" style="font-family:Times New Roman;font-size:14.00;">p_stop</text>
</g>
</g>
</svg>
