<?xml version="1.0" encoding="UTF-8" standalone="no"?>
<!DOCTYPE svg PUBLIC "-//W3C//DTD SVG 1.1//EN"
 "http://www.w3.org/Graphics/SVG/1.1/DTD/svg11.dtd">
<!-- Generated by graphviz version 12.2.1 (20241206.2353)
 -->
<!-- Title: Controller B (maintenance unit) Pages: 1 -->
<svg width="707pt" height="78pt"
 viewBox="0.00 0.00 706.97 78.00" xmlns="http://www.w3.org/2000/svg" xmlns:xlink="http://www.w3.org/1999/xlink">
<g id="graph0" class="graph" transform="scale(1 1) rotate(0) translate(4 74)">
<title>Controller B (maintenance unit)</title>
<!-- dot_dummyinit_1 -->
<g id="node1" class="node">
<title>dot_dummyinit_1</title>
</g>
<!-- 1 -->
<g id="node2" class="node">
<title>1</title>
<ellipse fill="none" stroke="black" cx="59.72" cy="-22" rx="18" ry="18"/>
<ellipse fill="none" stroke="black" cx="59.72" cy="-22" rx="22" ry="22"/>
<text text-anchor="middle" x="59.72" y="-16.57" font-family="Arial" font-size="14.00">1</text>
</g>
<!-- dot_dummyinit_1&#45;&gt;1 -->
<g id="edge1" class="edge">
<title>dot_dummyinit_1&#45;&gt;1</title>
<path fill="none" stroke="black" d="M0.89,-22C2.38,-22 13.74,-22 26,-22"/>
<polygon fill="black" stroke="black" points="25.74,-25.5 35.74,-22 25.74,-18.5 25.74,-25.5"/>
</g>
<!-- 2 -->
<g id="node3" class="node">
<title>2</title>
<ellipse fill="none" stroke="black" cx="200.22" cy="-52" rx="18" ry="18"/>
<text text-anchor="middle" x="200.22" y="-46.58" font-family="Arial" font-size="14.00">2</text>
</g>
<!-- 1&#45;&gt;2 -->
<g id="edge2" class="edge">
<title>1&#45;&gt;2</title>
<path fill="none" stroke="black" d="M81.45,-26.49C105.28,-31.65 144.49,-40.14 171.06,-45.9"/>
<polygon fill="black" stroke="black" points="170.28,-49.31 180.79,-48.01 171.76,-42.47 170.28,-49.31"/>
<text text-anchor="middle" x="131.97" y="-46.4" font-family="Arial" font-size="14.00">m_request</text>
</g>
<!-- 3 -->
<g id="node4" class="node">
<title>3</title>
<ellipse fill="none" stroke="black" cx="299.22" cy="-52" rx="18" ry="18"/>
<text text-anchor="middle" x="299.22" y="-46.58" font-family="Arial" font-size="14.00">3</text>
</g>
<!-- 2&#45;&gt;3 -->
<g id="edge3" class="edge">
<title>2&#45;&gt;3</title>
<path fill="none" stroke="black" d="M218.56,-52C232.77,-52 253.16,-52 269.76,-52"/>
<polygon fill="black" stroke="black" points="269.51,-55.5 279.51,-52 269.51,-48.5 269.51,-55.5"/>
<text text-anchor="middle" x="249.72" y="-54.45" font-family="Arial" font-size="14.00">mue</text>
</g>
<!-- 4 -->
<g id="node5" class="node">
<title>4</title>
<ellipse fill="none" stroke="black" cx="416.97" cy="-52" rx="18" ry="18"/>
<text text-anchor="middle" x="416.97" y="-46.58" font-family="Arial" font-size="14.00">4</text>
</g>
<!-- 3&#45;&gt;4 -->
<g id="edge4" class="edge">
<title>3&#45;&gt;4</title>
<path fill="none" stroke="black" d="M317.55,-52C335.96,-52 365.37,-52 387.26,-52"/>
<polygon fill="black" stroke="black" points="387.01,-55.5 397.01,-52 387.01,-48.5 387.01,-55.5"/>
<text text-anchor="middle" x="358.1" y="-54.45" font-family="Arial" font-size="14.00">m_start</text>
</g>
<!-- 5 -->
<g id="node6" class="node">
<title>5</title>
<ellipse fill="none" stroke="black" cx="563.97" cy="-52" rx="18" ry="18"/>
<text text-anchor="middle" x="563.97" y="-46.58" font-family="Arial" font-size="14.00">5</text>
</g>
<!-- 4&#45;&gt;5 -->
<g id="edge5" class="edge">
<title>4&#45;&gt;5</title>
<path fill="none" stroke="black" d="M435.46,-52C460.09,-52 505.26,-52 534.69,-52"/>
<polygon fill="black" stroke="black" points="534.35,-55.5 544.35,-52 534.35,-48.5 534.35,-55.5"/>
<text text-anchor="middle" x="490.47" y="-54.45" font-family="Arial" font-size="14.00">m_complete</text>
</g>
<!-- 6 -->
<g id="node7" class="node">
<title>6</title>
<ellipse fill="none" stroke="black" cx="680.97" cy="-22" rx="18" ry="18"/>
<text text-anchor="middle" x="680.97" y="-16.57" font-family="Arial" font-size="14.00">6</text>
</g>
<!-- 5&#45;&gt;6 -->
<g id="edge6" class="edge">
<title>5&#45;&gt;6</title>
<path fill="none" stroke="black" d="M581.45,-47.7C599.87,-42.9 630.03,-35.03 652.13,-29.26"/>
<polygon fill="black" stroke="black" points="652.89,-32.68 661.69,-26.77 651.13,-25.91 652.89,-32.68"/>
<text text-anchor="middle" x="622.47" y="-44.75" font-family="Arial" font-size="14.00">m_stop</text>
</g>
<!-- 6&#45;&gt;1 -->
<g id="edge7" class="edge">
<title>6&#45;&gt;1</title>
<path fill="none" stroke="black" d="M662.93,-18.13C640.57,-13.39 600.04,-6 564.97,-6 199.22,-6 199.22,-6 199.22,-6 162.58,-6 120.84,-11.59 92.85,-16.17"/>
<polygon fill="black" stroke="black" points="92.52,-12.67 83.24,-17.79 93.69,-19.58 92.52,-12.67"/>
<text text-anchor="middle" x="358.1" y="-8.45" font-family="Arial" font-size="14.00">lambda</text>
</g>
</g>
</svg>
