<?xml version="1.0" encoding="UTF-8" standalone="no"?>
<!DOCTYPE svg PUBLIC "-//W3C//DTD SVG 1.1//EN"
 "http://www.w3.org/Graphics/SVG/1.1/DTD/svg11.dtd">
<!-- Generated by graphviz version 12.2.1 (20241206.2353)
 -->
<!-- Title: E_cabmot Pages: 1 -->
<svg width="375pt" height="139pt"
 viewBox="0.00 0.00 375.22 139.04" xmlns="http://www.w3.org/2000/svg" xmlns:xlink="http://www.w3.org/1999/xlink">
<g id="graph0" class="graph" transform="scale(1 1) rotate(0) translate(4 135.04)">
<title>E_cabmot</title>
<!-- dot_dummyinit_1 -->
<g id="node1" class="node">
<title>dot_dummyinit_1</title>
</g>
<!-- Idle -->
<g id="node2" class="node">
<title>Idle</title>
<path fill="none" stroke="black" d="M87.47,-63.54C87.47,-63.54 49.72,-63.54 49.72,-63.54 43.72,-63.54 37.72,-57.54 37.72,-51.54 37.72,-51.54 37.72,-39.54 37.72,-39.54 37.72,-33.54 43.72,-27.54 49.72,-27.54 49.72,-27.54 87.47,-27.54 87.47,-27.54 93.47,-27.54 99.47,-33.54 99.47,-39.54 99.47,-39.54 99.47,-51.54 99.47,-51.54 99.47,-57.54 93.47,-63.54 87.47,-63.54"/>
<text text-anchor="start" x="49.72" y="-40.12" font-family="Arial" font-size="14.00">Idle</text>
<polygon fill="black" stroke="none" points="81.47,-35.67 81.47,-55.42 89.47,-55.42 89.47,-35.67 81.47,-35.67"/>
</g>
<!-- dot_dummyinit_1&#45;&gt;Idle -->
<g id="edge1" class="edge">
<title>dot_dummyinit_1&#45;&gt;Idle</title>
<path fill="none" stroke="black" d="M0.77,-45.54C1.6,-45.54 12.92,-45.54 26.02,-45.54"/>
<polygon fill="black" stroke="black" points="25.74,-49.04 35.74,-45.54 25.74,-42.04 25.74,-49.04"/>
</g>
<!-- Idle&#45;&gt;Idle -->
<g id="edge2" class="edge">
<title>Idle&#45;&gt;Idle</title>
<path fill="none" stroke="black" d="M64.13,-63.7C63.44,-73.08 64.93,-81.54 68.6,-81.54 70.6,-81.54 71.95,-79.01 72.65,-75.18"/>
<polygon fill="black" stroke="black" points="76.15,-75.33 73.01,-65.21 69.16,-75.08 76.15,-75.33"/>
<text text-anchor="middle" x="68.6" y="-83.99" font-family="Arial" font-size="14.00">c_arlw</text>
</g>
<!-- Idle&#45;&gt;Idle -->
<g id="edge3" class="edge">
<title>Idle&#45;&gt;Idle</title>
<path fill="none" stroke="black" d="M61.11,-63.8C57.23,-80.94 59.72,-99.54 68.6,-99.54 75.53,-99.54 78.57,-88.19 77.71,-75.05"/>
<polygon fill="black" stroke="black" points="81.2,-74.69 76.3,-65.3 74.27,-75.7 81.2,-74.69"/>
<text text-anchor="middle" x="68.6" y="-101.99" font-family="Arial" font-size="14.00">c_arup</text>
</g>
<!-- Down -->
<g id="node3" class="node">
<title>Down</title>
<path fill="none" stroke="black" d="M223.97,-117.54C223.97,-117.54 193.97,-117.54 193.97,-117.54 187.97,-117.54 181.97,-111.54 181.97,-105.54 181.97,-105.54 181.97,-93.54 181.97,-93.54 181.97,-87.54 187.97,-81.54 193.97,-81.54 193.97,-81.54 223.97,-81.54 223.97,-81.54 229.97,-81.54 235.97,-87.54 235.97,-93.54 235.97,-93.54 235.97,-105.54 235.97,-105.54 235.97,-111.54 229.97,-117.54 223.97,-117.54"/>
<text text-anchor="middle" x="208.97" y="-94.12" font-family="Arial" font-size="14.00">Down</text>
</g>
<!-- Idle&#45;&gt;Down -->
<g id="edge5" class="edge">
<title>Idle&#45;&gt;Down</title>
<path fill="none" stroke="black" d="M99.92,-58.41C105.73,-60.81 111.78,-63.28 117.47,-65.54 135.13,-72.55 154.87,-80 171.39,-86.15"/>
<polygon fill="black" stroke="black" points="169.72,-89.26 180.32,-89.45 172.15,-82.69 169.72,-89.26"/>
<text text-anchor="middle" x="140.72" y="-85.05" font-family="Arial" font-size="14.00">c_down</text>
</g>
<!-- Up -->
<g id="node4" class="node">
<title>Up</title>
<path fill="none" stroke="black" d="M223.97,-63.54C223.97,-63.54 193.97,-63.54 193.97,-63.54 187.97,-63.54 181.97,-57.54 181.97,-51.54 181.97,-51.54 181.97,-39.54 181.97,-39.54 181.97,-33.54 187.97,-27.54 193.97,-27.54 193.97,-27.54 223.97,-27.54 223.97,-27.54 229.97,-27.54 235.97,-33.54 235.97,-39.54 235.97,-39.54 235.97,-51.54 235.97,-51.54 235.97,-57.54 229.97,-63.54 223.97,-63.54"/>
<text text-anchor="middle" x="208.97" y="-40.12" font-family="Arial" font-size="14.00">Up</text>
</g>
<!-- Idle&#45;&gt;Up -->
<g id="edge4" class="edge">
<title>Idle&#45;&gt;Up</title>
<path fill="none" stroke="black" d="M99.96,-45.54C120.73,-45.54 148.4,-45.54 170.54,-45.54"/>
<polygon fill="black" stroke="black" points="170.35,-49.04 180.35,-45.54 170.35,-42.04 170.35,-49.04"/>
<text text-anchor="middle" x="140.72" y="-47.99" font-family="Arial" font-size="14.00">c_up</text>
</g>
<!-- Stop -->
<g id="node5" class="node">
<title>Stop</title>
<path fill="none" stroke="black" d="M355.22,-63.54C355.22,-63.54 325.22,-63.54 325.22,-63.54 319.22,-63.54 313.22,-57.54 313.22,-51.54 313.22,-51.54 313.22,-39.54 313.22,-39.54 313.22,-33.54 319.22,-27.54 325.22,-27.54 325.22,-27.54 355.22,-27.54 355.22,-27.54 361.22,-27.54 367.22,-33.54 367.22,-39.54 367.22,-39.54 367.22,-51.54 367.22,-51.54 367.22,-57.54 361.22,-63.54 355.22,-63.54"/>
<text text-anchor="middle" x="340.22" y="-40.12" font-family="Arial" font-size="14.00">Stop</text>
</g>
<!-- Down&#45;&gt;Stop -->
<g id="edge6" class="edge">
<title>Down&#45;&gt;Stop</title>
<path fill="none" stroke="black" d="M236.22,-89.44C253.14,-82.84 275.58,-73.92 295.22,-65.54 297.54,-64.55 299.92,-63.52 302.32,-62.47"/>
<polygon fill="black" stroke="black" points="303.69,-65.69 311.4,-58.42 300.84,-59.29 303.69,-65.69"/>
<text text-anchor="middle" x="274.6" y="-84.22" font-family="Arial" font-size="14.00">c_arlw</text>
</g>
<!-- Up&#45;&gt;Stop -->
<g id="edge7" class="edge">
<title>Up&#45;&gt;Stop</title>
<path fill="none" stroke="black" d="M236.44,-45.54C255.17,-45.54 280.57,-45.54 301.43,-45.54"/>
<polygon fill="black" stroke="black" points="301.27,-49.04 311.27,-45.54 301.27,-42.04 301.27,-49.04"/>
<text text-anchor="middle" x="274.6" y="-47.99" font-family="Arial" font-size="14.00">c_arup</text>
</g>
<!-- Stop&#45;&gt;Idle -->
<g id="edge8" class="edge">
<title>Stop&#45;&gt;Idle</title>
<path fill="none" stroke="black" d="M312.96,-31.28C292.61,-21.09 263.37,-8.24 235.97,-2.79 192.55,5.84 143.55,-9.91 110.03,-24.67"/>
<polygon fill="black" stroke="black" points="108.73,-21.42 101.1,-28.77 111.65,-27.78 108.73,-21.42"/>
<text text-anchor="middle" x="208.97" y="-5.24" font-family="Arial" font-size="14.00">c_stp</text>
</g>
</g>
</svg>
