<?xml version="1.0" encoding="UTF-8" standalone="no"?>
<!DOCTYPE svg PUBLIC "-//W3C//DTD SVG 1.1//EN"
 "http://www.w3.org/Graphics/SVG/1.1/DTD/svg11.dtd">
<!-- Generated by graphviz version 12.2.1 (20241206.2353)
 -->
<!-- Title: Project(Closed loop (monolithic)) Pages: 1 -->
<svg width="303pt" height="80pt"
 viewBox="0.00 0.00 302.72 80.00" xmlns="http://www.w3.org/2000/svg" xmlns:xlink="http://www.w3.org/1999/xlink">
<g id="graph0" class="graph" transform="scale(1 1) rotate(0) translate(4 76)">
<title>Project(Closed loop (monolithic))</title>
<!-- dot_dummyinit_1 -->
<g id="node1" class="node">
<title>dot_dummyinit_1</title>
</g>
<!-- 1 -->
<g id="node2" class="node">
<title>1</title>
<ellipse fill="none" stroke="black" cx="59.72" cy="-35" rx="18" ry="18"/>
<ellipse fill="none" stroke="black" cx="59.72" cy="-35" rx="22" ry="22"/>
<text text-anchor="middle" x="59.72" y="-29.57" font-family="Arial" font-size="14.00">1</text>
</g>
<!-- dot_dummyinit_1&#45;&gt;1 -->
<g id="edge1" class="edge">
<title>dot_dummyinit_1&#45;&gt;1</title>
<path fill="none" stroke="black" d="M0.89,-35C2.38,-35 13.74,-35 26,-35"/>
<polygon fill="black" stroke="black" points="25.74,-38.5 35.74,-35 25.74,-31.5 25.74,-38.5"/>
</g>
<!-- 2 -->
<g id="node3" class="node">
<title>2</title>
<ellipse fill="none" stroke="black" cx="173.22" cy="-54" rx="18" ry="18"/>
<text text-anchor="middle" x="173.22" y="-48.58" font-family="Arial" font-size="14.00">2</text>
</g>
<!-- 1&#45;&gt;2 -->
<g id="edge2" class="edge">
<title>1&#45;&gt;2</title>
<path fill="none" stroke="black" d="M79.67,-44.99C85.89,-47.8 92.94,-50.49 99.72,-52 113.93,-55.17 130.09,-55.88 143.54,-55.71"/>
<polygon fill="black" stroke="black" points="143.6,-59.21 153.49,-55.4 143.38,-52.22 143.6,-59.21"/>
<text text-anchor="middle" x="116.22" y="-58.05" font-family="Arial" font-size="14.00">alpha</text>
</g>
<!-- 2&#45;&gt;1 -->
<g id="edge3" class="edge">
<title>2&#45;&gt;1</title>
<path fill="none" stroke="black" d="M157.96,-43.86C150.76,-39.35 141.67,-34.55 132.72,-32.25 120.05,-28.99 105.72,-28.86 93.19,-29.83"/>
<polygon fill="black" stroke="black" points="92.93,-26.34 83.36,-30.88 93.67,-33.3 92.93,-26.34"/>
<text text-anchor="middle" x="116.22" y="-34.7" font-family="Arial" font-size="14.00">beta</text>
</g>
<!-- 3 -->
<g id="node4" class="node">
<title>3</title>
<ellipse fill="none" stroke="black" cx="276.72" cy="-18" rx="18" ry="18"/>
<text text-anchor="middle" x="276.72" y="-12.57" font-family="Arial" font-size="14.00">3</text>
</g>
<!-- 2&#45;&gt;3 -->
<g id="edge4" class="edge">
<title>2&#45;&gt;3</title>
<path fill="none" stroke="black" d="M190.53,-48.22C206.21,-42.65 230.21,-34.14 248.74,-27.57"/>
<polygon fill="black" stroke="black" points="249.77,-30.92 258.03,-24.28 247.43,-24.32 249.77,-30.92"/>
<text text-anchor="middle" x="227.22" y="-41.67" font-family="Arial" font-size="14.00">mue</text>
</g>
<!-- 3&#45;&gt;1 -->
<g id="edge5" class="edge">
<title>3&#45;&gt;1</title>
<path fill="none" stroke="black" d="M258.58,-16.13C242.4,-14.47 217.44,-12.16 195.72,-11.25 175.74,-10.41 170.55,-8.68 150.72,-11.25 130.61,-13.86 108.58,-19.62 91.36,-24.81"/>
<polygon fill="black" stroke="black" points="90.75,-21.34 82.24,-27.65 92.83,-28.02 90.75,-21.34"/>
<text text-anchor="middle" x="173.22" y="-13.7" font-family="Arial" font-size="14.00">lambda</text>
</g>
</g>
</svg>
