<?xml version="1.0" encoding="UTF-8" standalone="no"?>
<!DOCTYPE svg PUBLIC "-//W3C//DTD SVG 1.1//EN"
 "http://www.w3.org/Graphics/SVG/1.1/DTD/svg11.dtd">
<!-- Generated by graphviz version 12.2.1 (20241206.2353)
 -->
<!-- Title: PlantB (maintenance) Pages: 1 -->
<svg width="599pt" height="144pt"
 viewBox="0.00 0.00 598.72 144.00" xmlns="http://www.w3.org/2000/svg" xmlns:xlink="http://www.w3.org/1999/xlink">
<g id="graph0" class="graph" transform="scale(1 1) rotate(0) translate(4 140)">
<title>PlantB (maintenance)</title>
<!-- dot_dummyinit_1 -->
<g id="node1" class="node">
<title>dot_dummyinit_1</title>
</g>
<!-- MOff -->
<g id="node2" class="node">
<title>MOff</title>
<path fill="none" stroke="black" d="M96.47,-42.5C96.47,-42.5 49.72,-42.5 49.72,-42.5 43.72,-42.5 37.72,-36.5 37.72,-30.5 37.72,-30.5 37.72,-18.5 37.72,-18.5 37.72,-12.5 43.72,-6.5 49.72,-6.5 49.72,-6.5 96.47,-6.5 96.47,-6.5 102.47,-6.5 108.47,-12.5 108.47,-18.5 108.47,-18.5 108.47,-30.5 108.47,-30.5 108.47,-36.5 102.47,-42.5 96.47,-42.5"/>
<text text-anchor="start" x="49.72" y="-19.08" font-family="Arial" font-size="14.00">MOff</text>
<polygon fill="black" stroke="none" points="90.47,-14.63 90.47,-34.38 98.47,-34.38 98.47,-14.63 90.47,-14.63"/>
</g>
<!-- dot_dummyinit_1&#45;&gt;MOff -->
<g id="edge1" class="edge">
<title>dot_dummyinit_1&#45;&gt;MOff</title>
<path fill="none" stroke="black" d="M0.77,-24.5C1.62,-24.5 12.68,-24.5 25.86,-24.5"/>
<polygon fill="black" stroke="black" points="25.73,-28 35.73,-24.5 25.73,-21 25.73,-28"/>
</g>
<!-- MOff&#45;&gt;MOff -->
<g id="edge4" class="edge">
<title>MOff&#45;&gt;MOff</title>
<path fill="none" stroke="black" d="M63.35,-42.66C61.85,-52.04 65.1,-60.5 73.1,-60.5 77.59,-60.5 80.59,-57.83 82.08,-53.81"/>
<polygon fill="black" stroke="black" points="85.55,-54.38 82.74,-44.17 78.57,-53.91 85.55,-54.38"/>
<text text-anchor="middle" x="73.1" y="-62.95" font-family="Arial" font-size="14.00">m_stop</text>
</g>
<!-- MOn -->
<g id="node3" class="node">
<title>MOn</title>
<path fill="none" stroke="black" d="M248.97,-68.5C248.97,-68.5 202.22,-68.5 202.22,-68.5 196.22,-68.5 190.22,-62.5 190.22,-56.5 190.22,-56.5 190.22,-44.5 190.22,-44.5 190.22,-38.5 196.22,-32.5 202.22,-32.5 202.22,-32.5 248.97,-32.5 248.97,-32.5 254.97,-32.5 260.97,-38.5 260.97,-44.5 260.97,-44.5 260.97,-56.5 260.97,-56.5 260.97,-62.5 254.97,-68.5 248.97,-68.5"/>
<text text-anchor="start" x="202.22" y="-45.08" font-family="Arial" font-size="14.00">MOn</text>
<polygon fill="black" stroke="none" points="242.97,-40.63 242.97,-60.38 250.97,-60.38 250.97,-40.63 242.97,-40.63"/>
</g>
<!-- MOff&#45;&gt;MOn -->
<g id="edge3" class="edge">
<title>MOff&#45;&gt;MOn</title>
<path fill="none" stroke="black" d="M108.74,-36.94C114.6,-38.7 120.66,-40.31 126.47,-41.5 143.35,-44.97 162.14,-47.11 178.73,-48.42"/>
<polygon fill="black" stroke="black" points="178.08,-51.88 188.3,-49.09 178.57,-44.9 178.08,-51.88"/>
<text text-anchor="middle" x="149.35" y="-50.28" font-family="Arial" font-size="14.00">m_start</text>
</g>
<!-- MOffR -->
<g id="node4" class="node">
<title>MOffR</title>
<path fill="none" stroke="black" d="M578.72,-42.5C578.72,-42.5 522.22,-42.5 522.22,-42.5 516.22,-42.5 510.22,-36.5 510.22,-30.5 510.22,-30.5 510.22,-18.5 510.22,-18.5 510.22,-12.5 516.22,-6.5 522.22,-6.5 522.22,-6.5 578.72,-6.5 578.72,-6.5 584.72,-6.5 590.72,-12.5 590.72,-18.5 590.72,-18.5 590.72,-30.5 590.72,-30.5 590.72,-36.5 584.72,-42.5 578.72,-42.5"/>
<text text-anchor="start" x="522.22" y="-19.08" font-family="Arial" font-size="14.00">MOffR</text>
<polygon fill="black" stroke="none" points="572.72,-14.63 572.72,-34.38 580.72,-34.38 580.72,-14.63 572.72,-14.63"/>
</g>
<!-- MOff&#45;&gt;MOffR -->
<g id="edge2" class="edge">
<title>MOff&#45;&gt;MOffR</title>
<path fill="none" stroke="black" d="M108.9,-16.4C114.74,-15.27 120.76,-14.24 126.47,-13.5 287.68,7.39 330.61,1.05 492.22,-16.5 494.26,-16.73 496.35,-16.96 498.45,-17.21"/>
<polygon fill="black" stroke="black" points="497.92,-20.67 508.28,-18.45 498.79,-13.73 497.92,-20.67"/>
<text text-anchor="middle" x="316.47" y="-5.07" font-family="Arial" font-size="14.00">m_request</text>
</g>
<!-- MOn&#45;&gt;MOff -->
<g id="edge7" class="edge">
<title>MOn&#45;&gt;MOff</title>
<path fill="none" stroke="black" d="M197.14,-32.09C189.4,-27.85 180.76,-23.94 172.22,-21.75 155.45,-17.45 136.55,-17 119.84,-18.01"/>
<polygon fill="black" stroke="black" points="119.86,-14.5 110.18,-18.8 120.43,-21.48 119.86,-14.5"/>
<text text-anchor="middle" x="149.35" y="-24.2" font-family="Arial" font-size="14.00">m_stop</text>
</g>
<!-- MOn&#45;&gt;MOn -->
<g id="edge6" class="edge">
<title>MOn&#45;&gt;MOn</title>
<path fill="none" stroke="black" d="M211.8,-68.66C209.68,-78.04 214.28,-86.5 225.6,-86.5 231.96,-86.5 236.2,-83.83 238.32,-79.81"/>
<polygon fill="black" stroke="black" points="241.77,-80.45 239.24,-70.16 234.8,-79.78 241.77,-80.45"/>
<text text-anchor="middle" x="225.6" y="-88.95" font-family="Arial" font-size="14.00">m_start</text>
</g>
<!-- MOnR -->
<g id="node5" class="node">
<title>MOnR</title>
<path fill="none" stroke="black" d="M416.47,-68.5C416.47,-68.5 383.97,-68.5 383.97,-68.5 377.97,-68.5 371.97,-62.5 371.97,-56.5 371.97,-56.5 371.97,-44.5 371.97,-44.5 371.97,-38.5 377.97,-32.5 383.97,-32.5 383.97,-32.5 416.47,-32.5 416.47,-32.5 422.47,-32.5 428.47,-38.5 428.47,-44.5 428.47,-44.5 428.47,-56.5 428.47,-56.5 428.47,-62.5 422.47,-68.5 416.47,-68.5"/>
<text text-anchor="middle" x="400.22" y="-45.08" font-family="Arial" font-size="14.00">MOnR</text>
</g>
<!-- MOn&#45;&gt;MOnR -->
<g id="edge5" class="edge">
<title>MOn&#45;&gt;MOnR</title>
<path fill="none" stroke="black" d="M261.11,-50.5C289.78,-50.5 330.54,-50.5 360.34,-50.5"/>
<polygon fill="black" stroke="black" points="360.07,-54 370.07,-50.5 360.07,-47 360.07,-54"/>
<text text-anchor="middle" x="316.47" y="-52.95" font-family="Arial" font-size="14.00">m_request</text>
</g>
<!-- MOffR&#45;&gt;MOffR -->
<g id="edge8" class="edge">
<title>MOffR&#45;&gt;MOffR</title>
<path fill="none" stroke="black" d="M543.13,-42.66C542,-52.04 544.45,-60.5 550.47,-60.5 553.76,-60.5 555.99,-57.97 557.14,-54.14"/>
<polygon fill="black" stroke="black" points="560.63,-54.35 557.72,-44.17 553.65,-53.95 560.63,-54.35"/>
<text text-anchor="middle" x="550.47" y="-62.95" font-family="Arial" font-size="14.00">m_request</text>
</g>
<!-- MOffR&#45;&gt;MOffR -->
<g id="edge10" class="edge">
<title>MOffR&#45;&gt;MOffR</title>
<path fill="none" stroke="black" d="M538.17,-42.76C531.79,-59.91 535.89,-78.5 550.47,-78.5 561.97,-78.5 566.95,-66.92 565.41,-53.62"/>
<polygon fill="black" stroke="black" points="568.89,-53.12 563.13,-44.23 562.09,-54.78 568.89,-53.12"/>
<text text-anchor="middle" x="550.47" y="-80.95" font-family="Arial" font-size="14.00">m_stop</text>
</g>
<!-- MOffR&#45;&gt;MOnR -->
<g id="edge9" class="edge">
<title>MOffR&#45;&gt;MOnR</title>
<path fill="none" stroke="black" d="M509.74,-20.54C490.36,-19.72 466.88,-20.4 446.47,-25.75 444.01,-26.4 441.53,-27.21 439.08,-28.13"/>
<polygon fill="black" stroke="black" points="437.66,-24.93 429.95,-32.19 440.51,-31.33 437.66,-24.93"/>
<text text-anchor="middle" x="469.35" y="-28.2" font-family="Arial" font-size="14.00">m_start</text>
</g>
<!-- MOnR&#45;&gt;MOn -->
<g id="edge14" class="edge">
<title>MOnR&#45;&gt;MOn</title>
<path fill="none" stroke="black" d="M371.57,-36.32C365.89,-34.01 359.84,-31.98 353.97,-30.75 321.34,-23.94 311.76,-24.78 278.97,-30.75 276.78,-31.15 274.57,-31.64 272.35,-32.19"/>
<polygon fill="black" stroke="black" points="271.37,-28.83 262.77,-35.01 273.35,-35.54 271.37,-28.83"/>
<text text-anchor="middle" x="316.47" y="-33.2" font-family="Arial" font-size="14.00">m_complete</text>
</g>
<!-- MOnR&#45;&gt;MOffR -->
<g id="edge13" class="edge">
<title>MOnR&#45;&gt;MOffR</title>
<path fill="none" stroke="black" d="M428.9,-49.14C447.03,-47.9 471.19,-45.63 492.22,-41.5 494.39,-41.08 496.61,-40.6 498.83,-40.09"/>
<polygon fill="black" stroke="black" points="499.67,-43.49 508.52,-37.66 497.96,-36.7 499.67,-43.49"/>
<text text-anchor="middle" x="469.35" y="-50.07" font-family="Arial" font-size="14.00">m_stop</text>
</g>
<!-- MOnR&#45;&gt;MOnR -->
<g id="edge11" class="edge">
<title>MOnR&#45;&gt;MOnR</title>
<path fill="none" stroke="black" d="M393.97,-68.66C393.01,-78.04 395.09,-86.5 400.22,-86.5 403.03,-86.5 404.92,-83.97 405.9,-80.14"/>
<polygon fill="black" stroke="black" points="409.4,-80.33 406.4,-70.17 402.41,-79.98 409.4,-80.33"/>
<text text-anchor="middle" x="400.22" y="-88.95" font-family="Arial" font-size="14.00">m_request</text>
</g>
<!-- MOnR&#45;&gt;MOnR -->
<g id="edge12" class="edge">
<title>MOnR&#45;&gt;MOnR</title>
<path fill="none" stroke="black" d="M389.74,-68.76C384.31,-85.91 387.8,-104.5 400.22,-104.5 409.92,-104.5 414.18,-93.15 412.98,-80.01"/>
<polygon fill="black" stroke="black" points="416.42,-79.35 411,-70.24 409.56,-80.74 416.42,-79.35"/>
<text text-anchor="middle" x="400.22" y="-106.95" font-family="Arial" font-size="14.00">m_start</text>
</g>
</g>
</svg>
