<?xml version="1.0" encoding="UTF-8" standalone="no"?>
<!DOCTYPE svg PUBLIC "-//W3C//DTD SVG 1.1//EN"
 "http://www.w3.org/Graphics/SVG/1.1/DTD/svg11.dtd">
<!-- Generated by graphviz version 12.2.1 (20241206.2353)
 -->
<!-- Title: PlantA (process) Pages: 1 -->
<svg width="576pt" height="108pt"
 viewBox="0.00 0.00 576.47 107.75" xmlns="http://www.w3.org/2000/svg" xmlns:xlink="http://www.w3.org/1999/xlink">
<g id="graph0" class="graph" transform="scale(1 1) rotate(0) translate(4 103.75)">
<title>PlantA (process)</title>
<!-- dot_dummyinit_1 -->
<g id="node1" class="node">
<title>dot_dummyinit_1</title>
</g>
<!-- POff -->
<g id="node2" class="node">
<title>POff</title>
<path fill="none" stroke="black" d="M93.47,-66C93.47,-66 49.72,-66 49.72,-66 43.72,-66 37.72,-60 37.72,-54 37.72,-54 37.72,-42 37.72,-42 37.72,-36 43.72,-30 49.72,-30 49.72,-30 93.47,-30 93.47,-30 99.47,-30 105.47,-36 105.47,-42 105.47,-42 105.47,-54 105.47,-54 105.47,-60 99.47,-66 93.47,-66"/>
<text text-anchor="start" x="49.72" y="-42.58" font-family="Arial" font-size="14.00">POff</text>
<polygon fill="black" stroke="none" points="87.47,-38.12 87.47,-57.88 95.47,-57.88 95.47,-38.12 87.47,-38.12"/>
</g>
<!-- dot_dummyinit_1&#45;&gt;POff -->
<g id="edge1" class="edge">
<title>dot_dummyinit_1&#45;&gt;POff</title>
<path fill="none" stroke="black" d="M0.77,-48C1.61,-48 12.77,-48 25.94,-48"/>
<polygon fill="black" stroke="black" points="25.77,-51.5 35.77,-48 25.77,-44.5 25.77,-51.5"/>
</g>
<!-- POff&#45;&gt;POff -->
<g id="edge2" class="edge">
<title>POff&#45;&gt;POff</title>
<path fill="none" stroke="black" d="M62.12,-66.15C60.66,-75.54 63.82,-84 71.6,-84 75.97,-84 78.88,-81.32 80.33,-77.31"/>
<polygon fill="black" stroke="black" points="83.8,-77.87 80.97,-67.66 76.82,-77.41 83.8,-77.87"/>
<text text-anchor="middle" x="71.6" y="-86.45" font-family="Arial" font-size="14.00">p_stop</text>
</g>
<!-- POn1 -->
<g id="node4" class="node">
<title>POn1</title>
<path fill="none" stroke="black" d="M224.72,-66C224.72,-66 194.72,-66 194.72,-66 188.72,-66 182.72,-60 182.72,-54 182.72,-54 182.72,-42 182.72,-42 182.72,-36 188.72,-30 194.72,-30 194.72,-30 224.72,-30 224.72,-30 230.72,-30 236.72,-36 236.72,-42 236.72,-42 236.72,-54 236.72,-54 236.72,-60 230.72,-66 224.72,-66"/>
<text text-anchor="middle" x="209.72" y="-42.58" font-family="Arial" font-size="14.00">POn1</text>
</g>
<!-- POff&#45;&gt;POn1 -->
<g id="edge3" class="edge">
<title>POff&#45;&gt;POn1</title>
<path fill="none" stroke="black" d="M105.89,-48C125.63,-48 150.71,-48 171.15,-48"/>
<polygon fill="black" stroke="black" points="171.06,-51.5 181.06,-48 171.06,-44.5 171.06,-51.5"/>
<text text-anchor="middle" x="144.1" y="-50.45" font-family="Arial" font-size="14.00">p_start</text>
</g>
<!-- POn3 -->
<g id="node3" class="node">
<title>POn3</title>
<path fill="none" stroke="black" d="M556.47,-36C556.47,-36 505.22,-36 505.22,-36 499.22,-36 493.22,-30 493.22,-24 493.22,-24 493.22,-12 493.22,-12 493.22,-6 499.22,0 505.22,0 505.22,0 556.47,0 556.47,0 562.47,0 568.47,-6 568.47,-12 568.47,-12 568.47,-24 568.47,-24 568.47,-30 562.47,-36 556.47,-36"/>
<text text-anchor="start" x="505.22" y="-12.57" font-family="Arial" font-size="14.00">POn3</text>
<polygon fill="black" stroke="none" points="550.47,-8.12 550.47,-27.88 558.47,-27.88 558.47,-8.12 550.47,-8.12"/>
</g>
<!-- POn3&#45;&gt;POff -->
<g id="edge8" class="edge">
<title>POn3&#45;&gt;POff</title>
<path fill="none" stroke="black" d="M492.92,-15.53C429.29,-11.89 294.99,-6.94 182.72,-21 160.74,-23.75 136.8,-29.3 116.88,-34.66"/>
<polygon fill="black" stroke="black" points="116.12,-31.24 107.41,-37.28 117.99,-37.98 116.12,-31.24"/>
<text text-anchor="middle" x="280.97" y="-16.93" font-family="Arial" font-size="14.00">p_stop</text>
</g>
<!-- POn3&#45;&gt;POn3 -->
<g id="edge9" class="edge">
<title>POn3&#45;&gt;POn3</title>
<path fill="none" stroke="black" d="M513.73,-36.15C511.09,-45.54 516.8,-54 530.85,-54 538.75,-54 544.01,-51.32 546.63,-47.31"/>
<polygon fill="black" stroke="black" points="550.07,-48 547.78,-37.66 543.12,-47.17 550.07,-48"/>
<text text-anchor="middle" x="530.85" y="-56.45" font-family="Arial" font-size="14.00">p_start</text>
</g>
<!-- POn2 -->
<g id="node5" class="node">
<title>POn2</title>
<path fill="none" stroke="black" d="M367.22,-66C367.22,-66 337.22,-66 337.22,-66 331.22,-66 325.22,-60 325.22,-54 325.22,-54 325.22,-42 325.22,-42 325.22,-36 331.22,-30 337.22,-30 337.22,-30 367.22,-30 367.22,-30 373.22,-30 379.22,-36 379.22,-42 379.22,-42 379.22,-54 379.22,-54 379.22,-60 373.22,-66 367.22,-66"/>
<text text-anchor="middle" x="352.22" y="-42.58" font-family="Arial" font-size="14.00">POn2</text>
</g>
<!-- POn1&#45;&gt;POn2 -->
<g id="edge4" class="edge">
<title>POn1&#45;&gt;POn2</title>
<path fill="none" stroke="black" d="M237.15,-48C258.73,-48 289.51,-48 313.66,-48"/>
<polygon fill="black" stroke="black" points="313.4,-51.5 323.4,-48 313.4,-44.5 313.4,-51.5"/>
<text text-anchor="middle" x="280.97" y="-50.45" font-family="Arial" font-size="14.00">p_inprog</text>
</g>
<!-- POn2&#45;&gt;POff -->
<g id="edge5" class="edge">
<title>POn2&#45;&gt;POff</title>
<path fill="none" stroke="black" d="M324.75,-61.71C319.09,-64.16 313.05,-66.43 307.22,-68 228.36,-89.22 202.68,-87.89 123.47,-68 121.2,-67.43 118.91,-66.79 116.6,-66.09"/>
<polygon fill="black" stroke="black" points="117.88,-62.83 107.29,-62.96 115.66,-69.46 117.88,-62.83"/>
<text text-anchor="middle" x="209.72" y="-85.87" font-family="Arial" font-size="14.00">p_stop</text>
</g>
<!-- POn2&#45;&gt;POn3 -->
<g id="edge7" class="edge">
<title>POn2&#45;&gt;POn3</title>
<path fill="none" stroke="black" d="M379.66,-43.51C406.52,-38.95 448.72,-31.78 481.56,-26.2"/>
<polygon fill="black" stroke="black" points="481.98,-29.68 491.25,-24.56 480.81,-22.78 481.98,-29.68"/>
<text text-anchor="middle" x="436.22" y="-58.15" font-family="Arial" font-size="14.00">p_complete, </text>
<text text-anchor="middle" x="436.22" y="-42.4" font-family="Arial" font-size="14.00">m_request</text>
</g>
<!-- POn2&#45;&gt;POn2 -->
<g id="edge6" class="edge">
<title>POn2&#45;&gt;POn2</title>
<path fill="none" stroke="black" d="M339.33,-66.15C337.35,-75.54 341.64,-84 352.22,-84 358.17,-84 362.13,-81.32 364.11,-77.31"/>
<polygon fill="black" stroke="black" points="367.56,-77.93 364.97,-67.66 360.59,-77.31 367.56,-77.93"/>
<text text-anchor="middle" x="352.22" y="-86.45" font-family="Arial" font-size="14.00">p_start</text>
</g>
</g>
</svg>
