<?xml version="1.0" encoding="UTF-8" standalone="no"?>
<!DOCTYPE svg PUBLIC "-//W3C//DTD SVG 1.0//EN"
 "http://www.w3.org/TR/2001/REC-SVG-20010904/DTD/svg10.dtd" [
 <!ATTLIST svg xmlns:xlink CDATA #FIXED "http://www.w3.org/1999/xlink">
]>
<!-- Generated by Graphviz version 2.20.2 (Tue Mar &#160;2 21:46:26 UTC 2010)
     For user: (mtmoor) Prof. Thomas Moor -->
<!-- Title: E_lbracket Pages: 1 -->
<svg width="290pt" height="197pt"
 viewBox="0.00 0.00 290.00 197.00" xmlns="http://www.w3.org/2000/svg" xmlns:xlink="http://www.w3.org/1999/xlink">
<g id="graph0" class="graph" transform="scale(1 1) rotate(0) translate(4 193)">
<title>E_lbracket</title>
<polygon style="fill:none;stroke:none;" points="-4,4 -4,-193 286,-193 286,4 -4,4"/>
<!-- dot_dummyinit_1 -->
<g id="node1" class="node"><title>dot_dummyinit_1</title>
</g>
<!-- Free -->
<g id="node3" class="node"><title>Free</title>
<ellipse style="fill:none;stroke:black;" cx="76" cy="-88" rx="31.9646" ry="31.9646"/>
<ellipse style="fill:none;stroke:black;" cx="76" cy="-88" rx="35.9646" ry="35.9646"/>
<text text-anchor="middle" x="76" y="-83.9" style="font-family:Times New Roman;font-size:14.00;">Free</text>
</g>
<!-- dot_dummyinit_1&#45;&gt;Free -->
<g id="edge2" class="edge"><title>dot_dummyinit_1&#45;&gt;Free</title>
<path style="fill:none;stroke:black;" d="M2,-88C5,-88 17,-88 30,-88"/>
<polygon style="fill:black;stroke:black;" points="30,-91.5001 40,-88 30,-84.5001 30,-91.5001"/>
</g>
<!-- Closed -->
<g id="node4" class="node"><title>Closed</title>
<ellipse style="fill:none;stroke:black;" cx="236" cy="-143" rx="41.932" ry="41.932"/>
<ellipse style="fill:none;stroke:black;" cx="236" cy="-143" rx="45.889" ry="45.889"/>
<text text-anchor="middle" x="236" y="-138.9" style="font-family:Times New Roman;font-size:14.00;">Closed</text>
</g>
<!-- Free&#45;&gt;Closed -->
<g id="edge6" class="edge"><title>Free&#45;&gt;Closed</title>
<path style="fill:none;stroke:black;" d="M104,-111C112,-116 121,-122 130,-126 146,-132 164,-136 180,-138"/>
<polygon style="fill:black;stroke:black;" points="179.508,-141.471 190,-140 180.881,-134.607 179.508,-141.471"/>
<text text-anchor="middle" x="151" y="-138.9" style="font-family:Times New Roman;font-size:14.00;">d_arcl</text>
</g>
<!-- Block -->
<g id="node5" class="node"><title>Block</title>
<ellipse style="fill:none;stroke:black;" cx="236" cy="-37" rx="36.8288" ry="36.8288"/>
<text text-anchor="middle" x="236" y="-32.9" style="font-family:Times New Roman;font-size:14.00;">Block</text>
</g>
<!-- Free&#45;&gt;Block -->
<g id="edge4" class="edge"><title>Free&#45;&gt;Block</title>
<path style="fill:none;stroke:black;" d="M110,-75C117,-73 124,-71 130,-69 149,-62 172,-55 190,-50"/>
<polygon style="fill:black;stroke:black;" points="191.427,-53.2259 200,-47 189.416,-46.5212 191.427,-53.2259"/>
<text text-anchor="middle" x="151" y="-72.9" style="font-family:Times New Roman;font-size:14.00;">d_lbbl</text>
</g>
<!-- Closed&#45;&gt;Free -->
<g id="edge10" class="edge"><title>Closed&#45;&gt;Free</title>
<path style="fill:none;stroke:black;" d="M199,-115C190,-110 181,-105 172,-102 156,-95 138,-92 122,-90"/>
<polygon style="fill:black;stroke:black;" points="122.299,-86.5125 112,-89 121.602,-93.4778 122.299,-86.5125"/>
<text text-anchor="middle" x="151" y="-105.9" style="font-family:Times New Roman;font-size:14.00;">d_lvcl</text>
</g>
<!-- Block&#45;&gt;Free -->
<g id="edge8" class="edge"><title>Block&#45;&gt;Free</title>
<path style="fill:none;stroke:black;" d="M199,-29C178,-26 152,-25 130,-34 120,-38 112,-44 104,-52"/>
<polygon style="fill:black;stroke:black;" points="101.596,-49.454 97,-59 106.546,-54.4038 101.596,-49.454"/>
<text text-anchor="middle" x="151" y="-37.9" style="font-family:Times New Roman;font-size:14.00;">d_lbrl</text>
</g>
</g>
</svg>
