<?xml version="1.0" encoding="UTF-8" standalone="no"?>
<!DOCTYPE svg PUBLIC "-//W3C//DTD SVG 1.1//EN"
 "http://www.w3.org/Graphics/SVG/1.1/DTD/svg11.dtd">
<!-- Generated by graphviz version 12.2.1 (20241206.2353)
 -->
<!-- Title: elevator core plant (cabin plus buttons) Pages: 1 -->
<svg width="720pt" height="530pt"
 viewBox="0.00 0.00 720.00 530.05" xmlns="http://www.w3.org/2000/svg" xmlns:xlink="http://www.w3.org/1999/xlink">
<g id="graph0" class="graph" transform="scale(0.801585 0.801585) rotate(0) translate(4 657.25)">
<title>elevator core plant (cabin plus buttons)</title>
<!-- dot_dummyinit_1 -->
<g id="node1" class="node">
<title>dot_dummyinit_1</title>
</g>
<!-- 1 -->
<g id="node2" class="node">
<title>1</title>
<ellipse fill="none" stroke="black" cx="59.72" cy="-55" rx="18" ry="18"/>
<ellipse fill="none" stroke="black" cx="59.72" cy="-55" rx="22" ry="22"/>
<text text-anchor="middle" x="59.72" y="-49.58" font-family="Arial" font-size="14.00">1</text>
</g>
<!-- dot_dummyinit_1&#45;&gt;1 -->
<g id="edge1" class="edge">
<title>dot_dummyinit_1&#45;&gt;1</title>
<path fill="none" stroke="black" d="M0.89,-55C2.38,-55 13.74,-55 26,-55"/>
<polygon fill="black" stroke="black" points="25.74,-58.5 35.74,-55 25.74,-51.5 25.74,-58.5"/>
</g>
<!-- 1&#45;&gt;1 -->
<g id="edge4" class="edge">
<title>1&#45;&gt;1</title>
<path fill="none" stroke="black" d="M57.22,-77.21C57.01,-86.8 57.85,-95 59.72,-95 60.77,-95 61.5,-92.4 61.89,-88.43"/>
<polygon fill="black" stroke="black" points="65.38,-88.82 62.18,-78.73 58.39,-88.62 65.38,-88.82"/>
<text text-anchor="middle" x="59.72" y="-97.45" font-family="Arial" font-size="14.00">c_stp</text>
</g>
<!-- 1&#45;&gt;1 -->
<g id="edge5" class="edge">
<title>1&#45;&gt;1</title>
<path fill="none" stroke="black" d="M55.37,-77.02C53.63,-94.72 55.08,-113 59.72,-113 63.38,-113 65.06,-101.62 64.75,-88.12"/>
<polygon fill="black" stroke="black" points="68.26,-88.3 64.16,-78.53 61.28,-88.72 68.26,-88.3"/>
<text text-anchor="middle" x="59.72" y="-115.45" font-family="Arial" font-size="14.00">o_upb</text>
</g>
<!-- 1&#45;&gt;1 -->
<g id="edge6" class="edge">
<title>1&#45;&gt;1</title>
<path fill="none" stroke="black" d="M54.15,-76.78C50.19,-101.9 52.05,-131 59.72,-131 66.25,-131 68.57,-109.9 66.67,-88.12"/>
<polygon fill="black" stroke="black" points="70.16,-87.79 65.48,-78.29 63.21,-88.64 70.16,-87.79"/>
<text text-anchor="middle" x="59.72" y="-133.45" font-family="Arial" font-size="14.00">o_lwb</text>
</g>
<!-- 2 -->
<g id="node4" class="node">
<title>2</title>
<ellipse fill="none" stroke="black" cx="167.97" cy="-111" rx="18" ry="18"/>
<text text-anchor="middle" x="167.97" y="-105.58" font-family="Arial" font-size="14.00">2</text>
</g>
<!-- 1&#45;&gt;2 -->
<g id="edge2" class="edge">
<title>1&#45;&gt;2</title>
<path fill="none" stroke="black" d="M75.55,-70.45C82.41,-76.9 90.97,-84.03 99.72,-89 111.9,-95.92 126.58,-101.04 139.12,-104.59"/>
<polygon fill="black" stroke="black" points="137.86,-107.88 148.42,-107.04 139.64,-101.11 137.86,-107.88"/>
<text text-anchor="middle" x="115.85" y="-104.82" font-family="Arial" font-size="14.00">c_up</text>
</g>
<!-- 3 -->
<g id="node5" class="node">
<title>3</title>
<ellipse fill="none" stroke="black" cx="866.97" cy="-85" rx="18" ry="18"/>
<text text-anchor="middle" x="866.97" y="-79.58" font-family="Arial" font-size="14.00">3</text>
</g>
<!-- 1&#45;&gt;3 -->
<g id="edge3" class="edge">
<title>1&#45;&gt;3</title>
<path fill="none" stroke="black" d="M81.35,-50.03C102.66,-45.33 136.94,-39 166.97,-39 166.97,-39 166.97,-39 749.47,-39 783.26,-39 818.95,-55.95 841.79,-69.27"/>
<polygon fill="black" stroke="black" points="839.96,-72.25 850.32,-74.46 843.59,-66.27 839.96,-72.25"/>
<text text-anchor="middle" x="449.22" y="-41.45" font-family="Arial" font-size="14.00">c_down</text>
</g>
<!-- 9 -->
<g id="node3" class="node">
<title>9</title>
<ellipse fill="none" stroke="black" cx="513.72" cy="-245" rx="18" ry="18"/>
<ellipse fill="none" stroke="black" cx="513.72" cy="-245" rx="22" ry="22"/>
<text text-anchor="middle" x="513.72" y="-239.57" font-family="Arial" font-size="14.00">9</text>
</g>
<!-- 9&#45;&gt;9 -->
<g id="edge48" class="edge">
<title>9&#45;&gt;9</title>
<path fill="none" stroke="black" d="M509.75,-266.81C509.37,-276.56 510.7,-285 513.72,-285 515.42,-285 516.58,-282.33 517.21,-278.26"/>
<polygon fill="black" stroke="black" points="520.7,-278.46 517.62,-268.32 513.71,-278.16 520.7,-278.46"/>
<text text-anchor="middle" x="513.72" y="-287.45" font-family="Arial" font-size="14.00">c_stp</text>
</g>
<!-- 9&#45;&gt;9 -->
<g id="edge49" class="edge">
<title>9&#45;&gt;9</title>
<path fill="none" stroke="black" d="M506.89,-266.42C503.97,-284.31 506.25,-303 513.72,-303 519.62,-303 522.28,-291.36 521.71,-277.66"/>
<polygon fill="black" stroke="black" points="525.21,-277.51 520.71,-267.92 518.25,-278.23 525.21,-277.51"/>
<text text-anchor="middle" x="513.72" y="-305.45" font-family="Arial" font-size="14.00">o_upb</text>
</g>
<!-- 9&#45;&gt;9 -->
<g id="edge50" class="edge">
<title>9&#45;&gt;9</title>
<path fill="none" stroke="black" d="M505.14,-265.62C498.45,-291 501.31,-321 513.72,-321 524.34,-321 527.96,-299.04 524.6,-276.81"/>
<polygon fill="black" stroke="black" points="528.05,-276.19 522.6,-267.1 521.19,-277.6 528.05,-276.19"/>
<text text-anchor="middle" x="513.72" y="-323.45" font-family="Arial" font-size="14.00">o_lwb</text>
</g>
<!-- 7 -->
<g id="node9" class="node">
<title>7</title>
<ellipse fill="none" stroke="black" cx="389.97" cy="-284" rx="18" ry="18"/>
<text text-anchor="middle" x="389.97" y="-278.57" font-family="Arial" font-size="14.00">7</text>
</g>
<!-- 9&#45;&gt;7 -->
<g id="edge46" class="edge">
<title>9&#45;&gt;7</title>
<path fill="none" stroke="black" d="M492.04,-239.29C473.77,-235.39 446.86,-232.5 425.97,-242.25 418.07,-245.93 411.33,-252.37 405.93,-259.11"/>
<polygon fill="black" stroke="black" points="403.25,-256.84 400.29,-267.01 408.95,-260.9 403.25,-256.84"/>
<text text-anchor="middle" x="449.22" y="-244.7" font-family="Arial" font-size="14.00">c_up</text>
</g>
<!-- 8 -->
<g id="node10" class="node">
<title>8</title>
<ellipse fill="none" stroke="black" cx="637.47" cy="-284" rx="18" ry="18"/>
<text text-anchor="middle" x="637.47" y="-278.57" font-family="Arial" font-size="14.00">8</text>
</g>
<!-- 9&#45;&gt;8 -->
<g id="edge47" class="edge">
<title>9&#45;&gt;8</title>
<path fill="none" stroke="black" d="M534.17,-253.84C540.7,-256.65 548.08,-259.63 554.97,-262 572.42,-268.01 592.42,-273.43 608.24,-277.38"/>
<polygon fill="black" stroke="black" points="607.39,-280.78 617.94,-279.75 609.05,-273.98 607.39,-280.78"/>
<text text-anchor="middle" x="578.22" y="-278.01" font-family="Arial" font-size="14.00">c_down</text>
</g>
<!-- 2&#45;&gt;1 -->
<g id="edge9" class="edge">
<title>2&#45;&gt;1</title>
<path fill="none" stroke="black" d="M157.85,-95.59C151.68,-86.52 142.71,-75.62 131.97,-69.25 120.34,-62.35 105.96,-58.73 93.17,-56.86"/>
<polygon fill="black" stroke="black" points="93.83,-53.41 83.5,-55.75 93.03,-60.36 93.83,-53.41"/>
<text text-anchor="middle" x="115.85" y="-71.7" font-family="Arial" font-size="14.00">c_stp</text>
</g>
<!-- 2&#45;&gt;2 -->
<g id="edge7" class="edge">
<title>2&#45;&gt;2</title>
<path fill="none" stroke="black" d="M164.83,-129.15C164.34,-138.54 165.39,-147 167.97,-147 169.38,-147 170.33,-144.47 170.83,-140.64"/>
<polygon fill="black" stroke="black" points="174.33,-140.75 171.08,-130.67 167.33,-140.58 174.33,-140.75"/>
<text text-anchor="middle" x="167.97" y="-149.45" font-family="Arial" font-size="14.00">c_up</text>
</g>
<!-- 2&#45;&gt;2 -->
<g id="edge11" class="edge">
<title>2&#45;&gt;2</title>
<path fill="none" stroke="black" d="M162.79,-128.7C159.93,-146 161.66,-165 167.97,-165 172.9,-165 175.03,-153.4 174.37,-140.08"/>
<polygon fill="black" stroke="black" points="177.85,-139.77 173.31,-130.2 170.89,-140.52 177.85,-139.77"/>
<text text-anchor="middle" x="167.97" y="-167.45" font-family="Arial" font-size="14.00">o_upb</text>
</g>
<!-- 2&#45;&gt;2 -->
<g id="edge12" class="edge">
<title>2&#45;&gt;2</title>
<path fill="none" stroke="black" d="M161.64,-127.99C155.48,-152.52 157.59,-183 167.97,-183 176.81,-183 179.66,-160.9 176.5,-139.19"/>
<polygon fill="black" stroke="black" points="179.95,-138.62 174.59,-129.48 173.08,-139.96 179.95,-138.62"/>
<text text-anchor="middle" x="167.97" y="-185.45" font-family="Arial" font-size="14.00">o_lwb</text>
</g>
<!-- 2&#45;&gt;3 -->
<g id="edge8" class="edge">
<title>2&#45;&gt;3</title>
<path fill="none" stroke="black" d="M184.95,-104.57C205.57,-96.87 242.72,-85 275.72,-85 275.72,-85 275.72,-85 749.47,-85 779.44,-85 813.74,-85 837.33,-85"/>
<polygon fill="black" stroke="black" points="837.09,-88.5 847.09,-85 837.09,-81.5 837.09,-88.5"/>
<text text-anchor="middle" x="513.72" y="-87.45" font-family="Arial" font-size="14.00">c_down</text>
</g>
<!-- 4 -->
<g id="node6" class="node">
<title>4</title>
<ellipse fill="none" stroke="black" cx="276.72" cy="-482" rx="18" ry="18"/>
<text text-anchor="middle" x="276.72" y="-476.57" font-family="Arial" font-size="14.00">4</text>
</g>
<!-- 2&#45;&gt;4 -->
<g id="edge10" class="edge">
<title>2&#45;&gt;4</title>
<path fill="none" stroke="black" d="M173.98,-128.4C190.96,-187.43 246.51,-380.47 267.55,-453.59"/>
<polygon fill="black" stroke="black" points="264.18,-454.54 270.31,-463.19 270.91,-452.61 264.18,-454.54"/>
<text text-anchor="middle" x="222.35" y="-353.86" font-family="Arial" font-size="14.00">c_lvlw</text>
</g>
<!-- 3&#45;&gt;1 -->
<g id="edge15" class="edge">
<title>3&#45;&gt;1</title>
<path fill="none" stroke="black" d="M856.62,-70.17C850.23,-60.92 841.12,-49.25 830.97,-41 799.5,-15.43 790.02,0 749.47,0 166.97,0 166.97,0 166.97,0 136.49,0 106.04,-18.08 85.6,-33.5"/>
<polygon fill="black" stroke="black" points="83.54,-30.66 77.87,-39.61 87.88,-36.16 83.54,-30.66"/>
<text text-anchor="middle" x="449.22" y="-2.45" font-family="Arial" font-size="14.00">c_stp</text>
</g>
<!-- 3&#45;&gt;2 -->
<g id="edge13" class="edge">
<title>3&#45;&gt;2</title>
<path fill="none" stroke="black" d="M852.15,-95.77C831.2,-111.01 789.56,-137 749.47,-137 275.72,-137 275.72,-137 275.72,-137 247.88,-137 217.08,-128.55 195.75,-121.28"/>
<polygon fill="black" stroke="black" points="196.97,-118 186.38,-117.94 194.62,-124.59 196.97,-118"/>
<text text-anchor="middle" x="513.72" y="-139.45" font-family="Arial" font-size="14.00">c_up</text>
</g>
<!-- 3&#45;&gt;3 -->
<g id="edge14" class="edge">
<title>3&#45;&gt;3</title>
<path fill="none" stroke="black" d="M863.42,-102.78C862.82,-112.31 864,-121 866.97,-121 868.64,-121 869.75,-118.25 870.29,-114.15"/>
<polygon fill="black" stroke="black" points="873.78,-114.36 870.49,-104.29 866.78,-114.22 873.78,-114.36"/>
<text text-anchor="middle" x="866.97" y="-123.45" font-family="Arial" font-size="14.00">c_down</text>
</g>
<!-- 3&#45;&gt;3 -->
<g id="edge16" class="edge">
<title>3&#45;&gt;3</title>
<path fill="none" stroke="black" d="M861.14,-102.42C857.81,-119.79 859.76,-139 866.97,-139 872.66,-139 875.07,-127.04 874.2,-113.46"/>
<polygon fill="black" stroke="black" points="877.72,-113.4 872.99,-103.92 870.78,-114.28 877.72,-113.4"/>
<text text-anchor="middle" x="866.97" y="-141.45" font-family="Arial" font-size="14.00">o_upb</text>
</g>
<!-- 3&#45;&gt;3 -->
<g id="edge17" class="edge">
<title>3&#45;&gt;3</title>
<path fill="none" stroke="black" d="M859.78,-101.99C852.77,-126.52 855.17,-157 866.97,-157 877.02,-157 880.25,-134.9 876.66,-113.19"/>
<polygon fill="black" stroke="black" points="880.09,-112.47 874.49,-103.47 873.26,-113.99 880.09,-112.47"/>
<text text-anchor="middle" x="866.97" y="-159.45" font-family="Arial" font-size="14.00">o_lwb</text>
</g>
<!-- 4&#45;&gt;4 -->
<g id="edge18" class="edge">
<title>4&#45;&gt;4</title>
<path fill="none" stroke="black" d="M273.44,-500.15C272.94,-509.54 274.03,-518 276.72,-518 278.19,-518 279.18,-515.47 279.7,-511.64"/>
<polygon fill="black" stroke="black" points="283.2,-511.75 279.96,-501.67 276.2,-511.57 283.2,-511.75"/>
<text text-anchor="middle" x="276.72" y="-520.45" font-family="Arial" font-size="14.00">c_up</text>
</g>
<!-- 4&#45;&gt;4 -->
<g id="edge22" class="edge">
<title>4&#45;&gt;4</title>
<path fill="none" stroke="black" d="M271.37,-499.42C268.32,-516.79 270.1,-536 276.72,-536 281.94,-536 284.16,-524.04 283.36,-510.46"/>
<polygon fill="black" stroke="black" points="286.88,-510.45 282.25,-500.92 279.93,-511.26 286.88,-510.45"/>
<text text-anchor="middle" x="276.72" y="-538.45" font-family="Arial" font-size="14.00">o_upb</text>
</g>
<!-- 4&#45;&gt;4 -->
<g id="edge23" class="edge">
<title>4&#45;&gt;4</title>
<path fill="none" stroke="black" d="M270.12,-498.99C263.69,-523.52 265.89,-554 276.72,-554 285.94,-554 288.91,-531.9 285.61,-510.19"/>
<polygon fill="black" stroke="black" points="289.06,-509.57 283.62,-500.48 282.2,-510.97 289.06,-509.57"/>
<text text-anchor="middle" x="276.72" y="-556.45" font-family="Arial" font-size="14.00">o_lwb</text>
</g>
<!-- 5 -->
<g id="node7" class="node">
<title>5</title>
<ellipse fill="none" stroke="black" cx="748.47" cy="-405" rx="18" ry="18"/>
<text text-anchor="middle" x="748.47" y="-399.57" font-family="Arial" font-size="14.00">5</text>
</g>
<!-- 4&#45;&gt;5 -->
<g id="edge19" class="edge">
<title>4&#45;&gt;5</title>
<path fill="none" stroke="black" d="M294.03,-475.71C315.47,-468.01 354.46,-456 388.97,-456 388.97,-456 388.97,-456 638.47,-456 670.75,-456 703.78,-437.42 724.89,-422.69"/>
<polygon fill="black" stroke="black" points="726.73,-425.68 732.75,-416.96 722.6,-420.02 726.73,-425.68"/>
<text text-anchor="middle" x="513.72" y="-458.45" font-family="Arial" font-size="14.00">c_down</text>
</g>
<!-- 6 -->
<g id="node8" class="node">
<title>6</title>
<ellipse fill="none" stroke="black" cx="866.97" cy="-534" rx="18" ry="18"/>
<text text-anchor="middle" x="866.97" y="-528.58" font-family="Arial" font-size="14.00">6</text>
</g>
<!-- 4&#45;&gt;6 -->
<g id="edge20" class="edge">
<title>4&#45;&gt;6</title>
<path fill="none" stroke="black" d="M289.21,-495.5C307.88,-515.84 346.98,-552 388.97,-552 388.97,-552 388.97,-552 749.47,-552 779.97,-552 814.44,-545.9 837.92,-540.8"/>
<polygon fill="black" stroke="black" points="838.66,-544.22 847.64,-538.6 837.12,-537.4 838.66,-544.22"/>
<text text-anchor="middle" x="578.22" y="-554.45" font-family="Arial" font-size="14.00">c_stp</text>
</g>
<!-- 4&#45;&gt;7 -->
<g id="edge21" class="edge">
<title>4&#45;&gt;7</title>
<path fill="none" stroke="black" d="M286.45,-466.46C305.58,-432.41 351.35,-350.95 374.72,-309.36"/>
<polygon fill="black" stroke="black" points="377.69,-311.22 379.54,-300.78 371.59,-307.79 377.69,-311.22"/>
<text text-anchor="middle" x="333.35" y="-420.41" font-family="Arial" font-size="14.00">c_arup</text>
</g>
<!-- 5&#45;&gt;3 -->
<g id="edge27" class="edge">
<title>5&#45;&gt;3</title>
<path fill="none" stroke="black" d="M755.57,-388.25C774.52,-336.2 832.49,-176.97 855.95,-112.52"/>
<polygon fill="black" stroke="black" points="859.14,-113.99 859.27,-103.4 852.56,-111.6 859.14,-113.99"/>
<text text-anchor="middle" x="807.72" y="-303.94" font-family="Arial" font-size="14.00">c_arlw</text>
</g>
<!-- 5&#45;&gt;4 -->
<g id="edge24" class="edge">
<title>5&#45;&gt;4</title>
<path fill="none" stroke="black" d="M739.81,-421.09C724.78,-450.06 688.46,-508 638.47,-508 388.97,-508 388.97,-508 388.97,-508 359.58,-508 326.94,-499.29 304.66,-491.95"/>
<polygon fill="black" stroke="black" points="306.05,-488.73 295.46,-488.79 303.78,-495.35 306.05,-488.73"/>
<text text-anchor="middle" x="513.72" y="-510.45" font-family="Arial" font-size="14.00">c_up</text>
</g>
<!-- 5&#45;&gt;5 -->
<g id="edge25" class="edge">
<title>5&#45;&gt;5</title>
<path fill="none" stroke="black" d="M745.12,-423.15C744.61,-432.54 745.72,-441 748.47,-441 749.97,-441 750.99,-438.47 751.51,-434.64"/>
<polygon fill="black" stroke="black" points="755.01,-434.75 751.78,-424.67 748.01,-434.57 755.01,-434.75"/>
<text text-anchor="middle" x="748.47" y="-443.45" font-family="Arial" font-size="14.00">c_down</text>
</g>
<!-- 5&#45;&gt;5 -->
<g id="edge28" class="edge">
<title>5&#45;&gt;5</title>
<path fill="none" stroke="black" d="M743.01,-422.42C739.89,-439.79 741.71,-459 748.47,-459 753.8,-459 756.06,-447.04 755.25,-433.46"/>
<polygon fill="black" stroke="black" points="758.77,-433.44 754.11,-423.92 751.82,-434.27 758.77,-433.44"/>
<text text-anchor="middle" x="748.47" y="-461.45" font-family="Arial" font-size="14.00">o_upb</text>
</g>
<!-- 5&#45;&gt;5 -->
<g id="edge29" class="edge">
<title>5&#45;&gt;5</title>
<path fill="none" stroke="black" d="M741.73,-421.99C735.17,-446.52 737.41,-477 748.47,-477 757.89,-477 760.91,-454.9 757.55,-433.19"/>
<polygon fill="black" stroke="black" points="760.99,-432.55 755.52,-423.47 754.14,-433.98 760.99,-432.55"/>
<text text-anchor="middle" x="748.47" y="-479.45" font-family="Arial" font-size="14.00">o_lwb</text>
</g>
<!-- 5&#45;&gt;6 -->
<g id="edge26" class="edge">
<title>5&#45;&gt;6</title>
<path fill="none" stroke="black" d="M765.09,-412.59C782.96,-421.93 812.2,-439.3 830.97,-461.25 842.22,-474.41 850.76,-491.8 856.59,-506.28"/>
<polygon fill="black" stroke="black" points="853.17,-507.14 859.98,-515.26 859.72,-504.67 853.17,-507.14"/>
<text text-anchor="middle" x="807.72" y="-463.7" font-family="Arial" font-size="14.00">c_stp</text>
</g>
<!-- 6&#45;&gt;4 -->
<g id="edge30" class="edge">
<title>6&#45;&gt;4</title>
<path fill="none" stroke="black" d="M852.67,-545.53C832.04,-562.19 790.45,-591 749.47,-591 388.97,-591 388.97,-591 388.97,-591 349.39,-591 340.2,-573.48 312.72,-545 302.81,-534.73 294.78,-521.1 288.93,-509.15"/>
<polygon fill="black" stroke="black" points="292.15,-507.79 284.8,-500.16 285.79,-510.71 292.15,-507.79"/>
<text text-anchor="middle" x="578.22" y="-593.45" font-family="Arial" font-size="14.00">c_up</text>
</g>
<!-- 6&#45;&gt;5 -->
<g id="edge31" class="edge">
<title>6&#45;&gt;5</title>
<path fill="none" stroke="black" d="M850.38,-526.25C832.52,-516.72 803.3,-499.06 784.47,-477 773.44,-464.07 764.96,-447.06 759.11,-432.82"/>
<polygon fill="black" stroke="black" points="762.39,-431.61 755.53,-423.54 755.86,-434.13 762.39,-431.61"/>
<text text-anchor="middle" x="807.72" y="-516.76" font-family="Arial" font-size="14.00">c_down</text>
</g>
<!-- 6&#45;&gt;6 -->
<g id="edge32" class="edge">
<title>6&#45;&gt;6</title>
<path fill="none" stroke="black" d="M863.42,-551.78C862.82,-561.31 864,-570 866.97,-570 868.64,-570 869.75,-567.25 870.29,-563.15"/>
<polygon fill="black" stroke="black" points="873.78,-563.36 870.49,-553.29 866.78,-563.22 873.78,-563.36"/>
<text text-anchor="middle" x="866.97" y="-572.45" font-family="Arial" font-size="14.00">c_stp</text>
</g>
<!-- 6&#45;&gt;6 -->
<g id="edge33" class="edge">
<title>6&#45;&gt;6</title>
<path fill="none" stroke="black" d="M861.14,-551.42C857.81,-568.79 859.76,-588 866.97,-588 872.66,-588 875.07,-576.04 874.2,-562.46"/>
<polygon fill="black" stroke="black" points="877.72,-562.4 872.99,-552.92 870.78,-563.28 877.72,-562.4"/>
<text text-anchor="middle" x="866.97" y="-590.45" font-family="Arial" font-size="14.00">o_upb</text>
</g>
<!-- 6&#45;&gt;6 -->
<g id="edge34" class="edge">
<title>6&#45;&gt;6</title>
<path fill="none" stroke="black" d="M859.78,-550.99C852.77,-575.52 855.17,-606 866.97,-606 877.02,-606 880.25,-583.9 876.66,-562.19"/>
<polygon fill="black" stroke="black" points="880.09,-561.47 874.49,-552.47 873.26,-562.99 880.09,-561.47"/>
<text text-anchor="middle" x="866.97" y="-608.45" font-family="Arial" font-size="14.00">o_lwb</text>
</g>
<!-- 7&#45;&gt;9 -->
<g id="edge37" class="edge">
<title>7&#45;&gt;9</title>
<path fill="none" stroke="black" d="M408.03,-280.11C424.66,-276.15 450.58,-269.54 472.47,-262 475.81,-260.85 479.26,-259.56 482.67,-258.21"/>
<polygon fill="black" stroke="black" points="483.96,-261.47 491.87,-254.42 481.3,-255 483.96,-261.47"/>
<text text-anchor="middle" x="449.22" y="-278.01" font-family="Arial" font-size="14.00">c_stp</text>
</g>
<!-- 7&#45;&gt;7 -->
<g id="edge35" class="edge">
<title>7&#45;&gt;7</title>
<path fill="none" stroke="black" d="M386.56,-302.15C386.03,-311.54 387.17,-320 389.97,-320 391.5,-320 392.54,-317.47 393.07,-313.64"/>
<polygon fill="black" stroke="black" points="396.57,-313.76 393.34,-303.67 389.57,-313.57 396.57,-313.76"/>
<text text-anchor="middle" x="389.97" y="-322.45" font-family="Arial" font-size="14.00">c_up</text>
</g>
<!-- 7&#45;&gt;7 -->
<g id="edge38" class="edge">
<title>7&#45;&gt;7</title>
<path fill="none" stroke="black" d="M384.4,-301.42C381.22,-318.79 383.08,-338 389.97,-338 395.41,-338 397.71,-326.04 396.88,-312.46"/>
<polygon fill="black" stroke="black" points="400.4,-312.43 395.73,-302.92 393.46,-313.27 400.4,-312.43"/>
<text text-anchor="middle" x="389.97" y="-340.45" font-family="Arial" font-size="14.00">o_upb</text>
</g>
<!-- 7&#45;&gt;7 -->
<g id="edge39" class="edge">
<title>7&#45;&gt;7</title>
<path fill="none" stroke="black" d="M383.1,-300.99C376.4,-325.52 378.69,-356 389.97,-356 399.58,-356 402.66,-333.9 399.23,-312.19"/>
<polygon fill="black" stroke="black" points="402.67,-311.52 397.16,-302.47 395.82,-312.98 402.67,-311.52"/>
<text text-anchor="middle" x="389.97" y="-358.45" font-family="Arial" font-size="14.00">o_lwb</text>
</g>
<!-- 7&#45;&gt;8 -->
<g id="edge36" class="edge">
<title>7&#45;&gt;8</title>
<path fill="none" stroke="black" d="M399.02,-267.91C405.22,-256.76 414.62,-242.16 425.97,-232 464.39,-197.61 487.13,-185.05 536.97,-198.25 568.86,-206.7 576.98,-212.89 601.47,-235 609.08,-241.87 616,-250.67 621.64,-258.92"/>
<polygon fill="black" stroke="black" points="618.66,-260.75 627.02,-267.25 624.54,-256.95 618.66,-260.75"/>
<text text-anchor="middle" x="513.72" y="-200.7" font-family="Arial" font-size="14.00">c_down</text>
</g>
<!-- 8&#45;&gt;9 -->
<g id="edge42" class="edge">
<title>8&#45;&gt;9</title>
<path fill="none" stroke="black" d="M627.09,-269C620.94,-260.64 612.08,-250.97 601.47,-246.25 584.48,-238.69 563.69,-238.13 546.72,-239.58"/>
<polygon fill="black" stroke="black" points="546.72,-236.06 537.19,-240.67 547.52,-243.01 546.72,-236.06"/>
<text text-anchor="middle" x="578.22" y="-248.7" font-family="Arial" font-size="14.00">c_stp</text>
</g>
<!-- 8&#45;&gt;5 -->
<g id="edge43" class="edge">
<title>8&#45;&gt;5</title>
<path fill="none" stroke="black" d="M650.13,-296.95C668.72,-317.58 705.27,-358.15 727.91,-383.28"/>
<polygon fill="black" stroke="black" points="725.25,-385.57 734.55,-390.65 730.45,-380.88 725.25,-385.57"/>
<text text-anchor="middle" x="692.97" y="-368.31" font-family="Arial" font-size="14.00">c_lvup</text>
</g>
<!-- 8&#45;&gt;7 -->
<g id="edge40" class="edge">
<title>8&#45;&gt;7</title>
<path fill="none" stroke="black" d="M626.63,-298.5C610.77,-320.42 577.22,-361.12 536.97,-377 517.75,-384.59 509.69,-384.59 490.47,-377 455.25,-363.1 425.16,-330.21 407.56,-307.51"/>
<polygon fill="black" stroke="black" points="410.51,-305.61 401.72,-299.71 404.91,-309.81 410.51,-305.61"/>
<text text-anchor="middle" x="513.72" y="-385.14" font-family="Arial" font-size="14.00">c_up</text>
</g>
<!-- 8&#45;&gt;8 -->
<g id="edge41" class="edge">
<title>8&#45;&gt;8</title>
<path fill="none" stroke="black" d="M634.12,-302.15C633.61,-311.54 634.72,-320 637.47,-320 638.97,-320 639.99,-317.47 640.51,-313.64"/>
<polygon fill="black" stroke="black" points="644.01,-313.75 640.78,-303.67 637.01,-313.57 644.01,-313.75"/>
<text text-anchor="middle" x="637.47" y="-322.45" font-family="Arial" font-size="14.00">c_down</text>
</g>
<!-- 8&#45;&gt;8 -->
<g id="edge44" class="edge">
<title>8&#45;&gt;8</title>
<path fill="none" stroke="black" d="M632.01,-301.42C628.89,-318.79 630.71,-338 637.47,-338 642.8,-338 645.06,-326.04 644.25,-312.46"/>
<polygon fill="black" stroke="black" points="647.77,-312.44 643.11,-302.92 640.82,-313.27 647.77,-312.44"/>
<text text-anchor="middle" x="637.47" y="-340.45" font-family="Arial" font-size="14.00">o_upb</text>
</g>
<!-- 8&#45;&gt;8 -->
<g id="edge45" class="edge">
<title>8&#45;&gt;8</title>
<path fill="none" stroke="black" d="M630.73,-300.99C624.17,-325.52 626.41,-356 637.47,-356 646.89,-356 649.91,-333.9 646.55,-312.19"/>
<polygon fill="black" stroke="black" points="649.99,-311.55 644.52,-302.47 643.14,-312.98 649.99,-311.55"/>
<text text-anchor="middle" x="637.47" y="-358.45" font-family="Arial" font-size="14.00">o_lwb</text>
</g>
</g>
</svg>
