<?xml version="1.0" encoding="UTF-8" standalone="no"?>
<!DOCTYPE svg PUBLIC "-//W3C//DTD SVG 1.1//EN"
 "http://www.w3.org/Graphics/SVG/1.1/DTD/svg11.dtd">
<!-- Generated by graphviz version 12.2.1 (20241206.2353)
 -->
<!-- Title: elevator supervisor (core) [minstate] Pages: 1 -->
<svg width="720pt" height="71pt"
 viewBox="0.00 0.00 720.00 70.57" xmlns="http://www.w3.org/2000/svg" xmlns:xlink="http://www.w3.org/1999/xlink">
<g id="graph0" class="graph" transform="scale(0.601205 0.601205) rotate(0) translate(4 113.38)">
<title>elevator supervisor (core) [minstate]</title>
<!-- dot_dummyinit_1 -->
<g id="node1" class="node">
<title>dot_dummyinit_1</title>
</g>
<!-- 1 -->
<g id="node2" class="node">
<title>1</title>
<ellipse fill="none" stroke="black" cx="59.72" cy="-22" rx="18" ry="18"/>
<ellipse fill="none" stroke="black" cx="59.72" cy="-22" rx="22" ry="22"/>
<text text-anchor="middle" x="59.72" y="-16.57" font-family="Arial" font-size="14.00">1</text>
</g>
<!-- dot_dummyinit_1&#45;&gt;1 -->
<g id="edge1" class="edge">
<title>dot_dummyinit_1&#45;&gt;1</title>
<path fill="none" stroke="black" d="M0.89,-22C2.38,-22 13.74,-22 26,-22"/>
<polygon fill="black" stroke="black" points="25.74,-25.5 35.74,-22 25.74,-18.5 25.74,-25.5"/>
</g>
<!-- 2 -->
<g id="node4" class="node">
<title>2</title>
<ellipse fill="none" stroke="black" cx="215.97" cy="-52" rx="18" ry="18"/>
<text text-anchor="middle" x="215.97" y="-46.58" font-family="Arial" font-size="14.00">2</text>
</g>
<!-- 1&#45;&gt;2 -->
<g id="edge2" class="edge">
<title>1&#45;&gt;2</title>
<path fill="none" stroke="black" d="M81.52,-26.05C108.67,-31.33 156.3,-40.59 186.71,-46.5"/>
<polygon fill="black" stroke="black" points="185.85,-49.9 196.33,-48.37 187.18,-43.03 185.85,-49.9"/>
<text text-anchor="middle" x="139.84" y="-47.2" font-family="Arial" font-size="14.00">o_upb, o_lwb</text>
</g>
<!-- 9 -->
<g id="node3" class="node">
<title>9</title>
<ellipse fill="none" stroke="black" cx="652.72" cy="-56" rx="18" ry="18"/>
<ellipse fill="none" stroke="black" cx="652.72" cy="-56" rx="22" ry="22"/>
<text text-anchor="middle" x="652.72" y="-50.58" font-family="Arial" font-size="14.00">9</text>
</g>
<!-- 3 -->
<g id="node5" class="node">
<title>3</title>
<ellipse fill="none" stroke="black" cx="808.97" cy="-55" rx="18" ry="18"/>
<text text-anchor="middle" x="808.97" y="-49.58" font-family="Arial" font-size="14.00">3</text>
</g>
<!-- 9&#45;&gt;3 -->
<g id="edge17" class="edge">
<title>9&#45;&gt;3</title>
<path fill="none" stroke="black" d="M675.17,-55.86C702.23,-55.69 748.89,-55.38 779.07,-55.19"/>
<polygon fill="black" stroke="black" points="779.03,-58.69 789.01,-55.12 778.98,-51.69 779.03,-58.69"/>
<text text-anchor="middle" x="732.85" y="-58.18" font-family="Arial" font-size="14.00">o_upb, o_lwb</text>
</g>
<!-- 2&#45;&gt;2 -->
<g id="edge3" class="edge">
<title>2&#45;&gt;2</title>
<path fill="none" stroke="black" d="M207.23,-67.92C204.95,-78.15 207.86,-88 215.97,-88 220.91,-88 223.92,-84.34 225.01,-79.17"/>
<polygon fill="black" stroke="black" points="228.51,-79.33 224.75,-69.43 221.51,-79.52 228.51,-79.33"/>
<text text-anchor="middle" x="215.97" y="-90.45" font-family="Arial" font-size="14.00">o_upb, o_lwb</text>
</g>
<!-- 6 -->
<g id="node8" class="node">
<title>6</title>
<ellipse fill="none" stroke="black" cx="317.22" cy="-53" rx="18" ry="18"/>
<text text-anchor="middle" x="317.22" y="-47.58" font-family="Arial" font-size="14.00">6</text>
</g>
<!-- 2&#45;&gt;6 -->
<g id="edge4" class="edge">
<title>2&#45;&gt;6</title>
<path fill="none" stroke="black" d="M234.26,-52.17C248.9,-52.32 270.19,-52.54 287.4,-52.71"/>
<polygon fill="black" stroke="black" points="287.25,-56.21 297.28,-52.81 287.32,-49.21 287.25,-56.21"/>
<text text-anchor="middle" x="266.59" y="-55.07" font-family="Arial" font-size="14.00">c_up</text>
</g>
<!-- 3&#45;&gt;3 -->
<g id="edge5" class="edge">
<title>3&#45;&gt;3</title>
<path fill="none" stroke="black" d="M798.95,-70.17C795.91,-80.66 799.25,-91 808.97,-91 815.05,-91 818.63,-86.96 819.72,-81.37"/>
<polygon fill="black" stroke="black" points="823.23,-81.43 819.09,-71.68 816.25,-81.88 823.23,-81.43"/>
<text text-anchor="middle" x="808.97" y="-93.45" font-family="Arial" font-size="14.00">o_upb, o_lwb</text>
</g>
<!-- 7 -->
<g id="node9" class="node">
<title>7</title>
<ellipse fill="none" stroke="black" cx="927.47" cy="-55" rx="18" ry="18"/>
<text text-anchor="middle" x="927.47" y="-49.58" font-family="Arial" font-size="14.00">7</text>
</g>
<!-- 3&#45;&gt;7 -->
<g id="edge6" class="edge">
<title>3&#45;&gt;7</title>
<path fill="none" stroke="black" d="M827.41,-55C846.05,-55 875.89,-55 897.95,-55"/>
<polygon fill="black" stroke="black" points="897.78,-58.5 907.78,-55 897.78,-51.5 897.78,-58.5"/>
<text text-anchor="middle" x="868.22" y="-57.45" font-family="Arial" font-size="14.00">c_down</text>
</g>
<!-- 4 -->
<g id="node6" class="node">
<title>4</title>
<ellipse fill="none" stroke="black" cx="1038.47" cy="-54" rx="18" ry="18"/>
<text text-anchor="middle" x="1038.47" y="-48.58" font-family="Arial" font-size="14.00">4</text>
</g>
<!-- 4&#45;&gt;4 -->
<g id="edge7" class="edge">
<title>4&#45;&gt;4</title>
<path fill="none" stroke="black" d="M1028.98,-69.54C1026.31,-79.91 1029.47,-90 1038.47,-90 1043.95,-90 1047.27,-86.25 1048.42,-80.98"/>
<polygon fill="black" stroke="black" points="1051.92,-80.91 1048.02,-71.05 1044.92,-81.19 1051.92,-80.91"/>
<text text-anchor="middle" x="1038.47" y="-92.45" font-family="Arial" font-size="14.00">o_upb, o_lwb</text>
</g>
<!-- 8 -->
<g id="node10" class="node">
<title>8</title>
<ellipse fill="none" stroke="black" cx="1149.47" cy="-22" rx="18" ry="18"/>
<text text-anchor="middle" x="1149.47" y="-16.57" font-family="Arial" font-size="14.00">8</text>
</g>
<!-- 4&#45;&gt;8 -->
<g id="edge8" class="edge">
<title>4&#45;&gt;8</title>
<path fill="none" stroke="black" d="M1056.03,-49.14C1073.23,-44.09 1100.45,-36.1 1120.91,-30.09"/>
<polygon fill="black" stroke="black" points="1121.7,-33.51 1130.31,-27.33 1119.73,-26.79 1121.7,-33.51"/>
<text text-anchor="middle" x="1093.97" y="-46.1" font-family="Arial" font-size="14.00">c_arlw</text>
</g>
<!-- 5 -->
<g id="node7" class="node">
<title>5</title>
<ellipse fill="none" stroke="black" cx="425.97" cy="-54" rx="18" ry="18"/>
<text text-anchor="middle" x="425.97" y="-48.58" font-family="Arial" font-size="14.00">5</text>
</g>
<!-- 5&#45;&gt;5 -->
<g id="edge9" class="edge">
<title>5&#45;&gt;5</title>
<path fill="none" stroke="black" d="M416.58,-69.92C414.13,-80.15 417.26,-90 425.97,-90 431.28,-90 434.51,-86.34 435.68,-81.17"/>
<polygon fill="black" stroke="black" points="439.18,-81.33 435.4,-71.43 432.18,-81.52 439.18,-81.33"/>
<text text-anchor="middle" x="425.97" y="-92.45" font-family="Arial" font-size="14.00">o_upb, o_lwb</text>
</g>
<!-- 10 -->
<g id="node11" class="node">
<title>10</title>
<ellipse fill="none" stroke="black" cx="541.85" cy="-55" rx="20.63" ry="20.63"/>
<text text-anchor="middle" x="541.85" y="-49.58" font-family="Arial" font-size="14.00">10</text>
</g>
<!-- 5&#45;&gt;10 -->
<g id="edge10" class="edge">
<title>5&#45;&gt;10</title>
<path fill="none" stroke="black" d="M444.27,-54.15C461.61,-54.3 488.71,-54.54 509.79,-54.73"/>
<polygon fill="black" stroke="black" points="509.54,-58.23 519.57,-54.81 509.6,-51.23 509.54,-58.23"/>
<text text-anchor="middle" x="482.59" y="-57.1" font-family="Arial" font-size="14.00">c_arup</text>
</g>
<!-- 6&#45;&gt;5 -->
<g id="edge11" class="edge">
<title>6&#45;&gt;5</title>
<path fill="none" stroke="black" d="M335.37,-53.16C351.77,-53.31 376.81,-53.55 396.25,-53.73"/>
<polygon fill="black" stroke="black" points="395.96,-57.23 405.99,-53.82 396.03,-50.23 395.96,-57.23"/>
<text text-anchor="middle" x="371.59" y="-56.1" font-family="Arial" font-size="14.00">c_lvlw</text>
</g>
<!-- 6&#45;&gt;6 -->
<g id="edge12" class="edge">
<title>6&#45;&gt;6</title>
<path fill="none" stroke="black" d="M308.48,-68.92C306.2,-79.15 309.11,-89 317.22,-89 322.16,-89 325.17,-85.34 326.26,-80.17"/>
<polygon fill="black" stroke="black" points="329.76,-80.33 326,-70.43 322.76,-80.52 329.76,-80.33"/>
<text text-anchor="middle" x="317.22" y="-91.45" font-family="Arial" font-size="14.00">o_upb, o_lwb</text>
</g>
<!-- 7&#45;&gt;4 -->
<g id="edge13" class="edge">
<title>7&#45;&gt;4</title>
<path fill="none" stroke="black" d="M945.5,-54.84C962.44,-54.69 988.74,-54.45 1008.88,-54.26"/>
<polygon fill="black" stroke="black" points="1008.72,-57.76 1018.69,-54.17 1008.65,-50.76 1008.72,-57.76"/>
<text text-anchor="middle" x="982.97" y="-57.13" font-family="Arial" font-size="14.00">c_lvup</text>
</g>
<!-- 7&#45;&gt;7 -->
<g id="edge14" class="edge">
<title>7&#45;&gt;7</title>
<path fill="none" stroke="black" d="M917.98,-70.54C915.31,-80.91 918.47,-91 927.47,-91 932.95,-91 936.27,-87.25 937.42,-81.98"/>
<polygon fill="black" stroke="black" points="940.92,-81.91 937.02,-72.05 933.92,-82.19 940.92,-81.91"/>
<text text-anchor="middle" x="927.47" y="-93.45" font-family="Arial" font-size="14.00">o_upb, o_lwb</text>
</g>
<!-- 8&#45;&gt;1 -->
<g id="edge15" class="edge">
<title>8&#45;&gt;1</title>
<path fill="none" stroke="black" d="M1131.59,-17.96C1110.26,-13.22 1072.37,-6 1039.47,-6 214.97,-6 214.97,-6 214.97,-6 172.59,-6 124.02,-12.05 92.89,-16.71"/>
<polygon fill="black" stroke="black" points="92.7,-13.19 83.35,-18.18 93.77,-20.11 92.7,-13.19"/>
<text text-anchor="middle" x="596.6" y="-8.45" font-family="Arial" font-size="14.00">c_stp</text>
</g>
<!-- 8&#45;&gt;8 -->
<g id="edge16" class="edge">
<title>8&#45;&gt;8</title>
<path fill="none" stroke="black" d="M1139.98,-37.54C1137.31,-47.91 1140.47,-58 1149.47,-58 1154.95,-58 1158.27,-54.25 1159.42,-48.98"/>
<polygon fill="black" stroke="black" points="1162.92,-48.91 1159.02,-39.05 1155.92,-49.19 1162.92,-48.91"/>
<text text-anchor="middle" x="1149.47" y="-60.45" font-family="Arial" font-size="14.00">o_upb, o_lwb</text>
</g>
<!-- 10&#45;&gt;9 -->
<g id="edge18" class="edge">
<title>10&#45;&gt;9</title>
<path fill="none" stroke="black" d="M562.81,-55.18C578.53,-55.33 600.75,-55.53 619.04,-55.7"/>
<polygon fill="black" stroke="black" points="618.84,-59.2 628.88,-55.79 618.91,-52.2 618.84,-59.2"/>
<text text-anchor="middle" x="596.6" y="-58.07" font-family="Arial" font-size="14.00">c_stp</text>
</g>
<!-- 10&#45;&gt;10 -->
<g id="edge19" class="edge">
<title>10&#45;&gt;10</title>
<path fill="none" stroke="black" d="M532.07,-73.68C530.25,-84.06 533.5,-93.63 541.85,-93.63 546.93,-93.63 550.12,-90.07 551.43,-84.95"/>
<polygon fill="black" stroke="black" points="554.93,-85.25 551.59,-75.19 547.93,-85.13 554.93,-85.25"/>
<text text-anchor="middle" x="541.85" y="-96.08" font-family="Arial" font-size="14.00">o_upb, o_lwb</text>
</g>
</g>
</svg>
