<?xml version="1.0" encoding="UTF-8" standalone="no"?>
<!DOCTYPE svg PUBLIC "-//W3C//DTD SVG 1.1//EN"
 "http://www.w3.org/Graphics/SVG/1.1/DTD/svg11.dtd">
<!-- Generated by graphviz version 12.2.1 (20241206.2353)
 -->
<!-- Title: Closed loop (monolithic) Pages: 1 -->
<svg width="720pt" height="101pt"
 viewBox="0.00 0.00 720.00 100.79" xmlns="http://www.w3.org/2000/svg" xmlns:xlink="http://www.w3.org/1999/xlink">
<g id="graph0" class="graph" transform="scale(0.599514 0.599514) rotate(0) translate(4 164.13)">
<title>Closed loop (monolithic)</title>
<!-- dot_dummyinit_1 -->
<g id="node1" class="node">
<title>dot_dummyinit_1</title>
</g>
<!-- 1 -->
<g id="node2" class="node">
<title>1</title>
<ellipse fill="none" stroke="black" cx="59.72" cy="-42.13" rx="18" ry="18"/>
<ellipse fill="none" stroke="black" cx="59.72" cy="-42.13" rx="22" ry="22"/>
<text text-anchor="middle" x="59.72" y="-36.7" font-family="Arial" font-size="14.00">1</text>
</g>
<!-- dot_dummyinit_1&#45;&gt;1 -->
<g id="edge1" class="edge">
<title>dot_dummyinit_1&#45;&gt;1</title>
<path fill="none" stroke="black" d="M0.89,-42.13C2.38,-42.13 13.74,-42.13 26,-42.13"/>
<polygon fill="black" stroke="black" points="25.74,-45.63 35.74,-42.13 25.74,-38.63 25.74,-45.63"/>
</g>
<!-- 2 -->
<g id="node3" class="node">
<title>2</title>
<ellipse fill="none" stroke="black" cx="168.72" cy="-88.13" rx="18" ry="18"/>
<text text-anchor="middle" x="168.72" y="-82.7" font-family="Arial" font-size="14.00">2</text>
</g>
<!-- 1&#45;&gt;2 -->
<g id="edge2" class="edge">
<title>1&#45;&gt;2</title>
<path fill="none" stroke="black" d="M80.35,-50.56C97.41,-57.9 122.29,-68.6 141.14,-76.7"/>
<polygon fill="black" stroke="black" points="139.75,-79.91 150.32,-80.64 142.51,-73.48 139.75,-79.91"/>
<text text-anchor="middle" x="116.22" y="-74.38" font-family="Arial" font-size="14.00">alpha</text>
</g>
<!-- 3 -->
<g id="node4" class="node">
<title>3</title>
<ellipse fill="none" stroke="black" cx="281.97" cy="-88.13" rx="18" ry="18"/>
<text text-anchor="middle" x="281.97" y="-82.7" font-family="Arial" font-size="14.00">3</text>
</g>
<!-- 2&#45;&gt;3 -->
<g id="edge3" class="edge">
<title>2&#45;&gt;3</title>
<path fill="none" stroke="black" d="M187.1,-88.13C204.57,-88.13 231.8,-88.13 252.44,-88.13"/>
<polygon fill="black" stroke="black" points="252.2,-91.63 262.2,-88.13 252.2,-84.63 252.2,-91.63"/>
<text text-anchor="middle" x="225.34" y="-90.58" font-family="Arial" font-size="14.00">p_start</text>
</g>
<!-- 4 -->
<g id="node5" class="node">
<title>4</title>
<ellipse fill="none" stroke="black" cx="406.47" cy="-88.13" rx="18" ry="18"/>
<text text-anchor="middle" x="406.47" y="-82.7" font-family="Arial" font-size="14.00">4</text>
</g>
<!-- 3&#45;&gt;4 -->
<g id="edge4" class="edge">
<title>3&#45;&gt;4</title>
<path fill="none" stroke="black" d="M300.26,-88.13C320.14,-88.13 353.08,-88.13 376.81,-88.13"/>
<polygon fill="black" stroke="black" points="376.75,-91.63 386.75,-88.13 376.75,-84.63 376.75,-91.63"/>
<text text-anchor="middle" x="344.22" y="-90.58" font-family="Arial" font-size="14.00">p_inprog</text>
</g>
<!-- 5 -->
<g id="node6" class="node">
<title>5</title>
<ellipse fill="none" stroke="black" cx="548.97" cy="-88.13" rx="18" ry="18"/>
<text text-anchor="middle" x="548.97" y="-82.7" font-family="Arial" font-size="14.00">5</text>
</g>
<!-- 4&#45;&gt;5 -->
<g id="edge5" class="edge">
<title>4&#45;&gt;5</title>
<path fill="none" stroke="black" d="M424.7,-88.13C448.29,-88.13 490.97,-88.13 519.39,-88.13"/>
<polygon fill="black" stroke="black" points="519.09,-91.63 529.09,-88.13 519.09,-84.63 519.09,-91.63"/>
<text text-anchor="middle" x="477.72" y="-90.58" font-family="Arial" font-size="14.00">p_complete</text>
</g>
<!-- 6 -->
<g id="node7" class="node">
<title>6</title>
<ellipse fill="none" stroke="black" cx="548.97" cy="-142.13" rx="18" ry="18"/>
<text text-anchor="middle" x="548.97" y="-136.7" font-family="Arial" font-size="14.00">6</text>
</g>
<!-- 4&#45;&gt;6 -->
<g id="edge6" class="edge">
<title>4&#45;&gt;6</title>
<path fill="none" stroke="black" d="M422.1,-97.39C428.24,-101.04 435.55,-105.08 442.47,-108.13 468.02,-119.4 498.51,-128.82 520.12,-134.86"/>
<polygon fill="black" stroke="black" points="519.1,-138.21 529.67,-137.46 520.94,-131.46 519.1,-138.21"/>
<text text-anchor="middle" x="477.72" y="-135.03" font-family="Arial" font-size="14.00">m_request</text>
</g>
<!-- 12 -->
<g id="node13" class="node">
<title>12</title>
<ellipse fill="none" stroke="black" cx="664.1" cy="-62.13" rx="20.63" ry="20.63"/>
<text text-anchor="middle" x="664.1" y="-56.7" font-family="Arial" font-size="14.00">12</text>
</g>
<!-- 5&#45;&gt;12 -->
<g id="edge7" class="edge">
<title>5&#45;&gt;12</title>
<path fill="none" stroke="black" d="M566.66,-84.29C583.98,-80.31 611.45,-74 632.65,-69.12"/>
<polygon fill="black" stroke="black" points="633.24,-72.58 642.2,-66.93 631.67,-65.76 633.24,-72.58"/>
<text text-anchor="middle" x="605.22" y="-82.17" font-family="Arial" font-size="14.00">p_stop</text>
</g>
<!-- 7 -->
<g id="node8" class="node">
<title>7</title>
<ellipse fill="none" stroke="black" cx="664.1" cy="-121.13" rx="18" ry="18"/>
<text text-anchor="middle" x="664.1" y="-115.7" font-family="Arial" font-size="14.00">7</text>
</g>
<!-- 6&#45;&gt;7 -->
<g id="edge8" class="edge">
<title>6&#45;&gt;7</title>
<path fill="none" stroke="black" d="M567.15,-138.94C585.11,-135.6 613.59,-130.32 634.86,-126.37"/>
<polygon fill="black" stroke="black" points="635.44,-129.82 644.63,-124.55 634.16,-122.94 635.44,-129.82"/>
<text text-anchor="middle" x="605.22" y="-137.78" font-family="Arial" font-size="14.00">mue</text>
</g>
<!-- 8 -->
<g id="node9" class="node">
<title>8</title>
<ellipse fill="none" stroke="black" cx="784.47" cy="-112.13" rx="18" ry="18"/>
<text text-anchor="middle" x="784.47" y="-106.7" font-family="Arial" font-size="14.00">8</text>
</g>
<!-- 7&#45;&gt;8 -->
<g id="edge9" class="edge">
<title>7&#45;&gt;8</title>
<path fill="none" stroke="black" d="M682.31,-119.82C701.33,-118.37 732.28,-116.02 754.94,-114.3"/>
<polygon fill="black" stroke="black" points="755.02,-117.8 764.73,-113.55 754.49,-110.82 755.02,-117.8"/>
<text text-anchor="middle" x="725.6" y="-120.67" font-family="Arial" font-size="14.00">m_start</text>
</g>
<!-- 9 -->
<g id="node10" class="node">
<title>9</title>
<ellipse fill="none" stroke="black" cx="931.47" cy="-100.13" rx="18" ry="18"/>
<text text-anchor="middle" x="931.47" y="-94.7" font-family="Arial" font-size="14.00">9</text>
</g>
<!-- 8&#45;&gt;9 -->
<g id="edge10" class="edge">
<title>8&#45;&gt;9</title>
<path fill="none" stroke="black" d="M802.67,-110.7C827.2,-108.67 872.52,-104.92 902.07,-102.48"/>
<polygon fill="black" stroke="black" points="902.1,-105.99 911.78,-101.67 901.53,-99.01 902.1,-105.99"/>
<text text-anchor="middle" x="857.97" y="-111.68" font-family="Arial" font-size="14.00">m_complete</text>
</g>
<!-- 10 -->
<g id="node11" class="node">
<title>10</title>
<ellipse fill="none" stroke="black" cx="1051.1" cy="-83.13" rx="20.63" ry="20.63"/>
<text text-anchor="middle" x="1051.1" y="-77.7" font-family="Arial" font-size="14.00">10</text>
</g>
<!-- 9&#45;&gt;10 -->
<g id="edge11" class="edge">
<title>9&#45;&gt;10</title>
<path fill="none" stroke="black" d="M949.57,-97.65C967.72,-95.03 996.78,-90.83 1019,-87.62"/>
<polygon fill="black" stroke="black" points="1019.32,-91.11 1028.72,-86.22 1018.32,-84.18 1019.32,-91.11"/>
<text text-anchor="middle" x="989.97" y="-97.08" font-family="Arial" font-size="14.00">m_stop</text>
</g>
<!-- 11 -->
<g id="node12" class="node">
<title>11</title>
<ellipse fill="none" stroke="black" cx="1172.85" cy="-20.13" rx="20.13" ry="20.13"/>
<text text-anchor="middle" x="1172.85" y="-14.7" font-family="Arial" font-size="14.00">11</text>
</g>
<!-- 10&#45;&gt;11 -->
<g id="edge12" class="edge">
<title>10&#45;&gt;11</title>
<path fill="none" stroke="black" d="M1069.77,-73.83C1089.42,-63.49 1121.43,-46.65 1144.36,-34.58"/>
<polygon fill="black" stroke="black" points="1145.93,-37.71 1153.15,-29.96 1142.67,-31.52 1145.93,-37.71"/>
<text text-anchor="middle" x="1112.22" y="-65.2" font-family="Arial" font-size="14.00">lambda</text>
</g>
<!-- 11&#45;&gt;1 -->
<g id="edge13" class="edge">
<title>11&#45;&gt;1</title>
<path fill="none" stroke="black" d="M1152.87,-16.01C1129.34,-11.27 1087.96,-4.13 1052.1,-4.13 167.72,-4.13 167.72,-4.13 167.72,-4.13 140.02,-4.13 110.49,-15.57 89.49,-25.9"/>
<polygon fill="black" stroke="black" points="87.97,-22.75 80.68,-30.44 91.18,-28.97 87.97,-22.75"/>
<text text-anchor="middle" x="605.22" y="-6.58" font-family="Arial" font-size="14.00">p_stop</text>
</g>
<!-- 12&#45;&gt;1 -->
<g id="edge14" class="edge">
<title>12&#45;&gt;1</title>
<path fill="none" stroke="black" d="M644.06,-56.66C621.72,-50.74 583.48,-42.13 549.97,-42.13 167.72,-42.13 167.72,-42.13 167.72,-42.13 142.76,-42.13 114.52,-42.13 93.32,-42.13"/>
<polygon fill="black" stroke="black" points="93.55,-38.63 83.55,-42.13 93.55,-45.63 93.55,-38.63"/>
<text text-anchor="middle" x="344.22" y="-44.58" font-family="Arial" font-size="14.00">beta</text>
</g>
</g>
</svg>
