<?xml version="1.0" encoding="UTF-8" standalone="no"?>
<!DOCTYPE svg PUBLIC "-//W3C//DTD SVG 1.1//EN"
 "http://www.w3.org/Graphics/SVG/1.1/DTD/svg11.dtd">
<!-- Generated by graphviz version 12.2.1 (20241206.2353)
 -->
<!-- Title: E_opcmds Pages: 1 -->
<svg width="398pt" height="146pt"
 viewBox="0.00 0.00 398.47 145.50" xmlns="http://www.w3.org/2000/svg" xmlns:xlink="http://www.w3.org/1999/xlink">
<g id="graph0" class="graph" transform="scale(1 1) rotate(0) translate(4 141.5)">
<title>E_opcmds</title>
<!-- dot_dummyinit_1 -->
<g id="node1" class="node">
<title>dot_dummyinit_1</title>
</g>
<!-- Idle -->
<g id="node2" class="node">
<title>Idle</title>
<path fill="none" stroke="black" d="M87.47,-36C87.47,-36 49.72,-36 49.72,-36 43.72,-36 37.72,-30 37.72,-24 37.72,-24 37.72,-12 37.72,-12 37.72,-6 43.72,0 49.72,0 49.72,0 87.47,0 87.47,0 93.47,0 99.47,-6 99.47,-12 99.47,-12 99.47,-24 99.47,-24 99.47,-30 93.47,-36 87.47,-36"/>
<text text-anchor="start" x="49.72" y="-12.57" font-family="Arial" font-size="14.00">Idle</text>
<polygon fill="black" stroke="none" points="81.47,-8.12 81.47,-27.88 89.47,-27.88 89.47,-8.12 81.47,-8.12"/>
</g>
<!-- dot_dummyinit_1&#45;&gt;Idle -->
<g id="edge1" class="edge">
<title>dot_dummyinit_1&#45;&gt;Idle</title>
<path fill="none" stroke="black" d="M0.77,-18C1.6,-18 12.92,-18 26.02,-18"/>
<polygon fill="black" stroke="black" points="25.74,-21.5 35.74,-18 25.74,-14.5 25.74,-21.5"/>
</g>
<!-- Start -->
<g id="node3" class="node">
<title>Start</title>
<path fill="none" stroke="black" d="M222.47,-88C222.47,-88 192.47,-88 192.47,-88 186.47,-88 180.47,-82 180.47,-76 180.47,-76 180.47,-64 180.47,-64 180.47,-58 186.47,-52 192.47,-52 192.47,-52 222.47,-52 222.47,-52 228.47,-52 234.47,-58 234.47,-64 234.47,-64 234.47,-76 234.47,-76 234.47,-82 228.47,-88 222.47,-88"/>
<text text-anchor="middle" x="207.47" y="-64.58" font-family="Arial" font-size="14.00">Start</text>
</g>
<!-- Idle&#45;&gt;Start -->
<g id="edge2" class="edge">
<title>Idle&#45;&gt;Start</title>
<path fill="none" stroke="black" d="M99.63,-29.41C120.23,-37.24 147.7,-47.67 169.62,-56"/>
<polygon fill="black" stroke="black" points="168.19,-59.2 178.78,-59.48 170.68,-52.66 168.19,-59.2"/>
<text text-anchor="middle" x="139.97" y="-71.38" font-family="Arial" font-size="14.00">o_upb, </text>
<text text-anchor="middle" x="139.97" y="-55.63" font-family="Arial" font-size="14.00">o_lwb</text>
</g>
<!-- Start&#45;&gt;Start -->
<g id="edge3" class="edge">
<title>Start&#45;&gt;Start</title>
<path fill="none" stroke="black" d="M195.6,-88.15C193.77,-97.54 197.73,-106 207.47,-106 212.95,-106 216.6,-103.32 218.42,-99.31"/>
<polygon fill="black" stroke="black" points="221.88,-99.92 219.22,-89.66 214.9,-99.34 221.88,-99.92"/>
<text text-anchor="middle" x="207.47" y="-124.2" font-family="Arial" font-size="14.00">o_upb, </text>
<text text-anchor="middle" x="207.47" y="-108.45" font-family="Arial" font-size="14.00">o_lwb</text>
</g>
<!-- Busy -->
<g id="node4" class="node">
<title>Busy</title>
<path fill="none" stroke="black" d="M366.1,-36C366.1,-36 336.1,-36 336.1,-36 330.1,-36 324.1,-30 324.1,-24 324.1,-24 324.1,-12 324.1,-12 324.1,-6 330.1,0 336.1,0 336.1,0 366.1,0 366.1,0 372.1,0 378.1,-6 378.1,-12 378.1,-12 378.1,-24 378.1,-24 378.1,-30 372.1,-36 366.1,-36"/>
<text text-anchor="middle" x="351.1" y="-12.57" font-family="Arial" font-size="14.00">Busy</text>
</g>
<!-- Start&#45;&gt;Busy -->
<g id="edge4" class="edge">
<title>Start&#45;&gt;Busy</title>
<path fill="none" stroke="black" d="M234.78,-60.34C256.84,-52.24 288.59,-40.58 313.19,-31.55"/>
<polygon fill="black" stroke="black" points="314.33,-34.86 322.51,-28.13 311.91,-28.29 314.33,-34.86"/>
<text text-anchor="middle" x="273.1" y="-55.63" font-family="Arial" font-size="14.00">a_start</text>
</g>
<!-- Busy&#45;&gt;Idle -->
<g id="edge5" class="edge">
<title>Busy&#45;&gt;Idle</title>
<path fill="none" stroke="black" d="M323.66,-15.88C290.29,-13.46 231.14,-10.02 180.47,-11.5 157.48,-12.17 131.85,-13.63 111.03,-14.99"/>
<polygon fill="black" stroke="black" points="110.94,-11.49 101.2,-15.66 111.41,-18.48 110.94,-11.49"/>
<text text-anchor="middle" x="207.47" y="-29.7" font-family="Arial" font-size="14.00">a_done, </text>
<text text-anchor="middle" x="207.47" y="-13.95" font-family="Arial" font-size="14.00">a_fail</text>
</g>
<!-- Busy&#45;&gt;Busy -->
<g id="edge6" class="edge">
<title>Busy&#45;&gt;Busy</title>
<path fill="none" stroke="black" d="M336.98,-36.15C334.81,-45.54 339.52,-54 351.1,-54 357.61,-54 361.95,-51.32 364.11,-47.31"/>
<polygon fill="black" stroke="black" points="367.56,-47.95 365.06,-37.66 360.59,-47.27 367.56,-47.95"/>
<text text-anchor="middle" x="351.1" y="-119.45" font-family="Arial" font-size="14.00">o_upb, </text>
<text text-anchor="middle" x="351.1" y="-103.7" font-family="Arial" font-size="14.00">o_lwb, </text>
<text text-anchor="middle" x="351.1" y="-87.95" font-family="Arial" font-size="14.00">c_up, </text>
<text text-anchor="middle" x="351.1" y="-72.2" font-family="Arial" font-size="14.00">c_down, </text>
<text text-anchor="middle" x="351.1" y="-56.45" font-family="Arial" font-size="14.00">c_stp</text>
</g>
</g>
</svg>
