<?xml version="1.0" encoding="UTF-8" standalone="no"?>
<!DOCTYPE svg PUBLIC "-//W3C//DTD SVG 1.0//EN"
 "http://www.w3.org/TR/2001/REC-SVG-20010904/DTD/svg10.dtd" [
 <!ATTLIST svg xmlns:xlink CDATA #FIXED "http://www.w3.org/1999/xlink">
]>
<!-- Generated by Graphviz version 2.20.2 (Tue Mar &#160;2 21:46:26 UTC 2010)
     For user: (mtmoor) Prof. Thomas Moor -->
<!-- Title: PlantA (process) Pages: 1 -->
<svg width="646pt" height="157pt"
 viewBox="0.00 0.00 646.00 157.00" xmlns="http://www.w3.org/2000/svg" xmlns:xlink="http://www.w3.org/1999/xlink">
<g id="graph0" class="graph" transform="scale(1 1) rotate(0) translate(4 153)">
<title>PlantA (process)</title>
<polygon style="fill:none;stroke:none;" points="-4,4 -4,-153 642,-153 642,4 -4,4"/>
<!-- dot_dummyinit_1 -->
<g id="node1" class="node"><title>dot_dummyinit_1</title>
</g>
<!-- POff -->
<g id="node3" class="node"><title>POff</title>
<ellipse style="fill:none;stroke:black;" cx="76" cy="-73" rx="31.9646" ry="31.9646"/>
<ellipse style="fill:none;stroke:black;" cx="76" cy="-73" rx="35.9646" ry="35.9646"/>
<text text-anchor="middle" x="76" y="-68.9" style="font-family:Times New Roman;font-size:14.00;">POff</text>
</g>
<!-- dot_dummyinit_1&#45;&gt;POff -->
<g id="edge2" class="edge"><title>dot_dummyinit_1&#45;&gt;POff</title>
<path style="fill:none;stroke:black;" d="M2,-73C5,-73 17,-73 30,-73"/>
<polygon style="fill:black;stroke:black;" points="30,-76.5001 40,-73 30,-69.5001 30,-76.5001"/>
</g>
<!-- POff&#45;&gt;POff -->
<g id="edge6" class="edge"><title>POff&#45;&gt;POff</title>
<path style="fill:none;stroke:black;" d="M66,-108C66,-119 70,-127 76,-127 80,-127 83,-124 85,-118"/>
<polygon style="fill:black;stroke:black;" points="88.4875,-118.299 86,-108 81.5222,-117.602 88.4875,-118.299"/>
<text text-anchor="middle" x="76" y="-130.9" style="font-family:Times New Roman;font-size:14.00;">p_stop</text>
</g>
<!-- POn1 -->
<g id="node5" class="node"><title>POn1</title>
<ellipse style="fill:none;stroke:black;" cx="235" cy="-73" rx="37.0233" ry="37.0233"/>
<text text-anchor="middle" x="235" y="-68.9" style="font-family:Times New Roman;font-size:14.00;">POn1</text>
</g>
<!-- POff&#45;&gt;POn1 -->
<g id="edge4" class="edge"><title>POff&#45;&gt;POn1</title>
<path style="fill:none;stroke:black;" d="M112,-73C135,-73 164,-73 188,-73"/>
<polygon style="fill:black;stroke:black;" points="188,-76.5001 198,-73 188,-69.5001 188,-76.5001"/>
<text text-anchor="middle" x="155" y="-76.9" style="font-family:Times New Roman;font-size:14.00;">p_start</text>
</g>
<!-- POn3 -->
<g id="node4" class="node"><title>POn3</title>
<ellipse style="fill:none;stroke:black;" cx="597" cy="-41" rx="37.0716" ry="37.0716"/>
<ellipse style="fill:none;stroke:black;" cx="597" cy="-41" rx="41.0234" ry="41.0234"/>
<text text-anchor="middle" x="597" y="-36.9" style="font-family:Times New Roman;font-size:14.00;">POn3</text>
</g>
<!-- POn3&#45;&gt;POff -->
<g id="edge20" class="edge"><title>POn3&#45;&gt;POff</title>
<path style="fill:none;stroke:black;" d="M556,-33C550,-33 544,-32 538,-31 299,-10 241,-20 198,-27 170,-32 141,-43 117,-53"/>
<polygon style="fill:black;stroke:black;" points="115.717,-49.7402 108,-57 118.56,-56.1369 115.717,-49.7402"/>
<text text-anchor="middle" x="320" y="-25.9" style="font-family:Times New Roman;font-size:14.00;">p_stop</text>
</g>
<!-- POn3&#45;&gt;POn3 -->
<g id="edge18" class="edge"><title>POn3&#45;&gt;POn3</title>
<path style="fill:none;stroke:black;" d="M579,-78C579,-90 585,-100 597,-100 605,-100 611,-95 613,-88"/>
<polygon style="fill:black;stroke:black;" points="616.471,-88.4922 615,-78 609.607,-87.1194 616.471,-88.4922"/>
<text text-anchor="middle" x="597" y="-103.9" style="font-family:Times New Roman;font-size:14.00;">p_start</text>
</g>
<!-- POn2 -->
<g id="node6" class="node"><title>POn2</title>
<ellipse style="fill:none;stroke:black;" cx="405" cy="-77" rx="37.0233" ry="37.0233"/>
<text text-anchor="middle" x="405" y="-72.9" style="font-family:Times New Roman;font-size:14.00;">POn2</text>
</g>
<!-- POn1&#45;&gt;POn2 -->
<g id="edge8" class="edge"><title>POn1&#45;&gt;POn2</title>
<path style="fill:none;stroke:black;" d="M272,-74C297,-75 330,-75 358,-76"/>
<polygon style="fill:black;stroke:black;" points="358,-79.5001 368,-76 358,-72.5001 358,-79.5001"/>
<text text-anchor="middle" x="320" y="-80.9" style="font-family:Times New Roman;font-size:14.00;">p_inprog</text>
</g>
<!-- POn2&#45;&gt;POff -->
<g id="edge12" class="edge"><title>POn2&#45;&gt;POff</title>
<path style="fill:none;stroke:black;" d="M371,-92C330,-108 259,-130 198,-119 170,-114 141,-103 117,-93"/>
<polygon style="fill:black;stroke:black;" points="118.56,-89.8631 108,-89 115.717,-96.2598 118.56,-89.8631"/>
<text text-anchor="middle" x="235" y="-123.9" style="font-family:Times New Roman;font-size:14.00;">p_stop</text>
</g>
<!-- POn2&#45;&gt;POn3 -->
<g id="edge14" class="edge"><title>POn2&#45;&gt;POn3</title>
<path style="fill:none;stroke:black;" d="M435,-54C443,-50 451,-45 460,-42 488,-34 520,-33 546,-35"/>
<polygon style="fill:black;stroke:black;" points="545.701,-38.4875 556,-36 546.398,-31.5222 545.701,-38.4875"/>
<text text-anchor="middle" x="499" y="-49.9" style="font-family:Times New Roman;font-size:14.00;">p_complete</text>
</g>
<!-- POn2&#45;&gt;POn3 -->
<g id="edge16" class="edge"><title>POn2&#45;&gt;POn3</title>
<path style="fill:none;stroke:black;" d="M442,-74C469,-71 506,-66 538,-59 542,-58 545,-58 548,-57"/>
<polygon style="fill:black;stroke:black;" points="549.427,-60.2259 558,-54 547.416,-53.5212 549.427,-60.2259"/>
<text text-anchor="middle" x="499" y="-76.9" style="font-family:Times New Roman;font-size:14.00;">m_request</text>
</g>
<!-- POn2&#45;&gt;POn2 -->
<g id="edge10" class="edge"><title>POn2&#45;&gt;POn2</title>
<path style="fill:none;stroke:black;" d="M389,-111C389,-122 394,-132 405,-132 412,-132 417,-127 419,-121"/>
<polygon style="fill:black;stroke:black;" points="422.471,-121.492 421,-111 415.607,-120.119 422.471,-121.492"/>
<text text-anchor="middle" x="405" y="-135.9" style="font-family:Times New Roman;font-size:14.00;">p_start</text>
</g>
</g>
</svg>
