<?xml version="1.0" encoding="UTF-8" standalone="no"?>
<!DOCTYPE svg PUBLIC "-//W3C//DTD SVG 1.1//EN"
 "http://www.w3.org/Graphics/SVG/1.1/DTD/svg11.dtd">
<!-- Generated by graphviz version 12.2.1 (20241206.2353)
 -->
<!-- Title: elevator core plant (cabin plus buttons) Pages: 1 -->
<svg width="720pt" height="440pt"
 viewBox="0.00 0.00 720.00 439.84" xmlns="http://www.w3.org/2000/svg" xmlns:xlink="http://www.w3.org/1999/xlink">
<g id="graph0" class="graph" transform="scale(0.743921 0.743921) rotate(0) translate(4 587.25)">
<title>elevator core plant (cabin plus buttons)</title>
<!-- dot_dummyinit_1 -->
<g id="node1" class="node">
<title>dot_dummyinit_1</title>
</g>
<!-- 1 -->
<g id="node2" class="node">
<title>1</title>
<ellipse fill="none" stroke="black" cx="61.35" cy="-55" rx="18" ry="18"/>
<ellipse fill="none" stroke="black" cx="61.35" cy="-55" rx="22" ry="22"/>
<text text-anchor="middle" x="61.35" y="-49.58" font-family="Arial" font-size="14.00">1</text>
</g>
<!-- dot_dummyinit_1&#45;&gt;1 -->
<g id="edge1" class="edge">
<title>dot_dummyinit_1&#45;&gt;1</title>
<path fill="none" stroke="black" d="M0.89,-55C2.47,-55 14.67,-55 27.62,-55"/>
<polygon fill="black" stroke="black" points="27.42,-58.5 37.42,-55 27.42,-51.5 27.42,-58.5"/>
</g>
<!-- 1&#45;&gt;1 -->
<g id="edge2" class="edge">
<title>1&#45;&gt;1</title>
<path fill="none" stroke="black" d="M53.64,-75.99C52.69,-86.09 55.26,-95 61.35,-95 64.96,-95 67.33,-91.86 68.47,-87.19"/>
<polygon fill="black" stroke="black" points="71.95,-87.67 68.97,-77.5 64.96,-87.31 71.95,-87.67"/>
<text text-anchor="middle" x="61.35" y="-128.95" font-family="Arial" font-size="14.00">c_stp, </text>
<text text-anchor="middle" x="61.35" y="-113.2" font-family="Arial" font-size="14.00">o_upb, </text>
<text text-anchor="middle" x="61.35" y="-97.45" font-family="Arial" font-size="14.00">o_lwb</text>
</g>
<!-- 2 -->
<g id="node4" class="node">
<title>2</title>
<ellipse fill="none" stroke="black" cx="176.85" cy="-111" rx="18" ry="18"/>
<text text-anchor="middle" x="176.85" y="-105.58" font-family="Arial" font-size="14.00">2</text>
</g>
<!-- 1&#45;&gt;2 -->
<g id="edge3" class="edge">
<title>1&#45;&gt;2</title>
<path fill="none" stroke="black" d="M77.46,-70.18C84.68,-76.73 93.74,-84.02 102.97,-89 116.96,-96.55 133.9,-101.87 147.92,-105.38"/>
<polygon fill="black" stroke="black" points="146.88,-108.73 157.41,-107.57 148.46,-101.91 146.88,-108.73"/>
<text text-anchor="middle" x="119.1" y="-103.9" font-family="Arial" font-size="14.00">c_up</text>
</g>
<!-- 3 -->
<g id="node5" class="node">
<title>3</title>
<ellipse fill="none" stroke="black" cx="932.85" cy="-85" rx="18" ry="18"/>
<text text-anchor="middle" x="932.85" y="-79.58" font-family="Arial" font-size="14.00">3</text>
</g>
<!-- 1&#45;&gt;3 -->
<g id="edge4" class="edge">
<title>1&#45;&gt;3</title>
<path fill="none" stroke="black" d="M83.14,-50.29C105.81,-45.57 143.21,-39 175.85,-39 175.85,-39 175.85,-39 804.1,-39 841.84,-39 882.35,-57 907.39,-70.48"/>
<polygon fill="black" stroke="black" points="905.37,-73.36 915.81,-75.17 908.78,-67.24 905.37,-73.36"/>
<text text-anchor="middle" x="486.22" y="-41.45" font-family="Arial" font-size="14.00">c_down</text>
</g>
<!-- 9 -->
<g id="node3" class="node">
<title>9</title>
<ellipse fill="none" stroke="black" cx="551.1" cy="-245" rx="18" ry="18"/>
<ellipse fill="none" stroke="black" cx="551.1" cy="-245" rx="22" ry="22"/>
<text text-anchor="middle" x="551.1" y="-239.57" font-family="Arial" font-size="14.00">9</text>
</g>
<!-- 9&#45;&gt;9 -->
<g id="edge32" class="edge">
<title>9&#45;&gt;9</title>
<path fill="none" stroke="black" d="M539.6,-263.93C537.25,-274.84 541.08,-285 551.1,-285 557.35,-285 561.19,-281.03 562.62,-275.39"/>
<polygon fill="black" stroke="black" points="566.12,-275.43 562.6,-265.44 559.12,-275.45 566.12,-275.43"/>
<text text-anchor="middle" x="551.1" y="-318.95" font-family="Arial" font-size="14.00">c_stp, </text>
<text text-anchor="middle" x="551.1" y="-303.2" font-family="Arial" font-size="14.00">o_upb, </text>
<text text-anchor="middle" x="551.1" y="-287.45" font-family="Arial" font-size="14.00">o_lwb</text>
</g>
<!-- 7 -->
<g id="node9" class="node">
<title>7</title>
<ellipse fill="none" stroke="black" cx="421.35" cy="-284" rx="18" ry="18"/>
<text text-anchor="middle" x="421.35" y="-278.57" font-family="Arial" font-size="14.00">7</text>
</g>
<!-- 9&#45;&gt;7 -->
<g id="edge30" class="edge">
<title>9&#45;&gt;7</title>
<path fill="none" stroke="black" d="M529.49,-239.65C511.25,-235.98 484.3,-233.24 462.97,-242.25 453.73,-246.15 445.55,-253.3 439,-260.59"/>
<polygon fill="black" stroke="black" points="436.67,-257.9 433.05,-267.86 442.09,-262.34 436.67,-257.9"/>
<text text-anchor="middle" x="486.22" y="-244.7" font-family="Arial" font-size="14.00">c_up</text>
</g>
<!-- 8 -->
<g id="node10" class="node">
<title>8</title>
<ellipse fill="none" stroke="black" cx="680.85" cy="-284" rx="18" ry="18"/>
<text text-anchor="middle" x="680.85" y="-278.57" font-family="Arial" font-size="14.00">8</text>
</g>
<!-- 9&#45;&gt;8 -->
<g id="edge31" class="edge">
<title>9&#45;&gt;8</title>
<path fill="none" stroke="black" d="M571.71,-253.9C578.3,-256.71 585.76,-259.68 592.72,-262 612.2,-268.5 634.68,-274.13 651.93,-278.07"/>
<polygon fill="black" stroke="black" points="650.93,-281.43 661.45,-280.18 652.45,-274.6 650.93,-281.43"/>
<text text-anchor="middle" x="615.97" y="-277.1" font-family="Arial" font-size="14.00">c_down</text>
</g>
<!-- 2&#45;&gt;1 -->
<g id="edge5" class="edge">
<title>2&#45;&gt;1</title>
<path fill="none" stroke="black" d="M165.73,-96.8C158.34,-87.51 147.49,-75.89 135.22,-69.25 122.98,-62.63 108.11,-59.05 94.99,-57.14"/>
<polygon fill="black" stroke="black" points="95.41,-53.66 85.08,-55.98 94.6,-60.62 95.41,-53.66"/>
<text text-anchor="middle" x="119.1" y="-71.7" font-family="Arial" font-size="14.00">c_stp</text>
</g>
<!-- 2&#45;&gt;2 -->
<g id="edge6" class="edge">
<title>2&#45;&gt;2</title>
<path fill="none" stroke="black" d="M166.97,-126.54C164.19,-136.91 167.48,-147 176.85,-147 182.55,-147 186,-143.25 187.2,-137.98"/>
<polygon fill="black" stroke="black" points="190.7,-137.9 186.78,-128.05 183.7,-138.19 190.7,-137.9"/>
<text text-anchor="middle" x="176.85" y="-180.95" font-family="Arial" font-size="14.00">c_up, </text>
<text text-anchor="middle" x="176.85" y="-165.2" font-family="Arial" font-size="14.00">o_upb, </text>
<text text-anchor="middle" x="176.85" y="-149.45" font-family="Arial" font-size="14.00">o_lwb</text>
</g>
<!-- 2&#45;&gt;3 -->
<g id="edge7" class="edge">
<title>2&#45;&gt;3</title>
<path fill="none" stroke="black" d="M194.01,-105.1C216.52,-97.43 258.71,-85 295.85,-85 295.85,-85 295.85,-85 804.1,-85 838.18,-85 877.37,-85 903.26,-85"/>
<polygon fill="black" stroke="black" points="902.97,-88.5 912.97,-85 902.97,-81.5 902.97,-88.5"/>
<text text-anchor="middle" x="551.1" y="-87.45" font-family="Arial" font-size="14.00">c_down</text>
</g>
<!-- 4 -->
<g id="node6" class="node">
<title>4</title>
<ellipse fill="none" stroke="black" cx="296.85" cy="-446" rx="18" ry="18"/>
<text text-anchor="middle" x="296.85" y="-440.57" font-family="Arial" font-size="14.00">4</text>
</g>
<!-- 2&#45;&gt;4 -->
<g id="edge8" class="edge">
<title>2&#45;&gt;4</title>
<path fill="none" stroke="black" d="M183.86,-128.07C202.99,-182.4 262.59,-351.59 286.13,-418.43"/>
<polygon fill="black" stroke="black" points="282.72,-419.26 289.34,-427.53 289.32,-416.94 282.72,-419.26"/>
<text text-anchor="middle" x="236.85" y="-330.53" font-family="Arial" font-size="14.00">c_lvlw</text>
</g>
<!-- 3&#45;&gt;1 -->
<g id="edge9" class="edge">
<title>3&#45;&gt;1</title>
<path fill="none" stroke="black" d="M920.84,-70.96C900.56,-46.82 854.71,0 804.1,0 175.85,0 175.85,0 175.85,0 143.04,0 109.75,-18.84 87.79,-34.47"/>
<polygon fill="black" stroke="black" points="85.98,-31.45 80.04,-40.22 90.15,-37.07 85.98,-31.45"/>
<text text-anchor="middle" x="486.22" y="-2.45" font-family="Arial" font-size="14.00">c_stp</text>
</g>
<!-- 3&#45;&gt;2 -->
<g id="edge10" class="edge">
<title>3&#45;&gt;2</title>
<path fill="none" stroke="black" d="M917.67,-95.03C894.87,-110.14 848.16,-137 804.1,-137 295.85,-137 295.85,-137 295.85,-137 264.08,-137 228.61,-127.9 204.93,-120.47"/>
<polygon fill="black" stroke="black" points="206.04,-117.15 195.45,-117.37 203.87,-123.81 206.04,-117.15"/>
<text text-anchor="middle" x="551.1" y="-139.45" font-family="Arial" font-size="14.00">c_up</text>
</g>
<!-- 3&#45;&gt;3 -->
<g id="edge11" class="edge">
<title>3&#45;&gt;3</title>
<path fill="none" stroke="black" d="M921.99,-99.79C918.46,-110.42 922.07,-121 932.85,-121 939.58,-121 943.51,-116.87 944.66,-111.17"/>
<polygon fill="black" stroke="black" points="948.15,-110.97 943.83,-101.3 941.18,-111.56 948.15,-110.97"/>
<text text-anchor="middle" x="932.85" y="-154.95" font-family="Arial" font-size="14.00">c_down, </text>
<text text-anchor="middle" x="932.85" y="-139.2" font-family="Arial" font-size="14.00">o_upb, </text>
<text text-anchor="middle" x="932.85" y="-123.45" font-family="Arial" font-size="14.00">o_lwb</text>
</g>
<!-- 4&#45;&gt;4 -->
<g id="edge12" class="edge">
<title>4&#45;&gt;4</title>
<path fill="none" stroke="black" d="M286.69,-461.17C283.62,-471.66 287,-482 296.85,-482 303,-482 306.63,-477.96 307.73,-472.37"/>
<polygon fill="black" stroke="black" points="311.24,-472.43 307.1,-462.68 304.26,-472.88 311.24,-472.43"/>
<text text-anchor="middle" x="296.85" y="-515.95" font-family="Arial" font-size="14.00">c_up, </text>
<text text-anchor="middle" x="296.85" y="-500.2" font-family="Arial" font-size="14.00">o_upb, </text>
<text text-anchor="middle" x="296.85" y="-484.45" font-family="Arial" font-size="14.00">o_lwb</text>
</g>
<!-- 5 -->
<g id="node7" class="node">
<title>5</title>
<ellipse fill="none" stroke="black" cx="803.1" cy="-405" rx="18" ry="18"/>
<text text-anchor="middle" x="803.1" y="-399.57" font-family="Arial" font-size="14.00">5</text>
</g>
<!-- 4&#45;&gt;5 -->
<g id="edge13" class="edge">
<title>4&#45;&gt;5</title>
<path fill="none" stroke="black" d="M314.25,-440.23C337.54,-432.57 381.65,-420 420.35,-420 420.35,-420 420.35,-420 681.85,-420 713.52,-420 749.53,-414.81 773.82,-410.54"/>
<polygon fill="black" stroke="black" points="774.36,-414 783.56,-408.75 773.1,-407.11 774.36,-414"/>
<text text-anchor="middle" x="551.1" y="-422.45" font-family="Arial" font-size="14.00">c_down</text>
</g>
<!-- 6 -->
<g id="node8" class="node">
<title>6</title>
<ellipse fill="none" stroke="black" cx="932.85" cy="-500" rx="18" ry="18"/>
<text text-anchor="middle" x="932.85" y="-494.57" font-family="Arial" font-size="14.00">6</text>
</g>
<!-- 4&#45;&gt;6 -->
<g id="edge14" class="edge">
<title>4&#45;&gt;6</title>
<path fill="none" stroke="black" d="M310.09,-458.84C330.76,-479.05 374.78,-516 420.35,-516 420.35,-516 420.35,-516 804.1,-516 838.64,-516 878.02,-510.17 903.82,-505.55"/>
<polygon fill="black" stroke="black" points="904.31,-509.02 913.5,-503.75 903.02,-502.14 904.31,-509.02"/>
<text text-anchor="middle" x="615.97" y="-518.45" font-family="Arial" font-size="14.00">c_stp</text>
</g>
<!-- 4&#45;&gt;7 -->
<g id="edge15" class="edge">
<title>4&#45;&gt;7</title>
<path fill="none" stroke="black" d="M308.09,-431.72C316.25,-420.41 327.98,-404.24 338.47,-390.25 360.15,-361.32 385.64,-328.41 402.35,-306.98"/>
<polygon fill="black" stroke="black" points="405.04,-309.23 408.43,-299.19 399.52,-304.92 405.04,-309.23"/>
<text text-anchor="middle" x="359.1" y="-392.7" font-family="Arial" font-size="14.00">c_arup</text>
</g>
<!-- 5&#45;&gt;3 -->
<g id="edge16" class="edge">
<title>5&#45;&gt;3</title>
<path fill="none" stroke="black" d="M810.78,-388.25C831.61,-336.08 895.43,-176.23 921.04,-112.07"/>
<polygon fill="black" stroke="black" points="924.2,-113.58 924.66,-102.99 917.7,-110.98 924.2,-113.58"/>
<text text-anchor="middle" x="867.97" y="-303.94" font-family="Arial" font-size="14.00">c_arlw</text>
</g>
<!-- 5&#45;&gt;4 -->
<g id="edge17" class="edge">
<title>5&#45;&gt;4</title>
<path fill="none" stroke="black" d="M789.68,-417.6C769.17,-437.01 726.06,-472 681.85,-472 420.35,-472 420.35,-472 420.35,-472 386.94,-472 349.5,-462.63 324.9,-455.14"/>
<polygon fill="black" stroke="black" points="326.29,-451.91 315.7,-452.23 324.17,-458.58 326.29,-451.91"/>
<text text-anchor="middle" x="551.1" y="-474.45" font-family="Arial" font-size="14.00">c_up</text>
</g>
<!-- 5&#45;&gt;5 -->
<g id="edge18" class="edge">
<title>5&#45;&gt;5</title>
<path fill="none" stroke="black" d="M792.75,-420.17C789.62,-430.66 793.07,-441 803.1,-441 809.36,-441 813.06,-436.96 814.19,-431.37"/>
<polygon fill="black" stroke="black" points="817.7,-431.42 813.54,-421.68 810.71,-431.89 817.7,-431.42"/>
<text text-anchor="middle" x="803.1" y="-474.95" font-family="Arial" font-size="14.00">c_down, </text>
<text text-anchor="middle" x="803.1" y="-459.2" font-family="Arial" font-size="14.00">o_upb, </text>
<text text-anchor="middle" x="803.1" y="-443.45" font-family="Arial" font-size="14.00">o_lwb</text>
</g>
<!-- 5&#45;&gt;6 -->
<g id="edge19" class="edge">
<title>5&#45;&gt;6</title>
<path fill="none" stroke="black" d="M821.1,-407.7C839.93,-411.41 870.38,-419.6 891.22,-436.25 903.48,-446.04 913.15,-460.59 919.97,-473.31"/>
<polygon fill="black" stroke="black" points="916.75,-474.7 924.35,-482.08 923.01,-471.57 916.75,-474.7"/>
<text text-anchor="middle" x="867.97" y="-438.7" font-family="Arial" font-size="14.00">c_stp</text>
</g>
<!-- 6&#45;&gt;4 -->
<g id="edge20" class="edge">
<title>6&#45;&gt;4</title>
<path fill="none" stroke="black" d="M917.76,-510.6C895.08,-526.59 848.53,-555 804.1,-555 420.35,-555 420.35,-555 420.35,-555 378.82,-555 368.74,-538.42 338.47,-510 327.08,-499.3 317.51,-484.76 310.53,-472.24"/>
<polygon fill="black" stroke="black" points="313.77,-470.87 306,-463.66 307.58,-474.14 313.77,-470.87"/>
<text text-anchor="middle" x="615.97" y="-557.45" font-family="Arial" font-size="14.00">c_up</text>
</g>
<!-- 6&#45;&gt;5 -->
<g id="edge21" class="edge">
<title>6&#45;&gt;5</title>
<path fill="none" stroke="black" d="M915.7,-493.21C897.38,-485.05 867.13,-470.15 844.72,-452 836.19,-445.09 828.03,-436.26 821.29,-428.11"/>
<polygon fill="black" stroke="black" points="824.23,-426.19 815.27,-420.54 818.75,-430.54 824.23,-426.19"/>
<text text-anchor="middle" x="867.97" y="-483.37" font-family="Arial" font-size="14.00">c_down</text>
</g>
<!-- 6&#45;&gt;6 -->
<g id="edge22" class="edge">
<title>6&#45;&gt;6</title>
<path fill="none" stroke="black" d="M921.99,-514.79C918.46,-525.42 922.07,-536 932.85,-536 939.58,-536 943.51,-531.87 944.66,-526.17"/>
<polygon fill="black" stroke="black" points="948.15,-525.97 943.83,-516.3 941.18,-526.56 948.15,-525.97"/>
<text text-anchor="middle" x="932.85" y="-569.95" font-family="Arial" font-size="14.00">c_stp, </text>
<text text-anchor="middle" x="932.85" y="-554.2" font-family="Arial" font-size="14.00">o_upb, </text>
<text text-anchor="middle" x="932.85" y="-538.45" font-family="Arial" font-size="14.00">o_lwb</text>
</g>
<!-- 7&#45;&gt;9 -->
<g id="edge25" class="edge">
<title>7&#45;&gt;9</title>
<path fill="none" stroke="black" d="M439.26,-280.51C456.97,-276.68 485.49,-269.99 509.47,-262 512.95,-260.84 516.56,-259.52 520.11,-258.13"/>
<polygon fill="black" stroke="black" points="521.15,-261.49 529.08,-254.47 518.5,-255.01 521.15,-261.49"/>
<text text-anchor="middle" x="486.22" y="-277.1" font-family="Arial" font-size="14.00">c_stp</text>
</g>
<!-- 7&#45;&gt;7 -->
<g id="edge23" class="edge">
<title>7&#45;&gt;7</title>
<path fill="none" stroke="black" d="M410.81,-299.17C407.62,-309.66 411.13,-320 421.35,-320 427.73,-320 431.49,-315.96 432.64,-310.37"/>
<polygon fill="black" stroke="black" points="436.15,-310.42 431.98,-300.68 429.17,-310.89 436.15,-310.42"/>
<text text-anchor="middle" x="421.35" y="-353.95" font-family="Arial" font-size="14.00">c_up, </text>
<text text-anchor="middle" x="421.35" y="-338.2" font-family="Arial" font-size="14.00">o_upb, </text>
<text text-anchor="middle" x="421.35" y="-322.45" font-family="Arial" font-size="14.00">o_lwb</text>
</g>
<!-- 7&#45;&gt;8 -->
<g id="edge24" class="edge">
<title>7&#45;&gt;8</title>
<path fill="none" stroke="black" d="M431.59,-268.91C439.03,-257.7 450.3,-242.56 462.97,-232 502.82,-198.78 524.65,-184.67 574.72,-198.25 606.78,-206.94 613.79,-214.63 639.22,-236 647.72,-243.15 655.88,-252.19 662.63,-260.5"/>
<polygon fill="black" stroke="black" points="659.75,-262.5 668.66,-268.23 665.27,-258.19 659.75,-262.5"/>
<text text-anchor="middle" x="551.1" y="-200.7" font-family="Arial" font-size="14.00">c_down</text>
</g>
<!-- 8&#45;&gt;9 -->
<g id="edge29" class="edge">
<title>8&#45;&gt;9</title>
<path fill="none" stroke="black" d="M669.12,-269.72C661.76,-261.17 651.19,-251.05 639.22,-246.25 621.88,-239.29 600.99,-238.76 584.02,-240.07"/>
<polygon fill="black" stroke="black" points="584.07,-236.54 574.49,-241.06 584.8,-243.51 584.07,-236.54"/>
<text text-anchor="middle" x="615.97" y="-248.7" font-family="Arial" font-size="14.00">c_stp</text>
</g>
<!-- 8&#45;&gt;5 -->
<g id="edge26" class="edge">
<title>8&#45;&gt;5</title>
<path fill="none" stroke="black" d="M694.26,-296.49C714.96,-317.32 756.73,-359.35 781.77,-384.55"/>
<polygon fill="black" stroke="black" points="778.97,-386.69 788.5,-391.32 783.93,-381.76 778.97,-386.69"/>
<text text-anchor="middle" x="741.97" y="-364.86" font-family="Arial" font-size="14.00">c_lvup</text>
</g>
<!-- 8&#45;&gt;7 -->
<g id="edge27" class="edge">
<title>8&#45;&gt;7</title>
<path fill="none" stroke="black" d="M665.84,-294.59C646.54,-308.44 610.14,-332.02 574.72,-341 527.25,-353.04 474.18,-322.62 444.87,-301.73"/>
<polygon fill="black" stroke="black" points="447.23,-299.12 437.1,-295.99 443.07,-304.75 447.23,-299.12"/>
<text text-anchor="middle" x="551.1" y="-346.18" font-family="Arial" font-size="14.00">c_up</text>
</g>
<!-- 8&#45;&gt;8 -->
<g id="edge28" class="edge">
<title>8&#45;&gt;8</title>
<path fill="none" stroke="black" d="M670.5,-299.17C667.37,-309.66 670.82,-320 680.85,-320 687.11,-320 690.81,-315.96 691.94,-310.37"/>
<polygon fill="black" stroke="black" points="695.45,-310.42 691.29,-300.68 688.46,-310.89 695.45,-310.42"/>
<text text-anchor="middle" x="680.85" y="-353.95" font-family="Arial" font-size="14.00">c_down, </text>
<text text-anchor="middle" x="680.85" y="-338.2" font-family="Arial" font-size="14.00">o_upb, </text>
<text text-anchor="middle" x="680.85" y="-322.45" font-family="Arial" font-size="14.00">o_lwb</text>
</g>
</g>
</svg>
