<?xml version="1.0" encoding="UTF-8" standalone="no"?>
<!DOCTYPE svg PUBLIC "-//W3C//DTD SVG 1.0//EN"
 "http://www.w3.org/TR/2001/REC-SVG-20010904/DTD/svg10.dtd" [
 <!ATTLIST svg xmlns:xlink CDATA #FIXED "http://www.w3.org/1999/xlink">
]>
<!-- Generated by Graphviz version 2.20.2 (Tue Mar &#160;2 21:46:26 UTC 2010)
     For user: (mtmoor) Prof. Thomas Moor -->
<!-- Title: simple machine A Pages: 1 -->
<svg width="532pt" height="84pt"
 viewBox="0.00 0.00 532.00 84.00" xmlns="http://www.w3.org/2000/svg" xmlns:xlink="http://www.w3.org/1999/xlink">
<g id="graph0" class="graph" transform="scale(1 1) rotate(0) translate(4 80)">
<title>simple machine A</title>
<polygon style="fill:white;stroke:white;" points="-4,4 -4,-80 528,-80 528,4 -4,4"/>
<!-- dot_dummyinit_1 -->
<g id="node1" class="node"><title>dot_dummyinit_1</title>
</g>
<!-- 1 -->
<g id="node3" class="node"><title>1</title>
<ellipse style="fill:none;stroke:black;" cx="114" cy="-26" rx="18" ry="18"/>
<ellipse style="fill:none;stroke:black;" cx="114" cy="-26" rx="22" ry="22"/>
<text text-anchor="middle" x="114" y="-21.9" style="font-family:Times New Roman;font-size:14.00;">1</text>
</g>
<!-- dot_dummyinit_1&#45;&gt;1 -->
<g id="edge2" class="edge"><title>dot_dummyinit_1&#45;&gt;1</title>
<path style="fill:none;stroke:black;" d="M54,-26C63,-26 72,-26 82,-26"/>
<polygon style="fill:black;stroke:black;" points="82,-29.5001 92,-26 82,-22.5001 82,-29.5001"/>
</g>
<!-- 2 -->
<g id="node4" class="node"><title>2</title>
<ellipse style="fill:none;stroke:black;" cx="242" cy="-54" rx="18" ry="18"/>
<ellipse style="fill:none;stroke:black;" cx="242" cy="-54" rx="22" ry="22"/>
<text text-anchor="middle" x="242" y="-49.9" style="font-family:Times New Roman;font-size:14.00;">2</text>
</g>
<!-- 1&#45;&gt;2 -->
<g id="edge4" class="edge"><title>1&#45;&gt;2</title>
<path style="fill:none;stroke:black;" d="M134,-36C140,-39 147,-42 154,-44 172,-49 193,-51 210,-52"/>
<polygon style="fill:black;stroke:black;" points="209.701,-55.4875 220,-53 210.398,-48.5222 209.701,-55.4875"/>
<text text-anchor="middle" x="178" y="-53.9" style="font-family:Times New Roman;font-size:14.00;">A_wait</text>
</g>
<!-- 2&#45;&gt;1 -->
<g id="edge8" class="edge"><title>2&#45;&gt;1</title>
<path style="fill:none;stroke:black;" d="M227,-37C220,-30 212,-24 202,-20 184,-13 163,-14 145,-18"/>
<polygon style="fill:black;stroke:black;" points="144.119,-14.6067 135,-20 145.492,-21.4708 144.119,-14.6067"/>
<text text-anchor="middle" x="178" y="-23.9" style="font-family:Times New Roman;font-size:14.00;">A_stp</text>
</g>
<!-- 3 -->
<g id="node5" class="node"><title>3</title>
<ellipse style="fill:none;stroke:black;" cx="372" cy="-54" rx="18" ry="18"/>
<ellipse style="fill:none;stroke:black;" cx="372" cy="-54" rx="22" ry="22"/>
<text text-anchor="middle" x="372" y="-49.9" style="font-family:Times New Roman;font-size:14.00;">3</text>
</g>
<!-- 2&#45;&gt;3 -->
<g id="edge6" class="edge"><title>2&#45;&gt;3</title>
<path style="fill:none;stroke:black;" d="M264,-54C285,-54 316,-54 340,-54"/>
<polygon style="fill:black;stroke:black;" points="340,-57.5001 350,-54 340,-50.5001 340,-57.5001"/>
<text text-anchor="middle" x="307" y="-57.9" style="font-family:Times New Roman;font-size:14.00;">A_do</text>
</g>
<!-- 4 -->
<g id="node6" class="node"><title>4</title>
<ellipse style="fill:none;stroke:black;" cx="502" cy="-26" rx="18" ry="18"/>
<ellipse style="fill:none;stroke:black;" cx="502" cy="-26" rx="22" ry="22"/>
<text text-anchor="middle" x="502" y="-21.9" style="font-family:Times New Roman;font-size:14.00;">4</text>
</g>
<!-- 3&#45;&gt;4 -->
<g id="edge10" class="edge"><title>3&#45;&gt;4</title>
<path style="fill:none;stroke:black;" d="M394,-53C413,-52 440,-50 462,-44 466,-43 469,-42 473,-40"/>
<polygon style="fill:black;stroke:black;" points="474.283,-43.2598 482,-36 471.44,-36.8631 474.283,-43.2598"/>
<text text-anchor="middle" x="437" y="-54.9" style="font-family:Times New Roman;font-size:14.00;">A_req</text>
</g>
<!-- 4&#45;&gt;1 -->
<g id="edge14" class="edge"><title>4&#45;&gt;1</title>
<path style="fill:none;stroke:black;" d="M482,-17C476,-15 469,-13 462,-12 349,8 318,-9 202,-9 181,-8 175,-4 154,-9 150,-10 147,-11 143,-12"/>
<polygon style="fill:black;stroke:black;" points="141.717,-8.74021 134,-16 144.56,-15.1369 141.717,-8.74021"/>
<text text-anchor="middle" x="307" y="-8.9" style="font-family:Times New Roman;font-size:14.00;">A_pack</text>
</g>
<!-- 4&#45;&gt;3 -->
<g id="edge12" class="edge"><title>4&#45;&gt;3</title>
<path style="fill:none;stroke:black;" d="M480,-21C462,-18 434,-15 412,-23 406,-25 400,-28 395,-32"/>
<polygon style="fill:black;stroke:black;" points="392.9,-29.2 387,-38 397.1,-34.8 392.9,-29.2"/>
<text text-anchor="middle" x="437" y="-26.9" style="font-family:Times New Roman;font-size:14.00;">A_nack</text>
</g>
</g>
</svg>
