<?xml version="1.0" encoding="UTF-8" standalone="no"?>
<!DOCTYPE svg PUBLIC "-//W3C//DTD SVG 1.0//EN"
 "http://www.w3.org/TR/2001/REC-SVG-20010904/DTD/svg10.dtd">
<!-- Generated by dot version 2.2 (Tue Sep 13 00:37:56 UTC 2005)
     For user: (msperk) Perk_Sebastian, Betreuer=Moor, mitarb, 01/05    Title: LC_AB    Pages: 1 -->
<svg width="302pt" height="670pt"
 viewBox = "-1 -1 301 669"
 xmlns="http://www.w3.org/2000/svg">
<g id="graph0" class="graph" style="font-family:Times-Roman;font-size:14.00;">
<title>LC_AB</title>
<g id="node1" class="node"><title>dot_dummyinit_1</title>
</g>
<g id="node3" class="node"><title>1</title>
<ellipse cx="119" cy="332" rx="18" ry="18" style="fill:none;stroke:black;"/>
<ellipse cx="119" cy="332" rx="22" ry="22" style="fill:none;stroke:black;"/>
<text text-anchor="middle" x="119" y="337">1</text>
</g>
<g id="edge2" class="edge"><title>dot_dummyinit_1&#45;&gt;1</title>
<path style="fill:none;stroke:black;" d="M59,332C68,332 77,332 87,332"/>
<polygon style="fill:black;stroke:black;" points="87,328 97,332 87,335 87,328"/>
</g>
<g id="node4" class="node"><title>2</title>
<ellipse cx="273" cy="72" rx="18" ry="18" style="fill:none;stroke:black;"/>
<ellipse cx="273" cy="72" rx="22" ry="22" style="fill:none;stroke:black;"/>
<text text-anchor="middle" x="273" y="77">2</text>
</g>
<g id="edge4" class="edge"><title>1&#45;&gt;2</title>
<path style="fill:none;stroke:black;" d="M121,310C125,247 140,69 159,52 183,32 219,43 245,55"/>
<polygon style="fill:black;stroke:black;" points="247,52 254,60 244,58 247,52"/>
<text text-anchor="middle" x="196" y="39">AB_FREE</text>
</g>
<g id="node5" class="node"><title>3</title>
<ellipse cx="273" cy="228" rx="18" ry="18" style="fill:none;stroke:black;"/>
<ellipse cx="273" cy="228" rx="22" ry="22" style="fill:none;stroke:black;"/>
<text text-anchor="middle" x="273" y="233">3</text>
</g>
<g id="edge8" class="edge"><title>1&#45;&gt;3</title>
<path style="fill:none;stroke:black;" d="M123,310C129,278 143,221 159,208 184,190 220,201 245,213"/>
<polygon style="fill:black;stroke:black;" points="246,210 254,217 243,216 246,210"/>
<text text-anchor="middle" x="196" y="196">AB_FULL</text>
</g>
<g id="edge12" class="edge"><title>1&#45;&gt;3</title>
<path style="fill:none;stroke:black;" d="M126,311C132,295 143,273 159,260 172,250 212,240 241,234"/>
<polygon style="fill:black;stroke:black;" points="241,231 251,232 242,237 241,231"/>
<text text-anchor="middle" x="196" y="235">AB_ARRTR</text>
</g>
<g id="node6" class="node"><title>4</title>
<ellipse cx="273" cy="384" rx="18" ry="18" style="fill:none;stroke:black;"/>
<ellipse cx="273" cy="384" rx="22" ry="22" style="fill:none;stroke:black;"/>
<text text-anchor="middle" x="273" y="389">4</text>
</g>
<g id="edge10" class="edge"><title>1&#45;&gt;4</title>
<path style="fill:none;stroke:black;" d="M141,337C164,343 202,353 233,364 237,366 240,367 244,369"/>
<polygon style="fill:black;stroke:black;" points="245,366 253,373 242,372 245,366"/>
<text text-anchor="middle" x="196" y="339">AB_OCC</text>
</g>
<g id="node7" class="node"><title>5</title>
<ellipse cx="273" cy="566" rx="18" ry="18" style="fill:none;stroke:black;"/>
<ellipse cx="273" cy="566" rx="22" ry="22" style="fill:none;stroke:black;"/>
<text text-anchor="middle" x="273" y="571">5</text>
</g>
<g id="edge6" class="edge"><title>1&#45;&gt;5</title>
<path style="fill:none;stroke:black;" d="M120,354C120,358 121,362 121,364 127,393 155,449 159,455 185,491 203,489 233,520 239,526 246,534 252,541"/>
<polygon style="fill:black;stroke:black;" points="255,539 259,549 250,544 255,539"/>
<text text-anchor="middle" x="196" y="450">AB_WAIT</text>
</g>
<g id="edge14" class="edge"><title>2&#45;&gt;1</title>
<path style="fill:none;stroke:black;" d="M251,75C222,80 172,91 159,104 145,119 128,256 122,300"/>
<polygon style="fill:black;stroke:black;" points="125,300 121,310 119,300 125,300"/>
<text text-anchor="middle" x="196" y="77">AB_STP</text>
</g>
<g id="edge16" class="edge"><title>2&#45;&gt;1</title>
<path style="fill:none;stroke:black;" d="M262,92C255,103 245,118 233,129 205,157 184,148 159,179 132,215 139,232 128,276 126,288 125,292 123,300"/>
<polygon style="fill:black;stroke:black;" points="126,301 121,310 120,300 126,301"/>
<text text-anchor="middle" x="196" y="126">AB_FL</text>
</g>
<g id="edge18" class="edge"><title>3&#45;&gt;1</title>
<path style="fill:none;stroke:black;" d="M263,248C256,259 245,274 233,283 208,303 175,316 151,324"/>
<polygon style="fill:black;stroke:black;" points="152,327 141,327 150,321 152,327"/>
<text text-anchor="middle" x="196" y="280">AB_STP</text>
</g>
<g id="edge22" class="edge"><title>4&#45;&gt;1</title>
<path style="fill:none;stroke:black;" d="M251,389C227,394 189,398 159,384 148,379 140,370 133,361"/>
<polygon style="fill:black;stroke:black;" points="130,362 128,352 136,359 130,362"/>
<text text-anchor="middle" x="196" y="381">AB_TR</text>
</g>
<g id="edge20" class="edge"><title>4&#45;&gt;1</title>
<path style="fill:none;stroke:black;" d="M260,402C253,410 243,418 233,422 203,435 187,440 159,422 139,410 129,385 124,364"/>
<polygon style="fill:black;stroke:black;" points="121,364 122,354 127,363 121,364"/>
<text text-anchor="middle" x="196" y="419">AB_STP</text>
</g>
<g id="edge24" class="edge"><title>5&#45;&gt;1</title>
<path style="fill:none;stroke:black;" d="M251,567C225,568 183,564 159,540 135,516 124,416 121,364"/>
<polygon style="fill:black;stroke:black;" points="118,364 120,354 124,364 118,364"/>
<text text-anchor="middle" x="196" y="535">AB_STP</text>
</g>
<g id="edge26" class="edge"><title>5&#45;&gt;1</title>
<path style="fill:none;stroke:black;" d="M254,578C230,592 187,611 159,588 95,537 132,488 123,405 122,395 122,392 121,381 121,375 121,370 120,364"/>
<polygon style="fill:black;stroke:black;" points="117,364 120,354 124,364 117,364"/>
<text text-anchor="middle" x="196" y="585">AB_TR</text>
</g>
<g id="edge28" class="edge"><title>5&#45;&gt;1</title>
<path style="fill:none;stroke:black;" d="M266,587C258,604 253,612 233,621 204,635 185,642 159,621 123,593 127,462 123,415 122,402 122,398 121,384 121,378 121,371 120,364"/>
<polygon style="fill:black;stroke:black;" points="117,364 120,354 124,364 117,364"/>
<text text-anchor="middle" x="196" y="618">AB_FL</text>
</g>
</g>
</svg>
