<?xml version="1.0" encoding="UTF-8" standalone="no"?>
<!DOCTYPE svg PUBLIC "-//W3C//DTD SVG 1.0//EN"
 "http://www.w3.org/TR/2001/REC-SVG-20010904/DTD/svg10.dtd">
<!-- Generated by dot version 2.2 (Tue Sep 13 00:37:56 UTC 2005)
     For user: (msperk) Perk_Sebastian, Betreuer=Moor, mitarb, 01/05    Title: HioSynth(plant_A,spec_A)_F_    Pages: 1 -->
<svg width="732pt" height="272pt"
 viewBox = "-1 -1 731 271"
 xmlns="http://www.w3.org/2000/svg">
<g id="graph0" class="graph" transform = "scale(0.269260)"
 style="font-family:Times-Roman;font-size:14.00;">
<title>HioSynth(plant_A,spec_A)_F_</title>
<g id="node1" class="node"><title>dot_dummyinit_1</title>
</g>
<g id="node3" class="node"><title>1</title>
<ellipse cx="119" cy="149" rx="18" ry="18" style="fill:none;stroke:black;"/>
<ellipse cx="119" cy="149" rx="22" ry="22" style="fill:none;stroke:black;"/>
<text text-anchor="middle" x="119" y="154">1</text>
</g>
<g id="edge2" class="edge"><title>dot_dummyinit_1&#45;&gt;1</title>
<path style="fill:none;stroke:black;" d="M59,149C68,149 77,149 87,149"/>
<polygon style="fill:black;stroke:black;" points="87,145 97,149 87,152 87,145"/>
</g>
<g id="node4" class="node"><title>2</title>
<ellipse cx="2533" cy="414" rx="18" ry="18" style="fill:none;stroke:black;"/>
<ellipse cx="2533" cy="414" rx="22" ry="22" style="fill:none;stroke:black;"/>
<text text-anchor="middle" x="2533" y="419">2</text>
</g>
<g id="edge6" class="edge"><title>1&#45;&gt;2</title>
<path style="fill:none;stroke:black;" d="M128,129C134,114 145,96 159,83 190,57 202,45 242,45 242,45 242,45 2406,45 2447,45 2464,52 2489,83 2544,152 2520,189 2530,275 2531,286 2532,344 2533,382"/>
<polygon style="fill:black;stroke:black;" points="2537,382 2533,392 2530,382 2537,382"/>
<text text-anchor="middle" x="1301" y="42">F_full</text>
</g>
<g id="edge8" class="edge"><title>1&#45;&gt;2</title>
<path style="fill:none;stroke:black;" d="M137,136C160,120 202,97 242,97 242,97 242,97 2406,97 2447,97 2463,105 2489,135 2532,185 2521,211 2530,275 2532,286 2533,344 2533,382"/>
<polygon style="fill:black;stroke:black;" points="2537,382 2533,392 2530,382 2537,382"/>
<text text-anchor="middle" x="1301" y="94">F_arrtl</text>
</g>
<g id="edge10" class="edge"><title>1&#45;&gt;2</title>
<path style="fill:none;stroke:black;" d="M141,149C166,149 207,149 242,149 242,149 242,149 2406,149 2485,149 2513,199 2530,275 2531,281 2532,342 2533,382"/>
<polygon style="fill:black;stroke:black;" points="2537,382 2533,392 2530,382 2537,382"/>
<text text-anchor="middle" x="1301" y="146">F_arrtr</text>
</g>
<g id="node23" class="node"><title>21</title>
<ellipse cx="242" cy="245" rx="21" ry="21" style="fill:none;stroke:black;"/>
<ellipse cx="242" cy="245" rx="25" ry="25" style="fill:none;stroke:black;"/>
<text text-anchor="middle" x="242" y="250">21</text>
</g>
<g id="edge4" class="edge"><title>1&#45;&gt;21</title>
<path style="fill:none;stroke:black;" d="M136,163C157,178 190,205 214,224"/>
<polygon style="fill:black;stroke:black;" points="216,221 222,230 212,227 216,221"/>
<text text-anchor="middle" x="179" y="179">F_wait</text>
</g>
<g id="node7" class="node"><title>5</title>
<ellipse cx="2657" cy="414" rx="18" ry="18" style="fill:none;stroke:black;"/>
<ellipse cx="2657" cy="414" rx="22" ry="22" style="fill:none;stroke:black;"/>
<text text-anchor="middle" x="2657" y="419">5</text>
</g>
<g id="edge12" class="edge"><title>2&#45;&gt;5</title>
<path style="fill:none;stroke:black;" d="M2538,392C2545,360 2561,302 2577,290 2592,280 2603,280 2617,290 2632,302 2644,349 2651,382"/>
<polygon style="fill:black;stroke:black;" points="2654,382 2653,392 2648,383 2654,382"/>
<text text-anchor="middle" x="2597" y="280">F_r</text>
</g>
<g id="edge14" class="edge"><title>2&#45;&gt;5</title>
<path style="fill:none;stroke:black;" d="M2540,393C2546,376 2558,353 2577,342 2593,334 2602,333 2617,342 2633,351 2642,368 2648,383"/>
<polygon style="fill:black;stroke:black;" points="2652,382 2652,393 2645,385 2652,382"/>
<text text-anchor="middle" x="2597" y="333">F_l</text>
</g>
<g id="edge16" class="edge"><title>2&#45;&gt;5</title>
<path style="fill:none;stroke:black;" d="M2553,403C2560,400 2569,396 2577,394 2595,391 2600,390 2617,394 2621,395 2625,396 2629,398"/>
<polygon style="fill:black;stroke:black;" points="2630,395 2638,402 2627,401 2630,395"/>
<text text-anchor="middle" x="2597" y="389">F_stp</text>
</g>
<g id="node5" class="node"><title>3</title>
<ellipse cx="1241" cy="420" rx="18" ry="18" style="fill:none;stroke:black;"/>
<ellipse cx="1241" cy="420" rx="22" ry="22" style="fill:none;stroke:black;"/>
<text text-anchor="middle" x="1241" y="425">3</text>
</g>
<g id="node17" class="node"><title>15</title>
<ellipse cx="1364" cy="420" rx="21" ry="21" style="fill:none;stroke:black;"/>
<ellipse cx="1364" cy="420" rx="25" ry="25" style="fill:none;stroke:black;"/>
<text text-anchor="middle" x="1364" y="425">15</text>
</g>
<g id="edge18" class="edge"><title>3&#45;&gt;15</title>
<path style="fill:none;stroke:black;" d="M1263,420C1282,420 1308,420 1329,420"/>
<polygon style="fill:black;stroke:black;" points="1329,416 1339,420 1329,423 1329,416"/>
<text text-anchor="middle" x="1301" y="417">F_stp</text>
</g>
<g id="node6" class="node"><title>4</title>
<ellipse cx="1731" cy="582" rx="18" ry="18" style="fill:none;stroke:black;"/>
<ellipse cx="1731" cy="582" rx="22" ry="22" style="fill:none;stroke:black;"/>
<text text-anchor="middle" x="1731" y="587">4</text>
</g>
<g id="node21" class="node"><title>19</title>
<ellipse cx="1855" cy="738" rx="21" ry="21" style="fill:none;stroke:black;"/>
<ellipse cx="1855" cy="738" rx="25" ry="25" style="fill:none;stroke:black;"/>
<text text-anchor="middle" x="1855" y="743">19</text>
</g>
<g id="edge20" class="edge"><title>4&#45;&gt;19</title>
<path style="fill:none;stroke:black;" d="M1745,599C1766,626 1807,678 1833,710"/>
<polygon style="fill:black;stroke:black;" points="1836,708 1839,718 1830,712 1836,708"/>
<text text-anchor="middle" x="1791" y="629">F_r</text>
</g>
<g id="node24" class="node"><title>22</title>
<ellipse cx="1855" cy="582" rx="21" ry="21" style="fill:none;stroke:black;"/>
<ellipse cx="1855" cy="582" rx="25" ry="25" style="fill:none;stroke:black;"/>
<text text-anchor="middle" x="1855" y="587">22</text>
</g>
<g id="edge22" class="edge"><title>4&#45;&gt;22</title>
<path style="fill:none;stroke:black;" d="M1753,582C1771,582 1797,582 1819,582"/>
<polygon style="fill:black;stroke:black;" points="1819,578 1829,582 1819,585 1819,578"/>
<text text-anchor="middle" x="1791" y="579">F_stp</text>
</g>
<g id="edge24" class="edge"><title>5&#45;&gt;2</title>
<path style="fill:none;stroke:black;" d="M2635,416C2629,417 2623,417 2617,417 2600,418 2595,418 2577,417 2573,417 2569,417 2565,417"/>
<polygon style="fill:black;stroke:black;" points="2565,420 2555,416 2565,414 2565,420"/>
<text text-anchor="middle" x="2597" y="414">F_wait</text>
</g>
<g id="edge26" class="edge"><title>5&#45;&gt;2</title>
<path style="fill:none;stroke:black;" d="M2639,428C2633,432 2625,436 2617,438 2600,443 2595,443 2577,438 2569,436 2564,435 2559,433"/>
<polygon style="fill:black;stroke:black;" points="2558,436 2550,429 2561,430 2558,436"/>
<text text-anchor="middle" x="2597" y="435">F_full</text>
</g>
<g id="edge28" class="edge"><title>5&#45;&gt;2</title>
<path style="fill:none;stroke:black;" d="M2650,435C2642,450 2636,456 2617,463 2601,470 2594,469 2577,463 2561,457 2552,454 2543,444"/>
<polygon style="fill:black;stroke:black;" points="2540,446 2537,436 2546,442 2540,446"/>
<text text-anchor="middle" x="2597" y="460">F_arrtl</text>
</g>
<g id="edge30" class="edge"><title>5&#45;&gt;2</title>
<path style="fill:none;stroke:black;" d="M2654,436C2644,463 2643,476 2617,489 2602,498 2594,497 2577,489 2555,480 2547,472 2537,446"/>
<polygon style="fill:black;stroke:black;" points="2534,447 2534,436 2540,445 2534,447"/>
<text text-anchor="middle" x="2597" y="486">F_arrtr</text>
</g>
<g id="node8" class="node"><title>6</title>
<ellipse cx="724" cy="321" rx="18" ry="18" style="fill:none;stroke:black;"/>
<ellipse cx="724" cy="321" rx="22" ry="22" style="fill:none;stroke:black;"/>
<text text-anchor="middle" x="724" y="326">6</text>
</g>
<g id="node20" class="node"><title>18</title>
<ellipse cx="598" cy="289" rx="21" ry="21" style="fill:none;stroke:black;"/>
<ellipse cx="598" cy="289" rx="25" ry="25" style="fill:none;stroke:black;"/>
<text text-anchor="middle" x="598" y="294">18</text>
</g>
<g id="edge32" class="edge"><title>6&#45;&gt;18</title>
<path style="fill:none;stroke:black;" d="M702,315C683,311 654,303 632,298"/>
<polygon style="fill:black;stroke:black;" points="631,301 622,295 633,295 631,301"/>
<text text-anchor="middle" x="661" y="298">F_r</text>
</g>
<g id="node22" class="node"><title>20</title>
<ellipse cx="861" cy="321" rx="21" ry="21" style="fill:none;stroke:black;"/>
<ellipse cx="861" cy="321" rx="25" ry="25" style="fill:none;stroke:black;"/>
<text text-anchor="middle" x="861" y="326">20</text>
</g>
<g id="edge34" class="edge"><title>6&#45;&gt;20</title>
<path style="fill:none;stroke:black;" d="M746,321C767,321 799,321 825,321"/>
<polygon style="fill:black;stroke:black;" points="825,317 835,321 825,324 825,317"/>
<text text-anchor="middle" x="792" y="318">F_FULL</text>
</g>
<g id="node9" class="node"><title>7</title>
<ellipse cx="1617" cy="566" rx="18" ry="18" style="fill:none;stroke:black;"/>
<ellipse cx="1617" cy="566" rx="22" ry="22" style="fill:none;stroke:black;"/>
<text text-anchor="middle" x="1617" y="571">7</text>
</g>
<g id="edge36" class="edge"><title>7&#45;&gt;3</title>
<path style="fill:none;stroke:black;" d="M1595,566C1556,566 1471,562 1407,534 1352,510 1296,467 1266,442"/>
<polygon style="fill:black;stroke:black;" points="1263,444 1258,435 1268,439 1263,444"/>
<text text-anchor="middle" x="1427" y="531">F_STP</text>
</g>
<g id="edge38" class="edge"><title>7&#45;&gt;4</title>
<path style="fill:none;stroke:black;" d="M1639,569C1656,572 1680,575 1699,578"/>
<polygon style="fill:black;stroke:black;" points="1699,575 1709,579 1699,581 1699,575"/>
<text text-anchor="middle" x="1674" y="570">F_TR</text>
</g>
<g id="node10" class="node"><title>8</title>
<ellipse cx="1487" cy="516" rx="18" ry="18" style="fill:none;stroke:black;"/>
<ellipse cx="1487" cy="516" rx="22" ry="22" style="fill:none;stroke:black;"/>
<text text-anchor="middle" x="1487" y="521">8</text>
</g>
<g id="edge40" class="edge"><title>8&#45;&gt;7</title>
<path style="fill:none;stroke:black;" d="M1508,524C1529,532 1563,545 1587,554"/>
<polygon style="fill:black;stroke:black;" points="1588,551 1596,558 1585,557 1588,551"/>
<text text-anchor="middle" x="1552" y="530">F_WAIT</text>
</g>
<g id="node11" class="node"><title>9</title>
<ellipse cx="375" cy="289" rx="18" ry="18" style="fill:none;stroke:black;"/>
<ellipse cx="375" cy="289" rx="22" ry="22" style="fill:none;stroke:black;"/>
<text text-anchor="middle" x="375" y="294">9</text>
</g>
<g id="node25" class="node"><title>23</title>
<ellipse cx="2533" cy="913" rx="21" ry="21" style="fill:none;stroke:black;"/>
<ellipse cx="2533" cy="913" rx="25" ry="25" style="fill:none;stroke:black;"/>
<text text-anchor="middle" x="2533" y="918">23</text>
</g>
<g id="edge42" class="edge"><title>9&#45;&gt;23</title>
<path style="fill:none;stroke:black;" d="M377,311C385,424 427,932 491,932 491,932 491,932 2406,932 2438,932 2472,927 2498,921"/>
<polygon style="fill:black;stroke:black;" points="2498,918 2508,919 2499,924 2498,918"/>
<text text-anchor="middle" x="1427" y="929">F_STP</text>
</g>
<g id="node28" class="node"><title>26</title>
<ellipse cx="491" cy="289" rx="21" ry="21" style="fill:none;stroke:black;"/>
<ellipse cx="491" cy="289" rx="25" ry="25" style="fill:none;stroke:black;"/>
<text text-anchor="middle" x="491" y="294">26</text>
</g>
<g id="edge44" class="edge"><title>9&#45;&gt;26</title>
<path style="fill:none;stroke:black;" d="M397,289C413,289 436,289 455,289"/>
<polygon style="fill:black;stroke:black;" points="455,285 465,289 455,292 455,285"/>
<text text-anchor="middle" x="431" y="286">F_FL</text>
</g>
<g id="node12" class="node"><title>10</title>
<ellipse cx="2210" cy="878" rx="21" ry="21" style="fill:none;stroke:black;"/>
<ellipse cx="2210" cy="878" rx="25" ry="25" style="fill:none;stroke:black;"/>
<text text-anchor="middle" x="2210" y="883">10</text>
</g>
<g id="edge46" class="edge"><title>10&#45;&gt;23</title>
<path style="fill:none;stroke:black;" d="M2235,881C2292,887 2431,902 2497,909"/>
<polygon style="fill:black;stroke:black;" points="2497,906 2507,910 2497,912 2497,906"/>
<text text-anchor="middle" x="2343" y="886">F_STP</text>
</g>
<g id="node13" class="node"><title>11</title>
<ellipse cx="724" cy="398" rx="20" ry="20" style="fill:none;stroke:black;"/>
<ellipse cx="724" cy="398" rx="24" ry="24" style="fill:none;stroke:black;"/>
<text text-anchor="middle" x="724" y="403">11</text>
</g>
<g id="node29" class="node"><title>27</title>
<ellipse cx="930" cy="418" rx="21" ry="21" style="fill:none;stroke:black;"/>
<ellipse cx="930" cy="418" rx="25" ry="25" style="fill:none;stroke:black;"/>
<text text-anchor="middle" x="930" y="423">27</text>
</g>
<g id="edge48" class="edge"><title>11&#45;&gt;27</title>
<path style="fill:none;stroke:black;" d="M748,400C785,404 853,411 895,415"/>
<polygon style="fill:black;stroke:black;" points="895,412 905,416 895,418 895,412"/>
<text text-anchor="middle" x="792" y="400">F_FULL</text>
</g>
<g id="node14" class="node"><title>12</title>
<ellipse cx="1982" cy="767" rx="21" ry="21" style="fill:none;stroke:black;"/>
<ellipse cx="1982" cy="767" rx="25" ry="25" style="fill:none;stroke:black;"/>
<text text-anchor="middle" x="1982" y="772">12</text>
</g>
<g id="edge50" class="edge"><title>12&#45;&gt;19</title>
<path style="fill:none;stroke:black;" d="M1964,784C1957,789 1948,795 1939,798 1923,803 1915,806 1899,798 1887,792 1878,780 1870,770"/>
<polygon style="fill:black;stroke:black;" points="1867,771 1865,761 1873,768 1867,771"/>
<text text-anchor="middle" x="1919" y="792">F_r</text>
</g>
<g id="node27" class="node"><title>25</title>
<ellipse cx="2136" cy="768" rx="21" ry="21" style="fill:none;stroke:black;"/>
<ellipse cx="2136" cy="768" rx="25" ry="25" style="fill:none;stroke:black;"/>
<text text-anchor="middle" x="2136" y="773">25</text>
</g>
<g id="edge52" class="edge"><title>12&#45;&gt;25</title>
<path style="fill:none;stroke:black;" d="M2007,767C2033,767 2071,767 2100,768"/>
<polygon style="fill:black;stroke:black;" points="2100,764 2110,768 2100,771 2100,764"/>
<text text-anchor="middle" x="2056" y="764">F_ARRTR</text>
</g>
<g id="node15" class="node"><title>13</title>
<ellipse cx="2056" cy="866" rx="21" ry="21" style="fill:none;stroke:black;"/>
<ellipse cx="2056" cy="866" rx="25" ry="25" style="fill:none;stroke:black;"/>
<text text-anchor="middle" x="2056" y="871">13</text>
</g>
<g id="edge54" class="edge"><title>13&#45;&gt;10</title>
<path style="fill:none;stroke:black;" d="M2081,868C2107,870 2146,873 2175,875"/>
<polygon style="fill:black;stroke:black;" points="2175,872 2185,876 2175,878 2175,872"/>
<text text-anchor="middle" x="2136" y="866">F_ARRTR</text>
</g>
<g id="node16" class="node"><title>14</title>
<ellipse cx="998" cy="321" rx="21" ry="21" style="fill:none;stroke:black;"/>
<ellipse cx="998" cy="321" rx="25" ry="25" style="fill:none;stroke:black;"/>
<text text-anchor="middle" x="998" y="326">14</text>
</g>
<g id="node18" class="node"><title>16</title>
<ellipse cx="1124" cy="330" rx="21" ry="21" style="fill:none;stroke:black;"/>
<ellipse cx="1124" cy="330" rx="25" ry="25" style="fill:none;stroke:black;"/>
<text text-anchor="middle" x="1124" y="335">16</text>
</g>
<g id="edge56" class="edge"><title>14&#45;&gt;16</title>
<path style="fill:none;stroke:black;" d="M1020,333C1027,336 1034,339 1041,340 1057,343 1075,342 1090,339"/>
<polygon style="fill:black;stroke:black;" points="1090,336 1100,337 1091,342 1090,336"/>
<text text-anchor="middle" x="1061" y="337">F_r</text>
</g>
<g id="edge60" class="edge"><title>15&#45;&gt;2</title>
<path style="fill:none;stroke:black;" d="M1385,433C1409,447 1450,466 1487,466 1487,466 1487,466 1855,466 2138,466 2212,480 2489,428 2493,427 2498,427 2502,425"/>
<polygon style="fill:black;stroke:black;" points="2501,422 2512,422 2503,428 2501,422"/>
<text text-anchor="middle" x="1919" y="465">F_full</text>
</g>
<g id="edge62" class="edge"><title>15&#45;&gt;2</title>
<path style="fill:none;stroke:black;" d="M1386,407C1410,394 1450,376 1487,376 1487,376 1487,376 1731,376 1843,376 1871,362 1982,362 1982,362 1982,362 2406,362 2443,362 2481,381 2506,396"/>
<polygon style="fill:black;stroke:black;" points="2508,393 2515,401 2505,399 2508,393"/>
<text text-anchor="middle" x="1919" y="361">F_arrtl</text>
</g>
<g id="edge64" class="edge"><title>15&#45;&gt;2</title>
<path style="fill:none;stroke:black;" d="M1389,418C1414,416 1453,414 1487,414 1487,414 1487,414 2406,414 2439,414 2475,414 2501,414"/>
<polygon style="fill:black;stroke:black;" points="2501,410 2511,414 2501,417 2501,410"/>
<text text-anchor="middle" x="1919" y="411">F_arrtr</text>
</g>
<g id="edge58" class="edge"><title>15&#45;&gt;8</title>
<path style="fill:none;stroke:black;" d="M1372,444C1379,461 1390,483 1407,496 1421,507 1439,512 1455,514"/>
<polygon style="fill:black;stroke:black;" points="1455,511 1465,515 1455,517 1455,511"/>
<text text-anchor="middle" x="1427" y="493">F_wait</text>
</g>
<g id="edge70" class="edge"><title>16&#45;&gt;2</title>
<path style="fill:none;stroke:black;" d="M1149,330C1173,330 1209,330 1241,330 1241,330 1241,330 1731,330 1843,330 1871,318 1982,318 1982,318 1982,318 2406,318 2467,318 2493,338 2523,383"/>
<polygon style="fill:black;stroke:black;" points="2526,382 2528,392 2520,385 2526,382"/>
<text text-anchor="middle" x="1791" y="326">F_arrtl</text>
</g>
<g id="edge72" class="edge"><title>16&#45;&gt;2</title>
<path style="fill:none;stroke:black;" d="M1146,318C1170,306 1207,291 1241,291 1241,291 1241,291 1487,291 1651,291 1692,278 1855,278 1855,278 1855,278 2406,278 2448,278 2459,293 2489,320 2512,341 2518,350 2529,382"/>
<polygon style="fill:black;stroke:black;" points="2532,381 2532,392 2526,383 2532,381"/>
<text text-anchor="middle" x="1791" y="277">F_arrtr</text>
</g>
<g id="edge68" class="edge"><title>16&#45;&gt;3</title>
<path style="fill:none;stroke:black;" d="M1144,345C1163,360 1194,384 1215,400"/>
<polygon style="fill:black;stroke:black;" points="1217,397 1223,406 1213,403 1217,397"/>
<text text-anchor="middle" x="1184" y="362">F_full</text>
</g>
<g id="edge66" class="edge"><title>16&#45;&gt;14</title>
<path style="fill:none;stroke:black;" d="M1099,324C1093,322 1087,321 1081,320 1066,318 1048,318 1033,319"/>
<polygon style="fill:black;stroke:black;" points="1033,322 1023,319 1033,315 1033,322"/>
<text text-anchor="middle" x="1061" y="316">F_wait</text>
</g>
<g id="node19" class="node"><title>17</title>
<ellipse cx="2406" cy="796" rx="20" ry="20" style="fill:none;stroke:black;"/>
<ellipse cx="2406" cy="796" rx="24" ry="24" style="fill:none;stroke:black;"/>
<text text-anchor="middle" x="2406" y="801">17</text>
</g>
<g id="edge76" class="edge"><title>17&#45;&gt;2</title>
<path style="fill:none;stroke:black;" d="M2428,785C2447,774 2475,754 2489,730 2518,682 2528,516 2532,446"/>
<polygon style="fill:black;stroke:black;" points="2529,446 2532,436 2536,446 2529,446"/>
<text text-anchor="middle" x="2469" y="727">F_full</text>
</g>
<g id="edge78" class="edge"><title>17&#45;&gt;2</title>
<path style="fill:none;stroke:black;" d="M2430,802C2448,805 2473,806 2489,792 2539,749 2527,563 2530,496 2532,480 2532,462 2533,446"/>
<polygon style="fill:black;stroke:black;" points="2530,446 2533,436 2537,446 2530,446"/>
<text text-anchor="middle" x="2469" y="789">F_arrtl</text>
</g>
<g id="edge80" class="edge"><title>17&#45;&gt;23</title>
<path style="fill:none;stroke:black;" d="M2424,813C2446,833 2481,866 2506,888"/>
<polygon style="fill:black;stroke:black;" points="2509,886 2514,895 2504,891 2509,886"/>
<text text-anchor="middle" x="2469" y="833">F_arrtr</text>
</g>
<g id="node26" class="node"><title>24</title>
<ellipse cx="2279" cy="768" rx="21" ry="21" style="fill:none;stroke:black;"/>
<ellipse cx="2279" cy="768" rx="25" ry="25" style="fill:none;stroke:black;"/>
<text text-anchor="middle" x="2279" y="773">24</text>
</g>
<g id="edge74" class="edge"><title>17&#45;&gt;24</title>
<path style="fill:none;stroke:black;" d="M2382,791C2362,787 2336,781 2314,776"/>
<polygon style="fill:black;stroke:black;" points="2313,779 2304,774 2314,773 2313,779"/>
<text text-anchor="middle" x="2343" y="774">F_wait</text>
</g>
<g id="edge86" class="edge"><title>18&#45;&gt;2</title>
<path style="fill:none;stroke:black;" d="M610,267C618,255 629,241 641,231 673,206 684,195 724,195 724,195 724,195 1241,195 1380,195 1414,193 1552,193 1552,193 1552,193 2406,193 2445,193 2463,192 2489,220 2539,273 2518,306 2530,377 2530,379 2531,380 2531,382"/>
<polygon style="fill:black;stroke:black;" points="2534,382 2532,392 2528,382 2534,382"/>
<text text-anchor="middle" x="1552" y="190">F_arrtl</text>
</g>
<g id="edge88" class="edge"><title>18&#45;&gt;2</title>
<path style="fill:none;stroke:black;" d="M620,276C645,263 686,245 724,245 724,245 724,245 1487,245 1651,245 1692,234 1855,234 1855,234 1855,234 2406,234 2480,234 2490,288 2521,354 2524,360 2525,362 2527,367 2529,372 2530,373 2530,377 2530,378 2531,380 2531,382"/>
<polygon style="fill:black;stroke:black;" points="2534,382 2532,392 2528,382 2534,382"/>
<text text-anchor="middle" x="1552" y="242">F_arrtr</text>
</g>
<g id="edge82" class="edge"><title>18&#45;&gt;6</title>
<path style="fill:none;stroke:black;" d="M610,312C617,321 625,326 641,331 658,338 677,335 693,332"/>
<polygon style="fill:black;stroke:black;" points="692,329 703,329 694,335 692,329"/>
<text text-anchor="middle" x="661" y="328">F_wait</text>
</g>
<g id="edge84" class="edge"><title>18&#45;&gt;11</title>
<path style="fill:none;stroke:black;" d="M601,314C612,337 621,341 641,357 657,369 676,378 692,385"/>
<polygon style="fill:black;stroke:black;" points="693,382 701,389 690,388 693,382"/>
<text text-anchor="middle" x="661" y="354">F_full</text>
</g>
<g id="edge92" class="edge"><title>19&#45;&gt;2</title>
<path style="fill:none;stroke:black;" d="M1873,721C1881,714 1890,707 1899,702 2141,584 2272,727 2489,568 2517,548 2517,533 2524,499 2528,483 2529,479 2530,462 2531,457 2531,452 2532,446"/>
<polygon style="fill:black;stroke:black;" points="2529,446 2532,436 2536,446 2529,446"/>
<text text-anchor="middle" x="2210" y="648">F_full</text>
</g>
<g id="edge94" class="edge"><title>19&#45;&gt;2</title>
<path style="fill:none;stroke:black;" d="M1880,733C1886,732 1893,730 1899,729 2136,685 2207,718 2431,633 2459,623 2470,623 2489,601 2515,573 2514,559 2521,521 2526,499 2528,494 2530,471 2531,463 2531,455 2532,446"/>
<polygon style="fill:black;stroke:black;" points="2529,446 2533,436 2535,446 2529,446"/>
<text text-anchor="middle" x="2210" y="687">F_arrtl</text>
</g>
<g id="edge90" class="edge"><title>19&#45;&gt;12</title>
<path style="fill:none;stroke:black;" d="M1879,744C1899,748 1926,754 1947,759"/>
<polygon style="fill:black;stroke:black;" points="1948,756 1957,761 1947,762 1948,756"/>
<text text-anchor="middle" x="1919" y="746">F_wait</text>
</g>
<g id="edge96" class="edge"><title>19&#45;&gt;13</title>
<path style="fill:none;stroke:black;" d="M1856,763C1856,766 1857,769 1857,770 1868,797 1875,805 1899,822 1937,846 1987,857 2021,862"/>
<polygon style="fill:black;stroke:black;" points="2022,859 2031,864 2021,865 2022,859"/>
<text text-anchor="middle" x="1919" y="816">F_arrtr</text>
</g>
<g id="edge98" class="edge"><title>20&#45;&gt;14</title>
<path style="fill:none;stroke:black;" d="M887,321C909,321 939,321 963,321"/>
<polygon style="fill:black;stroke:black;" points="963,317 973,321 963,324 963,317"/>
<text text-anchor="middle" x="930" y="318">F_STP</text>
</g>
<g id="edge100" class="edge"><title>21&#45;&gt;9</title>
<path style="fill:none;stroke:black;" d="M266,253C288,261 320,271 344,279"/>
<polygon style="fill:black;stroke:black;" points="345,276 354,282 343,282 345,276"/>
<text text-anchor="middle" x="310" y="257">F_WAIT</text>
</g>
<g id="edge104" class="edge"><title>22&#45;&gt;2</title>
<path style="fill:none;stroke:black;" d="M1879,572C1905,563 1946,550 1982,550 1982,550 1982,550 2406,550 2447,550 2461,541 2489,512 2508,494 2519,466 2525,445"/>
<polygon style="fill:black;stroke:black;" points="2522,444 2528,435 2528,446 2522,444"/>
<text text-anchor="middle" x="2210" y="547">F_full</text>
</g>
<g id="edge106" class="edge"><title>22&#45;&gt;2</title>
<path style="fill:none;stroke:black;" d="M1881,584C1943,588 2103,597 2235,588 2323,583 2345,580 2431,564 2458,560 2470,568 2489,550 2525,520 2520,497 2529,446"/>
<polygon style="fill:black;stroke:black;" points="2526,445 2531,436 2532,446 2526,445"/>
<text text-anchor="middle" x="2210" y="585">F_arrtl</text>
</g>
<g id="edge108" class="edge"><title>22&#45;&gt;2</title>
<path style="fill:none;stroke:black;" d="M1869,560C1877,554 1886,552 1899,547 1924,539 1932,542 1957,538 2076,522 2385,527 2489,468 2501,462 2510,452 2517,442"/>
<polygon style="fill:black;stroke:black;" points="2515,439 2523,433 2520,443 2515,439"/>
<text text-anchor="middle" x="2210" y="517">F_arrtr</text>
</g>
<g id="edge102" class="edge"><title>22&#45;&gt;12</title>
<path style="fill:none;stroke:black;" d="M1872,602C1894,629 1934,683 1966,736"/>
<polygon style="fill:black;stroke:black;" points="1969,735 1971,745 1963,738 1969,735"/>
<text text-anchor="middle" x="1919" y="633">F_wait</text>
</g>
<g id="edge110" class="edge"><title>23&#45;&gt;1</title>
<path style="fill:none;stroke:black;" d="M2517,934C2484,968 2460,978 2406,978 242,978 242,978 242,978 160,978 127,334 120,181"/>
<polygon style="fill:black;stroke:black;" points="117,181 120,171 124,181 117,181"/>
<text text-anchor="middle" x="1301" y="975">F_stp</text>
</g>
<g id="edge112" class="edge"><title>24&#45;&gt;17</title>
<path style="fill:none;stroke:black;" d="M2293,790C2301,797 2309,800 2323,805 2339,810 2357,809 2372,806"/>
<polygon style="fill:black;stroke:black;" points="2372,803 2382,804 2373,809 2372,803"/>
<text text-anchor="middle" x="2343" y="799">F_r</text>
</g>
<g id="edge114" class="edge"><title>25&#45;&gt;24</title>
<path style="fill:none;stroke:black;" d="M2162,768C2185,768 2217,768 2243,768"/>
<polygon style="fill:black;stroke:black;" points="2243,764 2253,768 2243,771 2243,764"/>
<text text-anchor="middle" x="2210" y="765">F_STP</text>
</g>
<g id="edge116" class="edge"><title>26&#45;&gt;18</title>
<path style="fill:none;stroke:black;" d="M517,289C531,289 548,289 563,289"/>
<polygon style="fill:black;stroke:black;" points="563,285 573,289 563,292 563,285"/>
<text text-anchor="middle" x="545" y="286">F_r</text>
</g>
<g id="edge118" class="edge"><title>27&#45;&gt;3</title>
<path style="fill:none;stroke:black;" d="M955,418C1011,419 1146,420 1209,420"/>
<polygon style="fill:black;stroke:black;" points="1209,416 1219,420 1209,423 1209,416"/>
<text text-anchor="middle" x="1061" y="417">F_STP</text>
</g>
</g>
</svg>
