<?xml version="1.0" encoding="UTF-8" standalone="no"?>
<!DOCTYPE svg PUBLIC "-//W3C//DTD SVG 1.0//EN"
 "http://www.w3.org/TR/2001/REC-SVG-20010904/DTD/svg10.dtd" [
 <!ATTLIST svg xmlns:xlink CDATA #FIXED "http://www.w3.org/1999/xlink">
]>
<!-- Generated by Graphviz version 2.20.2 (Tue Mar &#160;2 21:46:26 UTC 2010)
     For user: (mtmoor) Prof. Thomas Moor -->
<!-- Title: HioSynth(Transport Unit A,Specification A)||Transport Unit A Pages: 1 -->
<svg width="720pt" height="74pt"
 viewBox="0.00 0.00 720.00 74.09" xmlns="http://www.w3.org/2000/svg" xmlns:xlink="http://www.w3.org/1999/xlink">
<g id="graph0" class="graph" transform="scale(0.521739 0.521739) rotate(0) translate(4 138)">
<title>HioSynth(Transport Unit A,Specification A)||Transport Unit A</title>
<polygon style="fill:white;stroke:white;" points="-4,4 -4,-138 1376,-138 1376,4 -4,4"/>
<!-- dot_dummyinit_1 -->
<g id="node1" class="node"><title>dot_dummyinit_1</title>
</g>
<!-- 1 -->
<g id="node3" class="node"><title>1</title>
<ellipse style="fill:none;stroke:black;" cx="114" cy="-38" rx="18" ry="18"/>
<ellipse style="fill:none;stroke:black;" cx="114" cy="-38" rx="22" ry="22"/>
<text text-anchor="middle" x="114" y="-33.9" style="font-family:Times New Roman;font-size:14.00;">1</text>
</g>
<!-- dot_dummyinit_1&#45;&gt;1 -->
<g id="edge2" class="edge"><title>dot_dummyinit_1&#45;&gt;1</title>
<path style="fill:none;stroke:black;" d="M54,-38C63,-38 72,-38 82,-38"/>
<polygon style="fill:black;stroke:black;" points="82,-41.5001 92,-38 82,-34.5001 82,-41.5001"/>
</g>
<!-- 2 -->
<g id="node4" class="node"><title>2</title>
<ellipse style="fill:none;stroke:black;" cx="256" cy="-88" rx="18" ry="18"/>
<ellipse style="fill:none;stroke:black;" cx="256" cy="-88" rx="22" ry="22"/>
<text text-anchor="middle" x="256" y="-83.9" style="font-family:Times New Roman;font-size:14.00;">2</text>
</g>
<!-- 1&#45;&gt;2 -->
<g id="edge4" class="edge"><title>1&#45;&gt;2</title>
<path style="fill:none;stroke:black;" d="M135,-45C159,-54 198,-68 226,-78"/>
<polygon style="fill:black;stroke:black;" points="224.406,-81.158 235,-81 226.62,-74.5173 224.406,-81.158"/>
<text text-anchor="middle" x="185" y="-75.9" style="font-family:Times New Roman;font-size:14.00;">empty_A</text>
</g>
<!-- 3 -->
<g id="node5" class="node"><title>3</title>
<ellipse style="fill:none;stroke:black;" cx="396" cy="-88" rx="18" ry="18"/>
<ellipse style="fill:none;stroke:black;" cx="396" cy="-88" rx="22" ry="22"/>
<text text-anchor="middle" x="396" y="-83.9" style="font-family:Times New Roman;font-size:14.00;">3</text>
</g>
<!-- 2&#45;&gt;3 -->
<g id="edge6" class="edge"><title>2&#45;&gt;3</title>
<path style="fill:none;stroke:black;" d="M278,-88C302,-88 338,-88 364,-88"/>
<polygon style="fill:black;stroke:black;" points="364,-91.5001 374,-88 364,-84.5001 364,-91.5001"/>
<text text-anchor="middle" x="326" y="-91.9" style="font-family:Times New Roman;font-size:14.00;">idle_A</text>
</g>
<!-- 4 -->
<g id="node6" class="node"><title>4</title>
<ellipse style="fill:none;stroke:black;" cx="524" cy="-112" rx="18" ry="18"/>
<ellipse style="fill:none;stroke:black;" cx="524" cy="-112" rx="22" ry="22"/>
<text text-anchor="middle" x="524" y="-107.9" style="font-family:Times New Roman;font-size:14.00;">4</text>
</g>
<!-- 3&#45;&gt;4 -->
<g id="edge8" class="edge"><title>3&#45;&gt;4</title>
<path style="fill:none;stroke:black;" d="M418,-92C438,-96 469,-102 492,-106"/>
<polygon style="fill:black;stroke:black;" points="491.508,-109.471 502,-108 492.881,-102.607 491.508,-109.471"/>
<text text-anchor="middle" x="460" y="-106.9" style="font-family:Times New Roman;font-size:14.00;">l2r_A</text>
</g>
<!-- 5 -->
<g id="node7" class="node"><title>5</title>
<ellipse style="fill:none;stroke:black;" cx="524" cy="-50" rx="18" ry="18"/>
<ellipse style="fill:none;stroke:black;" cx="524" cy="-50" rx="22" ry="22"/>
<text text-anchor="middle" x="524" y="-45.9" style="font-family:Times New Roman;font-size:14.00;">5</text>
</g>
<!-- 3&#45;&gt;5 -->
<g id="edge10" class="edge"><title>3&#45;&gt;5</title>
<path style="fill:none;stroke:black;" d="M417,-80C423,-78 430,-76 436,-74 455,-67 475,-62 492,-58"/>
<polygon style="fill:black;stroke:black;" points="493.427,-61.2259 502,-55 491.416,-54.5212 493.427,-61.2259"/>
<text text-anchor="middle" x="460" y="-77.9" style="font-family:Times New Roman;font-size:14.00;">stby_A</text>
</g>
<!-- 6 -->
<g id="node8" class="node"><title>6</title>
<ellipse style="fill:none;stroke:black;" cx="668" cy="-112" rx="18" ry="18"/>
<ellipse style="fill:none;stroke:black;" cx="668" cy="-112" rx="22" ry="22"/>
<text text-anchor="middle" x="668" y="-107.9" style="font-family:Times New Roman;font-size:14.00;">6</text>
</g>
<!-- 4&#45;&gt;6 -->
<g id="edge12" class="edge"><title>4&#45;&gt;6</title>
<path style="fill:none;stroke:black;" d="M546,-112C570,-112 608,-112 636,-112"/>
<polygon style="fill:black;stroke:black;" points="636,-115.5 646,-112 636,-108.5 636,-115.5"/>
<text text-anchor="middle" x="596" y="-115.9" style="font-family:Times New Roman;font-size:14.00;">take_fl_A</text>
</g>
<!-- 5&#45;&gt;1 -->
<g id="edge14" class="edge"><title>5&#45;&gt;1</title>
<path style="fill:none;stroke:black;" d="M502,-49C433,-47 227,-42 146,-39"/>
<polygon style="fill:black;stroke:black;" points="146,-35.5001 136,-39 146,-42.5001 146,-35.5001"/>
<text text-anchor="middle" x="326" y="-47.9" style="font-family:Times New Roman;font-size:14.00;">no_op_A</text>
</g>
<!-- 7 -->
<g id="node9" class="node"><title>7</title>
<ellipse style="fill:none;stroke:black;" cx="804" cy="-72" rx="18" ry="18"/>
<ellipse style="fill:none;stroke:black;" cx="804" cy="-72" rx="22" ry="22"/>
<text text-anchor="middle" x="804" y="-67.9" style="font-family:Times New Roman;font-size:14.00;">7</text>
</g>
<!-- 6&#45;&gt;7 -->
<g id="edge16" class="edge"><title>6&#45;&gt;7</title>
<path style="fill:none;stroke:black;" d="M690,-108C710,-104 739,-98 764,-90 767,-89 771,-87 774,-86"/>
<polygon style="fill:black;stroke:black;" points="776.015,-88.9636 784,-82 773.415,-82.4643 776.015,-88.9636"/>
<text text-anchor="middle" x="736" y="-105.9" style="font-family:Times New Roman;font-size:14.00;">req_fl_A</text>
</g>
<!-- 7&#45;&gt;6 -->
<g id="edge18" class="edge"><title>7&#45;&gt;6</title>
<path style="fill:none;stroke:black;" d="M783,-66C763,-62 732,-58 708,-69 700,-73 693,-79 687,-85"/>
<polygon style="fill:black;stroke:black;" points="683.951,-83.1694 680,-93 689.219,-87.779 683.951,-83.1694"/>
<text text-anchor="middle" x="736" y="-72.9" style="font-family:Times New Roman;font-size:14.00;">nack_A</text>
</g>
<!-- 8 -->
<g id="node10" class="node"><title>8</title>
<ellipse style="fill:none;stroke:black;" cx="934" cy="-72" rx="18" ry="18"/>
<ellipse style="fill:none;stroke:black;" cx="934" cy="-72" rx="22" ry="22"/>
<text text-anchor="middle" x="934" y="-67.9" style="font-family:Times New Roman;font-size:14.00;">8</text>
</g>
<!-- 7&#45;&gt;8 -->
<g id="edge20" class="edge"><title>7&#45;&gt;8</title>
<path style="fill:none;stroke:black;" d="M826,-72C847,-72 878,-72 902,-72"/>
<polygon style="fill:black;stroke:black;" points="902,-75.5001 912,-72 902,-68.5001 902,-75.5001"/>
<text text-anchor="middle" x="869" y="-75.9" style="font-family:Times New Roman;font-size:14.00;">pack_A</text>
</g>
<!-- 9 -->
<g id="node11" class="node"><title>9</title>
<ellipse style="fill:none;stroke:black;" cx="1052" cy="-72" rx="18" ry="18"/>
<ellipse style="fill:none;stroke:black;" cx="1052" cy="-72" rx="22" ry="22"/>
<text text-anchor="middle" x="1052" y="-67.9" style="font-family:Times New Roman;font-size:14.00;">9</text>
</g>
<!-- 8&#45;&gt;9 -->
<g id="edge22" class="edge"><title>8&#45;&gt;9</title>
<path style="fill:none;stroke:black;" d="M956,-72C974,-72 1000,-72 1020,-72"/>
<polygon style="fill:black;stroke:black;" points="1020,-75.5001 1030,-72 1020,-68.5001 1020,-75.5001"/>
<text text-anchor="middle" x="993" y="-75.9" style="font-family:Times New Roman;font-size:14.00;">full_A</text>
</g>
<!-- 10 -->
<g id="node12" class="node"><title>10</title>
<ellipse style="fill:none;stroke:black;" cx="1195" cy="-72" rx="23.1964" ry="23.1964"/>
<ellipse style="fill:none;stroke:black;" cx="1195" cy="-72" rx="27.1237" ry="27.1237"/>
<text text-anchor="middle" x="1195" y="-67.9" style="font-family:Times New Roman;font-size:14.00;">10</text>
</g>
<!-- 9&#45;&gt;10 -->
<g id="edge24" class="edge"><title>9&#45;&gt;10</title>
<path style="fill:none;stroke:black;" d="M1074,-72C1096,-72 1131,-72 1158,-72"/>
<polygon style="fill:black;stroke:black;" points="1158,-75.5001 1168,-72 1158,-68.5001 1158,-75.5001"/>
<text text-anchor="middle" x="1121" y="-75.9" style="font-family:Times New Roman;font-size:14.00;">del_tr_A</text>
</g>
<!-- 11 -->
<g id="node13" class="node"><title>11</title>
<ellipse style="fill:none;stroke:black;" cx="1345" cy="-33" rx="23.1964" ry="23.1964"/>
<ellipse style="fill:none;stroke:black;" cx="1345" cy="-33" rx="27.1237" ry="27.1237"/>
<text text-anchor="middle" x="1345" y="-28.9" style="font-family:Times New Roman;font-size:14.00;">11</text>
</g>
<!-- 10&#45;&gt;11 -->
<g id="edge26" class="edge"><title>10&#45;&gt;11</title>
<path style="fill:none;stroke:black;" d="M1222,-68C1243,-64 1274,-58 1300,-51 1304,-50 1307,-49 1310,-47"/>
<polygon style="fill:black;stroke:black;" points="1311.43,-50.2259 1320,-44 1309.42,-43.5212 1311.43,-50.2259"/>
<text text-anchor="middle" x="1270" y="-66.9" style="font-family:Times New Roman;font-size:14.00;">req_tr_A</text>
</g>
<!-- 11&#45;&gt;1 -->
<g id="edge30" class="edge"><title>11&#45;&gt;1</title>
<path style="fill:none;stroke:black;" d="M1319,-24C1290,-14 1240,-1 1195,-0 256,-0 256,-0 256,-0 217,-1 172,-15 144,-25"/>
<polygon style="fill:black;stroke:black;" points="141.985,-22.0364 134,-29 144.585,-28.5357 141.985,-22.0364"/>
<text text-anchor="middle" x="736" y="-4.9" style="font-family:Times New Roman;font-size:14.00;">pack_A</text>
</g>
<!-- 11&#45;&gt;10 -->
<g id="edge28" class="edge"><title>11&#45;&gt;10</title>
<path style="fill:none;stroke:black;" d="M1319,-27C1297,-23 1266,-20 1240,-30 1232,-33 1225,-38 1219,-44"/>
<polygon style="fill:black;stroke:black;" points="1216.6,-41.454 1212,-51 1221.55,-46.4038 1216.6,-41.454"/>
<text text-anchor="middle" x="1270" y="-33.9" style="font-family:Times New Roman;font-size:14.00;">nack_A</text>
</g>
</g>
</svg>
