<?xml version="1.0" encoding="UTF-8" standalone="no"?>
<!DOCTYPE svg PUBLIC "-//W3C//DTD SVG 1.0//EN"
 "http://www.w3.org/TR/2001/REC-SVG-20010904/DTD/svg10.dtd" [
 <!ATTLIST svg xmlns:xlink CDATA #FIXED "http://www.w3.org/1999/xlink">
]>
<!-- Generated by Graphviz version 2.20.2 (Tue Mar &#160;2 21:46:26 UTC 2010)
     For user: (mtmoor) Prof. Thomas Moor -->
<!-- Title: HioFreeInput(HioConstraint) Pages: 1 -->
<svg width="456pt" height="172pt"
 viewBox="0.00 0.00 456.00 172.00" xmlns="http://www.w3.org/2000/svg" xmlns:xlink="http://www.w3.org/1999/xlink">
<g id="graph0" class="graph" transform="scale(1 1) rotate(0) translate(4 168)">
<title>HioFreeInput(HioConstraint)</title>
<polygon style="fill:white;stroke:white;" points="-4,4 -4,-168 452,-168 452,4 -4,4"/>
<!-- dot_dummyinit_1 -->
<g id="node1" class="node"><title>dot_dummyinit_1</title>
</g>
<!-- 3 -->
<g id="node3" class="node"><title>3</title>
<ellipse style="fill:none;stroke:black;" cx="114" cy="-62" rx="18" ry="18"/>
<ellipse style="fill:none;stroke:black;" cx="114" cy="-62" rx="22" ry="22"/>
<text text-anchor="middle" x="114" y="-57.9" style="font-family:Times New Roman;font-size:14.00;">3</text>
</g>
<!-- dot_dummyinit_1&#45;&gt;3 -->
<g id="edge2" class="edge"><title>dot_dummyinit_1&#45;&gt;3</title>
<path style="fill:none;stroke:black;" d="M54,-62C63,-62 72,-62 82,-62"/>
<polygon style="fill:black;stroke:black;" points="82,-65.5001 92,-62 82,-58.5001 82,-65.5001"/>
</g>
<!-- Y&#45;Error -->
<g id="node4" class="node"><title>Y&#45;Error</title>
<ellipse style="fill:none;stroke:black;" cx="238" cy="-110" rx="44.014" ry="44.014"/>
<ellipse style="fill:none;stroke:black;" cx="238" cy="-110" rx="47.9728" ry="47.9728"/>
<text text-anchor="middle" x="238" y="-105.9" style="font-family:Times New Roman;font-size:14.00;">Y&#45;Error</text>
</g>
<!-- 3&#45;&gt;Y&#45;Error -->
<g id="edge12" class="edge"><title>3&#45;&gt;Y&#45;Error</title>
<path style="fill:none;stroke:black;" d="M135,-70C148,-75 166,-82 184,-89"/>
<polygon style="fill:black;stroke:black;" points="182.44,-92.1369 193,-93 185.283,-85.7402 182.44,-92.1369"/>
<text text-anchor="middle" x="163" y="-85.9" style="font-family:Times New Roman;font-size:14.00;">y2</text>
</g>
<!-- 4 -->
<g id="node6" class="node"><title>4</title>
<ellipse style="fill:none;stroke:black;" cx="238" cy="-22" rx="18" ry="18"/>
<ellipse style="fill:none;stroke:black;" cx="238" cy="-22" rx="22" ry="22"/>
<text text-anchor="middle" x="238" y="-17.9" style="font-family:Times New Roman;font-size:14.00;">4</text>
</g>
<!-- 3&#45;&gt;4 -->
<g id="edge10" class="edge"><title>3&#45;&gt;4</title>
<path style="fill:none;stroke:black;" d="M135,-55C155,-49 185,-39 207,-32"/>
<polygon style="fill:black;stroke:black;" points="208.427,-35.2259 217,-29 206.416,-28.5212 208.427,-35.2259"/>
<text text-anchor="middle" x="163" y="-50.9" style="font-family:Times New Roman;font-size:14.00;">y1</text>
</g>
<!-- ErrorQY -->
<g id="node5" class="node"><title>ErrorQY</title>
<ellipse style="fill:none;stroke:black;" cx="394" cy="-110" rx="50.0315" ry="50.0315"/>
<ellipse style="fill:none;stroke:black;" cx="394" cy="-110" rx="54.0315" ry="54.0315"/>
<text text-anchor="middle" x="394" y="-105.9" style="font-family:Times New Roman;font-size:14.00;">ErrorQY</text>
</g>
<!-- Y&#45;Error&#45;&gt;ErrorQY -->
<g id="edge4" class="edge"><title>Y&#45;Error&#45;&gt;ErrorQY</title>
<path style="fill:none;stroke:black;" d="M284,-124C291,-125 298,-127 304,-128 313,-129 323,-129 332,-128"/>
<polygon style="fill:black;stroke:black;" points="332.881,-131.393 342,-126 331.508,-124.529 332.881,-131.393"/>
<text text-anchor="middle" x="313" y="-131.9" style="font-family:Times New Roman;font-size:14.00;">u</text>
</g>
<!-- ErrorQY&#45;&gt;Y&#45;Error -->
<g id="edge6" class="edge"><title>ErrorQY&#45;&gt;Y&#45;Error</title>
<path style="fill:none;stroke:black;" d="M340,-104C328,-104 316,-103 304,-104 301,-104 299,-104 296,-104"/>
<polygon style="fill:black;stroke:black;" points="295.602,-100.522 286,-105 296.299,-107.488 295.602,-100.522"/>
<text text-anchor="middle" x="313" y="-107.9" style="font-family:Times New Roman;font-size:14.00;">y1</text>
</g>
<!-- ErrorQY&#45;&gt;Y&#45;Error -->
<g id="edge8" class="edge"><title>ErrorQY&#45;&gt;Y&#45;Error</title>
<path style="fill:none;stroke:black;" d="M346,-84C333,-79 318,-77 304,-80 299,-81 295,-82 291,-84"/>
<polygon style="fill:black;stroke:black;" points="289.573,-80.7741 281,-87 291.584,-87.4788 289.573,-80.7741"/>
<text text-anchor="middle" x="313" y="-83.9" style="font-family:Times New Roman;font-size:14.00;">y2</text>
</g>
<!-- 4&#45;&gt;3 -->
<g id="edge14" class="edge"><title>4&#45;&gt;3</title>
<path style="fill:none;stroke:black;" d="M216,-18C199,-15 174,-14 154,-22 146,-25 140,-30 134,-36"/>
<polygon style="fill:black;stroke:black;" points="130.951,-34.1694 127,-44 136.219,-38.779 130.951,-34.1694"/>
<text text-anchor="middle" x="163" y="-28.9" style="font-family:Times New Roman;font-size:14.00;">u</text>
</g>
</g>
</svg>
