<?xml version="1.0" encoding="UTF-8" standalone="no"?>
<!DOCTYPE svg PUBLIC "-//W3C//DTD SVG 1.0//EN"
 "http://www.w3.org/TR/2001/REC-SVG-20010904/DTD/svg10.dtd">
<!-- Generated by dot version 2.2 (Tue Sep 13 00:37:56 UTC 2005)
     For user: (msperk) Perk_Sebastian, Betreuer=Moor, mitarb, 01/05    Title: Environment ABCD    Pages: 1 -->
<svg width="383pt" height="732pt"
 viewBox = "-1 -1 382 731"
 xmlns="http://www.w3.org/2000/svg">
<g id="graph0" class="graph" transform = "scale(0.408163)"
 style="font-family:Times-Roman;font-size:14.00;">
<title>Environment ABCD</title>
<g id="node1" class="node"><title>dot_dummyinit_1</title>
</g>
<g id="node3" class="node"><title>1</title>
<ellipse cx="119" cy="373" rx="18" ry="18" style="fill:none;stroke:black;"/>
<ellipse cx="119" cy="373" rx="22" ry="22" style="fill:none;stroke:black;"/>
<text text-anchor="middle" x="119" y="378">1</text>
</g>
<g id="edge2" class="edge"><title>dot_dummyinit_1&#45;&gt;1</title>
<path style="fill:none;stroke:black;" d="M59,373C68,373 77,373 87,373"/>
<polygon style="fill:black;stroke:black;" points="87,369 97,373 87,376 87,369"/>
</g>
<g id="node7" class="node"><title>5</title>
<ellipse cx="260" cy="273" rx="18" ry="18" style="fill:none;stroke:black;"/>
<ellipse cx="260" cy="273" rx="22" ry="22" style="fill:none;stroke:black;"/>
<text text-anchor="middle" x="260" y="278">5</text>
</g>
<g id="edge4" class="edge"><title>1&#45;&gt;5</title>
<path style="fill:none;stroke:black;" d="M121,351C125,328 135,293 159,276 179,262 207,263 229,266"/>
<polygon style="fill:black;stroke:black;" points="230,263 239,268 229,269 230,263"/>
<text text-anchor="middle" x="188" y="262">AB_occfl</text>
</g>
<g id="edge6" class="edge"><title>1&#45;&gt;5</title>
<path style="fill:none;stroke:black;" d="M133,355C140,346 149,336 159,328 182,311 192,313 217,299 222,296 228,293 233,290"/>
<polygon style="fill:black;stroke:black;" points="232,287 242,285 235,293 232,287"/>
<text text-anchor="middle" x="188" y="296">AB_accfl</text>
</g>
<g id="node8" class="node"><title>6</title>
<ellipse cx="260" cy="1585" rx="18" ry="18" style="fill:none;stroke:black;"/>
<ellipse cx="260" cy="1585" rx="22" ry="22" style="fill:none;stroke:black;"/>
<text text-anchor="middle" x="260" y="1590">6</text>
</g>
<g id="edge18" class="edge"><title>1&#45;&gt;6</title>
<path style="fill:none;stroke:black;" d="M119,395C120,552 126,1493 159,1542 175,1565 205,1575 228,1580"/>
<polygon style="fill:black;stroke:black;" points="229,1577 238,1582 228,1583 229,1577"/>
<text text-anchor="middle" x="188" y="1532">CD_freetr</text>
</g>
<g id="edge20" class="edge"><title>1&#45;&gt;6</title>
<path style="fill:none;stroke:black;" d="M119,395C119,451 120,599 121,723 122,771 123,1563 159,1596 178,1613 208,1607 231,1599"/>
<polygon style="fill:black;stroke:black;" points="229,1596 240,1595 232,1602 229,1596"/>
<text text-anchor="middle" x="188" y="1588">CD_reltr</text>
</g>
<g id="node9" class="node"><title>7</title>
<ellipse cx="260" cy="192" rx="18" ry="18" style="fill:none;stroke:black;"/>
<ellipse cx="260" cy="192" rx="22" ry="22" style="fill:none;stroke:black;"/>
<text text-anchor="middle" x="260" y="197">7</text>
</g>
<g id="edge12" class="edge"><title>1&#45;&gt;7</title>
<path style="fill:none;stroke:black;" d="M120,351C121,348 121,345 121,342 128,297 128,279 159,245 178,224 208,210 230,202"/>
<polygon style="fill:black;stroke:black;" points="228,199 239,198 231,205 228,199"/>
<text text-anchor="middle" x="188" y="206">AB_reqfl</text>
</g>
<g id="node15" class="node"><title>13</title>
<ellipse cx="585" cy="109" rx="21" ry="21" style="fill:none;stroke:black;"/>
<ellipse cx="585" cy="109" rx="25" ry="25" style="fill:none;stroke:black;"/>
<text text-anchor="middle" x="585" y="114">13</text>
</g>
<g id="edge8" class="edge"><title>1&#45;&gt;13</title>
<path style="fill:none;stroke:black;" d="M120,351C120,343 121,335 121,327 122,321 123,320 123,313 131,260 120,110 159,74 223,18 462,45 541,74 548,77 554,80 560,84"/>
<polygon style="fill:black;stroke:black;" points="563,82 568,91 558,87 563,82"/>
<text text-anchor="middle" x="342" y="40">AB_freetr</text>
</g>
<g id="edge10" class="edge"><title>1&#45;&gt;13</title>
<path style="fill:none;stroke:black;" d="M120,351C120,346 121,341 121,337 124,316 125,311 128,290 135,254 131,151 159,126 217,77 459,96 550,105"/>
<polygon style="fill:black;stroke:black;" points="550,102 560,106 550,108 550,102"/>
<text text-anchor="middle" x="342" y="92">AB_reltr</text>
</g>
<g id="node17" class="node"><title>15</title>
<ellipse cx="585" cy="1691" rx="21" ry="21" style="fill:none;stroke:black;"/>
<ellipse cx="585" cy="1691" rx="25" ry="25" style="fill:none;stroke:black;"/>
<text text-anchor="middle" x="585" y="1696">15</text>
</g>
<g id="edge14" class="edge"><title>1&#45;&gt;15</title>
<path style="fill:none;stroke:black;" d="M119,395C119,453 120,616 121,751 123,1055 117,1132 136,1436 141,1513 103,1556 159,1610 217,1663 459,1683 550,1689"/>
<polygon style="fill:black;stroke:black;" points="550,1686 560,1690 550,1692 550,1686"/>
<text text-anchor="middle" x="342" y="1656">CD_occfl</text>
</g>
<g id="edge16" class="edge"><title>1&#45;&gt;15</title>
<path style="fill:none;stroke:black;" d="M119,395C119,458 120,641 121,794 123,1101 116,1179 138,1486 144,1555 115,1587 159,1641 257,1756 469,1719 551,1700"/>
<polygon style="fill:black;stroke:black;" points="551,1697 561,1698 552,1703 551,1697"/>
<text text-anchor="middle" x="342" y="1710">CD_accfl</text>
</g>
<g id="node23" class="node"><title>21</title>
<ellipse cx="260" cy="554" rx="21" ry="21" style="fill:none;stroke:black;"/>
<ellipse cx="260" cy="554" rx="25" ry="25" style="fill:none;stroke:black;"/>
<text text-anchor="middle" x="260" y="559">21</text>
</g>
<g id="edge22" class="edge"><title>1&#45;&gt;21</title>
<path style="fill:none;stroke:black;" d="M133,391C157,422 209,488 238,526"/>
<polygon style="fill:black;stroke:black;" points="241,524 244,534 235,528 241,524"/>
<text text-anchor="middle" x="188" y="421">CD_reqfl</text>
</g>
<g id="node4" class="node"><title>2</title>
<ellipse cx="746" cy="1185" rx="18" ry="18" style="fill:none;stroke:black;"/>
<ellipse cx="746" cy="1185" rx="22" ry="22" style="fill:none;stroke:black;"/>
<text text-anchor="middle" x="746" y="1190">2</text>
</g>
<g id="node5" class="node"><title>3</title>
<ellipse cx="890" cy="1263" rx="18" ry="18" style="fill:none;stroke:black;"/>
<ellipse cx="890" cy="1263" rx="22" ry="22" style="fill:none;stroke:black;"/>
<text text-anchor="middle" x="890" y="1268">3</text>
</g>
<g id="edge24" class="edge"><title>2&#45;&gt;3</title>
<path style="fill:none;stroke:black;" d="M749,1207C756,1243 770,1312 789,1327 810,1342 825,1339 847,1327 861,1320 871,1306 878,1293"/>
<polygon style="fill:black;stroke:black;" points="875,1292 882,1284 881,1295 875,1292"/>
<text text-anchor="middle" x="818" y="1321">AB_occfl</text>
</g>
<g id="edge26" class="edge"><title>2&#45;&gt;3</title>
<path style="fill:none;stroke:black;" d="M747,1207C748,1209 748,1212 748,1214 758,1278 737,1317 789,1356 810,1371 825,1368 847,1356 874,1341 877,1327 886,1295"/>
<polygon style="fill:black;stroke:black;" points="883,1294 889,1285 889,1296 883,1294"/>
<text text-anchor="middle" x="818" y="1350">AB_accfl</text>
</g>
<g id="edge28" class="edge"><title>2&#45;&gt;3</title>
<path style="fill:none;stroke:black;" d="M765,1173C786,1162 822,1148 847,1165 869,1180 880,1209 885,1231"/>
<polygon style="fill:black;stroke:black;" points="888,1231 887,1241 882,1232 888,1231"/>
<text text-anchor="middle" x="818" y="1152">AB_freetr</text>
</g>
<g id="edge30" class="edge"><title>2&#45;&gt;3</title>
<path style="fill:none;stroke:black;" d="M768,1188C790,1192 823,1201 847,1217 856,1222 864,1229 870,1237"/>
<polygon style="fill:black;stroke:black;" points="873,1235 877,1245 868,1240 873,1235"/>
<text text-anchor="middle" x="818" y="1188">AB_reltr</text>
</g>
<g id="edge32" class="edge"><title>2&#45;&gt;3</title>
<path style="fill:none;stroke:black;" d="M758,1204C765,1215 776,1228 789,1237 810,1250 837,1256 858,1259"/>
<polygon style="fill:black;stroke:black;" points="859,1256 868,1261 858,1262 859,1256"/>
<text text-anchor="middle" x="818" y="1231">AB_reqfl</text>
</g>
<g id="node11" class="node"><title>9</title>
<ellipse cx="890" cy="1520" rx="18" ry="18" style="fill:none;stroke:black;"/>
<ellipse cx="890" cy="1520" rx="22" ry="22" style="fill:none;stroke:black;"/>
<text text-anchor="middle" x="890" y="1525">9</text>
</g>
<g id="edge34" class="edge"><title>2&#45;&gt;9</title>
<path style="fill:none;stroke:black;" d="M747,1207C747,1212 748,1218 748,1223 751,1254 753,1262 759,1293 768,1335 769,1346 789,1385 812,1427 846,1470 868,1496"/>
<polygon style="fill:black;stroke:black;" points="871,1494 875,1504 866,1499 871,1494"/>
<text text-anchor="middle" x="818" y="1376">CD_occfl</text>
</g>
<g id="edge36" class="edge"><title>2&#45;&gt;9</title>
<path style="fill:none;stroke:black;" d="M747,1207C747,1214 748,1221 748,1228 749,1239 750,1241 751,1253 764,1346 776,1471 789,1487 806,1506 835,1515 858,1518"/>
<polygon style="fill:black;stroke:black;" points="858,1515 868,1519 858,1521 858,1515"/>
<text text-anchor="middle" x="818" y="1477">CD_accfl</text>
</g>
<g id="node12" class="node"><title>10</title>
<ellipse cx="890" cy="1003" rx="21" ry="21" style="fill:none;stroke:black;"/>
<ellipse cx="890" cy="1003" rx="25" ry="25" style="fill:none;stroke:black;"/>
<text text-anchor="middle" x="890" y="1008">10</text>
</g>
<g id="edge38" class="edge"><title>2&#45;&gt;10</title>
<path style="fill:none;stroke:black;" d="M747,1163C749,1111 758,982 789,957 809,940 824,946 847,957 856,961 864,967 870,974"/>
<polygon style="fill:black;stroke:black;" points="873,972 876,982 867,976 873,972"/>
<text text-anchor="middle" x="818" y="942">CD_freetr</text>
</g>
<g id="edge40" class="edge"><title>2&#45;&gt;10</title>
<path style="fill:none;stroke:black;" d="M748,1163C753,1120 766,1028 789,1009 807,993 834,993 856,996"/>
<polygon style="fill:black;stroke:black;" points="856,993 866,997 856,999 856,993"/>
<text text-anchor="middle" x="818" y="990">CD_reltr</text>
</g>
<g id="edge42" class="edge"><title>2&#45;&gt;10</title>
<path style="fill:none;stroke:black;" d="M750,1163C761,1118 757,1098 789,1061 809,1038 822,1044 847,1030 851,1028 856,1025 860,1022"/>
<polygon style="fill:black;stroke:black;" points="859,1019 869,1017 862,1025 859,1019"/>
<text text-anchor="middle" x="818" y="1027">CD_reqfl</text>
</g>
<g id="edge44" class="edge"><title>3&#45;&gt;2</title>
<path style="fill:none;stroke:black;" d="M870,1272C848,1281 814,1290 789,1275 777,1267 764,1238 756,1216"/>
<polygon style="fill:black;stroke:black;" points="753,1218 752,1207 759,1215 753,1218"/>
<text text-anchor="middle" x="818" y="1269">AB_nack</text>
</g>
<g id="node6" class="node"><title>4</title>
<ellipse cx="585" cy="717" rx="18" ry="18" style="fill:none;stroke:black;"/>
<ellipse cx="585" cy="717" rx="22" ry="22" style="fill:none;stroke:black;"/>
<text text-anchor="middle" x="585" y="722">4</text>
</g>
<g id="edge46" class="edge"><title>4&#45;&gt;2</title>
<path style="fill:none;stroke:black;" d="M592,738C618,813 705,1066 736,1155"/>
<polygon style="fill:black;stroke:black;" points="739,1153 739,1164 733,1156 739,1153"/>
<text text-anchor="middle" x="666" y="839">AB_pack</text>
</g>
<g id="node10" class="node"><title>8</title>
<ellipse cx="424" cy="219" rx="18" ry="18" style="fill:none;stroke:black;"/>
<ellipse cx="424" cy="219" rx="22" ry="22" style="fill:none;stroke:black;"/>
<text text-anchor="middle" x="424" y="224">8</text>
</g>
<g id="edge48" class="edge"><title>5&#45;&gt;8</title>
<path style="fill:none;stroke:black;" d="M281,266C309,256 360,239 393,229"/>
<polygon style="fill:black;stroke:black;" points="392,226 403,226 394,232 392,226"/>
<text text-anchor="middle" x="342" y="232">ABCD_occfl</text>
</g>
<g id="edge50" class="edge"><title>5&#45;&gt;8</title>
<path style="fill:none;stroke:black;" d="M281,280C306,287 349,295 381,279 399,271 405,262 412,249"/>
<polygon style="fill:black;stroke:black;" points="409,248 416,240 415,251 409,248"/>
<text text-anchor="middle" x="342" y="276">ABCD_accfl</text>
</g>
<g id="node14" class="node"><title>12</title>
<ellipse cx="424" cy="1596" rx="21" ry="21" style="fill:none;stroke:black;"/>
<ellipse cx="424" cy="1596" rx="25" ry="25" style="fill:none;stroke:black;"/>
<text text-anchor="middle" x="424" y="1601">12</text>
</g>
<g id="edge52" class="edge"><title>6&#45;&gt;12</title>
<path style="fill:none;stroke:black;" d="M282,1584C306,1584 347,1584 381,1588 384,1588 386,1589 389,1589"/>
<polygon style="fill:black;stroke:black;" points="390,1586 399,1591 389,1592 390,1586"/>
<text text-anchor="middle" x="342" y="1580">ABCD_freetr</text>
</g>
<g id="edge54" class="edge"><title>6&#45;&gt;12</title>
<path style="fill:none;stroke:black;" d="M278,1597C286,1601 294,1606 303,1608 337,1616 347,1612 381,1608 384,1608 387,1607 390,1606"/>
<polygon style="fill:black;stroke:black;" points="390,1603 400,1604 391,1609 390,1603"/>
<text text-anchor="middle" x="342" y="1602">ABCD_reltr</text>
</g>
<g id="edge56" class="edge"><title>7&#45;&gt;8</title>
<path style="fill:none;stroke:black;" d="M282,196C310,200 359,208 392,213"/>
<polygon style="fill:black;stroke:black;" points="393,210 402,215 392,216 393,210"/>
<text text-anchor="middle" x="342" y="198">ABCD_reqfl</text>
</g>
<g id="edge58" class="edge"><title>8&#45;&gt;13</title>
<path style="fill:none;stroke:black;" d="M445,211C469,201 511,183 541,159 549,153 557,145 563,138"/>
<polygon style="fill:black;stroke:black;" points="561,135 570,130 566,140 561,135"/>
<text text-anchor="middle" x="504" y="156">ABCD_nack</text>
</g>
<g id="node16" class="node"><title>14</title>
<ellipse cx="890" cy="279" rx="21" ry="21" style="fill:none;stroke:black;"/>
<ellipse cx="890" cy="279" rx="25" ry="25" style="fill:none;stroke:black;"/>
<text text-anchor="middle" x="890" y="284">14</text>
</g>
<g id="edge60" class="edge"><title>8&#45;&gt;14</title>
<path style="fill:none;stroke:black;" d="M446,218C522,217 774,214 847,243 854,246 860,250 865,254"/>
<polygon style="fill:black;stroke:black;" points="867,251 873,260 863,257 867,251"/>
<text text-anchor="middle" x="666" y="217">ABCD_pack</text>
</g>
<g id="edge62" class="edge"><title>9&#45;&gt;1</title>
<path style="fill:none;stroke:black;" d="M868,1525C847,1528 814,1531 789,1519 588,1423 589,1320 467,1133 298,871 278,791 159,503 141,459 134,446 124,405"/>
<polygon style="fill:black;stroke:black;" points="121,405 122,395 127,404 121,405"/>
<text text-anchor="middle" x="504" y="1124">CD_pack</text>
</g>
<g id="edge64" class="edge"><title>10&#45;&gt;2</title>
<path style="fill:none;stroke:black;" d="M885,1028C875,1053 868,1061 847,1084 825,1110 815,1111 789,1135 778,1146 769,1149 761,1156"/>
<polygon style="fill:black;stroke:black;" points="763,1159 754,1164 758,1154 763,1159"/>
<text text-anchor="middle" x="818" y="1081">CD_nack</text>
</g>
<g id="node13" class="node"><title>11</title>
<ellipse cx="424" cy="821" rx="20" ry="20" style="fill:none;stroke:black;"/>
<ellipse cx="424" cy="821" rx="24" ry="24" style="fill:none;stroke:black;"/>
<text text-anchor="middle" x="424" y="826">11</text>
</g>
<g id="edge70" class="edge"><title>11&#45;&gt;4</title>
<path style="fill:none;stroke:black;" d="M429,797C438,752 427,725 467,697 494,678 531,690 557,701"/>
<polygon style="fill:black;stroke:black;" points="559,698 566,706 556,704 559,698"/>
<text text-anchor="middle" x="504" y="682">AB_freetr</text>
</g>
<g id="edge72" class="edge"><title>11&#45;&gt;4</title>
<path style="fill:none;stroke:black;" d="M433,798C442,786 451,782 467,772 495,754 530,738 555,729"/>
<polygon style="fill:black;stroke:black;" points="553,726 564,725 556,732 553,726"/>
<text text-anchor="middle" x="504" y="730">AB_reltr</text>
</g>
<g id="node20" class="node"><title>18</title>
<ellipse cx="585" cy="587" rx="21" ry="21" style="fill:none;stroke:black;"/>
<ellipse cx="585" cy="587" rx="25" ry="25" style="fill:none;stroke:black;"/>
<text text-anchor="middle" x="585" y="592">18</text>
</g>
<g id="edge76" class="edge"><title>11&#45;&gt;18</title>
<path style="fill:none;stroke:black;" d="M425,797C427,743 437,619 467,593 490,574 525,574 551,578"/>
<polygon style="fill:black;stroke:black;" points="552,575 561,580 551,581 552,575"/>
<text text-anchor="middle" x="504" y="574">CD_occfl</text>
</g>
<g id="edge78" class="edge"><title>11&#45;&gt;18</title>
<path style="fill:none;stroke:black;" d="M426,797C426,795 426,794 426,792 435,733 430,710 467,665 473,657 522,626 554,605"/>
<polygon style="fill:black;stroke:black;" points="553,602 563,600 556,608 553,602"/>
<text text-anchor="middle" x="504" y="610">CD_accfl</text>
</g>
<g id="node22" class="node"><title>20</title>
<ellipse cx="585" cy="847" rx="21" ry="21" style="fill:none;stroke:black;"/>
<ellipse cx="585" cy="847" rx="25" ry="25" style="fill:none;stroke:black;"/>
<text text-anchor="middle" x="585" y="852">20</text>
</g>
<g id="edge66" class="edge"><title>11&#45;&gt;20</title>
<path style="fill:none;stroke:black;" d="M445,809C452,805 460,802 467,801 500,793 511,788 541,801 550,805 557,811 564,817"/>
<polygon style="fill:black;stroke:black;" points="567,815 571,825 562,820 567,815"/>
<text text-anchor="middle" x="504" y="789">AB_occfl</text>
</g>
<g id="edge68" class="edge"><title>11&#45;&gt;20</title>
<path style="fill:none;stroke:black;" d="M448,825C475,829 518,836 549,841"/>
<polygon style="fill:black;stroke:black;" points="550,838 559,843 549,844 550,838"/>
<text text-anchor="middle" x="504" y="824">AB_accfl</text>
</g>
<g id="edge74" class="edge"><title>11&#45;&gt;20</title>
<path style="fill:none;stroke:black;" d="M439,840C446,848 453,853 467,858 494,867 526,863 550,858"/>
<polygon style="fill:black;stroke:black;" points="549,855 560,855 551,861 549,855"/>
<text text-anchor="middle" x="504" y="852">AB_reqfl</text>
</g>
<g id="node24" class="node"><title>22</title>
<ellipse cx="585" cy="1055" rx="21" ry="21" style="fill:none;stroke:black;"/>
<ellipse cx="585" cy="1055" rx="25" ry="25" style="fill:none;stroke:black;"/>
<text text-anchor="middle" x="585" y="1060">22</text>
</g>
<g id="edge80" class="edge"><title>11&#45;&gt;22</title>
<path style="fill:none;stroke:black;" d="M425,845C425,849 426,853 426,854 441,893 519,983 560,1028"/>
<polygon style="fill:black;stroke:black;" points="563,1026 567,1036 558,1031 563,1026"/>
<text text-anchor="middle" x="504" y="911">CD_freetr</text>
</g>
<g id="edge82" class="edge"><title>11&#45;&gt;22</title>
<path style="fill:none;stroke:black;" d="M425,845C425,849 426,853 426,855 438,931 413,968 467,1024 488,1045 523,1052 549,1054"/>
<polygon style="fill:black;stroke:black;" points="549,1051 559,1055 549,1057 549,1051"/>
<text text-anchor="middle" x="504" y="1018">CD_reltr</text>
</g>
<g id="edge84" class="edge"><title>11&#45;&gt;22</title>
<path style="fill:none;stroke:black;" d="M425,845C425,850 426,854 426,859 431,907 430,1042 467,1073 491,1093 527,1083 553,1072"/>
<polygon style="fill:black;stroke:black;" points="551,1069 562,1068 554,1075 551,1069"/>
<text text-anchor="middle" x="504" y="1067">CD_reqfl</text>
</g>
<g id="edge88" class="edge"><title>12&#45;&gt;9</title>
<path style="fill:none;stroke:black;" d="M449,1595C535,1590 811,1572 847,1557 854,1554 861,1549 867,1544"/>
<polygon style="fill:black;stroke:black;" points="865,1541 875,1537 870,1546 865,1541"/>
<text text-anchor="middle" x="666" y="1572">ABCD_pack</text>
</g>
<g id="edge86" class="edge"><title>12&#45;&gt;15</title>
<path style="fill:none;stroke:black;" d="M447,1606C471,1618 510,1637 541,1657 547,1660 553,1665 558,1669"/>
<polygon style="fill:black;stroke:black;" points="560,1666 566,1675 556,1672 560,1666"/>
<text text-anchor="middle" x="504" y="1611">ABCD_nack</text>
</g>
<g id="edge90" class="edge"><title>13&#45;&gt;1</title>
<path style="fill:none;stroke:black;" d="M560,110C477,114 214,130 159,189 152,197 137,262 128,299 125,317 124,322 121,339 121,340 121,340 121,341"/>
<polygon style="fill:black;stroke:black;" points="124,341 120,351 118,341 124,341"/>
<text text-anchor="middle" x="342" y="124">AB_nack</text>
</g>
<g id="edge92" class="edge"><title>14&#45;&gt;1</title>
<path style="fill:none;stroke:black;" d="M865,276C859,276 853,275 847,275 822,274 815,274 789,275 541,293 246,348 151,367"/>
<polygon style="fill:black;stroke:black;" points="151,370 141,369 150,364 151,370"/>
<text text-anchor="middle" x="504" y="300">AB_pack</text>
</g>
<g id="edge94" class="edge"><title>15&#45;&gt;1</title>
<path style="fill:none;stroke:black;" d="M569,1710C562,1714 554,1714 541,1718 472,1737 453,1735 381,1741 280,1748 223,1767 159,1688 107,1622 144,1584 138,1501 120,1203 123,1128 121,831 120,671 119,481 119,405"/>
<polygon style="fill:black;stroke:black;" points="116,405 119,395 123,405 116,405"/>
<text text-anchor="middle" x="342" y="1738">CD_nack</text>
</g>
<g id="node18" class="node"><title>16</title>
<ellipse cx="746" cy="587" rx="21" ry="21" style="fill:none;stroke:black;"/>
<ellipse cx="746" cy="587" rx="25" ry="25" style="fill:none;stroke:black;"/>
<text text-anchor="middle" x="746" y="592">16</text>
</g>
<g id="edge100" class="edge"><title>16&#45;&gt;14</title>
<path style="fill:none;stroke:black;" d="M747,562C748,559 748,555 748,552 749,544 750,542 751,533 765,453 784,341 789,333 805,311 834,297 856,289"/>
<polygon style="fill:black;stroke:black;" points="855,286 866,286 857,292 855,286"/>
<text text-anchor="middle" x="818" y="292">AB_freetr</text>
</g>
<g id="edge102" class="edge"><title>16&#45;&gt;14</title>
<path style="fill:none;stroke:black;" d="M748,562C748,561 748,559 748,558 753,522 755,512 765,476 772,453 776,426 789,407 809,380 826,385 847,359 864,340 870,329 877,313"/>
<polygon style="fill:black;stroke:black;" points="874,311 881,303 881,314 874,311"/>
<text text-anchor="middle" x="818" y="356">AB_reltr</text>
</g>
<g id="node19" class="node"><title>17</title>
<ellipse cx="890" cy="795" rx="20" ry="20" style="fill:none;stroke:black;"/>
<ellipse cx="890" cy="795" rx="24" ry="24" style="fill:none;stroke:black;"/>
<text text-anchor="middle" x="890" y="800">17</text>
</g>
<g id="edge96" class="edge"><title>16&#45;&gt;17</title>
<path style="fill:none;stroke:black;" d="M749,612C766,649 832,728 867,769"/>
<polygon style="fill:black;stroke:black;" points="870,767 874,777 865,772 870,767"/>
<text text-anchor="middle" x="818" y="667">AB_occfl</text>
</g>
<g id="edge98" class="edge"><title>16&#45;&gt;17</title>
<path style="fill:none;stroke:black;" d="M748,612C748,612 748,613 748,613 760,680 742,712 789,762 806,780 833,788 855,792"/>
<polygon style="fill:black;stroke:black;" points="855,789 865,793 855,795 855,789"/>
<text text-anchor="middle" x="818" y="756">AB_accfl</text>
</g>
<g id="edge104" class="edge"><title>16&#45;&gt;17</title>
<path style="fill:none;stroke:black;" d="M747,612C750,665 759,784 789,809 809,825 837,818 859,810"/>
<polygon style="fill:black;stroke:black;" points="857,807 868,806 860,813 857,807"/>
<text text-anchor="middle" x="818" y="803">AB_reqfl</text>
</g>
<g id="node21" class="node"><title>19</title>
<ellipse cx="890" cy="535" rx="21" ry="21" style="fill:none;stroke:black;"/>
<ellipse cx="890" cy="535" rx="25" ry="25" style="fill:none;stroke:black;"/>
<text text-anchor="middle" x="890" y="540">19</text>
</g>
<g id="edge106" class="edge"><title>16&#45;&gt;19</title>
<path style="fill:none;stroke:black;" d="M760,566C767,557 777,547 789,541 809,532 835,530 855,531"/>
<polygon style="fill:black;stroke:black;" points="855,528 865,532 855,534 855,528"/>
<text text-anchor="middle" x="818" y="529">CD_occfl</text>
</g>
<g id="edge108" class="edge"><title>16&#45;&gt;19</title>
<path style="fill:none;stroke:black;" d="M771,584C792,581 822,575 847,564 852,562 857,560 861,557"/>
<polygon style="fill:black;stroke:black;" points="860,554 870,551 864,559 860,554"/>
<text text-anchor="middle" x="818" y="561">CD_accfl</text>
</g>
<g id="edge110" class="edge"><title>16&#45;&gt;19</title>
<path style="fill:none;stroke:black;" d="M769,597C790,604 822,612 847,601 867,592 874,585 882,569"/>
<polygon style="fill:black;stroke:black;" points="879,568 886,560 885,571 879,568"/>
<text text-anchor="middle" x="818" y="598">CD_freetr</text>
</g>
<g id="edge112" class="edge"><title>16&#45;&gt;19</title>
<path style="fill:none;stroke:black;" d="M758,609C766,617 774,620 789,625 814,632 825,636 847,625 872,612 876,600 886,570"/>
<polygon style="fill:black;stroke:black;" points="883,569 889,560 889,571 883,569"/>
<text text-anchor="middle" x="818" y="619">CD_reltr</text>
</g>
<g id="edge114" class="edge"><title>16&#45;&gt;19</title>
<path style="fill:none;stroke:black;" d="M749,562C760,506 742,472 789,437 810,422 826,423 847,437 869,452 879,478 885,500"/>
<polygon style="fill:black;stroke:black;" points="888,500 887,510 882,501 888,500"/>
<text text-anchor="middle" x="818" y="424">CD_reqfl</text>
</g>
<g id="edge116" class="edge"><title>17&#45;&gt;16</title>
<path style="fill:none;stroke:black;" d="M882,818C873,829 865,832 847,838 823,845 810,853 789,838 754,812 751,690 748,647 748,639 748,631 747,622"/>
<polygon style="fill:black;stroke:black;" points="744,622 747,612 751,622 744,622"/>
<text text-anchor="middle" x="818" y="832">AB_nack</text>
</g>
<g id="edge118" class="edge"><title>18&#45;&gt;16</title>
<path style="fill:none;stroke:black;" d="M610,587C637,587 680,587 711,587"/>
<polygon style="fill:black;stroke:black;" points="711,583 721,587 711,590 711,583"/>
<text text-anchor="middle" x="666" y="584">CD_pack</text>
</g>
<g id="edge120" class="edge"><title>19&#45;&gt;16</title>
<path style="fill:none;stroke:black;" d="M870,520C864,517 858,515 847,512 822,507 812,501 789,512 768,524 762,535 755,553"/>
<polygon style="fill:black;stroke:black;" points="758,554 751,562 752,551 758,554"/>
<text text-anchor="middle" x="818" y="504">CD_nack</text>
</g>
<g id="edge122" class="edge"><title>20&#45;&gt;11</title>
<path style="fill:none;stroke:black;" d="M572,870C564,877 556,879 541,883 510,891 498,895 467,883 449,875 442,867 433,854"/>
<polygon style="fill:black;stroke:black;" points="430,855 428,845 436,852 430,855"/>
<text text-anchor="middle" x="504" y="877">AB_nack</text>
</g>
<g id="edge124" class="edge"><title>21&#45;&gt;11</title>
<path style="fill:none;stroke:black;" d="M273,575C302,623 373,738 406,791"/>
<polygon style="fill:black;stroke:black;" points="409,790 411,800 403,793 409,790"/>
<text text-anchor="middle" x="342" y="621">CD_pack</text>
</g>
<g id="edge126" class="edge"><title>22&#45;&gt;11</title>
<path style="fill:none;stroke:black;" d="M577,1080C568,1092 560,1096 541,1103 510,1113 494,1122 467,1103 427,1073 429,930 426,880 426,872 426,863 425,855"/>
<polygon style="fill:black;stroke:black;" points="422,855 425,845 429,855 422,855"/>
<text text-anchor="middle" x="504" y="1097">CD_nack</text>
</g>
</g>
</svg>
