<?xml version="1.0" encoding="UTF-8" standalone="no"?>
<!DOCTYPE svg PUBLIC "-//W3C//DTD SVG 1.0//EN"
 "http://www.w3.org/TR/2001/REC-SVG-20010904/DTD/svg10.dtd" [
 <!ATTLIST svg xmlns:xlink CDATA #FIXED "http://www.w3.org/1999/xlink">
]>
<!-- Generated by Graphviz version 2.20.2 (Tue Mar &#160;2 21:46:26 UTC 2010)
     For user: (mtmoor) Prof. Thomas Moor -->
<!-- Title: HioSynth(Transport Unit A,Specification A)__E Pages: 1 -->
<svg width="720pt" height="168pt"
 viewBox="0.00 0.00 720.00 168.39" xmlns="http://www.w3.org/2000/svg" xmlns:xlink="http://www.w3.org/1999/xlink">
<g id="graph0" class="graph" transform="scale(0.725806 0.725806) rotate(0) translate(4 228)">
<title>HioSynth(Transport Unit A,Specification A)__E</title>
<polygon style="fill:white;stroke:white;" points="-4,4 -4,-228 988,-228 988,4 -4,4"/>
<!-- dot_dummyinit_1 -->
<g id="node1" class="node"><title>dot_dummyinit_1</title>
</g>
<!-- 1 -->
<g id="node3" class="node"><title>1</title>
<ellipse style="fill:none;stroke:black;" cx="114" cy="-59" rx="18" ry="18"/>
<ellipse style="fill:none;stroke:black;" cx="114" cy="-59" rx="22" ry="22"/>
<text text-anchor="middle" x="114" y="-54.9" style="font-family:Times New Roman;font-size:14.00;">1</text>
</g>
<!-- dot_dummyinit_1&#45;&gt;1 -->
<g id="edge2" class="edge"><title>dot_dummyinit_1&#45;&gt;1</title>
<path style="fill:none;stroke:black;" d="M54,-59C63,-59 72,-59 82,-59"/>
<polygon style="fill:black;stroke:black;" points="82,-62.5001 92,-59 82,-55.5001 82,-62.5001"/>
</g>
<!-- 2 -->
<g id="node4" class="node"><title>2</title>
<ellipse style="fill:none;stroke:black;" cx="818" cy="-141" rx="18" ry="18"/>
<ellipse style="fill:none;stroke:black;" cx="818" cy="-141" rx="22" ry="22"/>
<text text-anchor="middle" x="818" y="-136.9" style="font-family:Times New Roman;font-size:14.00;">2</text>
</g>
<!-- 1&#45;&gt;2 -->
<g id="edge6" class="edge"><title>1&#45;&gt;2</title>
<path style="fill:none;stroke:black;" d="M127,-77C149,-106 199,-162 256,-162 256,-162 256,-162 676,-162 714,-162 758,-154 787,-148"/>
<polygon style="fill:black;stroke:black;" points="787.881,-151.393 797,-146 786.508,-144.529 787.881,-151.393"/>
<text text-anchor="middle" x="463" y="-165.9" style="font-family:Times New Roman;font-size:14.00;">full_A</text>
</g>
<!-- 7 -->
<g id="node9" class="node"><title>7</title>
<ellipse style="fill:none;stroke:black;" cx="256" cy="-89" rx="18" ry="18"/>
<ellipse style="fill:none;stroke:black;" cx="256" cy="-89" rx="22" ry="22"/>
<text text-anchor="middle" x="256" y="-84.9" style="font-family:Times New Roman;font-size:14.00;">7</text>
</g>
<!-- 1&#45;&gt;7 -->
<g id="edge4" class="edge"><title>1&#45;&gt;7</title>
<path style="fill:none;stroke:black;" d="M136,-64C159,-68 197,-77 224,-82"/>
<polygon style="fill:black;stroke:black;" points="223.508,-85.4708 234,-84 224.881,-78.6067 223.508,-85.4708"/>
<text text-anchor="middle" x="185" y="-82.9" style="font-family:Times New Roman;font-size:14.00;">empty_A</text>
</g>
<!-- 6 -->
<g id="node8" class="node"><title>6</title>
<ellipse style="fill:none;stroke:black;" cx="962" cy="-141" rx="18" ry="18"/>
<ellipse style="fill:none;stroke:black;" cx="962" cy="-141" rx="22" ry="22"/>
<text text-anchor="middle" x="962" y="-136.9" style="font-family:Times New Roman;font-size:14.00;">6</text>
</g>
<!-- 2&#45;&gt;6 -->
<g id="edge8" class="edge"><title>2&#45;&gt;6</title>
<path style="fill:none;stroke:black;" d="M826,-161C833,-175 843,-191 858,-199 884,-212 897,-212 922,-199 934,-193 942,-182 949,-171"/>
<polygon style="fill:black;stroke:black;" points="952.203,-172.441 954,-162 946.084,-169.042 952.203,-172.441"/>
<text text-anchor="middle" x="890" y="-211.9" style="font-family:Times New Roman;font-size:14.00;">del_tr_A</text>
</g>
<!-- 2&#45;&gt;6 -->
<g id="edge10" class="edge"><title>2&#45;&gt;6</title>
<path style="fill:none;stroke:black;" d="M838,-151C844,-154 851,-157 858,-159 886,-164 895,-164 922,-159 926,-158 930,-157 933,-155"/>
<polygon style="fill:black;stroke:black;" points="935.015,-157.964 943,-151 932.415,-151.464 935.015,-157.964"/>
<text text-anchor="middle" x="890" y="-165.9" style="font-family:Times New Roman;font-size:14.00;">take_fl_A</text>
</g>
<!-- 2&#45;&gt;6 -->
<g id="edge12" class="edge"><title>2&#45;&gt;6</title>
<path style="fill:none;stroke:black;" d="M840,-137C846,-136 852,-135 858,-135 887,-132 894,-132 922,-135 925,-135 927,-135 930,-135"/>
<polygon style="fill:black;stroke:black;" points="929.508,-138.471 940,-137 930.881,-131.607 929.508,-138.471"/>
<text text-anchor="middle" x="890" y="-138.9" style="font-family:Times New Roman;font-size:14.00;">no_op_E</text>
</g>
<!-- 3 -->
<g id="node5" class="node"><title>3</title>
<ellipse style="fill:none;stroke:black;" cx="818" cy="-50" rx="18" ry="18"/>
<ellipse style="fill:none;stroke:black;" cx="818" cy="-50" rx="22" ry="22"/>
<text text-anchor="middle" x="818" y="-45.9" style="font-family:Times New Roman;font-size:14.00;">3</text>
</g>
<!-- 3&#45;&gt;1 -->
<g id="edge14" class="edge"><title>3&#45;&gt;1</title>
<path style="fill:none;stroke:black;" d="M799,-39C772,-24 722,-1 676,-0 256,-0 256,-0 256,-0 214,-1 169,-24 141,-41"/>
<polygon style="fill:black;stroke:black;" points="139.042,-38.084 132,-46 142.441,-44.2031 139.042,-38.084"/>
<text text-anchor="middle" x="463" y="-3.9" style="font-family:Times New Roman;font-size:14.00;">del_tr_A</text>
</g>
<!-- 4 -->
<g id="node6" class="node"><title>4</title>
<ellipse style="fill:none;stroke:black;" cx="532" cy="-50" rx="18" ry="18"/>
<ellipse style="fill:none;stroke:black;" cx="532" cy="-50" rx="22" ry="22"/>
<text text-anchor="middle" x="532" y="-45.9" style="font-family:Times New Roman;font-size:14.00;">4</text>
</g>
<!-- 4&#45;&gt;1 -->
<g id="edge16" class="edge"><title>4&#45;&gt;1</title>
<path style="fill:none;stroke:black;" d="M510,-51C441,-52 228,-57 146,-59"/>
<polygon style="fill:black;stroke:black;" points="146,-55.5001 136,-59 146,-62.5001 146,-55.5001"/>
<text text-anchor="middle" x="325" y="-57.9" style="font-family:Times New Roman;font-size:14.00;">no_op_E</text>
</g>
<!-- 5 -->
<g id="node7" class="node"><title>5</title>
<ellipse style="fill:none;stroke:black;" cx="532" cy="-112" rx="18" ry="18"/>
<ellipse style="fill:none;stroke:black;" cx="532" cy="-112" rx="22" ry="22"/>
<text text-anchor="middle" x="532" y="-107.9" style="font-family:Times New Roman;font-size:14.00;">5</text>
</g>
<!-- 9 -->
<g id="node11" class="node"><title>9</title>
<ellipse style="fill:none;stroke:black;" cx="676" cy="-112" rx="18" ry="18"/>
<ellipse style="fill:none;stroke:black;" cx="676" cy="-112" rx="22" ry="22"/>
<text text-anchor="middle" x="676" y="-107.9" style="font-family:Times New Roman;font-size:14.00;">9</text>
</g>
<!-- 5&#45;&gt;9 -->
<g id="edge18" class="edge"><title>5&#45;&gt;9</title>
<path style="fill:none;stroke:black;" d="M554,-112C578,-112 616,-112 644,-112"/>
<polygon style="fill:black;stroke:black;" points="644,-115.5 654,-112 644,-108.5 644,-115.5"/>
<text text-anchor="middle" x="604" y="-115.9" style="font-family:Times New Roman;font-size:14.00;">take_fl_A</text>
</g>
<!-- 6&#45;&gt;2 -->
<g id="edge22" class="edge"><title>6&#45;&gt;2</title>
<path style="fill:none;stroke:black;" d="M946,-125C940,-120 931,-114 922,-111 896,-102 885,-102 858,-111 852,-113 847,-116 842,-119"/>
<polygon style="fill:black;stroke:black;" points="839.9,-116.2 834,-125 844.1,-121.8 839.9,-116.2"/>
<text text-anchor="middle" x="890" y="-114.9" style="font-family:Times New Roman;font-size:14.00;">full_A</text>
</g>
<!-- 6&#45;&gt;2 -->
<g id="edge20" class="edge"><title>6&#45;&gt;2</title>
<path style="fill:none;stroke:black;" d="M958,-119C953,-100 942,-74 922,-62 898,-47 883,-47 858,-62 849,-67 838,-91 830,-111"/>
<polygon style="fill:black;stroke:black;" points="826.863,-109.44 826,-120 833.26,-112.283 826.863,-109.44"/>
<text text-anchor="middle" x="890" y="-65.9" style="font-family:Times New Roman;font-size:14.00;">empty_A</text>
</g>
<!-- 8 -->
<g id="node10" class="node"><title>8</title>
<ellipse style="fill:none;stroke:black;" cx="394" cy="-89" rx="18" ry="18"/>
<ellipse style="fill:none;stroke:black;" cx="394" cy="-89" rx="22" ry="22"/>
<text text-anchor="middle" x="394" y="-84.9" style="font-family:Times New Roman;font-size:14.00;">8</text>
</g>
<!-- 7&#45;&gt;8 -->
<g id="edge24" class="edge"><title>7&#45;&gt;8</title>
<path style="fill:none;stroke:black;" d="M278,-89C301,-89 336,-89 362,-89"/>
<polygon style="fill:black;stroke:black;" points="362,-92.5001 372,-89 362,-85.5001 362,-92.5001"/>
<text text-anchor="middle" x="325" y="-92.9" style="font-family:Times New Roman;font-size:14.00;">idle_A</text>
</g>
<!-- 8&#45;&gt;4 -->
<g id="edge28" class="edge"><title>8&#45;&gt;4</title>
<path style="fill:none;stroke:black;" d="M414,-80C421,-77 428,-75 434,-73 456,-66 481,-60 500,-56"/>
<polygon style="fill:black;stroke:black;" points="500.881,-59.3933 510,-54 499.508,-52.5292 500.881,-59.3933"/>
<text text-anchor="middle" x="463" y="-76.9" style="font-family:Times New Roman;font-size:14.00;">stby_A</text>
</g>
<!-- 8&#45;&gt;5 -->
<g id="edge26" class="edge"><title>8&#45;&gt;5</title>
<path style="fill:none;stroke:black;" d="M416,-93C439,-97 475,-102 500,-106"/>
<polygon style="fill:black;stroke:black;" points="499.508,-109.471 510,-108 500.881,-102.607 499.508,-109.471"/>
<text text-anchor="middle" x="463" y="-107.9" style="font-family:Times New Roman;font-size:14.00;">l2r_A</text>
</g>
<!-- 9&#45;&gt;2 -->
<g id="edge30" class="edge"><title>9&#45;&gt;2</title>
<path style="fill:none;stroke:black;" d="M698,-116C719,-119 751,-125 778,-131 781,-131 784,-132 787,-133"/>
<polygon style="fill:black;stroke:black;" points="786.508,-136.471 797,-135 787.881,-129.607 786.508,-136.471"/>
<text text-anchor="middle" x="747" y="-134.9" style="font-family:Times New Roman;font-size:14.00;">empty_A</text>
</g>
<!-- 9&#45;&gt;3 -->
<g id="edge32" class="edge"><title>9&#45;&gt;3</title>
<path style="fill:none;stroke:black;" d="M696,-103C720,-92 761,-75 789,-63"/>
<polygon style="fill:black;stroke:black;" points="790.283,-66.2598 798,-59 787.44,-59.8631 790.283,-66.2598"/>
<text text-anchor="middle" x="747" y="-95.9" style="font-family:Times New Roman;font-size:14.00;">full_A</text>
</g>
</g>
</svg>
