<?xml version="1.0" encoding="UTF-8" standalone="no"?>
<!DOCTYPE svg PUBLIC "-//W3C//DTD SVG 1.0//EN"
 "http://www.w3.org/TR/2001/REC-SVG-20010904/DTD/svg10.dtd">
<!-- Generated by dot version 2.2 (Tue Sep 13 00:37:56 UTC 2005)
     For user: (msperk) Perk_Sebastian, Betreuer=Moor, mitarb, 01/05    Title: spec_AB_CD_    Pages: 1 -->
<svg width="732pt" height="187pt"
 viewBox = "-1 -1 731 186"
 xmlns="http://www.w3.org/2000/svg">
<g id="graph0" class="graph" transform = "scale(0.369610)"
 style="font-family:Times-Roman;font-size:14.00;">
<title>spec_AB_CD_</title>
<g id="node1" class="node"><title>dot_dummyinit_1</title>
</g>
<g id="node3" class="node"><title>1</title>
<ellipse cx="119" cy="430" rx="18" ry="18" style="fill:none;stroke:black;"/>
<ellipse cx="119" cy="430" rx="22" ry="22" style="fill:none;stroke:black;"/>
<text text-anchor="middle" x="119" y="435">1</text>
</g>
<g id="edge2" class="edge"><title>dot_dummyinit_1&#45;&gt;1</title>
<path style="fill:none;stroke:black;" d="M59,430C68,430 77,430 87,430"/>
<polygon style="fill:black;stroke:black;" points="87,426 97,430 87,433 87,426"/>
</g>
<g id="node7" class="node"><title>5</title>
<ellipse cx="261" cy="401" rx="18" ry="18" style="fill:none;stroke:black;"/>
<ellipse cx="261" cy="401" rx="22" ry="22" style="fill:none;stroke:black;"/>
<text text-anchor="middle" x="261" y="406">5</text>
</g>
<g id="edge4" class="edge"><title>1&#45;&gt;5</title>
<path style="fill:none;stroke:black;" d="M141,429C162,427 194,423 221,416 224,415 228,414 231,413"/>
<polygon style="fill:black;stroke:black;" points="230,410 241,410 232,416 230,410"/>
<text text-anchor="middle" x="190" y="413">CD_FREE</text>
</g>
<g id="node4" class="node"><title>2</title>
<ellipse cx="933" cy="227" rx="18" ry="18" style="fill:none;stroke:black;"/>
<ellipse cx="933" cy="227" rx="22" ry="22" style="fill:none;stroke:black;"/>
<text text-anchor="middle" x="933" y="232">2</text>
</g>
<g id="node14" class="node"><title>12</title>
<ellipse cx="1072" cy="123" rx="21" ry="21" style="fill:none;stroke:black;"/>
<ellipse cx="1072" cy="123" rx="25" ry="25" style="fill:none;stroke:black;"/>
<text text-anchor="middle" x="1072" y="128">12</text>
</g>
<g id="edge8" class="edge"><title>2&#45;&gt;12</title>
<path style="fill:none;stroke:black;" d="M952,215C972,203 1004,181 1029,161 1035,157 1041,152 1047,147"/>
<polygon style="fill:black;stroke:black;" points="1044,145 1054,140 1049,150 1044,145"/>
<text text-anchor="middle" x="1001" y="158">CD_accfl</text>
</g>
<g id="node19" class="node"><title>17</title>
<ellipse cx="1072" cy="251" rx="20" ry="20" style="fill:none;stroke:black;"/>
<ellipse cx="1072" cy="251" rx="24" ry="24" style="fill:none;stroke:black;"/>
<text text-anchor="middle" x="1072" y="256">17</text>
</g>
<g id="edge6" class="edge"><title>2&#45;&gt;17</title>
<path style="fill:none;stroke:black;" d="M955,231C977,235 1012,240 1038,245"/>
<polygon style="fill:black;stroke:black;" points="1039,242 1048,247 1038,248 1039,242"/>
<text text-anchor="middle" x="1001" y="232">CD_occfl</text>
</g>
<g id="node5" class="node"><title>3</title>
<ellipse cx="1784" cy="170" rx="18" ry="18" style="fill:none;stroke:black;"/>
<ellipse cx="1784" cy="170" rx="22" ry="22" style="fill:none;stroke:black;"/>
<text text-anchor="middle" x="1784" y="175">3</text>
</g>
<g id="node16" class="node"><title>14</title>
<ellipse cx="1928" cy="118" rx="21" ry="21" style="fill:none;stroke:black;"/>
<ellipse cx="1928" cy="118" rx="25" ry="25" style="fill:none;stroke:black;"/>
<text text-anchor="middle" x="1928" y="123">14</text>
</g>
<g id="edge12" class="edge"><title>3&#45;&gt;14</title>
<path style="fill:none;stroke:black;" d="M1804,160C1811,157 1820,153 1827,150 1849,141 1874,134 1894,128"/>
<polygon style="fill:black;stroke:black;" points="1893,125 1904,125 1895,131 1893,125"/>
<text text-anchor="middle" x="1856" y="129">CD_reltr</text>
</g>
<g id="node20" class="node"><title>18</title>
<ellipse cx="1928" cy="274" rx="21" ry="21" style="fill:none;stroke:black;"/>
<ellipse cx="1928" cy="274" rx="25" ry="25" style="fill:none;stroke:black;"/>
<text text-anchor="middle" x="1928" y="279">18</text>
</g>
<g id="edge10" class="edge"><title>3&#45;&gt;18</title>
<path style="fill:none;stroke:black;" d="M1796,189C1819,211 1866,239 1897,257"/>
<polygon style="fill:black;stroke:black;" points="1899,254 1906,262 1896,260 1899,254"/>
<text text-anchor="middle" x="1856" y="211">CD_freetr</text>
</g>
<g id="node6" class="node"><title>4</title>
<ellipse cx="1357" cy="147" rx="18" ry="18" style="fill:none;stroke:black;"/>
<ellipse cx="1357" cy="147" rx="22" ry="22" style="fill:none;stroke:black;"/>
<text text-anchor="middle" x="1357" y="152">4</text>
</g>
<g id="node11" class="node"><title>9</title>
<ellipse cx="385" cy="313" rx="18" ry="18" style="fill:none;stroke:black;"/>
<ellipse cx="385" cy="313" rx="22" ry="22" style="fill:none;stroke:black;"/>
<text text-anchor="middle" x="385" y="318">9</text>
</g>
<g id="edge18" class="edge"><title>4&#45;&gt;9</title>
<path style="fill:none;stroke:black;" d="M1346,128C1338,120 1330,117 1317,107 1273,74 1269,36 1212,36 522,36 522,36 522,36 469,36 413,210 394,282"/>
<polygon style="fill:black;stroke:black;" points="397,283 391,292 391,281 397,283"/>
<text text-anchor="middle" x="867" y="33">CD_FL</text>
</g>
<g id="node12" class="node"><title>10</title>
<ellipse cx="1486" cy="188" rx="21" ry="21" style="fill:none;stroke:black;"/>
<ellipse cx="1486" cy="188" rx="25" ry="25" style="fill:none;stroke:black;"/>
<text text-anchor="middle" x="1486" y="193">10</text>
</g>
<g id="edge16" class="edge"><title>4&#45;&gt;10</title>
<path style="fill:none;stroke:black;" d="M1378,154C1398,160 1429,170 1452,177"/>
<polygon style="fill:black;stroke:black;" points="1453,174 1462,180 1451,180 1453,174"/>
<text text-anchor="middle" x="1420" y="159">CD_TR</text>
</g>
<g id="node13" class="node"><title>11</title>
<ellipse cx="1212" cy="121" rx="20" ry="20" style="fill:none;stroke:black;"/>
<ellipse cx="1212" cy="121" rx="24" ry="24" style="fill:none;stroke:black;"/>
<text text-anchor="middle" x="1212" y="126">11</text>
</g>
<g id="edge14" class="edge"><title>4&#45;&gt;11</title>
<path style="fill:none;stroke:black;" d="M1336,154C1315,160 1282,166 1255,156 1248,154 1242,150 1237,146"/>
<polygon style="fill:black;stroke:black;" points="1234,148 1229,139 1239,143 1234,148"/>
<text text-anchor="middle" x="1286" y="153">CD_STP</text>
</g>
<g id="edge20" class="edge"><title>5&#45;&gt;1</title>
<path style="fill:none;stroke:black;" d="M240,395C219,391 186,387 159,396 153,399 147,403 141,407"/>
<polygon style="fill:black;stroke:black;" points="144,409 134,414 139,404 144,409"/>
<text text-anchor="middle" x="190" y="388">CD_STP</text>
</g>
<g id="edge24" class="edge"><title>5&#45;&gt;9</title>
<path style="fill:none;stroke:black;" d="M279,388C299,374 334,349 359,332"/>
<polygon style="fill:black;stroke:black;" points="357,329 367,326 361,335 357,329"/>
<text text-anchor="middle" x="323" y="342">CD_FL</text>
</g>
<g id="node21" class="node"><title>19</title>
<ellipse cx="1784" cy="306" rx="21" ry="21" style="fill:none;stroke:black;"/>
<ellipse cx="1784" cy="306" rx="25" ry="25" style="fill:none;stroke:black;"/>
<text text-anchor="middle" x="1784" y="311">19</text>
</g>
<g id="edge22" class="edge"><title>5&#45;&gt;19</title>
<path style="fill:none;stroke:black;" d="M282,407C307,414 348,424 385,424 385,424 385,424 1646,424 1694,424 1704,406 1741,376 1759,362 1767,357 1776,341"/>
<polygon style="fill:black;stroke:black;" points="1773,339 1780,331 1780,342 1773,339"/>
<text text-anchor="middle" x="1001" y="421">CD_TR</text>
</g>
<g id="node8" class="node"><title>6</title>
<ellipse cx="1357" cy="254" rx="18" ry="18" style="fill:none;stroke:black;"/>
<ellipse cx="1357" cy="254" rx="22" ry="22" style="fill:none;stroke:black;"/>
<text text-anchor="middle" x="1357" y="259">6</text>
</g>
<g id="edge28" class="edge"><title>6&#45;&gt;10</title>
<path style="fill:none;stroke:black;" d="M1377,244C1397,233 1430,217 1455,205"/>
<polygon style="fill:black;stroke:black;" points="1454,202 1464,200 1457,208 1454,202"/>
<text text-anchor="middle" x="1420" y="209">CD_TR</text>
</g>
<g id="node18" class="node"><title>16</title>
<ellipse cx="1212" cy="251" rx="21" ry="21" style="fill:none;stroke:black;"/>
<ellipse cx="1212" cy="251" rx="25" ry="25" style="fill:none;stroke:black;"/>
<text text-anchor="middle" x="1212" y="256">16</text>
</g>
<g id="edge26" class="edge"><title>6&#45;&gt;16</title>
<path style="fill:none;stroke:black;" d="M1335,253C1312,253 1275,252 1247,252"/>
<polygon style="fill:black;stroke:black;" points="1247,255 1237,252 1247,248 1247,255"/>
<text text-anchor="middle" x="1286" y="250">CD_STP</text>
</g>
<g id="edge30" class="edge"><title>6&#45;&gt;19</title>
<path style="fill:none;stroke:black;" d="M1379,257C1448,265 1664,292 1749,302"/>
<polygon style="fill:black;stroke:black;" points="1749,299 1759,303 1749,305 1749,299"/>
<text text-anchor="middle" x="1566" y="273">CD_FL</text>
</g>
<g id="node9" class="node"><title>7</title>
<ellipse cx="801" cy="326" rx="18" ry="18" style="fill:none;stroke:black;"/>
<ellipse cx="801" cy="326" rx="22" ry="22" style="fill:none;stroke:black;"/>
<text text-anchor="middle" x="801" y="331">7</text>
</g>
<g id="edge32" class="edge"><title>7&#45;&gt;2</title>
<path style="fill:none;stroke:black;" d="M819,313C841,296 881,267 907,247"/>
<polygon style="fill:black;stroke:black;" points="905,244 915,241 909,250 905,244"/>
<text text-anchor="middle" x="867" y="257">CD_STP</text>
</g>
<g id="edge34" class="edge"><title>7&#45;&gt;19</title>
<path style="fill:none;stroke:black;" d="M819,338C844,354 890,378 933,378 933,378 933,378 1646,378 1689,378 1732,350 1758,329"/>
<polygon style="fill:black;stroke:black;" points="1756,326 1766,323 1760,332 1756,326"/>
<text text-anchor="middle" x="1286" y="375">CD_TR</text>
</g>
<g id="edge36" class="edge"><title>7&#45;&gt;19</title>
<path style="fill:none;stroke:black;" d="M823,326C849,326 895,326 933,326 933,326 933,326 1646,326 1681,326 1722,320 1749,314"/>
<polygon style="fill:black;stroke:black;" points="1749,311 1759,312 1750,317 1749,311"/>
<text text-anchor="middle" x="1286" y="323">CD_FL</text>
</g>
<g id="node10" class="node"><title>8</title>
<ellipse cx="659" cy="326" rx="18" ry="18" style="fill:none;stroke:black;"/>
<ellipse cx="659" cy="326" rx="22" ry="22" style="fill:none;stroke:black;"/>
<text text-anchor="middle" x="659" y="331">8</text>
</g>
<g id="edge38" class="edge"><title>8&#45;&gt;7</title>
<path style="fill:none;stroke:black;" d="M681,326C705,326 742,326 769,326"/>
<polygon style="fill:black;stroke:black;" points="769,322 779,326 769,329 769,322"/>
<text text-anchor="middle" x="730" y="323">CD_FULL</text>
</g>
<g id="node17" class="node"><title>15</title>
<ellipse cx="522" cy="326" rx="21" ry="21" style="fill:none;stroke:black;"/>
<ellipse cx="522" cy="326" rx="25" ry="25" style="fill:none;stroke:black;"/>
<text text-anchor="middle" x="522" y="331">15</text>
</g>
<g id="edge40" class="edge"><title>9&#45;&gt;15</title>
<path style="fill:none;stroke:black;" d="M407,314C426,315 455,317 479,319 482,319 484,320 487,320"/>
<polygon style="fill:black;stroke:black;" points="488,317 497,322 487,323 488,317"/>
<text text-anchor="middle" x="452" y="314">CD_reqfl</text>
</g>
<g id="node15" class="node"><title>13</title>
<ellipse cx="1646" cy="188" rx="21" ry="21" style="fill:none;stroke:black;"/>
<ellipse cx="1646" cy="188" rx="25" ry="25" style="fill:none;stroke:black;"/>
<text text-anchor="middle" x="1646" y="193">13</text>
</g>
<g id="edge42" class="edge"><title>10&#45;&gt;13</title>
<path style="fill:none;stroke:black;" d="M1511,188C1538,188 1581,188 1611,188"/>
<polygon style="fill:black;stroke:black;" points="1611,184 1621,188 1611,191 1611,184"/>
<text text-anchor="middle" x="1566" y="185">CD_ARRTR</text>
</g>
<g id="edge44" class="edge"><title>11&#45;&gt;4</title>
<path style="fill:none;stroke:black;" d="M1236,124C1258,126 1290,131 1317,136 1320,136 1323,137 1326,138"/>
<polygon style="fill:black;stroke:black;" points="1327,135 1336,141 1325,141 1327,135"/>
<text text-anchor="middle" x="1286" y="124">CD_WAIT</text>
</g>
<g id="edge46" class="edge"><title>12&#45;&gt;2</title>
<path style="fill:none;stroke:black;" d="M1047,122C1025,122 994,126 973,141 956,155 946,177 940,195"/>
<polygon style="fill:black;stroke:black;" points="943,196 937,205 937,194 943,196"/>
<text text-anchor="middle" x="1001" y="121">CD_nack</text>
</g>
<g id="edge48" class="edge"><title>12&#45;&gt;11</title>
<path style="fill:none;stroke:black;" d="M1097,123C1119,122 1152,122 1177,121"/>
<polygon style="fill:black;stroke:black;" points="1177,117 1187,121 1177,124 1177,117"/>
<text text-anchor="middle" x="1142" y="120">CD_pack</text>
</g>
<g id="edge50" class="edge"><title>13&#45;&gt;3</title>
<path style="fill:none;stroke:black;" d="M1668,176C1675,173 1682,170 1689,168 1710,164 1734,164 1752,166"/>
<polygon style="fill:black;stroke:black;" points="1752,163 1762,167 1752,169 1752,163"/>
<text text-anchor="middle" x="1715" y="162">CD_STP</text>
</g>
<g id="edge52" class="edge"><title>13&#45;&gt;19</title>
<path style="fill:none;stroke:black;" d="M1671,191C1692,195 1722,203 1741,220 1757,234 1767,255 1774,273"/>
<polygon style="fill:black;stroke:black;" points="1777,271 1778,282 1771,274 1777,271"/>
<text text-anchor="middle" x="1715" y="193">CD_TR</text>
</g>
<g id="edge54" class="edge"><title>13&#45;&gt;19</title>
<path style="fill:none;stroke:black;" d="M1661,209C1668,219 1679,231 1689,240 1710,258 1719,257 1741,272 1746,276 1751,280 1757,284"/>
<polygon style="fill:black;stroke:black;" points="1759,281 1765,290 1755,287 1759,281"/>
<text text-anchor="middle" x="1715" y="237">CD_FL</text>
</g>
<g id="edge56" class="edge"><title>14&#45;&gt;3</title>
<path style="fill:none;stroke:black;" d="M1918,141C1910,156 1905,165 1885,173 1864,183 1836,182 1815,178"/>
<polygon style="fill:black;stroke:black;" points="1814,181 1805,176 1815,175 1814,181"/>
<text text-anchor="middle" x="1856" y="170">CD_nack</text>
</g>
<g id="edge58" class="edge"><title>14&#45;&gt;11</title>
<path style="fill:none;stroke:black;" d="M1905,106C1877,93 1828,74 1784,74 1357,74 1357,74 1357,74 1317,74 1272,91 1243,104"/>
<polygon style="fill:black;stroke:black;" points="1244,107 1234,109 1241,101 1244,107"/>
<text text-anchor="middle" x="1566" y="71">CD_pack</text>
</g>
<g id="edge62" class="edge"><title>15&#45;&gt;8</title>
<path style="fill:none;stroke:black;" d="M547,326C570,326 602,326 627,326"/>
<polygon style="fill:black;stroke:black;" points="627,322 637,326 627,329 627,322"/>
<text text-anchor="middle" x="592" y="323">CD_pack</text>
</g>
<g id="edge60" class="edge"><title>15&#45;&gt;9</title>
<path style="fill:none;stroke:black;" d="M499,335C479,341 450,347 425,339 420,338 415,335 411,333"/>
<polygon style="fill:black;stroke:black;" points="408,335 402,327 412,330 408,335"/>
<text text-anchor="middle" x="452" y="336">CD_nack</text>
</g>
<g id="edge64" class="edge"><title>16&#45;&gt;6</title>
<path style="fill:none;stroke:black;" d="M1233,265C1240,269 1247,272 1255,274 1282,281 1291,281 1317,274 1321,273 1325,272 1329,270"/>
<polygon style="fill:black;stroke:black;" points="1327,267 1338,266 1330,273 1327,267"/>
<text text-anchor="middle" x="1286" y="271">CD_OCC</text>
</g>
<g id="edge66" class="edge"><title>17&#45;&gt;2</title>
<path style="fill:none;stroke:black;" d="M1049,260C1029,267 998,274 973,264 964,261 958,257 953,253"/>
<polygon style="fill:black;stroke:black;" points="950,255 946,245 955,250 950,255"/>
<text text-anchor="middle" x="1001" y="261">CD_nack</text>
</g>
<g id="edge68" class="edge"><title>17&#45;&gt;16</title>
<path style="fill:none;stroke:black;" d="M1097,251C1119,251 1151,251 1177,251"/>
<polygon style="fill:black;stroke:black;" points="1177,247 1187,251 1177,254 1177,247"/>
<text text-anchor="middle" x="1142" y="248">CD_pack</text>
</g>
<g id="edge72" class="edge"><title>18&#45;&gt;1</title>
<path style="fill:none;stroke:black;" d="M1923,299C1910,352 1871,475 1784,476 261,476 261,476 261,476 221,475 176,458 148,445"/>
<polygon style="fill:black;stroke:black;" points="146,448 139,440 149,442 146,448"/>
<text text-anchor="middle" x="1001" y="473">CD_pack</text>
</g>
<g id="edge70" class="edge"><title>18&#45;&gt;3</title>
<path style="fill:none;stroke:black;" d="M1904,280C1882,283 1850,285 1827,270 1804,255 1794,225 1789,202"/>
<polygon style="fill:black;stroke:black;" points="1786,202 1787,192 1792,201 1786,202"/>
<text text-anchor="middle" x="1856" y="267">CD_nack</text>
</g>
</g>
</svg>
