<?xml version="1.0" encoding="UTF-8" standalone="no"?>
<!DOCTYPE svg PUBLIC "-//W3C//DTD SVG 1.0//EN"
 "http://www.w3.org/TR/2001/REC-SVG-20010904/DTD/svg10.dtd" [
 <!ATTLIST svg xmlns:xlink CDATA #FIXED "http://www.w3.org/1999/xlink">
]>
<!-- Generated by Graphviz version 2.20.2 (Tue Mar &#160;2 21:46:26 UTC 2010)
     For user: (mtmoor) Prof. Thomas Moor -->
<!-- Title: Controller AB__a_H__ABCD__EFGH__A_H Pages: 1 -->
<svg width="720pt" height="143pt"
 viewBox="0.00 0.00 720.00 142.61" xmlns="http://www.w3.org/2000/svg" xmlns:xlink="http://www.w3.org/1999/xlink">
<g id="graph0" class="graph" transform="scale(0.289855 0.289855) rotate(0) translate(4 488)">
<title>Controller AB__a_H__ABCD__EFGH__A_H</title>
<polygon style="fill:white;stroke:white;" points="-4,4 -4,-488 2480,-488 2480,4 -4,4"/>
<!-- dot_dummyinit_1 -->
<g id="node1" class="node"><title>dot_dummyinit_1</title>
</g>
<!-- 1 -->
<g id="node3" class="node"><title>1</title>
<ellipse style="fill:none;stroke:black;" cx="114" cy="-93" rx="18" ry="18"/>
<ellipse style="fill:none;stroke:black;" cx="114" cy="-93" rx="22" ry="22"/>
<text text-anchor="middle" x="114" y="-88.9" style="font-family:Times New Roman;font-size:14.00;">1</text>
</g>
<!-- dot_dummyinit_1&#45;&gt;1 -->
<g id="edge2" class="edge"><title>dot_dummyinit_1&#45;&gt;1</title>
<path style="fill:none;stroke:black;" d="M54,-93C63,-93 72,-93 82,-93"/>
<polygon style="fill:black;stroke:black;" points="82,-96.5001 92,-93 82,-89.5001 82,-96.5001"/>
</g>
<!-- 7 -->
<g id="node9" class="node"><title>7</title>
<ellipse style="fill:none;stroke:black;" cx="236" cy="-64" rx="18" ry="18"/>
<ellipse style="fill:none;stroke:black;" cx="236" cy="-64" rx="22" ry="22"/>
<text text-anchor="middle" x="236" y="-59.9" style="font-family:Times New Roman;font-size:14.00;">7</text>
</g>
<!-- 1&#45;&gt;7 -->
<g id="edge4" class="edge"><title>1&#45;&gt;7</title>
<path style="fill:none;stroke:black;" d="M136,-88C142,-86 148,-84 154,-83 171,-79 189,-75 204,-71"/>
<polygon style="fill:black;stroke:black;" points="204.881,-74.3933 214,-69 203.508,-67.5292 204.881,-74.3933"/>
<text text-anchor="middle" x="175" y="-86.9" style="font-family:Times New Roman;font-size:14.00;">idle_B</text>
</g>
<!-- 19 -->
<g id="node21" class="node"><title>19</title>
<ellipse style="fill:none;stroke:black;" cx="1425" cy="-157" rx="23.1964" ry="23.1964"/>
<ellipse style="fill:none;stroke:black;" cx="1425" cy="-157" rx="27.1237" ry="27.1237"/>
<text text-anchor="middle" x="1425" y="-152.9" style="font-family:Times New Roman;font-size:14.00;">19</text>
</g>
<!-- 1&#45;&gt;19 -->
<g id="edge6" class="edge"><title>1&#45;&gt;19</title>
<path style="fill:none;stroke:black;" d="M135,-99C160,-105 200,-114 236,-114 236,-114 236,-114 762,-114 857,-114 881,-113 975,-113 975,-113 975,-113 1195,-113 1266,-113 1345,-133 1389,-146"/>
<polygon style="fill:black;stroke:black;" points="1388.42,-149.479 1399,-149 1390.43,-142.774 1388.42,-149.479"/>
<text text-anchor="middle" x="762" y="-117.9" style="font-family:Times New Roman;font-size:14.00;">idle_ABCD</text>
</g>
<!-- 2 -->
<g id="node4" class="node"><title>2</title>
<ellipse style="fill:none;stroke:black;" cx="2454" cy="-291" rx="18" ry="18"/>
<ellipse style="fill:none;stroke:black;" cx="2454" cy="-291" rx="22" ry="22"/>
<text text-anchor="middle" x="2454" y="-286.9" style="font-family:Times New Roman;font-size:14.00;">2</text>
</g>
<!-- 3 -->
<g id="node5" class="node"><title>3</title>
<ellipse style="fill:none;stroke:black;" cx="2302" cy="-251" rx="18" ry="18"/>
<ellipse style="fill:none;stroke:black;" cx="2302" cy="-251" rx="22" ry="22"/>
<text text-anchor="middle" x="2302" y="-246.9" style="font-family:Times New Roman;font-size:14.00;">3</text>
</g>
<!-- 2&#45;&gt;3 -->
<g id="edge10" class="edge"><title>2&#45;&gt;3</title>
<path style="fill:none;stroke:black;" d="M2432,-288C2409,-285 2373,-278 2342,-269 2338,-268 2335,-267 2331,-265"/>
<polygon style="fill:black;stroke:black;" points="2332.56,-261.863 2322,-261 2329.72,-268.26 2332.56,-261.863"/>
<text text-anchor="middle" x="2378" y="-286.9" style="font-family:Times New Roman;font-size:14.00;">idle_ABCD</text>
</g>
<!-- 10 -->
<g id="node12" class="node"><title>10</title>
<ellipse style="fill:none;stroke:black;" cx="536" cy="-289" rx="23.1964" ry="23.1964"/>
<ellipse style="fill:none;stroke:black;" cx="536" cy="-289" rx="27.1237" ry="27.1237"/>
<text text-anchor="middle" x="536" y="-284.9" style="font-family:Times New Roman;font-size:14.00;">10</text>
</g>
<!-- 2&#45;&gt;10 -->
<g id="edge8" class="edge"><title>2&#45;&gt;10</title>
<path style="fill:none;stroke:black;" d="M2440,-309C2416,-338 2362,-392 2302,-392 681,-392 681,-392 681,-392 630,-392 584,-349 558,-319"/>
<polygon style="fill:black;stroke:black;" points="560.8,-316.9 552,-311 555.2,-321.1 560.8,-316.9"/>
<text text-anchor="middle" x="1496" y="-395.9" style="font-family:Times New Roman;font-size:14.00;">idle_B</text>
</g>
<!-- 3&#45;&gt;2 -->
<g id="edge14" class="edge"><title>3&#45;&gt;2</title>
<path style="fill:none;stroke:black;" d="M2323,-244C2346,-238 2385,-231 2414,-245 2423,-249 2431,-256 2437,-264"/>
<polygon style="fill:black;stroke:black;" points="2434.2,-266.1 2443,-272 2439.8,-261.9 2434.2,-266.1"/>
<text text-anchor="middle" x="2378" y="-248.9" style="font-family:Times New Roman;font-size:14.00;">stby_A</text>
</g>
<!-- 15 -->
<g id="node17" class="node"><title>15</title>
<ellipse style="fill:none;stroke:black;" cx="975" cy="-237" rx="23.1964" ry="23.1964"/>
<ellipse style="fill:none;stroke:black;" cx="975" cy="-237" rx="27.1237" ry="27.1237"/>
<text text-anchor="middle" x="975" y="-232.9" style="font-family:Times New Roman;font-size:14.00;">15</text>
</g>
<!-- 3&#45;&gt;15 -->
<g id="edge12" class="edge"><title>3&#45;&gt;15</title>
<path style="fill:none;stroke:black;" d="M2280,-251C2254,-251 2210,-251 2171,-251 1195,-251 1195,-251 1195,-251 1118,-251 1098,-248 1020,-242 1017,-242 1015,-241 1012,-241"/>
<polygon style="fill:black;stroke:black;" points="1012.3,-237.512 1002,-240 1011.6,-244.478 1012.3,-237.512"/>
<text text-anchor="middle" x="1648" y="-254.9" style="font-family:Times New Roman;font-size:14.00;">l2r_A</text>
</g>
<!-- 4 -->
<g id="node6" class="node"><title>4</title>
<ellipse style="fill:none;stroke:black;" cx="1729" cy="-132" rx="18" ry="18"/>
<ellipse style="fill:none;stroke:black;" cx="1729" cy="-132" rx="22" ry="22"/>
<text text-anchor="middle" x="1729" y="-127.9" style="font-family:Times New Roman;font-size:14.00;">4</text>
</g>
<!-- 11 -->
<g id="node13" class="node"><title>11</title>
<ellipse style="fill:none;stroke:black;" cx="2171" cy="-105" rx="23.1964" ry="23.1964"/>
<ellipse style="fill:none;stroke:black;" cx="2171" cy="-105" rx="27.1237" ry="27.1237"/>
<text text-anchor="middle" x="2171" y="-100.9" style="font-family:Times New Roman;font-size:14.00;">11</text>
</g>
<!-- 4&#45;&gt;11 -->
<g id="edge18" class="edge"><title>4&#45;&gt;11</title>
<path style="fill:none;stroke:black;" d="M1751,-133C1812,-134 1985,-135 2126,-116 2129,-116 2132,-115 2135,-114"/>
<polygon style="fill:black;stroke:black;" points="2135.88,-117.393 2145,-112 2134.51,-110.529 2135.88,-117.393"/>
<text text-anchor="middle" x="1948" y="-133.9" style="font-family:Times New Roman;font-size:14.00;">idle_AB</text>
</g>
<!-- 18 -->
<g id="node20" class="node"><title>18</title>
<ellipse style="fill:none;stroke:black;" cx="1567" cy="-170" rx="23.1964" ry="23.1964"/>
<ellipse style="fill:none;stroke:black;" cx="1567" cy="-170" rx="27.1237" ry="27.1237"/>
<text text-anchor="middle" x="1567" y="-165.9" style="font-family:Times New Roman;font-size:14.00;">18</text>
</g>
<!-- 4&#45;&gt;18 -->
<g id="edge16" class="edge"><title>4&#45;&gt;18</title>
<path style="fill:none;stroke:black;" d="M1708,-140C1701,-143 1692,-146 1684,-148 1658,-155 1627,-160 1604,-164"/>
<polygon style="fill:black;stroke:black;" points="1603.12,-160.607 1594,-166 1604.49,-167.471 1603.12,-160.607"/>
<text text-anchor="middle" x="1648" y="-165.9" style="font-family:Times New Roman;font-size:14.00;">stby_A</text>
</g>
<!-- 5 -->
<g id="node7" class="node"><title>5</title>
<ellipse style="fill:none;stroke:black;" cx="838" cy="-237" rx="18" ry="18"/>
<ellipse style="fill:none;stroke:black;" cx="838" cy="-237" rx="22" ry="22"/>
<text text-anchor="middle" x="838" y="-232.9" style="font-family:Times New Roman;font-size:14.00;">5</text>
</g>
<!-- 5&#45;&gt;15 -->
<g id="edge20" class="edge"><title>5&#45;&gt;15</title>
<path style="fill:none;stroke:black;" d="M860,-237C881,-237 913,-237 938,-237"/>
<polygon style="fill:black;stroke:black;" points="938,-240.5 948,-237 938,-233.5 938,-240.5"/>
<text text-anchor="middle" x="904" y="-240.9" style="font-family:Times New Roman;font-size:14.00;">l2r_A</text>
</g>
<!-- 6 -->
<g id="node8" class="node"><title>6</title>
<ellipse style="fill:none;stroke:black;" cx="1132" cy="-301" rx="18" ry="18"/>
<ellipse style="fill:none;stroke:black;" cx="1132" cy="-301" rx="22" ry="22"/>
<text text-anchor="middle" x="1132" y="-296.9" style="font-family:Times New Roman;font-size:14.00;">6</text>
</g>
<!-- 12 -->
<g id="node14" class="node"><title>12</title>
<ellipse style="fill:none;stroke:black;" cx="1263" cy="-306" rx="23.1964" ry="23.1964"/>
<ellipse style="fill:none;stroke:black;" cx="1263" cy="-306" rx="27.1237" ry="27.1237"/>
<text text-anchor="middle" x="1263" y="-301.9" style="font-family:Times New Roman;font-size:14.00;">12</text>
</g>
<!-- 6&#45;&gt;12 -->
<g id="edge22" class="edge"><title>6&#45;&gt;12</title>
<path style="fill:none;stroke:black;" d="M1154,-302C1174,-303 1203,-304 1226,-305"/>
<polygon style="fill:black;stroke:black;" points="1226,-308.5 1236,-305 1226,-301.5 1226,-308.5"/>
<text text-anchor="middle" x="1195" y="-306.9" style="font-family:Times New Roman;font-size:14.00;">l2r_B</text>
</g>
<!-- 16 -->
<g id="node18" class="node"><title>16</title>
<ellipse style="fill:none;stroke:black;" cx="373" cy="-352" rx="23.1964" ry="23.1964"/>
<ellipse style="fill:none;stroke:black;" cx="373" cy="-352" rx="27.1237" ry="27.1237"/>
<text text-anchor="middle" x="373" y="-347.9" style="font-family:Times New Roman;font-size:14.00;">16</text>
</g>
<!-- 7&#45;&gt;16 -->
<g id="edge26" class="edge"><title>7&#45;&gt;16</title>
<path style="fill:none;stroke:black;" d="M246,-84C269,-133 329,-258 357,-318"/>
<polygon style="fill:black;stroke:black;" points="353.74,-319.283 361,-327 360.137,-316.44 353.74,-319.283"/>
<text text-anchor="middle" x="302" y="-252.9" style="font-family:Times New Roman;font-size:14.00;">idle_AB</text>
</g>
<!-- 17 -->
<g id="node19" class="node"><title>17</title>
<ellipse style="fill:none;stroke:black;" cx="373" cy="-59" rx="23.1964" ry="23.1964"/>
<ellipse style="fill:none;stroke:black;" cx="373" cy="-59" rx="27.1237" ry="27.1237"/>
<text text-anchor="middle" x="373" y="-54.9" style="font-family:Times New Roman;font-size:14.00;">17</text>
</g>
<!-- 7&#45;&gt;17 -->
<g id="edge24" class="edge"><title>7&#45;&gt;17</title>
<path style="fill:none;stroke:black;" d="M254,-51C261,-47 269,-43 276,-41 299,-35 306,-36 328,-41 332,-42 335,-43 339,-44"/>
<polygon style="fill:black;stroke:black;" points="338.416,-47.4788 349,-47 340.427,-40.7741 338.416,-47.4788"/>
<text text-anchor="middle" x="302" y="-44.9" style="font-family:Times New Roman;font-size:14.00;">stby_B</text>
</g>
<!-- 8 -->
<g id="node10" class="node"><title>8</title>
<ellipse style="fill:none;stroke:black;" cx="1729" cy="-323" rx="18" ry="18"/>
<ellipse style="fill:none;stroke:black;" cx="1729" cy="-323" rx="22" ry="22"/>
<text text-anchor="middle" x="1729" y="-318.9" style="font-family:Times New Roman;font-size:14.00;">8</text>
</g>
<!-- 8&#45;&gt;16 -->
<g id="edge28" class="edge"><title>8&#45;&gt;16</title>
<path style="fill:none;stroke:black;" d="M1709,-333C1674,-352 1594,-391 1522,-413 1381,-454 1343,-468 1195,-468 536,-468 536,-468 536,-468 479,-468 463,-453 418,-417 408,-408 398,-397 391,-385"/>
<polygon style="fill:black;stroke:black;" points="393.916,-383.042 386,-376 387.797,-386.441 393.916,-383.042"/>
<text text-anchor="middle" x="1056" y="-471.9" style="font-family:Times New Roman;font-size:14.00;">idle_AB</text>
</g>
<!-- 9 -->
<g id="node11" class="node"><title>9</title>
<ellipse style="fill:none;stroke:black;" cx="1132" cy="-201" rx="18" ry="18"/>
<ellipse style="fill:none;stroke:black;" cx="1132" cy="-201" rx="22" ry="22"/>
<text text-anchor="middle" x="1132" y="-196.9" style="font-family:Times New Roman;font-size:14.00;">9</text>
</g>
<!-- 9&#45;&gt;15 -->
<g id="edge30" class="edge"><title>9&#45;&gt;15</title>
<path style="fill:none;stroke:black;" d="M1112,-192C1089,-182 1050,-171 1020,-185 1010,-190 1002,-197 995,-206"/>
<polygon style="fill:black;stroke:black;" points="992.2,-203.9 989,-214 997.8,-208.1 992.2,-203.9"/>
<text text-anchor="middle" x="1056" y="-188.9" style="font-family:Times New Roman;font-size:14.00;">stby_A</text>
</g>
<!-- 14 -->
<g id="node16" class="node"><title>14</title>
<ellipse style="fill:none;stroke:black;" cx="681" cy="-249" rx="23.1964" ry="23.1964"/>
<ellipse style="fill:none;stroke:black;" cx="681" cy="-249" rx="27.1237" ry="27.1237"/>
<text text-anchor="middle" x="681" y="-244.9" style="font-family:Times New Roman;font-size:14.00;">14</text>
</g>
<!-- 10&#45;&gt;14 -->
<g id="edge32" class="edge"><title>10&#45;&gt;14</title>
<path style="fill:none;stroke:black;" d="M563,-284C583,-280 612,-274 636,-267 640,-266 643,-265 646,-263"/>
<polygon style="fill:black;stroke:black;" points="647.427,-266.226 656,-260 645.416,-259.521 647.427,-266.226"/>
<text text-anchor="middle" x="609" y="-282.9" style="font-family:Times New Roman;font-size:14.00;">stby_B</text>
</g>
<!-- 11&#45;&gt;3 -->
<g id="edge34" class="edge"><title>11&#45;&gt;3</title>
<path style="fill:none;stroke:black;" d="M2189,-125C2213,-152 2255,-198 2280,-226"/>
<polygon style="fill:black;stroke:black;" points="2277.78,-228.779 2287,-234 2283.05,-224.169 2277.78,-228.779"/>
<text text-anchor="middle" x="2239" y="-205.9" style="font-family:Times New Roman;font-size:14.00;">l2r_AB</text>
</g>
<!-- 21 -->
<g id="node23" class="node"><title>21</title>
<ellipse style="fill:none;stroke:black;" cx="1729" cy="-59" rx="23.1964" ry="23.1964"/>
<ellipse style="fill:none;stroke:black;" cx="1729" cy="-59" rx="27.1237" ry="27.1237"/>
<text text-anchor="middle" x="1729" y="-54.9" style="font-family:Times New Roman;font-size:14.00;">21</text>
</g>
<!-- 11&#45;&gt;21 -->
<g id="edge36" class="edge"><title>11&#45;&gt;21</title>
<path style="fill:none;stroke:black;" d="M2149,-89C2116,-65 2049,-23 1984,-10 1922,2 1903,-1 1840,-14 1813,-20 1784,-32 1762,-42"/>
<polygon style="fill:black;stroke:black;" points="1760.72,-38.7402 1753,-46 1763.56,-45.1369 1760.72,-38.7402"/>
<text text-anchor="middle" x="1948" y="-13.9" style="font-family:Times New Roman;font-size:14.00;">stby_AB</text>
</g>
<!-- 12&#45;&gt;19 -->
<g id="edge40" class="edge"><title>12&#45;&gt;19</title>
<path style="fill:none;stroke:black;" d="M1283,-287C1313,-260 1365,-212 1398,-182"/>
<polygon style="fill:black;stroke:black;" points="1400.4,-184.546 1405,-175 1395.45,-179.596 1400.4,-184.546"/>
<text text-anchor="middle" x="1344" y="-268.9" style="font-family:Times New Roman;font-size:14.00;">idle_ABCD</text>
</g>
<!-- 23 -->
<g id="node25" class="node"><title>23</title>
<ellipse style="fill:none;stroke:black;" cx="1425" cy="-337" rx="23.1964" ry="23.1964"/>
<ellipse style="fill:none;stroke:black;" cx="1425" cy="-337" rx="27.1237" ry="27.1237"/>
<text text-anchor="middle" x="1425" y="-332.9" style="font-family:Times New Roman;font-size:14.00;">23</text>
</g>
<!-- 12&#45;&gt;23 -->
<g id="edge38" class="edge"><title>12&#45;&gt;23</title>
<path style="fill:none;stroke:black;" d="M1289,-313C1295,-315 1302,-316 1308,-318 1335,-324 1365,-329 1388,-332"/>
<polygon style="fill:black;stroke:black;" points="1387.7,-335.488 1398,-333 1388.4,-328.522 1387.7,-335.488"/>
<text text-anchor="middle" x="1344" y="-332.9" style="font-family:Times New Roman;font-size:14.00;">idle_B</text>
</g>
<!-- 13 -->
<g id="node15" class="node"><title>13</title>
<ellipse style="fill:none;stroke:black;" cx="1567" cy="-86" rx="23.1964" ry="23.1964"/>
<ellipse style="fill:none;stroke:black;" cx="1567" cy="-86" rx="27.1237" ry="27.1237"/>
<text text-anchor="middle" x="1567" y="-81.9" style="font-family:Times New Roman;font-size:14.00;">13</text>
</g>
<!-- 13&#45;&gt;5 -->
<g id="edge42" class="edge"><title>13&#45;&gt;5</title>
<path style="fill:none;stroke:black;" d="M1540,-91C1461,-107 1230,-151 1195,-151 975,-151 975,-151 975,-151 929,-151 885,-187 860,-213"/>
<polygon style="fill:black;stroke:black;" points="857.596,-210.454 853,-220 862.546,-215.404 857.596,-210.454"/>
<text text-anchor="middle" x="1195" y="-154.9" style="font-family:Times New Roman;font-size:14.00;">l2r_AB</text>
</g>
<!-- 13&#45;&gt;21 -->
<g id="edge44" class="edge"><title>13&#45;&gt;21</title>
<path style="fill:none;stroke:black;" d="M1594,-82C1621,-78 1662,-71 1692,-66"/>
<polygon style="fill:black;stroke:black;" points="1692.88,-69.3933 1702,-64 1691.51,-62.5292 1692.88,-69.3933"/>
<text text-anchor="middle" x="1648" y="-80.9" style="font-family:Times New Roman;font-size:14.00;">stby_AB</text>
</g>
<!-- 14&#45;&gt;5 -->
<g id="edge48" class="edge"><title>14&#45;&gt;5</title>
<path style="fill:none;stroke:black;" d="M708,-247C735,-245 777,-242 806,-240"/>
<polygon style="fill:black;stroke:black;" points="806.398,-243.478 816,-239 805.701,-236.512 806.398,-243.478"/>
<text text-anchor="middle" x="762" y="-247.9" style="font-family:Times New Roman;font-size:14.00;">idle_ABCD</text>
</g>
<!-- 14&#45;&gt;10 -->
<g id="edge46" class="edge"><title>14&#45;&gt;10</title>
<path style="fill:none;stroke:black;" d="M654,-242C634,-239 605,-236 582,-246 574,-249 567,-254 561,-260"/>
<polygon style="fill:black;stroke:black;" points="558.221,-257.781 553,-267 562.831,-263.049 558.221,-257.781"/>
<text text-anchor="middle" x="609" y="-249.9" style="font-family:Times New Roman;font-size:14.00;">idle_B</text>
</g>
<!-- 15&#45;&gt;6 -->
<g id="edge50" class="edge"><title>15&#45;&gt;6</title>
<path style="fill:none;stroke:black;" d="M996,-255C1003,-260 1012,-266 1020,-270 1046,-282 1077,-291 1100,-295"/>
<polygon style="fill:black;stroke:black;" points="1099.51,-298.471 1110,-297 1100.88,-291.607 1099.51,-298.471"/>
<text text-anchor="middle" x="1056" y="-295.9" style="font-family:Times New Roman;font-size:14.00;">idle_B</text>
</g>
<!-- 15&#45;&gt;9 -->
<g id="edge52" class="edge"><title>15&#45;&gt;9</title>
<path style="fill:none;stroke:black;" d="M1001,-229C1007,-228 1014,-226 1020,-225 1047,-218 1078,-212 1100,-207"/>
<polygon style="fill:black;stroke:black;" points="1100.88,-210.393 1110,-205 1099.51,-203.529 1100.88,-210.393"/>
<text text-anchor="middle" x="1056" y="-228.9" style="font-family:Times New Roman;font-size:14.00;">idle_ABCD</text>
</g>
<!-- 16&#45;&gt;10 -->
<g id="edge54" class="edge"><title>16&#45;&gt;10</title>
<path style="fill:none;stroke:black;" d="M395,-335C402,-330 410,-325 418,-321 444,-309 476,-300 499,-296"/>
<polygon style="fill:black;stroke:black;" points="499.881,-299.393 509,-294 498.508,-292.529 499.881,-299.393"/>
<text text-anchor="middle" x="454" y="-324.9" style="font-family:Times New Roman;font-size:14.00;">l2r_AB</text>
</g>
<!-- 20 -->
<g id="node22" class="node"><title>20</title>
<ellipse style="fill:none;stroke:black;" cx="762" cy="-349" rx="23.1964" ry="23.1964"/>
<ellipse style="fill:none;stroke:black;" cx="762" cy="-349" rx="27.1237" ry="27.1237"/>
<text text-anchor="middle" x="762" y="-344.9" style="font-family:Times New Roman;font-size:14.00;">20</text>
</g>
<!-- 16&#45;&gt;20 -->
<g id="edge56" class="edge"><title>16&#45;&gt;20</title>
<path style="fill:none;stroke:black;" d="M400,-352C468,-351 646,-350 725,-349"/>
<polygon style="fill:black;stroke:black;" points="725,-352.5 735,-349 725,-345.5 725,-352.5"/>
<text text-anchor="middle" x="536" y="-353.9" style="font-family:Times New Roman;font-size:14.00;">stby_AB</text>
</g>
<!-- 17&#45;&gt;7 -->
<g id="edge58" class="edge"><title>17&#45;&gt;7</title>
<path style="fill:none;stroke:black;" d="M346,-60C323,-61 292,-62 268,-63"/>
<polygon style="fill:black;stroke:black;" points="268,-59.5001 258,-63 268,-66.5001 268,-59.5001"/>
<text text-anchor="middle" x="302" y="-64.9" style="font-family:Times New Roman;font-size:14.00;">idle_B</text>
</g>
<!-- 22 -->
<g id="node24" class="node"><title>22</title>
<ellipse style="fill:none;stroke:black;" cx="609" cy="-59" rx="23.1964" ry="23.1964"/>
<ellipse style="fill:none;stroke:black;" cx="609" cy="-59" rx="27.1237" ry="27.1237"/>
<text text-anchor="middle" x="609" y="-54.9" style="font-family:Times New Roman;font-size:14.00;">22</text>
</g>
<!-- 17&#45;&gt;22 -->
<g id="edge60" class="edge"><title>17&#45;&gt;22</title>
<path style="fill:none;stroke:black;" d="M400,-59C442,-59 524,-59 572,-59"/>
<polygon style="fill:black;stroke:black;" points="572,-62.5001 582,-59 572,-55.5001 572,-62.5001"/>
<text text-anchor="middle" x="454" y="-62.9" style="font-family:Times New Roman;font-size:14.00;">idle_ABCD</text>
</g>
<!-- 18&#45;&gt;4 -->
<g id="edge64" class="edge"><title>18&#45;&gt;4</title>
<path style="fill:none;stroke:black;" d="M1584,-148C1591,-140 1601,-131 1612,-127 1640,-116 1674,-119 1698,-124"/>
<polygon style="fill:black;stroke:black;" points="1697.51,-127.471 1708,-126 1698.88,-120.607 1697.51,-127.471"/>
<text text-anchor="middle" x="1648" y="-130.9" style="font-family:Times New Roman;font-size:14.00;">idle_ABCD</text>
</g>
<!-- 18&#45;&gt;8 -->
<g id="edge62" class="edge"><title>18&#45;&gt;8</title>
<path style="fill:none;stroke:black;" d="M1593,-178C1625,-188 1678,-205 1684,-212 1707,-233 1718,-266 1724,-291"/>
<polygon style="fill:black;stroke:black;" points="1720.61,-291.881 1726,-301 1727.47,-290.508 1720.61,-291.881"/>
<text text-anchor="middle" x="1648" y="-215.9" style="font-family:Times New Roman;font-size:14.00;">idle_B</text>
</g>
<!-- 19&#45;&gt;13 -->
<g id="edge68" class="edge"><title>19&#45;&gt;13</title>
<path style="fill:none;stroke:black;" d="M1449,-145C1472,-133 1507,-115 1533,-103"/>
<polygon style="fill:black;stroke:black;" points="1534.96,-105.916 1542,-98 1531.56,-99.7969 1534.96,-105.916"/>
<text text-anchor="middle" x="1496" y="-136.9" style="font-family:Times New Roman;font-size:14.00;">idle_AB</text>
</g>
<!-- 19&#45;&gt;18 -->
<g id="edge66" class="edge"><title>19&#45;&gt;18</title>
<path style="fill:none;stroke:black;" d="M1452,-159C1474,-161 1505,-164 1530,-166"/>
<polygon style="fill:black;stroke:black;" points="1529.7,-169.488 1540,-167 1530.4,-162.522 1529.7,-169.488"/>
<text text-anchor="middle" x="1496" y="-168.9" style="font-family:Times New Roman;font-size:14.00;">stby_A</text>
</g>
<!-- 20&#45;&gt;12 -->
<g id="edge70" class="edge"><title>20&#45;&gt;12</title>
<path style="fill:none;stroke:black;" d="M789,-349C853,-347 1018,-343 1154,-332 1183,-329 1191,-331 1218,-324 1222,-323 1225,-322 1229,-321"/>
<polygon style="fill:black;stroke:black;" points="1230.28,-324.26 1238,-317 1227.44,-317.863 1230.28,-324.26"/>
<text text-anchor="middle" x="975" y="-345.9" style="font-family:Times New Roman;font-size:14.00;">stby_B</text>
</g>
<!-- 25 -->
<g id="node27" class="node"><title>25</title>
<ellipse style="fill:none;stroke:black;" cx="1867" cy="-50" rx="23.1964" ry="23.1964"/>
<ellipse style="fill:none;stroke:black;" cx="1867" cy="-50" rx="27.1237" ry="27.1237"/>
<text text-anchor="middle" x="1867" y="-45.9" style="font-family:Times New Roman;font-size:14.00;">25</text>
</g>
<!-- 21&#45;&gt;25 -->
<g id="edge72" class="edge"><title>21&#45;&gt;25</title>
<path style="fill:none;stroke:black;" d="M1756,-57C1777,-56 1806,-54 1830,-53"/>
<polygon style="fill:black;stroke:black;" points="1830.4,-56.4778 1840,-52 1829.7,-49.5125 1830.4,-56.4778"/>
<text text-anchor="middle" x="1798" y="-58.9" style="font-family:Times New Roman;font-size:14.00;">stby_A</text>
</g>
<!-- 22&#45;&gt;13 -->
<g id="edge74" class="edge"><title>22&#45;&gt;13</title>
<path style="fill:none;stroke:black;" d="M636,-59C667,-59 718,-59 762,-59 762,-59 762,-59 1425,-59 1462,-59 1503,-68 1531,-75"/>
<polygon style="fill:black;stroke:black;" points="1530.42,-78.4788 1541,-78 1532.43,-71.7741 1530.42,-78.4788"/>
<text text-anchor="middle" x="1056" y="-62.9" style="font-family:Times New Roman;font-size:14.00;">idle_AB</text>
</g>
<!-- 23&#45;&gt;12 -->
<g id="edge76" class="edge"><title>23&#45;&gt;12</title>
<path style="fill:none;stroke:black;" d="M1409,-315C1401,-307 1391,-298 1380,-294 1355,-284 1322,-288 1299,-294"/>
<polygon style="fill:black;stroke:black;" points="1297.57,-290.774 1289,-297 1299.58,-297.479 1297.57,-290.774"/>
<text text-anchor="middle" x="1344" y="-297.9" style="font-family:Times New Roman;font-size:14.00;">stby_B</text>
</g>
<!-- 23&#45;&gt;16 -->
<g id="edge78" class="edge"><title>23&#45;&gt;16</title>
<path style="fill:none;stroke:black;" d="M1406,-357C1378,-384 1322,-430 1263,-430 536,-430 536,-430 536,-430 486,-430 434,-399 402,-376"/>
<polygon style="fill:black;stroke:black;" points="404.1,-373.2 394,-370 399.9,-378.8 404.1,-373.2"/>
<text text-anchor="middle" x="904" y="-433.9" style="font-family:Times New Roman;font-size:14.00;">idle_AB</text>
</g>
<!-- 24 -->
<g id="node26" class="node"><title>24</title>
<ellipse style="fill:none;stroke:black;" cx="2029" cy="-77" rx="23.1964" ry="23.1964"/>
<ellipse style="fill:none;stroke:black;" cx="2029" cy="-77" rx="27.1237" ry="27.1237"/>
<text text-anchor="middle" x="2029" y="-72.9" style="font-family:Times New Roman;font-size:14.00;">24</text>
</g>
<!-- 24&#45;&gt;11 -->
<g id="edge82" class="edge"><title>24&#45;&gt;11</title>
<path style="fill:none;stroke:black;" d="M2056,-82C2078,-86 2110,-93 2134,-98"/>
<polygon style="fill:black;stroke:black;" points="2133.51,-101.471 2144,-100 2134.88,-94.6067 2133.51,-101.471"/>
<text text-anchor="middle" x="2100" y="-98.9" style="font-family:Times New Roman;font-size:14.00;">idle_AB</text>
</g>
<!-- 24&#45;&gt;25 -->
<g id="edge80" class="edge"><title>24&#45;&gt;25</title>
<path style="fill:none;stroke:black;" d="M2011,-56C2003,-49 1994,-42 1984,-39 1958,-29 1926,-33 1903,-39"/>
<polygon style="fill:black;stroke:black;" points="1902.12,-35.6067 1893,-41 1903.49,-42.4708 1902.12,-35.6067"/>
<text text-anchor="middle" x="1948" y="-42.9" style="font-family:Times New Roman;font-size:14.00;">stby_A</text>
</g>
<!-- 25&#45;&gt;7 -->
<g id="edge84" class="edge"><title>25&#45;&gt;7</title>
<path style="fill:none;stroke:black;" d="M1843,-37C1816,-24 1771,-5 1729,-4 373,-4 373,-4 373,-4 329,-5 316,-11 276,-31 270,-34 265,-37 260,-41"/>
<polygon style="fill:black;stroke:black;" points="257.221,-38.7809 252,-48 261.831,-44.0489 257.221,-38.7809"/>
<text text-anchor="middle" x="1056" y="-8.9" style="font-family:Times New Roman;font-size:14.00;">idle_B</text>
</g>
<!-- 25&#45;&gt;24 -->
<g id="edge86" class="edge"><title>25&#45;&gt;24</title>
<path style="fill:none;stroke:black;" d="M1894,-54C1921,-58 1962,-65 1992,-70"/>
<polygon style="fill:black;stroke:black;" points="1991.51,-73.4708 2002,-72 1992.88,-66.6067 1991.51,-73.4708"/>
<text text-anchor="middle" x="1948" y="-71.9" style="font-family:Times New Roman;font-size:14.00;">idle_ABCD</text>
</g>
</g>
</svg>
