<?xml version="1.0" encoding="UTF-8" standalone="no"?>
<!DOCTYPE svg PUBLIC "-//W3C//DTD SVG 1.0//EN"
 "http://www.w3.org/TR/2001/REC-SVG-20010904/DTD/svg10.dtd" [
 <!ATTLIST svg xmlns:xlink CDATA #FIXED "http://www.w3.org/1999/xlink">
]>
<!-- Generated by Graphviz version 2.20.2 (Tue Mar &#160;2 21:46:26 UTC 2010)
     For user: (mtmoor) Prof. Thomas Moor -->
<!-- Title: specification Pages: 1 -->
<svg width="336pt" height="82pt"
 viewBox="0.00 0.00 336.00 82.00" xmlns="http://www.w3.org/2000/svg" xmlns:xlink="http://www.w3.org/1999/xlink">
<g id="graph0" class="graph" transform="scale(1 1) rotate(0) translate(4 78)">
<title>specification</title>
<polygon style="fill:white;stroke:white;" points="-4,4 -4,-78 332,-78 332,4 -4,4"/>
<!-- dot_dummyinit_1 -->
<g id="node1" class="node"><title>dot_dummyinit_1</title>
</g>
<!-- E|Yp -->
<g id="node3" class="node"><title>E|Yp</title>
<ellipse style="fill:none;stroke:black;" cx="128" cy="-37" rx="32.2121" ry="32.2121"/>
<ellipse style="fill:none;stroke:black;" cx="128" cy="-37" rx="36.1573" ry="36.1573"/>
<text text-anchor="middle" x="128" y="-32.9" style="font-family:Times New Roman;font-size:14.00;">E|Yp</text>
</g>
<!-- dot_dummyinit_1&#45;&gt;E|Yp -->
<g id="edge2" class="edge"><title>dot_dummyinit_1&#45;&gt;E|Yp</title>
<path style="fill:none;stroke:black;" d="M54,-37C63,-37 72,-37 82,-37"/>
<polygon style="fill:black;stroke:black;" points="82,-40.5001 92,-37 82,-33.5001 82,-40.5001"/>
</g>
<!-- F|Up -->
<g id="node4" class="node"><title>F|Up</title>
<ellipse style="fill:none;stroke:black;" cx="291" cy="-37" rx="32.9096" ry="32.9096"/>
<ellipse style="fill:none;stroke:black;" cx="291" cy="-37" rx="36.8563" ry="36.8563"/>
<text text-anchor="middle" x="291" y="-32.9" style="font-family:Times New Roman;font-size:14.00;">F|Up</text>
</g>
<!-- E|Yp&#45;&gt;F|Up -->
<g id="edge4" class="edge"><title>E|Yp&#45;&gt;F|Up</title>
<path style="fill:none;stroke:black;" d="M164,-37C188,-37 218,-37 244,-37"/>
<polygon style="fill:black;stroke:black;" points="244,-40.5001 254,-37 244,-33.5001 244,-40.5001"/>
<text text-anchor="middle" x="209" y="-40.9" style="font-family:Times New Roman;font-size:14.00;">beta_1</text>
</g>
<!-- F|Up&#45;&gt;E|Yp -->
<g id="edge6" class="edge"><title>F|Up&#45;&gt;E|Yp</title>
<path style="fill:none;stroke:black;" d="M257,-22C250,-19 243,-17 236,-16 213,-12 206,-12 182,-16 178,-17 174,-17 171,-19"/>
<polygon style="fill:black;stroke:black;" points="169.573,-15.7741 161,-22 171.584,-22.4788 169.573,-15.7741"/>
<text text-anchor="middle" x="209" y="-20.9" style="font-family:Times New Roman;font-size:14.00;">alpha_2</text>
</g>
</g>
</svg>
