<?xml version="1.0" encoding="UTF-8" standalone="no"?>
<!DOCTYPE svg PUBLIC "-//W3C//DTD SVG 1.0//EN"
 "http://www.w3.org/TR/2001/REC-SVG-20010904/DTD/svg10.dtd" [
 <!ATTLIST svg xmlns:xlink CDATA #FIXED "http://www.w3.org/1999/xlink">
]>
<!-- Generated by Graphviz version 2.20.2 (Tue Mar &#160;2 21:46:26 UTC 2010)
     For user: (mtmoor) Prof. Thomas Moor -->
<!-- Title: Project(Project(PrefixClosure(HioShuffle(Si...achine_2)) [minstate],Generator)))) Pages: 1 -->
<svg width="720pt" height="87pt"
 viewBox="0.00 0.00 720.00 87.08" xmlns="http://www.w3.org/2000/svg" xmlns:xlink="http://www.w3.org/1999/xlink">
<g id="graph0" class="graph" transform="scale(0.897756 0.897756) rotate(0) translate(4 93)">
<title>Project(Project(PrefixClosure(HioShuffle(Si...achine_2)) [minstate],Generator))))</title>
<polygon style="fill:white;stroke:white;" points="-4,4 -4,-93 798,-93 798,4 -4,4"/>
<!-- dot_dummyinit_1 -->
<g id="node1" class="node"><title>dot_dummyinit_1</title>
</g>
<!-- 1 -->
<g id="node3" class="node"><title>1</title>
<ellipse style="fill:none;stroke:black;" cx="114" cy="-61" rx="18" ry="18"/>
<ellipse style="fill:none;stroke:black;" cx="114" cy="-61" rx="22" ry="22"/>
<text text-anchor="middle" x="114" y="-56.9" style="font-family:Times New Roman;font-size:14.00;">1</text>
</g>
<!-- dot_dummyinit_1&#45;&gt;1 -->
<g id="edge2" class="edge"><title>dot_dummyinit_1&#45;&gt;1</title>
<path style="fill:none;stroke:black;" d="M54,-61C63,-61 72,-61 82,-61"/>
<polygon style="fill:black;stroke:black;" points="82,-64.5001 92,-61 82,-57.5001 82,-64.5001"/>
</g>
<!-- 6 -->
<g id="node8" class="node"><title>6</title>
<ellipse style="fill:none;stroke:black;" cx="248" cy="-31" rx="18" ry="18"/>
<ellipse style="fill:none;stroke:black;" cx="248" cy="-31" rx="22" ry="22"/>
<text text-anchor="middle" x="248" y="-26.9" style="font-family:Times New Roman;font-size:14.00;">6</text>
</g>
<!-- 1&#45;&gt;6 -->
<g id="edge4" class="edge"><title>1&#45;&gt;6</title>
<path style="fill:none;stroke:black;" d="M136,-56C142,-54 148,-52 154,-51 175,-46 198,-41 216,-37"/>
<polygon style="fill:black;stroke:black;" points="216.881,-40.3933 226,-35 215.508,-33.5292 216.881,-40.3933"/>
<text text-anchor="middle" x="181" y="-54.9" style="font-family:Times New Roman;font-size:14.00;">alpha_1</text>
</g>
<!-- 2 -->
<g id="node4" class="node"><title>2</title>
<ellipse style="fill:none;stroke:black;" cx="510" cy="-67" rx="18" ry="18"/>
<ellipse style="fill:none;stroke:black;" cx="510" cy="-67" rx="22" ry="22"/>
<text text-anchor="middle" x="510" y="-62.9" style="font-family:Times New Roman;font-size:14.00;">2</text>
</g>
<!-- 2&#45;&gt;1 -->
<g id="edge8" class="edge"><title>2&#45;&gt;1</title>
<path style="fill:none;stroke:black;" d="M488,-68C432,-72 280,-78 154,-68 151,-68 149,-67 146,-67"/>
<polygon style="fill:black;stroke:black;" points="146.492,-63.5292 136,-65 145.119,-70.3933 146.492,-63.5292"/>
<text text-anchor="middle" x="312" y="-76.9" style="font-family:Times New Roman;font-size:14.00;">beta_2</text>
</g>
<!-- 3 -->
<g id="node5" class="node"><title>3</title>
<ellipse style="fill:none;stroke:black;" cx="644" cy="-67" rx="18" ry="18"/>
<ellipse style="fill:none;stroke:black;" cx="644" cy="-67" rx="22" ry="22"/>
<text text-anchor="middle" x="644" y="-62.9" style="font-family:Times New Roman;font-size:14.00;">3</text>
</g>
<!-- 2&#45;&gt;3 -->
<g id="edge6" class="edge"><title>2&#45;&gt;3</title>
<path style="fill:none;stroke:black;" d="M532,-67C554,-67 587,-67 612,-67"/>
<polygon style="fill:black;stroke:black;" points="612,-70.5001 622,-67 612,-63.5001 612,-70.5001"/>
<text text-anchor="middle" x="577" y="-70.9" style="font-family:Times New Roman;font-size:14.00;">alpha_1</text>
</g>
<!-- 5 -->
<g id="node7" class="node"><title>5</title>
<ellipse style="fill:none;stroke:black;" cx="772" cy="-37" rx="18" ry="18"/>
<ellipse style="fill:none;stroke:black;" cx="772" cy="-37" rx="22" ry="22"/>
<text text-anchor="middle" x="772" y="-32.9" style="font-family:Times New Roman;font-size:14.00;">5</text>
</g>
<!-- 3&#45;&gt;5 -->
<g id="edge10" class="edge"><title>3&#45;&gt;5</title>
<path style="fill:none;stroke:black;" d="M665,-62C686,-57 717,-49 741,-44"/>
<polygon style="fill:black;stroke:black;" points="741.881,-47.3933 751,-42 740.508,-40.5292 741.881,-47.3933"/>
<text text-anchor="middle" x="708" y="-59.9" style="font-family:Times New Roman;font-size:14.00;">beta_1</text>
</g>
<!-- 3&#45;&gt;6 -->
<g id="edge12" class="edge"><title>3&#45;&gt;6</title>
<path style="fill:none;stroke:black;" d="M631,-49C624,-41 615,-33 604,-28 573,-13 437,11 354,-0 328,-3 299,-12 279,-19"/>
<polygon style="fill:black;stroke:black;" points="276.985,-16.0364 269,-23 279.585,-22.5357 276.985,-16.0364"/>
<text text-anchor="middle" x="443" y="-6.9" style="font-family:Times New Roman;font-size:14.00;">beta_2</text>
</g>
<!-- 4 -->
<g id="node6" class="node"><title>4</title>
<ellipse style="fill:none;stroke:black;" cx="376" cy="-31" rx="18" ry="18"/>
<ellipse style="fill:none;stroke:black;" cx="376" cy="-31" rx="22" ry="22"/>
<text text-anchor="middle" x="376" y="-26.9" style="font-family:Times New Roman;font-size:14.00;">4</text>
</g>
<!-- 4&#45;&gt;2 -->
<g id="edge14" class="edge"><title>4&#45;&gt;2</title>
<path style="fill:none;stroke:black;" d="M398,-34C417,-38 446,-43 470,-51 474,-52 477,-53 481,-54"/>
<polygon style="fill:black;stroke:black;" points="479.44,-57.1369 490,-58 482.283,-50.7402 479.44,-57.1369"/>
<text text-anchor="middle" x="443" y="-54.9" style="font-family:Times New Roman;font-size:14.00;">alpha_2</text>
</g>
<!-- 5&#45;&gt;4 -->
<g id="edge16" class="edge"><title>5&#45;&gt;4</title>
<path style="fill:none;stroke:black;" d="M750,-36C700,-35 575,-33 470,-32 450,-31 426,-31 408,-31"/>
<polygon style="fill:black;stroke:black;" points="408,-27.5001 398,-31 408,-34.5001 408,-27.5001"/>
<text text-anchor="middle" x="577" y="-35.9" style="font-family:Times New Roman;font-size:14.00;">beta_2</text>
</g>
<!-- 6&#45;&gt;4 -->
<g id="edge18" class="edge"><title>6&#45;&gt;4</title>
<path style="fill:none;stroke:black;" d="M270,-31C291,-31 321,-31 344,-31"/>
<polygon style="fill:black;stroke:black;" points="344,-34.5001 354,-31 344,-27.5001 344,-34.5001"/>
<text text-anchor="middle" x="312" y="-34.9" style="font-family:Times New Roman;font-size:14.00;">beta_1</text>
</g>
</g>
</svg>
