<?xml version="1.0" encoding="UTF-8" standalone="no"?>
<!DOCTYPE svg PUBLIC "-//W3C//DTD SVG 1.0//EN"
 "http://www.w3.org/TR/2001/REC-SVG-20010904/DTD/svg10.dtd">
<!-- Generated by dot version 2.2 (Tue Sep 13 00:37:56 UTC 2005)
     For user: (msperk) Perk_Sebastian, Betreuer=Moor, mitarb, 01/05    Title: spec_A    Pages: 1 -->
<svg width="732pt" height="155pt"
 viewBox = "-1 -1 731 154"
 xmlns="http://www.w3.org/2000/svg">
<g id="graph0" class="graph" transform = "scale(0.391304)"
 style="font-family:Times-Roman;font-size:14.00;">
<title>spec_A</title>
<g id="node1" class="node"><title>dot_dummyinit_1</title>
</g>
<g id="node3" class="node"><title>2</title>
<ellipse cx="119" cy="159" rx="18" ry="18" style="fill:none;stroke:black;"/>
<ellipse cx="119" cy="159" rx="22" ry="22" style="fill:none;stroke:black;"/>
<text text-anchor="middle" x="119" y="164">2</text>
</g>
<g id="edge2" class="edge"><title>dot_dummyinit_1&#45;&gt;2</title>
<path style="fill:none;stroke:black;" d="M59,159C68,159 77,159 87,159"/>
<polygon style="fill:black;stroke:black;" points="87,155 97,159 87,162 87,155"/>
</g>
<g id="node6" class="node"><title>4</title>
<ellipse cx="253" cy="107" rx="18" ry="18" style="fill:none;stroke:black;"/>
<ellipse cx="253" cy="107" rx="22" ry="22" style="fill:none;stroke:black;"/>
<text text-anchor="middle" x="253" y="112">4</text>
</g>
<g id="edge4" class="edge"><title>2&#45;&gt;4</title>
<path style="fill:none;stroke:black;" d="M139,149C145,145 152,142 159,139 180,131 204,122 222,116"/>
<polygon style="fill:black;stroke:black;" points="221,113 232,113 223,119 221,113"/>
<text text-anchor="middle" x="186" y="119">A_WAIT</text>
</g>
<g id="node4" class="node"><title>Err</title>
<ellipse cx="1682" cy="150" rx="24" ry="24" style="fill:none;stroke:black;"/>
<ellipse cx="1682" cy="150" rx="28" ry="28" style="fill:none;stroke:black;"/>
<text text-anchor="middle" x="1682" y="155">Err</text>
</g>
<g id="node5" class="node"><title>3</title>
<ellipse cx="1283" cy="205" rx="18" ry="18" style="fill:none;stroke:black;"/>
<ellipse cx="1283" cy="205" rx="22" ry="22" style="fill:none;stroke:black;"/>
<text text-anchor="middle" x="1283" y="210">3</text>
</g>
<g id="edge10" class="edge"><title>3&#45;&gt;Err</title>
<path style="fill:none;stroke:black;" d="M1305,201C1311,200 1317,199 1323,198 1440,180 1578,163 1644,154"/>
<polygon style="fill:black;stroke:black;" points="1644,151 1654,153 1644,157 1644,151"/>
<text text-anchor="middle" x="1474" y="172">A_FL</text>
</g>
<g id="node10" class="node"><title>8</title>
<ellipse cx="1401" cy="245" rx="18" ry="18" style="fill:none;stroke:black;"/>
<ellipse cx="1401" cy="245" rx="22" ry="22" style="fill:none;stroke:black;"/>
<text text-anchor="middle" x="1401" y="250">8</text>
</g>
<g id="edge8" class="edge"><title>3&#45;&gt;8</title>
<path style="fill:none;stroke:black;" d="M1304,212C1323,219 1350,228 1370,235"/>
<polygon style="fill:black;stroke:black;" points="1371,232 1380,238 1369,238 1371,232"/>
<text text-anchor="middle" x="1342" y="215">A_TR</text>
</g>
<g id="node11" class="node"><title>9</title>
<ellipse cx="1149" cy="210" rx="18" ry="18" style="fill:none;stroke:black;"/>
<ellipse cx="1149" cy="210" rx="22" ry="22" style="fill:none;stroke:black;"/>
<text text-anchor="middle" x="1149" y="215">9</text>
</g>
<g id="edge6" class="edge"><title>3&#45;&gt;9</title>
<path style="fill:none;stroke:black;" d="M1267,220C1260,226 1252,231 1243,234 1221,241 1213,240 1189,234 1184,233 1180,231 1176,228"/>
<polygon style="fill:black;stroke:black;" points="1174,231 1167,223 1177,225 1174,231"/>
<text text-anchor="middle" x="1216" y="228">A_STP</text>
</g>
<g id="edge12" class="edge"><title>4&#45;&gt;2</title>
<path style="fill:none;stroke:black;" d="M244,128C237,144 233,153 213,162 194,172 169,171 150,167"/>
<polygon style="fill:black;stroke:black;" points="149,170 140,165 150,164 149,170"/>
<text text-anchor="middle" x="186" y="159">A_STP</text>
</g>
<g id="edge14" class="edge"><title>4&#45;&gt;Err</title>
<path style="fill:none;stroke:black;" d="M267,90C288,68 327,33 369,33 369,33 369,33 1550,33 1616,33 1644,57 1673,113"/>
<polygon style="fill:black;stroke:black;" points="1676,112 1678,122 1670,115 1676,112"/>
<text text-anchor="middle" x="953" y="30">A_TR</text>
</g>
<g id="node9" class="node"><title>7</title>
<ellipse cx="369" cy="107" rx="18" ry="18" style="fill:none;stroke:black;"/>
<ellipse cx="369" cy="107" rx="22" ry="22" style="fill:none;stroke:black;"/>
<text text-anchor="middle" x="369" y="112">7</text>
</g>
<g id="edge16" class="edge"><title>4&#45;&gt;7</title>
<path style="fill:none;stroke:black;" d="M275,107C293,107 317,107 337,107"/>
<polygon style="fill:black;stroke:black;" points="337,103 347,107 337,110 337,103"/>
<text text-anchor="middle" x="311" y="104">A_FL</text>
</g>
<g id="node7" class="node"><title>5</title>
<ellipse cx="761" cy="131" rx="18" ry="18" style="fill:none;stroke:black;"/>
<ellipse cx="761" cy="131" rx="22" ry="22" style="fill:none;stroke:black;"/>
<text text-anchor="middle" x="761" y="136">5</text>
</g>
<g id="edge22" class="edge"><title>5&#45;&gt;Err</title>
<path style="fill:none;stroke:black;" d="M779,118C803,103 845,79 886,79 886,79 886,79 1550,79 1603,79 1626,92 1656,121"/>
<polygon style="fill:black;stroke:black;" points="1659,119 1664,128 1654,124 1659,119"/>
<text text-anchor="middle" x="1216" y="76">A_FL</text>
</g>
<g id="edge20" class="edge"><title>5&#45;&gt;Err</title>
<path style="fill:none;stroke:black;" d="M783,131C808,131 850,131 886,131 886,131 886,131 1550,131 1583,131 1618,136 1644,142"/>
<polygon style="fill:black;stroke:black;" points="1645,139 1654,144 1644,145 1645,139"/>
<text text-anchor="middle" x="1216" y="128">A_TR</text>
</g>
<g id="node12" class="node"><title>10</title>
<ellipse cx="886" cy="184" rx="21" ry="21" style="fill:none;stroke:black;"/>
<ellipse cx="886" cy="184" rx="25" ry="25" style="fill:none;stroke:black;"/>
<text text-anchor="middle" x="886" y="189">10</text>
</g>
<g id="edge18" class="edge"><title>5&#45;&gt;10</title>
<path style="fill:none;stroke:black;" d="M778,146C785,151 793,157 801,161 817,169 835,175 851,178"/>
<polygon style="fill:black;stroke:black;" points="852,175 861,180 851,181 852,175"/>
<text text-anchor="middle" x="822" y="158">A_STP</text>
</g>
<g id="node8" class="node"><title>6</title>
<ellipse cx="627" cy="131" rx="18" ry="18" style="fill:none;stroke:black;"/>
<ellipse cx="627" cy="131" rx="22" ry="22" style="fill:none;stroke:black;"/>
<text text-anchor="middle" x="627" y="136">6</text>
</g>
<g id="edge24" class="edge"><title>6&#45;&gt;5</title>
<path style="fill:none;stroke:black;" d="M649,131C671,131 704,131 729,131"/>
<polygon style="fill:black;stroke:black;" points="729,127 739,131 729,134 729,127"/>
<text text-anchor="middle" x="694" y="128">A_FULL</text>
</g>
<g id="node14" class="node"><title>12</title>
<ellipse cx="498" cy="131" rx="21" ry="21" style="fill:none;stroke:black;"/>
<ellipse cx="498" cy="131" rx="25" ry="25" style="fill:none;stroke:black;"/>
<text text-anchor="middle" x="498" y="136">12</text>
</g>
<g id="edge26" class="edge"><title>7&#45;&gt;12</title>
<path style="fill:none;stroke:black;" d="M391,111C411,114 440,120 463,124"/>
<polygon style="fill:black;stroke:black;" points="464,121 473,126 463,127 464,121"/>
<text text-anchor="middle" x="432" y="113">A_reqfl</text>
</g>
<g id="node17" class="node"><title>15</title>
<ellipse cx="1550" cy="260" rx="21" ry="21" style="fill:none;stroke:black;"/>
<ellipse cx="1550" cy="260" rx="25" ry="25" style="fill:none;stroke:black;"/>
<text text-anchor="middle" x="1550" y="265">15</text>
</g>
<g id="edge28" class="edge"><title>8&#45;&gt;15</title>
<path style="fill:none;stroke:black;" d="M1423,247C1447,250 1486,253 1515,256"/>
<polygon style="fill:black;stroke:black;" points="1515,253 1525,257 1515,259 1515,253"/>
<text text-anchor="middle" x="1474" y="245">A_ARRTR</text>
</g>
<g id="edge30" class="edge"><title>9&#45;&gt;3</title>
<path style="fill:none;stroke:black;" d="M1171,209C1193,208 1226,207 1251,206"/>
<polygon style="fill:black;stroke:black;" points="1251,202 1261,206 1251,209 1251,202"/>
<text text-anchor="middle" x="1216" y="202">A_WAIT</text>
</g>
<g id="node15" class="node"><title>13</title>
<ellipse cx="1020" cy="210" rx="21" ry="21" style="fill:none;stroke:black;"/>
<ellipse cx="1020" cy="210" rx="25" ry="25" style="fill:none;stroke:black;"/>
<text text-anchor="middle" x="1020" y="215">13</text>
</g>
<g id="edge32" class="edge"><title>10&#45;&gt;13</title>
<path style="fill:none;stroke:black;" d="M911,189C932,192 962,198 985,203"/>
<polygon style="fill:black;stroke:black;" points="986,200 995,205 985,206 986,200"/>
<text text-anchor="middle" x="953" y="190">A_occfl</text>
</g>
<g id="node13" class="node"><title>11</title>
<ellipse cx="1682" cy="314" rx="20" ry="20" style="fill:none;stroke:black;"/>
<ellipse cx="1682" cy="314" rx="24" ry="24" style="fill:none;stroke:black;"/>
<text text-anchor="middle" x="1682" y="319">11</text>
</g>
<g id="node16" class="node"><title>14</title>
<ellipse cx="1820" cy="320" rx="21" ry="21" style="fill:none;stroke:black;"/>
<ellipse cx="1820" cy="320" rx="25" ry="25" style="fill:none;stroke:black;"/>
<text text-anchor="middle" x="1820" y="325">14</text>
</g>
<g id="edge34" class="edge"><title>11&#45;&gt;14</title>
<path style="fill:none;stroke:black;" d="M1705,306C1713,303 1721,301 1729,300 1751,296 1757,295 1777,300 1781,301 1785,302 1789,303"/>
<polygon style="fill:black;stroke:black;" points="1790,300 1798,307 1787,306 1790,300"/>
<text text-anchor="middle" x="1753" y="292">A_freetr</text>
</g>
<g id="edge38" class="edge"><title>12&#45;&gt;6</title>
<path style="fill:none;stroke:black;" d="M523,131C544,131 573,131 595,131"/>
<polygon style="fill:black;stroke:black;" points="595,127 605,131 595,134 595,127"/>
<text text-anchor="middle" x="564" y="128">A_pack</text>
</g>
<g id="edge36" class="edge"><title>12&#45;&gt;7</title>
<path style="fill:none;stroke:black;" d="M475,141C457,147 431,152 409,144 400,141 394,137 389,133"/>
<polygon style="fill:black;stroke:black;" points="386,135 382,125 391,130 386,135"/>
<text text-anchor="middle" x="432" y="141">A_nack</text>
</g>
<g id="edge42" class="edge"><title>13&#45;&gt;9</title>
<path style="fill:none;stroke:black;" d="M1045,210C1066,210 1095,210 1117,210"/>
<polygon style="fill:black;stroke:black;" points="1117,206 1127,210 1117,213 1117,206"/>
<text text-anchor="middle" x="1086" y="207">A_pack</text>
</g>
<g id="edge40" class="edge"><title>13&#45;&gt;10</title>
<path style="fill:none;stroke:black;" d="M996,219C978,224 951,229 929,222 920,219 913,215 908,211"/>
<polygon style="fill:black;stroke:black;" points="906,214 901,204 911,209 906,214"/>
<text text-anchor="middle" x="953" y="216">A_nack</text>
</g>
<g id="edge46" class="edge"><title>14&#45;&gt;2</title>
<path style="fill:none;stroke:black;" d="M1798,332C1771,346 1725,366 1682,366 253,366 253,366 253,366 171,366 136,249 125,191"/>
<polygon style="fill:black;stroke:black;" points="122,191 123,181 128,190 122,191"/>
<text text-anchor="middle" x="953" y="363">A_pack</text>
</g>
<g id="edge44" class="edge"><title>14&#45;&gt;11</title>
<path style="fill:none;stroke:black;" d="M1795,321C1777,321 1751,321 1729,320 1725,319 1721,319 1716,318"/>
<polygon style="fill:black;stroke:black;" points="1716,321 1706,317 1716,315 1716,321"/>
<text text-anchor="middle" x="1753" y="314">A_nack</text>
</g>
<g id="edge50" class="edge"><title>15&#45;&gt;Err</title>
<path style="fill:none;stroke:black;" d="M1571,246C1589,234 1614,217 1635,199 1642,193 1649,186 1656,180"/>
<polygon style="fill:black;stroke:black;" points="1654,177 1663,172 1659,182 1654,177"/>
<text text-anchor="middle" x="1614" y="196">A_TR</text>
</g>
<g id="edge52" class="edge"><title>15&#45;&gt;Err</title>
<path style="fill:none;stroke:black;" d="M1575,263C1593,264 1617,262 1635,251 1664,233 1666,217 1676,188"/>
<polygon style="fill:black;stroke:black;" points="1673,187 1679,178 1679,189 1673,187"/>
<text text-anchor="middle" x="1614" y="248">A_FL</text>
</g>
<g id="edge48" class="edge"><title>15&#45;&gt;11</title>
<path style="fill:none;stroke:black;" d="M1565,280C1573,289 1582,298 1593,303 1609,311 1630,314 1647,315"/>
<polygon style="fill:black;stroke:black;" points="1647,311 1657,315 1647,318 1647,311"/>
<text text-anchor="middle" x="1614" y="297">A_STP</text>
</g>
</g>
</svg>
