<?xml version="1.0" encoding="UTF-8" standalone="no"?>
<!DOCTYPE svg PUBLIC "-//W3C//DTD SVG 1.0//EN"
 "http://www.w3.org/TR/2001/REC-SVG-20010904/DTD/svg10.dtd" [
 <!ATTLIST svg xmlns:xlink CDATA #FIXED "http://www.w3.org/1999/xlink">
]>
<!-- Generated by Graphviz version 2.20.2 (Tue Mar &#160;2 21:46:26 UTC 2010)
     For user: (mtmoor) Prof. Thomas Moor -->
<!-- Title: HioFreeInput(HioController) Pages: 1 -->
<svg width="720pt" height="196pt"
 viewBox="0.00 0.00 720.00 196.36" xmlns="http://www.w3.org/2000/svg" xmlns:xlink="http://www.w3.org/1999/xlink">
<g id="graph0" class="graph" transform="scale(0.991736 0.991736) rotate(0) translate(4 194)">
<title>HioFreeInput(HioController)</title>
<polygon style="fill:white;stroke:white;" points="-4,4 -4,-194 722,-194 722,4 -4,4"/>
<!-- dot_dummyinit_1 -->
<g id="node1" class="node"><title>dot_dummyinit_1</title>
</g>
<!-- 3 -->
<g id="node3" class="node"><title>3</title>
<ellipse style="fill:none;stroke:black;" cx="114" cy="-74" rx="18" ry="18"/>
<ellipse style="fill:none;stroke:black;" cx="114" cy="-74" rx="22" ry="22"/>
<text text-anchor="middle" x="114" y="-69.9" style="font-family:Times New Roman;font-size:14.00;">3</text>
</g>
<!-- dot_dummyinit_1&#45;&gt;3 -->
<g id="edge2" class="edge"><title>dot_dummyinit_1&#45;&gt;3</title>
<path style="fill:none;stroke:black;" d="M54,-74C63,-74 72,-74 82,-74"/>
<polygon style="fill:black;stroke:black;" points="82,-77.5001 92,-74 82,-70.5001 82,-77.5001"/>
</g>
<!-- UcYpError -->
<g id="node4" class="node"><title>UcYpError</title>
<ellipse style="fill:none;stroke:black;" cx="474" cy="-126" rx="59.7599" ry="59.7599"/>
<ellipse style="fill:none;stroke:black;" cx="474" cy="-126" rx="63.7599" ry="63.7599"/>
<text text-anchor="middle" x="474" y="-121.9" style="font-family:Times New Roman;font-size:14.00;">UcYpError</text>
</g>
<!-- 3&#45;&gt;UcYpError -->
<g id="edge12" class="edge"><title>3&#45;&gt;UcYpError</title>
<path style="fill:none;stroke:black;" d="M133,-85C140,-89 147,-92 154,-95 173,-101 179,-102 198,-105 266,-115 344,-120 400,-123"/>
<polygon style="fill:black;stroke:black;" points="399.701,-126.488 410,-124 400.398,-119.522 399.701,-126.488"/>
<text text-anchor="middle" x="273" y="-117.9" style="font-family:Times New Roman;font-size:14.00;">yp2</text>
</g>
<!-- 4 -->
<g id="node6" class="node"><title>4</title>
<ellipse style="fill:none;stroke:black;" cx="220" cy="-74" rx="18" ry="18"/>
<ellipse style="fill:none;stroke:black;" cx="220" cy="-74" rx="22" ry="22"/>
<text text-anchor="middle" x="220" y="-69.9" style="font-family:Times New Roman;font-size:14.00;">4</text>
</g>
<!-- 3&#45;&gt;4 -->
<g id="edge10" class="edge"><title>3&#45;&gt;4</title>
<path style="fill:none;stroke:black;" d="M136,-74C151,-74 171,-74 188,-74"/>
<polygon style="fill:black;stroke:black;" points="188,-77.5001 198,-74 188,-70.5001 188,-77.5001"/>
<text text-anchor="middle" x="167" y="-77.9" style="font-family:Times New Roman;font-size:14.00;">yp1</text>
</g>
<!-- ErrorQYp -->
<g id="node5" class="node"><title>ErrorQYp</title>
<ellipse style="fill:none;stroke:black;" cx="659" cy="-126" rx="55.1234" ry="55.1234"/>
<ellipse style="fill:none;stroke:black;" cx="659" cy="-126" rx="59.0898" ry="59.0898"/>
<text text-anchor="middle" x="659" y="-121.9" style="font-family:Times New Roman;font-size:14.00;">ErrorQYp</text>
</g>
<!-- UcYpError&#45;&gt;ErrorQYp -->
<g id="edge4" class="edge"><title>UcYpError&#45;&gt;ErrorQYp</title>
<path style="fill:none;stroke:black;" d="M536,-142C551,-144 567,-146 582,-144 585,-143 588,-143 592,-142"/>
<polygon style="fill:black;stroke:black;" points="592.398,-145.478 602,-141 591.701,-138.512 592.398,-145.478"/>
<text text-anchor="middle" x="569" y="-147.9" style="font-family:Times New Roman;font-size:14.00;">up</text>
</g>
<!-- ErrorQYp&#45;&gt;UcYpError -->
<g id="edge6" class="edge"><title>ErrorQYp&#45;&gt;UcYpError</title>
<path style="fill:none;stroke:black;" d="M600,-122C594,-122 588,-122 582,-122 571,-121 559,-122 548,-122"/>
<polygon style="fill:black;stroke:black;" points="548,-118.5 538,-122 548,-125.5 548,-118.5"/>
<text text-anchor="middle" x="569" y="-125.9" style="font-family:Times New Roman;font-size:14.00;">yp1</text>
</g>
<!-- ErrorQYp&#45;&gt;UcYpError -->
<g id="edge8" class="edge"><title>ErrorQYp&#45;&gt;UcYpError</title>
<path style="fill:none;stroke:black;" d="M604,-104C597,-102 589,-100 582,-99 569,-97 556,-97 543,-100"/>
<polygon style="fill:black;stroke:black;" points="542.119,-96.6067 533,-102 543.492,-103.471 542.119,-96.6067"/>
<text text-anchor="middle" x="569" y="-102.9" style="font-family:Times New Roman;font-size:14.00;">yp2</text>
</g>
<!-- 5 -->
<g id="node7" class="node"><title>5</title>
<ellipse style="fill:none;stroke:black;" cx="326" cy="-74" rx="18" ry="18"/>
<ellipse style="fill:none;stroke:black;" cx="326" cy="-74" rx="22" ry="22"/>
<text text-anchor="middle" x="326" y="-69.9" style="font-family:Times New Roman;font-size:14.00;">5</text>
</g>
<!-- 4&#45;&gt;5 -->
<g id="edge14" class="edge"><title>4&#45;&gt;5</title>
<path style="fill:none;stroke:black;" d="M242,-74C257,-74 277,-74 294,-74"/>
<polygon style="fill:black;stroke:black;" points="294,-77.5001 304,-74 294,-70.5001 294,-77.5001"/>
<text text-anchor="middle" x="273" y="-77.9" style="font-family:Times New Roman;font-size:14.00;">yc</text>
</g>
<!-- 5&#45;&gt;UcYpError -->
<g id="edge18" class="edge"><title>5&#45;&gt;UcYpError</title>
<path style="fill:none;stroke:black;" d="M347,-81C360,-85 377,-90 392,-96 396,-97 400,-99 404,-100"/>
<polygon style="fill:black;stroke:black;" points="403.416,-103.479 414,-103 405.427,-96.7741 403.416,-103.479"/>
<text text-anchor="middle" x="379" y="-99.9" style="font-family:Times New Roman;font-size:14.00;">uc2</text>
</g>
<!-- 6 -->
<g id="node8" class="node"><title>6</title>
<ellipse style="fill:none;stroke:black;" cx="474" cy="-22" rx="18" ry="18"/>
<ellipse style="fill:none;stroke:black;" cx="474" cy="-22" rx="22" ry="22"/>
<text text-anchor="middle" x="474" y="-17.9" style="font-family:Times New Roman;font-size:14.00;">6</text>
</g>
<!-- 5&#45;&gt;6 -->
<g id="edge16" class="edge"><title>5&#45;&gt;6</title>
<path style="fill:none;stroke:black;" d="M346,-64C353,-62 360,-59 366,-56 392,-47 421,-38 442,-31"/>
<polygon style="fill:black;stroke:black;" points="443.427,-34.2259 452,-28 441.416,-27.5212 443.427,-34.2259"/>
<text text-anchor="middle" x="379" y="-62.9" style="font-family:Times New Roman;font-size:14.00;">uc1</text>
</g>
<!-- 6&#45;&gt;3 -->
<g id="edge20" class="edge"><title>6&#45;&gt;3</title>
<path style="fill:none;stroke:black;" d="M452,-22C405,-21 291,-23 198,-43 180,-47 160,-55 143,-61"/>
<polygon style="fill:black;stroke:black;" points="141.717,-57.7402 134,-65 144.56,-64.1369 141.717,-57.7402"/>
<text text-anchor="middle" x="273" y="-38.9" style="font-family:Times New Roman;font-size:14.00;">up</text>
</g>
</g>
</svg>
