<?xml version="1.0" encoding="UTF-8" standalone="no"?>
<!DOCTYPE svg PUBLIC "-//W3C//DTD SVG 1.0//EN"
 "http://www.w3.org/TR/2001/REC-SVG-20010904/DTD/svg10.dtd" [
 <!ATTLIST svg xmlns:xlink CDATA #FIXED "http://www.w3.org/1999/xlink">
]>
<!-- Generated by Graphviz version 2.20.2 (Tue Mar &#160;2 21:46:26 UTC 2010)
     For user: (mtmoor) Prof. Thomas Moor -->
<!-- Title: HioFreeInput(HioEnvironment) Pages: 1 -->
<svg width="712pt" height="191pt"
 viewBox="0.00 0.00 712.00 191.00" xmlns="http://www.w3.org/2000/svg" xmlns:xlink="http://www.w3.org/1999/xlink">
<g id="graph0" class="graph" transform="scale(1 1) rotate(0) translate(4 187)">
<title>HioFreeInput(HioEnvironment)</title>
<polygon style="fill:white;stroke:white;" points="-4,4 -4,-187 708,-187 708,4 -4,4"/>
<!-- dot_dummyinit_1 -->
<g id="node1" class="node"><title>dot_dummyinit_1</title>
</g>
<!-- 3 -->
<g id="node3" class="node"><title>3</title>
<ellipse style="fill:none;stroke:black;" cx="114" cy="-72" rx="18" ry="18"/>
<ellipse style="fill:none;stroke:black;" cx="114" cy="-72" rx="22" ry="22"/>
<text text-anchor="middle" x="114" y="-67.9" style="font-family:Times New Roman;font-size:14.00;">3</text>
</g>
<!-- dot_dummyinit_1&#45;&gt;3 -->
<g id="edge2" class="edge"><title>dot_dummyinit_1&#45;&gt;3</title>
<path style="fill:none;stroke:black;" d="M54,-72C63,-72 72,-72 82,-72"/>
<polygon style="fill:black;stroke:black;" points="82,-75.5001 92,-72 82,-68.5001 82,-75.5001"/>
</g>
<!-- UlYeError -->
<g id="node4" class="node"><title>UlYeError</title>
<ellipse style="fill:none;stroke:black;" cx="466" cy="-123" rx="55.8203" ry="55.8203"/>
<ellipse style="fill:none;stroke:black;" cx="466" cy="-123" rx="59.7872" ry="59.7872"/>
<text text-anchor="middle" x="466" y="-118.9" style="font-family:Times New Roman;font-size:14.00;">UlYeError</text>
</g>
<!-- 3&#45;&gt;UlYeError -->
<g id="edge12" class="edge"><title>3&#45;&gt;UlYeError</title>
<path style="fill:none;stroke:black;" d="M133,-83C140,-87 147,-90 154,-93 173,-99 179,-100 198,-103 265,-112 341,-117 396,-120"/>
<polygon style="fill:black;stroke:black;" points="395.701,-123.488 406,-121 396.398,-116.522 395.701,-123.488"/>
<text text-anchor="middle" x="273" y="-114.9" style="font-family:Times New Roman;font-size:14.00;">ye2</text>
</g>
<!-- 4 -->
<g id="node6" class="node"><title>4</title>
<ellipse style="fill:none;stroke:black;" cx="220" cy="-72" rx="18" ry="18"/>
<ellipse style="fill:none;stroke:black;" cx="220" cy="-72" rx="22" ry="22"/>
<text text-anchor="middle" x="220" y="-67.9" style="font-family:Times New Roman;font-size:14.00;">4</text>
</g>
<!-- 3&#45;&gt;4 -->
<g id="edge10" class="edge"><title>3&#45;&gt;4</title>
<path style="fill:none;stroke:black;" d="M136,-72C151,-72 171,-72 188,-72"/>
<polygon style="fill:black;stroke:black;" points="188,-75.5001 198,-72 188,-68.5001 188,-75.5001"/>
<text text-anchor="middle" x="167" y="-75.9" style="font-family:Times New Roman;font-size:14.00;">ye1</text>
</g>
<!-- ErrorQYe -->
<g id="node5" class="node"><title>ErrorQYe</title>
<ellipse style="fill:none;stroke:black;" cx="646" cy="-123" rx="54.2008" ry="54.2008"/>
<ellipse style="fill:none;stroke:black;" cx="646" cy="-123" rx="58.2008" ry="58.2008"/>
<text text-anchor="middle" x="646" y="-118.9" style="font-family:Times New Roman;font-size:14.00;">ErrorQYe</text>
</g>
<!-- UlYeError&#45;&gt;ErrorQYe -->
<g id="edge4" class="edge"><title>UlYeError&#45;&gt;ErrorQYe</title>
<path style="fill:none;stroke:black;" d="M524,-139C539,-141 555,-143 570,-141 573,-140 576,-140 580,-139"/>
<polygon style="fill:black;stroke:black;" points="580.398,-142.478 590,-138 579.701,-135.512 580.398,-142.478"/>
<text text-anchor="middle" x="557" y="-144.9" style="font-family:Times New Roman;font-size:14.00;">ue</text>
</g>
<!-- ErrorQYe&#45;&gt;UlYeError -->
<g id="edge6" class="edge"><title>ErrorQYe&#45;&gt;UlYeError</title>
<path style="fill:none;stroke:black;" d="M588,-119C582,-119 576,-119 570,-119 559,-118 547,-119 536,-119"/>
<polygon style="fill:black;stroke:black;" points="536,-115.5 526,-119 536,-122.5 536,-115.5"/>
<text text-anchor="middle" x="557" y="-122.9" style="font-family:Times New Roman;font-size:14.00;">ye1</text>
</g>
<!-- ErrorQYe&#45;&gt;UlYeError -->
<g id="edge8" class="edge"><title>ErrorQYe&#45;&gt;UlYeError</title>
<path style="fill:none;stroke:black;" d="M592,-101C585,-99 577,-97 570,-96 557,-94 544,-94 531,-97"/>
<polygon style="fill:black;stroke:black;" points="530.119,-93.6067 521,-99 531.492,-100.471 530.119,-93.6067"/>
<text text-anchor="middle" x="557" y="-99.9" style="font-family:Times New Roman;font-size:14.00;">ye2</text>
</g>
<!-- 5 -->
<g id="node7" class="node"><title>5</title>
<ellipse style="fill:none;stroke:black;" cx="326" cy="-72" rx="18" ry="18"/>
<ellipse style="fill:none;stroke:black;" cx="326" cy="-72" rx="22" ry="22"/>
<text text-anchor="middle" x="326" y="-67.9" style="font-family:Times New Roman;font-size:14.00;">5</text>
</g>
<!-- 4&#45;&gt;5 -->
<g id="edge14" class="edge"><title>4&#45;&gt;5</title>
<path style="fill:none;stroke:black;" d="M242,-72C257,-72 277,-72 294,-72"/>
<polygon style="fill:black;stroke:black;" points="294,-75.5001 304,-72 294,-68.5001 294,-75.5001"/>
<text text-anchor="middle" x="273" y="-75.9" style="font-family:Times New Roman;font-size:14.00;">yl</text>
</g>
<!-- 5&#45;&gt;UlYeError -->
<g id="edge18" class="edge"><title>5&#45;&gt;UlYeError</title>
<path style="fill:none;stroke:black;" d="M347,-79C359,-84 374,-89 388,-94 392,-95 396,-96 399,-98"/>
<polygon style="fill:black;stroke:black;" points="398.415,-101.536 409,-102 401.015,-95.0364 398.415,-101.536"/>
<text text-anchor="middle" x="377" y="-97.9" style="font-family:Times New Roman;font-size:14.00;">ul2</text>
</g>
<!-- 6 -->
<g id="node8" class="node"><title>6</title>
<ellipse style="fill:none;stroke:black;" cx="466" cy="-22" rx="18" ry="18"/>
<ellipse style="fill:none;stroke:black;" cx="466" cy="-22" rx="22" ry="22"/>
<text text-anchor="middle" x="466" y="-17.9" style="font-family:Times New Roman;font-size:14.00;">6</text>
</g>
<!-- 5&#45;&gt;6 -->
<g id="edge16" class="edge"><title>5&#45;&gt;6</title>
<path style="fill:none;stroke:black;" d="M346,-62C352,-59 359,-56 366,-54 389,-45 415,-37 435,-31"/>
<polygon style="fill:black;stroke:black;" points="436.427,-34.2259 445,-28 434.416,-27.5212 436.427,-34.2259"/>
<text text-anchor="middle" x="377" y="-60.9" style="font-family:Times New Roman;font-size:14.00;">ul1</text>
</g>
<!-- 6&#45;&gt;3 -->
<g id="edge20" class="edge"><title>6&#45;&gt;3</title>
<path style="fill:none;stroke:black;" d="M444,-21C398,-21 288,-22 198,-41 180,-45 160,-53 143,-59"/>
<polygon style="fill:black;stroke:black;" points="141.717,-55.7402 134,-63 144.56,-62.1369 141.717,-55.7402"/>
<text text-anchor="middle" x="273" y="-36.9" style="font-family:Times New Roman;font-size:14.00;">ue</text>
</g>
</g>
</svg>
