<?xml version="1.0" encoding="UTF-8" standalone="no"?>
<!DOCTYPE svg PUBLIC "-//W3C//DTD SVG 1.0//EN"
 "http://www.w3.org/TR/2001/REC-SVG-20010904/DTD/svg10.dtd">
<!-- Generated by dot version 2.2 (Tue Sep 13 00:37:56 UTC 2005)
     For user: (msperk) Perk_Sebastian, Betreuer=Moor, mitarb, 01/05    Title: HioSynth(plant_A,spec_A)_E_    Pages: 1 -->
<svg width="732pt" height="269pt"
 viewBox = "-1 -1 731 268"
 xmlns="http://www.w3.org/2000/svg">
<g id="graph0" class="graph" transform = "scale(0.266667)"
 style="font-family:Times-Roman;font-size:14.00;">
<title>HioSynth(plant_A,spec_A)_E_</title>
<g id="node1" class="node"><title>dot_dummyinit_1</title>
</g>
<g id="node3" class="node"><title>1</title>
<ellipse cx="119" cy="148" rx="18" ry="18" style="fill:none;stroke:black;"/>
<ellipse cx="119" cy="148" rx="22" ry="22" style="fill:none;stroke:black;"/>
<text text-anchor="middle" x="119" y="153">1</text>
</g>
<g id="edge2" class="edge"><title>dot_dummyinit_1&#45;&gt;1</title>
<path style="fill:none;stroke:black;" d="M59,148C68,148 77,148 87,148"/>
<polygon style="fill:black;stroke:black;" points="87,144 97,148 87,151 87,144"/>
</g>
<g id="node4" class="node"><title>2</title>
<ellipse cx="2557" cy="413" rx="18" ry="18" style="fill:none;stroke:black;"/>
<ellipse cx="2557" cy="413" rx="22" ry="22" style="fill:none;stroke:black;"/>
<text text-anchor="middle" x="2557" y="418">2</text>
</g>
<g id="edge6" class="edge"><title>1&#45;&gt;2</title>
<path style="fill:none;stroke:black;" d="M128,128C134,113 145,95 159,82 190,56 202,44 242,44 242,44 242,44 2428,44 2470,44 2487,50 2513,82 2568,150 2544,188 2554,274 2555,285 2556,343 2557,381"/>
<polygon style="fill:black;stroke:black;" points="2561,381 2557,391 2554,381 2561,381"/>
<text text-anchor="middle" x="1312" y="41">E_full</text>
</g>
<g id="edge8" class="edge"><title>1&#45;&gt;2</title>
<path style="fill:none;stroke:black;" d="M137,135C160,119 202,96 242,96 242,96 242,96 2428,96 2470,96 2486,103 2513,134 2556,183 2545,210 2554,274 2556,285 2557,343 2557,381"/>
<polygon style="fill:black;stroke:black;" points="2561,381 2557,391 2554,381 2561,381"/>
<text text-anchor="middle" x="1312" y="93">E_arrtl</text>
</g>
<g id="edge10" class="edge"><title>1&#45;&gt;2</title>
<path style="fill:none;stroke:black;" d="M141,148C166,148 207,148 242,148 242,148 242,148 2428,148 2508,148 2537,197 2554,274 2555,280 2556,341 2557,381"/>
<polygon style="fill:black;stroke:black;" points="2561,381 2557,391 2554,381 2561,381"/>
<text text-anchor="middle" x="1312" y="145">E_arrtr</text>
</g>
<g id="node23" class="node"><title>21</title>
<ellipse cx="242" cy="244" rx="21" ry="21" style="fill:none;stroke:black;"/>
<ellipse cx="242" cy="244" rx="25" ry="25" style="fill:none;stroke:black;"/>
<text text-anchor="middle" x="242" y="249">21</text>
</g>
<g id="edge4" class="edge"><title>1&#45;&gt;21</title>
<path style="fill:none;stroke:black;" d="M136,162C157,177 190,204 214,223"/>
<polygon style="fill:black;stroke:black;" points="216,220 222,229 212,226 216,220"/>
<text text-anchor="middle" x="179" y="178">E_wait</text>
</g>
<g id="node7" class="node"><title>5</title>
<ellipse cx="2683" cy="413" rx="18" ry="18" style="fill:none;stroke:black;"/>
<ellipse cx="2683" cy="413" rx="22" ry="22" style="fill:none;stroke:black;"/>
<text text-anchor="middle" x="2683" y="418">5</text>
</g>
<g id="edge12" class="edge"><title>2&#45;&gt;5</title>
<path style="fill:none;stroke:black;" d="M2562,391C2569,359 2585,301 2601,289 2617,279 2628,279 2643,289 2658,301 2670,348 2677,381"/>
<polygon style="fill:black;stroke:black;" points="2680,381 2679,391 2674,382 2680,381"/>
<text text-anchor="middle" x="2622" y="279">E_r</text>
</g>
<g id="edge14" class="edge"><title>2&#45;&gt;5</title>
<path style="fill:none;stroke:black;" d="M2564,392C2570,375 2582,352 2601,341 2618,332 2627,332 2643,341 2659,350 2668,367 2674,382"/>
<polygon style="fill:black;stroke:black;" points="2678,381 2678,392 2671,384 2678,381"/>
<text text-anchor="middle" x="2622" y="332">E_l</text>
</g>
<g id="edge16" class="edge"><title>2&#45;&gt;5</title>
<path style="fill:none;stroke:black;" d="M2577,402C2584,399 2593,395 2601,393 2620,390 2625,389 2643,393 2647,394 2651,395 2655,397"/>
<polygon style="fill:black;stroke:black;" points="2656,394 2664,401 2653,400 2656,394"/>
<text text-anchor="middle" x="2622" y="388">E_stp</text>
</g>
<g id="node5" class="node"><title>3</title>
<ellipse cx="1251" cy="419" rx="18" ry="18" style="fill:none;stroke:black;"/>
<ellipse cx="1251" cy="419" rx="22" ry="22" style="fill:none;stroke:black;"/>
<text text-anchor="middle" x="1251" y="424">3</text>
</g>
<g id="node17" class="node"><title>15</title>
<ellipse cx="1376" cy="419" rx="21" ry="21" style="fill:none;stroke:black;"/>
<ellipse cx="1376" cy="419" rx="25" ry="25" style="fill:none;stroke:black;"/>
<text text-anchor="middle" x="1376" y="424">15</text>
</g>
<g id="edge18" class="edge"><title>3&#45;&gt;15</title>
<path style="fill:none;stroke:black;" d="M1273,419C1292,419 1319,419 1341,419"/>
<polygon style="fill:black;stroke:black;" points="1341,415 1351,419 1341,422 1341,415"/>
<text text-anchor="middle" x="1312" y="416">E_stp</text>
</g>
<g id="node6" class="node"><title>4</title>
<ellipse cx="1745" cy="581" rx="18" ry="18" style="fill:none;stroke:black;"/>
<ellipse cx="1745" cy="581" rx="22" ry="22" style="fill:none;stroke:black;"/>
<text text-anchor="middle" x="1745" y="586">4</text>
</g>
<g id="node21" class="node"><title>19</title>
<ellipse cx="1871" cy="737" rx="21" ry="21" style="fill:none;stroke:black;"/>
<ellipse cx="1871" cy="737" rx="25" ry="25" style="fill:none;stroke:black;"/>
<text text-anchor="middle" x="1871" y="742">19</text>
</g>
<g id="edge20" class="edge"><title>4&#45;&gt;19</title>
<path style="fill:none;stroke:black;" d="M1759,598C1781,625 1822,677 1848,709"/>
<polygon style="fill:black;stroke:black;" points="1851,707 1855,717 1846,712 1851,707"/>
<text text-anchor="middle" x="1806" y="627">E_r</text>
</g>
<g id="node24" class="node"><title>22</title>
<ellipse cx="1871" cy="581" rx="21" ry="21" style="fill:none;stroke:black;"/>
<ellipse cx="1871" cy="581" rx="25" ry="25" style="fill:none;stroke:black;"/>
<text text-anchor="middle" x="1871" y="586">22</text>
</g>
<g id="edge22" class="edge"><title>4&#45;&gt;22</title>
<path style="fill:none;stroke:black;" d="M1767,581C1786,581 1813,581 1835,581"/>
<polygon style="fill:black;stroke:black;" points="1835,577 1845,581 1835,584 1835,577"/>
<text text-anchor="middle" x="1806" y="578">E_stp</text>
</g>
<g id="edge24" class="edge"><title>5&#45;&gt;2</title>
<path style="fill:none;stroke:black;" d="M2661,415C2655,416 2649,416 2643,416 2625,417 2620,417 2601,416 2597,416 2593,416 2589,416"/>
<polygon style="fill:black;stroke:black;" points="2589,419 2579,415 2589,413 2589,419"/>
<text text-anchor="middle" x="2622" y="413">E_wait</text>
</g>
<g id="edge26" class="edge"><title>5&#45;&gt;2</title>
<path style="fill:none;stroke:black;" d="M2665,427C2659,431 2651,435 2643,437 2626,442 2620,442 2601,437 2593,435 2588,434 2583,432"/>
<polygon style="fill:black;stroke:black;" points="2582,435 2574,428 2585,429 2582,435"/>
<text text-anchor="middle" x="2622" y="434">E_full</text>
</g>
<g id="edge28" class="edge"><title>5&#45;&gt;2</title>
<path style="fill:none;stroke:black;" d="M2676,434C2668,449 2662,455 2643,462 2626,469 2619,468 2601,462 2585,456 2576,453 2567,443"/>
<polygon style="fill:black;stroke:black;" points="2564,445 2561,435 2570,441 2564,445"/>
<text text-anchor="middle" x="2622" y="459">E_arrtl</text>
</g>
<g id="edge30" class="edge"><title>5&#45;&gt;2</title>
<path style="fill:none;stroke:black;" d="M2680,435C2670,462 2669,475 2643,488 2627,497 2619,496 2601,488 2579,479 2571,471 2561,445"/>
<polygon style="fill:black;stroke:black;" points="2558,446 2558,435 2564,444 2558,446"/>
<text text-anchor="middle" x="2622" y="485">E_arrtr</text>
</g>
<g id="node8" class="node"><title>6</title>
<ellipse cx="730" cy="320" rx="18" ry="18" style="fill:none;stroke:black;"/>
<ellipse cx="730" cy="320" rx="22" ry="22" style="fill:none;stroke:black;"/>
<text text-anchor="middle" x="730" y="325">6</text>
</g>
<g id="node20" class="node"><title>18</title>
<ellipse cx="604" cy="288" rx="21" ry="21" style="fill:none;stroke:black;"/>
<ellipse cx="604" cy="288" rx="25" ry="25" style="fill:none;stroke:black;"/>
<text text-anchor="middle" x="604" y="293">18</text>
</g>
<g id="edge32" class="edge"><title>6&#45;&gt;18</title>
<path style="fill:none;stroke:black;" d="M708,314C689,310 660,302 638,297"/>
<polygon style="fill:black;stroke:black;" points="637,300 628,294 639,294 637,300"/>
<text text-anchor="middle" x="667" y="297">E_r</text>
</g>
<g id="node22" class="node"><title>20</title>
<ellipse cx="869" cy="320" rx="21" ry="21" style="fill:none;stroke:black;"/>
<ellipse cx="869" cy="320" rx="25" ry="25" style="fill:none;stroke:black;"/>
<text text-anchor="middle" x="869" y="325">20</text>
</g>
<g id="edge34" class="edge"><title>6&#45;&gt;20</title>
<path style="fill:none;stroke:black;" d="M752,320C774,320 807,320 833,320"/>
<polygon style="fill:black;stroke:black;" points="833,316 843,320 833,323 833,316"/>
<text text-anchor="middle" x="799" y="317">E_FULL</text>
</g>
<g id="node9" class="node"><title>7</title>
<ellipse cx="1631" cy="565" rx="18" ry="18" style="fill:none;stroke:black;"/>
<ellipse cx="1631" cy="565" rx="22" ry="22" style="fill:none;stroke:black;"/>
<text text-anchor="middle" x="1631" y="570">7</text>
</g>
<g id="edge36" class="edge"><title>7&#45;&gt;3</title>
<path style="fill:none;stroke:black;" d="M1609,565C1569,565 1484,561 1419,533 1364,509 1307,466 1276,440"/>
<polygon style="fill:black;stroke:black;" points="1274,443 1268,434 1278,437 1274,443"/>
<text text-anchor="middle" x="1439" y="530">E_STP</text>
</g>
<g id="edge38" class="edge"><title>7&#45;&gt;4</title>
<path style="fill:none;stroke:black;" d="M1653,568C1670,571 1694,574 1713,577"/>
<polygon style="fill:black;stroke:black;" points="1713,574 1723,578 1713,580 1713,574"/>
<text text-anchor="middle" x="1688" y="569">E_TR</text>
</g>
<g id="node10" class="node"><title>8</title>
<ellipse cx="1499" cy="515" rx="18" ry="18" style="fill:none;stroke:black;"/>
<ellipse cx="1499" cy="515" rx="22" ry="22" style="fill:none;stroke:black;"/>
<text text-anchor="middle" x="1499" y="520">8</text>
</g>
<g id="edge40" class="edge"><title>8&#45;&gt;7</title>
<path style="fill:none;stroke:black;" d="M1520,523C1542,531 1576,544 1600,553"/>
<polygon style="fill:black;stroke:black;" points="1602,550 1610,557 1599,557 1602,550"/>
<text text-anchor="middle" x="1565" y="528">E_WAIT</text>
</g>
<g id="node11" class="node"><title>9</title>
<ellipse cx="377" cy="288" rx="18" ry="18" style="fill:none;stroke:black;"/>
<ellipse cx="377" cy="288" rx="22" ry="22" style="fill:none;stroke:black;"/>
<text text-anchor="middle" x="377" y="293">9</text>
</g>
<g id="node25" class="node"><title>23</title>
<ellipse cx="2557" cy="912" rx="21" ry="21" style="fill:none;stroke:black;"/>
<ellipse cx="2557" cy="912" rx="25" ry="25" style="fill:none;stroke:black;"/>
<text text-anchor="middle" x="2557" y="917">23</text>
</g>
<g id="edge42" class="edge"><title>9&#45;&gt;23</title>
<path style="fill:none;stroke:black;" d="M379,310C388,423 431,931 495,931 495,931 495,931 2428,931 2460,931 2496,926 2521,920"/>
<polygon style="fill:black;stroke:black;" points="2521,917 2531,918 2522,923 2521,917"/>
<text text-anchor="middle" x="1439" y="928">E_STP</text>
</g>
<g id="node28" class="node"><title>26</title>
<ellipse cx="495" cy="288" rx="21" ry="21" style="fill:none;stroke:black;"/>
<ellipse cx="495" cy="288" rx="25" ry="25" style="fill:none;stroke:black;"/>
<text text-anchor="middle" x="495" y="293">26</text>
</g>
<g id="edge44" class="edge"><title>9&#45;&gt;26</title>
<path style="fill:none;stroke:black;" d="M399,288C416,288 439,288 459,288"/>
<polygon style="fill:black;stroke:black;" points="459,284 469,288 459,291 459,284"/>
<text text-anchor="middle" x="434" y="285">E_FL</text>
</g>
<g id="node12" class="node"><title>10</title>
<ellipse cx="2232" cy="877" rx="21" ry="21" style="fill:none;stroke:black;"/>
<ellipse cx="2232" cy="877" rx="25" ry="25" style="fill:none;stroke:black;"/>
<text text-anchor="middle" x="2232" y="882">10</text>
</g>
<g id="edge46" class="edge"><title>10&#45;&gt;23</title>
<path style="fill:none;stroke:black;" d="M2257,880C2314,886 2455,901 2521,908"/>
<polygon style="fill:black;stroke:black;" points="2521,905 2531,909 2521,911 2521,905"/>
<text text-anchor="middle" x="2365" y="885">E_STP</text>
</g>
<g id="node13" class="node"><title>11</title>
<ellipse cx="730" cy="397" rx="20" ry="20" style="fill:none;stroke:black;"/>
<ellipse cx="730" cy="397" rx="24" ry="24" style="fill:none;stroke:black;"/>
<text text-anchor="middle" x="730" y="402">11</text>
</g>
<g id="node29" class="node"><title>27</title>
<ellipse cx="938" cy="417" rx="21" ry="21" style="fill:none;stroke:black;"/>
<ellipse cx="938" cy="417" rx="25" ry="25" style="fill:none;stroke:black;"/>
<text text-anchor="middle" x="938" y="422">27</text>
</g>
<g id="edge48" class="edge"><title>11&#45;&gt;27</title>
<path style="fill:none;stroke:black;" d="M755,399C792,403 861,410 903,414"/>
<polygon style="fill:black;stroke:black;" points="903,411 913,415 903,417 903,411"/>
<text text-anchor="middle" x="799" y="399">E_FULL</text>
</g>
<g id="node14" class="node"><title>12</title>
<ellipse cx="2000" cy="766" rx="21" ry="21" style="fill:none;stroke:black;"/>
<ellipse cx="2000" cy="766" rx="25" ry="25" style="fill:none;stroke:black;"/>
<text text-anchor="middle" x="2000" y="771">12</text>
</g>
<g id="edge50" class="edge"><title>12&#45;&gt;19</title>
<path style="fill:none;stroke:black;" d="M1982,783C1975,788 1966,794 1957,797 1940,802 1932,805 1915,797 1903,791 1894,779 1886,769"/>
<polygon style="fill:black;stroke:black;" points="1883,770 1881,760 1889,767 1883,770"/>
<text text-anchor="middle" x="1936" y="791">E_r</text>
</g>
<g id="node27" class="node"><title>25</title>
<ellipse cx="2157" cy="767" rx="21" ry="21" style="fill:none;stroke:black;"/>
<ellipse cx="2157" cy="767" rx="25" ry="25" style="fill:none;stroke:black;"/>
<text text-anchor="middle" x="2157" y="772">25</text>
</g>
<g id="edge52" class="edge"><title>12&#45;&gt;25</title>
<path style="fill:none;stroke:black;" d="M2025,766C2051,766 2092,766 2121,767"/>
<polygon style="fill:black;stroke:black;" points="2121,763 2131,767 2121,770 2121,763"/>
<text text-anchor="middle" x="2075" y="763">E_ARRTR</text>
</g>
<g id="node15" class="node"><title>13</title>
<ellipse cx="2075" cy="865" rx="21" ry="21" style="fill:none;stroke:black;"/>
<ellipse cx="2075" cy="865" rx="25" ry="25" style="fill:none;stroke:black;"/>
<text text-anchor="middle" x="2075" y="870">13</text>
</g>
<g id="edge54" class="edge"><title>13&#45;&gt;10</title>
<path style="fill:none;stroke:black;" d="M2100,867C2127,869 2168,872 2197,874"/>
<polygon style="fill:black;stroke:black;" points="2197,871 2207,875 2197,877 2197,871"/>
<text text-anchor="middle" x="2157" y="865">E_ARRTR</text>
</g>
<g id="node16" class="node"><title>14</title>
<ellipse cx="1006" cy="320" rx="21" ry="21" style="fill:none;stroke:black;"/>
<ellipse cx="1006" cy="320" rx="25" ry="25" style="fill:none;stroke:black;"/>
<text text-anchor="middle" x="1006" y="325">14</text>
</g>
<g id="node18" class="node"><title>16</title>
<ellipse cx="1132" cy="329" rx="21" ry="21" style="fill:none;stroke:black;"/>
<ellipse cx="1132" cy="329" rx="25" ry="25" style="fill:none;stroke:black;"/>
<text text-anchor="middle" x="1132" y="334">16</text>
</g>
<g id="edge56" class="edge"><title>14&#45;&gt;16</title>
<path style="fill:none;stroke:black;" d="M1028,332C1035,335 1042,338 1049,339 1065,342 1083,341 1098,338"/>
<polygon style="fill:black;stroke:black;" points="1098,335 1108,336 1099,341 1098,335"/>
<text text-anchor="middle" x="1069" y="336">E_r</text>
</g>
<g id="edge60" class="edge"><title>15&#45;&gt;2</title>
<path style="fill:none;stroke:black;" d="M1397,432C1421,446 1462,465 1499,465 1499,465 1499,465 1871,465 2157,465 2232,480 2513,427 2517,426 2522,426 2526,424"/>
<polygon style="fill:black;stroke:black;" points="2525,421 2536,421 2527,427 2525,421"/>
<text text-anchor="middle" x="1936" y="464">E_full</text>
</g>
<g id="edge62" class="edge"><title>15&#45;&gt;2</title>
<path style="fill:none;stroke:black;" d="M1398,406C1422,393 1462,375 1499,375 1499,375 1499,375 1745,375 1859,375 1887,361 2000,361 2000,361 2000,361 2428,361 2465,361 2505,380 2530,395"/>
<polygon style="fill:black;stroke:black;" points="2532,392 2539,400 2529,398 2532,392"/>
<text text-anchor="middle" x="1936" y="360">E_arrtl</text>
</g>
<g id="edge64" class="edge"><title>15&#45;&gt;2</title>
<path style="fill:none;stroke:black;" d="M1401,417C1426,415 1465,413 1499,413 1499,413 1499,413 2428,413 2461,413 2499,413 2525,413"/>
<polygon style="fill:black;stroke:black;" points="2525,409 2535,413 2525,416 2525,409"/>
<text text-anchor="middle" x="1936" y="410">E_arrtr</text>
</g>
<g id="edge58" class="edge"><title>15&#45;&gt;8</title>
<path style="fill:none;stroke:black;" d="M1384,443C1391,460 1402,482 1419,495 1433,506 1451,511 1467,513"/>
<polygon style="fill:black;stroke:black;" points="1467,510 1477,514 1467,516 1467,510"/>
<text text-anchor="middle" x="1439" y="492">E_wait</text>
</g>
<g id="edge70" class="edge"><title>16&#45;&gt;2</title>
<path style="fill:none;stroke:black;" d="M1157,329C1182,329 1219,329 1251,329 1251,329 1251,329 1745,329 1859,329 1887,317 2000,317 2000,317 2000,317 2428,317 2489,317 2516,336 2546,382"/>
<polygon style="fill:black;stroke:black;" points="2549,381 2552,391 2544,385 2549,381"/>
<text text-anchor="middle" x="1806" y="325">E_arrtl</text>
</g>
<g id="edge72" class="edge"><title>16&#45;&gt;2</title>
<path style="fill:none;stroke:black;" d="M1154,317C1178,306 1216,290 1251,290 1251,290 1251,290 1499,290 1665,290 1706,277 1871,277 1871,277 1871,277 2428,277 2471,277 2482,292 2513,319 2536,340 2542,349 2553,381"/>
<polygon style="fill:black;stroke:black;" points="2556,380 2556,391 2550,382 2556,380"/>
<text text-anchor="middle" x="1806" y="276">E_arrtr</text>
</g>
<g id="edge68" class="edge"><title>16&#45;&gt;3</title>
<path style="fill:none;stroke:black;" d="M1152,344C1172,359 1204,383 1225,400"/>
<polygon style="fill:black;stroke:black;" points="1227,397 1233,406 1223,403 1227,397"/>
<text text-anchor="middle" x="1193" y="359">E_full</text>
</g>
<g id="edge66" class="edge"><title>16&#45;&gt;14</title>
<path style="fill:none;stroke:black;" d="M1107,323C1101,321 1095,320 1089,319 1074,317 1056,317 1041,318"/>
<polygon style="fill:black;stroke:black;" points="1041,321 1031,318 1041,314 1041,321"/>
<text text-anchor="middle" x="1069" y="315">E_wait</text>
</g>
<g id="node19" class="node"><title>17</title>
<ellipse cx="2428" cy="795" rx="20" ry="20" style="fill:none;stroke:black;"/>
<ellipse cx="2428" cy="795" rx="24" ry="24" style="fill:none;stroke:black;"/>
<text text-anchor="middle" x="2428" y="800">17</text>
</g>
<g id="edge76" class="edge"><title>17&#45;&gt;2</title>
<path style="fill:none;stroke:black;" d="M2450,784C2470,773 2499,754 2513,729 2542,681 2552,515 2556,445"/>
<polygon style="fill:black;stroke:black;" points="2553,445 2556,435 2560,445 2553,445"/>
<text text-anchor="middle" x="2492" y="726">E_full</text>
</g>
<g id="edge78" class="edge"><title>17&#45;&gt;2</title>
<path style="fill:none;stroke:black;" d="M2452,801C2471,804 2497,805 2513,791 2563,748 2551,562 2554,495 2556,479 2556,461 2557,445"/>
<polygon style="fill:black;stroke:black;" points="2554,445 2557,435 2561,445 2554,445"/>
<text text-anchor="middle" x="2492" y="788">E_arrtl</text>
</g>
<g id="edge80" class="edge"><title>17&#45;&gt;23</title>
<path style="fill:none;stroke:black;" d="M2446,812C2468,832 2505,865 2530,887"/>
<polygon style="fill:black;stroke:black;" points="2533,885 2538,894 2528,890 2533,885"/>
<text text-anchor="middle" x="2492" y="828">E_arrtr</text>
</g>
<g id="node26" class="node"><title>24</title>
<ellipse cx="2301" cy="767" rx="21" ry="21" style="fill:none;stroke:black;"/>
<ellipse cx="2301" cy="767" rx="25" ry="25" style="fill:none;stroke:black;"/>
<text text-anchor="middle" x="2301" y="772">24</text>
</g>
<g id="edge74" class="edge"><title>17&#45;&gt;24</title>
<path style="fill:none;stroke:black;" d="M2404,790C2384,786 2358,780 2336,775"/>
<polygon style="fill:black;stroke:black;" points="2335,778 2326,773 2336,772 2335,778"/>
<text text-anchor="middle" x="2365" y="773">E_wait</text>
</g>
<g id="edge86" class="edge"><title>18&#45;&gt;2</title>
<path style="fill:none;stroke:black;" d="M616,266C624,254 635,240 647,230 679,205 690,194 730,194 730,194 730,194 1251,194 1391,194 1426,192 1565,192 1565,192 1565,192 2428,192 2468,192 2486,191 2513,219 2563,272 2542,305 2554,376 2554,378 2555,379 2555,381"/>
<polygon style="fill:black;stroke:black;" points="2558,381 2556,391 2552,381 2558,381"/>
<text text-anchor="middle" x="1565" y="189">E_arrtl</text>
</g>
<g id="edge88" class="edge"><title>18&#45;&gt;2</title>
<path style="fill:none;stroke:black;" d="M626,275C651,262 692,244 730,244 730,244 730,244 1499,244 1665,244 1706,233 1871,233 1871,233 1871,233 2428,233 2503,233 2513,286 2545,353 2548,359 2549,361 2551,366 2553,371 2554,372 2554,376 2554,377 2555,379 2555,381"/>
<polygon style="fill:black;stroke:black;" points="2558,381 2556,391 2552,381 2558,381"/>
<text text-anchor="middle" x="1565" y="241">E_arrtr</text>
</g>
<g id="edge82" class="edge"><title>18&#45;&gt;6</title>
<path style="fill:none;stroke:black;" d="M616,311C623,320 631,325 647,330 664,337 683,334 699,331"/>
<polygon style="fill:black;stroke:black;" points="698,328 709,328 700,334 698,328"/>
<text text-anchor="middle" x="667" y="327">E_wait</text>
</g>
<g id="edge84" class="edge"><title>18&#45;&gt;11</title>
<path style="fill:none;stroke:black;" d="M607,313C618,336 627,340 647,356 663,368 682,377 698,384"/>
<polygon style="fill:black;stroke:black;" points="699,381 707,388 696,387 699,381"/>
<text text-anchor="middle" x="667" y="353">E_full</text>
</g>
<g id="edge92" class="edge"><title>19&#45;&gt;2</title>
<path style="fill:none;stroke:black;" d="M1889,719C1897,713 1906,706 1915,701 2161,586 2305,751 2513,578 2543,554 2540,536 2548,498 2552,482 2553,478 2554,461 2555,456 2555,451 2556,445"/>
<polygon style="fill:black;stroke:black;" points="2553,445 2556,435 2560,445 2553,445"/>
<text text-anchor="middle" x="2232" y="658">E_full</text>
</g>
<g id="edge94" class="edge"><title>19&#45;&gt;2</title>
<path style="fill:none;stroke:black;" d="M1895,731C1902,730 1909,728 1915,727 2153,686 2227,735 2453,649 2482,639 2493,639 2513,616 2541,586 2536,570 2545,529 2551,504 2552,497 2554,470 2555,462 2555,454 2556,445"/>
<polygon style="fill:black;stroke:black;" points="2553,445 2557,435 2559,445 2553,445"/>
<text text-anchor="middle" x="2232" y="698">E_arrtl</text>
</g>
<g id="edge90" class="edge"><title>19&#45;&gt;12</title>
<path style="fill:none;stroke:black;" d="M1896,743C1916,747 1944,753 1966,758"/>
<polygon style="fill:black;stroke:black;" points="1967,755 1976,761 1965,761 1967,755"/>
<text text-anchor="middle" x="1936" y="744">E_wait</text>
</g>
<g id="edge96" class="edge"><title>19&#45;&gt;13</title>
<path style="fill:none;stroke:black;" d="M1872,762C1872,765 1873,768 1873,769 1884,796 1891,804 1915,821 1953,845 2006,857 2040,862"/>
<polygon style="fill:black;stroke:black;" points="2040,859 2050,863 2040,865 2040,859"/>
<text text-anchor="middle" x="1936" y="815">E_arrtr</text>
</g>
<g id="edge98" class="edge"><title>20&#45;&gt;14</title>
<path style="fill:none;stroke:black;" d="M895,320C917,320 947,320 971,320"/>
<polygon style="fill:black;stroke:black;" points="971,316 981,320 971,323 971,316"/>
<text text-anchor="middle" x="938" y="317">E_STP</text>
</g>
<g id="edge100" class="edge"><title>21&#45;&gt;9</title>
<path style="fill:none;stroke:black;" d="M266,252C289,259 322,270 346,278"/>
<polygon style="fill:black;stroke:black;" points="347,275 356,281 345,281 347,275"/>
<text text-anchor="middle" x="311" y="256">E_WAIT</text>
</g>
<g id="edge104" class="edge"><title>22&#45;&gt;2</title>
<path style="fill:none;stroke:black;" d="M1895,571C1921,562 1963,549 2000,549 2000,549 2000,549 2428,549 2470,549 2484,541 2513,511 2532,493 2543,465 2549,444"/>
<polygon style="fill:black;stroke:black;" points="2546,443 2552,434 2552,445 2546,443"/>
<text text-anchor="middle" x="2232" y="546">E_full</text>
</g>
<g id="edge106" class="edge"><title>22&#45;&gt;2</title>
<path style="fill:none;stroke:black;" d="M1897,584C2006,595 2420,631 2513,549 2549,519 2544,496 2553,445"/>
<polygon style="fill:black;stroke:black;" points="2550,444 2555,435 2556,445 2550,444"/>
<text text-anchor="middle" x="2232" y="599">E_arrtl</text>
</g>
<g id="edge108" class="edge"><title>22&#45;&gt;2</title>
<path style="fill:none;stroke:black;" d="M1885,559C1893,553 1902,551 1915,546 1941,537 1949,541 1975,537 2095,521 2408,526 2513,467 2525,461 2534,451 2541,441"/>
<polygon style="fill:black;stroke:black;" points="2539,438 2547,432 2544,442 2539,438"/>
<text text-anchor="middle" x="2232" y="516">E_arrtr</text>
</g>
<g id="edge102" class="edge"><title>22&#45;&gt;12</title>
<path style="fill:none;stroke:black;" d="M1888,601C1911,628 1952,681 1984,734"/>
<polygon style="fill:black;stroke:black;" points="1987,733 1989,743 1981,736 1987,733"/>
<text text-anchor="middle" x="1936" y="630">E_wait</text>
</g>
<g id="edge110" class="edge"><title>23&#45;&gt;1</title>
<path style="fill:none;stroke:black;" d="M2541,933C2507,967 2483,977 2428,977 242,977 242,977 242,977 160,977 127,333 120,180"/>
<polygon style="fill:black;stroke:black;" points="117,180 120,170 124,180 117,180"/>
<text text-anchor="middle" x="1312" y="974">E_stp</text>
</g>
<g id="edge112" class="edge"><title>24&#45;&gt;17</title>
<path style="fill:none;stroke:black;" d="M2315,789C2323,796 2331,799 2345,804 2361,809 2379,808 2394,805"/>
<polygon style="fill:black;stroke:black;" points="2394,802 2404,803 2395,808 2394,802"/>
<text text-anchor="middle" x="2365" y="798">E_r</text>
</g>
<g id="edge114" class="edge"><title>25&#45;&gt;24</title>
<path style="fill:none;stroke:black;" d="M2183,767C2206,767 2240,767 2265,767"/>
<polygon style="fill:black;stroke:black;" points="2265,763 2275,767 2265,770 2265,763"/>
<text text-anchor="middle" x="2232" y="764">E_STP</text>
</g>
<g id="edge116" class="edge"><title>26&#45;&gt;18</title>
<path style="fill:none;stroke:black;" d="M521,288C535,288 553,288 569,288"/>
<polygon style="fill:black;stroke:black;" points="569,284 579,288 569,291 569,284"/>
<text text-anchor="middle" x="550" y="285">E_r</text>
</g>
<g id="edge118" class="edge"><title>27&#45;&gt;3</title>
<path style="fill:none;stroke:black;" d="M963,417C1019,418 1156,419 1219,419"/>
<polygon style="fill:black;stroke:black;" points="1219,415 1229,419 1219,422 1219,415"/>
<text text-anchor="middle" x="1069" y="416">E_STP</text>
</g>
</g>
</svg>
