<?xml version="1.0" encoding="UTF-8" standalone="no"?>
<!DOCTYPE svg PUBLIC "-//W3C//DTD SVG 1.0//EN"
 "http://www.w3.org/TR/2001/REC-SVG-20010904/DTD/svg10.dtd" [
 <!ATTLIST svg xmlns:xlink CDATA #FIXED "http://www.w3.org/1999/xlink">
]>
<!-- Generated by Graphviz version 2.20.2 (Tue Mar &#160;2 21:46:26 UTC 2010)
     For user: (mtmoor) Prof. Thomas Moor -->
<!-- Title: Simple Machine_2 Pages: 1 -->
<svg width="470pt" height="74pt"
 viewBox="0.00 0.00 470.00 74.00" xmlns="http://www.w3.org/2000/svg" xmlns:xlink="http://www.w3.org/1999/xlink">
<g id="graph0" class="graph" transform="scale(1 1) rotate(0) translate(4 70)">
<title>Simple Machine_2</title>
<polygon style="fill:white;stroke:white;" points="-4,4 -4,-70 466,-70 466,4 -4,4"/>
<!-- dot_dummyinit_1 -->
<g id="node1" class="node"><title>dot_dummyinit_1</title>
</g>
<!-- I_Y -->
<g id="node3" class="node"><title>I_Y</title>
<ellipse style="fill:none;stroke:black;" cx="121" cy="-33" rx="25.2749" ry="25.2749"/>
<ellipse style="fill:none;stroke:black;" cx="121" cy="-33" rx="29.2071" ry="29.2071"/>
<text text-anchor="middle" x="121" y="-28.9" style="font-family:Times New Roman;font-size:14.00;">I_Y</text>
</g>
<!-- dot_dummyinit_1&#45;&gt;I_Y -->
<g id="edge2" class="edge"><title>dot_dummyinit_1&#45;&gt;I_Y</title>
<path style="fill:none;stroke:black;" d="M54,-33C63,-33 72,-33 82,-33"/>
<polygon style="fill:black;stroke:black;" points="82,-36.5001 92,-33 82,-29.5001 82,-36.5001"/>
</g>
<!-- I_U -->
<g id="node4" class="node"><title>I_U</title>
<ellipse style="fill:none;stroke:black;" cx="275" cy="-33" rx="27.1004" ry="27.1004"/>
<ellipse style="fill:none;stroke:black;" cx="275" cy="-33" rx="31.1004" ry="31.1004"/>
<text text-anchor="middle" x="275" y="-28.9" style="font-family:Times New Roman;font-size:14.00;">I_U</text>
</g>
<!-- I_Y&#45;&gt;I_U -->
<g id="edge4" class="edge"><title>I_Y&#45;&gt;I_U</title>
<path style="fill:none;stroke:black;" d="M150,-33C174,-33 208,-33 234,-33"/>
<polygon style="fill:black;stroke:black;" points="234,-36.5001 244,-33 234,-29.5001 234,-36.5001"/>
<text text-anchor="middle" x="197" y="-36.9" style="font-family:Times New Roman;font-size:14.00;">idle_2</text>
</g>
<!-- I_U&#45;&gt;I_Y -->
<g id="edge8" class="edge"><title>I_U&#45;&gt;I_Y</title>
<path style="fill:none;stroke:black;" d="M247,-18C241,-16 233,-13 226,-12 201,-7 194,-7 168,-12 164,-13 160,-14 157,-15"/>
<polygon style="fill:black;stroke:black;" points="154.985,-12.0364 147,-19 157.585,-18.5357 154.985,-12.0364"/>
<text text-anchor="middle" x="197" y="-16.9" style="font-family:Times New Roman;font-size:14.00;">no_op_2</text>
</g>
<!-- B_Y -->
<g id="node5" class="node"><title>B_Y</title>
<ellipse style="fill:none;stroke:black;" cx="429" cy="-33" rx="29.1851" ry="29.1851"/>
<ellipse style="fill:none;stroke:black;" cx="429" cy="-33" rx="33.1851" ry="33.1851"/>
<text text-anchor="middle" x="429" y="-28.9" style="font-family:Times New Roman;font-size:14.00;">B_Y</text>
</g>
<!-- I_U&#45;&gt;B_Y -->
<g id="edge6" class="edge"><title>I_U&#45;&gt;B_Y</title>
<path style="fill:none;stroke:black;" d="M306,-33C329,-33 360,-33 386,-33"/>
<polygon style="fill:black;stroke:black;" points="386,-36.5001 396,-33 386,-29.5001 386,-36.5001"/>
<text text-anchor="middle" x="351" y="-36.9" style="font-family:Times New Roman;font-size:14.00;">alpha_2</text>
</g>
<!-- B_Y&#45;&gt;I_U -->
<g id="edge10" class="edge"><title>B_Y&#45;&gt;I_U</title>
<path style="fill:none;stroke:black;" d="M399,-18C393,-15 385,-13 378,-12 355,-8 348,-8 324,-12 320,-13 316,-14 313,-15"/>
<polygon style="fill:black;stroke:black;" points="310.985,-12.0364 303,-19 313.585,-18.5357 310.985,-12.0364"/>
<text text-anchor="middle" x="351" y="-16.9" style="font-family:Times New Roman;font-size:14.00;">beta_2</text>
</g>
</g>
</svg>
