<?xml version="1.0" encoding="UTF-8" standalone="no"?>
<!DOCTYPE svg PUBLIC "-//W3C//DTD SVG 1.0//EN"
 "http://www.w3.org/TR/2001/REC-SVG-20010904/DTD/svg10.dtd" [
 <!ATTLIST svg xmlns:xlink CDATA #FIXED "http://www.w3.org/1999/xlink">
]>
<!-- Generated by Graphviz version 2.20.2 (Tue Mar &#160;2 21:46:26 UTC 2010)
     For user: (mtmoor) Prof. Thomas Moor -->
<!-- Title: Transport Unit A__B Pages: 1 -->
<svg width="720pt" height="98pt"
 viewBox="0.00 0.00 720.00 98.35" xmlns="http://www.w3.org/2000/svg" xmlns:xlink="http://www.w3.org/1999/xlink">
<g id="graph0" class="graph" transform="scale(0.630473 0.630473) rotate(0) translate(4 152)">
<title>Transport Unit A__B</title>
<polygon style="fill:white;stroke:white;" points="-4,4 -4,-152 1138,-152 1138,4 -4,4"/>
<!-- dot_dummyinit_1 -->
<g id="node1" class="node"><title>dot_dummyinit_1</title>
</g>
<!-- 1 -->
<g id="node3" class="node"><title>1</title>
<ellipse style="fill:none;stroke:black;" cx="114" cy="-33" rx="18" ry="18"/>
<ellipse style="fill:none;stroke:black;" cx="114" cy="-33" rx="22" ry="22"/>
<text text-anchor="middle" x="114" y="-28.9" style="font-family:Times New Roman;font-size:14.00;">1</text>
</g>
<!-- dot_dummyinit_1&#45;&gt;1 -->
<g id="edge2" class="edge"><title>dot_dummyinit_1&#45;&gt;1</title>
<path style="fill:none;stroke:black;" d="M54,-33C63,-33 72,-33 82,-33"/>
<polygon style="fill:black;stroke:black;" points="82,-36.5001 92,-33 82,-29.5001 82,-36.5001"/>
</g>
<!-- 2 -->
<g id="node4" class="node"><title>2</title>
<ellipse style="fill:none;stroke:black;" cx="256" cy="-63" rx="18" ry="18"/>
<ellipse style="fill:none;stroke:black;" cx="256" cy="-63" rx="22" ry="22"/>
<text text-anchor="middle" x="256" y="-58.9" style="font-family:Times New Roman;font-size:14.00;">2</text>
</g>
<!-- 1&#45;&gt;2 -->
<g id="edge4" class="edge"><title>1&#45;&gt;2</title>
<path style="fill:none;stroke:black;" d="M134,-43C140,-46 147,-49 154,-51 177,-57 204,-60 224,-61"/>
<polygon style="fill:black;stroke:black;" points="223.701,-64.4875 234,-62 224.398,-57.5222 223.701,-64.4875"/>
<text text-anchor="middle" x="185" y="-63.9" style="font-family:Times New Roman;font-size:14.00;">empty_A</text>
</g>
<!-- 2&#45;&gt;1 -->
<g id="edge10" class="edge"><title>2&#45;&gt;1</title>
<path style="fill:none;stroke:black;" d="M242,-45C235,-38 226,-31 216,-27 194,-18 166,-20 145,-25"/>
<polygon style="fill:black;stroke:black;" points="144.119,-21.6067 135,-27 145.492,-28.4708 144.119,-21.6067"/>
<text text-anchor="middle" x="185" y="-30.9" style="font-family:Times New Roman;font-size:14.00;">no_op_B</text>
</g>
<!-- 3 -->
<g id="node5" class="node"><title>3</title>
<ellipse style="fill:none;stroke:black;" cx="400" cy="-103" rx="18" ry="18"/>
<ellipse style="fill:none;stroke:black;" cx="400" cy="-103" rx="22" ry="22"/>
<text text-anchor="middle" x="400" y="-98.9" style="font-family:Times New Roman;font-size:14.00;">3</text>
</g>
<!-- 2&#45;&gt;3 -->
<g id="edge8" class="edge"><title>2&#45;&gt;3</title>
<path style="fill:none;stroke:black;" d="M277,-69C301,-75 341,-86 369,-94"/>
<polygon style="fill:black;stroke:black;" points="368.416,-97.4788 379,-97 370.427,-90.7741 368.416,-97.4788"/>
<text text-anchor="middle" x="328" y="-93.9" style="font-family:Times New Roman;font-size:14.00;">take_fl_A</text>
</g>
<!-- Err -->
<g id="node12" class="node"><title>Err</title>
<ellipse style="fill:none;stroke:black;" cx="965" cy="-57" rx="25.2749" ry="25.2749"/>
<ellipse style="fill:none;stroke:black;" cx="965" cy="-57" rx="29.2071" ry="29.2071"/>
<text text-anchor="middle" x="965" y="-52.9" style="font-family:Times New Roman;font-size:14.00;">Err</text>
</g>
<!-- 2&#45;&gt;Err -->
<g id="edge6" class="edge"><title>2&#45;&gt;Err</title>
<path style="fill:none;stroke:black;" d="M278,-61C306,-58 357,-53 400,-53 400,-53 400,-53 814,-53 852,-53 896,-55 926,-56"/>
<polygon style="fill:black;stroke:black;" points="926,-59.5001 936,-56 926,-52.5001 926,-59.5001"/>
<text text-anchor="middle" x="605" y="-56.9" style="font-family:Times New Roman;font-size:14.00;">del_tr_A</text>
</g>
<!-- 4 -->
<g id="node6" class="node"><title>4</title>
<ellipse style="fill:none;stroke:black;" cx="536" cy="-114" rx="18" ry="18"/>
<ellipse style="fill:none;stroke:black;" cx="536" cy="-114" rx="22" ry="22"/>
<text text-anchor="middle" x="536" y="-109.9" style="font-family:Times New Roman;font-size:14.00;">4</text>
</g>
<!-- 3&#45;&gt;4 -->
<g id="edge12" class="edge"><title>3&#45;&gt;4</title>
<path style="fill:none;stroke:black;" d="M421,-108C427,-110 434,-111 440,-112 462,-115 486,-115 504,-115"/>
<polygon style="fill:black;stroke:black;" points="504,-118.5 514,-115 504,-111.5 504,-118.5"/>
<text text-anchor="middle" x="468" y="-117.9" style="font-family:Times New Roman;font-size:14.00;">req_fl_A</text>
</g>
<!-- 4&#45;&gt;3 -->
<g id="edge14" class="edge"><title>4&#45;&gt;3</title>
<path style="fill:none;stroke:black;" d="M519,-100C512,-95 504,-90 496,-88 473,-80 465,-83 440,-88 437,-89 433,-89 429,-91"/>
<polygon style="fill:black;stroke:black;" points="428.38,-87.5173 420,-94 430.594,-94.158 428.38,-87.5173"/>
<text text-anchor="middle" x="468" y="-91.9" style="font-family:Times New Roman;font-size:14.00;">nack_A</text>
</g>
<!-- 5 -->
<g id="node7" class="node"><title>5</title>
<ellipse style="fill:none;stroke:black;" cx="674" cy="-114" rx="18" ry="18"/>
<ellipse style="fill:none;stroke:black;" cx="674" cy="-114" rx="22" ry="22"/>
<text text-anchor="middle" x="674" y="-109.9" style="font-family:Times New Roman;font-size:14.00;">5</text>
</g>
<!-- 4&#45;&gt;5 -->
<g id="edge16" class="edge"><title>4&#45;&gt;5</title>
<path style="fill:none;stroke:black;" d="M558,-114C581,-114 616,-114 642,-114"/>
<polygon style="fill:black;stroke:black;" points="642,-117.5 652,-114 642,-110.5 642,-117.5"/>
<text text-anchor="middle" x="605" y="-117.9" style="font-family:Times New Roman;font-size:14.00;">pack_A</text>
</g>
<!-- 6 -->
<g id="node8" class="node"><title>6</title>
<ellipse style="fill:none;stroke:black;" cx="814" cy="-114" rx="18" ry="18"/>
<ellipse style="fill:none;stroke:black;" cx="814" cy="-114" rx="22" ry="22"/>
<text text-anchor="middle" x="814" y="-109.9" style="font-family:Times New Roman;font-size:14.00;">6</text>
</g>
<!-- 5&#45;&gt;6 -->
<g id="edge18" class="edge"><title>5&#45;&gt;6</title>
<path style="fill:none;stroke:black;" d="M696,-114C720,-114 756,-114 782,-114"/>
<polygon style="fill:black;stroke:black;" points="782,-117.5 792,-114 782,-110.5 782,-117.5"/>
<text text-anchor="middle" x="744" y="-117.9" style="font-family:Times New Roman;font-size:14.00;">full_A</text>
</g>
<!-- 6&#45;&gt;5 -->
<g id="edge24" class="edge"><title>6&#45;&gt;5</title>
<path style="fill:none;stroke:black;" d="M795,-101C789,-98 781,-95 774,-93 749,-86 740,-86 714,-93 710,-94 706,-95 702,-97"/>
<polygon style="fill:black;stroke:black;" points="700.042,-94.084 693,-102 703.441,-100.203 700.042,-94.084"/>
<text text-anchor="middle" x="744" y="-96.9" style="font-family:Times New Roman;font-size:14.00;">no_op_B</text>
</g>
<!-- 7 -->
<g id="node9" class="node"><title>7</title>
<ellipse style="fill:none;stroke:black;" cx="965" cy="-126" rx="18" ry="18"/>
<ellipse style="fill:none;stroke:black;" cx="965" cy="-126" rx="22" ry="22"/>
<text text-anchor="middle" x="965" y="-121.9" style="font-family:Times New Roman;font-size:14.00;">7</text>
</g>
<!-- 6&#45;&gt;7 -->
<g id="edge20" class="edge"><title>6&#45;&gt;7</title>
<path style="fill:none;stroke:black;" d="M836,-116C862,-118 904,-121 933,-123"/>
<polygon style="fill:black;stroke:black;" points="932.701,-126.488 943,-124 933.398,-119.522 932.701,-126.488"/>
<text text-anchor="middle" x="886" y="-124.9" style="font-family:Times New Roman;font-size:14.00;">del_tr_A</text>
</g>
<!-- 6&#45;&gt;Err -->
<g id="edge22" class="edge"><title>6&#45;&gt;Err</title>
<path style="fill:none;stroke:black;" d="M834,-104C840,-101 847,-98 854,-95 878,-86 906,-76 927,-69"/>
<polygon style="fill:black;stroke:black;" points="928.427,-72.2259 937,-66 926.416,-65.5212 928.427,-72.2259"/>
<text text-anchor="middle" x="886" y="-98.9" style="font-family:Times New Roman;font-size:14.00;">take_fl_A</text>
</g>
<!-- 8 -->
<g id="node10" class="node"><title>8</title>
<ellipse style="fill:none;stroke:black;" cx="1112" cy="-86" rx="18" ry="18"/>
<ellipse style="fill:none;stroke:black;" cx="1112" cy="-86" rx="22" ry="22"/>
<text text-anchor="middle" x="1112" y="-81.9" style="font-family:Times New Roman;font-size:14.00;">8</text>
</g>
<!-- 7&#45;&gt;8 -->
<g id="edge26" class="edge"><title>7&#45;&gt;8</title>
<path style="fill:none;stroke:black;" d="M987,-123C1009,-119 1043,-113 1072,-104 1076,-103 1079,-102 1083,-100"/>
<polygon style="fill:black;stroke:black;" points="1084.28,-103.26 1092,-96 1081.44,-96.8631 1084.28,-103.26"/>
<text text-anchor="middle" x="1042" y="-120.9" style="font-family:Times New Roman;font-size:14.00;">req_tr_A</text>
</g>
<!-- 8&#45;&gt;1 -->
<g id="edge30" class="edge"><title>8&#45;&gt;1</title>
<path style="fill:none;stroke:black;" d="M1097,-70C1072,-45 1020,-0 965,-0 256,-0 256,-0 256,-0 211,-0 198,-2 154,-15 150,-16 147,-17 143,-19"/>
<polygon style="fill:black;stroke:black;" points="141.717,-15.7402 134,-23 144.56,-22.1369 141.717,-15.7402"/>
<text text-anchor="middle" x="605" y="-3.9" style="font-family:Times New Roman;font-size:14.00;">pack_A</text>
</g>
<!-- 8&#45;&gt;7 -->
<g id="edge28" class="edge"><title>8&#45;&gt;7</title>
<path style="fill:none;stroke:black;" d="M1091,-80C1070,-76 1038,-73 1012,-83 1006,-85 997,-94 987,-103"/>
<polygon style="fill:black;stroke:black;" points="984.596,-100.454 980,-110 989.546,-105.404 984.596,-100.454"/>
<text text-anchor="middle" x="1042" y="-86.9" style="font-family:Times New Roman;font-size:14.00;">nack_A</text>
</g>
<!-- 9 -->
<g id="node11" class="node"><title>9</title>
<ellipse style="fill:none;stroke:black;" cx="27" cy="-91" rx="18" ry="18"/>
<ellipse style="fill:none;stroke:black;" cx="27" cy="-91" rx="22" ry="22"/>
<text text-anchor="middle" x="27" y="-86.9" style="font-family:Times New Roman;font-size:14.00;">9</text>
</g>
</g>
</svg>
