<?xml version="1.0" encoding="UTF-8" standalone="no"?>
<!DOCTYPE svg PUBLIC "-//W3C//DTD SVG 1.0//EN"
 "http://www.w3.org/TR/2001/REC-SVG-20010904/DTD/svg10.dtd">
<!-- Generated by dot version 2.2 (Tue Sep 13 00:37:56 UTC 2005)
     For user: (msperk) Perk_Sebastian, Betreuer=Moor, mitarb, 01/05    Title: spec_AB_ABCD_    Pages: 1 -->
<svg width="732pt" height="166pt"
 viewBox = "-1 -1 731 165"
 xmlns="http://www.w3.org/2000/svg">
<g id="graph0" class="graph" transform = "scale(0.325792)"
 style="font-family:Times-Roman;font-size:14.00;">
<title>spec_AB_ABCD_</title>
<g id="node1" class="node"><title>dot_dummyinit_1</title>
</g>
<g id="node3" class="node"><title>1</title>
<ellipse cx="119" cy="433" rx="18" ry="18" style="fill:none;stroke:black;"/>
<ellipse cx="119" cy="433" rx="22" ry="22" style="fill:none;stroke:black;"/>
<text text-anchor="middle" x="119" y="438">1</text>
</g>
<g id="edge2" class="edge"><title>dot_dummyinit_1&#45;&gt;1</title>
<path style="fill:none;stroke:black;" d="M59,433C68,433 77,433 87,433"/>
<polygon style="fill:black;stroke:black;" points="87,429 97,433 87,436 87,429"/>
</g>
<g id="node7" class="node"><title>5</title>
<ellipse cx="281" cy="404" rx="18" ry="18" style="fill:none;stroke:black;"/>
<ellipse cx="281" cy="404" rx="22" ry="22" style="fill:none;stroke:black;"/>
<text text-anchor="middle" x="281" y="409">5</text>
</g>
<g id="edge4" class="edge"><title>1&#45;&gt;5</title>
<path style="fill:none;stroke:black;" d="M141,432C166,431 207,427 241,419 244,418 248,417 251,416"/>
<polygon style="fill:black;stroke:black;" points="250,413 261,413 252,419 250,413"/>
<text text-anchor="middle" x="200" y="416">ABCD_FREE</text>
</g>
<g id="node4" class="node"><title>2</title>
<ellipse cx="1055" cy="230" rx="18" ry="18" style="fill:none;stroke:black;"/>
<ellipse cx="1055" cy="230" rx="22" ry="22" style="fill:none;stroke:black;"/>
<text text-anchor="middle" x="1055" y="235">2</text>
</g>
<g id="node14" class="node"><title>12</title>
<ellipse cx="1214" cy="126" rx="21" ry="21" style="fill:none;stroke:black;"/>
<ellipse cx="1214" cy="126" rx="25" ry="25" style="fill:none;stroke:black;"/>
<text text-anchor="middle" x="1214" y="131">12</text>
</g>
<g id="edge8" class="edge"><title>2&#45;&gt;12</title>
<path style="fill:none;stroke:black;" d="M1075,220C1099,208 1139,187 1171,164 1177,160 1183,155 1189,151"/>
<polygon style="fill:black;stroke:black;" points="1186,149 1196,144 1191,154 1186,149"/>
<text text-anchor="middle" x="1133" y="161">ABCD_accfl</text>
</g>
<g id="node19" class="node"><title>17</title>
<ellipse cx="1214" cy="254" rx="20" ry="20" style="fill:none;stroke:black;"/>
<ellipse cx="1214" cy="254" rx="24" ry="24" style="fill:none;stroke:black;"/>
<text text-anchor="middle" x="1214" y="259">17</text>
</g>
<g id="edge6" class="edge"><title>2&#45;&gt;17</title>
<path style="fill:none;stroke:black;" d="M1077,233C1103,237 1148,244 1180,249"/>
<polygon style="fill:black;stroke:black;" points="1180,246 1190,250 1180,252 1180,246"/>
<text text-anchor="middle" x="1133" y="234">ABCD_occfl</text>
</g>
<g id="node5" class="node"><title>3</title>
<ellipse cx="2026" cy="173" rx="18" ry="18" style="fill:none;stroke:black;"/>
<ellipse cx="2026" cy="173" rx="22" ry="22" style="fill:none;stroke:black;"/>
<text text-anchor="middle" x="2026" y="178">3</text>
</g>
<g id="node16" class="node"><title>14</title>
<ellipse cx="2190" cy="121" rx="21" ry="21" style="fill:none;stroke:black;"/>
<ellipse cx="2190" cy="121" rx="25" ry="25" style="fill:none;stroke:black;"/>
<text text-anchor="middle" x="2190" y="126">14</text>
</g>
<g id="edge12" class="edge"><title>3&#45;&gt;14</title>
<path style="fill:none;stroke:black;" d="M2046,163C2053,160 2062,156 2069,153 2098,143 2131,135 2155,129"/>
<polygon style="fill:black;stroke:black;" points="2154,126 2165,126 2156,132 2154,126"/>
<text text-anchor="middle" x="2108" y="130">ABCD_reltr</text>
</g>
<g id="node20" class="node"><title>18</title>
<ellipse cx="2190" cy="277" rx="21" ry="21" style="fill:none;stroke:black;"/>
<ellipse cx="2190" cy="277" rx="25" ry="25" style="fill:none;stroke:black;"/>
<text text-anchor="middle" x="2190" y="282">18</text>
</g>
<g id="edge10" class="edge"><title>3&#45;&gt;18</title>
<path style="fill:none;stroke:black;" d="M2038,192C2047,198 2056,199 2069,207 2100,226 2135,246 2159,260"/>
<polygon style="fill:black;stroke:black;" points="2161,257 2168,265 2158,263 2161,257"/>
<text text-anchor="middle" x="2108" y="204">ABCD_freetr</text>
</g>
<g id="node6" class="node"><title>4</title>
<ellipse cx="1539" cy="150" rx="18" ry="18" style="fill:none;stroke:black;"/>
<ellipse cx="1539" cy="150" rx="22" ry="22" style="fill:none;stroke:black;"/>
<text text-anchor="middle" x="1539" y="155">4</text>
</g>
<g id="node11" class="node"><title>9</title>
<ellipse cx="425" cy="316" rx="18" ry="18" style="fill:none;stroke:black;"/>
<ellipse cx="425" cy="316" rx="22" ry="22" style="fill:none;stroke:black;"/>
<text text-anchor="middle" x="425" y="321">9</text>
</g>
<g id="edge18" class="edge"><title>4&#45;&gt;9</title>
<path style="fill:none;stroke:black;" d="M1528,131C1520,122 1513,119 1499,109 1447,73 1438,39 1374,39 582,39 582,39 582,39 471,39 437,211 428,284"/>
<polygon style="fill:black;stroke:black;" points="431,284 427,294 425,284 431,284"/>
<text text-anchor="middle" x="979" y="36">ABCD_FL</text>
</g>
<g id="node12" class="node"><title>10</title>
<ellipse cx="1688" cy="191" rx="21" ry="21" style="fill:none;stroke:black;"/>
<ellipse cx="1688" cy="191" rx="25" ry="25" style="fill:none;stroke:black;"/>
<text text-anchor="middle" x="1688" y="196">10</text>
</g>
<g id="edge16" class="edge"><title>4&#45;&gt;10</title>
<path style="fill:none;stroke:black;" d="M1560,156C1585,162 1625,173 1654,181"/>
<polygon style="fill:black;stroke:black;" points="1655,178 1664,184 1653,184 1655,178"/>
<text text-anchor="middle" x="1612" y="159">ABCD_TR</text>
</g>
<g id="node13" class="node"><title>11</title>
<ellipse cx="1374" cy="124" rx="20" ry="20" style="fill:none;stroke:black;"/>
<ellipse cx="1374" cy="124" rx="24" ry="24" style="fill:none;stroke:black;"/>
<text text-anchor="middle" x="1374" y="129">11</text>
</g>
<g id="edge14" class="edge"><title>4&#45;&gt;11</title>
<path style="fill:none;stroke:black;" d="M1518,157C1493,164 1451,171 1417,159 1410,157 1404,153 1399,149"/>
<polygon style="fill:black;stroke:black;" points="1396,151 1391,142 1401,146 1396,151"/>
<text text-anchor="middle" x="1458" y="156">ABCD_STP</text>
</g>
<g id="edge20" class="edge"><title>5&#45;&gt;1</title>
<path style="fill:none;stroke:black;" d="M260,398C235,393 192,387 159,399 153,402 147,406 141,410"/>
<polygon style="fill:black;stroke:black;" points="144,412 134,417 139,407 144,412"/>
<text text-anchor="middle" x="200" y="390">ABCD_STP</text>
</g>
<g id="edge24" class="edge"><title>5&#45;&gt;9</title>
<path style="fill:none;stroke:black;" d="M300,392C325,378 369,350 397,333"/>
<polygon style="fill:black;stroke:black;" points="396,330 406,328 399,336 396,330"/>
<text text-anchor="middle" x="353" y="340">ABCD_FL</text>
</g>
<g id="node21" class="node"><title>19</title>
<ellipse cx="2026" cy="309" rx="21" ry="21" style="fill:none;stroke:black;"/>
<ellipse cx="2026" cy="309" rx="25" ry="25" style="fill:none;stroke:black;"/>
<text text-anchor="middle" x="2026" y="314">19</text>
</g>
<g id="edge22" class="edge"><title>5&#45;&gt;19</title>
<path style="fill:none;stroke:black;" d="M302,410C331,416 381,427 425,427 425,427 425,427 1868,427 1923,427 1939,416 1983,383 2003,368 2010,361 2018,344"/>
<polygon style="fill:black;stroke:black;" points="2015,342 2022,334 2022,345 2015,342"/>
<text text-anchor="middle" x="1133" y="424">ABCD_TR</text>
</g>
<g id="node8" class="node"><title>6</title>
<ellipse cx="1539" cy="257" rx="18" ry="18" style="fill:none;stroke:black;"/>
<ellipse cx="1539" cy="257" rx="22" ry="22" style="fill:none;stroke:black;"/>
<text text-anchor="middle" x="1539" y="262">6</text>
</g>
<g id="edge28" class="edge"><title>6&#45;&gt;10</title>
<path style="fill:none;stroke:black;" d="M1559,248C1584,237 1626,218 1656,205"/>
<polygon style="fill:black;stroke:black;" points="1654,202 1665,201 1657,208 1654,202"/>
<text text-anchor="middle" x="1612" y="209">ABCD_TR</text>
</g>
<g id="node18" class="node"><title>16</title>
<ellipse cx="1374" cy="254" rx="21" ry="21" style="fill:none;stroke:black;"/>
<ellipse cx="1374" cy="254" rx="25" ry="25" style="fill:none;stroke:black;"/>
<text text-anchor="middle" x="1374" y="259">16</text>
</g>
<g id="edge26" class="edge"><title>6&#45;&gt;16</title>
<path style="fill:none;stroke:black;" d="M1517,257C1489,256 1442,255 1409,254"/>
<polygon style="fill:black;stroke:black;" points="1409,257 1399,254 1409,250 1409,257"/>
<text text-anchor="middle" x="1458" y="253">ABCD_STP</text>
</g>
<g id="edge30" class="edge"><title>6&#45;&gt;19</title>
<path style="fill:none;stroke:black;" d="M1561,259C1638,268 1896,295 1991,305"/>
<polygon style="fill:black;stroke:black;" points="1991,302 2001,306 1991,308 1991,302"/>
<text text-anchor="middle" x="1778" y="276">ABCD_FL</text>
</g>
<g id="node9" class="node"><title>7</title>
<ellipse cx="903" cy="329" rx="18" ry="18" style="fill:none;stroke:black;"/>
<ellipse cx="903" cy="329" rx="22" ry="22" style="fill:none;stroke:black;"/>
<text text-anchor="middle" x="903" y="334">7</text>
</g>
<g id="edge32" class="edge"><title>7&#45;&gt;2</title>
<path style="fill:none;stroke:black;" d="M922,317C948,300 997,268 1028,248"/>
<polygon style="fill:black;stroke:black;" points="1026,245 1036,242 1030,251 1026,245"/>
<text text-anchor="middle" x="979" y="255">ABCD_STP</text>
</g>
<g id="edge34" class="edge"><title>7&#45;&gt;19</title>
<path style="fill:none;stroke:black;" d="M923,340C951,356 1005,381 1055,381 1055,381 1055,381 1868,381 1922,381 1936,369 1983,343 1989,340 1994,336 2000,332"/>
<polygon style="fill:black;stroke:black;" points="1998,329 2008,326 2002,335 1998,329"/>
<text text-anchor="middle" x="1458" y="378">ABCD_TR</text>
</g>
<g id="edge36" class="edge"><title>7&#45;&gt;19</title>
<path style="fill:none;stroke:black;" d="M925,329C955,329 1009,329 1055,329 1055,329 1055,329 1868,329 1911,329 1959,322 1991,316"/>
<polygon style="fill:black;stroke:black;" points="1991,313 2001,314 1992,319 1991,313"/>
<text text-anchor="middle" x="1458" y="326">ABCD_FL</text>
</g>
<g id="node10" class="node"><title>8</title>
<ellipse cx="739" cy="329" rx="18" ry="18" style="fill:none;stroke:black;"/>
<ellipse cx="739" cy="329" rx="22" ry="22" style="fill:none;stroke:black;"/>
<text text-anchor="middle" x="739" y="334">8</text>
</g>
<g id="edge38" class="edge"><title>8&#45;&gt;7</title>
<path style="fill:none;stroke:black;" d="M761,329C790,329 839,329 871,329"/>
<polygon style="fill:black;stroke:black;" points="871,325 881,329 871,332 871,325"/>
<text text-anchor="middle" x="821" y="326">ABCD_FULL</text>
</g>
<g id="node17" class="node"><title>15</title>
<ellipse cx="582" cy="329" rx="21" ry="21" style="fill:none;stroke:black;"/>
<ellipse cx="582" cy="329" rx="25" ry="25" style="fill:none;stroke:black;"/>
<text text-anchor="middle" x="582" y="334">15</text>
</g>
<g id="edge40" class="edge"><title>9&#45;&gt;15</title>
<path style="fill:none;stroke:black;" d="M447,317C470,317 507,319 539,322 542,322 544,323 547,323"/>
<polygon style="fill:black;stroke:black;" points="548,320 557,325 547,326 548,320"/>
<text text-anchor="middle" x="502" y="316">ABCD_reqfl</text>
</g>
<g id="node15" class="node"><title>13</title>
<ellipse cx="1868" cy="191" rx="21" ry="21" style="fill:none;stroke:black;"/>
<ellipse cx="1868" cy="191" rx="25" ry="25" style="fill:none;stroke:black;"/>
<text text-anchor="middle" x="1868" y="196">13</text>
</g>
<g id="edge42" class="edge"><title>10&#45;&gt;13</title>
<path style="fill:none;stroke:black;" d="M1713,191C1744,191 1797,191 1833,191"/>
<polygon style="fill:black;stroke:black;" points="1833,187 1843,191 1833,194 1833,187"/>
<text text-anchor="middle" x="1778" y="188">ABCD_ARRTR</text>
</g>
<g id="edge44" class="edge"><title>11&#45;&gt;4</title>
<path style="fill:none;stroke:black;" d="M1399,126C1424,128 1465,133 1499,139 1502,139 1505,140 1508,141"/>
<polygon style="fill:black;stroke:black;" points="1509,138 1518,144 1507,144 1509,138"/>
<text text-anchor="middle" x="1458" y="126">ABCD_WAIT</text>
</g>
<g id="edge46" class="edge"><title>12&#45;&gt;2</title>
<path style="fill:none;stroke:black;" d="M1189,124C1163,122 1123,124 1095,144 1077,157 1067,179 1062,198"/>
<polygon style="fill:black;stroke:black;" points="1065,199 1059,208 1059,197 1065,199"/>
<text text-anchor="middle" x="1133" y="122">ABCD_nack</text>
</g>
<g id="edge48" class="edge"><title>12&#45;&gt;11</title>
<path style="fill:none;stroke:black;" d="M1239,126C1266,125 1309,125 1339,124"/>
<polygon style="fill:black;stroke:black;" points="1339,120 1349,124 1339,127 1339,120"/>
<text text-anchor="middle" x="1294" y="123">ABCD_pack</text>
</g>
<g id="edge50" class="edge"><title>13&#45;&gt;3</title>
<path style="fill:none;stroke:black;" d="M1890,179C1897,176 1904,173 1911,171 1939,165 1971,166 1994,169"/>
<polygon style="fill:black;stroke:black;" points="1994,166 2004,170 1994,172 1994,166"/>
<text text-anchor="middle" x="1947" y="164">ABCD_STP</text>
</g>
<g id="edge52" class="edge"><title>13&#45;&gt;19</title>
<path style="fill:none;stroke:black;" d="M1893,192C1919,195 1958,202 1983,223 1999,237 2009,257 2017,275"/>
<polygon style="fill:black;stroke:black;" points="2020,274 2020,285 2014,276 2020,274"/>
<text text-anchor="middle" x="1947" y="192">ABCD_TR</text>
</g>
<g id="edge54" class="edge"><title>13&#45;&gt;19</title>
<path style="fill:none;stroke:black;" d="M1882,212C1890,222 1900,234 1911,243 1939,265 1954,257 1983,275 1988,278 1994,282 1999,287"/>
<polygon style="fill:black;stroke:black;" points="2001,284 2007,293 1997,290 2001,284"/>
<text text-anchor="middle" x="1947" y="240">ABCD_FL</text>
</g>
<g id="edge56" class="edge"><title>14&#45;&gt;3</title>
<path style="fill:none;stroke:black;" d="M2179,144C2172,159 2166,168 2147,176 2119,189 2083,186 2057,181"/>
<polygon style="fill:black;stroke:black;" points="2056,184 2047,179 2057,178 2056,184"/>
<text text-anchor="middle" x="2108" y="173">ABCD_nack</text>
</g>
<g id="edge58" class="edge"><title>14&#45;&gt;11</title>
<path style="fill:none;stroke:black;" d="M2167,111C2136,98 2078,77 2026,77 1539,77 1539,77 1539,77 1491,77 1438,96 1405,109"/>
<polygon style="fill:black;stroke:black;" points="1407,112 1396,113 1404,106 1407,112"/>
<text text-anchor="middle" x="1778" y="74">ABCD_pack</text>
</g>
<g id="edge62" class="edge"><title>15&#45;&gt;8</title>
<path style="fill:none;stroke:black;" d="M607,329C635,329 677,329 707,329"/>
<polygon style="fill:black;stroke:black;" points="707,325 717,329 707,332 707,325"/>
<text text-anchor="middle" x="662" y="326">ABCD_pack</text>
</g>
<g id="edge60" class="edge"><title>15&#45;&gt;9</title>
<path style="fill:none;stroke:black;" d="M558,338C552,340 545,341 539,342 507,347 497,352 465,342 460,341 455,338 451,336"/>
<polygon style="fill:black;stroke:black;" points="448,338 442,330 452,333 448,338"/>
<text text-anchor="middle" x="502" y="339">ABCD_nack</text>
</g>
<g id="edge64" class="edge"><title>16&#45;&gt;6</title>
<path style="fill:none;stroke:black;" d="M1395,268C1402,272 1409,275 1417,277 1453,286 1464,286 1499,277 1503,276 1507,275 1511,273"/>
<polygon style="fill:black;stroke:black;" points="1509,270 1520,269 1512,276 1509,270"/>
<text text-anchor="middle" x="1458" y="274">ABCD_OCC</text>
</g>
<g id="edge66" class="edge"><title>17&#45;&gt;2</title>
<path style="fill:none;stroke:black;" d="M1191,263C1167,272 1127,282 1095,269 1087,266 1081,261 1075,256"/>
<polygon style="fill:black;stroke:black;" points="1072,258 1068,248 1077,253 1072,258"/>
<text text-anchor="middle" x="1133" y="266">ABCD_nack</text>
</g>
<g id="edge68" class="edge"><title>17&#45;&gt;16</title>
<path style="fill:none;stroke:black;" d="M1239,254C1266,254 1309,254 1339,254"/>
<polygon style="fill:black;stroke:black;" points="1339,250 1349,254 1339,257 1339,250"/>
<text text-anchor="middle" x="1294" y="251">ABCD_pack</text>
</g>
<g id="edge72" class="edge"><title>18&#45;&gt;1</title>
<path style="fill:none;stroke:black;" d="M2183,301C2166,355 2117,478 2026,479 281,479 281,479 281,479 234,478 180,460 148,446"/>
<polygon style="fill:black;stroke:black;" points="147,449 139,442 150,443 147,449"/>
<text text-anchor="middle" x="1133" y="476">ABCD_pack</text>
</g>
<g id="edge70" class="edge"><title>18&#45;&gt;3</title>
<path style="fill:none;stroke:black;" d="M2166,283C2140,289 2098,293 2069,274 2045,259 2035,228 2030,205"/>
<polygon style="fill:black;stroke:black;" points="2027,205 2028,195 2033,204 2027,205"/>
<text text-anchor="middle" x="2108" y="271">ABCD_nack</text>
</g>
</g>
</svg>
