<?xml version="1.0" encoding="UTF-8" standalone="no"?>
<!DOCTYPE svg PUBLIC "-//W3C//DTD SVG 1.0//EN"
 "http://www.w3.org/TR/2001/REC-SVG-20010904/DTD/svg10.dtd" [
 <!ATTLIST svg xmlns:xlink CDATA #FIXED "http://www.w3.org/1999/xlink">
]>
<!-- Generated by Graphviz version 2.20.2 (Tue Mar &#160;2 21:46:26 UTC 2010)
     For user: (mtmoor) Prof. Thomas Moor -->
<!-- Title: Controller AB Pages: 1 -->
<svg width="720pt" height="151pt"
 viewBox="0.00 0.00 720.00 151.08" xmlns="http://www.w3.org/2000/svg" xmlns:xlink="http://www.w3.org/1999/xlink">
<g id="graph0" class="graph" transform="scale(0.307692 0.307692) rotate(0) translate(4 487)">
<title>Controller AB</title>
<polygon style="fill:white;stroke:white;" points="-4,4 -4,-487 2336,-487 2336,4 -4,4"/>
<!-- dot_dummyinit_1 -->
<g id="node1" class="node"><title>dot_dummyinit_1</title>
</g>
<!-- 1 -->
<g id="node3" class="node"><title>1</title>
<ellipse style="fill:none;stroke:black;" cx="114" cy="-92" rx="18" ry="18"/>
<ellipse style="fill:none;stroke:black;" cx="114" cy="-92" rx="22" ry="22"/>
<text text-anchor="middle" x="114" y="-87.9" style="font-family:Times New Roman;font-size:14.00;">1</text>
</g>
<!-- dot_dummyinit_1&#45;&gt;1 -->
<g id="edge2" class="edge"><title>dot_dummyinit_1&#45;&gt;1</title>
<path style="fill:none;stroke:black;" d="M54,-92C63,-92 72,-92 82,-92"/>
<polygon style="fill:black;stroke:black;" points="82,-95.5001 92,-92 82,-88.5001 82,-95.5001"/>
</g>
<!-- 7 -->
<g id="node9" class="node"><title>7</title>
<ellipse style="fill:none;stroke:black;" cx="236" cy="-63" rx="18" ry="18"/>
<ellipse style="fill:none;stroke:black;" cx="236" cy="-63" rx="22" ry="22"/>
<text text-anchor="middle" x="236" y="-58.9" style="font-family:Times New Roman;font-size:14.00;">7</text>
</g>
<!-- 1&#45;&gt;7 -->
<g id="edge6" class="edge"><title>1&#45;&gt;7</title>
<path style="fill:none;stroke:black;" d="M136,-87C142,-85 148,-83 154,-82 171,-78 189,-74 204,-70"/>
<polygon style="fill:black;stroke:black;" points="204.881,-73.3933 214,-68 203.508,-66.5292 204.881,-73.3933"/>
<text text-anchor="middle" x="175" y="-85.9" style="font-family:Times New Roman;font-size:14.00;">idle_B</text>
</g>
<!-- 19 -->
<g id="node21" class="node"><title>19</title>
<ellipse style="fill:none;stroke:black;" cx="1337" cy="-156" rx="23.1964" ry="23.1964"/>
<ellipse style="fill:none;stroke:black;" cx="1337" cy="-156" rx="27.1237" ry="27.1237"/>
<text text-anchor="middle" x="1337" y="-151.9" style="font-family:Times New Roman;font-size:14.00;">19</text>
</g>
<!-- 1&#45;&gt;19 -->
<g id="edge4" class="edge"><title>1&#45;&gt;19</title>
<path style="fill:none;stroke:black;" d="M135,-98C160,-104 200,-113 236,-113 236,-113 236,-113 727,-113 818,-113 841,-112 931,-112 931,-112 931,-112 1131,-112 1192,-112 1261,-131 1301,-144"/>
<polygon style="fill:black;stroke:black;" points="1300.42,-147.479 1311,-147 1302.43,-140.774 1300.42,-147.479"/>
<text text-anchor="middle" x="727" y="-116.9" style="font-family:Times New Roman;font-size:14.00;">idle_A</text>
</g>
<!-- 2 -->
<g id="node4" class="node"><title>2</title>
<ellipse style="fill:none;stroke:black;" cx="2310" cy="-290" rx="18" ry="18"/>
<ellipse style="fill:none;stroke:black;" cx="2310" cy="-290" rx="22" ry="22"/>
<text text-anchor="middle" x="2310" y="-285.9" style="font-family:Times New Roman;font-size:14.00;">2</text>
</g>
<!-- 3 -->
<g id="node5" class="node"><title>3</title>
<ellipse style="fill:none;stroke:black;" cx="2182" cy="-250" rx="18" ry="18"/>
<ellipse style="fill:none;stroke:black;" cx="2182" cy="-250" rx="22" ry="22"/>
<text text-anchor="middle" x="2182" y="-245.9" style="font-family:Times New Roman;font-size:14.00;">3</text>
</g>
<!-- 2&#45;&gt;3 -->
<g id="edge8" class="edge"><title>2&#45;&gt;3</title>
<path style="fill:none;stroke:black;" d="M2288,-286C2270,-282 2245,-276 2222,-268 2219,-266 2215,-265 2212,-263"/>
<polygon style="fill:black;stroke:black;" points="2212.58,-259.521 2202,-260 2210.57,-266.226 2212.58,-259.521"/>
<text text-anchor="middle" x="2246" y="-282.9" style="font-family:Times New Roman;font-size:14.00;">idle_A</text>
</g>
<!-- 10 -->
<g id="node12" class="node"><title>10</title>
<ellipse style="fill:none;stroke:black;" cx="510" cy="-288" rx="23.1964" ry="23.1964"/>
<ellipse style="fill:none;stroke:black;" cx="510" cy="-288" rx="27.1237" ry="27.1237"/>
<text text-anchor="middle" x="510" y="-283.9" style="font-family:Times New Roman;font-size:14.00;">10</text>
</g>
<!-- 2&#45;&gt;10 -->
<g id="edge10" class="edge"><title>2&#45;&gt;10</title>
<path style="fill:none;stroke:black;" d="M2298,-309C2278,-338 2235,-391 2182,-391 655,-391 655,-391 655,-391 604,-391 558,-348 532,-318"/>
<polygon style="fill:black;stroke:black;" points="534.8,-315.9 526,-310 529.2,-320.1 534.8,-315.9"/>
<text text-anchor="middle" x="1408" y="-394.9" style="font-family:Times New Roman;font-size:14.00;">idle_B</text>
</g>
<!-- 3&#45;&gt;2 -->
<g id="edge14" class="edge"><title>3&#45;&gt;2</title>
<path style="fill:none;stroke:black;" d="M2203,-243C2222,-238 2249,-234 2270,-244 2279,-248 2287,-255 2293,-263"/>
<polygon style="fill:black;stroke:black;" points="2290.2,-265.1 2299,-271 2295.8,-260.9 2290.2,-265.1"/>
<text text-anchor="middle" x="2246" y="-247.9" style="font-family:Times New Roman;font-size:14.00;">stby_A</text>
</g>
<!-- 15 -->
<g id="node17" class="node"><title>15</title>
<ellipse style="fill:none;stroke:black;" cx="931" cy="-236" rx="23.1964" ry="23.1964"/>
<ellipse style="fill:none;stroke:black;" cx="931" cy="-236" rx="27.1237" ry="27.1237"/>
<text text-anchor="middle" x="931" y="-231.9" style="font-family:Times New Roman;font-size:14.00;">15</text>
</g>
<!-- 3&#45;&gt;15 -->
<g id="edge12" class="edge"><title>3&#45;&gt;15</title>
<path style="fill:none;stroke:black;" d="M2160,-250C2134,-250 2090,-250 2051,-250 1131,-250 1131,-250 1131,-250 1062,-250 1045,-246 976,-241 973,-241 971,-240 968,-240"/>
<polygon style="fill:black;stroke:black;" points="968.299,-236.512 958,-239 967.602,-243.478 968.299,-236.512"/>
<text text-anchor="middle" x="1552" y="-253.9" style="font-family:Times New Roman;font-size:14.00;">l2r_A</text>
</g>
<!-- 4 -->
<g id="node6" class="node"><title>4</title>
<ellipse style="fill:none;stroke:black;" cx="1625" cy="-131" rx="18" ry="18"/>
<ellipse style="fill:none;stroke:black;" cx="1625" cy="-131" rx="22" ry="22"/>
<text text-anchor="middle" x="1625" y="-126.9" style="font-family:Times New Roman;font-size:14.00;">4</text>
</g>
<!-- 11 -->
<g id="node13" class="node"><title>11</title>
<ellipse style="fill:none;stroke:black;" cx="2051" cy="-104" rx="23.1964" ry="23.1964"/>
<ellipse style="fill:none;stroke:black;" cx="2051" cy="-104" rx="27.1237" ry="27.1237"/>
<text text-anchor="middle" x="2051" y="-99.9" style="font-family:Times New Roman;font-size:14.00;">11</text>
</g>
<!-- 4&#45;&gt;11 -->
<g id="edge18" class="edge"><title>4&#45;&gt;11</title>
<path style="fill:none;stroke:black;" d="M1647,-132C1706,-133 1871,-134 2006,-115 2009,-115 2012,-114 2015,-113"/>
<polygon style="fill:black;stroke:black;" points="2015.88,-116.393 2025,-111 2014.51,-109.529 2015.88,-116.393"/>
<text text-anchor="middle" x="1836" y="-132.9" style="font-family:Times New Roman;font-size:14.00;">idle_AB</text>
</g>
<!-- 18 -->
<g id="node20" class="node"><title>18</title>
<ellipse style="fill:none;stroke:black;" cx="1479" cy="-169" rx="23.1964" ry="23.1964"/>
<ellipse style="fill:none;stroke:black;" cx="1479" cy="-169" rx="27.1237" ry="27.1237"/>
<text text-anchor="middle" x="1479" y="-164.9" style="font-family:Times New Roman;font-size:14.00;">18</text>
</g>
<!-- 4&#45;&gt;18 -->
<g id="edge16" class="edge"><title>4&#45;&gt;18</title>
<path style="fill:none;stroke:black;" d="M1604,-139C1597,-142 1588,-145 1580,-147 1559,-153 1535,-158 1516,-162"/>
<polygon style="fill:black;stroke:black;" points="1515.12,-158.607 1506,-164 1516.49,-165.471 1515.12,-158.607"/>
<text text-anchor="middle" x="1552" y="-162.9" style="font-family:Times New Roman;font-size:14.00;">stby_A</text>
</g>
<!-- 5 -->
<g id="node7" class="node"><title>5</title>
<ellipse style="fill:none;stroke:black;" cx="794" cy="-236" rx="18" ry="18"/>
<ellipse style="fill:none;stroke:black;" cx="794" cy="-236" rx="22" ry="22"/>
<text text-anchor="middle" x="794" y="-231.9" style="font-family:Times New Roman;font-size:14.00;">5</text>
</g>
<!-- 5&#45;&gt;15 -->
<g id="edge20" class="edge"><title>5&#45;&gt;15</title>
<path style="fill:none;stroke:black;" d="M816,-236C837,-236 869,-236 894,-236"/>
<polygon style="fill:black;stroke:black;" points="894,-239.5 904,-236 894,-232.5 894,-239.5"/>
<text text-anchor="middle" x="860" y="-239.9" style="font-family:Times New Roman;font-size:14.00;">l2r_A</text>
</g>
<!-- 6 -->
<g id="node8" class="node"><title>6</title>
<ellipse style="fill:none;stroke:black;" cx="1068" cy="-300" rx="18" ry="18"/>
<ellipse style="fill:none;stroke:black;" cx="1068" cy="-300" rx="22" ry="22"/>
<text text-anchor="middle" x="1068" y="-295.9" style="font-family:Times New Roman;font-size:14.00;">6</text>
</g>
<!-- 12 -->
<g id="node14" class="node"><title>12</title>
<ellipse style="fill:none;stroke:black;" cx="1199" cy="-305" rx="23.1964" ry="23.1964"/>
<ellipse style="fill:none;stroke:black;" cx="1199" cy="-305" rx="27.1237" ry="27.1237"/>
<text text-anchor="middle" x="1199" y="-300.9" style="font-family:Times New Roman;font-size:14.00;">12</text>
</g>
<!-- 6&#45;&gt;12 -->
<g id="edge22" class="edge"><title>6&#45;&gt;12</title>
<path style="fill:none;stroke:black;" d="M1090,-301C1110,-302 1139,-303 1162,-304"/>
<polygon style="fill:black;stroke:black;" points="1162,-307.5 1172,-304 1162,-300.5 1162,-307.5"/>
<text text-anchor="middle" x="1131" y="-305.9" style="font-family:Times New Roman;font-size:14.00;">l2r_B</text>
</g>
<!-- 16 -->
<g id="node18" class="node"><title>16</title>
<ellipse style="fill:none;stroke:black;" cx="373" cy="-351" rx="23.1964" ry="23.1964"/>
<ellipse style="fill:none;stroke:black;" cx="373" cy="-351" rx="27.1237" ry="27.1237"/>
<text text-anchor="middle" x="373" y="-346.9" style="font-family:Times New Roman;font-size:14.00;">16</text>
</g>
<!-- 7&#45;&gt;16 -->
<g id="edge26" class="edge"><title>7&#45;&gt;16</title>
<path style="fill:none;stroke:black;" d="M246,-83C269,-132 329,-257 357,-317"/>
<polygon style="fill:black;stroke:black;" points="353.74,-318.283 361,-326 360.137,-315.44 353.74,-318.283"/>
<text text-anchor="middle" x="302" y="-251.9" style="font-family:Times New Roman;font-size:14.00;">idle_AB</text>
</g>
<!-- 17 -->
<g id="node19" class="node"><title>17</title>
<ellipse style="fill:none;stroke:black;" cx="373" cy="-58" rx="23.1964" ry="23.1964"/>
<ellipse style="fill:none;stroke:black;" cx="373" cy="-58" rx="27.1237" ry="27.1237"/>
<text text-anchor="middle" x="373" y="-53.9" style="font-family:Times New Roman;font-size:14.00;">17</text>
</g>
<!-- 7&#45;&gt;17 -->
<g id="edge24" class="edge"><title>7&#45;&gt;17</title>
<path style="fill:none;stroke:black;" d="M254,-50C261,-46 269,-42 276,-40 299,-34 306,-35 328,-40 332,-41 335,-42 339,-43"/>
<polygon style="fill:black;stroke:black;" points="338.416,-46.4788 349,-46 340.427,-39.7741 338.416,-46.4788"/>
<text text-anchor="middle" x="302" y="-43.9" style="font-family:Times New Roman;font-size:14.00;">stby_B</text>
</g>
<!-- 8 -->
<g id="node10" class="node"><title>8</title>
<ellipse style="fill:none;stroke:black;" cx="1625" cy="-322" rx="18" ry="18"/>
<ellipse style="fill:none;stroke:black;" cx="1625" cy="-322" rx="22" ry="22"/>
<text text-anchor="middle" x="1625" y="-317.9" style="font-family:Times New Roman;font-size:14.00;">8</text>
</g>
<!-- 8&#45;&gt;16 -->
<g id="edge28" class="edge"><title>8&#45;&gt;16</title>
<path style="fill:none;stroke:black;" d="M1606,-333C1572,-352 1500,-391 1434,-412 1304,-453 1268,-467 1131,-467 510,-467 510,-467 510,-467 464,-467 453,-449 418,-418 408,-408 399,-396 391,-384"/>
<polygon style="fill:black;stroke:black;" points="393.916,-382.042 386,-375 387.797,-385.441 393.916,-382.042"/>
<text text-anchor="middle" x="1002" y="-470.9" style="font-family:Times New Roman;font-size:14.00;">idle_AB</text>
</g>
<!-- 9 -->
<g id="node11" class="node"><title>9</title>
<ellipse style="fill:none;stroke:black;" cx="1068" cy="-200" rx="18" ry="18"/>
<ellipse style="fill:none;stroke:black;" cx="1068" cy="-200" rx="22" ry="22"/>
<text text-anchor="middle" x="1068" y="-195.9" style="font-family:Times New Roman;font-size:14.00;">9</text>
</g>
<!-- 9&#45;&gt;15 -->
<g id="edge30" class="edge"><title>9&#45;&gt;15</title>
<path style="fill:none;stroke:black;" d="M1048,-190C1029,-182 999,-173 976,-184 966,-189 958,-196 951,-205"/>
<polygon style="fill:black;stroke:black;" points="948.2,-202.9 945,-213 953.8,-207.1 948.2,-202.9"/>
<text text-anchor="middle" x="1002" y="-187.9" style="font-family:Times New Roman;font-size:14.00;">stby_A</text>
</g>
<!-- 14 -->
<g id="node16" class="node"><title>14</title>
<ellipse style="fill:none;stroke:black;" cx="655" cy="-248" rx="23.1964" ry="23.1964"/>
<ellipse style="fill:none;stroke:black;" cx="655" cy="-248" rx="27.1237" ry="27.1237"/>
<text text-anchor="middle" x="655" y="-243.9" style="font-family:Times New Roman;font-size:14.00;">14</text>
</g>
<!-- 10&#45;&gt;14 -->
<g id="edge32" class="edge"><title>10&#45;&gt;14</title>
<path style="fill:none;stroke:black;" d="M537,-283C557,-279 586,-273 610,-266 614,-265 617,-264 620,-262"/>
<polygon style="fill:black;stroke:black;" points="621.427,-265.226 630,-259 619.416,-258.521 621.427,-265.226"/>
<text text-anchor="middle" x="583" y="-281.9" style="font-family:Times New Roman;font-size:14.00;">stby_B</text>
</g>
<!-- 11&#45;&gt;3 -->
<g id="edge34" class="edge"><title>11&#45;&gt;3</title>
<path style="fill:none;stroke:black;" d="M2069,-124C2093,-151 2135,-197 2160,-225"/>
<polygon style="fill:black;stroke:black;" points="2157.78,-227.779 2167,-233 2163.05,-223.169 2157.78,-227.779"/>
<text text-anchor="middle" x="2119" y="-204.9" style="font-family:Times New Roman;font-size:14.00;">l2r_AB</text>
</g>
<!-- 21 -->
<g id="node23" class="node"><title>21</title>
<ellipse style="fill:none;stroke:black;" cx="1625" cy="-58" rx="23.1964" ry="23.1964"/>
<ellipse style="fill:none;stroke:black;" cx="1625" cy="-58" rx="27.1237" ry="27.1237"/>
<text text-anchor="middle" x="1625" y="-53.9" style="font-family:Times New Roman;font-size:14.00;">21</text>
</g>
<!-- 11&#45;&gt;21 -->
<g id="edge36" class="edge"><title>11&#45;&gt;21</title>
<path style="fill:none;stroke:black;" d="M2029,-88C1996,-64 1929,-23 1864,-10 1809,1 1792,-1 1736,-13 1709,-19 1680,-31 1658,-41"/>
<polygon style="fill:black;stroke:black;" points="1656.72,-37.7402 1649,-45 1659.56,-44.1369 1656.72,-37.7402"/>
<text text-anchor="middle" x="1836" y="-13.9" style="font-family:Times New Roman;font-size:14.00;">stby_AB</text>
</g>
<!-- 12&#45;&gt;19 -->
<g id="edge38" class="edge"><title>12&#45;&gt;19</title>
<path style="fill:none;stroke:black;" d="M1218,-285C1242,-258 1284,-213 1311,-184"/>
<polygon style="fill:black;stroke:black;" points="1314.05,-185.831 1318,-176 1308.78,-181.221 1314.05,-185.831"/>
<text text-anchor="middle" x="1268" y="-259.9" style="font-family:Times New Roman;font-size:14.00;">idle_A</text>
</g>
<!-- 23 -->
<g id="node25" class="node"><title>23</title>
<ellipse style="fill:none;stroke:black;" cx="1337" cy="-336" rx="23.1964" ry="23.1964"/>
<ellipse style="fill:none;stroke:black;" cx="1337" cy="-336" rx="27.1237" ry="27.1237"/>
<text text-anchor="middle" x="1337" y="-331.9" style="font-family:Times New Roman;font-size:14.00;">23</text>
</g>
<!-- 12&#45;&gt;23 -->
<g id="edge40" class="edge"><title>12&#45;&gt;23</title>
<path style="fill:none;stroke:black;" d="M1225,-312C1231,-314 1238,-315 1244,-317 1263,-321 1283,-325 1300,-329"/>
<polygon style="fill:black;stroke:black;" points="1299.51,-332.471 1310,-331 1300.88,-325.607 1299.51,-332.471"/>
<text text-anchor="middle" x="1268" y="-328.9" style="font-family:Times New Roman;font-size:14.00;">idle_B</text>
</g>
<!-- 13 -->
<g id="node15" class="node"><title>13</title>
<ellipse style="fill:none;stroke:black;" cx="1479" cy="-85" rx="23.1964" ry="23.1964"/>
<ellipse style="fill:none;stroke:black;" cx="1479" cy="-85" rx="27.1237" ry="27.1237"/>
<text text-anchor="middle" x="1479" y="-80.9" style="font-family:Times New Roman;font-size:14.00;">13</text>
</g>
<!-- 13&#45;&gt;5 -->
<g id="edge42" class="edge"><title>13&#45;&gt;5</title>
<path style="fill:none;stroke:black;" d="M1453,-91C1377,-106 1164,-150 1131,-150 931,-150 931,-150 931,-150 885,-150 841,-186 816,-212"/>
<polygon style="fill:black;stroke:black;" points="813.596,-209.454 809,-219 818.546,-214.404 813.596,-209.454"/>
<text text-anchor="middle" x="1131" y="-153.9" style="font-family:Times New Roman;font-size:14.00;">l2r_AB</text>
</g>
<!-- 13&#45;&gt;21 -->
<g id="edge44" class="edge"><title>13&#45;&gt;21</title>
<path style="fill:none;stroke:black;" d="M1506,-80C1529,-76 1563,-70 1588,-65"/>
<polygon style="fill:black;stroke:black;" points="1588.88,-68.3933 1598,-63 1587.51,-61.5292 1588.88,-68.3933"/>
<text text-anchor="middle" x="1552" y="-79.9" style="font-family:Times New Roman;font-size:14.00;">stby_AB</text>
</g>
<!-- 14&#45;&gt;5 -->
<g id="edge46" class="edge"><title>14&#45;&gt;5</title>
<path style="fill:none;stroke:black;" d="M682,-246C706,-243 738,-241 762,-239"/>
<polygon style="fill:black;stroke:black;" points="762.398,-242.478 772,-238 761.701,-235.512 762.398,-242.478"/>
<text text-anchor="middle" x="727" y="-246.9" style="font-family:Times New Roman;font-size:14.00;">idle_A</text>
</g>
<!-- 14&#45;&gt;10 -->
<g id="edge48" class="edge"><title>14&#45;&gt;10</title>
<path style="fill:none;stroke:black;" d="M628,-241C608,-238 579,-235 556,-245 548,-248 541,-253 535,-259"/>
<polygon style="fill:black;stroke:black;" points="532.221,-256.781 527,-266 536.831,-262.049 532.221,-256.781"/>
<text text-anchor="middle" x="583" y="-248.9" style="font-family:Times New Roman;font-size:14.00;">idle_B</text>
</g>
<!-- 15&#45;&gt;6 -->
<g id="edge52" class="edge"><title>15&#45;&gt;6</title>
<path style="fill:none;stroke:black;" d="M952,-253C959,-259 968,-265 976,-269 995,-278 1019,-286 1037,-291"/>
<polygon style="fill:black;stroke:black;" points="1036.42,-294.479 1047,-294 1038.43,-287.774 1036.42,-294.479"/>
<text text-anchor="middle" x="1002" y="-290.9" style="font-family:Times New Roman;font-size:14.00;">idle_B</text>
</g>
<!-- 15&#45;&gt;9 -->
<g id="edge50" class="edge"><title>15&#45;&gt;9</title>
<path style="fill:none;stroke:black;" d="M957,-229C963,-227 970,-226 976,-224 996,-219 1018,-213 1036,-208"/>
<polygon style="fill:black;stroke:black;" points="1036.88,-211.393 1046,-206 1035.51,-204.529 1036.88,-211.393"/>
<text text-anchor="middle" x="1002" y="-227.9" style="font-family:Times New Roman;font-size:14.00;">idle_A</text>
</g>
<!-- 16&#45;&gt;10 -->
<g id="edge54" class="edge"><title>16&#45;&gt;10</title>
<path style="fill:none;stroke:black;" d="M395,-334C402,-329 410,-324 418,-320 436,-311 457,-304 474,-298"/>
<polygon style="fill:black;stroke:black;" points="475.427,-301.226 484,-295 473.416,-294.521 475.427,-301.226"/>
<text text-anchor="middle" x="441" y="-323.9" style="font-family:Times New Roman;font-size:14.00;">l2r_AB</text>
</g>
<!-- 20 -->
<g id="node22" class="node"><title>20</title>
<ellipse style="fill:none;stroke:black;" cx="727" cy="-348" rx="23.1964" ry="23.1964"/>
<ellipse style="fill:none;stroke:black;" cx="727" cy="-348" rx="27.1237" ry="27.1237"/>
<text text-anchor="middle" x="727" y="-343.9" style="font-family:Times New Roman;font-size:14.00;">20</text>
</g>
<!-- 16&#45;&gt;20 -->
<g id="edge56" class="edge"><title>16&#45;&gt;20</title>
<path style="fill:none;stroke:black;" d="M400,-351C463,-350 618,-349 690,-348"/>
<polygon style="fill:black;stroke:black;" points="690,-351.5 700,-348 690,-344.5 690,-351.5"/>
<text text-anchor="middle" x="510" y="-352.9" style="font-family:Times New Roman;font-size:14.00;">stby_AB</text>
</g>
<!-- 17&#45;&gt;7 -->
<g id="edge60" class="edge"><title>17&#45;&gt;7</title>
<path style="fill:none;stroke:black;" d="M346,-59C323,-60 292,-61 268,-62"/>
<polygon style="fill:black;stroke:black;" points="268,-58.5001 258,-62 268,-65.5001 268,-58.5001"/>
<text text-anchor="middle" x="302" y="-63.9" style="font-family:Times New Roman;font-size:14.00;">idle_B</text>
</g>
<!-- 22 -->
<g id="node24" class="node"><title>22</title>
<ellipse style="fill:none;stroke:black;" cx="583" cy="-58" rx="23.1964" ry="23.1964"/>
<ellipse style="fill:none;stroke:black;" cx="583" cy="-58" rx="27.1237" ry="27.1237"/>
<text text-anchor="middle" x="583" y="-53.9" style="font-family:Times New Roman;font-size:14.00;">22</text>
</g>
<!-- 17&#45;&gt;22 -->
<g id="edge58" class="edge"><title>17&#45;&gt;22</title>
<path style="fill:none;stroke:black;" d="M400,-58C437,-58 504,-58 546,-58"/>
<polygon style="fill:black;stroke:black;" points="546,-61.5001 556,-58 546,-54.5001 546,-61.5001"/>
<text text-anchor="middle" x="441" y="-61.9" style="font-family:Times New Roman;font-size:14.00;">idle_A</text>
</g>
<!-- 18&#45;&gt;4 -->
<g id="edge62" class="edge"><title>18&#45;&gt;4</title>
<path style="fill:none;stroke:black;" d="M1496,-147C1503,-139 1513,-130 1524,-126 1546,-117 1574,-119 1594,-123"/>
<polygon style="fill:black;stroke:black;" points="1593.51,-126.471 1604,-125 1594.88,-119.607 1593.51,-126.471"/>
<text text-anchor="middle" x="1552" y="-129.9" style="font-family:Times New Roman;font-size:14.00;">idle_A</text>
</g>
<!-- 18&#45;&gt;8 -->
<g id="edge64" class="edge"><title>18&#45;&gt;8</title>
<path style="fill:none;stroke:black;" d="M1505,-177C1531,-186 1569,-200 1580,-211 1602,-232 1613,-265 1619,-290"/>
<polygon style="fill:black;stroke:black;" points="1615.61,-290.881 1621,-300 1622.47,-289.508 1615.61,-290.881"/>
<text text-anchor="middle" x="1552" y="-214.9" style="font-family:Times New Roman;font-size:14.00;">idle_B</text>
</g>
<!-- 19&#45;&gt;13 -->
<g id="edge68" class="edge"><title>19&#45;&gt;13</title>
<path style="fill:none;stroke:black;" d="M1361,-144C1384,-132 1419,-114 1445,-102"/>
<polygon style="fill:black;stroke:black;" points="1446.96,-104.916 1454,-97 1443.56,-98.7969 1446.96,-104.916"/>
<text text-anchor="middle" x="1408" y="-135.9" style="font-family:Times New Roman;font-size:14.00;">idle_AB</text>
</g>
<!-- 19&#45;&gt;18 -->
<g id="edge66" class="edge"><title>19&#45;&gt;18</title>
<path style="fill:none;stroke:black;" d="M1364,-158C1386,-160 1417,-163 1442,-165"/>
<polygon style="fill:black;stroke:black;" points="1441.7,-168.488 1452,-166 1442.4,-161.522 1441.7,-168.488"/>
<text text-anchor="middle" x="1408" y="-167.9" style="font-family:Times New Roman;font-size:14.00;">stby_A</text>
</g>
<!-- 20&#45;&gt;12 -->
<g id="edge70" class="edge"><title>20&#45;&gt;12</title>
<path style="fill:none;stroke:black;" d="M754,-347C815,-346 965,-341 1090,-331 1119,-328 1127,-330 1154,-323 1158,-322 1161,-321 1165,-320"/>
<polygon style="fill:black;stroke:black;" points="1166.28,-323.26 1174,-316 1163.44,-316.863 1166.28,-323.26"/>
<text text-anchor="middle" x="931" y="-344.9" style="font-family:Times New Roman;font-size:14.00;">stby_B</text>
</g>
<!-- 25 -->
<g id="node27" class="node"><title>25</title>
<ellipse style="fill:none;stroke:black;" cx="1763" cy="-49" rx="23.1964" ry="23.1964"/>
<ellipse style="fill:none;stroke:black;" cx="1763" cy="-49" rx="27.1237" ry="27.1237"/>
<text text-anchor="middle" x="1763" y="-44.9" style="font-family:Times New Roman;font-size:14.00;">25</text>
</g>
<!-- 21&#45;&gt;25 -->
<g id="edge72" class="edge"><title>21&#45;&gt;25</title>
<path style="fill:none;stroke:black;" d="M1652,-56C1673,-55 1702,-53 1726,-52"/>
<polygon style="fill:black;stroke:black;" points="1726.4,-55.4778 1736,-51 1725.7,-48.5125 1726.4,-55.4778"/>
<text text-anchor="middle" x="1694" y="-57.9" style="font-family:Times New Roman;font-size:14.00;">stby_A</text>
</g>
<!-- 22&#45;&gt;13 -->
<g id="edge74" class="edge"><title>22&#45;&gt;13</title>
<path style="fill:none;stroke:black;" d="M610,-58C639,-58 686,-58 727,-58 727,-58 727,-58 1337,-58 1374,-58 1415,-67 1443,-74"/>
<polygon style="fill:black;stroke:black;" points="1442.42,-77.4788 1453,-77 1444.43,-70.7741 1442.42,-77.4788"/>
<text text-anchor="middle" x="1002" y="-61.9" style="font-family:Times New Roman;font-size:14.00;">idle_AB</text>
</g>
<!-- 23&#45;&gt;12 -->
<g id="edge76" class="edge"><title>23&#45;&gt;12</title>
<path style="fill:none;stroke:black;" d="M1321,-314C1313,-306 1303,-297 1292,-293 1274,-285 1252,-288 1234,-292"/>
<polygon style="fill:black;stroke:black;" points="1232.57,-288.774 1224,-295 1234.58,-295.479 1232.57,-288.774"/>
<text text-anchor="middle" x="1268" y="-296.9" style="font-family:Times New Roman;font-size:14.00;">stby_B</text>
</g>
<!-- 23&#45;&gt;16 -->
<g id="edge78" class="edge"><title>23&#45;&gt;16</title>
<path style="fill:none;stroke:black;" d="M1320,-358C1296,-385 1250,-429 1199,-429 510,-429 510,-429 510,-429 467,-429 426,-399 400,-377"/>
<polygon style="fill:black;stroke:black;" points="401.831,-373.951 392,-370 397.221,-379.219 401.831,-373.951"/>
<text text-anchor="middle" x="860" y="-432.9" style="font-family:Times New Roman;font-size:14.00;">idle_AB</text>
</g>
<!-- 24 -->
<g id="node26" class="node"><title>24</title>
<ellipse style="fill:none;stroke:black;" cx="1909" cy="-76" rx="23.1964" ry="23.1964"/>
<ellipse style="fill:none;stroke:black;" cx="1909" cy="-76" rx="27.1237" ry="27.1237"/>
<text text-anchor="middle" x="1909" y="-71.9" style="font-family:Times New Roman;font-size:14.00;">24</text>
</g>
<!-- 24&#45;&gt;11 -->
<g id="edge82" class="edge"><title>24&#45;&gt;11</title>
<path style="fill:none;stroke:black;" d="M1936,-81C1958,-85 1990,-92 2014,-97"/>
<polygon style="fill:black;stroke:black;" points="2013.51,-100.471 2024,-99 2014.88,-93.6067 2013.51,-100.471"/>
<text text-anchor="middle" x="1980" y="-97.9" style="font-family:Times New Roman;font-size:14.00;">idle_AB</text>
</g>
<!-- 24&#45;&gt;25 -->
<g id="edge80" class="edge"><title>24&#45;&gt;25</title>
<path style="fill:none;stroke:black;" d="M1891,-55C1883,-48 1874,-41 1864,-38 1844,-30 1819,-33 1799,-37"/>
<polygon style="fill:black;stroke:black;" points="1797.57,-33.7741 1789,-40 1799.58,-40.4788 1797.57,-33.7741"/>
<text text-anchor="middle" x="1836" y="-41.9" style="font-family:Times New Roman;font-size:14.00;">stby_A</text>
</g>
<!-- 25&#45;&gt;7 -->
<g id="edge86" class="edge"><title>25&#45;&gt;7</title>
<path style="fill:none;stroke:black;" d="M1739,-36C1712,-23 1667,-4 1625,-3 373,-3 373,-3 373,-3 329,-4 316,-10 276,-30 270,-33 265,-36 260,-40"/>
<polygon style="fill:black;stroke:black;" points="257.221,-37.7809 252,-47 261.831,-43.0489 257.221,-37.7809"/>
<text text-anchor="middle" x="1002" y="-7.9" style="font-family:Times New Roman;font-size:14.00;">idle_B</text>
</g>
<!-- 25&#45;&gt;24 -->
<g id="edge84" class="edge"><title>25&#45;&gt;24</title>
<path style="fill:none;stroke:black;" d="M1790,-54C1813,-58 1847,-64 1872,-69"/>
<polygon style="fill:black;stroke:black;" points="1871.51,-72.4708 1882,-71 1872.88,-65.6067 1871.51,-72.4708"/>
<text text-anchor="middle" x="1836" y="-69.9" style="font-family:Times New Roman;font-size:14.00;">idle_A</text>
</g>
</g>
</svg>
