<?xml version="1.0" encoding="UTF-8" standalone="no"?>
<!DOCTYPE svg PUBLIC "-//W3C//DTD SVG 1.0//EN"
 "http://www.w3.org/TR/2001/REC-SVG-20010904/DTD/svg10.dtd" [
 <!ATTLIST svg xmlns:xlink CDATA #FIXED "http://www.w3.org/1999/xlink">
]>
<!-- Generated by Graphviz version 2.20.2 (Tue Mar &#160;2 21:46:26 UTC 2010)
     For user: (mtmoor) Prof. Thomas Moor -->
<!-- Title: HioController Pages: 1 -->
<svg width="454pt" height="82pt"
 viewBox="0.00 0.00 454.00 82.00" xmlns="http://www.w3.org/2000/svg" xmlns:xlink="http://www.w3.org/1999/xlink">
<g id="graph0" class="graph" transform="scale(1 1) rotate(0) translate(4 78)">
<title>HioController</title>
<polygon style="fill:white;stroke:white;" points="-4,4 -4,-78 450,-78 450,4 -4,4"/>
<!-- dot_dummyinit_1 -->
<g id="node1" class="node"><title>dot_dummyinit_1</title>
</g>
<!-- 1 -->
<g id="node3" class="node"><title>1</title>
<ellipse style="fill:none;stroke:black;" cx="114" cy="-22" rx="18" ry="18"/>
<ellipse style="fill:none;stroke:black;" cx="114" cy="-22" rx="22" ry="22"/>
<text text-anchor="middle" x="114" y="-17.9" style="font-family:Times New Roman;font-size:14.00;">1</text>
</g>
<!-- dot_dummyinit_1&#45;&gt;1 -->
<g id="edge2" class="edge"><title>dot_dummyinit_1&#45;&gt;1</title>
<path style="fill:none;stroke:black;" d="M54,-22C63,-22 72,-22 82,-22"/>
<polygon style="fill:black;stroke:black;" points="82,-25.5001 92,-22 82,-18.5001 82,-25.5001"/>
</g>
<!-- 2 -->
<g id="node4" class="node"><title>2</title>
<ellipse style="fill:none;stroke:black;" cx="220" cy="-52" rx="18" ry="18"/>
<ellipse style="fill:none;stroke:black;" cx="220" cy="-52" rx="22" ry="22"/>
<text text-anchor="middle" x="220" y="-47.9" style="font-family:Times New Roman;font-size:14.00;">2</text>
</g>
<!-- 1&#45;&gt;2 -->
<g id="edge4" class="edge"><title>1&#45;&gt;2</title>
<path style="fill:none;stroke:black;" d="M135,-28C151,-32 172,-38 189,-43"/>
<polygon style="fill:black;stroke:black;" points="188.416,-46.4788 199,-46 190.427,-39.7741 188.416,-46.4788"/>
<text text-anchor="middle" x="167" y="-41.9" style="font-family:Times New Roman;font-size:14.00;">yp1</text>
</g>
<!-- 3 -->
<g id="node5" class="node"><title>3</title>
<ellipse style="fill:none;stroke:black;" cx="318" cy="-52" rx="18" ry="18"/>
<ellipse style="fill:none;stroke:black;" cx="318" cy="-52" rx="22" ry="22"/>
<text text-anchor="middle" x="318" y="-47.9" style="font-family:Times New Roman;font-size:14.00;">3</text>
</g>
<!-- 2&#45;&gt;3 -->
<g id="edge6" class="edge"><title>2&#45;&gt;3</title>
<path style="fill:none;stroke:black;" d="M242,-52C255,-52 271,-52 286,-52"/>
<polygon style="fill:black;stroke:black;" points="286,-55.5001 296,-52 286,-48.5001 286,-55.5001"/>
<text text-anchor="middle" x="269" y="-55.9" style="font-family:Times New Roman;font-size:14.00;">yc</text>
</g>
<!-- 4 -->
<g id="node6" class="node"><title>4</title>
<ellipse style="fill:none;stroke:black;" cx="424" cy="-22" rx="18" ry="18"/>
<ellipse style="fill:none;stroke:black;" cx="424" cy="-22" rx="22" ry="22"/>
<text text-anchor="middle" x="424" y="-17.9" style="font-family:Times New Roman;font-size:14.00;">4</text>
</g>
<!-- 3&#45;&gt;4 -->
<g id="edge8" class="edge"><title>3&#45;&gt;4</title>
<path style="fill:none;stroke:black;" d="M339,-46C355,-42 376,-36 393,-31"/>
<polygon style="fill:black;stroke:black;" points="394.427,-34.2259 403,-28 392.416,-27.5212 394.427,-34.2259"/>
<text text-anchor="middle" x="371" y="-42.9" style="font-family:Times New Roman;font-size:14.00;">uc1</text>
</g>
<!-- 4&#45;&gt;1 -->
<g id="edge10" class="edge"><title>4&#45;&gt;1</title>
<path style="fill:none;stroke:black;" d="M402,-22C385,-21 361,-21 340,-21 277,-20 262,-20 198,-21 181,-21 162,-21 146,-22"/>
<polygon style="fill:black;stroke:black;" points="146,-18.5001 136,-22 146,-25.5001 146,-18.5001"/>
<text text-anchor="middle" x="269" y="-23.9" style="font-family:Times New Roman;font-size:14.00;">up</text>
</g>
</g>
</svg>
