<?xml version="1.0" encoding="UTF-8" standalone="no"?>
<!DOCTYPE svg PUBLIC "-//W3C//DTD SVG 1.0//EN"
 "http://www.w3.org/TR/2001/REC-SVG-20010904/DTD/svg10.dtd" [
 <!ATTLIST svg xmlns:xlink CDATA #FIXED "http://www.w3.org/1999/xlink">
]>
<!-- Generated by Graphviz version 2.20.2 (Tue Mar &#160;2 21:46:26 UTC 2010)
     For user: (mtmoor) Prof. Thomas Moor -->
<!-- Title: Project(HioSynth(Transport Unit A,Specification A)||Transport Unit A) Pages: 1 -->
<svg width="720pt" height="83pt"
 viewBox="0.00 0.00 720.00 82.52" xmlns="http://www.w3.org/2000/svg" xmlns:xlink="http://www.w3.org/1999/xlink">
<g id="graph0" class="graph" transform="scale(0.906801 0.906801) rotate(0) translate(4 87)">
<title>Project(HioSynth(Transport Unit A,Specification A)||Transport Unit A)</title>
<polygon style="fill:white;stroke:white;" points="-4,4 -4,-87 790,-87 790,4 -4,4"/>
<!-- dot_dummyinit_1 -->
<g id="node1" class="node"><title>dot_dummyinit_1</title>
</g>
<!-- 1 -->
<g id="node3" class="node"><title>1</title>
<ellipse style="fill:none;stroke:black;" cx="114" cy="-33" rx="18" ry="18"/>
<ellipse style="fill:none;stroke:black;" cx="114" cy="-33" rx="22" ry="22"/>
<text text-anchor="middle" x="114" y="-28.9" style="font-family:Times New Roman;font-size:14.00;">1</text>
</g>
<!-- dot_dummyinit_1&#45;&gt;1 -->
<g id="edge2" class="edge"><title>dot_dummyinit_1&#45;&gt;1</title>
<path style="fill:none;stroke:black;" d="M54,-33C63,-33 72,-33 82,-33"/>
<polygon style="fill:black;stroke:black;" points="82,-36.5001 92,-33 82,-29.5001 82,-36.5001"/>
</g>
<!-- 5 -->
<g id="node7" class="node"><title>5</title>
<ellipse style="fill:none;stroke:black;" cx="242" cy="-61" rx="18" ry="18"/>
<ellipse style="fill:none;stroke:black;" cx="242" cy="-61" rx="22" ry="22"/>
<text text-anchor="middle" x="242" y="-56.9" style="font-family:Times New Roman;font-size:14.00;">5</text>
</g>
<!-- 1&#45;&gt;5 -->
<g id="edge4" class="edge"><title>1&#45;&gt;5</title>
<path style="fill:none;stroke:black;" d="M134,-43C140,-46 147,-49 154,-51 172,-56 193,-58 210,-59"/>
<polygon style="fill:black;stroke:black;" points="209.701,-62.4875 220,-60 210.398,-55.5222 209.701,-62.4875"/>
<text text-anchor="middle" x="178" y="-60.9" style="font-family:Times New Roman;font-size:14.00;">idle_A</text>
</g>
<!-- 2 -->
<g id="node4" class="node"><title>2</title>
<ellipse style="fill:none;stroke:black;" cx="494" cy="-61" rx="18" ry="18"/>
<ellipse style="fill:none;stroke:black;" cx="494" cy="-61" rx="22" ry="22"/>
<text text-anchor="middle" x="494" y="-56.9" style="font-family:Times New Roman;font-size:14.00;">2</text>
</g>
<!-- 3 -->
<g id="node5" class="node"><title>3</title>
<ellipse style="fill:none;stroke:black;" cx="358" cy="-61" rx="18" ry="18"/>
<ellipse style="fill:none;stroke:black;" cx="358" cy="-61" rx="22" ry="22"/>
<text text-anchor="middle" x="358" y="-56.9" style="font-family:Times New Roman;font-size:14.00;">3</text>
</g>
<!-- 2&#45;&gt;3 -->
<g id="edge6" class="edge"><title>2&#45;&gt;3</title>
<path style="fill:none;stroke:black;" d="M474,-52C468,-49 461,-47 454,-46 430,-41 423,-41 398,-46 395,-47 391,-47 387,-49"/>
<polygon style="fill:black;stroke:black;" points="386.38,-45.5173 378,-52 388.594,-52.158 386.38,-45.5173"/>
<text text-anchor="middle" x="426" y="-49.9" style="font-family:Times New Roman;font-size:14.00;">nack_A</text>
</g>
<!-- 4 -->
<g id="node6" class="node"><title>4</title>
<ellipse style="fill:none;stroke:black;" cx="624" cy="-61" rx="18" ry="18"/>
<ellipse style="fill:none;stroke:black;" cx="624" cy="-61" rx="22" ry="22"/>
<text text-anchor="middle" x="624" y="-56.9" style="font-family:Times New Roman;font-size:14.00;">4</text>
</g>
<!-- 2&#45;&gt;4 -->
<g id="edge8" class="edge"><title>2&#45;&gt;4</title>
<path style="fill:none;stroke:black;" d="M516,-61C537,-61 568,-61 592,-61"/>
<polygon style="fill:black;stroke:black;" points="592,-64.5001 602,-61 592,-57.5001 592,-64.5001"/>
<text text-anchor="middle" x="559" y="-64.9" style="font-family:Times New Roman;font-size:14.00;">pack_A</text>
</g>
<!-- 3&#45;&gt;2 -->
<g id="edge10" class="edge"><title>3&#45;&gt;2</title>
<path style="fill:none;stroke:black;" d="M380,-62C386,-62 392,-63 398,-63 423,-63 430,-63 454,-63 457,-63 459,-63 462,-63"/>
<polygon style="fill:black;stroke:black;" points="462.398,-66.4778 472,-62 461.701,-59.5125 462.398,-66.4778"/>
<text text-anchor="middle" x="426" y="-66.9" style="font-family:Times New Roman;font-size:14.00;">req_fl_A</text>
</g>
<!-- 6 -->
<g id="node8" class="node"><title>6</title>
<ellipse style="fill:none;stroke:black;" cx="764" cy="-33" rx="18" ry="18"/>
<ellipse style="fill:none;stroke:black;" cx="764" cy="-33" rx="22" ry="22"/>
<text text-anchor="middle" x="764" y="-28.9" style="font-family:Times New Roman;font-size:14.00;">6</text>
</g>
<!-- 4&#45;&gt;6 -->
<g id="edge12" class="edge"><title>4&#45;&gt;6</title>
<path style="fill:none;stroke:black;" d="M646,-61C667,-60 698,-58 724,-51 728,-50 731,-49 735,-47"/>
<polygon style="fill:black;stroke:black;" points="736.283,-50.2598 744,-43 733.44,-43.8631 736.283,-50.2598"/>
<text text-anchor="middle" x="694" y="-62.9" style="font-family:Times New Roman;font-size:14.00;">req_tr_A</text>
</g>
<!-- 5&#45;&gt;1 -->
<g id="edge16" class="edge"><title>5&#45;&gt;1</title>
<path style="fill:none;stroke:black;" d="M227,-44C220,-37 212,-31 202,-27 184,-20 163,-21 145,-25"/>
<polygon style="fill:black;stroke:black;" points="144.119,-21.6067 135,-27 145.492,-28.4708 144.119,-21.6067"/>
<text text-anchor="middle" x="178" y="-30.9" style="font-family:Times New Roman;font-size:14.00;">stby_A</text>
</g>
<!-- 5&#45;&gt;3 -->
<g id="edge14" class="edge"><title>5&#45;&gt;3</title>
<path style="fill:none;stroke:black;" d="M264,-61C282,-61 306,-61 326,-61"/>
<polygon style="fill:black;stroke:black;" points="326,-64.5001 336,-61 326,-57.5001 326,-64.5001"/>
<text text-anchor="middle" x="300" y="-64.9" style="font-family:Times New Roman;font-size:14.00;">l2r_A</text>
</g>
<!-- 6&#45;&gt;1 -->
<g id="edge20" class="edge"><title>6&#45;&gt;1</title>
<path style="fill:none;stroke:black;" d="M743,-25C717,-15 667,-0 624,-0 242,-0 242,-0 242,-0 203,-0 193,-4 154,-16 150,-17 147,-18 144,-20"/>
<polygon style="fill:black;stroke:black;" points="142.573,-16.7741 134,-23 144.584,-23.4788 142.573,-16.7741"/>
<text text-anchor="middle" x="426" y="-3.9" style="font-family:Times New Roman;font-size:14.00;">pack_A</text>
</g>
<!-- 6&#45;&gt;4 -->
<g id="edge18" class="edge"><title>6&#45;&gt;4</title>
<path style="fill:none;stroke:black;" d="M743,-28C722,-24 690,-21 664,-30 658,-32 652,-35 647,-39"/>
<polygon style="fill:black;stroke:black;" points="644.9,-36.2 639,-45 649.1,-41.8 644.9,-36.2"/>
<text text-anchor="middle" x="694" y="-33.9" style="font-family:Times New Roman;font-size:14.00;">nack_A</text>
</g>
</g>
</svg>
