<?xml version="1.0" encoding="UTF-8" standalone="no"?>
<!DOCTYPE svg PUBLIC "-//W3C//DTD SVG 1.0//EN"
 "http://www.w3.org/TR/2001/REC-SVG-20010904/DTD/svg10.dtd" [
 <!ATTLIST svg xmlns:xlink CDATA #FIXED "http://www.w3.org/1999/xlink">
]>
<!-- Generated by Graphviz version 2.20.2 (Tue Mar &#160;2 21:46:26 UTC 2010)
     For user: (mtmoor) Prof. Thomas Moor -->
<!-- Title: HioSynth(Transport Unit A,Specification A)__C Pages: 1 -->
<svg width="720pt" height="168pt"
 viewBox="0.00 0.00 720.00 168.05" xmlns="http://www.w3.org/2000/svg" xmlns:xlink="http://www.w3.org/1999/xlink">
<g id="graph0" class="graph" transform="scale(0.724346 0.724346) rotate(0) translate(4 228)">
<title>HioSynth(Transport Unit A,Specification A)__C</title>
<polygon style="fill:white;stroke:white;" points="-4,4 -4,-228 990,-228 990,4 -4,4"/>
<!-- dot_dummyinit_1 -->
<g id="node1" class="node"><title>dot_dummyinit_1</title>
</g>
<!-- 1 -->
<g id="node3" class="node"><title>1</title>
<ellipse style="fill:none;stroke:black;" cx="114" cy="-59" rx="18" ry="18"/>
<ellipse style="fill:none;stroke:black;" cx="114" cy="-59" rx="22" ry="22"/>
<text text-anchor="middle" x="114" y="-54.9" style="font-family:Times New Roman;font-size:14.00;">1</text>
</g>
<!-- dot_dummyinit_1&#45;&gt;1 -->
<g id="edge2" class="edge"><title>dot_dummyinit_1&#45;&gt;1</title>
<path style="fill:none;stroke:black;" d="M54,-59C63,-59 72,-59 82,-59"/>
<polygon style="fill:black;stroke:black;" points="82,-62.5001 92,-59 82,-55.5001 82,-62.5001"/>
</g>
<!-- 2 -->
<g id="node4" class="node"><title>2</title>
<ellipse style="fill:none;stroke:black;" cx="820" cy="-141" rx="18" ry="18"/>
<ellipse style="fill:none;stroke:black;" cx="820" cy="-141" rx="22" ry="22"/>
<text text-anchor="middle" x="820" y="-136.9" style="font-family:Times New Roman;font-size:14.00;">2</text>
</g>
<!-- 1&#45;&gt;2 -->
<g id="edge6" class="edge"><title>1&#45;&gt;2</title>
<path style="fill:none;stroke:black;" d="M127,-77C149,-106 199,-162 256,-162 256,-162 256,-162 678,-162 716,-162 760,-154 789,-148"/>
<polygon style="fill:black;stroke:black;" points="789.881,-151.393 799,-146 788.508,-144.529 789.881,-151.393"/>
<text text-anchor="middle" x="465" y="-165.9" style="font-family:Times New Roman;font-size:14.00;">full_A</text>
</g>
<!-- 7 -->
<g id="node9" class="node"><title>7</title>
<ellipse style="fill:none;stroke:black;" cx="256" cy="-89" rx="18" ry="18"/>
<ellipse style="fill:none;stroke:black;" cx="256" cy="-89" rx="22" ry="22"/>
<text text-anchor="middle" x="256" y="-84.9" style="font-family:Times New Roman;font-size:14.00;">7</text>
</g>
<!-- 1&#45;&gt;7 -->
<g id="edge4" class="edge"><title>1&#45;&gt;7</title>
<path style="fill:none;stroke:black;" d="M136,-64C159,-68 197,-77 224,-82"/>
<polygon style="fill:black;stroke:black;" points="223.508,-85.4708 234,-84 224.881,-78.6067 223.508,-85.4708"/>
<text text-anchor="middle" x="185" y="-82.9" style="font-family:Times New Roman;font-size:14.00;">empty_A</text>
</g>
<!-- 6 -->
<g id="node8" class="node"><title>6</title>
<ellipse style="fill:none;stroke:black;" cx="964" cy="-141" rx="18" ry="18"/>
<ellipse style="fill:none;stroke:black;" cx="964" cy="-141" rx="22" ry="22"/>
<text text-anchor="middle" x="964" y="-136.9" style="font-family:Times New Roman;font-size:14.00;">6</text>
</g>
<!-- 2&#45;&gt;6 -->
<g id="edge8" class="edge"><title>2&#45;&gt;6</title>
<path style="fill:none;stroke:black;" d="M828,-161C835,-175 845,-191 860,-199 886,-212 899,-212 924,-199 936,-193 944,-182 951,-171"/>
<polygon style="fill:black;stroke:black;" points="954.203,-172.441 956,-162 948.084,-169.042 954.203,-172.441"/>
<text text-anchor="middle" x="892" y="-211.9" style="font-family:Times New Roman;font-size:14.00;">del_tr_A</text>
</g>
<!-- 2&#45;&gt;6 -->
<g id="edge10" class="edge"><title>2&#45;&gt;6</title>
<path style="fill:none;stroke:black;" d="M840,-151C846,-154 853,-157 860,-159 888,-164 897,-164 924,-159 928,-158 932,-157 935,-155"/>
<polygon style="fill:black;stroke:black;" points="937.015,-157.964 945,-151 934.415,-151.464 937.015,-157.964"/>
<text text-anchor="middle" x="892" y="-165.9" style="font-family:Times New Roman;font-size:14.00;">take_fl_A</text>
</g>
<!-- 2&#45;&gt;6 -->
<g id="edge12" class="edge"><title>2&#45;&gt;6</title>
<path style="fill:none;stroke:black;" d="M842,-137C848,-136 854,-135 860,-135 889,-132 896,-132 924,-135 927,-135 929,-135 932,-135"/>
<polygon style="fill:black;stroke:black;" points="931.508,-138.471 942,-137 932.881,-131.607 931.508,-138.471"/>
<text text-anchor="middle" x="892" y="-138.9" style="font-family:Times New Roman;font-size:14.00;">no_op_C</text>
</g>
<!-- 3 -->
<g id="node5" class="node"><title>3</title>
<ellipse style="fill:none;stroke:black;" cx="820" cy="-50" rx="18" ry="18"/>
<ellipse style="fill:none;stroke:black;" cx="820" cy="-50" rx="22" ry="22"/>
<text text-anchor="middle" x="820" y="-45.9" style="font-family:Times New Roman;font-size:14.00;">3</text>
</g>
<!-- 3&#45;&gt;1 -->
<g id="edge14" class="edge"><title>3&#45;&gt;1</title>
<path style="fill:none;stroke:black;" d="M801,-39C774,-24 724,-1 678,-0 256,-0 256,-0 256,-0 214,-1 169,-24 141,-41"/>
<polygon style="fill:black;stroke:black;" points="139.042,-38.084 132,-46 142.441,-44.2031 139.042,-38.084"/>
<text text-anchor="middle" x="465" y="-3.9" style="font-family:Times New Roman;font-size:14.00;">del_tr_A</text>
</g>
<!-- 4 -->
<g id="node6" class="node"><title>4</title>
<ellipse style="fill:none;stroke:black;" cx="534" cy="-50" rx="18" ry="18"/>
<ellipse style="fill:none;stroke:black;" cx="534" cy="-50" rx="22" ry="22"/>
<text text-anchor="middle" x="534" y="-45.9" style="font-family:Times New Roman;font-size:14.00;">4</text>
</g>
<!-- 4&#45;&gt;1 -->
<g id="edge16" class="edge"><title>4&#45;&gt;1</title>
<path style="fill:none;stroke:black;" d="M512,-51C442,-52 228,-57 146,-59"/>
<polygon style="fill:black;stroke:black;" points="146,-55.5001 136,-59 146,-62.5001 146,-55.5001"/>
<text text-anchor="middle" x="326" y="-57.9" style="font-family:Times New Roman;font-size:14.00;">no_op_C</text>
</g>
<!-- 5 -->
<g id="node7" class="node"><title>5</title>
<ellipse style="fill:none;stroke:black;" cx="534" cy="-112" rx="18" ry="18"/>
<ellipse style="fill:none;stroke:black;" cx="534" cy="-112" rx="22" ry="22"/>
<text text-anchor="middle" x="534" y="-107.9" style="font-family:Times New Roman;font-size:14.00;">5</text>
</g>
<!-- 9 -->
<g id="node11" class="node"><title>9</title>
<ellipse style="fill:none;stroke:black;" cx="678" cy="-112" rx="18" ry="18"/>
<ellipse style="fill:none;stroke:black;" cx="678" cy="-112" rx="22" ry="22"/>
<text text-anchor="middle" x="678" y="-107.9" style="font-family:Times New Roman;font-size:14.00;">9</text>
</g>
<!-- 5&#45;&gt;9 -->
<g id="edge18" class="edge"><title>5&#45;&gt;9</title>
<path style="fill:none;stroke:black;" d="M556,-112C580,-112 618,-112 646,-112"/>
<polygon style="fill:black;stroke:black;" points="646,-115.5 656,-112 646,-108.5 646,-115.5"/>
<text text-anchor="middle" x="606" y="-115.9" style="font-family:Times New Roman;font-size:14.00;">take_fl_A</text>
</g>
<!-- 6&#45;&gt;2 -->
<g id="edge22" class="edge"><title>6&#45;&gt;2</title>
<path style="fill:none;stroke:black;" d="M948,-125C942,-120 933,-114 924,-111 898,-102 887,-102 860,-111 854,-113 849,-116 844,-119"/>
<polygon style="fill:black;stroke:black;" points="841.9,-116.2 836,-125 846.1,-121.8 841.9,-116.2"/>
<text text-anchor="middle" x="892" y="-114.9" style="font-family:Times New Roman;font-size:14.00;">full_A</text>
</g>
<!-- 6&#45;&gt;2 -->
<g id="edge20" class="edge"><title>6&#45;&gt;2</title>
<path style="fill:none;stroke:black;" d="M960,-119C955,-100 944,-74 924,-62 900,-47 885,-47 860,-62 851,-67 840,-91 832,-111"/>
<polygon style="fill:black;stroke:black;" points="828.863,-109.44 828,-120 835.26,-112.283 828.863,-109.44"/>
<text text-anchor="middle" x="892" y="-65.9" style="font-family:Times New Roman;font-size:14.00;">empty_A</text>
</g>
<!-- 8 -->
<g id="node10" class="node"><title>8</title>
<ellipse style="fill:none;stroke:black;" cx="396" cy="-89" rx="18" ry="18"/>
<ellipse style="fill:none;stroke:black;" cx="396" cy="-89" rx="22" ry="22"/>
<text text-anchor="middle" x="396" y="-84.9" style="font-family:Times New Roman;font-size:14.00;">8</text>
</g>
<!-- 7&#45;&gt;8 -->
<g id="edge24" class="edge"><title>7&#45;&gt;8</title>
<path style="fill:none;stroke:black;" d="M278,-89C302,-89 338,-89 364,-89"/>
<polygon style="fill:black;stroke:black;" points="364,-92.5001 374,-89 364,-85.5001 364,-92.5001"/>
<text text-anchor="middle" x="326" y="-92.9" style="font-family:Times New Roman;font-size:14.00;">idle_A</text>
</g>
<!-- 8&#45;&gt;4 -->
<g id="edge28" class="edge"><title>8&#45;&gt;4</title>
<path style="fill:none;stroke:black;" d="M416,-80C423,-77 430,-75 436,-73 458,-66 483,-60 502,-56"/>
<polygon style="fill:black;stroke:black;" points="502.881,-59.3933 512,-54 501.508,-52.5292 502.881,-59.3933"/>
<text text-anchor="middle" x="465" y="-76.9" style="font-family:Times New Roman;font-size:14.00;">stby_A</text>
</g>
<!-- 8&#45;&gt;5 -->
<g id="edge26" class="edge"><title>8&#45;&gt;5</title>
<path style="fill:none;stroke:black;" d="M418,-93C441,-97 477,-102 502,-106"/>
<polygon style="fill:black;stroke:black;" points="501.508,-109.471 512,-108 502.881,-102.607 501.508,-109.471"/>
<text text-anchor="middle" x="465" y="-107.9" style="font-family:Times New Roman;font-size:14.00;">l2r_A</text>
</g>
<!-- 9&#45;&gt;2 -->
<g id="edge30" class="edge"><title>9&#45;&gt;2</title>
<path style="fill:none;stroke:black;" d="M700,-116C721,-119 753,-125 780,-131 783,-131 786,-132 789,-133"/>
<polygon style="fill:black;stroke:black;" points="788.508,-136.471 799,-135 789.881,-129.607 788.508,-136.471"/>
<text text-anchor="middle" x="749" y="-134.9" style="font-family:Times New Roman;font-size:14.00;">empty_A</text>
</g>
<!-- 9&#45;&gt;3 -->
<g id="edge32" class="edge"><title>9&#45;&gt;3</title>
<path style="fill:none;stroke:black;" d="M698,-103C722,-92 763,-75 791,-63"/>
<polygon style="fill:black;stroke:black;" points="792.283,-66.2598 800,-59 789.44,-59.8631 792.283,-66.2598"/>
<text text-anchor="middle" x="749" y="-95.9" style="font-family:Times New Roman;font-size:14.00;">full_A</text>
</g>
</g>
</svg>
