<?xml version="1.0" encoding="UTF-8" standalone="no"?>
<!DOCTYPE svg PUBLIC "-//W3C//DTD SVG 1.0//EN"
 "http://www.w3.org/TR/2001/REC-SVG-20010904/DTD/svg10.dtd">
<!-- Generated by dot version 2.2 (Tue Sep 13 00:37:56 UTC 2005)
     For user: (msperk) Perk_Sebastian, Betreuer=Moor, mitarb, 01/05    Title: Environment AB 2    Pages: 1 -->
<svg width="611pt" height="427pt"
 viewBox = "-1 -1 610 426"
 xmlns="http://www.w3.org/2000/svg">
<g id="graph0" class="graph" style="font-family:Times-Roman;font-size:14.00;">
<title>Environment AB 2</title>
<g id="node1" class="node"><title>dot_dummyinit_1</title>
</g>
<g id="node3" class="node"><title>4</title>
<ellipse cx="119" cy="274" rx="18" ry="18" style="fill:none;stroke:black;"/>
<ellipse cx="119" cy="274" rx="22" ry="22" style="fill:none;stroke:black;"/>
<text text-anchor="middle" x="119" y="279">4</text>
</g>
<g id="edge2" class="edge"><title>dot_dummyinit_1&#45;&gt;4</title>
<path style="fill:none;stroke:black;" d="M59,274C68,274 77,274 87,274"/>
<polygon style="fill:black;stroke:black;" points="87,270 97,274 87,277 87,270"/>
</g>
<g id="edge50" class="edge"><title>4&#45;&gt;4</title>
<path style="fill:none;stroke:black;" d="M124,252C125,243 123,234 119,234 117,234 115,237 114,242"/>
<polygon style="fill:black;stroke:black;" points="118,242 114,252 111,242 118,242"/>
<text text-anchor="middle" x="119" y="231">AB_freetr</text>
</g>
<g id="edge56" class="edge"><title>4&#45;&gt;4</title>
<path style="fill:none;stroke:black;" d="M140,266C183,246 176,216 119,216 66,216 56,241 89,261"/>
<polygon style="fill:black;stroke:black;" points="91,258 98,266 88,264 91,258"/>
<text text-anchor="middle" x="119" y="213">CD_freetr</text>
</g>
<g id="edge58" class="edge"><title>4&#45;&gt;4</title>
<path style="fill:none;stroke:black;" d="M139,265C190,239 183,198 119,198 59,198 49,234 90,260"/>
<polygon style="fill:black;stroke:black;" points="92,257 99,265 89,263 92,257"/>
<text text-anchor="middle" x="119" y="195">ABCD_freetr</text>
</g>
<g id="node5" class="node"><title>2</title>
<ellipse cx="257" cy="196" rx="18" ry="18" style="fill:none;stroke:black;"/>
<ellipse cx="257" cy="196" rx="22" ry="22" style="fill:none;stroke:black;"/>
<text text-anchor="middle" x="257" y="201">2</text>
</g>
<g id="edge52" class="edge"><title>4&#45;&gt;2</title>
<path style="fill:none;stroke:black;" d="M121,252C125,230 135,196 159,179 180,166 208,172 229,181"/>
<polygon style="fill:black;stroke:black;" points="230,178 238,185 227,184 230,178"/>
<text text-anchor="middle" x="188" y="169">CD_occfl</text>
</g>
<g id="edge54" class="edge"><title>4&#45;&gt;2</title>
<path style="fill:none;stroke:black;" d="M128,253C136,238 140,229 159,217 165,214 199,207 225,202"/>
<polygon style="fill:black;stroke:black;" points="225,199 235,200 226,205 225,199"/>
<text text-anchor="middle" x="188" y="202">CD_accfl</text>
</g>
<g id="node6" class="node"><title>3</title>
<ellipse cx="533" cy="274" rx="18" ry="18" style="fill:none;stroke:black;"/>
<ellipse cx="533" cy="274" rx="22" ry="22" style="fill:none;stroke:black;"/>
<text text-anchor="middle" x="533" y="279">3</text>
</g>
<g id="edge46" class="edge"><title>4&#45;&gt;3</title>
<path style="fill:none;stroke:black;" d="M141,274C193,275 325,276 435,276 461,277 468,277 493,276 496,276 498,276 501,276"/>
<polygon style="fill:black;stroke:black;" points="501,272 511,276 501,279 501,272"/>
<text text-anchor="middle" x="326" y="273">AB_occfl</text>
</g>
<g id="edge48" class="edge"><title>4&#45;&gt;3</title>
<path style="fill:none;stroke:black;" d="M141,278C147,278 153,279 159,280 221,289 236,293 297,296 385,302 407,292 493,281 496,281 499,280 502,280"/>
<polygon style="fill:black;stroke:black;" points="502,276 512,280 502,283 502,276"/>
<text text-anchor="middle" x="326" y="293">AB_accfl</text>
</g>
<g id="node4" class="node"><title>1</title>
<ellipse cx="395" cy="196" rx="18" ry="18" style="fill:none;stroke:black;"/>
<ellipse cx="395" cy="196" rx="22" ry="22" style="fill:none;stroke:black;"/>
<text text-anchor="middle" x="395" y="201">1</text>
</g>
<g id="edge4" class="edge"><title>1&#45;&gt;1</title>
<path style="fill:none;stroke:black;" d="M398,174C398,164 397,156 395,156 394,156 393,159 392,164"/>
<polygon style="fill:black;stroke:black;" points="396,164 392,174 389,164 396,164"/>
<text text-anchor="middle" x="395" y="153">AB_occfl</text>
</g>
<g id="edge6" class="edge"><title>1&#45;&gt;1</title>
<path style="fill:none;stroke:black;" d="M416,188C455,168 448,138 395,138 346,138 336,163 365,183"/>
<polygon style="fill:black;stroke:black;" points="367,180 374,188 364,186 367,180"/>
<text text-anchor="middle" x="395" y="135">AB_accfl</text>
</g>
<g id="edge10" class="edge"><title>1&#45;&gt;1</title>
<path style="fill:none;stroke:black;" d="M415,186C459,160 453,120 395,120 341,120 332,155 366,180"/>
<polygon style="fill:black;stroke:black;" points="369,178 375,186 365,183 369,178"/>
<text text-anchor="middle" x="395" y="117">CD_occfl</text>
</g>
<g id="edge12" class="edge"><title>1&#45;&gt;1</title>
<path style="fill:none;stroke:black;" d="M415,185C463,152 457,102 395,102 337,102 328,146 367,179"/>
<polygon style="fill:black;stroke:black;" points="369,176 375,185 365,182 369,176"/>
<text text-anchor="middle" x="395" y="99">CD_accfl</text>
</g>
<g id="edge16" class="edge"><title>1&#45;&gt;1</title>
<path style="fill:none;stroke:black;" d="M414,184C467,145 461,84 395,84 332,84 324,139 368,178"/>
<polygon style="fill:black;stroke:black;" points="370,175 376,184 366,181 370,175"/>
<text text-anchor="middle" x="395" y="81">ABCD_reltr</text>
</g>
<g id="edge8" class="edge"><title>1&#45;&gt;2</title>
<path style="fill:none;stroke:black;" d="M373,196C350,196 315,196 289,196"/>
<polygon style="fill:black;stroke:black;" points="289,199 279,196 289,192 289,199"/>
<text text-anchor="middle" x="326" y="193">AB_freetr</text>
</g>
<g id="edge14" class="edge"><title>1&#45;&gt;3</title>
<path style="fill:none;stroke:black;" d="M415,185C436,175 470,164 493,179 514,194 524,221 529,242"/>
<polygon style="fill:black;stroke:black;" points="532,242 531,252 526,243 532,242"/>
<text text-anchor="middle" x="464" y="170">CD_freetr</text>
</g>
<g id="edge28" class="edge"><title>2&#45;&gt;4</title>
<path style="fill:none;stroke:black;" d="M244,214C236,222 227,231 217,237 197,251 171,260 151,266"/>
<polygon style="fill:black;stroke:black;" points="152,269 141,269 150,263 152,269"/>
<text text-anchor="middle" x="188" y="234">CD_freetr</text>
</g>
<g id="edge18" class="edge"><title>2&#45;&gt;1</title>
<path style="fill:none;stroke:black;" d="M276,185C282,181 290,178 297,176 323,171 330,171 355,176 359,177 363,178 367,180"/>
<polygon style="fill:black;stroke:black;" points="368,177 376,184 365,183 368,177"/>
<text text-anchor="middle" x="326" y="170">AB_occfl</text>
</g>
<g id="edge20" class="edge"><title>2&#45;&gt;1</title>
<path style="fill:none;stroke:black;" d="M276,208C282,211 290,214 297,216 323,222 330,222 355,216 359,215 363,214 367,212"/>
<polygon style="fill:black;stroke:black;" points="365,209 376,208 368,215 365,209"/>
<text text-anchor="middle" x="326" y="213">AB_accfl</text>
</g>
<g id="edge22" class="edge"><title>2&#45;&gt;2</title>
<path style="fill:none;stroke:black;" d="M261,174C261,164 260,156 257,156 255,156 254,159 253,164"/>
<polygon style="fill:black;stroke:black;" points="257,164 253,174 250,164 257,164"/>
<text text-anchor="middle" x="257" y="153">AB_freetr</text>
</g>
<g id="edge24" class="edge"><title>2&#45;&gt;2</title>
<path style="fill:none;stroke:black;" d="M278,188C319,168 312,138 257,138 207,138 196,163 227,183"/>
<polygon style="fill:black;stroke:black;" points="229,180 236,188 226,186 229,180"/>
<text text-anchor="middle" x="257" y="135">CD_occfl</text>
</g>
<g id="edge26" class="edge"><title>2&#45;&gt;2</title>
<path style="fill:none;stroke:black;" d="M277,187C324,160 317,120 257,120 201,120 191,155 228,181"/>
<polygon style="fill:black;stroke:black;" points="231,179 237,187 227,184 231,179"/>
<text text-anchor="middle" x="257" y="117">CD_accfl</text>
</g>
<g id="edge30" class="edge"><title>2&#45;&gt;2</title>
<path style="fill:none;stroke:black;" d="M277,186C329,153 323,102 257,102 195,102 186,147 229,180"/>
<polygon style="fill:black;stroke:black;" points="231,177 237,186 227,183 231,177"/>
<text text-anchor="middle" x="257" y="99">ABCD_reltr</text>
</g>
<g id="edge36" class="edge"><title>3&#45;&gt;4</title>
<path style="fill:none;stroke:black;" d="M529,296C525,317 515,347 493,363 424,416 385,394 297,387 235,381 209,401 159,363 141,349 131,325 126,306"/>
<polygon style="fill:black;stroke:black;" points="123,307 123,296 129,305 123,307"/>
<text text-anchor="middle" x="326" y="381">AB_freetr</text>
</g>
<g id="edge38" class="edge"><title>3&#45;&gt;1</title>
<path style="fill:none;stroke:black;" d="M520,256C512,248 503,238 493,231 473,218 447,209 427,203"/>
<polygon style="fill:black;stroke:black;" points="426,206 417,201 427,200 426,206"/>
<text text-anchor="middle" x="464" y="204">CD_occfl</text>
</g>
<g id="edge40" class="edge"><title>3&#45;&gt;1</title>
<path style="fill:none;stroke:black;" d="M511,273C490,271 458,266 435,251 421,242 415,236 409,225"/>
<polygon style="fill:black;stroke:black;" points="406,226 404,216 412,223 406,226"/>
<text text-anchor="middle" x="464" y="248">CD_accfl</text>
</g>
<g id="edge32" class="edge"><title>3&#45;&gt;3</title>
<path style="fill:none;stroke:black;" d="M537,252C537,242 536,234 533,234 531,234 530,237 529,242"/>
<polygon style="fill:black;stroke:black;" points="533,242 529,252 526,242 533,242"/>
<text text-anchor="middle" x="533" y="231">AB_occfl</text>
</g>
<g id="edge34" class="edge"><title>3&#45;&gt;3</title>
<path style="fill:none;stroke:black;" d="M554,266C594,246 587,216 533,216 483,216 473,241 503,261"/>
<polygon style="fill:black;stroke:black;" points="505,258 512,266 502,264 505,258"/>
<text text-anchor="middle" x="533" y="213">AB_accfl</text>
</g>
<g id="edge42" class="edge"><title>3&#45;&gt;3</title>
<path style="fill:none;stroke:black;" d="M553,265C599,238 592,198 533,198 478,198 468,233 505,259"/>
<polygon style="fill:black;stroke:black;" points="507,256 513,265 503,262 507,256"/>
<text text-anchor="middle" x="533" y="195">CD_freetr</text>
</g>
<g id="edge44" class="edge"><title>3&#45;&gt;3</title>
<path style="fill:none;stroke:black;" d="M553,264C604,231 598,180 533,180 472,180 463,225 505,258"/>
<polygon style="fill:black;stroke:black;" points="507,255 513,264 503,261 507,255"/>
<text text-anchor="middle" x="533" y="177">ABCD_reltr</text>
</g>
</g>
</svg>
