<?xml version="1.0" encoding="UTF-8" standalone="no"?>
<!DOCTYPE svg PUBLIC "-//W3C//DTD SVG 1.0//EN"
 "http://www.w3.org/TR/2001/REC-SVG-20010904/DTD/svg10.dtd">
<!-- Generated by dot version 2.2 (Tue Sep 13 00:37:56 UTC 2005)
     For user: (msperk) Perk_Sebastian, Betreuer=Moor, mitarb, 01/05    Title: HioSynth(plant_A,spec_A)_D_    Pages: 1 -->
<svg width="732pt" height="266pt"
 viewBox = "-1 -1 731 265"
 xmlns="http://www.w3.org/2000/svg">
<g id="graph0" class="graph" transform = "scale(0.262774)"
 style="font-family:Times-Roman;font-size:14.00;">
<title>HioSynth(plant_A,spec_A)_D_</title>
<g id="node1" class="node"><title>dot_dummyinit_1</title>
</g>
<g id="node3" class="node"><title>1</title>
<ellipse cx="119" cy="151" rx="18" ry="18" style="fill:none;stroke:black;"/>
<ellipse cx="119" cy="151" rx="22" ry="22" style="fill:none;stroke:black;"/>
<text text-anchor="middle" x="119" y="156">1</text>
</g>
<g id="edge2" class="edge"><title>dot_dummyinit_1&#45;&gt;1</title>
<path style="fill:none;stroke:black;" d="M59,151C68,151 77,151 87,151"/>
<polygon style="fill:black;stroke:black;" points="87,147 97,151 87,154 87,147"/>
</g>
<g id="node4" class="node"><title>2</title>
<ellipse cx="2595" cy="416" rx="18" ry="18" style="fill:none;stroke:black;"/>
<ellipse cx="2595" cy="416" rx="22" ry="22" style="fill:none;stroke:black;"/>
<text text-anchor="middle" x="2595" y="421">2</text>
</g>
<g id="edge6" class="edge"><title>1&#45;&gt;2</title>
<path style="fill:none;stroke:black;" d="M128,131C134,116 145,98 159,85 191,58 203,47 244,47 244,47 244,47 2464,47 2507,47 2525,53 2551,85 2607,153 2582,191 2592,277 2593,288 2594,346 2595,384"/>
<polygon style="fill:black;stroke:black;" points="2599,384 2595,394 2592,384 2599,384"/>
<text text-anchor="middle" x="1329" y="44">D_full</text>
</g>
<g id="edge8" class="edge"><title>1&#45;&gt;2</title>
<path style="fill:none;stroke:black;" d="M137,138C161,123 203,99 244,99 244,99 244,99 2464,99 2507,99 2524,106 2551,137 2594,186 2583,213 2592,277 2594,288 2595,346 2595,384"/>
<polygon style="fill:black;stroke:black;" points="2599,384 2595,394 2592,384 2599,384"/>
<text text-anchor="middle" x="1329" y="96">D_arrtl</text>
</g>
<g id="edge10" class="edge"><title>1&#45;&gt;2</title>
<path style="fill:none;stroke:black;" d="M141,151C166,151 208,151 244,151 244,151 244,151 2464,151 2544,151 2575,200 2592,277 2593,283 2594,344 2595,384"/>
<polygon style="fill:black;stroke:black;" points="2599,384 2595,394 2592,384 2599,384"/>
<text text-anchor="middle" x="1329" y="148">D_arrtr</text>
</g>
<g id="node23" class="node"><title>21</title>
<ellipse cx="244" cy="247" rx="21" ry="21" style="fill:none;stroke:black;"/>
<ellipse cx="244" cy="247" rx="25" ry="25" style="fill:none;stroke:black;"/>
<text text-anchor="middle" x="244" y="252">21</text>
</g>
<g id="edge4" class="edge"><title>1&#45;&gt;21</title>
<path style="fill:none;stroke:black;" d="M137,165C158,180 192,207 216,226"/>
<polygon style="fill:black;stroke:black;" points="218,223 224,232 214,229 218,223"/>
<text text-anchor="middle" x="180" y="181">D_wait</text>
</g>
<g id="node7" class="node"><title>5</title>
<ellipse cx="2723" cy="416" rx="18" ry="18" style="fill:none;stroke:black;"/>
<ellipse cx="2723" cy="416" rx="22" ry="22" style="fill:none;stroke:black;"/>
<text text-anchor="middle" x="2723" y="421">5</text>
</g>
<g id="edge12" class="edge"><title>2&#45;&gt;5</title>
<path style="fill:none;stroke:black;" d="M2600,394C2607,362 2623,304 2639,292 2655,281 2668,281 2683,292 2698,304 2710,351 2717,384"/>
<polygon style="fill:black;stroke:black;" points="2720,384 2719,394 2714,385 2720,384"/>
<text text-anchor="middle" x="2661" y="281">D_r</text>
</g>
<g id="edge14" class="edge"><title>2&#45;&gt;5</title>
<path style="fill:none;stroke:black;" d="M2602,395C2608,378 2620,355 2639,344 2657,335 2667,335 2683,344 2699,353 2708,370 2714,385"/>
<polygon style="fill:black;stroke:black;" points="2718,384 2718,395 2711,387 2718,384"/>
<text text-anchor="middle" x="2661" y="335">D_l</text>
</g>
<g id="edge16" class="edge"><title>2&#45;&gt;5</title>
<path style="fill:none;stroke:black;" d="M2615,405C2622,402 2631,398 2639,396 2659,392 2664,392 2683,396 2687,397 2691,398 2695,400"/>
<polygon style="fill:black;stroke:black;" points="2696,397 2704,404 2693,403 2696,397"/>
<text text-anchor="middle" x="2661" y="390">D_stp</text>
</g>
<g id="node5" class="node"><title>3</title>
<ellipse cx="1267" cy="422" rx="18" ry="18" style="fill:none;stroke:black;"/>
<ellipse cx="1267" cy="422" rx="22" ry="22" style="fill:none;stroke:black;"/>
<text text-anchor="middle" x="1267" y="427">3</text>
</g>
<g id="node17" class="node"><title>15</title>
<ellipse cx="1394" cy="422" rx="21" ry="21" style="fill:none;stroke:black;"/>
<ellipse cx="1394" cy="422" rx="25" ry="25" style="fill:none;stroke:black;"/>
<text text-anchor="middle" x="1394" y="427">15</text>
</g>
<g id="edge18" class="edge"><title>3&#45;&gt;15</title>
<path style="fill:none;stroke:black;" d="M1289,422C1309,422 1337,422 1359,422"/>
<polygon style="fill:black;stroke:black;" points="1359,418 1369,422 1359,425 1359,418"/>
<text text-anchor="middle" x="1329" y="419">D_stp</text>
</g>
<g id="node6" class="node"><title>4</title>
<ellipse cx="1771" cy="584" rx="18" ry="18" style="fill:none;stroke:black;"/>
<ellipse cx="1771" cy="584" rx="22" ry="22" style="fill:none;stroke:black;"/>
<text text-anchor="middle" x="1771" y="589">4</text>
</g>
<g id="node21" class="node"><title>19</title>
<ellipse cx="1899" cy="740" rx="21" ry="21" style="fill:none;stroke:black;"/>
<ellipse cx="1899" cy="740" rx="25" ry="25" style="fill:none;stroke:black;"/>
<text text-anchor="middle" x="1899" y="745">19</text>
</g>
<g id="edge20" class="edge"><title>4&#45;&gt;19</title>
<path style="fill:none;stroke:black;" d="M1785,601C1807,628 1850,680 1876,712"/>
<polygon style="fill:black;stroke:black;" points="1879,710 1883,720 1874,715 1879,710"/>
<text text-anchor="middle" x="1833" y="629">D_r</text>
</g>
<g id="node24" class="node"><title>22</title>
<ellipse cx="1899" cy="584" rx="21" ry="21" style="fill:none;stroke:black;"/>
<ellipse cx="1899" cy="584" rx="25" ry="25" style="fill:none;stroke:black;"/>
<text text-anchor="middle" x="1899" y="589">22</text>
</g>
<g id="edge22" class="edge"><title>4&#45;&gt;22</title>
<path style="fill:none;stroke:black;" d="M1793,584C1812,584 1841,584 1863,584"/>
<polygon style="fill:black;stroke:black;" points="1863,580 1873,584 1863,587 1863,580"/>
<text text-anchor="middle" x="1833" y="581">D_stp</text>
</g>
<g id="edge24" class="edge"><title>5&#45;&gt;2</title>
<path style="fill:none;stroke:black;" d="M2701,418C2695,419 2689,419 2683,419 2664,420 2659,420 2639,419 2635,419 2631,419 2627,419"/>
<polygon style="fill:black;stroke:black;" points="2627,422 2617,418 2627,416 2627,422"/>
<text text-anchor="middle" x="2661" y="416">D_wait</text>
</g>
<g id="edge26" class="edge"><title>5&#45;&gt;2</title>
<path style="fill:none;stroke:black;" d="M2705,430C2699,434 2691,438 2683,440 2665,446 2659,445 2639,440 2631,438 2626,437 2621,435"/>
<polygon style="fill:black;stroke:black;" points="2620,438 2612,431 2623,432 2620,438"/>
<text text-anchor="middle" x="2661" y="437">D_full</text>
</g>
<g id="edge28" class="edge"><title>5&#45;&gt;2</title>
<path style="fill:none;stroke:black;" d="M2716,437C2708,453 2702,459 2683,466 2665,474 2658,473 2639,466 2622,460 2613,457 2605,446"/>
<polygon style="fill:black;stroke:black;" points="2602,448 2599,438 2608,444 2602,448"/>
<text text-anchor="middle" x="2661" y="463">D_arrtl</text>
</g>
<g id="edge30" class="edge"><title>5&#45;&gt;2</title>
<path style="fill:none;stroke:black;" d="M2720,438C2710,465 2710,479 2683,493 2666,503 2657,501 2639,493 2617,483 2609,474 2599,448"/>
<polygon style="fill:black;stroke:black;" points="2596,449 2596,438 2602,447 2596,449"/>
<text text-anchor="middle" x="2661" y="490">D_arrtr</text>
</g>
<g id="node8" class="node"><title>6</title>
<ellipse cx="740" cy="323" rx="18" ry="18" style="fill:none;stroke:black;"/>
<ellipse cx="740" cy="323" rx="22" ry="22" style="fill:none;stroke:black;"/>
<text text-anchor="middle" x="740" y="328">6</text>
</g>
<g id="node20" class="node"><title>18</title>
<ellipse cx="612" cy="291" rx="21" ry="21" style="fill:none;stroke:black;"/>
<ellipse cx="612" cy="291" rx="25" ry="25" style="fill:none;stroke:black;"/>
<text text-anchor="middle" x="612" y="296">18</text>
</g>
<g id="edge32" class="edge"><title>6&#45;&gt;18</title>
<path style="fill:none;stroke:black;" d="M718,317C699,313 669,305 646,299"/>
<polygon style="fill:black;stroke:black;" points="645,302 636,297 646,296 645,302"/>
<text text-anchor="middle" x="676" y="300">D_r</text>
</g>
<g id="node22" class="node"><title>20</title>
<ellipse cx="881" cy="323" rx="21" ry="21" style="fill:none;stroke:black;"/>
<ellipse cx="881" cy="323" rx="25" ry="25" style="fill:none;stroke:black;"/>
<text text-anchor="middle" x="881" y="328">20</text>
</g>
<g id="edge34" class="edge"><title>6&#45;&gt;20</title>
<path style="fill:none;stroke:black;" d="M762,323C784,323 819,323 845,323"/>
<polygon style="fill:black;stroke:black;" points="845,319 855,323 845,326 845,319"/>
<text text-anchor="middle" x="810" y="320">D_FULL</text>
</g>
<g id="node9" class="node"><title>7</title>
<ellipse cx="1653" cy="568" rx="18" ry="18" style="fill:none;stroke:black;"/>
<ellipse cx="1653" cy="568" rx="22" ry="22" style="fill:none;stroke:black;"/>
<text text-anchor="middle" x="1653" y="573">7</text>
</g>
<g id="edge36" class="edge"><title>7&#45;&gt;3</title>
<path style="fill:none;stroke:black;" d="M1631,568C1591,568 1504,564 1437,536 1381,512 1323,469 1292,443"/>
<polygon style="fill:black;stroke:black;" points="1289,445 1284,436 1294,440 1289,445"/>
<text text-anchor="middle" x="1458" y="533">D_STP</text>
</g>
<g id="edge38" class="edge"><title>7&#45;&gt;4</title>
<path style="fill:none;stroke:black;" d="M1675,571C1693,574 1719,577 1739,580"/>
<polygon style="fill:black;stroke:black;" points="1739,577 1749,581 1739,583 1739,577"/>
<text text-anchor="middle" x="1712" y="572">D_TR</text>
</g>
<g id="node10" class="node"><title>8</title>
<ellipse cx="1519" cy="518" rx="18" ry="18" style="fill:none;stroke:black;"/>
<ellipse cx="1519" cy="518" rx="22" ry="22" style="fill:none;stroke:black;"/>
<text text-anchor="middle" x="1519" y="523">8</text>
</g>
<g id="edge40" class="edge"><title>8&#45;&gt;7</title>
<path style="fill:none;stroke:black;" d="M1540,526C1562,534 1597,547 1623,557"/>
<polygon style="fill:black;stroke:black;" points="1624,554 1632,560 1621,560 1624,554"/>
<text text-anchor="middle" x="1586" y="531">D_WAIT</text>
</g>
<g id="node11" class="node"><title>9</title>
<ellipse cx="381" cy="291" rx="18" ry="18" style="fill:none;stroke:black;"/>
<ellipse cx="381" cy="291" rx="22" ry="22" style="fill:none;stroke:black;"/>
<text text-anchor="middle" x="381" y="296">9</text>
</g>
<g id="node25" class="node"><title>23</title>
<ellipse cx="2595" cy="915" rx="21" ry="21" style="fill:none;stroke:black;"/>
<ellipse cx="2595" cy="915" rx="25" ry="25" style="fill:none;stroke:black;"/>
<text text-anchor="middle" x="2595" y="920">23</text>
</g>
<g id="edge42" class="edge"><title>9&#45;&gt;23</title>
<path style="fill:none;stroke:black;" d="M383,313C392,426 437,934 501,934 501,934 501,934 2464,934 2497,934 2533,928 2560,923"/>
<polygon style="fill:black;stroke:black;" points="2560,920 2570,921 2561,926 2560,920"/>
<text text-anchor="middle" x="1458" y="931">D_STP</text>
</g>
<g id="node28" class="node"><title>26</title>
<ellipse cx="501" cy="291" rx="21" ry="21" style="fill:none;stroke:black;"/>
<ellipse cx="501" cy="291" rx="25" ry="25" style="fill:none;stroke:black;"/>
<text text-anchor="middle" x="501" y="296">26</text>
</g>
<g id="edge44" class="edge"><title>9&#45;&gt;26</title>
<path style="fill:none;stroke:black;" d="M403,291C420,291 444,291 465,291"/>
<polygon style="fill:black;stroke:black;" points="465,287 475,291 465,294 465,287"/>
<text text-anchor="middle" x="439" y="288">D_FL</text>
</g>
<g id="node12" class="node"><title>10</title>
<ellipse cx="2266" cy="880" rx="21" ry="21" style="fill:none;stroke:black;"/>
<ellipse cx="2266" cy="880" rx="25" ry="25" style="fill:none;stroke:black;"/>
<text text-anchor="middle" x="2266" y="885">10</text>
</g>
<g id="edge46" class="edge"><title>10&#45;&gt;23</title>
<path style="fill:none;stroke:black;" d="M2291,883C2349,889 2492,904 2559,911"/>
<polygon style="fill:black;stroke:black;" points="2559,908 2569,912 2559,914 2559,908"/>
<text text-anchor="middle" x="2400" y="888">D_STP</text>
</g>
<g id="node13" class="node"><title>11</title>
<ellipse cx="740" cy="400" rx="20" ry="20" style="fill:none;stroke:black;"/>
<ellipse cx="740" cy="400" rx="24" ry="24" style="fill:none;stroke:black;"/>
<text text-anchor="middle" x="740" y="405">11</text>
</g>
<g id="node29" class="node"><title>27</title>
<ellipse cx="950" cy="420" rx="21" ry="21" style="fill:none;stroke:black;"/>
<ellipse cx="950" cy="420" rx="25" ry="25" style="fill:none;stroke:black;"/>
<text text-anchor="middle" x="950" y="425">27</text>
</g>
<g id="edge48" class="edge"><title>11&#45;&gt;27</title>
<path style="fill:none;stroke:black;" d="M765,402C802,406 873,413 915,417"/>
<polygon style="fill:black;stroke:black;" points="915,414 925,418 915,420 915,414"/>
<text text-anchor="middle" x="810" y="402">D_FULL</text>
</g>
<g id="node14" class="node"><title>12</title>
<ellipse cx="2030" cy="769" rx="21" ry="21" style="fill:none;stroke:black;"/>
<ellipse cx="2030" cy="769" rx="25" ry="25" style="fill:none;stroke:black;"/>
<text text-anchor="middle" x="2030" y="774">12</text>
</g>
<g id="edge50" class="edge"><title>12&#45;&gt;19</title>
<path style="fill:none;stroke:black;" d="M2012,786C2005,791 1996,797 1987,800 1969,806 1961,808 1943,800 1931,794 1922,782 1914,772"/>
<polygon style="fill:black;stroke:black;" points="1911,773 1909,763 1917,770 1911,773"/>
<text text-anchor="middle" x="1965" y="794">D_r</text>
</g>
<g id="node27" class="node"><title>25</title>
<ellipse cx="2190" cy="770" rx="21" ry="21" style="fill:none;stroke:black;"/>
<ellipse cx="2190" cy="770" rx="25" ry="25" style="fill:none;stroke:black;"/>
<text text-anchor="middle" x="2190" y="775">25</text>
</g>
<g id="edge52" class="edge"><title>12&#45;&gt;25</title>
<path style="fill:none;stroke:black;" d="M2055,769C2082,769 2124,769 2154,770"/>
<polygon style="fill:black;stroke:black;" points="2154,766 2164,770 2154,773 2154,766"/>
<text text-anchor="middle" x="2106" y="766">D_ARRTR</text>
</g>
<g id="node15" class="node"><title>13</title>
<ellipse cx="2106" cy="868" rx="21" ry="21" style="fill:none;stroke:black;"/>
<ellipse cx="2106" cy="868" rx="25" ry="25" style="fill:none;stroke:black;"/>
<text text-anchor="middle" x="2106" y="873">13</text>
</g>
<g id="edge54" class="edge"><title>13&#45;&gt;10</title>
<path style="fill:none;stroke:black;" d="M2131,870C2158,872 2201,875 2231,877"/>
<polygon style="fill:black;stroke:black;" points="2231,874 2241,878 2231,880 2231,874"/>
<text text-anchor="middle" x="2190" y="868">D_ARRTR</text>
</g>
<g id="node16" class="node"><title>14</title>
<ellipse cx="1018" cy="323" rx="21" ry="21" style="fill:none;stroke:black;"/>
<ellipse cx="1018" cy="323" rx="25" ry="25" style="fill:none;stroke:black;"/>
<text text-anchor="middle" x="1018" y="328">14</text>
</g>
<g id="node18" class="node"><title>16</title>
<ellipse cx="1146" cy="332" rx="21" ry="21" style="fill:none;stroke:black;"/>
<ellipse cx="1146" cy="332" rx="25" ry="25" style="fill:none;stroke:black;"/>
<text text-anchor="middle" x="1146" y="337">16</text>
</g>
<g id="edge56" class="edge"><title>14&#45;&gt;16</title>
<path style="fill:none;stroke:black;" d="M1040,335C1047,338 1054,341 1061,342 1078,345 1096,344 1112,341"/>
<polygon style="fill:black;stroke:black;" points="1112,338 1122,339 1113,344 1112,338"/>
<text text-anchor="middle" x="1082" y="339">D_r</text>
</g>
<g id="edge60" class="edge"><title>15&#45;&gt;2</title>
<path style="fill:none;stroke:black;" d="M1416,435C1440,449 1481,468 1519,468 1519,468 1519,468 1899,468 2190,468 2266,483 2551,430 2555,429 2560,429 2564,427"/>
<polygon style="fill:black;stroke:black;" points="2563,424 2574,424 2565,430 2563,424"/>
<text text-anchor="middle" x="1965" y="467">D_full</text>
</g>
<g id="edge62" class="edge"><title>15&#45;&gt;2</title>
<path style="fill:none;stroke:black;" d="M1416,409C1440,396 1482,378 1519,378 1519,378 1519,378 1771,378 1887,378 1915,364 2030,364 2030,364 2030,364 2464,364 2502,364 2542,383 2567,398"/>
<polygon style="fill:black;stroke:black;" points="2569,395 2576,403 2566,401 2569,395"/>
<text text-anchor="middle" x="1965" y="363">D_arrtl</text>
</g>
<g id="edge64" class="edge"><title>15&#45;&gt;2</title>
<path style="fill:none;stroke:black;" d="M1419,420C1444,418 1485,416 1519,416 1519,416 1519,416 2464,416 2498,416 2536,416 2563,416"/>
<polygon style="fill:black;stroke:black;" points="2563,412 2573,416 2563,419 2563,412"/>
<text text-anchor="middle" x="1965" y="413">D_arrtr</text>
</g>
<g id="edge58" class="edge"><title>15&#45;&gt;8</title>
<path style="fill:none;stroke:black;" d="M1402,446C1409,463 1420,485 1437,498 1451,509 1470,514 1487,516"/>
<polygon style="fill:black;stroke:black;" points="1487,513 1497,517 1487,519 1487,513"/>
<text text-anchor="middle" x="1458" y="495">D_wait</text>
</g>
<g id="edge70" class="edge"><title>16&#45;&gt;2</title>
<path style="fill:none;stroke:black;" d="M1171,332C1196,332 1234,332 1267,332 1267,332 1267,332 1771,332 1887,332 1915,320 2030,320 2030,320 2030,320 2464,320 2526,320 2554,338 2585,385"/>
<polygon style="fill:black;stroke:black;" points="2588,384 2590,394 2582,387 2588,384"/>
<text text-anchor="middle" x="1833" y="328">D_arrtl</text>
</g>
<g id="edge72" class="edge"><title>16&#45;&gt;2</title>
<path style="fill:none;stroke:black;" d="M1168,320C1192,309 1231,293 1267,293 1267,293 1267,293 1519,293 1688,293 1731,280 1899,280 1899,280 1899,280 2464,280 2507,280 2519,294 2551,322 2575,343 2580,352 2591,384"/>
<polygon style="fill:black;stroke:black;" points="2594,383 2594,394 2588,385 2594,383"/>
<text text-anchor="middle" x="1833" y="279">D_arrtr</text>
</g>
<g id="edge68" class="edge"><title>16&#45;&gt;3</title>
<path style="fill:none;stroke:black;" d="M1166,347C1187,362 1219,386 1241,403"/>
<polygon style="fill:black;stroke:black;" points="1243,400 1249,409 1239,406 1243,400"/>
<text text-anchor="middle" x="1208" y="362">D_full</text>
</g>
<g id="edge66" class="edge"><title>16&#45;&gt;14</title>
<path style="fill:none;stroke:black;" d="M1121,326C1115,324 1109,323 1103,322 1087,320 1069,320 1053,321"/>
<polygon style="fill:black;stroke:black;" points="1053,324 1043,321 1053,317 1053,324"/>
<text text-anchor="middle" x="1082" y="318">D_wait</text>
</g>
<g id="node19" class="node"><title>17</title>
<ellipse cx="2464" cy="798" rx="20" ry="20" style="fill:none;stroke:black;"/>
<ellipse cx="2464" cy="798" rx="24" ry="24" style="fill:none;stroke:black;"/>
<text text-anchor="middle" x="2464" y="803">17</text>
</g>
<g id="edge76" class="edge"><title>17&#45;&gt;2</title>
<path style="fill:none;stroke:black;" d="M2486,787C2507,776 2536,757 2551,732 2580,684 2590,518 2594,448"/>
<polygon style="fill:black;stroke:black;" points="2591,448 2594,438 2598,448 2591,448"/>
<text text-anchor="middle" x="2529" y="729">D_full</text>
</g>
<g id="edge78" class="edge"><title>17&#45;&gt;2</title>
<path style="fill:none;stroke:black;" d="M2488,805C2507,809 2534,811 2551,796 2602,753 2589,565 2592,498 2594,482 2594,464 2595,448"/>
<polygon style="fill:black;stroke:black;" points="2592,448 2595,438 2599,448 2592,448"/>
<text text-anchor="middle" x="2529" y="793">D_arrtl</text>
</g>
<g id="edge80" class="edge"><title>17&#45;&gt;23</title>
<path style="fill:none;stroke:black;" d="M2482,814C2505,834 2542,868 2568,891"/>
<polygon style="fill:black;stroke:black;" points="2571,889 2576,898 2566,894 2571,889"/>
<text text-anchor="middle" x="2529" y="831">D_arrtr</text>
</g>
<g id="node26" class="node"><title>24</title>
<ellipse cx="2335" cy="770" rx="21" ry="21" style="fill:none;stroke:black;"/>
<ellipse cx="2335" cy="770" rx="25" ry="25" style="fill:none;stroke:black;"/>
<text text-anchor="middle" x="2335" y="775">24</text>
</g>
<g id="edge74" class="edge"><title>17&#45;&gt;24</title>
<path style="fill:none;stroke:black;" d="M2440,793C2420,789 2392,783 2370,778"/>
<polygon style="fill:black;stroke:black;" points="2369,781 2360,776 2370,775 2369,781"/>
<text text-anchor="middle" x="2400" y="776">D_wait</text>
</g>
<g id="edge86" class="edge"><title>18&#45;&gt;2</title>
<path style="fill:none;stroke:black;" d="M624,269C632,257 643,243 655,233 688,208 699,197 740,197 740,197 740,197 1267,197 1409,197 1445,195 1586,195 1586,195 1586,195 2464,195 2505,195 2524,193 2551,222 2601,275 2580,308 2592,379 2592,381 2593,382 2593,384"/>
<polygon style="fill:black;stroke:black;" points="2596,384 2594,394 2590,384 2596,384"/>
<text text-anchor="middle" x="1586" y="192">D_arrtl</text>
</g>
<g id="edge88" class="edge"><title>18&#45;&gt;2</title>
<path style="fill:none;stroke:black;" d="M634,279C659,266 701,247 740,247 740,247 740,247 1519,247 1688,247 1731,236 1899,236 1899,236 1899,236 2464,236 2540,236 2551,289 2583,356 2586,362 2587,364 2589,369 2591,374 2592,375 2592,379 2592,380 2593,382 2593,384"/>
<polygon style="fill:black;stroke:black;" points="2596,384 2594,394 2590,384 2596,384"/>
<text text-anchor="middle" x="1586" y="244">D_arrtr</text>
</g>
<g id="edge82" class="edge"><title>18&#45;&gt;6</title>
<path style="fill:none;stroke:black;" d="M624,313C632,323 639,327 655,333 672,340 693,337 709,334"/>
<polygon style="fill:black;stroke:black;" points="708,331 719,331 710,337 708,331"/>
<text text-anchor="middle" x="676" y="330">D_wait</text>
</g>
<g id="edge84" class="edge"><title>18&#45;&gt;11</title>
<path style="fill:none;stroke:black;" d="M615,316C626,339 635,344 655,359 671,372 691,381 708,388"/>
<polygon style="fill:black;stroke:black;" points="709,385 717,392 706,391 709,385"/>
<text text-anchor="middle" x="676" y="356">D_full</text>
</g>
<g id="edge92" class="edge"><title>19&#45;&gt;2</title>
<path style="fill:none;stroke:black;" d="M1917,722C1925,716 1934,709 1943,704 2193,587 2340,758 2551,581 2581,557 2578,539 2586,501 2590,485 2591,481 2592,464 2593,459 2593,454 2594,448"/>
<polygon style="fill:black;stroke:black;" points="2591,448 2594,438 2598,448 2591,448"/>
<text text-anchor="middle" x="2266" y="662">D_full</text>
</g>
<g id="edge94" class="edge"><title>19&#45;&gt;2</title>
<path style="fill:none;stroke:black;" d="M1923,734C1930,733 1937,731 1943,730 2185,689 2260,739 2489,654 2519,644 2531,645 2551,621 2579,590 2574,574 2583,532 2589,507 2590,500 2592,473 2593,465 2593,457 2594,448"/>
<polygon style="fill:black;stroke:black;" points="2591,448 2595,438 2597,448 2591,448"/>
<text text-anchor="middle" x="2266" y="702">D_arrtl</text>
</g>
<g id="edge90" class="edge"><title>19&#45;&gt;12</title>
<path style="fill:none;stroke:black;" d="M1924,745C1944,750 1973,756 1995,761"/>
<polygon style="fill:black;stroke:black;" points="1996,758 2005,763 1995,764 1996,758"/>
<text text-anchor="middle" x="1965" y="747">D_wait</text>
</g>
<g id="edge96" class="edge"><title>19&#45;&gt;13</title>
<path style="fill:none;stroke:black;" d="M1900,765C1900,768 1901,771 1901,772 1912,800 1918,808 1943,825 1982,850 2036,861 2071,865"/>
<polygon style="fill:black;stroke:black;" points="2071,862 2081,866 2071,868 2071,862"/>
<text text-anchor="middle" x="1965" y="819">D_arrtr</text>
</g>
<g id="edge98" class="edge"><title>20&#45;&gt;14</title>
<path style="fill:none;stroke:black;" d="M907,323C929,323 959,323 983,323"/>
<polygon style="fill:black;stroke:black;" points="983,319 993,323 983,326 983,319"/>
<text text-anchor="middle" x="950" y="320">D_STP</text>
</g>
<g id="edge100" class="edge"><title>21&#45;&gt;9</title>
<path style="fill:none;stroke:black;" d="M268,255C291,262 325,273 350,281"/>
<polygon style="fill:black;stroke:black;" points="351,278 360,284 349,284 351,278"/>
<text text-anchor="middle" x="314" y="259">D_WAIT</text>
</g>
<g id="edge104" class="edge"><title>22&#45;&gt;2</title>
<path style="fill:none;stroke:black;" d="M1923,574C1950,565 1992,552 2030,552 2030,552 2030,552 2464,552 2507,552 2522,544 2551,514 2570,496 2581,468 2587,447"/>
<polygon style="fill:black;stroke:black;" points="2584,446 2590,437 2590,448 2584,446"/>
<text text-anchor="middle" x="2266" y="549">D_full</text>
</g>
<g id="edge106" class="edge"><title>22&#45;&gt;2</title>
<path style="fill:none;stroke:black;" d="M1925,587C2035,598 2456,634 2551,552 2587,522 2582,499 2591,448"/>
<polygon style="fill:black;stroke:black;" points="2588,447 2593,438 2594,448 2588,447"/>
<text text-anchor="middle" x="2266" y="602">D_arrtl</text>
</g>
<g id="edge108" class="edge"><title>22&#45;&gt;2</title>
<path style="fill:none;stroke:black;" d="M1913,562C1921,557 1930,555 1943,550 1970,541 1978,544 2005,540 2127,523 2445,530 2551,470 2563,464 2572,454 2579,444"/>
<polygon style="fill:black;stroke:black;" points="2577,441 2585,435 2582,445 2577,441"/>
<text text-anchor="middle" x="2266" y="519">D_arrtr</text>
</g>
<g id="edge102" class="edge"><title>22&#45;&gt;12</title>
<path style="fill:none;stroke:black;" d="M1916,604C1940,631 1982,684 2014,737"/>
<polygon style="fill:black;stroke:black;" points="2017,736 2019,746 2011,739 2017,736"/>
<text text-anchor="middle" x="1965" y="633">D_wait</text>
</g>
<g id="edge110" class="edge"><title>23&#45;&gt;1</title>
<path style="fill:none;stroke:black;" d="M2579,936C2545,970 2520,980 2464,980 244,980 244,980 244,980 162,980 128,336 120,183"/>
<polygon style="fill:black;stroke:black;" points="117,183 120,173 124,183 117,183"/>
<text text-anchor="middle" x="1329" y="977">D_stp</text>
</g>
<g id="edge112" class="edge"><title>24&#45;&gt;17</title>
<path style="fill:none;stroke:black;" d="M2349,792C2357,799 2365,802 2379,807 2396,812 2415,811 2431,807"/>
<polygon style="fill:black;stroke:black;" points="2431,804 2441,805 2432,810 2431,804"/>
<text text-anchor="middle" x="2400" y="801">D_r</text>
</g>
<g id="edge114" class="edge"><title>25&#45;&gt;24</title>
<path style="fill:none;stroke:black;" d="M2216,770C2239,770 2273,770 2299,770"/>
<polygon style="fill:black;stroke:black;" points="2299,766 2309,770 2299,773 2299,766"/>
<text text-anchor="middle" x="2266" y="767">D_STP</text>
</g>
<g id="edge116" class="edge"><title>26&#45;&gt;18</title>
<path style="fill:none;stroke:black;" d="M527,291C542,291 561,291 577,291"/>
<polygon style="fill:black;stroke:black;" points="577,287 587,291 577,294 577,287"/>
<text text-anchor="middle" x="557" y="288">D_r</text>
</g>
<g id="edge118" class="edge"><title>27&#45;&gt;3</title>
<path style="fill:none;stroke:black;" d="M975,420C1032,421 1172,422 1235,422"/>
<polygon style="fill:black;stroke:black;" points="1235,418 1245,422 1235,425 1235,418"/>
<text text-anchor="middle" x="1082" y="419">D_STP</text>
</g>
</g>
</svg>
