<?xml version="1.0" encoding="UTF-8" standalone="no"?>
<!DOCTYPE svg PUBLIC "-//W3C//DTD SVG 1.0//EN"
 "http://www.w3.org/TR/2001/REC-SVG-20010904/DTD/svg10.dtd" [
 <!ATTLIST svg xmlns:xlink CDATA #FIXED "http://www.w3.org/1999/xlink">
]>
<!-- Generated by Graphviz version 2.20.2 (Tue Mar &#160;2 21:46:26 UTC 2010)
     For user: (mtmoor) Prof. Thomas Moor -->
<!-- Title: specAB Pages: 1 -->
<svg width="720pt" height="78pt"
 viewBox="0.00 0.00 720.00 77.81" xmlns="http://www.w3.org/2000/svg" xmlns:xlink="http://www.w3.org/1999/xlink">
<g id="graph0" class="graph" transform="scale(0.855107 0.855107) rotate(0) translate(4 87)">
<title>specAB</title>
<polygon style="fill:white;stroke:white;" points="-4,4 -4,-87 838,-87 838,4 -4,4"/>
<!-- dot_dummyinit_1 -->
<g id="node1" class="node"><title>dot_dummyinit_1</title>
</g>
<!-- 1 -->
<g id="node3" class="node"><title>1</title>
<ellipse style="fill:none;stroke:black;" cx="114" cy="-33" rx="18" ry="18"/>
<ellipse style="fill:none;stroke:black;" cx="114" cy="-33" rx="22" ry="22"/>
<text text-anchor="middle" x="114" y="-28.9" style="font-family:Times New Roman;font-size:14.00;">1</text>
</g>
<!-- dot_dummyinit_1&#45;&gt;1 -->
<g id="edge2" class="edge"><title>dot_dummyinit_1&#45;&gt;1</title>
<path style="fill:none;stroke:black;" d="M54,-33C63,-33 72,-33 82,-33"/>
<polygon style="fill:black;stroke:black;" points="82,-36.5001 92,-33 82,-29.5001 82,-36.5001"/>
</g>
<!-- 2 -->
<g id="node4" class="node"><title>2</title>
<ellipse style="fill:none;stroke:black;" cx="250" cy="-61" rx="18" ry="18"/>
<ellipse style="fill:none;stroke:black;" cx="250" cy="-61" rx="22" ry="22"/>
<text text-anchor="middle" x="250" y="-56.9" style="font-family:Times New Roman;font-size:14.00;">2</text>
</g>
<!-- 1&#45;&gt;2 -->
<g id="edge4" class="edge"><title>1&#45;&gt;2</title>
<path style="fill:none;stroke:black;" d="M134,-43C140,-46 147,-49 154,-51 175,-57 199,-59 218,-60"/>
<polygon style="fill:black;stroke:black;" points="217.701,-63.4875 228,-61 218.398,-56.5222 217.701,-63.4875"/>
<text text-anchor="middle" x="182" y="-61.9" style="font-family:Times New Roman;font-size:14.00;">idle_AB</text>
</g>
<!-- 2&#45;&gt;1 -->
<g id="edge8" class="edge"><title>2&#45;&gt;1</title>
<path style="fill:none;stroke:black;" d="M235,-44C228,-37 220,-31 210,-27 190,-19 164,-21 145,-25"/>
<polygon style="fill:black;stroke:black;" points="144.119,-21.6067 135,-27 145.492,-28.4708 144.119,-21.6067"/>
<text text-anchor="middle" x="182" y="-30.9" style="font-family:Times New Roman;font-size:14.00;">stby_AB</text>
</g>
<!-- 3 -->
<g id="node5" class="node"><title>3</title>
<ellipse style="fill:none;stroke:black;" cx="376" cy="-61" rx="18" ry="18"/>
<ellipse style="fill:none;stroke:black;" cx="376" cy="-61" rx="22" ry="22"/>
<text text-anchor="middle" x="376" y="-56.9" style="font-family:Times New Roman;font-size:14.00;">3</text>
</g>
<!-- 2&#45;&gt;3 -->
<g id="edge6" class="edge"><title>2&#45;&gt;3</title>
<path style="fill:none;stroke:black;" d="M272,-61C292,-61 321,-61 344,-61"/>
<polygon style="fill:black;stroke:black;" points="344,-64.5001 354,-61 344,-57.5001 344,-64.5001"/>
<text text-anchor="middle" x="313" y="-64.9" style="font-family:Times New Roman;font-size:14.00;">l2r_AB</text>
</g>
<!-- 4 -->
<g id="node6" class="node"><title>4</title>
<ellipse style="fill:none;stroke:black;" cx="522" cy="-61" rx="18" ry="18"/>
<ellipse style="fill:none;stroke:black;" cx="522" cy="-61" rx="22" ry="22"/>
<text text-anchor="middle" x="522" y="-56.9" style="font-family:Times New Roman;font-size:14.00;">4</text>
</g>
<!-- 3&#45;&gt;4 -->
<g id="edge10" class="edge"><title>3&#45;&gt;4</title>
<path style="fill:none;stroke:black;" d="M398,-62C404,-62 410,-63 416,-63 446,-63 453,-63 482,-63 485,-63 487,-63 490,-63"/>
<polygon style="fill:black;stroke:black;" points="490.398,-66.4778 500,-62 489.701,-59.5125 490.398,-66.4778"/>
<text text-anchor="middle" x="449" y="-66.9" style="font-family:Times New Roman;font-size:14.00;">req_fl_AB</text>
</g>
<!-- 4&#45;&gt;3 -->
<g id="edge12" class="edge"><title>4&#45;&gt;3</title>
<path style="fill:none;stroke:black;" d="M503,-48C497,-45 489,-42 482,-40 454,-32 445,-32 416,-40 412,-41 408,-42 404,-44"/>
<polygon style="fill:black;stroke:black;" points="402.042,-41.084 395,-49 405.441,-47.2031 402.042,-41.084"/>
<text text-anchor="middle" x="449" y="-43.9" style="font-family:Times New Roman;font-size:14.00;">nack_AB</text>
</g>
<!-- 5 -->
<g id="node7" class="node"><title>5</title>
<ellipse style="fill:none;stroke:black;" cx="662" cy="-61" rx="18" ry="18"/>
<ellipse style="fill:none;stroke:black;" cx="662" cy="-61" rx="22" ry="22"/>
<text text-anchor="middle" x="662" y="-56.9" style="font-family:Times New Roman;font-size:14.00;">5</text>
</g>
<!-- 4&#45;&gt;5 -->
<g id="edge14" class="edge"><title>4&#45;&gt;5</title>
<path style="fill:none;stroke:black;" d="M544,-61C568,-61 604,-61 630,-61"/>
<polygon style="fill:black;stroke:black;" points="630,-64.5001 640,-61 630,-57.5001 630,-64.5001"/>
<text text-anchor="middle" x="592" y="-64.9" style="font-family:Times New Roman;font-size:14.00;">pack_AB</text>
</g>
<!-- 6 -->
<g id="node8" class="node"><title>6</title>
<ellipse style="fill:none;stroke:black;" cx="812" cy="-33" rx="18" ry="18"/>
<ellipse style="fill:none;stroke:black;" cx="812" cy="-33" rx="22" ry="22"/>
<text text-anchor="middle" x="812" y="-28.9" style="font-family:Times New Roman;font-size:14.00;">6</text>
</g>
<!-- 5&#45;&gt;6 -->
<g id="edge16" class="edge"><title>5&#45;&gt;6</title>
<path style="fill:none;stroke:black;" d="M684,-61C707,-61 743,-59 772,-51 776,-50 779,-49 783,-47"/>
<polygon style="fill:black;stroke:black;" points="784.283,-50.2598 792,-43 781.44,-43.8631 784.283,-50.2598"/>
<text text-anchor="middle" x="737" y="-62.9" style="font-family:Times New Roman;font-size:14.00;">req_tr_AB</text>
</g>
<!-- 6&#45;&gt;1 -->
<g id="edge20" class="edge"><title>6&#45;&gt;1</title>
<path style="fill:none;stroke:black;" d="M792,-24C786,-22 779,-19 772,-18 725,-5 712,-0 662,-0 250,-0 250,-0 250,-0 207,-0 196,-3 154,-16 150,-17 147,-18 144,-20"/>
<polygon style="fill:black;stroke:black;" points="142.573,-16.7741 134,-23 144.584,-23.4788 142.573,-16.7741"/>
<text text-anchor="middle" x="449" y="-3.9" style="font-family:Times New Roman;font-size:14.00;">pack_AB</text>
</g>
<!-- 6&#45;&gt;5 -->
<g id="edge18" class="edge"><title>6&#45;&gt;5</title>
<path style="fill:none;stroke:black;" d="M790,-28C768,-24 732,-20 702,-30 696,-32 690,-35 685,-39"/>
<polygon style="fill:black;stroke:black;" points="682.9,-36.2 677,-45 687.1,-41.8 682.9,-36.2"/>
<text text-anchor="middle" x="737" y="-33.9" style="font-family:Times New Roman;font-size:14.00;">nack_AB</text>
</g>
</g>
</svg>
