<?xml version="1.0" encoding="UTF-8" standalone="no"?>
<!DOCTYPE svg PUBLIC "-//W3C//DTD SVG 1.0//EN"
 "http://www.w3.org/TR/2001/REC-SVG-20010904/DTD/svg10.dtd">
<!-- Generated by dot version 2.2 (Tue Sep 13 00:37:56 UTC 2005)
     For user: (msperk) Perk_Sebastian, Betreuer=Moor, mitarb, 01/05    Title: Environment AB    Pages: 1 -->
<svg width="442pt" height="240pt"
 viewBox = "-1 -1 441 239"
 xmlns="http://www.w3.org/2000/svg">
<g id="graph0" class="graph" style="font-family:Times-Roman;font-size:14.00;">
<title>Environment AB</title>
<g id="node1" class="node"><title>dot_dummyinit_1</title>
</g>
<g id="node3" class="node"><title>1</title>
<ellipse cx="119" cy="162" rx="18" ry="18" style="fill:none;stroke:black;"/>
<ellipse cx="119" cy="162" rx="22" ry="22" style="fill:none;stroke:black;"/>
<text text-anchor="middle" x="119" y="167">1</text>
</g>
<g id="edge2" class="edge"><title>dot_dummyinit_1&#45;&gt;1</title>
<path style="fill:none;stroke:black;" d="M59,162C68,162 77,162 87,162"/>
<polygon style="fill:black;stroke:black;" points="87,158 97,162 87,165 87,158"/>
</g>
<g id="edge6" class="edge"><title>1&#45;&gt;1</title>
<path style="fill:none;stroke:black;" d="M124,140C125,131 123,122 119,122 117,122 115,125 114,130"/>
<polygon style="fill:black;stroke:black;" points="118,130 114,140 111,130 118,130"/>
<text text-anchor="middle" x="119" y="119">A_freetr</text>
</g>
<g id="edge10" class="edge"><title>1&#45;&gt;1</title>
<path style="fill:none;stroke:black;" d="M139,153C173,133 166,104 119,104 76,104 67,128 91,147"/>
<polygon style="fill:black;stroke:black;" points="93,144 99,153 89,150 93,144"/>
<text text-anchor="middle" x="119" y="101">B_freetr</text>
</g>
<g id="edge12" class="edge"><title>1&#45;&gt;1</title>
<path style="fill:none;stroke:black;" d="M139,152C180,125 173,86 119,86 69,86 59,119 91,146"/>
<polygon style="fill:black;stroke:black;" points="93,143 99,152 89,149 93,143"/>
<text text-anchor="middle" x="119" y="83">AB_freetr</text>
</g>
<g id="node5" class="node"><title>3</title>
<ellipse cx="247" cy="162" rx="18" ry="18" style="fill:none;stroke:black;"/>
<ellipse cx="247" cy="162" rx="22" ry="22" style="fill:none;stroke:black;"/>
<text text-anchor="middle" x="247" y="167">3</text>
</g>
<g id="edge4" class="edge"><title>1&#45;&gt;3</title>
<path style="fill:none;stroke:black;" d="M138,151C144,147 152,144 159,142 180,138 187,138 207,142 211,143 215,144 219,146"/>
<polygon style="fill:black;stroke:black;" points="220,143 228,150 217,149 220,143"/>
<text text-anchor="middle" x="183" y="136">A_occfl</text>
</g>
<g id="edge8" class="edge"><title>1&#45;&gt;3</title>
<path style="fill:none;stroke:black;" d="M141,164C147,165 153,165 159,165 181,166 186,166 207,165 210,165 212,165 215,165"/>
<polygon style="fill:black;stroke:black;" points="215,162 225,164 215,168 215,162"/>
<text text-anchor="middle" x="183" y="162">B_occfl</text>
</g>
<g id="node4" class="node"><title>2</title>
<ellipse cx="375" cy="162" rx="18" ry="18" style="fill:none;stroke:black;"/>
<ellipse cx="375" cy="162" rx="22" ry="22" style="fill:none;stroke:black;"/>
<text text-anchor="middle" x="375" y="167">2</text>
</g>
<g id="edge22" class="edge"><title>2&#45;&gt;2</title>
<path style="fill:none;stroke:black;" d="M395,152C435,125 428,86 375,86 326,86 316,119 347,146"/>
<polygon style="fill:black;stroke:black;" points="349,143 355,152 345,149 349,143"/>
<text text-anchor="middle" x="375" y="83">AB_occfl</text>
</g>
<g id="edge14" class="edge"><title>2&#45;&gt;2</title>
<path style="fill:none;stroke:black;" d="M380,140C381,131 379,122 375,122 373,122 371,125 370,130"/>
<polygon style="fill:black;stroke:black;" points="374,130 370,140 367,130 374,130"/>
<text text-anchor="middle" x="375" y="119">A_occfl</text>
</g>
<g id="edge18" class="edge"><title>2&#45;&gt;2</title>
<path style="fill:none;stroke:black;" d="M395,153C428,133 421,104 375,104 333,104 324,128 347,147"/>
<polygon style="fill:black;stroke:black;" points="349,144 355,153 345,150 349,144"/>
<text text-anchor="middle" x="375" y="101">B_occfl</text>
</g>
<g id="edge16" class="edge"><title>2&#45;&gt;3</title>
<path style="fill:none;stroke:black;" d="M353,162C333,162 303,162 279,162"/>
<polygon style="fill:black;stroke:black;" points="279,165 269,162 279,158 279,165"/>
<text text-anchor="middle" x="311" y="159">A_freetr</text>
</g>
<g id="edge20" class="edge"><title>2&#45;&gt;3</title>
<path style="fill:none;stroke:black;" d="M356,174C350,177 342,180 335,182 315,187 308,187 287,182 283,181 279,180 275,178"/>
<polygon style="fill:black;stroke:black;" points="274,181 266,174 277,175 274,181"/>
<text text-anchor="middle" x="311" y="179">B_freetr</text>
</g>
<g id="edge30" class="edge"><title>3&#45;&gt;1</title>
<path style="fill:none;stroke:black;" d="M230,177C224,181 218,184 207,186 187,192 180,192 159,186 153,184 149,183 145,181"/>
<polygon style="fill:black;stroke:black;" points="143,184 136,176 146,178 143,184"/>
<text text-anchor="middle" x="183" y="183">B_freetr</text>
</g>
<g id="edge24" class="edge"><title>3&#45;&gt;2</title>
<path style="fill:none;stroke:black;" d="M266,151C272,147 280,144 287,142 308,138 315,138 335,142 339,143 343,144 347,146"/>
<polygon style="fill:black;stroke:black;" points="348,143 356,150 345,149 348,143"/>
<text text-anchor="middle" x="311" y="136">A_occfl</text>
</g>
<g id="edge26" class="edge"><title>3&#45;&gt;3</title>
<path style="fill:none;stroke:black;" d="M251,140C251,130 250,122 247,122 245,122 244,125 243,130"/>
<polygon style="fill:black;stroke:black;" points="247,130 243,140 240,130 247,130"/>
<text text-anchor="middle" x="247" y="119">A_freetr</text>
</g>
<g id="edge28" class="edge"><title>3&#45;&gt;3</title>
<path style="fill:none;stroke:black;" d="M267,152C299,132 292,104 247,104 206,104 197,127 219,146"/>
<polygon style="fill:black;stroke:black;" points="221,143 227,152 217,149 221,143"/>
<text text-anchor="middle" x="247" y="101">B_occfl</text>
</g>
<g id="edge32" class="edge"><title>3&#45;&gt;3</title>
<path style="fill:none;stroke:black;" d="M266,151C304,125 298,86 247,86 200,86 191,119 220,145"/>
<polygon style="fill:black;stroke:black;" points="222,142 228,151 218,148 222,142"/>
<text text-anchor="middle" x="247" y="83">AB_accfl</text>
</g>
<g id="edge34" class="edge"><title>3&#45;&gt;3</title>
<path style="fill:none;stroke:black;" d="M266,150C309,118 303,68 247,68 195,68 186,112 220,143"/>
<polygon style="fill:black;stroke:black;" points="223,141 228,150 218,146 223,141"/>
<text text-anchor="middle" x="247" y="65">AB_reltr</text>
</g>
</g>
</svg>
