<?xml version="1.0" encoding="UTF-8" standalone="no"?>
<!DOCTYPE svg PUBLIC "-//W3C//DTD SVG 1.0//EN"
 "http://www.w3.org/TR/2001/REC-SVG-20010904/DTD/svg10.dtd">
<!-- Generated by dot version 2.2 (Tue Sep 13 00:37:56 UTC 2005)
     For user: (msperk) Perk_Sebastian, Betreuer=Moor, mitarb, 01/05    Title: Environment AB 3    Pages: 1 -->
<svg width="612pt" height="393pt"
 viewBox = "-1 -1 611 392"
 xmlns="http://www.w3.org/2000/svg">
<g id="graph0" class="graph" style="font-family:Times-Roman;font-size:14.00;">
<title>Environment AB 3</title>
<g id="node1" class="node"><title>dot_dummyinit_1</title>
</g>
<g id="node3" class="node"><title>1</title>
<ellipse cx="119" cy="240" rx="18" ry="18" style="fill:none;stroke:black;"/>
<ellipse cx="119" cy="240" rx="22" ry="22" style="fill:none;stroke:black;"/>
<text text-anchor="middle" x="119" y="245">1</text>
</g>
<g id="edge2" class="edge"><title>dot_dummyinit_1&#45;&gt;1</title>
<path style="fill:none;stroke:black;" d="M59,240C68,240 77,240 87,240"/>
<polygon style="fill:black;stroke:black;" points="87,236 97,240 87,243 87,236"/>
</g>
<g id="edge6" class="edge"><title>1&#45;&gt;1</title>
<path style="fill:none;stroke:black;" d="M122,218C122,208 121,200 119,200 118,200 117,203 116,208"/>
<polygon style="fill:black;stroke:black;" points="120,208 116,218 113,208 120,208"/>
<text text-anchor="middle" x="119" y="197">AB_freetr</text>
</g>
<g id="edge8" class="edge"><title>1&#45;&gt;1</title>
<path style="fill:none;stroke:black;" d="M140,232C180,212 173,182 119,182 69,182 59,207 89,227"/>
<polygon style="fill:black;stroke:black;" points="91,224 98,232 88,230 91,224"/>
<text text-anchor="middle" x="119" y="179">AB_reltr</text>
</g>
<g id="edge12" class="edge"><title>1&#45;&gt;1</title>
<path style="fill:none;stroke:black;" d="M139,230C184,204 177,164 119,164 65,164 55,199 90,224"/>
<polygon style="fill:black;stroke:black;" points="93,222 99,230 89,227 93,222"/>
<text text-anchor="middle" x="119" y="161">CD_freetr</text>
</g>
<g id="edge14" class="edge"><title>1&#45;&gt;1</title>
<path style="fill:none;stroke:black;" d="M138,229C188,197 182,146 119,146 60,146 51,191 92,223"/>
<polygon style="fill:black;stroke:black;" points="94,220 100,229 90,226 94,220"/>
<text text-anchor="middle" x="119" y="143">CD_reltr</text>
</g>
<g id="edge16" class="edge"><title>1&#45;&gt;1</title>
<path style="fill:none;stroke:black;" d="M138,228C192,189 186,128 119,128 56,128 47,183 92,222"/>
<polygon style="fill:black;stroke:black;" points="94,219 100,228 90,225 94,219"/>
<text text-anchor="middle" x="119" y="125">ABCD_accfl</text>
</g>
<g id="node4" class="node"><title>2</title>
<ellipse cx="257" cy="162" rx="18" ry="18" style="fill:none;stroke:black;"/>
<ellipse cx="257" cy="162" rx="22" ry="22" style="fill:none;stroke:black;"/>
<text text-anchor="middle" x="257" y="167">2</text>
</g>
<g id="edge4" class="edge"><title>1&#45;&gt;2</title>
<path style="fill:none;stroke:black;" d="M121,218C125,196 135,162 159,145 180,132 208,138 229,147"/>
<polygon style="fill:black;stroke:black;" points="230,144 238,151 227,150 230,144"/>
<text text-anchor="middle" x="188" y="136">AB_occfl</text>
</g>
<g id="node5" class="node"><title>3</title>
<ellipse cx="533" cy="240" rx="18" ry="18" style="fill:none;stroke:black;"/>
<ellipse cx="533" cy="240" rx="22" ry="22" style="fill:none;stroke:black;"/>
<text text-anchor="middle" x="533" y="245">3</text>
</g>
<g id="edge10" class="edge"><title>1&#45;&gt;3</title>
<path style="fill:none;stroke:black;" d="M141,240C193,241 325,242 435,242 461,243 468,243 493,242 496,242 498,242 501,242"/>
<polygon style="fill:black;stroke:black;" points="501,238 511,242 501,245 501,238"/>
<text text-anchor="middle" x="326" y="239">CD_occfl</text>
</g>
<g id="edge22" class="edge"><title>2&#45;&gt;1</title>
<path style="fill:none;stroke:black;" d="M235,166C209,171 166,180 159,183 144,192 138,200 133,210"/>
<polygon style="fill:black;stroke:black;" points="136,212 128,219 130,209 136,212"/>
<text text-anchor="middle" x="188" y="168">AB_reltr</text>
</g>
<g id="edge20" class="edge"><title>2&#45;&gt;1</title>
<path style="fill:none;stroke:black;" d="M244,180C236,188 227,197 217,203 197,217 171,226 151,232"/>
<polygon style="fill:black;stroke:black;" points="152,235 141,235 150,229 152,235"/>
<text text-anchor="middle" x="188" y="200">AB_freetr</text>
</g>
<g id="edge26" class="edge"><title>2&#45;&gt;2</title>
<path style="fill:none;stroke:black;" d="M278,154C318,134 311,104 257,104 207,104 197,129 227,149"/>
<polygon style="fill:black;stroke:black;" points="229,146 236,154 226,152 229,146"/>
<text text-anchor="middle" x="257" y="101">CD_freetr</text>
</g>
<g id="edge28" class="edge"><title>2&#45;&gt;2</title>
<path style="fill:none;stroke:black;" d="M277,153C323,126 316,86 257,86 202,86 192,121 229,147"/>
<polygon style="fill:black;stroke:black;" points="231,144 237,153 227,150 231,144"/>
<text text-anchor="middle" x="257" y="83">CD_reltr</text>
</g>
<g id="edge30" class="edge"><title>2&#45;&gt;2</title>
<path style="fill:none;stroke:black;" d="M277,152C328,119 322,68 257,68 196,68 187,113 229,146"/>
<polygon style="fill:black;stroke:black;" points="231,143 237,152 227,149 231,143"/>
<text text-anchor="middle" x="257" y="65">ABCD_accfl</text>
</g>
<g id="edge18" class="edge"><title>2&#45;&gt;2</title>
<path style="fill:none;stroke:black;" d="M261,140C261,130 260,122 257,122 255,122 254,125 253,130"/>
<polygon style="fill:black;stroke:black;" points="257,130 253,140 250,130 257,130"/>
<text text-anchor="middle" x="257" y="119">AB_occfl</text>
</g>
<g id="node6" class="node"><title>4</title>
<ellipse cx="395" cy="162" rx="18" ry="18" style="fill:none;stroke:black;"/>
<ellipse cx="395" cy="162" rx="22" ry="22" style="fill:none;stroke:black;"/>
<text text-anchor="middle" x="395" y="167">4</text>
</g>
<g id="edge24" class="edge"><title>2&#45;&gt;4</title>
<path style="fill:none;stroke:black;" d="M275,149C282,145 290,141 297,139 322,133 331,133 355,139 360,140 364,142 368,144"/>
<polygon style="fill:black;stroke:black;" points="370,141 377,149 367,147 370,141"/>
<text text-anchor="middle" x="326" y="132">CD_occfl</text>
</g>
<g id="edge40" class="edge"><title>3&#45;&gt;1</title>
<path style="fill:none;stroke:black;" d="M512,246C507,246 501,246 493,247 407,258 385,268 297,262 236,259 221,255 159,246 156,246 154,245 151,245"/>
<polygon style="fill:black;stroke:black;" points="151,248 141,244 151,242 151,248"/>
<text text-anchor="middle" x="326" y="259">CD_freetr</text>
</g>
<g id="edge42" class="edge"><title>3&#45;&gt;1</title>
<path style="fill:none;stroke:black;" d="M517,256C510,258 504,259 493,261 409,286 385,295 297,286 235,281 219,278 159,260 154,258 150,258 146,257"/>
<polygon style="fill:black;stroke:black;" points="145,260 136,255 146,254 145,260"/>
<text text-anchor="middle" x="326" y="283">CD_reltr</text>
</g>
<g id="edge34" class="edge"><title>3&#45;&gt;3</title>
<path style="fill:none;stroke:black;" d="M537,218C537,208 536,200 533,200 531,200 530,203 529,208"/>
<polygon style="fill:black;stroke:black;" points="533,208 529,218 526,208 533,208"/>
<text text-anchor="middle" x="533" y="197">AB_freetr</text>
</g>
<g id="edge36" class="edge"><title>3&#45;&gt;3</title>
<path style="fill:none;stroke:black;" d="M554,232C595,212 588,182 533,182 483,182 472,207 503,227"/>
<polygon style="fill:black;stroke:black;" points="505,224 512,232 502,230 505,224"/>
<text text-anchor="middle" x="533" y="179">AB_reltr</text>
</g>
<g id="edge38" class="edge"><title>3&#45;&gt;3</title>
<path style="fill:none;stroke:black;" d="M553,231C600,204 593,164 533,164 477,164 467,199 504,225"/>
<polygon style="fill:black;stroke:black;" points="507,223 513,231 503,228 507,223"/>
<text text-anchor="middle" x="533" y="161">CD_occfl</text>
</g>
<g id="edge44" class="edge"><title>3&#45;&gt;3</title>
<path style="fill:none;stroke:black;" d="M553,230C605,197 599,146 533,146 471,146 462,191 505,224"/>
<polygon style="fill:black;stroke:black;" points="507,221 513,230 503,227 507,221"/>
<text text-anchor="middle" x="533" y="143">ABCD_accfl</text>
</g>
<g id="edge32" class="edge"><title>3&#45;&gt;4</title>
<path style="fill:none;stroke:black;" d="M520,222C512,214 503,204 493,197 473,184 447,175 427,169"/>
<polygon style="fill:black;stroke:black;" points="426,172 417,167 427,166 426,172"/>
<text text-anchor="middle" x="464" y="170">AB_occfl</text>
</g>
<g id="edge54" class="edge"><title>4&#45;&gt;2</title>
<path style="fill:none;stroke:black;" d="M373,162C350,162 315,162 289,162"/>
<polygon style="fill:black;stroke:black;" points="289,165 279,162 289,158 289,165"/>
<text text-anchor="middle" x="326" y="159">CD_freetr</text>
</g>
<g id="edge56" class="edge"><title>4&#45;&gt;2</title>
<path style="fill:none;stroke:black;" d="M376,174C370,177 362,180 355,182 330,188 323,188 297,182 293,181 289,180 285,178"/>
<polygon style="fill:black;stroke:black;" points="284,181 276,174 287,175 284,181"/>
<text text-anchor="middle" x="326" y="179">CD_reltr</text>
</g>
<g id="edge48" class="edge"><title>4&#45;&gt;3</title>
<path style="fill:none;stroke:black;" d="M415,154C437,146 470,139 493,153 513,165 523,188 528,208"/>
<polygon style="fill:black;stroke:black;" points="531,208 530,218 525,209 531,208"/>
<text text-anchor="middle" x="464" y="143">AB_freetr</text>
</g>
<g id="edge50" class="edge"><title>4&#45;&gt;3</title>
<path style="fill:none;stroke:black;" d="M404,182C412,198 417,206 435,217 455,230 481,235 501,238"/>
<polygon style="fill:black;stroke:black;" points="501,235 511,239 501,241 501,235"/>
<text text-anchor="middle" x="464" y="214">AB_reltr</text>
</g>
<g id="edge46" class="edge"><title>4&#45;&gt;4</title>
<path style="fill:none;stroke:black;" d="M400,140C401,131 399,122 395,122 393,122 391,125 390,130"/>
<polygon style="fill:black;stroke:black;" points="394,130 390,140 387,130 394,130"/>
<text text-anchor="middle" x="395" y="119">AB_occfl</text>
</g>
<g id="edge52" class="edge"><title>4&#45;&gt;4</title>
<path style="fill:none;stroke:black;" d="M416,154C458,134 451,104 395,104 343,104 333,129 365,149"/>
<polygon style="fill:black;stroke:black;" points="367,146 374,154 364,152 367,146"/>
<text text-anchor="middle" x="395" y="101">CD_occfl</text>
</g>
<g id="edge58" class="edge"><title>4&#45;&gt;4</title>
<path style="fill:none;stroke:black;" d="M415,153C465,127 458,86 395,86 336,86 326,122 366,148"/>
<polygon style="fill:black;stroke:black;" points="368,145 375,153 365,151 368,145"/>
<text text-anchor="middle" x="395" y="83">ABCD_occfl</text>
</g>
</g>
</svg>
