<?xml version="1.0" encoding="UTF-8" standalone="no"?>
<!DOCTYPE svg PUBLIC "-//W3C//DTD SVG 1.0//EN"
 "http://www.w3.org/TR/2001/REC-SVG-20010904/DTD/svg10.dtd" [
 <!ATTLIST svg xmlns:xlink CDATA #FIXED "http://www.w3.org/1999/xlink">
]>
<!-- Generated by Graphviz version 2.20.2 (Tue Mar &#160;2 21:46:26 UTC 2010)
     For user: (mtmoor) Prof. Thomas Moor -->
<!-- Title: HioFreeInput(HioFreeInput(hio &#45; simple machine A)) Pages: 1 -->
<svg width="720pt" height="218pt"
 viewBox="0.00 0.00 720.00 218.24" xmlns="http://www.w3.org/2000/svg" xmlns:xlink="http://www.w3.org/1999/xlink">
<g id="graph0" class="graph" transform="scale(0.932642 0.932642) rotate(0) translate(4 230)">
<title>HioFreeInput(HioFreeInput(hio &#45; simple machine A))</title>
<polygon style="fill:white;stroke:white;" points="-4,4 -4,-230 768,-230 768,4 -4,4"/>
<!-- dot_dummyinit_1 -->
<g id="node1" class="node"><title>dot_dummyinit_1</title>
</g>
<!-- 3 -->
<g id="node3" class="node"><title>3</title>
<ellipse style="fill:none;stroke:black;" cx="114" cy="-52" rx="18" ry="18"/>
<ellipse style="fill:none;stroke:black;" cx="114" cy="-52" rx="22" ry="22"/>
<text text-anchor="middle" x="114" y="-47.9" style="font-family:Times New Roman;font-size:14.00;">3</text>
</g>
<!-- dot_dummyinit_1&#45;&gt;3 -->
<g id="edge2" class="edge"><title>dot_dummyinit_1&#45;&gt;3</title>
<path style="fill:none;stroke:black;" d="M54,-52C63,-52 72,-52 82,-52"/>
<polygon style="fill:black;stroke:black;" points="82,-55.5001 92,-52 82,-48.5001 82,-55.5001"/>
</g>
<!-- 4 -->
<g id="node6" class="node"><title>4</title>
<ellipse style="fill:none;stroke:black;" cx="242" cy="-82" rx="18" ry="18"/>
<ellipse style="fill:none;stroke:black;" cx="242" cy="-82" rx="22" ry="22"/>
<text text-anchor="middle" x="242" y="-77.9" style="font-family:Times New Roman;font-size:14.00;">4</text>
</g>
<!-- 3&#45;&gt;4 -->
<g id="edge4" class="edge"><title>3&#45;&gt;4</title>
<path style="fill:none;stroke:black;" d="M135,-57C156,-62 187,-70 211,-75"/>
<polygon style="fill:black;stroke:black;" points="210.508,-78.4708 221,-77 211.881,-71.6067 210.508,-78.4708"/>
<text text-anchor="middle" x="178" y="-74.9" style="font-family:Times New Roman;font-size:14.00;">A_wait</text>
</g>
<!-- UpError -->
<g id="node4" class="node"><title>UpError</title>
<ellipse style="fill:none;stroke:black;" cx="402" cy="-174" rx="48.1785" ry="48.1785"/>
<ellipse style="fill:none;stroke:black;" cx="402" cy="-174" rx="52.1404" ry="52.1404"/>
<text text-anchor="middle" x="402" y="-169.9" style="font-family:Times New Roman;font-size:14.00;">UpError</text>
</g>
<!-- UeError -->
<g id="node5" class="node"><title>UeError</title>
<ellipse style="fill:none;stroke:black;" cx="712" cy="-52" rx="48.1785" ry="48.1785"/>
<ellipse style="fill:none;stroke:black;" cx="712" cy="-52" rx="52.1404" ry="52.1404"/>
<text text-anchor="middle" x="712" y="-47.9" style="font-family:Times New Roman;font-size:14.00;">UeError</text>
</g>
<!-- 4&#45;&gt;UpError -->
<g id="edge8" class="edge"><title>4&#45;&gt;UpError</title>
<path style="fill:none;stroke:black;" d="M261,-93C283,-106 318,-126 348,-143"/>
<polygon style="fill:black;stroke:black;" points="346.559,-146.203 357,-148 349.958,-140.084 346.559,-146.203"/>
<text text-anchor="middle" x="307" y="-132.9" style="font-family:Times New Roman;font-size:14.00;">A_stp</text>
</g>
<!-- 5 -->
<g id="node7" class="node"><title>5</title>
<ellipse style="fill:none;stroke:black;" cx="402" cy="-82" rx="18" ry="18"/>
<ellipse style="fill:none;stroke:black;" cx="402" cy="-82" rx="22" ry="22"/>
<text text-anchor="middle" x="402" y="-77.9" style="font-family:Times New Roman;font-size:14.00;">5</text>
</g>
<!-- 4&#45;&gt;5 -->
<g id="edge6" class="edge"><title>4&#45;&gt;5</title>
<path style="fill:none;stroke:black;" d="M264,-82C292,-82 338,-82 370,-82"/>
<polygon style="fill:black;stroke:black;" points="370,-85.5001 380,-82 370,-78.5001 370,-85.5001"/>
<text text-anchor="middle" x="307" y="-85.9" style="font-family:Times New Roman;font-size:14.00;">A_do</text>
</g>
<!-- 6 -->
<g id="node8" class="node"><title>6</title>
<ellipse style="fill:none;stroke:black;" cx="552" cy="-52" rx="18" ry="18"/>
<ellipse style="fill:none;stroke:black;" cx="552" cy="-52" rx="22" ry="22"/>
<text text-anchor="middle" x="552" y="-47.9" style="font-family:Times New Roman;font-size:14.00;">6</text>
</g>
<!-- 5&#45;&gt;6 -->
<g id="edge10" class="edge"><title>5&#45;&gt;6</title>
<path style="fill:none;stroke:black;" d="M424,-78C449,-73 491,-64 520,-58"/>
<polygon style="fill:black;stroke:black;" points="520.881,-61.3933 530,-56 519.508,-54.5292 520.881,-61.3933"/>
<text text-anchor="middle" x="492" y="-69.9" style="font-family:Times New Roman;font-size:14.00;">A_req</text>
</g>
<!-- 6&#45;&gt;3 -->
<g id="edge14" class="edge"><title>6&#45;&gt;3</title>
<path style="fill:none;stroke:black;" d="M530,-52C510,-51 480,-51 454,-51 351,-50 324,-50 220,-51 195,-51 167,-51 146,-52"/>
<polygon style="fill:black;stroke:black;" points="146,-48.5001 136,-52 146,-55.5001 146,-48.5001"/>
<text text-anchor="middle" x="307" y="-53.9" style="font-family:Times New Roman;font-size:14.00;">A_pack</text>
</g>
<!-- 6&#45;&gt;UeError -->
<g id="edge12" class="edge"><title>6&#45;&gt;UeError</title>
<path style="fill:none;stroke:black;" d="M574,-52C594,-52 623,-52 650,-52"/>
<polygon style="fill:black;stroke:black;" points="650,-55.5001 660,-52 650,-48.5001 650,-55.5001"/>
<text text-anchor="middle" x="617" y="-55.9" style="font-family:Times New Roman;font-size:14.00;">A_nack</text>
</g>
</g>
</svg>
