<?xml version="1.0" encoding="UTF-8" standalone="no"?>
<!DOCTYPE svg PUBLIC "-//W3C//DTD SVG 1.0//EN"
 "http://www.w3.org/TR/2001/REC-SVG-20010904/DTD/svg10.dtd" [
 <!ATTLIST svg xmlns:xlink CDATA #FIXED "http://www.w3.org/1999/xlink">
]>
<!-- Generated by Graphviz version 2.20.2 (Tue Mar &#160;2 21:46:26 UTC 2010)
     For user: (mtmoor) Prof. Thomas Moor -->
<!-- Title: Operator Constraint A Pages: 1 -->
<svg width="572pt" height="113pt"
 viewBox="0.00 0.00 572.00 113.00" xmlns="http://www.w3.org/2000/svg" xmlns:xlink="http://www.w3.org/1999/xlink">
<g id="graph0" class="graph" transform="scale(1 1) rotate(0) translate(4 109)">
<title>Operator Constraint A</title>
<polygon style="fill:white;stroke:white;" points="-4,4 -4,-109 568,-109 568,4 -4,4"/>
<!-- dot_dummyinit_1 -->
<g id="node1" class="node"><title>dot_dummyinit_1</title>
</g>
<!-- 1 -->
<g id="node3" class="node"><title>1</title>
<ellipse style="fill:none;stroke:black;" cx="114" cy="-47" rx="18" ry="18"/>
<ellipse style="fill:none;stroke:black;" cx="114" cy="-47" rx="22" ry="22"/>
<text text-anchor="middle" x="114" y="-42.9" style="font-family:Times New Roman;font-size:14.00;">1</text>
</g>
<!-- dot_dummyinit_1&#45;&gt;1 -->
<g id="edge2" class="edge"><title>dot_dummyinit_1&#45;&gt;1</title>
<path style="fill:none;stroke:black;" d="M54,-47C63,-47 72,-47 82,-47"/>
<polygon style="fill:black;stroke:black;" points="82,-50.5001 92,-47 82,-43.5001 82,-50.5001"/>
</g>
<!-- 2 -->
<g id="node4" class="node"><title>2</title>
<ellipse style="fill:none;stroke:black;" cx="256" cy="-67" rx="18" ry="18"/>
<ellipse style="fill:none;stroke:black;" cx="256" cy="-67" rx="22" ry="22"/>
<text text-anchor="middle" x="256" y="-62.9" style="font-family:Times New Roman;font-size:14.00;">2</text>
</g>
<!-- 1&#45;&gt;2 -->
<g id="edge4" class="edge"><title>1&#45;&gt;2</title>
<path style="fill:none;stroke:black;" d="M128,-65C135,-72 144,-80 154,-85 180,-95 190,-90 216,-85 220,-84 224,-83 227,-81"/>
<polygon style="fill:black;stroke:black;" points="229.015,-83.9636 237,-77 226.415,-77.4643 229.015,-83.9636"/>
<text text-anchor="middle" x="185" y="-92.9" style="font-family:Times New Roman;font-size:14.00;">empty_A</text>
</g>
<!-- 1&#45;&gt;2 -->
<g id="edge6" class="edge"><title>1&#45;&gt;2</title>
<path style="fill:none;stroke:black;" d="M136,-50C157,-52 189,-57 216,-61 219,-61 221,-62 224,-62"/>
<polygon style="fill:black;stroke:black;" points="223.701,-65.4875 234,-63 224.398,-58.5222 223.701,-65.4875"/>
<text text-anchor="middle" x="185" y="-64.9" style="font-family:Times New Roman;font-size:14.00;">full_A</text>
</g>
<!-- 2&#45;&gt;1 -->
<g id="edge8" class="edge"><title>2&#45;&gt;1</title>
<path style="fill:none;stroke:black;" d="M243,-49C236,-41 226,-33 216,-29 191,-18 181,-23 154,-29 150,-30 146,-31 143,-32"/>
<polygon style="fill:black;stroke:black;" points="140.985,-29.0364 133,-36 143.585,-35.5357 140.985,-29.0364"/>
<text text-anchor="middle" x="185" y="-32.9" style="font-family:Times New Roman;font-size:14.00;">no_op_A</text>
</g>
<!-- 3 -->
<g id="node5" class="node"><title>3</title>
<ellipse style="fill:none;stroke:black;" cx="400" cy="-67" rx="18" ry="18"/>
<ellipse style="fill:none;stroke:black;" cx="400" cy="-67" rx="22" ry="22"/>
<text text-anchor="middle" x="400" y="-62.9" style="font-family:Times New Roman;font-size:14.00;">3</text>
</g>
<!-- 2&#45;&gt;3 -->
<g id="edge10" class="edge"><title>2&#45;&gt;3</title>
<path style="fill:none;stroke:black;" d="M278,-67C302,-67 340,-67 368,-67"/>
<polygon style="fill:black;stroke:black;" points="368,-70.5001 378,-67 368,-63.5001 368,-70.5001"/>
<text text-anchor="middle" x="328" y="-70.9" style="font-family:Times New Roman;font-size:14.00;">take_fl_A</text>
</g>
<!-- 4 -->
<g id="node6" class="node"><title>4</title>
<ellipse style="fill:none;stroke:black;" cx="542" cy="-47" rx="18" ry="18"/>
<ellipse style="fill:none;stroke:black;" cx="542" cy="-47" rx="22" ry="22"/>
<text text-anchor="middle" x="542" y="-42.9" style="font-family:Times New Roman;font-size:14.00;">4</text>
</g>
<!-- 3&#45;&gt;4 -->
<g id="edge12" class="edge"><title>3&#45;&gt;4</title>
<path style="fill:none;stroke:black;" d="M420,-77C426,-80 433,-83 440,-85 467,-90 477,-95 502,-85 509,-82 515,-77 521,-72"/>
<polygon style="fill:black;stroke:black;" points="523.779,-74.2191 529,-65 519.169,-68.9511 523.779,-74.2191"/>
<text text-anchor="middle" x="471" y="-92.9" style="font-family:Times New Roman;font-size:14.00;">empty_A</text>
</g>
<!-- 3&#45;&gt;4 -->
<g id="edge14" class="edge"><title>3&#45;&gt;4</title>
<path style="fill:none;stroke:black;" d="M422,-63C428,-63 434,-62 440,-61 464,-58 490,-54 510,-51"/>
<polygon style="fill:black;stroke:black;" points="510.398,-54.4778 520,-50 509.701,-47.5125 510.398,-54.4778"/>
<text text-anchor="middle" x="471" y="-64.9" style="font-family:Times New Roman;font-size:14.00;">full_A</text>
</g>
<!-- 4&#45;&gt;1 -->
<g id="edge18" class="edge"><title>4&#45;&gt;1</title>
<path style="fill:none;stroke:black;" d="M525,-32C519,-27 511,-22 502,-20 381,17 344,-17 216,-17 189,-16 181,-8 154,-17 148,-19 143,-22 138,-25"/>
<polygon style="fill:black;stroke:black;" points="135.9,-22.2 130,-31 140.1,-27.8 135.9,-22.2"/>
<text text-anchor="middle" x="328" y="-14.9" style="font-family:Times New Roman;font-size:14.00;">del_tr_A</text>
</g>
<!-- 4&#45;&gt;3 -->
<g id="edge16" class="edge"><title>4&#45;&gt;3</title>
<path style="fill:none;stroke:black;" d="M522,-37C516,-34 509,-32 502,-31 475,-25 466,-21 440,-31 433,-34 427,-38 421,-43"/>
<polygon style="fill:black;stroke:black;" points="418.596,-40.454 414,-50 423.546,-45.4038 418.596,-40.454"/>
<text text-anchor="middle" x="471" y="-34.9" style="font-family:Times New Roman;font-size:14.00;">no_op_A</text>
</g>
</g>
</svg>
