<?xml version="1.0" encoding="UTF-8" standalone="no"?>
<!DOCTYPE svg PUBLIC "-//W3C//DTD SVG 1.0//EN"
 "http://www.w3.org/TR/2001/REC-SVG-20010904/DTD/svg10.dtd" [
 <!ATTLIST svg xmlns:xlink CDATA #FIXED "http://www.w3.org/1999/xlink">
]>
<!-- Generated by Graphviz version 2.20.2 (Tue Mar &#160;2 21:46:26 UTC 2010)
     For user: (mtmoor) Prof. Thomas Moor -->
<!-- Title: HioConstraint Pages: 1 -->
<svg width="242pt" height="52pt"
 viewBox="0.00 0.00 242.00 52.00" xmlns="http://www.w3.org/2000/svg" xmlns:xlink="http://www.w3.org/1999/xlink">
<g id="graph0" class="graph" transform="scale(1 1) rotate(0) translate(4 48)">
<title>HioConstraint</title>
<polygon style="fill:white;stroke:white;" points="-4,4 -4,-48 238,-48 238,4 -4,4"/>
<!-- dot_dummyinit_1 -->
<g id="node1" class="node"><title>dot_dummyinit_1</title>
</g>
<!-- 1 -->
<g id="node3" class="node"><title>1</title>
<ellipse style="fill:none;stroke:black;" cx="114" cy="-22" rx="18" ry="18"/>
<ellipse style="fill:none;stroke:black;" cx="114" cy="-22" rx="22" ry="22"/>
<text text-anchor="middle" x="114" y="-17.9" style="font-family:Times New Roman;font-size:14.00;">1</text>
</g>
<!-- dot_dummyinit_1&#45;&gt;1 -->
<g id="edge2" class="edge"><title>dot_dummyinit_1&#45;&gt;1</title>
<path style="fill:none;stroke:black;" d="M54,-22C63,-22 72,-22 82,-22"/>
<polygon style="fill:black;stroke:black;" points="82,-25.5001 92,-22 82,-18.5001 82,-25.5001"/>
</g>
<!-- 2 -->
<g id="node4" class="node"><title>2</title>
<ellipse style="fill:none;stroke:black;" cx="212" cy="-22" rx="18" ry="18"/>
<ellipse style="fill:none;stroke:black;" cx="212" cy="-22" rx="22" ry="22"/>
<text text-anchor="middle" x="212" y="-17.9" style="font-family:Times New Roman;font-size:14.00;">2</text>
</g>
<!-- 1&#45;&gt;2 -->
<g id="edge4" class="edge"><title>1&#45;&gt;2</title>
<path style="fill:none;stroke:black;" d="M136,-22C149,-22 165,-22 180,-22"/>
<polygon style="fill:black;stroke:black;" points="180,-25.5001 190,-22 180,-18.5001 180,-25.5001"/>
<text text-anchor="middle" x="163" y="-25.9" style="font-family:Times New Roman;font-size:14.00;">y1</text>
</g>
<!-- 2&#45;&gt;1 -->
<g id="edge6" class="edge"><title>2&#45;&gt;1</title>
<path style="fill:none;stroke:black;" d="M194,-10C182,-3 168,2 154,-1 150,-2 146,-3 142,-5"/>
<polygon style="fill:black;stroke:black;" points="140.042,-2.08397 133,-10 143.441,-8.20308 140.042,-2.08397"/>
<text text-anchor="middle" x="163" y="-5.9" style="font-family:Times New Roman;font-size:14.00;">u</text>
</g>
</g>
</svg>
