<?xml version="1.0" encoding="UTF-8" standalone="no"?>
<!DOCTYPE svg PUBLIC "-//W3C//DTD SVG 1.0//EN"
 "http://www.w3.org/TR/2001/REC-SVG-20010904/DTD/svg10.dtd">
<!-- Generated by dot version 2.2 (Tue Sep 13 00:37:56 UTC 2005)
     For user: (msperk) Perk_Sebastian, Betreuer=Moor, mitarb, 01/05    Title: HioSynth(plant_A,spec_A)_G_    Pages: 1 -->
<svg width="732pt" height="268pt"
 viewBox = "-1 -1 731 267"
 xmlns="http://www.w3.org/2000/svg">
<g id="graph0" class="graph" transform = "scale(0.265096)"
 style="font-family:Times-Roman;font-size:14.00;">
<title>HioSynth(plant_A,spec_A)_G_</title>
<g id="node1" class="node"><title>dot_dummyinit_1</title>
</g>
<g id="node3" class="node"><title>1</title>
<ellipse cx="119" cy="150" rx="18" ry="18" style="fill:none;stroke:black;"/>
<ellipse cx="119" cy="150" rx="22" ry="22" style="fill:none;stroke:black;"/>
<text text-anchor="middle" x="119" y="155">1</text>
</g>
<g id="edge2" class="edge"><title>dot_dummyinit_1&#45;&gt;1</title>
<path style="fill:none;stroke:black;" d="M59,150C68,150 77,150 87,150"/>
<polygon style="fill:black;stroke:black;" points="87,146 97,150 87,153 87,146"/>
</g>
<g id="node4" class="node"><title>2</title>
<ellipse cx="2573" cy="415" rx="18" ry="18" style="fill:none;stroke:black;"/>
<ellipse cx="2573" cy="415" rx="22" ry="22" style="fill:none;stroke:black;"/>
<text text-anchor="middle" x="2573" y="420">2</text>
</g>
<g id="edge6" class="edge"><title>1&#45;&gt;2</title>
<path style="fill:none;stroke:black;" d="M128,130C134,115 145,97 159,84 191,57 203,46 244,46 244,46 244,46 2444,46 2486,46 2503,52 2529,84 2584,152 2560,190 2570,276 2571,287 2572,345 2573,383"/>
<polygon style="fill:black;stroke:black;" points="2577,383 2573,393 2570,383 2577,383"/>
<text text-anchor="middle" x="1322" y="43">G_full</text>
</g>
<g id="edge8" class="edge"><title>1&#45;&gt;2</title>
<path style="fill:none;stroke:black;" d="M137,137C161,122 203,98 244,98 244,98 244,98 2444,98 2486,98 2502,105 2529,136 2572,185 2561,212 2570,276 2572,287 2573,345 2573,383"/>
<polygon style="fill:black;stroke:black;" points="2577,383 2573,393 2570,383 2577,383"/>
<text text-anchor="middle" x="1322" y="95">G_arrtl</text>
</g>
<g id="edge10" class="edge"><title>1&#45;&gt;2</title>
<path style="fill:none;stroke:black;" d="M141,150C166,150 208,150 244,150 244,150 244,150 2444,150 2524,150 2553,199 2570,276 2571,282 2572,343 2573,383"/>
<polygon style="fill:black;stroke:black;" points="2577,383 2573,393 2570,383 2577,383"/>
<text text-anchor="middle" x="1322" y="147">G_arrtr</text>
</g>
<g id="node23" class="node"><title>21</title>
<ellipse cx="244" cy="246" rx="21" ry="21" style="fill:none;stroke:black;"/>
<ellipse cx="244" cy="246" rx="25" ry="25" style="fill:none;stroke:black;"/>
<text text-anchor="middle" x="244" y="251">21</text>
</g>
<g id="edge4" class="edge"><title>1&#45;&gt;21</title>
<path style="fill:none;stroke:black;" d="M137,164C158,179 192,206 216,225"/>
<polygon style="fill:black;stroke:black;" points="218,222 224,231 214,228 218,222"/>
<text text-anchor="middle" x="180" y="180">G_wait</text>
</g>
<g id="node7" class="node"><title>5</title>
<ellipse cx="2699" cy="415" rx="18" ry="18" style="fill:none;stroke:black;"/>
<ellipse cx="2699" cy="415" rx="22" ry="22" style="fill:none;stroke:black;"/>
<text text-anchor="middle" x="2699" y="420">5</text>
</g>
<g id="edge12" class="edge"><title>2&#45;&gt;5</title>
<path style="fill:none;stroke:black;" d="M2578,393C2585,361 2601,303 2617,291 2633,281 2644,281 2659,291 2674,303 2686,350 2693,383"/>
<polygon style="fill:black;stroke:black;" points="2696,383 2695,393 2690,384 2696,383"/>
<text text-anchor="middle" x="2638" y="281">G_r</text>
</g>
<g id="edge14" class="edge"><title>2&#45;&gt;5</title>
<path style="fill:none;stroke:black;" d="M2580,394C2586,377 2598,354 2617,343 2634,334 2643,334 2659,343 2675,352 2684,369 2690,384"/>
<polygon style="fill:black;stroke:black;" points="2694,383 2694,394 2687,386 2694,383"/>
<text text-anchor="middle" x="2638" y="334">G_l</text>
</g>
<g id="edge16" class="edge"><title>2&#45;&gt;5</title>
<path style="fill:none;stroke:black;" d="M2593,404C2600,401 2609,397 2617,395 2636,392 2641,391 2659,395 2663,396 2667,397 2671,399"/>
<polygon style="fill:black;stroke:black;" points="2672,396 2680,403 2669,402 2672,396"/>
<text text-anchor="middle" x="2638" y="390">G_stp</text>
</g>
<g id="node5" class="node"><title>3</title>
<ellipse cx="1261" cy="421" rx="18" ry="18" style="fill:none;stroke:black;"/>
<ellipse cx="1261" cy="421" rx="22" ry="22" style="fill:none;stroke:black;"/>
<text text-anchor="middle" x="1261" y="426">3</text>
</g>
<g id="node17" class="node"><title>15</title>
<ellipse cx="1386" cy="421" rx="21" ry="21" style="fill:none;stroke:black;"/>
<ellipse cx="1386" cy="421" rx="25" ry="25" style="fill:none;stroke:black;"/>
<text text-anchor="middle" x="1386" y="426">15</text>
</g>
<g id="edge18" class="edge"><title>3&#45;&gt;15</title>
<path style="fill:none;stroke:black;" d="M1283,421C1302,421 1329,421 1351,421"/>
<polygon style="fill:black;stroke:black;" points="1351,417 1361,421 1351,424 1351,417"/>
<text text-anchor="middle" x="1322" y="418">G_stp</text>
</g>
<g id="node6" class="node"><title>4</title>
<ellipse cx="1759" cy="583" rx="18" ry="18" style="fill:none;stroke:black;"/>
<ellipse cx="1759" cy="583" rx="22" ry="22" style="fill:none;stroke:black;"/>
<text text-anchor="middle" x="1759" y="588">4</text>
</g>
<g id="node21" class="node"><title>19</title>
<ellipse cx="1885" cy="739" rx="21" ry="21" style="fill:none;stroke:black;"/>
<ellipse cx="1885" cy="739" rx="25" ry="25" style="fill:none;stroke:black;"/>
<text text-anchor="middle" x="1885" y="744">19</text>
</g>
<g id="edge20" class="edge"><title>4&#45;&gt;19</title>
<path style="fill:none;stroke:black;" d="M1773,600C1795,627 1836,679 1862,711"/>
<polygon style="fill:black;stroke:black;" points="1865,709 1869,719 1860,714 1865,709"/>
<text text-anchor="middle" x="1820" y="629">G_r</text>
</g>
<g id="node24" class="node"><title>22</title>
<ellipse cx="1885" cy="583" rx="21" ry="21" style="fill:none;stroke:black;"/>
<ellipse cx="1885" cy="583" rx="25" ry="25" style="fill:none;stroke:black;"/>
<text text-anchor="middle" x="1885" y="588">22</text>
</g>
<g id="edge22" class="edge"><title>4&#45;&gt;22</title>
<path style="fill:none;stroke:black;" d="M1781,583C1800,583 1827,583 1849,583"/>
<polygon style="fill:black;stroke:black;" points="1849,579 1859,583 1849,586 1849,579"/>
<text text-anchor="middle" x="1820" y="580">G_stp</text>
</g>
<g id="edge24" class="edge"><title>5&#45;&gt;2</title>
<path style="fill:none;stroke:black;" d="M2677,417C2671,418 2665,418 2659,418 2641,419 2636,419 2617,418 2613,418 2609,418 2605,418"/>
<polygon style="fill:black;stroke:black;" points="2605,421 2595,417 2605,415 2605,421"/>
<text text-anchor="middle" x="2638" y="415">G_wait</text>
</g>
<g id="edge26" class="edge"><title>5&#45;&gt;2</title>
<path style="fill:none;stroke:black;" d="M2681,429C2675,433 2667,437 2659,439 2642,444 2636,444 2617,439 2609,437 2604,436 2599,434"/>
<polygon style="fill:black;stroke:black;" points="2598,437 2590,430 2601,431 2598,437"/>
<text text-anchor="middle" x="2638" y="436">G_full</text>
</g>
<g id="edge28" class="edge"><title>5&#45;&gt;2</title>
<path style="fill:none;stroke:black;" d="M2692,436C2684,451 2678,457 2659,464 2642,471 2635,470 2617,464 2601,458 2592,455 2583,445"/>
<polygon style="fill:black;stroke:black;" points="2580,447 2577,437 2586,443 2580,447"/>
<text text-anchor="middle" x="2638" y="461">G_arrtl</text>
</g>
<g id="edge30" class="edge"><title>5&#45;&gt;2</title>
<path style="fill:none;stroke:black;" d="M2696,437C2686,464 2685,477 2659,490 2643,499 2635,498 2617,490 2595,481 2587,473 2577,447"/>
<polygon style="fill:black;stroke:black;" points="2574,448 2574,437 2580,446 2574,448"/>
<text text-anchor="middle" x="2638" y="487">G_arrtr</text>
</g>
<g id="node8" class="node"><title>6</title>
<ellipse cx="734" cy="322" rx="18" ry="18" style="fill:none;stroke:black;"/>
<ellipse cx="734" cy="322" rx="22" ry="22" style="fill:none;stroke:black;"/>
<text text-anchor="middle" x="734" y="327">6</text>
</g>
<g id="node20" class="node"><title>18</title>
<ellipse cx="606" cy="290" rx="21" ry="21" style="fill:none;stroke:black;"/>
<ellipse cx="606" cy="290" rx="25" ry="25" style="fill:none;stroke:black;"/>
<text text-anchor="middle" x="606" y="295">18</text>
</g>
<g id="edge32" class="edge"><title>6&#45;&gt;18</title>
<path style="fill:none;stroke:black;" d="M712,316C693,312 663,304 640,298"/>
<polygon style="fill:black;stroke:black;" points="639,301 630,296 640,295 639,301"/>
<text text-anchor="middle" x="670" y="299">G_r</text>
</g>
<g id="node22" class="node"><title>20</title>
<ellipse cx="875" cy="322" rx="21" ry="21" style="fill:none;stroke:black;"/>
<ellipse cx="875" cy="322" rx="25" ry="25" style="fill:none;stroke:black;"/>
<text text-anchor="middle" x="875" y="327">20</text>
</g>
<g id="edge34" class="edge"><title>6&#45;&gt;20</title>
<path style="fill:none;stroke:black;" d="M756,322C778,322 813,322 839,322"/>
<polygon style="fill:black;stroke:black;" points="839,318 849,322 839,325 839,318"/>
<text text-anchor="middle" x="804" y="319">G_FULL</text>
</g>
<g id="node9" class="node"><title>7</title>
<ellipse cx="1643" cy="567" rx="18" ry="18" style="fill:none;stroke:black;"/>
<ellipse cx="1643" cy="567" rx="22" ry="22" style="fill:none;stroke:black;"/>
<text text-anchor="middle" x="1643" y="572">7</text>
</g>
<g id="edge36" class="edge"><title>7&#45;&gt;3</title>
<path style="fill:none;stroke:black;" d="M1621,567C1581,567 1495,563 1429,535 1374,511 1317,468 1286,442"/>
<polygon style="fill:black;stroke:black;" points="1284,445 1278,436 1288,439 1284,445"/>
<text text-anchor="middle" x="1450" y="532">G_STP</text>
</g>
<g id="edge38" class="edge"><title>7&#45;&gt;4</title>
<path style="fill:none;stroke:black;" d="M1665,570C1682,573 1707,576 1727,579"/>
<polygon style="fill:black;stroke:black;" points="1727,576 1737,580 1727,582 1727,576"/>
<text text-anchor="middle" x="1701" y="571">G_TR</text>
</g>
<g id="node10" class="node"><title>8</title>
<ellipse cx="1511" cy="517" rx="18" ry="18" style="fill:none;stroke:black;"/>
<ellipse cx="1511" cy="517" rx="22" ry="22" style="fill:none;stroke:black;"/>
<text text-anchor="middle" x="1511" y="522">8</text>
</g>
<g id="edge40" class="edge"><title>8&#45;&gt;7</title>
<path style="fill:none;stroke:black;" d="M1532,525C1554,533 1588,546 1612,555"/>
<polygon style="fill:black;stroke:black;" points="1614,552 1622,559 1611,559 1614,552"/>
<text text-anchor="middle" x="1577" y="530">G_WAIT</text>
</g>
<g id="node11" class="node"><title>9</title>
<ellipse cx="379" cy="290" rx="18" ry="18" style="fill:none;stroke:black;"/>
<ellipse cx="379" cy="290" rx="22" ry="22" style="fill:none;stroke:black;"/>
<text text-anchor="middle" x="379" y="295">9</text>
</g>
<g id="node25" class="node"><title>23</title>
<ellipse cx="2573" cy="914" rx="21" ry="21" style="fill:none;stroke:black;"/>
<ellipse cx="2573" cy="914" rx="25" ry="25" style="fill:none;stroke:black;"/>
<text text-anchor="middle" x="2573" y="919">23</text>
</g>
<g id="edge42" class="edge"><title>9&#45;&gt;23</title>
<path style="fill:none;stroke:black;" d="M381,312C390,425 433,933 497,933 497,933 497,933 2444,933 2476,933 2512,928 2537,922"/>
<polygon style="fill:black;stroke:black;" points="2537,919 2547,920 2538,925 2537,919"/>
<text text-anchor="middle" x="1450" y="930">G_STP</text>
</g>
<g id="node28" class="node"><title>26</title>
<ellipse cx="497" cy="290" rx="21" ry="21" style="fill:none;stroke:black;"/>
<ellipse cx="497" cy="290" rx="25" ry="25" style="fill:none;stroke:black;"/>
<text text-anchor="middle" x="497" y="295">26</text>
</g>
<g id="edge44" class="edge"><title>9&#45;&gt;26</title>
<path style="fill:none;stroke:black;" d="M401,290C418,290 441,290 461,290"/>
<polygon style="fill:black;stroke:black;" points="461,286 471,290 461,293 461,286"/>
<text text-anchor="middle" x="436" y="287">G_FL</text>
</g>
<g id="node12" class="node"><title>10</title>
<ellipse cx="2246" cy="879" rx="21" ry="21" style="fill:none;stroke:black;"/>
<ellipse cx="2246" cy="879" rx="25" ry="25" style="fill:none;stroke:black;"/>
<text text-anchor="middle" x="2246" y="884">10</text>
</g>
<g id="edge46" class="edge"><title>10&#45;&gt;23</title>
<path style="fill:none;stroke:black;" d="M2271,882C2329,888 2470,903 2537,910"/>
<polygon style="fill:black;stroke:black;" points="2537,907 2547,911 2537,913 2537,907"/>
<text text-anchor="middle" x="2380" y="887">G_STP</text>
</g>
<g id="node13" class="node"><title>11</title>
<ellipse cx="734" cy="399" rx="20" ry="20" style="fill:none;stroke:black;"/>
<ellipse cx="734" cy="399" rx="24" ry="24" style="fill:none;stroke:black;"/>
<text text-anchor="middle" x="734" y="404">11</text>
</g>
<g id="node29" class="node"><title>27</title>
<ellipse cx="944" cy="419" rx="21" ry="21" style="fill:none;stroke:black;"/>
<ellipse cx="944" cy="419" rx="25" ry="25" style="fill:none;stroke:black;"/>
<text text-anchor="middle" x="944" y="424">27</text>
</g>
<g id="edge48" class="edge"><title>11&#45;&gt;27</title>
<path style="fill:none;stroke:black;" d="M759,401C796,405 867,412 909,416"/>
<polygon style="fill:black;stroke:black;" points="909,413 919,417 909,419 909,413"/>
<text text-anchor="middle" x="804" y="401">G_FULL</text>
</g>
<g id="node14" class="node"><title>12</title>
<ellipse cx="2014" cy="768" rx="21" ry="21" style="fill:none;stroke:black;"/>
<ellipse cx="2014" cy="768" rx="25" ry="25" style="fill:none;stroke:black;"/>
<text text-anchor="middle" x="2014" y="773">12</text>
</g>
<g id="edge50" class="edge"><title>12&#45;&gt;19</title>
<path style="fill:none;stroke:black;" d="M1996,785C1989,790 1980,796 1971,799 1954,804 1946,807 1929,799 1917,793 1908,781 1900,771"/>
<polygon style="fill:black;stroke:black;" points="1897,772 1895,762 1903,769 1897,772"/>
<text text-anchor="middle" x="1950" y="793">G_r</text>
</g>
<g id="node27" class="node"><title>25</title>
<ellipse cx="2171" cy="769" rx="21" ry="21" style="fill:none;stroke:black;"/>
<ellipse cx="2171" cy="769" rx="25" ry="25" style="fill:none;stroke:black;"/>
<text text-anchor="middle" x="2171" y="774">25</text>
</g>
<g id="edge52" class="edge"><title>12&#45;&gt;25</title>
<path style="fill:none;stroke:black;" d="M2039,768C2065,768 2106,768 2135,769"/>
<polygon style="fill:black;stroke:black;" points="2135,765 2145,769 2135,772 2135,765"/>
<text text-anchor="middle" x="2089" y="765">G_ARRTR</text>
</g>
<g id="node15" class="node"><title>13</title>
<ellipse cx="2089" cy="867" rx="21" ry="21" style="fill:none;stroke:black;"/>
<ellipse cx="2089" cy="867" rx="25" ry="25" style="fill:none;stroke:black;"/>
<text text-anchor="middle" x="2089" y="872">13</text>
</g>
<g id="edge54" class="edge"><title>13&#45;&gt;10</title>
<path style="fill:none;stroke:black;" d="M2114,869C2141,871 2182,874 2211,876"/>
<polygon style="fill:black;stroke:black;" points="2211,873 2221,877 2211,879 2211,873"/>
<text text-anchor="middle" x="2171" y="867">G_ARRTR</text>
</g>
<g id="node16" class="node"><title>14</title>
<ellipse cx="1012" cy="322" rx="21" ry="21" style="fill:none;stroke:black;"/>
<ellipse cx="1012" cy="322" rx="25" ry="25" style="fill:none;stroke:black;"/>
<text text-anchor="middle" x="1012" y="327">14</text>
</g>
<g id="node18" class="node"><title>16</title>
<ellipse cx="1140" cy="331" rx="21" ry="21" style="fill:none;stroke:black;"/>
<ellipse cx="1140" cy="331" rx="25" ry="25" style="fill:none;stroke:black;"/>
<text text-anchor="middle" x="1140" y="336">16</text>
</g>
<g id="edge56" class="edge"><title>14&#45;&gt;16</title>
<path style="fill:none;stroke:black;" d="M1034,334C1041,337 1048,340 1055,341 1072,344 1090,343 1106,340"/>
<polygon style="fill:black;stroke:black;" points="1106,337 1116,338 1107,343 1106,337"/>
<text text-anchor="middle" x="1076" y="338">G_r</text>
</g>
<g id="edge60" class="edge"><title>15&#45;&gt;2</title>
<path style="fill:none;stroke:black;" d="M1408,434C1432,448 1473,467 1511,467 1511,467 1511,467 1885,467 2172,467 2248,482 2529,429 2533,428 2538,428 2542,426"/>
<polygon style="fill:black;stroke:black;" points="2541,423 2552,423 2543,429 2541,423"/>
<text text-anchor="middle" x="1950" y="466">G_full</text>
</g>
<g id="edge62" class="edge"><title>15&#45;&gt;2</title>
<path style="fill:none;stroke:black;" d="M1408,408C1432,395 1474,377 1511,377 1511,377 1511,377 1759,377 1873,377 1901,363 2014,363 2014,363 2014,363 2444,363 2481,363 2521,382 2546,397"/>
<polygon style="fill:black;stroke:black;" points="2548,394 2555,402 2545,400 2548,394"/>
<text text-anchor="middle" x="1950" y="362">G_arrtl</text>
</g>
<g id="edge64" class="edge"><title>15&#45;&gt;2</title>
<path style="fill:none;stroke:black;" d="M1411,419C1436,417 1477,415 1511,415 1511,415 1511,415 2444,415 2477,415 2515,415 2541,415"/>
<polygon style="fill:black;stroke:black;" points="2541,411 2551,415 2541,418 2541,411"/>
<text text-anchor="middle" x="1950" y="412">G_arrtr</text>
</g>
<g id="edge58" class="edge"><title>15&#45;&gt;8</title>
<path style="fill:none;stroke:black;" d="M1394,445C1401,462 1412,484 1429,497 1443,508 1462,513 1479,515"/>
<polygon style="fill:black;stroke:black;" points="1479,512 1489,516 1479,518 1479,512"/>
<text text-anchor="middle" x="1450" y="494">G_wait</text>
</g>
<g id="edge70" class="edge"><title>16&#45;&gt;2</title>
<path style="fill:none;stroke:black;" d="M1165,331C1190,331 1228,331 1261,331 1261,331 1261,331 1759,331 1873,331 1901,319 2014,319 2014,319 2014,319 2444,319 2505,319 2532,338 2562,384"/>
<polygon style="fill:black;stroke:black;" points="2565,383 2568,393 2560,387 2565,383"/>
<text text-anchor="middle" x="1820" y="327">G_arrtl</text>
</g>
<g id="edge72" class="edge"><title>16&#45;&gt;2</title>
<path style="fill:none;stroke:black;" d="M1162,319C1186,308 1225,292 1261,292 1261,292 1261,292 1511,292 1678,292 1719,279 1885,279 1885,279 1885,279 2444,279 2487,279 2498,294 2529,321 2552,342 2558,351 2569,383"/>
<polygon style="fill:black;stroke:black;" points="2572,382 2572,393 2566,384 2572,382"/>
<text text-anchor="middle" x="1820" y="278">G_arrtr</text>
</g>
<g id="edge68" class="edge"><title>16&#45;&gt;3</title>
<path style="fill:none;stroke:black;" d="M1160,346C1181,361 1213,385 1235,402"/>
<polygon style="fill:black;stroke:black;" points="1237,399 1243,408 1233,405 1237,399"/>
<text text-anchor="middle" x="1202" y="361">G_full</text>
</g>
<g id="edge66" class="edge"><title>16&#45;&gt;14</title>
<path style="fill:none;stroke:black;" d="M1115,325C1109,323 1103,322 1097,321 1081,319 1063,319 1047,320"/>
<polygon style="fill:black;stroke:black;" points="1047,323 1037,320 1047,316 1047,323"/>
<text text-anchor="middle" x="1076" y="317">G_wait</text>
</g>
<g id="node19" class="node"><title>17</title>
<ellipse cx="2444" cy="797" rx="20" ry="20" style="fill:none;stroke:black;"/>
<ellipse cx="2444" cy="797" rx="24" ry="24" style="fill:none;stroke:black;"/>
<text text-anchor="middle" x="2444" y="802">17</text>
</g>
<g id="edge76" class="edge"><title>17&#45;&gt;2</title>
<path style="fill:none;stroke:black;" d="M2466,786C2486,775 2515,756 2529,731 2558,683 2568,517 2572,447"/>
<polygon style="fill:black;stroke:black;" points="2569,447 2572,437 2576,447 2569,447"/>
<text text-anchor="middle" x="2508" y="728">G_full</text>
</g>
<g id="edge78" class="edge"><title>17&#45;&gt;2</title>
<path style="fill:none;stroke:black;" d="M2468,803C2487,806 2513,807 2529,793 2579,750 2567,564 2570,497 2572,481 2572,463 2573,447"/>
<polygon style="fill:black;stroke:black;" points="2570,447 2573,437 2577,447 2570,447"/>
<text text-anchor="middle" x="2508" y="790">G_arrtl</text>
</g>
<g id="edge80" class="edge"><title>17&#45;&gt;23</title>
<path style="fill:none;stroke:black;" d="M2462,814C2484,834 2521,867 2546,889"/>
<polygon style="fill:black;stroke:black;" points="2549,887 2554,896 2544,892 2549,887"/>
<text text-anchor="middle" x="2508" y="830">G_arrtr</text>
</g>
<g id="node26" class="node"><title>24</title>
<ellipse cx="2315" cy="769" rx="21" ry="21" style="fill:none;stroke:black;"/>
<ellipse cx="2315" cy="769" rx="25" ry="25" style="fill:none;stroke:black;"/>
<text text-anchor="middle" x="2315" y="774">24</text>
</g>
<g id="edge74" class="edge"><title>17&#45;&gt;24</title>
<path style="fill:none;stroke:black;" d="M2420,792C2400,788 2372,782 2350,777"/>
<polygon style="fill:black;stroke:black;" points="2349,780 2340,775 2350,774 2349,780"/>
<text text-anchor="middle" x="2380" y="775">G_wait</text>
</g>
<g id="edge86" class="edge"><title>18&#45;&gt;2</title>
<path style="fill:none;stroke:black;" d="M618,268C626,256 637,242 649,232 682,207 693,196 734,196 734,196 734,196 1261,196 1402,196 1437,194 1577,194 1577,194 1577,194 2444,194 2484,194 2502,193 2529,221 2579,274 2558,307 2570,378 2570,380 2571,381 2571,383"/>
<polygon style="fill:black;stroke:black;" points="2574,383 2572,393 2568,383 2574,383"/>
<text text-anchor="middle" x="1577" y="191">G_arrtl</text>
</g>
<g id="edge88" class="edge"><title>18&#45;&gt;2</title>
<path style="fill:none;stroke:black;" d="M628,278C653,265 695,246 734,246 734,246 734,246 1511,246 1678,246 1719,235 1885,235 1885,235 1885,235 2444,235 2519,235 2529,288 2561,355 2564,361 2565,363 2567,368 2569,373 2570,374 2570,378 2570,379 2571,381 2571,383"/>
<polygon style="fill:black;stroke:black;" points="2574,383 2572,393 2568,383 2574,383"/>
<text text-anchor="middle" x="1577" y="243">G_arrtr</text>
</g>
<g id="edge82" class="edge"><title>18&#45;&gt;6</title>
<path style="fill:none;stroke:black;" d="M618,312C626,322 633,326 649,332 666,339 687,336 703,333"/>
<polygon style="fill:black;stroke:black;" points="702,330 713,330 704,336 702,330"/>
<text text-anchor="middle" x="670" y="329">G_wait</text>
</g>
<g id="edge84" class="edge"><title>18&#45;&gt;11</title>
<path style="fill:none;stroke:black;" d="M609,315C620,338 629,343 649,358 665,371 685,380 702,387"/>
<polygon style="fill:black;stroke:black;" points="703,384 711,391 700,390 703,384"/>
<text text-anchor="middle" x="670" y="355">G_full</text>
</g>
<g id="edge92" class="edge"><title>19&#45;&gt;2</title>
<path style="fill:none;stroke:black;" d="M1903,721C1911,715 1920,708 1929,703 2176,587 2320,754 2529,580 2559,556 2556,538 2564,500 2568,484 2569,480 2570,463 2571,458 2571,453 2572,447"/>
<polygon style="fill:black;stroke:black;" points="2569,447 2572,437 2576,447 2569,447"/>
<text text-anchor="middle" x="2246" y="660">G_full</text>
</g>
<g id="edge94" class="edge"><title>19&#45;&gt;2</title>
<path style="fill:none;stroke:black;" d="M1909,733C1916,732 1923,730 1929,729 2168,687 2243,737 2469,651 2498,641 2509,641 2529,618 2557,588 2552,572 2561,531 2567,506 2568,499 2570,472 2571,464 2571,456 2572,447"/>
<polygon style="fill:black;stroke:black;" points="2569,447 2573,437 2575,447 2569,447"/>
<text text-anchor="middle" x="2246" y="700">G_arrtl</text>
</g>
<g id="edge90" class="edge"><title>19&#45;&gt;12</title>
<path style="fill:none;stroke:black;" d="M1910,745C1930,749 1958,755 1980,760"/>
<polygon style="fill:black;stroke:black;" points="1981,757 1990,763 1979,763 1981,757"/>
<text text-anchor="middle" x="1950" y="746">G_wait</text>
</g>
<g id="edge96" class="edge"><title>19&#45;&gt;13</title>
<path style="fill:none;stroke:black;" d="M1886,764C1886,767 1887,770 1887,771 1898,798 1905,806 1929,823 1967,847 2020,859 2054,864"/>
<polygon style="fill:black;stroke:black;" points="2054,861 2064,865 2054,867 2054,861"/>
<text text-anchor="middle" x="1950" y="817">G_arrtr</text>
</g>
<g id="edge98" class="edge"><title>20&#45;&gt;14</title>
<path style="fill:none;stroke:black;" d="M901,322C923,322 953,322 977,322"/>
<polygon style="fill:black;stroke:black;" points="977,318 987,322 977,325 977,318"/>
<text text-anchor="middle" x="944" y="319">G_STP</text>
</g>
<g id="edge100" class="edge"><title>21&#45;&gt;9</title>
<path style="fill:none;stroke:black;" d="M268,254C291,261 324,272 348,280"/>
<polygon style="fill:black;stroke:black;" points="349,277 358,283 347,283 349,277"/>
<text text-anchor="middle" x="313" y="258">G_WAIT</text>
</g>
<g id="edge104" class="edge"><title>22&#45;&gt;2</title>
<path style="fill:none;stroke:black;" d="M1909,573C1935,564 1977,551 2014,551 2014,551 2014,551 2444,551 2486,551 2500,543 2529,513 2548,495 2559,467 2565,446"/>
<polygon style="fill:black;stroke:black;" points="2562,445 2568,436 2568,447 2562,445"/>
<text text-anchor="middle" x="2246" y="548">G_full</text>
</g>
<g id="edge106" class="edge"><title>22&#45;&gt;2</title>
<path style="fill:none;stroke:black;" d="M1911,586C2020,597 2435,633 2529,551 2565,521 2560,498 2569,447"/>
<polygon style="fill:black;stroke:black;" points="2566,446 2571,437 2572,447 2566,446"/>
<text text-anchor="middle" x="2246" y="601">G_arrtl</text>
</g>
<g id="edge108" class="edge"><title>22&#45;&gt;2</title>
<path style="fill:none;stroke:black;" d="M1899,561C1907,555 1916,553 1929,548 1955,539 1963,543 1989,539 2109,523 2424,528 2529,469 2541,463 2550,453 2557,443"/>
<polygon style="fill:black;stroke:black;" points="2555,440 2563,434 2560,444 2555,440"/>
<text text-anchor="middle" x="2246" y="518">G_arrtr</text>
</g>
<g id="edge102" class="edge"><title>22&#45;&gt;12</title>
<path style="fill:none;stroke:black;" d="M1902,603C1925,630 1966,683 1998,736"/>
<polygon style="fill:black;stroke:black;" points="2001,735 2003,745 1995,738 2001,735"/>
<text text-anchor="middle" x="1950" y="632">G_wait</text>
</g>
<g id="edge110" class="edge"><title>23&#45;&gt;1</title>
<path style="fill:none;stroke:black;" d="M2557,935C2523,969 2499,979 2444,979 244,979 244,979 244,979 162,979 128,335 120,182"/>
<polygon style="fill:black;stroke:black;" points="117,182 120,172 124,182 117,182"/>
<text text-anchor="middle" x="1322" y="976">G_stp</text>
</g>
<g id="edge112" class="edge"><title>24&#45;&gt;17</title>
<path style="fill:none;stroke:black;" d="M2329,791C2337,798 2345,801 2359,806 2376,811 2395,810 2411,806"/>
<polygon style="fill:black;stroke:black;" points="2411,803 2421,804 2412,809 2411,803"/>
<text text-anchor="middle" x="2380" y="800">G_r</text>
</g>
<g id="edge114" class="edge"><title>25&#45;&gt;24</title>
<path style="fill:none;stroke:black;" d="M2197,769C2220,769 2254,769 2279,769"/>
<polygon style="fill:black;stroke:black;" points="2279,765 2289,769 2279,772 2279,765"/>
<text text-anchor="middle" x="2246" y="766">G_STP</text>
</g>
<g id="edge116" class="edge"><title>26&#45;&gt;18</title>
<path style="fill:none;stroke:black;" d="M523,290C537,290 555,290 571,290"/>
<polygon style="fill:black;stroke:black;" points="571,286 581,290 571,293 571,286"/>
<text text-anchor="middle" x="552" y="287">G_r</text>
</g>
<g id="edge118" class="edge"><title>27&#45;&gt;3</title>
<path style="fill:none;stroke:black;" d="M969,419C1026,420 1166,421 1229,421"/>
<polygon style="fill:black;stroke:black;" points="1229,417 1239,421 1229,424 1229,417"/>
<text text-anchor="middle" x="1076" y="418">G_STP</text>
</g>
</g>
</svg>
