<?xml version="1.0" encoding="UTF-8" standalone="no"?>
<!DOCTYPE svg PUBLIC "-//W3C//DTD SVG 1.0//EN"
 "http://www.w3.org/TR/2001/REC-SVG-20010904/DTD/svg10.dtd">
<!-- Generated by dot version 2.2 (Tue Sep 13 00:37:56 UTC 2005)
     For user: (msperk) Perk_Sebastian, Betreuer=Moor, mitarb, 01/05    Title: spec_A_B_    Pages: 1 -->
<svg width="732pt" height="156pt"
 viewBox = "-1 -1 731 155"
 xmlns="http://www.w3.org/2000/svg">
<g id="graph0" class="graph" transform = "scale(0.393443)"
 style="font-family:Times-Roman;font-size:14.00;">
<title>spec_A_B_</title>
<g id="node1" class="node"><title>dot_dummyinit_1</title>
</g>
<g id="node3" class="node"><title>2</title>
<ellipse cx="119" cy="160" rx="18" ry="18" style="fill:none;stroke:black;"/>
<ellipse cx="119" cy="160" rx="22" ry="22" style="fill:none;stroke:black;"/>
<text text-anchor="middle" x="119" y="165">2</text>
</g>
<g id="edge2" class="edge"><title>dot_dummyinit_1&#45;&gt;2</title>
<path style="fill:none;stroke:black;" d="M59,160C68,160 77,160 87,160"/>
<polygon style="fill:black;stroke:black;" points="87,156 97,160 87,163 87,156"/>
</g>
<g id="node6" class="node"><title>4</title>
<ellipse cx="253" cy="108" rx="18" ry="18" style="fill:none;stroke:black;"/>
<ellipse cx="253" cy="108" rx="22" ry="22" style="fill:none;stroke:black;"/>
<text text-anchor="middle" x="253" y="113">4</text>
</g>
<g id="edge4" class="edge"><title>2&#45;&gt;4</title>
<path style="fill:none;stroke:black;" d="M139,150C145,146 152,143 159,140 180,132 204,123 222,117"/>
<polygon style="fill:black;stroke:black;" points="221,114 232,114 223,120 221,114"/>
<text text-anchor="middle" x="186" y="120">B_WAIT</text>
</g>
<g id="node4" class="node"><title>Err</title>
<ellipse cx="1672" cy="151" rx="24" ry="24" style="fill:none;stroke:black;"/>
<ellipse cx="1672" cy="151" rx="28" ry="28" style="fill:none;stroke:black;"/>
<text text-anchor="middle" x="1672" y="156">Err</text>
</g>
<g id="node5" class="node"><title>3</title>
<ellipse cx="1277" cy="206" rx="18" ry="18" style="fill:none;stroke:black;"/>
<ellipse cx="1277" cy="206" rx="22" ry="22" style="fill:none;stroke:black;"/>
<text text-anchor="middle" x="1277" y="211">3</text>
</g>
<g id="edge10" class="edge"><title>3&#45;&gt;Err</title>
<path style="fill:none;stroke:black;" d="M1299,202C1305,201 1311,200 1317,199 1433,182 1568,164 1633,156"/>
<polygon style="fill:black;stroke:black;" points="1633,153 1643,155 1633,159 1633,153"/>
<text text-anchor="middle" x="1465" y="173">B_FL</text>
</g>
<g id="node10" class="node"><title>8</title>
<ellipse cx="1393" cy="246" rx="18" ry="18" style="fill:none;stroke:black;"/>
<ellipse cx="1393" cy="246" rx="22" ry="22" style="fill:none;stroke:black;"/>
<text text-anchor="middle" x="1393" y="251">8</text>
</g>
<g id="edge8" class="edge"><title>3&#45;&gt;8</title>
<path style="fill:none;stroke:black;" d="M1298,213C1316,220 1342,229 1362,236"/>
<polygon style="fill:black;stroke:black;" points="1363,233 1372,239 1361,239 1363,233"/>
<text text-anchor="middle" x="1335" y="216">B_TR</text>
</g>
<g id="node11" class="node"><title>9</title>
<ellipse cx="1143" cy="211" rx="18" ry="18" style="fill:none;stroke:black;"/>
<ellipse cx="1143" cy="211" rx="22" ry="22" style="fill:none;stroke:black;"/>
<text text-anchor="middle" x="1143" y="216">9</text>
</g>
<g id="edge6" class="edge"><title>3&#45;&gt;9</title>
<path style="fill:none;stroke:black;" d="M1261,221C1254,227 1246,232 1237,235 1215,242 1207,241 1183,235 1178,234 1174,232 1170,229"/>
<polygon style="fill:black;stroke:black;" points="1168,232 1161,224 1171,226 1168,232"/>
<text text-anchor="middle" x="1210" y="229">B_STP</text>
</g>
<g id="edge12" class="edge"><title>4&#45;&gt;2</title>
<path style="fill:none;stroke:black;" d="M244,129C237,145 233,154 213,163 194,173 169,172 150,168"/>
<polygon style="fill:black;stroke:black;" points="149,171 140,166 150,165 149,171"/>
<text text-anchor="middle" x="186" y="160">B_STP</text>
</g>
<g id="edge14" class="edge"><title>4&#45;&gt;Err</title>
<path style="fill:none;stroke:black;" d="M267,91C287,69 326,34 367,34 367,34 367,34 1540,34 1606,34 1634,58 1663,114"/>
<polygon style="fill:black;stroke:black;" points="1666,113 1668,123 1660,116 1666,113"/>
<text text-anchor="middle" x="949" y="31">B_TR</text>
</g>
<g id="node9" class="node"><title>7</title>
<ellipse cx="367" cy="108" rx="18" ry="18" style="fill:none;stroke:black;"/>
<ellipse cx="367" cy="108" rx="22" ry="22" style="fill:none;stroke:black;"/>
<text text-anchor="middle" x="367" y="113">7</text>
</g>
<g id="edge16" class="edge"><title>4&#45;&gt;7</title>
<path style="fill:none;stroke:black;" d="M275,108C292,108 315,108 335,108"/>
<polygon style="fill:black;stroke:black;" points="335,104 345,108 335,111 335,104"/>
<text text-anchor="middle" x="310" y="105">B_FL</text>
</g>
<g id="node7" class="node"><title>5</title>
<ellipse cx="757" cy="132" rx="18" ry="18" style="fill:none;stroke:black;"/>
<ellipse cx="757" cy="132" rx="22" ry="22" style="fill:none;stroke:black;"/>
<text text-anchor="middle" x="757" y="137">5</text>
</g>
<g id="edge22" class="edge"><title>5&#45;&gt;Err</title>
<path style="fill:none;stroke:black;" d="M775,119C799,104 841,80 882,80 882,80 882,80 1540,80 1593,80 1616,93 1646,122"/>
<polygon style="fill:black;stroke:black;" points="1649,120 1654,129 1644,125 1649,120"/>
<text text-anchor="middle" x="1210" y="77">B_FL</text>
</g>
<g id="edge20" class="edge"><title>5&#45;&gt;Err</title>
<path style="fill:none;stroke:black;" d="M779,132C804,132 846,132 882,132 882,132 882,132 1540,132 1573,132 1608,137 1634,143"/>
<polygon style="fill:black;stroke:black;" points="1635,140 1644,145 1634,146 1635,140"/>
<text text-anchor="middle" x="1210" y="129">B_TR</text>
</g>
<g id="node12" class="node"><title>10</title>
<ellipse cx="882" cy="185" rx="21" ry="21" style="fill:none;stroke:black;"/>
<ellipse cx="882" cy="185" rx="25" ry="25" style="fill:none;stroke:black;"/>
<text text-anchor="middle" x="882" y="190">10</text>
</g>
<g id="edge18" class="edge"><title>5&#45;&gt;10</title>
<path style="fill:none;stroke:black;" d="M774,147C781,152 789,158 797,162 813,170 831,176 847,179"/>
<polygon style="fill:black;stroke:black;" points="848,176 857,181 847,182 848,176"/>
<text text-anchor="middle" x="818" y="159">B_STP</text>
</g>
<g id="node8" class="node"><title>6</title>
<ellipse cx="623" cy="132" rx="18" ry="18" style="fill:none;stroke:black;"/>
<ellipse cx="623" cy="132" rx="22" ry="22" style="fill:none;stroke:black;"/>
<text text-anchor="middle" x="623" y="137">6</text>
</g>
<g id="edge24" class="edge"><title>6&#45;&gt;5</title>
<path style="fill:none;stroke:black;" d="M645,132C667,132 700,132 725,132"/>
<polygon style="fill:black;stroke:black;" points="725,128 735,132 725,135 725,128"/>
<text text-anchor="middle" x="690" y="129">B_FULL</text>
</g>
<g id="node14" class="node"><title>12</title>
<ellipse cx="496" cy="132" rx="21" ry="21" style="fill:none;stroke:black;"/>
<ellipse cx="496" cy="132" rx="25" ry="25" style="fill:none;stroke:black;"/>
<text text-anchor="middle" x="496" y="137">12</text>
</g>
<g id="edge26" class="edge"><title>7&#45;&gt;12</title>
<path style="fill:none;stroke:black;" d="M389,112C409,115 438,121 461,125"/>
<polygon style="fill:black;stroke:black;" points="462,122 471,127 461,128 462,122"/>
<text text-anchor="middle" x="430" y="114">B_reqfl</text>
</g>
<g id="node17" class="node"><title>15</title>
<ellipse cx="1540" cy="261" rx="21" ry="21" style="fill:none;stroke:black;"/>
<ellipse cx="1540" cy="261" rx="25" ry="25" style="fill:none;stroke:black;"/>
<text text-anchor="middle" x="1540" y="266">15</text>
</g>
<g id="edge28" class="edge"><title>8&#45;&gt;15</title>
<path style="fill:none;stroke:black;" d="M1415,248C1439,251 1477,254 1505,257"/>
<polygon style="fill:black;stroke:black;" points="1505,254 1515,258 1505,260 1505,254"/>
<text text-anchor="middle" x="1465" y="246">B_ARRTR</text>
</g>
<g id="edge30" class="edge"><title>9&#45;&gt;3</title>
<path style="fill:none;stroke:black;" d="M1165,210C1187,209 1220,208 1245,207"/>
<polygon style="fill:black;stroke:black;" points="1245,203 1255,207 1245,210 1245,203"/>
<text text-anchor="middle" x="1210" y="203">B_WAIT</text>
</g>
<g id="node15" class="node"><title>13</title>
<ellipse cx="1016" cy="211" rx="21" ry="21" style="fill:none;stroke:black;"/>
<ellipse cx="1016" cy="211" rx="25" ry="25" style="fill:none;stroke:black;"/>
<text text-anchor="middle" x="1016" y="216">13</text>
</g>
<g id="edge32" class="edge"><title>10&#45;&gt;13</title>
<path style="fill:none;stroke:black;" d="M907,190C928,193 958,199 981,204"/>
<polygon style="fill:black;stroke:black;" points="982,201 991,206 981,207 982,201"/>
<text text-anchor="middle" x="949" y="191">B_occfl</text>
</g>
<g id="node13" class="node"><title>11</title>
<ellipse cx="1672" cy="315" rx="20" ry="20" style="fill:none;stroke:black;"/>
<ellipse cx="1672" cy="315" rx="24" ry="24" style="fill:none;stroke:black;"/>
<text text-anchor="middle" x="1672" y="320">11</text>
</g>
<g id="node16" class="node"><title>14</title>
<ellipse cx="1810" cy="321" rx="21" ry="21" style="fill:none;stroke:black;"/>
<ellipse cx="1810" cy="321" rx="25" ry="25" style="fill:none;stroke:black;"/>
<text text-anchor="middle" x="1810" y="326">14</text>
</g>
<g id="edge34" class="edge"><title>11&#45;&gt;14</title>
<path style="fill:none;stroke:black;" d="M1695,307C1703,304 1711,302 1719,301 1741,297 1747,296 1767,301 1771,302 1775,303 1779,304"/>
<polygon style="fill:black;stroke:black;" points="1780,301 1788,308 1777,307 1780,301"/>
<text text-anchor="middle" x="1743" y="293">B_freetr</text>
</g>
<g id="edge38" class="edge"><title>12&#45;&gt;6</title>
<path style="fill:none;stroke:black;" d="M521,132C541,132 569,132 591,132"/>
<polygon style="fill:black;stroke:black;" points="591,128 601,132 591,135 591,128"/>
<text text-anchor="middle" x="561" y="129">B_pack</text>
</g>
<g id="edge36" class="edge"><title>12&#45;&gt;7</title>
<path style="fill:none;stroke:black;" d="M473,142C455,148 429,153 407,145 398,142 392,138 387,134"/>
<polygon style="fill:black;stroke:black;" points="384,136 380,126 389,131 384,136"/>
<text text-anchor="middle" x="430" y="142">B_nack</text>
</g>
<g id="edge42" class="edge"><title>13&#45;&gt;9</title>
<path style="fill:none;stroke:black;" d="M1041,211C1061,211 1089,211 1111,211"/>
<polygon style="fill:black;stroke:black;" points="1111,207 1121,211 1111,214 1111,207"/>
<text text-anchor="middle" x="1081" y="208">B_pack</text>
</g>
<g id="edge40" class="edge"><title>13&#45;&gt;10</title>
<path style="fill:none;stroke:black;" d="M992,220C974,225 947,230 925,223 916,220 909,216 904,212"/>
<polygon style="fill:black;stroke:black;" points="902,215 897,205 907,210 902,215"/>
<text text-anchor="middle" x="949" y="217">B_nack</text>
</g>
<g id="edge46" class="edge"><title>14&#45;&gt;2</title>
<path style="fill:none;stroke:black;" d="M1788,333C1761,347 1715,367 1672,367 253,367 253,367 253,367 171,367 136,250 125,192"/>
<polygon style="fill:black;stroke:black;" points="122,192 123,182 128,191 122,192"/>
<text text-anchor="middle" x="949" y="364">B_pack</text>
</g>
<g id="edge44" class="edge"><title>14&#45;&gt;11</title>
<path style="fill:none;stroke:black;" d="M1785,322C1767,322 1741,322 1719,321 1715,320 1711,320 1706,319"/>
<polygon style="fill:black;stroke:black;" points="1706,322 1696,318 1706,316 1706,322"/>
<text text-anchor="middle" x="1743" y="315">B_nack</text>
</g>
<g id="edge50" class="edge"><title>15&#45;&gt;Err</title>
<path style="fill:none;stroke:black;" d="M1561,247C1579,235 1604,218 1625,200 1632,194 1639,187 1646,181"/>
<polygon style="fill:black;stroke:black;" points="1644,178 1653,173 1649,183 1644,178"/>
<text text-anchor="middle" x="1604" y="197">B_TR</text>
</g>
<g id="edge52" class="edge"><title>15&#45;&gt;Err</title>
<path style="fill:none;stroke:black;" d="M1565,264C1583,265 1607,263 1625,252 1654,234 1656,218 1666,189"/>
<polygon style="fill:black;stroke:black;" points="1663,188 1669,179 1669,190 1663,188"/>
<text text-anchor="middle" x="1604" y="249">B_FL</text>
</g>
<g id="edge48" class="edge"><title>15&#45;&gt;11</title>
<path style="fill:none;stroke:black;" d="M1555,281C1563,290 1572,299 1583,304 1599,312 1620,315 1637,316"/>
<polygon style="fill:black;stroke:black;" points="1637,312 1647,316 1637,319 1637,312"/>
<text text-anchor="middle" x="1604" y="298">B_STP</text>
</g>
</g>
</svg>
