<?xml version="1.0" encoding="UTF-8" standalone="no"?>
<!DOCTYPE svg PUBLIC "-//W3C//DTD SVG 1.0//EN"
 "http://www.w3.org/TR/2001/REC-SVG-20010904/DTD/svg10.dtd">
<!-- Generated by dot version 2.2 (Tue Sep 13 00:37:56 UTC 2005)
     For user: (msperk) Perk_Sebastian, Betreuer=Moor, mitarb, 01/05    Title: HioSynth(plant_A,spec_A)_C_    Pages: 1 -->
<svg width="732pt" height="269pt"
 viewBox = "-1 -1 731 268"
 xmlns="http://www.w3.org/2000/svg">
<g id="graph0" class="graph" transform = "scale(0.265879)"
 style="font-family:Times-Roman;font-size:14.00;">
<title>HioSynth(plant_A,spec_A)_C_</title>
<g id="node1" class="node"><title>dot_dummyinit_1</title>
</g>
<g id="node3" class="node"><title>1</title>
<ellipse cx="119" cy="151" rx="18" ry="18" style="fill:none;stroke:black;"/>
<ellipse cx="119" cy="151" rx="22" ry="22" style="fill:none;stroke:black;"/>
<text text-anchor="middle" x="119" y="156">1</text>
</g>
<g id="edge2" class="edge"><title>dot_dummyinit_1&#45;&gt;1</title>
<path style="fill:none;stroke:black;" d="M59,151C68,151 77,151 87,151"/>
<polygon style="fill:black;stroke:black;" points="87,147 97,151 87,154 87,147"/>
</g>
<g id="node4" class="node"><title>2</title>
<ellipse cx="2565" cy="416" rx="18" ry="18" style="fill:none;stroke:black;"/>
<ellipse cx="2565" cy="416" rx="22" ry="22" style="fill:none;stroke:black;"/>
<text text-anchor="middle" x="2565" y="421">2</text>
</g>
<g id="edge6" class="edge"><title>1&#45;&gt;2</title>
<path style="fill:none;stroke:black;" d="M128,131C134,116 145,98 159,85 190,59 202,47 242,47 242,47 242,47 2436,47 2478,47 2495,53 2521,85 2576,153 2552,191 2562,277 2563,288 2564,346 2565,384"/>
<polygon style="fill:black;stroke:black;" points="2569,384 2565,394 2562,384 2569,384"/>
<text text-anchor="middle" x="1314" y="44">C_full</text>
</g>
<g id="edge8" class="edge"><title>1&#45;&gt;2</title>
<path style="fill:none;stroke:black;" d="M137,138C160,122 202,99 242,99 242,99 242,99 2436,99 2478,99 2494,106 2521,137 2564,186 2553,213 2562,277 2564,288 2565,346 2565,384"/>
<polygon style="fill:black;stroke:black;" points="2569,384 2565,394 2562,384 2569,384"/>
<text text-anchor="middle" x="1314" y="96">C_arrtl</text>
</g>
<g id="edge10" class="edge"><title>1&#45;&gt;2</title>
<path style="fill:none;stroke:black;" d="M141,151C166,151 207,151 242,151 242,151 242,151 2436,151 2516,151 2545,200 2562,277 2563,283 2564,344 2565,384"/>
<polygon style="fill:black;stroke:black;" points="2569,384 2565,394 2562,384 2569,384"/>
<text text-anchor="middle" x="1314" y="148">C_arrtr</text>
</g>
<g id="node23" class="node"><title>21</title>
<ellipse cx="242" cy="247" rx="21" ry="21" style="fill:none;stroke:black;"/>
<ellipse cx="242" cy="247" rx="25" ry="25" style="fill:none;stroke:black;"/>
<text text-anchor="middle" x="242" y="252">21</text>
</g>
<g id="edge4" class="edge"><title>1&#45;&gt;21</title>
<path style="fill:none;stroke:black;" d="M136,165C157,180 190,207 214,226"/>
<polygon style="fill:black;stroke:black;" points="216,223 222,232 212,229 216,223"/>
<text text-anchor="middle" x="179" y="181">C_wait</text>
</g>
<g id="node7" class="node"><title>5</title>
<ellipse cx="2691" cy="416" rx="18" ry="18" style="fill:none;stroke:black;"/>
<ellipse cx="2691" cy="416" rx="22" ry="22" style="fill:none;stroke:black;"/>
<text text-anchor="middle" x="2691" y="421">5</text>
</g>
<g id="edge12" class="edge"><title>2&#45;&gt;5</title>
<path style="fill:none;stroke:black;" d="M2570,394C2577,362 2593,304 2609,292 2625,282 2636,282 2651,292 2666,304 2678,351 2685,384"/>
<polygon style="fill:black;stroke:black;" points="2688,384 2687,394 2682,385 2688,384"/>
<text text-anchor="middle" x="2630" y="282">C_r</text>
</g>
<g id="edge14" class="edge"><title>2&#45;&gt;5</title>
<path style="fill:none;stroke:black;" d="M2572,395C2578,378 2590,355 2609,344 2626,335 2635,335 2651,344 2667,353 2676,370 2682,385"/>
<polygon style="fill:black;stroke:black;" points="2686,384 2686,395 2679,387 2686,384"/>
<text text-anchor="middle" x="2630" y="335">C_l</text>
</g>
<g id="edge16" class="edge"><title>2&#45;&gt;5</title>
<path style="fill:none;stroke:black;" d="M2585,405C2592,402 2601,398 2609,396 2628,393 2633,392 2651,396 2655,397 2659,398 2663,400"/>
<polygon style="fill:black;stroke:black;" points="2664,397 2672,404 2661,403 2664,397"/>
<text text-anchor="middle" x="2630" y="391">C_stp</text>
</g>
<g id="node5" class="node"><title>3</title>
<ellipse cx="1253" cy="422" rx="18" ry="18" style="fill:none;stroke:black;"/>
<ellipse cx="1253" cy="422" rx="22" ry="22" style="fill:none;stroke:black;"/>
<text text-anchor="middle" x="1253" y="427">3</text>
</g>
<g id="node17" class="node"><title>15</title>
<ellipse cx="1378" cy="422" rx="21" ry="21" style="fill:none;stroke:black;"/>
<ellipse cx="1378" cy="422" rx="25" ry="25" style="fill:none;stroke:black;"/>
<text text-anchor="middle" x="1378" y="427">15</text>
</g>
<g id="edge18" class="edge"><title>3&#45;&gt;15</title>
<path style="fill:none;stroke:black;" d="M1275,422C1294,422 1321,422 1343,422"/>
<polygon style="fill:black;stroke:black;" points="1343,418 1353,422 1343,425 1343,418"/>
<text text-anchor="middle" x="1314" y="419">C_stp</text>
</g>
<g id="node6" class="node"><title>4</title>
<ellipse cx="1751" cy="584" rx="18" ry="18" style="fill:none;stroke:black;"/>
<ellipse cx="1751" cy="584" rx="22" ry="22" style="fill:none;stroke:black;"/>
<text text-anchor="middle" x="1751" y="589">4</text>
</g>
<g id="node21" class="node"><title>19</title>
<ellipse cx="1877" cy="740" rx="21" ry="21" style="fill:none;stroke:black;"/>
<ellipse cx="1877" cy="740" rx="25" ry="25" style="fill:none;stroke:black;"/>
<text text-anchor="middle" x="1877" y="745">19</text>
</g>
<g id="edge20" class="edge"><title>4&#45;&gt;19</title>
<path style="fill:none;stroke:black;" d="M1765,601C1787,628 1828,680 1854,712"/>
<polygon style="fill:black;stroke:black;" points="1857,710 1861,720 1852,715 1857,710"/>
<text text-anchor="middle" x="1812" y="630">C_r</text>
</g>
<g id="node24" class="node"><title>22</title>
<ellipse cx="1877" cy="584" rx="21" ry="21" style="fill:none;stroke:black;"/>
<ellipse cx="1877" cy="584" rx="25" ry="25" style="fill:none;stroke:black;"/>
<text text-anchor="middle" x="1877" y="589">22</text>
</g>
<g id="edge22" class="edge"><title>4&#45;&gt;22</title>
<path style="fill:none;stroke:black;" d="M1773,584C1792,584 1819,584 1841,584"/>
<polygon style="fill:black;stroke:black;" points="1841,580 1851,584 1841,587 1841,580"/>
<text text-anchor="middle" x="1812" y="581">C_stp</text>
</g>
<g id="edge24" class="edge"><title>5&#45;&gt;2</title>
<path style="fill:none;stroke:black;" d="M2669,418C2663,419 2657,419 2651,419 2633,420 2628,420 2609,419 2605,419 2601,419 2597,419"/>
<polygon style="fill:black;stroke:black;" points="2597,422 2587,418 2597,416 2597,422"/>
<text text-anchor="middle" x="2630" y="416">C_wait</text>
</g>
<g id="edge26" class="edge"><title>5&#45;&gt;2</title>
<path style="fill:none;stroke:black;" d="M2673,430C2667,434 2659,438 2651,440 2634,445 2628,445 2609,440 2601,438 2596,437 2591,435"/>
<polygon style="fill:black;stroke:black;" points="2590,438 2582,431 2593,432 2590,438"/>
<text text-anchor="middle" x="2630" y="437">C_full</text>
</g>
<g id="edge28" class="edge"><title>5&#45;&gt;2</title>
<path style="fill:none;stroke:black;" d="M2684,437C2676,452 2670,458 2651,465 2634,472 2627,471 2609,465 2593,459 2584,456 2575,446"/>
<polygon style="fill:black;stroke:black;" points="2572,448 2569,438 2578,444 2572,448"/>
<text text-anchor="middle" x="2630" y="462">C_arrtl</text>
</g>
<g id="edge30" class="edge"><title>5&#45;&gt;2</title>
<path style="fill:none;stroke:black;" d="M2688,438C2678,465 2677,478 2651,491 2635,500 2627,499 2609,491 2587,482 2579,474 2569,448"/>
<polygon style="fill:black;stroke:black;" points="2566,449 2566,438 2572,447 2566,449"/>
<text text-anchor="middle" x="2630" y="488">C_arrtr</text>
</g>
<g id="node8" class="node"><title>6</title>
<ellipse cx="730" cy="323" rx="18" ry="18" style="fill:none;stroke:black;"/>
<ellipse cx="730" cy="323" rx="22" ry="22" style="fill:none;stroke:black;"/>
<text text-anchor="middle" x="730" y="328">6</text>
</g>
<g id="node20" class="node"><title>18</title>
<ellipse cx="604" cy="291" rx="21" ry="21" style="fill:none;stroke:black;"/>
<ellipse cx="604" cy="291" rx="25" ry="25" style="fill:none;stroke:black;"/>
<text text-anchor="middle" x="604" y="296">18</text>
</g>
<g id="edge32" class="edge"><title>6&#45;&gt;18</title>
<path style="fill:none;stroke:black;" d="M708,317C689,313 660,305 638,300"/>
<polygon style="fill:black;stroke:black;" points="637,303 628,297 639,297 637,303"/>
<text text-anchor="middle" x="667" y="300">C_r</text>
</g>
<g id="node22" class="node"><title>20</title>
<ellipse cx="869" cy="323" rx="21" ry="21" style="fill:none;stroke:black;"/>
<ellipse cx="869" cy="323" rx="25" ry="25" style="fill:none;stroke:black;"/>
<text text-anchor="middle" x="869" y="328">20</text>
</g>
<g id="edge34" class="edge"><title>6&#45;&gt;20</title>
<path style="fill:none;stroke:black;" d="M752,323C774,323 807,323 833,323"/>
<polygon style="fill:black;stroke:black;" points="833,319 843,323 833,326 833,319"/>
<text text-anchor="middle" x="799" y="320">C_FULL</text>
</g>
<g id="node9" class="node"><title>7</title>
<ellipse cx="1635" cy="568" rx="18" ry="18" style="fill:none;stroke:black;"/>
<ellipse cx="1635" cy="568" rx="22" ry="22" style="fill:none;stroke:black;"/>
<text text-anchor="middle" x="1635" y="573">7</text>
</g>
<g id="edge36" class="edge"><title>7&#45;&gt;3</title>
<path style="fill:none;stroke:black;" d="M1613,568C1573,568 1487,564 1421,536 1366,512 1309,469 1278,443"/>
<polygon style="fill:black;stroke:black;" points="1276,446 1270,437 1280,440 1276,446"/>
<text text-anchor="middle" x="1442" y="533">C_STP</text>
</g>
<g id="edge38" class="edge"><title>7&#45;&gt;4</title>
<path style="fill:none;stroke:black;" d="M1657,571C1674,574 1699,577 1719,580"/>
<polygon style="fill:black;stroke:black;" points="1719,577 1729,581 1719,583 1719,577"/>
<text text-anchor="middle" x="1693" y="572">C_TR</text>
</g>
<g id="node10" class="node"><title>8</title>
<ellipse cx="1503" cy="518" rx="18" ry="18" style="fill:none;stroke:black;"/>
<ellipse cx="1503" cy="518" rx="22" ry="22" style="fill:none;stroke:black;"/>
<text text-anchor="middle" x="1503" y="523">8</text>
</g>
<g id="edge40" class="edge"><title>8&#45;&gt;7</title>
<path style="fill:none;stroke:black;" d="M1524,526C1546,534 1580,547 1604,556"/>
<polygon style="fill:black;stroke:black;" points="1606,553 1614,560 1603,560 1606,553"/>
<text text-anchor="middle" x="1569" y="531">C_WAIT</text>
</g>
<g id="node11" class="node"><title>9</title>
<ellipse cx="377" cy="291" rx="18" ry="18" style="fill:none;stroke:black;"/>
<ellipse cx="377" cy="291" rx="22" ry="22" style="fill:none;stroke:black;"/>
<text text-anchor="middle" x="377" y="296">9</text>
</g>
<g id="node25" class="node"><title>23</title>
<ellipse cx="2565" cy="915" rx="21" ry="21" style="fill:none;stroke:black;"/>
<ellipse cx="2565" cy="915" rx="25" ry="25" style="fill:none;stroke:black;"/>
<text text-anchor="middle" x="2565" y="920">23</text>
</g>
<g id="edge42" class="edge"><title>9&#45;&gt;23</title>
<path style="fill:none;stroke:black;" d="M379,313C388,426 431,934 495,934 495,934 495,934 2436,934 2468,934 2504,929 2529,923"/>
<polygon style="fill:black;stroke:black;" points="2529,920 2539,921 2530,926 2529,920"/>
<text text-anchor="middle" x="1442" y="931">C_STP</text>
</g>
<g id="node28" class="node"><title>26</title>
<ellipse cx="495" cy="291" rx="21" ry="21" style="fill:none;stroke:black;"/>
<ellipse cx="495" cy="291" rx="25" ry="25" style="fill:none;stroke:black;"/>
<text text-anchor="middle" x="495" y="296">26</text>
</g>
<g id="edge44" class="edge"><title>9&#45;&gt;26</title>
<path style="fill:none;stroke:black;" d="M399,291C416,291 439,291 459,291"/>
<polygon style="fill:black;stroke:black;" points="459,287 469,291 459,294 459,287"/>
<text text-anchor="middle" x="434" y="288">C_FL</text>
</g>
<g id="node12" class="node"><title>10</title>
<ellipse cx="2238" cy="880" rx="21" ry="21" style="fill:none;stroke:black;"/>
<ellipse cx="2238" cy="880" rx="25" ry="25" style="fill:none;stroke:black;"/>
<text text-anchor="middle" x="2238" y="885">10</text>
</g>
<g id="edge46" class="edge"><title>10&#45;&gt;23</title>
<path style="fill:none;stroke:black;" d="M2263,883C2321,889 2462,904 2529,911"/>
<polygon style="fill:black;stroke:black;" points="2529,908 2539,912 2529,914 2529,908"/>
<text text-anchor="middle" x="2372" y="888">C_STP</text>
</g>
<g id="node13" class="node"><title>11</title>
<ellipse cx="730" cy="400" rx="20" ry="20" style="fill:none;stroke:black;"/>
<ellipse cx="730" cy="400" rx="24" ry="24" style="fill:none;stroke:black;"/>
<text text-anchor="middle" x="730" y="405">11</text>
</g>
<g id="node29" class="node"><title>27</title>
<ellipse cx="938" cy="420" rx="21" ry="21" style="fill:none;stroke:black;"/>
<ellipse cx="938" cy="420" rx="25" ry="25" style="fill:none;stroke:black;"/>
<text text-anchor="middle" x="938" y="425">27</text>
</g>
<g id="edge48" class="edge"><title>11&#45;&gt;27</title>
<path style="fill:none;stroke:black;" d="M755,402C792,406 861,413 903,417"/>
<polygon style="fill:black;stroke:black;" points="903,414 913,418 903,420 903,414"/>
<text text-anchor="middle" x="799" y="402">C_FULL</text>
</g>
<g id="node14" class="node"><title>12</title>
<ellipse cx="2006" cy="769" rx="21" ry="21" style="fill:none;stroke:black;"/>
<ellipse cx="2006" cy="769" rx="25" ry="25" style="fill:none;stroke:black;"/>
<text text-anchor="middle" x="2006" y="774">12</text>
</g>
<g id="edge50" class="edge"><title>12&#45;&gt;19</title>
<path style="fill:none;stroke:black;" d="M1988,786C1981,791 1972,797 1963,800 1946,805 1938,808 1921,800 1909,794 1900,782 1892,772"/>
<polygon style="fill:black;stroke:black;" points="1889,773 1887,763 1895,770 1889,773"/>
<text text-anchor="middle" x="1942" y="794">C_r</text>
</g>
<g id="node27" class="node"><title>25</title>
<ellipse cx="2163" cy="770" rx="21" ry="21" style="fill:none;stroke:black;"/>
<ellipse cx="2163" cy="770" rx="25" ry="25" style="fill:none;stroke:black;"/>
<text text-anchor="middle" x="2163" y="775">25</text>
</g>
<g id="edge52" class="edge"><title>12&#45;&gt;25</title>
<path style="fill:none;stroke:black;" d="M2031,769C2057,769 2098,769 2127,770"/>
<polygon style="fill:black;stroke:black;" points="2127,766 2137,770 2127,773 2127,766"/>
<text text-anchor="middle" x="2081" y="766">C_ARRTR</text>
</g>
<g id="node15" class="node"><title>13</title>
<ellipse cx="2081" cy="868" rx="21" ry="21" style="fill:none;stroke:black;"/>
<ellipse cx="2081" cy="868" rx="25" ry="25" style="fill:none;stroke:black;"/>
<text text-anchor="middle" x="2081" y="873">13</text>
</g>
<g id="edge54" class="edge"><title>13&#45;&gt;10</title>
<path style="fill:none;stroke:black;" d="M2106,870C2133,872 2174,875 2203,877"/>
<polygon style="fill:black;stroke:black;" points="2203,874 2213,878 2203,880 2203,874"/>
<text text-anchor="middle" x="2163" y="868">C_ARRTR</text>
</g>
<g id="node16" class="node"><title>14</title>
<ellipse cx="1006" cy="323" rx="21" ry="21" style="fill:none;stroke:black;"/>
<ellipse cx="1006" cy="323" rx="25" ry="25" style="fill:none;stroke:black;"/>
<text text-anchor="middle" x="1006" y="328">14</text>
</g>
<g id="node18" class="node"><title>16</title>
<ellipse cx="1134" cy="332" rx="21" ry="21" style="fill:none;stroke:black;"/>
<ellipse cx="1134" cy="332" rx="25" ry="25" style="fill:none;stroke:black;"/>
<text text-anchor="middle" x="1134" y="337">16</text>
</g>
<g id="edge56" class="edge"><title>14&#45;&gt;16</title>
<path style="fill:none;stroke:black;" d="M1028,335C1035,338 1042,341 1049,342 1066,345 1084,344 1100,341"/>
<polygon style="fill:black;stroke:black;" points="1100,338 1110,339 1101,344 1100,338"/>
<text text-anchor="middle" x="1070" y="339">C_r</text>
</g>
<g id="edge60" class="edge"><title>15&#45;&gt;2</title>
<path style="fill:none;stroke:black;" d="M1400,435C1424,449 1465,468 1503,468 1503,468 1503,468 1877,468 2164,468 2240,483 2521,430 2525,429 2530,429 2534,427"/>
<polygon style="fill:black;stroke:black;" points="2533,424 2544,424 2535,430 2533,424"/>
<text text-anchor="middle" x="1942" y="467">C_full</text>
</g>
<g id="edge62" class="edge"><title>15&#45;&gt;2</title>
<path style="fill:none;stroke:black;" d="M1400,409C1424,396 1466,378 1503,378 1503,378 1503,378 1751,378 1865,378 1893,364 2006,364 2006,364 2006,364 2436,364 2473,364 2513,383 2538,398"/>
<polygon style="fill:black;stroke:black;" points="2540,395 2547,403 2537,401 2540,395"/>
<text text-anchor="middle" x="1942" y="363">C_arrtl</text>
</g>
<g id="edge64" class="edge"><title>15&#45;&gt;2</title>
<path style="fill:none;stroke:black;" d="M1403,420C1428,418 1469,416 1503,416 1503,416 1503,416 2436,416 2469,416 2507,416 2533,416"/>
<polygon style="fill:black;stroke:black;" points="2533,412 2543,416 2533,419 2533,412"/>
<text text-anchor="middle" x="1942" y="413">C_arrtr</text>
</g>
<g id="edge58" class="edge"><title>15&#45;&gt;8</title>
<path style="fill:none;stroke:black;" d="M1386,446C1393,463 1404,485 1421,498 1435,509 1454,514 1471,516"/>
<polygon style="fill:black;stroke:black;" points="1471,513 1481,517 1471,519 1471,513"/>
<text text-anchor="middle" x="1442" y="495">C_wait</text>
</g>
<g id="edge70" class="edge"><title>16&#45;&gt;2</title>
<path style="fill:none;stroke:black;" d="M1159,332C1184,332 1221,332 1253,332 1253,332 1253,332 1751,332 1865,332 1893,320 2006,320 2006,320 2006,320 2436,320 2497,320 2524,339 2554,385"/>
<polygon style="fill:black;stroke:black;" points="2557,384 2560,394 2552,388 2557,384"/>
<text text-anchor="middle" x="1812" y="328">C_arrtl</text>
</g>
<g id="edge72" class="edge"><title>16&#45;&gt;2</title>
<path style="fill:none;stroke:black;" d="M1156,320C1180,309 1218,293 1253,293 1253,293 1253,293 1503,293 1670,293 1711,280 1877,280 1877,280 1877,280 2436,280 2479,280 2490,295 2521,322 2544,343 2550,352 2561,384"/>
<polygon style="fill:black;stroke:black;" points="2564,383 2564,394 2558,385 2564,383"/>
<text text-anchor="middle" x="1812" y="279">C_arrtr</text>
</g>
<g id="edge68" class="edge"><title>16&#45;&gt;3</title>
<path style="fill:none;stroke:black;" d="M1154,347C1174,362 1206,386 1227,403"/>
<polygon style="fill:black;stroke:black;" points="1229,400 1235,409 1225,406 1229,400"/>
<text text-anchor="middle" x="1195" y="362">C_full</text>
</g>
<g id="edge66" class="edge"><title>16&#45;&gt;14</title>
<path style="fill:none;stroke:black;" d="M1109,326C1103,324 1097,323 1091,322 1075,320 1057,320 1041,321"/>
<polygon style="fill:black;stroke:black;" points="1041,324 1031,321 1041,317 1041,324"/>
<text text-anchor="middle" x="1070" y="318">C_wait</text>
</g>
<g id="node19" class="node"><title>17</title>
<ellipse cx="2436" cy="798" rx="20" ry="20" style="fill:none;stroke:black;"/>
<ellipse cx="2436" cy="798" rx="24" ry="24" style="fill:none;stroke:black;"/>
<text text-anchor="middle" x="2436" y="803">17</text>
</g>
<g id="edge76" class="edge"><title>17&#45;&gt;2</title>
<path style="fill:none;stroke:black;" d="M2458,787C2478,776 2507,757 2521,732 2550,684 2560,518 2564,448"/>
<polygon style="fill:black;stroke:black;" points="2561,448 2564,438 2568,448 2561,448"/>
<text text-anchor="middle" x="2500" y="729">C_full</text>
</g>
<g id="edge78" class="edge"><title>17&#45;&gt;2</title>
<path style="fill:none;stroke:black;" d="M2460,804C2479,807 2505,808 2521,794 2571,751 2559,565 2562,498 2564,482 2564,464 2565,448"/>
<polygon style="fill:black;stroke:black;" points="2562,448 2565,438 2569,448 2562,448"/>
<text text-anchor="middle" x="2500" y="791">C_arrtl</text>
</g>
<g id="edge80" class="edge"><title>17&#45;&gt;23</title>
<path style="fill:none;stroke:black;" d="M2454,815C2476,835 2513,868 2538,890"/>
<polygon style="fill:black;stroke:black;" points="2541,888 2546,897 2536,893 2541,888"/>
<text text-anchor="middle" x="2500" y="831">C_arrtr</text>
</g>
<g id="node26" class="node"><title>24</title>
<ellipse cx="2307" cy="770" rx="21" ry="21" style="fill:none;stroke:black;"/>
<ellipse cx="2307" cy="770" rx="25" ry="25" style="fill:none;stroke:black;"/>
<text text-anchor="middle" x="2307" y="775">24</text>
</g>
<g id="edge74" class="edge"><title>17&#45;&gt;24</title>
<path style="fill:none;stroke:black;" d="M2412,793C2392,789 2364,783 2342,778"/>
<polygon style="fill:black;stroke:black;" points="2341,781 2332,776 2342,775 2341,781"/>
<text text-anchor="middle" x="2372" y="776">C_wait</text>
</g>
<g id="edge86" class="edge"><title>18&#45;&gt;2</title>
<path style="fill:none;stroke:black;" d="M616,269C624,257 635,243 647,233 679,208 690,197 730,197 730,197 730,197 1253,197 1394,197 1429,195 1569,195 1569,195 1569,195 2436,195 2476,195 2494,194 2521,222 2571,275 2550,308 2562,379 2562,381 2563,382 2563,384"/>
<polygon style="fill:black;stroke:black;" points="2566,384 2564,394 2560,384 2566,384"/>
<text text-anchor="middle" x="1569" y="192">C_arrtl</text>
</g>
<g id="edge88" class="edge"><title>18&#45;&gt;2</title>
<path style="fill:none;stroke:black;" d="M626,278C651,265 692,247 730,247 730,247 730,247 1503,247 1670,247 1711,236 1877,236 1877,236 1877,236 2436,236 2511,236 2521,289 2553,356 2556,362 2557,364 2559,369 2561,374 2562,375 2562,379 2562,380 2563,382 2563,384"/>
<polygon style="fill:black;stroke:black;" points="2566,384 2564,394 2560,384 2566,384"/>
<text text-anchor="middle" x="1569" y="244">C_arrtr</text>
</g>
<g id="edge82" class="edge"><title>18&#45;&gt;6</title>
<path style="fill:none;stroke:black;" d="M616,314C623,323 631,328 647,333 664,340 683,337 699,334"/>
<polygon style="fill:black;stroke:black;" points="698,331 709,331 700,337 698,331"/>
<text text-anchor="middle" x="667" y="330">C_wait</text>
</g>
<g id="edge84" class="edge"><title>18&#45;&gt;11</title>
<path style="fill:none;stroke:black;" d="M607,316C618,339 627,343 647,359 663,371 682,380 698,387"/>
<polygon style="fill:black;stroke:black;" points="699,384 707,391 696,390 699,384"/>
<text text-anchor="middle" x="667" y="356">C_full</text>
</g>
<g id="edge92" class="edge"><title>19&#45;&gt;2</title>
<path style="fill:none;stroke:black;" d="M1895,722C1903,716 1912,709 1921,704 2168,588 2312,755 2521,581 2551,557 2548,539 2556,501 2560,485 2561,481 2562,464 2563,459 2563,454 2564,448"/>
<polygon style="fill:black;stroke:black;" points="2561,448 2564,438 2568,448 2561,448"/>
<text text-anchor="middle" x="2238" y="661">C_full</text>
</g>
<g id="edge94" class="edge"><title>19&#45;&gt;2</title>
<path style="fill:none;stroke:black;" d="M1901,734C1908,733 1915,731 1921,730 2160,688 2235,738 2461,652 2490,642 2501,642 2521,619 2549,589 2544,573 2553,532 2559,507 2560,500 2562,473 2563,465 2563,457 2564,448"/>
<polygon style="fill:black;stroke:black;" points="2561,448 2565,438 2567,448 2561,448"/>
<text text-anchor="middle" x="2238" y="701">C_arrtl</text>
</g>
<g id="edge90" class="edge"><title>19&#45;&gt;12</title>
<path style="fill:none;stroke:black;" d="M1902,746C1922,750 1950,756 1972,761"/>
<polygon style="fill:black;stroke:black;" points="1973,758 1982,764 1971,764 1973,758"/>
<text text-anchor="middle" x="1942" y="747">C_wait</text>
</g>
<g id="edge96" class="edge"><title>19&#45;&gt;13</title>
<path style="fill:none;stroke:black;" d="M1878,765C1878,768 1879,771 1879,772 1890,799 1897,807 1921,824 1959,848 2012,860 2046,865"/>
<polygon style="fill:black;stroke:black;" points="2046,862 2056,866 2046,868 2046,862"/>
<text text-anchor="middle" x="1942" y="818">C_arrtr</text>
</g>
<g id="edge98" class="edge"><title>20&#45;&gt;14</title>
<path style="fill:none;stroke:black;" d="M895,323C917,323 947,323 971,323"/>
<polygon style="fill:black;stroke:black;" points="971,319 981,323 971,326 971,319"/>
<text text-anchor="middle" x="938" y="320">C_STP</text>
</g>
<g id="edge100" class="edge"><title>21&#45;&gt;9</title>
<path style="fill:none;stroke:black;" d="M266,255C289,262 322,273 346,281"/>
<polygon style="fill:black;stroke:black;" points="347,278 356,284 345,284 347,278"/>
<text text-anchor="middle" x="311" y="259">C_WAIT</text>
</g>
<g id="edge104" class="edge"><title>22&#45;&gt;2</title>
<path style="fill:none;stroke:black;" d="M1901,574C1927,565 1969,552 2006,552 2006,552 2006,552 2436,552 2478,552 2492,544 2521,514 2540,496 2551,468 2557,447"/>
<polygon style="fill:black;stroke:black;" points="2554,446 2560,437 2560,448 2554,446"/>
<text text-anchor="middle" x="2238" y="549">C_full</text>
</g>
<g id="edge106" class="edge"><title>22&#45;&gt;2</title>
<path style="fill:none;stroke:black;" d="M1903,587C2012,598 2427,634 2521,552 2557,522 2552,499 2561,448"/>
<polygon style="fill:black;stroke:black;" points="2558,447 2563,438 2564,448 2558,447"/>
<text text-anchor="middle" x="2238" y="602">C_arrtl</text>
</g>
<g id="edge108" class="edge"><title>22&#45;&gt;2</title>
<path style="fill:none;stroke:black;" d="M1891,562C1899,556 1908,554 1921,549 1947,540 1955,544 1981,540 2101,524 2416,529 2521,470 2533,464 2542,454 2549,444"/>
<polygon style="fill:black;stroke:black;" points="2547,441 2555,435 2552,445 2547,441"/>
<text text-anchor="middle" x="2238" y="519">C_arrtr</text>
</g>
<g id="edge102" class="edge"><title>22&#45;&gt;12</title>
<path style="fill:none;stroke:black;" d="M1894,604C1917,631 1958,684 1990,737"/>
<polygon style="fill:black;stroke:black;" points="1993,736 1995,746 1987,739 1993,736"/>
<text text-anchor="middle" x="1942" y="633">C_wait</text>
</g>
<g id="edge110" class="edge"><title>23&#45;&gt;1</title>
<path style="fill:none;stroke:black;" d="M2549,936C2515,970 2491,980 2436,980 242,980 242,980 242,980 160,980 127,336 120,183"/>
<polygon style="fill:black;stroke:black;" points="117,183 120,173 124,183 117,183"/>
<text text-anchor="middle" x="1314" y="977">C_stp</text>
</g>
<g id="edge112" class="edge"><title>24&#45;&gt;17</title>
<path style="fill:none;stroke:black;" d="M2321,792C2329,799 2337,802 2351,807 2368,812 2387,811 2403,807"/>
<polygon style="fill:black;stroke:black;" points="2403,804 2413,805 2404,810 2403,804"/>
<text text-anchor="middle" x="2372" y="801">C_r</text>
</g>
<g id="edge114" class="edge"><title>25&#45;&gt;24</title>
<path style="fill:none;stroke:black;" d="M2189,770C2212,770 2246,770 2271,770"/>
<polygon style="fill:black;stroke:black;" points="2271,766 2281,770 2271,773 2271,766"/>
<text text-anchor="middle" x="2238" y="767">C_STP</text>
</g>
<g id="edge116" class="edge"><title>26&#45;&gt;18</title>
<path style="fill:none;stroke:black;" d="M521,291C535,291 553,291 569,291"/>
<polygon style="fill:black;stroke:black;" points="569,287 579,291 569,294 569,287"/>
<text text-anchor="middle" x="550" y="288">C_r</text>
</g>
<g id="edge118" class="edge"><title>27&#45;&gt;3</title>
<path style="fill:none;stroke:black;" d="M963,420C1020,421 1158,422 1221,422"/>
<polygon style="fill:black;stroke:black;" points="1221,418 1231,422 1221,425 1221,418"/>
<text text-anchor="middle" x="1070" y="419">C_STP</text>
</g>
</g>
</svg>
