<?xml version="1.0" encoding="UTF-8" standalone="no"?>
<!DOCTYPE svg PUBLIC "-//W3C//DTD SVG 1.0//EN"
 "http://www.w3.org/TR/2001/REC-SVG-20010904/DTD/svg10.dtd">
<!-- Generated by dot version 2.2 (Tue Sep 13 00:37:56 UTC 2005)
     For user: (msperk) Perk_Sebastian, Betreuer=Moor, mitarb, 01/05    Title: simple machine A    Pages: 1 -->
<svg width="522pt" height="144pt"
 viewBox = "-1 -1 521 143"
 xmlns="http://www.w3.org/2000/svg">
<g id="graph0" class="graph" style="font-family:Times-Roman;font-size:14.00;">
<title>simple machine A</title>
<g id="node1" class="node"><title>dot_dummyinit_1</title>
</g>
<g id="node3" class="node"><title>1</title>
<ellipse cx="119" cy="72" rx="18" ry="18" style="fill:none;stroke:black;"/>
<ellipse cx="119" cy="72" rx="22" ry="22" style="fill:none;stroke:black;"/>
<text text-anchor="middle" x="119" y="77">1</text>
</g>
<g id="edge2" class="edge"><title>dot_dummyinit_1&#45;&gt;1</title>
<path style="fill:none;stroke:black;" d="M59,72C68,72 77,72 87,72"/>
<polygon style="fill:black;stroke:black;" points="87,68 97,72 87,75 87,68"/>
</g>
<g id="node4" class="node"><title>2</title>
<ellipse cx="241" cy="43" rx="18" ry="18" style="fill:none;stroke:black;"/>
<ellipse cx="241" cy="43" rx="22" ry="22" style="fill:none;stroke:black;"/>
<text text-anchor="middle" x="241" y="48">2</text>
</g>
<g id="edge4" class="edge"><title>1&#45;&gt;2</title>
<path style="fill:none;stroke:black;" d="M138,61C145,57 152,54 159,52 175,47 193,45 209,44"/>
<polygon style="fill:black;stroke:black;" points="209,41 219,43 209,47 209,41"/>
<text text-anchor="middle" x="180" y="43">A_wait</text>
</g>
<g id="edge8" class="edge"><title>2&#45;&gt;1</title>
<path style="fill:none;stroke:black;" d="M226,59C219,66 210,72 201,75 186,81 167,80 151,79"/>
<polygon style="fill:black;stroke:black;" points="150,82 141,77 151,76 150,82"/>
<text text-anchor="middle" x="180" y="72">A_stp</text>
</g>
<g id="node5" class="node"><title>3</title>
<ellipse cx="367" cy="43" rx="18" ry="18" style="fill:none;stroke:black;"/>
<ellipse cx="367" cy="43" rx="22" ry="22" style="fill:none;stroke:black;"/>
<text text-anchor="middle" x="367" y="48">3</text>
</g>
<g id="edge6" class="edge"><title>2&#45;&gt;3</title>
<path style="fill:none;stroke:black;" d="M263,43C283,43 312,43 335,43"/>
<polygon style="fill:black;stroke:black;" points="335,39 345,43 335,46 335,39"/>
<text text-anchor="middle" x="304" y="40">A_do</text>
</g>
<g id="node6" class="node"><title>4</title>
<ellipse cx="493" cy="72" rx="18" ry="18" style="fill:none;stroke:black;"/>
<ellipse cx="493" cy="72" rx="22" ry="22" style="fill:none;stroke:black;"/>
<text text-anchor="middle" x="493" y="77">4</text>
</g>
<g id="edge10" class="edge"><title>3&#45;&gt;4</title>
<path style="fill:none;stroke:black;" d="M389,43C407,44 432,46 453,52 457,53 461,54 465,56"/>
<polygon style="fill:black;stroke:black;" points="467,53 474,61 464,59 467,53"/>
<text text-anchor="middle" x="430" y="42">A_req</text>
</g>
<g id="edge14" class="edge"><title>4&#45;&gt;1</title>
<path style="fill:none;stroke:black;" d="M473,82C468,83 462,82 453,83 342,95 314,86 201,86 177,87 161,95 144,91"/>
<polygon style="fill:black;stroke:black;" points="143,94 134,88 145,88 143,94"/>
<text text-anchor="middle" x="304" y="85">A_pack</text>
</g>
<g id="edge12" class="edge"><title>4&#45;&gt;3</title>
<path style="fill:none;stroke:black;" d="M471,76C453,78 428,79 407,72 402,70 396,67 391,64"/>
<polygon style="fill:black;stroke:black;" points="389,67 383,58 393,61 389,67"/>
<text text-anchor="middle" x="430" y="69">A_nack</text>
</g>
</g>
</svg>
