<?xml version="1.0" encoding="UTF-8" standalone="no"?>
<!DOCTYPE svg PUBLIC "-//W3C//DTD SVG 1.0//EN"
 "http://www.w3.org/TR/2001/REC-SVG-20010904/DTD/svg10.dtd" [
 <!ATTLIST svg xmlns:xlink CDATA #FIXED "http://www.w3.org/1999/xlink">
]>
<!-- Generated by Graphviz version 2.20.2 (Tue Mar &#160;2 21:46:26 UTC 2010)
     For user: (mtmoor) Prof. Thomas Moor -->
<!-- Title: Project(PrefixClosure(HioShuffle(Simple Mac...Machine_2)) [minstate],Generator))) Pages: 1 -->
<svg width="720pt" height="136pt"
 viewBox="0.00 0.00 720.00 136.41" xmlns="http://www.w3.org/2000/svg" xmlns:xlink="http://www.w3.org/1999/xlink">
<g id="graph0" class="graph" transform="scale(0.46875 0.46875) rotate(0) translate(4 287)">
<title>Project(PrefixClosure(HioShuffle(Simple Mac...Machine_2)) [minstate],Generator)))</title>
<polygon style="fill:white;stroke:white;" points="-4,4 -4,-287 1532,-287 1532,4 -4,4"/>
<!-- dot_dummyinit_1 -->
<g id="node1" class="node"><title>dot_dummyinit_1</title>
</g>
<!-- 1 -->
<g id="node3" class="node"><title>1</title>
<ellipse style="fill:none;stroke:black;" cx="114" cy="-60" rx="18" ry="18"/>
<ellipse style="fill:none;stroke:black;" cx="114" cy="-60" rx="22" ry="22"/>
<text text-anchor="middle" x="114" y="-55.9" style="font-family:Times New Roman;font-size:14.00;">1</text>
</g>
<!-- dot_dummyinit_1&#45;&gt;1 -->
<g id="edge2" class="edge"><title>dot_dummyinit_1&#45;&gt;1</title>
<path style="fill:none;stroke:black;" d="M54,-60C63,-60 72,-60 82,-60"/>
<polygon style="fill:black;stroke:black;" points="82,-63.5001 92,-60 82,-56.5001 82,-63.5001"/>
</g>
<!-- 11 -->
<g id="node13" class="node"><title>11</title>
<ellipse style="fill:none;stroke:black;" cx="257" cy="-117" rx="23.1964" ry="23.1964"/>
<ellipse style="fill:none;stroke:black;" cx="257" cy="-117" rx="27.1237" ry="27.1237"/>
<text text-anchor="middle" x="257" y="-112.9" style="font-family:Times New Roman;font-size:14.00;">11</text>
</g>
<!-- 1&#45;&gt;11 -->
<g id="edge4" class="edge"><title>1&#45;&gt;11</title>
<path style="fill:none;stroke:black;" d="M129,-76C136,-83 145,-90 154,-95 175,-104 199,-110 220,-114"/>
<polygon style="fill:black;stroke:black;" points="219.701,-117.488 230,-115 220.398,-110.522 219.701,-117.488"/>
<text text-anchor="middle" x="183" y="-113.9" style="font-family:Times New Roman;font-size:14.00;">idle_1</text>
</g>
<!-- 12 -->
<g id="node14" class="node"><title>12</title>
<ellipse style="fill:none;stroke:black;" cx="1101" cy="-27" rx="23.1964" ry="23.1964"/>
<ellipse style="fill:none;stroke:black;" cx="1101" cy="-27" rx="27.1237" ry="27.1237"/>
<text text-anchor="middle" x="1101" y="-22.9" style="font-family:Times New Roman;font-size:14.00;">12</text>
</g>
<!-- 1&#45;&gt;12 -->
<g id="edge6" class="edge"><title>1&#45;&gt;12</title>
<path style="fill:none;stroke:black;" d="M136,-56C164,-52 214,-45 257,-44 257,-44 257,-44 958,-44 995,-45 1036,-39 1064,-34"/>
<polygon style="fill:black;stroke:black;" points="1064.88,-37.3933 1074,-32 1063.51,-30.5292 1064.88,-37.3933"/>
<text text-anchor="middle" x="603" y="-48.9" style="font-family:Times New Roman;font-size:14.00;">idle_2</text>
</g>
<!-- 2 -->
<g id="node4" class="node"><title>2</title>
<ellipse style="fill:none;stroke:black;" cx="1101" cy="-166" rx="18" ry="18"/>
<ellipse style="fill:none;stroke:black;" cx="1101" cy="-166" rx="22" ry="22"/>
<text text-anchor="middle" x="1101" y="-161.9" style="font-family:Times New Roman;font-size:14.00;">2</text>
</g>
<!-- 3 -->
<g id="node5" class="node"><title>3</title>
<ellipse style="fill:none;stroke:black;" cx="1240" cy="-166" rx="18" ry="18"/>
<ellipse style="fill:none;stroke:black;" cx="1240" cy="-166" rx="22" ry="22"/>
<text text-anchor="middle" x="1240" y="-161.9" style="font-family:Times New Roman;font-size:14.00;">3</text>
</g>
<!-- 2&#45;&gt;3 -->
<g id="edge8" class="edge"><title>2&#45;&gt;3</title>
<path style="fill:none;stroke:black;" d="M1123,-166C1146,-166 1181,-166 1208,-166"/>
<polygon style="fill:black;stroke:black;" points="1208,-169.5 1218,-166 1208,-162.5 1208,-169.5"/>
<text text-anchor="middle" x="1173" y="-169.9" style="font-family:Times New Roman;font-size:14.00;">alpha_1</text>
</g>
<!-- 5 -->
<g id="node7" class="node"><title>5</title>
<ellipse style="fill:none;stroke:black;" cx="958" cy="-151" rx="18" ry="18"/>
<ellipse style="fill:none;stroke:black;" cx="958" cy="-151" rx="22" ry="22"/>
<text text-anchor="middle" x="958" y="-146.9" style="font-family:Times New Roman;font-size:14.00;">5</text>
</g>
<!-- 2&#45;&gt;5 -->
<g id="edge10" class="edge"><title>2&#45;&gt;5</title>
<path style="fill:none;stroke:black;" d="M1079,-160C1072,-158 1064,-157 1056,-156 1034,-153 1009,-151 990,-151"/>
<polygon style="fill:black;stroke:black;" points="990,-147.5 980,-151 990,-154.5 990,-147.5"/>
<text text-anchor="middle" x="1027" y="-159.9" style="font-family:Times New Roman;font-size:14.00;">no_op_1</text>
</g>
<!-- 4 -->
<g id="node6" class="node"><title>4</title>
<ellipse style="fill:none;stroke:black;" cx="1368" cy="-155" rx="18" ry="18"/>
<ellipse style="fill:none;stroke:black;" cx="1368" cy="-155" rx="22" ry="22"/>
<text text-anchor="middle" x="1368" y="-150.9" style="font-family:Times New Roman;font-size:14.00;">4</text>
</g>
<!-- 3&#45;&gt;4 -->
<g id="edge12" class="edge"><title>3&#45;&gt;4</title>
<path style="fill:none;stroke:black;" d="M1261,-160C1267,-158 1274,-157 1280,-156 1298,-154 1319,-153 1336,-154"/>
<polygon style="fill:black;stroke:black;" points="1336,-157.5 1346,-154 1336,-150.5 1336,-157.5"/>
<text text-anchor="middle" x="1304" y="-159.9" style="font-family:Times New Roman;font-size:14.00;">beta_1</text>
</g>
<!-- 7 -->
<g id="node9" class="node"><title>7</title>
<ellipse style="fill:none;stroke:black;" cx="1368" cy="-227" rx="18" ry="18"/>
<ellipse style="fill:none;stroke:black;" cx="1368" cy="-227" rx="22" ry="22"/>
<text text-anchor="middle" x="1368" y="-222.9" style="font-family:Times New Roman;font-size:14.00;">7</text>
</g>
<!-- 3&#45;&gt;7 -->
<g id="edge14" class="edge"><title>3&#45;&gt;7</title>
<path style="fill:none;stroke:black;" d="M1262,-171C1280,-176 1307,-184 1328,-196 1333,-199 1338,-202 1343,-205"/>
<polygon style="fill:black;stroke:black;" points="1341.17,-208.049 1351,-212 1345.78,-202.781 1341.17,-208.049"/>
<text text-anchor="middle" x="1304" y="-199.9" style="font-family:Times New Roman;font-size:14.00;">beta_2</text>
</g>
<!-- 9 -->
<g id="node11" class="node"><title>9</title>
<ellipse style="fill:none;stroke:black;" cx="1506" cy="-115" rx="18" ry="18"/>
<ellipse style="fill:none;stroke:black;" cx="1506" cy="-115" rx="22" ry="22"/>
<text text-anchor="middle" x="1506" y="-110.9" style="font-family:Times New Roman;font-size:14.00;">9</text>
</g>
<!-- 4&#45;&gt;9 -->
<g id="edge16" class="edge"><title>4&#45;&gt;9</title>
<path style="fill:none;stroke:black;" d="M1381,-137C1388,-129 1398,-120 1408,-116 1429,-108 1454,-108 1474,-110"/>
<polygon style="fill:black;stroke:black;" points="1473.7,-113.488 1484,-111 1474.4,-106.522 1473.7,-113.488"/>
<text text-anchor="middle" x="1437" y="-119.9" style="font-family:Times New Roman;font-size:14.00;">no_op_1</text>
</g>
<!-- 5&#45;&gt;2 -->
<g id="edge18" class="edge"><title>5&#45;&gt;2</title>
<path style="fill:none;stroke:black;" d="M977,-163C983,-167 991,-171 998,-173 1022,-179 1049,-177 1069,-173"/>
<polygon style="fill:black;stroke:black;" points="1069.88,-176.393 1079,-171 1068.51,-169.529 1069.88,-176.393"/>
<text text-anchor="middle" x="1027" y="-179.9" style="font-family:Times New Roman;font-size:14.00;">idle_1</text>
</g>
<!-- 5&#45;&gt;12 -->
<g id="edge20" class="edge"><title>5&#45;&gt;12</title>
<path style="fill:none;stroke:black;" d="M975,-137C999,-116 1043,-77 1072,-52"/>
<polygon style="fill:black;stroke:black;" points="1074.78,-54.2191 1080,-45 1070.17,-48.9511 1074.78,-54.2191"/>
<text text-anchor="middle" x="1027" y="-116.9" style="font-family:Times New Roman;font-size:14.00;">beta_2</text>
</g>
<!-- 6 -->
<g id="node8" class="node"><title>6</title>
<ellipse style="fill:none;stroke:black;" cx="820" cy="-144" rx="18" ry="18"/>
<ellipse style="fill:none;stroke:black;" cx="820" cy="-144" rx="22" ry="22"/>
<text text-anchor="middle" x="820" y="-139.9" style="font-family:Times New Roman;font-size:14.00;">6</text>
</g>
<!-- 6&#45;&gt;5 -->
<g id="edge22" class="edge"><title>6&#45;&gt;5</title>
<path style="fill:none;stroke:black;" d="M842,-145C865,-146 900,-148 926,-150"/>
<polygon style="fill:black;stroke:black;" points="926,-153.5 936,-150 926,-146.5 926,-153.5"/>
<text text-anchor="middle" x="889" y="-150.9" style="font-family:Times New Roman;font-size:14.00;">alpha_2</text>
</g>
<!-- 10 -->
<g id="node12" class="node"><title>10</title>
<ellipse style="fill:none;stroke:black;" cx="677" cy="-164" rx="23.1964" ry="23.1964"/>
<ellipse style="fill:none;stroke:black;" cx="677" cy="-164" rx="27.1237" ry="27.1237"/>
<text text-anchor="middle" x="677" y="-159.9" style="font-family:Times New Roman;font-size:14.00;">10</text>
</g>
<!-- 6&#45;&gt;10 -->
<g id="edge24" class="edge"><title>6&#45;&gt;10</title>
<path style="fill:none;stroke:black;" d="M798,-140C778,-137 748,-134 722,-141 718,-142 714,-144 709,-145"/>
<polygon style="fill:black;stroke:black;" points="707.042,-142.084 700,-150 710.441,-148.203 707.042,-142.084"/>
<text text-anchor="middle" x="751" y="-144.9" style="font-family:Times New Roman;font-size:14.00;">no_op_2</text>
</g>
<!-- 8 -->
<g id="node10" class="node"><title>8</title>
<ellipse style="fill:none;stroke:black;" cx="396" cy="-210" rx="18" ry="18"/>
<ellipse style="fill:none;stroke:black;" cx="396" cy="-210" rx="22" ry="22"/>
<text text-anchor="middle" x="396" y="-205.9" style="font-family:Times New Roman;font-size:14.00;">8</text>
</g>
<!-- 7&#45;&gt;8 -->
<g id="edge26" class="edge"><title>7&#45;&gt;8</title>
<path style="fill:none;stroke:black;" d="M1348,-237C1324,-249 1280,-267 1240,-267 529,-267 529,-267 529,-267 487,-267 475,-260 436,-241 431,-238 426,-235 421,-231"/>
<polygon style="fill:black;stroke:black;" points="423.1,-228.2 413,-225 418.9,-233.8 423.1,-228.2"/>
<text text-anchor="middle" x="889" y="-270.9" style="font-family:Times New Roman;font-size:14.00;">no_op_2</text>
</g>
<!-- 8&#45;&gt;7 -->
<g id="edge30" class="edge"><title>8&#45;&gt;7</title>
<path style="fill:none;stroke:black;" d="M418,-214C444,-220 490,-227 529,-227 529,-227 529,-227 1240,-227 1273,-227 1310,-227 1336,-227"/>
<polygon style="fill:black;stroke:black;" points="1336,-230.5 1346,-227 1336,-223.5 1336,-230.5"/>
<text text-anchor="middle" x="889" y="-230.9" style="font-family:Times New Roman;font-size:14.00;">idle_2</text>
</g>
<!-- 13 -->
<g id="node15" class="node"><title>13</title>
<ellipse style="fill:none;stroke:black;" cx="529" cy="-172" rx="23.1964" ry="23.1964"/>
<ellipse style="fill:none;stroke:black;" cx="529" cy="-172" rx="27.1237" ry="27.1237"/>
<text text-anchor="middle" x="529" y="-167.9" style="font-family:Times New Roman;font-size:14.00;">13</text>
</g>
<!-- 8&#45;&gt;13 -->
<g id="edge28" class="edge"><title>8&#45;&gt;13</title>
<path style="fill:none;stroke:black;" d="M417,-202C423,-200 430,-198 436,-196 454,-190 475,-184 492,-180"/>
<polygon style="fill:black;stroke:black;" points="492.881,-183.393 502,-178 491.508,-176.529 492.881,-183.393"/>
<text text-anchor="middle" x="460" y="-199.9" style="font-family:Times New Roman;font-size:14.00;">beta_1</text>
</g>
<!-- 9&#45;&gt;4 -->
<g id="edge32" class="edge"><title>9&#45;&gt;4</title>
<path style="fill:none;stroke:black;" d="M1486,-125C1480,-127 1473,-130 1466,-133 1445,-140 1420,-146 1400,-149"/>
<polygon style="fill:black;stroke:black;" points="1399.12,-145.607 1390,-151 1400.49,-152.471 1399.12,-145.607"/>
<text text-anchor="middle" x="1437" y="-149.9" style="font-family:Times New Roman;font-size:14.00;">idle_1</text>
</g>
<!-- 9&#45;&gt;6 -->
<g id="edge34" class="edge"><title>9&#45;&gt;6</title>
<path style="fill:none;stroke:black;" d="M1486,-107C1459,-97 1411,-82 1368,-82 958,-82 958,-82 958,-82 916,-82 873,-106 846,-124"/>
<polygon style="fill:black;stroke:black;" points="843.9,-121.2 838,-130 848.1,-126.8 843.9,-121.2"/>
<text text-anchor="middle" x="1173" y="-85.9" style="font-family:Times New Roman;font-size:14.00;">beta_2</text>
</g>
<!-- 10&#45;&gt;6 -->
<g id="edge38" class="edge"><title>10&#45;&gt;6</title>
<path style="fill:none;stroke:black;" d="M704,-164C725,-164 755,-163 780,-158 783,-158 787,-157 790,-156"/>
<polygon style="fill:black;stroke:black;" points="791.283,-159.26 799,-152 788.44,-152.863 791.283,-159.26"/>
<text text-anchor="middle" x="751" y="-165.9" style="font-family:Times New Roman;font-size:14.00;">idle_2</text>
</g>
<!-- 10&#45;&gt;13 -->
<g id="edge36" class="edge"><title>10&#45;&gt;13</title>
<path style="fill:none;stroke:black;" d="M653,-151C646,-149 639,-146 632,-145 607,-139 599,-138 574,-145 569,-146 564,-148 560,-151"/>
<polygon style="fill:black;stroke:black;" points="558.042,-148.084 551,-156 561.441,-154.203 558.042,-148.084"/>
<text text-anchor="middle" x="603" y="-148.9" style="font-family:Times New Roman;font-size:14.00;">idle_1</text>
</g>
<!-- 11&#45;&gt;1 -->
<g id="edge42" class="edge"><title>11&#45;&gt;1</title>
<path style="fill:none;stroke:black;" d="M241,-95C233,-86 223,-76 212,-71 192,-61 166,-59 146,-58"/>
<polygon style="fill:black;stroke:black;" points="146,-54.5001 136,-58 146,-61.5001 146,-54.5001"/>
<text text-anchor="middle" x="183" y="-74.9" style="font-family:Times New Roman;font-size:14.00;">no_op_1</text>
</g>
<!-- 11&#45;&gt;8 -->
<g id="edge40" class="edge"><title>11&#45;&gt;8</title>
<path style="fill:none;stroke:black;" d="M280,-132C304,-149 343,-175 368,-192"/>
<polygon style="fill:black;stroke:black;" points="366.738,-195.365 377,-198 370.621,-189.541 366.738,-195.365"/>
<text text-anchor="middle" x="329" y="-184.9" style="font-family:Times New Roman;font-size:14.00;">alpha_1</text>
</g>
<!-- 12&#45;&gt;1 -->
<g id="edge44" class="edge"><title>12&#45;&gt;1</title>
<path style="fill:none;stroke:black;" d="M1075,-20C1046,-13 1000,-4 958,-4 257,-4 257,-4 257,-4 215,-4 169,-26 142,-43"/>
<polygon style="fill:black;stroke:black;" points="140.042,-40.084 133,-48 143.441,-46.2031 140.042,-40.084"/>
<text text-anchor="middle" x="603" y="-8.9" style="font-family:Times New Roman;font-size:14.00;">no_op_2</text>
</g>
<!-- 13&#45;&gt;10 -->
<g id="edge46" class="edge"><title>13&#45;&gt;10</title>
<path style="fill:none;stroke:black;" d="M556,-171C580,-169 614,-167 640,-166"/>
<polygon style="fill:black;stroke:black;" points="640.398,-169.478 650,-165 639.701,-162.512 640.398,-169.478"/>
<text text-anchor="middle" x="603" y="-171.9" style="font-family:Times New Roman;font-size:14.00;">no_op_1</text>
</g>
</g>
</svg>
