<?xml version="1.0" encoding="UTF-8" standalone="no"?>
<!DOCTYPE svg PUBLIC "-//W3C//DTD SVG 1.0//EN"
 "http://www.w3.org/TR/2001/REC-SVG-20010904/DTD/svg10.dtd">
<!-- Generated by dot version 2.2 (Tue Sep 13 00:37:56 UTC 2005)
     For user: (msperk) Perk_Sebastian, Betreuer=Moor, mitarb, 01/05    Title: Environment AB    Pages: 1 -->
<svg width="325pt" height="732pt"
 viewBox = "-1 -1 324 731"
 xmlns="http://www.w3.org/2000/svg">
<g id="graph0" class="graph" transform = "scale(0.377556)"
 style="font-family:Times-Roman;font-size:14.00;">
<title>Environment AB</title>
<g id="node1" class="node"><title>dot_dummyinit_1</title>
</g>
<g id="node3" class="node"><title>1</title>
<ellipse cx="119" cy="484" rx="18" ry="18" style="fill:none;stroke:black;"/>
<ellipse cx="119" cy="484" rx="22" ry="22" style="fill:none;stroke:black;"/>
<text text-anchor="middle" x="119" y="489">1</text>
</g>
<g id="edge2" class="edge"><title>dot_dummyinit_1&#45;&gt;1</title>
<path style="fill:none;stroke:black;" d="M59,484C68,484 77,484 87,484"/>
<polygon style="fill:black;stroke:black;" points="87,480 97,484 87,487 87,480"/>
</g>
<g id="node7" class="node"><title>5</title>
<ellipse cx="250" cy="402" rx="18" ry="18" style="fill:none;stroke:black;"/>
<ellipse cx="250" cy="402" rx="22" ry="22" style="fill:none;stroke:black;"/>
<text text-anchor="middle" x="250" y="407">5</text>
</g>
<g id="edge10" class="edge"><title>1&#45;&gt;5</title>
<path style="fill:none;stroke:black;" d="M132,466C139,456 149,446 159,438 178,425 200,416 218,410"/>
<polygon style="fill:black;stroke:black;" points="217,407 228,407 219,413 217,407"/>
<text text-anchor="middle" x="183" y="414">A_occfl</text>
</g>
<g id="node8" class="node"><title>6</title>
<ellipse cx="250" cy="1578" rx="18" ry="18" style="fill:none;stroke:black;"/>
<ellipse cx="250" cy="1578" rx="22" ry="22" style="fill:none;stroke:black;"/>
<text text-anchor="middle" x="250" y="1583">6</text>
</g>
<g id="edge26" class="edge"><title>1&#45;&gt;6</title>
<path style="fill:none;stroke:black;" d="M119,506C120,657 124,1516 159,1558 173,1574 198,1579 218,1580"/>
<polygon style="fill:black;stroke:black;" points="218,1576 228,1580 218,1583 218,1576"/>
<text text-anchor="middle" x="183" y="1548">B_freetr</text>
</g>
<g id="node9" class="node"><title>7</title>
<ellipse cx="250" cy="314" rx="18" ry="18" style="fill:none;stroke:black;"/>
<ellipse cx="250" cy="314" rx="22" ry="22" style="fill:none;stroke:black;"/>
<text text-anchor="middle" x="250" y="319">7</text>
</g>
<g id="edge4" class="edge"><title>1&#45;&gt;7</title>
<path style="fill:none;stroke:black;" d="M122,462C133,432 139,424 159,397 178,373 205,350 224,333"/>
<polygon style="fill:black;stroke:black;" points="222,330 232,327 226,336 222,330"/>
<text text-anchor="middle" x="183" y="348">A_reqfl</text>
</g>
<g id="node15" class="node"><title>13</title>
<ellipse cx="535" cy="172" rx="21" ry="21" style="fill:none;stroke:black;"/>
<ellipse cx="535" cy="172" rx="25" ry="25" style="fill:none;stroke:black;"/>
<text text-anchor="middle" x="535" y="177">13</text>
</g>
<g id="edge6" class="edge"><title>1&#45;&gt;13</title>
<path style="fill:none;stroke:black;" d="M120,462C122,381 132,107 159,80 213,30 430,40 491,80 511,93 522,117 528,137"/>
<polygon style="fill:black;stroke:black;" points="531,137 530,147 525,138 531,137"/>
<text text-anchor="middle" x="322" y="44">A_reqfr</text>
</g>
<g id="edge8" class="edge"><title>1&#45;&gt;13</title>
<path style="fill:none;stroke:black;" d="M120,462C123,388 135,155 159,132 267,32 355,76 491,132 499,135 505,140 511,145"/>
<polygon style="fill:black;stroke:black;" points="514,143 519,152 509,148 514,143"/>
<text text-anchor="middle" x="322" y="70">A_occfr</text>
</g>
<g id="edge12" class="edge"><title>1&#45;&gt;13</title>
<path style="fill:none;stroke:black;" d="M120,462C125,395 139,203 159,184 255,97 429,138 501,161"/>
<polygon style="fill:black;stroke:black;" points="502,158 511,164 500,164 502,158"/>
<text text-anchor="middle" x="322" y="129">A_freetl</text>
</g>
<g id="edge14" class="edge"><title>1&#45;&gt;13</title>
<path style="fill:none;stroke:black;" d="M121,462C121,461 121,461 121,460 125,435 142,254 159,236 207,189 416,176 500,173"/>
<polygon style="fill:black;stroke:black;" points="500,169 510,173 500,176 500,169"/>
<text text-anchor="middle" x="322" y="182">A_freetr</text>
</g>
<g id="node17" class="node"><title>15</title>
<ellipse cx="535" cy="1754" rx="21" ry="21" style="fill:none;stroke:black;"/>
<ellipse cx="535" cy="1754" rx="25" ry="25" style="fill:none;stroke:black;"/>
<text text-anchor="middle" x="535" y="1759">15</text>
</g>
<g id="edge22" class="edge"><title>1&#45;&gt;15</title>
<path style="fill:none;stroke:black;" d="M119,506C119,553 120,665 121,758 122,766 126,1049 126,1058 127,1117 127,1132 128,1192 130,1250 131,1265 133,1324 135,1363 136,1373 138,1413 141,1450 136,1552 159,1582 200,1632 233,1616 293,1641 380,1676 411,1665 491,1714 498,1718 504,1723 510,1728"/>
<polygon style="fill:black;stroke:black;" points="513,1726 518,1735 508,1731 513,1726"/>
<text text-anchor="middle" x="322" y="1635">B_occfl</text>
</g>
<g id="edge24" class="edge"><title>1&#45;&gt;15</title>
<path style="fill:none;stroke:black;" d="M119,506C119,552 120,661 121,751 122,812 126,965 126,1027 128,1097 127,1115 128,1186 129,1219 132,1301 133,1335 135,1374 136,1384 138,1424 141,1467 133,1584 159,1619 243,1729 423,1749 500,1754"/>
<polygon style="fill:black;stroke:black;" points="500,1750 510,1754 500,1757 500,1750"/>
<text text-anchor="middle" x="322" y="1707">B_freetl</text>
</g>
<g id="edge18" class="edge"><title>1&#45;&gt;15</title>
<path style="fill:none;stroke:black;" d="M119,506C119,559 120,697 121,811 122,862 125,1703 159,1742 247,1838 427,1792 501,1766"/>
<polygon style="fill:black;stroke:black;" points="500,1763 511,1763 502,1769 500,1763"/>
<text text-anchor="middle" x="322" y="1794">B_reqfr</text>
</g>
<g id="edge20" class="edge"><title>1&#45;&gt;15</title>
<path style="fill:none;stroke:black;" d="M119,506C119,563 120,718 121,847 124,1182 117,1267 138,1602 144,1681 109,1718 159,1779 216,1845 265,1829 351,1820 415,1812 432,1810 491,1788 500,1784 507,1783 513,1781"/>
<polygon style="fill:black;stroke:black;" points="512,1778 522,1776 515,1784 512,1778"/>
<text text-anchor="middle" x="322" y="1817">B_occfr</text>
</g>
<g id="node23" class="node"><title>21</title>
<ellipse cx="250" cy="657" rx="21" ry="21" style="fill:none;stroke:black;"/>
<ellipse cx="250" cy="657" rx="25" ry="25" style="fill:none;stroke:black;"/>
<text text-anchor="middle" x="250" y="662">21</text>
</g>
<g id="edge16" class="edge"><title>1&#45;&gt;21</title>
<path style="fill:none;stroke:black;" d="M132,502C155,532 201,593 229,629"/>
<polygon style="fill:black;stroke:black;" points="232,627 235,637 226,631 232,627"/>
<text text-anchor="middle" x="183" y="533">B_reqfl</text>
</g>
<g id="node4" class="node"><title>2</title>
<ellipse cx="676" cy="1152" rx="18" ry="18" style="fill:none;stroke:black;"/>
<ellipse cx="676" cy="1152" rx="22" ry="22" style="fill:none;stroke:black;"/>
<text text-anchor="middle" x="676" y="1157">2</text>
</g>
<g id="node5" class="node"><title>3</title>
<ellipse cx="810" cy="1308" rx="18" ry="18" style="fill:none;stroke:black;"/>
<ellipse cx="810" cy="1308" rx="22" ry="22" style="fill:none;stroke:black;"/>
<text text-anchor="middle" x="810" y="1313">3</text>
</g>
<g id="edge28" class="edge"><title>2&#45;&gt;3</title>
<path style="fill:none;stroke:black;" d="M678,1174C681,1220 693,1324 719,1346 736,1359 748,1353 767,1346 775,1342 782,1337 788,1332"/>
<polygon style="fill:black;stroke:black;" points="786,1329 796,1325 791,1334 786,1329"/>
<text text-anchor="middle" x="743" y="1340">A_reqfl</text>
</g>
<g id="edge30" class="edge"><title>2&#45;&gt;3</title>
<path style="fill:none;stroke:black;" d="M677,1174C679,1225 687,1349 719,1373 737,1385 748,1381 767,1373 788,1364 794,1357 803,1339"/>
<polygon style="fill:black;stroke:black;" points="800,1337 808,1330 806,1340 800,1337"/>
<text text-anchor="middle" x="743" y="1367">A_reqfr</text>
</g>
<g id="edge32" class="edge"><title>2&#45;&gt;3</title>
<path style="fill:none;stroke:black;" d="M677,1174C677,1186 678,1202 678,1216 681,1257 685,1375 719,1400 737,1412 749,1410 767,1400 793,1385 797,1372 806,1340"/>
<polygon style="fill:black;stroke:black;" points="803,1339 809,1330 809,1341 803,1339"/>
<text text-anchor="middle" x="743" y="1394">A_occfr</text>
</g>
<g id="edge34" class="edge"><title>2&#45;&gt;3</title>
<path style="fill:none;stroke:black;" d="M698,1154C719,1157 749,1165 767,1184 792,1209 803,1248 807,1276"/>
<polygon style="fill:black;stroke:black;" points="810,1276 808,1286 804,1276 810,1276"/>
<text text-anchor="middle" x="743" y="1154">A_occfl</text>
</g>
<g id="edge36" class="edge"><title>2&#45;&gt;3</title>
<path style="fill:none;stroke:black;" d="M689,1170C697,1181 708,1194 719,1204 739,1221 750,1217 767,1236 779,1248 789,1264 797,1279"/>
<polygon style="fill:black;stroke:black;" points="800,1277 801,1288 794,1280 800,1277"/>
<text text-anchor="middle" x="743" y="1198">A_freetl</text>
</g>
<g id="edge38" class="edge"><title>2&#45;&gt;3</title>
<path style="fill:none;stroke:black;" d="M680,1174C690,1211 691,1226 719,1256 729,1266 758,1282 781,1293"/>
<polygon style="fill:black;stroke:black;" points="783,1290 790,1298 780,1296 783,1290"/>
<text text-anchor="middle" x="743" y="1248">A_freetr</text>
</g>
<g id="node11" class="node"><title>9</title>
<ellipse cx="810" cy="1562" rx="18" ry="18" style="fill:none;stroke:black;"/>
<ellipse cx="810" cy="1562" rx="22" ry="22" style="fill:none;stroke:black;"/>
<text text-anchor="middle" x="810" y="1567">9</text>
</g>
<g id="edge46" class="edge"><title>2&#45;&gt;9</title>
<path style="fill:none;stroke:black;" d="M677,1174C677,1189 677,1209 678,1226 683,1317 678,1346 719,1428 740,1468 770,1510 790,1537"/>
<polygon style="fill:black;stroke:black;" points="793,1535 796,1545 787,1539 793,1535"/>
<text text-anchor="middle" x="743" y="1419">B_occfl</text>
</g>
<g id="node12" class="node"><title>10</title>
<ellipse cx="810" cy="970" rx="21" ry="21" style="fill:none;stroke:black;"/>
<ellipse cx="810" cy="970" rx="25" ry="25" style="fill:none;stroke:black;"/>
<text text-anchor="middle" x="810" y="975">10</text>
</g>
<g id="edge40" class="edge"><title>2&#45;&gt;10</title>
<path style="fill:none;stroke:black;" d="M678,1130C683,1066 700,888 719,872 736,858 750,860 767,872 789,886 799,913 805,935"/>
<polygon style="fill:black;stroke:black;" points="808,935 807,945 802,936 808,935"/>
<text text-anchor="middle" x="743" y="858">B_reqfl</text>
</g>
<g id="edge42" class="edge"><title>2&#45;&gt;10</title>
<path style="fill:none;stroke:black;" d="M679,1130C688,1074 712,930 719,924 736,910 748,915 767,924 776,928 784,934 790,941"/>
<polygon style="fill:black;stroke:black;" points="793,939 796,949 787,943 793,939"/>
<text text-anchor="middle" x="743" y="911">B_reqfr</text>
</g>
<g id="edge44" class="edge"><title>2&#45;&gt;10</title>
<path style="fill:none;stroke:black;" d="M681,1130C691,1084 714,981 719,976 735,963 757,961 775,963"/>
<polygon style="fill:black;stroke:black;" points="775,960 785,964 775,966 775,960"/>
<text text-anchor="middle" x="743" y="958">B_occfr</text>
</g>
<g id="edge48" class="edge"><title>2&#45;&gt;10</title>
<path style="fill:none;stroke:black;" d="M683,1131C693,1097 712,1036 719,1028 735,1008 746,1012 767,999 771,996 776,993 780,990"/>
<polygon style="fill:black;stroke:black;" points="779,987 789,984 783,992 779,987"/>
<text text-anchor="middle" x="743" y="996">B_freetl</text>
</g>
<g id="edge50" class="edge"><title>2&#45;&gt;10</title>
<path style="fill:none;stroke:black;" d="M685,1132C692,1116 704,1095 719,1080 737,1062 749,1067 767,1050 786,1031 793,1023 801,1005"/>
<polygon style="fill:black;stroke:black;" points="798,1003 805,995 805,1006 798,1003"/>
<text text-anchor="middle" x="743" y="1047">B_freetr</text>
</g>
<g id="edge52" class="edge"><title>3&#45;&gt;2</title>
<path style="fill:none;stroke:black;" d="M788,1314C769,1318 739,1320 719,1305 719,1304 691,1225 680,1184"/>
<polygon style="fill:black;stroke:black;" points="677,1184 678,1174 683,1183 677,1184"/>
<text text-anchor="middle" x="743" y="1295">A_nack</text>
</g>
<g id="node6" class="node"><title>4</title>
<ellipse cx="535" cy="579" rx="18" ry="18" style="fill:none;stroke:black;"/>
<ellipse cx="535" cy="579" rx="22" ry="22" style="fill:none;stroke:black;"/>
<text text-anchor="middle" x="535" y="584">4</text>
</g>
<g id="edge54" class="edge"><title>4&#45;&gt;2</title>
<path style="fill:none;stroke:black;" d="M544,600C549,614 556,632 561,649 614,824 655,1040 670,1120"/>
<polygon style="fill:black;stroke:black;" points="673,1120 672,1130 667,1121 673,1120"/>
<text text-anchor="middle" x="606" y="713">A_pack</text>
</g>
<g id="node10" class="node"><title>8</title>
<ellipse cx="394" cy="326" rx="18" ry="18" style="fill:none;stroke:black;"/>
<ellipse cx="394" cy="326" rx="22" ry="22" style="fill:none;stroke:black;"/>
<text text-anchor="middle" x="394" y="331">8</text>
</g>
<g id="edge56" class="edge"><title>5&#45;&gt;8</title>
<path style="fill:none;stroke:black;" d="M272,405C294,407 327,407 351,392 365,384 375,369 382,356"/>
<polygon style="fill:black;stroke:black;" points="379,355 386,347 385,358 379,355"/>
<text text-anchor="middle" x="322" y="389">AB_occfl</text>
</g>
<g id="edge58" class="edge"><title>5&#45;&gt;8</title>
<path style="fill:none;stroke:black;" d="M268,389C276,383 285,377 293,372 316,359 344,347 364,338"/>
<polygon style="fill:black;stroke:black;" points="362,335 373,334 365,341 362,335"/>
<text text-anchor="middle" x="322" y="342">AB_accfl</text>
</g>
<g id="node14" class="node"><title>12</title>
<ellipse cx="394" cy="1608" rx="21" ry="21" style="fill:none;stroke:black;"/>
<ellipse cx="394" cy="1608" rx="25" ry="25" style="fill:none;stroke:black;"/>
<text text-anchor="middle" x="394" y="1613">12</text>
</g>
<g id="edge60" class="edge"><title>6&#45;&gt;12</title>
<path style="fill:none;stroke:black;" d="M272,1582C295,1587 332,1595 359,1601"/>
<polygon style="fill:black;stroke:black;" points="360,1598 369,1603 359,1604 360,1598"/>
<text text-anchor="middle" x="322" y="1583">AB_freetr</text>
</g>
<g id="edge62" class="edge"><title>6&#45;&gt;12</title>
<path style="fill:none;stroke:black;" d="M263,1596C271,1605 278,1611 293,1617 315,1625 340,1622 360,1618"/>
<polygon style="fill:black;stroke:black;" points="360,1615 370,1616 361,1621 360,1615"/>
<text text-anchor="middle" x="322" y="1611">AB_reltr</text>
</g>
<g id="edge64" class="edge"><title>7&#45;&gt;8</title>
<path style="fill:none;stroke:black;" d="M272,316C296,318 334,321 362,323"/>
<polygon style="fill:black;stroke:black;" points="362,320 372,324 362,326 362,320"/>
<text text-anchor="middle" x="322" y="316">AB_reqfl</text>
</g>
<g id="edge66" class="edge"><title>8&#45;&gt;13</title>
<path style="fill:none;stroke:black;" d="M415,318C436,308 470,290 491,266 506,249 517,225 525,206"/>
<polygon style="fill:black;stroke:black;" points="522,205 528,196 528,207 522,205"/>
<text text-anchor="middle" x="464" y="263">AB_nack</text>
</g>
<g id="node16" class="node"><title>14</title>
<ellipse cx="810" cy="68" rx="21" ry="21" style="fill:none;stroke:black;"/>
<ellipse cx="810" cy="68" rx="25" ry="25" style="fill:none;stroke:black;"/>
<text text-anchor="middle" x="810" y="73">14</text>
</g>
<g id="edge68" class="edge"><title>8&#45;&gt;14</title>
<path style="fill:none;stroke:black;" d="M416,327C437,327 468,325 491,312 626,240 580,117 719,54 737,46 759,49 777,55"/>
<polygon style="fill:black;stroke:black;" points="778,52 787,58 776,58 778,52"/>
<text text-anchor="middle" x="606" y="125">AB_pack</text>
</g>
<g id="edge70" class="edge"><title>9&#45;&gt;1</title>
<path style="fill:none;stroke:black;" d="M790,1553C770,1543 741,1527 719,1507 377,1181 361,1030 159,603 141,564 134,552 125,516"/>
<polygon style="fill:black;stroke:black;" points="122,517 122,506 128,515 122,517"/>
<text text-anchor="middle" x="464" y="1172">B_pack</text>
</g>
<g id="edge72" class="edge"><title>10&#45;&gt;2</title>
<path style="fill:none;stroke:black;" d="M808,995C808,999 808,1003 807,1005 796,1050 799,1067 767,1102 751,1120 726,1133 706,1141"/>
<polygon style="fill:black;stroke:black;" points="708,1144 697,1145 705,1138 708,1144"/>
<text text-anchor="middle" x="743" y="1099">B_nack</text>
</g>
<g id="node13" class="node"><title>11</title>
<ellipse cx="394" cy="762" rx="20" ry="20" style="fill:none;stroke:black;"/>
<ellipse cx="394" cy="762" rx="24" ry="24" style="fill:none;stroke:black;"/>
<text text-anchor="middle" x="394" y="767">11</text>
</g>
<g id="edge84" class="edge"><title>11&#45;&gt;4</title>
<path style="fill:none;stroke:black;" d="M395,738C395,732 396,725 396,719 403,646 377,601 437,557 458,542 486,552 507,562"/>
<polygon style="fill:black;stroke:black;" points="509,559 516,567 506,565 509,559"/>
<text text-anchor="middle" x="464" y="547">A_freetr</text>
</g>
<g id="node20" class="node"><title>18</title>
<ellipse cx="535" cy="450" rx="21" ry="21" style="fill:none;stroke:black;"/>
<ellipse cx="535" cy="450" rx="25" ry="25" style="fill:none;stroke:black;"/>
<text text-anchor="middle" x="535" y="455">18</text>
</g>
<g id="edge92" class="edge"><title>11&#45;&gt;18</title>
<path style="fill:none;stroke:black;" d="M395,738C395,724 396,708 396,693 401,619 394,591 437,530 455,505 484,483 506,469"/>
<polygon style="fill:black;stroke:black;" points="504,466 514,463 508,472 504,466"/>
<text text-anchor="middle" x="464" y="478">B_occfl</text>
</g>
<g id="node22" class="node"><title>20</title>
<ellipse cx="535" cy="684" rx="21" ry="21" style="fill:none;stroke:black;"/>
<ellipse cx="535" cy="684" rx="25" ry="25" style="fill:none;stroke:black;"/>
<text text-anchor="middle" x="535" y="689">20</text>
</g>
<g id="edge74" class="edge"><title>11&#45;&gt;20</title>
<path style="fill:none;stroke:black;" d="M396,738C401,694 414,605 437,586 456,572 471,573 491,586 503,593 516,624 524,649"/>
<polygon style="fill:black;stroke:black;" points="527,648 527,659 521,650 527,648"/>
<text text-anchor="middle" x="464" y="574">A_reqfl</text>
</g>
<g id="edge76" class="edge"><title>11&#45;&gt;20</title>
<path style="fill:none;stroke:black;" d="M399,738C406,706 421,650 437,638 457,625 469,629 491,638 500,642 507,648 514,654"/>
<polygon style="fill:black;stroke:black;" points="517,652 521,662 512,657 517,652"/>
<text text-anchor="middle" x="464" y="628">A_reqfr</text>
</g>
<g id="edge78" class="edge"><title>11&#45;&gt;20</title>
<path style="fill:none;stroke:black;" d="M401,739C408,722 420,701 437,690 456,679 479,677 499,679"/>
<polygon style="fill:black;stroke:black;" points="499,676 509,680 499,682 499,676"/>
<text text-anchor="middle" x="464" y="676">A_occfr</text>
</g>
<g id="edge80" class="edge"><title>11&#45;&gt;20</title>
<path style="fill:none;stroke:black;" d="M416,752C436,742 466,727 491,713 496,711 501,708 505,705"/>
<polygon style="fill:black;stroke:black;" points="504,702 514,699 508,707 504,702"/>
<text text-anchor="middle" x="464" y="710">A_occfl</text>
</g>
<g id="edge82" class="edge"><title>11&#45;&gt;20</title>
<path style="fill:none;stroke:black;" d="M418,767C439,771 469,772 491,761 513,749 519,738 527,720"/>
<polygon style="fill:black;stroke:black;" points="524,719 530,710 530,721 524,719"/>
<text text-anchor="middle" x="464" y="758">A_freetl</text>
</g>
<g id="node24" class="node"><title>22</title>
<ellipse cx="535" cy="996" rx="21" ry="21" style="fill:none;stroke:black;"/>
<ellipse cx="535" cy="996" rx="25" ry="25" style="fill:none;stroke:black;"/>
<text text-anchor="middle" x="535" y="1001">22</text>
</g>
<g id="edge86" class="edge"><title>11&#45;&gt;22</title>
<path style="fill:none;stroke:black;" d="M396,786C409,862 386,897 437,956 453,974 479,984 499,990"/>
<polygon style="fill:black;stroke:black;" points="500,987 509,992 499,993 500,987"/>
<text text-anchor="middle" x="464" y="947">B_reqfl</text>
</g>
<g id="edge88" class="edge"><title>11&#45;&gt;22</title>
<path style="fill:none;stroke:black;" d="M395,786C396,842 404,978 437,1006 455,1020 481,1017 501,1010"/>
<polygon style="fill:black;stroke:black;" points="500,1007 511,1007 502,1013 500,1007"/>
<text text-anchor="middle" x="464" y="1000">B_reqfr</text>
</g>
<g id="edge90" class="edge"><title>11&#45;&gt;22</title>
<path style="fill:none;stroke:black;" d="M395,786C395,800 396,817 396,833 399,878 400,1008 437,1035 457,1049 468,1041 491,1035 502,1032 509,1030 516,1026"/>
<polygon style="fill:black;stroke:black;" points="514,1023 524,1020 518,1029 514,1023"/>
<text text-anchor="middle" x="464" y="1029">B_occfr</text>
</g>
<g id="edge94" class="edge"><title>11&#45;&gt;22</title>
<path style="fill:none;stroke:black;" d="M395,786C395,802 395,824 396,843 398,892 397,1033 437,1062 457,1075 469,1070 491,1062 511,1054 519,1049 528,1031"/>
<polygon style="fill:black;stroke:black;" points="525,1029 533,1022 531,1032 525,1029"/>
<text text-anchor="middle" x="464" y="1056">B_freetl</text>
</g>
<g id="edge96" class="edge"><title>11&#45;&gt;22</title>
<path style="fill:none;stroke:black;" d="M400,786C426,840 458,842 491,898 504,918 514,942 522,961"/>
<polygon style="fill:black;stroke:black;" points="526,960 526,971 519,963 526,960"/>
<text text-anchor="middle" x="464" y="830">B_freetr</text>
</g>
<g id="edge100" class="edge"><title>12&#45;&gt;9</title>
<path style="fill:none;stroke:black;" d="M419,1608C480,1607 638,1602 767,1576 771,1575 775,1574 779,1573"/>
<polygon style="fill:black;stroke:black;" points="778,1570 789,1570 780,1576 778,1570"/>
<text text-anchor="middle" x="606" y="1591">AB_pack</text>
</g>
<g id="edge98" class="edge"><title>12&#45;&gt;15</title>
<path style="fill:none;stroke:black;" d="M416,1619C438,1631 469,1651 491,1676 503,1689 514,1707 521,1722"/>
<polygon style="fill:black;stroke:black;" points="524,1720 525,1731 518,1723 524,1720"/>
<text text-anchor="middle" x="464" y="1627">AB_nack</text>
</g>
<g id="edge102" class="edge"><title>13&#45;&gt;1</title>
<path style="fill:none;stroke:black;" d="M511,180C443,203 252,269 225,283 193,300 180,302 159,331 131,373 142,392 128,440 126,445 125,449 125,452"/>
<polygon style="fill:black;stroke:black;" points="128,453 122,462 122,451 128,453"/>
<text text-anchor="middle" x="322" y="235">A_nack</text>
</g>
<g id="edge104" class="edge"><title>14&#45;&gt;1</title>
<path style="fill:none;stroke:black;" d="M785,73C766,78 739,86 719,102 664,147 678,182 633,236 540,351 490,360 351,412 281,439 195,463 151,475"/>
<polygon style="fill:black;stroke:black;" points="152,478 141,478 150,472 152,478"/>
<text text-anchor="middle" x="464" y="356">A_pack</text>
</g>
<g id="edge106" class="edge"><title>15&#45;&gt;1</title>
<path style="fill:none;stroke:black;" d="M533,1779C532,1780 532,1781 532,1781 521,1799 511,1799 491,1808 357,1868 261,1927 159,1820 98,1754 144,1709 138,1620 120,1301 124,1221 121,903 120,758 119,587 119,516"/>
<polygon style="fill:black;stroke:black;" points="116,516 119,506 123,516 116,516"/>
<text text-anchor="middle" x="322" y="1863">B_nack</text>
</g>
<g id="node18" class="node"><title>16</title>
<ellipse cx="676" cy="450" rx="21" ry="21" style="fill:none;stroke:black;"/>
<ellipse cx="676" cy="450" rx="25" ry="25" style="fill:none;stroke:black;"/>
<text text-anchor="middle" x="676" y="455">16</text>
</g>
<g id="edge118" class="edge"><title>16&#45;&gt;14</title>
<path style="fill:none;stroke:black;" d="M676,425C677,401 677,368 678,354 680,334 681,329 684,308 686,297 687,295 689,283 694,263 710,211 719,192 739,156 767,119 788,95"/>
<polygon style="fill:black;stroke:black;" points="785,93 794,87 791,97 785,93"/>
<text text-anchor="middle" x="743" y="119">A_freetr</text>
</g>
<g id="node19" class="node"><title>17</title>
<ellipse cx="810" cy="658" rx="20" ry="20" style="fill:none;stroke:black;"/>
<ellipse cx="810" cy="658" rx="24" ry="24" style="fill:none;stroke:black;"/>
<text text-anchor="middle" x="810" y="663">17</text>
</g>
<g id="edge108" class="edge"><title>16&#45;&gt;17</title>
<path style="fill:none;stroke:black;" d="M680,475C686,516 701,597 719,618 733,635 757,646 776,651"/>
<polygon style="fill:black;stroke:black;" points="777,648 786,654 775,654 777,648"/>
<text text-anchor="middle" x="743" y="612">A_reqfl</text>
</g>
<g id="edge110" class="edge"><title>16&#45;&gt;17</title>
<path style="fill:none;stroke:black;" d="M677,475C680,527 690,646 719,669 735,683 759,679 779,672"/>
<polygon style="fill:black;stroke:black;" points="777,669 788,669 780,675 777,669"/>
<text text-anchor="middle" x="743" y="666">A_reqfr</text>
</g>
<g id="edge112" class="edge"><title>16&#45;&gt;17</title>
<path style="fill:none;stroke:black;" d="M677,475C677,487 678,500 678,512 681,555 685,675 719,700 737,712 747,707 767,700 779,696 787,694 794,689"/>
<polygon style="fill:black;stroke:black;" points="792,686 801,681 797,691 792,686"/>
<text text-anchor="middle" x="743" y="697">A_occfr</text>
</g>
<g id="edge114" class="edge"><title>16&#45;&gt;17</title>
<path style="fill:none;stroke:black;" d="M677,475C677,490 677,508 678,525 681,571 682,702 719,728 737,740 748,736 767,728 787,719 795,713 805,691"/>
<polygon style="fill:black;stroke:black;" points="802,690 809,682 808,693 802,690"/>
<text text-anchor="middle" x="743" y="722">A_occfl</text>
</g>
<g id="edge116" class="edge"><title>16&#45;&gt;17</title>
<path style="fill:none;stroke:black;" d="M685,473C710,515 738,515 767,560 781,581 791,605 799,625"/>
<polygon style="fill:black;stroke:black;" points="802,624 802,635 796,626 802,624"/>
<text text-anchor="middle" x="743" y="509">A_freetl</text>
</g>
<g id="node21" class="node"><title>19</title>
<ellipse cx="810" cy="320" rx="21" ry="21" style="fill:none;stroke:black;"/>
<ellipse cx="810" cy="320" rx="25" ry="25" style="fill:none;stroke:black;"/>
<text text-anchor="middle" x="810" y="325">19</text>
</g>
<g id="edge120" class="edge"><title>16&#45;&gt;19</title>
<path style="fill:none;stroke:black;" d="M678,425C681,376 692,270 719,248 736,235 749,238 767,248 782,256 792,272 799,287"/>
<polygon style="fill:black;stroke:black;" points="802,285 803,296 796,288 802,285"/>
<text text-anchor="middle" x="743" y="237">B_reqfl</text>
</g>
<g id="edge122" class="edge"><title>16&#45;&gt;19</title>
<path style="fill:none;stroke:black;" d="M680,425C686,386 700,315 719,300 737,287 761,293 780,302"/>
<polygon style="fill:black;stroke:black;" points="782,299 789,307 779,305 782,299"/>
<text text-anchor="middle" x="743" y="291">B_reqfr</text>
</g>
<g id="edge124" class="edge"><title>16&#45;&gt;19</title>
<path style="fill:none;stroke:black;" d="M681,425C687,403 699,372 719,352 734,338 756,330 775,325"/>
<polygon style="fill:black;stroke:black;" points="775,322 785,323 776,328 775,322"/>
<text text-anchor="middle" x="743" y="327">B_occfr</text>
</g>
<g id="edge126" class="edge"><title>16&#45;&gt;19</title>
<path style="fill:none;stroke:black;" d="M692,431C700,422 710,412 719,404 739,389 749,392 767,375 776,367 784,358 791,349"/>
<polygon style="fill:black;stroke:black;" points="788,347 797,341 794,351 788,347"/>
<text text-anchor="middle" x="743" y="372">B_occfl</text>
</g>
<g id="edge128" class="edge"><title>16&#45;&gt;19</title>
<path style="fill:none;stroke:black;" d="M701,449C721,447 748,442 767,427 795,405 796,390 805,355"/>
<polygon style="fill:black;stroke:black;" points="802,354 808,345 808,356 802,354"/>
<text text-anchor="middle" x="743" y="424">B_freetl</text>
</g>
<g id="edge130" class="edge"><title>16&#45;&gt;19</title>
<path style="fill:none;stroke:black;" d="M698,463C717,473 747,484 767,469 810,440 797,410 807,359 807,358 808,357 808,355"/>
<polygon style="fill:black;stroke:black;" points="805,355 809,345 811,355 805,355"/>
<text text-anchor="middle" x="743" y="466">B_freetr</text>
</g>
<g id="edge132" class="edge"><title>17&#45;&gt;16</title>
<path style="fill:none;stroke:black;" d="M799,636C791,621 786,612 767,598 749,585 736,597 719,580 712,573 693,516 684,485"/>
<polygon style="fill:black;stroke:black;" points="681,486 681,475 687,484 681,486"/>
<text text-anchor="middle" x="743" y="575">A_nack</text>
</g>
<g id="edge134" class="edge"><title>18&#45;&gt;16</title>
<path style="fill:none;stroke:black;" d="M560,450C583,450 615,450 641,450"/>
<polygon style="fill:black;stroke:black;" points="641,446 651,450 641,453 641,446"/>
<text text-anchor="middle" x="606" y="447">B_pack</text>
</g>
<g id="edge136" class="edge"><title>19&#45;&gt;16</title>
<path style="fill:none;stroke:black;" d="M809,295C808,292 808,289 807,287 797,255 798,238 767,220 749,210 737,208 719,220 690,242 682,344 678,380 677,387 677,401 677,415"/>
<polygon style="fill:black;stroke:black;" points="681,415 677,425 674,415 681,415"/>
<text text-anchor="middle" x="743" y="209">B_nack</text>
</g>
<g id="edge138" class="edge"><title>20&#45;&gt;11</title>
<path style="fill:none;stroke:black;" d="M534,710C533,714 533,718 532,720 522,753 523,771 491,789 471,800 461,794 437,789 430,787 425,785 420,784"/>
<polygon style="fill:black;stroke:black;" points="419,787 411,780 422,781 419,787"/>
<text text-anchor="middle" x="464" y="783">A_nack</text>
</g>
<g id="edge140" class="edge"><title>21&#45;&gt;11</title>
<path style="fill:none;stroke:black;" d="M270,672C295,690 338,721 366,742"/>
<polygon style="fill:black;stroke:black;" points="368,739 374,748 364,745 368,739"/>
<text text-anchor="middle" x="322" y="686">B_pack</text>
</g>
<g id="edge142" class="edge"><title>22&#45;&gt;11</title>
<path style="fill:none;stroke:black;" d="M523,973C515,960 504,945 491,936 471,921 455,936 437,918 433,913 411,832 401,796"/>
<polygon style="fill:black;stroke:black;" points="398,797 398,786 404,795 398,797"/>
<text text-anchor="middle" x="464" y="909">B_nack</text>
</g>
</g>
</svg>
