<?xml version="1.0" encoding="UTF-8" standalone="no"?>
<!DOCTYPE svg PUBLIC "-//W3C//DTD SVG 1.0//EN"
 "http://www.w3.org/TR/2001/REC-SVG-20010904/DTD/svg10.dtd" [
 <!ATTLIST svg xmlns:xlink CDATA #FIXED "http://www.w3.org/1999/xlink">
]>
<!-- Generated by Graphviz version 2.20.2 (Tue Mar &#160;2 21:46:26 UTC 2010)
     For user: (mtmoor) Prof. Thomas Moor -->
<!-- Title: Controller AB__EFGH__EF__GH Pages: 1 -->
<svg width="720pt" height="151pt"
 viewBox="0.00 0.00 720.00 150.56" xmlns="http://www.w3.org/2000/svg" xmlns:xlink="http://www.w3.org/1999/xlink">
<g id="graph0" class="graph" transform="scale(0.306644 0.306644) rotate(0) translate(4 487)">
<title>Controller AB__EFGH__EF__GH</title>
<polygon style="fill:white;stroke:white;" points="-4,4 -4,-487 2344,-487 2344,4 -4,4"/>
<!-- dot_dummyinit_1 -->
<g id="node1" class="node"><title>dot_dummyinit_1</title>
</g>
<!-- 1 -->
<g id="node3" class="node"><title>1</title>
<ellipse style="fill:none;stroke:black;" cx="114" cy="-92" rx="18" ry="18"/>
<ellipse style="fill:none;stroke:black;" cx="114" cy="-92" rx="22" ry="22"/>
<text text-anchor="middle" x="114" y="-87.9" style="font-family:Times New Roman;font-size:14.00;">1</text>
</g>
<!-- dot_dummyinit_1&#45;&gt;1 -->
<g id="edge2" class="edge"><title>dot_dummyinit_1&#45;&gt;1</title>
<path style="fill:none;stroke:black;" d="M54,-92C63,-92 72,-92 82,-92"/>
<polygon style="fill:black;stroke:black;" points="82,-95.5001 92,-92 82,-88.5001 82,-95.5001"/>
</g>
<!-- 7 -->
<g id="node9" class="node"><title>7</title>
<ellipse style="fill:none;stroke:black;" cx="236" cy="-63" rx="18" ry="18"/>
<ellipse style="fill:none;stroke:black;" cx="236" cy="-63" rx="22" ry="22"/>
<text text-anchor="middle" x="236" y="-58.9" style="font-family:Times New Roman;font-size:14.00;">7</text>
</g>
<!-- 1&#45;&gt;7 -->
<g id="edge4" class="edge"><title>1&#45;&gt;7</title>
<path style="fill:none;stroke:black;" d="M136,-87C142,-85 148,-83 154,-82 171,-78 189,-74 204,-70"/>
<polygon style="fill:black;stroke:black;" points="204.881,-73.3933 214,-68 203.508,-66.5292 204.881,-73.3933"/>
<text text-anchor="middle" x="175" y="-85.9" style="font-family:Times New Roman;font-size:14.00;">idle_B</text>
</g>
<!-- 19 -->
<g id="node21" class="node"><title>19</title>
<ellipse style="fill:none;stroke:black;" cx="1343" cy="-156" rx="23.1964" ry="23.1964"/>
<ellipse style="fill:none;stroke:black;" cx="1343" cy="-156" rx="27.1237" ry="27.1237"/>
<text text-anchor="middle" x="1343" y="-151.9" style="font-family:Times New Roman;font-size:14.00;">19</text>
</g>
<!-- 1&#45;&gt;19 -->
<g id="edge6" class="edge"><title>1&#45;&gt;19</title>
<path style="fill:none;stroke:black;" d="M135,-98C160,-104 200,-113 236,-113 236,-113 236,-113 731,-113 822,-113 845,-112 935,-112 935,-112 935,-112 1135,-112 1197,-112 1267,-131 1308,-144"/>
<polygon style="fill:black;stroke:black;" points="1307.42,-147.479 1318,-147 1309.43,-140.774 1307.42,-147.479"/>
<text text-anchor="middle" x="731" y="-116.9" style="font-family:Times New Roman;font-size:14.00;">idle_EF</text>
</g>
<!-- 2 -->
<g id="node4" class="node"><title>2</title>
<ellipse style="fill:none;stroke:black;" cx="2318" cy="-290" rx="18" ry="18"/>
<ellipse style="fill:none;stroke:black;" cx="2318" cy="-290" rx="22" ry="22"/>
<text text-anchor="middle" x="2318" y="-285.9" style="font-family:Times New Roman;font-size:14.00;">2</text>
</g>
<!-- 3 -->
<g id="node5" class="node"><title>3</title>
<ellipse style="fill:none;stroke:black;" cx="2188" cy="-250" rx="18" ry="18"/>
<ellipse style="fill:none;stroke:black;" cx="2188" cy="-250" rx="22" ry="22"/>
<text text-anchor="middle" x="2188" y="-245.9" style="font-family:Times New Roman;font-size:14.00;">3</text>
</g>
<!-- 2&#45;&gt;3 -->
<g id="edge10" class="edge"><title>2&#45;&gt;3</title>
<path style="fill:none;stroke:black;" d="M2296,-286C2278,-282 2251,-276 2228,-268 2225,-266 2221,-265 2218,-263"/>
<polygon style="fill:black;stroke:black;" points="2218.58,-259.521 2208,-260 2216.57,-266.226 2218.58,-259.521"/>
<text text-anchor="middle" x="2253" y="-283.9" style="font-family:Times New Roman;font-size:14.00;">idle_EF</text>
</g>
<!-- 10 -->
<g id="node12" class="node"><title>10</title>
<ellipse style="fill:none;stroke:black;" cx="514" cy="-288" rx="23.1964" ry="23.1964"/>
<ellipse style="fill:none;stroke:black;" cx="514" cy="-288" rx="27.1237" ry="27.1237"/>
<text text-anchor="middle" x="514" y="-283.9" style="font-family:Times New Roman;font-size:14.00;">10</text>
</g>
<!-- 2&#45;&gt;10 -->
<g id="edge8" class="edge"><title>2&#45;&gt;10</title>
<path style="fill:none;stroke:black;" d="M2306,-309C2286,-338 2241,-391 2188,-391 659,-391 659,-391 659,-391 608,-391 562,-348 536,-318"/>
<polygon style="fill:black;stroke:black;" points="538.8,-315.9 530,-310 533.2,-320.1 538.8,-315.9"/>
<text text-anchor="middle" x="1414" y="-394.9" style="font-family:Times New Roman;font-size:14.00;">idle_B</text>
</g>
<!-- 3&#45;&gt;2 -->
<g id="edge14" class="edge"><title>3&#45;&gt;2</title>
<path style="fill:none;stroke:black;" d="M2209,-243C2228,-238 2256,-234 2278,-244 2287,-248 2295,-255 2301,-263"/>
<polygon style="fill:black;stroke:black;" points="2298.2,-265.1 2307,-271 2303.8,-260.9 2298.2,-265.1"/>
<text text-anchor="middle" x="2253" y="-247.9" style="font-family:Times New Roman;font-size:14.00;">stby_A</text>
</g>
<!-- 15 -->
<g id="node17" class="node"><title>15</title>
<ellipse style="fill:none;stroke:black;" cx="935" cy="-236" rx="23.1964" ry="23.1964"/>
<ellipse style="fill:none;stroke:black;" cx="935" cy="-236" rx="27.1237" ry="27.1237"/>
<text text-anchor="middle" x="935" y="-231.9" style="font-family:Times New Roman;font-size:14.00;">15</text>
</g>
<!-- 3&#45;&gt;15 -->
<g id="edge12" class="edge"><title>3&#45;&gt;15</title>
<path style="fill:none;stroke:black;" d="M2166,-250C2140,-250 2096,-250 2057,-250 1135,-250 1135,-250 1135,-250 1066,-250 1049,-246 980,-241 977,-241 975,-240 972,-240"/>
<polygon style="fill:black;stroke:black;" points="972.299,-236.512 962,-239 971.602,-243.478 972.299,-236.512"/>
<text text-anchor="middle" x="1558" y="-253.9" style="font-family:Times New Roman;font-size:14.00;">l2r_A</text>
</g>
<!-- 4 -->
<g id="node6" class="node"><title>4</title>
<ellipse style="fill:none;stroke:black;" cx="1631" cy="-131" rx="18" ry="18"/>
<ellipse style="fill:none;stroke:black;" cx="1631" cy="-131" rx="22" ry="22"/>
<text text-anchor="middle" x="1631" y="-126.9" style="font-family:Times New Roman;font-size:14.00;">4</text>
</g>
<!-- 11 -->
<g id="node13" class="node"><title>11</title>
<ellipse style="fill:none;stroke:black;" cx="2057" cy="-104" rx="23.1964" ry="23.1964"/>
<ellipse style="fill:none;stroke:black;" cx="2057" cy="-104" rx="27.1237" ry="27.1237"/>
<text text-anchor="middle" x="2057" y="-99.9" style="font-family:Times New Roman;font-size:14.00;">11</text>
</g>
<!-- 4&#45;&gt;11 -->
<g id="edge18" class="edge"><title>4&#45;&gt;11</title>
<path style="fill:none;stroke:black;" d="M1653,-132C1712,-133 1877,-134 2012,-115 2015,-115 2018,-114 2021,-113"/>
<polygon style="fill:black;stroke:black;" points="2021.88,-116.393 2031,-111 2020.51,-109.529 2021.88,-116.393"/>
<text text-anchor="middle" x="1842" y="-132.9" style="font-family:Times New Roman;font-size:14.00;">idle_AB</text>
</g>
<!-- 18 -->
<g id="node20" class="node"><title>18</title>
<ellipse style="fill:none;stroke:black;" cx="1485" cy="-169" rx="23.1964" ry="23.1964"/>
<ellipse style="fill:none;stroke:black;" cx="1485" cy="-169" rx="27.1237" ry="27.1237"/>
<text text-anchor="middle" x="1485" y="-164.9" style="font-family:Times New Roman;font-size:14.00;">18</text>
</g>
<!-- 4&#45;&gt;18 -->
<g id="edge16" class="edge"><title>4&#45;&gt;18</title>
<path style="fill:none;stroke:black;" d="M1610,-139C1603,-142 1594,-145 1586,-147 1565,-153 1541,-158 1522,-162"/>
<polygon style="fill:black;stroke:black;" points="1521.12,-158.607 1512,-164 1522.49,-165.471 1521.12,-158.607"/>
<text text-anchor="middle" x="1558" y="-162.9" style="font-family:Times New Roman;font-size:14.00;">stby_A</text>
</g>
<!-- 5 -->
<g id="node7" class="node"><title>5</title>
<ellipse style="fill:none;stroke:black;" cx="798" cy="-236" rx="18" ry="18"/>
<ellipse style="fill:none;stroke:black;" cx="798" cy="-236" rx="22" ry="22"/>
<text text-anchor="middle" x="798" y="-231.9" style="font-family:Times New Roman;font-size:14.00;">5</text>
</g>
<!-- 5&#45;&gt;15 -->
<g id="edge20" class="edge"><title>5&#45;&gt;15</title>
<path style="fill:none;stroke:black;" d="M820,-236C841,-236 873,-236 898,-236"/>
<polygon style="fill:black;stroke:black;" points="898,-239.5 908,-236 898,-232.5 898,-239.5"/>
<text text-anchor="middle" x="864" y="-239.9" style="font-family:Times New Roman;font-size:14.00;">l2r_A</text>
</g>
<!-- 6 -->
<g id="node8" class="node"><title>6</title>
<ellipse style="fill:none;stroke:black;" cx="1072" cy="-300" rx="18" ry="18"/>
<ellipse style="fill:none;stroke:black;" cx="1072" cy="-300" rx="22" ry="22"/>
<text text-anchor="middle" x="1072" y="-295.9" style="font-family:Times New Roman;font-size:14.00;">6</text>
</g>
<!-- 12 -->
<g id="node14" class="node"><title>12</title>
<ellipse style="fill:none;stroke:black;" cx="1203" cy="-305" rx="23.1964" ry="23.1964"/>
<ellipse style="fill:none;stroke:black;" cx="1203" cy="-305" rx="27.1237" ry="27.1237"/>
<text text-anchor="middle" x="1203" y="-300.9" style="font-family:Times New Roman;font-size:14.00;">12</text>
</g>
<!-- 6&#45;&gt;12 -->
<g id="edge22" class="edge"><title>6&#45;&gt;12</title>
<path style="fill:none;stroke:black;" d="M1094,-301C1114,-302 1143,-303 1166,-304"/>
<polygon style="fill:black;stroke:black;" points="1166,-307.5 1176,-304 1166,-300.5 1166,-307.5"/>
<text text-anchor="middle" x="1135" y="-305.9" style="font-family:Times New Roman;font-size:14.00;">l2r_B</text>
</g>
<!-- 16 -->
<g id="node18" class="node"><title>16</title>
<ellipse style="fill:none;stroke:black;" cx="373" cy="-351" rx="23.1964" ry="23.1964"/>
<ellipse style="fill:none;stroke:black;" cx="373" cy="-351" rx="27.1237" ry="27.1237"/>
<text text-anchor="middle" x="373" y="-346.9" style="font-family:Times New Roman;font-size:14.00;">16</text>
</g>
<!-- 7&#45;&gt;16 -->
<g id="edge26" class="edge"><title>7&#45;&gt;16</title>
<path style="fill:none;stroke:black;" d="M246,-83C269,-132 329,-257 357,-317"/>
<polygon style="fill:black;stroke:black;" points="353.74,-318.283 361,-326 360.137,-315.44 353.74,-318.283"/>
<text text-anchor="middle" x="302" y="-251.9" style="font-family:Times New Roman;font-size:14.00;">idle_AB</text>
</g>
<!-- 17 -->
<g id="node19" class="node"><title>17</title>
<ellipse style="fill:none;stroke:black;" cx="373" cy="-58" rx="23.1964" ry="23.1964"/>
<ellipse style="fill:none;stroke:black;" cx="373" cy="-58" rx="27.1237" ry="27.1237"/>
<text text-anchor="middle" x="373" y="-53.9" style="font-family:Times New Roman;font-size:14.00;">17</text>
</g>
<!-- 7&#45;&gt;17 -->
<g id="edge24" class="edge"><title>7&#45;&gt;17</title>
<path style="fill:none;stroke:black;" d="M254,-50C261,-46 269,-42 276,-40 299,-34 306,-35 328,-40 332,-41 335,-42 339,-43"/>
<polygon style="fill:black;stroke:black;" points="338.416,-46.4788 349,-46 340.427,-39.7741 338.416,-46.4788"/>
<text text-anchor="middle" x="302" y="-43.9" style="font-family:Times New Roman;font-size:14.00;">stby_B</text>
</g>
<!-- 8 -->
<g id="node10" class="node"><title>8</title>
<ellipse style="fill:none;stroke:black;" cx="1631" cy="-322" rx="18" ry="18"/>
<ellipse style="fill:none;stroke:black;" cx="1631" cy="-322" rx="22" ry="22"/>
<text text-anchor="middle" x="1631" y="-317.9" style="font-family:Times New Roman;font-size:14.00;">8</text>
</g>
<!-- 8&#45;&gt;16 -->
<g id="edge28" class="edge"><title>8&#45;&gt;16</title>
<path style="fill:none;stroke:black;" d="M1612,-333C1578,-352 1506,-391 1440,-412 1309,-453 1273,-467 1135,-467 514,-467 514,-467 514,-467 466,-467 454,-448 418,-417 408,-407 399,-395 391,-384"/>
<polygon style="fill:black;stroke:black;" points="393.916,-382.042 386,-375 387.797,-385.441 393.916,-382.042"/>
<text text-anchor="middle" x="1006" y="-470.9" style="font-family:Times New Roman;font-size:14.00;">idle_AB</text>
</g>
<!-- 9 -->
<g id="node11" class="node"><title>9</title>
<ellipse style="fill:none;stroke:black;" cx="1072" cy="-200" rx="18" ry="18"/>
<ellipse style="fill:none;stroke:black;" cx="1072" cy="-200" rx="22" ry="22"/>
<text text-anchor="middle" x="1072" y="-195.9" style="font-family:Times New Roman;font-size:14.00;">9</text>
</g>
<!-- 9&#45;&gt;15 -->
<g id="edge30" class="edge"><title>9&#45;&gt;15</title>
<path style="fill:none;stroke:black;" d="M1052,-190C1033,-182 1003,-173 980,-184 970,-189 962,-196 955,-205"/>
<polygon style="fill:black;stroke:black;" points="952.2,-202.9 949,-213 957.8,-207.1 952.2,-202.9"/>
<text text-anchor="middle" x="1006" y="-187.9" style="font-family:Times New Roman;font-size:14.00;">stby_A</text>
</g>
<!-- 14 -->
<g id="node16" class="node"><title>14</title>
<ellipse style="fill:none;stroke:black;" cx="659" cy="-248" rx="23.1964" ry="23.1964"/>
<ellipse style="fill:none;stroke:black;" cx="659" cy="-248" rx="27.1237" ry="27.1237"/>
<text text-anchor="middle" x="659" y="-243.9" style="font-family:Times New Roman;font-size:14.00;">14</text>
</g>
<!-- 10&#45;&gt;14 -->
<g id="edge32" class="edge"><title>10&#45;&gt;14</title>
<path style="fill:none;stroke:black;" d="M541,-283C561,-279 590,-273 614,-266 618,-265 621,-264 624,-262"/>
<polygon style="fill:black;stroke:black;" points="625.427,-265.226 634,-259 623.416,-258.521 625.427,-265.226"/>
<text text-anchor="middle" x="587" y="-281.9" style="font-family:Times New Roman;font-size:14.00;">stby_B</text>
</g>
<!-- 11&#45;&gt;3 -->
<g id="edge34" class="edge"><title>11&#45;&gt;3</title>
<path style="fill:none;stroke:black;" d="M2075,-124C2099,-151 2141,-197 2166,-225"/>
<polygon style="fill:black;stroke:black;" points="2163.78,-227.779 2173,-233 2169.05,-223.169 2163.78,-227.779"/>
<text text-anchor="middle" x="2125" y="-204.9" style="font-family:Times New Roman;font-size:14.00;">l2r_AB</text>
</g>
<!-- 21 -->
<g id="node23" class="node"><title>21</title>
<ellipse style="fill:none;stroke:black;" cx="1631" cy="-58" rx="23.1964" ry="23.1964"/>
<ellipse style="fill:none;stroke:black;" cx="1631" cy="-58" rx="27.1237" ry="27.1237"/>
<text text-anchor="middle" x="1631" y="-53.9" style="font-family:Times New Roman;font-size:14.00;">21</text>
</g>
<!-- 11&#45;&gt;21 -->
<g id="edge36" class="edge"><title>11&#45;&gt;21</title>
<path style="fill:none;stroke:black;" d="M2035,-88C2002,-64 1935,-23 1870,-10 1815,1 1798,-1 1742,-13 1715,-19 1686,-31 1664,-41"/>
<polygon style="fill:black;stroke:black;" points="1662.72,-37.7402 1655,-45 1665.56,-44.1369 1662.72,-37.7402"/>
<text text-anchor="middle" x="1842" y="-13.9" style="font-family:Times New Roman;font-size:14.00;">stby_AB</text>
</g>
<!-- 12&#45;&gt;19 -->
<g id="edge40" class="edge"><title>12&#45;&gt;19</title>
<path style="fill:none;stroke:black;" d="M1222,-285C1247,-259 1290,-213 1317,-184"/>
<polygon style="fill:black;stroke:black;" points="1320.05,-185.831 1324,-176 1314.78,-181.221 1320.05,-185.831"/>
<text text-anchor="middle" x="1273" y="-259.9" style="font-family:Times New Roman;font-size:14.00;">idle_EF</text>
</g>
<!-- 23 -->
<g id="node25" class="node"><title>23</title>
<ellipse style="fill:none;stroke:black;" cx="1343" cy="-336" rx="23.1964" ry="23.1964"/>
<ellipse style="fill:none;stroke:black;" cx="1343" cy="-336" rx="27.1237" ry="27.1237"/>
<text text-anchor="middle" x="1343" y="-331.9" style="font-family:Times New Roman;font-size:14.00;">23</text>
</g>
<!-- 12&#45;&gt;23 -->
<g id="edge38" class="edge"><title>12&#45;&gt;23</title>
<path style="fill:none;stroke:black;" d="M1229,-312C1235,-314 1242,-315 1248,-317 1267,-321 1289,-325 1306,-329"/>
<polygon style="fill:black;stroke:black;" points="1305.51,-332.471 1316,-331 1306.88,-325.607 1305.51,-332.471"/>
<text text-anchor="middle" x="1273" y="-329.9" style="font-family:Times New Roman;font-size:14.00;">idle_B</text>
</g>
<!-- 13 -->
<g id="node15" class="node"><title>13</title>
<ellipse style="fill:none;stroke:black;" cx="1485" cy="-85" rx="23.1964" ry="23.1964"/>
<ellipse style="fill:none;stroke:black;" cx="1485" cy="-85" rx="27.1237" ry="27.1237"/>
<text text-anchor="middle" x="1485" y="-80.9" style="font-family:Times New Roman;font-size:14.00;">13</text>
</g>
<!-- 13&#45;&gt;5 -->
<g id="edge42" class="edge"><title>13&#45;&gt;5</title>
<path style="fill:none;stroke:black;" d="M1458,-91C1382,-106 1168,-150 1135,-150 935,-150 935,-150 935,-150 889,-150 845,-186 820,-212"/>
<polygon style="fill:black;stroke:black;" points="817.596,-209.454 813,-219 822.546,-214.404 817.596,-209.454"/>
<text text-anchor="middle" x="1135" y="-153.9" style="font-family:Times New Roman;font-size:14.00;">l2r_AB</text>
</g>
<!-- 13&#45;&gt;21 -->
<g id="edge44" class="edge"><title>13&#45;&gt;21</title>
<path style="fill:none;stroke:black;" d="M1512,-80C1535,-76 1569,-70 1594,-65"/>
<polygon style="fill:black;stroke:black;" points="1594.88,-68.3933 1604,-63 1593.51,-61.5292 1594.88,-68.3933"/>
<text text-anchor="middle" x="1558" y="-79.9" style="font-family:Times New Roman;font-size:14.00;">stby_AB</text>
</g>
<!-- 14&#45;&gt;5 -->
<g id="edge48" class="edge"><title>14&#45;&gt;5</title>
<path style="fill:none;stroke:black;" d="M686,-246C710,-243 742,-241 766,-239"/>
<polygon style="fill:black;stroke:black;" points="766.398,-242.478 776,-238 765.701,-235.512 766.398,-242.478"/>
<text text-anchor="middle" x="731" y="-246.9" style="font-family:Times New Roman;font-size:14.00;">idle_EF</text>
</g>
<!-- 14&#45;&gt;10 -->
<g id="edge46" class="edge"><title>14&#45;&gt;10</title>
<path style="fill:none;stroke:black;" d="M632,-241C612,-238 583,-235 560,-245 552,-248 545,-253 539,-259"/>
<polygon style="fill:black;stroke:black;" points="536.221,-256.781 531,-266 540.831,-262.049 536.221,-256.781"/>
<text text-anchor="middle" x="587" y="-248.9" style="font-family:Times New Roman;font-size:14.00;">idle_B</text>
</g>
<!-- 15&#45;&gt;6 -->
<g id="edge50" class="edge"><title>15&#45;&gt;6</title>
<path style="fill:none;stroke:black;" d="M956,-253C963,-259 972,-265 980,-269 999,-278 1023,-286 1041,-291"/>
<polygon style="fill:black;stroke:black;" points="1040.42,-294.479 1051,-294 1042.43,-287.774 1040.42,-294.479"/>
<text text-anchor="middle" x="1006" y="-290.9" style="font-family:Times New Roman;font-size:14.00;">idle_B</text>
</g>
<!-- 15&#45;&gt;9 -->
<g id="edge52" class="edge"><title>15&#45;&gt;9</title>
<path style="fill:none;stroke:black;" d="M961,-229C967,-227 974,-226 980,-224 1000,-219 1022,-213 1040,-208"/>
<polygon style="fill:black;stroke:black;" points="1040.88,-211.393 1050,-206 1039.51,-204.529 1040.88,-211.393"/>
<text text-anchor="middle" x="1006" y="-227.9" style="font-family:Times New Roman;font-size:14.00;">idle_EF</text>
</g>
<!-- 16&#45;&gt;10 -->
<g id="edge54" class="edge"><title>16&#45;&gt;10</title>
<path style="fill:none;stroke:black;" d="M395,-334C402,-329 410,-324 418,-320 437,-310 459,-303 477,-297"/>
<polygon style="fill:black;stroke:black;" points="478.427,-300.226 487,-294 476.416,-293.521 478.427,-300.226"/>
<text text-anchor="middle" x="443" y="-323.9" style="font-family:Times New Roman;font-size:14.00;">l2r_AB</text>
</g>
<!-- 20 -->
<g id="node22" class="node"><title>20</title>
<ellipse style="fill:none;stroke:black;" cx="731" cy="-348" rx="23.1964" ry="23.1964"/>
<ellipse style="fill:none;stroke:black;" cx="731" cy="-348" rx="27.1237" ry="27.1237"/>
<text text-anchor="middle" x="731" y="-343.9" style="font-family:Times New Roman;font-size:14.00;">20</text>
</g>
<!-- 16&#45;&gt;20 -->
<g id="edge56" class="edge"><title>16&#45;&gt;20</title>
<path style="fill:none;stroke:black;" d="M400,-351C464,-350 621,-349 694,-348"/>
<polygon style="fill:black;stroke:black;" points="694,-351.5 704,-348 694,-344.5 694,-351.5"/>
<text text-anchor="middle" x="514" y="-352.9" style="font-family:Times New Roman;font-size:14.00;">stby_AB</text>
</g>
<!-- 17&#45;&gt;7 -->
<g id="edge58" class="edge"><title>17&#45;&gt;7</title>
<path style="fill:none;stroke:black;" d="M346,-59C323,-60 292,-61 268,-62"/>
<polygon style="fill:black;stroke:black;" points="268,-58.5001 258,-62 268,-65.5001 268,-58.5001"/>
<text text-anchor="middle" x="302" y="-63.9" style="font-family:Times New Roman;font-size:14.00;">idle_B</text>
</g>
<!-- 22 -->
<g id="node24" class="node"><title>22</title>
<ellipse style="fill:none;stroke:black;" cx="587" cy="-58" rx="23.1964" ry="23.1964"/>
<ellipse style="fill:none;stroke:black;" cx="587" cy="-58" rx="27.1237" ry="27.1237"/>
<text text-anchor="middle" x="587" y="-53.9" style="font-family:Times New Roman;font-size:14.00;">22</text>
</g>
<!-- 17&#45;&gt;22 -->
<g id="edge60" class="edge"><title>17&#45;&gt;22</title>
<path style="fill:none;stroke:black;" d="M400,-58C438,-58 507,-58 550,-58"/>
<polygon style="fill:black;stroke:black;" points="550,-61.5001 560,-58 550,-54.5001 550,-61.5001"/>
<text text-anchor="middle" x="443" y="-61.9" style="font-family:Times New Roman;font-size:14.00;">idle_EF</text>
</g>
<!-- 18&#45;&gt;4 -->
<g id="edge64" class="edge"><title>18&#45;&gt;4</title>
<path style="fill:none;stroke:black;" d="M1502,-147C1509,-139 1519,-130 1530,-126 1552,-117 1580,-119 1600,-123"/>
<polygon style="fill:black;stroke:black;" points="1599.51,-126.471 1610,-125 1600.88,-119.607 1599.51,-126.471"/>
<text text-anchor="middle" x="1558" y="-129.9" style="font-family:Times New Roman;font-size:14.00;">idle_EF</text>
</g>
<!-- 18&#45;&gt;8 -->
<g id="edge62" class="edge"><title>18&#45;&gt;8</title>
<path style="fill:none;stroke:black;" d="M1511,-177C1537,-186 1575,-200 1586,-211 1608,-232 1619,-265 1625,-290"/>
<polygon style="fill:black;stroke:black;" points="1621.61,-290.881 1627,-300 1628.47,-289.508 1621.61,-290.881"/>
<text text-anchor="middle" x="1558" y="-214.9" style="font-family:Times New Roman;font-size:14.00;">idle_B</text>
</g>
<!-- 19&#45;&gt;13 -->
<g id="edge68" class="edge"><title>19&#45;&gt;13</title>
<path style="fill:none;stroke:black;" d="M1367,-144C1390,-132 1425,-114 1451,-102"/>
<polygon style="fill:black;stroke:black;" points="1452.96,-104.916 1460,-97 1449.56,-98.7969 1452.96,-104.916"/>
<text text-anchor="middle" x="1414" y="-135.9" style="font-family:Times New Roman;font-size:14.00;">idle_AB</text>
</g>
<!-- 19&#45;&gt;18 -->
<g id="edge66" class="edge"><title>19&#45;&gt;18</title>
<path style="fill:none;stroke:black;" d="M1370,-158C1392,-160 1423,-163 1448,-165"/>
<polygon style="fill:black;stroke:black;" points="1447.7,-168.488 1458,-166 1448.4,-161.522 1447.7,-168.488"/>
<text text-anchor="middle" x="1414" y="-167.9" style="font-family:Times New Roman;font-size:14.00;">stby_A</text>
</g>
<!-- 20&#45;&gt;12 -->
<g id="edge70" class="edge"><title>20&#45;&gt;12</title>
<path style="fill:none;stroke:black;" d="M758,-347C819,-346 969,-341 1094,-331 1123,-328 1131,-330 1158,-323 1162,-322 1165,-321 1169,-320"/>
<polygon style="fill:black;stroke:black;" points="1170.28,-323.26 1178,-316 1167.44,-316.863 1170.28,-323.26"/>
<text text-anchor="middle" x="935" y="-344.9" style="font-family:Times New Roman;font-size:14.00;">stby_B</text>
</g>
<!-- 25 -->
<g id="node27" class="node"><title>25</title>
<ellipse style="fill:none;stroke:black;" cx="1769" cy="-49" rx="23.1964" ry="23.1964"/>
<ellipse style="fill:none;stroke:black;" cx="1769" cy="-49" rx="27.1237" ry="27.1237"/>
<text text-anchor="middle" x="1769" y="-44.9" style="font-family:Times New Roman;font-size:14.00;">25</text>
</g>
<!-- 21&#45;&gt;25 -->
<g id="edge72" class="edge"><title>21&#45;&gt;25</title>
<path style="fill:none;stroke:black;" d="M1658,-56C1679,-55 1708,-53 1732,-52"/>
<polygon style="fill:black;stroke:black;" points="1732.4,-55.4778 1742,-51 1731.7,-48.5125 1732.4,-55.4778"/>
<text text-anchor="middle" x="1700" y="-57.9" style="font-family:Times New Roman;font-size:14.00;">stby_A</text>
</g>
<!-- 22&#45;&gt;13 -->
<g id="edge74" class="edge"><title>22&#45;&gt;13</title>
<path style="fill:none;stroke:black;" d="M614,-58C643,-58 690,-58 731,-58 731,-58 731,-58 1343,-58 1380,-58 1421,-67 1449,-74"/>
<polygon style="fill:black;stroke:black;" points="1448.42,-77.4788 1459,-77 1450.43,-70.7741 1448.42,-77.4788"/>
<text text-anchor="middle" x="1006" y="-61.9" style="font-family:Times New Roman;font-size:14.00;">idle_AB</text>
</g>
<!-- 23&#45;&gt;12 -->
<g id="edge76" class="edge"><title>23&#45;&gt;12</title>
<path style="fill:none;stroke:black;" d="M1327,-314C1319,-306 1309,-297 1298,-293 1279,-285 1257,-288 1238,-292"/>
<polygon style="fill:black;stroke:black;" points="1236.57,-288.774 1228,-295 1238.58,-295.479 1236.57,-288.774"/>
<text text-anchor="middle" x="1273" y="-296.9" style="font-family:Times New Roman;font-size:14.00;">stby_B</text>
</g>
<!-- 23&#45;&gt;16 -->
<g id="edge78" class="edge"><title>23&#45;&gt;16</title>
<path style="fill:none;stroke:black;" d="M1326,-357C1302,-385 1255,-429 1203,-429 514,-429 514,-429 514,-429 470,-429 427,-399 401,-377"/>
<polygon style="fill:black;stroke:black;" points="402.831,-373.951 393,-370 398.221,-379.219 402.831,-373.951"/>
<text text-anchor="middle" x="864" y="-432.9" style="font-family:Times New Roman;font-size:14.00;">idle_AB</text>
</g>
<!-- 24 -->
<g id="node26" class="node"><title>24</title>
<ellipse style="fill:none;stroke:black;" cx="1915" cy="-76" rx="23.1964" ry="23.1964"/>
<ellipse style="fill:none;stroke:black;" cx="1915" cy="-76" rx="27.1237" ry="27.1237"/>
<text text-anchor="middle" x="1915" y="-71.9" style="font-family:Times New Roman;font-size:14.00;">24</text>
</g>
<!-- 24&#45;&gt;11 -->
<g id="edge82" class="edge"><title>24&#45;&gt;11</title>
<path style="fill:none;stroke:black;" d="M1942,-81C1964,-85 1996,-92 2020,-97"/>
<polygon style="fill:black;stroke:black;" points="2019.51,-100.471 2030,-99 2020.88,-93.6067 2019.51,-100.471"/>
<text text-anchor="middle" x="1986" y="-97.9" style="font-family:Times New Roman;font-size:14.00;">idle_AB</text>
</g>
<!-- 24&#45;&gt;25 -->
<g id="edge80" class="edge"><title>24&#45;&gt;25</title>
<path style="fill:none;stroke:black;" d="M1897,-55C1889,-48 1880,-41 1870,-38 1850,-30 1825,-33 1805,-37"/>
<polygon style="fill:black;stroke:black;" points="1803.57,-33.7741 1795,-40 1805.58,-40.4788 1803.57,-33.7741"/>
<text text-anchor="middle" x="1842" y="-41.9" style="font-family:Times New Roman;font-size:14.00;">stby_A</text>
</g>
<!-- 25&#45;&gt;7 -->
<g id="edge84" class="edge"><title>25&#45;&gt;7</title>
<path style="fill:none;stroke:black;" d="M1745,-36C1718,-23 1673,-4 1631,-3 373,-3 373,-3 373,-3 329,-4 316,-10 276,-30 270,-33 265,-36 260,-40"/>
<polygon style="fill:black;stroke:black;" points="257.221,-37.7809 252,-47 261.831,-43.0489 257.221,-37.7809"/>
<text text-anchor="middle" x="1006" y="-7.9" style="font-family:Times New Roman;font-size:14.00;">idle_B</text>
</g>
<!-- 25&#45;&gt;24 -->
<g id="edge86" class="edge"><title>25&#45;&gt;24</title>
<path style="fill:none;stroke:black;" d="M1796,-54C1819,-58 1853,-64 1878,-69"/>
<polygon style="fill:black;stroke:black;" points="1877.51,-72.4708 1888,-71 1878.88,-65.6067 1877.51,-72.4708"/>
<text text-anchor="middle" x="1842" y="-69.9" style="font-family:Times New Roman;font-size:14.00;">idle_EF</text>
</g>
</g>
</svg>
