<?xml version="1.0" encoding="UTF-8" standalone="no"?>
<!DOCTYPE svg PUBLIC "-//W3C//DTD SVG 1.0//EN"
 "http://www.w3.org/TR/2001/REC-SVG-20010904/DTD/svg10.dtd">
<!-- Generated by dot version 2.2 (Tue Sep 13 00:37:56 UTC 2005)
     For user: (msperk) Perk_Sebastian, Betreuer=Moor, mitarb, 01/05    Title: HioSynth(plant_A,spec_A)_B_    Pages: 1 -->
<svg width="732pt" height="267pt"
 viewBox = "-1 -1 731 266"
 xmlns="http://www.w3.org/2000/svg">
<g id="graph0" class="graph" transform = "scale(0.264511)"
 style="font-family:Times-Roman;font-size:14.00;">
<title>HioSynth(plant_A,spec_A)_B_</title>
<g id="node1" class="node"><title>dot_dummyinit_1</title>
</g>
<g id="node3" class="node"><title>1</title>
<ellipse cx="119" cy="148" rx="18" ry="18" style="fill:none;stroke:black;"/>
<ellipse cx="119" cy="148" rx="22" ry="22" style="fill:none;stroke:black;"/>
<text text-anchor="middle" x="119" y="153">1</text>
</g>
<g id="edge2" class="edge"><title>dot_dummyinit_1&#45;&gt;1</title>
<path style="fill:none;stroke:black;" d="M59,148C68,148 77,148 87,148"/>
<polygon style="fill:black;stroke:black;" points="87,144 97,148 87,151 87,144"/>
</g>
<g id="node4" class="node"><title>2</title>
<ellipse cx="2579" cy="413" rx="18" ry="18" style="fill:none;stroke:black;"/>
<ellipse cx="2579" cy="413" rx="22" ry="22" style="fill:none;stroke:black;"/>
<text text-anchor="middle" x="2579" y="418">2</text>
</g>
<g id="edge6" class="edge"><title>1&#45;&gt;2</title>
<path style="fill:none;stroke:black;" d="M128,128C134,113 145,95 159,82 191,55 203,44 244,44 244,44 244,44 2450,44 2492,44 2509,50 2535,82 2590,150 2566,188 2576,274 2577,285 2578,343 2579,381"/>
<polygon style="fill:black;stroke:black;" points="2583,381 2579,391 2576,381 2583,381"/>
<text text-anchor="middle" x="1326" y="41">B_full</text>
</g>
<g id="edge8" class="edge"><title>1&#45;&gt;2</title>
<path style="fill:none;stroke:black;" d="M137,135C161,120 203,96 244,96 244,96 244,96 2450,96 2492,96 2508,103 2535,134 2578,183 2567,210 2576,274 2578,285 2579,343 2579,381"/>
<polygon style="fill:black;stroke:black;" points="2583,381 2579,391 2576,381 2583,381"/>
<text text-anchor="middle" x="1326" y="93">B_arrtl</text>
</g>
<g id="edge10" class="edge"><title>1&#45;&gt;2</title>
<path style="fill:none;stroke:black;" d="M141,148C166,148 208,148 244,148 244,148 244,148 2450,148 2530,148 2559,197 2576,274 2577,280 2578,341 2579,381"/>
<polygon style="fill:black;stroke:black;" points="2583,381 2579,391 2576,381 2583,381"/>
<text text-anchor="middle" x="1326" y="145">B_arrtr</text>
</g>
<g id="node23" class="node"><title>21</title>
<ellipse cx="244" cy="244" rx="21" ry="21" style="fill:none;stroke:black;"/>
<ellipse cx="244" cy="244" rx="25" ry="25" style="fill:none;stroke:black;"/>
<text text-anchor="middle" x="244" y="249">21</text>
</g>
<g id="edge4" class="edge"><title>1&#45;&gt;21</title>
<path style="fill:none;stroke:black;" d="M137,162C158,177 192,204 216,223"/>
<polygon style="fill:black;stroke:black;" points="218,220 224,229 214,226 218,220"/>
<text text-anchor="middle" x="180" y="178">B_wait</text>
</g>
<g id="node7" class="node"><title>5</title>
<ellipse cx="2705" cy="413" rx="18" ry="18" style="fill:none;stroke:black;"/>
<ellipse cx="2705" cy="413" rx="22" ry="22" style="fill:none;stroke:black;"/>
<text text-anchor="middle" x="2705" y="418">5</text>
</g>
<g id="edge12" class="edge"><title>2&#45;&gt;5</title>
<path style="fill:none;stroke:black;" d="M2584,391C2591,359 2607,301 2623,289 2639,279 2650,279 2665,289 2680,301 2692,348 2699,381"/>
<polygon style="fill:black;stroke:black;" points="2702,381 2701,391 2696,382 2702,381"/>
<text text-anchor="middle" x="2644" y="279">B_r</text>
</g>
<g id="edge14" class="edge"><title>2&#45;&gt;5</title>
<path style="fill:none;stroke:black;" d="M2586,392C2592,375 2604,352 2623,341 2640,332 2649,332 2665,341 2681,350 2690,367 2696,382"/>
<polygon style="fill:black;stroke:black;" points="2700,381 2700,392 2693,384 2700,381"/>
<text text-anchor="middle" x="2644" y="332">B_l</text>
</g>
<g id="edge16" class="edge"><title>2&#45;&gt;5</title>
<path style="fill:none;stroke:black;" d="M2599,402C2606,399 2615,395 2623,393 2642,390 2647,389 2665,393 2669,394 2673,395 2677,397"/>
<polygon style="fill:black;stroke:black;" points="2678,394 2686,401 2675,400 2678,394"/>
<text text-anchor="middle" x="2644" y="388">B_stp</text>
</g>
<g id="node5" class="node"><title>3</title>
<ellipse cx="1265" cy="419" rx="18" ry="18" style="fill:none;stroke:black;"/>
<ellipse cx="1265" cy="419" rx="22" ry="22" style="fill:none;stroke:black;"/>
<text text-anchor="middle" x="1265" y="424">3</text>
</g>
<g id="node17" class="node"><title>15</title>
<ellipse cx="1390" cy="419" rx="21" ry="21" style="fill:none;stroke:black;"/>
<ellipse cx="1390" cy="419" rx="25" ry="25" style="fill:none;stroke:black;"/>
<text text-anchor="middle" x="1390" y="424">15</text>
</g>
<g id="edge18" class="edge"><title>3&#45;&gt;15</title>
<path style="fill:none;stroke:black;" d="M1287,419C1306,419 1333,419 1355,419"/>
<polygon style="fill:black;stroke:black;" points="1355,415 1365,419 1355,422 1355,415"/>
<text text-anchor="middle" x="1326" y="416">B_stp</text>
</g>
<g id="node6" class="node"><title>4</title>
<ellipse cx="1765" cy="581" rx="18" ry="18" style="fill:none;stroke:black;"/>
<ellipse cx="1765" cy="581" rx="22" ry="22" style="fill:none;stroke:black;"/>
<text text-anchor="middle" x="1765" y="586">4</text>
</g>
<g id="node21" class="node"><title>19</title>
<ellipse cx="1891" cy="737" rx="21" ry="21" style="fill:none;stroke:black;"/>
<ellipse cx="1891" cy="737" rx="25" ry="25" style="fill:none;stroke:black;"/>
<text text-anchor="middle" x="1891" y="742">19</text>
</g>
<g id="edge20" class="edge"><title>4&#45;&gt;19</title>
<path style="fill:none;stroke:black;" d="M1779,598C1801,625 1842,677 1868,709"/>
<polygon style="fill:black;stroke:black;" points="1871,707 1875,717 1866,712 1871,707"/>
<text text-anchor="middle" x="1826" y="627">B_r</text>
</g>
<g id="node24" class="node"><title>22</title>
<ellipse cx="1891" cy="581" rx="21" ry="21" style="fill:none;stroke:black;"/>
<ellipse cx="1891" cy="581" rx="25" ry="25" style="fill:none;stroke:black;"/>
<text text-anchor="middle" x="1891" y="586">22</text>
</g>
<g id="edge22" class="edge"><title>4&#45;&gt;22</title>
<path style="fill:none;stroke:black;" d="M1787,581C1806,581 1833,581 1855,581"/>
<polygon style="fill:black;stroke:black;" points="1855,577 1865,581 1855,584 1855,577"/>
<text text-anchor="middle" x="1826" y="578">B_stp</text>
</g>
<g id="edge24" class="edge"><title>5&#45;&gt;2</title>
<path style="fill:none;stroke:black;" d="M2683,415C2677,416 2671,416 2665,416 2647,417 2642,417 2623,416 2619,416 2615,416 2611,416"/>
<polygon style="fill:black;stroke:black;" points="2611,419 2601,415 2611,413 2611,419"/>
<text text-anchor="middle" x="2644" y="413">B_wait</text>
</g>
<g id="edge26" class="edge"><title>5&#45;&gt;2</title>
<path style="fill:none;stroke:black;" d="M2687,427C2681,431 2673,435 2665,437 2648,442 2642,442 2623,437 2615,435 2610,434 2605,432"/>
<polygon style="fill:black;stroke:black;" points="2604,435 2596,428 2607,429 2604,435"/>
<text text-anchor="middle" x="2644" y="434">B_full</text>
</g>
<g id="edge28" class="edge"><title>5&#45;&gt;2</title>
<path style="fill:none;stroke:black;" d="M2698,434C2690,449 2684,455 2665,462 2648,469 2641,468 2623,462 2607,456 2598,453 2589,443"/>
<polygon style="fill:black;stroke:black;" points="2586,445 2583,435 2592,441 2586,445"/>
<text text-anchor="middle" x="2644" y="459">B_arrtl</text>
</g>
<g id="edge30" class="edge"><title>5&#45;&gt;2</title>
<path style="fill:none;stroke:black;" d="M2702,435C2692,462 2691,475 2665,488 2649,497 2641,496 2623,488 2601,479 2593,471 2583,445"/>
<polygon style="fill:black;stroke:black;" points="2580,446 2580,435 2586,444 2580,446"/>
<text text-anchor="middle" x="2644" y="485">B_arrtr</text>
</g>
<g id="node8" class="node"><title>6</title>
<ellipse cx="738" cy="320" rx="18" ry="18" style="fill:none;stroke:black;"/>
<ellipse cx="738" cy="320" rx="22" ry="22" style="fill:none;stroke:black;"/>
<text text-anchor="middle" x="738" y="325">6</text>
</g>
<g id="node20" class="node"><title>18</title>
<ellipse cx="610" cy="288" rx="21" ry="21" style="fill:none;stroke:black;"/>
<ellipse cx="610" cy="288" rx="25" ry="25" style="fill:none;stroke:black;"/>
<text text-anchor="middle" x="610" y="293">18</text>
</g>
<g id="edge32" class="edge"><title>6&#45;&gt;18</title>
<path style="fill:none;stroke:black;" d="M716,314C697,310 667,302 644,296"/>
<polygon style="fill:black;stroke:black;" points="643,299 634,294 644,293 643,299"/>
<text text-anchor="middle" x="674" y="297">B_r</text>
</g>
<g id="node22" class="node"><title>20</title>
<ellipse cx="879" cy="320" rx="21" ry="21" style="fill:none;stroke:black;"/>
<ellipse cx="879" cy="320" rx="25" ry="25" style="fill:none;stroke:black;"/>
<text text-anchor="middle" x="879" y="325">20</text>
</g>
<g id="edge34" class="edge"><title>6&#45;&gt;20</title>
<path style="fill:none;stroke:black;" d="M760,320C782,320 817,320 843,320"/>
<polygon style="fill:black;stroke:black;" points="843,316 853,320 843,323 843,316"/>
<text text-anchor="middle" x="808" y="317">B_FULL</text>
</g>
<g id="node9" class="node"><title>7</title>
<ellipse cx="1649" cy="565" rx="18" ry="18" style="fill:none;stroke:black;"/>
<ellipse cx="1649" cy="565" rx="22" ry="22" style="fill:none;stroke:black;"/>
<text text-anchor="middle" x="1649" y="570">7</text>
</g>
<g id="edge36" class="edge"><title>7&#45;&gt;3</title>
<path style="fill:none;stroke:black;" d="M1627,565C1587,566 1500,562 1433,533 1378,509 1321,466 1290,440"/>
<polygon style="fill:black;stroke:black;" points="1288,443 1282,434 1292,437 1288,443"/>
<text text-anchor="middle" x="1454" y="530">B_STP</text>
</g>
<g id="edge38" class="edge"><title>7&#45;&gt;4</title>
<path style="fill:none;stroke:black;" d="M1671,568C1688,571 1713,574 1733,577"/>
<polygon style="fill:black;stroke:black;" points="1733,574 1743,578 1733,580 1733,574"/>
<text text-anchor="middle" x="1707" y="569">B_TR</text>
</g>
<g id="node10" class="node"><title>8</title>
<ellipse cx="1515" cy="515" rx="18" ry="18" style="fill:none;stroke:black;"/>
<ellipse cx="1515" cy="515" rx="22" ry="22" style="fill:none;stroke:black;"/>
<text text-anchor="middle" x="1515" y="520">8</text>
</g>
<g id="edge40" class="edge"><title>8&#45;&gt;7</title>
<path style="fill:none;stroke:black;" d="M1536,523C1558,531 1593,544 1619,554"/>
<polygon style="fill:black;stroke:black;" points="1620,551 1628,557 1617,557 1620,551"/>
<text text-anchor="middle" x="1582" y="528">B_WAIT</text>
</g>
<g id="node11" class="node"><title>9</title>
<ellipse cx="381" cy="288" rx="18" ry="18" style="fill:none;stroke:black;"/>
<ellipse cx="381" cy="288" rx="22" ry="22" style="fill:none;stroke:black;"/>
<text text-anchor="middle" x="381" y="293">9</text>
</g>
<g id="node25" class="node"><title>23</title>
<ellipse cx="2579" cy="912" rx="21" ry="21" style="fill:none;stroke:black;"/>
<ellipse cx="2579" cy="912" rx="25" ry="25" style="fill:none;stroke:black;"/>
<text text-anchor="middle" x="2579" y="917">23</text>
</g>
<g id="edge42" class="edge"><title>9&#45;&gt;23</title>
<path style="fill:none;stroke:black;" d="M383,310C392,423 435,931 499,931 499,931 499,931 2450,931 2482,931 2518,926 2543,920"/>
<polygon style="fill:black;stroke:black;" points="2543,917 2553,918 2544,923 2543,917"/>
<text text-anchor="middle" x="1454" y="928">B_STP</text>
</g>
<g id="node28" class="node"><title>26</title>
<ellipse cx="499" cy="288" rx="21" ry="21" style="fill:none;stroke:black;"/>
<ellipse cx="499" cy="288" rx="25" ry="25" style="fill:none;stroke:black;"/>
<text text-anchor="middle" x="499" y="293">26</text>
</g>
<g id="edge44" class="edge"><title>9&#45;&gt;26</title>
<path style="fill:none;stroke:black;" d="M403,288C420,288 443,288 463,288"/>
<polygon style="fill:black;stroke:black;" points="463,284 473,288 463,291 463,284"/>
<text text-anchor="middle" x="438" y="285">B_FL</text>
</g>
<g id="node12" class="node"><title>10</title>
<ellipse cx="2252" cy="877" rx="21" ry="21" style="fill:none;stroke:black;"/>
<ellipse cx="2252" cy="877" rx="25" ry="25" style="fill:none;stroke:black;"/>
<text text-anchor="middle" x="2252" y="882">10</text>
</g>
<g id="edge46" class="edge"><title>10&#45;&gt;23</title>
<path style="fill:none;stroke:black;" d="M2277,880C2335,886 2476,901 2543,908"/>
<polygon style="fill:black;stroke:black;" points="2543,905 2553,909 2543,911 2543,905"/>
<text text-anchor="middle" x="2386" y="885">B_STP</text>
</g>
<g id="node13" class="node"><title>11</title>
<ellipse cx="738" cy="397" rx="20" ry="20" style="fill:none;stroke:black;"/>
<ellipse cx="738" cy="397" rx="24" ry="24" style="fill:none;stroke:black;"/>
<text text-anchor="middle" x="738" y="402">11</text>
</g>
<g id="node29" class="node"><title>27</title>
<ellipse cx="948" cy="417" rx="21" ry="21" style="fill:none;stroke:black;"/>
<ellipse cx="948" cy="417" rx="25" ry="25" style="fill:none;stroke:black;"/>
<text text-anchor="middle" x="948" y="422">27</text>
</g>
<g id="edge48" class="edge"><title>11&#45;&gt;27</title>
<path style="fill:none;stroke:black;" d="M763,399C800,403 871,410 913,414"/>
<polygon style="fill:black;stroke:black;" points="913,411 923,415 913,417 913,411"/>
<text text-anchor="middle" x="808" y="399">B_FULL</text>
</g>
<g id="node14" class="node"><title>12</title>
<ellipse cx="2020" cy="766" rx="21" ry="21" style="fill:none;stroke:black;"/>
<ellipse cx="2020" cy="766" rx="25" ry="25" style="fill:none;stroke:black;"/>
<text text-anchor="middle" x="2020" y="771">12</text>
</g>
<g id="edge50" class="edge"><title>12&#45;&gt;19</title>
<path style="fill:none;stroke:black;" d="M2002,783C1995,788 1986,794 1977,797 1960,802 1952,805 1935,797 1923,791 1914,779 1906,769"/>
<polygon style="fill:black;stroke:black;" points="1903,770 1901,760 1909,767 1903,770"/>
<text text-anchor="middle" x="1956" y="791">B_r</text>
</g>
<g id="node27" class="node"><title>25</title>
<ellipse cx="2177" cy="767" rx="21" ry="21" style="fill:none;stroke:black;"/>
<ellipse cx="2177" cy="767" rx="25" ry="25" style="fill:none;stroke:black;"/>
<text text-anchor="middle" x="2177" y="772">25</text>
</g>
<g id="edge52" class="edge"><title>12&#45;&gt;25</title>
<path style="fill:none;stroke:black;" d="M2045,766C2071,766 2112,766 2141,767"/>
<polygon style="fill:black;stroke:black;" points="2141,763 2151,767 2141,770 2141,763"/>
<text text-anchor="middle" x="2095" y="763">B_ARRTR</text>
</g>
<g id="node15" class="node"><title>13</title>
<ellipse cx="2095" cy="865" rx="21" ry="21" style="fill:none;stroke:black;"/>
<ellipse cx="2095" cy="865" rx="25" ry="25" style="fill:none;stroke:black;"/>
<text text-anchor="middle" x="2095" y="870">13</text>
</g>
<g id="edge54" class="edge"><title>13&#45;&gt;10</title>
<path style="fill:none;stroke:black;" d="M2120,867C2147,869 2188,872 2217,874"/>
<polygon style="fill:black;stroke:black;" points="2217,871 2227,875 2217,877 2217,871"/>
<text text-anchor="middle" x="2177" y="865">B_ARRTR</text>
</g>
<g id="node16" class="node"><title>14</title>
<ellipse cx="1016" cy="320" rx="21" ry="21" style="fill:none;stroke:black;"/>
<ellipse cx="1016" cy="320" rx="25" ry="25" style="fill:none;stroke:black;"/>
<text text-anchor="middle" x="1016" y="325">14</text>
</g>
<g id="node18" class="node"><title>16</title>
<ellipse cx="1144" cy="329" rx="21" ry="21" style="fill:none;stroke:black;"/>
<ellipse cx="1144" cy="329" rx="25" ry="25" style="fill:none;stroke:black;"/>
<text text-anchor="middle" x="1144" y="334">16</text>
</g>
<g id="edge56" class="edge"><title>14&#45;&gt;16</title>
<path style="fill:none;stroke:black;" d="M1038,332C1045,335 1052,338 1059,339 1076,342 1094,341 1110,338"/>
<polygon style="fill:black;stroke:black;" points="1110,335 1120,336 1111,341 1110,335"/>
<text text-anchor="middle" x="1080" y="336">B_r</text>
</g>
<g id="edge60" class="edge"><title>15&#45;&gt;2</title>
<path style="fill:none;stroke:black;" d="M1412,432C1436,446 1477,465 1515,465 1515,465 1515,465 1891,465 2178,465 2254,480 2535,427 2539,426 2544,426 2548,424"/>
<polygon style="fill:black;stroke:black;" points="2547,421 2558,421 2549,427 2547,421"/>
<text text-anchor="middle" x="1956" y="464">B_full</text>
</g>
<g id="edge62" class="edge"><title>15&#45;&gt;2</title>
<path style="fill:none;stroke:black;" d="M1412,406C1436,393 1478,375 1515,375 1515,375 1515,375 1765,375 1879,375 1907,361 2020,361 2020,361 2020,361 2450,361 2487,361 2527,380 2552,395"/>
<polygon style="fill:black;stroke:black;" points="2554,392 2561,400 2551,398 2554,392"/>
<text text-anchor="middle" x="1956" y="360">B_arrtl</text>
</g>
<g id="edge64" class="edge"><title>15&#45;&gt;2</title>
<path style="fill:none;stroke:black;" d="M1415,417C1440,415 1481,413 1515,413 1515,413 1515,413 2450,413 2483,413 2521,413 2547,413"/>
<polygon style="fill:black;stroke:black;" points="2547,409 2557,413 2547,416 2547,409"/>
<text text-anchor="middle" x="1956" y="410">B_arrtr</text>
</g>
<g id="edge58" class="edge"><title>15&#45;&gt;8</title>
<path style="fill:none;stroke:black;" d="M1398,443C1405,460 1416,482 1433,495 1447,506 1466,511 1483,513"/>
<polygon style="fill:black;stroke:black;" points="1483,510 1493,514 1483,516 1483,510"/>
<text text-anchor="middle" x="1454" y="492">B_wait</text>
</g>
<g id="edge70" class="edge"><title>16&#45;&gt;2</title>
<path style="fill:none;stroke:black;" d="M1169,329C1194,329 1232,329 1265,329 1265,329 1265,329 1765,329 1879,329 1907,317 2020,317 2020,317 2020,317 2450,317 2511,317 2538,336 2568,382"/>
<polygon style="fill:black;stroke:black;" points="2571,381 2574,391 2566,385 2571,381"/>
<text text-anchor="middle" x="1826" y="325">B_arrtl</text>
</g>
<g id="edge72" class="edge"><title>16&#45;&gt;2</title>
<path style="fill:none;stroke:black;" d="M1166,317C1190,306 1229,290 1265,290 1265,290 1265,290 1515,290 1683,290 1724,277 1891,277 1891,277 1891,277 2450,277 2493,277 2504,292 2535,319 2558,340 2564,349 2575,381"/>
<polygon style="fill:black;stroke:black;" points="2578,380 2578,391 2572,382 2578,380"/>
<text text-anchor="middle" x="1826" y="276">B_arrtr</text>
</g>
<g id="edge68" class="edge"><title>16&#45;&gt;3</title>
<path style="fill:none;stroke:black;" d="M1164,344C1185,359 1217,383 1239,400"/>
<polygon style="fill:black;stroke:black;" points="1241,397 1247,406 1237,403 1241,397"/>
<text text-anchor="middle" x="1206" y="359">B_full</text>
</g>
<g id="edge66" class="edge"><title>16&#45;&gt;14</title>
<path style="fill:none;stroke:black;" d="M1119,323C1113,321 1107,320 1101,319 1085,317 1067,317 1051,318"/>
<polygon style="fill:black;stroke:black;" points="1051,321 1041,318 1051,314 1051,321"/>
<text text-anchor="middle" x="1080" y="315">B_wait</text>
</g>
<g id="node19" class="node"><title>17</title>
<ellipse cx="2450" cy="795" rx="20" ry="20" style="fill:none;stroke:black;"/>
<ellipse cx="2450" cy="795" rx="24" ry="24" style="fill:none;stroke:black;"/>
<text text-anchor="middle" x="2450" y="800">17</text>
</g>
<g id="edge76" class="edge"><title>17&#45;&gt;2</title>
<path style="fill:none;stroke:black;" d="M2472,784C2492,773 2521,754 2535,729 2564,681 2574,515 2578,445"/>
<polygon style="fill:black;stroke:black;" points="2575,445 2578,435 2582,445 2575,445"/>
<text text-anchor="middle" x="2514" y="726">B_full</text>
</g>
<g id="edge78" class="edge"><title>17&#45;&gt;2</title>
<path style="fill:none;stroke:black;" d="M2474,801C2493,804 2519,805 2535,791 2585,748 2573,562 2576,495 2578,479 2578,461 2579,445"/>
<polygon style="fill:black;stroke:black;" points="2576,445 2579,435 2583,445 2576,445"/>
<text text-anchor="middle" x="2514" y="788">B_arrtl</text>
</g>
<g id="edge80" class="edge"><title>17&#45;&gt;23</title>
<path style="fill:none;stroke:black;" d="M2468,812C2490,832 2527,865 2552,887"/>
<polygon style="fill:black;stroke:black;" points="2555,885 2560,894 2550,890 2555,885"/>
<text text-anchor="middle" x="2514" y="828">B_arrtr</text>
</g>
<g id="node26" class="node"><title>24</title>
<ellipse cx="2321" cy="767" rx="21" ry="21" style="fill:none;stroke:black;"/>
<ellipse cx="2321" cy="767" rx="25" ry="25" style="fill:none;stroke:black;"/>
<text text-anchor="middle" x="2321" y="772">24</text>
</g>
<g id="edge74" class="edge"><title>17&#45;&gt;24</title>
<path style="fill:none;stroke:black;" d="M2426,790C2406,786 2378,780 2356,775"/>
<polygon style="fill:black;stroke:black;" points="2355,778 2346,773 2356,772 2355,778"/>
<text text-anchor="middle" x="2386" y="773">B_wait</text>
</g>
<g id="edge86" class="edge"><title>18&#45;&gt;2</title>
<path style="fill:none;stroke:black;" d="M622,266C630,254 641,240 653,230 686,205 697,194 738,194 738,194 738,194 1265,194 1406,194 1442,192 1582,192 1582,192 1582,192 2450,192 2490,192 2508,191 2535,219 2585,272 2564,305 2576,376 2576,378 2577,379 2577,381"/>
<polygon style="fill:black;stroke:black;" points="2580,381 2578,391 2574,381 2580,381"/>
<text text-anchor="middle" x="1582" y="189">B_arrtl</text>
</g>
<g id="edge88" class="edge"><title>18&#45;&gt;2</title>
<path style="fill:none;stroke:black;" d="M632,276C657,263 699,244 738,244 738,244 738,244 1515,244 1683,244 1724,233 1891,233 1891,233 1891,233 2450,233 2525,233 2535,286 2567,353 2570,359 2571,361 2573,366 2575,371 2576,372 2576,376 2576,377 2577,379 2577,381"/>
<polygon style="fill:black;stroke:black;" points="2580,381 2578,391 2574,381 2580,381"/>
<text text-anchor="middle" x="1582" y="241">B_arrtr</text>
</g>
<g id="edge82" class="edge"><title>18&#45;&gt;6</title>
<path style="fill:none;stroke:black;" d="M622,310C630,320 637,324 653,330 670,337 691,334 707,331"/>
<polygon style="fill:black;stroke:black;" points="706,328 717,328 708,334 706,328"/>
<text text-anchor="middle" x="674" y="327">B_wait</text>
</g>
<g id="edge84" class="edge"><title>18&#45;&gt;11</title>
<path style="fill:none;stroke:black;" d="M613,313C624,336 633,341 653,356 669,369 689,378 706,385"/>
<polygon style="fill:black;stroke:black;" points="707,382 715,389 704,388 707,382"/>
<text text-anchor="middle" x="674" y="353">B_full</text>
</g>
<g id="edge92" class="edge"><title>19&#45;&gt;2</title>
<path style="fill:none;stroke:black;" d="M1909,719C1917,713 1926,706 1935,701 2182,585 2326,752 2535,578 2565,554 2562,536 2570,498 2574,482 2575,478 2576,461 2577,456 2577,451 2578,445"/>
<polygon style="fill:black;stroke:black;" points="2575,445 2578,435 2582,445 2575,445"/>
<text text-anchor="middle" x="2252" y="658">B_full</text>
</g>
<g id="edge94" class="edge"><title>19&#45;&gt;2</title>
<path style="fill:none;stroke:black;" d="M1915,731C1922,730 1929,728 1935,727 2174,685 2249,735 2475,649 2504,639 2515,639 2535,616 2563,586 2558,570 2567,529 2573,504 2574,497 2576,470 2577,462 2577,454 2578,445"/>
<polygon style="fill:black;stroke:black;" points="2575,445 2579,435 2581,445 2575,445"/>
<text text-anchor="middle" x="2252" y="698">B_arrtl</text>
</g>
<g id="edge90" class="edge"><title>19&#45;&gt;12</title>
<path style="fill:none;stroke:black;" d="M1916,743C1936,747 1964,753 1986,758"/>
<polygon style="fill:black;stroke:black;" points="1987,755 1996,761 1985,761 1987,755"/>
<text text-anchor="middle" x="1956" y="744">B_wait</text>
</g>
<g id="edge96" class="edge"><title>19&#45;&gt;13</title>
<path style="fill:none;stroke:black;" d="M1892,762C1892,765 1893,768 1893,769 1904,796 1911,804 1935,821 1973,845 2026,857 2060,862"/>
<polygon style="fill:black;stroke:black;" points="2060,859 2070,863 2060,865 2060,859"/>
<text text-anchor="middle" x="1956" y="815">B_arrtr</text>
</g>
<g id="edge98" class="edge"><title>20&#45;&gt;14</title>
<path style="fill:none;stroke:black;" d="M905,320C927,320 957,320 981,320"/>
<polygon style="fill:black;stroke:black;" points="981,316 991,320 981,323 981,316"/>
<text text-anchor="middle" x="948" y="317">B_STP</text>
</g>
<g id="edge100" class="edge"><title>21&#45;&gt;9</title>
<path style="fill:none;stroke:black;" d="M268,252C291,259 325,270 350,278"/>
<polygon style="fill:black;stroke:black;" points="351,275 360,281 349,281 351,275"/>
<text text-anchor="middle" x="314" y="256">B_WAIT</text>
</g>
<g id="edge104" class="edge"><title>22&#45;&gt;2</title>
<path style="fill:none;stroke:black;" d="M1915,571C1941,562 1983,549 2020,549 2020,549 2020,549 2450,549 2492,549 2506,541 2535,511 2554,493 2565,465 2571,444"/>
<polygon style="fill:black;stroke:black;" points="2568,443 2574,434 2574,445 2568,443"/>
<text text-anchor="middle" x="2252" y="546">B_full</text>
</g>
<g id="edge106" class="edge"><title>22&#45;&gt;2</title>
<path style="fill:none;stroke:black;" d="M1917,584C2026,595 2441,631 2535,549 2571,519 2566,496 2575,445"/>
<polygon style="fill:black;stroke:black;" points="2572,444 2577,435 2578,445 2572,444"/>
<text text-anchor="middle" x="2252" y="599">B_arrtl</text>
</g>
<g id="edge108" class="edge"><title>22&#45;&gt;2</title>
<path style="fill:none;stroke:black;" d="M1905,559C1913,553 1922,551 1935,546 1961,537 1969,541 1995,537 2115,521 2430,526 2535,467 2547,461 2556,451 2563,441"/>
<polygon style="fill:black;stroke:black;" points="2561,438 2569,432 2566,442 2561,438"/>
<text text-anchor="middle" x="2252" y="516">B_arrtr</text>
</g>
<g id="edge102" class="edge"><title>22&#45;&gt;12</title>
<path style="fill:none;stroke:black;" d="M1908,601C1931,628 1972,681 2004,734"/>
<polygon style="fill:black;stroke:black;" points="2007,733 2009,743 2001,736 2007,733"/>
<text text-anchor="middle" x="1956" y="630">B_wait</text>
</g>
<g id="edge110" class="edge"><title>23&#45;&gt;1</title>
<path style="fill:none;stroke:black;" d="M2563,933C2529,967 2505,977 2450,977 244,977 244,977 244,977 162,977 128,333 120,180"/>
<polygon style="fill:black;stroke:black;" points="117,180 120,170 124,180 117,180"/>
<text text-anchor="middle" x="1326" y="974">B_stp</text>
</g>
<g id="edge112" class="edge"><title>24&#45;&gt;17</title>
<path style="fill:none;stroke:black;" d="M2335,789C2343,796 2351,799 2365,804 2382,809 2401,808 2417,804"/>
<polygon style="fill:black;stroke:black;" points="2417,801 2427,802 2418,807 2417,801"/>
<text text-anchor="middle" x="2386" y="798">B_r</text>
</g>
<g id="edge114" class="edge"><title>25&#45;&gt;24</title>
<path style="fill:none;stroke:black;" d="M2203,767C2226,767 2260,767 2285,767"/>
<polygon style="fill:black;stroke:black;" points="2285,763 2295,767 2285,770 2285,763"/>
<text text-anchor="middle" x="2252" y="764">B_STP</text>
</g>
<g id="edge116" class="edge"><title>26&#45;&gt;18</title>
<path style="fill:none;stroke:black;" d="M525,288C540,288 559,288 575,288"/>
<polygon style="fill:black;stroke:black;" points="575,284 585,288 575,291 575,284"/>
<text text-anchor="middle" x="555" y="285">B_r</text>
</g>
<g id="edge118" class="edge"><title>27&#45;&gt;3</title>
<path style="fill:none;stroke:black;" d="M973,417C1030,418 1170,419 1233,419"/>
<polygon style="fill:black;stroke:black;" points="1233,415 1243,419 1233,422 1233,415"/>
<text text-anchor="middle" x="1080" y="416">B_STP</text>
</g>
</g>
</svg>
