<?xml version="1.0" encoding="UTF-8" standalone="no"?>
<!DOCTYPE svg PUBLIC "-//W3C//DTD SVG 1.0//EN"
 "http://www.w3.org/TR/2001/REC-SVG-20010904/DTD/svg10.dtd">
<!-- Generated by dot version 2.2 (Tue Sep 13 00:37:56 UTC 2005)
     For user: (msperk) Perk_Sebastian, Betreuer=Moor, mitarb, 01/05    Title: LC_A    Pages: 1 -->
<svg width="576pt" height="404pt"
 viewBox = "-1 -1 575 403"
 xmlns="http://www.w3.org/2000/svg">
<g id="graph0" class="graph" style="font-family:Times-Roman;font-size:14.00;">
<title>LC_A</title>
<g id="node1" class="node"><title>dot_dummyinit_1</title>
</g>
<g id="node3" class="node"><title>2</title>
<ellipse cx="119" cy="228" rx="18" ry="18" style="fill:none;stroke:black;"/>
<ellipse cx="119" cy="228" rx="22" ry="22" style="fill:none;stroke:black;"/>
<text text-anchor="middle" x="119" y="233">2</text>
</g>
<g id="edge2" class="edge"><title>dot_dummyinit_1&#45;&gt;2</title>
<path style="fill:none;stroke:black;" d="M59,228C68,228 77,228 87,228"/>
<polygon style="fill:black;stroke:black;" points="87,224 97,228 87,231 87,224"/>
</g>
<g id="node5" class="node"><title>3</title>
<ellipse cx="265" cy="124" rx="18" ry="18" style="fill:none;stroke:black;"/>
<ellipse cx="265" cy="124" rx="22" ry="22" style="fill:none;stroke:black;"/>
<text text-anchor="middle" x="265" y="129">3</text>
</g>
<g id="edge10" class="edge"><title>2&#45;&gt;3</title>
<path style="fill:none;stroke:black;" d="M123,206C129,174 143,117 159,104 182,87 214,97 237,108"/>
<polygon style="fill:black;stroke:black;" points="238,105 246,112 235,111 238,105"/>
<text text-anchor="middle" x="192" y="93">A_WAIT</text>
</g>
<g id="node6" class="node"><title>4</title>
<ellipse cx="265" cy="214" rx="18" ry="18" style="fill:none;stroke:black;"/>
<ellipse cx="265" cy="214" rx="22" ry="22" style="fill:none;stroke:black;"/>
<text text-anchor="middle" x="265" y="219">4</text>
</g>
<g id="edge12" class="edge"><title>2&#45;&gt;4</title>
<path style="fill:none;stroke:black;" d="M141,226C166,223 205,220 233,217"/>
<polygon style="fill:black;stroke:black;" points="233,214 243,216 233,220 233,214"/>
<text text-anchor="middle" x="192" y="217">A_FULL</text>
</g>
<g id="node9" class="node"><title>7</title>
<ellipse cx="265" cy="295" rx="18" ry="18" style="fill:none;stroke:black;"/>
<ellipse cx="265" cy="295" rx="22" ry="22" style="fill:none;stroke:black;"/>
<text text-anchor="middle" x="265" y="300">7</text>
</g>
<g id="edge14" class="edge"><title>2&#45;&gt;7</title>
<path style="fill:none;stroke:black;" d="M139,237C164,249 207,268 236,282"/>
<polygon style="fill:black;stroke:black;" points="237,279 245,286 234,285 237,279"/>
<text text-anchor="middle" x="192" y="244">A_ARRTR</text>
</g>
<g id="node4" class="node"><title>Err</title>
<ellipse cx="540" cy="124" rx="24" ry="24" style="fill:none;stroke:black;"/>
<ellipse cx="540" cy="124" rx="28" ry="28" style="fill:none;stroke:black;"/>
<text text-anchor="middle" x="540" y="129">Err</text>
</g>
<g id="node7" class="node"><title>5</title>
<ellipse cx="387" cy="214" rx="18" ry="18" style="fill:none;stroke:black;"/>
<ellipse cx="387" cy="214" rx="22" ry="22" style="fill:none;stroke:black;"/>
<text text-anchor="middle" x="387" y="219">5</text>
</g>
<g id="edge4" class="edge"><title>Err&#45;&gt;5</title>
<path style="fill:none;stroke:black;" d="M515,110C490,98 453,86 427,104 414,113 402,154 395,182"/>
<polygon style="fill:black;stroke:black;" points="398,183 392,192 392,181 398,183"/>
<text text-anchor="middle" x="460" y="93">A_STP</text>
</g>
<g id="edge6" class="edge"><title>Err&#45;&gt;5</title>
<path style="fill:none;stroke:black;" d="M511,127C487,130 452,138 427,156 417,164 408,175 402,185"/>
<polygon style="fill:black;stroke:black;" points="405,187 397,194 399,184 405,187"/>
<text text-anchor="middle" x="460" y="129">A_TR</text>
</g>
<g id="edge8" class="edge"><title>Err&#45;&gt;5</title>
<path style="fill:none;stroke:black;" d="M525,148C516,159 505,171 493,179 471,194 441,203 419,208"/>
<polygon style="fill:black;stroke:black;" points="419,211 409,210 418,205 419,211"/>
<text text-anchor="middle" x="460" y="176">A_FL</text>
</g>
<g id="edge16" class="edge"><title>3&#45;&gt;2</title>
<path style="fill:none;stroke:black;" d="M243,126C220,129 184,137 159,156 146,167 136,183 130,197"/>
<polygon style="fill:black;stroke:black;" points="133,199 126,207 126,196 133,199"/>
<text text-anchor="middle" x="192" y="128">A_STP</text>
</g>
<g id="edge18" class="edge"><title>3&#45;&gt;2</title>
<path style="fill:none;stroke:black;" d="M255,144C248,156 238,170 225,179 201,198 187,187 159,200 153,203 148,205 144,208"/>
<polygon style="fill:black;stroke:black;" points="146,211 136,214 142,205 146,211"/>
<text text-anchor="middle" x="192" y="176">A_FL</text>
</g>
<g id="edge20" class="edge"><title>4&#45;&gt;5</title>
<path style="fill:none;stroke:black;" d="M287,214C306,214 333,214 355,214"/>
<polygon style="fill:black;stroke:black;" points="355,210 365,214 355,217 355,210"/>
<text text-anchor="middle" x="326" y="211">A_STP</text>
</g>
<g id="edge24" class="edge"><title>5&#45;&gt;Err</title>
<path style="fill:none;stroke:black;" d="M388,192C388,188 389,184 389,182 394,160 419,82 427,76 452,60 466,67 493,76 507,80 514,84 521,90"/>
<polygon style="fill:black;stroke:black;" points="524,88 528,98 519,93 524,88"/>
<text text-anchor="middle" x="460" y="64">A_FULL</text>
</g>
<g id="edge26" class="edge"><title>5&#45;&gt;Err</title>
<path style="fill:none;stroke:black;" d="M407,224C430,233 467,244 493,228 517,214 528,185 534,162"/>
<polygon style="fill:black;stroke:black;" points="531,161 536,152 537,162 531,161"/>
<text text-anchor="middle" x="460" y="225">A_ARRTR</text>
</g>
<g id="node8" class="node"><title>6</title>
<ellipse cx="540" cy="332" rx="18" ry="18" style="fill:none;stroke:black;"/>
<ellipse cx="540" cy="332" rx="22" ry="22" style="fill:none;stroke:black;"/>
<text text-anchor="middle" x="540" y="337">6</text>
</g>
<g id="edge22" class="edge"><title>5&#45;&gt;6</title>
<path style="fill:none;stroke:black;" d="M396,234C405,245 413,248 427,258 455,279 489,301 512,316"/>
<polygon style="fill:black;stroke:black;" points="514,313 521,321 511,319 514,313"/>
<text text-anchor="middle" x="460" y="255">A_WAIT</text>
</g>
<g id="edge30" class="edge"><title>6&#45;&gt;2</title>
<path style="fill:none;stroke:black;" d="M521,344C513,345 506,344 493,345 464,348 457,347 427,345 340,341 183,328 159,313 137,299 132,289 123,260"/>
<polygon style="fill:black;stroke:black;" points="120,261 120,250 126,259 120,261"/>
<text text-anchor="middle" x="326" y="335">A_TR</text>
</g>
<g id="edge28" class="edge"><title>6&#45;&gt;5</title>
<path style="fill:none;stroke:black;" d="M518,337C494,340 454,343 427,323 397,300 399,281 392,246"/>
<polygon style="fill:black;stroke:black;" points="389,246 390,236 395,245 389,246"/>
<text text-anchor="middle" x="460" y="320">A_STP</text>
</g>
<g id="edge32" class="edge"><title>7&#45;&gt;2</title>
<path style="fill:none;stroke:black;" d="M244,301C221,307 186,312 159,297 140,286 135,275 129,259"/>
<polygon style="fill:black;stroke:black;" points="126,260 126,249 132,258 126,260"/>
<text text-anchor="middle" x="192" y="294">A_STP</text>
</g>
</g>
</svg>
