<?xml version="1.0" encoding="UTF-8" standalone="no"?>
<!DOCTYPE svg PUBLIC "-//W3C//DTD SVG 1.0//EN"
 "http://www.w3.org/TR/2001/REC-SVG-20010904/DTD/svg10.dtd" [
 <!ATTLIST svg xmlns:xlink CDATA #FIXED "http://www.w3.org/1999/xlink">
]>
<!-- Generated by Graphviz version 2.20.2 (Tue Mar &#160;2 21:46:26 UTC 2010)
     For user: (mtmoor) Prof. Thomas Moor -->
<!-- Title: Environment Constraint A Pages: 1 -->
<svg width="284pt" height="84pt"
 viewBox="0.00 0.00 284.00 84.00" xmlns="http://www.w3.org/2000/svg" xmlns:xlink="http://www.w3.org/1999/xlink">
<g id="graph0" class="graph" transform="scale(1 1) rotate(0) translate(4 80)">
<title>Environment Constraint A</title>
<polygon style="fill:white;stroke:white;" points="-4,4 -4,-80 280,-80 280,4 -4,4"/>
<!-- dot_dummyinit_1 -->
<g id="node1" class="node"><title>dot_dummyinit_1</title>
</g>
<!-- 1 -->
<g id="node3" class="node"><title>1</title>
<ellipse style="fill:none;stroke:black;" cx="114" cy="-39" rx="18" ry="18"/>
<ellipse style="fill:none;stroke:black;" cx="114" cy="-39" rx="22" ry="22"/>
<text text-anchor="middle" x="114" y="-34.9" style="font-family:Times New Roman;font-size:14.00;">1</text>
</g>
<!-- dot_dummyinit_1&#45;&gt;1 -->
<g id="edge2" class="edge"><title>dot_dummyinit_1&#45;&gt;1</title>
<path style="fill:none;stroke:black;" d="M54,-39C63,-39 72,-39 82,-39"/>
<polygon style="fill:black;stroke:black;" points="82,-42.5001 92,-39 82,-35.5001 82,-42.5001"/>
</g>
<!-- 2 -->
<g id="node4" class="node"><title>2</title>
<ellipse style="fill:none;stroke:black;" cx="254" cy="-39" rx="18" ry="18"/>
<ellipse style="fill:none;stroke:black;" cx="254" cy="-39" rx="22" ry="22"/>
<text text-anchor="middle" x="254" y="-34.9" style="font-family:Times New Roman;font-size:14.00;">2</text>
</g>
<!-- 1&#45;&gt;2 -->
<g id="edge4" class="edge"><title>1&#45;&gt;2</title>
<path style="fill:none;stroke:black;" d="M134,-49C140,-52 147,-55 154,-57 181,-62 188,-62 214,-57 218,-56 222,-55 225,-53"/>
<polygon style="fill:black;stroke:black;" points="227.015,-55.9636 235,-49 224.415,-49.4643 227.015,-55.9636"/>
<text text-anchor="middle" x="184" y="-63.9" style="font-family:Times New Roman;font-size:14.00;">req_fl_A</text>
</g>
<!-- 1&#45;&gt;2 -->
<g id="edge6" class="edge"><title>1&#45;&gt;2</title>
<path style="fill:none;stroke:black;" d="M136,-35C142,-34 148,-33 154,-33 181,-31 188,-31 214,-33 217,-33 219,-33 222,-33"/>
<polygon style="fill:black;stroke:black;" points="221.508,-36.4708 232,-35 222.881,-29.6067 221.508,-36.4708"/>
<text text-anchor="middle" x="184" y="-36.9" style="font-family:Times New Roman;font-size:14.00;">req_tr_A</text>
</g>
<!-- 2&#45;&gt;1 -->
<g id="edge8" class="edge"><title>2&#45;&gt;1</title>
<path style="fill:none;stroke:black;" d="M238,-23C232,-18 223,-12 214,-9 189,-0 180,-0 154,-9 148,-11 143,-14 138,-17"/>
<polygon style="fill:black;stroke:black;" points="135.9,-14.2 130,-23 140.1,-19.8 135.9,-14.2"/>
<text text-anchor="middle" x="184" y="-12.9" style="font-family:Times New Roman;font-size:14.00;">pack_A</text>
</g>
</g>
</svg>
