<?xml version="1.0" encoding="UTF-8" standalone="no"?>
<!DOCTYPE svg PUBLIC "-//W3C//DTD SVG 1.0//EN"
 "http://www.w3.org/TR/2001/REC-SVG-20010904/DTD/svg10.dtd">
<!-- Generated by dot version 2.2 (Tue Sep 13 00:37:56 UTC 2005)
     For user: (msperk) Perk_Sebastian, Betreuer=Moor, mitarb, 01/05    Title: FreeInput(FreeInput(hio &#45; simple machine A))    Pages: 1 -->
<svg width="732pt" height="219pt"
 viewBox = "-1 -1 731 218"
 xmlns="http://www.w3.org/2000/svg">
<g id="graph0" class="graph" transform = "scale(0.975610)"
 style="font-family:Times-Roman;font-size:14.00;">
<title>FreeInput(FreeInput(hio &#45; simple machine A))</title>
<g id="node1" class="node"><title>dot_dummyinit_1</title>
</g>
<g id="node3" class="node"><title>3</title>
<ellipse cx="119" cy="167" rx="18" ry="18" style="fill:none;stroke:black;"/>
<ellipse cx="119" cy="167" rx="22" ry="22" style="fill:none;stroke:black;"/>
<text text-anchor="middle" x="119" y="172">3</text>
</g>
<g id="edge2" class="edge"><title>dot_dummyinit_1&#45;&gt;3</title>
<path style="fill:none;stroke:black;" d="M59,167C68,167 77,167 87,167"/>
<polygon style="fill:black;stroke:black;" points="87,163 97,167 87,170 87,163"/>
</g>
<g id="node6" class="node"><title>4</title>
<ellipse cx="241" cy="139" rx="18" ry="18" style="fill:none;stroke:black;"/>
<ellipse cx="241" cy="139" rx="22" ry="22" style="fill:none;stroke:black;"/>
<text text-anchor="middle" x="241" y="144">4</text>
</g>
<g id="edge4" class="edge"><title>3&#45;&gt;4</title>
<path style="fill:none;stroke:black;" d="M141,162C160,158 188,151 209,146"/>
<polygon style="fill:black;stroke:black;" points="209,143 219,144 210,149 209,143"/>
<text text-anchor="middle" x="180" y="147">A_wait</text>
</g>
<g id="node4" class="node"><title>UpError</title>
<ellipse cx="395" cy="52" rx="44" ry="45" style="fill:none;stroke:black;"/>
<ellipse cx="395" cy="52" rx="48" ry="49" style="fill:none;stroke:black;"/>
<text text-anchor="middle" x="395" y="57">UpError</text>
</g>
<g id="node5" class="node"><title>UeError</title>
<ellipse cx="693" cy="167" rx="44" ry="45" style="fill:none;stroke:black;"/>
<ellipse cx="693" cy="167" rx="48" ry="49" style="fill:none;stroke:black;"/>
<text text-anchor="middle" x="693" y="172">UeError</text>
</g>
<g id="edge8" class="edge"><title>4&#45;&gt;UpError</title>
<path style="fill:none;stroke:black;" d="M260,128C281,116 315,97 343,81"/>
<polygon style="fill:black;stroke:black;" points="342,78 352,76 345,84 342,78"/>
<text text-anchor="middle" x="304" y="90">A_stp</text>
</g>
<g id="node7" class="node"><title>5</title>
<ellipse cx="395" cy="141" rx="18" ry="18" style="fill:none;stroke:black;"/>
<ellipse cx="395" cy="141" rx="22" ry="22" style="fill:none;stroke:black;"/>
<text text-anchor="middle" x="395" y="146">5</text>
</g>
<g id="edge6" class="edge"><title>4&#45;&gt;5</title>
<path style="fill:none;stroke:black;" d="M263,139C289,140 333,140 363,141"/>
<polygon style="fill:black;stroke:black;" points="363,137 373,141 363,144 363,137"/>
<text text-anchor="middle" x="304" y="138">A_do</text>
</g>
<g id="node8" class="node"><title>6</title>
<ellipse cx="539" cy="167" rx="18" ry="18" style="fill:none;stroke:black;"/>
<ellipse cx="539" cy="167" rx="22" ry="22" style="fill:none;stroke:black;"/>
<text text-anchor="middle" x="539" y="172">6</text>
</g>
<g id="edge10" class="edge"><title>5&#45;&gt;6</title>
<path style="fill:none;stroke:black;" d="M417,145C441,149 480,156 507,161"/>
<polygon style="fill:black;stroke:black;" points="508,158 517,163 507,164 508,158"/>
<text text-anchor="middle" x="481" y="152">A_req</text>
</g>
<g id="edge14" class="edge"><title>6&#45;&gt;3</title>
<path style="fill:none;stroke:black;" d="M517,169C498,170 470,171 445,172 338,175 210,171 151,168"/>
<polygon style="fill:black;stroke:black;" points="151,171 141,168 151,164 151,171"/>
<text text-anchor="middle" x="304" y="170">A_pack</text>
</g>
<g id="edge12" class="edge"><title>6&#45;&gt;UeError</title>
<path style="fill:none;stroke:black;" d="M561,167C580,167 608,167 633,167"/>
<polygon style="fill:black;stroke:black;" points="633,163 643,167 633,170 633,163"/>
<text text-anchor="middle" x="602" y="164">A_nack</text>
</g>
</g>
</svg>
