<?xml version="1.0" encoding="UTF-8" standalone="no"?>
<!DOCTYPE svg PUBLIC "-//W3C//DTD SVG 1.0//EN"
 "http://www.w3.org/TR/2001/REC-SVG-20010904/DTD/svg10.dtd" [
 <!ATTLIST svg xmlns:xlink CDATA #FIXED "http://www.w3.org/1999/xlink">
]>
<!-- Generated by Graphviz version 2.20.2 (Tue Mar &#160;2 21:46:26 UTC 2010)
     For user: (mtmoor) Prof. Thomas Moor -->
<!-- Title: Controller AB__aBCD__AB__CD__ABCD Pages: 1 -->
<svg width="720pt" height="150pt"
 viewBox="0.00 0.00 720.00 150.18" xmlns="http://www.w3.org/2000/svg" xmlns:xlink="http://www.w3.org/1999/xlink">
<g id="graph0" class="graph" transform="scale(0.305862 0.305862) rotate(0) translate(4 487)">
<title>Controller AB__aBCD__AB__CD__ABCD</title>
<polygon style="fill:white;stroke:white;" points="-4,4 -4,-487 2350,-487 2350,4 -4,4"/>
<!-- dot_dummyinit_1 -->
<g id="node1" class="node"><title>dot_dummyinit_1</title>
</g>
<!-- 1 -->
<g id="node3" class="node"><title>1</title>
<ellipse style="fill:none;stroke:black;" cx="114" cy="-92" rx="18" ry="18"/>
<ellipse style="fill:none;stroke:black;" cx="114" cy="-92" rx="22" ry="22"/>
<text text-anchor="middle" x="114" y="-87.9" style="font-family:Times New Roman;font-size:14.00;">1</text>
</g>
<!-- dot_dummyinit_1&#45;&gt;1 -->
<g id="edge2" class="edge"><title>dot_dummyinit_1&#45;&gt;1</title>
<path style="fill:none;stroke:black;" d="M54,-92C63,-92 72,-92 82,-92"/>
<polygon style="fill:black;stroke:black;" points="82,-95.5001 92,-92 82,-88.5001 82,-95.5001"/>
</g>
<!-- 7 -->
<g id="node9" class="node"><title>7</title>
<ellipse style="fill:none;stroke:black;" cx="236" cy="-63" rx="18" ry="18"/>
<ellipse style="fill:none;stroke:black;" cx="236" cy="-63" rx="22" ry="22"/>
<text text-anchor="middle" x="236" y="-58.9" style="font-family:Times New Roman;font-size:14.00;">7</text>
</g>
<!-- 1&#45;&gt;7 -->
<g id="edge4" class="edge"><title>1&#45;&gt;7</title>
<path style="fill:none;stroke:black;" d="M136,-87C142,-85 148,-83 154,-82 171,-78 189,-74 204,-70"/>
<polygon style="fill:black;stroke:black;" points="204.881,-73.3933 214,-68 203.508,-66.5292 204.881,-73.3933"/>
<text text-anchor="middle" x="175" y="-85.9" style="font-family:Times New Roman;font-size:14.00;">idle_B</text>
</g>
<!-- 19 -->
<g id="node21" class="node"><title>19</title>
<ellipse style="fill:none;stroke:black;" cx="1347" cy="-156" rx="23.1964" ry="23.1964"/>
<ellipse style="fill:none;stroke:black;" cx="1347" cy="-156" rx="27.1237" ry="27.1237"/>
<text text-anchor="middle" x="1347" y="-151.9" style="font-family:Times New Roman;font-size:14.00;">19</text>
</g>
<!-- 1&#45;&gt;19 -->
<g id="edge6" class="edge"><title>1&#45;&gt;19</title>
<path style="fill:none;stroke:black;" d="M135,-98C160,-104 200,-113 236,-113 236,-113 236,-113 733,-113 824,-113 847,-112 937,-112 937,-112 937,-112 1137,-112 1200,-112 1270,-131 1311,-144"/>
<polygon style="fill:black;stroke:black;" points="1310.42,-147.479 1321,-147 1312.43,-140.774 1310.42,-147.479"/>
<text text-anchor="middle" x="733" y="-116.9" style="font-family:Times New Roman;font-size:14.00;">idle_AB</text>
</g>
<!-- 2 -->
<g id="node4" class="node"><title>2</title>
<ellipse style="fill:none;stroke:black;" cx="2324" cy="-290" rx="18" ry="18"/>
<ellipse style="fill:none;stroke:black;" cx="2324" cy="-290" rx="22" ry="22"/>
<text text-anchor="middle" x="2324" y="-285.9" style="font-family:Times New Roman;font-size:14.00;">2</text>
</g>
<!-- 3 -->
<g id="node5" class="node"><title>3</title>
<ellipse style="fill:none;stroke:black;" cx="2192" cy="-250" rx="18" ry="18"/>
<ellipse style="fill:none;stroke:black;" cx="2192" cy="-250" rx="22" ry="22"/>
<text text-anchor="middle" x="2192" y="-245.9" style="font-family:Times New Roman;font-size:14.00;">3</text>
</g>
<!-- 2&#45;&gt;3 -->
<g id="edge10" class="edge"><title>2&#45;&gt;3</title>
<path style="fill:none;stroke:black;" d="M2302,-286C2283,-282 2256,-276 2232,-268 2229,-266 2225,-265 2222,-263"/>
<polygon style="fill:black;stroke:black;" points="2222.58,-259.521 2212,-260 2220.57,-266.226 2222.58,-259.521"/>
<text text-anchor="middle" x="2258" y="-283.9" style="font-family:Times New Roman;font-size:14.00;">idle_AB</text>
</g>
<!-- 10 -->
<g id="node12" class="node"><title>10</title>
<ellipse style="fill:none;stroke:black;" cx="516" cy="-288" rx="23.1964" ry="23.1964"/>
<ellipse style="fill:none;stroke:black;" cx="516" cy="-288" rx="27.1237" ry="27.1237"/>
<text text-anchor="middle" x="516" y="-283.9" style="font-family:Times New Roman;font-size:14.00;">10</text>
</g>
<!-- 2&#45;&gt;10 -->
<g id="edge8" class="edge"><title>2&#45;&gt;10</title>
<path style="fill:none;stroke:black;" d="M2312,-309C2291,-338 2246,-391 2192,-391 661,-391 661,-391 661,-391 610,-391 564,-348 538,-318"/>
<polygon style="fill:black;stroke:black;" points="540.8,-315.9 532,-310 535.2,-320.1 540.8,-315.9"/>
<text text-anchor="middle" x="1418" y="-394.9" style="font-family:Times New Roman;font-size:14.00;">idle_B</text>
</g>
<!-- 3&#45;&gt;2 -->
<g id="edge14" class="edge"><title>3&#45;&gt;2</title>
<path style="fill:none;stroke:black;" d="M2213,-243C2233,-238 2262,-234 2284,-244 2293,-248 2301,-255 2307,-263"/>
<polygon style="fill:black;stroke:black;" points="2304.2,-265.1 2313,-271 2309.8,-260.9 2304.2,-265.1"/>
<text text-anchor="middle" x="2258" y="-247.9" style="font-family:Times New Roman;font-size:14.00;">stby_A</text>
</g>
<!-- 15 -->
<g id="node17" class="node"><title>15</title>
<ellipse style="fill:none;stroke:black;" cx="937" cy="-236" rx="23.1964" ry="23.1964"/>
<ellipse style="fill:none;stroke:black;" cx="937" cy="-236" rx="27.1237" ry="27.1237"/>
<text text-anchor="middle" x="937" y="-231.9" style="font-family:Times New Roman;font-size:14.00;">15</text>
</g>
<!-- 3&#45;&gt;15 -->
<g id="edge12" class="edge"><title>3&#45;&gt;15</title>
<path style="fill:none;stroke:black;" d="M2170,-250C2144,-250 2100,-250 2061,-250 1137,-250 1137,-250 1137,-250 1068,-250 1051,-246 982,-241 979,-241 977,-240 974,-240"/>
<polygon style="fill:black;stroke:black;" points="974.299,-236.512 964,-239 973.602,-243.478 974.299,-236.512"/>
<text text-anchor="middle" x="1562" y="-253.9" style="font-family:Times New Roman;font-size:14.00;">l2r_A</text>
</g>
<!-- 4 -->
<g id="node6" class="node"><title>4</title>
<ellipse style="fill:none;stroke:black;" cx="1635" cy="-131" rx="18" ry="18"/>
<ellipse style="fill:none;stroke:black;" cx="1635" cy="-131" rx="22" ry="22"/>
<text text-anchor="middle" x="1635" y="-126.9" style="font-family:Times New Roman;font-size:14.00;">4</text>
</g>
<!-- 11 -->
<g id="node13" class="node"><title>11</title>
<ellipse style="fill:none;stroke:black;" cx="2061" cy="-104" rx="23.1964" ry="23.1964"/>
<ellipse style="fill:none;stroke:black;" cx="2061" cy="-104" rx="27.1237" ry="27.1237"/>
<text text-anchor="middle" x="2061" y="-99.9" style="font-family:Times New Roman;font-size:14.00;">11</text>
</g>
<!-- 4&#45;&gt;11 -->
<g id="edge18" class="edge"><title>4&#45;&gt;11</title>
<path style="fill:none;stroke:black;" d="M1657,-132C1716,-133 1881,-134 2016,-115 2019,-115 2022,-114 2025,-113"/>
<polygon style="fill:black;stroke:black;" points="2025.88,-116.393 2035,-111 2024.51,-109.529 2025.88,-116.393"/>
<text text-anchor="middle" x="1846" y="-132.9" style="font-family:Times New Roman;font-size:14.00;">idle_AB</text>
</g>
<!-- 18 -->
<g id="node20" class="node"><title>18</title>
<ellipse style="fill:none;stroke:black;" cx="1489" cy="-169" rx="23.1964" ry="23.1964"/>
<ellipse style="fill:none;stroke:black;" cx="1489" cy="-169" rx="27.1237" ry="27.1237"/>
<text text-anchor="middle" x="1489" y="-164.9" style="font-family:Times New Roman;font-size:14.00;">18</text>
</g>
<!-- 4&#45;&gt;18 -->
<g id="edge16" class="edge"><title>4&#45;&gt;18</title>
<path style="fill:none;stroke:black;" d="M1614,-139C1607,-142 1598,-145 1590,-147 1569,-153 1545,-158 1526,-162"/>
<polygon style="fill:black;stroke:black;" points="1525.12,-158.607 1516,-164 1526.49,-165.471 1525.12,-158.607"/>
<text text-anchor="middle" x="1562" y="-162.9" style="font-family:Times New Roman;font-size:14.00;">stby_A</text>
</g>
<!-- 5 -->
<g id="node7" class="node"><title>5</title>
<ellipse style="fill:none;stroke:black;" cx="800" cy="-236" rx="18" ry="18"/>
<ellipse style="fill:none;stroke:black;" cx="800" cy="-236" rx="22" ry="22"/>
<text text-anchor="middle" x="800" y="-231.9" style="font-family:Times New Roman;font-size:14.00;">5</text>
</g>
<!-- 5&#45;&gt;15 -->
<g id="edge20" class="edge"><title>5&#45;&gt;15</title>
<path style="fill:none;stroke:black;" d="M822,-236C843,-236 875,-236 900,-236"/>
<polygon style="fill:black;stroke:black;" points="900,-239.5 910,-236 900,-232.5 900,-239.5"/>
<text text-anchor="middle" x="866" y="-239.9" style="font-family:Times New Roman;font-size:14.00;">l2r_A</text>
</g>
<!-- 6 -->
<g id="node8" class="node"><title>6</title>
<ellipse style="fill:none;stroke:black;" cx="1074" cy="-300" rx="18" ry="18"/>
<ellipse style="fill:none;stroke:black;" cx="1074" cy="-300" rx="22" ry="22"/>
<text text-anchor="middle" x="1074" y="-295.9" style="font-family:Times New Roman;font-size:14.00;">6</text>
</g>
<!-- 12 -->
<g id="node14" class="node"><title>12</title>
<ellipse style="fill:none;stroke:black;" cx="1205" cy="-305" rx="23.1964" ry="23.1964"/>
<ellipse style="fill:none;stroke:black;" cx="1205" cy="-305" rx="27.1237" ry="27.1237"/>
<text text-anchor="middle" x="1205" y="-300.9" style="font-family:Times New Roman;font-size:14.00;">12</text>
</g>
<!-- 6&#45;&gt;12 -->
<g id="edge22" class="edge"><title>6&#45;&gt;12</title>
<path style="fill:none;stroke:black;" d="M1096,-301C1116,-302 1145,-303 1168,-304"/>
<polygon style="fill:black;stroke:black;" points="1168,-307.5 1178,-304 1168,-300.5 1168,-307.5"/>
<text text-anchor="middle" x="1137" y="-305.9" style="font-family:Times New Roman;font-size:14.00;">l2r_B</text>
</g>
<!-- 16 -->
<g id="node18" class="node"><title>16</title>
<ellipse style="fill:none;stroke:black;" cx="373" cy="-351" rx="23.1964" ry="23.1964"/>
<ellipse style="fill:none;stroke:black;" cx="373" cy="-351" rx="27.1237" ry="27.1237"/>
<text text-anchor="middle" x="373" y="-346.9" style="font-family:Times New Roman;font-size:14.00;">16</text>
</g>
<!-- 7&#45;&gt;16 -->
<g id="edge26" class="edge"><title>7&#45;&gt;16</title>
<path style="fill:none;stroke:black;" d="M246,-83C269,-132 329,-257 357,-317"/>
<polygon style="fill:black;stroke:black;" points="353.74,-318.283 361,-326 360.137,-315.44 353.74,-318.283"/>
<text text-anchor="middle" x="302" y="-251.9" style="font-family:Times New Roman;font-size:14.00;">idle_AB</text>
</g>
<!-- 17 -->
<g id="node19" class="node"><title>17</title>
<ellipse style="fill:none;stroke:black;" cx="373" cy="-58" rx="23.1964" ry="23.1964"/>
<ellipse style="fill:none;stroke:black;" cx="373" cy="-58" rx="27.1237" ry="27.1237"/>
<text text-anchor="middle" x="373" y="-53.9" style="font-family:Times New Roman;font-size:14.00;">17</text>
</g>
<!-- 7&#45;&gt;17 -->
<g id="edge24" class="edge"><title>7&#45;&gt;17</title>
<path style="fill:none;stroke:black;" d="M254,-50C261,-46 269,-42 276,-40 299,-34 306,-35 328,-40 332,-41 335,-42 339,-43"/>
<polygon style="fill:black;stroke:black;" points="338.416,-46.4788 349,-46 340.427,-39.7741 338.416,-46.4788"/>
<text text-anchor="middle" x="302" y="-43.9" style="font-family:Times New Roman;font-size:14.00;">stby_B</text>
</g>
<!-- 8 -->
<g id="node10" class="node"><title>8</title>
<ellipse style="fill:none;stroke:black;" cx="1635" cy="-322" rx="18" ry="18"/>
<ellipse style="fill:none;stroke:black;" cx="1635" cy="-322" rx="22" ry="22"/>
<text text-anchor="middle" x="1635" y="-317.9" style="font-family:Times New Roman;font-size:14.00;">8</text>
</g>
<!-- 8&#45;&gt;16 -->
<g id="edge28" class="edge"><title>8&#45;&gt;16</title>
<path style="fill:none;stroke:black;" d="M1616,-333C1582,-352 1510,-391 1444,-412 1312,-454 1276,-467 1137,-467 516,-467 516,-467 516,-467 468,-467 455,-449 418,-417 408,-407 399,-395 391,-384"/>
<polygon style="fill:black;stroke:black;" points="393.916,-382.042 386,-375 387.797,-385.441 393.916,-382.042"/>
<text text-anchor="middle" x="1008" y="-470.9" style="font-family:Times New Roman;font-size:14.00;">idle_AB</text>
</g>
<!-- 9 -->
<g id="node11" class="node"><title>9</title>
<ellipse style="fill:none;stroke:black;" cx="1074" cy="-200" rx="18" ry="18"/>
<ellipse style="fill:none;stroke:black;" cx="1074" cy="-200" rx="22" ry="22"/>
<text text-anchor="middle" x="1074" y="-195.9" style="font-family:Times New Roman;font-size:14.00;">9</text>
</g>
<!-- 9&#45;&gt;15 -->
<g id="edge30" class="edge"><title>9&#45;&gt;15</title>
<path style="fill:none;stroke:black;" d="M1054,-190C1035,-182 1005,-173 982,-184 972,-189 964,-196 957,-205"/>
<polygon style="fill:black;stroke:black;" points="954.2,-202.9 951,-213 959.8,-207.1 954.2,-202.9"/>
<text text-anchor="middle" x="1008" y="-187.9" style="font-family:Times New Roman;font-size:14.00;">stby_A</text>
</g>
<!-- 14 -->
<g id="node16" class="node"><title>14</title>
<ellipse style="fill:none;stroke:black;" cx="661" cy="-248" rx="23.1964" ry="23.1964"/>
<ellipse style="fill:none;stroke:black;" cx="661" cy="-248" rx="27.1237" ry="27.1237"/>
<text text-anchor="middle" x="661" y="-243.9" style="font-family:Times New Roman;font-size:14.00;">14</text>
</g>
<!-- 10&#45;&gt;14 -->
<g id="edge32" class="edge"><title>10&#45;&gt;14</title>
<path style="fill:none;stroke:black;" d="M543,-283C563,-279 592,-273 616,-266 620,-265 623,-264 626,-262"/>
<polygon style="fill:black;stroke:black;" points="627.427,-265.226 636,-259 625.416,-258.521 627.427,-265.226"/>
<text text-anchor="middle" x="589" y="-281.9" style="font-family:Times New Roman;font-size:14.00;">stby_B</text>
</g>
<!-- 11&#45;&gt;3 -->
<g id="edge34" class="edge"><title>11&#45;&gt;3</title>
<path style="fill:none;stroke:black;" d="M2079,-124C2103,-151 2145,-197 2170,-225"/>
<polygon style="fill:black;stroke:black;" points="2167.78,-227.779 2177,-233 2173.05,-223.169 2167.78,-227.779"/>
<text text-anchor="middle" x="2129" y="-204.9" style="font-family:Times New Roman;font-size:14.00;">l2r_AB</text>
</g>
<!-- 21 -->
<g id="node23" class="node"><title>21</title>
<ellipse style="fill:none;stroke:black;" cx="1635" cy="-58" rx="23.1964" ry="23.1964"/>
<ellipse style="fill:none;stroke:black;" cx="1635" cy="-58" rx="27.1237" ry="27.1237"/>
<text text-anchor="middle" x="1635" y="-53.9" style="font-family:Times New Roman;font-size:14.00;">21</text>
</g>
<!-- 11&#45;&gt;21 -->
<g id="edge36" class="edge"><title>11&#45;&gt;21</title>
<path style="fill:none;stroke:black;" d="M2039,-88C2006,-64 1939,-23 1874,-10 1819,1 1802,-1 1746,-13 1719,-19 1690,-31 1668,-41"/>
<polygon style="fill:black;stroke:black;" points="1666.72,-37.7402 1659,-45 1669.56,-44.1369 1666.72,-37.7402"/>
<text text-anchor="middle" x="1846" y="-13.9" style="font-family:Times New Roman;font-size:14.00;">stby_AB</text>
</g>
<!-- 12&#45;&gt;19 -->
<g id="edge40" class="edge"><title>12&#45;&gt;19</title>
<path style="fill:none;stroke:black;" d="M1224,-285C1249,-259 1293,-213 1321,-184"/>
<polygon style="fill:black;stroke:black;" points="1324.05,-185.831 1328,-176 1318.78,-181.221 1324.05,-185.831"/>
<text text-anchor="middle" x="1276" y="-259.9" style="font-family:Times New Roman;font-size:14.00;">idle_AB</text>
</g>
<!-- 23 -->
<g id="node25" class="node"><title>23</title>
<ellipse style="fill:none;stroke:black;" cx="1347" cy="-336" rx="23.1964" ry="23.1964"/>
<ellipse style="fill:none;stroke:black;" cx="1347" cy="-336" rx="27.1237" ry="27.1237"/>
<text text-anchor="middle" x="1347" y="-331.9" style="font-family:Times New Roman;font-size:14.00;">23</text>
</g>
<!-- 12&#45;&gt;23 -->
<g id="edge38" class="edge"><title>12&#45;&gt;23</title>
<path style="fill:none;stroke:black;" d="M1231,-312C1237,-314 1244,-315 1250,-317 1270,-321 1292,-325 1310,-329"/>
<polygon style="fill:black;stroke:black;" points="1309.51,-332.471 1320,-331 1310.88,-325.607 1309.51,-332.471"/>
<text text-anchor="middle" x="1276" y="-329.9" style="font-family:Times New Roman;font-size:14.00;">idle_B</text>
</g>
<!-- 13 -->
<g id="node15" class="node"><title>13</title>
<ellipse style="fill:none;stroke:black;" cx="1489" cy="-85" rx="23.1964" ry="23.1964"/>
<ellipse style="fill:none;stroke:black;" cx="1489" cy="-85" rx="27.1237" ry="27.1237"/>
<text text-anchor="middle" x="1489" y="-80.9" style="font-family:Times New Roman;font-size:14.00;">13</text>
</g>
<!-- 13&#45;&gt;5 -->
<g id="edge42" class="edge"><title>13&#45;&gt;5</title>
<path style="fill:none;stroke:black;" d="M1462,-90C1386,-106 1170,-150 1137,-150 937,-150 937,-150 937,-150 891,-150 847,-186 822,-212"/>
<polygon style="fill:black;stroke:black;" points="819.596,-209.454 815,-219 824.546,-214.404 819.596,-209.454"/>
<text text-anchor="middle" x="1137" y="-153.9" style="font-family:Times New Roman;font-size:14.00;">l2r_AB</text>
</g>
<!-- 13&#45;&gt;21 -->
<g id="edge44" class="edge"><title>13&#45;&gt;21</title>
<path style="fill:none;stroke:black;" d="M1516,-80C1539,-76 1573,-70 1598,-65"/>
<polygon style="fill:black;stroke:black;" points="1598.88,-68.3933 1608,-63 1597.51,-61.5292 1598.88,-68.3933"/>
<text text-anchor="middle" x="1562" y="-79.9" style="font-family:Times New Roman;font-size:14.00;">stby_AB</text>
</g>
<!-- 14&#45;&gt;5 -->
<g id="edge48" class="edge"><title>14&#45;&gt;5</title>
<path style="fill:none;stroke:black;" d="M688,-246C712,-243 744,-241 768,-239"/>
<polygon style="fill:black;stroke:black;" points="768.398,-242.478 778,-238 767.701,-235.512 768.398,-242.478"/>
<text text-anchor="middle" x="733" y="-246.9" style="font-family:Times New Roman;font-size:14.00;">idle_AB</text>
</g>
<!-- 14&#45;&gt;10 -->
<g id="edge46" class="edge"><title>14&#45;&gt;10</title>
<path style="fill:none;stroke:black;" d="M634,-241C614,-238 585,-235 562,-245 554,-248 547,-253 541,-259"/>
<polygon style="fill:black;stroke:black;" points="538.221,-256.781 533,-266 542.831,-262.049 538.221,-256.781"/>
<text text-anchor="middle" x="589" y="-248.9" style="font-family:Times New Roman;font-size:14.00;">idle_B</text>
</g>
<!-- 15&#45;&gt;6 -->
<g id="edge50" class="edge"><title>15&#45;&gt;6</title>
<path style="fill:none;stroke:black;" d="M958,-253C965,-259 974,-265 982,-269 1001,-278 1025,-286 1043,-291"/>
<polygon style="fill:black;stroke:black;" points="1042.42,-294.479 1053,-294 1044.43,-287.774 1042.42,-294.479"/>
<text text-anchor="middle" x="1008" y="-290.9" style="font-family:Times New Roman;font-size:14.00;">idle_B</text>
</g>
<!-- 15&#45;&gt;9 -->
<g id="edge52" class="edge"><title>15&#45;&gt;9</title>
<path style="fill:none;stroke:black;" d="M963,-229C969,-227 976,-226 982,-224 1002,-219 1024,-213 1042,-208"/>
<polygon style="fill:black;stroke:black;" points="1042.88,-211.393 1052,-206 1041.51,-204.529 1042.88,-211.393"/>
<text text-anchor="middle" x="1008" y="-227.9" style="font-family:Times New Roman;font-size:14.00;">idle_AB</text>
</g>
<!-- 16&#45;&gt;10 -->
<g id="edge54" class="edge"><title>16&#45;&gt;10</title>
<path style="fill:none;stroke:black;" d="M395,-334C402,-329 410,-324 418,-320 438,-310 462,-303 480,-297"/>
<polygon style="fill:black;stroke:black;" points="481.427,-300.226 490,-294 479.416,-293.521 481.427,-300.226"/>
<text text-anchor="middle" x="444" y="-323.9" style="font-family:Times New Roman;font-size:14.00;">l2r_AB</text>
</g>
<!-- 20 -->
<g id="node22" class="node"><title>20</title>
<ellipse style="fill:none;stroke:black;" cx="733" cy="-348" rx="23.1964" ry="23.1964"/>
<ellipse style="fill:none;stroke:black;" cx="733" cy="-348" rx="27.1237" ry="27.1237"/>
<text text-anchor="middle" x="733" y="-343.9" style="font-family:Times New Roman;font-size:14.00;">20</text>
</g>
<!-- 16&#45;&gt;20 -->
<g id="edge56" class="edge"><title>16&#45;&gt;20</title>
<path style="fill:none;stroke:black;" d="M400,-351C464,-350 623,-349 696,-348"/>
<polygon style="fill:black;stroke:black;" points="696,-351.5 706,-348 696,-344.5 696,-351.5"/>
<text text-anchor="middle" x="516" y="-352.9" style="font-family:Times New Roman;font-size:14.00;">stby_AB</text>
</g>
<!-- 17&#45;&gt;7 -->
<g id="edge58" class="edge"><title>17&#45;&gt;7</title>
<path style="fill:none;stroke:black;" d="M346,-59C323,-60 292,-61 268,-62"/>
<polygon style="fill:black;stroke:black;" points="268,-58.5001 258,-62 268,-65.5001 268,-58.5001"/>
<text text-anchor="middle" x="302" y="-63.9" style="font-family:Times New Roman;font-size:14.00;">idle_B</text>
</g>
<!-- 22 -->
<g id="node24" class="node"><title>22</title>
<ellipse style="fill:none;stroke:black;" cx="589" cy="-58" rx="23.1964" ry="23.1964"/>
<ellipse style="fill:none;stroke:black;" cx="589" cy="-58" rx="27.1237" ry="27.1237"/>
<text text-anchor="middle" x="589" y="-53.9" style="font-family:Times New Roman;font-size:14.00;">22</text>
</g>
<!-- 17&#45;&gt;22 -->
<g id="edge60" class="edge"><title>17&#45;&gt;22</title>
<path style="fill:none;stroke:black;" d="M400,-58C438,-58 508,-58 552,-58"/>
<polygon style="fill:black;stroke:black;" points="552,-61.5001 562,-58 552,-54.5001 552,-61.5001"/>
<text text-anchor="middle" x="444" y="-61.9" style="font-family:Times New Roman;font-size:14.00;">idle_AB</text>
</g>
<!-- 18&#45;&gt;4 -->
<g id="edge64" class="edge"><title>18&#45;&gt;4</title>
<path style="fill:none;stroke:black;" d="M1506,-147C1513,-139 1523,-130 1534,-126 1556,-117 1584,-119 1604,-123"/>
<polygon style="fill:black;stroke:black;" points="1603.51,-126.471 1614,-125 1604.88,-119.607 1603.51,-126.471"/>
<text text-anchor="middle" x="1562" y="-129.9" style="font-family:Times New Roman;font-size:14.00;">idle_AB</text>
</g>
<!-- 18&#45;&gt;8 -->
<g id="edge62" class="edge"><title>18&#45;&gt;8</title>
<path style="fill:none;stroke:black;" d="M1515,-177C1541,-186 1579,-200 1590,-211 1612,-232 1623,-265 1629,-290"/>
<polygon style="fill:black;stroke:black;" points="1625.61,-290.881 1631,-300 1632.47,-289.508 1625.61,-290.881"/>
<text text-anchor="middle" x="1562" y="-214.9" style="font-family:Times New Roman;font-size:14.00;">idle_B</text>
</g>
<!-- 19&#45;&gt;13 -->
<g id="edge68" class="edge"><title>19&#45;&gt;13</title>
<path style="fill:none;stroke:black;" d="M1371,-144C1394,-132 1429,-114 1455,-102"/>
<polygon style="fill:black;stroke:black;" points="1456.96,-104.916 1464,-97 1453.56,-98.7969 1456.96,-104.916"/>
<text text-anchor="middle" x="1418" y="-135.9" style="font-family:Times New Roman;font-size:14.00;">idle_AB</text>
</g>
<!-- 19&#45;&gt;18 -->
<g id="edge66" class="edge"><title>19&#45;&gt;18</title>
<path style="fill:none;stroke:black;" d="M1374,-158C1396,-160 1427,-163 1452,-165"/>
<polygon style="fill:black;stroke:black;" points="1451.7,-168.488 1462,-166 1452.4,-161.522 1451.7,-168.488"/>
<text text-anchor="middle" x="1418" y="-167.9" style="font-family:Times New Roman;font-size:14.00;">stby_A</text>
</g>
<!-- 20&#45;&gt;12 -->
<g id="edge70" class="edge"><title>20&#45;&gt;12</title>
<path style="fill:none;stroke:black;" d="M760,-347C821,-346 971,-341 1096,-331 1125,-328 1133,-330 1160,-323 1164,-322 1167,-321 1171,-320"/>
<polygon style="fill:black;stroke:black;" points="1172.28,-323.26 1180,-316 1169.44,-316.863 1172.28,-323.26"/>
<text text-anchor="middle" x="937" y="-344.9" style="font-family:Times New Roman;font-size:14.00;">stby_B</text>
</g>
<!-- 25 -->
<g id="node27" class="node"><title>25</title>
<ellipse style="fill:none;stroke:black;" cx="1773" cy="-49" rx="23.1964" ry="23.1964"/>
<ellipse style="fill:none;stroke:black;" cx="1773" cy="-49" rx="27.1237" ry="27.1237"/>
<text text-anchor="middle" x="1773" y="-44.9" style="font-family:Times New Roman;font-size:14.00;">25</text>
</g>
<!-- 21&#45;&gt;25 -->
<g id="edge72" class="edge"><title>21&#45;&gt;25</title>
<path style="fill:none;stroke:black;" d="M1662,-56C1683,-55 1712,-53 1736,-52"/>
<polygon style="fill:black;stroke:black;" points="1736.4,-55.4778 1746,-51 1735.7,-48.5125 1736.4,-55.4778"/>
<text text-anchor="middle" x="1704" y="-57.9" style="font-family:Times New Roman;font-size:14.00;">stby_A</text>
</g>
<!-- 22&#45;&gt;13 -->
<g id="edge74" class="edge"><title>22&#45;&gt;13</title>
<path style="fill:none;stroke:black;" d="M616,-58C645,-58 692,-58 733,-58 733,-58 733,-58 1347,-58 1384,-58 1425,-67 1453,-74"/>
<polygon style="fill:black;stroke:black;" points="1452.42,-77.4788 1463,-77 1454.43,-70.7741 1452.42,-77.4788"/>
<text text-anchor="middle" x="1008" y="-61.9" style="font-family:Times New Roman;font-size:14.00;">idle_AB</text>
</g>
<!-- 23&#45;&gt;12 -->
<g id="edge76" class="edge"><title>23&#45;&gt;12</title>
<path style="fill:none;stroke:black;" d="M1331,-314C1323,-306 1313,-297 1302,-293 1283,-285 1259,-288 1240,-292"/>
<polygon style="fill:black;stroke:black;" points="1238.57,-288.774 1230,-295 1240.58,-295.479 1238.57,-288.774"/>
<text text-anchor="middle" x="1276" y="-296.9" style="font-family:Times New Roman;font-size:14.00;">stby_B</text>
</g>
<!-- 23&#45;&gt;16 -->
<g id="edge78" class="edge"><title>23&#45;&gt;16</title>
<path style="fill:none;stroke:black;" d="M1330,-357C1305,-385 1258,-429 1205,-429 516,-429 516,-429 516,-429 472,-429 428,-399 401,-377"/>
<polygon style="fill:black;stroke:black;" points="402.831,-373.951 393,-370 398.221,-379.219 402.831,-373.951"/>
<text text-anchor="middle" x="866" y="-432.9" style="font-family:Times New Roman;font-size:14.00;">idle_AB</text>
</g>
<!-- 24 -->
<g id="node26" class="node"><title>24</title>
<ellipse style="fill:none;stroke:black;" cx="1919" cy="-76" rx="23.1964" ry="23.1964"/>
<ellipse style="fill:none;stroke:black;" cx="1919" cy="-76" rx="27.1237" ry="27.1237"/>
<text text-anchor="middle" x="1919" y="-71.9" style="font-family:Times New Roman;font-size:14.00;">24</text>
</g>
<!-- 24&#45;&gt;11 -->
<g id="edge82" class="edge"><title>24&#45;&gt;11</title>
<path style="fill:none;stroke:black;" d="M1946,-81C1968,-85 2000,-92 2024,-97"/>
<polygon style="fill:black;stroke:black;" points="2023.51,-100.471 2034,-99 2024.88,-93.6067 2023.51,-100.471"/>
<text text-anchor="middle" x="1990" y="-97.9" style="font-family:Times New Roman;font-size:14.00;">idle_AB</text>
</g>
<!-- 24&#45;&gt;25 -->
<g id="edge80" class="edge"><title>24&#45;&gt;25</title>
<path style="fill:none;stroke:black;" d="M1901,-55C1893,-48 1884,-41 1874,-38 1854,-30 1829,-33 1809,-37"/>
<polygon style="fill:black;stroke:black;" points="1807.57,-33.7741 1799,-40 1809.58,-40.4788 1807.57,-33.7741"/>
<text text-anchor="middle" x="1846" y="-41.9" style="font-family:Times New Roman;font-size:14.00;">stby_A</text>
</g>
<!-- 25&#45;&gt;7 -->
<g id="edge84" class="edge"><title>25&#45;&gt;7</title>
<path style="fill:none;stroke:black;" d="M1749,-36C1722,-23 1677,-4 1635,-3 373,-3 373,-3 373,-3 329,-4 316,-10 276,-30 270,-33 265,-36 260,-40"/>
<polygon style="fill:black;stroke:black;" points="257.221,-37.7809 252,-47 261.831,-43.0489 257.221,-37.7809"/>
<text text-anchor="middle" x="1008" y="-7.9" style="font-family:Times New Roman;font-size:14.00;">idle_B</text>
</g>
<!-- 25&#45;&gt;24 -->
<g id="edge86" class="edge"><title>25&#45;&gt;24</title>
<path style="fill:none;stroke:black;" d="M1800,-54C1823,-58 1857,-64 1882,-69"/>
<polygon style="fill:black;stroke:black;" points="1881.51,-72.4708 1892,-71 1882.88,-65.6067 1881.51,-72.4708"/>
<text text-anchor="middle" x="1846" y="-69.9" style="font-family:Times New Roman;font-size:14.00;">idle_AB</text>
</g>
</g>
</svg>
