<?xml version="1.0" encoding="UTF-8" standalone="no"?>
<!DOCTYPE svg PUBLIC "-//W3C//DTD SVG 1.0//EN"
 "http://www.w3.org/TR/2001/REC-SVG-20010904/DTD/svg10.dtd" [
 <!ATTLIST svg xmlns:xlink CDATA #FIXED "http://www.w3.org/1999/xlink">
]>
<!-- Generated by Graphviz version 2.20.2 (Tue Mar &#160;2 21:46:26 UTC 2010)
     For user: (mtmoor) Prof. Thomas Moor -->
<!-- Title: Environment Constraint AB Pages: 1 -->
<svg width="294pt" height="85pt"
 viewBox="0.00 0.00 294.00 85.00" xmlns="http://www.w3.org/2000/svg" xmlns:xlink="http://www.w3.org/1999/xlink">
<g id="graph0" class="graph" transform="scale(1 1) rotate(0) translate(4 81)">
<title>Environment Constraint AB</title>
<polygon style="fill:white;stroke:white;" points="-4,4 -4,-81 290,-81 290,4 -4,4"/>
<!-- dot_dummyinit_1 -->
<g id="node1" class="node"><title>dot_dummyinit_1</title>
</g>
<!-- 1 -->
<g id="node3" class="node"><title>1</title>
<ellipse style="fill:none;stroke:black;" cx="114" cy="-40" rx="18" ry="18"/>
<ellipse style="fill:none;stroke:black;" cx="114" cy="-40" rx="22" ry="22"/>
<text text-anchor="middle" x="114" y="-35.9" style="font-family:Times New Roman;font-size:14.00;">1</text>
</g>
<!-- dot_dummyinit_1&#45;&gt;1 -->
<g id="edge2" class="edge"><title>dot_dummyinit_1&#45;&gt;1</title>
<path style="fill:none;stroke:black;" d="M54,-40C63,-40 72,-40 82,-40"/>
<polygon style="fill:black;stroke:black;" points="82,-43.5001 92,-40 82,-36.5001 82,-43.5001"/>
</g>
<!-- 2 -->
<g id="node4" class="node"><title>2</title>
<ellipse style="fill:none;stroke:black;" cx="264" cy="-40" rx="18" ry="18"/>
<ellipse style="fill:none;stroke:black;" cx="264" cy="-40" rx="22" ry="22"/>
<text text-anchor="middle" x="264" y="-35.9" style="font-family:Times New Roman;font-size:14.00;">2</text>
</g>
<!-- 1&#45;&gt;2 -->
<g id="edge4" class="edge"><title>1&#45;&gt;2</title>
<path style="fill:none;stroke:black;" d="M134,-50C140,-53 147,-56 154,-58 185,-64 194,-64 224,-58 228,-57 232,-56 235,-54"/>
<polygon style="fill:black;stroke:black;" points="237.015,-56.9636 245,-50 234.415,-50.4643 237.015,-56.9636"/>
<text text-anchor="middle" x="189" y="-64.9" style="font-family:Times New Roman;font-size:14.00;">req_fl_AB</text>
</g>
<!-- 1&#45;&gt;2 -->
<g id="edge6" class="edge"><title>1&#45;&gt;2</title>
<path style="fill:none;stroke:black;" d="M136,-36C142,-35 148,-34 154,-34 186,-31 193,-31 224,-34 227,-34 229,-34 232,-34"/>
<polygon style="fill:black;stroke:black;" points="231.508,-37.4708 242,-36 232.881,-30.6067 231.508,-37.4708"/>
<text text-anchor="middle" x="189" y="-37.9" style="font-family:Times New Roman;font-size:14.00;">req_tr_AB</text>
</g>
<!-- 2&#45;&gt;1 -->
<g id="edge8" class="edge"><title>2&#45;&gt;1</title>
<path style="fill:none;stroke:black;" d="M248,-24C242,-19 233,-13 224,-10 195,-0 184,-0 154,-10 148,-12 143,-15 138,-18"/>
<polygon style="fill:black;stroke:black;" points="135.9,-15.2 130,-24 140.1,-20.8 135.9,-15.2"/>
<text text-anchor="middle" x="189" y="-13.9" style="font-family:Times New Roman;font-size:14.00;">pack_AB</text>
</g>
</g>
</svg>
