<?xml version="1.0" encoding="UTF-8" standalone="no"?>
<!DOCTYPE svg PUBLIC "-//W3C//DTD SVG 1.0//EN"
 "http://www.w3.org/TR/2001/REC-SVG-20010904/DTD/svg10.dtd" [
 <!ATTLIST svg xmlns:xlink CDATA #FIXED "http://www.w3.org/1999/xlink">
]>
<!-- Generated by Graphviz version 2.20.2 (Tue Mar &#160;2 21:46:26 UTC 2010)
     For user: (mtmoor) Prof. Thomas Moor -->
<!-- Title: HioShuffle(Simple Machine_1,Simple Machine_2) Pages: 1 -->
<svg width="720pt" height="192pt"
 viewBox="0.00 0.00 720.00 191.90" xmlns="http://www.w3.org/2000/svg" xmlns:xlink="http://www.w3.org/1999/xlink">
<g id="graph0" class="graph" transform="scale(0.517241 0.517241) rotate(0) translate(4 367)">
<title>HioShuffle(Simple Machine_1,Simple Machine_2)</title>
<polygon style="fill:white;stroke:white;" points="-4,4 -4,-367 1388,-367 1388,4 -4,4"/>
<!-- dot_dummyinit_1 -->
<g id="node1" class="node"><title>dot_dummyinit_1</title>
</g>
<!-- 1 -->
<g id="node3" class="node"><title>1</title>
<ellipse style="fill:none;stroke:black;" cx="114" cy="-87" rx="18" ry="18"/>
<ellipse style="fill:none;stroke:black;" cx="114" cy="-87" rx="22" ry="22"/>
<text text-anchor="middle" x="114" y="-82.9" style="font-family:Times New Roman;font-size:14.00;">1</text>
</g>
<!-- dot_dummyinit_1&#45;&gt;1 -->
<g id="edge2" class="edge"><title>dot_dummyinit_1&#45;&gt;1</title>
<path style="fill:none;stroke:black;" d="M54,-87C63,-87 72,-87 82,-87"/>
<polygon style="fill:black;stroke:black;" points="82,-90.5001 92,-87 82,-83.5001 82,-90.5001"/>
</g>
<!-- 8 -->
<g id="node10" class="node"><title>8</title>
<ellipse style="fill:none;stroke:black;" cx="252" cy="-240" rx="18" ry="18"/>
<ellipse style="fill:none;stroke:black;" cx="252" cy="-240" rx="22" ry="22"/>
<text text-anchor="middle" x="252" y="-235.9" style="font-family:Times New Roman;font-size:14.00;">8</text>
</g>
<!-- 1&#45;&gt;8 -->
<g id="edge6" class="edge"><title>1&#45;&gt;8</title>
<path style="fill:none;stroke:black;" d="M124,-107C131,-121 142,-140 154,-155 175,-180 205,-204 226,-221"/>
<polygon style="fill:black;stroke:black;" points="223.9,-223.8 234,-227 228.1,-218.2 223.9,-223.8"/>
<text text-anchor="middle" x="183" y="-210.9" style="font-family:Times New Roman;font-size:14.00;">idle_2</text>
</g>
<!-- 9 -->
<g id="node11" class="node"><title>9</title>
<ellipse style="fill:none;stroke:black;" cx="1086" cy="-74" rx="18" ry="18"/>
<ellipse style="fill:none;stroke:black;" cx="1086" cy="-74" rx="22" ry="22"/>
<text text-anchor="middle" x="1086" y="-69.9" style="font-family:Times New Roman;font-size:14.00;">9</text>
</g>
<!-- 1&#45;&gt;9 -->
<g id="edge4" class="edge"><title>1&#45;&gt;9</title>
<path style="fill:none;stroke:black;" d="M134,-76C160,-62 208,-41 252,-40 252,-40 252,-40 948,-40 986,-41 1029,-53 1056,-63"/>
<polygon style="fill:black;stroke:black;" points="1055.42,-66.4788 1066,-66 1057.43,-59.7741 1055.42,-66.4788"/>
<text text-anchor="middle" x="593" y="-44.9" style="font-family:Times New Roman;font-size:14.00;">idle_1</text>
</g>
<!-- 2 -->
<g id="node4" class="node"><title>2</title>
<ellipse style="fill:none;stroke:black;" cx="1362" cy="-212" rx="18" ry="18"/>
<ellipse style="fill:none;stroke:black;" cx="1362" cy="-212" rx="22" ry="22"/>
<text text-anchor="middle" x="1362" y="-207.9" style="font-family:Times New Roman;font-size:14.00;">2</text>
</g>
<!-- 3 -->
<g id="node5" class="node"><title>3</title>
<ellipse style="fill:none;stroke:black;" cx="1224" cy="-212" rx="18" ry="18"/>
<ellipse style="fill:none;stroke:black;" cx="1224" cy="-212" rx="22" ry="22"/>
<text text-anchor="middle" x="1224" y="-207.9" style="font-family:Times New Roman;font-size:14.00;">3</text>
</g>
<!-- 2&#45;&gt;3 -->
<g id="edge8" class="edge"><title>2&#45;&gt;3</title>
<path style="fill:none;stroke:black;" d="M1358,-234C1353,-252 1342,-277 1322,-290 1301,-303 1286,-303 1264,-290 1247,-279 1238,-260 1232,-244"/>
<polygon style="fill:black;stroke:black;" points="1235.23,-242.573 1229,-234 1228.52,-244.584 1235.23,-242.573"/>
<text text-anchor="middle" x="1293" y="-302.9" style="font-family:Times New Roman;font-size:14.00;">alpha_1</text>
</g>
<!-- 2&#45;&gt;3 -->
<g id="edge10" class="edge"><title>2&#45;&gt;3</title>
<path style="fill:none;stroke:black;" d="M1349,-230C1342,-237 1332,-245 1322,-250 1299,-259 1288,-259 1264,-250 1257,-247 1251,-242 1246,-237"/>
<polygon style="fill:black;stroke:black;" points="1247.83,-233.951 1238,-230 1243.22,-239.219 1247.83,-233.951"/>
<text text-anchor="middle" x="1293" y="-259.9" style="font-family:Times New Roman;font-size:14.00;">no_op_1</text>
</g>
<!-- 2&#45;&gt;3 -->
<g id="edge12" class="edge"><title>2&#45;&gt;3</title>
<path style="fill:none;stroke:black;" d="M1340,-212C1317,-212 1282,-212 1256,-212"/>
<polygon style="fill:black;stroke:black;" points="1256,-208.5 1246,-212 1256,-215.5 1256,-208.5"/>
<text text-anchor="middle" x="1293" y="-215.9" style="font-family:Times New Roman;font-size:14.00;">alpha_2</text>
</g>
<!-- 2&#45;&gt;3 -->
<g id="edge14" class="edge"><title>2&#45;&gt;3</title>
<path style="fill:none;stroke:black;" d="M1343,-199C1337,-196 1329,-193 1322,-191 1297,-184 1290,-184 1264,-191 1260,-192 1256,-193 1252,-195"/>
<polygon style="fill:black;stroke:black;" points="1250.04,-192.084 1243,-200 1253.44,-198.203 1250.04,-192.084"/>
<text text-anchor="middle" x="1293" y="-194.9" style="font-family:Times New Roman;font-size:14.00;">no_op_2</text>
</g>
<!-- 3&#45;&gt;2 -->
<g id="edge22" class="edge"><title>3&#45;&gt;2</title>
<path style="fill:none;stroke:black;" d="M1229,-234C1236,-262 1249,-310 1264,-320 1286,-334 1301,-334 1322,-320 1335,-311 1348,-272 1355,-244"/>
<polygon style="fill:black;stroke:black;" points="1358.47,-244.492 1357,-234 1351.61,-243.119 1358.47,-244.492"/>
<text text-anchor="middle" x="1293" y="-332.9" style="font-family:Times New Roman;font-size:14.00;">idle_2</text>
</g>
<!-- 3&#45;&gt;2 -->
<g id="edge16" class="edge"><title>3&#45;&gt;2</title>
<path style="fill:none;stroke:black;" d="M1235,-192C1241,-182 1251,-170 1264,-164 1288,-153 1299,-153 1322,-164 1332,-168 1339,-176 1346,-184"/>
<polygon style="fill:black;stroke:black;" points="1343.2,-186.1 1352,-192 1348.8,-181.9 1343.2,-186.1"/>
<text text-anchor="middle" x="1293" y="-167.9" style="font-family:Times New Roman;font-size:14.00;">beta_1</text>
</g>
<!-- 3&#45;&gt;2 -->
<g id="edge18" class="edge"><title>3&#45;&gt;2</title>
<path style="fill:none;stroke:black;" d="M1229,-190C1234,-172 1244,-146 1264,-134 1286,-120 1301,-120 1322,-134 1339,-144 1349,-163 1355,-180"/>
<polygon style="fill:black;stroke:black;" points="1351.77,-181.427 1358,-190 1358.48,-179.416 1351.77,-181.427"/>
<text text-anchor="middle" x="1293" y="-137.9" style="font-family:Times New Roman;font-size:14.00;">idle_1</text>
</g>
<!-- 3&#45;&gt;2 -->
<g id="edge20" class="edge"><title>3&#45;&gt;2</title>
<path style="fill:none;stroke:black;" d="M1229,-190C1236,-161 1249,-111 1264,-101 1286,-86 1301,-86 1322,-101 1335,-110 1348,-151 1355,-180"/>
<polygon style="fill:black;stroke:black;" points="1351.61,-180.881 1357,-190 1358.47,-179.508 1351.61,-180.881"/>
<text text-anchor="middle" x="1293" y="-104.9" style="font-family:Times New Roman;font-size:14.00;">beta_2</text>
</g>
<!-- 4 -->
<g id="node6" class="node"><title>4</title>
<ellipse style="fill:none;stroke:black;" cx="386" cy="-232" rx="18" ry="18"/>
<ellipse style="fill:none;stroke:black;" cx="386" cy="-232" rx="22" ry="22"/>
<text text-anchor="middle" x="386" y="-227.9" style="font-family:Times New Roman;font-size:14.00;">4</text>
</g>
<!-- 7 -->
<g id="node9" class="node"><title>7</title>
<ellipse style="fill:none;stroke:black;" cx="524" cy="-211" rx="18" ry="18"/>
<ellipse style="fill:none;stroke:black;" cx="524" cy="-211" rx="22" ry="22"/>
<text text-anchor="middle" x="524" y="-206.9" style="font-family:Times New Roman;font-size:14.00;">7</text>
</g>
<!-- 4&#45;&gt;7 -->
<g id="edge24" class="edge"><title>4&#45;&gt;7</title>
<path style="fill:none;stroke:black;" d="M408,-230C428,-228 458,-225 484,-221 487,-221 490,-220 493,-219"/>
<polygon style="fill:black;stroke:black;" points="493.881,-222.393 503,-217 492.508,-215.529 493.881,-222.393"/>
<text text-anchor="middle" x="455" y="-230.9" style="font-family:Times New Roman;font-size:14.00;">idle_1</text>
</g>
<!-- 4&#45;&gt;8 -->
<g id="edge26" class="edge"><title>4&#45;&gt;8</title>
<path style="fill:none;stroke:black;" d="M365,-225C359,-223 352,-222 346,-221 323,-217 316,-215 292,-221 288,-222 284,-223 280,-225"/>
<polygon style="fill:black;stroke:black;" points="278.717,-221.74 271,-229 281.56,-228.137 278.717,-221.74"/>
<text text-anchor="middle" x="319" y="-224.9" style="font-family:Times New Roman;font-size:14.00;">beta_2</text>
</g>
<!-- 5 -->
<g id="node7" class="node"><title>5</title>
<ellipse style="fill:none;stroke:black;" cx="662" cy="-166" rx="18" ry="18"/>
<ellipse style="fill:none;stroke:black;" cx="662" cy="-166" rx="22" ry="22"/>
<text text-anchor="middle" x="662" y="-161.9" style="font-family:Times New Roman;font-size:14.00;">5</text>
</g>
<!-- 5&#45;&gt;7 -->
<g id="edge28" class="edge"><title>5&#45;&gt;7</title>
<path style="fill:none;stroke:black;" d="M641,-158C621,-152 589,-146 564,-158 553,-163 545,-173 538,-182"/>
<polygon style="fill:black;stroke:black;" points="534.797,-180.559 533,-191 540.916,-183.958 534.797,-180.559"/>
<text text-anchor="middle" x="593" y="-161.9" style="font-family:Times New Roman;font-size:14.00;">beta_1</text>
</g>
<!-- 10 -->
<g id="node12" class="node"><title>10</title>
<ellipse style="fill:none;stroke:black;" cx="805" cy="-149" rx="23.1964" ry="23.1964"/>
<ellipse style="fill:none;stroke:black;" cx="805" cy="-149" rx="27.1237" ry="27.1237"/>
<text text-anchor="middle" x="805" y="-144.9" style="font-family:Times New Roman;font-size:14.00;">10</text>
</g>
<!-- 5&#45;&gt;10 -->
<g id="edge30" class="edge"><title>5&#45;&gt;10</title>
<path style="fill:none;stroke:black;" d="M684,-166C704,-166 734,-166 760,-162 763,-162 766,-161 769,-160"/>
<polygon style="fill:black;stroke:black;" points="770.427,-163.226 779,-157 768.416,-156.521 770.427,-163.226"/>
<text text-anchor="middle" x="731" y="-168.9" style="font-family:Times New Roman;font-size:14.00;">beta_2</text>
</g>
<!-- 6 -->
<g id="node8" class="node"><title>6</title>
<ellipse style="fill:none;stroke:black;" cx="948" cy="-97" rx="18" ry="18"/>
<ellipse style="fill:none;stroke:black;" cx="948" cy="-97" rx="22" ry="22"/>
<text text-anchor="middle" x="948" y="-92.9" style="font-family:Times New Roman;font-size:14.00;">6</text>
</g>
<!-- 6&#45;&gt;9 -->
<g id="edge32" class="edge"><title>6&#45;&gt;9</title>
<path style="fill:none;stroke:black;" d="M970,-98C990,-98 1021,-97 1046,-91 1050,-90 1053,-89 1057,-88"/>
<polygon style="fill:black;stroke:black;" points="1058.28,-91.2598 1066,-84 1055.44,-84.8631 1058.28,-91.2598"/>
<text text-anchor="middle" x="1017" y="-99.9" style="font-family:Times New Roman;font-size:14.00;">beta_1</text>
</g>
<!-- 6&#45;&gt;10 -->
<g id="edge34" class="edge"><title>6&#45;&gt;10</title>
<path style="fill:none;stroke:black;" d="M928,-87C907,-79 875,-69 850,-82 837,-89 827,-102 819,-115"/>
<polygon style="fill:black;stroke:black;" points="815.863,-113.44 815,-124 822.26,-116.283 815.863,-113.44"/>
<text text-anchor="middle" x="879" y="-85.9" style="font-family:Times New Roman;font-size:14.00;">idle_2</text>
</g>
<!-- 7&#45;&gt;3 -->
<g id="edge40" class="edge"><title>7&#45;&gt;3</title>
<path style="fill:none;stroke:black;" d="M540,-226C547,-232 556,-238 564,-243 605,-263 617,-269 662,-269 662,-269 662,-269 1086,-269 1131,-269 1144,-265 1184,-245 1190,-242 1195,-238 1200,-234"/>
<polygon style="fill:black;stroke:black;" points="1202.1,-236.8 1208,-228 1197.9,-231.2 1202.1,-236.8"/>
<text text-anchor="middle" x="879" y="-272.9" style="font-family:Times New Roman;font-size:14.00;">alpha_2</text>
</g>
<!-- 7&#45;&gt;3 -->
<g id="edge42" class="edge"><title>7&#45;&gt;3</title>
<path style="fill:none;stroke:black;" d="M546,-214C552,-214 558,-215 564,-215 814,-227 877,-216 1126,-217 1152,-217 1159,-218 1184,-217 1187,-217 1189,-216 1192,-216"/>
<polygon style="fill:black;stroke:black;" points="1192.4,-219.478 1202,-215 1191.7,-212.512 1192.4,-219.478"/>
<text text-anchor="middle" x="879" y="-222.9" style="font-family:Times New Roman;font-size:14.00;">no_op_2</text>
</g>
<!-- 7&#45;&gt;4 -->
<g id="edge38" class="edge"><title>7&#45;&gt;4</title>
<path style="fill:none;stroke:black;" d="M503,-203C483,-197 452,-191 426,-200 420,-202 414,-205 409,-209"/>
<polygon style="fill:black;stroke:black;" points="406.221,-206.781 401,-216 410.831,-212.049 406.221,-206.781"/>
<text text-anchor="middle" x="455" y="-203.9" style="font-family:Times New Roman;font-size:14.00;">no_op_1</text>
</g>
<!-- 7&#45;&gt;5 -->
<g id="edge36" class="edge"><title>7&#45;&gt;5</title>
<path style="fill:none;stroke:black;" d="M545,-204C568,-197 605,-185 632,-176"/>
<polygon style="fill:black;stroke:black;" points="632.62,-179.483 641,-173 630.406,-172.842 632.62,-179.483"/>
<text text-anchor="middle" x="593" y="-199.9" style="font-family:Times New Roman;font-size:14.00;">alpha_1</text>
</g>
<!-- 8&#45;&gt;1 -->
<g id="edge50" class="edge"><title>8&#45;&gt;1</title>
<path style="fill:none;stroke:black;" d="M250,-218C246,-193 236,-153 212,-128 195,-109 167,-98 146,-93"/>
<polygon style="fill:black;stroke:black;" points="146.492,-89.5292 136,-91 145.119,-96.3933 146.492,-89.5292"/>
<text text-anchor="middle" x="183" y="-131.9" style="font-family:Times New Roman;font-size:14.00;">no_op_2</text>
</g>
<!-- 8&#45;&gt;3 -->
<g id="edge44" class="edge"><title>8&#45;&gt;3</title>
<path style="fill:none;stroke:black;" d="M258,-262C263,-280 274,-306 292,-321 326,-348 343,-347 386,-347 386,-347 386,-347 1086,-347 1132,-347 1151,-351 1184,-321 1206,-301 1216,-269 1221,-244"/>
<polygon style="fill:black;stroke:black;" points="1224.49,-244.299 1222,-234 1217.52,-243.602 1224.49,-244.299"/>
<text text-anchor="middle" x="731" y="-350.9" style="font-family:Times New Roman;font-size:14.00;">alpha_1</text>
</g>
<!-- 8&#45;&gt;3 -->
<g id="edge46" class="edge"><title>8&#45;&gt;3</title>
<path style="fill:none;stroke:black;" d="M269,-255C293,-274 340,-307 386,-307 386,-307 386,-307 1086,-307 1133,-307 1148,-297 1184,-269 1194,-261 1202,-251 1209,-241"/>
<polygon style="fill:black;stroke:black;" points="1212.2,-242.441 1214,-232 1206.08,-239.042 1212.2,-242.441"/>
<text text-anchor="middle" x="731" y="-310.9" style="font-family:Times New Roman;font-size:14.00;">no_op_1</text>
</g>
<!-- 8&#45;&gt;4 -->
<g id="edge48" class="edge"><title>8&#45;&gt;4</title>
<path style="fill:none;stroke:black;" d="M274,-240C293,-240 322,-240 346,-238 349,-238 351,-237 354,-237"/>
<polygon style="fill:black;stroke:black;" points="354.398,-240.478 364,-236 353.701,-233.512 354.398,-240.478"/>
<text text-anchor="middle" x="319" y="-242.9" style="font-family:Times New Roman;font-size:14.00;">alpha_2</text>
</g>
<!-- 9&#45;&gt;1 -->
<g id="edge54" class="edge"><title>9&#45;&gt;1</title>
<path style="fill:none;stroke:black;" d="M1070,-59C1046,-37 997,-0 948,-0 252,-0 252,-0 252,-0 205,-0 193,-17 154,-44 147,-49 140,-55 135,-61"/>
<polygon style="fill:black;stroke:black;" points="131.951,-59.1694 128,-69 137.219,-63.779 131.951,-59.1694"/>
<text text-anchor="middle" x="593" y="-4.9" style="font-family:Times New Roman;font-size:14.00;">no_op_1</text>
</g>
<!-- 9&#45;&gt;3 -->
<g id="edge56" class="edge"><title>9&#45;&gt;3</title>
<path style="fill:none;stroke:black;" d="M1105,-86C1112,-90 1119,-94 1126,-98 1151,-110 1165,-102 1184,-122 1201,-137 1211,-161 1216,-180"/>
<polygon style="fill:black;stroke:black;" points="1212.77,-181.427 1219,-190 1219.48,-179.416 1212.77,-181.427"/>
<text text-anchor="middle" x="1155" y="-125.9" style="font-family:Times New Roman;font-size:14.00;">alpha_2</text>
</g>
<!-- 9&#45;&gt;3 -->
<g id="edge58" class="edge"><title>9&#45;&gt;3</title>
<path style="fill:none;stroke:black;" d="M1107,-67C1129,-62 1162,-58 1184,-74 1201,-87 1214,-143 1219,-180"/>
<polygon style="fill:black;stroke:black;" points="1215.61,-180.881 1221,-190 1222.47,-179.508 1215.61,-180.881"/>
<text text-anchor="middle" x="1155" y="-77.9" style="font-family:Times New Roman;font-size:14.00;">no_op_2</text>
</g>
<!-- 9&#45;&gt;6 -->
<g id="edge52" class="edge"><title>9&#45;&gt;6</title>
<path style="fill:none;stroke:black;" d="M1064,-69C1044,-66 1013,-63 988,-70 983,-71 978,-74 974,-76"/>
<polygon style="fill:black;stroke:black;" points="971.379,-73.5408 965,-82 975.262,-79.3651 971.379,-73.5408"/>
<text text-anchor="middle" x="1017" y="-76.9" style="font-family:Times New Roman;font-size:14.00;">alpha_1</text>
</g>
<!-- 10&#45;&gt;3 -->
<g id="edge60" class="edge"><title>10&#45;&gt;3</title>
<path style="fill:none;stroke:black;" d="M830,-160C836,-162 843,-165 850,-167 915,-183 1113,-202 1192,-209"/>
<polygon style="fill:black;stroke:black;" points="1191.7,-212.488 1202,-210 1192.4,-205.522 1191.7,-212.488"/>
<text text-anchor="middle" x="1017" y="-196.9" style="font-family:Times New Roman;font-size:14.00;">alpha_1</text>
</g>
<!-- 10&#45;&gt;3 -->
<g id="edge62" class="edge"><title>10&#45;&gt;3</title>
<path style="fill:none;stroke:black;" d="M832,-149C877,-150 969,-153 1046,-165 1109,-174 1124,-180 1184,-198 1187,-199 1190,-200 1193,-201"/>
<polygon style="fill:black;stroke:black;" points="1192.42,-204.479 1203,-204 1194.43,-197.774 1192.42,-204.479"/>
<text text-anchor="middle" x="1017" y="-168.9" style="font-family:Times New Roman;font-size:14.00;">no_op_1</text>
</g>
<!-- 10&#45;&gt;5 -->
<g id="edge64" class="edge"><title>10&#45;&gt;5</title>
<path style="fill:none;stroke:black;" d="M779,-142C758,-137 728,-134 702,-141 697,-142 692,-144 688,-147"/>
<polygon style="fill:black;stroke:black;" points="686.042,-144.084 679,-152 689.441,-150.203 686.042,-144.084"/>
<text text-anchor="middle" x="731" y="-144.9" style="font-family:Times New Roman;font-size:14.00;">alpha_2</text>
</g>
<!-- 10&#45;&gt;6 -->
<g id="edge66" class="edge"><title>10&#45;&gt;6</title>
<path style="fill:none;stroke:black;" d="M827,-133C835,-129 842,-125 850,-122 871,-113 896,-106 916,-103"/>
<polygon style="fill:black;stroke:black;" points="916.881,-106.393 926,-101 915.508,-99.5292 916.881,-106.393"/>
<text text-anchor="middle" x="879" y="-125.9" style="font-family:Times New Roman;font-size:14.00;">no_op_2</text>
</g>
</g>
</svg>
