<?xml version="1.0" encoding="UTF-8" standalone="no"?>
<!DOCTYPE svg PUBLIC "-//W3C//DTD SVG 1.0//EN"
 "http://www.w3.org/TR/2001/REC-SVG-20010904/DTD/svg10.dtd" [
 <!ATTLIST svg xmlns:xlink CDATA #FIXED "http://www.w3.org/1999/xlink">
]>
<!-- Generated by Graphviz version 2.20.2 (Tue Mar &#160;2 21:46:26 UTC 2010)
     For user: (mtmoor) Prof. Thomas Moor -->
<!-- Title: hio &#45; simple machine A Pages: 1 -->
<svg width="522pt" height="82pt"
 viewBox="0.00 0.00 522.00 82.00" xmlns="http://www.w3.org/2000/svg" xmlns:xlink="http://www.w3.org/1999/xlink">
<g id="graph0" class="graph" transform="scale(1 1) rotate(0) translate(4 78)">
<title>hio &#45; simple machine A</title>
<polygon style="fill:white;stroke:white;" points="-4,4 -4,-78 518,-78 518,4 -4,4"/>
<!-- dot_dummyinit_1 -->
<g id="node1" class="node"><title>dot_dummyinit_1</title>
</g>
<!-- 1 -->
<g id="node3" class="node"><title>1</title>
<ellipse style="fill:none;stroke:black;" cx="114" cy="-22" rx="18" ry="18"/>
<ellipse style="fill:none;stroke:black;" cx="114" cy="-22" rx="22" ry="22"/>
<text text-anchor="middle" x="114" y="-17.9" style="font-family:Times New Roman;font-size:14.00;">1</text>
</g>
<!-- dot_dummyinit_1&#45;&gt;1 -->
<g id="edge2" class="edge"><title>dot_dummyinit_1&#45;&gt;1</title>
<path style="fill:none;stroke:black;" d="M54,-22C63,-22 72,-22 82,-22"/>
<polygon style="fill:black;stroke:black;" points="82,-25.5001 92,-22 82,-18.5001 82,-25.5001"/>
</g>
<!-- 2 -->
<g id="node4" class="node"><title>2</title>
<ellipse style="fill:none;stroke:black;" cx="242" cy="-52" rx="18" ry="18"/>
<ellipse style="fill:none;stroke:black;" cx="242" cy="-52" rx="22" ry="22"/>
<text text-anchor="middle" x="242" y="-47.9" style="font-family:Times New Roman;font-size:14.00;">2</text>
</g>
<!-- 1&#45;&gt;2 -->
<g id="edge4" class="edge"><title>1&#45;&gt;2</title>
<path style="fill:none;stroke:black;" d="M135,-27C156,-32 187,-40 211,-45"/>
<polygon style="fill:black;stroke:black;" points="210.508,-48.4708 221,-47 211.881,-41.6067 210.508,-48.4708"/>
<text text-anchor="middle" x="178" y="-44.9" style="font-family:Times New Roman;font-size:14.00;">A_wait</text>
</g>
<!-- 3 -->
<g id="node5" class="node"><title>3</title>
<ellipse style="fill:none;stroke:black;" cx="372" cy="-52" rx="18" ry="18"/>
<ellipse style="fill:none;stroke:black;" cx="372" cy="-52" rx="22" ry="22"/>
<text text-anchor="middle" x="372" y="-47.9" style="font-family:Times New Roman;font-size:14.00;">3</text>
</g>
<!-- 2&#45;&gt;3 -->
<g id="edge6" class="edge"><title>2&#45;&gt;3</title>
<path style="fill:none;stroke:black;" d="M264,-52C285,-52 316,-52 340,-52"/>
<polygon style="fill:black;stroke:black;" points="340,-55.5001 350,-52 340,-48.5001 340,-55.5001"/>
<text text-anchor="middle" x="307" y="-55.9" style="font-family:Times New Roman;font-size:14.00;">A_do</text>
</g>
<!-- 4 -->
<g id="node6" class="node"><title>4</title>
<ellipse style="fill:none;stroke:black;" cx="492" cy="-22" rx="18" ry="18"/>
<ellipse style="fill:none;stroke:black;" cx="492" cy="-22" rx="22" ry="22"/>
<text text-anchor="middle" x="492" y="-17.9" style="font-family:Times New Roman;font-size:14.00;">4</text>
</g>
<!-- 3&#45;&gt;4 -->
<g id="edge8" class="edge"><title>3&#45;&gt;4</title>
<path style="fill:none;stroke:black;" d="M393,-47C412,-42 439,-35 460,-30"/>
<polygon style="fill:black;stroke:black;" points="461.427,-33.2259 470,-27 459.416,-26.5212 461.427,-33.2259"/>
<text text-anchor="middle" x="432" y="-44.9" style="font-family:Times New Roman;font-size:14.00;">A_req</text>
</g>
<!-- 4&#45;&gt;1 -->
<g id="edge10" class="edge"><title>4&#45;&gt;1</title>
<path style="fill:none;stroke:black;" d="M470,-22C450,-21 420,-21 394,-21 317,-20 298,-20 220,-21 195,-21 167,-21 146,-22"/>
<polygon style="fill:black;stroke:black;" points="146,-18.5001 136,-22 146,-25.5001 146,-18.5001"/>
<text text-anchor="middle" x="307" y="-23.9" style="font-family:Times New Roman;font-size:14.00;">A_pack</text>
</g>
</g>
</svg>
