<?xml version="1.0" encoding="UTF-8" standalone="no"?>
<!DOCTYPE svg PUBLIC "-//W3C//DTD SVG 1.0//EN"
 "http://www.w3.org/TR/2001/REC-SVG-20010904/DTD/svg10.dtd" [
 <!ATTLIST svg xmlns:xlink CDATA #FIXED "http://www.w3.org/1999/xlink">
]>
<!-- Generated by Graphviz version 2.20.2 (Tue Mar &#160;2 21:46:26 UTC 2010)
     For user: (mtmoor) Prof. Thomas Moor -->
<!-- Title: Project(HioSynth(PrefixClosure(HioShuffle(S... Machine_2)) [minstate],Generator)) Pages: 1 -->
<svg width="720pt" height="261pt"
 viewBox="0.00 0.00 720.00 260.66" xmlns="http://www.w3.org/2000/svg" xmlns:xlink="http://www.w3.org/1999/xlink">
<g id="graph0" class="graph" transform="scale(0.397351 0.397351) rotate(0) translate(4 652)">
<title>Project(HioSynth(PrefixClosure(HioShuffle(S... Machine_2)) [minstate],Generator))</title>
<polygon style="fill:white;stroke:white;" points="-4,4 -4,-652 1808,-652 1808,4 -4,4"/>
<!-- dot_dummyinit_1 -->
<g id="node1" class="node"><title>dot_dummyinit_1</title>
</g>
<!-- 1 -->
<g id="node3" class="node"><title>1</title>
<ellipse style="fill:none;stroke:black;" cx="114" cy="-160" rx="18" ry="18"/>
<ellipse style="fill:none;stroke:black;" cx="114" cy="-160" rx="22" ry="22"/>
<text text-anchor="middle" x="114" y="-155.9" style="font-family:Times New Roman;font-size:14.00;">1</text>
</g>
<!-- dot_dummyinit_1&#45;&gt;1 -->
<g id="edge2" class="edge"><title>dot_dummyinit_1&#45;&gt;1</title>
<path style="fill:none;stroke:black;" d="M54,-160C63,-160 72,-160 82,-160"/>
<polygon style="fill:black;stroke:black;" points="82,-163.5 92,-160 82,-156.5 82,-163.5"/>
</g>
<!-- 2 -->
<g id="node4" class="node"><title>2</title>
<ellipse style="fill:none;stroke:black;" cx="1644" cy="-382" rx="18" ry="18"/>
<ellipse style="fill:none;stroke:black;" cx="1644" cy="-382" rx="22" ry="22"/>
<text text-anchor="middle" x="1644" y="-377.9" style="font-family:Times New Roman;font-size:14.00;">2</text>
</g>
<!-- 1&#45;&gt;2 -->
<g id="edge4" class="edge"><title>1&#45;&gt;2</title>
<path style="fill:none;stroke:black;" d="M115,-182C117,-268 127,-573 154,-606 184,-640 207,-632 252,-632 252,-632 252,-632 1511,-632 1554,-632 1576,-637 1604,-606 1630,-578 1640,-469 1643,-414"/>
<polygon style="fill:black;stroke:black;" points="1646.5,-414 1643,-404 1639.5,-414 1646.5,-414"/>
<text text-anchor="middle" x="859" y="-635.9" style="font-family:Times New Roman;font-size:14.00;">beta_1</text>
</g>
<!-- 1&#45;&gt;2 -->
<g id="edge8" class="edge"><title>1&#45;&gt;2</title>
<path style="fill:none;stroke:black;" d="M116,-182C126,-270 166,-592 252,-592 252,-592 252,-592 1511,-592 1556,-592 1576,-587 1604,-554 1622,-533 1634,-458 1640,-414"/>
<polygon style="fill:black;stroke:black;" points="1643.49,-414.299 1641,-404 1636.52,-413.602 1643.49,-414.299"/>
<text text-anchor="middle" x="859" y="-595.9" style="font-family:Times New Roman;font-size:14.00;">beta_2</text>
</g>
<!-- 6 -->
<g id="node8" class="node"><title>6</title>
<ellipse style="fill:none;stroke:black;" cx="252" cy="-160" rx="18" ry="18"/>
<ellipse style="fill:none;stroke:black;" cx="252" cy="-160" rx="22" ry="22"/>
<text text-anchor="middle" x="252" y="-155.9" style="font-family:Times New Roman;font-size:14.00;">6</text>
</g>
<!-- 1&#45;&gt;6 -->
<g id="edge6" class="edge"><title>1&#45;&gt;6</title>
<path style="fill:none;stroke:black;" d="M136,-160C159,-160 194,-160 220,-160"/>
<polygon style="fill:black;stroke:black;" points="220,-163.5 230,-160 220,-156.5 220,-163.5"/>
<text text-anchor="middle" x="183" y="-163.9" style="font-family:Times New Roman;font-size:14.00;">idle_1</text>
</g>
<!-- 14 -->
<g id="node16" class="node"><title>14</title>
<ellipse style="fill:none;stroke:black;" cx="1081" cy="-27" rx="23.1964" ry="23.1964"/>
<ellipse style="fill:none;stroke:black;" cx="1081" cy="-27" rx="27.1237" ry="27.1237"/>
<text text-anchor="middle" x="1081" y="-22.9" style="font-family:Times New Roman;font-size:14.00;">14</text>
</g>
<!-- 1&#45;&gt;14 -->
<g id="edge10" class="edge"><title>1&#45;&gt;14</title>
<path style="fill:none;stroke:black;" d="M125,-141C145,-108 193,-44 252,-44 252,-44 252,-44 933,-44 971,-44 1014,-38 1044,-34"/>
<polygon style="fill:black;stroke:black;" points="1044.88,-37.3933 1054,-32 1043.51,-30.5292 1044.88,-37.3933"/>
<text text-anchor="middle" x="583" y="-48.9" style="font-family:Times New Roman;font-size:14.00;">idle_2</text>
</g>
<!-- 3 -->
<g id="node5" class="node"><title>3</title>
<ellipse style="fill:none;stroke:black;" cx="1782" cy="-382" rx="18" ry="18"/>
<ellipse style="fill:none;stroke:black;" cx="1782" cy="-382" rx="22" ry="22"/>
<text text-anchor="middle" x="1782" y="-377.9" style="font-family:Times New Roman;font-size:14.00;">3</text>
</g>
<!-- 2&#45;&gt;3 -->
<g id="edge12" class="edge"><title>2&#45;&gt;3</title>
<path style="fill:none;stroke:black;" d="M1648,-404C1655,-434 1668,-488 1684,-500 1705,-515 1722,-515 1742,-500 1756,-489 1768,-445 1776,-414"/>
<polygon style="fill:black;stroke:black;" points="1779.47,-414.492 1778,-404 1772.61,-413.119 1779.47,-414.492"/>
<text text-anchor="middle" x="1713" y="-513.9" style="font-family:Times New Roman;font-size:14.00;">alpha_1</text>
</g>
<!-- 2&#45;&gt;3 -->
<g id="edge14" class="edge"><title>2&#45;&gt;3</title>
<path style="fill:none;stroke:black;" d="M1649,-404C1654,-422 1664,-447 1684,-460 1706,-473 1721,-473 1742,-460 1759,-449 1769,-430 1775,-414"/>
<polygon style="fill:black;stroke:black;" points="1778.48,-414.584 1778,-404 1771.77,-412.573 1778.48,-414.584"/>
<text text-anchor="middle" x="1713" y="-472.9" style="font-family:Times New Roman;font-size:14.00;">no_op_1</text>
</g>
<!-- 2&#45;&gt;3 -->
<g id="edge16" class="edge"><title>2&#45;&gt;3</title>
<path style="fill:none;stroke:black;" d="M1658,-400C1665,-407 1674,-415 1684,-420 1708,-429 1719,-429 1742,-420 1749,-417 1755,-412 1761,-407"/>
<polygon style="fill:black;stroke:black;" points="1763.78,-409.219 1769,-400 1759.17,-403.951 1763.78,-409.219"/>
<text text-anchor="middle" x="1713" y="-429.9" style="font-family:Times New Roman;font-size:14.00;">alpha_2</text>
</g>
<!-- 2&#45;&gt;3 -->
<g id="edge18" class="edge"><title>2&#45;&gt;3</title>
<path style="fill:none;stroke:black;" d="M1666,-382C1689,-382 1724,-382 1750,-382"/>
<polygon style="fill:black;stroke:black;" points="1750,-385.5 1760,-382 1750,-378.5 1750,-385.5"/>
<text text-anchor="middle" x="1713" y="-385.9" style="font-family:Times New Roman;font-size:14.00;">no_op_2</text>
</g>
<!-- 3&#45;&gt;2 -->
<g id="edge22" class="edge"><title>3&#45;&gt;2</title>
<path style="fill:none;stroke:black;" d="M1763,-369C1757,-366 1749,-363 1742,-361 1717,-354 1710,-354 1684,-361 1680,-362 1676,-363 1672,-365"/>
<polygon style="fill:black;stroke:black;" points="1670.04,-362.084 1663,-370 1673.44,-368.203 1670.04,-362.084"/>
<text text-anchor="middle" x="1713" y="-364.9" style="font-family:Times New Roman;font-size:14.00;">idle_1</text>
</g>
<!-- 3&#45;&gt;2 -->
<g id="edge24" class="edge"><title>3&#45;&gt;2</title>
<path style="fill:none;stroke:black;" d="M1772,-362C1765,-352 1755,-340 1742,-334 1719,-323 1708,-323 1684,-334 1675,-338 1667,-346 1661,-353"/>
<polygon style="fill:black;stroke:black;" points="1657.63,-351.738 1655,-362 1663.46,-355.621 1657.63,-351.738"/>
<text text-anchor="middle" x="1713" y="-337.9" style="font-family:Times New Roman;font-size:14.00;">beta_2</text>
</g>
<!-- 3&#45;&gt;2 -->
<g id="edge26" class="edge"><title>3&#45;&gt;2</title>
<path style="fill:none;stroke:black;" d="M1778,-360C1773,-341 1762,-316 1742,-304 1721,-290 1706,-290 1684,-304 1667,-314 1658,-333 1652,-350"/>
<polygon style="fill:black;stroke:black;" points="1648.52,-349.416 1649,-360 1655.23,-351.427 1648.52,-349.416"/>
<text text-anchor="middle" x="1713" y="-307.9" style="font-family:Times New Roman;font-size:14.00;">idle_2</text>
</g>
<!-- 3&#45;&gt;2 -->
<g id="edge20" class="edge"><title>3&#45;&gt;2</title>
<path style="fill:none;stroke:black;" d="M1779,-360C1774,-325 1761,-257 1742,-243 1722,-227 1705,-227 1684,-243 1668,-256 1655,-313 1649,-350"/>
<polygon style="fill:black;stroke:black;" points="1645.53,-349.508 1647,-360 1652.39,-350.881 1645.53,-349.508"/>
<text text-anchor="middle" x="1713" y="-247.9" style="font-family:Times New Roman;font-size:14.00;">beta_1</text>
</g>
<!-- 4 -->
<g id="node6" class="node"><title>4</title>
<ellipse style="fill:none;stroke:black;" cx="514" cy="-442" rx="18" ry="18"/>
<ellipse style="fill:none;stroke:black;" cx="514" cy="-442" rx="22" ry="22"/>
<text text-anchor="middle" x="514" y="-437.9" style="font-family:Times New Roman;font-size:14.00;">4</text>
</g>
<!-- 9 -->
<g id="node11" class="node"><title>9</title>
<ellipse style="fill:none;stroke:black;" cx="652" cy="-482" rx="18" ry="18"/>
<ellipse style="fill:none;stroke:black;" cx="652" cy="-482" rx="22" ry="22"/>
<text text-anchor="middle" x="652" y="-477.9" style="font-family:Times New Roman;font-size:14.00;">9</text>
</g>
<!-- 4&#45;&gt;9 -->
<g id="edge28" class="edge"><title>4&#45;&gt;9</title>
<path style="fill:none;stroke:black;" d="M534,-452C541,-454 548,-457 554,-460 576,-467 601,-473 620,-476"/>
<polygon style="fill:black;stroke:black;" points="619.508,-479.471 630,-478 620.881,-472.607 619.508,-479.471"/>
<text text-anchor="middle" x="583" y="-476.9" style="font-family:Times New Roman;font-size:14.00;">no_op_1</text>
</g>
<!-- 5 -->
<g id="node7" class="node"><title>5</title>
<ellipse style="fill:none;stroke:black;" cx="790" cy="-453" rx="18" ry="18"/>
<ellipse style="fill:none;stroke:black;" cx="790" cy="-453" rx="22" ry="22"/>
<text text-anchor="middle" x="790" y="-448.9" style="font-family:Times New Roman;font-size:14.00;">5</text>
</g>
<!-- 5&#45;&gt;9 -->
<g id="edge32" class="edge"><title>5&#45;&gt;9</title>
<path style="fill:none;stroke:black;" d="M769,-445C749,-439 717,-433 692,-443 685,-446 678,-451 672,-457"/>
<polygon style="fill:black;stroke:black;" points="669.596,-454.454 665,-464 674.546,-459.404 669.596,-454.454"/>
<text text-anchor="middle" x="721" y="-446.9" style="font-family:Times New Roman;font-size:14.00;">no_op_2</text>
</g>
<!-- 12 -->
<g id="node14" class="node"><title>12</title>
<ellipse style="fill:none;stroke:black;" cx="933" cy="-304" rx="23.1964" ry="23.1964"/>
<ellipse style="fill:none;stroke:black;" cx="933" cy="-304" rx="27.1237" ry="27.1237"/>
<text text-anchor="middle" x="933" y="-299.9" style="font-family:Times New Roman;font-size:14.00;">12</text>
</g>
<!-- 5&#45;&gt;12 -->
<g id="edge30" class="edge"><title>5&#45;&gt;12</title>
<path style="fill:none;stroke:black;" d="M805,-437C829,-412 877,-363 907,-331"/>
<polygon style="fill:black;stroke:black;" points="909.404,-333.546 914,-324 904.454,-328.596 909.404,-333.546"/>
<text text-anchor="middle" x="859" y="-411.9" style="font-family:Times New Roman;font-size:14.00;">alpha_2</text>
</g>
<!-- 6&#45;&gt;1 -->
<g id="edge36" class="edge"><title>6&#45;&gt;1</title>
<path style="fill:none;stroke:black;" d="M233,-147C227,-144 219,-141 212,-139 187,-133 180,-133 154,-139 150,-140 146,-141 142,-143"/>
<polygon style="fill:black;stroke:black;" points="140.042,-140.084 133,-148 143.441,-146.203 140.042,-140.084"/>
<text text-anchor="middle" x="183" y="-142.9" style="font-family:Times New Roman;font-size:14.00;">no_op_1</text>
</g>
<!-- 8 -->
<g id="node10" class="node"><title>8</title>
<ellipse style="fill:none;stroke:black;" cx="386" cy="-160" rx="18" ry="18"/>
<ellipse style="fill:none;stroke:black;" cx="386" cy="-160" rx="22" ry="22"/>
<text text-anchor="middle" x="386" y="-155.9" style="font-family:Times New Roman;font-size:14.00;">8</text>
</g>
<!-- 6&#45;&gt;8 -->
<g id="edge34" class="edge"><title>6&#45;&gt;8</title>
<path style="fill:none;stroke:black;" d="M274,-160C296,-160 329,-160 354,-160"/>
<polygon style="fill:black;stroke:black;" points="354,-163.5 364,-160 354,-156.5 354,-163.5"/>
<text text-anchor="middle" x="319" y="-163.9" style="font-family:Times New Roman;font-size:14.00;">alpha_1</text>
</g>
<!-- 7 -->
<g id="node9" class="node"><title>7</title>
<ellipse style="fill:none;stroke:black;" cx="1363" cy="-198" rx="18" ry="18"/>
<ellipse style="fill:none;stroke:black;" cx="1363" cy="-198" rx="22" ry="22"/>
<text text-anchor="middle" x="1363" y="-193.9" style="font-family:Times New Roman;font-size:14.00;">7</text>
</g>
<!-- 7&#45;&gt;8 -->
<g id="edge38" class="edge"><title>7&#45;&gt;8</title>
<path style="fill:none;stroke:black;" d="M1343,-189C1317,-178 1268,-160 1225,-160 514,-160 514,-160 514,-160 481,-160 444,-160 418,-160"/>
<polygon style="fill:black;stroke:black;" points="418,-156.5 408,-160 418,-163.5 418,-156.5"/>
<text text-anchor="middle" x="859" y="-163.9" style="font-family:Times New Roman;font-size:14.00;">no_op_2</text>
</g>
<!-- 8&#45;&gt;2 -->
<g id="edge42" class="edge"><title>8&#45;&gt;2</title>
<path style="fill:none;stroke:black;" d="M406,-150C431,-139 475,-123 514,-122 514,-122 514,-122 1511,-122 1613,-123 1637,-280 1642,-350"/>
<polygon style="fill:black;stroke:black;" points="1638.52,-350.398 1643,-360 1645.49,-349.701 1638.52,-350.398"/>
<text text-anchor="middle" x="1007" y="-126.9" style="font-family:Times New Roman;font-size:14.00;">idle_1</text>
</g>
<!-- 8&#45;&gt;2 -->
<g id="edge44" class="edge"><title>8&#45;&gt;2</title>
<path style="fill:none;stroke:black;" d="M401,-144C423,-121 468,-83 514,-82 514,-82 514,-82 1511,-82 1559,-82 1577,-95 1604,-133 1628,-167 1639,-290 1642,-350"/>
<polygon style="fill:black;stroke:black;" points="1638.52,-350.398 1643,-360 1645.49,-349.701 1638.52,-350.398"/>
<text text-anchor="middle" x="1007" y="-86.9" style="font-family:Times New Roman;font-size:14.00;">beta_2</text>
</g>
<!-- 8&#45;&gt;4 -->
<g id="edge40" class="edge"><title>8&#45;&gt;4</title>
<path style="fill:none;stroke:black;" d="M395,-180C418,-229 474,-355 501,-413"/>
<polygon style="fill:black;stroke:black;" points="497.74,-414.283 505,-422 504.137,-411.44 497.74,-414.283"/>
<text text-anchor="middle" x="450" y="-352.9" style="font-family:Times New Roman;font-size:14.00;">beta_1</text>
</g>
<!-- 8&#45;&gt;7 -->
<g id="edge46" class="edge"><title>8&#45;&gt;7</title>
<path style="fill:none;stroke:black;" d="M406,-170C431,-182 475,-200 514,-200 514,-200 514,-200 790,-200 996,-200 1244,-199 1331,-198"/>
<polygon style="fill:black;stroke:black;" points="1331,-201.5 1341,-198 1331,-194.5 1331,-201.5"/>
<text text-anchor="middle" x="859" y="-201.9" style="font-family:Times New Roman;font-size:14.00;">idle_2</text>
</g>
<!-- 9&#45;&gt;2 -->
<g id="edge48" class="edge"><title>9&#45;&gt;2</title>
<path style="fill:none;stroke:black;" d="M664,-500C672,-510 681,-521 692,-528 731,-551 745,-554 790,-554 790,-554 790,-554 1511,-554 1554,-554 1574,-558 1604,-528 1620,-512 1633,-452 1639,-414"/>
<polygon style="fill:black;stroke:black;" points="1642.47,-414.492 1641,-404 1635.61,-413.119 1642.47,-414.492"/>
<text text-anchor="middle" x="1153" y="-557.9" style="font-family:Times New Roman;font-size:14.00;">beta_1</text>
</g>
<!-- 9&#45;&gt;2 -->
<g id="edge52" class="edge"><title>9&#45;&gt;2</title>
<path style="fill:none;stroke:black;" d="M673,-490C700,-499 748,-514 790,-514 790,-514 790,-514 1511,-514 1569,-514 1611,-450 1631,-411"/>
<polygon style="fill:black;stroke:black;" points="1634.14,-412.56 1635,-402 1627.74,-409.717 1634.14,-412.56"/>
<text text-anchor="middle" x="1153" y="-517.9" style="font-family:Times New Roman;font-size:14.00;">beta_2</text>
</g>
<!-- 9&#45;&gt;4 -->
<g id="edge50" class="edge"><title>9&#45;&gt;4</title>
<path style="fill:none;stroke:black;" d="M641,-463C634,-453 624,-441 612,-436 591,-426 565,-428 545,-433"/>
<polygon style="fill:black;stroke:black;" points="544.119,-429.607 535,-435 545.492,-436.471 544.119,-429.607"/>
<text text-anchor="middle" x="583" y="-439.9" style="font-family:Times New Roman;font-size:14.00;">idle_1</text>
</g>
<!-- 9&#45;&gt;5 -->
<g id="edge54" class="edge"><title>9&#45;&gt;5</title>
<path style="fill:none;stroke:black;" d="M674,-477C696,-473 732,-465 758,-460"/>
<polygon style="fill:black;stroke:black;" points="758.881,-463.393 768,-458 757.508,-456.529 758.881,-463.393"/>
<text text-anchor="middle" x="721" y="-475.9" style="font-family:Times New Roman;font-size:14.00;">idle_2</text>
</g>
<!-- 10 -->
<g id="node12" class="node"><title>10</title>
<ellipse style="fill:none;stroke:black;" cx="1225" cy="-360" rx="23.1964" ry="23.1964"/>
<ellipse style="fill:none;stroke:black;" cx="1225" cy="-360" rx="27.1237" ry="27.1237"/>
<text text-anchor="middle" x="1225" y="-355.9" style="font-family:Times New Roman;font-size:14.00;">10</text>
</g>
<!-- 10&#45;&gt;2 -->
<g id="edge58" class="edge"><title>10&#45;&gt;2</title>
<path style="fill:none;stroke:black;" d="M1251,-367C1257,-369 1264,-370 1270,-371 1357,-382 1379,-373 1466,-376 1528,-377 1543,-377 1604,-380 1607,-380 1609,-380 1612,-380"/>
<polygon style="fill:black;stroke:black;" points="1612,-383.5 1622,-380 1612,-376.5 1612,-383.5"/>
<text text-anchor="middle" x="1437" y="-379.9" style="font-family:Times New Roman;font-size:14.00;">idle_1</text>
</g>
<!-- 10&#45;&gt;2 -->
<g id="edge62" class="edge"><title>10&#45;&gt;2</title>
<path style="fill:none;stroke:black;" d="M1252,-358C1288,-356 1353,-353 1408,-352 1434,-351 1441,-350 1466,-352 1528,-356 1544,-360 1604,-372 1607,-372 1610,-373 1613,-374"/>
<polygon style="fill:black;stroke:black;" points="1612.51,-377.471 1623,-376 1613.88,-370.607 1612.51,-377.471"/>
<text text-anchor="middle" x="1437" y="-355.9" style="font-family:Times New Roman;font-size:14.00;">idle_2</text>
</g>
<!-- 10&#45;&gt;7 -->
<g id="edge60" class="edge"><title>10&#45;&gt;7</title>
<path style="fill:none;stroke:black;" d="M1247,-344C1254,-339 1262,-333 1270,-329 1291,-317 1302,-323 1318,-306 1338,-285 1350,-254 1356,-230"/>
<polygon style="fill:black;stroke:black;" points="1359.48,-230.584 1359,-220 1352.77,-228.573 1359.48,-230.584"/>
<text text-anchor="middle" x="1294" y="-332.9" style="font-family:Times New Roman;font-size:14.00;">beta_2</text>
</g>
<!-- 15 -->
<g id="node17" class="node"><title>15</title>
<ellipse style="fill:none;stroke:black;" cx="1363" cy="-421" rx="23.1964" ry="23.1964"/>
<ellipse style="fill:none;stroke:black;" cx="1363" cy="-421" rx="27.1237" ry="27.1237"/>
<text text-anchor="middle" x="1363" y="-416.9" style="font-family:Times New Roman;font-size:14.00;">15</text>
</g>
<!-- 10&#45;&gt;15 -->
<g id="edge56" class="edge"><title>10&#45;&gt;15</title>
<path style="fill:none;stroke:black;" d="M1245,-379C1252,-386 1261,-392 1270,-397 1288,-405 1309,-412 1326,-415"/>
<polygon style="fill:black;stroke:black;" points="1325.51,-418.471 1336,-417 1326.88,-411.607 1325.51,-418.471"/>
<text text-anchor="middle" x="1294" y="-414.9" style="font-family:Times New Roman;font-size:14.00;">beta_1</text>
</g>
<!-- 11 -->
<g id="node13" class="node"><title>11</title>
<ellipse style="fill:none;stroke:black;" cx="1511" cy="-439" rx="23.1964" ry="23.1964"/>
<ellipse style="fill:none;stroke:black;" cx="1511" cy="-439" rx="27.1237" ry="27.1237"/>
<text text-anchor="middle" x="1511" y="-434.9" style="font-family:Times New Roman;font-size:14.00;">11</text>
</g>
<!-- 11&#45;&gt;2 -->
<g id="edge64" class="edge"><title>11&#45;&gt;2</title>
<path style="fill:none;stroke:black;" d="M1538,-436C1557,-433 1584,-427 1604,-417 1610,-414 1616,-410 1621,-405"/>
<polygon style="fill:black;stroke:black;" points="1623.1,-407.8 1629,-399 1618.9,-402.2 1623.1,-407.8"/>
<text text-anchor="middle" x="1580" y="-435.9" style="font-family:Times New Roman;font-size:14.00;">beta_1</text>
</g>
<!-- 11&#45;&gt;2 -->
<g id="edge70" class="edge"><title>11&#45;&gt;2</title>
<path style="fill:none;stroke:black;" d="M1528,-418C1536,-410 1546,-401 1556,-396 1573,-388 1594,-384 1612,-382"/>
<polygon style="fill:black;stroke:black;" points="1612,-385.5 1622,-382 1612,-378.5 1612,-385.5"/>
<text text-anchor="middle" x="1580" y="-399.9" style="font-family:Times New Roman;font-size:14.00;">idle_2</text>
</g>
<!-- 11&#45;&gt;5 -->
<g id="edge68" class="edge"><title>11&#45;&gt;5</title>
<path style="fill:none;stroke:black;" d="M1485,-448C1479,-450 1472,-452 1466,-453 1410,-463 1394,-457 1336,-457 1142,-456 907,-454 822,-453"/>
<polygon style="fill:black;stroke:black;" points="822,-449.5 812,-453 822,-456.5 822,-449.5"/>
<text text-anchor="middle" x="1153" y="-457.9" style="font-family:Times New Roman;font-size:14.00;">beta_2</text>
</g>
<!-- 11&#45;&gt;15 -->
<g id="edge66" class="edge"><title>11&#45;&gt;15</title>
<path style="fill:none;stroke:black;" d="M1484,-436C1460,-432 1426,-428 1400,-425"/>
<polygon style="fill:black;stroke:black;" points="1400.3,-421.512 1390,-424 1399.6,-428.478 1400.3,-421.512"/>
<text text-anchor="middle" x="1437" y="-435.9" style="font-family:Times New Roman;font-size:14.00;">idle_1</text>
</g>
<!-- 12&#45;&gt;2 -->
<g id="edge72" class="edge"><title>12&#45;&gt;2</title>
<path style="fill:none;stroke:black;" d="M960,-299C989,-295 1038,-288 1081,-288 1081,-288 1081,-288 1511,-288 1558,-288 1601,-329 1625,-356"/>
<polygon style="fill:black;stroke:black;" points="1622.2,-358.1 1631,-364 1627.8,-353.9 1622.2,-358.1"/>
<text text-anchor="middle" x="1294" y="-291.9" style="font-family:Times New Roman;font-size:14.00;">beta_1</text>
</g>
<!-- 12&#45;&gt;2 -->
<g id="edge78" class="edge"><title>12&#45;&gt;2</title>
<path style="fill:none;stroke:black;" d="M958,-292C964,-289 971,-287 978,-285 1219,-220 1295,-221 1538,-274 1569,-280 1581,-274 1604,-295 1620,-309 1630,-332 1636,-350"/>
<polygon style="fill:black;stroke:black;" points="1632.77,-351.427 1639,-360 1639.48,-349.416 1632.77,-351.427"/>
<text text-anchor="middle" x="1294" y="-238.9" style="font-family:Times New Roman;font-size:14.00;">idle_2</text>
</g>
<!-- 13 -->
<g id="node15" class="node"><title>13</title>
<ellipse style="fill:none;stroke:black;" cx="1081" cy="-360" rx="23.1964" ry="23.1964"/>
<ellipse style="fill:none;stroke:black;" cx="1081" cy="-360" rx="27.1237" ry="27.1237"/>
<text text-anchor="middle" x="1081" y="-355.9" style="font-family:Times New Roman;font-size:14.00;">13</text>
</g>
<!-- 12&#45;&gt;13 -->
<g id="edge74" class="edge"><title>12&#45;&gt;13</title>
<path style="fill:none;stroke:black;" d="M960,-305C982,-306 1012,-311 1036,-322 1043,-325 1049,-329 1054,-333"/>
<polygon style="fill:black;stroke:black;" points="1052.17,-336.049 1062,-340 1056.78,-330.781 1052.17,-336.049"/>
<text text-anchor="middle" x="1007" y="-325.9" style="font-family:Times New Roman;font-size:14.00;">idle_1</text>
</g>
<!-- 12&#45;&gt;14 -->
<g id="edge76" class="edge"><title>12&#45;&gt;14</title>
<path style="fill:none;stroke:black;" d="M947,-281C956,-267 968,-248 978,-232 1004,-192 1015,-185 1036,-143 1050,-117 1062,-86 1070,-63"/>
<polygon style="fill:black;stroke:black;" points="1073.48,-63.584 1073,-53 1066.77,-61.5725 1073.48,-63.584"/>
<text text-anchor="middle" x="1007" y="-238.9" style="font-family:Times New Roman;font-size:14.00;">beta_2</text>
</g>
<!-- 13&#45;&gt;10 -->
<g id="edge80" class="edge"><title>13&#45;&gt;10</title>
<path style="fill:none;stroke:black;" d="M1108,-360C1131,-360 1163,-360 1188,-360"/>
<polygon style="fill:black;stroke:black;" points="1188,-363.5 1198,-360 1188,-356.5 1188,-363.5"/>
<text text-anchor="middle" x="1153" y="-363.9" style="font-family:Times New Roman;font-size:14.00;">alpha_1</text>
</g>
<!-- 13&#45;&gt;12 -->
<g id="edge82" class="edge"><title>13&#45;&gt;12</title>
<path style="fill:none;stroke:black;" d="M1054,-358C1033,-355 1003,-350 978,-339 972,-336 967,-333 961,-329"/>
<polygon style="fill:black;stroke:black;" points="963.1,-326.2 953,-323 958.9,-331.8 963.1,-326.2"/>
<text text-anchor="middle" x="1007" y="-356.9" style="font-family:Times New Roman;font-size:14.00;">no_op_1</text>
</g>
<!-- 14&#45;&gt;1 -->
<g id="edge84" class="edge"><title>14&#45;&gt;1</title>
<path style="fill:none;stroke:black;" d="M1055,-20C1025,-14 976,-4 933,-4 252,-4 252,-4 252,-4 204,-4 187,-17 154,-53 136,-74 125,-105 120,-128"/>
<polygon style="fill:black;stroke:black;" points="116.529,-127.508 118,-138 123.393,-128.881 116.529,-127.508"/>
<text text-anchor="middle" x="583" y="-8.9" style="font-family:Times New Roman;font-size:14.00;">no_op_2</text>
</g>
<!-- 15&#45;&gt;11 -->
<g id="edge86" class="edge"><title>15&#45;&gt;11</title>
<path style="fill:none;stroke:black;" d="M1388,-409C1394,-407 1401,-405 1408,-404 1434,-399 1442,-395 1466,-404 1472,-406 1478,-409 1484,-413"/>
<polygon style="fill:black;stroke:black;" points="1481.9,-415.8 1492,-419 1486.1,-410.2 1481.9,-415.8"/>
<text text-anchor="middle" x="1437" y="-407.9" style="font-family:Times New Roman;font-size:14.00;">no_op_1</text>
</g>
</g>
</svg>
