<?xml version="1.0" encoding="UTF-8" standalone="no"?>
<!DOCTYPE svg PUBLIC "-//W3C//DTD SVG 1.0//EN"
 "http://www.w3.org/TR/2001/REC-SVG-20010904/DTD/svg10.dtd" [
 <!ATTLIST svg xmlns:xlink CDATA #FIXED "http://www.w3.org/1999/xlink">
]>
<!-- Generated by Graphviz version 2.20.2 (Tue Mar &#160;2 21:46:26 UTC 2010)
     For user: (mtmoor) Prof. Thomas Moor -->
<!-- Title: HioSynth(hio &#45; simple machine A,hio &#45; simple specification A) Pages: 1 -->
<svg width="720pt" height="124pt"
 viewBox="0.00 0.00 720.00 124.08" xmlns="http://www.w3.org/2000/svg" xmlns:xlink="http://www.w3.org/1999/xlink">
<g id="graph0" class="graph" transform="scale(0.873786 0.873786) rotate(0) translate(4 138)">
<title>HioSynth(hio &#45; simple machine A,hio &#45; simple specification A)</title>
<polygon style="fill:white;stroke:white;" points="-4,4 -4,-138 820,-138 820,4 -4,4"/>
<!-- dot_dummyinit_1 -->
<g id="node1" class="node"><title>dot_dummyinit_1</title>
</g>
<!-- 1 -->
<g id="node3" class="node"><title>1</title>
<ellipse style="fill:none;stroke:black;" cx="114" cy="-38" rx="18" ry="18"/>
<ellipse style="fill:none;stroke:black;" cx="114" cy="-38" rx="22" ry="22"/>
<text text-anchor="middle" x="114" y="-33.9" style="font-family:Times New Roman;font-size:14.00;">1</text>
</g>
<!-- dot_dummyinit_1&#45;&gt;1 -->
<g id="edge2" class="edge"><title>dot_dummyinit_1&#45;&gt;1</title>
<path style="fill:none;stroke:black;" d="M54,-38C63,-38 72,-38 82,-38"/>
<polygon style="fill:black;stroke:black;" points="82,-41.5001 92,-38 82,-34.5001 82,-41.5001"/>
</g>
<!-- 5 -->
<g id="node7" class="node"><title>5</title>
<ellipse style="fill:none;stroke:black;" cx="242" cy="-88" rx="18" ry="18"/>
<ellipse style="fill:none;stroke:black;" cx="242" cy="-88" rx="22" ry="22"/>
<text text-anchor="middle" x="242" y="-83.9" style="font-family:Times New Roman;font-size:14.00;">5</text>
</g>
<!-- 1&#45;&gt;5 -->
<g id="edge4" class="edge"><title>1&#45;&gt;5</title>
<path style="fill:none;stroke:black;" d="M135,-46C156,-54 188,-66 212,-76"/>
<polygon style="fill:black;stroke:black;" points="210.44,-79.1369 221,-80 213.283,-72.7402 210.44,-79.1369"/>
<text text-anchor="middle" x="178" y="-74.9" style="font-family:Times New Roman;font-size:14.00;">A_wait</text>
</g>
<!-- 2 -->
<g id="node4" class="node"><title>2</title>
<ellipse style="fill:none;stroke:black;" cx="666" cy="-65" rx="18" ry="18"/>
<ellipse style="fill:none;stroke:black;" cx="666" cy="-65" rx="22" ry="22"/>
<text text-anchor="middle" x="666" y="-60.9" style="font-family:Times New Roman;font-size:14.00;">2</text>
</g>
<!-- 3 -->
<g id="node5" class="node"><title>3</title>
<ellipse style="fill:none;stroke:black;" cx="794" cy="-24" rx="18" ry="18"/>
<ellipse style="fill:none;stroke:black;" cx="794" cy="-24" rx="22" ry="22"/>
<text text-anchor="middle" x="794" y="-19.9" style="font-family:Times New Roman;font-size:14.00;">3</text>
</g>
<!-- 2&#45;&gt;3 -->
<g id="edge6" class="edge"><title>2&#45;&gt;3</title>
<path style="fill:none;stroke:black;" d="M687,-58C707,-52 739,-42 763,-34"/>
<polygon style="fill:black;stroke:black;" points="764.427,-37.2259 773,-31 762.416,-30.5212 764.427,-37.2259"/>
<text text-anchor="middle" x="730" y="-53.9" style="font-family:Times New Roman;font-size:14.00;">A_wait</text>
</g>
<!-- 3&#45;&gt;1 -->
<g id="edge8" class="edge"><title>3&#45;&gt;1</title>
<path style="fill:none;stroke:black;" d="M773,-17C747,-10 704,-0 666,-0 242,-0 242,-0 242,-0 208,-0 169,-13 144,-24"/>
<polygon style="fill:black;stroke:black;" points="141.985,-21.0364 134,-28 144.585,-27.5357 141.985,-21.0364"/>
<text text-anchor="middle" x="470" y="-3.9" style="font-family:Times New Roman;font-size:14.00;">A_do</text>
</g>
<!-- 4 -->
<g id="node6" class="node"><title>4</title>
<ellipse style="fill:none;stroke:black;" cx="552" cy="-50" rx="18" ry="18"/>
<ellipse style="fill:none;stroke:black;" cx="552" cy="-50" rx="22" ry="22"/>
<text text-anchor="middle" x="552" y="-45.9" style="font-family:Times New Roman;font-size:14.00;">4</text>
</g>
<!-- 4&#45;&gt;1 -->
<g id="edge10" class="edge"><title>4&#45;&gt;1</title>
<path style="fill:none;stroke:black;" d="M530,-49C458,-47 231,-41 146,-39"/>
<polygon style="fill:black;stroke:black;" points="146,-35.5001 136,-39 146,-42.5001 146,-35.5001"/>
<text text-anchor="middle" x="315" y="-47.9" style="font-family:Times New Roman;font-size:14.00;">A_stp</text>
</g>
<!-- 6 -->
<g id="node8" class="node"><title>6</title>
<ellipse style="fill:none;stroke:black;" cx="388" cy="-88" rx="18" ry="18"/>
<ellipse style="fill:none;stroke:black;" cx="388" cy="-88" rx="22" ry="22"/>
<text text-anchor="middle" x="388" y="-83.9" style="font-family:Times New Roman;font-size:14.00;">6</text>
</g>
<!-- 5&#45;&gt;6 -->
<g id="edge12" class="edge"><title>5&#45;&gt;6</title>
<path style="fill:none;stroke:black;" d="M264,-88C289,-88 328,-88 356,-88"/>
<polygon style="fill:black;stroke:black;" points="356,-91.5001 366,-88 356,-84.5001 356,-91.5001"/>
<text text-anchor="middle" x="315" y="-91.9" style="font-family:Times New Roman;font-size:14.00;">A_READY</text>
</g>
<!-- 6&#45;&gt;4 -->
<g id="edge14" class="edge"><title>6&#45;&gt;4</title>
<path style="fill:none;stroke:black;" d="M408,-79C415,-76 422,-74 428,-72 459,-63 495,-57 520,-53"/>
<polygon style="fill:black;stroke:black;" points="520.398,-56.4778 530,-52 519.701,-49.5125 520.398,-56.4778"/>
<text text-anchor="middle" x="470" y="-75.9" style="font-family:Times New Roman;font-size:14.00;">A_STANDBY</text>
</g>
<!-- 7 -->
<g id="node9" class="node"><title>7</title>
<ellipse style="fill:none;stroke:black;" cx="552" cy="-112" rx="18" ry="18"/>
<ellipse style="fill:none;stroke:black;" cx="552" cy="-112" rx="22" ry="22"/>
<text text-anchor="middle" x="552" y="-107.9" style="font-family:Times New Roman;font-size:14.00;">7</text>
</g>
<!-- 6&#45;&gt;7 -->
<g id="edge16" class="edge"><title>6&#45;&gt;7</title>
<path style="fill:none;stroke:black;" d="M410,-91C438,-95 487,-102 520,-107"/>
<polygon style="fill:black;stroke:black;" points="519.508,-110.471 530,-109 520.881,-103.607 519.508,-110.471"/>
<text text-anchor="middle" x="470" y="-107.9" style="font-family:Times New Roman;font-size:14.00;">A_OPERATE</text>
</g>
<!-- 7&#45;&gt;2 -->
<g id="edge18" class="edge"><title>7&#45;&gt;2</title>
<path style="fill:none;stroke:black;" d="M572,-104C590,-96 616,-86 636,-77"/>
<polygon style="fill:black;stroke:black;" points="637.283,-80.2598 645,-73 634.44,-73.8631 637.283,-80.2598"/>
<text text-anchor="middle" x="609" y="-97.9" style="font-family:Times New Roman;font-size:14.00;">A_do</text>
</g>
</g>
</svg>
