<?xml version="1.0" encoding="UTF-8" standalone="no"?>
<!DOCTYPE svg PUBLIC "-//W3C//DTD SVG 1.0//EN"
 "http://www.w3.org/TR/2001/REC-SVG-20010904/DTD/svg10.dtd">
<!-- Generated by dot version 2.2 (Tue Sep 13 00:37:56 UTC 2005)
     For user: (msperk) Perk_Sebastian, Betreuer=Moor, mitarb, 01/05    Title: plant_A    Pages: 1 -->
<svg width="732pt" height="439pt"
 viewBox = "-1 -1 731 438"
 xmlns="http://www.w3.org/2000/svg">
<g id="graph0" class="graph" transform = "scale(0.403135)"
 style="font-family:Times-Roman;font-size:14.00;">
<title>plant_A</title>
<g id="node1" class="node"><title>dot_dummyinit_1</title>
</g>
<g id="node3" class="node"><title>1</title>
<ellipse cx="119" cy="627" rx="18" ry="18" style="fill:none;stroke:black;"/>
<ellipse cx="119" cy="627" rx="22" ry="22" style="fill:none;stroke:black;"/>
<text text-anchor="middle" x="119" y="632">1</text>
</g>
<g id="edge2" class="edge"><title>dot_dummyinit_1&#45;&gt;1</title>
<path style="fill:none;stroke:black;" d="M59,627C68,627 77,627 87,627"/>
<polygon style="fill:black;stroke:black;" points="87,623 97,627 87,630 87,623"/>
</g>
<g id="node4" class="node"><title>2</title>
<ellipse cx="241" cy="627" rx="18" ry="18" style="fill:none;stroke:black;"/>
<ellipse cx="241" cy="627" rx="22" ry="22" style="fill:none;stroke:black;"/>
<text text-anchor="middle" x="241" y="632">2</text>
</g>
<g id="edge4" class="edge"><title>1&#45;&gt;2</title>
<path style="fill:none;stroke:black;" d="M140,635C146,637 153,638 159,639 178,642 183,642 201,639 204,639 207,638 210,637"/>
<polygon style="fill:black;stroke:black;" points="210,634 220,635 211,640 210,634"/>
<text text-anchor="middle" x="180" y="636">A_wait</text>
</g>
<g id="edge10" class="edge"><title>2&#45;&gt;1</title>
<path style="fill:none;stroke:black;" d="M220,622C214,621 207,620 201,619 183,618 178,618 159,619 156,619 153,620 150,620"/>
<polygon style="fill:black;stroke:black;" points="150,623 140,622 149,617 150,623"/>
<text text-anchor="middle" x="180" y="616">A_stp</text>
</g>
<g id="node5" class="node"><title>3</title>
<ellipse cx="348" cy="459" rx="18" ry="18" style="fill:none;stroke:black;"/>
<ellipse cx="348" cy="459" rx="22" ry="22" style="fill:none;stroke:black;"/>
<text text-anchor="middle" x="348" y="464">3</text>
</g>
<g id="edge8" class="edge"><title>2&#45;&gt;3</title>
<path style="fill:none;stroke:black;" d="M253,608C272,579 309,521 331,487"/>
<polygon style="fill:black;stroke:black;" points="328,485 336,478 334,488 328,485"/>
<text text-anchor="middle" x="293" y="527">A_l</text>
</g>
<g id="node17" class="node"><title>19</title>
<ellipse cx="348" cy="659" rx="21" ry="21" style="fill:none;stroke:black;"/>
<ellipse cx="348" cy="659" rx="25" ry="25" style="fill:none;stroke:black;"/>
<text text-anchor="middle" x="348" y="664">19</text>
</g>
<g id="edge6" class="edge"><title>2&#45;&gt;19</title>
<path style="fill:none;stroke:black;" d="M262,633C277,638 297,644 314,649"/>
<polygon style="fill:black;stroke:black;" points="315,646 324,652 313,652 315,646"/>
<text text-anchor="middle" x="293" y="637">A_r</text>
</g>
<g id="node6" class="node"><title>4</title>
<ellipse cx="481" cy="407" rx="18" ry="18" style="fill:none;stroke:black;"/>
<ellipse cx="481" cy="407" rx="22" ry="22" style="fill:none;stroke:black;"/>
<text text-anchor="middle" x="481" y="412">4</text>
</g>
<g id="edge12" class="edge"><title>3&#45;&gt;4</title>
<path style="fill:none;stroke:black;" d="M370,459C389,458 416,455 437,445 445,441 452,436 459,431"/>
<polygon style="fill:black;stroke:black;" points="456,429 466,424 461,434 456,429"/>
<text text-anchor="middle" x="414" y="442">A_reqfr</text>
</g>
<g id="edge14" class="edge"><title>4&#45;&gt;3</title>
<path style="fill:none;stroke:black;" d="M459,409C440,411 413,415 391,425 384,428 378,433 372,437"/>
<polygon style="fill:black;stroke:black;" points="374,440 364,444 369,435 374,440"/>
<text text-anchor="middle" x="414" y="410">A_nack</text>
</g>
<g id="node32" class="node"><title>5</title>
<ellipse cx="610" cy="290" rx="18" ry="18" style="fill:none;stroke:black;"/>
<text text-anchor="middle" x="610" y="295">5</text>
</g>
<g id="edge16" class="edge"><title>4&#45;&gt;5</title>
<path style="fill:none;stroke:black;" d="M497,392C521,371 564,332 590,309"/>
<polygon style="fill:black;stroke:black;" points="587,307 597,302 592,312 587,307"/>
<text text-anchor="middle" x="548" y="326">A_pack</text>
</g>
<g id="node7" class="node"><title>7</title>
<ellipse cx="735" cy="358" rx="18" ry="18" style="fill:none;stroke:black;"/>
<ellipse cx="735" cy="358" rx="22" ry="22" style="fill:none;stroke:black;"/>
<text text-anchor="middle" x="735" y="363">7</text>
</g>
<g id="node8" class="node"><title>8</title>
<ellipse cx="867" cy="468" rx="18" ry="18" style="fill:none;stroke:black;"/>
<ellipse cx="867" cy="468" rx="22" ry="22" style="fill:none;stroke:black;"/>
<text text-anchor="middle" x="867" y="473">8</text>
</g>
<g id="edge32" class="edge"><title>7&#45;&gt;8</title>
<path style="fill:none;stroke:black;" d="M750,375C780,405 816,432 841,450"/>
<polygon style="fill:black;stroke:black;" points="843,447 849,456 839,453 843,447"/>
<text text-anchor="middle" x="801" y="399">A_stp</text>
</g>
<g id="node10" class="node"><title>10</title>
<ellipse cx="867" cy="373" rx="21" ry="21" style="fill:none;stroke:black;"/>
<ellipse cx="867" cy="373" rx="25" ry="25" style="fill:none;stroke:black;"/>
<text text-anchor="middle" x="867" y="378">10</text>
</g>
<g id="edge30" class="edge"><title>7&#45;&gt;10</title>
<path style="fill:none;stroke:black;" d="M757,361C778,363 808,367 832,369"/>
<polygon style="fill:black;stroke:black;" points="832,366 842,370 832,372 832,366"/>
<text text-anchor="middle" x="801" y="361">A_l</text>
</g>
<g id="node29" class="node"><title>35</title>
<ellipse cx="1629" cy="546" rx="21" ry="21" style="fill:none;stroke:black;"/>
<ellipse cx="1629" cy="546" rx="25" ry="25" style="fill:none;stroke:black;"/>
<text text-anchor="middle" x="1629" y="551">35</text>
</g>
<g id="edge28" class="edge"><title>7&#45;&gt;35</title>
<path style="fill:none;stroke:black;" d="M755,348C781,337 826,320 867,320 867,320 867,320 1505,320 1580,320 1600,369 1623,439 1625,445 1626,447 1626,452 1628,463 1629,488 1629,510"/>
<polygon style="fill:black;stroke:black;" points="1633,510 1629,520 1626,510 1633,510"/>
<text text-anchor="middle" x="1204" y="317">A_r</text>
</g>
<g id="node9" class="node"><title>9</title>
<ellipse cx="1003" cy="512" rx="18" ry="18" style="fill:none;stroke:black;"/>
<ellipse cx="1003" cy="512" rx="22" ry="22" style="fill:none;stroke:black;"/>
<text text-anchor="middle" x="1003" y="517">9</text>
</g>
<g id="edge34" class="edge"><title>8&#45;&gt;9</title>
<path style="fill:none;stroke:black;" d="M882,485C890,493 900,502 911,506 930,514 953,515 971,515"/>
<polygon style="fill:black;stroke:black;" points="971,511 981,515 971,518 971,511"/>
<text text-anchor="middle" x="935" y="503">A_occfr</text>
</g>
<g id="edge36" class="edge"><title>9&#45;&gt;8</title>
<path style="fill:none;stroke:black;" d="M985,500C977,495 968,490 959,486 940,479 917,475 899,472"/>
<polygon style="fill:black;stroke:black;" points="898,475 889,470 899,469 898,475"/>
<text text-anchor="middle" x="935" y="472">A_nack</text>
</g>
<g id="node12" class="node"><title>12</title>
<ellipse cx="1137" cy="512" rx="21" ry="21" style="fill:none;stroke:black;"/>
<ellipse cx="1137" cy="512" rx="25" ry="25" style="fill:none;stroke:black;"/>
<text text-anchor="middle" x="1137" y="517">12</text>
</g>
<g id="edge38" class="edge"><title>9&#45;&gt;12</title>
<path style="fill:none;stroke:black;" d="M1025,512C1046,512 1077,512 1102,512"/>
<polygon style="fill:black;stroke:black;" points="1102,508 1112,512 1102,515 1102,508"/>
<text text-anchor="middle" x="1070" y="509">A_pack</text>
</g>
<g id="node11" class="node"><title>11</title>
<ellipse cx="1003" cy="416" rx="20" ry="20" style="fill:none;stroke:black;"/>
<ellipse cx="1003" cy="416" rx="24" ry="24" style="fill:none;stroke:black;"/>
<text text-anchor="middle" x="1003" y="421">11</text>
</g>
<g id="edge40" class="edge"><title>10&#45;&gt;11</title>
<path style="fill:none;stroke:black;" d="M887,389C894,394 903,399 911,402 929,409 950,413 968,414"/>
<polygon style="fill:black;stroke:black;" points="968,411 978,415 968,417 968,411"/>
<text text-anchor="middle" x="935" y="399">A_occfr</text>
</g>
<g id="edge42" class="edge"><title>11&#45;&gt;10</title>
<path style="fill:none;stroke:black;" d="M985,399C978,393 969,386 959,382 942,375 920,373 902,372"/>
<polygon style="fill:black;stroke:black;" points="902,375 892,372 902,368 902,375"/>
<text text-anchor="middle" x="935" y="371">A_nack</text>
</g>
<g id="node34" class="node"><title>14</title>
<ellipse cx="1377" cy="445" rx="21" ry="21" style="fill:none;stroke:black;"/>
<text text-anchor="middle" x="1377" y="450">14</text>
</g>
<g id="edge44" class="edge"><title>11&#45;&gt;14</title>
<path style="fill:none;stroke:black;" d="M1028,418C1094,423 1272,437 1346,442"/>
<polygon style="fill:black;stroke:black;" points="1346,439 1356,443 1346,445 1346,439"/>
<text text-anchor="middle" x="1204" y="428">A_pack</text>
</g>
<g id="node13" class="node"><title>13</title>
<ellipse cx="1270" cy="504" rx="21" ry="21" style="fill:none;stroke:black;"/>
<ellipse cx="1270" cy="504" rx="25" ry="25" style="fill:none;stroke:black;"/>
<text text-anchor="middle" x="1270" y="509">13</text>
</g>
<g id="edge46" class="edge"><title>12&#45;&gt;13</title>
<path style="fill:none;stroke:black;" d="M1162,510C1183,509 1212,508 1235,506"/>
<polygon style="fill:black;stroke:black;" points="1235,503 1245,505 1235,509 1235,503"/>
<text text-anchor="middle" x="1204" y="505">A_wait</text>
</g>
<g id="edge52" class="edge"><title>13&#45;&gt;12</title>
<path style="fill:none;stroke:black;" d="M1247,494C1241,491 1234,489 1227,488 1207,485 1201,484 1181,488 1175,490 1171,491 1167,493"/>
<polygon style="fill:black;stroke:black;" points="1168,496 1158,498 1165,490 1168,496"/>
<text text-anchor="middle" x="1204" y="483">A_stp</text>
</g>
<g id="edge50" class="edge"><title>13&#45;&gt;14</title>
<path style="fill:none;stroke:black;" d="M1292,492C1308,483 1332,470 1350,460"/>
<polygon style="fill:black;stroke:black;" points="1349,457 1359,455 1352,463 1349,457"/>
<text text-anchor="middle" x="1325" y="467">A_l</text>
</g>
<g id="node38" class="node"><title>30</title>
<ellipse cx="1377" cy="632" rx="21" ry="21" style="fill:none;stroke:black;"/>
<text text-anchor="middle" x="1377" y="637">30</text>
</g>
<g id="edge48" class="edge"><title>13&#45;&gt;30</title>
<path style="fill:none;stroke:black;" d="M1286,524C1294,533 1304,545 1313,555 1334,579 1347,586 1360,604"/>
<polygon style="fill:black;stroke:black;" points="1363,602 1366,612 1357,606 1363,602"/>
<text text-anchor="middle" x="1325" y="549">A_r</text>
</g>
<g id="node14" class="node"><title>16</title>
<ellipse cx="1505" cy="378" rx="21" ry="21" style="fill:none;stroke:black;"/>
<ellipse cx="1505" cy="378" rx="25" ry="25" style="fill:none;stroke:black;"/>
<text text-anchor="middle" x="1505" y="383">16</text>
</g>
<g id="node15" class="node"><title>17</title>
<ellipse cx="1629" cy="130" rx="20" ry="20" style="fill:none;stroke:black;"/>
<ellipse cx="1629" cy="130" rx="24" ry="24" style="fill:none;stroke:black;"/>
<text text-anchor="middle" x="1629" y="135">17</text>
</g>
<g id="edge68" class="edge"><title>16&#45;&gt;17</title>
<path style="fill:none;stroke:black;" d="M1516,356C1539,312 1588,212 1613,161"/>
<polygon style="fill:black;stroke:black;" points="1610,159 1618,152 1616,162 1610,159"/>
<text text-anchor="middle" x="1567" y="219">A_stp</text>
</g>
<g id="edge64" class="edge"><title>16&#45;&gt;35</title>
<path style="fill:none;stroke:black;" d="M1525,393C1552,415 1599,456 1623,510"/>
<polygon style="fill:black;stroke:black;" points="1627,509 1627,520 1620,512 1627,509"/>
<text text-anchor="middle" x="1567" y="410">A_r</text>
</g>
<g id="edge66" class="edge"><title>16&#45;&gt;35</title>
<path style="fill:none;stroke:black;" d="M1530,377C1548,377 1570,380 1585,393 1627,429 1615,456 1626,509 1626,509 1626,510 1626,510"/>
<polygon style="fill:black;stroke:black;" points="1629,510 1627,520 1623,510 1629,510"/>
<text text-anchor="middle" x="1567" y="376">A_l</text>
</g>
<g id="node16" class="node"><title>18</title>
<ellipse cx="1765" cy="78" rx="21" ry="21" style="fill:none;stroke:black;"/>
<ellipse cx="1765" cy="78" rx="25" ry="25" style="fill:none;stroke:black;"/>
<text text-anchor="middle" x="1765" y="83">18</text>
</g>
<g id="edge70" class="edge"><title>17&#45;&gt;18</title>
<path style="fill:none;stroke:black;" d="M1651,120C1658,116 1666,113 1673,110 1692,102 1714,95 1731,89"/>
<polygon style="fill:black;stroke:black;" points="1730,86 1741,86 1732,92 1730,86"/>
<text text-anchor="middle" x="1697" y="92">A_freetl</text>
</g>
<g id="edge74" class="edge"><title>18&#45;&gt;1</title>
<path style="fill:none;stroke:black;" d="M1743,66C1716,53 1671,34 1629,34 241,34 241,34 241,34 184,34 135,471 122,595"/>
<polygon style="fill:black;stroke:black;" points="125,595 121,605 119,595 125,595"/>
<text text-anchor="middle" x="935" y="31">A_pack</text>
</g>
<g id="edge72" class="edge"><title>18&#45;&gt;17</title>
<path style="fill:none;stroke:black;" d="M1755,102C1747,117 1741,125 1721,133 1703,141 1681,141 1663,138"/>
<polygon style="fill:black;stroke:black;" points="1662,141 1653,136 1663,135 1662,141"/>
<text text-anchor="middle" x="1697" y="130">A_nack</text>
</g>
<g id="node18" class="node"><title>20</title>
<ellipse cx="481" cy="711" rx="21" ry="21" style="fill:none;stroke:black;"/>
<ellipse cx="481" cy="711" rx="25" ry="25" style="fill:none;stroke:black;"/>
<text text-anchor="middle" x="481" y="716">20</text>
</g>
<g id="edge76" class="edge"><title>19&#45;&gt;20</title>
<path style="fill:none;stroke:black;" d="M365,678C372,685 381,692 391,697 408,704 428,708 445,710"/>
<polygon style="fill:black;stroke:black;" points="445,707 455,711 445,713 445,707"/>
<text text-anchor="middle" x="414" y="691">A_reqfl</text>
</g>
<g id="edge78" class="edge"><title>20&#45;&gt;19</title>
<path style="fill:none;stroke:black;" d="M462,693C455,687 446,681 437,677 420,670 400,665 383,662"/>
<polygon style="fill:black;stroke:black;" points="383,665 373,661 383,659 383,665"/>
<text text-anchor="middle" x="414" y="662">A_nack</text>
</g>
<g id="node36" class="node"><title>21</title>
<ellipse cx="610" cy="762" rx="21" ry="21" style="fill:none;stroke:black;"/>
<text text-anchor="middle" x="610" y="767">21</text>
</g>
<g id="edge80" class="edge"><title>20&#45;&gt;21</title>
<path style="fill:none;stroke:black;" d="M505,721C527,729 558,741 580,750"/>
<polygon style="fill:black;stroke:black;" points="582,747 590,754 579,754 582,747"/>
<text text-anchor="middle" x="548" y="725">A_pack</text>
</g>
<g id="node19" class="node"><title>23</title>
<ellipse cx="735" cy="727" rx="21" ry="21" style="fill:none;stroke:black;"/>
<ellipse cx="735" cy="727" rx="25" ry="25" style="fill:none;stroke:black;"/>
<text text-anchor="middle" x="735" y="732">23</text>
</g>
<g id="node20" class="node"><title>24</title>
<ellipse cx="867" cy="624" rx="21" ry="21" style="fill:none;stroke:black;"/>
<ellipse cx="867" cy="624" rx="25" ry="25" style="fill:none;stroke:black;"/>
<text text-anchor="middle" x="867" y="629">24</text>
</g>
<g id="edge96" class="edge"><title>23&#45;&gt;24</title>
<path style="fill:none;stroke:black;" d="M756,711C778,694 813,666 838,646"/>
<polygon style="fill:black;stroke:black;" points="836,643 846,640 840,649 836,643"/>
<text text-anchor="middle" x="801" y="657">A_stp</text>
</g>
<g id="node24" class="node"><title>28</title>
<ellipse cx="867" cy="720" rx="21" ry="21" style="fill:none;stroke:black;"/>
<ellipse cx="867" cy="720" rx="25" ry="25" style="fill:none;stroke:black;"/>
<text text-anchor="middle" x="867" y="725">28</text>
</g>
<g id="edge92" class="edge"><title>23&#45;&gt;28</title>
<path style="fill:none;stroke:black;" d="M761,726C781,725 809,724 831,722"/>
<polygon style="fill:black;stroke:black;" points="831,718 841,722 831,725 831,718"/>
<text text-anchor="middle" x="801" y="718">A_r</text>
</g>
<g id="edge94" class="edge"><title>23&#45;&gt;35</title>
<path style="fill:none;stroke:black;" d="M758,740C783,754 827,774 867,774 867,774 867,774 1505,774 1579,774 1602,728 1623,658 1625,653 1626,651 1626,645 1628,634 1629,606 1629,582"/>
<polygon style="fill:black;stroke:black;" points="1626,582 1629,572 1633,582 1626,582"/>
<text text-anchor="middle" x="1204" y="771">A_l</text>
</g>
<g id="node21" class="node"><title>25</title>
<ellipse cx="1003" cy="593" rx="21" ry="21" style="fill:none;stroke:black;"/>
<ellipse cx="1003" cy="593" rx="25" ry="25" style="fill:none;stroke:black;"/>
<text text-anchor="middle" x="1003" y="598">25</text>
</g>
<g id="edge98" class="edge"><title>24&#45;&gt;25</title>
<path style="fill:none;stroke:black;" d="M893,622C912,620 938,616 959,610 962,609 966,608 969,607"/>
<polygon style="fill:black;stroke:black;" points="968,604 979,604 970,610 968,604"/>
<text text-anchor="middle" x="935" y="607">A_occfl</text>
</g>
<g id="edge100" class="edge"><title>25&#45;&gt;24</title>
<path style="fill:none;stroke:black;" d="M977,587C959,585 933,583 911,590 905,592 899,595 894,599"/>
<polygon style="fill:black;stroke:black;" points="896,602 886,605 892,596 896,602"/>
<text text-anchor="middle" x="935" y="583">A_nack</text>
</g>
<g id="node22" class="node"><title>26</title>
<ellipse cx="1137" cy="593" rx="21" ry="21" style="fill:none;stroke:black;"/>
<ellipse cx="1137" cy="593" rx="25" ry="25" style="fill:none;stroke:black;"/>
<text text-anchor="middle" x="1137" y="598">26</text>
</g>
<g id="edge102" class="edge"><title>25&#45;&gt;26</title>
<path style="fill:none;stroke:black;" d="M1029,593C1050,593 1078,593 1101,593"/>
<polygon style="fill:black;stroke:black;" points="1101,589 1111,593 1101,596 1101,589"/>
<text text-anchor="middle" x="1070" y="590">A_pack</text>
</g>
<g id="node23" class="node"><title>27</title>
<ellipse cx="1270" cy="589" rx="21" ry="21" style="fill:none;stroke:black;"/>
<ellipse cx="1270" cy="589" rx="25" ry="25" style="fill:none;stroke:black;"/>
<text text-anchor="middle" x="1270" y="594">27</text>
</g>
<g id="edge104" class="edge"><title>26&#45;&gt;27</title>
<path style="fill:none;stroke:black;" d="M1161,604C1167,607 1174,609 1181,610 1202,614 1208,615 1227,610 1231,609 1235,608 1240,606"/>
<polygon style="fill:black;stroke:black;" points="1238,603 1249,602 1241,609 1238,603"/>
<text text-anchor="middle" x="1204" y="607">A_wait</text>
</g>
<g id="edge110" class="edge"><title>27&#45;&gt;26</title>
<path style="fill:none;stroke:black;" d="M1245,589C1227,589 1203,589 1181,590 1178,590 1176,590 1173,590"/>
<polygon style="fill:black;stroke:black;" points="1173,593 1163,591 1173,587 1173,593"/>
<text text-anchor="middle" x="1204" y="587">A_stp</text>
</g>
<g id="edge108" class="edge"><title>27&#45;&gt;14</title>
<path style="fill:none;stroke:black;" d="M1286,569C1294,559 1304,546 1313,535 1336,507 1351,500 1366,475"/>
<polygon style="fill:black;stroke:black;" points="1363,473 1371,466 1369,476 1363,473"/>
<text text-anchor="middle" x="1325" y="509">A_l</text>
</g>
<g id="edge106" class="edge"><title>27&#45;&gt;30</title>
<path style="fill:none;stroke:black;" d="M1291,603C1298,607 1306,611 1313,614 1323,618 1335,622 1345,624"/>
<polygon style="fill:black;stroke:black;" points="1346,621 1355,627 1344,627 1346,621"/>
<text text-anchor="middle" x="1325" y="611">A_r</text>
</g>
<g id="node25" class="node"><title>29</title>
<ellipse cx="1003" cy="676" rx="21" ry="21" style="fill:none;stroke:black;"/>
<ellipse cx="1003" cy="676" rx="25" ry="25" style="fill:none;stroke:black;"/>
<text text-anchor="middle" x="1003" y="681">29</text>
</g>
<g id="edge112" class="edge"><title>28&#45;&gt;29</title>
<path style="fill:none;stroke:black;" d="M893,722C912,723 938,722 959,714 966,711 972,707 978,702"/>
<polygon style="fill:black;stroke:black;" points="976,699 986,696 980,705 976,699"/>
<text text-anchor="middle" x="935" y="711">A_occfl</text>
</g>
<g id="edge114" class="edge"><title>29&#45;&gt;28</title>
<path style="fill:none;stroke:black;" d="M977,679C958,681 932,686 911,694 906,696 902,698 898,700"/>
<polygon style="fill:black;stroke:black;" points="899,703 889,705 896,697 899,703"/>
<text text-anchor="middle" x="935" y="677">A_nack</text>
</g>
<g id="edge116" class="edge"><title>29&#45;&gt;30</title>
<path style="fill:none;stroke:black;" d="M1029,673C1096,665 1272,644 1345,636"/>
<polygon style="fill:black;stroke:black;" points="1345,633 1355,635 1345,639 1345,633"/>
<text text-anchor="middle" x="1204" y="648">A_pack</text>
</g>
<g id="node26" class="node"><title>32</title>
<ellipse cx="1505" cy="718" rx="21" ry="21" style="fill:none;stroke:black;"/>
<ellipse cx="1505" cy="718" rx="25" ry="25" style="fill:none;stroke:black;"/>
<text text-anchor="middle" x="1505" y="723">32</text>
</g>
<g id="node27" class="node"><title>33</title>
<ellipse cx="1629" cy="962" rx="21" ry="21" style="fill:none;stroke:black;"/>
<ellipse cx="1629" cy="962" rx="25" ry="25" style="fill:none;stroke:black;"/>
<text text-anchor="middle" x="1629" y="967">33</text>
</g>
<g id="edge132" class="edge"><title>32&#45;&gt;33</title>
<path style="fill:none;stroke:black;" d="M1517,741C1540,785 1588,880 1613,930"/>
<polygon style="fill:black;stroke:black;" points="1616,928 1617,939 1610,931 1616,928"/>
<text text-anchor="middle" x="1567" y="797">A_stp</text>
</g>
<g id="edge128" class="edge"><title>32&#45;&gt;35</title>
<path style="fill:none;stroke:black;" d="M1526,703C1553,681 1602,639 1624,582"/>
<polygon style="fill:black;stroke:black;" points="1621,580 1628,572 1628,583 1621,580"/>
<text text-anchor="middle" x="1567" y="647">A_r</text>
</g>
<g id="edge130" class="edge"><title>32&#45;&gt;35</title>
<path style="fill:none;stroke:black;" d="M1531,720C1548,720 1570,717 1585,705 1629,669 1615,640 1626,584 1626,583 1626,583 1627,582"/>
<polygon style="fill:black;stroke:black;" points="1624,582 1628,572 1630,582 1624,582"/>
<text text-anchor="middle" x="1567" y="702">A_l</text>
</g>
<g id="node28" class="node"><title>34</title>
<ellipse cx="1765" cy="1014" rx="21" ry="21" style="fill:none;stroke:black;"/>
<ellipse cx="1765" cy="1014" rx="25" ry="25" style="fill:none;stroke:black;"/>
<text text-anchor="middle" x="1765" y="1019">34</text>
</g>
<g id="edge134" class="edge"><title>33&#45;&gt;34</title>
<path style="fill:none;stroke:black;" d="M1647,981C1654,988 1663,995 1673,1000 1690,1007 1711,1011 1729,1013"/>
<polygon style="fill:black;stroke:black;" points="1729,1010 1739,1014 1729,1016 1729,1010"/>
<text text-anchor="middle" x="1697" y="994">A_freetr</text>
</g>
<g id="edge138" class="edge"><title>34&#45;&gt;1</title>
<path style="fill:none;stroke:black;" d="M1742,1027C1716,1040 1671,1060 1629,1060 241,1060 241,1060 241,1060 159,1060 129,759 121,659"/>
<polygon style="fill:black;stroke:black;" points="118,659 120,649 124,659 118,659"/>
<text text-anchor="middle" x="935" y="1057">A_pack</text>
</g>
<g id="edge136" class="edge"><title>34&#45;&gt;33</title>
<path style="fill:none;stroke:black;" d="M1746,996C1739,990 1730,984 1721,980 1704,972 1683,968 1665,965"/>
<polygon style="fill:black;stroke:black;" points="1665,968 1655,964 1665,962 1665,968"/>
<text text-anchor="middle" x="1697" y="961">A_nack</text>
</g>
<g id="node30" class="node"><title>36</title>
<ellipse cx="1765" cy="338" rx="21" ry="21" style="fill:none;stroke:black;"/>
<ellipse cx="1765" cy="338" rx="25" ry="25" style="fill:none;stroke:black;"/>
<text text-anchor="middle" x="1765" y="343">36</text>
</g>
<g id="edge140" class="edge"><title>35&#45;&gt;36</title>
<path style="fill:none;stroke:black;" d="M1632,520C1639,477 1653,392 1673,370 1687,355 1710,347 1729,343"/>
<polygon style="fill:black;stroke:black;" points="1729,340 1739,341 1730,346 1729,340"/>
<text text-anchor="middle" x="1697" y="344">A_wait</text>
</g>
<g id="edge142" class="edge"><title>35&#45;&gt;36</title>
<path style="fill:none;stroke:black;" d="M1633,520C1638,493 1649,451 1673,422 1689,404 1703,411 1721,395 1730,387 1739,378 1745,369"/>
<polygon style="fill:black;stroke:black;" points="1743,366 1751,360 1748,370 1743,366"/>
<text text-anchor="middle" x="1697" y="392">A_full</text>
</g>
<g id="edge144" class="edge"><title>35&#45;&gt;36</title>
<path style="fill:none;stroke:black;" d="M1640,522C1647,507 1659,488 1673,474 1691,458 1704,466 1721,448 1747,422 1750,409 1760,374"/>
<polygon style="fill:black;stroke:black;" points="1757,373 1763,364 1763,375 1757,373"/>
<text text-anchor="middle" x="1697" y="445">A_arrtl</text>
</g>
<g id="edge146" class="edge"><title>35&#45;&gt;36</title>
<path style="fill:none;stroke:black;" d="M1654,539C1675,531 1703,518 1721,497 1758,455 1751,433 1762,378 1762,377 1763,376 1763,374"/>
<polygon style="fill:black;stroke:black;" points="1760,374 1764,364 1766,374 1760,374"/>
<text text-anchor="middle" x="1697" y="494">A_arrtr</text>
</g>
<g id="node31" class="node"><title>37</title>
<ellipse cx="1765" cy="728" rx="21" ry="21" style="fill:none;stroke:black;"/>
<ellipse cx="1765" cy="728" rx="25" ry="25" style="fill:none;stroke:black;"/>
<text text-anchor="middle" x="1765" y="733">37</text>
</g>
<g id="edge148" class="edge"><title>35&#45;&gt;37</title>
<path style="fill:none;stroke:black;" d="M1630,572C1635,650 1649,875 1673,896 1689,910 1705,909 1721,896 1742,879 1755,807 1761,763"/>
<polygon style="fill:black;stroke:black;" points="1758,763 1762,753 1764,763 1758,763"/>
<text text-anchor="middle" x="1697" y="890">A_reqfl</text>
</g>
<g id="edge150" class="edge"><title>35&#45;&gt;37</title>
<path style="fill:none;stroke:black;" d="M1655,549C1676,552 1704,560 1721,578 1737,595 1750,655 1759,693"/>
<polygon style="fill:black;stroke:black;" points="1762,693 1761,703 1756,694 1762,693"/>
<text text-anchor="middle" x="1697" y="551">A_reqfr</text>
</g>
<g id="edge152" class="edge"><title>35&#45;&gt;37</title>
<path style="fill:none;stroke:black;" d="M1645,567C1653,578 1659,585 1673,598 1693,616 1705,611 1721,630 1736,649 1747,673 1755,693"/>
<polygon style="fill:black;stroke:black;" points="1758,692 1758,703 1752,694 1758,692"/>
<text text-anchor="middle" x="1697" y="595">A_occfr</text>
</g>
<g id="edge154" class="edge"><title>35&#45;&gt;37</title>
<path style="fill:none;stroke:black;" d="M1632,572C1643,608 1647,621 1673,650 1691,670 1702,666 1721,682 1728,688 1735,695 1741,701"/>
<polygon style="fill:black;stroke:black;" points="1744,699 1748,709 1739,704 1744,699"/>
<text text-anchor="middle" x="1697" y="645">A_occfl</text>
</g>
<g id="edge156" class="edge"><title>35&#45;&gt;37</title>
<path style="fill:none;stroke:black;" d="M1631,572C1631,573 1631,574 1631,575 1639,616 1635,666 1673,702 1688,716 1711,723 1730,726"/>
<polygon style="fill:black;stroke:black;" points="1730,723 1740,727 1730,729 1730,723"/>
<text text-anchor="middle" x="1697" y="696">A_freetl</text>
</g>
<g id="edge158" class="edge"><title>35&#45;&gt;37</title>
<path style="fill:none;stroke:black;" d="M1631,572C1631,574 1631,576 1631,578 1633,596 1635,601 1637,618 1646,675 1627,708 1673,742 1690,754 1714,750 1733,743"/>
<polygon style="fill:black;stroke:black;" points="1732,740 1743,740 1734,746 1732,740"/>
<text text-anchor="middle" x="1697" y="736">A_freetr</text>
</g>
<g id="edge160" class="edge"><title>36&#45;&gt;35</title>
<path style="fill:none;stroke:black;" d="M1760,312C1752,280 1737,226 1721,214 1704,202 1690,201 1673,214 1624,257 1638,439 1631,503 1631,505 1631,508 1631,510"/>
<polygon style="fill:black;stroke:black;" points="1634,510 1630,520 1628,510 1634,510"/>
<text text-anchor="middle" x="1697" y="202">A_r</text>
</g>
<g id="edge162" class="edge"><title>36&#45;&gt;35</title>
<path style="fill:none;stroke:black;" d="M1757,313C1750,297 1739,276 1721,266 1703,256 1690,253 1673,266 1668,271 1632,499 1631,505 1631,506 1631,508 1631,510"/>
<polygon style="fill:black;stroke:black;" points="1634,510 1630,520 1628,510 1634,510"/>
<text text-anchor="middle" x="1697" y="255">A_l</text>
</g>
<g id="edge164" class="edge"><title>36&#45;&gt;35</title>
<path style="fill:none;stroke:black;" d="M1741,327C1721,319 1693,312 1673,327 1665,334 1633,497 1631,507 1631,508 1631,509 1631,510"/>
<polygon style="fill:black;stroke:black;" points="1634,510 1630,520 1628,510 1634,510"/>
<text text-anchor="middle" x="1697" y="316">A_stp</text>
</g>
<g id="edge166" class="edge"><title>37&#45;&gt;35</title>
<path style="fill:none;stroke:black;" d="M1755,751C1746,761 1738,763 1721,769 1701,774 1691,781 1673,769 1649,751 1661,733 1652,705 1651,700 1651,699 1649,695 1648,688 1648,687 1646,681 1645,675 1645,673 1643,666 1642,659 1642,657 1640,648 1636,621 1634,613 1631,582"/>
<polygon style="fill:black;stroke:black;" points="1628,582 1630,572 1634,582 1628,582"/>
<text text-anchor="middle" x="1697" y="763">A_nack</text>
</g>
<g id="edge168" class="edge"><title>37&#45;&gt;35</title>
<path style="fill:none;stroke:black;" d="M1760,753C1750,774 1745,784 1721,795 1702,803 1690,808 1673,795 1655,780 1634,608 1631,584 1631,583 1631,583 1631,582"/>
<polygon style="fill:black;stroke:black;" points="1628,582 1630,572 1634,582 1628,582"/>
<text text-anchor="middle" x="1697" y="787">A_pack</text>
</g>
<g id="edge20" class="edge"><title>5&#45;&gt;7</title>
<path style="fill:none;stroke:black;" d="M626,299C633,303 641,308 649,312 668,323 690,334 706,343"/>
<polygon style="fill:black;stroke:black;" points="708,340 715,348 705,346 708,340"/>
<text text-anchor="middle" x="670" y="309">A_full</text>
</g>
<g id="node33" class="node"><title>6</title>
<ellipse cx="935" cy="230" rx="18" ry="18" style="fill:none;stroke:black;"/>
<text text-anchor="middle" x="935" y="235">6</text>
</g>
<g id="edge18" class="edge"><title>5&#45;&gt;6</title>
<path style="fill:none;stroke:black;" d="M628,288C673,284 795,269 893,244 898,243 903,241 908,240"/>
<polygon style="fill:black;stroke:black;" points="907,237 918,237 909,243 907,237"/>
<text text-anchor="middle" x="735" y="269">A_wait</text>
</g>
<g id="edge22" class="edge"><title>6&#45;&gt;35</title>
<path style="fill:none;stroke:black;" d="M950,220C974,205 1024,178 1070,178 1070,178 1070,178 1505,178 1545,178 1562,185 1585,216 1650,301 1616,347 1626,452 1628,463 1629,488 1629,510"/>
<polygon style="fill:black;stroke:black;" points="1633,510 1629,520 1626,510 1633,510"/>
<text text-anchor="middle" x="1270" y="175">A_r</text>
</g>
<g id="edge26" class="edge"><title>6&#45;&gt;35</title>
<path style="fill:none;stroke:black;" d="M953,230C979,230 1028,230 1070,230 1070,230 1070,230 1505,230 1541,230 1559,216 1585,240 1656,306 1616,357 1626,452 1628,463 1629,488 1629,510"/>
<polygon style="fill:black;stroke:black;" points="1633,510 1629,520 1626,510 1633,510"/>
<text text-anchor="middle" x="1270" y="227">A_stp</text>
</g>
<g id="edge24" class="edge"><title>6&#45;&gt;5</title>
<path style="fill:none;stroke:black;" d="M917,231C878,232 785,237 709,252 682,258 676,261 649,271 644,274 639,275 635,277"/>
<polygon style="fill:black;stroke:black;" points="636,280 625,280 634,274 636,280"/>
<text text-anchor="middle" x="735" y="242">A_l</text>
</g>
<g id="edge56" class="edge"><title>14&#45;&gt;16</title>
<path style="fill:none;stroke:black;" d="M1396,435C1416,424 1449,408 1473,395"/>
<polygon style="fill:black;stroke:black;" points="1472,392 1482,390 1475,398 1472,392"/>
<text text-anchor="middle" x="1439" y="399">A_arrtl</text>
</g>
<g id="node35" class="node"><title>15</title>
<ellipse cx="1505" cy="490" rx="21" ry="21" style="fill:none;stroke:black;"/>
<text text-anchor="middle" x="1505" y="495">15</text>
</g>
<g id="edge54" class="edge"><title>14&#45;&gt;15</title>
<path style="fill:none;stroke:black;" d="M1397,452C1414,458 1439,466 1461,474 1466,476 1471,478 1476,479"/>
<polygon style="fill:black;stroke:black;" points="1477,476 1485,483 1474,482 1477,476"/>
<text text-anchor="middle" x="1439" y="456">A_wait</text>
</g>
<g id="edge58" class="edge"><title>15&#45;&gt;35</title>
<path style="fill:none;stroke:black;" d="M1524,499C1543,507 1573,520 1596,531"/>
<polygon style="fill:black;stroke:black;" points="1597,528 1605,535 1594,534 1597,528"/>
<text text-anchor="middle" x="1567" y="508">A_r</text>
</g>
<g id="edge62" class="edge"><title>15&#45;&gt;35</title>
<path style="fill:none;stroke:black;" d="M1526,486C1543,484 1566,483 1585,491 1601,497 1608,503 1615,512"/>
<polygon style="fill:black;stroke:black;" points="1618,511 1621,521 1613,515 1618,511"/>
<text text-anchor="middle" x="1567" y="483">A_stp</text>
</g>
<g id="edge60" class="edge"><title>15&#45;&gt;14</title>
<path style="fill:none;stroke:black;" d="M1485,496C1466,500 1439,504 1417,494 1403,488 1397,482 1391,473"/>
<polygon style="fill:black;stroke:black;" points="1388,474 1386,464 1394,471 1388,474"/>
<text text-anchor="middle" x="1439" y="491">A_l</text>
</g>
<g id="edge84" class="edge"><title>21&#45;&gt;23</title>
<path style="fill:none;stroke:black;" d="M630,756C649,751 677,743 699,737"/>
<polygon style="fill:black;stroke:black;" points="698,734 709,734 700,740 698,734"/>
<text text-anchor="middle" x="670" y="735">A_full</text>
</g>
<g id="node37" class="node"><title>22</title>
<ellipse cx="801" cy="847" rx="21" ry="21" style="fill:none;stroke:black;"/>
<text text-anchor="middle" x="801" y="852">22</text>
</g>
<g id="edge82" class="edge"><title>21&#45;&gt;22</title>
<path style="fill:none;stroke:black;" d="M617,782C623,797 633,816 649,827 685,850 736,852 769,851"/>
<polygon style="fill:black;stroke:black;" points="769,848 779,850 769,854 769,848"/>
<text text-anchor="middle" x="670" y="821">A_wait</text>
</g>
<g id="edge88" class="edge"><title>22&#45;&gt;35</title>
<path style="fill:none;stroke:black;" d="M823,851C849,857 895,864 935,864 935,864 935,864 1505,864 1541,864 1559,878 1585,854 1655,789 1616,739 1626,645 1628,634 1629,606 1629,582"/>
<polygon style="fill:black;stroke:black;" points="1626,582 1629,572 1633,582 1626,582"/>
<text text-anchor="middle" x="1204" y="861">A_l</text>
</g>
<g id="edge90" class="edge"><title>22&#45;&gt;35</title>
<path style="fill:none;stroke:black;" d="M816,864C854,901 876,916 935,916 935,916 935,916 1505,916 1578,916 1606,876 1626,808 1628,802 1629,654 1629,582"/>
<polygon style="fill:black;stroke:black;" points="1626,582 1629,572 1633,582 1626,582"/>
<text text-anchor="middle" x="1204" y="913">A_stp</text>
</g>
<g id="edge86" class="edge"><title>22&#45;&gt;21</title>
<path style="fill:none;stroke:black;" d="M781,838C747,822 678,792 638,775"/>
<polygon style="fill:black;stroke:black;" points="637,778 629,771 640,772 637,778"/>
<text text-anchor="middle" x="670" y="774">A_r</text>
</g>
<g id="edge120" class="edge"><title>30&#45;&gt;32</title>
<path style="fill:none;stroke:black;" d="M1385,653C1394,662 1403,663 1417,672 1435,683 1456,694 1472,702"/>
<polygon style="fill:black;stroke:black;" points="1474,699 1481,707 1471,705 1474,699"/>
<text text-anchor="middle" x="1439" y="669">A_arrtr</text>
</g>
<g id="node39" class="node"><title>31</title>
<ellipse cx="1505" cy="612" rx="21" ry="21" style="fill:none;stroke:black;"/>
<text text-anchor="middle" x="1505" y="617">31</text>
</g>
<g id="edge118" class="edge"><title>30&#45;&gt;31</title>
<path style="fill:none;stroke:black;" d="M1399,629C1420,626 1451,621 1474,617"/>
<polygon style="fill:black;stroke:black;" points="1474,614 1484,615 1475,620 1474,614"/>
<text text-anchor="middle" x="1439" y="617">A_wait</text>
</g>
<g id="edge124" class="edge"><title>31&#45;&gt;35</title>
<path style="fill:none;stroke:black;" d="M1524,602C1543,592 1574,576 1597,563"/>
<polygon style="fill:black;stroke:black;" points="1596,560 1606,558 1599,566 1596,560"/>
<text text-anchor="middle" x="1567" y="569">A_l</text>
</g>
<g id="edge126" class="edge"><title>31&#45;&gt;35</title>
<path style="fill:none;stroke:black;" d="M1526,617C1543,619 1566,620 1585,611 1604,603 1611,594 1618,580"/>
<polygon style="fill:black;stroke:black;" points="1615,579 1622,571 1621,582 1615,579"/>
<text text-anchor="middle" x="1567" y="608">A_stp</text>
</g>
<g id="edge122" class="edge"><title>31&#45;&gt;30</title>
<path style="fill:none;stroke:black;" d="M1492,628C1484,637 1477,642 1461,647 1444,653 1423,650 1406,644"/>
<polygon style="fill:black;stroke:black;" points="1405,647 1397,641 1408,641 1405,647"/>
<text text-anchor="middle" x="1439" y="644">A_r</text>
</g>
</g>
</svg>
