<?xml version="1.0" encoding="UTF-8" standalone="no"?>
<!DOCTYPE svg PUBLIC "-//W3C//DTD SVG 1.0//EN"
 "http://www.w3.org/TR/2001/REC-SVG-20010904/DTD/svg10.dtd">
<!-- Generated by dot version 2.2 (Tue Sep 13 00:37:56 UTC 2005)
     For user: (msperk) Perk_Sebastian, Betreuer=Moor, mitarb, 01/05    Title: spec_AB    Pages: 1 -->
<svg width="732pt" height="186pt"
 viewBox = "-1 -1 731 185"
 xmlns="http://www.w3.org/2000/svg">
<g id="graph0" class="graph" transform = "scale(0.368098)"
 style="font-family:Times-Roman;font-size:14.00;">
<title>spec_AB</title>
<g id="node1" class="node"><title>dot_dummyinit_1</title>
</g>
<g id="node3" class="node"><title>1</title>
<ellipse cx="119" cy="429" rx="18" ry="18" style="fill:none;stroke:black;"/>
<ellipse cx="119" cy="429" rx="22" ry="22" style="fill:none;stroke:black;"/>
<text text-anchor="middle" x="119" y="434">1</text>
</g>
<g id="edge2" class="edge"><title>dot_dummyinit_1&#45;&gt;1</title>
<path style="fill:none;stroke:black;" d="M59,429C68,429 77,429 87,429"/>
<polygon style="fill:black;stroke:black;" points="87,425 97,429 87,432 87,425"/>
</g>
<g id="node7" class="node"><title>5</title>
<ellipse cx="261" cy="400" rx="18" ry="18" style="fill:none;stroke:black;"/>
<ellipse cx="261" cy="400" rx="22" ry="22" style="fill:none;stroke:black;"/>
<text text-anchor="middle" x="261" y="405">5</text>
</g>
<g id="edge4" class="edge"><title>1&#45;&gt;5</title>
<path style="fill:none;stroke:black;" d="M141,428C162,426 194,422 221,415 224,414 228,413 231,412"/>
<polygon style="fill:black;stroke:black;" points="230,409 241,409 232,415 230,409"/>
<text text-anchor="middle" x="190" y="412">AB_FREE</text>
</g>
<g id="node4" class="node"><title>2</title>
<ellipse cx="937" cy="226" rx="18" ry="18" style="fill:none;stroke:black;"/>
<ellipse cx="937" cy="226" rx="22" ry="22" style="fill:none;stroke:black;"/>
<text text-anchor="middle" x="937" y="231">2</text>
</g>
<g id="node14" class="node"><title>12</title>
<ellipse cx="1078" cy="122" rx="21" ry="21" style="fill:none;stroke:black;"/>
<ellipse cx="1078" cy="122" rx="25" ry="25" style="fill:none;stroke:black;"/>
<text text-anchor="middle" x="1078" y="127">12</text>
</g>
<g id="edge8" class="edge"><title>2&#45;&gt;12</title>
<path style="fill:none;stroke:black;" d="M956,215C976,202 1009,181 1035,160 1041,156 1047,151 1053,146"/>
<polygon style="fill:black;stroke:black;" points="1050,144 1060,139 1055,149 1050,144"/>
<text text-anchor="middle" x="1006" y="157">AB_accfl</text>
</g>
<g id="node19" class="node"><title>17</title>
<ellipse cx="1078" cy="250" rx="20" ry="20" style="fill:none;stroke:black;"/>
<ellipse cx="1078" cy="250" rx="24" ry="24" style="fill:none;stroke:black;"/>
<text text-anchor="middle" x="1078" y="255">17</text>
</g>
<g id="edge6" class="edge"><title>2&#45;&gt;17</title>
<path style="fill:none;stroke:black;" d="M959,230C981,234 1017,239 1044,244"/>
<polygon style="fill:black;stroke:black;" points="1045,241 1054,246 1044,247 1045,241"/>
<text text-anchor="middle" x="1006" y="231">AB_occfl</text>
</g>
<g id="node5" class="node"><title>3</title>
<ellipse cx="1792" cy="169" rx="18" ry="18" style="fill:none;stroke:black;"/>
<ellipse cx="1792" cy="169" rx="22" ry="22" style="fill:none;stroke:black;"/>
<text text-anchor="middle" x="1792" y="174">3</text>
</g>
<g id="node16" class="node"><title>14</title>
<ellipse cx="1936" cy="117" rx="21" ry="21" style="fill:none;stroke:black;"/>
<ellipse cx="1936" cy="117" rx="25" ry="25" style="fill:none;stroke:black;"/>
<text text-anchor="middle" x="1936" y="122">14</text>
</g>
<g id="edge12" class="edge"><title>3&#45;&gt;14</title>
<path style="fill:none;stroke:black;" d="M1812,159C1819,156 1828,152 1835,149 1857,140 1882,133 1902,127"/>
<polygon style="fill:black;stroke:black;" points="1901,124 1912,124 1903,130 1901,124"/>
<text text-anchor="middle" x="1864" y="128">AB_reltr</text>
</g>
<g id="node20" class="node"><title>18</title>
<ellipse cx="1936" cy="273" rx="21" ry="21" style="fill:none;stroke:black;"/>
<ellipse cx="1936" cy="273" rx="25" ry="25" style="fill:none;stroke:black;"/>
<text text-anchor="middle" x="1936" y="278">18</text>
</g>
<g id="edge10" class="edge"><title>3&#45;&gt;18</title>
<path style="fill:none;stroke:black;" d="M1804,188C1827,210 1874,238 1905,256"/>
<polygon style="fill:black;stroke:black;" points="1907,253 1914,261 1904,259 1907,253"/>
<text text-anchor="middle" x="1864" y="210">AB_freetr</text>
</g>
<g id="node6" class="node"><title>4</title>
<ellipse cx="1365" cy="146" rx="18" ry="18" style="fill:none;stroke:black;"/>
<ellipse cx="1365" cy="146" rx="22" ry="22" style="fill:none;stroke:black;"/>
<text text-anchor="middle" x="1365" y="151">4</text>
</g>
<g id="node11" class="node"><title>9</title>
<ellipse cx="385" cy="312" rx="18" ry="18" style="fill:none;stroke:black;"/>
<ellipse cx="385" cy="312" rx="22" ry="22" style="fill:none;stroke:black;"/>
<text text-anchor="middle" x="385" y="317">9</text>
</g>
<g id="edge18" class="edge"><title>4&#45;&gt;9</title>
<path style="fill:none;stroke:black;" d="M1354,127C1346,119 1338,116 1325,106 1280,72 1276,35 1218,35 524,35 524,35 524,35 416,35 392,207 387,280"/>
<polygon style="fill:black;stroke:black;" points="390,280 386,290 384,280 390,280"/>
<text text-anchor="middle" x="871" y="32">AB_FL</text>
</g>
<g id="node12" class="node"><title>10</title>
<ellipse cx="1494" cy="187" rx="21" ry="21" style="fill:none;stroke:black;"/>
<ellipse cx="1494" cy="187" rx="25" ry="25" style="fill:none;stroke:black;"/>
<text text-anchor="middle" x="1494" y="192">10</text>
</g>
<g id="edge16" class="edge"><title>4&#45;&gt;10</title>
<path style="fill:none;stroke:black;" d="M1386,153C1406,159 1437,169 1460,176"/>
<polygon style="fill:black;stroke:black;" points="1461,173 1470,179 1459,179 1461,173"/>
<text text-anchor="middle" x="1428" y="158">AB_TR</text>
</g>
<g id="node13" class="node"><title>11</title>
<ellipse cx="1218" cy="120" rx="20" ry="20" style="fill:none;stroke:black;"/>
<ellipse cx="1218" cy="120" rx="24" ry="24" style="fill:none;stroke:black;"/>
<text text-anchor="middle" x="1218" y="125">11</text>
</g>
<g id="edge14" class="edge"><title>4&#45;&gt;11</title>
<path style="fill:none;stroke:black;" d="M1344,153C1323,159 1289,165 1261,155 1254,153 1248,149 1243,145"/>
<polygon style="fill:black;stroke:black;" points="1240,147 1235,138 1245,142 1240,147"/>
<text text-anchor="middle" x="1293" y="152">AB_STP</text>
</g>
<g id="edge20" class="edge"><title>5&#45;&gt;1</title>
<path style="fill:none;stroke:black;" d="M240,394C219,390 186,386 159,395 153,398 147,402 141,406"/>
<polygon style="fill:black;stroke:black;" points="144,408 134,413 139,403 144,408"/>
<text text-anchor="middle" x="190" y="387">AB_STP</text>
</g>
<g id="edge24" class="edge"><title>5&#45;&gt;9</title>
<path style="fill:none;stroke:black;" d="M279,387C299,373 334,348 359,331"/>
<polygon style="fill:black;stroke:black;" points="357,328 367,325 361,334 357,328"/>
<text text-anchor="middle" x="323" y="341">AB_FL</text>
</g>
<g id="node21" class="node"><title>19</title>
<ellipse cx="1792" cy="305" rx="21" ry="21" style="fill:none;stroke:black;"/>
<ellipse cx="1792" cy="305" rx="25" ry="25" style="fill:none;stroke:black;"/>
<text text-anchor="middle" x="1792" y="310">19</text>
</g>
<g id="edge22" class="edge"><title>5&#45;&gt;19</title>
<path style="fill:none;stroke:black;" d="M282,406C307,413 348,423 385,423 385,423 385,423 1654,423 1702,423 1712,405 1749,375 1767,361 1775,356 1784,340"/>
<polygon style="fill:black;stroke:black;" points="1781,338 1788,330 1788,341 1781,338"/>
<text text-anchor="middle" x="1006" y="420">AB_TR</text>
</g>
<g id="node8" class="node"><title>6</title>
<ellipse cx="1365" cy="253" rx="18" ry="18" style="fill:none;stroke:black;"/>
<ellipse cx="1365" cy="253" rx="22" ry="22" style="fill:none;stroke:black;"/>
<text text-anchor="middle" x="1365" y="258">6</text>
</g>
<g id="edge28" class="edge"><title>6&#45;&gt;10</title>
<path style="fill:none;stroke:black;" d="M1385,243C1405,232 1438,216 1463,204"/>
<polygon style="fill:black;stroke:black;" points="1462,201 1472,199 1465,207 1462,201"/>
<text text-anchor="middle" x="1428" y="208">AB_TR</text>
</g>
<g id="node18" class="node"><title>16</title>
<ellipse cx="1218" cy="250" rx="21" ry="21" style="fill:none;stroke:black;"/>
<ellipse cx="1218" cy="250" rx="25" ry="25" style="fill:none;stroke:black;"/>
<text text-anchor="middle" x="1218" y="255">16</text>
</g>
<g id="edge26" class="edge"><title>6&#45;&gt;16</title>
<path style="fill:none;stroke:black;" d="M1343,252C1319,252 1281,251 1253,251"/>
<polygon style="fill:black;stroke:black;" points="1253,254 1243,251 1253,247 1253,254"/>
<text text-anchor="middle" x="1293" y="249">AB_STP</text>
</g>
<g id="edge30" class="edge"><title>6&#45;&gt;19</title>
<path style="fill:none;stroke:black;" d="M1387,256C1456,264 1672,291 1757,301"/>
<polygon style="fill:black;stroke:black;" points="1757,298 1767,302 1757,304 1757,298"/>
<text text-anchor="middle" x="1574" y="272">AB_FL</text>
</g>
<g id="node9" class="node"><title>7</title>
<ellipse cx="805" cy="325" rx="18" ry="18" style="fill:none;stroke:black;"/>
<ellipse cx="805" cy="325" rx="22" ry="22" style="fill:none;stroke:black;"/>
<text text-anchor="middle" x="805" y="330">7</text>
</g>
<g id="edge32" class="edge"><title>7&#45;&gt;2</title>
<path style="fill:none;stroke:black;" d="M823,312C845,295 885,266 911,246"/>
<polygon style="fill:black;stroke:black;" points="909,243 919,240 913,249 909,243"/>
<text text-anchor="middle" x="871" y="256">AB_STP</text>
</g>
<g id="edge34" class="edge"><title>7&#45;&gt;19</title>
<path style="fill:none;stroke:black;" d="M823,337C848,353 894,377 937,377 937,377 937,377 1654,377 1697,377 1740,349 1766,328"/>
<polygon style="fill:black;stroke:black;" points="1764,325 1774,322 1768,331 1764,325"/>
<text text-anchor="middle" x="1293" y="374">AB_TR</text>
</g>
<g id="edge36" class="edge"><title>7&#45;&gt;19</title>
<path style="fill:none;stroke:black;" d="M827,325C853,325 899,325 937,325 937,325 937,325 1654,325 1689,325 1730,319 1757,313"/>
<polygon style="fill:black;stroke:black;" points="1757,310 1767,311 1758,316 1757,310"/>
<text text-anchor="middle" x="1293" y="322">AB_FL</text>
</g>
<g id="node10" class="node"><title>8</title>
<ellipse cx="661" cy="325" rx="18" ry="18" style="fill:none;stroke:black;"/>
<ellipse cx="661" cy="325" rx="22" ry="22" style="fill:none;stroke:black;"/>
<text text-anchor="middle" x="661" y="330">8</text>
</g>
<g id="edge38" class="edge"><title>8&#45;&gt;7</title>
<path style="fill:none;stroke:black;" d="M683,325C707,325 745,325 773,325"/>
<polygon style="fill:black;stroke:black;" points="773,321 783,325 773,328 773,321"/>
<text text-anchor="middle" x="733" y="322">AB_FULL</text>
</g>
<g id="node17" class="node"><title>15</title>
<ellipse cx="524" cy="325" rx="21" ry="21" style="fill:none;stroke:black;"/>
<ellipse cx="524" cy="325" rx="25" ry="25" style="fill:none;stroke:black;"/>
<text text-anchor="middle" x="524" y="330">15</text>
</g>
<g id="edge40" class="edge"><title>9&#45;&gt;15</title>
<path style="fill:none;stroke:black;" d="M407,313C427,314 456,316 481,318 484,318 486,319 489,319"/>
<polygon style="fill:black;stroke:black;" points="490,316 499,321 489,322 490,316"/>
<text text-anchor="middle" x="453" y="313">AB_reqfl</text>
</g>
<g id="node15" class="node"><title>13</title>
<ellipse cx="1654" cy="187" rx="21" ry="21" style="fill:none;stroke:black;"/>
<ellipse cx="1654" cy="187" rx="25" ry="25" style="fill:none;stroke:black;"/>
<text text-anchor="middle" x="1654" y="192">13</text>
</g>
<g id="edge42" class="edge"><title>10&#45;&gt;13</title>
<path style="fill:none;stroke:black;" d="M1519,187C1546,187 1589,187 1619,187"/>
<polygon style="fill:black;stroke:black;" points="1619,183 1629,187 1619,190 1619,183"/>
<text text-anchor="middle" x="1574" y="184">AB_ARRTR</text>
</g>
<g id="edge44" class="edge"><title>11&#45;&gt;4</title>
<path style="fill:none;stroke:black;" d="M1242,123C1264,125 1297,130 1325,135 1328,135 1331,136 1334,137"/>
<polygon style="fill:black;stroke:black;" points="1335,134 1344,140 1333,140 1335,134"/>
<text text-anchor="middle" x="1293" y="123">AB_WAIT</text>
</g>
<g id="edge46" class="edge"><title>12&#45;&gt;2</title>
<path style="fill:none;stroke:black;" d="M1053,121C1031,121 999,124 977,140 960,154 950,176 944,194"/>
<polygon style="fill:black;stroke:black;" points="947,195 941,204 941,193 947,195"/>
<text text-anchor="middle" x="1006" y="120">AB_nack</text>
</g>
<g id="edge48" class="edge"><title>12&#45;&gt;11</title>
<path style="fill:none;stroke:black;" d="M1103,122C1125,121 1158,121 1183,120"/>
<polygon style="fill:black;stroke:black;" points="1183,116 1193,120 1183,123 1183,116"/>
<text text-anchor="middle" x="1148" y="119">AB_pack</text>
</g>
<g id="edge50" class="edge"><title>13&#45;&gt;3</title>
<path style="fill:none;stroke:black;" d="M1676,175C1683,172 1690,169 1697,167 1718,163 1742,163 1760,165"/>
<polygon style="fill:black;stroke:black;" points="1760,162 1770,166 1760,168 1760,162"/>
<text text-anchor="middle" x="1723" y="161">AB_STP</text>
</g>
<g id="edge52" class="edge"><title>13&#45;&gt;19</title>
<path style="fill:none;stroke:black;" d="M1679,190C1700,194 1730,202 1749,219 1765,233 1775,254 1782,272"/>
<polygon style="fill:black;stroke:black;" points="1785,270 1786,281 1779,273 1785,270"/>
<text text-anchor="middle" x="1723" y="192">AB_TR</text>
</g>
<g id="edge54" class="edge"><title>13&#45;&gt;19</title>
<path style="fill:none;stroke:black;" d="M1669,208C1676,218 1687,230 1697,239 1718,257 1727,256 1749,271 1754,275 1759,279 1765,283"/>
<polygon style="fill:black;stroke:black;" points="1767,280 1773,289 1763,286 1767,280"/>
<text text-anchor="middle" x="1723" y="236">AB_FL</text>
</g>
<g id="edge56" class="edge"><title>14&#45;&gt;3</title>
<path style="fill:none;stroke:black;" d="M1926,140C1918,155 1913,164 1893,172 1872,182 1844,181 1823,177"/>
<polygon style="fill:black;stroke:black;" points="1822,180 1813,175 1823,174 1822,180"/>
<text text-anchor="middle" x="1864" y="169">AB_nack</text>
</g>
<g id="edge58" class="edge"><title>14&#45;&gt;11</title>
<path style="fill:none;stroke:black;" d="M1913,105C1885,92 1836,73 1792,73 1365,73 1365,73 1365,73 1324,73 1278,90 1249,104"/>
<polygon style="fill:black;stroke:black;" points="1251,107 1240,108 1248,101 1251,107"/>
<text text-anchor="middle" x="1574" y="70">AB_pack</text>
</g>
<g id="edge62" class="edge"><title>15&#45;&gt;8</title>
<path style="fill:none;stroke:black;" d="M549,325C572,325 604,325 629,325"/>
<polygon style="fill:black;stroke:black;" points="629,321 639,325 629,328 629,321"/>
<text text-anchor="middle" x="594" y="322">AB_pack</text>
</g>
<g id="edge60" class="edge"><title>15&#45;&gt;9</title>
<path style="fill:none;stroke:black;" d="M500,334C480,340 450,346 425,338 420,337 415,334 411,332"/>
<polygon style="fill:black;stroke:black;" points="408,334 402,326 412,329 408,334"/>
<text text-anchor="middle" x="453" y="335">AB_nack</text>
</g>
<g id="edge64" class="edge"><title>16&#45;&gt;6</title>
<path style="fill:none;stroke:black;" d="M1239,264C1246,268 1253,271 1261,273 1289,280 1298,280 1325,273 1329,272 1333,271 1337,269"/>
<polygon style="fill:black;stroke:black;" points="1335,266 1346,265 1338,272 1335,266"/>
<text text-anchor="middle" x="1293" y="270">AB_OCC</text>
</g>
<g id="edge66" class="edge"><title>17&#45;&gt;2</title>
<path style="fill:none;stroke:black;" d="M1055,259C1034,266 1003,273 977,263 968,260 962,256 957,252"/>
<polygon style="fill:black;stroke:black;" points="954,254 950,244 959,249 954,254"/>
<text text-anchor="middle" x="1006" y="260">AB_nack</text>
</g>
<g id="edge68" class="edge"><title>17&#45;&gt;16</title>
<path style="fill:none;stroke:black;" d="M1103,250C1125,250 1157,250 1183,250"/>
<polygon style="fill:black;stroke:black;" points="1183,246 1193,250 1183,253 1183,246"/>
<text text-anchor="middle" x="1148" y="247">AB_pack</text>
</g>
<g id="edge72" class="edge"><title>18&#45;&gt;1</title>
<path style="fill:none;stroke:black;" d="M1931,298C1918,351 1879,474 1792,475 261,475 261,475 261,475 221,474 176,457 148,444"/>
<polygon style="fill:black;stroke:black;" points="146,447 139,439 149,441 146,447"/>
<text text-anchor="middle" x="1006" y="472">AB_pack</text>
</g>
<g id="edge70" class="edge"><title>18&#45;&gt;3</title>
<path style="fill:none;stroke:black;" d="M1912,279C1890,282 1858,284 1835,269 1812,254 1802,224 1797,201"/>
<polygon style="fill:black;stroke:black;" points="1794,201 1795,191 1800,200 1794,201"/>
<text text-anchor="middle" x="1864" y="266">AB_nack</text>
</g>
</g>
</svg>
