<?xml version="1.0" encoding="UTF-8" standalone="no"?>
<!DOCTYPE svg PUBLIC "-//W3C//DTD SVG 1.0//EN"
 "http://www.w3.org/TR/2001/REC-SVG-20010904/DTD/svg10.dtd" [
 <!ATTLIST svg xmlns:xlink CDATA #FIXED "http://www.w3.org/1999/xlink">
]>
<!-- Generated by Graphviz version 2.20.2 (Tue Mar &#160;2 21:46:26 UTC 2010)
     For user: (mtmoor) Prof. Thomas Moor -->
<!-- Title: Environment AB__EFGH__EF__GH Pages: 1 -->
<svg width="720pt" height="670pt"
 viewBox="0.00 0.00 720.00 669.75" xmlns="http://www.w3.org/2000/svg" xmlns:xlink="http://www.w3.org/1999/xlink">
<g id="graph0" class="graph" transform="scale(0.913706 0.913706) rotate(0) translate(4 729)">
<title>Environment AB__EFGH__EF__GH</title>
<polygon style="fill:white;stroke:white;" points="-4,4 -4,-729 784,-729 784,4 -4,4"/>
<!-- dot_dummyinit_1 -->
<g id="node1" class="node"><title>dot_dummyinit_1</title>
</g>
<!-- Start -->
<g id="node3" class="node"><title>Start</title>
<ellipse style="fill:none;stroke:black;" cx="131" cy="-345" rx="34.9904" ry="34.9904"/>
<ellipse style="fill:none;stroke:black;" cx="131" cy="-345" rx="38.9398" ry="38.9398"/>
<text text-anchor="middle" x="131" y="-340.9" style="font-family:Times New Roman;font-size:14.00;">Start</text>
</g>
<!-- dot_dummyinit_1&#45;&gt;Start -->
<g id="edge2" class="edge"><title>dot_dummyinit_1&#45;&gt;Start</title>
<path style="fill:none;stroke:black;" d="M54,-345C63,-345 72,-345 82,-345"/>
<polygon style="fill:black;stroke:black;" points="82,-348.5 92,-345 82,-341.5 82,-348.5"/>
</g>
<!-- rqflA_1 -->
<g id="node4" class="node"><title>rqflA_1</title>
<ellipse style="fill:none;stroke:black;" cx="318" cy="-595" rx="45.8622" ry="45.8622"/>
<ellipse style="fill:none;stroke:black;" cx="318" cy="-595" rx="49.8622" ry="49.8622"/>
<text text-anchor="middle" x="318" y="-590.9" style="font-family:Times New Roman;font-size:14.00;">rqflA_1</text>
</g>
<!-- Start&#45;&gt;rqflA_1 -->
<g id="edge4" class="edge"><title>Start&#45;&gt;rqflA_1</title>
<path style="fill:none;stroke:black;" d="M134,-384C139,-425 152,-489 188,-531 207,-553 235,-568 260,-578"/>
<polygon style="fill:black;stroke:black;" points="259.415,-581.536 270,-582 262.015,-575.036 259.415,-581.536"/>
<text text-anchor="middle" x="218" y="-573.9" style="font-family:Times New Roman;font-size:14.00;">req_fl_A</text>
</g>
<!-- rqtrB_1 -->
<g id="node8" class="node"><title>rqtrB_1</title>
<ellipse style="fill:none;stroke:black;" cx="318" cy="-397" rx="47.9469" ry="47.9469"/>
<ellipse style="fill:none;stroke:black;" cx="318" cy="-397" rx="51.9469" ry="51.9469"/>
<text text-anchor="middle" x="318" y="-392.9" style="font-family:Times New Roman;font-size:14.00;">rqtrB_1</text>
</g>
<!-- Start&#45;&gt;rqtrB_1 -->
<g id="edge10" class="edge"><title>Start&#45;&gt;rqtrB_1</title>
<path style="fill:none;stroke:black;" d="M169,-356C194,-363 228,-373 258,-380"/>
<polygon style="fill:black;stroke:black;" points="257.416,-383.479 268,-383 259.427,-376.774 257.416,-383.479"/>
<text text-anchor="middle" x="218" y="-379.9" style="font-family:Times New Roman;font-size:14.00;">req_tr_B</text>
</g>
<!-- rqflB -->
<g id="node12" class="node"><title>rqflB</title>
<ellipse style="fill:none;stroke:black;" cx="318" cy="-251" rx="34.0492" ry="34.0492"/>
<ellipse style="fill:none;stroke:black;" cx="318" cy="-251" rx="38.0492" ry="38.0492"/>
<text text-anchor="middle" x="318" y="-246.9" style="font-family:Times New Roman;font-size:14.00;">rqflB</text>
</g>
<!-- Start&#45;&gt;rqflB -->
<g id="edge8" class="edge"><title>Start&#45;&gt;rqflB</title>
<path style="fill:none;stroke:black;" d="M155,-314C164,-304 176,-293 188,-286 202,-277 240,-268 271,-261"/>
<polygon style="fill:black;stroke:black;" points="271.881,-264.393 281,-259 270.508,-257.529 271.881,-264.393"/>
<text text-anchor="middle" x="218" y="-289.9" style="font-family:Times New Roman;font-size:14.00;">req_fl_B</text>
</g>
<!-- rqtrA_1 -->
<g id="node13" class="node"><title>rqtrA_1</title>
<ellipse style="fill:none;stroke:black;" cx="318" cy="-143" rx="47.9469" ry="47.9469"/>
<ellipse style="fill:none;stroke:black;" cx="318" cy="-143" rx="51.9469" ry="51.9469"/>
<text text-anchor="middle" x="318" y="-138.9" style="font-family:Times New Roman;font-size:14.00;">rqtrA_1</text>
</g>
<!-- Start&#45;&gt;rqtrA_1 -->
<g id="edge6" class="edge"><title>Start&#45;&gt;rqtrA_1</title>
<path style="fill:none;stroke:black;" d="M140,-307C148,-277 163,-237 188,-210 207,-189 235,-174 259,-163"/>
<polygon style="fill:black;stroke:black;" points="260.283,-166.26 268,-159 257.44,-159.863 260.283,-166.26"/>
<text text-anchor="middle" x="218" y="-213.9" style="font-family:Times New Roman;font-size:14.00;">req_tr_A</text>
</g>
<!-- rqflA_2 -->
<g id="node5" class="node"><title>rqflA_2</title>
<ellipse style="fill:none;stroke:black;" cx="528" cy="-595" rx="45.8622" ry="45.8622"/>
<ellipse style="fill:none;stroke:black;" cx="528" cy="-595" rx="49.8622" ry="49.8622"/>
<text text-anchor="middle" x="528" y="-590.9" style="font-family:Times New Roman;font-size:14.00;">rqflA_2</text>
</g>
<!-- rqflA_1&#45;&gt;rqflA_2 -->
<g id="edge12" class="edge"><title>rqflA_1&#45;&gt;rqflA_2</title>
<path style="fill:none;stroke:black;" d="M368,-595C398,-595 436,-595 468,-595"/>
<polygon style="fill:black;stroke:black;" points="468,-598.5 478,-595 468,-591.5 468,-598.5"/>
<text text-anchor="middle" x="423" y="-598.9" style="font-family:Times New Roman;font-size:14.00;">req_fl_AB</text>
</g>
<!-- rqflA_3 -->
<g id="node6" class="node"><title>rqflA_3</title>
<ellipse style="fill:none;stroke:black;" cx="728" cy="-675" rx="45.8622" ry="45.8622"/>
<ellipse style="fill:none;stroke:black;" cx="728" cy="-675" rx="49.8622" ry="49.8622"/>
<text text-anchor="middle" x="728" y="-670.9" style="font-family:Times New Roman;font-size:14.00;">rqflA_3</text>
</g>
<!-- rqflA_2&#45;&gt;rqflA_3 -->
<g id="edge16" class="edge"><title>rqflA_2&#45;&gt;rqflA_3</title>
<path style="fill:none;stroke:black;" d="M575,-611C600,-620 631,-632 658,-643 663,-645 668,-647 673,-649"/>
<polygon style="fill:black;stroke:black;" points="671.44,-652.137 682,-653 674.283,-645.74 671.44,-652.137"/>
<text text-anchor="middle" x="628" y="-646.9" style="font-family:Times New Roman;font-size:14.00;">pack_AB</text>
</g>
<!-- rqflA_4 -->
<g id="node7" class="node"><title>rqflA_4</title>
<ellipse style="fill:none;stroke:black;" cx="728" cy="-557" rx="45.8622" ry="45.8622"/>
<ellipse style="fill:none;stroke:black;" cx="728" cy="-557" rx="49.8622" ry="49.8622"/>
<text text-anchor="middle" x="728" y="-552.9" style="font-family:Times New Roman;font-size:14.00;">rqflA_4</text>
</g>
<!-- rqflA_2&#45;&gt;rqflA_4 -->
<g id="edge14" class="edge"><title>rqflA_2&#45;&gt;rqflA_4</title>
<path style="fill:none;stroke:black;" d="M577,-586C605,-581 640,-574 669,-568"/>
<polygon style="fill:black;stroke:black;" points="669.881,-571.393 679,-566 668.508,-564.529 669.881,-571.393"/>
<text text-anchor="middle" x="628" y="-583.9" style="font-family:Times New Roman;font-size:14.00;">nack_AB</text>
</g>
<!-- rqflA_3&#45;&gt;Start -->
<g id="edge18" class="edge"><title>rqflA_3&#45;&gt;Start</title>
<path style="fill:none;stroke:black;" d="M678,-682C591,-693 408,-707 266,-654 225,-638 212,-628 188,-591 168,-558 149,-456 139,-394"/>
<polygon style="fill:black;stroke:black;" points="142.393,-393.119 137,-384 135.529,-394.492 142.393,-393.119"/>
<text text-anchor="middle" x="423" y="-693.9" style="font-family:Times New Roman;font-size:14.00;">pack_A</text>
</g>
<!-- rqflA_4&#45;&gt;Start -->
<g id="edge20" class="edge"><title>rqflA_4&#45;&gt;Start</title>
<path style="fill:none;stroke:black;" d="M678,-550C576,-534 343,-498 266,-475 230,-464 217,-466 188,-441 173,-427 160,-408 150,-390"/>
<polygon style="fill:black;stroke:black;" points="153.26,-388.717 146,-381 146.863,-391.56 153.26,-388.717"/>
<text text-anchor="middle" x="423" y="-516.9" style="font-family:Times New Roman;font-size:14.00;">nack_EF</text>
</g>
<!-- rqtrB_2 -->
<g id="node9" class="node"><title>rqtrB_2</title>
<ellipse style="fill:none;stroke:black;" cx="528" cy="-397" rx="47.9469" ry="47.9469"/>
<ellipse style="fill:none;stroke:black;" cx="528" cy="-397" rx="51.9469" ry="51.9469"/>
<text text-anchor="middle" x="528" y="-392.9" style="font-family:Times New Roman;font-size:14.00;">rqtrB_2</text>
</g>
<!-- rqtrB_1&#45;&gt;rqtrB_2 -->
<g id="edge22" class="edge"><title>rqtrB_1&#45;&gt;rqtrB_2</title>
<path style="fill:none;stroke:black;" d="M370,-397C399,-397 436,-397 466,-397"/>
<polygon style="fill:black;stroke:black;" points="466,-400.5 476,-397 466,-393.5 466,-400.5"/>
<text text-anchor="middle" x="423" y="-400.9" style="font-family:Times New Roman;font-size:14.00;">req_tr_AB</text>
</g>
<!-- rqtrB_3 -->
<g id="node10" class="node"><title>rqtrB_3</title>
<ellipse style="fill:none;stroke:black;" cx="728" cy="-437" rx="47.9469" ry="47.9469"/>
<ellipse style="fill:none;stroke:black;" cx="728" cy="-437" rx="51.9469" ry="51.9469"/>
<text text-anchor="middle" x="728" y="-432.9" style="font-family:Times New Roman;font-size:14.00;">rqtrB_3</text>
</g>
<!-- rqtrB_2&#45;&gt;rqtrB_3 -->
<g id="edge26" class="edge"><title>rqtrB_2&#45;&gt;rqtrB_3</title>
<path style="fill:none;stroke:black;" d="M579,-407C606,-412 639,-419 667,-425"/>
<polygon style="fill:black;stroke:black;" points="666.508,-428.471 677,-427 667.881,-421.607 666.508,-428.471"/>
<text text-anchor="middle" x="628" y="-424.9" style="font-family:Times New Roman;font-size:14.00;">pack_AB</text>
</g>
<!-- rqtrB_4 -->
<g id="node11" class="node"><title>rqtrB_4</title>
<ellipse style="fill:none;stroke:black;" cx="728" cy="-315" rx="47.9469" ry="47.9469"/>
<ellipse style="fill:none;stroke:black;" cx="728" cy="-315" rx="51.9469" ry="51.9469"/>
<text text-anchor="middle" x="728" y="-310.9" style="font-family:Times New Roman;font-size:14.00;">rqtrB_4</text>
</g>
<!-- rqtrB_2&#45;&gt;rqtrB_4 -->
<g id="edge24" class="edge"><title>rqtrB_2&#45;&gt;rqtrB_4</title>
<path style="fill:none;stroke:black;" d="M576,-377C604,-365 640,-351 670,-339"/>
<polygon style="fill:black;stroke:black;" points="672.015,-341.964 680,-335 669.415,-335.464 672.015,-341.964"/>
<text text-anchor="middle" x="628" y="-370.9" style="font-family:Times New Roman;font-size:14.00;">nack_AB</text>
</g>
<!-- rqtrB_3&#45;&gt;Start -->
<g id="edge28" class="edge"><title>rqtrB_3&#45;&gt;Start</title>
<path style="fill:none;stroke:black;" d="M677,-446C648,-451 613,-456 580,-458 511,-462 332,-480 266,-458 225,-443 188,-410 163,-382"/>
<polygon style="fill:black;stroke:black;" points="165.546,-379.596 156,-375 160.596,-384.546 165.546,-379.596"/>
<text text-anchor="middle" x="423" y="-471.9" style="font-family:Times New Roman;font-size:14.00;">pack_B</text>
</g>
<!-- rqtrB_4&#45;&gt;Start -->
<g id="edge30" class="edge"><title>rqtrB_4&#45;&gt;Start</title>
<path style="fill:none;stroke:black;" d="M676,-317C590,-320 415,-327 266,-336 238,-338 206,-340 180,-341"/>
<polygon style="fill:black;stroke:black;" points="179.602,-337.522 170,-342 180.299,-344.488 179.602,-337.522"/>
<text text-anchor="middle" x="423" y="-331.9" style="font-family:Times New Roman;font-size:14.00;">nack_B</text>
</g>
<!-- rqflB&#45;&gt;Start -->
<g id="edge32" class="edge"><title>rqflB&#45;&gt;Start</title>
<path style="fill:none;stroke:black;" d="M282,-239C254,-232 216,-227 188,-244 168,-255 154,-277 146,-297"/>
<polygon style="fill:black;stroke:black;" points="142.464,-296.415 142,-307 148.964,-299.015 142.464,-296.415"/>
<text text-anchor="middle" x="218" y="-247.9" style="font-family:Times New Roman;font-size:14.00;">nack_B</text>
</g>
<!-- rqtrA_2 -->
<g id="node14" class="node"><title>rqtrA_2</title>
<ellipse style="fill:none;stroke:black;" cx="528" cy="-149" rx="47.9469" ry="47.9469"/>
<ellipse style="fill:none;stroke:black;" cx="528" cy="-149" rx="51.9469" ry="51.9469"/>
<text text-anchor="middle" x="528" y="-144.9" style="font-family:Times New Roman;font-size:14.00;">rqtrA_2</text>
</g>
<!-- rqtrA_1&#45;&gt;rqtrA_2 -->
<g id="edge34" class="edge"><title>rqtrA_1&#45;&gt;rqtrA_2</title>
<path style="fill:none;stroke:black;" d="M370,-144C399,-145 436,-146 466,-147"/>
<polygon style="fill:black;stroke:black;" points="466,-150.5 476,-147 466,-143.5 466,-150.5"/>
<text text-anchor="middle" x="423" y="-148.9" style="font-family:Times New Roman;font-size:14.00;">pack_A</text>
</g>
<!-- rqtrA_4 -->
<g id="node15" class="node"><title>rqtrA_4</title>
<ellipse style="fill:none;stroke:black;" cx="728" cy="-52" rx="47.9469" ry="47.9469"/>
<ellipse style="fill:none;stroke:black;" cx="728" cy="-52" rx="51.9469" ry="51.9469"/>
<text text-anchor="middle" x="728" y="-47.9" style="font-family:Times New Roman;font-size:14.00;">rqtrA_4</text>
</g>
<!-- rqtrA_2&#45;&gt;rqtrA_4 -->
<g id="edge40" class="edge"><title>rqtrA_2&#45;&gt;rqtrA_4</title>
<path style="fill:none;stroke:black;" d="M566,-113C576,-105 587,-98 598,-92 620,-81 645,-72 667,-66"/>
<polygon style="fill:black;stroke:black;" points="668.427,-69.2259 677,-63 666.416,-62.5212 668.427,-69.2259"/>
<text text-anchor="middle" x="628" y="-95.9" style="font-family:Times New Roman;font-size:14.00;">req_fl_B</text>
</g>
<!-- err_UE -->
<g id="node16" class="node"><title>err_UE</title>
<ellipse style="fill:none;stroke:black;" cx="728" cy="-189" rx="43.7776" ry="43.7776"/>
<ellipse style="fill:none;stroke:black;" cx="728" cy="-189" rx="47.7776" ry="47.7776"/>
<text text-anchor="middle" x="728" y="-184.9" style="font-family:Times New Roman;font-size:14.00;">err_UE</text>
</g>
<!-- rqtrA_2&#45;&gt;err_UE -->
<g id="edge36" class="edge"><title>rqtrA_2&#45;&gt;err_UE</title>
<path style="fill:none;stroke:black;" d="M580,-143C604,-142 633,-143 658,-150 665,-152 672,-154 679,-157"/>
<polygon style="fill:black;stroke:black;" points="677.559,-160.203 688,-162 680.958,-154.084 677.559,-160.203"/>
<text text-anchor="middle" x="628" y="-153.9" style="font-family:Times New Roman;font-size:14.00;">req_fl_A</text>
</g>
<!-- rqtrA_2&#45;&gt;err_UE -->
<g id="edge38" class="edge"><title>rqtrA_2&#45;&gt;err_UE</title>
<path style="fill:none;stroke:black;" d="M575,-126C600,-116 632,-110 658,-121 671,-126 682,-134 692,-143"/>
<polygon style="fill:black;stroke:black;" points="689.454,-145.404 699,-150 694.404,-140.454 689.454,-145.404"/>
<text text-anchor="middle" x="628" y="-124.9" style="font-family:Times New Roman;font-size:14.00;">req_tr_A</text>
</g>
<!-- rqtrA_2&#45;&gt;err_UE -->
<g id="edge42" class="edge"><title>rqtrA_2&#45;&gt;err_UE</title>
<path style="fill:none;stroke:black;" d="M550,-197C561,-216 577,-236 598,-247 622,-259 633,-256 658,-247 669,-243 678,-237 687,-230"/>
<polygon style="fill:black;stroke:black;" points="689.1,-232.8 695,-224 684.9,-227.2 689.1,-232.8"/>
<text text-anchor="middle" x="628" y="-257.9" style="font-family:Times New Roman;font-size:14.00;">req_tr_B</text>
</g>
<!-- rqtrA_4&#45;&gt;Start -->
<g id="edge44" class="edge"><title>rqtrA_4&#45;&gt;Start</title>
<path style="fill:none;stroke:black;" d="M677,-44C588,-32 403,-19 266,-82 183,-120 150,-231 138,-296"/>
<polygon style="fill:black;stroke:black;" points="134.529,-295.508 136,-306 141.393,-296.881 134.529,-295.508"/>
<text text-anchor="middle" x="423" y="-51.9" style="font-family:Times New Roman;font-size:14.00;">pack_B</text>
</g>
<!-- err_UE&#45;&gt;rqtrA_2 -->
<g id="edge46" class="edge"><title>err_UE&#45;&gt;rqtrA_2</title>
<path style="fill:none;stroke:black;" d="M683,-205C657,-212 625,-216 598,-207 589,-204 580,-199 572,-193"/>
<polygon style="fill:black;stroke:black;" points="574.1,-190.2 564,-187 569.9,-195.8 574.1,-190.2"/>
<text text-anchor="middle" x="628" y="-214.9" style="font-family:Times New Roman;font-size:14.00;">nack_B</text>
</g>
<!-- err_UE&#45;&gt;rqtrA_2 -->
<g id="edge48" class="edge"><title>err_UE&#45;&gt;rqtrA_2</title>
<path style="fill:none;stroke:black;" d="M680,-182C656,-178 625,-173 598,-167 595,-167 592,-166 589,-165"/>
<polygon style="fill:black;stroke:black;" points="589.584,-161.521 579,-162 587.573,-168.226 589.584,-161.521"/>
<text text-anchor="middle" x="628" y="-179.9" style="font-family:Times New Roman;font-size:14.00;">nack_EF</text>
</g>
</g>
</svg>
