<?xml version="1.0" encoding="UTF-8" standalone="no"?>
<!DOCTYPE svg PUBLIC "-//W3C//DTD SVG 1.0//EN"
 "http://www.w3.org/TR/2001/REC-SVG-20010904/DTD/svg10.dtd" [
 <!ATTLIST svg xmlns:xlink CDATA #FIXED "http://www.w3.org/1999/xlink">
]>
<!-- Generated by Graphviz version 2.20.2 (Tue Mar &#160;2 21:46:26 UTC 2010)
     For user: (mtmoor) Prof. Thomas Moor -->
<!-- Title: Generator Pages: 1 -->
<svg width="1504pt" height="3164pt"
 viewBox="0.00 0.00 1504.00 3164.00" xmlns="http://www.w3.org/2000/svg" xmlns:xlink="http://www.w3.org/1999/xlink">
<g id="graph0" class="graph" transform="scale(1 1) rotate(0) translate(4 3160)">
<title>Generator</title>
<polygon style="fill:none;stroke:none;" points="-4,4 -4,-3160 1500,-3160 1500,4 -4,4"/>
<!-- 1 -->
<g id="node1" class="node"><title>1</title>
<ellipse style="fill:none;stroke:black;" cx="19" cy="-881" rx="18" ry="18"/>
<text text-anchor="middle" x="19" y="-876.9" style="font-family:Times New Roman;font-size:14.00;">1</text>
</g>
<!-- 1&#45;&gt;1 -->
<g id="edge2" class="edge"><title>1&#45;&gt;1</title>
<path style="fill:none;stroke:black;" d="M10,-897C8,-907 11,-917 19,-917 24,-917 27,-913 28,-907"/>
<polygon style="fill:black;stroke:black;" points="31.5001,-907 28,-897 24.5001,-907 31.5001,-907"/>
<text text-anchor="middle" x="19" y="-920.9" style="font-family:Times New Roman;font-size:14.00;">alpha</text>
</g>
<!-- 2 -->
<g id="node2" class="node"><title>2</title>
<ellipse style="fill:none;stroke:black;" cx="136" cy="-1669" rx="18" ry="18"/>
<text text-anchor="middle" x="136" y="-1664.9" style="font-family:Times New Roman;font-size:14.00;">2</text>
</g>
<!-- 1&#45;&gt;2 -->
<g id="edge4" class="edge"><title>1&#45;&gt;2</title>
<path style="fill:none;stroke:black;" d="M20,-899C22,-958 31,-1152 55,-1311 75,-1436 112,-1582 128,-1642"/>
<polygon style="fill:black;stroke:black;" points="124.774,-1643.43 131,-1652 131.479,-1641.42 124.774,-1643.43"/>
<text text-anchor="middle" x="74" y="-1489.9" style="font-family:Times New Roman;font-size:14.00;">alpha</text>
</g>
<!-- 3 -->
<g id="node3" class="node"><title>3</title>
<ellipse style="fill:none;stroke:black;" cx="1477" cy="-1383" rx="18" ry="18"/>
<text text-anchor="middle" x="1477" y="-1378.9" style="font-family:Times New Roman;font-size:14.00;">3</text>
</g>
<!-- 1&#45;&gt;3 -->
<g id="edge6" class="edge"><title>1&#45;&gt;3</title>
<path style="fill:none;stroke:black;" d="M19,-863C21,-747 32,-112 55,-77 78,-45 97,-40 136,-40 136,-40 136,-40 1360,-40 1445,-40 1422,-130 1441,-212 1469,-326 1476,-1187 1477,-1355"/>
<polygon style="fill:black;stroke:black;" points="1473.5,-1355 1477,-1365 1480.5,-1355 1473.5,-1355"/>
<text text-anchor="middle" x="748" y="-44.9" style="font-family:Times New Roman;font-size:14.00;">alpha</text>
</g>
<!-- 4 -->
<g id="node4" class="node"><title>4</title>
<ellipse style="fill:none;stroke:black;" cx="1360" cy="-1801" rx="18" ry="18"/>
<text text-anchor="middle" x="1360" y="-1796.9" style="font-family:Times New Roman;font-size:14.00;">4</text>
</g>
<!-- 1&#45;&gt;4 -->
<g id="edge8" class="edge"><title>1&#45;&gt;4</title>
<path style="fill:none;stroke:black;" d="M19,-899C19,-1108 24,-3051 55,-3100 77,-3133 97,-3139 136,-3139 136,-3139 136,-3139 612,-3139 778,-3139 845,-3167 977,-3069 1072,-2999 1051,-2940 1131,-2856 1178,-2807 1215,-2819 1249,-2762 1273,-2722 1241,-2698 1267,-2661 1282,-2640 1304,-2654 1317,-2633 1339,-2598 1356,-1970 1360,-1829"/>
<polygon style="fill:black;stroke:black;" points="1363.5,-1829 1360,-1819 1356.5,-1829 1363.5,-1829"/>
<text text-anchor="middle" x="680" y="-3143.9" style="font-family:Times New Roman;font-size:14.00;">alpha</text>
</g>
<!-- 5 -->
<g id="node5" class="node"><title>5</title>
<ellipse style="fill:none;stroke:black;" cx="408" cy="-1537" rx="18" ry="18"/>
<text text-anchor="middle" x="408" y="-1532.9" style="font-family:Times New Roman;font-size:14.00;">5</text>
</g>
<!-- 1&#45;&gt;5 -->
<g id="edge10" class="edge"><title>1&#45;&gt;5</title>
<path style="fill:none;stroke:black;" d="M37,-881C74,-881 160,-883 229,-897 261,-903 272,-902 297,-922 309,-930 305,-939 315,-949 334,-966 352,-955 365,-977 380,-999 381,-1190 383,-1217 391,-1325 402,-1453 406,-1509"/>
<polygon style="fill:black;stroke:black;" points="402.522,-1509.4 407,-1519 409.488,-1508.7 402.522,-1509.4"/>
<text text-anchor="middle" x="204" y="-900.9" style="font-family:Times New Roman;font-size:14.00;">alpha</text>
</g>
<!-- 6 -->
<g id="node6" class="node"><title>6</title>
<ellipse style="fill:none;stroke:black;" cx="1224" cy="-1179" rx="18" ry="18"/>
<text text-anchor="middle" x="1224" y="-1174.9" style="font-family:Times New Roman;font-size:14.00;">6</text>
</g>
<!-- 1&#45;&gt;6 -->
<g id="edge12" class="edge"><title>1&#45;&gt;6</title>
<path style="fill:none;stroke:black;" d="M19,-863C21,-749 31,-136 55,-104 78,-74 99,-78 136,-78 136,-78 136,-78 748,-78 884,-78 961,-39 1045,-144 1192,-326 1142,-422 1181,-652 1214,-840 1222,-1071 1224,-1151"/>
<polygon style="fill:black;stroke:black;" points="1220.5,-1151 1224,-1161 1227.5,-1151 1220.5,-1151"/>
<text text-anchor="middle" x="612" y="-82.9" style="font-family:Times New Roman;font-size:14.00;">alpha</text>
</g>
<!-- 7 -->
<g id="node7" class="node"><title>7</title>
<ellipse style="fill:none;stroke:black;" cx="1088" cy="-2224" rx="18" ry="18"/>
<text text-anchor="middle" x="1088" y="-2219.9" style="font-family:Times New Roman;font-size:14.00;">7</text>
</g>
<!-- 1&#45;&gt;7 -->
<g id="edge14" class="edge"><title>1&#45;&gt;7</title>
<path style="fill:none;stroke:black;" d="M19,-899C20,-1103 26,-2955 55,-3002 77,-3035 97,-3041 136,-3041 136,-3041 136,-3041 476,-3041 642,-3041 687,-3029 841,-2973 921,-2943 934,-2913 977,-2841 1013,-2782 1028,-2768 1045,-2702 1085,-2549 1044,-2503 1063,-2347 1067,-2314 1076,-2276 1081,-2252"/>
<polygon style="fill:black;stroke:black;" points="1084.48,-2252.58 1084,-2242 1077.77,-2250.57 1084.48,-2252.58"/>
<text text-anchor="middle" x="544" y="-3042.9" style="font-family:Times New Roman;font-size:14.00;">alpha</text>
</g>
<!-- 8 -->
<g id="node8" class="node"><title>8</title>
<ellipse style="fill:none;stroke:black;" cx="952" cy="-872" rx="18" ry="18"/>
<text text-anchor="middle" x="952" y="-867.9" style="font-family:Times New Roman;font-size:14.00;">8</text>
</g>
<!-- 1&#45;&gt;8 -->
<g id="edge16" class="edge"><title>1&#45;&gt;8</title>
<path style="fill:none;stroke:black;" d="M20,-863C23,-832 31,-767 55,-719 73,-686 84,-682 111,-655 230,-540 287,-518 451,-502 600,-488 651,-514 773,-599 804,-621 890,-669 909,-701 932,-738 917,-755 927,-797 931,-814 937,-831 942,-845"/>
<polygon style="fill:black;stroke:black;" points="939.036,-847.015 946,-855 945.536,-844.415 939.036,-847.015"/>
<text text-anchor="middle" x="476" y="-509.9" style="font-family:Times New Roman;font-size:14.00;">alpha</text>
</g>
<!-- 9 -->
<g id="node9" class="node"><title>9</title>
<ellipse style="fill:none;stroke:black;" cx="816" cy="-2299" rx="18" ry="18"/>
<text text-anchor="middle" x="816" y="-2294.9" style="font-family:Times New Roman;font-size:14.00;">9</text>
</g>
<!-- 1&#45;&gt;9 -->
<g id="edge18" class="edge"><title>1&#45;&gt;9</title>
<path style="fill:none;stroke:black;" d="M19,-899C22,-1013 36,-1628 55,-1816 89,-2139 -69,-2327 179,-2537 220,-2570 246,-2544 297,-2537 352,-2528 732,-2427 773,-2391 793,-2374 803,-2347 809,-2327"/>
<polygon style="fill:black;stroke:black;" points="812.479,-2327.58 812,-2317 805.774,-2325.57 812.479,-2327.58"/>
<text text-anchor="middle" x="408" y="-2518.9" style="font-family:Times New Roman;font-size:14.00;">alpha</text>
</g>
<!-- 10 -->
<g id="node10" class="node"><title>10</title>
<ellipse style="fill:none;stroke:black;" cx="680" cy="-1538" rx="23.1233" ry="23.1233"/>
<text text-anchor="middle" x="680" y="-1533.9" style="font-family:Times New Roman;font-size:14.00;">10</text>
</g>
<!-- 1&#45;&gt;10 -->
<g id="edge20" class="edge"><title>1&#45;&gt;10</title>
<path style="fill:none;stroke:black;" d="M28,-865C55,-821 138,-695 247,-649 413,-580 472,-732 569,-898 632,-1003 668,-1389 677,-1505"/>
<polygon style="fill:black;stroke:black;" points="673.522,-1505.4 678,-1515 680.488,-1504.7 673.522,-1505.4"/>
<text text-anchor="middle" x="340" y="-643.9" style="font-family:Times New Roman;font-size:14.00;">alpha</text>
</g>
<!-- 11 -->
<g id="node11" class="node"><title>11</title>
<ellipse style="fill:none;stroke:black;" cx="544" cy="-930" rx="23.1233" ry="23.1233"/>
<text text-anchor="middle" x="544" y="-925.9" style="font-family:Times New Roman;font-size:14.00;">11</text>
</g>
<!-- 1&#45;&gt;11 -->
<g id="edge22" class="edge"><title>1&#45;&gt;11</title>
<path style="fill:none;stroke:black;" d="M37,-879C43,-879 49,-878 55,-878 141,-875 162,-878 247,-877 270,-877 275,-875 297,-877 389,-885 412,-894 501,-917 505,-918 508,-918 512,-919"/>
<polygon style="fill:black;stroke:black;" points="511.416,-922.479 522,-922 513.427,-915.774 511.416,-922.479"/>
<text text-anchor="middle" x="272" y="-881.9" style="font-family:Times New Roman;font-size:14.00;">alpha</text>
</g>
<!-- 12 -->
<g id="node12" class="node"><title>12</title>
<ellipse style="fill:none;stroke:black;" cx="272" cy="-2036" rx="23.1233" ry="23.1233"/>
<text text-anchor="middle" x="272" y="-2031.9" style="font-family:Times New Roman;font-size:14.00;">12</text>
</g>
<!-- 1&#45;&gt;12 -->
<g id="edge24" class="edge"><title>1&#45;&gt;12</title>
<path style="fill:none;stroke:black;" d="M28,-897C43,-926 76,-990 93,-1048 206,-1412 256,-1876 269,-2003"/>
<polygon style="fill:black;stroke:black;" points="265.522,-2003.4 270,-2013 272.488,-2002.7 265.522,-2003.4"/>
<text text-anchor="middle" x="136" y="-1301.9" style="font-family:Times New Roman;font-size:14.00;">alpha</text>
</g>
<!-- 2&#45;&gt;1 -->
<g id="edge26" class="edge"><title>2&#45;&gt;1</title>
<path style="fill:none;stroke:black;" d="M135,-1651C130,-1595 114,-1423 93,-1283 72,-1142 39,-974 25,-909"/>
<polygon style="fill:black;stroke:black;" points="28.3933,-908.119 23,-899 21.5292,-909.492 28.3933,-908.119"/>
<text text-anchor="middle" x="74" y="-1286.9" style="font-family:Times New Roman;font-size:14.00;">alpha</text>
</g>
<!-- 2&#45;&gt;2 -->
<g id="edge28" class="edge"><title>2&#45;&gt;2</title>
<path style="fill:none;stroke:black;" d="M126,-1684C123,-1695 126,-1705 136,-1705 143,-1705 146,-1700 147,-1694"/>
<polygon style="fill:black;stroke:black;" points="150.478,-1693.6 146,-1684 143.512,-1694.3 150.478,-1693.6"/>
<text text-anchor="middle" x="136" y="-1708.9" style="font-family:Times New Roman;font-size:14.00;">alpha</text>
</g>
<!-- 2&#45;&gt;3 -->
<g id="edge30" class="edge"><title>2&#45;&gt;3</title>
<path style="fill:none;stroke:black;" d="M138,-1651C142,-1599 155,-1446 161,-1319 164,-1276 162,-593 179,-554 247,-404 310,-387 451,-302 571,-231 609,-200 748,-200 748,-200 748,-200 1360,-200 1424,-200 1422,-259 1441,-319 1458,-370 1473,-1190 1477,-1355"/>
<polygon style="fill:black;stroke:black;" points="1473.5,-1355 1477,-1365 1480.5,-1355 1473.5,-1355"/>
<text text-anchor="middle" x="816" y="-204.9" style="font-family:Times New Roman;font-size:14.00;">alpha</text>
</g>
<!-- 2&#45;&gt;4 -->
<g id="edge32" class="edge"><title>2&#45;&gt;4</title>
<path style="fill:none;stroke:black;" d="M138,-1687C143,-1727 156,-1828 161,-1913 166,-1986 151,-2506 179,-2574 209,-2644 244,-2652 315,-2679 512,-2752 576,-2720 773,-2792 805,-2803 819,-2799 841,-2825 858,-2843 840,-2862 859,-2877 983,-2964 1262,-2514 1317,-2374 1337,-2323 1355,-1938 1359,-1829"/>
<polygon style="fill:black;stroke:black;" points="1362.5,-1829 1359,-1819 1355.5,-1829 1362.5,-1829"/>
<text text-anchor="middle" x="748" y="-2795.9" style="font-family:Times New Roman;font-size:14.00;">alpha</text>
</g>
<!-- 2&#45;&gt;5 -->
<g id="edge34" class="edge"><title>2&#45;&gt;5</title>
<path style="fill:none;stroke:black;" d="M149,-1656C157,-1649 168,-1639 179,-1633 248,-1591 337,-1560 381,-1545"/>
<polygon style="fill:black;stroke:black;" points="382.427,-1548.23 391,-1542 380.416,-1541.52 382.427,-1548.23"/>
<text text-anchor="middle" x="272" y="-1599.9" style="font-family:Times New Roman;font-size:14.00;">alpha</text>
</g>
<!-- 2&#45;&gt;6 -->
<g id="edge36" class="edge"><title>2&#45;&gt;6</title>
<path style="fill:none;stroke:black;" d="M138,-1651C142,-1599 154,-1446 161,-1319 167,-1222 160,-978 179,-884 192,-822 213,-811 229,-749 242,-704 225,-687 247,-645 285,-578 313,-570 383,-537 662,-409 887,-468 1045,-730 1064,-761 1045,-778 1063,-807 1099,-866 1148,-847 1181,-906 1209,-955 1191,-975 1199,-1031 1206,-1072 1214,-1121 1219,-1151"/>
<polygon style="fill:black;stroke:black;" points="1215.61,-1151.88 1221,-1161 1222.47,-1150.51 1215.61,-1151.88"/>
<text text-anchor="middle" x="680" y="-481.9" style="font-family:Times New Roman;font-size:14.00;">alpha</text>
</g>
<!-- 2&#45;&gt;7 -->
<g id="edge38" class="edge"><title>2&#45;&gt;7</title>
<path style="fill:none;stroke:black;" d="M138,-1687C143,-1727 156,-1828 161,-1913 164,-1947 160,-2508 179,-2537 300,-2712 424,-2688 637,-2682 728,-2679 756,-2699 841,-2670 968,-2626 1002,-2574 1045,-2448 1060,-2404 1055,-2391 1063,-2347 1070,-2314 1077,-2277 1082,-2252"/>
<polygon style="fill:black;stroke:black;" points="1085.47,-2252.49 1084,-2242 1078.61,-2251.12 1085.47,-2252.49"/>
<text text-anchor="middle" x="612" y="-2685.9" style="font-family:Times New Roman;font-size:14.00;">alpha</text>
</g>
<!-- 2&#45;&gt;8 -->
<g id="edge40" class="edge"><title>2&#45;&gt;8</title>
<path style="fill:none;stroke:black;" d="M138,-1651C142,-1599 154,-1446 161,-1319 164,-1271 155,-932 179,-892 193,-871 212,-882 229,-864 242,-852 238,-844 247,-828 297,-745 301,-709 383,-657 482,-596 528,-559 637,-596 719,-624 717,-672 791,-715 841,-744 870,-723 909,-763 915,-769 932,-815 943,-845"/>
<polygon style="fill:black;stroke:black;" points="939.774,-846.427 946,-855 946.479,-844.416 939.774,-846.427"/>
<text text-anchor="middle" x="544" y="-592.9" style="font-family:Times New Roman;font-size:14.00;">alpha</text>
</g>
<!-- 2&#45;&gt;9 -->
<g id="edge42" class="edge"><title>2&#45;&gt;9</title>
<path style="fill:none;stroke:black;" d="M138,-1687C143,-1727 155,-1828 161,-1913 165,-1955 161,-2258 179,-2297 214,-2370 240,-2389 315,-2418 331,-2423 713,-2407 773,-2369 789,-2359 799,-2341 806,-2326"/>
<polygon style="fill:black;stroke:black;" points="809.536,-2326.58 810,-2316 803.036,-2323.98 809.536,-2326.58"/>
<text text-anchor="middle" x="476" y="-2415.9" style="font-family:Times New Roman;font-size:14.00;">alpha</text>
</g>
<!-- 2&#45;&gt;10 -->
<g id="edge44" class="edge"><title>2&#45;&gt;10</title>
<path style="fill:none;stroke:black;" d="M138,-1687C145,-1756 171,-1997 179,-2012 207,-2062 242,-2086 297,-2068 476,-2009 540,-1977 637,-1816 644,-1806 666,-1643 676,-1571"/>
<polygon style="fill:black;stroke:black;" points="679.488,-1571.3 677,-1561 672.522,-1570.6 679.488,-1571.3"/>
<text text-anchor="middle" x="408" y="-2040.9" style="font-family:Times New Roman;font-size:14.00;">alpha</text>
</g>
<!-- 2&#45;&gt;11 -->
<g id="edge46" class="edge"><title>2&#45;&gt;11</title>
<path style="fill:none;stroke:black;" d="M139,-1651C155,-1572 228,-1244 383,-1026 415,-981 475,-954 512,-940"/>
<polygon style="fill:black;stroke:black;" points="513.427,-943.226 522,-937 511.416,-936.521 513.427,-943.226"/>
<text text-anchor="middle" x="340" y="-1138.9" style="font-family:Times New Roman;font-size:14.00;">alpha</text>
</g>
<!-- 2&#45;&gt;12 -->
<g id="edge48" class="edge"><title>2&#45;&gt;12</title>
<path style="fill:none;stroke:black;" d="M137,-1687C140,-1725 149,-1812 179,-1879 195,-1912 211,-1912 229,-1944 241,-1963 252,-1986 260,-2004"/>
<polygon style="fill:black;stroke:black;" points="257.036,-2006.02 264,-2014 263.536,-2003.42 257.036,-2006.02"/>
<text text-anchor="middle" x="204" y="-1947.9" style="font-family:Times New Roman;font-size:14.00;">alpha</text>
</g>
<!-- 3&#45;&gt;1 -->
<g id="edge50" class="edge"><title>3&#45;&gt;1</title>
<path style="fill:none;stroke:black;" d="M1477,-1365C1475,-1206 1459,-80 1441,-49 1420,-13 1403,-0 1360,-0 136,-0 136,-0 136,-0 96,-0 77,-9 55,-43 34,-78 22,-711 19,-853"/>
<polygon style="fill:black;stroke:black;" points="15.5001,-853 19,-863 22.5001,-853 15.5001,-853"/>
<text text-anchor="middle" x="748" y="-4.9" style="font-family:Times New Roman;font-size:14.00;">alpha</text>
</g>
<!-- 3&#45;&gt;2 -->
<g id="edge52" class="edge"><title>3&#45;&gt;2</title>
<path style="fill:none;stroke:black;" d="M1477,-1401C1475,-1577 1459,-2977 1441,-3016 1421,-3061 1410,-3093 1360,-3093 1020,-3093 1020,-3093 1020,-3093 756,-3093 741,-2851 476,-2851 272,-2851 272,-2851 272,-2851 199,-2851 200,-2785 179,-2715 154,-2629 167,-2001 161,-1913 156,-1834 146,-1742 139,-1697"/>
<polygon style="fill:black;stroke:black;" points="142.478,-1696.6 138,-1687 135.512,-1697.3 142.478,-1696.6"/>
<text text-anchor="middle" x="816" y="-3044.9" style="font-family:Times New Roman;font-size:14.00;">alpha</text>
</g>
<!-- 3&#45;&gt;3 -->
<g id="edge54" class="edge"><title>3&#45;&gt;3</title>
<path style="fill:none;stroke:black;" d="M1468,-1399C1466,-1409 1469,-1419 1477,-1419 1482,-1419 1485,-1415 1486,-1409"/>
<polygon style="fill:black;stroke:black;" points="1489.5,-1409 1486,-1399 1482.5,-1409 1489.5,-1409"/>
<text text-anchor="middle" x="1477" y="-1422.9" style="font-family:Times New Roman;font-size:14.00;">alpha</text>
</g>
<!-- 3&#45;&gt;4 -->
<g id="edge56" class="edge"><title>3&#45;&gt;4</title>
<path style="fill:none;stroke:black;" d="M1473,-1401C1467,-1428 1454,-1482 1441,-1527 1426,-1584 1420,-1598 1403,-1655 1391,-1696 1376,-1744 1368,-1773"/>
<polygon style="fill:black;stroke:black;" points="1364.52,-1772.42 1365,-1783 1371.23,-1774.43 1364.52,-1772.42"/>
<text text-anchor="middle" x="1422" y="-1664.9" style="font-family:Times New Roman;font-size:14.00;">alpha</text>
</g>
<!-- 3&#45;&gt;5 -->
<g id="edge58" class="edge"><title>3&#45;&gt;5</title>
<path style="fill:none;stroke:black;" d="M1476,-1401C1472,-1467 1459,-1693 1441,-1764 1388,-1984 1438,-2110 1249,-2238 1231,-2250 1221,-2245 1199,-2238 1123,-2212 977,-2063 909,-2019 888,-2005 878,-2008 859,-1991 832,-1963 800,-1868 773,-1841 657,-1721 559,-1773 451,-1646 432,-1623 420,-1589 414,-1565"/>
<polygon style="fill:black;stroke:black;" points="417.393,-1564.12 412,-1555 410.529,-1565.49 417.393,-1564.12"/>
<text text-anchor="middle" x="952" y="-2072.9" style="font-family:Times New Roman;font-size:14.00;">alpha</text>
</g>
<!-- 3&#45;&gt;6 -->
<g id="edge60" class="edge"><title>3&#45;&gt;6</title>
<path style="fill:none;stroke:black;" d="M1475,-1365C1470,-1329 1459,-1248 1441,-1227 1395,-1170 1300,-1171 1252,-1175"/>
<polygon style="fill:black;stroke:black;" points="1251.6,-1171.52 1242,-1176 1252.3,-1178.49 1251.6,-1171.52"/>
<text text-anchor="middle" x="1360" y="-1189.9" style="font-family:Times New Roman;font-size:14.00;">alpha</text>
</g>
<!-- 3&#45;&gt;7 -->
<g id="edge62" class="edge"><title>3&#45;&gt;7</title>
<path style="fill:none;stroke:black;" d="M1477,-1401C1475,-1552 1463,-2581 1441,-2604 1403,-2643 1373,-2609 1317,-2611 1233,-2613 1185,-2637 1131,-2572 1116,-2552 1117,-2370 1113,-2346 1109,-2313 1100,-2276 1095,-2252"/>
<polygon style="fill:black;stroke:black;" points="1098.23,-2250.57 1092,-2242 1091.52,-2252.58 1098.23,-2250.57"/>
<text text-anchor="middle" x="1292" y="-2616.9" style="font-family:Times New Roman;font-size:14.00;">alpha</text>
</g>
<!-- 3&#45;&gt;8 -->
<g id="edge64" class="edge"><title>3&#45;&gt;8</title>
<path style="fill:none;stroke:black;" d="M1477,-1365C1475,-1253 1464,-668 1441,-637 1383,-558 1067,-560 995,-628 965,-658 956,-786 953,-844"/>
<polygon style="fill:black;stroke:black;" points="949.5,-844 953,-854 956.5,-844 949.5,-844"/>
<text text-anchor="middle" x="1224" y="-584.9" style="font-family:Times New Roman;font-size:14.00;">alpha</text>
</g>
<!-- 3&#45;&gt;9 -->
<g id="edge66" class="edge"><title>3&#45;&gt;9</title>
<path style="fill:none;stroke:black;" d="M1477,-1401C1477,-1552 1473,-2598 1441,-2656 1343,-2829 1150,-2727 995,-2601 902,-2524 846,-2384 824,-2326"/>
<polygon style="fill:black;stroke:black;" points="827.226,-2324.57 821,-2316 820.521,-2326.58 827.226,-2324.57"/>
<text text-anchor="middle" x="1156" y="-2722.9" style="font-family:Times New Roman;font-size:14.00;">alpha</text>
</g>
<!-- 3&#45;&gt;10 -->
<g id="edge68" class="edge"><title>3&#45;&gt;10</title>
<path style="fill:none;stroke:black;" d="M1459,-1383C1423,-1382 1338,-1382 1267,-1394 1239,-1398 802,-1532 773,-1537 754,-1540 731,-1540 713,-1539"/>
<polygon style="fill:black;stroke:black;" points="713,-1535.5 703,-1539 713,-1542.5 713,-1535.5"/>
<text text-anchor="middle" x="1088" y="-1454.9" style="font-family:Times New Roman;font-size:14.00;">alpha</text>
</g>
<!-- 3&#45;&gt;11 -->
<g id="edge70" class="edge"><title>3&#45;&gt;11</title>
<path style="fill:none;stroke:black;" d="M1477,-1365C1475,-1251 1467,-638 1441,-558 1421,-496 1426,-435 1360,-435 884,-435 884,-435 884,-435 764,-435 792,-555 705,-639 657,-687 622,-679 587,-737 566,-775 579,-791 569,-832 565,-854 558,-879 553,-898"/>
<polygon style="fill:black;stroke:black;" points="549.521,-897.416 550,-908 556.226,-899.427 549.521,-897.416"/>
<text text-anchor="middle" x="1020" y="-439.9" style="font-family:Times New Roman;font-size:14.00;">alpha</text>
</g>
<!-- 3&#45;&gt;12 -->
<g id="edge72" class="edge"><title>3&#45;&gt;12</title>
<path style="fill:none;stroke:black;" d="M1477,-1401C1476,-1576 1466,-2956 1441,-2990 1419,-3020 1398,-3017 1360,-3017 1020,-3017 1020,-3017 1020,-3017 1015,-3017 387,-2625 383,-2622 343,-2581 334,-2566 315,-2512 288,-2429 277,-2164 273,-2069"/>
<polygon style="fill:black;stroke:black;" points="276.5,-2069 273,-2059 269.5,-2069 276.5,-2069"/>
<text text-anchor="middle" x="884" y="-2951.9" style="font-family:Times New Roman;font-size:14.00;">alpha</text>
</g>
<!-- 4&#45;&gt;1 -->
<g id="edge74" class="edge"><title>4&#45;&gt;1</title>
<path style="fill:none;stroke:black;" d="M1360,-1819C1359,-1931 1351,-2518 1317,-2590 1305,-2617 1289,-2615 1267,-2636 1228,-2673 1221,-2685 1181,-2722 1160,-2741 1150,-2741 1131,-2764 1121,-2776 1124,-2783 1113,-2797 1012,-2931 994,-2990 841,-3062 749,-3105 715,-3086 612,-3086 136,-3086 136,-3086 136,-3086 92,-3086 76,-3067 55,-3028 29,-2979 20,-1159 19,-909"/>
<polygon style="fill:black;stroke:black;" points="22.5001,-909 19,-899 15.5001,-909 22.5001,-909"/>
<text text-anchor="middle" x="680" y="-3092.9" style="font-family:Times New Roman;font-size:14.00;">alpha</text>
</g>
<!-- 4&#45;&gt;2 -->
<g id="edge76" class="edge"><title>4&#45;&gt;2</title>
<path style="fill:none;stroke:black;" d="M1360,-1819C1359,-1910 1352,-2318 1317,-2439 1271,-2600 1222,-2628 1113,-2757 1093,-2781 1085,-2786 1063,-2810 1055,-2818 1054,-2821 1045,-2830 1018,-2855 1012,-2864 977,-2880 949,-2892 940,-2890 909,-2894 715,-2913 672,-2813 476,-2813 272,-2813 272,-2813 272,-2813 175,-2813 202,-2709 179,-2615 162,-2539 166,-1990 161,-1913 156,-1834 146,-1742 139,-1697"/>
<polygon style="fill:black;stroke:black;" points="142.478,-1696.6 138,-1687 135.512,-1697.3 142.478,-1696.6"/>
<text text-anchor="middle" x="748" y="-2888.9" style="font-family:Times New Roman;font-size:14.00;">alpha</text>
</g>
<!-- 4&#45;&gt;3 -->
<g id="edge78" class="edge"><title>4&#45;&gt;3</title>
<path style="fill:none;stroke:black;" d="M1372,-1787C1390,-1764 1425,-1717 1441,-1672 1458,-1624 1471,-1474 1475,-1411"/>
<polygon style="fill:black;stroke:black;" points="1478.49,-1411.3 1476,-1401 1471.52,-1410.6 1478.49,-1411.3"/>
<text text-anchor="middle" x="1422" y="-1746.9" style="font-family:Times New Roman;font-size:14.00;">alpha</text>
</g>
<!-- 4&#45;&gt;4 -->
<g id="edge80" class="edge"><title>4&#45;&gt;4</title>
<path style="fill:none;stroke:black;" d="M1350,-1816C1347,-1827 1350,-1837 1360,-1837 1367,-1837 1370,-1832 1371,-1826"/>
<polygon style="fill:black;stroke:black;" points="1374.48,-1825.6 1370,-1816 1367.51,-1826.3 1374.48,-1825.6"/>
<text text-anchor="middle" x="1360" y="-1840.9" style="font-family:Times New Roman;font-size:14.00;">alpha</text>
</g>
<!-- 4&#45;&gt;5 -->
<g id="edge82" class="edge"><title>4&#45;&gt;5</title>
<path style="fill:none;stroke:black;" d="M1342,-1802C1250,-1806 840,-1823 791,-1795 778,-1787 785,-1776 773,-1766 705,-1701 660,-1725 587,-1666 578,-1657 580,-1651 569,-1644 524,-1610 496,-1630 451,-1596 439,-1586 429,-1573 421,-1561"/>
<polygon style="fill:black;stroke:black;" points="424.268,-1559.62 416,-1553 418.332,-1563.34 424.268,-1559.62"/>
<text text-anchor="middle" x="884" y="-1812.9" style="font-family:Times New Roman;font-size:14.00;">alpha</text>
</g>
<!-- 4&#45;&gt;6 -->
<g id="edge84" class="edge"><title>4&#45;&gt;6</title>
<path style="fill:none;stroke:black;" d="M1359,-1783C1354,-1732 1340,-1588 1317,-1547 1303,-1520 1281,-1528 1267,-1502 1265,-1498 1238,-1285 1227,-1207"/>
<polygon style="fill:black;stroke:black;" points="1230.48,-1206.6 1226,-1197 1223.51,-1207.3 1230.48,-1206.6"/>
<text text-anchor="middle" x="1292" y="-1550.9" style="font-family:Times New Roman;font-size:14.00;">alpha</text>
</g>
<!-- 4&#45;&gt;7 -->
<g id="edge86" class="edge"><title>4&#45;&gt;7</title>
<path style="fill:none;stroke:black;" d="M1359,-1819C1354,-1884 1337,-2100 1317,-2125 1304,-2142 1152,-2193 1131,-2203 1125,-2206 1119,-2209 1113,-2211"/>
<polygon style="fill:black;stroke:black;" points="1111.04,-2208.08 1104,-2216 1114.44,-2214.2 1111.04,-2208.08"/>
<text text-anchor="middle" x="1224" y="-2179.9" style="font-family:Times New Roman;font-size:14.00;">alpha</text>
</g>
<!-- 4&#45;&gt;8 -->
<g id="edge88" class="edge"><title>4&#45;&gt;8</title>
<path style="fill:none;stroke:black;" d="M1359,-1783C1347,-1647 1272,-785 1181,-718 1103,-661 1005,-792 968,-847"/>
<polygon style="fill:black;stroke:black;" points="964.635,-845.738 962,-856 970.459,-849.621 964.635,-845.738"/>
<text text-anchor="middle" x="1156" y="-722.9" style="font-family:Times New Roman;font-size:14.00;">alpha</text>
</g>
<!-- 4&#45;&gt;9 -->
<g id="edge90" class="edge"><title>4&#45;&gt;9</title>
<path style="fill:none;stroke:black;" d="M1360,-1819C1359,-1887 1354,-2123 1317,-2187 1245,-2314 1186,-2330 1045,-2373 970,-2395 880,-2344 838,-2316"/>
<polygon style="fill:black;stroke:black;" points="840.1,-2313.2 830,-2310 835.9,-2318.8 840.1,-2313.2"/>
<text text-anchor="middle" x="1088" y="-2370.9" style="font-family:Times New Roman;font-size:14.00;">alpha</text>
</g>
<!-- 4&#45;&gt;10 -->
<g id="edge92" class="edge"><title>4&#45;&gt;10</title>
<path style="fill:none;stroke:black;" d="M1347,-1788C1339,-1781 1328,-1773 1317,-1768 1213,-1721 1171,-1761 1063,-1720 1055,-1716 1054,-1712 1045,-1709 978,-1681 780,-1684 723,-1638 703,-1622 692,-1593 686,-1571"/>
<polygon style="fill:black;stroke:black;" points="689.393,-1570.12 684,-1561 682.529,-1571.49 689.393,-1570.12"/>
<text text-anchor="middle" x="1020" y="-1712.9" style="font-family:Times New Roman;font-size:14.00;">alpha</text>
</g>
<!-- 4&#45;&gt;11 -->
<g id="edge94" class="edge"><title>4&#45;&gt;11</title>
<path style="fill:none;stroke:black;" d="M1355,-1783C1349,-1763 1337,-1731 1317,-1711 1253,-1643 1191,-1685 1131,-1614 1114,-1592 1129,-1576 1113,-1553 1055,-1466 985,-1495 927,-1408 844,-1281 956,-1177 841,-1079 779,-1024 719,-1113 655,-1059 632,-1038 655,-1017 637,-992 621,-970 595,-953 575,-943"/>
<polygon style="fill:black;stroke:black;" points="576.56,-939.863 566,-939 573.717,-946.26 576.56,-939.863"/>
<text text-anchor="middle" x="952" y="-1459.9" style="font-family:Times New Roman;font-size:14.00;">alpha</text>
</g>
<!-- 4&#45;&gt;12 -->
<g id="edge96" class="edge"><title>4&#45;&gt;12</title>
<path style="fill:none;stroke:black;" d="M1354,-1818C1338,-1856 1294,-1946 1224,-1946 1020,-1946 1020,-1946 1020,-1946 966,-1946 961,-1982 927,-2025 918,-2037 923,-2048 909,-2056 838,-2097 789,-2000 723,-2051 699,-2069 721,-2090 705,-2117 684,-2153 677,-2167 637,-2184 567,-2212 380,-2111 315,-2072 309,-2068 302,-2063 297,-2059"/>
<polygon style="fill:black;stroke:black;" points="298.831,-2055.95 289,-2052 294.221,-2061.22 298.831,-2055.95"/>
<text text-anchor="middle" x="816" y="-2062.9" style="font-family:Times New Roman;font-size:14.00;">alpha</text>
</g>
<!-- 5&#45;&gt;1 -->
<g id="edge98" class="edge"><title>5&#45;&gt;1</title>
<path style="fill:none;stroke:black;" d="M407,-1519C399,-1427 368,-1016 365,-1014 321,-955 124,-923 55,-896 52,-895 49,-893 45,-892"/>
<polygon style="fill:black;stroke:black;" points="46.5596,-888.863 36,-888 43.7166,-895.26 46.5596,-888.863"/>
<text text-anchor="middle" x="204" y="-946.9" style="font-family:Times New Roman;font-size:14.00;">alpha</text>
</g>
<!-- 5&#45;&gt;2 -->
<g id="edge100" class="edge"><title>5&#45;&gt;2</title>
<path style="fill:none;stroke:black;" d="M394,-1549C386,-1557 375,-1566 365,-1573 337,-1594 330,-1601 297,-1617 253,-1639 197,-1654 164,-1663"/>
<polygon style="fill:black;stroke:black;" points="163.119,-1659.61 154,-1665 164.492,-1666.47 163.119,-1659.61"/>
<text text-anchor="middle" x="272" y="-1640.9" style="font-family:Times New Roman;font-size:14.00;">alpha</text>
</g>
<!-- 5&#45;&gt;3 -->
<g id="edge102" class="edge"><title>5&#45;&gt;3</title>
<path style="fill:none;stroke:black;" d="M425,-1545C454,-1559 517,-1589 569,-1616 608,-1636 613,-1652 655,-1663 825,-1706 874,-1586 1045,-1619 1107,-1630 1126,-1682 1181,-1653 1241,-1621 1219,-1574 1267,-1527 1286,-1508 1296,-1509 1317,-1495 1373,-1458 1387,-1448 1441,-1410 1445,-1407 1450,-1403 1455,-1400"/>
<polygon style="fill:black;stroke:black;" points="1457.1,-1402.8 1463,-1394 1452.9,-1397.2 1457.1,-1402.8"/>
<text text-anchor="middle" x="952" y="-1622.9" style="font-family:Times New Roman;font-size:14.00;">alpha</text>
</g>
<!-- 5&#45;&gt;4 -->
<g id="edge104" class="edge"><title>5&#45;&gt;4</title>
<path style="fill:none;stroke:black;" d="M414,-1554C421,-1572 433,-1600 451,-1619 493,-1661 518,-1651 569,-1682 593,-1695 752,-1796 773,-1813 814,-1842 812,-1868 859,-1886 1034,-1949 1260,-1851 1335,-1814"/>
<polygon style="fill:black;stroke:black;" points="1336.96,-1816.92 1344,-1809 1333.56,-1810.8 1336.96,-1816.92"/>
<text text-anchor="middle" x="884" y="-1901.9" style="font-family:Times New Roman;font-size:14.00;">alpha</text>
</g>
<!-- 5&#45;&gt;5 -->
<g id="edge106" class="edge"><title>5&#45;&gt;5</title>
<path style="fill:none;stroke:black;" d="M397,-1551C393,-1562 397,-1573 408,-1573 416,-1573 420,-1568 420,-1561"/>
<polygon style="fill:black;stroke:black;" points="423.478,-1560.6 419,-1551 416.512,-1561.3 423.478,-1560.6"/>
<text text-anchor="middle" x="408" y="-1576.9" style="font-family:Times New Roman;font-size:14.00;">alpha</text>
</g>
<!-- 5&#45;&gt;6 -->
<g id="edge108" class="edge"><title>5&#45;&gt;6</title>
<path style="fill:none;stroke:black;" d="M408,-1519C410,-1460 417,-1276 451,-1231 477,-1198 751,-1097 791,-1089 832,-1080 843,-1089 884,-1089 884,-1089 884,-1089 1088,-1089 1137,-1089 1182,-1130 1206,-1157"/>
<polygon style="fill:black;stroke:black;" points="1203.78,-1159.78 1213,-1165 1209.05,-1155.17 1203.78,-1159.78"/>
<text text-anchor="middle" x="816" y="-1092.9" style="font-family:Times New Roman;font-size:14.00;">alpha</text>
</g>
<!-- 5&#45;&gt;7 -->
<g id="edge110" class="edge"><title>5&#45;&gt;7</title>
<path style="fill:none;stroke:black;" d="M410,-1555C416,-1595 431,-1692 451,-1719 467,-1739 487,-1726 501,-1747 531,-1789 496,-1816 519,-1862 534,-1889 553,-1883 569,-1910 584,-1933 570,-1948 587,-1970 603,-1989 620,-1979 637,-1998 650,-2012 641,-2024 655,-2037 697,-2072 734,-2032 773,-2071 792,-2089 774,-2108 791,-2127 814,-2150 829,-2142 859,-2153 932,-2177 1018,-2204 1061,-2216"/>
<polygon style="fill:black;stroke:black;" points="1060.42,-2219.48 1071,-2219 1062.43,-2212.77 1060.42,-2219.48"/>
<text text-anchor="middle" x="748" y="-2074.9" style="font-family:Times New Roman;font-size:14.00;">alpha</text>
</g>
<!-- 5&#45;&gt;8 -->
<g id="edge112" class="edge"><title>5&#45;&gt;8</title>
<path style="fill:none;stroke:black;" d="M409,-1519C414,-1448 431,-1193 451,-1164 466,-1142 479,-1148 501,-1136 683,-1033 736,-1020 909,-905 916,-900 923,-895 930,-890"/>
<polygon style="fill:black;stroke:black;" points="932.1,-892.8 938,-884 927.9,-887.2 932.1,-892.8"/>
<text text-anchor="middle" x="680" y="-1055.9" style="font-family:Times New Roman;font-size:14.00;">alpha</text>
</g>
<!-- 5&#45;&gt;9 -->
<g id="edge114" class="edge"><title>5&#45;&gt;9</title>
<path style="fill:none;stroke:black;" d="M411,-1555C416,-1588 427,-1660 433,-1723 440,-1784 430,-1943 451,-2001 516,-2174 625,-2155 773,-2265 780,-2270 787,-2276 794,-2281"/>
<polygon style="fill:black;stroke:black;" points="791.9,-2283.8 802,-2287 796.1,-2278.2 791.9,-2283.8"/>
<text text-anchor="middle" x="612" y="-2185.9" style="font-family:Times New Roman;font-size:14.00;">alpha</text>
</g>
<!-- 5&#45;&gt;10 -->
<g id="edge116" class="edge"><title>5&#45;&gt;10</title>
<path style="fill:none;stroke:black;" d="M424,-1528C453,-1514 516,-1488 569,-1498 598,-1503 628,-1514 650,-1524"/>
<polygon style="fill:black;stroke:black;" points="648.44,-1527.14 659,-1528 651.283,-1520.74 648.44,-1527.14"/>
<text text-anchor="middle" x="544" y="-1501.9" style="font-family:Times New Roman;font-size:14.00;">alpha</text>
</g>
<!-- 5&#45;&gt;11 -->
<g id="edge118" class="edge"><title>5&#45;&gt;11</title>
<path style="fill:none;stroke:black;" d="M410,-1519C414,-1476 425,-1364 433,-1272 438,-1223 424,-1093 451,-1054 466,-1033 484,-1048 501,-1031 520,-1012 531,-984 537,-963"/>
<polygon style="fill:black;stroke:black;" points="540.479,-963.584 540,-953 533.774,-961.573 540.479,-963.584"/>
<text text-anchor="middle" x="476" y="-1057.9" style="font-family:Times New Roman;font-size:14.00;">alpha</text>
</g>
<!-- 5&#45;&gt;12 -->
<g id="edge120" class="edge"><title>5&#45;&gt;12</title>
<path style="fill:none;stroke:black;" d="M407,-1555C403,-1602 390,-1725 365,-1757 350,-1776 330,-1761 315,-1781 290,-1815 278,-1941 274,-2003"/>
<polygon style="fill:black;stroke:black;" points="270.512,-2002.7 273,-2013 277.478,-2003.4 270.512,-2002.7"/>
<text text-anchor="middle" x="340" y="-1785.9" style="font-family:Times New Roman;font-size:14.00;">alpha</text>
</g>
<!-- 6&#45;&gt;1 -->
<g id="edge122" class="edge"><title>6&#45;&gt;1</title>
<path style="fill:none;stroke:black;" d="M1223,-1161C1219,-1085 1201,-792 1181,-701 1134,-483 1018,-179 977,-148 900,-91 641,-118 544,-118 136,-118 136,-118 136,-118 99,-118 79,-115 55,-144 34,-173 22,-721 19,-853"/>
<polygon style="fill:black;stroke:black;" points="15.5001,-853 19,-863 22.5001,-853 15.5001,-853"/>
<text text-anchor="middle" x="612" y="-122.9" style="font-family:Times New Roman;font-size:14.00;">alpha</text>
</g>
<!-- 6&#45;&gt;1 -->
<g id="edge146" class="edge"><title>6&#45;&gt;1</title>
<path style="fill:none;stroke:black;" d="M1223,-1161C1219,-1089 1202,-834 1181,-803 1167,-782 1147,-796 1131,-775 1109,-746 1122,-730 1113,-693 1085,-569 1122,-516 1045,-413 1030,-393 1015,-402 995,-384 910,-309 942,-233 841,-178 725,-115 677,-158 544,-158 136,-158 136,-158 136,-158 81,-158 76,-203 55,-254 34,-310 23,-738 19,-853"/>
<polygon style="fill:black;stroke:black;" points="15.5001,-853 19,-863 22.5001,-853 15.5001,-853"/>
<text text-anchor="middle" x="612" y="-162.9" style="font-family:Times New Roman;font-size:14.00;">gamma</text>
</g>
<!-- 6&#45;&gt;2 -->
<g id="edge124" class="edge"><title>6&#45;&gt;2</title>
<path style="fill:none;stroke:black;" d="M1224,-1161C1222,-1100 1214,-907 1181,-857 1167,-835 1152,-842 1131,-825 1123,-818 1122,-815 1113,-807 1092,-789 1078,-793 1063,-769 1037,-725 1069,-700 1045,-654 1007,-581 978,-574 909,-528 715,-398 604,-437 383,-514 320,-537 285,-526 247,-581 212,-635 265,-671 229,-724 215,-746 193,-731 179,-752 163,-779 163,-1287 161,-1319 154,-1439 143,-1581 139,-1641"/>
<polygon style="fill:black;stroke:black;" points="135.512,-1640.7 138,-1651 142.478,-1641.4 135.512,-1640.7"/>
<text text-anchor="middle" x="680" y="-450.9" style="font-family:Times New Roman;font-size:14.00;">alpha</text>
</g>
<!-- 6&#45;&gt;2 -->
<g id="edge148" class="edge"><title>6&#45;&gt;2</title>
<path style="fill:none;stroke:black;" d="M1223,-1161C1218,-1093 1200,-856 1181,-828 1167,-807 1150,-818 1131,-800 1120,-789 1122,-783 1113,-769 1092,-735 1078,-731 1063,-693 1045,-647 1072,-625 1045,-582 956,-442 871,-447 705,-423 602,-409 323,-464 247,-536 183,-599 196,-639 179,-727 155,-857 168,-1187 161,-1319 155,-1439 143,-1581 139,-1641"/>
<polygon style="fill:black;stroke:black;" points="135.512,-1640.7 138,-1651 142.478,-1641.4 135.512,-1640.7"/>
<text text-anchor="middle" x="680" y="-427.9" style="font-family:Times New Roman;font-size:14.00;">gamma</text>
</g>
<!-- 6&#45;&gt;3 -->
<g id="edge126" class="edge"><title>6&#45;&gt;3</title>
<path style="fill:none;stroke:black;" d="M1242,-1182C1283,-1189 1386,-1213 1441,-1275 1462,-1297 1471,-1331 1475,-1355"/>
<polygon style="fill:black;stroke:black;" points="1471.52,-1355.4 1476,-1365 1478.49,-1354.7 1471.52,-1355.4"/>
<text text-anchor="middle" x="1360" y="-1231.9" style="font-family:Times New Roman;font-size:14.00;">alpha</text>
</g>
<!-- 6&#45;&gt;3 -->
<g id="edge150" class="edge"><title>6&#45;&gt;3</title>
<path style="fill:none;stroke:black;" d="M1241,-1171C1271,-1159 1334,-1138 1385,-1154 1414,-1162 1425,-1166 1441,-1192 1459,-1218 1469,-1309 1474,-1355"/>
<polygon style="fill:black;stroke:black;" points="1470.52,-1355.4 1475,-1365 1477.49,-1354.7 1470.52,-1355.4"/>
<text text-anchor="middle" x="1360" y="-1157.9" style="font-family:Times New Roman;font-size:14.00;">gamma</text>
</g>
<!-- 6&#45;&gt;4 -->
<g id="edge128" class="edge"><title>6&#45;&gt;4</title>
<path style="fill:none;stroke:black;" d="M1226,-1197C1232,-1243 1248,-1362 1267,-1397 1282,-1422 1304,-1415 1317,-1442 1347,-1499 1357,-1698 1360,-1773"/>
<polygon style="fill:black;stroke:black;" points="1356.5,-1773 1360,-1783 1363.5,-1773 1356.5,-1773"/>
<text text-anchor="middle" x="1292" y="-1445.9" style="font-family:Times New Roman;font-size:14.00;">alpha</text>
</g>
<!-- 6&#45;&gt;4 -->
<g id="edge152" class="edge"><title>6&#45;&gt;4</title>
<path style="fill:none;stroke:black;" d="M1226,-1197C1234,-1257 1259,-1449 1267,-1459 1283,-1476 1302,-1456 1317,-1474 1336,-1496 1352,-1697 1358,-1773"/>
<polygon style="fill:black;stroke:black;" points="1354.52,-1773.4 1359,-1783 1361.49,-1772.7 1354.52,-1773.4"/>
<text text-anchor="middle" x="1292" y="-1477.9" style="font-family:Times New Roman;font-size:14.00;">gamma</text>
</g>
<!-- 6&#45;&gt;5 -->
<g id="edge130" class="edge"><title>6&#45;&gt;5</title>
<path style="fill:none;stroke:black;" d="M1206,-1183C1147,-1195 948,-1239 791,-1299 634,-1359 576,-1353 451,-1467 438,-1479 427,-1497 420,-1511"/>
<polygon style="fill:black;stroke:black;" points="416.797,-1509.56 415,-1520 422.916,-1512.96 416.797,-1509.56"/>
<text text-anchor="middle" x="816" y="-1302.9" style="font-family:Times New Roman;font-size:14.00;">alpha</text>
</g>
<!-- 6&#45;&gt;5 -->
<g id="edge154" class="edge"><title>6&#45;&gt;5</title>
<path style="fill:none;stroke:black;" d="M1206,-1180C1173,-1181 1104,-1184 1045,-1186 840,-1193 759,-1140 587,-1254 508,-1306 499,-1337 451,-1421 434,-1449 422,-1485 416,-1510"/>
<polygon style="fill:black;stroke:black;" points="412.521,-1509.42 413,-1520 419.226,-1511.43 412.521,-1509.42"/>
<text text-anchor="middle" x="816" y="-1182.9" style="font-family:Times New Roman;font-size:14.00;">gamma</text>
</g>
<!-- 6&#45;&gt;6 -->
<g id="edge132" class="edge"><title>6&#45;&gt;6</title>
<path style="fill:none;stroke:black;" d="M1213,-1193C1209,-1204 1213,-1215 1224,-1215 1232,-1215 1236,-1210 1236,-1203"/>
<polygon style="fill:black;stroke:black;" points="1239.48,-1202.6 1235,-1193 1232.51,-1203.3 1239.48,-1202.6"/>
<text text-anchor="middle" x="1224" y="-1218.9" style="font-family:Times New Roman;font-size:14.00;">alpha</text>
</g>
<!-- 6&#45;&gt;7 -->
<g id="edge134" class="edge"><title>6&#45;&gt;7</title>
<path style="fill:none;stroke:black;" d="M1223,-1197C1221,-1243 1213,-1365 1181,-1462 1167,-1507 1144,-1511 1131,-1557 1113,-1624 1118,-1802 1113,-1872 1105,-1993 1094,-2136 1090,-2196"/>
<polygon style="fill:black;stroke:black;" points="1086.51,-2195.7 1089,-2206 1093.48,-2196.4 1086.51,-2195.7"/>
<text text-anchor="middle" x="1156" y="-1567.9" style="font-family:Times New Roman;font-size:14.00;">alpha</text>
</g>
<!-- 6&#45;&gt;8 -->
<g id="edge136" class="edge"><title>6&#45;&gt;8</title>
<path style="fill:none;stroke:black;" d="M1221,-1161C1214,-1126 1199,-1050 1181,-1030 1122,-959 1064,-1000 995,-939 982,-928 972,-911 965,-898"/>
<polygon style="fill:black;stroke:black;" points="967.916,-896.042 960,-889 961.797,-899.441 967.916,-896.042"/>
<text text-anchor="middle" x="1088" y="-987.9" style="font-family:Times New Roman;font-size:14.00;">alpha</text>
</g>
<!-- 6&#45;&gt;9 -->
<g id="edge138" class="edge"><title>6&#45;&gt;9</title>
<path style="fill:none;stroke:black;" d="M1223,-1197C1219,-1245 1206,-1374 1181,-1409 1167,-1429 1146,-1415 1131,-1437 1111,-1468 1123,-1569 1113,-1606 1094,-1680 1080,-1696 1045,-1766 999,-1859 960,-1870 927,-1970 915,-2007 931,-2113 909,-2146 896,-2167 876,-2154 859,-2174 836,-2202 825,-2244 820,-2271"/>
<polygon style="fill:black;stroke:black;" points="816.529,-2270.51 818,-2281 823.393,-2271.88 816.529,-2270.51"/>
<text text-anchor="middle" x="1020" y="-1850.9" style="font-family:Times New Roman;font-size:14.00;">alpha</text>
</g>
<!-- 6&#45;&gt;10 -->
<g id="edge140" class="edge"><title>6&#45;&gt;10</title>
<path style="fill:none;stroke:black;" d="M1212,-1193C1204,-1201 1193,-1212 1181,-1219 1079,-1278 1030,-1240 927,-1300 884,-1325 881,-1343 841,-1375 791,-1415 767,-1412 723,-1461 711,-1475 701,-1493 693,-1508"/>
<polygon style="fill:black;stroke:black;" points="689.863,-1506.44 689,-1517 696.26,-1509.28 689.863,-1506.44"/>
<text text-anchor="middle" x="952" y="-1303.9" style="font-family:Times New Roman;font-size:14.00;">alpha</text>
</g>
<!-- 6&#45;&gt;11 -->
<g id="edge142" class="edge"><title>6&#45;&gt;11</title>
<path style="fill:none;stroke:black;" d="M1221,-1161C1213,-1116 1192,-1000 1181,-986 1125,-913 1057,-963 995,-895 980,-878 987,-867 977,-845 951,-783 967,-744 909,-708 891,-697 881,-703 859,-708 851,-711 594,-855 587,-860 576,-871 566,-887 558,-900"/>
<polygon style="fill:black;stroke:black;" points="554.797,-898.559 553,-909 560.916,-901.958 554.797,-898.559"/>
<text text-anchor="middle" x="884" y="-715.9" style="font-family:Times New Roman;font-size:14.00;">alpha</text>
</g>
<!-- 6&#45;&gt;12 -->
<g id="edge144" class="edge"><title>6&#45;&gt;12</title>
<path style="fill:none;stroke:black;" d="M1222,-1197C1217,-1242 1203,-1354 1181,-1384 1166,-1404 1147,-1392 1131,-1412 1114,-1433 1128,-1448 1113,-1472 1076,-1532 1032,-1520 995,-1582 986,-1598 922,-1904 909,-1919 888,-1944 806,-1975 773,-1983 752,-1987 745,-1988 723,-1983 715,-1980 714,-1976 705,-1974 684,-1968 672,-1959 655,-1974 613,-2011 680,-2062 637,-2100 587,-2142 383,-2075 304,-2047"/>
<polygon style="fill:black;stroke:black;" points="304.584,-2043.52 294,-2044 302.573,-2050.23 304.584,-2043.52"/>
<text text-anchor="middle" x="748" y="-1989.9" style="font-family:Times New Roman;font-size:14.00;">alpha</text>
</g>
<!-- 7&#45;&gt;1 -->
<g id="edge156" class="edge"><title>7&#45;&gt;1</title>
<path style="fill:none;stroke:black;" d="M1084,-2242C1078,-2265 1068,-2309 1063,-2347 1055,-2408 1065,-2567 1045,-2626 1033,-2664 1016,-2666 995,-2702 995,-2703 910,-2876 909,-2877 768,-3016 675,-2988 476,-2988 136,-2988 136,-2988 136,-2988 98,-2988 78,-2987 55,-2956 25,-2912 20,-1155 19,-909"/>
<polygon style="fill:black;stroke:black;" points="22.5001,-909 19,-899 15.5001,-909 22.5001,-909"/>
<text text-anchor="middle" x="544" y="-2991.9" style="font-family:Times New Roman;font-size:14.00;">alpha</text>
</g>
<!-- 7&#45;&gt;1 -->
<g id="edge180" class="edge"><title>7&#45;&gt;1</title>
<path style="fill:none;stroke:black;" d="M1084,-2242C1079,-2265 1069,-2309 1063,-2347 1052,-2422 1071,-2446 1045,-2519 1027,-2570 1014,-2580 977,-2622 769,-2860 657,-2942 340,-2942 136,-2942 136,-2942 136,-2942 78,-2942 75,-2893 55,-2839 38,-2791 22,-1147 19,-909"/>
<polygon style="fill:black;stroke:black;" points="22.5001,-909 19,-899 15.5001,-909 22.5001,-909"/>
<text text-anchor="middle" x="544" y="-2932.9" style="font-family:Times New Roman;font-size:14.00;">gamma</text>
</g>
<!-- 7&#45;&gt;2 -->
<g id="edge158" class="edge"><title>7&#45;&gt;2</title>
<path style="fill:none;stroke:black;" d="M1085,-2242C1078,-2281 1061,-2371 1045,-2398 1030,-2425 1010,-2420 995,-2448 976,-2483 1009,-2511 977,-2537 943,-2565 210,-2519 179,-2487 158,-2463 164,-1944 161,-1913 156,-1834 145,-1742 139,-1697"/>
<polygon style="fill:black;stroke:black;" points="142.478,-1696.6 138,-1687 135.512,-1697.3 142.478,-1696.6"/>
<text text-anchor="middle" x="612" y="-2539.9" style="font-family:Times New Roman;font-size:14.00;">alpha</text>
</g>
<!-- 7&#45;&gt;2 -->
<g id="edge182" class="edge"><title>7&#45;&gt;2</title>
<path style="fill:none;stroke:black;" d="M1083,-2242C1077,-2263 1065,-2299 1045,-2326 981,-2411 945,-2427 841,-2453 584,-2515 475,-2545 247,-2410 211,-2387 197,-2380 179,-2341 161,-2297 165,-1960 161,-1913 156,-1834 145,-1742 139,-1697"/>
<polygon style="fill:black;stroke:black;" points="142.478,-1696.6 138,-1687 135.512,-1697.3 142.478,-1696.6"/>
<text text-anchor="middle" x="612" y="-2506.9" style="font-family:Times New Roman;font-size:14.00;">gamma</text>
</g>
<!-- 7&#45;&gt;3 -->
<g id="edge160" class="edge"><title>7&#45;&gt;3</title>
<path style="fill:none;stroke:black;" d="M1092,-2242C1098,-2265 1108,-2308 1113,-2346 1117,-2374 1114,-2577 1131,-2600 1218,-2707 1345,-2726 1441,-2627 1464,-2604 1475,-1595 1477,-1411"/>
<polygon style="fill:black;stroke:black;" points="1480.5,-1411 1477,-1401 1473.5,-1411 1480.5,-1411"/>
<text text-anchor="middle" x="1292" y="-2694.9" style="font-family:Times New Roman;font-size:14.00;">alpha</text>
</g>
<!-- 7&#45;&gt;3 -->
<g id="edge184" class="edge"><title>7&#45;&gt;3</title>
<path style="fill:none;stroke:black;" d="M1091,-2242C1103,-2299 1149,-2476 1267,-2546 1334,-2585 1386,-2599 1441,-2546 1463,-2525 1475,-1588 1477,-1411"/>
<polygon style="fill:black;stroke:black;" points="1480.5,-1411 1477,-1401 1473.5,-1411 1480.5,-1411"/>
<text text-anchor="middle" x="1292" y="-2572.9" style="font-family:Times New Roman;font-size:14.00;">gamma</text>
</g>
<!-- 7&#45;&gt;4 -->
<g id="edge162" class="edge"><title>7&#45;&gt;4</title>
<path style="fill:none;stroke:black;" d="M1106,-2225C1152,-2227 1272,-2223 1317,-2151 1351,-2097 1358,-1903 1360,-1829"/>
<polygon style="fill:black;stroke:black;" points="1363.5,-1829 1360,-1819 1356.5,-1829 1363.5,-1829"/>
<text text-anchor="middle" x="1224" y="-2220.9" style="font-family:Times New Roman;font-size:14.00;">alpha</text>
</g>
<!-- 7&#45;&gt;4 -->
<g id="edge186" class="edge"><title>7&#45;&gt;4</title>
<path style="fill:none;stroke:black;" d="M1100,-2211C1146,-2161 1302,-1989 1317,-1960 1340,-1918 1352,-1862 1357,-1829"/>
<polygon style="fill:black;stroke:black;" points="1360.49,-1829.3 1358,-1819 1353.52,-1828.6 1360.49,-1829.3"/>
<text text-anchor="middle" x="1224" y="-2102.9" style="font-family:Times New Roman;font-size:14.00;">gamma</text>
</g>
<!-- 7&#45;&gt;5 -->
<g id="edge164" class="edge"><title>7&#45;&gt;5</title>
<path style="fill:none;stroke:black;" d="M1074,-2212C1066,-2206 1055,-2198 1045,-2191 987,-2151 971,-2144 909,-2109 887,-2096 881,-2094 859,-2081 829,-2062 811,-2066 791,-2036 758,-1981 815,-1942 773,-1894 770,-1889 592,-1844 587,-1841 534,-1803 550,-1765 501,-1722 482,-1705 467,-1714 451,-1694 435,-1674 421,-1604 413,-1565"/>
<polygon style="fill:black;stroke:black;" points="416.393,-1564.12 411,-1555 409.529,-1565.49 416.393,-1564.12"/>
<text text-anchor="middle" x="748" y="-1897.9" style="font-family:Times New Roman;font-size:14.00;">alpha</text>
</g>
<!-- 7&#45;&gt;5 -->
<g id="edge188" class="edge"><title>7&#45;&gt;5</title>
<path style="fill:none;stroke:black;" d="M1070,-2222C1051,-2221 1021,-2217 995,-2213 965,-2207 957,-2203 927,-2195 897,-2186 889,-2183 859,-2173 829,-2162 820,-2161 791,-2147 727,-2113 704,-2110 655,-2057 644,-2044 649,-2035 637,-2023 620,-2004 604,-2014 587,-1995 571,-1974 584,-1960 569,-1938 553,-1914 534,-1922 519,-1897 492,-1848 533,-1818 501,-1772 487,-1751 467,-1764 451,-1744 441,-1730 422,-1618 413,-1565"/>
<polygon style="fill:black;stroke:black;" points="416.393,-1564.12 411,-1555 409.529,-1565.49 416.393,-1564.12"/>
<text text-anchor="middle" x="748" y="-2138.9" style="font-family:Times New Roman;font-size:14.00;">gamma</text>
</g>
<!-- 7&#45;&gt;6 -->
<g id="edge166" class="edge"><title>7&#45;&gt;6</title>
<path style="fill:none;stroke:black;" d="M1091,-2206C1103,-2130 1150,-1825 1181,-1574 1199,-1436 1215,-1272 1221,-1207"/>
<polygon style="fill:black;stroke:black;" points="1224.49,-1207.3 1222,-1197 1217.52,-1206.6 1224.49,-1207.3"/>
<text text-anchor="middle" x="1156" y="-1946.9" style="font-family:Times New Roman;font-size:14.00;">alpha</text>
</g>
<!-- 7&#45;&gt;7 -->
<g id="edge168" class="edge"><title>7&#45;&gt;7</title>
<path style="fill:none;stroke:black;" d="M1077,-2238C1073,-2249 1077,-2260 1088,-2260 1096,-2260 1100,-2255 1100,-2248"/>
<polygon style="fill:black;stroke:black;" points="1103.48,-2247.6 1099,-2238 1096.51,-2248.3 1103.48,-2247.6"/>
<text text-anchor="middle" x="1088" y="-2263.9" style="font-family:Times New Roman;font-size:14.00;">alpha</text>
</g>
<!-- 7&#45;&gt;8 -->
<g id="edge170" class="edge"><title>7&#45;&gt;8</title>
<path style="fill:none;stroke:black;" d="M1087,-2206C1083,-2132 1067,-1848 1045,-1616 1028,-1427 1015,-1381 995,-1193 986,-1102 991,-1079 977,-990 973,-959 965,-923 960,-900"/>
<polygon style="fill:black;stroke:black;" points="963.226,-898.573 957,-890 956.521,-900.584 963.226,-898.573"/>
<text text-anchor="middle" x="1020" y="-1619.9" style="font-family:Times New Roman;font-size:14.00;">alpha</text>
</g>
<!-- 7&#45;&gt;9 -->
<g id="edge172" class="edge"><title>7&#45;&gt;9</title>
<path style="fill:none;stroke:black;" d="M1071,-2231C1063,-2234 1054,-2238 1045,-2241 974,-2264 887,-2284 844,-2293"/>
<polygon style="fill:black;stroke:black;" points="843.119,-2289.61 834,-2295 844.492,-2296.47 843.119,-2289.61"/>
<text text-anchor="middle" x="952" y="-2275.9" style="font-family:Times New Roman;font-size:14.00;">alpha</text>
</g>
<!-- 7&#45;&gt;10 -->
<g id="edge174" class="edge"><title>7&#45;&gt;10</title>
<path style="fill:none;stroke:black;" d="M1083,-2207C1076,-2182 1062,-2136 1045,-2099 1033,-2072 931,-1889 909,-1869 888,-1848 811,-1829 791,-1808 777,-1792 785,-1780 773,-1763 756,-1736 739,-1740 723,-1713 698,-1667 687,-1608 683,-1571"/>
<polygon style="fill:black;stroke:black;" points="686.478,-1570.6 682,-1561 679.512,-1571.3 686.478,-1570.6"/>
<text text-anchor="middle" x="884" y="-1872.9" style="font-family:Times New Roman;font-size:14.00;">alpha</text>
</g>
<!-- 7&#45;&gt;11 -->
<g id="edge176" class="edge"><title>7&#45;&gt;11</title>
<path style="fill:none;stroke:black;" d="M1087,-2206C1082,-2147 1066,-1962 1045,-1907 1031,-1869 1014,-1866 995,-1831 976,-1793 731,-1158 705,-1125 688,-1102 675,-1107 655,-1087 617,-1047 581,-992 560,-959"/>
<polygon style="fill:black;stroke:black;" points="562.916,-957.042 555,-950 556.797,-960.441 562.916,-957.042"/>
<text text-anchor="middle" x="816" y="-1442.9" style="font-family:Times New Roman;font-size:14.00;">alpha</text>
</g>
<!-- 7&#45;&gt;12 -->
<g id="edge178" class="edge"><title>7&#45;&gt;12</title>
<path style="fill:none;stroke:black;" d="M1080,-2240C1073,-2254 1060,-2274 1045,-2288 1042,-2290 868,-2480 723,-2445 507,-2391 431,-2344 315,-2154 299,-2127 287,-2093 280,-2068"/>
<polygon style="fill:black;stroke:black;" points="283.393,-2067.12 278,-2058 276.529,-2068.49 283.393,-2067.12"/>
<text text-anchor="middle" x="680" y="-2442.9" style="font-family:Times New Roman;font-size:14.00;">alpha</text>
</g>
<!-- 8&#45;&gt;1 -->
<g id="edge214" class="edge"><title>8&#45;&gt;1</title>
<path style="fill:none;stroke:black;" d="M950,-854C945,-804 929,-662 909,-620 895,-589 879,-589 859,-559 778,-435 822,-355 705,-262 672,-236 655,-238 612,-238 136,-238 136,-238 136,-238 66,-238 77,-307 55,-374 27,-464 20,-760 19,-853"/>
<polygon style="fill:black;stroke:black;" points="15.5001,-853 19,-863 22.5001,-853 15.5001,-853"/>
<text text-anchor="middle" x="476" y="-242.9" style="font-family:Times New Roman;font-size:14.00;">gamma</text>
</g>
<!-- 8&#45;&gt;1 -->
<g id="edge190" class="edge"><title>8&#45;&gt;1</title>
<path style="fill:none;stroke:black;" d="M950,-854C946,-822 934,-752 909,-699 888,-653 878,-643 841,-607 651,-426 604,-291 340,-291 136,-291 136,-291 136,-291 79,-291 33,-736 22,-853"/>
<polygon style="fill:black;stroke:black;" points="18.5125,-852.701 21,-863 25.4778,-853.398 18.5125,-852.701"/>
<text text-anchor="middle" x="476" y="-318.9" style="font-family:Times New Roman;font-size:14.00;">alpha</text>
</g>
<!-- 8&#45;&gt;2 -->
<g id="edge216" class="edge"><title>8&#45;&gt;2</title>
<path style="fill:none;stroke:black;" d="M946,-855C941,-840 934,-817 927,-797 919,-769 929,-756 909,-733 872,-689 836,-715 791,-677 781,-669 783,-662 773,-652 700,-577 672,-556 569,-530 452,-502 405,-548 315,-629 273,-668 268,-686 247,-739 231,-782 256,-803 229,-839 215,-860 193,-846 179,-867 166,-888 163,-1293 161,-1319 154,-1439 143,-1581 139,-1641"/>
<polygon style="fill:black;stroke:black;" points="135.512,-1640.7 138,-1651 142.478,-1641.4 135.512,-1640.7"/>
<text text-anchor="middle" x="544" y="-534.9" style="font-family:Times New Roman;font-size:14.00;">gamma</text>
</g>
<!-- 8&#45;&gt;2 -->
<g id="edge192" class="edge"><title>8&#45;&gt;2</title>
<path style="fill:none;stroke:black;" d="M937,-861C929,-856 919,-850 909,-847 852,-828 834,-839 773,-838 540,-837 443,-722 247,-850 232,-861 242,-875 229,-889 212,-910 193,-901 179,-926 159,-964 164,-1275 161,-1319 154,-1439 143,-1581 138,-1641"/>
<polygon style="fill:black;stroke:black;" points="134.512,-1640.7 137,-1651 141.478,-1641.4 134.512,-1640.7"/>
<text text-anchor="middle" x="544" y="-815.9" style="font-family:Times New Roman;font-size:14.00;">alpha</text>
</g>
<!-- 8&#45;&gt;3 -->
<g id="edge218" class="edge"><title>8&#45;&gt;3</title>
<path style="fill:none;stroke:black;" d="M955,-854C960,-829 971,-783 995,-752 1018,-724 1029,-719 1063,-707 1142,-680 1186,-665 1249,-718 1411,-855 1382,-950 1441,-1153 1462,-1224 1472,-1311 1475,-1355"/>
<polygon style="fill:black;stroke:black;" points="1471.52,-1355.4 1476,-1365 1478.49,-1354.7 1471.52,-1355.4"/>
<text text-anchor="middle" x="1224" y="-722.9" style="font-family:Times New Roman;font-size:14.00;">gamma</text>
</g>
<!-- 8&#45;&gt;3 -->
<g id="edge194" class="edge"><title>8&#45;&gt;3</title>
<path style="fill:none;stroke:black;" d="M953,-854C954,-800 963,-641 995,-603 1125,-454 1325,-446 1441,-606 1464,-637 1474,-1219 1477,-1355"/>
<polygon style="fill:black;stroke:black;" points="1473.5,-1355 1477,-1365 1480.5,-1355 1473.5,-1355"/>
<text text-anchor="middle" x="1224" y="-495.9" style="font-family:Times New Roman;font-size:14.00;">alpha</text>
</g>
<!-- 8&#45;&gt;4 -->
<g id="edge220" class="edge"><title>8&#45;&gt;4</title>
<path style="fill:none;stroke:black;" d="M969,-866C1011,-853 1118,-827 1181,-876 1193,-885 1315,-1382 1317,-1397 1343,-1536 1355,-1706 1358,-1773"/>
<polygon style="fill:black;stroke:black;" points="1354.52,-1773.4 1359,-1783 1361.49,-1772.7 1354.52,-1773.4"/>
<text text-anchor="middle" x="1156" y="-879.9" style="font-family:Times New Roman;font-size:14.00;">gamma</text>
</g>
<!-- 8&#45;&gt;4 -->
<g id="edge196" class="edge"><title>8&#45;&gt;4</title>
<path style="fill:none;stroke:black;" d="M958,-889C967,-913 982,-956 995,-993 1017,-1053 1031,-1065 1045,-1128 1064,-1207 1029,-1236 1063,-1310 1114,-1414 1192,-1393 1249,-1494 1265,-1521 1248,-1538 1267,-1564 1283,-1584 1302,-1571 1317,-1592 1337,-1620 1352,-1723 1357,-1773"/>
<polygon style="fill:black;stroke:black;" points="1353.52,-1773.4 1358,-1783 1360.49,-1772.7 1353.52,-1773.4"/>
<text text-anchor="middle" x="1156" y="-1421.9" style="font-family:Times New Roman;font-size:14.00;">alpha</text>
</g>
<!-- 8&#45;&gt;5 -->
<g id="edge222" class="edge"><title>8&#45;&gt;5</title>
<path style="fill:none;stroke:black;" d="M935,-877C916,-883 885,-893 859,-905 700,-972 657,-989 519,-1095 511,-1101 510,-1104 501,-1111 481,-1125 466,-1117 451,-1139 431,-1170 414,-1423 410,-1509"/>
<polygon style="fill:black;stroke:black;" points="406.512,-1508.7 409,-1519 413.478,-1509.4 406.512,-1508.7"/>
<text text-anchor="middle" x="680" y="-1002.9" style="font-family:Times New Roman;font-size:14.00;">gamma</text>
</g>
<!-- 8&#45;&gt;5 -->
<g id="edge198" class="edge"><title>8&#45;&gt;5</title>
<path style="fill:none;stroke:black;" d="M944,-888C936,-902 924,-921 909,-935 832,-1012 801,-1018 705,-1073 678,-1088 470,-1167 451,-1193 433,-1218 416,-1431 410,-1509"/>
<polygon style="fill:black;stroke:black;" points="406.512,-1508.7 409,-1519 413.478,-1509.4 406.512,-1508.7"/>
<text text-anchor="middle" x="680" y="-1097.9" style="font-family:Times New Roman;font-size:14.00;">alpha</text>
</g>
<!-- 8&#45;&gt;6 -->
<g id="edge200" class="edge"><title>8&#45;&gt;6</title>
<path style="fill:none;stroke:black;" d="M957,-890C963,-910 975,-943 995,-965 1060,-1036 1119,-1002 1181,-1075 1200,-1097 1212,-1129 1218,-1151"/>
<polygon style="fill:black;stroke:black;" points="1214.61,-1151.88 1220,-1161 1221.47,-1150.51 1214.61,-1151.88"/>
<text text-anchor="middle" x="1088" y="-1028.9" style="font-family:Times New Roman;font-size:14.00;">alpha</text>
</g>
<!-- 8&#45;&gt;7 -->
<g id="edge202" class="edge"><title>8&#45;&gt;7</title>
<path style="fill:none;stroke:black;" d="M956,-890C962,-913 971,-954 977,-990 988,-1050 964,-1074 995,-1128 1010,-1151 1033,-1140 1045,-1165 1045,-1165 1080,-2027 1087,-2196"/>
<polygon style="fill:black;stroke:black;" points="1083.5,-2196 1087,-2206 1090.5,-2196 1083.5,-2196"/>
<text text-anchor="middle" x="1020" y="-1168.9" style="font-family:Times New Roman;font-size:14.00;">alpha</text>
</g>
<!-- 8&#45;&gt;8 -->
<g id="edge204" class="edge"><title>8&#45;&gt;8</title>
<path style="fill:none;stroke:black;" d="M941,-886C937,-897 941,-908 952,-908 960,-908 964,-903 964,-896"/>
<polygon style="fill:black;stroke:black;" points="967.478,-895.602 963,-886 960.512,-896.299 967.478,-895.602"/>
<text text-anchor="middle" x="952" y="-911.9" style="font-family:Times New Roman;font-size:14.00;">alpha</text>
</g>
<!-- 8&#45;&gt;9 -->
<g id="edge206" class="edge"><title>8&#45;&gt;9</title>
<path style="fill:none;stroke:black;" d="M947,-890C941,-912 932,-954 927,-990 915,-1100 937,-1885 909,-1994 898,-2040 876,-2044 859,-2089 836,-2151 824,-2230 819,-2271"/>
<polygon style="fill:black;stroke:black;" points="815.512,-2270.7 818,-2281 822.478,-2271.4 815.512,-2270.7"/>
<text text-anchor="middle" x="884" y="-2095.9" style="font-family:Times New Roman;font-size:14.00;">alpha</text>
</g>
<!-- 8&#45;&gt;10 -->
<g id="edge208" class="edge"><title>8&#45;&gt;10</title>
<path style="fill:none;stroke:black;" d="M949,-890C944,-918 931,-975 909,-1019 887,-1064 875,-1072 841,-1110 821,-1132 809,-1131 791,-1156 748,-1217 746,-1239 723,-1312 703,-1379 690,-1460 684,-1505"/>
<polygon style="fill:black;stroke:black;" points="680.512,-1504.7 683,-1515 687.478,-1505.4 680.512,-1504.7"/>
<text text-anchor="middle" x="816" y="-1162.9" style="font-family:Times New Roman;font-size:14.00;">alpha</text>
</g>
<!-- 8&#45;&gt;11 -->
<g id="edge210" class="edge"><title>8&#45;&gt;11</title>
<path style="fill:none;stroke:black;" d="M934,-870C895,-865 801,-857 723,-869 669,-877 609,-900 574,-916"/>
<polygon style="fill:black;stroke:black;" points="572.717,-912.74 565,-920 575.56,-919.137 572.717,-912.74"/>
<text text-anchor="middle" x="748" y="-876.9" style="font-family:Times New Roman;font-size:14.00;">alpha</text>
</g>
<!-- 8&#45;&gt;12 -->
<g id="edge212" class="edge"><title>8&#45;&gt;12</title>
<path style="fill:none;stroke:black;" d="M948,-890C942,-913 933,-954 927,-990 917,-1053 921,-1070 909,-1134 869,-1353 825,-1400 791,-1621 787,-1653 795,-1889 773,-1915 770,-1919 415,-2003 305,-2029"/>
<polygon style="fill:black;stroke:black;" points="304.119,-2025.61 295,-2031 305.492,-2032.47 304.119,-2025.61"/>
<text text-anchor="middle" x="612" y="-1963.9" style="font-family:Times New Roman;font-size:14.00;">alpha</text>
</g>
<!-- 9&#45;&gt;1 -->
<g id="edge224" class="edge"><title>9&#45;&gt;1</title>
<path style="fill:none;stroke:black;" d="M816,-2317C814,-2379 806,-2582 773,-2638 660,-2831 565,-2897 340,-2897 136,-2897 136,-2897 136,-2897 74,-2897 75,-2841 55,-2782 25,-2689 20,-1139 19,-909"/>
<polygon style="fill:black;stroke:black;" points="22.5001,-909 19,-899 15.5001,-909 22.5001,-909"/>
<text text-anchor="middle" x="408" y="-2898.9" style="font-family:Times New Roman;font-size:14.00;">alpha</text>
</g>
<!-- 9&#45;&gt;1 -->
<g id="edge248" class="edge"><title>9&#45;&gt;1</title>
<path style="fill:none;stroke:black;" d="M812,-2317C806,-2341 793,-2383 773,-2416 648,-2629 589,-2768 340,-2768 136,-2768 136,-2768 136,-2768 39,-2768 22,-1144 19,-909"/>
<polygon style="fill:black;stroke:black;" points="22.5001,-909 19,-899 15.5001,-909 22.5001,-909"/>
<text text-anchor="middle" x="408" y="-2768.9" style="font-family:Times New Roman;font-size:14.00;">gamma</text>
</g>
<!-- 9&#45;&gt;2 -->
<g id="edge226" class="edge"><title>9&#45;&gt;2</title>
<path style="fill:none;stroke:black;" d="M798,-2299C710,-2296 327,-2270 179,-2046 175,-2038 148,-1783 139,-1697"/>
<polygon style="fill:black;stroke:black;" points="142.478,-1696.6 138,-1687 135.512,-1697.3 142.478,-1696.6"/>
<text text-anchor="middle" x="476" y="-2253.9" style="font-family:Times New Roman;font-size:14.00;">alpha</text>
</g>
<!-- 9&#45;&gt;2 -->
<g id="edge250" class="edge"><title>9&#45;&gt;2</title>
<path style="fill:none;stroke:black;" d="M798,-2304C791,-2306 782,-2308 773,-2309 721,-2314 708,-2307 655,-2301 565,-2288 539,-2299 451,-2271 352,-2238 328,-2221 247,-2154 214,-2125 198,-2121 179,-2081 178,-2078 148,-1789 139,-1697"/>
<polygon style="fill:black;stroke:black;" points="142.478,-1696.6 138,-1687 135.512,-1697.3 142.478,-1696.6"/>
<text text-anchor="middle" x="476" y="-2285.9" style="font-family:Times New Roman;font-size:14.00;">gamma</text>
</g>
<!-- 9&#45;&gt;3 -->
<g id="edge228" class="edge"><title>9&#45;&gt;3</title>
<path style="fill:none;stroke:black;" d="M818,-2317C829,-2413 895,-2862 1156,-2862 1156,-2862 1156,-2862 1360,-2862 1443,-2862 1422,-2774 1441,-2694 1472,-2566 1477,-1591 1477,-1411"/>
<polygon style="fill:black;stroke:black;" points="1480.5,-1411 1477,-1401 1473.5,-1411 1480.5,-1411"/>
<text text-anchor="middle" x="1156" y="-2864.9" style="font-family:Times New Roman;font-size:14.00;">alpha</text>
</g>
<!-- 9&#45;&gt;3 -->
<g id="edge252" class="edge"><title>9&#45;&gt;3</title>
<path style="fill:none;stroke:black;" d="M817,-2317C819,-2365 828,-2499 859,-2604 880,-2670 889,-2686 927,-2745 1000,-2856 1023,-2938 1156,-2938 1156,-2938 1156,-2938 1360,-2938 1437,-2938 1422,-2859 1441,-2785 1460,-2715 1474,-1605 1477,-1411"/>
<polygon style="fill:black;stroke:black;" points="1480.5,-1411 1477,-1401 1473.5,-1411 1480.5,-1411"/>
<text text-anchor="middle" x="1156" y="-2941.9" style="font-family:Times New Roman;font-size:14.00;">gamma</text>
</g>
<!-- 9&#45;&gt;4 -->
<g id="edge230" class="edge"><title>9&#45;&gt;4</title>
<path style="fill:none;stroke:black;" d="M825,-2315C833,-2327 845,-2343 859,-2354 886,-2373 896,-2373 927,-2381 1069,-2416 1135,-2402 1249,-2311 1284,-2283 1299,-2277 1317,-2237 1350,-2163 1357,-1914 1360,-1829"/>
<polygon style="fill:black;stroke:black;" points="1363.5,-1829 1360,-1819 1356.5,-1829 1363.5,-1829"/>
<text text-anchor="middle" x="1088" y="-2400.9" style="font-family:Times New Roman;font-size:14.00;">alpha</text>
</g>
<!-- 9&#45;&gt;4 -->
<g id="edge254" class="edge"><title>9&#45;&gt;4</title>
<path style="fill:none;stroke:black;" d="M821,-2316C828,-2334 840,-2361 859,-2377 884,-2396 897,-2390 927,-2398 1008,-2416 1032,-2436 1113,-2418 1181,-2402 1195,-2384 1249,-2343 1282,-2318 1299,-2316 1317,-2280 1337,-2240 1354,-1926 1359,-1829"/>
<polygon style="fill:black;stroke:black;" points="1362.5,-1829 1359,-1819 1355.5,-1829 1362.5,-1829"/>
<text text-anchor="middle" x="1088" y="-2427.9" style="font-family:Times New Roman;font-size:14.00;">gamma</text>
</g>
<!-- 9&#45;&gt;5 -->
<g id="edge232" class="edge"><title>9&#45;&gt;5</title>
<path style="fill:none;stroke:black;" d="M809,-2282C801,-2267 789,-2246 773,-2231 755,-2213 744,-2217 723,-2203 715,-2197 714,-2194 705,-2188 676,-2164 668,-2159 637,-2137 585,-2098 558,-2103 519,-2052 518,-2049 452,-1864 451,-1862 437,-1801 442,-1784 433,-1723 427,-1667 417,-1602 412,-1565"/>
<polygon style="fill:black;stroke:black;" points="415.478,-1564.6 411,-1555 408.512,-1565.3 415.478,-1564.6"/>
<text text-anchor="middle" x="612" y="-2140.9" style="font-family:Times New Roman;font-size:14.00;">alpha</text>
</g>
<!-- 9&#45;&gt;5 -->
<g id="edge256" class="edge"><title>9&#45;&gt;5</title>
<path style="fill:none;stroke:black;" d="M809,-2282C798,-2257 779,-2212 773,-2206 756,-2187 741,-2196 723,-2178 711,-2165 717,-2156 705,-2143 687,-2120 676,-2122 655,-2103 647,-2094 525,-1948 519,-1938 504,-1906 515,-1893 501,-1862 486,-1825 466,-1824 451,-1788 435,-1748 418,-1622 411,-1565"/>
<polygon style="fill:black;stroke:black;" points="414.478,-1564.6 410,-1555 407.512,-1565.3 414.478,-1564.6"/>
<text text-anchor="middle" x="612" y="-2081.9" style="font-family:Times New Roman;font-size:14.00;">gamma</text>
</g>
<!-- 9&#45;&gt;6 -->
<g id="edge234" class="edge"><title>9&#45;&gt;6</title>
<path style="fill:none;stroke:black;" d="M829,-2286C850,-2264 890,-2218 909,-2171 931,-2118 908,-2098 927,-2046 961,-1957 1003,-1952 1045,-1868 1085,-1789 1095,-1768 1113,-1683 1124,-1634 1105,-1503 1131,-1462 1145,-1440 1167,-1454 1181,-1434 1207,-1397 1219,-1266 1222,-1207"/>
<polygon style="fill:black;stroke:black;" points="1225.49,-1207.3 1223,-1197 1218.52,-1206.6 1225.49,-1207.3"/>
<text text-anchor="middle" x="1020" y="-1944.9" style="font-family:Times New Roman;font-size:14.00;">alpha</text>
</g>
<!-- 9&#45;&gt;7 -->
<g id="edge236" class="edge"><title>9&#45;&gt;7</title>
<path style="fill:none;stroke:black;" d="M834,-2301C865,-2303 927,-2305 977,-2293 1010,-2285 1018,-2280 1045,-2262 1053,-2257 1061,-2250 1068,-2244"/>
<polygon style="fill:black;stroke:black;" points="1070.4,-2246.55 1075,-2237 1065.45,-2241.6 1070.4,-2246.55"/>
<text text-anchor="middle" x="952" y="-2302.9" style="font-family:Times New Roman;font-size:14.00;">alpha</text>
</g>
<!-- 9&#45;&gt;8 -->
<g id="edge238" class="edge"><title>9&#45;&gt;8</title>
<path style="fill:none;stroke:black;" d="M819,-2281C825,-2242 840,-2152 859,-2129 875,-2110 896,-2126 909,-2106 926,-2080 924,-1020 927,-990 931,-959 939,-923 944,-900"/>
<polygon style="fill:black;stroke:black;" points="947.479,-900.584 947,-890 940.774,-898.573 947.479,-900.584"/>
<text text-anchor="middle" x="884" y="-2135.9" style="font-family:Times New Roman;font-size:14.00;">alpha</text>
</g>
<!-- 9&#45;&gt;9 -->
<g id="edge240" class="edge"><title>9&#45;&gt;9</title>
<path style="fill:none;stroke:black;" d="M805,-2313C801,-2324 805,-2335 816,-2335 824,-2335 828,-2330 828,-2323"/>
<polygon style="fill:black;stroke:black;" points="831.478,-2322.6 827,-2313 824.512,-2323.3 831.478,-2322.6"/>
<text text-anchor="middle" x="816" y="-2338.9" style="font-family:Times New Roman;font-size:14.00;">alpha</text>
</g>
<!-- 9&#45;&gt;10 -->
<g id="edge242" class="edge"><title>9&#45;&gt;10</title>
<path style="fill:none;stroke:black;" d="M813,-2281C808,-2249 798,-2183 791,-2127 785,-2068 799,-1914 773,-1861 760,-1834 737,-1842 723,-1816 703,-1774 715,-1654 705,-1610 702,-1596 697,-1581 693,-1568"/>
<polygon style="fill:black;stroke:black;" points="696.26,-1566.72 689,-1559 689.863,-1569.56 696.26,-1566.72"/>
<text text-anchor="middle" x="748" y="-1864.9" style="font-family:Times New Roman;font-size:14.00;">alpha</text>
</g>
<!-- 9&#45;&gt;11 -->
<g id="edge244" class="edge"><title>9&#45;&gt;11</title>
<path style="fill:none;stroke:black;" d="M815,-2281C812,-2251 803,-2193 773,-2156 758,-2136 738,-2149 723,-2128 704,-2098 711,-2002 705,-1967 665,-1721 625,-1666 587,-1421 562,-1250 549,-1044 545,-963"/>
<polygon style="fill:black;stroke:black;" points="548.5,-963 545,-953 541.5,-963 548.5,-963"/>
<text text-anchor="middle" x="680" y="-1970.9" style="font-family:Times New Roman;font-size:14.00;">alpha</text>
</g>
<!-- 9&#45;&gt;12 -->
<g id="edge246" class="edge"><title>9&#45;&gt;12</title>
<path style="fill:none;stroke:black;" d="M799,-2294C752,-2280 624,-2242 519,-2204 481,-2189 472,-2182 433,-2168 382,-2148 354,-2169 315,-2130 294,-2108 312,-2090 297,-2064 296,-2063 296,-2062 295,-2060"/>
<polygon style="fill:black;stroke:black;" points="297.8,-2057.9 289,-2052 292.2,-2062.1 297.8,-2057.9"/>
<text text-anchor="middle" x="544" y="-2222.9" style="font-family:Times New Roman;font-size:14.00;">alpha</text>
</g>
<!-- 10&#45;&gt;1 -->
<g id="edge258" class="edge"><title>10&#45;&gt;1</title>
<path style="fill:none;stroke:black;" d="M679,-1515C674,-1418 653,-1043 637,-927 617,-773 690,-682 569,-583 407,-450 264,-558 111,-702 82,-730 75,-739 55,-774 42,-800 32,-831 26,-853"/>
<polygon style="fill:black;stroke:black;" points="22.5212,-852.416 23,-863 29.2259,-854.427 22.5212,-852.416"/>
<text text-anchor="middle" x="340" y="-554.9" style="font-family:Times New Roman;font-size:14.00;">alpha</text>
</g>
<!-- 10&#45;&gt;1 -->
<g id="edge282" class="edge"><title>10&#45;&gt;1</title>
<path style="fill:none;stroke:black;" d="M676,-1561C671,-1595 661,-1662 655,-1719 651,-1772 663,-2155 637,-2203 594,-2285 543,-2324 451,-2303 256,-2256 183,-2192 111,-2005 32,-1795 21,-1062 19,-909"/>
<polygon style="fill:black;stroke:black;" points="22.5001,-909 19,-899 15.5001,-909 22.5001,-909"/>
<text text-anchor="middle" x="340" y="-2279.9" style="font-family:Times New Roman;font-size:14.00;">gamma</text>
</g>
<!-- 10&#45;&gt;2 -->
<g id="edge260" class="edge"><title>10&#45;&gt;2</title>
<path style="fill:none;stroke:black;" d="M677,-1561C668,-1621 645,-1779 637,-1788 595,-1833 427,-1843 365,-1851 343,-1853 336,-1858 315,-1851 237,-1821 176,-1736 150,-1694"/>
<polygon style="fill:black;stroke:black;" points="152.916,-1692.04 145,-1685 146.797,-1695.44 152.916,-1692.04"/>
<text text-anchor="middle" x="408" y="-1851.9" style="font-family:Times New Roman;font-size:14.00;">alpha</text>
</g>
<!-- 10&#45;&gt;2 -->
<g id="edge284" class="edge"><title>10&#45;&gt;2</title>
<path style="fill:none;stroke:black;" d="M665,-1555C636,-1586 572,-1648 501,-1672 382,-1712 226,-1688 164,-1675"/>
<polygon style="fill:black;stroke:black;" points="164.492,-1671.53 154,-1673 163.119,-1678.39 164.492,-1671.53"/>
<text text-anchor="middle" x="408" y="-1695.9" style="font-family:Times New Roman;font-size:14.00;">gamma</text>
</g>
<!-- 10&#45;&gt;3 -->
<g id="edge262" class="edge"><title>10&#45;&gt;3</title>
<path style="fill:none;stroke:black;" d="M702,-1546C709,-1548 716,-1551 723,-1552 745,-1555 751,-1552 773,-1552 819,-1551 1142,-1570 1181,-1549 1242,-1516 1210,-1458 1267,-1422 1334,-1379 1365,-1411 1441,-1394 1444,-1394 1447,-1393 1450,-1392"/>
<polygon style="fill:black;stroke:black;" points="1451.43,-1395.23 1460,-1389 1449.42,-1388.52 1451.43,-1395.23"/>
<text text-anchor="middle" x="1088" y="-1561.9" style="font-family:Times New Roman;font-size:14.00;">alpha</text>
</g>
<!-- 10&#45;&gt;3 -->
<g id="edge286" class="edge"><title>10&#45;&gt;3</title>
<path style="fill:none;stroke:black;" d="M698,-1523C737,-1491 835,-1414 927,-1367 976,-1342 1103,-1289 1156,-1289 1156,-1289 1156,-1289 1360,-1289 1405,-1289 1442,-1331 1462,-1359"/>
<polygon style="fill:black;stroke:black;" points="1459.2,-1361.1 1468,-1367 1464.8,-1356.9 1459.2,-1361.1"/>
<text text-anchor="middle" x="1088" y="-1313.9" style="font-family:Times New Roman;font-size:14.00;">gamma</text>
</g>
<!-- 10&#45;&gt;4 -->
<g id="edge264" class="edge"><title>10&#45;&gt;4</title>
<path style="fill:none;stroke:black;" d="M685,-1561C692,-1586 704,-1628 723,-1660 740,-1688 757,-1686 773,-1716 788,-1741 768,-1762 791,-1780 809,-1793 820,-1784 841,-1780 850,-1778 851,-1775 859,-1773 919,-1755 934,-1751 995,-1745 1018,-1742 1023,-1743 1045,-1745 1153,-1754 1278,-1781 1332,-1795"/>
<polygon style="fill:black;stroke:black;" points="1331.51,-1798.47 1342,-1797 1332.88,-1791.61 1331.51,-1798.47"/>
<text text-anchor="middle" x="1020" y="-1748.9" style="font-family:Times New Roman;font-size:14.00;">alpha</text>
</g>
<!-- 10&#45;&gt;4 -->
<g id="edge288" class="edge"><title>10&#45;&gt;4</title>
<path style="fill:none;stroke:black;" d="M692,-1558C699,-1570 710,-1583 723,-1591 750,-1606 761,-1600 791,-1603 814,-1604 820,-1606 841,-1603 902,-1593 919,-1554 977,-1575 987,-1578 987,-1583 995,-1589 1055,-1631 1066,-1648 1131,-1681 1210,-1720 1247,-1693 1317,-1745 1329,-1753 1339,-1765 1346,-1776"/>
<polygon style="fill:black;stroke:black;" points="1343.54,-1778.62 1352,-1785 1349.37,-1774.74 1343.54,-1778.62"/>
<text text-anchor="middle" x="1020" y="-1627.9" style="font-family:Times New Roman;font-size:14.00;">gamma</text>
</g>
<!-- 10&#45;&gt;5 -->
<g id="edge266" class="edge"><title>10&#45;&gt;5</title>
<path style="fill:none;stroke:black;" d="M665,-1520C658,-1511 648,-1502 637,-1496 610,-1479 601,-1478 569,-1473 517,-1464 497,-1468 451,-1496 442,-1501 434,-1508 427,-1516"/>
<polygon style="fill:black;stroke:black;" points="424.596,-1513.45 420,-1523 429.546,-1518.4 424.596,-1513.45"/>
<text text-anchor="middle" x="544" y="-1476.9" style="font-family:Times New Roman;font-size:14.00;">alpha</text>
</g>
<!-- 10&#45;&gt;5 -->
<g id="edge290" class="edge"><title>10&#45;&gt;5</title>
<path style="fill:none;stroke:black;" d="M657,-1538C607,-1538 490,-1537 436,-1537"/>
<polygon style="fill:black;stroke:black;" points="436,-1533.5 426,-1537 436,-1540.5 436,-1533.5"/>
<text text-anchor="middle" x="544" y="-1540.9" style="font-family:Times New Roman;font-size:14.00;">gamma</text>
</g>
<!-- 10&#45;&gt;6 -->
<g id="edge268" class="edge"><title>10&#45;&gt;6</title>
<path style="fill:none;stroke:black;" d="M703,-1535C736,-1529 797,-1516 841,-1489 860,-1477 896,-1435 909,-1419 919,-1407 915,-1398 927,-1391 1024,-1330 1097,-1434 1181,-1358 1203,-1338 1216,-1252 1221,-1207"/>
<polygon style="fill:black;stroke:black;" points="1224.49,-1207.3 1222,-1197 1217.52,-1206.6 1224.49,-1207.3"/>
<text text-anchor="middle" x="952" y="-1394.9" style="font-family:Times New Roman;font-size:14.00;">alpha</text>
</g>
<!-- 10&#45;&gt;7 -->
<g id="edge270" class="edge"><title>10&#45;&gt;7</title>
<path style="fill:none;stroke:black;" d="M681,-1561C685,-1601 694,-1684 723,-1749 725,-1751 857,-1926 859,-1929 880,-1950 895,-1947 909,-1973 935,-2018 895,-2048 927,-2089 963,-2133 1004,-2098 1045,-2137 1063,-2153 1074,-2178 1080,-2196"/>
<polygon style="fill:black;stroke:black;" points="1076.77,-2197.43 1083,-2206 1083.48,-2195.42 1076.77,-2197.43"/>
<text text-anchor="middle" x="884" y="-1976.9" style="font-family:Times New Roman;font-size:14.00;">alpha</text>
</g>
<!-- 10&#45;&gt;8 -->
<g id="edge272" class="edge"><title>10&#45;&gt;8</title>
<path style="fill:none;stroke:black;" d="M688,-1516C696,-1493 710,-1455 723,-1423 752,-1350 747,-1325 791,-1262 809,-1237 825,-1241 841,-1216 855,-1196 850,-1187 859,-1166 879,-1121 893,-1114 909,-1069 912,-1061 935,-952 946,-900"/>
<polygon style="fill:black;stroke:black;" points="949.471,-900.492 948,-890 942.607,-899.119 949.471,-900.492"/>
<text text-anchor="middle" x="816" y="-1268.9" style="font-family:Times New Roman;font-size:14.00;">alpha</text>
</g>
<!-- 10&#45;&gt;9 -->
<g id="edge274" class="edge"><title>10&#45;&gt;9</title>
<path style="fill:none;stroke:black;" d="M689,-1559C695,-1573 702,-1592 705,-1610 719,-1677 694,-1858 723,-1921 736,-1947 760,-1939 773,-1966 790,-1998 787,-2091 791,-2127 797,-2178 806,-2236 811,-2271"/>
<polygon style="fill:black;stroke:black;" points="807.607,-2271.88 813,-2281 814.471,-2270.51 807.607,-2271.88"/>
<text text-anchor="middle" x="748" y="-1969.9" style="font-family:Times New Roman;font-size:14.00;">alpha</text>
</g>
<!-- 10&#45;&gt;10 -->
<g id="edge276" class="edge"><title>10&#45;&gt;10</title>
<path style="fill:none;stroke:black;" d="M668,-1558C666,-1569 670,-1579 680,-1579 687,-1579 691,-1574 692,-1568"/>
<polygon style="fill:black;stroke:black;" points="695.5,-1568 692,-1558 688.5,-1568 695.5,-1568"/>
<text text-anchor="middle" x="680" y="-1582.9" style="font-family:Times New Roman;font-size:14.00;">alpha</text>
</g>
<!-- 10&#45;&gt;11 -->
<g id="edge278" class="edge"><title>10&#45;&gt;11</title>
<path style="fill:none;stroke:black;" d="M674,-1515C666,-1488 652,-1439 637,-1400 618,-1350 602,-1342 587,-1291 571,-1230 554,-1040 547,-963"/>
<polygon style="fill:black;stroke:black;" points="550.478,-962.602 546,-953 543.512,-963.299 550.478,-962.602"/>
<text text-anchor="middle" x="612" y="-1403.9" style="font-family:Times New Roman;font-size:14.00;">alpha</text>
</g>
<!-- 10&#45;&gt;12 -->
<g id="edge280" class="edge"><title>10&#45;&gt;12</title>
<path style="fill:none;stroke:black;" d="M663,-1553C615,-1597 477,-1725 383,-1850 362,-1877 314,-1962 288,-2007"/>
<polygon style="fill:black;stroke:black;" points="284.797,-2005.56 283,-2016 290.916,-2008.96 284.797,-2005.56"/>
<text text-anchor="middle" x="476" y="-1770.9" style="font-family:Times New Roman;font-size:14.00;">alpha</text>
</g>
<!-- 11&#45;&gt;1 -->
<g id="edge292" class="edge"><title>11&#45;&gt;1</title>
<path style="fill:none;stroke:black;" d="M527,-915C519,-909 510,-902 501,-898 473,-884 464,-888 433,-882 373,-870 359,-862 297,-856 190,-846 162,-859 55,-874 52,-874 50,-875 47,-875"/>
<polygon style="fill:black;stroke:black;" points="46.1194,-871.607 37,-877 47.4922,-878.471 46.1194,-871.607"/>
<text text-anchor="middle" x="272" y="-860.9" style="font-family:Times New Roman;font-size:14.00;">alpha</text>
</g>
<!-- 11&#45;&gt;1 -->
<g id="edge316" class="edge"><title>11&#45;&gt;1</title>
<path style="fill:none;stroke:black;" d="M532,-910C525,-899 514,-887 501,-879 422,-831 390,-844 297,-833 215,-824 193,-840 111,-855 86,-860 80,-860 55,-867 52,-868 49,-869 45,-870"/>
<polygon style="fill:black;stroke:black;" points="43.7166,-866.74 36,-874 46.5596,-873.137 43.7166,-866.74"/>
<text text-anchor="middle" x="272" y="-837.9" style="font-family:Times New Roman;font-size:14.00;">gamma</text>
</g>
<!-- 11&#45;&gt;2 -->
<g id="edge294" class="edge"><title>11&#45;&gt;2</title>
<path style="fill:none;stroke:black;" d="M521,-932C502,-933 475,-937 451,-944 382,-964 359,-975 315,-1032 225,-1148 218,-1192 179,-1335 149,-1445 140,-1582 137,-1641"/>
<polygon style="fill:black;stroke:black;" points="133.5,-1641 137,-1651 140.5,-1641 133.5,-1641"/>
<text text-anchor="middle" x="340" y="-1035.9" style="font-family:Times New Roman;font-size:14.00;">alpha</text>
</g>
<!-- 11&#45;&gt;2 -->
<g id="edge318" class="edge"><title>11&#45;&gt;2</title>
<path style="fill:none;stroke:black;" d="M521,-926C477,-921 380,-915 315,-958 222,-1019 213,-1063 179,-1170 172,-1192 146,-1538 138,-1641"/>
<polygon style="fill:black;stroke:black;" points="134.512,-1640.7 137,-1651 141.478,-1641.4 134.512,-1640.7"/>
<text text-anchor="middle" x="340" y="-961.9" style="font-family:Times New Roman;font-size:14.00;">gamma</text>
</g>
<!-- 11&#45;&gt;3 -->
<g id="edge296" class="edge"><title>11&#45;&gt;3</title>
<path style="fill:none;stroke:black;" d="M551,-908C557,-888 565,-859 569,-832 584,-751 559,-724 587,-646 670,-421 780,-321 1020,-321 1020,-321 1020,-321 1360,-321 1398,-321 1419,-317 1441,-347 1472,-388 1477,-1193 1477,-1355"/>
<polygon style="fill:black;stroke:black;" points="1473.5,-1355 1477,-1365 1480.5,-1355 1473.5,-1355"/>
<text text-anchor="middle" x="1020" y="-327.9" style="font-family:Times New Roman;font-size:14.00;">alpha</text>
</g>
<!-- 11&#45;&gt;3 -->
<g id="edge320" class="edge"><title>11&#45;&gt;3</title>
<path style="fill:none;stroke:black;" d="M551,-908C556,-888 564,-859 569,-832 582,-768 561,-746 587,-685 602,-653 762,-460 791,-440 907,-367 952,-361 1088,-361 1088,-361 1088,-361 1360,-361 1413,-361 1421,-399 1441,-447 1460,-490 1473,-1202 1477,-1355"/>
<polygon style="fill:black;stroke:black;" points="1473.5,-1355 1477,-1365 1480.5,-1355 1473.5,-1355"/>
<text text-anchor="middle" x="1020" y="-369.9" style="font-family:Times New Roman;font-size:14.00;">gamma</text>
</g>
<!-- 11&#45;&gt;4 -->
<g id="edge298" class="edge"><title>11&#45;&gt;4</title>
<path style="fill:none;stroke:black;" d="M550,-907C559,-868 580,-789 587,-778 609,-748 623,-748 655,-729 887,-601 1050,-512 1249,-685 1358,-780 1298,-859 1317,-1001 1328,-1079 1353,-1640 1359,-1773"/>
<polygon style="fill:black;stroke:black;" points="1355.5,-1773 1359,-1783 1362.5,-1773 1355.5,-1773"/>
<text text-anchor="middle" x="952" y="-609.9" style="font-family:Times New Roman;font-size:14.00;">alpha</text>
</g>
<!-- 11&#45;&gt;4 -->
<g id="edge322" class="edge"><title>11&#45;&gt;4</title>
<path style="fill:none;stroke:black;" d="M567,-932C650,-939 935,-978 1045,-1153 1081,-1208 1028,-1393 1063,-1449 1096,-1499 1135,-1474 1181,-1512 1254,-1569 1272,-1589 1317,-1670 1336,-1703 1348,-1745 1355,-1773"/>
<polygon style="fill:black;stroke:black;" points="1351.61,-1773.88 1357,-1783 1358.47,-1772.51 1351.61,-1773.88"/>
<text text-anchor="middle" x="952" y="-1075.9" style="font-family:Times New Roman;font-size:14.00;">gamma</text>
</g>
<!-- 11&#45;&gt;5 -->
<g id="edge300" class="edge"><title>11&#45;&gt;5</title>
<path style="fill:none;stroke:black;" d="M534,-951C526,-964 515,-980 501,-991 483,-1005 466,-990 451,-1010 434,-1033 436,-1242 433,-1272 426,-1358 416,-1460 411,-1509"/>
<polygon style="fill:black;stroke:black;" points="407.512,-1508.7 410,-1519 414.478,-1509.4 407.512,-1508.7"/>
<text text-anchor="middle" x="476" y="-1015.9" style="font-family:Times New Roman;font-size:14.00;">alpha</text>
</g>
<!-- 11&#45;&gt;5 -->
<g id="edge324" class="edge"><title>11&#45;&gt;5</title>
<path style="fill:none;stroke:black;" d="M538,-952C527,-991 505,-1066 501,-1071 485,-1089 466,-1074 451,-1094 450,-1096 420,-1412 411,-1509"/>
<polygon style="fill:black;stroke:black;" points="407.512,-1508.7 410,-1519 414.478,-1509.4 407.512,-1508.7"/>
<text text-anchor="middle" x="476" y="-1109.9" style="font-family:Times New Roman;font-size:14.00;">gamma</text>
</g>
<!-- 11&#45;&gt;6 -->
<g id="edge302" class="edge"><title>11&#45;&gt;6</title>
<path style="fill:none;stroke:black;" d="M549,-907C555,-886 567,-852 587,-830 679,-728 725,-713 859,-682 881,-678 888,-677 909,-682 942,-690 953,-693 977,-716 1037,-775 1004,-825 1063,-883 1105,-924 1146,-895 1181,-942 1185,-946 1209,-1089 1219,-1151"/>
<polygon style="fill:black;stroke:black;" points="1215.61,-1151.88 1221,-1161 1222.47,-1150.51 1215.61,-1151.88"/>
<text text-anchor="middle" x="884" y="-689.9" style="font-family:Times New Roman;font-size:14.00;">alpha</text>
</g>
<!-- 11&#45;&gt;7 -->
<g id="edge304" class="edge"><title>11&#45;&gt;7</title>
<path style="fill:none;stroke:black;" d="M552,-952C599,-1088 852,-1806 859,-1815 876,-1834 888,-1830 909,-1843 972,-1880 1008,-1872 1045,-1935 1071,-1978 1083,-2132 1086,-2196"/>
<polygon style="fill:black;stroke:black;" points="1082.52,-2196.4 1087,-2206 1089.49,-2195.7 1082.52,-2196.4"/>
<text text-anchor="middle" x="816" y="-1765.9" style="font-family:Times New Roman;font-size:14.00;">alpha</text>
</g>
<!-- 11&#45;&gt;8 -->
<g id="edge306" class="edge"><title>11&#45;&gt;8</title>
<path style="fill:none;stroke:black;" d="M558,-912C566,-903 576,-894 587,-887 642,-855 661,-854 723,-844 796,-833 883,-853 925,-864"/>
<polygon style="fill:black;stroke:black;" points="924.416,-867.479 935,-867 926.427,-860.774 924.416,-867.479"/>
<text text-anchor="middle" x="748" y="-851.9" style="font-family:Times New Roman;font-size:14.00;">alpha</text>
</g>
<!-- 11&#45;&gt;9 -->
<g id="edge308" class="edge"><title>11&#45;&gt;9</title>
<path style="fill:none;stroke:black;" d="M545,-953C548,-1034 562,-1313 587,-1543 610,-1740 599,-1793 655,-1984 671,-2036 686,-2045 705,-2096 715,-2120 707,-2132 723,-2153 740,-2172 757,-2161 773,-2181 796,-2206 806,-2245 812,-2271"/>
<polygon style="fill:black;stroke:black;" points="808.607,-2271.88 814,-2281 815.471,-2270.51 808.607,-2271.88"/>
<text text-anchor="middle" x="680" y="-2099.9" style="font-family:Times New Roman;font-size:14.00;">alpha</text>
</g>
<!-- 11&#45;&gt;10 -->
<g id="edge310" class="edge"><title>11&#45;&gt;10</title>
<path style="fill:none;stroke:black;" d="M546,-953C553,-1009 569,-1151 587,-1196 602,-1231 624,-1230 637,-1266 665,-1337 642,-1362 655,-1438 659,-1461 666,-1487 671,-1506"/>
<polygon style="fill:black;stroke:black;" points="667.774,-1507.43 674,-1516 674.479,-1505.42 667.774,-1507.43"/>
<text text-anchor="middle" x="612" y="-1269.9" style="font-family:Times New Roman;font-size:14.00;">alpha</text>
</g>
<!-- 11&#45;&gt;11 -->
<g id="edge312" class="edge"><title>11&#45;&gt;11</title>
<path style="fill:none;stroke:black;" d="M532,-950C530,-961 534,-971 544,-971 551,-971 555,-966 556,-960"/>
<polygon style="fill:black;stroke:black;" points="559.5,-960 556,-950 552.5,-960 559.5,-960"/>
<text text-anchor="middle" x="544" y="-974.9" style="font-family:Times New Roman;font-size:14.00;">alpha</text>
</g>
<!-- 11&#45;&gt;12 -->
<g id="edge314" class="edge"><title>11&#45;&gt;12</title>
<path style="fill:none;stroke:black;" d="M527,-945C519,-952 510,-960 501,-966 481,-980 466,-973 451,-994 352,-1134 344,-1587 315,-1758 301,-1846 285,-1951 277,-2003"/>
<polygon style="fill:black;stroke:black;" points="273.529,-2002.51 275,-2013 280.393,-2003.88 273.529,-2002.51"/>
<text text-anchor="middle" x="408" y="-1199.9" style="font-family:Times New Roman;font-size:14.00;">alpha</text>
</g>
<!-- 12&#45;&gt;1 -->
<g id="edge326" class="edge"><title>12&#45;&gt;1</title>
<path style="fill:none;stroke:black;" d="M249,-2035C228,-2033 197,-2027 179,-2008 21,-1841 90,-1733 55,-1507 38,-1389 24,-1016 20,-909"/>
<polygon style="fill:black;stroke:black;" points="23.5001,-909 20,-899 16.5001,-909 23.5001,-909"/>
<text text-anchor="middle" x="136" y="-1987.9" style="font-family:Times New Roman;font-size:14.00;">gamma</text>
</g>
<!-- 12&#45;&gt;2 -->
<g id="edge328" class="edge"><title>12&#45;&gt;2</title>
<path style="fill:none;stroke:black;" d="M257,-2018C249,-2009 239,-1999 229,-1991 209,-1974 194,-1982 179,-1961 151,-1918 140,-1761 137,-1697"/>
<polygon style="fill:black;stroke:black;" points="140.5,-1697 137,-1687 133.5,-1697 140.5,-1697"/>
<text text-anchor="middle" x="204" y="-1994.9" style="font-family:Times New Roman;font-size:14.00;">gamma</text>
</g>
<!-- 12&#45;&gt;3 -->
<g id="edge330" class="edge"><title>12&#45;&gt;3</title>
<path style="fill:none;stroke:black;" d="M274,-2059C284,-2146 323,-2459 383,-2536 402,-2558 817,-2776 841,-2792 956,-2866 952,-2976 1088,-2976 1088,-2976 1088,-2976 1360,-2976 1391,-2976 1423,-2927 1441,-2869 1465,-2796 1476,-1610 1477,-1411"/>
<polygon style="fill:black;stroke:black;" points="1480.5,-1411 1477,-1401 1473.5,-1411 1480.5,-1411"/>
<text text-anchor="middle" x="884" y="-2853.9" style="font-family:Times New Roman;font-size:14.00;">gamma</text>
</g>
<!-- 12&#45;&gt;4 -->
<g id="edge332" class="edge"><title>12&#45;&gt;4</title>
<path style="fill:none;stroke:black;" d="M276,-2059C293,-2148 370,-2472 587,-2557 749,-2619 810,-2599 977,-2554 1155,-2505 1233,-2482 1317,-2319 1340,-2275 1355,-1930 1359,-1829"/>
<polygon style="fill:black;stroke:black;" points="1362.5,-1829 1359,-1819 1355.5,-1829 1362.5,-1829"/>
<text text-anchor="middle" x="816" y="-2597.9" style="font-family:Times New Roman;font-size:14.00;">gamma</text>
</g>
<!-- 12&#45;&gt;5 -->
<g id="edge334" class="edge"><title>12&#45;&gt;5</title>
<path style="fill:none;stroke:black;" d="M274,-2013C278,-1978 289,-1910 315,-1859 331,-1827 351,-1829 365,-1798 375,-1777 396,-1629 405,-1565"/>
<polygon style="fill:black;stroke:black;" points="408.488,-1565.3 406,-1555 401.522,-1564.6 408.488,-1565.3"/>
<text text-anchor="middle" x="340" y="-1865.9" style="font-family:Times New Roman;font-size:14.00;">gamma</text>
</g>
</g>
</svg>
