<?xml version="1.0" encoding="UTF-8" standalone="no"?>
<!DOCTYPE svg PUBLIC "-//W3C//DTD SVG 1.0//EN"
 "http://www.w3.org/TR/2001/REC-SVG-20010904/DTD/svg10.dtd" [
 <!ATTLIST svg xmlns:xlink CDATA #FIXED "http://www.w3.org/1999/xlink">
]>
<!-- Generated by Graphviz version 2.20.2 (Tue Mar &#160;2 21:46:26 UTC 2010)
     For user: (mtmoor) Prof. Thomas Moor -->
<!-- Title: Project(observer_verification1) Pages: 1 -->
<svg width="644pt" height="192pt"
 viewBox="0.00 0.00 644.00 192.00" xmlns="http://www.w3.org/2000/svg" xmlns:xlink="http://www.w3.org/1999/xlink">
<g id="graph0" class="graph" transform="scale(1 1) rotate(0) translate(4 188)">
<title>Project(observer_verification1)</title>
<polygon style="fill:none;stroke:none;" points="-4,4 -4,-188 640,-188 640,4 -4,4"/>
<!-- dot_dummyinit_1 -->
<g id="node1" class="node"><title>dot_dummyinit_1</title>
</g>
<!-- 2 -->
<g id="node3" class="node"><title>2</title>
<ellipse style="fill:none;stroke:black;" cx="62" cy="-98" rx="18" ry="18"/>
<ellipse style="fill:none;stroke:black;" cx="62" cy="-98" rx="22" ry="22"/>
<text text-anchor="middle" x="62" y="-93.9" style="font-family:Times New Roman;font-size:14.00;">2</text>
</g>
<!-- dot_dummyinit_1&#45;&gt;2 -->
<g id="edge2" class="edge"><title>dot_dummyinit_1&#45;&gt;2</title>
<path style="fill:none;stroke:black;" d="M2,-98C5,-98 17,-98 30,-98"/>
<polygon style="fill:black;stroke:black;" points="30,-101.5 40,-98 30,-94.5001 30,-101.5"/>
</g>
<!-- 1 -->
<g id="node4" class="node"><title>1</title>
<ellipse style="fill:none;stroke:black;" cx="174" cy="-144" rx="18" ry="18"/>
<text text-anchor="middle" x="174" y="-139.9" style="font-family:Times New Roman;font-size:14.00;">1</text>
</g>
<!-- 2&#45;&gt;1 -->
<g id="edge6" class="edge"><title>2&#45;&gt;1</title>
<path style="fill:none;stroke:black;" d="M83,-106C101,-114 128,-125 148,-133"/>
<polygon style="fill:black;stroke:black;" points="146.44,-136.137 157,-137 149.283,-129.74 146.44,-136.137"/>
<text text-anchor="middle" x="120" y="-130.9" style="font-family:Times New Roman;font-size:14.00;">delta</text>
</g>
<!-- 3 -->
<g id="node5" class="node"><title>3</title>
<ellipse style="fill:none;stroke:black;" cx="284" cy="-144" rx="18" ry="18"/>
<text text-anchor="middle" x="284" y="-139.9" style="font-family:Times New Roman;font-size:14.00;">3</text>
</g>
<!-- 1&#45;&gt;3 -->
<g id="edge4" class="edge"><title>1&#45;&gt;3</title>
<path style="fill:none;stroke:black;" d="M192,-144C209,-144 235,-144 256,-144"/>
<polygon style="fill:black;stroke:black;" points="256,-147.5 266,-144 256,-140.5 256,-147.5"/>
<text text-anchor="middle" x="229" y="-147.9" style="font-family:Times New Roman;font-size:14.00;">alpha</text>
</g>
<!-- 4 -->
<g id="node6" class="node"><title>4</title>
<ellipse style="fill:none;stroke:black;" cx="371" cy="-115" rx="18" ry="18"/>
<text text-anchor="middle" x="371" y="-110.9" style="font-family:Times New Roman;font-size:14.00;">4</text>
</g>
<!-- 3&#45;&gt;4 -->
<g id="edge8" class="edge"><title>3&#45;&gt;4</title>
<path style="fill:none;stroke:black;" d="M301,-138C314,-134 330,-129 344,-124"/>
<polygon style="fill:black;stroke:black;" points="345.427,-127.226 354,-121 343.416,-120.521 345.427,-127.226"/>
<text text-anchor="middle" x="324" y="-134.9" style="font-family:Times New Roman;font-size:14.00;">a</text>
</g>
<!-- 5 -->
<g id="node7" class="node"><title>5</title>
<ellipse style="fill:none;stroke:black;" cx="458" cy="-164" rx="18" ry="18"/>
<text text-anchor="middle" x="458" y="-159.9" style="font-family:Times New Roman;font-size:14.00;">5</text>
</g>
<!-- 3&#45;&gt;5 -->
<g id="edge10" class="edge"><title>3&#45;&gt;5</title>
<path style="fill:none;stroke:black;" d="M302,-149C327,-155 374,-167 414,-171 419,-171 425,-171 430,-170"/>
<polygon style="fill:black;stroke:black;" points="430.398,-173.478 440,-169 429.701,-166.512 430.398,-173.478"/>
<text text-anchor="middle" x="371" y="-171.9" style="font-family:Times New Roman;font-size:14.00;">e</text>
</g>
<!-- 4&#45;&gt;2 -->
<g id="edge12" class="edge"><title>4&#45;&gt;2</title>
<path style="fill:none;stroke:black;" d="M353,-114C303,-111 159,-103 94,-100"/>
<polygon style="fill:black;stroke:black;" points="94.2987,-96.5125 84,-99 93.6021,-103.478 94.2987,-96.5125"/>
<text text-anchor="middle" x="229" y="-110.9" style="font-family:Times New Roman;font-size:14.00;">beta</text>
</g>
<!-- 4&#45;&gt;5 -->
<g id="edge14" class="edge"><title>4&#45;&gt;5</title>
<path style="fill:none;stroke:black;" d="M384,-128C392,-135 403,-144 414,-150 419,-153 425,-155 430,-157"/>
<polygon style="fill:black;stroke:black;" points="429.416,-160.479 440,-160 431.427,-153.774 429.416,-160.479"/>
<text text-anchor="middle" x="418" y="-153.9" style="font-family:Times New Roman;font-size:14.00;">e</text>
</g>
<!-- 6 -->
<g id="node8" class="node"><title>6</title>
<ellipse style="fill:none;stroke:black;" cx="536" cy="-99" rx="18" ry="18"/>
<text text-anchor="middle" x="536" y="-94.9" style="font-family:Times New Roman;font-size:14.00;">6</text>
</g>
<!-- 4&#45;&gt;6 -->
<g id="edge16" class="edge"><title>4&#45;&gt;6</title>
<path style="fill:none;stroke:black;" d="M389,-113C418,-110 474,-105 508,-102"/>
<polygon style="fill:black;stroke:black;" points="508.398,-105.478 518,-101 507.701,-98.5125 508.398,-105.478"/>
<text text-anchor="middle" x="458" y="-110.9" style="font-family:Times New Roman;font-size:14.00;">f</text>
</g>
<!-- 5&#45;&gt;4 -->
<g id="edge20" class="edge"><title>5&#45;&gt;4</title>
<path style="fill:none;stroke:black;" d="M448,-149C441,-141 432,-131 422,-126 415,-122 407,-119 399,-118"/>
<polygon style="fill:black;stroke:black;" points="399.492,-114.529 389,-116 398.119,-121.393 399.492,-114.529"/>
<text text-anchor="middle" x="418" y="-129.9" style="font-family:Times New Roman;font-size:14.00;">g</text>
</g>
<!-- 5&#45;&gt;6 -->
<g id="edge18" class="edge"><title>5&#45;&gt;6</title>
<path style="fill:none;stroke:black;" d="M472,-152C478,-146 487,-139 494,-133 500,-127 508,-122 514,-116"/>
<polygon style="fill:black;stroke:black;" points="516.1,-118.8 522,-110 511.9,-113.2 516.1,-118.8"/>
<text text-anchor="middle" x="497" y="-136.9" style="font-family:Times New Roman;font-size:14.00;">f</text>
</g>
<!-- 7 -->
<g id="node9" class="node"><title>7</title>
<ellipse style="fill:none;stroke:black;" cx="618" cy="-99" rx="18" ry="18"/>
<text text-anchor="middle" x="618" y="-94.9" style="font-family:Times New Roman;font-size:14.00;">7</text>
</g>
<!-- 5&#45;&gt;7 -->
<g id="edge22" class="edge"><title>5&#45;&gt;7</title>
<path style="fill:none;stroke:black;" d="M475,-159C500,-151 546,-137 582,-120 586,-118 590,-116 594,-114"/>
<polygon style="fill:black;stroke:black;" points="595.958,-116.916 603,-109 592.559,-110.797 595.958,-116.916"/>
<text text-anchor="middle" x="536" y="-147.9" style="font-family:Times New Roman;font-size:14.00;">h</text>
</g>
<!-- 6&#45;&gt;4 -->
<g id="edge24" class="edge"><title>6&#45;&gt;4</title>
<path style="fill:none;stroke:black;" d="M519,-92C500,-85 468,-77 440,-83 425,-86 408,-94 395,-100"/>
<polygon style="fill:black;stroke:black;" points="393.042,-97.084 386,-105 396.441,-103.203 393.042,-97.084"/>
<text text-anchor="middle" x="458" y="-86.9" style="font-family:Times New Roman;font-size:14.00;">g</text>
</g>
<!-- 6&#45;&gt;7 -->
<g id="edge26" class="edge"><title>6&#45;&gt;7</title>
<path style="fill:none;stroke:black;" d="M554,-99C564,-99 578,-99 590,-99"/>
<polygon style="fill:black;stroke:black;" points="590,-102.5 600,-99 590,-95.5001 590,-102.5"/>
<text text-anchor="middle" x="577" y="-102.9" style="font-family:Times New Roman;font-size:14.00;">h</text>
</g>
<!-- 7&#45;&gt;2 -->
<g id="edge28" class="edge"><title>7&#45;&gt;2</title>
<path style="fill:none;stroke:black;" d="M613,-82C603,-53 579,-0 536,-0 174,-0 174,-0 174,-0 131,-0 97,-41 78,-70"/>
<polygon style="fill:black;stroke:black;" points="74.7969,-68.5586 73,-79 80.916,-71.9582 74.7969,-68.5586"/>
<text text-anchor="middle" x="371" y="-4.9" style="font-family:Times New Roman;font-size:14.00;">gamma</text>
</g>
</g>
</svg>
