<?xml version="1.0" encoding="UTF-8" standalone="no"?>
<!DOCTYPE svg PUBLIC "-//W3C//DTD SVG 1.0//EN"
 "http://www.w3.org/TR/2001/REC-SVG-20010904/DTD/svg10.dtd" [
 <!ATTLIST svg xmlns:xlink CDATA #FIXED "http://www.w3.org/1999/xlink">
]>
<!-- Generated by Graphviz version 2.20.2 (Tue Mar &#160;2 21:46:26 UTC 2010)
     For user: (mtmoor) Prof. Thomas Moor -->
<!-- Title: observer_verification1 Pages: 1 -->
<svg width="996pt" height="350pt"
 viewBox="0.00 0.00 996.00 350.00" xmlns="http://www.w3.org/2000/svg" xmlns:xlink="http://www.w3.org/1999/xlink">
<g id="graph0" class="graph" transform="scale(1 1) rotate(0) translate(4 346)">
<title>observer_verification1</title>
<polygon style="fill:none;stroke:none;" points="-4,4 -4,-346 992,-346 992,4 -4,4"/>
<!-- dot_dummyinit_1 -->
<g id="node1" class="node"><title>dot_dummyinit_1</title>
</g>
<!-- 1 -->
<g id="node3" class="node"><title>1</title>
<ellipse style="fill:none;stroke:black;" cx="62" cy="-46" rx="18" ry="18"/>
<ellipse style="fill:none;stroke:black;" cx="62" cy="-46" rx="22" ry="22"/>
<text text-anchor="middle" x="62" y="-41.9" style="font-family:Times New Roman;font-size:14.00;">1</text>
</g>
<!-- dot_dummyinit_1&#45;&gt;1 -->
<g id="edge2" class="edge"><title>dot_dummyinit_1&#45;&gt;1</title>
<path style="fill:none;stroke:black;" d="M2,-46C5,-46 17,-46 30,-46"/>
<polygon style="fill:black;stroke:black;" points="30,-49.5001 40,-46 30,-42.5001 30,-49.5001"/>
</g>
<!-- 2 -->
<g id="node4" class="node"><title>2</title>
<ellipse style="fill:none;stroke:black;" cx="174" cy="-97" rx="18" ry="18"/>
<text text-anchor="middle" x="174" y="-92.9" style="font-family:Times New Roman;font-size:14.00;">2</text>
</g>
<!-- 1&#45;&gt;2 -->
<g id="edge4" class="edge"><title>1&#45;&gt;2</title>
<path style="fill:none;stroke:black;" d="M82,-55C100,-64 128,-76 148,-85"/>
<polygon style="fill:black;stroke:black;" points="146.44,-88.1369 157,-89 149.283,-81.7402 146.44,-88.1369"/>
<text text-anchor="middle" x="120" y="-81.9" style="font-family:Times New Roman;font-size:14.00;">delta</text>
</g>
<!-- 3 -->
<g id="node5" class="node"><title>3</title>
<ellipse style="fill:none;stroke:black;" cx="254" cy="-151" rx="18" ry="18"/>
<text text-anchor="middle" x="254" y="-146.9" style="font-family:Times New Roman;font-size:14.00;">3</text>
</g>
<!-- 2&#45;&gt;3 -->
<g id="edge8" class="edge"><title>2&#45;&gt;3</title>
<path style="fill:none;stroke:black;" d="M189,-107C200,-115 217,-126 231,-135"/>
<polygon style="fill:black;stroke:black;" points="228.9,-137.8 239,-141 233.1,-132.2 228.9,-137.8"/>
<text text-anchor="middle" x="214" y="-128.9" style="font-family:Times New Roman;font-size:14.00;">c</text>
</g>
<!-- 4 -->
<g id="node6" class="node"><title>4</title>
<ellipse style="fill:none;stroke:black;" cx="254" cy="-97" rx="18" ry="18"/>
<text text-anchor="middle" x="254" y="-92.9" style="font-family:Times New Roman;font-size:14.00;">4</text>
</g>
<!-- 2&#45;&gt;4 -->
<g id="edge6" class="edge"><title>2&#45;&gt;4</title>
<path style="fill:none;stroke:black;" d="M192,-97C202,-97 215,-97 226,-97"/>
<polygon style="fill:black;stroke:black;" points="226,-100.5 236,-97 226,-93.5001 226,-100.5"/>
<text text-anchor="middle" x="214" y="-100.9" style="font-family:Times New Roman;font-size:14.00;">b</text>
</g>
<!-- 5 -->
<g id="node7" class="node"><title>5</title>
<ellipse style="fill:none;stroke:black;" cx="334" cy="-151" rx="18" ry="18"/>
<text text-anchor="middle" x="334" y="-146.9" style="font-family:Times New Roman;font-size:14.00;">5</text>
</g>
<!-- 3&#45;&gt;5 -->
<g id="edge10" class="edge"><title>3&#45;&gt;5</title>
<path style="fill:none;stroke:black;" d="M272,-151C282,-151 295,-151 306,-151"/>
<polygon style="fill:black;stroke:black;" points="306,-154.5 316,-151 306,-147.5 306,-154.5"/>
<text text-anchor="middle" x="294" y="-154.9" style="font-family:Times New Roman;font-size:14.00;">i</text>
</g>
<!-- 4&#45;&gt;5 -->
<g id="edge12" class="edge"><title>4&#45;&gt;5</title>
<path style="fill:none;stroke:black;" d="M269,-107C280,-115 297,-126 311,-135"/>
<polygon style="fill:black;stroke:black;" points="308.9,-137.8 319,-141 313.1,-132.2 308.9,-137.8"/>
<text text-anchor="middle" x="294" y="-128.9" style="font-family:Times New Roman;font-size:14.00;">b</text>
</g>
<!-- 6 -->
<g id="node8" class="node"><title>6</title>
<ellipse style="fill:none;stroke:black;" cx="444" cy="-168" rx="18" ry="18"/>
<text text-anchor="middle" x="444" y="-163.9" style="font-family:Times New Roman;font-size:14.00;">6</text>
</g>
<!-- 5&#45;&gt;6 -->
<g id="edge14" class="edge"><title>5&#45;&gt;6</title>
<path style="fill:none;stroke:black;" d="M352,-154C369,-157 396,-161 416,-164"/>
<polygon style="fill:black;stroke:black;" points="415.701,-167.488 426,-165 416.398,-160.522 415.701,-167.488"/>
<text text-anchor="middle" x="389" y="-164.9" style="font-family:Times New Roman;font-size:14.00;">alpha</text>
</g>
<!-- 7 -->
<g id="node9" class="node"><title>7</title>
<ellipse style="fill:none;stroke:black;" cx="531" cy="-168" rx="18" ry="18"/>
<text text-anchor="middle" x="531" y="-163.9" style="font-family:Times New Roman;font-size:14.00;">7</text>
</g>
<!-- 6&#45;&gt;7 -->
<g id="edge16" class="edge"><title>6&#45;&gt;7</title>
<path style="fill:none;stroke:black;" d="M462,-168C474,-168 489,-168 503,-168"/>
<polygon style="fill:black;stroke:black;" points="503,-171.5 513,-168 503,-164.5 503,-171.5"/>
<text text-anchor="middle" x="484" y="-171.9" style="font-family:Times New Roman;font-size:14.00;">a</text>
</g>
<!-- 9 -->
<g id="node11" class="node"><title>9</title>
<ellipse style="fill:none;stroke:black;" cx="618" cy="-280" rx="18" ry="18"/>
<text text-anchor="middle" x="618" y="-275.9" style="font-family:Times New Roman;font-size:14.00;">9</text>
</g>
<!-- 6&#45;&gt;9 -->
<g id="edge18" class="edge"><title>6&#45;&gt;9</title>
<path style="fill:none;stroke:black;" d="M458,-179C482,-197 531,-233 574,-259 580,-262 586,-265 592,-268"/>
<polygon style="fill:black;stroke:black;" points="590.44,-271.137 601,-272 593.283,-264.74 590.44,-271.137"/>
<text text-anchor="middle" x="531" y="-248.9" style="font-family:Times New Roman;font-size:14.00;">e</text>
</g>
<!-- 8 -->
<g id="node10" class="node"><title>8</title>
<ellipse style="fill:none;stroke:black;" cx="788" cy="-124" rx="18" ry="18"/>
<text text-anchor="middle" x="788" y="-119.9" style="font-family:Times New Roman;font-size:14.00;">8</text>
</g>
<!-- 7&#45;&gt;8 -->
<g id="edge20" class="edge"><title>7&#45;&gt;8</title>
<path style="fill:none;stroke:black;" d="M549,-163C556,-161 566,-158 574,-157 641,-143 719,-133 760,-127"/>
<polygon style="fill:black;stroke:black;" points="760.398,-130.478 770,-126 759.701,-123.512 760.398,-130.478"/>
<text text-anchor="middle" x="658" y="-144.9" style="font-family:Times New Roman;font-size:14.00;">b</text>
</g>
<!-- 7&#45;&gt;9 -->
<g id="edge24" class="edge"><title>7&#45;&gt;9</title>
<path style="fill:none;stroke:black;" d="M541,-183C549,-197 562,-216 574,-232 582,-241 590,-251 598,-260"/>
<polygon style="fill:black;stroke:black;" points="595.454,-262.404 605,-267 600.404,-257.454 595.454,-262.404"/>
<text text-anchor="middle" x="578" y="-241.9" style="font-family:Times New Roman;font-size:14.00;">e</text>
</g>
<!-- 10 -->
<g id="node12" class="node"><title>10</title>
<ellipse style="fill:none;stroke:black;" cx="703" cy="-195" rx="23.1233" ry="23.1233"/>
<text text-anchor="middle" x="703" y="-190.9" style="font-family:Times New Roman;font-size:14.00;">10</text>
</g>
<!-- 7&#45;&gt;10 -->
<g id="edge22" class="edge"><title>7&#45;&gt;10</title>
<path style="fill:none;stroke:black;" d="M548,-174C556,-176 566,-179 574,-182 586,-185 589,-187 600,-189 623,-192 650,-194 670,-195"/>
<polygon style="fill:black;stroke:black;" points="670,-198.5 680,-195 670,-191.5 670,-198.5"/>
<text text-anchor="middle" x="618" y="-194.9" style="font-family:Times New Roman;font-size:14.00;">c</text>
</g>
<!-- 8&#45;&gt;1 -->
<g id="edge26" class="edge"><title>8&#45;&gt;1</title>
<path style="fill:none;stroke:black;" d="M780,-108C767,-85 740,-46 703,-46 174,-46 174,-46 174,-46 147,-46 117,-46 94,-46"/>
<polygon style="fill:black;stroke:black;" points="94,-42.5001 84,-46 94,-49.5001 94,-42.5001"/>
<text text-anchor="middle" x="444" y="-49.9" style="font-family:Times New Roman;font-size:14.00;">beta</text>
</g>
<!-- 8&#45;&gt;7 -->
<g id="edge28" class="edge"><title>8&#45;&gt;7</title>
<path style="fill:none;stroke:black;" d="M770,-121C744,-117 695,-111 654,-119 619,-125 580,-142 556,-154"/>
<polygon style="fill:black;stroke:black;" points="554.042,-151.084 547,-159 557.441,-157.203 554.042,-151.084"/>
<text text-anchor="middle" x="658" y="-122.9" style="font-family:Times New Roman;font-size:14.00;">c</text>
</g>
<!-- 11 -->
<g id="node13" class="node"><title>11</title>
<ellipse style="fill:none;stroke:black;" cx="873" cy="-164" rx="23.1233" ry="23.1233"/>
<text text-anchor="middle" x="873" y="-159.9" style="font-family:Times New Roman;font-size:14.00;">11</text>
</g>
<!-- 8&#45;&gt;11 -->
<g id="edge30" class="edge"><title>8&#45;&gt;11</title>
<path style="fill:none;stroke:black;" d="M804,-132C810,-135 817,-139 824,-142 830,-145 836,-148 842,-150"/>
<polygon style="fill:black;stroke:black;" points="841.415,-153.536 852,-154 844.015,-147.036 841.415,-153.536"/>
<text text-anchor="middle" x="828" y="-145.9" style="font-family:Times New Roman;font-size:14.00;">f</text>
</g>
<!-- 9&#45;&gt;10 -->
<g id="edge34" class="edge"><title>9&#45;&gt;10</title>
<path style="fill:none;stroke:black;" d="M631,-267C644,-254 664,-234 680,-218"/>
<polygon style="fill:black;stroke:black;" points="682.404,-220.546 687,-211 677.454,-215.596 682.404,-220.546"/>
<text text-anchor="middle" x="658" y="-247.9" style="font-family:Times New Roman;font-size:14.00;">g</text>
</g>
<!-- 9&#45;&gt;11 -->
<g id="edge32" class="edge"><title>9&#45;&gt;11</title>
<path style="fill:none;stroke:black;" d="M635,-274C644,-272 653,-268 662,-265 729,-237 803,-200 844,-180"/>
<polygon style="fill:black;stroke:black;" points="845.958,-182.916 853,-175 842.559,-176.797 845.958,-182.916"/>
<text text-anchor="middle" x="748" y="-230.9" style="font-family:Times New Roman;font-size:14.00;">f</text>
</g>
<!-- 12 -->
<g id="node14" class="node"><title>12</title>
<ellipse style="fill:none;stroke:black;" cx="965" cy="-164" rx="23.1233" ry="23.1233"/>
<text text-anchor="middle" x="965" y="-159.9" style="font-family:Times New Roman;font-size:14.00;">12</text>
</g>
<!-- 9&#45;&gt;12 -->
<g id="edge36" class="edge"><title>9&#45;&gt;12</title>
<path style="fill:none;stroke:black;" d="M631,-292C647,-306 675,-326 703,-326 703,-326 703,-326 873,-326 932,-326 954,-245 962,-197"/>
<polygon style="fill:black;stroke:black;" points="965.488,-197.299 963,-187 958.522,-196.602 965.488,-197.299"/>
<text text-anchor="middle" x="788" y="-329.9" style="font-family:Times New Roman;font-size:14.00;">h</text>
</g>
<!-- 10&#45;&gt;7 -->
<g id="edge38" class="edge"><title>10&#45;&gt;7</title>
<path style="fill:none;stroke:black;" d="M683,-183C670,-176 653,-168 636,-165 610,-159 580,-161 559,-164"/>
<polygon style="fill:black;stroke:black;" points="558.602,-160.522 549,-165 559.299,-167.488 558.602,-160.522"/>
<text text-anchor="middle" x="618" y="-168.9" style="font-family:Times New Roman;font-size:14.00;">b</text>
</g>
<!-- 10&#45;&gt;8 -->
<g id="edge40" class="edge"><title>10&#45;&gt;8</title>
<path style="fill:none;stroke:black;" d="M721,-180C734,-169 752,-154 766,-142"/>
<polygon style="fill:black;stroke:black;" points="768.1,-144.8 774,-136 763.9,-139.2 768.1,-144.8"/>
<text text-anchor="middle" x="748" y="-163.9" style="font-family:Times New Roman;font-size:14.00;">d</text>
</g>
<!-- 11&#45;&gt;8 -->
<g id="edge42" class="edge"><title>11&#45;&gt;8</title>
<path style="fill:none;stroke:black;" d="M861,-144C854,-134 844,-123 832,-118 827,-116 821,-115 815,-115"/>
<polygon style="fill:black;stroke:black;" points="814.119,-111.607 805,-117 815.492,-118.471 814.119,-111.607"/>
<text text-anchor="middle" x="828" y="-121.9" style="font-family:Times New Roman;font-size:14.00;">g</text>
</g>
<!-- 11&#45;&gt;12 -->
<g id="edge44" class="edge"><title>11&#45;&gt;12</title>
<path style="fill:none;stroke:black;" d="M896,-164C907,-164 920,-164 932,-164"/>
<polygon style="fill:black;stroke:black;" points="932,-167.5 942,-164 932,-160.5 932,-167.5"/>
<text text-anchor="middle" x="919" y="-167.9" style="font-family:Times New Roman;font-size:14.00;">h</text>
</g>
<!-- 12&#45;&gt;1 -->
<g id="edge46" class="edge"><title>12&#45;&gt;1</title>
<path style="fill:none;stroke:black;" d="M963,-141C957,-96 937,-1 873,-0 174,-0 174,-0 174,-0 143,-0 111,-15 89,-28"/>
<polygon style="fill:black;stroke:black;" points="87.0418,-25.084 80,-33 90.4414,-31.2031 87.0418,-25.084"/>
<text text-anchor="middle" x="531" y="-4.9" style="font-family:Times New Roman;font-size:14.00;">gamma</text>
</g>
</g>
</svg>
