<?xml version="1.0" encoding="UTF-8" standalone="no"?>
<!DOCTYPE svg PUBLIC "-//W3C//DTD SVG 1.0//EN"
 "http://www.w3.org/TR/2001/REC-SVG-20010904/DTD/svg10.dtd" [
 <!ATTLIST svg xmlns:xlink CDATA #FIXED "http://www.w3.org/1999/xlink">
]>
<!-- Generated by Graphviz version 2.20.2 (Tue Mar &#160;2 21:46:26 UTC 2010)
     For user: (mtmoor) Prof. Thomas Moor -->
<!-- Title: Project(observer_verification1) Pages: 1 -->
<svg width="404pt" height="124pt"
 viewBox="0.00 0.00 404.00 124.00" xmlns="http://www.w3.org/2000/svg" xmlns:xlink="http://www.w3.org/1999/xlink">
<g id="graph0" class="graph" transform="scale(1 1) rotate(0) translate(4 120)">
<title>Project(observer_verification1)</title>
<polygon style="fill:none;stroke:none;" points="-4,4 -4,-120 400,-120 400,4 -4,4"/>
<!-- dot_dummyinit_1 -->
<g id="node1" class="node"><title>dot_dummyinit_1</title>
</g>
<!-- 2 -->
<g id="node3" class="node"><title>2</title>
<ellipse style="fill:none;stroke:black;" cx="62" cy="-45" rx="18" ry="18"/>
<ellipse style="fill:none;stroke:black;" cx="62" cy="-45" rx="22" ry="22"/>
<text text-anchor="middle" x="62" y="-40.9" style="font-family:Times New Roman;font-size:14.00;">2</text>
</g>
<!-- dot_dummyinit_1&#45;&gt;2 -->
<g id="edge2" class="edge"><title>dot_dummyinit_1&#45;&gt;2</title>
<path style="fill:none;stroke:black;" d="M2,-45C5,-45 17,-45 30,-45"/>
<polygon style="fill:black;stroke:black;" points="30,-48.5001 40,-45 30,-41.5001 30,-48.5001"/>
</g>
<!-- 1 -->
<g id="node4" class="node"><title>1</title>
<ellipse style="fill:none;stroke:black;" cx="174" cy="-98" rx="18" ry="18"/>
<text text-anchor="middle" x="174" y="-93.9" style="font-family:Times New Roman;font-size:14.00;">1</text>
</g>
<!-- 2&#45;&gt;1 -->
<g id="edge6" class="edge"><title>2&#45;&gt;1</title>
<path style="fill:none;stroke:black;" d="M82,-54C100,-63 128,-77 148,-86"/>
<polygon style="fill:black;stroke:black;" points="146.44,-89.1369 157,-90 149.283,-82.7402 146.44,-89.1369"/>
<text text-anchor="middle" x="120" y="-81.9" style="font-family:Times New Roman;font-size:14.00;">delta</text>
</g>
<!-- 3 -->
<g id="node5" class="node"><title>3</title>
<ellipse style="fill:none;stroke:black;" cx="296" cy="-45" rx="18" ry="18"/>
<text text-anchor="middle" x="296" y="-40.9" style="font-family:Times New Roman;font-size:14.00;">3</text>
</g>
<!-- 1&#45;&gt;3 -->
<g id="edge4" class="edge"><title>1&#45;&gt;3</title>
<path style="fill:none;stroke:black;" d="M191,-91C211,-82 246,-67 270,-56"/>
<polygon style="fill:black;stroke:black;" points="271.283,-59.2598 279,-52 268.44,-52.8631 271.283,-59.2598"/>
<text text-anchor="middle" x="235" y="-84.9" style="font-family:Times New Roman;font-size:14.00;">alpha</text>
</g>
<!-- 3&#45;&gt;2 -->
<g id="edge8" class="edge"><title>3&#45;&gt;2</title>
<path style="fill:none;stroke:black;" d="M278,-45C238,-45 144,-45 94,-45"/>
<polygon style="fill:black;stroke:black;" points="94,-41.5001 84,-45 94,-48.5001 94,-41.5001"/>
<text text-anchor="middle" x="174" y="-48.9" style="font-family:Times New Roman;font-size:14.00;">beta</text>
</g>
<!-- 4 -->
<g id="node6" class="node"><title>4</title>
<ellipse style="fill:none;stroke:black;" cx="378" cy="-18" rx="18" ry="18"/>
<text text-anchor="middle" x="378" y="-13.9" style="font-family:Times New Roman;font-size:14.00;">4</text>
</g>
<!-- 3&#45;&gt;4 -->
<g id="edge10" class="edge"><title>3&#45;&gt;4</title>
<path style="fill:none;stroke:black;" d="M313,-39C324,-35 339,-30 351,-26"/>
<polygon style="fill:black;stroke:black;" points="352.427,-29.2259 361,-23 350.416,-22.5212 352.427,-29.2259"/>
<text text-anchor="middle" x="337" y="-35.9" style="font-family:Times New Roman;font-size:14.00;">h</text>
</g>
<!-- 4&#45;&gt;2 -->
<g id="edge12" class="edge"><title>4&#45;&gt;2</title>
<path style="fill:none;stroke:black;" d="M360,-18C340,-18 307,-17 278,-18 213,-21 136,-32 94,-39"/>
<polygon style="fill:black;stroke:black;" points="93.1194,-35.6067 84,-41 94.4922,-42.4708 93.1194,-35.6067"/>
<text text-anchor="middle" x="235" y="-25.9" style="font-family:Times New Roman;font-size:14.00;">gamma</text>
</g>
</g>
</svg>
