<?xml version="1.0" encoding="UTF-8" standalone="no"?>
<!DOCTYPE svg PUBLIC "-//W3C//DTD SVG 1.0//EN"
 "http://www.w3.org/TR/2001/REC-SVG-20010904/DTD/svg10.dtd" [
 <!ATTLIST svg xmlns:xlink CDATA #FIXED "http://www.w3.org/1999/xlink">
]>
<!-- Generated by Graphviz version 2.20.2 (Tue Mar &#160;2 21:46:26 UTC 2010)
     For user: (mtmoor) Prof. Thomas Moor -->
<!-- Title: Generator Pages: 1 -->
<svg width="1585pt" height="3436pt"
 viewBox="0.00 0.00 1585.00 3436.00" xmlns="http://www.w3.org/2000/svg" xmlns:xlink="http://www.w3.org/1999/xlink">
<g id="graph0" class="graph" transform="scale(1 1) rotate(0) translate(4 3432)">
<title>Generator</title>
<polygon style="fill:none;stroke:none;" points="-4,4 -4,-3432 1581,-3432 1581,4 -4,4"/>
<!-- 1 -->
<g id="node1" class="node"><title>1</title>
<ellipse style="fill:none;stroke:black;" cx="40" cy="-1084" rx="18" ry="18"/>
<text text-anchor="middle" x="40" y="-1079.9" style="font-family:Times New Roman;font-size:14.00;">1</text>
</g>
<!-- 1&#45;&gt;1 -->
<g id="edge2" class="edge"><title>1&#45;&gt;1</title>
<path style="fill:none;stroke:black;" d="M36,-1102C35,-1111 36,-1120 40,-1120 42,-1120 44,-1117 44,-1112"/>
<polygon style="fill:black;stroke:black;" points="47.5001,-1112 44,-1102 40.5001,-1112 47.5001,-1112"/>
<text text-anchor="middle" x="40" y="-1124.9" style="font-family:Times New Roman;font-size:14.00;">alpha</text>
</g>
<!-- 1&#45;&gt;1 -->
<g id="edge26" class="edge"><title>1&#45;&gt;1</title>
<path style="fill:none;stroke:black;" d="M24,-1093C-3,-1111 2,-1138 40,-1138 74,-1138 81,-1117 64,-1100"/>
<polygon style="fill:black;stroke:black;" points="65.8306,-1096.95 56,-1093 61.221,-1102.22 65.8306,-1096.95"/>
<text text-anchor="middle" x="40" y="-1142.9" style="font-family:Times New Roman;font-size:14.00;">obsLabel</text>
</g>
<!-- 2 -->
<g id="node2" class="node"><title>2</title>
<ellipse style="fill:none;stroke:black;" cx="157" cy="-1961" rx="18" ry="18"/>
<text text-anchor="middle" x="157" y="-1956.9" style="font-family:Times New Roman;font-size:14.00;">2</text>
</g>
<!-- 1&#45;&gt;2 -->
<g id="edge4" class="edge"><title>1&#45;&gt;2</title>
<path style="fill:none;stroke:black;" d="M40,-1102C42,-1220 55,-1873 76,-1909 87,-1925 98,-1921 114,-1932 121,-1936 127,-1941 134,-1945"/>
<polygon style="fill:black;stroke:black;" points="131.665,-1947.67 142,-1950 135.375,-1941.73 131.665,-1947.67"/>
<text text-anchor="middle" x="95" y="-1935.9" style="font-family:Times New Roman;font-size:14.00;">alpha</text>
</g>
<!-- 3 -->
<g id="node3" class="node"><title>3</title>
<ellipse style="fill:none;stroke:black;" cx="1558" cy="-2368" rx="18" ry="18"/>
<text text-anchor="middle" x="1558" y="-2363.9" style="font-family:Times New Roman;font-size:14.00;">3</text>
</g>
<!-- 1&#45;&gt;3 -->
<g id="edge6" class="edge"><title>1&#45;&gt;3</title>
<path style="fill:none;stroke:black;" d="M40,-1102C42,-1318 58,-3361 76,-3386 99,-3416 120,-3412 157,-3412 157,-3412 157,-3412 1441,-3412 1479,-3412 1500,-3416 1522,-3386 1553,-3345 1558,-2557 1558,-2396"/>
<polygon style="fill:black;stroke:black;" points="1561.5,-2396 1558,-2386 1554.5,-2396 1561.5,-2396"/>
<text text-anchor="middle" x="829" y="-3415.9" style="font-family:Times New Roman;font-size:14.00;">alpha</text>
</g>
<!-- 4 -->
<g id="node4" class="node"><title>4</title>
<ellipse style="fill:none;stroke:black;" cx="1441" cy="-1978" rx="18" ry="18"/>
<text text-anchor="middle" x="1441" y="-1973.9" style="font-family:Times New Roman;font-size:14.00;">4</text>
</g>
<!-- 1&#45;&gt;4 -->
<g id="edge8" class="edge"><title>1&#45;&gt;4</title>
<path style="fill:none;stroke:black;" d="M40,-1102C40,-1311 45,-3239 76,-3288 98,-3321 118,-3327 157,-3327 157,-3327 157,-3327 829,-3327 1161,-3327 1282,-3155 1398,-2845 1423,-2779 1412,-2288 1416,-2219 1422,-2141 1432,-2051 1438,-2006"/>
<polygon style="fill:black;stroke:black;" points="1441.49,-2006.3 1439,-1996 1434.52,-2005.6 1441.49,-2006.3"/>
<text text-anchor="middle" x="761" y="-3330.9" style="font-family:Times New Roman;font-size:14.00;">alpha</text>
</g>
<!-- 5 -->
<g id="node5" class="node"><title>5</title>
<ellipse style="fill:none;stroke:black;" cx="454" cy="-1632" rx="18" ry="18"/>
<text text-anchor="middle" x="454" y="-1627.9" style="font-family:Times New Roman;font-size:14.00;">5</text>
</g>
<!-- 1&#45;&gt;5 -->
<g id="edge10" class="edge"><title>1&#45;&gt;5</title>
<path style="fill:none;stroke:black;" d="M54,-1095C90,-1125 186,-1205 250,-1286 337,-1397 414,-1547 442,-1607"/>
<polygon style="fill:black;stroke:black;" points="438.74,-1608.28 446,-1616 445.137,-1605.44 438.74,-1608.28"/>
<text text-anchor="middle" x="225" y="-1290.9" style="font-family:Times New Roman;font-size:14.00;">alpha</text>
</g>
<!-- 6 -->
<g id="node6" class="node"><title>6</title>
<ellipse style="fill:none;stroke:black;" cx="1305" cy="-2116" rx="18" ry="18"/>
<text text-anchor="middle" x="1305" y="-2111.9" style="font-family:Times New Roman;font-size:14.00;">6</text>
</g>
<!-- 1&#45;&gt;6 -->
<g id="edge12" class="edge"><title>1&#45;&gt;6</title>
<path style="fill:none;stroke:black;" d="M40,-1102C41,-1303 52,-3106 76,-3155 97,-3195 112,-3217 157,-3217 157,-3217 157,-3217 376,-3217 662,-3217 761,-3199 990,-3031 1066,-2975 1072,-2946 1144,-2886 1166,-2868 1179,-2872 1194,-2849 1199,-2842 1261,-2569 1262,-2561 1289,-2404 1300,-2215 1303,-2144"/>
<polygon style="fill:black;stroke:black;" points="1306.49,-2144.3 1304,-2134 1299.52,-2143.6 1306.49,-2144.3"/>
<text text-anchor="middle" x="688" y="-3200.9" style="font-family:Times New Roman;font-size:14.00;">alpha</text>
</g>
<!-- 7 -->
<g id="node7" class="node"><title>7</title>
<ellipse style="fill:none;stroke:black;" cx="1169" cy="-1371" rx="18" ry="18"/>
<text text-anchor="middle" x="1169" y="-1366.9" style="font-family:Times New Roman;font-size:14.00;">7</text>
</g>
<!-- 1&#45;&gt;7 -->
<g id="edge14" class="edge"><title>1&#45;&gt;7</title>
<path style="fill:none;stroke:black;" d="M40,-1066C42,-938 50,-182 76,-142 98,-109 118,-103 157,-103 157,-103 157,-103 965,-103 1030,-103 1034,-154 1058,-213 1067,-233 1125,-953 1126,-974 1136,-1092 1130,-1122 1144,-1238 1149,-1275 1157,-1316 1163,-1343"/>
<polygon style="fill:black;stroke:black;" points="1159.61,-1343.88 1165,-1353 1166.47,-1342.51 1159.61,-1343.88"/>
<text text-anchor="middle" x="610" y="-107.9" style="font-family:Times New Roman;font-size:14.00;">alpha</text>
</g>
<!-- 8 -->
<g id="node8" class="node"><title>8</title>
<ellipse style="fill:none;stroke:black;" cx="1033" cy="-780" rx="18" ry="18"/>
<text text-anchor="middle" x="1033" y="-775.9" style="font-family:Times New Roman;font-size:14.00;">8</text>
</g>
<!-- 1&#45;&gt;8 -->
<g id="edge16" class="edge"><title>1&#45;&gt;8</title>
<path style="fill:none;stroke:black;" d="M40,-1066C42,-985 50,-655 76,-555 98,-475 74,-386 157,-386 157,-386 157,-386 454,-386 704,-386 824,-366 990,-551 1016,-581 1028,-697 1031,-752"/>
<polygon style="fill:black;stroke:black;" points="1027.52,-752.398 1032,-762 1034.49,-751.701 1027.52,-752.398"/>
<text text-anchor="middle" x="532" y="-390.9" style="font-family:Times New Roman;font-size:14.00;">alpha</text>
</g>
<!-- 9 -->
<g id="node9" class="node"><title>9</title>
<ellipse style="fill:none;stroke:black;" cx="897" cy="-1060" rx="18" ry="18"/>
<text text-anchor="middle" x="897" y="-1055.9" style="font-family:Times New Roman;font-size:14.00;">9</text>
</g>
<!-- 1&#45;&gt;9 -->
<g id="edge18" class="edge"><title>1&#45;&gt;9</title>
<path style="fill:none;stroke:black;" d="M42,-1066C46,-1017 59,-883 76,-842 100,-790 100,-741 157,-741 157,-741 157,-741 454,-741 645,-741 741,-742 854,-894 871,-916 885,-991 892,-1032"/>
<polygon style="fill:black;stroke:black;" points="888.607,-1032.88 894,-1042 895.471,-1031.51 888.607,-1032.88"/>
<text text-anchor="middle" x="454" y="-745.9" style="font-family:Times New Roman;font-size:14.00;">alpha</text>
</g>
<!-- 10 -->
<g id="node10" class="node"><title>10</title>
<ellipse style="fill:none;stroke:black;" cx="761" cy="-2421" rx="23.1233" ry="23.1233"/>
<text text-anchor="middle" x="761" y="-2416.9" style="font-family:Times New Roman;font-size:14.00;">10</text>
</g>
<!-- 1&#45;&gt;10 -->
<g id="edge20" class="edge"><title>1&#45;&gt;10</title>
<path style="fill:none;stroke:black;" d="M40,-1102C41,-1278 46,-2673 76,-2703 206,-2830 330,-2789 484,-2694 496,-2686 492,-2677 502,-2668 525,-2649 537,-2655 562,-2640 571,-2634 572,-2630 580,-2626 638,-2594 674,-2625 718,-2578 727,-2569 744,-2496 754,-2454"/>
<polygon style="fill:black;stroke:black;" points="757.471,-2454.49 756,-2444 750.607,-2453.12 757.471,-2454.49"/>
<text text-anchor="middle" x="376" y="-2766.9" style="font-family:Times New Roman;font-size:14.00;">alpha</text>
</g>
<!-- 11 -->
<g id="node11" class="node"><title>11</title>
<ellipse style="fill:none;stroke:black;" cx="610" cy="-1077" rx="23.1233" ry="23.1233"/>
<text text-anchor="middle" x="610" y="-1072.9" style="font-family:Times New Roman;font-size:14.00;">11</text>
</g>
<!-- 1&#45;&gt;11 -->
<g id="edge22" class="edge"><title>1&#45;&gt;11</title>
<path style="fill:none;stroke:black;" d="M41,-1066C45,-1013 66,-862 157,-862 157,-862 157,-862 376,-862 441,-862 445,-905 502,-934 529,-948 542,-941 562,-962 584,-985 597,-1019 604,-1044"/>
<polygon style="fill:black;stroke:black;" points="600.607,-1044.88 606,-1054 607.471,-1043.51 600.607,-1044.88"/>
<text text-anchor="middle" x="298" y="-866.9" style="font-family:Times New Roman;font-size:14.00;">alpha</text>
</g>
<!-- 12 -->
<g id="node12" class="node"><title>12</title>
<ellipse style="fill:none;stroke:black;" cx="298" cy="-2022" rx="23.1233" ry="23.1233"/>
<text text-anchor="middle" x="298" y="-2017.9" style="font-family:Times New Roman;font-size:14.00;">12</text>
</g>
<!-- 1&#45;&gt;12 -->
<g id="edge24" class="edge"><title>1&#45;&gt;12</title>
<path style="fill:none;stroke:black;" d="M45,-1101C75,-1214 248,-1839 289,-1989"/>
<polygon style="fill:black;stroke:black;" points="285.774,-1990.43 292,-1999 292.479,-1988.42 285.774,-1990.43"/>
<text text-anchor="middle" x="157" y="-1586.9" style="font-family:Times New Roman;font-size:14.00;">alpha</text>
</g>
<!-- 2&#45;&gt;1 -->
<g id="edge28" class="edge"><title>2&#45;&gt;1</title>
<path style="fill:none;stroke:black;" d="M139,-1964C120,-1966 92,-1966 76,-1949 48,-1917 41,-1259 40,-1112"/>
<polygon style="fill:black;stroke:black;" points="43.5001,-1112 40,-1102 36.5001,-1112 43.5001,-1112"/>
<text text-anchor="middle" x="95" y="-1966.9" style="font-family:Times New Roman;font-size:14.00;">alpha</text>
</g>
<!-- 2&#45;&gt;2 -->
<g id="edge30" class="edge"><title>2&#45;&gt;2</title>
<path style="fill:none;stroke:black;" d="M147,-1976C144,-1987 147,-1997 157,-1997 164,-1997 167,-1992 168,-1986"/>
<polygon style="fill:black;stroke:black;" points="171.478,-1985.6 167,-1976 164.512,-1986.3 171.478,-1985.6"/>
<text text-anchor="middle" x="157" y="-2000.9" style="font-family:Times New Roman;font-size:14.00;">alpha</text>
</g>
<!-- 2&#45;&gt;3 -->
<g id="edge32" class="edge"><title>2&#45;&gt;3</title>
<path style="fill:none;stroke:black;" d="M166,-1977C172,-1989 179,-2006 182,-2022 203,-2121 170,-2842 200,-2940 311,-3288 600,-3244 965,-3244 965,-3244 965,-3244 1441,-3244 1481,-3244 1501,-3238 1522,-3205 1545,-3171 1555,-2538 1558,-2396"/>
<polygon style="fill:black;stroke:black;" points="1561.5,-2396 1558,-2386 1554.5,-2396 1561.5,-2396"/>
<text text-anchor="middle" x="897" y="-3247.9" style="font-family:Times New Roman;font-size:14.00;">alpha</text>
</g>
<!-- 2&#45;&gt;4 -->
<g id="edge34" class="edge"><title>2&#45;&gt;4</title>
<path style="fill:none;stroke:black;" d="M165,-1977C171,-1989 179,-2006 182,-2022 198,-2096 172,-2633 200,-2704 251,-2829 327,-2818 406,-2928 416,-2941 413,-2948 424,-2960 519,-3047 863,-3107 990,-3088 1084,-3073 1124,-3088 1194,-3025 1204,-3016 1274,-2827 1280,-2817 1322,-2753 1369,-2763 1398,-2693 1419,-2644 1413,-2271 1416,-2219 1422,-2141 1432,-2051 1438,-2006"/>
<polygon style="fill:black;stroke:black;" points="1441.49,-2006.3 1439,-1996 1434.52,-2005.6 1441.49,-2006.3"/>
<text text-anchor="middle" x="829" y="-3089.9" style="font-family:Times New Roman;font-size:14.00;">alpha</text>
</g>
<!-- 2&#45;&gt;5 -->
<g id="edge36" class="edge"><title>2&#45;&gt;5</title>
<path style="fill:none;stroke:black;" d="M168,-1946C173,-1939 179,-1929 182,-1919 199,-1867 168,-1720 200,-1677 253,-1607 372,-1617 426,-1626"/>
<polygon style="fill:black;stroke:black;" points="425.508,-1629.47 436,-1628 426.881,-1622.61 425.508,-1629.47"/>
<text text-anchor="middle" x="298" y="-1633.9" style="font-family:Times New Roman;font-size:14.00;">alpha</text>
</g>
<!-- 2&#45;&gt;6 -->
<g id="edge38" class="edge"><title>2&#45;&gt;6</title>
<path style="fill:none;stroke:black;" d="M165,-1977C171,-1989 179,-2006 182,-2022 194,-2077 170,-2484 200,-2532 219,-2560 236,-2555 268,-2566 459,-2626 529,-2629 718,-2564 804,-2534 800,-2485 872,-2432 1031,-2314 1133,-2369 1262,-2221 1282,-2199 1294,-2166 1300,-2144"/>
<polygon style="fill:black;stroke:black;" points="1303.47,-2144.49 1302,-2134 1296.61,-2143.12 1303.47,-2144.49"/>
<text text-anchor="middle" x="761" y="-2558.9" style="font-family:Times New Roman;font-size:14.00;">alpha</text>
</g>
<!-- 2&#45;&gt;7 -->
<g id="edge40" class="edge"><title>2&#45;&gt;7</title>
<path style="fill:none;stroke:black;" d="M165,-1977C171,-1989 179,-2006 182,-2022 194,-2074 171,-2460 200,-2505 263,-2601 611,-2569 718,-2527 751,-2514 764,-2514 786,-2488 847,-2414 826,-2376 854,-2286 863,-2259 860,-2251 872,-2227 958,-2052 1059,-2053 1126,-1871 1159,-1783 1166,-1491 1169,-1399"/>
<polygon style="fill:black;stroke:black;" points="1172.5,-1399 1169,-1389 1165.5,-1399 1172.5,-1399"/>
<text text-anchor="middle" x="688" y="-2546.9" style="font-family:Times New Roman;font-size:14.00;">alpha</text>
</g>
<!-- 2&#45;&gt;8 -->
<g id="edge42" class="edge"><title>2&#45;&gt;8</title>
<path style="fill:none;stroke:black;" d="M159,-1943C163,-1890 175,-1733 182,-1604 184,-1573 185,-1084 200,-1058 214,-1037 237,-1052 250,-1030 302,-950 219,-898 268,-816 294,-775 611,-620 658,-606 692,-597 702,-600 736,-598 849,-593 902,-528 990,-598 1014,-617 1026,-706 1031,-752"/>
<polygon style="fill:black;stroke:black;" points="1027.52,-752.398 1032,-762 1034.49,-751.701 1027.52,-752.398"/>
<text text-anchor="middle" x="610" y="-645.9" style="font-family:Times New Roman;font-size:14.00;">alpha</text>
</g>
<!-- 2&#45;&gt;9 -->
<g id="edge44" class="edge"><title>2&#45;&gt;9</title>
<path style="fill:none;stroke:black;" d="M158,-1943C162,-1883 176,-1691 200,-1635 280,-1445 394,-1454 484,-1269 499,-1240 478,-1220 502,-1198 575,-1133 623,-1186 718,-1166 780,-1154 804,-1169 854,-1131 870,-1120 880,-1102 887,-1087"/>
<polygon style="fill:black;stroke:black;" points="890.536,-1087.58 891,-1077 884.036,-1084.98 890.536,-1087.58"/>
<text text-anchor="middle" x="532" y="-1205.9" style="font-family:Times New Roman;font-size:14.00;">alpha</text>
</g>
<!-- 2&#45;&gt;10 -->
<g id="edge46" class="edge"><title>2&#45;&gt;10</title>
<path style="fill:none;stroke:black;" d="M165,-1977C171,-1989 179,-2006 182,-2022 188,-2046 183,-2463 200,-2482 281,-2564 620,-2561 718,-2502 736,-2491 746,-2471 753,-2454"/>
<polygon style="fill:black;stroke:black;" points="756.479,-2454.58 756,-2444 749.774,-2452.57 756.479,-2454.58"/>
<text text-anchor="middle" x="454" y="-2547.9" style="font-family:Times New Roman;font-size:14.00;">alpha</text>
</g>
<!-- 2&#45;&gt;11 -->
<g id="edge48" class="edge"><title>2&#45;&gt;11</title>
<path style="fill:none;stroke:black;" d="M158,-1943C163,-1890 175,-1733 182,-1604 185,-1558 177,-1237 200,-1198 214,-1177 230,-1185 250,-1170 288,-1144 294,-1134 328,-1103 337,-1096 337,-1091 346,-1087 423,-1056 525,-1065 577,-1072"/>
<polygon style="fill:black;stroke:black;" points="576.701,-1075.49 587,-1073 577.398,-1068.52 576.701,-1075.49"/>
<text text-anchor="middle" x="376" y="-1094.9" style="font-family:Times New Roman;font-size:14.00;">alpha</text>
</g>
<!-- 2&#45;&gt;12 -->
<g id="edge50" class="edge"><title>2&#45;&gt;12</title>
<path style="fill:none;stroke:black;" d="M171,-1973C179,-1980 189,-1989 200,-1994 221,-2004 246,-2011 265,-2016"/>
<polygon style="fill:black;stroke:black;" points="264.508,-2019.47 275,-2018 265.881,-2012.61 264.508,-2019.47"/>
<text text-anchor="middle" x="225" y="-2013.9" style="font-family:Times New Roman;font-size:14.00;">alpha</text>
</g>
<!-- 3&#45;&gt;1 -->
<g id="edge52" class="edge"><title>3&#45;&gt;1</title>
<path style="fill:none;stroke:black;" d="M1558,-2386C1556,-2503 1547,-3150 1522,-3235 1502,-3302 1512,-3372 1441,-3372 157,-3372 157,-3372 157,-3372 113,-3372 97,-3353 76,-3314 50,-3263 41,-1369 40,-1112"/>
<polygon style="fill:black;stroke:black;" points="43.5001,-1112 40,-1102 36.5001,-1112 43.5001,-1112"/>
<text text-anchor="middle" x="829" y="-3375.9" style="font-family:Times New Roman;font-size:14.00;">alpha</text>
</g>
<!-- 3&#45;&gt;2 -->
<g id="edge54" class="edge"><title>3&#45;&gt;2</title>
<path style="fill:none;stroke:black;" d="M1558,-2386C1556,-2490 1544,-3012 1522,-3080 1503,-3141 1474,-3191 1441,-3191 965,-3191 965,-3191 965,-3191 573,-3191 331,-3120 200,-2751 173,-2674 199,-2101 182,-2022 180,-2010 174,-1997 169,-1986"/>
<polygon style="fill:black;stroke:black;" points="172.26,-1984.72 165,-1977 165.863,-1987.56 172.26,-1984.72"/>
<text text-anchor="middle" x="897" y="-3192.9" style="font-family:Times New Roman;font-size:14.00;">alpha</text>
</g>
<!-- 3&#45;&gt;3 -->
<g id="edge56" class="edge"><title>3&#45;&gt;3</title>
<path style="fill:none;stroke:black;" d="M1549,-2384C1547,-2394 1550,-2404 1558,-2404 1563,-2404 1566,-2400 1567,-2394"/>
<polygon style="fill:black;stroke:black;" points="1570.5,-2394 1567,-2384 1563.5,-2394 1570.5,-2394"/>
<text text-anchor="middle" x="1558" y="-2407.9" style="font-family:Times New Roman;font-size:14.00;">alpha</text>
</g>
<!-- 3&#45;&gt;4 -->
<g id="edge58" class="edge"><title>3&#45;&gt;4</title>
<path style="fill:none;stroke:black;" d="M1553,-2351C1534,-2289 1472,-2080 1449,-2005"/>
<polygon style="fill:black;stroke:black;" points="1452.23,-2003.57 1446,-1995 1445.52,-2005.58 1452.23,-2003.57"/>
<text text-anchor="middle" x="1503" y="-2244.9" style="font-family:Times New Roman;font-size:14.00;">alpha</text>
</g>
<!-- 3&#45;&gt;5 -->
<g id="edge60" class="edge"><title>3&#45;&gt;5</title>
<path style="fill:none;stroke:black;" d="M1557,-2386C1555,-2413 1547,-2465 1522,-2500 1505,-2523 1495,-2527 1466,-2536 1264,-2595 1193,-2512 1008,-2410 904,-2351 889,-2318 804,-2234 786,-2215 514,-1909 502,-1886 483,-1846 464,-1717 457,-1660"/>
<polygon style="fill:black;stroke:black;" points="460.478,-1659.6 456,-1650 453.512,-1660.3 460.478,-1659.6"/>
<text text-anchor="middle" x="1033" y="-2439.9" style="font-family:Times New Roman;font-size:14.00;">alpha</text>
</g>
<!-- 3&#45;&gt;6 -->
<g id="edge62" class="edge"><title>3&#45;&gt;6</title>
<path style="fill:none;stroke:black;" d="M1555,-2386C1551,-2404 1542,-2431 1522,-2446 1460,-2491 1404,-2499 1348,-2446 1327,-2425 1312,-2221 1307,-2144"/>
<polygon style="fill:black;stroke:black;" points="1310.48,-2143.6 1306,-2134 1303.51,-2144.3 1310.48,-2143.6"/>
<text text-anchor="middle" x="1441" y="-2485.9" style="font-family:Times New Roman;font-size:14.00;">alpha</text>
</g>
<!-- 3&#45;&gt;7 -->
<g id="edge64" class="edge"><title>3&#45;&gt;7</title>
<path style="fill:none;stroke:black;" d="M1557,-2350C1547,-2216 1482,-1388 1398,-1318 1335,-1265 1289,-1306 1212,-1338 1204,-1342 1197,-1347 1190,-1352"/>
<polygon style="fill:black;stroke:black;" points="1187.9,-1349.2 1182,-1358 1192.1,-1354.8 1187.9,-1349.2"/>
<text text-anchor="middle" x="1373" y="-1322.9" style="font-family:Times New Roman;font-size:14.00;">alpha</text>
</g>
<!-- 3&#45;&gt;8 -->
<g id="edge66" class="edge"><title>3&#45;&gt;8</title>
<path style="fill:none;stroke:black;" d="M1558,-2350C1557,-2170 1546,-717 1522,-679 1501,-646 1481,-640 1441,-640 1169,-640 1169,-640 1169,-640 1125,-640 1108,-648 1076,-679 1056,-700 1045,-730 1039,-752"/>
<polygon style="fill:black;stroke:black;" points="1035.52,-751.416 1036,-762 1042.23,-753.427 1035.52,-751.416"/>
<text text-anchor="middle" x="1305" y="-644.9" style="font-family:Times New Roman;font-size:14.00;">alpha</text>
</g>
<!-- 3&#45;&gt;9 -->
<g id="edge68" class="edge"><title>3&#45;&gt;9</title>
<path style="fill:none;stroke:black;" d="M1558,-2350C1557,-2182 1549,-907 1522,-878 1475,-828 1316,-837 1212,-853 1118,-869 1088,-868 1008,-920 964,-950 928,-1004 910,-1035"/>
<polygon style="fill:black;stroke:black;" points="906.797,-1033.56 905,-1044 912.916,-1036.96 906.797,-1033.56"/>
<text text-anchor="middle" x="1237" y="-860.9" style="font-family:Times New Roman;font-size:14.00;">alpha</text>
</g>
<!-- 3&#45;&gt;10 -->
<g id="edge70" class="edge"><title>3&#45;&gt;10</title>
<path style="fill:none;stroke:black;" d="M1558,-2386C1557,-2466 1553,-2777 1522,-2807 1464,-2861 859,-2824 804,-2766 799,-2759 774,-2539 765,-2454"/>
<polygon style="fill:black;stroke:black;" points="768.478,-2453.6 764,-2444 761.512,-2454.3 768.478,-2453.6"/>
<text text-anchor="middle" x="1169" y="-2831.9" style="font-family:Times New Roman;font-size:14.00;">alpha</text>
</g>
<!-- 3&#45;&gt;11 -->
<g id="edge72" class="edge"><title>3&#45;&gt;11</title>
<path style="fill:none;stroke:black;" d="M1558,-2350C1557,-2177 1547,-820 1522,-642 1503,-502 1582,-333 1441,-333 1169,-333 1169,-333 1169,-333 868,-333 805,-516 658,-779 633,-825 619,-976 613,-1044"/>
<polygon style="fill:black;stroke:black;" points="609.512,-1043.7 612,-1054 616.478,-1044.4 609.512,-1043.7"/>
<text text-anchor="middle" x="1101" y="-345.9" style="font-family:Times New Roman;font-size:14.00;">alpha</text>
</g>
<!-- 3&#45;&gt;12 -->
<g id="edge74" class="edge"><title>3&#45;&gt;12</title>
<path style="fill:none;stroke:black;" d="M1557,-2386C1554,-2482 1539,-2933 1522,-2994 1502,-3070 1521,-3153 1441,-3153 1237,-3153 1237,-3153 1237,-3153 1120,-3153 1110,-3081 1008,-3023 978,-3005 970,-3002 940,-2983 870,-2937 861,-2911 786,-2874 733,-2846 713,-2855 658,-2831 586,-2798 561,-2797 502,-2743 457,-2700 368,-2568 346,-2510 316,-2425 303,-2151 299,-2055"/>
<polygon style="fill:black;stroke:black;" points="302.5,-2055 299,-2045 295.5,-2055 302.5,-2055"/>
<text text-anchor="middle" x="965" y="-3013.9" style="font-family:Times New Roman;font-size:14.00;">alpha</text>
</g>
<!-- 4&#45;&gt;1 -->
<g id="edge76" class="edge"><title>4&#45;&gt;1</title>
<path style="fill:none;stroke:black;" d="M1439,-1996C1434,-2036 1422,-2135 1416,-2219 1413,-2276 1416,-2682 1398,-2738 1373,-2818 1251,-2994 1194,-3056 1143,-3112 994,-3239 922,-3265 825,-3300 793,-3274 688,-3274 157,-3274 157,-3274 157,-3274 104,-3274 96,-3234 76,-3184 56,-3133 42,-1361 40,-1112"/>
<polygon style="fill:black;stroke:black;" points="43.5001,-1112 40,-1102 36.5001,-1112 43.5001,-1112"/>
<text text-anchor="middle" x="761" y="-3282.9" style="font-family:Times New Roman;font-size:14.00;">alpha</text>
</g>
<!-- 4&#45;&gt;2 -->
<g id="edge78" class="edge"><title>4&#45;&gt;2</title>
<path style="fill:none;stroke:black;" d="M1439,-1996C1434,-2036 1423,-2135 1416,-2219 1410,-2300 1424,-2508 1398,-2586 1398,-2587 1195,-2885 1194,-2886 1118,-2951 1088,-2960 990,-2983 846,-3015 801,-3010 658,-2972 583,-2951 572,-2926 502,-2889 336,-2798 263,-2767 200,-2589 159,-2470 209,-2145 182,-2022 180,-2010 174,-1997 169,-1986"/>
<polygon style="fill:black;stroke:black;" points="172.26,-1984.72 165,-1977 165.863,-1987.56 172.26,-1984.72"/>
<text text-anchor="middle" x="829" y="-3006.9" style="font-family:Times New Roman;font-size:14.00;">alpha</text>
</g>
<!-- 4&#45;&gt;3 -->
<g id="edge80" class="edge"><title>4&#45;&gt;3</title>
<path style="fill:none;stroke:black;" d="M1453,-1992C1471,-2014 1506,-2059 1522,-2104 1538,-2146 1550,-2281 1556,-2340"/>
<polygon style="fill:black;stroke:black;" points="1552.52,-2340.4 1557,-2350 1559.49,-2339.7 1552.52,-2340.4"/>
<text text-anchor="middle" x="1503" y="-2107.9" style="font-family:Times New Roman;font-size:14.00;">alpha</text>
</g>
<!-- 4&#45;&gt;4 -->
<g id="edge82" class="edge"><title>4&#45;&gt;4</title>
<path style="fill:none;stroke:black;" d="M1431,-1993C1428,-2004 1431,-2014 1441,-2014 1448,-2014 1451,-2009 1452,-2003"/>
<polygon style="fill:black;stroke:black;" points="1455.48,-2002.6 1451,-1993 1448.51,-2003.3 1455.48,-2002.6"/>
<text text-anchor="middle" x="1441" y="-2017.9" style="font-family:Times New Roman;font-size:14.00;">alpha</text>
</g>
<!-- 4&#45;&gt;5 -->
<g id="edge84" class="edge"><title>4&#45;&gt;5</title>
<path style="fill:none;stroke:black;" d="M1428,-1965C1420,-1958 1409,-1950 1398,-1945 1322,-1906 1294,-1919 1212,-1894 924,-1804 577,-1677 481,-1642"/>
<polygon style="fill:black;stroke:black;" points="481.585,-1638.46 471,-1638 478.985,-1644.96 481.585,-1638.46"/>
<text text-anchor="middle" x="965" y="-1822.9" style="font-family:Times New Roman;font-size:14.00;">alpha</text>
</g>
<!-- 4&#45;&gt;6 -->
<g id="edge86" class="edge"><title>4&#45;&gt;6</title>
<path style="fill:none;stroke:black;" d="M1423,-1982C1403,-1988 1370,-1999 1348,-2021 1330,-2039 1319,-2067 1312,-2088"/>
<polygon style="fill:black;stroke:black;" points="1308.52,-2087.42 1309,-2098 1315.23,-2089.43 1308.52,-2087.42"/>
<text text-anchor="middle" x="1373" y="-2024.9" style="font-family:Times New Roman;font-size:14.00;">alpha</text>
</g>
<!-- 4&#45;&gt;7 -->
<g id="edge88" class="edge"><title>4&#45;&gt;7</title>
<path style="fill:none;stroke:black;" d="M1441,-1960C1440,-1868 1433,-1454 1398,-1410 1351,-1349 1247,-1357 1197,-1365"/>
<polygon style="fill:black;stroke:black;" points="1196.12,-1361.61 1187,-1367 1197.49,-1368.47 1196.12,-1361.61"/>
<text text-anchor="middle" x="1305" y="-1372.9" style="font-family:Times New Roman;font-size:14.00;">alpha</text>
</g>
<!-- 4&#45;&gt;8 -->
<g id="edge90" class="edge"><title>4&#45;&gt;8</title>
<path style="fill:none;stroke:black;" d="M1441,-1960C1438,-1831 1424,-1060 1398,-1017 1363,-956 1325,-967 1262,-933 1241,-922 1230,-928 1212,-910 1199,-896 1207,-885 1194,-869 1171,-841 1159,-840 1126,-821 1105,-809 1078,-798 1059,-790"/>
<polygon style="fill:black;stroke:black;" points="1060.56,-786.863 1050,-786 1057.72,-793.26 1060.56,-786.863"/>
<text text-anchor="middle" x="1237" y="-937.9" style="font-family:Times New Roman;font-size:14.00;">alpha</text>
</g>
<!-- 4&#45;&gt;9 -->
<g id="edge92" class="edge"><title>4&#45;&gt;9</title>
<path style="fill:none;stroke:black;" d="M1441,-1960C1438,-1846 1422,-1233 1398,-1201 1360,-1149 1323,-1173 1262,-1150 1202,-1128 1189,-1116 1126,-1100 1046,-1080 1022,-1090 940,-1072 935,-1071 929,-1069 924,-1068"/>
<polygon style="fill:black;stroke:black;" points="924.584,-1064.52 914,-1065 922.573,-1071.23 924.584,-1064.52"/>
<text text-anchor="middle" x="1169" y="-1127.9" style="font-family:Times New Roman;font-size:14.00;">alpha</text>
</g>
<!-- 4&#45;&gt;10 -->
<g id="edge94" class="edge"><title>4&#45;&gt;10</title>
<path style="fill:none;stroke:black;" d="M1439,-1996C1434,-2036 1423,-2135 1416,-2219 1414,-2254 1415,-2509 1398,-2541 1363,-2609 1332,-2615 1262,-2649 1080,-2738 956,-2800 804,-2665 773,-2638 764,-2514 762,-2454"/>
<polygon style="fill:black;stroke:black;" points="765.5,-2454 762,-2444 758.5,-2454 765.5,-2454"/>
<text text-anchor="middle" x="1101" y="-2731.9" style="font-family:Times New Roman;font-size:14.00;">alpha</text>
</g>
<!-- 4&#45;&gt;11 -->
<g id="edge96" class="edge"><title>4&#45;&gt;11</title>
<path style="fill:none;stroke:black;" d="M1440,-1960C1438,-1882 1426,-1576 1398,-1545 1309,-1444 898,-1507 804,-1410 774,-1379 810,-1350 786,-1312 749,-1254 700,-1279 658,-1223 633,-1190 621,-1142 615,-1110"/>
<polygon style="fill:black;stroke:black;" points="618.393,-1109.12 613,-1100 611.529,-1110.49 618.393,-1109.12"/>
<text text-anchor="middle" x="1033" y="-1474.9" style="font-family:Times New Roman;font-size:14.00;">alpha</text>
</g>
<!-- 4&#45;&gt;12 -->
<g id="edge98" class="edge"><title>4&#45;&gt;12</title>
<path style="fill:none;stroke:black;" d="M1439,-1996C1432,-2070 1404,-2339 1398,-2346 1342,-2415 980,-2557 872,-2498 832,-2475 808,-2321 761,-2321 454,-2321 454,-2321 454,-2321 336,-2321 307,-2133 300,-2055"/>
<polygon style="fill:black;stroke:black;" points="303.478,-2054.6 299,-2045 296.512,-2055.3 303.478,-2054.6"/>
<text text-anchor="middle" x="897" y="-2513.9" style="font-family:Times New Roman;font-size:14.00;">alpha</text>
</g>
<!-- 5&#45;&gt;1 -->
<g id="edge100" class="edge"><title>5&#45;&gt;1</title>
<path style="fill:none;stroke:black;" d="M452,-1614C447,-1577 434,-1491 406,-1424 360,-1315 337,-1288 250,-1206 197,-1156 181,-1143 114,-1109 100,-1102 82,-1096 68,-1092"/>
<polygon style="fill:black;stroke:black;" points="68.584,-1088.52 58,-1089 66.5725,-1095.23 68.584,-1088.52"/>
<text text-anchor="middle" x="225" y="-1210.9" style="font-family:Times New Roman;font-size:14.00;">alpha</text>
</g>
<!-- 5&#45;&gt;2 -->
<g id="edge102" class="edge"><title>5&#45;&gt;2</title>
<path style="fill:none;stroke:black;" d="M436,-1633C388,-1636 260,-1651 200,-1729 175,-1762 196,-1878 182,-1919 180,-1925 177,-1932 174,-1937"/>
<polygon style="fill:black;stroke:black;" points="170.635,-1935.74 168,-1946 176.459,-1939.62 170.635,-1935.74"/>
<text text-anchor="middle" x="298" y="-1676.9" style="font-family:Times New Roman;font-size:14.00;">alpha</text>
</g>
<!-- 5&#45;&gt;3 -->
<g id="edge104" class="edge"><title>5&#45;&gt;3</title>
<path style="fill:none;stroke:black;" d="M455,-1650C457,-1698 467,-1828 502,-1930 549,-2061 576,-2089 658,-2202 682,-2233 695,-2235 718,-2267 759,-2321 825,-2482 872,-2531 960,-2621 1002,-2675 1126,-2657 1310,-2630 1406,-2673 1522,-2529 1539,-2509 1549,-2436 1555,-2396"/>
<polygon style="fill:black;stroke:black;" points="1558.49,-2396.3 1556,-2386 1551.52,-2395.6 1558.49,-2396.3"/>
<text text-anchor="middle" x="1033" y="-2661.9" style="font-family:Times New Roman;font-size:14.00;">alpha</text>
</g>
<!-- 5&#45;&gt;4 -->
<g id="edge106" class="edge"><title>5&#45;&gt;4</title>
<path style="fill:none;stroke:black;" d="M467,-1645C477,-1653 490,-1664 502,-1672 680,-1785 785,-1731 922,-1891 937,-1907 923,-1923 940,-1937 979,-1965 1312,-1975 1413,-1978"/>
<polygon style="fill:black;stroke:black;" points="1413,-1981.5 1423,-1978 1413,-1974.5 1413,-1981.5"/>
<text text-anchor="middle" x="965" y="-1953.9" style="font-family:Times New Roman;font-size:14.00;">alpha</text>
</g>
<!-- 5&#45;&gt;5 -->
<g id="edge108" class="edge"><title>5&#45;&gt;5</title>
<path style="fill:none;stroke:black;" d="M442,-1646C437,-1657 441,-1668 454,-1668 463,-1668 468,-1663 468,-1656"/>
<polygon style="fill:black;stroke:black;" points="471.393,-1655.12 466,-1646 464.529,-1656.49 471.393,-1655.12"/>
<text text-anchor="middle" x="454" y="-1671.9" style="font-family:Times New Roman;font-size:14.00;">alpha</text>
</g>
<!-- 5&#45;&gt;6 -->
<g id="edge110" class="edge"><title>5&#45;&gt;6</title>
<path style="fill:none;stroke:black;" d="M457,-1650C462,-1680 476,-1740 502,-1785 553,-1869 582,-1880 658,-1944 683,-1964 695,-1961 718,-1984 728,-1993 725,-2000 736,-2008 938,-2134 1032,-2044 1262,-2102 1267,-2103 1273,-2105 1278,-2107"/>
<polygon style="fill:black;stroke:black;" points="1277.42,-2110.48 1288,-2110 1279.43,-2103.77 1277.42,-2110.48"/>
<text text-anchor="middle" x="897" y="-2078.9" style="font-family:Times New Roman;font-size:14.00;">alpha</text>
</g>
<!-- 5&#45;&gt;7 -->
<g id="edge112" class="edge"><title>5&#45;&gt;7</title>
<path style="fill:none;stroke:black;" d="M472,-1633C523,-1636 670,-1642 786,-1613 916,-1580 944,-1555 1058,-1487 1091,-1467 1100,-1462 1126,-1435 1137,-1424 1148,-1409 1156,-1396"/>
<polygon style="fill:black;stroke:black;" points="1159.2,-1397.44 1161,-1387 1153.08,-1394.04 1159.2,-1397.44"/>
<text text-anchor="middle" x="829" y="-1610.9" style="font-family:Times New Roman;font-size:14.00;">alpha</text>
</g>
<!-- 5&#45;&gt;8 -->
<g id="edge114" class="edge"><title>5&#45;&gt;8</title>
<path style="fill:none;stroke:black;" d="M455,-1614C459,-1581 469,-1511 502,-1464 514,-1446 786,-1253 804,-1243 854,-1218 889,-1247 922,-1202 960,-1153 920,-984 940,-925 953,-889 970,-887 990,-854 1001,-838 1011,-819 1019,-805"/>
<polygon style="fill:black;stroke:black;" points="1022.2,-806.441 1024,-796 1016.08,-803.042 1022.2,-806.441"/>
<text text-anchor="middle" x="761" y="-1295.9" style="font-family:Times New Roman;font-size:14.00;">alpha</text>
</g>
<!-- 5&#45;&gt;9 -->
<g id="edge116" class="edge"><title>5&#45;&gt;9</title>
<path style="fill:none;stroke:black;" d="M456,-1614C460,-1564 475,-1427 502,-1392 521,-1369 542,-1386 562,-1364 594,-1332 626,-1220 640,-1177 651,-1146 634,-1128 658,-1105 691,-1076 812,-1085 854,-1074 859,-1073 865,-1071 870,-1069"/>
<polygon style="fill:black;stroke:black;" points="871.427,-1072.23 880,-1066 869.416,-1065.52 871.427,-1072.23"/>
<text text-anchor="middle" x="688" y="-1112.9" style="font-family:Times New Roman;font-size:14.00;">alpha</text>
</g>
<!-- 5&#45;&gt;10 -->
<g id="edge118" class="edge"><title>5&#45;&gt;10</title>
<path style="fill:none;stroke:black;" d="M454,-1650C457,-1745 470,-2183 502,-2234 562,-2326 639,-2277 718,-2353 730,-2364 740,-2378 747,-2391"/>
<polygon style="fill:black;stroke:black;" points="744.084,-2392.96 752,-2400 750.203,-2389.56 744.084,-2392.96"/>
<text text-anchor="middle" x="610" y="-2309.9" style="font-family:Times New Roman;font-size:14.00;">alpha</text>
</g>
<!-- 5&#45;&gt;11 -->
<g id="edge120" class="edge"><title>5&#45;&gt;11</title>
<path style="fill:none;stroke:black;" d="M455,-1614C460,-1541 480,-1272 502,-1242 520,-1220 543,-1241 562,-1219 584,-1196 570,-1180 580,-1149 585,-1135 591,-1120 597,-1107"/>
<polygon style="fill:black;stroke:black;" points="600.137,-1108.56 601,-1098 593.74,-1105.72 600.137,-1108.56"/>
<text text-anchor="middle" x="532" y="-1249.9" style="font-family:Times New Roman;font-size:14.00;">alpha</text>
</g>
<!-- 5&#45;&gt;12 -->
<g id="edge122" class="edge"><title>5&#45;&gt;12</title>
<path style="fill:none;stroke:black;" d="M453,-1650C449,-1685 438,-1762 406,-1819 388,-1852 366,-1847 346,-1880 325,-1914 312,-1959 305,-1989"/>
<polygon style="fill:black;stroke:black;" points="301.529,-1988.51 303,-1999 308.393,-1989.88 301.529,-1988.51"/>
<text text-anchor="middle" x="376" y="-1886.9" style="font-family:Times New Roman;font-size:14.00;">alpha</text>
</g>
<!-- 6&#45;&gt;1 -->
<g id="edge124" class="edge"><title>6&#45;&gt;1</title>
<path style="fill:none;stroke:black;" d="M1304,-2134C1300,-2210 1285,-2499 1262,-2533 1249,-2554 1230,-2542 1212,-2561 1151,-2627 1175,-2669 1126,-2747 927,-3066 753,-3141 376,-3141 157,-3141 157,-3141 157,-3141 112,-3141 97,-3119 76,-3079 53,-3033 41,-1352 40,-1112"/>
<polygon style="fill:black;stroke:black;" points="43.5001,-1112 40,-1102 36.5001,-1112 43.5001,-1112"/>
<text text-anchor="middle" x="688" y="-3120.9" style="font-family:Times New Roman;font-size:14.00;">alpha</text>
</g>
<!-- 6&#45;&gt;1 -->
<g id="edge148" class="edge"><title>6&#45;&gt;1</title>
<path style="fill:none;stroke:black;" d="M1304,-2134C1302,-2198 1293,-2412 1262,-2472 1230,-2534 1177,-2515 1144,-2578 1115,-2635 1163,-2668 1126,-2722 1112,-2743 1095,-2733 1076,-2750 1038,-2784 1034,-2799 1008,-2845 999,-2862 1004,-2871 990,-2886 914,-2964 642,-3065 532,-3065 157,-3065 157,-3065 157,-3065 112,-3065 97,-3043 76,-3003 53,-2959 41,-1347 40,-1112"/>
<polygon style="fill:black;stroke:black;" points="43.5001,-1112 40,-1102 36.5001,-1112 43.5001,-1112"/>
<text text-anchor="middle" x="688" y="-3045.9" style="font-family:Times New Roman;font-size:14.00;">gamma</text>
</g>
<!-- 6&#45;&gt;1 -->
<g id="edge158" class="edge"><title>6&#45;&gt;1</title>
<path style="fill:none;stroke:black;" d="M1303,-2134C1298,-2184 1283,-2321 1262,-2362 1223,-2439 1191,-2443 1126,-2501 1105,-2519 1090,-2515 1076,-2540 1046,-2594 1089,-2624 1058,-2679 983,-2812 928,-2831 786,-2892 566,-2985 326,-3038 132,-2958 104,-2945 91,-2943 76,-2915 55,-2873 42,-1341 40,-1112"/>
<polygon style="fill:black;stroke:black;" points="43.5001,-1112 40,-1102 36.5001,-1112 43.5001,-1112"/>
<text text-anchor="middle" x="688" y="-2943.9" style="font-family:Times New Roman;font-size:14.00;">obsLabel</text>
</g>
<!-- 6&#45;&gt;2 -->
<g id="edge126" class="edge"><title>6&#45;&gt;2</title>
<path style="fill:none;stroke:black;" d="M1303,-2134C1296,-2178 1279,-2288 1262,-2321 1256,-2334 1087,-2501 1076,-2512 1046,-2543 1037,-2550 1008,-2584 935,-2671 938,-2712 854,-2791 761,-2878 708,-2896 580,-2882 510,-2873 488,-2877 424,-2846 415,-2841 415,-2837 406,-2831 380,-2809 373,-2805 346,-2784 281,-2731 237,-2740 200,-2665 169,-2600 197,-2091 182,-2022 180,-2010 174,-1997 169,-1986"/>
<polygon style="fill:black;stroke:black;" points="172.26,-1984.72 165,-1977 165.863,-1987.56 172.26,-1984.72"/>
<text text-anchor="middle" x="761" y="-2874.9" style="font-family:Times New Roman;font-size:14.00;">alpha</text>
</g>
<!-- 6&#45;&gt;2 -->
<g id="edge150" class="edge"><title>6&#45;&gt;2</title>
<path style="fill:none;stroke:black;" d="M1303,-2134C1300,-2163 1289,-2219 1262,-2259 1241,-2290 1226,-2290 1194,-2311 1057,-2401 1004,-2392 872,-2491 830,-2523 834,-2550 786,-2576 644,-2653 586,-2634 424,-2621 321,-2612 259,-2641 200,-2556 167,-2506 195,-2080 182,-2022 180,-2010 174,-1997 169,-1986"/>
<polygon style="fill:black;stroke:black;" points="172.26,-1984.72 165,-1977 165.863,-1987.56 172.26,-1984.72"/>
<text text-anchor="middle" x="761" y="-2602.9" style="font-family:Times New Roman;font-size:14.00;">gamma</text>
</g>
<!-- 6&#45;&gt;3 -->
<g id="edge128" class="edge"><title>6&#45;&gt;3</title>
<path style="fill:none;stroke:black;" d="M1306,-2134C1311,-2203 1328,-2444 1348,-2472 1394,-2534 1473,-2529 1522,-2470 1540,-2449 1549,-2418 1554,-2396"/>
<polygon style="fill:black;stroke:black;" points="1557.47,-2396.49 1556,-2386 1550.61,-2395.12 1557.47,-2396.49"/>
<text text-anchor="middle" x="1441" y="-2518.9" style="font-family:Times New Roman;font-size:14.00;">alpha</text>
</g>
<!-- 6&#45;&gt;3 -->
<g id="edge152" class="edge"><title>6&#45;&gt;3</title>
<path style="fill:none;stroke:black;" d="M1318,-2129C1359,-2170 1488,-2298 1538,-2348"/>
<polygon style="fill:black;stroke:black;" points="1535.45,-2350.4 1545,-2355 1540.4,-2345.45 1535.45,-2350.4"/>
<text text-anchor="middle" x="1441" y="-2277.9" style="font-family:Times New Roman;font-size:14.00;">gamma</text>
</g>
<!-- 6&#45;&gt;4 -->
<g id="edge130" class="edge"><title>6&#45;&gt;4</title>
<path style="fill:none;stroke:black;" d="M1317,-2102C1326,-2093 1337,-2081 1348,-2072 1369,-2054 1379,-2056 1398,-2038 1409,-2028 1419,-2014 1426,-2002"/>
<polygon style="fill:black;stroke:black;" points="1428.8,-2004.1 1432,-1994 1423.2,-1999.9 1428.8,-2004.1"/>
<text text-anchor="middle" x="1373" y="-2075.9" style="font-family:Times New Roman;font-size:14.00;">alpha</text>
</g>
<!-- 6&#45;&gt;4 -->
<g id="edge154" class="edge"><title>6&#45;&gt;4</title>
<path style="fill:none;stroke:black;" d="M1323,-2115C1344,-2114 1378,-2108 1398,-2089 1422,-2067 1433,-2031 1438,-2006"/>
<polygon style="fill:black;stroke:black;" points="1441.49,-2006.3 1439,-1996 1434.52,-2005.6 1441.49,-2006.3"/>
<text text-anchor="middle" x="1373" y="-2114.9" style="font-family:Times New Roman;font-size:14.00;">gamma</text>
</g>
<!-- 6&#45;&gt;5 -->
<g id="edge132" class="edge"><title>6&#45;&gt;5</title>
<path style="fill:none;stroke:black;" d="M1291,-2104C1283,-2098 1272,-2091 1262,-2086 1128,-2018 1080,-2037 940,-1980 847,-1941 813,-1945 736,-1879 726,-1869 729,-1861 718,-1853 638,-1785 575,-1833 502,-1757 477,-1730 464,-1687 459,-1660"/>
<polygon style="fill:black;stroke:black;" points="462.393,-1659.12 457,-1650 455.529,-1660.49 462.393,-1659.12"/>
<text text-anchor="middle" x="897" y="-1974.9" style="font-family:Times New Roman;font-size:14.00;">alpha</text>
</g>
<!-- 6&#45;&gt;5 -->
<g id="edge156" class="edge"><title>6&#45;&gt;5</title>
<path style="fill:none;stroke:black;" d="M1287,-2118C1227,-2122 1030,-2133 872,-2096 808,-2080 794,-2067 736,-2033 620,-1962 568,-1954 502,-1834 472,-1776 460,-1701 456,-1660"/>
<polygon style="fill:black;stroke:black;" points="459.478,-1659.6 455,-1650 452.512,-1660.3 459.478,-1659.6"/>
<text text-anchor="middle" x="897" y="-2107.9" style="font-family:Times New Roman;font-size:14.00;">gamma</text>
</g>
<!-- 6&#45;&gt;6 -->
<g id="edge134" class="edge"><title>6&#45;&gt;6</title>
<path style="fill:none;stroke:black;" d="M1294,-2130C1290,-2141 1294,-2152 1305,-2152 1313,-2152 1317,-2147 1317,-2140"/>
<polygon style="fill:black;stroke:black;" points="1320.48,-2139.6 1316,-2130 1313.51,-2140.3 1320.48,-2139.6"/>
<text text-anchor="middle" x="1305" y="-2155.9" style="font-family:Times New Roman;font-size:14.00;">alpha</text>
</g>
<!-- 6&#45;&gt;7 -->
<g id="edge136" class="edge"><title>6&#45;&gt;7</title>
<path style="fill:none;stroke:black;" d="M1304,-2098C1301,-2045 1290,-1886 1262,-1757 1247,-1684 1231,-1669 1212,-1598 1194,-1527 1180,-1442 1174,-1399"/>
<polygon style="fill:black;stroke:black;" points="1177.39,-1398.12 1172,-1389 1170.53,-1399.49 1177.39,-1398.12"/>
<text text-anchor="middle" x="1237" y="-1760.9" style="font-family:Times New Roman;font-size:14.00;">alpha</text>
</g>
<!-- 6&#45;&gt;8 -->
<g id="edge138" class="edge"><title>6&#45;&gt;8</title>
<path style="fill:none;stroke:black;" d="M1304,-2098C1301,-1979 1279,-1314 1262,-1225 1245,-1131 1234,-1108 1194,-1019 1170,-963 1164,-948 1126,-899 1107,-874 1096,-874 1076,-849 1066,-835 1055,-818 1047,-805"/>
<polygon style="fill:black;stroke:black;" points="1049.92,-803.042 1042,-796 1043.8,-806.441 1049.92,-803.042"/>
<text text-anchor="middle" x="1169" y="-1023.9" style="font-family:Times New Roman;font-size:14.00;">alpha</text>
</g>
<!-- 6&#45;&gt;9 -->
<g id="edge140" class="edge"><title>6&#45;&gt;9</title>
<path style="fill:none;stroke:black;" d="M1305,-2098C1303,-2029 1296,-1775 1262,-1570 1242,-1447 1251,-1410 1194,-1298 1179,-1268 1159,-1270 1144,-1238 1126,-1199 1160,-1170 1126,-1141 1124,-1139 1012,-1139 1008,-1138 978,-1137 966,-1151 940,-1135 922,-1125 912,-1104 905,-1087"/>
<polygon style="fill:black;stroke:black;" points="908.226,-1085.57 902,-1077 901.521,-1087.58 908.226,-1085.57"/>
<text text-anchor="middle" x="1101" y="-1145.9" style="font-family:Times New Roman;font-size:14.00;">alpha</text>
</g>
<!-- 6&#45;&gt;10 -->
<g id="edge142" class="edge"><title>6&#45;&gt;10</title>
<path style="fill:none;stroke:black;" d="M1296,-2132C1288,-2143 1276,-2158 1262,-2168 1191,-2216 1156,-2190 1076,-2226 1012,-2254 1000,-2270 940,-2307 887,-2340 824,-2380 789,-2402"/>
<polygon style="fill:black;stroke:black;" points="786.379,-2399.54 780,-2408 790.262,-2405.37 786.379,-2399.54"/>
<text text-anchor="middle" x="1033" y="-2264.9" style="font-family:Times New Roman;font-size:14.00;">alpha</text>
</g>
<!-- 6&#45;&gt;11 -->
<g id="edge144" class="edge"><title>6&#45;&gt;11</title>
<path style="fill:none;stroke:black;" d="M1302,-2098C1296,-2071 1284,-2020 1262,-1983 1249,-1960 973,-1647 922,-1610 876,-1575 856,-1580 804,-1553 774,-1536 757,-1542 736,-1514 711,-1477 741,-1453 718,-1415 701,-1386 676,-1396 658,-1365 633,-1322 619,-1177 613,-1110"/>
<polygon style="fill:black;stroke:black;" points="616.478,-1109.6 612,-1100 609.512,-1110.3 616.478,-1109.6"/>
<text text-anchor="middle" x="965" y="-1675.9" style="font-family:Times New Roman;font-size:14.00;">alpha</text>
</g>
<!-- 6&#45;&gt;12 -->
<g id="edge146" class="edge"><title>6&#45;&gt;12</title>
<path style="fill:none;stroke:black;" d="M1288,-2123C1280,-2126 1271,-2129 1262,-2133 1150,-2176 1120,-2181 1008,-2229 970,-2245 964,-2260 922,-2270 901,-2274 894,-2273 872,-2270 752,-2252 440,-2192 346,-2115 327,-2099 315,-2074 307,-2054"/>
<polygon style="fill:black;stroke:black;" points="310.226,-2052.57 304,-2044 303.521,-2054.58 310.226,-2052.57"/>
<text text-anchor="middle" x="829" y="-2268.9" style="font-family:Times New Roman;font-size:14.00;">alpha</text>
</g>
<!-- 7&#45;&gt;1 -->
<g id="edge160" class="edge"><title>7&#45;&gt;1</title>
<path style="fill:none;stroke:black;" d="M1166,-1353C1161,-1328 1152,-1280 1144,-1238 1136,-1194 1138,-1182 1126,-1137 1110,-1074 1090,-1063 1076,-999 1054,-892 1071,-862 1058,-753 1036,-548 1104,-466 990,-292 877,-120 739,-209 532,-209 157,-209 157,-209 157,-209 116,-209 98,-222 76,-257 56,-292 43,-914 40,-1056"/>
<polygon style="fill:black;stroke:black;" points="36.5001,-1056 40,-1066 43.5001,-1056 36.5001,-1056"/>
<text text-anchor="middle" x="610" y="-213.9" style="font-family:Times New Roman;font-size:14.00;">alpha</text>
</g>
<!-- 7&#45;&gt;1 -->
<g id="edge184" class="edge"><title>7&#45;&gt;1</title>
<path style="fill:none;stroke:black;" d="M1165,-1353C1159,-1328 1150,-1280 1144,-1238 1131,-1133 1139,-1105 1126,-999 1110,-860 1091,-827 1076,-686 1068,-605 1087,-394 1058,-316 996,-149 868,-156 688,-156 157,-156 157,-156 157,-156 113,-156 98,-176 76,-215 57,-253 44,-910 40,-1056"/>
<polygon style="fill:black;stroke:black;" points="36.5001,-1056 40,-1066 43.5001,-1056 36.5001,-1056"/>
<text text-anchor="middle" x="610" y="-160.9" style="font-family:Times New Roman;font-size:14.00;">gamma</text>
</g>
<!-- 7&#45;&gt;1 -->
<g id="edge194" class="edge"><title>7&#45;&gt;1</title>
<path style="fill:none;stroke:black;" d="M1165,-1353C1159,-1328 1149,-1280 1144,-1238 1134,-1132 1150,-376 1126,-271 1115,-218 1097,-210 1076,-159 1068,-138 1075,-126 1058,-110 888,51 768,-50 532,-50 157,-50 157,-50 157,-50 113,-50 97,-69 76,-107 54,-150 43,-900 40,-1056"/>
<polygon style="fill:black;stroke:black;" points="36.5001,-1056 40,-1066 43.5001,-1056 36.5001,-1056"/>
<text text-anchor="middle" x="610" y="-54.9" style="font-family:Times New Roman;font-size:14.00;">obsLabel</text>
</g>
<!-- 7&#45;&gt;2 -->
<g id="edge162" class="edge"><title>7&#45;&gt;2</title>
<path style="fill:none;stroke:black;" d="M1168,-1389C1164,-1441 1144,-1591 1058,-1669 1052,-1675 655,-1873 532,-1873 298,-1873 298,-1873 298,-1873 248,-1873 201,-1914 176,-1940"/>
<polygon style="fill:black;stroke:black;" points="173.596,-1937.45 169,-1947 178.546,-1942.4 173.596,-1937.45"/>
<text text-anchor="middle" x="688" y="-1846.9" style="font-family:Times New Roman;font-size:14.00;">alpha</text>
</g>
<!-- 7&#45;&gt;2 -->
<g id="edge186" class="edge"><title>7&#45;&gt;2</title>
<path style="fill:none;stroke:black;" d="M1162,-1388C1154,-1408 1140,-1441 1126,-1469 1106,-1512 1093,-1520 1076,-1566 1065,-1598 1085,-1619 1058,-1641 1043,-1654 893,-1645 872,-1648 753,-1664 456,-1724 346,-1775 274,-1808 253,-1820 200,-1881 187,-1897 176,-1918 168,-1934"/>
<polygon style="fill:black;stroke:black;" points="164.464,-1933.42 164,-1944 170.964,-1936.02 164.464,-1933.42"/>
<text text-anchor="middle" x="688" y="-1689.9" style="font-family:Times New Roman;font-size:14.00;">gamma</text>
</g>
<!-- 7&#45;&gt;3 -->
<g id="edge164" class="edge"><title>7&#45;&gt;3</title>
<path style="fill:none;stroke:black;" d="M1172,-1353C1181,-1308 1204,-1191 1212,-1175 1254,-1096 1266,-1063 1348,-1026 1393,-1007 1512,-1039 1522,-1051 1544,-1077 1556,-2150 1558,-2340"/>
<polygon style="fill:black;stroke:black;" points="1554.5,-2340 1558,-2350 1561.5,-2340 1554.5,-2340"/>
<text text-anchor="middle" x="1373" y="-1033.9" style="font-family:Times New Roman;font-size:14.00;">alpha</text>
</g>
<!-- 7&#45;&gt;3 -->
<g id="edge188" class="edge"><title>7&#45;&gt;3</title>
<path style="fill:none;stroke:black;" d="M1178,-1355C1185,-1342 1198,-1325 1212,-1314 1263,-1277 1286,-1281 1348,-1273 1371,-1271 1378,-1265 1398,-1273 1438,-1289 1447,-1302 1466,-1339 1530,-1457 1507,-1503 1522,-1637 1539,-1777 1554,-2222 1557,-2340"/>
<polygon style="fill:black;stroke:black;" points="1553.5,-2340 1557,-2350 1560.5,-2340 1553.5,-2340"/>
<text text-anchor="middle" x="1373" y="-1280.9" style="font-family:Times New Roman;font-size:14.00;">gamma</text>
</g>
<!-- 7&#45;&gt;4 -->
<g id="edge166" class="edge"><title>7&#45;&gt;4</title>
<path style="fill:none;stroke:black;" d="M1187,-1375C1236,-1386 1372,-1420 1398,-1455 1429,-1495 1438,-1847 1441,-1950"/>
<polygon style="fill:black;stroke:black;" points="1437.5,-1950 1441,-1960 1444.5,-1950 1437.5,-1950"/>
<text text-anchor="middle" x="1305" y="-1421.9" style="font-family:Times New Roman;font-size:14.00;">alpha</text>
</g>
<!-- 7&#45;&gt;4 -->
<g id="edge190" class="edge"><title>7&#45;&gt;4</title>
<path style="fill:none;stroke:black;" d="M1185,-1364C1230,-1346 1351,-1304 1398,-1371 1432,-1419 1440,-1836 1441,-1950"/>
<polygon style="fill:black;stroke:black;" points="1437.5,-1950 1441,-1960 1444.5,-1950 1437.5,-1950"/>
<text text-anchor="middle" x="1305" y="-1342.9" style="font-family:Times New Roman;font-size:14.00;">gamma</text>
</g>
<!-- 7&#45;&gt;5 -->
<g id="edge168" class="edge"><title>7&#45;&gt;5</title>
<path style="fill:none;stroke:black;" d="M1156,-1384C1148,-1392 1137,-1401 1126,-1407 1078,-1434 1060,-1424 1008,-1444 977,-1456 970,-1460 940,-1477 870,-1516 862,-1545 786,-1575 731,-1596 552,-1619 482,-1629"/>
<polygon style="fill:black;stroke:black;" points="481.602,-1625.52 472,-1630 482.299,-1632.49 481.602,-1625.52"/>
<text text-anchor="middle" x="829" y="-1569.9" style="font-family:Times New Roman;font-size:14.00;">alpha</text>
</g>
<!-- 7&#45;&gt;5 -->
<g id="edge192" class="edge"><title>7&#45;&gt;5</title>
<path style="fill:none;stroke:black;" d="M1152,-1376C1113,-1388 1018,-1416 940,-1446 871,-1472 856,-1486 786,-1514 662,-1563 628,-1566 502,-1613 495,-1616 488,-1618 481,-1621"/>
<polygon style="fill:black;stroke:black;" points="478.985,-1618.04 471,-1625 481.585,-1624.54 478.985,-1618.04"/>
<text text-anchor="middle" x="829" y="-1508.9" style="font-family:Times New Roman;font-size:14.00;">gamma</text>
</g>
<!-- 7&#45;&gt;6 -->
<g id="edge170" class="edge"><title>7&#45;&gt;6</title>
<path style="fill:none;stroke:black;" d="M1169,-1389C1171,-1447 1177,-1629 1212,-1774 1227,-1833 1245,-1843 1262,-1902 1281,-1967 1295,-2047 1301,-2088"/>
<polygon style="fill:black;stroke:black;" points="1297.61,-2088.88 1303,-2098 1304.47,-2087.51 1297.61,-2088.88"/>
<text text-anchor="middle" x="1237" y="-1905.9" style="font-family:Times New Roman;font-size:14.00;">alpha</text>
</g>
<!-- 7&#45;&gt;7 -->
<g id="edge172" class="edge"><title>7&#45;&gt;7</title>
<path style="fill:none;stroke:black;" d="M1158,-1385C1154,-1396 1158,-1407 1169,-1407 1177,-1407 1181,-1402 1181,-1395"/>
<polygon style="fill:black;stroke:black;" points="1184.48,-1394.6 1180,-1385 1177.51,-1395.3 1184.48,-1394.6"/>
<text text-anchor="middle" x="1169" y="-1411.9" style="font-family:Times New Roman;font-size:14.00;">alpha</text>
</g>
<!-- 7&#45;&gt;8 -->
<g id="edge174" class="edge"><title>7&#45;&gt;8</title>
<path style="fill:none;stroke:black;" d="M1166,-1353C1162,-1330 1150,-1290 1126,-1265 1110,-1248 1090,-1263 1076,-1242 1059,-1216 1062,-990 1058,-958 1053,-905 1043,-843 1038,-808"/>
<polygon style="fill:black;stroke:black;" points="1041.39,-807.119 1036,-798 1034.53,-808.492 1041.39,-807.119"/>
<text text-anchor="middle" x="1101" y="-1269.9" style="font-family:Times New Roman;font-size:14.00;">alpha</text>
</g>
<!-- 7&#45;&gt;9 -->
<g id="edge176" class="edge"><title>7&#45;&gt;9</title>
<path style="fill:none;stroke:black;" d="M1155,-1359C1147,-1351 1136,-1342 1126,-1335 1106,-1321 1093,-1327 1076,-1307 1062,-1291 1076,-1275 1058,-1260 1018,-1226 978,-1273 940,-1235 913,-1208 932,-1187 922,-1149 917,-1128 911,-1104 905,-1087"/>
<polygon style="fill:black;stroke:black;" points="908.226,-1085.57 902,-1077 901.521,-1087.58 908.226,-1085.57"/>
<text text-anchor="middle" x="1033" y="-1264.9" style="font-family:Times New Roman;font-size:14.00;">alpha</text>
</g>
<!-- 7&#45;&gt;10 -->
<g id="edge178" class="edge"><title>7&#45;&gt;10</title>
<path style="fill:none;stroke:black;" d="M1168,-1389C1166,-1472 1154,-1809 1126,-1847 1113,-1864 954,-1902 940,-1920 895,-1979 957,-2021 922,-2088 906,-2119 822,-2162 804,-2193 785,-2225 771,-2333 764,-2388"/>
<polygon style="fill:black;stroke:black;" points="760.512,-2387.7 763,-2398 767.478,-2388.4 760.512,-2387.7"/>
<text text-anchor="middle" x="965" y="-1923.9" style="font-family:Times New Roman;font-size:14.00;">alpha</text>
</g>
<!-- 7&#45;&gt;11 -->
<g id="edge180" class="edge"><title>7&#45;&gt;11</title>
<path style="fill:none;stroke:black;" d="M1151,-1370C1132,-1368 1102,-1364 1076,-1357 1045,-1349 1037,-1345 1008,-1330 977,-1314 969,-1309 940,-1287 900,-1258 901,-1234 854,-1214 774,-1181 729,-1251 658,-1198 631,-1178 619,-1138 614,-1110"/>
<polygon style="fill:black;stroke:black;" points="617.393,-1109.12 612,-1100 610.529,-1110.49 617.393,-1109.12"/>
<text text-anchor="middle" x="897" y="-1276.9" style="font-family:Times New Roman;font-size:14.00;">alpha</text>
</g>
<!-- 7&#45;&gt;12 -->
<g id="edge182" class="edge"><title>7&#45;&gt;12</title>
<path style="fill:none;stroke:black;" d="M1168,-1389C1165,-1446 1154,-1623 1126,-1673 1088,-1742 1062,-1753 990,-1789 942,-1812 918,-1787 872,-1815 822,-1845 835,-1882 786,-1917 674,-1998 620,-1967 484,-1996 450,-2003 441,-2005 406,-2011 381,-2014 353,-2017 331,-2019"/>
<polygon style="fill:black;stroke:black;" points="330.602,-2015.52 321,-2020 331.299,-2022.49 330.602,-2015.52"/>
<text text-anchor="middle" x="761" y="-1950.9" style="font-family:Times New Roman;font-size:14.00;">alpha</text>
</g>
<!-- 8&#45;&gt;1 -->
<g id="edge220" class="edge"><title>8&#45;&gt;1</title>
<path style="fill:none;stroke:black;" d="M1031,-762C1025,-703 1004,-519 990,-496 914,-368 838,-346 688,-346 157,-346 157,-346 157,-346 114,-346 98,-363 76,-400 60,-430 45,-930 41,-1056"/>
<polygon style="fill:black;stroke:black;" points="37.5001,-1056 41,-1066 44.5001,-1056 37.5001,-1056"/>
<text text-anchor="middle" x="532" y="-350.9" style="font-family:Times New Roman;font-size:14.00;">gamma</text>
</g>
<!-- 8&#45;&gt;1 -->
<g id="edge230" class="edge"><title>8&#45;&gt;1</title>
<path style="fill:none;stroke:black;" d="M1031,-762C1023,-690 993,-429 990,-425 869,-214 699,-306 454,-306 157,-306 157,-306 157,-306 116,-306 98,-319 76,-354 58,-385 44,-925 40,-1056"/>
<polygon style="fill:black;stroke:black;" points="36.5001,-1056 40,-1066 43.5001,-1056 36.5001,-1056"/>
<text text-anchor="middle" x="532" y="-310.9" style="font-family:Times New Roman;font-size:14.00;">obsLabel</text>
</g>
<!-- 8&#45;&gt;1 -->
<g id="edge196" class="edge"><title>8&#45;&gt;1</title>
<path style="fill:none;stroke:black;" d="M1031,-762C1026,-725 1016,-639 1008,-566 1004,-520 1015,-397 990,-357 879,-181 741,-254 532,-254 157,-254 157,-254 157,-254 118,-254 99,-259 76,-292 55,-325 43,-918 40,-1056"/>
<polygon style="fill:black;stroke:black;" points="36.5001,-1056 40,-1066 43.5001,-1056 36.5001,-1056"/>
<text text-anchor="middle" x="532" y="-258.9" style="font-family:Times New Roman;font-size:14.00;">alpha</text>
</g>
<!-- 8&#45;&gt;2 -->
<g id="edge222" class="edge"><title>8&#45;&gt;2</title>
<path style="fill:none;stroke:black;" d="M1032,-762C1029,-716 1018,-595 990,-568 983,-561 548,-450 424,-522 312,-589 315,-649 268,-770 135,-1118 203,-1232 182,-1604 175,-1726 164,-1872 160,-1933"/>
<polygon style="fill:black;stroke:black;" points="156.512,-1932.7 159,-1943 163.478,-1933.4 156.512,-1932.7"/>
<text text-anchor="middle" x="610" y="-507.9" style="font-family:Times New Roman;font-size:14.00;">gamma</text>
</g>
<!-- 8&#45;&gt;2 -->
<g id="edge198" class="edge"><title>8&#45;&gt;2</title>
<path style="fill:none;stroke:black;" d="M1025,-764C1018,-750 1006,-732 990,-720 922,-668 888,-651 804,-669 772,-677 288,-895 268,-921 233,-970 284,-1006 250,-1055 236,-1077 214,-1062 200,-1083 185,-1108 184,-1575 182,-1604 175,-1726 164,-1872 160,-1933"/>
<polygon style="fill:black;stroke:black;" points="156.512,-1932.7 159,-1943 163.478,-1933.4 156.512,-1932.7"/>
<text text-anchor="middle" x="610" y="-772.9" style="font-family:Times New Roman;font-size:14.00;">alpha</text>
</g>
<!-- 8&#45;&gt;3 -->
<g id="edge224" class="edge"><title>8&#45;&gt;3</title>
<path style="fill:none;stroke:black;" d="M1045,-766C1066,-741 1116,-693 1169,-693 1169,-693 1169,-693 1441,-693 1498,-693 1503,-738 1522,-790 1550,-867 1557,-2134 1558,-2340"/>
<polygon style="fill:black;stroke:black;" points="1554.5,-2340 1558,-2350 1561.5,-2340 1554.5,-2340"/>
<text text-anchor="middle" x="1305" y="-697.9" style="font-family:Times New Roman;font-size:14.00;">gamma</text>
</g>
<!-- 8&#45;&gt;3 -->
<g id="edge200" class="edge"><title>8&#45;&gt;3</title>
<path style="fill:none;stroke:black;" d="M1051,-775C1123,-753 1400,-684 1522,-828 1548,-858 1557,-2132 1558,-2340"/>
<polygon style="fill:black;stroke:black;" points="1554.5,-2340 1558,-2350 1561.5,-2340 1554.5,-2340"/>
<text text-anchor="middle" x="1305" y="-747.9" style="font-family:Times New Roman;font-size:14.00;">alpha</text>
</g>
<!-- 8&#45;&gt;4 -->
<g id="edge202" class="edge"><title>8&#45;&gt;4</title>
<path style="fill:none;stroke:black;" d="M1045,-793C1053,-802 1065,-813 1076,-821 1097,-837 1106,-834 1126,-849 1144,-863 1181,-902 1194,-919 1204,-932 1201,-940 1212,-950 1231,-967 1243,-958 1262,-973 1311,-1012 1301,-1043 1348,-1083 1368,-1100 1385,-1090 1398,-1111 1421,-1147 1437,-1804 1441,-1950"/>
<polygon style="fill:black;stroke:black;" points="1437.5,-1950 1441,-1960 1444.5,-1950 1437.5,-1950"/>
<text text-anchor="middle" x="1237" y="-977.9" style="font-family:Times New Roman;font-size:14.00;">alpha</text>
</g>
<!-- 8&#45;&gt;4 -->
<g id="edge226" class="edge"><title>8&#45;&gt;4</title>
<path style="fill:none;stroke:black;" d="M1051,-778C1091,-773 1192,-767 1262,-804 1345,-848 1364,-878 1398,-964 1435,-1058 1441,-1795 1441,-1950"/>
<polygon style="fill:black;stroke:black;" points="1437.5,-1950 1441,-1960 1444.5,-1950 1437.5,-1950"/>
<text text-anchor="middle" x="1237" y="-808.9" style="font-family:Times New Roman;font-size:14.00;">gamma</text>
</g>
<!-- 8&#45;&gt;5 -->
<g id="edge204" class="edge"><title>8&#45;&gt;5</title>
<path style="fill:none;stroke:black;" d="M1030,-798C1024,-836 1009,-924 990,-947 975,-968 954,-954 940,-975 906,-1031 950,-1209 922,-1268 910,-1296 892,-1293 872,-1316 863,-1328 865,-1335 854,-1345 836,-1363 820,-1353 804,-1373 784,-1400 804,-1418 786,-1446 766,-1479 754,-1485 718,-1502 630,-1542 581,-1482 502,-1540 481,-1555 468,-1583 461,-1604"/>
<polygon style="fill:black;stroke:black;" points="457.521,-1603.42 458,-1614 464.226,-1605.43 457.521,-1603.42"/>
<text text-anchor="middle" x="761" y="-1496.9" style="font-family:Times New Roman;font-size:14.00;">alpha</text>
</g>
<!-- 8&#45;&gt;5 -->
<g id="edge228" class="edge"><title>8&#45;&gt;5</title>
<path style="fill:none;stroke:black;" d="M1032,-798C1029,-827 1020,-885 990,-922 975,-942 954,-929 940,-950 907,-1003 961,-1182 922,-1231 889,-1275 845,-1231 804,-1268 789,-1283 795,-1293 786,-1312 765,-1363 757,-1374 736,-1425 728,-1447 737,-1461 718,-1477 644,-1538 578,-1448 502,-1509 474,-1532 462,-1576 457,-1604"/>
<polygon style="fill:black;stroke:black;" points="453.512,-1603.7 456,-1614 460.478,-1604.4 453.512,-1603.7"/>
<text text-anchor="middle" x="761" y="-1438.9" style="font-family:Times New Roman;font-size:14.00;">gamma</text>
</g>
<!-- 8&#45;&gt;6 -->
<g id="edge206" class="edge"><title>8&#45;&gt;6</title>
<path style="fill:none;stroke:black;" d="M1038,-798C1059,-875 1143,-1183 1144,-1185 1182,-1233 1231,-1202 1262,-1253 1274,-1272 1299,-1941 1304,-2088"/>
<polygon style="fill:black;stroke:black;" points="1300.5,-2088 1304,-2098 1307.5,-2088 1300.5,-2088"/>
<text text-anchor="middle" x="1169" y="-1221.9" style="font-family:Times New Roman;font-size:14.00;">alpha</text>
</g>
<!-- 8&#45;&gt;7 -->
<g id="edge208" class="edge"><title>8&#45;&gt;7</title>
<path style="fill:none;stroke:black;" d="M1036,-798C1041,-830 1051,-900 1058,-958 1064,-1004 1050,-1125 1076,-1162 1091,-1182 1111,-1167 1126,-1185 1136,-1198 1155,-1294 1164,-1343"/>
<polygon style="fill:black;stroke:black;" points="1160.61,-1343.88 1166,-1353 1167.47,-1342.51 1160.61,-1343.88"/>
<text text-anchor="middle" x="1101" y="-1189.9" style="font-family:Times New Roman;font-size:14.00;">alpha</text>
</g>
<!-- 8&#45;&gt;8 -->
<g id="edge210" class="edge"><title>8&#45;&gt;8</title>
<path style="fill:none;stroke:black;" d="M1022,-794C1018,-805 1022,-816 1033,-816 1041,-816 1045,-811 1045,-804"/>
<polygon style="fill:black;stroke:black;" points="1048.48,-803.602 1044,-794 1041.51,-804.299 1048.48,-803.602"/>
<text text-anchor="middle" x="1033" y="-820.9" style="font-family:Times New Roman;font-size:14.00;">alpha</text>
</g>
<!-- 8&#45;&gt;9 -->
<g id="edge212" class="edge"><title>8&#45;&gt;9</title>
<path style="fill:none;stroke:black;" d="M1015,-776C994,-773 960,-772 940,-790 923,-807 906,-966 900,-1032"/>
<polygon style="fill:black;stroke:black;" points="896.512,-1031.7 899,-1042 903.478,-1032.4 896.512,-1031.7"/>
<text text-anchor="middle" x="965" y="-799.9" style="font-family:Times New Roman;font-size:14.00;">alpha</text>
</g>
<!-- 8&#45;&gt;10 -->
<g id="edge214" class="edge"><title>8&#45;&gt;10</title>
<path style="fill:none;stroke:black;" d="M1030,-798C1024,-835 1008,-925 990,-1000 971,-1085 956,-1103 940,-1188 925,-1274 935,-1297 922,-1382 884,-1637 843,-1696 804,-1952 780,-2114 767,-2311 763,-2388"/>
<polygon style="fill:black;stroke:black;" points="759.512,-2387.7 762,-2398 766.478,-2388.4 759.512,-2387.7"/>
<text text-anchor="middle" x="897" y="-1642.9" style="font-family:Times New Roman;font-size:14.00;">alpha</text>
</g>
<!-- 8&#45;&gt;11 -->
<g id="edge216" class="edge"><title>8&#45;&gt;11</title>
<path style="fill:none;stroke:black;" d="M1022,-766C1014,-757 1003,-747 990,-742 886,-701 830,-687 736,-750 724,-759 728,-768 718,-779 696,-806 676,-800 658,-829 637,-866 621,-985 614,-1044"/>
<polygon style="fill:black;stroke:black;" points="610.512,-1043.7 613,-1054 617.478,-1044.4 610.512,-1043.7"/>
<text text-anchor="middle" x="829" y="-721.9" style="font-family:Times New Roman;font-size:14.00;">alpha</text>
</g>
<!-- 8&#45;&gt;12 -->
<g id="edge218" class="edge"><title>8&#45;&gt;12</title>
<path style="fill:none;stroke:black;" d="M1031,-798C1026,-840 1011,-944 990,-972 975,-993 954,-979 940,-1000 904,-1059 941,-1243 922,-1309 892,-1418 844,-1429 804,-1534 747,-1688 832,-1775 718,-1896 691,-1925 424,-1992 331,-2015"/>
<polygon style="fill:black;stroke:black;" points="330.119,-2011.61 321,-2017 331.492,-2018.47 330.119,-2011.61"/>
<text text-anchor="middle" x="688" y="-1926.9" style="font-family:Times New Roman;font-size:14.00;">alpha</text>
</g>
<!-- 9&#45;&gt;1 -->
<g id="edge232" class="edge"><title>9&#45;&gt;1</title>
<path style="fill:none;stroke:black;" d="M894,-1042C888,-1015 878,-961 872,-915 870,-892 871,-722 854,-705 836,-686 403,-650 376,-650 157,-650 157,-650 157,-650 98,-650 99,-702 76,-757 54,-811 44,-987 41,-1056"/>
<polygon style="fill:black;stroke:black;" points="37.5001,-1056 41,-1066 44.5001,-1056 37.5001,-1056"/>
<text text-anchor="middle" x="454" y="-663.9" style="font-family:Times New Roman;font-size:14.00;">alpha</text>
</g>
<!-- 9&#45;&gt;1 -->
<g id="edge256" class="edge"><title>9&#45;&gt;1</title>
<path style="fill:none;stroke:black;" d="M894,-1042C888,-1015 878,-961 872,-915 869,-891 870,-710 854,-690 853,-688 610,-597 532,-597 157,-597 157,-597 157,-597 110,-597 98,-624 76,-665 59,-700 45,-967 41,-1056"/>
<polygon style="fill:black;stroke:black;" points="37.5001,-1056 41,-1066 44.5001,-1056 37.5001,-1056"/>
<text text-anchor="middle" x="454" y="-601.9" style="font-family:Times New Roman;font-size:14.00;">gamma</text>
</g>
<!-- 9&#45;&gt;1 -->
<g id="edge266" class="edge"><title>9&#45;&gt;1</title>
<path style="fill:none;stroke:black;" d="M893,-1042C888,-1015 878,-961 872,-915 866,-861 885,-715 854,-669 787,-568 732,-544 610,-544 157,-544 157,-544 157,-544 111,-544 98,-569 76,-609 56,-648 44,-960 41,-1056"/>
<polygon style="fill:black;stroke:black;" points="37.5001,-1056 41,-1066 44.5001,-1056 37.5001,-1056"/>
<text text-anchor="middle" x="454" y="-548.9" style="font-family:Times New Roman;font-size:14.00;">obsLabel</text>
</g>
<!-- 9&#45;&gt;2 -->
<g id="edge234" class="edge"><title>9&#45;&gt;2</title>
<path style="fill:none;stroke:black;" d="M894,-1042C889,-1022 878,-989 854,-972 704,-868 597,-914 502,-943 412,-972 407,-1013 328,-1065 302,-1083 290,-1081 268,-1103 226,-1148 218,-1165 200,-1223 177,-1305 187,-1519 182,-1604 175,-1726 164,-1872 159,-1933"/>
<polygon style="fill:black;stroke:black;" points="155.512,-1932.7 158,-1943 162.478,-1933.4 155.512,-1932.7"/>
<text text-anchor="middle" x="532" y="-950.9" style="font-family:Times New Roman;font-size:14.00;">alpha</text>
</g>
<!-- 9&#45;&gt;2 -->
<g id="edge258" class="edge"><title>9&#45;&gt;2</title>
<path style="fill:none;stroke:black;" d="M896,-1042C892,-1015 883,-967 854,-938 744,-827 655,-867 502,-906 425,-927 399,-938 346,-998 334,-1013 342,-1024 328,-1037 308,-1058 293,-1050 268,-1065 260,-1071 259,-1074 250,-1080 228,-1099 213,-1096 200,-1121 177,-1170 185,-1550 182,-1604 175,-1726 164,-1872 160,-1933"/>
<polygon style="fill:black;stroke:black;" points="156.512,-1932.7 159,-1943 163.478,-1933.4 156.512,-1932.7"/>
<text text-anchor="middle" x="532" y="-913.9" style="font-family:Times New Roman;font-size:14.00;">gamma</text>
</g>
<!-- 9&#45;&gt;3 -->
<g id="edge236" class="edge"><title>9&#45;&gt;3</title>
<path style="fill:none;stroke:black;" d="M915,-1056C1008,-1034 1444,-937 1522,-1033 1544,-1059 1556,-2148 1558,-2340"/>
<polygon style="fill:black;stroke:black;" points="1554.5,-2340 1558,-2350 1561.5,-2340 1554.5,-2340"/>
<text text-anchor="middle" x="1237" y="-1007.9" style="font-family:Times New Roman;font-size:14.00;">alpha</text>
</g>
<!-- 9&#45;&gt;3 -->
<g id="edge260" class="edge"><title>9&#45;&gt;3</title>
<path style="fill:none;stroke:black;" d="M913,-1051C921,-1046 931,-1041 940,-1037 995,-1015 1154,-1003 1194,-960 1217,-937 1187,-909 1212,-888 1261,-850 1433,-871 1522,-1005 1542,-1034 1555,-2147 1558,-2340"/>
<polygon style="fill:black;stroke:black;" points="1554.5,-2340 1558,-2350 1561.5,-2340 1554.5,-2340"/>
<text text-anchor="middle" x="1237" y="-895.9" style="font-family:Times New Roman;font-size:14.00;">gamma</text>
</g>
<!-- 9&#45;&gt;4 -->
<g id="edge238" class="edge"><title>9&#45;&gt;4</title>
<path style="fill:none;stroke:black;" d="M911,-1072C919,-1079 929,-1086 940,-1091 1018,-1127 1045,-1114 1126,-1137 1260,-1176 1328,-1171 1398,-1290 1432,-1347 1440,-1828 1441,-1950"/>
<polygon style="fill:black;stroke:black;" points="1437.5,-1950 1441,-1960 1444.5,-1950 1437.5,-1950"/>
<text text-anchor="middle" x="1169" y="-1160.9" style="font-family:Times New Roman;font-size:14.00;">alpha</text>
</g>
<!-- 9&#45;&gt;4 -->
<g id="edge262" class="edge"><title>9&#45;&gt;4</title>
<path style="fill:none;stroke:black;" d="M915,-1060C962,-1060 1090,-1062 1194,-1085 1289,-1107 1341,-1086 1398,-1164 1422,-1197 1437,-1809 1441,-1950"/>
<polygon style="fill:black;stroke:black;" points="1437.5,-1950 1441,-1960 1444.5,-1950 1437.5,-1950"/>
<text text-anchor="middle" x="1169" y="-1089.9" style="font-family:Times New Roman;font-size:14.00;">gamma</text>
</g>
<!-- 9&#45;&gt;5 -->
<g id="edge240" class="edge"><title>9&#45;&gt;5</title>
<path style="fill:none;stroke:black;" d="M879,-1058C829,-1052 692,-1039 658,-1066 631,-1089 662,-1116 640,-1144 622,-1169 597,-1152 580,-1177 540,-1238 605,-1281 562,-1339 545,-1363 520,-1344 502,-1367 474,-1405 461,-1543 456,-1604"/>
<polygon style="fill:black;stroke:black;" points="452.512,-1603.7 455,-1614 459.478,-1604.4 452.512,-1603.7"/>
<text text-anchor="middle" x="688" y="-1073.9" style="font-family:Times New Roman;font-size:14.00;">alpha</text>
</g>
<!-- 9&#45;&gt;5 -->
<g id="edge264" class="edge"><title>9&#45;&gt;5</title>
<path style="fill:none;stroke:black;" d="M883,-1071C838,-1108 698,-1221 658,-1263 610,-1315 617,-1345 562,-1389 540,-1408 521,-1395 502,-1417 480,-1446 463,-1552 457,-1604"/>
<polygon style="fill:black;stroke:black;" points="453.512,-1603.7 456,-1614 460.478,-1604.4 453.512,-1603.7"/>
<text text-anchor="middle" x="688" y="-1270.9" style="font-family:Times New Roman;font-size:14.00;">gamma</text>
</g>
<!-- 9&#45;&gt;6 -->
<g id="edge242" class="edge"><title>9&#45;&gt;6</title>
<path style="fill:none;stroke:black;" d="M901,-1078C906,-1099 918,-1134 940,-1154 988,-1198 1016,-1182 1076,-1202 1099,-1210 1109,-1203 1126,-1218 1140,-1230 1136,-1238 1144,-1253 1166,-1294 1180,-1301 1194,-1344 1212,-1396 1199,-1413 1212,-1466 1228,-1526 1249,-1536 1262,-1598 1284,-1692 1300,-1994 1304,-2088"/>
<polygon style="fill:black;stroke:black;" points="1300.5,-2088 1304,-2098 1307.5,-2088 1300.5,-2088"/>
<text text-anchor="middle" x="1101" y="-1222.9" style="font-family:Times New Roman;font-size:14.00;">alpha</text>
</g>
<!-- 9&#45;&gt;7 -->
<g id="edge244" class="edge"><title>9&#45;&gt;7</title>
<path style="fill:none;stroke:black;" d="M903,-1077C908,-1095 917,-1124 922,-1149 933,-1197 911,-1219 940,-1258 975,-1305 1012,-1280 1058,-1313 1068,-1320 1067,-1326 1076,-1332 1096,-1346 1122,-1357 1141,-1363"/>
<polygon style="fill:black;stroke:black;" points="1140.42,-1366.48 1151,-1366 1142.43,-1359.77 1140.42,-1366.48"/>
<text text-anchor="middle" x="1033" y="-1317.9" style="font-family:Times New Roman;font-size:14.00;">alpha</text>
</g>
<!-- 9&#45;&gt;8 -->
<g id="edge246" class="edge"><title>9&#45;&gt;8</title>
<path style="fill:none;stroke:black;" d="M898,-1042C902,-994 915,-864 940,-830 956,-811 969,-819 990,-807 997,-804 1003,-800 1009,-796"/>
<polygon style="fill:black;stroke:black;" points="1010.96,-798.916 1018,-791 1007.56,-792.797 1010.96,-798.916"/>
<text text-anchor="middle" x="965" y="-837.9" style="font-family:Times New Roman;font-size:14.00;">alpha</text>
</g>
<!-- 9&#45;&gt;9 -->
<g id="edge248" class="edge"><title>9&#45;&gt;9</title>
<path style="fill:none;stroke:black;" d="M886,-1074C882,-1085 886,-1096 897,-1096 905,-1096 909,-1091 909,-1084"/>
<polygon style="fill:black;stroke:black;" points="912.478,-1083.6 908,-1074 905.512,-1084.3 912.478,-1083.6"/>
<text text-anchor="middle" x="897" y="-1100.9" style="font-family:Times New Roman;font-size:14.00;">alpha</text>
</g>
<!-- 9&#45;&gt;10 -->
<g id="edge250" class="edge"><title>9&#45;&gt;10</title>
<path style="fill:none;stroke:black;" d="M891,-1077C886,-1095 877,-1124 872,-1149 859,-1218 886,-1243 854,-1305 841,-1333 817,-1325 804,-1353 790,-1387 788,-1971 786,-2008 780,-2149 768,-2318 764,-2388"/>
<polygon style="fill:black;stroke:black;" points="760.512,-2387.7 763,-2398 767.478,-2388.4 760.512,-2387.7"/>
<text text-anchor="middle" x="829" y="-1371.9" style="font-family:Times New Roman;font-size:14.00;">alpha</text>
</g>
<!-- 9&#45;&gt;11 -->
<g id="edge252" class="edge"><title>9&#45;&gt;11</title>
<path style="fill:none;stroke:black;" d="M889,-1044C881,-1031 869,-1013 854,-1001 812,-969 789,-968 736,-976 701,-982 687,-979 658,-1001 643,-1013 632,-1031 624,-1047"/>
<polygon style="fill:black;stroke:black;" points="620.797,-1045.56 619,-1056 626.916,-1048.96 620.797,-1045.56"/>
<text text-anchor="middle" x="761" y="-983.9" style="font-family:Times New Roman;font-size:14.00;">alpha</text>
</g>
<!-- 9&#45;&gt;12 -->
<g id="edge254" class="edge"><title>9&#45;&gt;12</title>
<path style="fill:none;stroke:black;" d="M892,-1078C886,-1100 873,-1138 854,-1168 834,-1202 761,-1271 736,-1302 550,-1540 577,-1646 406,-1897 381,-1934 345,-1973 321,-1998"/>
<polygon style="fill:black;stroke:black;" points="318.596,-1995.45 314,-2005 323.546,-2000.4 318.596,-1995.45"/>
<text text-anchor="middle" x="610" y="-1566.9" style="font-family:Times New Roman;font-size:14.00;">alpha</text>
</g>
<!-- 10&#45;&gt;1 -->
<g id="edge268" class="edge"><title>10&#45;&gt;1</title>
<path style="fill:none;stroke:black;" d="M758,-2444C753,-2468 742,-2505 718,-2527 606,-2629 216,-2677 200,-2665 -28,-2475 110,-2304 76,-2010 56,-1829 44,-1248 40,-1112"/>
<polygon style="fill:black;stroke:black;" points="43.5001,-1112 40,-1102 36.5001,-1112 43.5001,-1112"/>
<text text-anchor="middle" x="376" y="-2654.9" style="font-family:Times New Roman;font-size:14.00;">alpha</text>
</g>
<!-- 10&#45;&gt;1 -->
<g id="edge292" class="edge"><title>10&#45;&gt;1</title>
<path style="fill:none;stroke:black;" d="M756,-2444C750,-2467 742,-2504 736,-2536 727,-2588 748,-2609 718,-2654 701,-2680 684,-2673 658,-2692 541,-2776 539,-2839 406,-2896 271,-2953 170,-3001 76,-2889 47,-2853 41,-1338 40,-1112"/>
<polygon style="fill:black;stroke:black;" points="43.5001,-1112 40,-1102 36.5001,-1112 43.5001,-1112"/>
<text text-anchor="middle" x="376" y="-2923.9" style="font-family:Times New Roman;font-size:14.00;">gamma</text>
</g>
<!-- 10&#45;&gt;1 -->
<g id="edge302" class="edge"><title>10&#45;&gt;1</title>
<path style="fill:none;stroke:black;" d="M756,-2443C745,-2492 721,-2602 718,-2606 695,-2638 443,-2768 406,-2784 391,-2790 264,-2854 200,-2831 133,-2806 108,-2791 76,-2727 58,-2689 43,-1328 40,-1112"/>
<polygon style="fill:black;stroke:black;" points="43.5001,-1112 40,-1102 36.5001,-1112 43.5001,-1112"/>
<text text-anchor="middle" x="376" y="-2811.9" style="font-family:Times New Roman;font-size:14.00;">obsLabel</text>
</g>
<!-- 10&#45;&gt;2 -->
<g id="edge270" class="edge"><title>10&#45;&gt;2</title>
<path style="fill:none;stroke:black;" d="M747,-2440C740,-2449 730,-2459 718,-2464 612,-2508 280,-2512 200,-2429 169,-2396 192,-2066 182,-2022 180,-2010 174,-1997 169,-1986"/>
<polygon style="fill:black;stroke:black;" points="172.26,-1984.72 165,-1977 165.863,-1987.56 172.26,-1984.72"/>
<text text-anchor="middle" x="454" y="-2496.9" style="font-family:Times New Roman;font-size:14.00;">alpha</text>
</g>
<!-- 10&#45;&gt;2 -->
<g id="edge294" class="edge"><title>10&#45;&gt;2</title>
<path style="fill:none;stroke:black;" d="M738,-2426C669,-2438 459,-2466 346,-2362 316,-2333 204,-2072 168,-1987"/>
<polygon style="fill:black;stroke:black;" points="171.26,-1985.72 164,-1978 164.863,-1988.56 171.26,-1985.72"/>
<text text-anchor="middle" x="454" y="-2429.9" style="font-family:Times New Roman;font-size:14.00;">gamma</text>
</g>
<!-- 10&#45;&gt;3 -->
<g id="edge272" class="edge"><title>10&#45;&gt;3</title>
<path style="fill:none;stroke:black;" d="M763,-2444C772,-2523 800,-2776 804,-2784 947,-3030 1121,-3089 1398,-3024 1458,-3009 1489,-3013 1522,-2962 1538,-2938 1553,-2511 1557,-2396"/>
<polygon style="fill:black;stroke:black;" points="1560.5,-2396 1557,-2386 1553.5,-2396 1560.5,-2396"/>
<text text-anchor="middle" x="1169" y="-3050.9" style="font-family:Times New Roman;font-size:14.00;">alpha</text>
</g>
<!-- 10&#45;&gt;3 -->
<g id="edge296" class="edge"><title>10&#45;&gt;3</title>
<path style="fill:none;stroke:black;" d="M762,-2444C766,-2502 777,-2652 804,-2694 824,-2723 840,-2722 872,-2736 1006,-2790 1418,-2830 1522,-2731 1547,-2708 1555,-2478 1558,-2396"/>
<polygon style="fill:black;stroke:black;" points="1561.5,-2396 1558,-2386 1554.5,-2396 1561.5,-2396"/>
<text text-anchor="middle" x="1169" y="-2792.9" style="font-family:Times New Roman;font-size:14.00;">gamma</text>
</g>
<!-- 10&#45;&gt;4 -->
<g id="edge274" class="edge"><title>10&#45;&gt;4</title>
<path style="fill:none;stroke:black;" d="M771,-2442C788,-2472 824,-2528 872,-2551 983,-2602 1332,-2495 1398,-2393 1420,-2360 1412,-2257 1416,-2219 1424,-2141 1433,-2051 1438,-2006"/>
<polygon style="fill:black;stroke:black;" points="1441.49,-2006.3 1439,-1996 1434.52,-2005.6 1441.49,-2006.3"/>
<text text-anchor="middle" x="1101" y="-2550.9" style="font-family:Times New Roman;font-size:14.00;">alpha</text>
</g>
<!-- 10&#45;&gt;4 -->
<g id="edge298" class="edge"><title>10&#45;&gt;4</title>
<path style="fill:none;stroke:black;" d="M765,-2444C774,-2489 803,-2590 872,-2627 1062,-2727 1149,-2592 1330,-2479 1362,-2459 1380,-2462 1398,-2430 1422,-2389 1412,-2265 1416,-2219 1424,-2141 1433,-2051 1438,-2006"/>
<polygon style="fill:black;stroke:black;" points="1441.49,-2006.3 1439,-1996 1434.52,-2005.6 1441.49,-2006.3"/>
<text text-anchor="middle" x="1101" y="-2648.9" style="font-family:Times New Roman;font-size:14.00;">gamma</text>
</g>
<!-- 10&#45;&gt;5 -->
<g id="edge276" class="edge"><title>10&#45;&gt;5</title>
<path style="fill:none;stroke:black;" d="M757,-2398C752,-2373 741,-2335 718,-2309 682,-2267 532,-2236 502,-2191 473,-2146 458,-1767 455,-1660"/>
<polygon style="fill:black;stroke:black;" points="458.5,-1660 455,-1650 451.5,-1660 458.5,-1660"/>
<text text-anchor="middle" x="610" y="-2265.9" style="font-family:Times New Roman;font-size:14.00;">alpha</text>
</g>
<!-- 10&#45;&gt;5 -->
<g id="edge300" class="edge"><title>10&#45;&gt;5</title>
<path style="fill:none;stroke:black;" d="M741,-2410C734,-2406 726,-2402 718,-2398 620,-2346 557,-2367 502,-2270 473,-2216 458,-1778 454,-1660"/>
<polygon style="fill:black;stroke:black;" points="457.5,-1660 454,-1650 450.5,-1660 457.5,-1660"/>
<text text-anchor="middle" x="610" y="-2368.9" style="font-family:Times New Roman;font-size:14.00;">gamma</text>
</g>
<!-- 10&#45;&gt;6 -->
<g id="edge278" class="edge"><title>10&#45;&gt;6</title>
<path style="fill:none;stroke:black;" d="M783,-2414C802,-2409 830,-2399 854,-2390 878,-2380 1244,-2211 1262,-2194 1277,-2180 1288,-2159 1295,-2143"/>
<polygon style="fill:black;stroke:black;" points="1298.54,-2143.58 1299,-2133 1292.04,-2140.98 1298.54,-2143.58"/>
<text text-anchor="middle" x="1033" y="-2321.9" style="font-family:Times New Roman;font-size:14.00;">alpha</text>
</g>
<!-- 10&#45;&gt;7 -->
<g id="edge280" class="edge"><title>10&#45;&gt;7</title>
<path style="fill:none;stroke:black;" d="M763,-2398C766,-2349 777,-2234 804,-2143 825,-2072 839,-2057 872,-1992 900,-1938 894,-1913 940,-1876 974,-1849 1099,-1852 1126,-1819 1153,-1786 1165,-1493 1168,-1399"/>
<polygon style="fill:black;stroke:black;" points="1171.5,-1399 1168,-1389 1164.5,-1399 1171.5,-1399"/>
<text text-anchor="middle" x="965" y="-1879.9" style="font-family:Times New Roman;font-size:14.00;">alpha</text>
</g>
<!-- 10&#45;&gt;8 -->
<g id="edge282" class="edge"><title>10&#45;&gt;8</title>
<path style="fill:none;stroke:black;" d="M762,-2398C766,-2338 777,-2175 804,-2043 841,-1868 885,-1834 922,-1660 994,-1330 1024,-918 1031,-808"/>
<polygon style="fill:black;stroke:black;" points="1034.49,-808.299 1032,-798 1027.52,-807.602 1034.49,-808.299"/>
<text text-anchor="middle" x="897" y="-1831.9" style="font-family:Times New Roman;font-size:14.00;">alpha</text>
</g>
<!-- 10&#45;&gt;9 -->
<g id="edge284" class="edge"><title>10&#45;&gt;9</title>
<path style="fill:none;stroke:black;" d="M763,-2398C767,-2335 780,-2156 786,-2008 790,-1927 778,-1360 804,-1284 817,-1250 838,-1252 854,-1218 868,-1190 864,-1180 872,-1149 878,-1128 884,-1106 889,-1088"/>
<polygon style="fill:black;stroke:black;" points="892.479,-1088.58 892,-1078 885.774,-1086.57 892.479,-1088.58"/>
<text text-anchor="middle" x="829" y="-1294.9" style="font-family:Times New Roman;font-size:14.00;">alpha</text>
</g>
<!-- 10&#45;&gt;10 -->
<g id="edge286" class="edge"><title>10&#45;&gt;10</title>
<path style="fill:none;stroke:black;" d="M749,-2441C747,-2452 751,-2462 761,-2462 768,-2462 772,-2457 773,-2451"/>
<polygon style="fill:black;stroke:black;" points="776.5,-2451 773,-2441 769.5,-2451 776.5,-2451"/>
<text text-anchor="middle" x="761" y="-2465.9" style="font-family:Times New Roman;font-size:14.00;">alpha</text>
</g>
<!-- 10&#45;&gt;11 -->
<g id="edge288" class="edge"><title>10&#45;&gt;11</title>
<path style="fill:none;stroke:black;" d="M760,-2398C753,-2284 722,-1788 718,-1756 700,-1612 681,-1579 658,-1437 639,-1318 622,-1174 614,-1110"/>
<polygon style="fill:black;stroke:black;" points="617.478,-1109.6 613,-1100 610.512,-1110.3 617.478,-1109.6"/>
<text text-anchor="middle" x="688" y="-1759.9" style="font-family:Times New Roman;font-size:14.00;">alpha</text>
</g>
<!-- 10&#45;&gt;12 -->
<g id="edge290" class="edge"><title>10&#45;&gt;12</title>
<path style="fill:none;stroke:black;" d="M738,-2420C659,-2414 401,-2392 346,-2335 327,-2315 308,-2132 301,-2055"/>
<polygon style="fill:black;stroke:black;" points="304.478,-2054.6 300,-2045 297.512,-2055.3 304.478,-2054.6"/>
<text text-anchor="middle" x="532" y="-2403.9" style="font-family:Times New Roman;font-size:14.00;">alpha</text>
</g>
<!-- 11&#45;&gt;1 -->
<g id="edge304" class="edge"><title>11&#45;&gt;1</title>
<path style="fill:none;stroke:black;" d="M609,-1054C605,-1001 593,-873 562,-845 545,-830 362,-811 268,-823 181,-835 136,-809 76,-874 53,-900 44,-1005 41,-1056"/>
<polygon style="fill:black;stroke:black;" points="37.5001,-1056 41,-1066 44.5001,-1056 37.5001,-1056"/>
<text text-anchor="middle" x="298" y="-830.9" style="font-family:Times New Roman;font-size:14.00;">alpha</text>
</g>
<!-- 11&#45;&gt;1 -->
<g id="edge328" class="edge"><title>11&#45;&gt;1</title>
<path style="fill:none;stroke:black;" d="M602,-1055C595,-1037 582,-1013 562,-1000 381,-882 250,-836 76,-965 62,-976 50,-1025 45,-1056"/>
<polygon style="fill:black;stroke:black;" points="41.5292,-1055.51 43,-1066 48.3933,-1056.88 41.5292,-1055.51"/>
<text text-anchor="middle" x="298" y="-896.9" style="font-family:Times New Roman;font-size:14.00;">gamma</text>
</g>
<!-- 11&#45;&gt;1 -->
<g id="edge338" class="edge"><title>11&#45;&gt;1</title>
<path style="fill:none;stroke:black;" d="M588,-1069C580,-1066 571,-1064 562,-1062 502,-1053 486,-1061 424,-1062 292,-1066 132,-1077 68,-1082"/>
<polygon style="fill:black;stroke:black;" points="67.6021,-1078.52 58,-1083 68.2987,-1085.49 67.6021,-1078.52"/>
<text text-anchor="middle" x="298" y="-1074.9" style="font-family:Times New Roman;font-size:14.00;">obsLabel</text>
</g>
<!-- 11&#45;&gt;2 -->
<g id="edge306" class="edge"><title>11&#45;&gt;2</title>
<path style="fill:none;stroke:black;" d="M596,-1096C587,-1107 575,-1120 562,-1129 539,-1147 529,-1145 502,-1157 435,-1189 242,-1242 200,-1303 182,-1331 185,-1570 182,-1604 174,-1726 163,-1872 159,-1933"/>
<polygon style="fill:black;stroke:black;" points="155.512,-1932.7 158,-1943 162.478,-1933.4 155.512,-1932.7"/>
<text text-anchor="middle" x="376" y="-1224.9" style="font-family:Times New Roman;font-size:14.00;">alpha</text>
</g>
<!-- 11&#45;&gt;2 -->
<g id="edge330" class="edge"><title>11&#45;&gt;2</title>
<path style="fill:none;stroke:black;" d="M588,-1083C509,-1107 244,-1189 200,-1261 181,-1294 185,-1565 182,-1604 175,-1726 164,-1872 159,-1933"/>
<polygon style="fill:black;stroke:black;" points="155.512,-1932.7 158,-1943 162.478,-1933.4 155.512,-1932.7"/>
<text text-anchor="middle" x="376" y="-1174.9" style="font-family:Times New Roman;font-size:14.00;">gamma</text>
</g>
<!-- 11&#45;&gt;3 -->
<g id="edge308" class="edge"><title>11&#45;&gt;3</title>
<path style="fill:none;stroke:black;" d="M613,-1054C618,-1005 631,-888 640,-789 671,-469 643,-141 965,-141 965,-141 965,-141 1441,-141 1513,-141 1503,-211 1522,-279 1552,-383 1557,-2099 1558,-2340"/>
<polygon style="fill:black;stroke:black;" points="1554.5,-2340 1558,-2350 1561.5,-2340 1554.5,-2340"/>
<text text-anchor="middle" x="1101" y="-145.9" style="font-family:Times New Roman;font-size:14.00;">alpha</text>
</g>
<!-- 11&#45;&gt;3 -->
<g id="edge332" class="edge"><title>11&#45;&gt;3</title>
<path style="fill:none;stroke:black;" d="M612,-1054C621,-971 652,-689 658,-670 733,-468 749,-293 965,-293 965,-293 965,-293 1441,-293 1482,-293 1501,-302 1522,-337 1550,-382 1557,-2099 1558,-2340"/>
<polygon style="fill:black;stroke:black;" points="1554.5,-2340 1558,-2350 1561.5,-2340 1554.5,-2340"/>
<text text-anchor="middle" x="1101" y="-297.9" style="font-family:Times New Roman;font-size:14.00;">gamma</text>
</g>
<!-- 11&#45;&gt;4 -->
<g id="edge310" class="edge"><title>11&#45;&gt;4</title>
<path style="fill:none;stroke:black;" d="M614,-1100C622,-1142 640,-1232 658,-1257 668,-1271 778,-1326 786,-1340 805,-1371 778,-1475 804,-1500 814,-1508 909,-1504 922,-1506 1144,-1535 1279,-1480 1398,-1670 1427,-1715 1437,-1882 1440,-1950"/>
<polygon style="fill:black;stroke:black;" points="1436.5,-1950 1440,-1960 1443.5,-1950 1436.5,-1950"/>
<text text-anchor="middle" x="1033" y="-1518.9" style="font-family:Times New Roman;font-size:14.00;">alpha</text>
</g>
<!-- 11&#45;&gt;4 -->
<g id="edge334" class="edge"><title>11&#45;&gt;4</title>
<path style="fill:none;stroke:black;" d="M612,-1100C616,-1140 628,-1225 658,-1289 677,-1328 700,-1326 718,-1365 736,-1403 713,-1422 736,-1455 751,-1475 768,-1466 786,-1484 797,-1494 793,-1502 804,-1513 848,-1553 870,-1547 922,-1575 1074,-1655 1125,-1655 1262,-1758 1331,-1809 1348,-1824 1398,-1894 1411,-1912 1423,-1934 1430,-1951"/>
<polygon style="fill:black;stroke:black;" points="1427.04,-1953.02 1434,-1961 1433.54,-1950.42 1427.04,-1953.02"/>
<text text-anchor="middle" x="1033" y="-1641.9" style="font-family:Times New Roman;font-size:14.00;">gamma</text>
</g>
<!-- 11&#45;&gt;5 -->
<g id="edge312" class="edge"><title>11&#45;&gt;5</title>
<path style="fill:none;stroke:black;" d="M600,-1098C593,-1112 585,-1131 580,-1149 572,-1182 583,-1273 562,-1299 545,-1322 520,-1300 502,-1322 468,-1366 458,-1536 455,-1604"/>
<polygon style="fill:black;stroke:black;" points="451.5,-1604 455,-1614 458.5,-1604 451.5,-1604"/>
<text text-anchor="middle" x="532" y="-1332.9" style="font-family:Times New Roman;font-size:14.00;">alpha</text>
</g>
<!-- 11&#45;&gt;5 -->
<g id="edge336" class="edge"><title>11&#45;&gt;5</title>
<path style="fill:none;stroke:black;" d="M600,-1098C594,-1112 585,-1131 580,-1149 567,-1197 595,-1222 562,-1259 544,-1281 521,-1257 502,-1278 482,-1304 463,-1524 456,-1604"/>
<polygon style="fill:black;stroke:black;" points="452.512,-1603.7 455,-1614 459.478,-1604.4 452.512,-1603.7"/>
<text text-anchor="middle" x="532" y="-1289.9" style="font-family:Times New Roman;font-size:14.00;">gamma</text>
</g>
<!-- 11&#45;&gt;6 -->
<g id="edge314" class="edge"><title>11&#45;&gt;6</title>
<path style="fill:none;stroke:black;" d="M611,-1100C614,-1167 625,-1353 658,-1403 676,-1430 701,-1415 718,-1440 744,-1476 718,-1498 736,-1539 757,-1584 770,-1591 804,-1628 897,-1725 1182,-1913 1262,-2021 1277,-2042 1289,-2069 1297,-2090"/>
<polygon style="fill:black;stroke:black;" points="1293.52,-2090.62 1300,-2099 1300.16,-2088.41 1293.52,-2090.62"/>
<text text-anchor="middle" x="965" y="-1782.9" style="font-family:Times New Roman;font-size:14.00;">alpha</text>
</g>
<!-- 11&#45;&gt;7 -->
<g id="edge316" class="edge"><title>11&#45;&gt;7</title>
<path style="fill:none;stroke:black;" d="M611,-1054C615,-1020 625,-958 658,-917 718,-846 775,-794 854,-842 1025,-947 970,-1065 1058,-1244 1067,-1261 1064,-1269 1076,-1282 1094,-1301 1108,-1293 1126,-1310 1138,-1320 1148,-1334 1155,-1346"/>
<polygon style="fill:black;stroke:black;" points="1152.08,-1347.96 1160,-1355 1158.2,-1344.56 1152.08,-1347.96"/>
<text text-anchor="middle" x="897" y="-898.9" style="font-family:Times New Roman;font-size:14.00;">alpha</text>
</g>
<!-- 11&#45;&gt;8 -->
<g id="edge318" class="edge"><title>11&#45;&gt;8</title>
<path style="fill:none;stroke:black;" d="M617,-1055C624,-1033 638,-1000 658,-976 751,-868 817,-889 922,-793 932,-785 929,-778 940,-772 961,-763 987,-766 1006,-771"/>
<polygon style="fill:black;stroke:black;" points="1005.42,-774.479 1016,-774 1007.43,-767.774 1005.42,-774.479"/>
<text text-anchor="middle" x="829" y="-877.9" style="font-family:Times New Roman;font-size:14.00;">alpha</text>
</g>
<!-- 11&#45;&gt;9 -->
<g id="edge320" class="edge"><title>11&#45;&gt;9</title>
<path style="fill:none;stroke:black;" d="M627,-1061C636,-1054 647,-1046 658,-1041 711,-1019 730,-1023 786,-1029 815,-1033 848,-1043 870,-1051"/>
<polygon style="fill:black;stroke:black;" points="869.416,-1054.48 880,-1054 871.427,-1047.77 869.416,-1054.48"/>
<text text-anchor="middle" x="761" y="-1033.9" style="font-family:Times New Roman;font-size:14.00;">alpha</text>
</g>
<!-- 11&#45;&gt;10 -->
<g id="edge322" class="edge"><title>11&#45;&gt;10</title>
<path style="fill:none;stroke:black;" d="M611,-1100C618,-1234 653,-1900 658,-1943 675,-2063 693,-2091 718,-2210 732,-2273 746,-2347 755,-2388"/>
<polygon style="fill:black;stroke:black;" points="751.607,-2388.88 757,-2398 758.471,-2387.51 751.607,-2388.88"/>
<text text-anchor="middle" x="688" y="-2213.9" style="font-family:Times New Roman;font-size:14.00;">alpha</text>
</g>
<!-- 11&#45;&gt;11 -->
<g id="edge324" class="edge"><title>11&#45;&gt;11</title>
<path style="fill:none;stroke:black;" d="M597,-1096C594,-1107 598,-1118 610,-1118 618,-1118 623,-1113 624,-1106"/>
<polygon style="fill:black;stroke:black;" points="627.478,-1105.6 623,-1096 620.512,-1106.3 627.478,-1105.6"/>
<text text-anchor="middle" x="610" y="-1122.9" style="font-family:Times New Roman;font-size:14.00;">alpha</text>
</g>
<!-- 11&#45;&gt;12 -->
<g id="edge326" class="edge"><title>11&#45;&gt;12</title>
<path style="fill:none;stroke:black;" d="M601,-1099C593,-1116 580,-1139 562,-1154 540,-1174 521,-1160 502,-1182 326,-1394 408,-1513 346,-1782 329,-1855 313,-1942 304,-1989"/>
<polygon style="fill:black;stroke:black;" points="300.529,-1988.51 302,-1999 307.393,-1989.88 300.529,-1988.51"/>
<text text-anchor="middle" x="454" y="-1305.9" style="font-family:Times New Roman;font-size:14.00;">alpha</text>
</g>
<!-- 12&#45;&gt;1 -->
<g id="edge340" class="edge"><title>12&#45;&gt;1</title>
<path style="fill:none;stroke:black;" d="M276,-2027C227,-2037 114,-2052 76,-1984 55,-1945 43,-1262 40,-1112"/>
<polygon style="fill:black;stroke:black;" points="43.5001,-1112 40,-1102 36.5001,-1112 43.5001,-1112"/>
<text text-anchor="middle" x="157" y="-2037.9" style="font-family:Times New Roman;font-size:14.00;">gamma</text>
</g>
<!-- 12&#45;&gt;2 -->
<g id="edge342" class="edge"><title>12&#45;&gt;2</title>
<path style="fill:none;stroke:black;" d="M286,-2002C277,-1991 265,-1977 250,-1970 230,-1960 205,-1958 185,-1959"/>
<polygon style="fill:black;stroke:black;" points="185,-1955.5 175,-1959 185,-1962.5 185,-1955.5"/>
<text text-anchor="middle" x="225" y="-1973.9" style="font-family:Times New Roman;font-size:14.00;">gamma</text>
</g>
<!-- 12&#45;&gt;3 -->
<g id="edge344" class="edge"><title>12&#45;&gt;3</title>
<path style="fill:none;stroke:black;" d="M299,-2045C303,-2100 315,-2245 346,-2362 347,-2364 423,-2549 424,-2552 555,-2704 1037,-2948 1237,-2948 1237,-2948 1237,-2948 1441,-2948 1506,-2948 1501,-2888 1522,-2827 1550,-2746 1556,-2484 1558,-2396"/>
<polygon style="fill:black;stroke:black;" points="1561.5,-2396 1558,-2386 1554.5,-2396 1561.5,-2396"/>
<text text-anchor="middle" x="965" y="-2889.9" style="font-family:Times New Roman;font-size:14.00;">gamma</text>
</g>
<!-- 12&#45;&gt;4 -->
<g id="edge346" class="edge"><title>12&#45;&gt;4</title>
<path style="fill:none;stroke:black;" d="M321,-2025C385,-2035 571,-2065 718,-2115 853,-2159 870,-2216 1008,-2246 1030,-2250 1036,-2247 1058,-2246 1218,-2236 1305,-2261 1398,-2132 1426,-2094 1435,-2039 1439,-2006"/>
<polygon style="fill:black;stroke:black;" points="1442.49,-2006.3 1440,-1996 1435.52,-2005.6 1442.49,-2006.3"/>
<text text-anchor="middle" x="897" y="-2219.9" style="font-family:Times New Roman;font-size:14.00;">gamma</text>
</g>
<!-- 12&#45;&gt;5 -->
<g id="edge348" class="edge"><title>12&#45;&gt;5</title>
<path style="fill:none;stroke:black;" d="M300,-1999C305,-1948 319,-1827 346,-1798 365,-1777 387,-1798 406,-1779 423,-1762 440,-1697 448,-1660"/>
<polygon style="fill:black;stroke:black;" points="451.471,-1660.49 450,-1650 444.607,-1659.12 451.471,-1660.49"/>
<text text-anchor="middle" x="376" y="-1801.9" style="font-family:Times New Roman;font-size:14.00;">gamma</text>
</g>
</g>
</svg>
