<?xml version="1.0" encoding="UTF-8" standalone="no"?>
<!DOCTYPE svg PUBLIC "-//W3C//DTD SVG 1.0//EN"
 "http://www.w3.org/TR/2001/REC-SVG-20010904/DTD/svg10.dtd" [
 <!ATTLIST svg xmlns:xlink CDATA #FIXED "http://www.w3.org/1999/xlink">
]>
<!-- Generated by Graphviz version 2.20.2 (Tue Mar &#160;2 21:46:26 UTC 2010)
     For user: (mtmoor) Prof. Thomas Moor -->
<!-- Title: Project(observer_verification1) Pages: 1 -->
<svg width="564pt" height="200pt"
 viewBox="0.00 0.00 564.00 200.00" xmlns="http://www.w3.org/2000/svg" xmlns:xlink="http://www.w3.org/1999/xlink">
<g id="graph0" class="graph" transform="scale(1 1) rotate(0) translate(4 196)">
<title>Project(observer_verification1)</title>
<polygon style="fill:none;stroke:none;" points="-4,4 -4,-196 560,-196 560,4 -4,4"/>
<!-- dot_dummyinit_1 -->
<g id="node1" class="node"><title>dot_dummyinit_1</title>
</g>
<!-- 2 -->
<g id="node3" class="node"><title>2</title>
<ellipse style="fill:none;stroke:black;" cx="62" cy="-93" rx="18" ry="18"/>
<ellipse style="fill:none;stroke:black;" cx="62" cy="-93" rx="22" ry="22"/>
<text text-anchor="middle" x="62" y="-88.9" style="font-family:Times New Roman;font-size:14.00;">2</text>
</g>
<!-- dot_dummyinit_1&#45;&gt;2 -->
<g id="edge2" class="edge"><title>dot_dummyinit_1&#45;&gt;2</title>
<path style="fill:none;stroke:black;" d="M2,-93C5,-93 17,-93 30,-93"/>
<polygon style="fill:black;stroke:black;" points="30,-96.5001 40,-93 30,-89.5001 30,-96.5001"/>
</g>
<!-- 1 -->
<g id="node4" class="node"><title>1</title>
<ellipse style="fill:none;stroke:black;" cx="176" cy="-146" rx="18" ry="18"/>
<text text-anchor="middle" x="176" y="-141.9" style="font-family:Times New Roman;font-size:14.00;">1</text>
</g>
<!-- 2&#45;&gt;1 -->
<g id="edge8" class="edge"><title>2&#45;&gt;1</title>
<path style="fill:none;stroke:black;" d="M82,-102C101,-111 129,-125 150,-134"/>
<polygon style="fill:black;stroke:black;" points="148.44,-137.137 159,-138 151.283,-130.74 148.44,-137.137"/>
<text text-anchor="middle" x="121" y="-131.9" style="font-family:Times New Roman;font-size:14.00;">alpha</text>
</g>
<!-- 3 -->
<g id="node5" class="node"><title>3</title>
<ellipse style="fill:none;stroke:black;" cx="256" cy="-115" rx="18" ry="18"/>
<text text-anchor="middle" x="256" y="-110.9" style="font-family:Times New Roman;font-size:14.00;">3</text>
</g>
<!-- 1&#45;&gt;3 -->
<g id="edge4" class="edge"><title>1&#45;&gt;3</title>
<path style="fill:none;stroke:black;" d="M193,-139C203,-135 217,-130 230,-125"/>
<polygon style="fill:black;stroke:black;" points="231.283,-128.26 239,-121 228.44,-121.863 231.283,-128.26"/>
<text text-anchor="middle" x="216" y="-134.9" style="font-family:Times New Roman;font-size:14.00;">a</text>
</g>
<!-- 4 -->
<g id="node6" class="node"><title>4</title>
<ellipse style="fill:none;stroke:black;" cx="378" cy="-164" rx="18" ry="18"/>
<text text-anchor="middle" x="378" y="-159.9" style="font-family:Times New Roman;font-size:14.00;">4</text>
</g>
<!-- 1&#45;&gt;4 -->
<g id="edge6" class="edge"><title>1&#45;&gt;4</title>
<path style="fill:none;stroke:black;" d="M193,-153C215,-161 256,-176 292,-182 314,-185 321,-187 342,-182 346,-181 349,-180 353,-178"/>
<polygon style="fill:black;stroke:black;" points="354.283,-181.26 362,-174 351.44,-174.863 354.283,-181.26"/>
<text text-anchor="middle" x="256" y="-179.9" style="font-family:Times New Roman;font-size:14.00;">e</text>
</g>
<!-- 3&#45;&gt;2 -->
<g id="edge10" class="edge"><title>3&#45;&gt;2</title>
<path style="fill:none;stroke:black;" d="M239,-110C226,-107 209,-104 194,-102 161,-97 121,-95 94,-93"/>
<polygon style="fill:black;stroke:black;" points="94,-89.5001 84,-93 94,-96.5001 94,-89.5001"/>
<text text-anchor="middle" x="176" y="-105.9" style="font-family:Times New Roman;font-size:14.00;">beta</text>
</g>
<!-- 3&#45;&gt;4 -->
<g id="edge12" class="edge"><title>3&#45;&gt;4</title>
<path style="fill:none;stroke:black;" d="M268,-129C274,-136 283,-145 292,-150 310,-159 333,-162 350,-163"/>
<polygon style="fill:black;stroke:black;" points="349.701,-166.488 360,-164 350.398,-159.522 349.701,-166.488"/>
<text text-anchor="middle" x="317" y="-164.9" style="font-family:Times New Roman;font-size:14.00;">e</text>
</g>
<!-- 5 -->
<g id="node7" class="node"><title>5</title>
<ellipse style="fill:none;stroke:black;" cx="456" cy="-99" rx="18" ry="18"/>
<text text-anchor="middle" x="456" y="-94.9" style="font-family:Times New Roman;font-size:14.00;">5</text>
</g>
<!-- 3&#45;&gt;5 -->
<g id="edge14" class="edge"><title>3&#45;&gt;5</title>
<path style="fill:none;stroke:black;" d="M274,-114C309,-111 386,-105 428,-101"/>
<polygon style="fill:black;stroke:black;" points="428.398,-104.478 438,-100 427.701,-97.5125 428.398,-104.478"/>
<text text-anchor="middle" x="378" y="-108.9" style="font-family:Times New Roman;font-size:14.00;">f</text>
</g>
<!-- 4&#45;&gt;3 -->
<g id="edge18" class="edge"><title>4&#45;&gt;3</title>
<path style="fill:none;stroke:black;" d="M368,-149C361,-141 352,-131 342,-126 325,-117 302,-114 284,-114"/>
<polygon style="fill:black;stroke:black;" points="284,-110.5 274,-114 284,-117.5 284,-110.5"/>
<text text-anchor="middle" x="317" y="-129.9" style="font-family:Times New Roman;font-size:14.00;">g</text>
</g>
<!-- 4&#45;&gt;5 -->
<g id="edge16" class="edge"><title>4&#45;&gt;5</title>
<path style="fill:none;stroke:black;" d="M392,-152C398,-146 407,-139 414,-133 420,-127 428,-122 434,-116"/>
<polygon style="fill:black;stroke:black;" points="436.1,-118.8 442,-110 431.9,-113.2 436.1,-118.8"/>
<text text-anchor="middle" x="417" y="-136.9" style="font-family:Times New Roman;font-size:14.00;">f</text>
</g>
<!-- 6 -->
<g id="node8" class="node"><title>6</title>
<ellipse style="fill:none;stroke:black;" cx="538" cy="-99" rx="18" ry="18"/>
<text text-anchor="middle" x="538" y="-94.9" style="font-family:Times New Roman;font-size:14.00;">6</text>
</g>
<!-- 4&#45;&gt;6 -->
<g id="edge20" class="edge"><title>4&#45;&gt;6</title>
<path style="fill:none;stroke:black;" d="M395,-159C420,-151 466,-137 502,-120 506,-118 510,-116 514,-114"/>
<polygon style="fill:black;stroke:black;" points="515.958,-116.916 523,-109 512.559,-110.797 515.958,-116.916"/>
<text text-anchor="middle" x="456" y="-147.9" style="font-family:Times New Roman;font-size:14.00;">h</text>
</g>
<!-- 5&#45;&gt;3 -->
<g id="edge22" class="edge"><title>5&#45;&gt;3</title>
<path style="fill:none;stroke:black;" d="M439,-92C427,-88 411,-83 396,-81 356,-75 309,-91 281,-103"/>
<polygon style="fill:black;stroke:black;" points="279.717,-99.7402 272,-107 282.56,-106.137 279.717,-99.7402"/>
<text text-anchor="middle" x="378" y="-84.9" style="font-family:Times New Roman;font-size:14.00;">g</text>
</g>
<!-- 5&#45;&gt;6 -->
<g id="edge24" class="edge"><title>5&#45;&gt;6</title>
<path style="fill:none;stroke:black;" d="M474,-99C484,-99 498,-99 510,-99"/>
<polygon style="fill:black;stroke:black;" points="510,-102.5 520,-99 510,-95.5001 510,-102.5"/>
<text text-anchor="middle" x="497" y="-102.9" style="font-family:Times New Roman;font-size:14.00;">h</text>
</g>
<!-- 6&#45;&gt;2 -->
<g id="edge26" class="edge"><title>6&#45;&gt;2</title>
<path style="fill:none;stroke:black;" d="M533,-82C523,-53 499,-0 456,-0 176,-0 176,-0 176,-0 134,-0 99,-38 79,-66"/>
<polygon style="fill:black;stroke:black;" points="76.2,-63.9 73,-74 81.8,-68.1 76.2,-63.9"/>
<text text-anchor="middle" x="317" y="-4.9" style="font-family:Times New Roman;font-size:14.00;">gamma</text>
</g>
</g>
</svg>
