<?xml version="1.0" encoding="UTF-8" standalone="no"?>
<!DOCTYPE svg PUBLIC "-//W3C//DTD SVG 1.0//EN"
 "http://www.w3.org/TR/2001/REC-SVG-20010904/DTD/svg10.dtd" [
 <!ATTLIST svg xmlns:xlink CDATA #FIXED "http://www.w3.org/1999/xlink">
]>
<!-- Generated by Graphviz version 2.20.2 (Tue Mar &#160;2 21:46:26 UTC 2010)
     For user: (mtmoor) Prof. Thomas Moor -->
<!-- Title: observer_verification1 Pages: 1 -->
<svg width="970pt" height="350pt"
 viewBox="0.00 0.00 970.00 350.00" xmlns="http://www.w3.org/2000/svg" xmlns:xlink="http://www.w3.org/1999/xlink">
<g id="graph0" class="graph" transform="scale(1 1) rotate(0) translate(4 346)">
<title>observer_verification1</title>
<polygon style="fill:none;stroke:none;" points="-4,4 -4,-346 966,-346 966,4 -4,4"/>
<!-- dot_dummyinit_1 -->
<g id="node1" class="node"><title>dot_dummyinit_1</title>
</g>
<!-- 1 -->
<g id="node3" class="node"><title>1</title>
<ellipse style="fill:none;stroke:black;" cx="62" cy="-46" rx="18" ry="18"/>
<ellipse style="fill:none;stroke:black;" cx="62" cy="-46" rx="22" ry="22"/>
<text text-anchor="middle" x="62" y="-41.9" style="font-family:Times New Roman;font-size:14.00;">1</text>
</g>
<!-- dot_dummyinit_1&#45;&gt;1 -->
<g id="edge2" class="edge"><title>dot_dummyinit_1&#45;&gt;1</title>
<path style="fill:none;stroke:black;" d="M2,-46C5,-46 17,-46 30,-46"/>
<polygon style="fill:black;stroke:black;" points="30,-49.5001 40,-46 30,-42.5001 30,-49.5001"/>
</g>
<!-- 2 -->
<g id="node4" class="node"><title>2</title>
<ellipse style="fill:none;stroke:black;" cx="146" cy="-97" rx="18" ry="18"/>
<text text-anchor="middle" x="146" y="-92.9" style="font-family:Times New Roman;font-size:14.00;">2</text>
</g>
<!-- 1&#45;&gt;2 -->
<g id="edge4" class="edge"><title>1&#45;&gt;2</title>
<path style="fill:none;stroke:black;" d="M81,-58C93,-65 109,-74 122,-82"/>
<polygon style="fill:black;stroke:black;" points="119.9,-84.8 130,-88 124.1,-79.2 119.9,-84.8"/>
<text text-anchor="middle" x="106" y="-76.9" style="font-family:Times New Roman;font-size:14.00;">a</text>
</g>
<!-- 3 -->
<g id="node5" class="node"><title>3</title>
<ellipse style="fill:none;stroke:black;" cx="226" cy="-151" rx="18" ry="18"/>
<text text-anchor="middle" x="226" y="-146.9" style="font-family:Times New Roman;font-size:14.00;">3</text>
</g>
<!-- 2&#45;&gt;3 -->
<g id="edge8" class="edge"><title>2&#45;&gt;3</title>
<path style="fill:none;stroke:black;" d="M161,-107C172,-115 189,-126 203,-135"/>
<polygon style="fill:black;stroke:black;" points="200.9,-137.8 211,-141 205.1,-132.2 200.9,-137.8"/>
<text text-anchor="middle" x="186" y="-128.9" style="font-family:Times New Roman;font-size:14.00;">c</text>
</g>
<!-- 4 -->
<g id="node6" class="node"><title>4</title>
<ellipse style="fill:none;stroke:black;" cx="226" cy="-97" rx="18" ry="18"/>
<text text-anchor="middle" x="226" y="-92.9" style="font-family:Times New Roman;font-size:14.00;">4</text>
</g>
<!-- 2&#45;&gt;4 -->
<g id="edge6" class="edge"><title>2&#45;&gt;4</title>
<path style="fill:none;stroke:black;" d="M164,-97C174,-97 187,-97 198,-97"/>
<polygon style="fill:black;stroke:black;" points="198,-100.5 208,-97 198,-93.5001 198,-100.5"/>
<text text-anchor="middle" x="186" y="-100.9" style="font-family:Times New Roman;font-size:14.00;">b</text>
</g>
<!-- 5 -->
<g id="node7" class="node"><title>5</title>
<ellipse style="fill:none;stroke:black;" cx="306" cy="-151" rx="18" ry="18"/>
<text text-anchor="middle" x="306" y="-146.9" style="font-family:Times New Roman;font-size:14.00;">5</text>
</g>
<!-- 3&#45;&gt;5 -->
<g id="edge10" class="edge"><title>3&#45;&gt;5</title>
<path style="fill:none;stroke:black;" d="M244,-151C254,-151 267,-151 278,-151"/>
<polygon style="fill:black;stroke:black;" points="278,-154.5 288,-151 278,-147.5 278,-154.5"/>
<text text-anchor="middle" x="266" y="-154.9" style="font-family:Times New Roman;font-size:14.00;">g</text>
</g>
<!-- 4&#45;&gt;5 -->
<g id="edge12" class="edge"><title>4&#45;&gt;5</title>
<path style="fill:none;stroke:black;" d="M241,-107C252,-115 269,-126 283,-135"/>
<polygon style="fill:black;stroke:black;" points="280.9,-137.8 291,-141 285.1,-132.2 280.9,-137.8"/>
<text text-anchor="middle" x="266" y="-128.9" style="font-family:Times New Roman;font-size:14.00;">b</text>
</g>
<!-- 6 -->
<g id="node8" class="node"><title>6</title>
<ellipse style="fill:none;stroke:black;" cx="416" cy="-168" rx="18" ry="18"/>
<text text-anchor="middle" x="416" y="-163.9" style="font-family:Times New Roman;font-size:14.00;">6</text>
</g>
<!-- 5&#45;&gt;6 -->
<g id="edge14" class="edge"><title>5&#45;&gt;6</title>
<path style="fill:none;stroke:black;" d="M324,-154C341,-157 368,-161 388,-164"/>
<polygon style="fill:black;stroke:black;" points="387.701,-167.488 398,-165 388.398,-160.522 387.701,-167.488"/>
<text text-anchor="middle" x="361" y="-164.9" style="font-family:Times New Roman;font-size:14.00;">alpha</text>
</g>
<!-- 7 -->
<g id="node9" class="node"><title>7</title>
<ellipse style="fill:none;stroke:black;" cx="503" cy="-168" rx="18" ry="18"/>
<text text-anchor="middle" x="503" y="-163.9" style="font-family:Times New Roman;font-size:14.00;">7</text>
</g>
<!-- 6&#45;&gt;7 -->
<g id="edge16" class="edge"><title>6&#45;&gt;7</title>
<path style="fill:none;stroke:black;" d="M434,-168C446,-168 461,-168 475,-168"/>
<polygon style="fill:black;stroke:black;" points="475,-171.5 485,-168 475,-164.5 475,-171.5"/>
<text text-anchor="middle" x="456" y="-171.9" style="font-family:Times New Roman;font-size:14.00;">a</text>
</g>
<!-- 9 -->
<g id="node11" class="node"><title>9</title>
<ellipse style="fill:none;stroke:black;" cx="590" cy="-280" rx="18" ry="18"/>
<text text-anchor="middle" x="590" y="-275.9" style="font-family:Times New Roman;font-size:14.00;">9</text>
</g>
<!-- 6&#45;&gt;9 -->
<g id="edge18" class="edge"><title>6&#45;&gt;9</title>
<path style="fill:none;stroke:black;" d="M430,-179C454,-197 503,-233 546,-259 552,-262 558,-265 564,-268"/>
<polygon style="fill:black;stroke:black;" points="562.44,-271.137 573,-272 565.283,-264.74 562.44,-271.137"/>
<text text-anchor="middle" x="503" y="-248.9" style="font-family:Times New Roman;font-size:14.00;">e</text>
</g>
<!-- 8 -->
<g id="node10" class="node"><title>8</title>
<ellipse style="fill:none;stroke:black;" cx="762" cy="-124" rx="18" ry="18"/>
<text text-anchor="middle" x="762" y="-119.9" style="font-family:Times New Roman;font-size:14.00;">8</text>
</g>
<!-- 7&#45;&gt;8 -->
<g id="edge20" class="edge"><title>7&#45;&gt;8</title>
<path style="fill:none;stroke:black;" d="M521,-163C528,-161 538,-158 546,-157 613,-143 693,-132 734,-127"/>
<polygon style="fill:black;stroke:black;" points="734.398,-130.478 744,-126 733.701,-123.512 734.398,-130.478"/>
<text text-anchor="middle" x="631" y="-144.9" style="font-family:Times New Roman;font-size:14.00;">b</text>
</g>
<!-- 7&#45;&gt;9 -->
<g id="edge24" class="edge"><title>7&#45;&gt;9</title>
<path style="fill:none;stroke:black;" d="M513,-183C521,-197 534,-216 546,-232 554,-241 562,-251 570,-260"/>
<polygon style="fill:black;stroke:black;" points="567.454,-262.404 577,-267 572.404,-257.454 567.454,-262.404"/>
<text text-anchor="middle" x="550" y="-241.9" style="font-family:Times New Roman;font-size:14.00;">e</text>
</g>
<!-- 10 -->
<g id="node12" class="node"><title>10</title>
<ellipse style="fill:none;stroke:black;" cx="677" cy="-195" rx="23.1233" ry="23.1233"/>
<text text-anchor="middle" x="677" y="-190.9" style="font-family:Times New Roman;font-size:14.00;">10</text>
</g>
<!-- 7&#45;&gt;10 -->
<g id="edge22" class="edge"><title>7&#45;&gt;10</title>
<path style="fill:none;stroke:black;" d="M520,-174C528,-176 538,-179 546,-182 558,-185 561,-187 572,-189 596,-192 623,-194 644,-195"/>
<polygon style="fill:black;stroke:black;" points="644,-198.5 654,-195 644,-191.5 644,-198.5"/>
<text text-anchor="middle" x="590" y="-194.9" style="font-family:Times New Roman;font-size:14.00;">c</text>
</g>
<!-- 8&#45;&gt;1 -->
<g id="edge26" class="edge"><title>8&#45;&gt;1</title>
<path style="fill:none;stroke:black;" d="M754,-108C741,-85 714,-46 677,-46 146,-46 146,-46 146,-46 129,-46 110,-46 94,-46"/>
<polygon style="fill:black;stroke:black;" points="94,-42.5001 84,-46 94,-49.5001 94,-42.5001"/>
<text text-anchor="middle" x="416" y="-49.9" style="font-family:Times New Roman;font-size:14.00;">beta</text>
</g>
<!-- 8&#45;&gt;7 -->
<g id="edge28" class="edge"><title>8&#45;&gt;7</title>
<path style="fill:none;stroke:black;" d="M744,-121C718,-116 668,-111 626,-119 591,-125 552,-142 528,-154"/>
<polygon style="fill:black;stroke:black;" points="526.042,-151.084 519,-159 529.441,-157.203 526.042,-151.084"/>
<text text-anchor="middle" x="631" y="-122.9" style="font-family:Times New Roman;font-size:14.00;">c</text>
</g>
<!-- 11 -->
<g id="node13" class="node"><title>11</title>
<ellipse style="fill:none;stroke:black;" cx="847" cy="-164" rx="23.1233" ry="23.1233"/>
<text text-anchor="middle" x="847" y="-159.9" style="font-family:Times New Roman;font-size:14.00;">11</text>
</g>
<!-- 8&#45;&gt;11 -->
<g id="edge30" class="edge"><title>8&#45;&gt;11</title>
<path style="fill:none;stroke:black;" d="M778,-132C784,-135 791,-139 798,-142 804,-145 810,-148 816,-150"/>
<polygon style="fill:black;stroke:black;" points="815.415,-153.536 826,-154 818.015,-147.036 815.415,-153.536"/>
<text text-anchor="middle" x="802" y="-145.9" style="font-family:Times New Roman;font-size:14.00;">e</text>
</g>
<!-- 9&#45;&gt;10 -->
<g id="edge36" class="edge"><title>9&#45;&gt;10</title>
<path style="fill:none;stroke:black;" d="M603,-267C617,-254 637,-234 653,-218"/>
<polygon style="fill:black;stroke:black;" points="655.404,-220.546 660,-211 650.454,-215.596 655.404,-220.546"/>
<text text-anchor="middle" x="631" y="-247.9" style="font-family:Times New Roman;font-size:14.00;">h</text>
</g>
<!-- 9&#45;&gt;11 -->
<g id="edge34" class="edge"><title>9&#45;&gt;11</title>
<path style="fill:none;stroke:black;" d="M608,-275C616,-272 627,-268 636,-265 703,-238 777,-200 818,-180"/>
<polygon style="fill:black;stroke:black;" points="819.958,-182.916 827,-175 816.559,-176.797 819.958,-182.916"/>
<text text-anchor="middle" x="722" y="-231.9" style="font-family:Times New Roman;font-size:14.00;">f</text>
</g>
<!-- 12 -->
<g id="node14" class="node"><title>12</title>
<ellipse style="fill:none;stroke:black;" cx="939" cy="-164" rx="23.1233" ry="23.1233"/>
<text text-anchor="middle" x="939" y="-159.9" style="font-family:Times New Roman;font-size:14.00;">12</text>
</g>
<!-- 9&#45;&gt;12 -->
<g id="edge32" class="edge"><title>9&#45;&gt;12</title>
<path style="fill:none;stroke:black;" d="M603,-292C620,-306 649,-326 677,-326 677,-326 677,-326 847,-326 906,-326 928,-245 936,-197"/>
<polygon style="fill:black;stroke:black;" points="939.488,-197.299 937,-187 932.522,-196.602 939.488,-197.299"/>
<text text-anchor="middle" x="762" y="-329.9" style="font-family:Times New Roman;font-size:14.00;">e</text>
</g>
<!-- 10&#45;&gt;7 -->
<g id="edge38" class="edge"><title>10&#45;&gt;7</title>
<path style="fill:none;stroke:black;" d="M657,-183C644,-176 625,-168 608,-165 582,-159 552,-161 531,-164"/>
<polygon style="fill:black;stroke:black;" points="530.602,-160.522 521,-165 531.299,-167.488 530.602,-160.522"/>
<text text-anchor="middle" x="590" y="-168.9" style="font-family:Times New Roman;font-size:14.00;">b</text>
</g>
<!-- 10&#45;&gt;8 -->
<g id="edge40" class="edge"><title>10&#45;&gt;8</title>
<path style="fill:none;stroke:black;" d="M695,-180C708,-169 726,-154 740,-142"/>
<polygon style="fill:black;stroke:black;" points="742.1,-144.8 748,-136 737.9,-139.2 742.1,-144.8"/>
<text text-anchor="middle" x="722" y="-163.9" style="font-family:Times New Roman;font-size:14.00;">d</text>
</g>
<!-- 11&#45;&gt;8 -->
<g id="edge42" class="edge"><title>11&#45;&gt;8</title>
<path style="fill:none;stroke:black;" d="M835,-144C828,-134 818,-123 806,-118 801,-116 795,-115 789,-115"/>
<polygon style="fill:black;stroke:black;" points="788.119,-111.607 779,-117 789.492,-118.471 788.119,-111.607"/>
<text text-anchor="middle" x="802" y="-121.9" style="font-family:Times New Roman;font-size:14.00;">g</text>
</g>
<!-- 11&#45;&gt;12 -->
<g id="edge44" class="edge"><title>11&#45;&gt;12</title>
<path style="fill:none;stroke:black;" d="M870,-164C881,-164 894,-164 906,-164"/>
<polygon style="fill:black;stroke:black;" points="906,-167.5 916,-164 906,-160.5 906,-167.5"/>
<text text-anchor="middle" x="893" y="-167.9" style="font-family:Times New Roman;font-size:14.00;">h</text>
</g>
<!-- 12&#45;&gt;1 -->
<g id="edge46" class="edge"><title>12&#45;&gt;1</title>
<path style="fill:none;stroke:black;" d="M937,-141C931,-96 911,-1 847,-0 146,-0 146,-0 146,-0 124,-0 102,-13 86,-25"/>
<polygon style="fill:black;stroke:black;" points="83.9,-22.2 78,-31 88.1,-27.8 83.9,-22.2"/>
<text text-anchor="middle" x="503" y="-4.9" style="font-family:Times New Roman;font-size:14.00;">gamma</text>
</g>
</g>
</svg>
