<?xml version="1.0" encoding="UTF-8" standalone="no"?>
<!DOCTYPE svg PUBLIC "-//W3C//DTD SVG 1.0//EN"
 "http://www.w3.org/TR/2001/REC-SVG-20010904/DTD/svg10.dtd" [
 <!ATTLIST svg xmlns:xlink CDATA #FIXED "http://www.w3.org/1999/xlink">
]>
<!-- Generated by Graphviz version 2.20.2 (Tue Mar &#160;2 21:46:26 UTC 2010)
     For user: (mtmoor) Prof. Thomas Moor -->
<!-- Title: Project(observer_verification1) Pages: 1 -->
<svg width="402pt" height="76pt"
 viewBox="0.00 0.00 402.00 76.00" xmlns="http://www.w3.org/2000/svg" xmlns:xlink="http://www.w3.org/1999/xlink">
<g id="graph0" class="graph" transform="scale(1 1) rotate(0) translate(4 72)">
<title>Project(observer_verification1)</title>
<polygon style="fill:none;stroke:none;" points="-4,4 -4,-72 398,-72 398,4 -4,4"/>
<!-- dot_dummyinit_1 -->
<g id="node1" class="node"><title>dot_dummyinit_1</title>
</g>
<!-- 2 -->
<g id="node3" class="node"><title>2</title>
<ellipse style="fill:none;stroke:black;" cx="62" cy="-30" rx="18" ry="18"/>
<ellipse style="fill:none;stroke:black;" cx="62" cy="-30" rx="22" ry="22"/>
<text text-anchor="middle" x="62" y="-25.9" style="font-family:Times New Roman;font-size:14.00;">2</text>
</g>
<!-- dot_dummyinit_1&#45;&gt;2 -->
<g id="edge2" class="edge"><title>dot_dummyinit_1&#45;&gt;2</title>
<path style="fill:none;stroke:black;" d="M2,-30C5,-30 17,-30 30,-30"/>
<polygon style="fill:black;stroke:black;" points="30,-33.5001 40,-30 30,-26.5001 30,-33.5001"/>
</g>
<!-- 1 -->
<g id="node4" class="node"><title>1</title>
<ellipse style="fill:none;stroke:black;" cx="183" cy="-50" rx="18" ry="18"/>
<text text-anchor="middle" x="183" y="-45.9" style="font-family:Times New Roman;font-size:14.00;">1</text>
</g>
<!-- 2&#45;&gt;1 -->
<g id="edge8" class="edge"><title>2&#45;&gt;1</title>
<path style="fill:none;stroke:black;" d="M82,-40C88,-43 95,-46 102,-48 120,-51 139,-52 155,-51"/>
<polygon style="fill:black;stroke:black;" points="155,-54.5001 165,-51 155,-47.5001 155,-54.5001"/>
<text text-anchor="middle" x="121" y="-53.9" style="font-family:Times New Roman;font-size:14.00;">alpha</text>
</g>
<!-- 1&#45;&gt;2 -->
<g id="edge4" class="edge"><title>1&#45;&gt;2</title>
<path style="fill:none;stroke:black;" d="M167,-41C159,-37 150,-33 140,-31 126,-28 109,-27 94,-28"/>
<polygon style="fill:black;stroke:black;" points="94,-24.5001 84,-28 94,-31.5001 94,-24.5001"/>
<text text-anchor="middle" x="121" y="-34.9" style="font-family:Times New Roman;font-size:14.00;">beta</text>
</g>
<!-- 3 -->
<g id="node5" class="node"><title>3</title>
<ellipse style="fill:none;stroke:black;" cx="376" cy="-18" rx="18" ry="18"/>
<text text-anchor="middle" x="376" y="-13.9" style="font-family:Times New Roman;font-size:14.00;">3</text>
</g>
<!-- 1&#45;&gt;3 -->
<g id="edge6" class="edge"><title>1&#45;&gt;3</title>
<path style="fill:none;stroke:black;" d="M201,-47C235,-41 308,-29 348,-23"/>
<polygon style="fill:black;stroke:black;" points="348.881,-26.3933 358,-21 347.508,-19.5292 348.881,-26.3933"/>
<text text-anchor="middle" x="283" y="-45.9" style="font-family:Times New Roman;font-size:14.00;">hnewHLevent_1</text>
</g>
<!-- 3&#45;&gt;2 -->
<g id="edge10" class="edge"><title>3&#45;&gt;2</title>
<path style="fill:none;stroke:black;" d="M358,-15C321,-9 232,2 158,-6 136,-9 112,-15 93,-20"/>
<polygon style="fill:black;stroke:black;" points="91.5725,-16.7741 83,-23 93.584,-23.4788 91.5725,-16.7741"/>
<text text-anchor="middle" x="183" y="-9.9" style="font-family:Times New Roman;font-size:14.00;">gamma</text>
</g>
</g>
</svg>
