<?xml version="1.0" encoding="UTF-8" standalone="no"?>
<!DOCTYPE svg PUBLIC "-//W3C//DTD SVG 1.0//EN"
 "http://www.w3.org/TR/2001/REC-SVG-20010904/DTD/svg10.dtd" [
 <!ATTLIST svg xmlns:xlink CDATA #FIXED "http://www.w3.org/1999/xlink">
]>
<!-- Generated by Graphviz version 2.20.2 (Tue Mar &#160;2 21:46:26 UTC 2010)
     For user: (mtmoor) Prof. Thomas Moor -->
<!-- Title: Project(observer_verification1) Pages: 1 -->
<svg width="586pt" height="124pt"
 viewBox="0.00 0.00 586.00 124.00" xmlns="http://www.w3.org/2000/svg" xmlns:xlink="http://www.w3.org/1999/xlink">
<g id="graph0" class="graph" transform="scale(1 1) rotate(0) translate(4 120)">
<title>Project(observer_verification1)</title>
<polygon style="fill:none;stroke:none;" points="-4,4 -4,-120 582,-120 582,4 -4,4"/>
<!-- dot_dummyinit_1 -->
<g id="node1" class="node"><title>dot_dummyinit_1</title>
</g>
<!-- 2 -->
<g id="node3" class="node"><title>2</title>
<ellipse style="fill:none;stroke:black;" cx="62" cy="-45" rx="18" ry="18"/>
<ellipse style="fill:none;stroke:black;" cx="62" cy="-45" rx="22" ry="22"/>
<text text-anchor="middle" x="62" y="-40.9" style="font-family:Times New Roman;font-size:14.00;">2</text>
</g>
<!-- dot_dummyinit_1&#45;&gt;2 -->
<g id="edge2" class="edge"><title>dot_dummyinit_1&#45;&gt;2</title>
<path style="fill:none;stroke:black;" d="M2,-45C5,-45 17,-45 30,-45"/>
<polygon style="fill:black;stroke:black;" points="30,-48.5001 40,-45 30,-41.5001 30,-48.5001"/>
</g>
<!-- 1 -->
<g id="node4" class="node"><title>1</title>
<ellipse style="fill:none;stroke:black;" cx="252" cy="-98" rx="18" ry="18"/>
<text text-anchor="middle" x="252" y="-93.9" style="font-family:Times New Roman;font-size:14.00;">1</text>
</g>
<!-- 2&#45;&gt;1 -->
<g id="edge6" class="edge"><title>2&#45;&gt;1</title>
<path style="fill:none;stroke:black;" d="M83,-53C89,-55 96,-57 102,-59 144,-72 194,-84 224,-92"/>
<polygon style="fill:black;stroke:black;" points="223.508,-95.4708 234,-94 224.881,-88.6067 223.508,-95.4708"/>
<text text-anchor="middle" x="159" y="-90.9" style="font-family:Times New Roman;font-size:14.00;">dnewHLevent_1</text>
</g>
<!-- 3 -->
<g id="node5" class="node"><title>3</title>
<ellipse style="fill:none;stroke:black;" cx="374" cy="-45" rx="18" ry="18"/>
<text text-anchor="middle" x="374" y="-40.9" style="font-family:Times New Roman;font-size:14.00;">3</text>
</g>
<!-- 1&#45;&gt;3 -->
<g id="edge4" class="edge"><title>1&#45;&gt;3</title>
<path style="fill:none;stroke:black;" d="M269,-91C289,-82 324,-67 348,-56"/>
<polygon style="fill:black;stroke:black;" points="349.283,-59.2598 357,-52 346.44,-52.8631 349.283,-59.2598"/>
<text text-anchor="middle" x="313" y="-84.9" style="font-family:Times New Roman;font-size:14.00;">alpha</text>
</g>
<!-- 3&#45;&gt;2 -->
<g id="edge8" class="edge"><title>3&#45;&gt;2</title>
<path style="fill:none;stroke:black;" d="M356,-45C305,-45 159,-45 94,-45"/>
<polygon style="fill:black;stroke:black;" points="94,-41.5001 84,-45 94,-48.5001 94,-41.5001"/>
<text text-anchor="middle" x="252" y="-48.9" style="font-family:Times New Roman;font-size:14.00;">beta</text>
</g>
<!-- 4 -->
<g id="node6" class="node"><title>4</title>
<ellipse style="fill:none;stroke:black;" cx="560" cy="-18" rx="18" ry="18"/>
<text text-anchor="middle" x="560" y="-13.9" style="font-family:Times New Roman;font-size:14.00;">4</text>
</g>
<!-- 3&#45;&gt;4 -->
<g id="edge10" class="edge"><title>3&#45;&gt;4</title>
<path style="fill:none;stroke:black;" d="M392,-42C424,-37 494,-28 532,-22"/>
<polygon style="fill:black;stroke:black;" points="532.398,-25.4778 542,-21 531.701,-18.5125 532.398,-25.4778"/>
<text text-anchor="middle" x="467" y="-41.9" style="font-family:Times New Roman;font-size:14.00;">hnewHLevent_2</text>
</g>
<!-- 4&#45;&gt;2 -->
<g id="edge12" class="edge"><title>4&#45;&gt;2</title>
<path style="fill:none;stroke:black;" d="M542,-18C506,-17 425,-16 356,-18 243,-22 215,-30 102,-41 99,-41 97,-41 94,-41"/>
<polygon style="fill:black;stroke:black;" points="93.6021,-37.5222 84,-42 94.2987,-44.4875 93.6021,-37.5222"/>
<text text-anchor="middle" x="313" y="-24.9" style="font-family:Times New Roman;font-size:14.00;">gamma</text>
</g>
</g>
</svg>
