<?xml version="1.0" encoding="UTF-8" standalone="no"?>
<!DOCTYPE svg PUBLIC "-//W3C//DTD SVG 1.0//EN"
 "http://www.w3.org/TR/2001/REC-SVG-20010904/DTD/svg10.dtd" [
 <!ATTLIST svg xmlns:xlink CDATA #FIXED "http://www.w3.org/1999/xlink">
]>
<!-- Generated by Graphviz version 2.20.2 (Tue Mar &#160;2 21:46:26 UTC 2010)
     For user: (mtmoor) Prof. Thomas Moor -->
<!-- Title: Project(observer_verification1) Pages: 1 -->
<svg width="668pt" height="215pt"
 viewBox="0.00 0.00 668.00 215.00" xmlns="http://www.w3.org/2000/svg" xmlns:xlink="http://www.w3.org/1999/xlink">
<g id="graph0" class="graph" transform="scale(1 1) rotate(0) translate(4 211)">
<title>Project(observer_verification1)</title>
<polygon style="fill:none;stroke:none;" points="-4,4 -4,-211 664,-211 664,4 -4,4"/>
<!-- dot_dummyinit_1 -->
<g id="node1" class="node"><title>dot_dummyinit_1</title>
</g>
<!-- 2 -->
<g id="node3" class="node"><title>2</title>
<ellipse style="fill:none;stroke:black;" cx="62" cy="-129" rx="18" ry="18"/>
<ellipse style="fill:none;stroke:black;" cx="62" cy="-129" rx="22" ry="22"/>
<text text-anchor="middle" x="62" y="-124.9" style="font-family:Times New Roman;font-size:14.00;">2</text>
</g>
<!-- dot_dummyinit_1&#45;&gt;2 -->
<g id="edge2" class="edge"><title>dot_dummyinit_1&#45;&gt;2</title>
<path style="fill:none;stroke:black;" d="M2,-129C5,-129 17,-129 30,-129"/>
<polygon style="fill:black;stroke:black;" points="30,-132.5 40,-129 30,-125.5 30,-132.5"/>
</g>
<!-- 1 -->
<g id="node4" class="node"><title>1</title>
<ellipse style="fill:none;stroke:black;" cx="252" cy="-129" rx="18" ry="18"/>
<text text-anchor="middle" x="252" y="-124.9" style="font-family:Times New Roman;font-size:14.00;">1</text>
</g>
<!-- 2&#45;&gt;1 -->
<g id="edge6" class="edge"><title>2&#45;&gt;1</title>
<path style="fill:none;stroke:black;" d="M84,-129C119,-129 185,-129 224,-129"/>
<polygon style="fill:black;stroke:black;" points="224,-132.5 234,-129 224,-125.5 224,-132.5"/>
<text text-anchor="middle" x="159" y="-132.9" style="font-family:Times New Roman;font-size:14.00;">dnewHLevent_2</text>
</g>
<!-- 3 -->
<g id="node5" class="node"><title>3</title>
<ellipse style="fill:none;stroke:black;" cx="369" cy="-129" rx="18" ry="18"/>
<text text-anchor="middle" x="369" y="-124.9" style="font-family:Times New Roman;font-size:14.00;">3</text>
</g>
<!-- 1&#45;&gt;3 -->
<g id="edge4" class="edge"><title>1&#45;&gt;3</title>
<path style="fill:none;stroke:black;" d="M270,-129C289,-129 319,-129 341,-129"/>
<polygon style="fill:black;stroke:black;" points="341,-132.5 351,-129 341,-125.5 341,-132.5"/>
<text text-anchor="middle" x="307" y="-132.9" style="font-family:Times New Roman;font-size:14.00;">alpha</text>
</g>
<!-- 4 -->
<g id="node6" class="node"><title>4</title>
<ellipse style="fill:none;stroke:black;" cx="456" cy="-82" rx="18" ry="18"/>
<text text-anchor="middle" x="456" y="-77.9" style="font-family:Times New Roman;font-size:14.00;">4</text>
</g>
<!-- 3&#45;&gt;4 -->
<g id="edge10" class="edge"><title>3&#45;&gt;4</title>
<path style="fill:none;stroke:black;" d="M385,-120C398,-113 416,-104 431,-96"/>
<polygon style="fill:black;stroke:black;" points="432.958,-98.916 440,-91 429.559,-92.7969 432.958,-98.916"/>
<text text-anchor="middle" x="416" y="-107.9" style="font-family:Times New Roman;font-size:14.00;">e</text>
</g>
<!-- 5 -->
<g id="node7" class="node"><title>5</title>
<ellipse style="fill:none;stroke:black;" cx="642" cy="-130" rx="18" ry="18"/>
<text text-anchor="middle" x="642" y="-125.9" style="font-family:Times New Roman;font-size:14.00;">5</text>
</g>
<!-- 3&#45;&gt;5 -->
<g id="edge8" class="edge"><title>3&#45;&gt;5</title>
<path style="fill:none;stroke:black;" d="M387,-130C427,-131 525,-134 606,-132 609,-132 611,-132 614,-132"/>
<polygon style="fill:black;stroke:black;" points="614.398,-135.478 624,-131 613.701,-128.512 614.398,-135.478"/>
<text text-anchor="middle" x="456" y="-133.9" style="font-family:Times New Roman;font-size:14.00;">a</text>
</g>
<!-- 4&#45;&gt;5 -->
<g id="edge12" class="edge"><title>4&#45;&gt;5</title>
<path style="fill:none;stroke:black;" d="M474,-87C479,-89 486,-91 492,-92 543,-104 557,-99 606,-115 609,-116 613,-117 616,-119"/>
<polygon style="fill:black;stroke:black;" points="615.416,-122.479 626,-122 617.427,-115.774 615.416,-122.479"/>
<text text-anchor="middle" x="549" y="-118.9" style="font-family:Times New Roman;font-size:14.00;">g</text>
</g>
<!-- 6 -->
<g id="node8" class="node"><title>6</title>
<ellipse style="fill:none;stroke:black;" cx="642" cy="-18" rx="18" ry="18"/>
<text text-anchor="middle" x="642" y="-13.9" style="font-family:Times New Roman;font-size:14.00;">6</text>
</g>
<!-- 4&#45;&gt;6 -->
<g id="edge14" class="edge"><title>4&#45;&gt;6</title>
<path style="fill:none;stroke:black;" d="M464,-65C470,-54 479,-40 492,-33 530,-12 583,-12 614,-14"/>
<polygon style="fill:black;stroke:black;" points="613.701,-17.4875 624,-15 614.398,-10.5222 613.701,-17.4875"/>
<text text-anchor="middle" x="549" y="-36.9" style="font-family:Times New Roman;font-size:14.00;">hnewHLevent_4</text>
</g>
<!-- 5&#45;&gt;2 -->
<g id="edge16" class="edge"><title>5&#45;&gt;2</title>
<path style="fill:none;stroke:black;" d="M626,-139C595,-156 522,-191 456,-191 252,-191 252,-191 252,-191 192,-191 127,-163 90,-145"/>
<polygon style="fill:black;stroke:black;" points="91.4414,-141.797 81,-140 88.0418,-147.916 91.4414,-141.797"/>
<text text-anchor="middle" x="369" y="-194.9" style="font-family:Times New Roman;font-size:14.00;">beta</text>
</g>
<!-- 5&#45;&gt;4 -->
<g id="edge18" class="edge"><title>5&#45;&gt;4</title>
<path style="fill:none;stroke:black;" d="M637,-112C632,-97 623,-77 606,-68 567,-45 514,-59 482,-70"/>
<polygon style="fill:black;stroke:black;" points="480.717,-66.7402 473,-74 483.56,-73.1369 480.717,-66.7402"/>
<text text-anchor="middle" x="549" y="-71.9" style="font-family:Times New Roman;font-size:14.00;">fnewHLevent_1</text>
</g>
<!-- 6&#45;&gt;2 -->
<g id="edge20" class="edge"><title>6&#45;&gt;2</title>
<path style="fill:none;stroke:black;" d="M624,-15C591,-10 519,-1 456,-1 252,-1 252,-1 252,-1 179,-1 114,-66 82,-103"/>
<polygon style="fill:black;stroke:black;" points="78.9511,-101.169 75,-111 84.2191,-105.779 78.9511,-101.169"/>
<text text-anchor="middle" x="369" y="-4.9" style="font-family:Times New Roman;font-size:14.00;">gamma</text>
</g>
</g>
</svg>
