<?xml version="1.0" encoding="UTF-8" standalone="no"?>
<!DOCTYPE svg PUBLIC "-//W3C//DTD SVG 1.0//EN"
 "http://www.w3.org/TR/2001/REC-SVG-20010904/DTD/svg10.dtd" [
 <!ATTLIST svg xmlns:xlink CDATA #FIXED "http://www.w3.org/1999/xlink">
]>
<!-- Generated by Graphviz version 2.20.2 (Tue Mar &#160;2 21:46:26 UTC 2010)
     For user: (mtmoor) Prof. Thomas Moor -->
<!-- Title: observer_verification1 Pages: 1 -->
<svg width="1258pt" height="350pt"
 viewBox="0.00 0.00 1258.00 350.00" xmlns="http://www.w3.org/2000/svg" xmlns:xlink="http://www.w3.org/1999/xlink">
<g id="graph0" class="graph" transform="scale(1 1) rotate(0) translate(4 346)">
<title>observer_verification1</title>
<polygon style="fill:none;stroke:none;" points="-4,4 -4,-346 1254,-346 1254,4 -4,4"/>
<!-- dot_dummyinit_1 -->
<g id="node1" class="node"><title>dot_dummyinit_1</title>
</g>
<!-- 1 -->
<g id="node3" class="node"><title>1</title>
<ellipse style="fill:none;stroke:black;" cx="62" cy="-46" rx="18" ry="18"/>
<ellipse style="fill:none;stroke:black;" cx="62" cy="-46" rx="22" ry="22"/>
<text text-anchor="middle" x="62" y="-41.9" style="font-family:Times New Roman;font-size:14.00;">1</text>
</g>
<!-- dot_dummyinit_1&#45;&gt;1 -->
<g id="edge2" class="edge"><title>dot_dummyinit_1&#45;&gt;1</title>
<path style="fill:none;stroke:black;" d="M2,-46C5,-46 17,-46 30,-46"/>
<polygon style="fill:black;stroke:black;" points="30,-49.5001 40,-46 30,-42.5001 30,-49.5001"/>
</g>
<!-- 2 -->
<g id="node4" class="node"><title>2</title>
<ellipse style="fill:none;stroke:black;" cx="252" cy="-97" rx="18" ry="18"/>
<text text-anchor="middle" x="252" y="-92.9" style="font-family:Times New Roman;font-size:14.00;">2</text>
</g>
<!-- 1&#45;&gt;2 -->
<g id="edge4" class="edge"><title>1&#45;&gt;2</title>
<path style="fill:none;stroke:black;" d="M83,-54C89,-56 96,-58 102,-60 144,-73 194,-84 224,-91"/>
<polygon style="fill:black;stroke:black;" points="223.508,-94.4708 234,-93 224.881,-87.6067 223.508,-94.4708"/>
<text text-anchor="middle" x="159" y="-90.9" style="font-family:Times New Roman;font-size:14.00;">dnewHLevent_1</text>
</g>
<!-- 3 -->
<g id="node5" class="node"><title>3</title>
<ellipse style="fill:none;stroke:black;" cx="334" cy="-151" rx="18" ry="18"/>
<text text-anchor="middle" x="334" y="-146.9" style="font-family:Times New Roman;font-size:14.00;">3</text>
</g>
<!-- 2&#45;&gt;3 -->
<g id="edge8" class="edge"><title>2&#45;&gt;3</title>
<path style="fill:none;stroke:black;" d="M267,-107C279,-114 296,-126 310,-135"/>
<polygon style="fill:black;stroke:black;" points="308.738,-138.365 319,-141 312.621,-132.541 308.738,-138.365"/>
<text text-anchor="middle" x="293" y="-128.9" style="font-family:Times New Roman;font-size:14.00;">h</text>
</g>
<!-- 4 -->
<g id="node6" class="node"><title>4</title>
<ellipse style="fill:none;stroke:black;" cx="334" cy="-97" rx="18" ry="18"/>
<text text-anchor="middle" x="334" y="-92.9" style="font-family:Times New Roman;font-size:14.00;">4</text>
</g>
<!-- 2&#45;&gt;4 -->
<g id="edge6" class="edge"><title>2&#45;&gt;4</title>
<path style="fill:none;stroke:black;" d="M270,-97C280,-97 294,-97 306,-97"/>
<polygon style="fill:black;stroke:black;" points="306,-100.5 316,-97 306,-93.5001 306,-100.5"/>
<text text-anchor="middle" x="293" y="-100.9" style="font-family:Times New Roman;font-size:14.00;">b</text>
</g>
<!-- 5 -->
<g id="node7" class="node"><title>5</title>
<ellipse style="fill:none;stroke:black;" cx="414" cy="-151" rx="18" ry="18"/>
<text text-anchor="middle" x="414" y="-146.9" style="font-family:Times New Roman;font-size:14.00;">5</text>
</g>
<!-- 3&#45;&gt;5 -->
<g id="edge10" class="edge"><title>3&#45;&gt;5</title>
<path style="fill:none;stroke:black;" d="M352,-151C362,-151 375,-151 386,-151"/>
<polygon style="fill:black;stroke:black;" points="386,-154.5 396,-151 386,-147.5 386,-154.5"/>
<text text-anchor="middle" x="374" y="-154.9" style="font-family:Times New Roman;font-size:14.00;">i</text>
</g>
<!-- 4&#45;&gt;5 -->
<g id="edge12" class="edge"><title>4&#45;&gt;5</title>
<path style="fill:none;stroke:black;" d="M349,-107C360,-115 377,-126 391,-135"/>
<polygon style="fill:black;stroke:black;" points="388.9,-137.8 399,-141 393.1,-132.2 388.9,-137.8"/>
<text text-anchor="middle" x="374" y="-128.9" style="font-family:Times New Roman;font-size:14.00;">b</text>
</g>
<!-- 6 -->
<g id="node8" class="node"><title>6</title>
<ellipse style="fill:none;stroke:black;" cx="524" cy="-168" rx="18" ry="18"/>
<text text-anchor="middle" x="524" y="-163.9" style="font-family:Times New Roman;font-size:14.00;">6</text>
</g>
<!-- 5&#45;&gt;6 -->
<g id="edge14" class="edge"><title>5&#45;&gt;6</title>
<path style="fill:none;stroke:black;" d="M432,-154C449,-157 476,-161 496,-164"/>
<polygon style="fill:black;stroke:black;" points="495.701,-167.488 506,-165 496.398,-160.522 495.701,-167.488"/>
<text text-anchor="middle" x="469" y="-164.9" style="font-family:Times New Roman;font-size:14.00;">alpha</text>
</g>
<!-- 7 -->
<g id="node9" class="node"><title>7</title>
<ellipse style="fill:none;stroke:black;" cx="611" cy="-168" rx="18" ry="18"/>
<text text-anchor="middle" x="611" y="-163.9" style="font-family:Times New Roman;font-size:14.00;">7</text>
</g>
<!-- 6&#45;&gt;7 -->
<g id="edge16" class="edge"><title>6&#45;&gt;7</title>
<path style="fill:none;stroke:black;" d="M542,-168C554,-168 569,-168 583,-168"/>
<polygon style="fill:black;stroke:black;" points="583,-171.5 593,-168 583,-164.5 583,-171.5"/>
<text text-anchor="middle" x="564" y="-171.9" style="font-family:Times New Roman;font-size:14.00;">a</text>
</g>
<!-- 9 -->
<g id="node11" class="node"><title>9</title>
<ellipse style="fill:none;stroke:black;" cx="698" cy="-280" rx="18" ry="18"/>
<text text-anchor="middle" x="698" y="-275.9" style="font-family:Times New Roman;font-size:14.00;">9</text>
</g>
<!-- 6&#45;&gt;9 -->
<g id="edge18" class="edge"><title>6&#45;&gt;9</title>
<path style="fill:none;stroke:black;" d="M538,-179C562,-197 611,-233 654,-259 660,-262 666,-265 672,-268"/>
<polygon style="fill:black;stroke:black;" points="670.44,-271.137 681,-272 673.283,-264.74 670.44,-271.137"/>
<text text-anchor="middle" x="611" y="-248.9" style="font-family:Times New Roman;font-size:14.00;">e</text>
</g>
<!-- 8 -->
<g id="node10" class="node"><title>8</title>
<ellipse style="fill:none;stroke:black;" cx="907" cy="-124" rx="18" ry="18"/>
<text text-anchor="middle" x="907" y="-119.9" style="font-family:Times New Roman;font-size:14.00;">8</text>
</g>
<!-- 7&#45;&gt;8 -->
<g id="edge20" class="edge"><title>7&#45;&gt;8</title>
<path style="fill:none;stroke:black;" d="M629,-163C636,-161 646,-158 654,-157 736,-141 832,-131 879,-127"/>
<polygon style="fill:black;stroke:black;" points="879.398,-130.478 889,-126 878.701,-123.512 879.398,-130.478"/>
<text text-anchor="middle" x="738" y="-145.9" style="font-family:Times New Roman;font-size:14.00;">b</text>
</g>
<!-- 7&#45;&gt;9 -->
<g id="edge24" class="edge"><title>7&#45;&gt;9</title>
<path style="fill:none;stroke:black;" d="M621,-183C629,-197 642,-216 654,-232 662,-241 670,-251 678,-260"/>
<polygon style="fill:black;stroke:black;" points="675.454,-262.404 685,-267 680.404,-257.454 675.454,-262.404"/>
<text text-anchor="middle" x="658" y="-241.9" style="font-family:Times New Roman;font-size:14.00;">e</text>
</g>
<!-- 10 -->
<g id="node12" class="node"><title>10</title>
<ellipse style="fill:none;stroke:black;" cx="783" cy="-195" rx="23.1233" ry="23.1233"/>
<text text-anchor="middle" x="783" y="-190.9" style="font-family:Times New Roman;font-size:14.00;">10</text>
</g>
<!-- 7&#45;&gt;10 -->
<g id="edge22" class="edge"><title>7&#45;&gt;10</title>
<path style="fill:none;stroke:black;" d="M628,-174C636,-176 646,-179 654,-182 666,-185 669,-187 680,-189 703,-192 730,-194 750,-195"/>
<polygon style="fill:black;stroke:black;" points="750,-198.5 760,-195 750,-191.5 750,-198.5"/>
<text text-anchor="middle" x="698" y="-194.9" style="font-family:Times New Roman;font-size:14.00;">c</text>
</g>
<!-- 8&#45;&gt;1 -->
<g id="edge26" class="edge"><title>8&#45;&gt;1</title>
<path style="fill:none;stroke:black;" d="M895,-110C875,-88 831,-46 783,-46 252,-46 252,-46 252,-46 196,-46 132,-46 94,-46"/>
<polygon style="fill:black;stroke:black;" points="94,-42.5001 84,-46 94,-49.5001 94,-42.5001"/>
<text text-anchor="middle" x="524" y="-49.9" style="font-family:Times New Roman;font-size:14.00;">beta</text>
</g>
<!-- 8&#45;&gt;7 -->
<g id="edge28" class="edge"><title>8&#45;&gt;7</title>
<path style="fill:none;stroke:black;" d="M889,-121C858,-117 790,-111 734,-121 699,-127 661,-143 636,-155"/>
<polygon style="fill:black;stroke:black;" points="634.042,-152.084 627,-160 637.441,-158.203 634.042,-152.084"/>
<text text-anchor="middle" x="738" y="-124.9" style="font-family:Times New Roman;font-size:14.00;">c</text>
</g>
<!-- 11 -->
<g id="node13" class="node"><title>11</title>
<ellipse style="fill:none;stroke:black;" cx="1031" cy="-164" rx="23.1233" ry="23.1233"/>
<text text-anchor="middle" x="1031" y="-159.9" style="font-family:Times New Roman;font-size:14.00;">11</text>
</g>
<!-- 8&#45;&gt;11 -->
<g id="edge30" class="edge"><title>8&#45;&gt;11</title>
<path style="fill:none;stroke:black;" d="M924,-130C943,-136 975,-146 999,-154"/>
<polygon style="fill:black;stroke:black;" points="998.416,-157.479 1009,-157 1000.43,-150.774 998.416,-157.479"/>
<text text-anchor="middle" x="986" y="-152.9" style="font-family:Times New Roman;font-size:14.00;">f</text>
</g>
<!-- 9&#45;&gt;10 -->
<g id="edge34" class="edge"><title>9&#45;&gt;10</title>
<path style="fill:none;stroke:black;" d="M711,-267C724,-254 744,-234 760,-218"/>
<polygon style="fill:black;stroke:black;" points="762.404,-220.546 767,-211 757.454,-215.596 762.404,-220.546"/>
<text text-anchor="middle" x="738" y="-247.9" style="font-family:Times New Roman;font-size:14.00;">g</text>
</g>
<!-- 9&#45;&gt;11 -->
<g id="edge32" class="edge"><title>9&#45;&gt;11</title>
<path style="fill:none;stroke:black;" d="M715,-274C724,-271 733,-268 742,-265 836,-232 947,-194 1000,-175"/>
<polygon style="fill:black;stroke:black;" points="1000.62,-178.483 1009,-172 998.406,-171.842 1000.62,-178.483"/>
<text text-anchor="middle" x="828" y="-238.9" style="font-family:Times New Roman;font-size:14.00;">f</text>
</g>
<!-- 12 -->
<g id="node14" class="node"><title>12</title>
<ellipse style="fill:none;stroke:black;" cx="1227" cy="-164" rx="23.1233" ry="23.1233"/>
<text text-anchor="middle" x="1227" y="-159.9" style="font-family:Times New Roman;font-size:14.00;">12</text>
</g>
<!-- 9&#45;&gt;12 -->
<g id="edge36" class="edge"><title>9&#45;&gt;12</title>
<path style="fill:none;stroke:black;" d="M711,-292C727,-306 755,-326 783,-326 783,-326 783,-326 1031,-326 1115,-326 1181,-240 1211,-193"/>
<polygon style="fill:black;stroke:black;" points="1214.2,-194.441 1216,-184 1208.08,-191.042 1214.2,-194.441"/>
<text text-anchor="middle" x="907" y="-329.9" style="font-family:Times New Roman;font-size:14.00;">hnewHLevent_2</text>
</g>
<!-- 10&#45;&gt;7 -->
<g id="edge38" class="edge"><title>10&#45;&gt;7</title>
<path style="fill:none;stroke:black;" d="M763,-183C750,-176 733,-168 716,-165 690,-159 660,-161 639,-164"/>
<polygon style="fill:black;stroke:black;" points="638.602,-160.522 629,-165 639.299,-167.488 638.602,-160.522"/>
<text text-anchor="middle" x="698" y="-168.9" style="font-family:Times New Roman;font-size:14.00;">b</text>
</g>
<!-- 10&#45;&gt;8 -->
<g id="edge40" class="edge"><title>10&#45;&gt;8</title>
<path style="fill:none;stroke:black;" d="M803,-183C824,-171 859,-151 882,-138"/>
<polygon style="fill:black;stroke:black;" points="883.958,-140.916 891,-133 880.559,-134.797 883.958,-140.916"/>
<text text-anchor="middle" x="828" y="-174.9" style="font-family:Times New Roman;font-size:14.00;">d</text>
</g>
<!-- 11&#45;&gt;8 -->
<g id="edge42" class="edge"><title>11&#45;&gt;8</title>
<path style="fill:none;stroke:black;" d="M1017,-146C1010,-138 1001,-130 990,-126 973,-119 952,-119 935,-120"/>
<polygon style="fill:black;stroke:black;" points="934.602,-116.522 925,-121 935.299,-123.488 934.602,-116.522"/>
<text text-anchor="middle" x="986" y="-129.9" style="font-family:Times New Roman;font-size:14.00;">g</text>
</g>
<!-- 11&#45;&gt;12 -->
<g id="edge44" class="edge"><title>11&#45;&gt;12</title>
<path style="fill:none;stroke:black;" d="M1054,-164C1089,-164 1154,-164 1194,-164"/>
<polygon style="fill:black;stroke:black;" points="1194,-167.5 1204,-164 1194,-160.5 1194,-167.5"/>
<text text-anchor="middle" x="1129" y="-167.9" style="font-family:Times New Roman;font-size:14.00;">hnewHLevent_2</text>
</g>
<!-- 12&#45;&gt;1 -->
<g id="edge46" class="edge"><title>12&#45;&gt;1</title>
<path style="fill:none;stroke:black;" d="M1216,-144C1189,-100 1120,-1 1031,-0 252,-0 252,-0 252,-0 194,-1 129,-21 93,-34"/>
<polygon style="fill:black;stroke:black;" points="90.9849,-31.0364 83,-38 93.5847,-37.5357 90.9849,-31.0364"/>
<text text-anchor="middle" x="611" y="-4.9" style="font-family:Times New Roman;font-size:14.00;">gamma</text>
</g>
</g>
</svg>
