<?xml version="1.0" encoding="UTF-8" standalone="no"?>
<!DOCTYPE svg PUBLIC "-//W3C//DTD SVG 1.0//EN"
 "http://www.w3.org/TR/2001/REC-SVG-20010904/DTD/svg10.dtd" [
 <!ATTLIST svg xmlns:xlink CDATA #FIXED "http://www.w3.org/1999/xlink">
]>
<!-- Generated by Graphviz version 2.20.2 (Tue Mar &#160;2 21:46:26 UTC 2010)
     For user: (mtmoor) Prof. Thomas Moor -->
<!-- Title: Project(observer_verification1) Pages: 1 -->
<svg width="510pt" height="190pt"
 viewBox="0.00 0.00 510.00 190.00" xmlns="http://www.w3.org/2000/svg" xmlns:xlink="http://www.w3.org/1999/xlink">
<g id="graph0" class="graph" transform="scale(1 1) rotate(0) translate(4 186)">
<title>Project(observer_verification1)</title>
<polygon style="fill:none;stroke:none;" points="-4,4 -4,-186 506,-186 506,4 -4,4"/>
<!-- dot_dummyinit_1 -->
<g id="node1" class="node"><title>dot_dummyinit_1</title>
</g>
<!-- 2 -->
<g id="node3" class="node"><title>2</title>
<ellipse style="fill:none;stroke:black;" cx="62" cy="-136" rx="18" ry="18"/>
<ellipse style="fill:none;stroke:black;" cx="62" cy="-136" rx="22" ry="22"/>
<text text-anchor="middle" x="62" y="-131.9" style="font-family:Times New Roman;font-size:14.00;">2</text>
</g>
<!-- dot_dummyinit_1&#45;&gt;2 -->
<g id="edge2" class="edge"><title>dot_dummyinit_1&#45;&gt;2</title>
<path style="fill:none;stroke:black;" d="M2,-136C5,-136 17,-136 30,-136"/>
<polygon style="fill:black;stroke:black;" points="30,-139.5 40,-136 30,-132.5 30,-139.5"/>
</g>
<!-- 1 -->
<g id="node4" class="node"><title>1</title>
<ellipse style="fill:none;stroke:black;" cx="176" cy="-136" rx="18" ry="18"/>
<text text-anchor="middle" x="176" y="-131.9" style="font-family:Times New Roman;font-size:14.00;">1</text>
</g>
<!-- 2&#45;&gt;1 -->
<g id="edge8" class="edge"><title>2&#45;&gt;1</title>
<path style="fill:none;stroke:black;" d="M84,-136C102,-136 128,-136 148,-136"/>
<polygon style="fill:black;stroke:black;" points="148,-139.5 158,-136 148,-132.5 148,-139.5"/>
<text text-anchor="middle" x="121" y="-139.9" style="font-family:Times New Roman;font-size:14.00;">alpha</text>
</g>
<!-- 3 -->
<g id="node5" class="node"><title>3</title>
<ellipse style="fill:none;stroke:black;" cx="298" cy="-83" rx="18" ry="18"/>
<text text-anchor="middle" x="298" y="-78.9" style="font-family:Times New Roman;font-size:14.00;">3</text>
</g>
<!-- 1&#45;&gt;3 -->
<g id="edge6" class="edge"><title>1&#45;&gt;3</title>
<path style="fill:none;stroke:black;" d="M191,-126C198,-122 205,-118 212,-115 231,-106 254,-97 271,-91"/>
<polygon style="fill:black;stroke:black;" points="272.427,-94.2259 281,-88 270.416,-87.5212 272.427,-94.2259"/>
<text text-anchor="middle" x="237" y="-118.9" style="font-family:Times New Roman;font-size:14.00;">e</text>
</g>
<!-- 4 -->
<g id="node6" class="node"><title>4</title>
<ellipse style="fill:none;stroke:black;" cx="484" cy="-130" rx="18" ry="18"/>
<text text-anchor="middle" x="484" y="-125.9" style="font-family:Times New Roman;font-size:14.00;">4</text>
</g>
<!-- 1&#45;&gt;4 -->
<g id="edge4" class="edge"><title>1&#45;&gt;4</title>
<path style="fill:none;stroke:black;" d="M194,-136C238,-136 353,-135 448,-132 451,-132 453,-132 456,-132"/>
<polygon style="fill:black;stroke:black;" points="456.398,-135.478 466,-131 455.701,-128.512 456.398,-135.478"/>
<text text-anchor="middle" x="298" y="-137.9" style="font-family:Times New Roman;font-size:14.00;">a</text>
</g>
<!-- 3&#45;&gt;4 -->
<g id="edge10" class="edge"><title>3&#45;&gt;4</title>
<path style="fill:none;stroke:black;" d="M316,-87C321,-89 328,-91 334,-92 385,-103 399,-99 448,-115 451,-116 455,-117 458,-119"/>
<polygon style="fill:black;stroke:black;" points="457.416,-122.479 468,-122 459.427,-115.774 457.416,-122.479"/>
<text text-anchor="middle" x="391" y="-118.9" style="font-family:Times New Roman;font-size:14.00;">g</text>
</g>
<!-- 5 -->
<g id="node7" class="node"><title>5</title>
<ellipse style="fill:none;stroke:black;" cx="484" cy="-18" rx="18" ry="18"/>
<text text-anchor="middle" x="484" y="-13.9" style="font-family:Times New Roman;font-size:14.00;">5</text>
</g>
<!-- 3&#45;&gt;5 -->
<g id="edge12" class="edge"><title>3&#45;&gt;5</title>
<path style="fill:none;stroke:black;" d="M305,-66C311,-54 321,-39 334,-31 354,-19 418,-17 456,-18"/>
<polygon style="fill:black;stroke:black;" points="456,-21.5001 466,-18 456,-14.5001 456,-21.5001"/>
<text text-anchor="middle" x="391" y="-34.9" style="font-family:Times New Roman;font-size:14.00;">hnewHLevent_5</text>
</g>
<!-- 4&#45;&gt;2 -->
<g id="edge14" class="edge"><title>4&#45;&gt;2</title>
<path style="fill:none;stroke:black;" d="M468,-138C462,-141 455,-144 448,-146 323,-177 287,-169 158,-163 134,-161 126,-164 102,-157 98,-156 94,-154 90,-152"/>
<polygon style="fill:black;stroke:black;" points="91.5596,-148.863 81,-148 88.7166,-155.26 91.5596,-148.863"/>
<text text-anchor="middle" x="237" y="-169.9" style="font-family:Times New Roman;font-size:14.00;">beta</text>
</g>
<!-- 4&#45;&gt;3 -->
<g id="edge16" class="edge"><title>4&#45;&gt;3</title>
<path style="fill:none;stroke:black;" d="M479,-112C474,-97 465,-77 448,-68 405,-42 384,-58 334,-68 330,-69 327,-70 323,-71"/>
<polygon style="fill:black;stroke:black;" points="321.717,-67.7402 314,-75 324.56,-74.1369 321.717,-67.7402"/>
<text text-anchor="middle" x="391" y="-71.9" style="font-family:Times New Roman;font-size:14.00;">fnewHLevent_2</text>
</g>
<!-- 5&#45;&gt;2 -->
<g id="edge18" class="edge"><title>5&#45;&gt;2</title>
<path style="fill:none;stroke:black;" d="M466,-15C438,-11 381,-5 334,-15 239,-35 138,-90 90,-119"/>
<polygon style="fill:black;stroke:black;" points="88.0418,-116.084 81,-124 91.4414,-122.203 88.0418,-116.084"/>
<text text-anchor="middle" x="237" y="-57.9" style="font-family:Times New Roman;font-size:14.00;">gamma</text>
</g>
</g>
</svg>
