<?xml version="1.0" encoding="UTF-8" standalone="no"?>
<!DOCTYPE svg PUBLIC "-//W3C//DTD SVG 1.0//EN"
 "http://www.w3.org/TR/2001/REC-SVG-20010904/DTD/svg10.dtd" [
 <!ATTLIST svg xmlns:xlink CDATA #FIXED "http://www.w3.org/1999/xlink">
]>
<!-- Generated by Graphviz version 2.20.2 (Tue Mar &#160;2 21:46:26 UTC 2010)
     For user: (mtmoor) Prof. Thomas Moor -->
<!-- Title: observer_verification1 Pages: 1 -->
<svg width="1202pt" height="337pt"
 viewBox="0.00 0.00 1202.00 337.00" xmlns="http://www.w3.org/2000/svg" xmlns:xlink="http://www.w3.org/1999/xlink">
<g id="graph0" class="graph" transform="scale(1 1) rotate(0) translate(4 333)">
<title>observer_verification1</title>
<polygon style="fill:none;stroke:none;" points="-4,4 -4,-333 1198,-333 1198,4 -4,4"/>
<!-- dot_dummyinit_1 -->
<g id="node1" class="node"><title>dot_dummyinit_1</title>
</g>
<!-- 1 -->
<g id="node3" class="node"><title>1</title>
<ellipse style="fill:none;stroke:black;" cx="62" cy="-38" rx="18" ry="18"/>
<ellipse style="fill:none;stroke:black;" cx="62" cy="-38" rx="22" ry="22"/>
<text text-anchor="middle" x="62" y="-33.9" style="font-family:Times New Roman;font-size:14.00;">1</text>
</g>
<!-- dot_dummyinit_1&#45;&gt;1 -->
<g id="edge2" class="edge"><title>dot_dummyinit_1&#45;&gt;1</title>
<path style="fill:none;stroke:black;" d="M2,-38C5,-38 17,-38 30,-38"/>
<polygon style="fill:black;stroke:black;" points="30,-41.5001 40,-38 30,-34.5001 30,-41.5001"/>
</g>
<!-- 2 -->
<g id="node4" class="node"><title>2</title>
<ellipse style="fill:none;stroke:black;" cx="146" cy="-86" rx="18" ry="18"/>
<text text-anchor="middle" x="146" y="-81.9" style="font-family:Times New Roman;font-size:14.00;">2</text>
</g>
<!-- 1&#45;&gt;2 -->
<g id="edge4" class="edge"><title>1&#45;&gt;2</title>
<path style="fill:none;stroke:black;" d="M81,-49C93,-55 108,-64 121,-72"/>
<polygon style="fill:black;stroke:black;" points="119.559,-75.2031 130,-77 122.958,-69.084 119.559,-75.2031"/>
<text text-anchor="middle" x="106" y="-66.9" style="font-family:Times New Roman;font-size:14.00;">d</text>
</g>
<!-- 3 -->
<g id="node5" class="node"><title>3</title>
<ellipse style="fill:none;stroke:black;" cx="228" cy="-140" rx="18" ry="18"/>
<text text-anchor="middle" x="228" y="-135.9" style="font-family:Times New Roman;font-size:14.00;">3</text>
</g>
<!-- 2&#45;&gt;3 -->
<g id="edge8" class="edge"><title>2&#45;&gt;3</title>
<path style="fill:none;stroke:black;" d="M161,-96C173,-103 190,-115 204,-124"/>
<polygon style="fill:black;stroke:black;" points="202.738,-127.365 213,-130 206.621,-121.541 202.738,-127.365"/>
<text text-anchor="middle" x="187" y="-117.9" style="font-family:Times New Roman;font-size:14.00;">h</text>
</g>
<!-- 4 -->
<g id="node6" class="node"><title>4</title>
<ellipse style="fill:none;stroke:black;" cx="228" cy="-86" rx="18" ry="18"/>
<text text-anchor="middle" x="228" y="-81.9" style="font-family:Times New Roman;font-size:14.00;">4</text>
</g>
<!-- 2&#45;&gt;4 -->
<g id="edge6" class="edge"><title>2&#45;&gt;4</title>
<path style="fill:none;stroke:black;" d="M164,-86C174,-86 188,-86 200,-86"/>
<polygon style="fill:black;stroke:black;" points="200,-89.5001 210,-86 200,-82.5001 200,-89.5001"/>
<text text-anchor="middle" x="187" y="-89.9" style="font-family:Times New Roman;font-size:14.00;">b</text>
</g>
<!-- 5 -->
<g id="node7" class="node"><title>5</title>
<ellipse style="fill:none;stroke:black;" cx="308" cy="-140" rx="18" ry="18"/>
<text text-anchor="middle" x="308" y="-135.9" style="font-family:Times New Roman;font-size:14.00;">5</text>
</g>
<!-- 3&#45;&gt;5 -->
<g id="edge10" class="edge"><title>3&#45;&gt;5</title>
<path style="fill:none;stroke:black;" d="M246,-140C256,-140 269,-140 280,-140"/>
<polygon style="fill:black;stroke:black;" points="280,-143.5 290,-140 280,-136.5 280,-143.5"/>
<text text-anchor="middle" x="268" y="-143.9" style="font-family:Times New Roman;font-size:14.00;">i</text>
</g>
<!-- 4&#45;&gt;5 -->
<g id="edge12" class="edge"><title>4&#45;&gt;5</title>
<path style="fill:none;stroke:black;" d="M243,-96C254,-104 271,-115 285,-124"/>
<polygon style="fill:black;stroke:black;" points="282.9,-126.8 293,-130 287.1,-121.2 282.9,-126.8"/>
<text text-anchor="middle" x="268" y="-117.9" style="font-family:Times New Roman;font-size:14.00;">b</text>
</g>
<!-- 6 -->
<g id="node8" class="node"><title>6</title>
<ellipse style="fill:none;stroke:black;" cx="418" cy="-152" rx="18" ry="18"/>
<text text-anchor="middle" x="418" y="-147.9" style="font-family:Times New Roman;font-size:14.00;">6</text>
</g>
<!-- 5&#45;&gt;6 -->
<g id="edge14" class="edge"><title>5&#45;&gt;6</title>
<path style="fill:none;stroke:black;" d="M326,-142C343,-144 370,-147 390,-149"/>
<polygon style="fill:black;stroke:black;" points="389.701,-152.488 400,-150 390.398,-145.522 389.701,-152.488"/>
<text text-anchor="middle" x="363" y="-150.9" style="font-family:Times New Roman;font-size:14.00;">alpha</text>
</g>
<!-- 7 -->
<g id="node9" class="node"><title>7</title>
<ellipse style="fill:none;stroke:black;" cx="540" cy="-152" rx="18" ry="18"/>
<text text-anchor="middle" x="540" y="-147.9" style="font-family:Times New Roman;font-size:14.00;">7</text>
</g>
<!-- 6&#45;&gt;7 -->
<g id="edge16" class="edge"><title>6&#45;&gt;7</title>
<path style="fill:none;stroke:black;" d="M436,-152C456,-152 488,-152 512,-152"/>
<polygon style="fill:black;stroke:black;" points="512,-155.5 522,-152 512,-148.5 512,-155.5"/>
<text text-anchor="middle" x="479" y="-155.9" style="font-family:Times New Roman;font-size:14.00;">a</text>
</g>
<!-- 9 -->
<g id="node11" class="node"><title>9</title>
<ellipse style="fill:none;stroke:black;" cx="540" cy="-251" rx="18" ry="18"/>
<text text-anchor="middle" x="540" y="-246.9" style="font-family:Times New Roman;font-size:14.00;">9</text>
</g>
<!-- 6&#45;&gt;9 -->
<g id="edge18" class="edge"><title>6&#45;&gt;9</title>
<path style="fill:none;stroke:black;" d="M432,-163C453,-180 493,-212 518,-233"/>
<polygon style="fill:black;stroke:black;" points="515.9,-235.8 526,-239 520.1,-230.2 515.9,-235.8"/>
<text text-anchor="middle" x="479" y="-221.9" style="font-family:Times New Roman;font-size:14.00;">e</text>
</g>
<!-- 8 -->
<g id="node10" class="node"><title>8</title>
<ellipse style="fill:none;stroke:black;" cx="749" cy="-137" rx="18" ry="18"/>
<text text-anchor="middle" x="749" y="-132.9" style="font-family:Times New Roman;font-size:14.00;">8</text>
</g>
<!-- 7&#45;&gt;8 -->
<g id="edge20" class="edge"><title>7&#45;&gt;8</title>
<path style="fill:none;stroke:black;" d="M558,-149C564,-148 570,-147 576,-147 627,-142 686,-139 721,-137"/>
<polygon style="fill:black;stroke:black;" points="721,-140.5 731,-137 721,-133.5 721,-140.5"/>
<text text-anchor="middle" x="625" y="-147.9" style="font-family:Times New Roman;font-size:14.00;">b</text>
</g>
<!-- 10 -->
<g id="node12" class="node"><title>10</title>
<ellipse style="fill:none;stroke:black;" cx="625" cy="-195" rx="23.1233" ry="23.1233"/>
<text text-anchor="middle" x="625" y="-190.9" style="font-family:Times New Roman;font-size:14.00;">10</text>
</g>
<!-- 7&#45;&gt;10 -->
<g id="edge22" class="edge"><title>7&#45;&gt;10</title>
<path style="fill:none;stroke:black;" d="M558,-151C567,-151 576,-152 584,-156 591,-159 597,-164 603,-169"/>
<polygon style="fill:black;stroke:black;" points="601.169,-172.049 611,-176 605.779,-166.781 601.169,-172.049"/>
<text text-anchor="middle" x="580" y="-159.9" style="font-family:Times New Roman;font-size:14.00;">c</text>
</g>
<!-- 8&#45;&gt;1 -->
<g id="edge24" class="edge"><title>8&#45;&gt;1</title>
<path style="fill:none;stroke:black;" d="M740,-122C721,-94 678,-38 625,-38 146,-38 146,-38 146,-38 129,-38 110,-38 94,-38"/>
<polygon style="fill:black;stroke:black;" points="94,-34.5001 84,-38 94,-41.5001 94,-34.5001"/>
<text text-anchor="middle" x="363" y="-41.9" style="font-family:Times New Roman;font-size:14.00;">beta</text>
</g>
<!-- 8&#45;&gt;7 -->
<g id="edge26" class="edge"><title>8&#45;&gt;7</title>
<path style="fill:none;stroke:black;" d="M732,-131C704,-122 648,-107 602,-119 589,-122 575,-129 564,-136"/>
<polygon style="fill:black;stroke:black;" points="562.042,-133.084 555,-141 565.441,-139.203 562.042,-133.084"/>
<text text-anchor="middle" x="625" y="-122.9" style="font-family:Times New Roman;font-size:14.00;">c</text>
</g>
<!-- 11 -->
<g id="node13" class="node"><title>11</title>
<ellipse style="fill:none;stroke:black;" cx="975" cy="-177" rx="23.1233" ry="23.1233"/>
<text text-anchor="middle" x="975" y="-172.9" style="font-family:Times New Roman;font-size:14.00;">11</text>
</g>
<!-- 8&#45;&gt;11 -->
<g id="edge28" class="edge"><title>8&#45;&gt;11</title>
<path style="fill:none;stroke:black;" d="M767,-142C782,-145 805,-151 824,-155 864,-162 911,-169 942,-173"/>
<polygon style="fill:black;stroke:black;" points="941.701,-176.488 952,-174 942.398,-169.522 941.701,-176.488"/>
<text text-anchor="middle" x="879" y="-173.9" style="font-family:Times New Roman;font-size:14.00;">fnewHLevent_2</text>
</g>
<!-- 9&#45;&gt;10 -->
<g id="edge32" class="edge"><title>9&#45;&gt;10</title>
<path style="fill:none;stroke:black;" d="M555,-241C567,-234 583,-223 597,-213"/>
<polygon style="fill:black;stroke:black;" points="598.958,-215.916 606,-208 595.559,-209.797 598.958,-215.916"/>
<text text-anchor="middle" x="580" y="-230.9" style="font-family:Times New Roman;font-size:14.00;">g</text>
</g>
<!-- 9&#45;&gt;11 -->
<g id="edge30" class="edge"><title>9&#45;&gt;11</title>
<path style="fill:none;stroke:black;" d="M558,-250C566,-250 576,-249 584,-248 741,-229 782,-229 934,-191 937,-190 940,-189 943,-188"/>
<polygon style="fill:black;stroke:black;" points="944.427,-191.226 953,-185 942.416,-184.521 944.427,-191.226"/>
<text text-anchor="middle" x="670" y="-240.9" style="font-family:Times New Roman;font-size:14.00;">f</text>
</g>
<!-- 12 -->
<g id="node14" class="node"><title>12</title>
<ellipse style="fill:none;stroke:black;" cx="1171" cy="-177" rx="23.1233" ry="23.1233"/>
<text text-anchor="middle" x="1171" y="-172.9" style="font-family:Times New Roman;font-size:14.00;">12</text>
</g>
<!-- 9&#45;&gt;12 -->
<g id="edge34" class="edge"><title>9&#45;&gt;12</title>
<path style="fill:none;stroke:black;" d="M551,-266C565,-284 594,-313 625,-313 625,-313 625,-313 975,-313 1052,-313 1119,-243 1151,-204"/>
<polygon style="fill:black;stroke:black;" points="1153.8,-206.1 1157,-196 1148.2,-201.9 1153.8,-206.1"/>
<text text-anchor="middle" x="749" y="-316.9" style="font-family:Times New Roman;font-size:14.00;">hnewHLevent_5</text>
</g>
<!-- 10&#45;&gt;7 -->
<g id="edge36" class="edge"><title>10&#45;&gt;7</title>
<path style="fill:none;stroke:black;" d="M604,-185C595,-182 585,-177 576,-173 572,-171 568,-169 565,-166"/>
<polygon style="fill:black;stroke:black;" points="566.441,-162.797 556,-161 563.042,-168.916 566.441,-162.797"/>
<text text-anchor="middle" x="580" y="-176.9" style="font-family:Times New Roman;font-size:14.00;">b</text>
</g>
<!-- 10&#45;&gt;8 -->
<g id="edge38" class="edge"><title>10&#45;&gt;8</title>
<path style="fill:none;stroke:black;" d="M646,-185C667,-175 700,-160 724,-149"/>
<polygon style="fill:black;stroke:black;" points="725.283,-152.26 733,-145 722.44,-145.863 725.283,-152.26"/>
<text text-anchor="middle" x="670" y="-178.9" style="font-family:Times New Roman;font-size:14.00;">d</text>
</g>
<!-- 11&#45;&gt;8 -->
<g id="edge40" class="edge"><title>11&#45;&gt;8</title>
<path style="fill:none;stroke:black;" d="M963,-157C956,-147 946,-136 934,-131 882,-107 813,-119 776,-129"/>
<polygon style="fill:black;stroke:black;" points="774.573,-125.774 766,-132 776.584,-132.479 774.573,-125.774"/>
<text text-anchor="middle" x="879" y="-134.9" style="font-family:Times New Roman;font-size:14.00;">g</text>
</g>
<!-- 11&#45;&gt;12 -->
<g id="edge42" class="edge"><title>11&#45;&gt;12</title>
<path style="fill:none;stroke:black;" d="M998,-177C1033,-177 1098,-177 1138,-177"/>
<polygon style="fill:black;stroke:black;" points="1138,-180.5 1148,-177 1138,-173.5 1138,-180.5"/>
<text text-anchor="middle" x="1073" y="-180.9" style="font-family:Times New Roman;font-size:14.00;">hnewHLevent_5</text>
</g>
<!-- 12&#45;&gt;1 -->
<g id="edge44" class="edge"><title>12&#45;&gt;1</title>
<path style="fill:none;stroke:black;" d="M1161,-156C1136,-109 1068,-1 975,-0 146,-0 146,-0 146,-0 126,-1 104,-10 89,-19"/>
<polygon style="fill:black;stroke:black;" points="86.3791,-16.5408 80,-25 90.262,-22.3651 86.3791,-16.5408"/>
<text text-anchor="middle" x="479" y="-4.9" style="font-family:Times New Roman;font-size:14.00;">gamma</text>
</g>
</g>
</svg>
