<?xml version="1.0" encoding="UTF-8" standalone="no"?>
<!DOCTYPE svg PUBLIC "-//W3C//DTD SVG 1.0//EN"
 "http://www.w3.org/TR/2001/REC-SVG-20010904/DTD/svg10.dtd" [
 <!ATTLIST svg xmlns:xlink CDATA #FIXED "http://www.w3.org/1999/xlink">
]>
<!-- Generated by Graphviz version 2.20.2 (Tue Mar &#160;2 21:46:26 UTC 2010)
     For user: (mtmoor) Prof. Thomas Moor -->
<!-- Title: observer_verification1 Pages: 1 -->
<svg width="1152pt" height="350pt"
 viewBox="0.00 0.00 1152.00 350.00" xmlns="http://www.w3.org/2000/svg" xmlns:xlink="http://www.w3.org/1999/xlink">
<g id="graph0" class="graph" transform="scale(1 1) rotate(0) translate(4 346)">
<title>observer_verification1</title>
<polygon style="fill:none;stroke:none;" points="-4,4 -4,-346 1148,-346 1148,4 -4,4"/>
<!-- dot_dummyinit_1 -->
<g id="node1" class="node"><title>dot_dummyinit_1</title>
</g>
<!-- 1 -->
<g id="node3" class="node"><title>1</title>
<ellipse style="fill:none;stroke:black;" cx="62" cy="-46" rx="18" ry="18"/>
<ellipse style="fill:none;stroke:black;" cx="62" cy="-46" rx="22" ry="22"/>
<text text-anchor="middle" x="62" y="-41.9" style="font-family:Times New Roman;font-size:14.00;">1</text>
</g>
<!-- dot_dummyinit_1&#45;&gt;1 -->
<g id="edge2" class="edge"><title>dot_dummyinit_1&#45;&gt;1</title>
<path style="fill:none;stroke:black;" d="M2,-46C5,-46 17,-46 30,-46"/>
<polygon style="fill:black;stroke:black;" points="30,-49.5001 40,-46 30,-42.5001 30,-49.5001"/>
</g>
<!-- 2 -->
<g id="node4" class="node"><title>2</title>
<ellipse style="fill:none;stroke:black;" cx="146" cy="-97" rx="18" ry="18"/>
<text text-anchor="middle" x="146" y="-92.9" style="font-family:Times New Roman;font-size:14.00;">2</text>
</g>
<!-- 1&#45;&gt;2 -->
<g id="edge4" class="edge"><title>1&#45;&gt;2</title>
<path style="fill:none;stroke:black;" d="M81,-58C93,-65 109,-74 122,-82"/>
<polygon style="fill:black;stroke:black;" points="119.9,-84.8 130,-88 124.1,-79.2 119.9,-84.8"/>
<text text-anchor="middle" x="106" y="-76.9" style="font-family:Times New Roman;font-size:14.00;">d</text>
</g>
<!-- 3 -->
<g id="node5" class="node"><title>3</title>
<ellipse style="fill:none;stroke:black;" cx="228" cy="-151" rx="18" ry="18"/>
<text text-anchor="middle" x="228" y="-146.9" style="font-family:Times New Roman;font-size:14.00;">3</text>
</g>
<!-- 2&#45;&gt;3 -->
<g id="edge8" class="edge"><title>2&#45;&gt;3</title>
<path style="fill:none;stroke:black;" d="M161,-107C173,-114 190,-126 204,-135"/>
<polygon style="fill:black;stroke:black;" points="202.738,-138.365 213,-141 206.621,-132.541 202.738,-138.365"/>
<text text-anchor="middle" x="187" y="-128.9" style="font-family:Times New Roman;font-size:14.00;">h</text>
</g>
<!-- 4 -->
<g id="node6" class="node"><title>4</title>
<ellipse style="fill:none;stroke:black;" cx="228" cy="-97" rx="18" ry="18"/>
<text text-anchor="middle" x="228" y="-92.9" style="font-family:Times New Roman;font-size:14.00;">4</text>
</g>
<!-- 2&#45;&gt;4 -->
<g id="edge6" class="edge"><title>2&#45;&gt;4</title>
<path style="fill:none;stroke:black;" d="M164,-97C174,-97 188,-97 200,-97"/>
<polygon style="fill:black;stroke:black;" points="200,-100.5 210,-97 200,-93.5001 200,-100.5"/>
<text text-anchor="middle" x="187" y="-100.9" style="font-family:Times New Roman;font-size:14.00;">b</text>
</g>
<!-- 5 -->
<g id="node7" class="node"><title>5</title>
<ellipse style="fill:none;stroke:black;" cx="308" cy="-151" rx="18" ry="18"/>
<text text-anchor="middle" x="308" y="-146.9" style="font-family:Times New Roman;font-size:14.00;">5</text>
</g>
<!-- 3&#45;&gt;5 -->
<g id="edge10" class="edge"><title>3&#45;&gt;5</title>
<path style="fill:none;stroke:black;" d="M246,-151C256,-151 269,-151 280,-151"/>
<polygon style="fill:black;stroke:black;" points="280,-154.5 290,-151 280,-147.5 280,-154.5"/>
<text text-anchor="middle" x="268" y="-154.9" style="font-family:Times New Roman;font-size:14.00;">i</text>
</g>
<!-- 4&#45;&gt;5 -->
<g id="edge12" class="edge"><title>4&#45;&gt;5</title>
<path style="fill:none;stroke:black;" d="M243,-107C254,-115 271,-126 285,-135"/>
<polygon style="fill:black;stroke:black;" points="282.9,-137.8 293,-141 287.1,-132.2 282.9,-137.8"/>
<text text-anchor="middle" x="268" y="-128.9" style="font-family:Times New Roman;font-size:14.00;">b</text>
</g>
<!-- 6 -->
<g id="node8" class="node"><title>6</title>
<ellipse style="fill:none;stroke:black;" cx="418" cy="-168" rx="18" ry="18"/>
<text text-anchor="middle" x="418" y="-163.9" style="font-family:Times New Roman;font-size:14.00;">6</text>
</g>
<!-- 5&#45;&gt;6 -->
<g id="edge14" class="edge"><title>5&#45;&gt;6</title>
<path style="fill:none;stroke:black;" d="M326,-154C343,-157 370,-161 390,-164"/>
<polygon style="fill:black;stroke:black;" points="389.701,-167.488 400,-165 390.398,-160.522 389.701,-167.488"/>
<text text-anchor="middle" x="363" y="-164.9" style="font-family:Times New Roman;font-size:14.00;">alpha</text>
</g>
<!-- 7 -->
<g id="node9" class="node"><title>7</title>
<ellipse style="fill:none;stroke:black;" cx="505" cy="-168" rx="18" ry="18"/>
<text text-anchor="middle" x="505" y="-163.9" style="font-family:Times New Roman;font-size:14.00;">7</text>
</g>
<!-- 6&#45;&gt;7 -->
<g id="edge16" class="edge"><title>6&#45;&gt;7</title>
<path style="fill:none;stroke:black;" d="M436,-168C448,-168 463,-168 477,-168"/>
<polygon style="fill:black;stroke:black;" points="477,-171.5 487,-168 477,-164.5 477,-171.5"/>
<text text-anchor="middle" x="458" y="-171.9" style="font-family:Times New Roman;font-size:14.00;">a</text>
</g>
<!-- 9 -->
<g id="node11" class="node"><title>9</title>
<ellipse style="fill:none;stroke:black;" cx="592" cy="-280" rx="18" ry="18"/>
<text text-anchor="middle" x="592" y="-275.9" style="font-family:Times New Roman;font-size:14.00;">9</text>
</g>
<!-- 6&#45;&gt;9 -->
<g id="edge18" class="edge"><title>6&#45;&gt;9</title>
<path style="fill:none;stroke:black;" d="M432,-179C456,-197 505,-233 548,-259 554,-262 560,-265 566,-268"/>
<polygon style="fill:black;stroke:black;" points="564.44,-271.137 575,-272 567.283,-264.74 564.44,-271.137"/>
<text text-anchor="middle" x="505" y="-248.9" style="font-family:Times New Roman;font-size:14.00;">e</text>
</g>
<!-- 8 -->
<g id="node10" class="node"><title>8</title>
<ellipse style="fill:none;stroke:black;" cx="801" cy="-124" rx="18" ry="18"/>
<text text-anchor="middle" x="801" y="-119.9" style="font-family:Times New Roman;font-size:14.00;">8</text>
</g>
<!-- 7&#45;&gt;8 -->
<g id="edge20" class="edge"><title>7&#45;&gt;8</title>
<path style="fill:none;stroke:black;" d="M523,-163C530,-161 540,-158 548,-157 630,-141 726,-131 773,-127"/>
<polygon style="fill:black;stroke:black;" points="773.398,-130.478 783,-126 772.701,-123.512 773.398,-130.478"/>
<text text-anchor="middle" x="632" y="-145.9" style="font-family:Times New Roman;font-size:14.00;">b</text>
</g>
<!-- 7&#45;&gt;9 -->
<g id="edge24" class="edge"><title>7&#45;&gt;9</title>
<path style="fill:none;stroke:black;" d="M515,-183C523,-197 536,-216 548,-232 556,-241 564,-251 572,-260"/>
<polygon style="fill:black;stroke:black;" points="569.454,-262.404 579,-267 574.404,-257.454 569.454,-262.404"/>
<text text-anchor="middle" x="552" y="-241.9" style="font-family:Times New Roman;font-size:14.00;">e</text>
</g>
<!-- 10 -->
<g id="node12" class="node"><title>10</title>
<ellipse style="fill:none;stroke:black;" cx="677" cy="-195" rx="23.1233" ry="23.1233"/>
<text text-anchor="middle" x="677" y="-190.9" style="font-family:Times New Roman;font-size:14.00;">10</text>
</g>
<!-- 7&#45;&gt;10 -->
<g id="edge22" class="edge"><title>7&#45;&gt;10</title>
<path style="fill:none;stroke:black;" d="M522,-174C530,-176 540,-179 548,-182 560,-185 563,-187 574,-189 597,-192 624,-194 644,-195"/>
<polygon style="fill:black;stroke:black;" points="644,-198.5 654,-195 644,-191.5 644,-198.5"/>
<text text-anchor="middle" x="592" y="-194.9" style="font-family:Times New Roman;font-size:14.00;">c</text>
</g>
<!-- 8&#45;&gt;1 -->
<g id="edge26" class="edge"><title>8&#45;&gt;1</title>
<path style="fill:none;stroke:black;" d="M789,-110C769,-88 725,-46 677,-46 146,-46 146,-46 146,-46 129,-46 110,-46 94,-46"/>
<polygon style="fill:black;stroke:black;" points="94,-42.5001 84,-46 94,-49.5001 94,-42.5001"/>
<text text-anchor="middle" x="418" y="-49.9" style="font-family:Times New Roman;font-size:14.00;">beta</text>
</g>
<!-- 8&#45;&gt;7 -->
<g id="edge28" class="edge"><title>8&#45;&gt;7</title>
<path style="fill:none;stroke:black;" d="M783,-121C752,-117 684,-111 628,-121 593,-127 555,-143 530,-155"/>
<polygon style="fill:black;stroke:black;" points="528.042,-152.084 521,-160 531.441,-158.203 528.042,-152.084"/>
<text text-anchor="middle" x="632" y="-124.9" style="font-family:Times New Roman;font-size:14.00;">c</text>
</g>
<!-- 11 -->
<g id="node13" class="node"><title>11</title>
<ellipse style="fill:none;stroke:black;" cx="925" cy="-164" rx="23.1233" ry="23.1233"/>
<text text-anchor="middle" x="925" y="-159.9" style="font-family:Times New Roman;font-size:14.00;">11</text>
</g>
<!-- 8&#45;&gt;11 -->
<g id="edge30" class="edge"><title>8&#45;&gt;11</title>
<path style="fill:none;stroke:black;" d="M818,-130C837,-136 869,-146 893,-154"/>
<polygon style="fill:black;stroke:black;" points="892.416,-157.479 903,-157 894.427,-150.774 892.416,-157.479"/>
<text text-anchor="middle" x="880" y="-152.9" style="font-family:Times New Roman;font-size:14.00;">f</text>
</g>
<!-- 9&#45;&gt;10 -->
<g id="edge34" class="edge"><title>9&#45;&gt;10</title>
<path style="fill:none;stroke:black;" d="M605,-267C618,-254 638,-234 654,-218"/>
<polygon style="fill:black;stroke:black;" points="656.404,-220.546 661,-211 651.454,-215.596 656.404,-220.546"/>
<text text-anchor="middle" x="632" y="-247.9" style="font-family:Times New Roman;font-size:14.00;">g</text>
</g>
<!-- 9&#45;&gt;11 -->
<g id="edge32" class="edge"><title>9&#45;&gt;11</title>
<path style="fill:none;stroke:black;" d="M609,-274C618,-271 627,-268 636,-265 730,-232 841,-194 894,-175"/>
<polygon style="fill:black;stroke:black;" points="894.62,-178.483 903,-172 892.406,-171.842 894.62,-178.483"/>
<text text-anchor="middle" x="722" y="-238.9" style="font-family:Times New Roman;font-size:14.00;">f</text>
</g>
<!-- 12 -->
<g id="node14" class="node"><title>12</title>
<ellipse style="fill:none;stroke:black;" cx="1121" cy="-164" rx="23.1233" ry="23.1233"/>
<text text-anchor="middle" x="1121" y="-159.9" style="font-family:Times New Roman;font-size:14.00;">12</text>
</g>
<!-- 9&#45;&gt;12 -->
<g id="edge36" class="edge"><title>9&#45;&gt;12</title>
<path style="fill:none;stroke:black;" d="M605,-292C621,-306 649,-326 677,-326 677,-326 677,-326 925,-326 1009,-326 1075,-240 1105,-193"/>
<polygon style="fill:black;stroke:black;" points="1108.2,-194.441 1110,-184 1102.08,-191.042 1108.2,-194.441"/>
<text text-anchor="middle" x="801" y="-329.9" style="font-family:Times New Roman;font-size:14.00;">hnewHLevent_1</text>
</g>
<!-- 10&#45;&gt;7 -->
<g id="edge38" class="edge"><title>10&#45;&gt;7</title>
<path style="fill:none;stroke:black;" d="M657,-183C644,-176 627,-168 610,-165 584,-159 554,-161 533,-164"/>
<polygon style="fill:black;stroke:black;" points="532.602,-160.522 523,-165 533.299,-167.488 532.602,-160.522"/>
<text text-anchor="middle" x="592" y="-168.9" style="font-family:Times New Roman;font-size:14.00;">b</text>
</g>
<!-- 10&#45;&gt;8 -->
<g id="edge40" class="edge"><title>10&#45;&gt;8</title>
<path style="fill:none;stroke:black;" d="M697,-183C718,-171 753,-151 776,-138"/>
<polygon style="fill:black;stroke:black;" points="777.958,-140.916 785,-133 774.559,-134.797 777.958,-140.916"/>
<text text-anchor="middle" x="722" y="-174.9" style="font-family:Times New Roman;font-size:14.00;">d</text>
</g>
<!-- 11&#45;&gt;8 -->
<g id="edge42" class="edge"><title>11&#45;&gt;8</title>
<path style="fill:none;stroke:black;" d="M911,-146C904,-138 895,-130 884,-126 867,-119 846,-119 829,-120"/>
<polygon style="fill:black;stroke:black;" points="828.602,-116.522 819,-121 829.299,-123.488 828.602,-116.522"/>
<text text-anchor="middle" x="880" y="-129.9" style="font-family:Times New Roman;font-size:14.00;">g</text>
</g>
<!-- 11&#45;&gt;12 -->
<g id="edge44" class="edge"><title>11&#45;&gt;12</title>
<path style="fill:none;stroke:black;" d="M948,-164C983,-164 1048,-164 1088,-164"/>
<polygon style="fill:black;stroke:black;" points="1088,-167.5 1098,-164 1088,-160.5 1088,-167.5"/>
<text text-anchor="middle" x="1023" y="-167.9" style="font-family:Times New Roman;font-size:14.00;">hnewHLevent_1</text>
</g>
<!-- 12&#45;&gt;1 -->
<g id="edge46" class="edge"><title>12&#45;&gt;1</title>
<path style="fill:none;stroke:black;" d="M1110,-144C1083,-100 1014,-1 925,-0 146,-0 146,-0 146,-0 124,-0 102,-13 86,-25"/>
<polygon style="fill:black;stroke:black;" points="83.9,-22.2 78,-31 88.1,-27.8 83.9,-22.2"/>
<text text-anchor="middle" x="505" y="-4.9" style="font-family:Times New Roman;font-size:14.00;">gamma</text>
</g>
</g>
</svg>
