<?xml version="1.0" encoding="UTF-8" standalone="no"?>
<!DOCTYPE svg PUBLIC "-//W3C//DTD SVG 1.0//EN"
 "http://www.w3.org/TR/2001/REC-SVG-20010904/DTD/svg10.dtd" [
 <!ATTLIST svg xmlns:xlink CDATA #FIXED "http://www.w3.org/1999/xlink">
]>
<!-- Generated by Graphviz version 2.20.2 (Tue Mar &#160;2 21:46:26 UTC 2010)
     For user: (mtmoor) Prof. Thomas Moor -->
<!-- Title: observer_verification1 Pages: 1 -->
<svg width="1308pt" height="337pt"
 viewBox="0.00 0.00 1308.00 337.00" xmlns="http://www.w3.org/2000/svg" xmlns:xlink="http://www.w3.org/1999/xlink">
<g id="graph0" class="graph" transform="scale(1 1) rotate(0) translate(4 333)">
<title>observer_verification1</title>
<polygon style="fill:none;stroke:none;" points="-4,4 -4,-333 1304,-333 1304,4 -4,4"/>
<!-- dot_dummyinit_1 -->
<g id="node1" class="node"><title>dot_dummyinit_1</title>
</g>
<!-- 1 -->
<g id="node3" class="node"><title>1</title>
<ellipse style="fill:none;stroke:black;" cx="62" cy="-38" rx="18" ry="18"/>
<ellipse style="fill:none;stroke:black;" cx="62" cy="-38" rx="22" ry="22"/>
<text text-anchor="middle" x="62" y="-33.9" style="font-family:Times New Roman;font-size:14.00;">1</text>
</g>
<!-- dot_dummyinit_1&#45;&gt;1 -->
<g id="edge2" class="edge"><title>dot_dummyinit_1&#45;&gt;1</title>
<path style="fill:none;stroke:black;" d="M2,-38C5,-38 17,-38 30,-38"/>
<polygon style="fill:black;stroke:black;" points="30,-41.5001 40,-38 30,-34.5001 30,-41.5001"/>
</g>
<!-- 2 -->
<g id="node4" class="node"><title>2</title>
<ellipse style="fill:none;stroke:black;" cx="252" cy="-86" rx="18" ry="18"/>
<text text-anchor="middle" x="252" y="-81.9" style="font-family:Times New Roman;font-size:14.00;">2</text>
</g>
<!-- 1&#45;&gt;2 -->
<g id="edge4" class="edge"><title>1&#45;&gt;2</title>
<path style="fill:none;stroke:black;" d="M83,-46C89,-48 96,-50 102,-52 144,-64 194,-74 224,-81"/>
<polygon style="fill:black;stroke:black;" points="223.508,-84.4708 234,-83 224.881,-77.6067 223.508,-84.4708"/>
<text text-anchor="middle" x="159" y="-79.9" style="font-family:Times New Roman;font-size:14.00;">dnewHLevent_2</text>
</g>
<!-- 3 -->
<g id="node5" class="node"><title>3</title>
<ellipse style="fill:none;stroke:black;" cx="334" cy="-140" rx="18" ry="18"/>
<text text-anchor="middle" x="334" y="-135.9" style="font-family:Times New Roman;font-size:14.00;">3</text>
</g>
<!-- 2&#45;&gt;3 -->
<g id="edge8" class="edge"><title>2&#45;&gt;3</title>
<path style="fill:none;stroke:black;" d="M267,-96C279,-103 296,-115 310,-124"/>
<polygon style="fill:black;stroke:black;" points="308.738,-127.365 319,-130 312.621,-121.541 308.738,-127.365"/>
<text text-anchor="middle" x="293" y="-117.9" style="font-family:Times New Roman;font-size:14.00;">h</text>
</g>
<!-- 4 -->
<g id="node6" class="node"><title>4</title>
<ellipse style="fill:none;stroke:black;" cx="334" cy="-86" rx="18" ry="18"/>
<text text-anchor="middle" x="334" y="-81.9" style="font-family:Times New Roman;font-size:14.00;">4</text>
</g>
<!-- 2&#45;&gt;4 -->
<g id="edge6" class="edge"><title>2&#45;&gt;4</title>
<path style="fill:none;stroke:black;" d="M270,-86C280,-86 294,-86 306,-86"/>
<polygon style="fill:black;stroke:black;" points="306,-89.5001 316,-86 306,-82.5001 306,-89.5001"/>
<text text-anchor="middle" x="293" y="-89.9" style="font-family:Times New Roman;font-size:14.00;">b</text>
</g>
<!-- 5 -->
<g id="node7" class="node"><title>5</title>
<ellipse style="fill:none;stroke:black;" cx="414" cy="-140" rx="18" ry="18"/>
<text text-anchor="middle" x="414" y="-135.9" style="font-family:Times New Roman;font-size:14.00;">5</text>
</g>
<!-- 3&#45;&gt;5 -->
<g id="edge10" class="edge"><title>3&#45;&gt;5</title>
<path style="fill:none;stroke:black;" d="M352,-140C362,-140 375,-140 386,-140"/>
<polygon style="fill:black;stroke:black;" points="386,-143.5 396,-140 386,-136.5 386,-143.5"/>
<text text-anchor="middle" x="374" y="-143.9" style="font-family:Times New Roman;font-size:14.00;">i</text>
</g>
<!-- 4&#45;&gt;5 -->
<g id="edge12" class="edge"><title>4&#45;&gt;5</title>
<path style="fill:none;stroke:black;" d="M349,-96C360,-104 377,-115 391,-124"/>
<polygon style="fill:black;stroke:black;" points="388.9,-126.8 399,-130 393.1,-121.2 388.9,-126.8"/>
<text text-anchor="middle" x="374" y="-117.9" style="font-family:Times New Roman;font-size:14.00;">b</text>
</g>
<!-- 6 -->
<g id="node8" class="node"><title>6</title>
<ellipse style="fill:none;stroke:black;" cx="524" cy="-152" rx="18" ry="18"/>
<text text-anchor="middle" x="524" y="-147.9" style="font-family:Times New Roman;font-size:14.00;">6</text>
</g>
<!-- 5&#45;&gt;6 -->
<g id="edge14" class="edge"><title>5&#45;&gt;6</title>
<path style="fill:none;stroke:black;" d="M432,-142C449,-144 476,-147 496,-149"/>
<polygon style="fill:black;stroke:black;" points="495.701,-152.488 506,-150 496.398,-145.522 495.701,-152.488"/>
<text text-anchor="middle" x="469" y="-150.9" style="font-family:Times New Roman;font-size:14.00;">alpha</text>
</g>
<!-- 7 -->
<g id="node9" class="node"><title>7</title>
<ellipse style="fill:none;stroke:black;" cx="646" cy="-152" rx="18" ry="18"/>
<text text-anchor="middle" x="646" y="-147.9" style="font-family:Times New Roman;font-size:14.00;">7</text>
</g>
<!-- 6&#45;&gt;7 -->
<g id="edge16" class="edge"><title>6&#45;&gt;7</title>
<path style="fill:none;stroke:black;" d="M542,-152C562,-152 594,-152 618,-152"/>
<polygon style="fill:black;stroke:black;" points="618,-155.5 628,-152 618,-148.5 618,-155.5"/>
<text text-anchor="middle" x="585" y="-155.9" style="font-family:Times New Roman;font-size:14.00;">a</text>
</g>
<!-- 9 -->
<g id="node11" class="node"><title>9</title>
<ellipse style="fill:none;stroke:black;" cx="646" cy="-251" rx="18" ry="18"/>
<text text-anchor="middle" x="646" y="-246.9" style="font-family:Times New Roman;font-size:14.00;">9</text>
</g>
<!-- 6&#45;&gt;9 -->
<g id="edge18" class="edge"><title>6&#45;&gt;9</title>
<path style="fill:none;stroke:black;" d="M538,-163C559,-180 599,-212 624,-233"/>
<polygon style="fill:black;stroke:black;" points="621.9,-235.8 632,-239 626.1,-230.2 621.9,-235.8"/>
<text text-anchor="middle" x="585" y="-221.9" style="font-family:Times New Roman;font-size:14.00;">e</text>
</g>
<!-- 8 -->
<g id="node10" class="node"><title>8</title>
<ellipse style="fill:none;stroke:black;" cx="855" cy="-137" rx="18" ry="18"/>
<text text-anchor="middle" x="855" y="-132.9" style="font-family:Times New Roman;font-size:14.00;">8</text>
</g>
<!-- 7&#45;&gt;8 -->
<g id="edge20" class="edge"><title>7&#45;&gt;8</title>
<path style="fill:none;stroke:black;" d="M664,-149C670,-148 676,-147 682,-147 733,-142 792,-139 827,-137"/>
<polygon style="fill:black;stroke:black;" points="827,-140.5 837,-137 827,-133.5 827,-140.5"/>
<text text-anchor="middle" x="731" y="-147.9" style="font-family:Times New Roman;font-size:14.00;">b</text>
</g>
<!-- 10 -->
<g id="node12" class="node"><title>10</title>
<ellipse style="fill:none;stroke:black;" cx="731" cy="-195" rx="23.1233" ry="23.1233"/>
<text text-anchor="middle" x="731" y="-190.9" style="font-family:Times New Roman;font-size:14.00;">10</text>
</g>
<!-- 7&#45;&gt;10 -->
<g id="edge22" class="edge"><title>7&#45;&gt;10</title>
<path style="fill:none;stroke:black;" d="M664,-151C673,-151 682,-152 690,-156 697,-159 703,-164 709,-169"/>
<polygon style="fill:black;stroke:black;" points="707.169,-172.049 717,-176 711.779,-166.781 707.169,-172.049"/>
<text text-anchor="middle" x="686" y="-159.9" style="font-family:Times New Roman;font-size:14.00;">c</text>
</g>
<!-- 8&#45;&gt;1 -->
<g id="edge24" class="edge"><title>8&#45;&gt;1</title>
<path style="fill:none;stroke:black;" d="M846,-122C827,-94 784,-38 731,-38 252,-38 252,-38 252,-38 196,-38 132,-38 94,-38"/>
<polygon style="fill:black;stroke:black;" points="94,-34.5001 84,-38 94,-41.5001 94,-34.5001"/>
<text text-anchor="middle" x="469" y="-41.9" style="font-family:Times New Roman;font-size:14.00;">beta</text>
</g>
<!-- 8&#45;&gt;7 -->
<g id="edge26" class="edge"><title>8&#45;&gt;7</title>
<path style="fill:none;stroke:black;" d="M838,-131C810,-122 754,-107 708,-119 695,-122 681,-129 670,-136"/>
<polygon style="fill:black;stroke:black;" points="668.042,-133.084 661,-141 671.441,-139.203 668.042,-133.084"/>
<text text-anchor="middle" x="731" y="-122.9" style="font-family:Times New Roman;font-size:14.00;">c</text>
</g>
<!-- 11 -->
<g id="node13" class="node"><title>11</title>
<ellipse style="fill:none;stroke:black;" cx="1081" cy="-177" rx="23.1233" ry="23.1233"/>
<text text-anchor="middle" x="1081" y="-172.9" style="font-family:Times New Roman;font-size:14.00;">11</text>
</g>
<!-- 8&#45;&gt;11 -->
<g id="edge28" class="edge"><title>8&#45;&gt;11</title>
<path style="fill:none;stroke:black;" d="M873,-142C888,-145 911,-151 930,-155 970,-162 1017,-169 1048,-173"/>
<polygon style="fill:black;stroke:black;" points="1047.7,-176.488 1058,-174 1048.4,-169.522 1047.7,-176.488"/>
<text text-anchor="middle" x="985" y="-173.9" style="font-family:Times New Roman;font-size:14.00;">fnewHLevent_1</text>
</g>
<!-- 9&#45;&gt;10 -->
<g id="edge32" class="edge"><title>9&#45;&gt;10</title>
<path style="fill:none;stroke:black;" d="M661,-241C673,-234 689,-223 703,-213"/>
<polygon style="fill:black;stroke:black;" points="704.958,-215.916 712,-208 701.559,-209.797 704.958,-215.916"/>
<text text-anchor="middle" x="686" y="-230.9" style="font-family:Times New Roman;font-size:14.00;">g</text>
</g>
<!-- 9&#45;&gt;11 -->
<g id="edge30" class="edge"><title>9&#45;&gt;11</title>
<path style="fill:none;stroke:black;" d="M664,-250C672,-250 682,-249 690,-248 847,-229 888,-229 1040,-191 1043,-190 1046,-189 1049,-188"/>
<polygon style="fill:black;stroke:black;" points="1050.43,-191.226 1059,-185 1048.42,-184.521 1050.43,-191.226"/>
<text text-anchor="middle" x="776" y="-240.9" style="font-family:Times New Roman;font-size:14.00;">f</text>
</g>
<!-- 12 -->
<g id="node14" class="node"><title>12</title>
<ellipse style="fill:none;stroke:black;" cx="1277" cy="-177" rx="23.1233" ry="23.1233"/>
<text text-anchor="middle" x="1277" y="-172.9" style="font-family:Times New Roman;font-size:14.00;">12</text>
</g>
<!-- 9&#45;&gt;12 -->
<g id="edge34" class="edge"><title>9&#45;&gt;12</title>
<path style="fill:none;stroke:black;" d="M657,-266C671,-284 700,-313 731,-313 731,-313 731,-313 1081,-313 1158,-313 1225,-243 1257,-204"/>
<polygon style="fill:black;stroke:black;" points="1259.8,-206.1 1263,-196 1254.2,-201.9 1259.8,-206.1"/>
<text text-anchor="middle" x="855" y="-316.9" style="font-family:Times New Roman;font-size:14.00;">hnewHLevent_4</text>
</g>
<!-- 10&#45;&gt;7 -->
<g id="edge36" class="edge"><title>10&#45;&gt;7</title>
<path style="fill:none;stroke:black;" d="M710,-185C701,-182 691,-177 682,-173 678,-171 674,-169 671,-166"/>
<polygon style="fill:black;stroke:black;" points="672.441,-162.797 662,-161 669.042,-168.916 672.441,-162.797"/>
<text text-anchor="middle" x="686" y="-176.9" style="font-family:Times New Roman;font-size:14.00;">b</text>
</g>
<!-- 10&#45;&gt;8 -->
<g id="edge38" class="edge"><title>10&#45;&gt;8</title>
<path style="fill:none;stroke:black;" d="M752,-185C773,-175 806,-160 830,-149"/>
<polygon style="fill:black;stroke:black;" points="831.283,-152.26 839,-145 828.44,-145.863 831.283,-152.26"/>
<text text-anchor="middle" x="776" y="-178.9" style="font-family:Times New Roman;font-size:14.00;">d</text>
</g>
<!-- 11&#45;&gt;8 -->
<g id="edge40" class="edge"><title>11&#45;&gt;8</title>
<path style="fill:none;stroke:black;" d="M1069,-157C1062,-147 1052,-136 1040,-131 988,-107 919,-119 882,-129"/>
<polygon style="fill:black;stroke:black;" points="880.573,-125.774 872,-132 882.584,-132.479 880.573,-125.774"/>
<text text-anchor="middle" x="985" y="-134.9" style="font-family:Times New Roman;font-size:14.00;">g</text>
</g>
<!-- 11&#45;&gt;12 -->
<g id="edge42" class="edge"><title>11&#45;&gt;12</title>
<path style="fill:none;stroke:black;" d="M1104,-177C1139,-177 1204,-177 1244,-177"/>
<polygon style="fill:black;stroke:black;" points="1244,-180.5 1254,-177 1244,-173.5 1244,-180.5"/>
<text text-anchor="middle" x="1179" y="-180.9" style="font-family:Times New Roman;font-size:14.00;">hnewHLevent_4</text>
</g>
<!-- 12&#45;&gt;1 -->
<g id="edge44" class="edge"><title>12&#45;&gt;1</title>
<path style="fill:none;stroke:black;" d="M1267,-156C1242,-109 1174,-1 1081,-0 252,-0 252,-0 252,-0 195,-1 130,-17 93,-28"/>
<polygon style="fill:black;stroke:black;" points="91.5725,-24.7741 83,-31 93.584,-31.4788 91.5725,-24.7741"/>
<text text-anchor="middle" x="585" y="-4.9" style="font-family:Times New Roman;font-size:14.00;">gamma</text>
</g>
</g>
</svg>
