<?xml version="1.0" encoding="UTF-8" standalone="no"?>
<!DOCTYPE svg PUBLIC "-//W3C//DTD SVG 1.0//EN"
 "http://www.w3.org/TR/2001/REC-SVG-20010904/DTD/svg10.dtd" [
 <!ATTLIST svg xmlns:xlink CDATA #FIXED "http://www.w3.org/1999/xlink">
]>
<!-- Generated by Graphviz version 2.20.2 (Tue Mar &#160;2 21:46:26 UTC 2010)
     For user: (mtmoor) Prof. Thomas Moor -->
<!-- Title: Generator Pages: 1 -->
<svg width="720pt" height="530pt"
 viewBox="0.00 0.00 720.00 530.23" xmlns="http://www.w3.org/2000/svg" xmlns:xlink="http://www.w3.org/1999/xlink">
<g id="graph0" class="graph" transform="scale(0.930233 0.930233) rotate(0) translate(4 566)">
<title>Generator</title>
<polygon style="fill:none;stroke:none;" points="-4,4 -4,-566 770,-566 770,4 -4,4"/>
<!-- s1 -->
<g id="node1" class="node"><title>s1</title>
<ellipse style="fill:none;stroke:black;" cx="126" cy="-366" rx="22.2362" ry="22.2362"/>
<text text-anchor="middle" x="126" y="-361.9" style="font-family:Times New Roman;font-size:14.00;">s1</text>
</g>
<!-- s6 -->
<g id="node6" class="node"><title>s6</title>
<ellipse style="fill:none;stroke:black;" cx="230" cy="-326" rx="22.2362" ry="22.2362"/>
<text text-anchor="middle" x="230" y="-321.9" style="font-family:Times New Roman;font-size:14.00;">s6</text>
</g>
<!-- s1&#45;&gt;s6 -->
<g id="edge2" class="edge"><title>s1&#45;&gt;s6</title>
<path style="fill:none;stroke:black;" d="M144,-353C152,-348 162,-343 172,-339 181,-335 190,-333 198,-331"/>
<polygon style="fill:black;stroke:black;" points="198.881,-334.393 208,-329 197.508,-327.529 198.881,-334.393"/>
<text text-anchor="middle" x="181" y="-342.9" style="font-family:Times New Roman;font-size:14.00;">e1</text>
</g>
<!-- s12 -->
<g id="node12" class="node"><title>s12</title>
<ellipse style="fill:none;stroke:black;" cx="334" cy="-354" rx="27.9903" ry="27.9903"/>
<text text-anchor="middle" x="334" y="-349.9" style="font-family:Times New Roman;font-size:14.00;">s12</text>
</g>
<!-- s1&#45;&gt;s12 -->
<g id="edge4" class="edge"><title>s1&#45;&gt;s12</title>
<path style="fill:none;stroke:black;" d="M141,-382C146,-387 150,-392 154,-397 163,-408 160,-416 172,-423 180,-426 183,-423 190,-423 235,-417 249,-419 288,-398 295,-394 302,-389 308,-383"/>
<polygon style="fill:black;stroke:black;" points="310.779,-385.219 316,-376 306.169,-379.951 310.779,-385.219"/>
<text text-anchor="middle" x="230" y="-423.9" style="font-family:Times New Roman;font-size:14.00;">e3</text>
</g>
<!-- s2 -->
<g id="node2" class="node"><title>s2</title>
<ellipse style="fill:none;stroke:black;" cx="126" cy="-428" rx="22.2362" ry="22.2362"/>
<text text-anchor="middle" x="126" y="-423.9" style="font-family:Times New Roman;font-size:14.00;">s2</text>
</g>
<!-- s2&#45;&gt;s2 -->
<g id="edge10" class="edge"><title>s2&#45;&gt;s2</title>
<path style="fill:none;stroke:black;" d="M117,-448C115,-458 118,-468 126,-468 131,-468 134,-464 135,-458"/>
<polygon style="fill:black;stroke:black;" points="138.5,-458 135,-448 131.5,-458 138.5,-458"/>
<text text-anchor="middle" x="126" y="-471.9" style="font-family:Times New Roman;font-size:14.00;">e3</text>
</g>
<!-- s3 -->
<g id="node3" class="node"><title>s3</title>
<ellipse style="fill:none;stroke:black;" cx="640" cy="-349" rx="22.2362" ry="22.2362"/>
<text text-anchor="middle" x="640" y="-344.9" style="font-family:Times New Roman;font-size:14.00;">s3</text>
</g>
<!-- s2&#45;&gt;s3 -->
<g id="edge12" class="edge"><title>s2&#45;&gt;s3</title>
<path style="fill:none;stroke:black;" d="M142,-443C162,-459 196,-483 230,-483 230,-483 230,-483 389,-483 438,-483 453,-486 496,-467 546,-445 592,-401 618,-374"/>
<polygon style="fill:black;stroke:black;" points="621.049,-375.831 625,-366 615.781,-371.221 621.049,-375.831"/>
<text text-anchor="middle" x="389" y="-486.9" style="font-family:Times New Roman;font-size:14.00;">e4</text>
</g>
<!-- s2&#45;&gt;s6 -->
<g id="edge14" class="edge"><title>s2&#45;&gt;s6</title>
<path style="fill:none;stroke:black;" d="M142,-413C159,-396 187,-369 207,-349"/>
<polygon style="fill:black;stroke:black;" points="209.404,-351.546 214,-342 204.454,-346.596 209.404,-351.546"/>
<text text-anchor="middle" x="181" y="-385.9" style="font-family:Times New Roman;font-size:14.00;">e5</text>
</g>
<!-- s7 -->
<g id="node7" class="node"><title>s7</title>
<ellipse style="fill:none;stroke:black;" cx="230" cy="-540" rx="22.2362" ry="22.2362"/>
<text text-anchor="middle" x="230" y="-535.9" style="font-family:Times New Roman;font-size:14.00;">s7</text>
</g>
<!-- s2&#45;&gt;s7 -->
<g id="edge6" class="edge"><title>s2&#45;&gt;s7</title>
<path style="fill:none;stroke:black;" d="M138,-447C146,-461 159,-479 172,-494 181,-503 193,-513 204,-521"/>
<polygon style="fill:black;stroke:black;" points="201.9,-523.8 212,-527 206.1,-518.2 201.9,-523.8"/>
<text text-anchor="middle" x="181" y="-511.9" style="font-family:Times New Roman;font-size:14.00;">e1</text>
</g>
<!-- s9 -->
<g id="node9" class="node"><title>s9</title>
<ellipse style="fill:none;stroke:black;" cx="22" cy="-293" rx="22.2362" ry="22.2362"/>
<text text-anchor="middle" x="22" y="-288.9" style="font-family:Times New Roman;font-size:14.00;">s9</text>
</g>
<!-- s2&#45;&gt;s9 -->
<g id="edge8" class="edge"><title>s2&#45;&gt;s9</title>
<path style="fill:none;stroke:black;" d="M110,-412C106,-408 102,-402 98,-397 86,-375 94,-365 80,-345 72,-332 59,-321 48,-311"/>
<polygon style="fill:black;stroke:black;" points="50.1,-308.2 40,-305 45.9,-313.8 50.1,-308.2"/>
<text text-anchor="middle" x="71" y="-348.9" style="font-family:Times New Roman;font-size:14.00;">e1</text>
</g>
<!-- s3&#45;&gt;s3 -->
<g id="edge18" class="edge"><title>s3&#45;&gt;s3</title>
<path style="fill:none;stroke:black;" d="M631,-369C629,-379 632,-389 640,-389 645,-389 648,-385 649,-379"/>
<polygon style="fill:black;stroke:black;" points="652.5,-379 649,-369 645.5,-379 652.5,-379"/>
<text text-anchor="middle" x="640" y="-392.9" style="font-family:Times New Roman;font-size:14.00;">e4</text>
</g>
<!-- s4 -->
<g id="node4" class="node"><title>s4</title>
<ellipse style="fill:none;stroke:black;" cx="744" cy="-203" rx="22.2362" ry="22.2362"/>
<text text-anchor="middle" x="744" y="-198.9" style="font-family:Times New Roman;font-size:14.00;">s4</text>
</g>
<!-- s3&#45;&gt;s4 -->
<g id="edge16" class="edge"><title>s3&#45;&gt;s4</title>
<path style="fill:none;stroke:black;" d="M660,-339C674,-332 692,-320 704,-306 720,-284 731,-256 737,-235"/>
<polygon style="fill:black;stroke:black;" points="740.479,-235.584 740,-225 733.774,-233.573 740.479,-235.584"/>
<text text-anchor="middle" x="695" y="-325.9" style="font-family:Times New Roman;font-size:14.00;">e3</text>
</g>
<!-- s3&#45;&gt;s12 -->
<g id="edge20" class="edge"><title>s3&#45;&gt;s12</title>
<path style="fill:none;stroke:black;" d="M619,-355C602,-360 579,-366 558,-369 480,-380 458,-381 380,-368 377,-368 374,-367 371,-366"/>
<polygon style="fill:black;stroke:black;" points="371.584,-362.521 361,-363 369.573,-369.226 371.584,-362.521"/>
<text text-anchor="middle" x="487" y="-379.9" style="font-family:Times New Roman;font-size:14.00;">e5</text>
</g>
<!-- s4&#45;&gt;s6 -->
<g id="edge22" class="edge"><title>s4&#45;&gt;s6</title>
<path style="fill:none;stroke:black;" d="M740,-225C729,-274 702,-393 668,-415 519,-511 345,-445 306,-426 277,-411 256,-380 244,-356"/>
<polygon style="fill:black;stroke:black;" points="246.916,-354.042 239,-347 240.797,-357.441 246.916,-354.042"/>
<text text-anchor="middle" x="487" y="-468.9" style="font-family:Times New Roman;font-size:14.00;">e2</text>
</g>
<!-- s5 -->
<g id="node5" class="node"><title>s5</title>
<ellipse style="fill:none;stroke:black;" cx="536" cy="-154" rx="22.2362" ry="22.2362"/>
<text text-anchor="middle" x="536" y="-149.9" style="font-family:Times New Roman;font-size:14.00;">s5</text>
</g>
<!-- s5&#45;&gt;s3 -->
<g id="edge30" class="edge"><title>s5&#45;&gt;s3</title>
<path style="fill:none;stroke:black;" d="M548,-173C560,-192 580,-224 594,-253 606,-274 618,-300 627,-320"/>
<polygon style="fill:black;stroke:black;" points="623.74,-321.283 631,-329 630.137,-318.44 623.74,-321.283"/>
<text text-anchor="middle" x="585" y="-256.9" style="font-family:Times New Roman;font-size:14.00;">e5</text>
</g>
<!-- s5&#45;&gt;s4 -->
<g id="edge24" class="edge"><title>s5&#45;&gt;s4</title>
<path style="fill:none;stroke:black;" d="M556,-145C563,-142 570,-140 576,-139 604,-133 652,-142 668,-149 687,-157 706,-170 720,-181"/>
<polygon style="fill:black;stroke:black;" points="718.169,-184.049 728,-188 722.779,-178.781 718.169,-184.049"/>
<text text-anchor="middle" x="640" y="-152.9" style="font-family:Times New Roman;font-size:14.00;">e2</text>
</g>
<!-- s10 -->
<g id="node10" class="node"><title>s10</title>
<ellipse style="fill:none;stroke:black;" cx="640" cy="-203" rx="27.9903" ry="27.9903"/>
<text text-anchor="middle" x="640" y="-198.9" style="font-family:Times New Roman;font-size:14.00;">s10</text>
</g>
<!-- s5&#45;&gt;s10 -->
<g id="edge26" class="edge"><title>s5&#45;&gt;s10</title>
<path style="fill:none;stroke:black;" d="M557,-147C568,-144 583,-143 594,-148 605,-153 614,-161 621,-170"/>
<polygon style="fill:black;stroke:black;" points="618.2,-172.1 627,-178 623.8,-167.9 618.2,-172.1"/>
<text text-anchor="middle" x="585" y="-151.9" style="font-family:Times New Roman;font-size:14.00;">e3</text>
</g>
<!-- s5&#45;&gt;s10 -->
<g id="edge28" class="edge"><title>s5&#45;&gt;s10</title>
<path style="fill:none;stroke:black;" d="M556,-163C570,-170 589,-179 605,-187"/>
<polygon style="fill:black;stroke:black;" points="603.44,-190.137 614,-191 606.283,-183.74 603.44,-190.137"/>
<text text-anchor="middle" x="585" y="-182.9" style="font-family:Times New Roman;font-size:14.00;">e4</text>
</g>
<!-- s6&#45;&gt;s12 -->
<g id="edge32" class="edge"><title>s6&#45;&gt;s12</title>
<path style="fill:none;stroke:black;" d="M251,-332C264,-335 282,-340 297,-344"/>
<polygon style="fill:black;stroke:black;" points="296.416,-347.479 307,-347 298.427,-340.774 296.416,-347.479"/>
<text text-anchor="middle" x="279" y="-343.9" style="font-family:Times New Roman;font-size:14.00;">e5</text>
</g>
<!-- s8 -->
<g id="node8" class="node"><title>s8</title>
<ellipse style="fill:none;stroke:black;" cx="438" cy="-264" rx="22.2362" ry="22.2362"/>
<text text-anchor="middle" x="438" y="-259.9" style="font-family:Times New Roman;font-size:14.00;">s8</text>
</g>
<!-- s8&#45;&gt;s3 -->
<g id="edge34" class="edge"><title>s8&#45;&gt;s3</title>
<path style="fill:none;stroke:black;" d="M458,-273C494,-288 568,-319 610,-336"/>
<polygon style="fill:black;stroke:black;" points="608.44,-339.137 619,-340 611.283,-332.74 608.44,-339.137"/>
<text text-anchor="middle" x="536" y="-316.9" style="font-family:Times New Roman;font-size:14.00;">e1</text>
</g>
<!-- s8&#45;&gt;s4 -->
<g id="edge38" class="edge"><title>s8&#45;&gt;s4</title>
<path style="fill:none;stroke:black;" d="M460,-268C490,-273 547,-279 594,-270 639,-261 687,-236 716,-220"/>
<polygon style="fill:black;stroke:black;" points="717.958,-222.916 725,-215 714.559,-216.797 717.958,-222.916"/>
<text text-anchor="middle" x="585" y="-274.9" style="font-family:Times New Roman;font-size:14.00;">e4</text>
</g>
<!-- s8&#45;&gt;s5 -->
<g id="edge40" class="edge"><title>s8&#45;&gt;s5</title>
<path style="fill:none;stroke:black;" d="M448,-244C455,-231 466,-213 478,-199 487,-189 499,-179 509,-172"/>
<polygon style="fill:black;stroke:black;" points="511.1,-174.8 517,-166 506.9,-169.2 511.1,-174.8"/>
<text text-anchor="middle" x="487" y="-204.9" style="font-family:Times New Roman;font-size:14.00;">e4</text>
</g>
<!-- s8&#45;&gt;s10 -->
<g id="edge36" class="edge"><title>s8&#45;&gt;s10</title>
<path style="fill:none;stroke:black;" d="M458,-255C474,-248 495,-239 514,-233 543,-223 577,-215 602,-210"/>
<polygon style="fill:black;stroke:black;" points="602.881,-213.393 612,-208 601.508,-206.529 602.881,-213.393"/>
<text text-anchor="middle" x="536" y="-236.9" style="font-family:Times New Roman;font-size:14.00;">e1</text>
</g>
<!-- s9&#45;&gt;s2 -->
<g id="edge44" class="edge"><title>s9&#45;&gt;s2</title>
<path style="fill:none;stroke:black;" d="M32,-313C40,-327 51,-346 62,-362 74,-378 90,-393 102,-406"/>
<polygon style="fill:black;stroke:black;" points="100.169,-409.049 110,-413 104.779,-403.781 100.169,-409.049"/>
<text text-anchor="middle" x="71" y="-383.9" style="font-family:Times New Roman;font-size:14.00;">e4</text>
</g>
<!-- s9&#45;&gt;s4 -->
<g id="edge46" class="edge"><title>s9&#45;&gt;s4</title>
<path style="fill:none;stroke:black;" d="M24,-271C27,-233 36,-152 62,-89 73,-63 82,-59 98,-37 111,-21 106,-0 126,-0 126,-0 126,-0 640,-0 716,-1 737,-114 742,-171"/>
<polygon style="fill:black;stroke:black;" points="738.522,-171.398 743,-181 745.488,-170.701 738.522,-171.398"/>
<text text-anchor="middle" x="389" y="-4.9" style="font-family:Times New Roman;font-size:14.00;">e4</text>
</g>
<!-- s9&#45;&gt;s5 -->
<g id="edge48" class="edge"><title>s9&#45;&gt;s5</title>
<path style="fill:none;stroke:black;" d="M26,-271C38,-210 76,-39 126,-38 126,-38 126,-38 279,-38 372,-39 466,-101 511,-134"/>
<polygon style="fill:black;stroke:black;" points="508.9,-136.8 519,-140 513.1,-131.2 508.9,-136.8"/>
<text text-anchor="middle" x="279" y="-42.9" style="font-family:Times New Roman;font-size:14.00;">e4</text>
</g>
<!-- s9&#45;&gt;s7 -->
<g id="edge42" class="edge"><title>s9&#45;&gt;s7</title>
<path style="fill:none;stroke:black;" d="M25,-315C31,-355 49,-442 98,-494 125,-522 168,-533 198,-537"/>
<polygon style="fill:black;stroke:black;" points="197.701,-540.488 208,-538 198.398,-533.522 197.701,-540.488"/>
<text text-anchor="middle" x="126" y="-528.9" style="font-family:Times New Roman;font-size:14.00;">e1</text>
</g>
<!-- s9&#45;&gt;s8 -->
<g id="edge50" class="edge"><title>s9&#45;&gt;s8</title>
<path style="fill:none;stroke:black;" d="M43,-284C63,-276 97,-265 126,-265 126,-265 126,-265 334,-265 359,-265 386,-265 406,-264"/>
<polygon style="fill:black;stroke:black;" points="406,-267.5 416,-264 406,-260.5 406,-267.5"/>
<text text-anchor="middle" x="230" y="-268.9" style="font-family:Times New Roman;font-size:14.00;">e5</text>
</g>
<!-- s10&#45;&gt;s4 -->
<g id="edge52" class="edge"><title>s10&#45;&gt;s4</title>
<path style="fill:none;stroke:black;" d="M668,-203C682,-203 698,-203 712,-203"/>
<polygon style="fill:black;stroke:black;" points="712,-206.5 722,-203 712,-199.5 712,-206.5"/>
<text text-anchor="middle" x="695" y="-206.9" style="font-family:Times New Roman;font-size:14.00;">e2</text>
</g>
<!-- s10&#45;&gt;s12 -->
<g id="edge54" class="edge"><title>s10&#45;&gt;s12</title>
<path style="fill:none;stroke:black;" d="M632,-230C622,-262 599,-313 558,-334 527,-350 428,-354 372,-354"/>
<polygon style="fill:black;stroke:black;" points="372,-350.5 362,-354 372,-357.5 372,-350.5"/>
<text text-anchor="middle" x="487" y="-351.9" style="font-family:Times New Roman;font-size:14.00;">e5</text>
</g>
<!-- s11 -->
<g id="node11" class="node"><title>s11</title>
<ellipse style="fill:none;stroke:black;" cx="126" cy="-188" rx="27.9903" ry="27.9903"/>
<text text-anchor="middle" x="126" y="-183.9" style="font-family:Times New Roman;font-size:14.00;">s11</text>
</g>
<!-- s11&#45;&gt;s4 -->
<g id="edge60" class="edge"><title>s11&#45;&gt;s4</title>
<path style="fill:none;stroke:black;" d="M147,-169C155,-162 163,-155 172,-150 187,-141 192,-140 208,-135 331,-90 357,-47 487,-46 487,-46 487,-46 640,-46 699,-47 727,-125 738,-171"/>
<polygon style="fill:black;stroke:black;" points="734.607,-171.881 740,-181 741.471,-170.508 734.607,-171.881"/>
<text text-anchor="middle" x="438" y="-55.9" style="font-family:Times New Roman;font-size:14.00;">e3</text>
</g>
<!-- s11&#45;&gt;s5 -->
<g id="edge56" class="edge"><title>s11&#45;&gt;s5</title>
<path style="fill:none;stroke:black;" d="M149,-172C156,-168 164,-164 172,-161 229,-139 246,-141 306,-136 377,-130 460,-140 504,-148"/>
<polygon style="fill:black;stroke:black;" points="503.508,-151.471 514,-150 504.881,-144.607 503.508,-151.471"/>
<text text-anchor="middle" x="334" y="-139.9" style="font-family:Times New Roman;font-size:14.00;">e1</text>
</g>
<!-- s11&#45;&gt;s5 -->
<g id="edge64" class="edge"><title>s11&#45;&gt;s5</title>
<path style="fill:none;stroke:black;" d="M154,-186C228,-179 425,-164 504,-157"/>
<polygon style="fill:black;stroke:black;" points="504.398,-160.478 514,-156 503.701,-153.512 504.398,-160.478"/>
<text text-anchor="middle" x="334" y="-175.9" style="font-family:Times New Roman;font-size:14.00;">e4</text>
</g>
<!-- s11&#45;&gt;s6 -->
<g id="edge58" class="edge"><title>s11&#45;&gt;s6</title>
<path style="fill:none;stroke:black;" d="M142,-211C151,-224 162,-240 172,-254 185,-270 198,-287 210,-301"/>
<polygon style="fill:black;stroke:black;" points="207.2,-303.1 216,-309 212.8,-298.9 207.2,-303.1"/>
<text text-anchor="middle" x="181" y="-278.9" style="font-family:Times New Roman;font-size:14.00;">e2</text>
</g>
<!-- s11&#45;&gt;s6 -->
<g id="edge66" class="edge"><title>s11&#45;&gt;s6</title>
<path style="fill:none;stroke:black;" d="M151,-201C167,-209 185,-220 190,-227 207,-248 198,-260 208,-286 210,-290 212,-294 214,-298"/>
<polygon style="fill:black;stroke:black;" points="211.084,-299.958 219,-307 217.203,-296.559 211.084,-299.958"/>
<text text-anchor="middle" x="181" y="-230.9" style="font-family:Times New Roman;font-size:14.00;">e5</text>
</g>
<!-- s11&#45;&gt;s8 -->
<g id="edge62" class="edge"><title>s11&#45;&gt;s8</title>
<path style="fill:none;stroke:black;" d="M154,-193C203,-203 310,-226 398,-251 401,-252 404,-253 407,-254"/>
<polygon style="fill:black;stroke:black;" points="406.416,-257.479 417,-257 408.427,-250.774 406.416,-257.479"/>
<text text-anchor="middle" x="279" y="-224.9" style="font-family:Times New Roman;font-size:14.00;">e3</text>
</g>
<!-- s12&#45;&gt;s1 -->
<g id="edge70" class="edge"><title>s12&#45;&gt;s1</title>
<path style="fill:none;stroke:black;" d="M307,-362C269,-374 202,-394 190,-396 183,-397 180,-398 172,-396 165,-394 158,-390 151,-386"/>
<polygon style="fill:black;stroke:black;" points="153.1,-383.2 143,-380 148.9,-388.8 153.1,-383.2"/>
<text text-anchor="middle" x="230" y="-393.9" style="font-family:Times New Roman;font-size:14.00;">e3</text>
</g>
<!-- s12&#45;&gt;s8 -->
<g id="edge72" class="edge"><title>s12&#45;&gt;s8</title>
<path style="fill:none;stroke:black;" d="M355,-336C372,-321 396,-300 413,-285"/>
<polygon style="fill:black;stroke:black;" points="415.1,-287.8 421,-279 410.9,-282.2 415.1,-287.8"/>
<text text-anchor="middle" x="389" y="-316.9" style="font-family:Times New Roman;font-size:14.00;">e4</text>
</g>
<!-- s12&#45;&gt;s12 -->
<g id="edge68" class="edge"><title>s12&#45;&gt;s12</title>
<path style="fill:none;stroke:black;" d="M324,-380C324,-391 327,-400 334,-400 339,-400 341,-396 343,-390"/>
<polygon style="fill:black;stroke:black;" points="346.488,-390.299 344,-380 339.522,-389.602 346.488,-390.299"/>
<text text-anchor="middle" x="334" y="-403.9" style="font-family:Times New Roman;font-size:14.00;">e1</text>
</g>
</g>
</svg>
