<?xml version="1.0" encoding="UTF-8" standalone="no"?>
<!DOCTYPE svg PUBLIC "-//W3C//DTD SVG 1.1//EN"
 "http://www.w3.org/Graphics/SVG/1.1/DTD/svg11.dtd">
<!-- Generated by graphviz version 2.43.0 (0)
 -->
<!-- Title: wSpec3 Pages: 1 -->
<svg width="198pt" height="79pt"
 viewBox="0.00 0.00 198.00 79.09" xmlns="http://www.w3.org/2000/svg" xmlns:xlink="http://www.w3.org/1999/xlink">
<g id="graph0" class="graph" transform="scale(1 1) rotate(0) translate(4 75.09)">
<title>wSpec3</title>
<!-- dot_dummyinit_1 -->
<g id="node1" class="node">
<title>dot_dummyinit_1</title>
</g>
<!-- N -->
<g id="node2" class="node">
<title>N</title>
<path fill="none" stroke="black" d="M80,-38.09C80,-38.09 50,-38.09 50,-38.09 44,-38.09 38,-32.09 38,-26.09 38,-26.09 38,-14.09 38,-14.09 38,-8.09 44,-2.09 50,-2.09 50,-2.09 80,-2.09 80,-2.09 86,-2.09 92,-8.09 92,-14.09 92,-14.09 92,-26.09 92,-26.09 92,-32.09 86,-38.09 80,-38.09"/>
<text text-anchor="start" x="52" y="-15.89" font-family="Arial" font-size="14.00">N</text>
<polygon fill="black" stroke="transparent" points="72,-10.09 72,-29.09 80,-29.09 80,-10.09 72,-10.09"/>
</g>
<!-- dot_dummyinit_1&#45;&gt;N -->
<g id="edge1" class="edge">
<title>dot_dummyinit_1&#45;&gt;N</title>
<path fill="none" stroke="black" d="M1.05,-20.09C1.88,-20.09 14.11,-20.09 27.57,-20.09"/>
<polygon fill="black" stroke="black" points="27.94,-23.59 37.94,-20.09 27.94,-16.59 27.94,-23.59"/>
</g>
<!-- N&#45;&gt;N -->
<g id="edge2" class="edge">
<title>N&#45;&gt;N</title>
<path fill="none" stroke="black" d="M57.04,-38.24C55.82,-47.63 58.47,-56.09 65,-56.09 68.98,-56.09 71.52,-52.95 72.62,-48.37"/>
<polygon fill="black" stroke="black" points="76.12,-48.36 72.96,-38.24 69.13,-48.12 76.12,-48.36"/>
<text text-anchor="middle" x="65" y="-59.89" font-family="Arial" font-size="14.00">a, b, c, e</text>
</g>
<!-- F -->
<g id="node3" class="node">
<title>F</title>
<path fill="none" stroke="black" d="M178,-38.09C178,-38.09 148,-38.09 148,-38.09 142,-38.09 136,-32.09 136,-26.09 136,-26.09 136,-14.09 136,-14.09 136,-8.09 142,-2.09 148,-2.09 148,-2.09 178,-2.09 178,-2.09 184,-2.09 190,-8.09 190,-14.09 190,-14.09 190,-26.09 190,-26.09 190,-32.09 184,-38.09 178,-38.09"/>
<text text-anchor="middle" x="163" y="-16.39" font-family="Arial" font-size="14.00">F</text>
</g>
<!-- N&#45;&gt;F -->
<g id="edge3" class="edge">
<title>N&#45;&gt;F</title>
<path fill="none" stroke="black" d="M92.23,-20.09C102.5,-20.09 114.45,-20.09 125.53,-20.09"/>
<polygon fill="black" stroke="black" points="125.8,-23.59 135.8,-20.09 125.8,-16.59 125.8,-23.59"/>
<text text-anchor="middle" x="114" y="-23.89" font-family="Arial" font-size="14.00">f</text>
</g>
<!-- F&#45;&gt;N -->
<g id="edge4" class="edge">
<title>F&#45;&gt;N</title>
<path fill="none" stroke="black" d="M135.58,-6.63C129.91,-4.34 123.87,-2.3 118,-1.09 112.72,0 107.26,-0.3 101.95,-1.43"/>
<polygon fill="black" stroke="black" points="100.55,1.8 92.02,-4.48 102.6,-4.89 100.55,1.8"/>
<text text-anchor="middle" x="114" y="-4.89" font-family="Arial" font-size="14.00">e</text>
</g>
<!-- F&#45;&gt;F -->
<g id="edge5" class="edge">
<title>F&#45;&gt;F</title>
<path fill="none" stroke="black" d="M154.32,-38.24C152.98,-47.63 155.88,-56.09 163,-56.09 167.34,-56.09 170.11,-52.95 171.31,-48.37"/>
<polygon fill="black" stroke="black" points="174.82,-48.36 171.68,-38.24 167.82,-48.11 174.82,-48.36"/>
<text text-anchor="middle" x="163" y="-59.89" font-family="Arial" font-size="14.00">a, b, c, f</text>
</g>
</g>
</svg>
