<?xml version="1.0" encoding="UTF-8" standalone="no"?>
<!DOCTYPE svg PUBLIC "-//W3C//DTD SVG 1.1//EN"
 "http://www.w3.org/Graphics/SVG/1.1/DTD/svg11.dtd">
<!-- Generated by graphviz version 12.2.1 (20241206.2353)
 -->
<!-- Title: eventually always alternating a and b Pages: 1 -->
<svg width="248pt" height="214pt"
 viewBox="0.00 0.00 248.00 213.75" xmlns="http://www.w3.org/2000/svg" xmlns:xlink="http://www.w3.org/1999/xlink">
<g id="graph0" class="graph" transform="scale(1 1) rotate(0) translate(4 209.75)">
<title>eventually always alternating a and b</title>
<g id="clust1" class="cluster">
<title>cluster_0</title>
<polygon fill="none" stroke="blue" points="8,-52 8,-120 76,-120 76,-52 8,-52"/>
</g>
<g id="clust2" class="cluster">
<title>cluster_1</title>
<polygon fill="none" stroke="darkblue" points="16,-60 16,-112 68,-112 68,-60 16,-60"/>
</g>
<g id="clust3" class="cluster">
<title>cluster_2</title>
<polygon fill="none" stroke="blue" points="102.5,-8 102.5,-76 170.5,-76 170.5,-8 102.5,-8"/>
</g>
<g id="clust4" class="cluster">
<title>cluster_3</title>
<polygon fill="none" stroke="darkblue" points="110.5,-16 110.5,-68 162.5,-68 162.5,-16 110.5,-16"/>
</g>
<!-- dot_dummyinit_0 -->
<g id="node1" class="node">
<title>dot_dummyinit_0</title>
</g>
<!-- 4 -->
<g id="node2" class="node">
<title>4</title>
<ellipse fill="none" stroke="black" cx="136.5" cy="-154" rx="18" ry="18"/>
<text text-anchor="middle" x="136.5" y="-148.57" font-family="Arial" font-size="14.00">4</text>
</g>
<!-- dot_dummyinit_0&#45;&gt;4 -->
<g id="edge1" class="edge">
<title>dot_dummyinit_0&#45;&gt;4</title>
<path fill="none" stroke="black" d="M68.77,-162.66C80.63,-161.12 94.76,-159.29 106.95,-157.7"/>
<polygon fill="black" stroke="black" points="107.37,-161.18 116.84,-156.42 106.47,-154.24 107.37,-161.18"/>
</g>
<!-- 4&#45;&gt;4 -->
<g id="edge9" class="edge">
<title>4&#45;&gt;4</title>
<path fill="none" stroke="black" d="M128.53,-170.29C126.6,-180.39 129.26,-190 136.5,-190 140.8,-190 143.48,-186.61 144.55,-181.74"/>
<polygon fill="black" stroke="black" points="148.05,-181.78 144.48,-171.8 141.05,-181.83 148.05,-181.78"/>
<text text-anchor="middle" x="136.5" y="-192.45" font-family="Arial" font-size="14.00">b</text>
</g>
<!-- 3 -->
<g id="node3" class="node">
<title>3</title>
<ellipse fill="none" stroke="black" cx="222" cy="-102" rx="18" ry="18"/>
<text text-anchor="middle" x="222" y="-96.58" font-family="Arial" font-size="14.00">3</text>
</g>
<!-- 4&#45;&gt;3 -->
<g id="edge8" class="edge">
<title>4&#45;&gt;3</title>
<path fill="none" stroke="black" d="M152.43,-144.7C164.66,-137.09 182.21,-126.15 196.5,-117.26"/>
<polygon fill="black" stroke="black" points="198.28,-120.27 204.92,-112.02 194.58,-114.33 198.28,-120.27"/>
<text text-anchor="middle" x="182.25" y="-130.45" font-family="Arial" font-size="14.00">a</text>
</g>
<!-- 3&#45;&gt;3 -->
<g id="edge6" class="edge">
<title>3&#45;&gt;3</title>
<path fill="none" stroke="black" d="M214.96,-119.04C213.52,-128.86 215.87,-138 222,-138 225.55,-138 227.83,-134.94 228.84,-130.47"/>
<polygon fill="black" stroke="black" points="232.34,-130.61 229.02,-120.55 225.34,-130.49 232.34,-130.61"/>
<text text-anchor="middle" x="222" y="-140.45" font-family="Arial" font-size="14.00">a</text>
</g>
<!-- 1 -->
<g id="node4" class="node">
<title>1</title>
<ellipse fill="none" stroke="black" cx="42" cy="-86" rx="18" ry="18"/>
<text text-anchor="middle" x="42" y="-80.58" font-family="Arial" font-size="14.00">1</text>
</g>
<!-- 3&#45;&gt;1 -->
<g id="edge7" class="edge">
<title>3&#45;&gt;1</title>
<path fill="none" stroke="black" d="M203.8,-100.45C173.15,-97.7 108.83,-91.92 71.49,-88.56"/>
<polygon fill="black" stroke="black" points="72.17,-85.11 61.9,-87.7 71.55,-92.08 72.17,-85.11"/>
<text text-anchor="middle" x="136.5" y="-99.82" font-family="Arial" font-size="14.00">b</text>
</g>
<!-- 1&#45;&gt;4 -->
<g id="edge3" class="edge">
<title>1&#45;&gt;4</title>
<path fill="none" stroke="black" d="M57.05,-96.33C71.72,-107.11 94.97,-124.2 112.35,-136.98"/>
<polygon fill="black" stroke="black" points="109.97,-139.58 120.1,-142.68 114.12,-133.94 109.97,-139.58"/>
<text text-anchor="middle" x="90.75" y="-124.49" font-family="Arial" font-size="14.00">b</text>
</g>
<!-- 2 -->
<g id="node5" class="node">
<title>2</title>
<ellipse fill="none" stroke="black" cx="136.5" cy="-42" rx="18" ry="18"/>
<text text-anchor="middle" x="136.5" y="-36.58" font-family="Arial" font-size="14.00">2</text>
</g>
<!-- 1&#45;&gt;2 -->
<g id="edge2" class="edge">
<title>1&#45;&gt;2</title>
<path fill="none" stroke="black" d="M58.69,-78.54C72.64,-71.9 93.31,-62.07 109.7,-54.27"/>
<polygon fill="black" stroke="black" points="110.84,-57.61 118.36,-50.15 107.83,-51.29 110.84,-57.61"/>
<text text-anchor="middle" x="90.75" y="-66.45" font-family="Arial" font-size="14.00">a</text>
</g>
<!-- 2&#45;&gt;3 -->
<g id="edge4" class="edge">
<title>2&#45;&gt;3</title>
<path fill="none" stroke="black" d="M152.73,-50.72C162.48,-56.48 175.26,-64.4 186,-72.25 190.51,-75.55 195.17,-79.27 199.57,-82.93"/>
<polygon fill="black" stroke="black" points="197.06,-85.39 206.93,-89.24 201.61,-80.08 197.06,-85.39"/>
<text text-anchor="middle" x="182.25" y="-74.7" font-family="Arial" font-size="14.00">a</text>
</g>
<!-- 2&#45;&gt;1 -->
<g id="edge5" class="edge">
<title>2&#45;&gt;1</title>
<path fill="none" stroke="black" d="M118.25,-39.45C108.68,-38.77 96.78,-39.13 87,-43.25 76.87,-47.51 67.76,-55.28 60.49,-63.04"/>
<polygon fill="black" stroke="black" points="57.98,-60.6 54.1,-70.46 63.28,-65.17 57.98,-60.6"/>
<text text-anchor="middle" x="90.75" y="-45.7" font-family="Arial" font-size="14.00">b</text>
</g>
</g>
</svg>
