<?xml version="1.0" encoding="UTF-8" standalone="no"?>
<!DOCTYPE svg PUBLIC "-//W3C//DTD SVG 1.1//EN"
 "http://www.w3.org/Graphics/SVG/1.1/DTD/svg11.dtd">
<!-- Generated by graphviz version 12.2.1 (20241206.2353)
 -->
<!-- Title: G Pages: 1 -->
<svg width="720pt" height="157pt"
 viewBox="0.00 0.00 720.00 156.78" xmlns="http://www.w3.org/2000/svg" xmlns:xlink="http://www.w3.org/1999/xlink">
<g id="graph0" class="graph" transform="scale(0.72 0.72) rotate(0) translate(4 213.75)">
<title>G</title>
<!-- dot_dummyinit_0 -->
<g id="node1" class="node">
<title>dot_dummyinit_0</title>
</g>
<!-- N0 -->
<g id="node2" class="node">
<title>N0</title>
<path fill="none" stroke="black" d="M133,-153C133,-153 103,-153 103,-153 97,-153 91,-147 91,-141 91,-141 91,-129 91,-129 91,-123 97,-117 103,-117 103,-117 133,-117 133,-117 139,-117 145,-123 145,-129 145,-129 145,-141 145,-141 145,-147 139,-153 133,-153"/>
<text text-anchor="middle" x="118" y="-129.57" font-family="Arial" font-size="14.00">N0</text>
</g>
<!-- dot_dummyinit_0&#45;&gt;N0 -->
<g id="edge1" class="edge">
<title>dot_dummyinit_0&#45;&gt;N0</title>
<path fill="none" stroke="black" d="M53.74,-135C61.72,-135 70.68,-135 79.29,-135"/>
<polygon fill="black" stroke="black" points="79.18,-138.5 89.18,-135 79.18,-131.5 79.18,-138.5"/>
</g>
<!-- N1 -->
<g id="node3" class="node">
<title>N1</title>
<path fill="none" stroke="black" d="M308,-176C308,-176 278,-176 278,-176 272,-176 266,-170 266,-164 266,-164 266,-152 266,-152 266,-146 272,-140 278,-140 278,-140 308,-140 308,-140 314,-140 320,-146 320,-152 320,-152 320,-164 320,-164 320,-170 314,-176 308,-176"/>
<text text-anchor="middle" x="293" y="-152.57" font-family="Arial" font-size="14.00">N1</text>
</g>
<!-- N0&#45;&gt;N1 -->
<g id="edge2" class="edge">
<title>N0&#45;&gt;N1</title>
<path fill="none" stroke="black" d="M145.27,-138.49C174.45,-142.37 221.76,-148.66 254.74,-153.05"/>
<polygon fill="black" stroke="black" points="253.89,-156.46 264.26,-154.31 254.81,-149.52 253.89,-156.46"/>
<text text-anchor="middle" x="166.75" y="-144.16" font-family="Arial" font-size="14.00">a</text>
</g>
<!-- A1 -->
<g id="node6" class="node">
<title>A1</title>
<path fill="none" stroke="black" d="M236,-130C236,-130 200.5,-130 200.5,-130 194.5,-130 188.5,-124 188.5,-118 188.5,-118 188.5,-106 188.5,-106 188.5,-100 194.5,-94 200.5,-94 200.5,-94 236,-94 236,-94 242,-94 248,-100 248,-106 248,-106 248,-118 248,-118 248,-124 242,-130 236,-130"/>
<text text-anchor="start" x="200.5" y="-106.58" font-family="Arial" font-size="14.00">A1</text>
<polygon fill="lightblue" stroke="none" points="228,-102.12 228,-121.88 238,-121.88 238,-102.12 228,-102.12"/>
</g>
<!-- N0&#45;&gt;A1 -->
<g id="edge3" class="edge">
<title>N0&#45;&gt;A1</title>
<path fill="none" stroke="black" d="M145.31,-125.36C151.08,-123.47 157.2,-121.65 163,-120.25 167.53,-119.15 172.31,-118.18 177.08,-117.31"/>
<polygon fill="black" stroke="black" points="177.28,-120.83 186.58,-115.74 176.14,-113.92 177.28,-120.83"/>
<text text-anchor="middle" x="166.75" y="-122.7" font-family="Arial" font-size="14.00">a</text>
</g>
<!-- N2 -->
<g id="node4" class="node">
<title>N2</title>
<path fill="none" stroke="black" d="M628.5,-176C628.5,-176 598.5,-176 598.5,-176 592.5,-176 586.5,-170 586.5,-164 586.5,-164 586.5,-152 586.5,-152 586.5,-146 592.5,-140 598.5,-140 598.5,-140 628.5,-140 628.5,-140 634.5,-140 640.5,-146 640.5,-152 640.5,-152 640.5,-164 640.5,-164 640.5,-170 634.5,-176 628.5,-176"/>
<text text-anchor="middle" x="613.5" y="-152.57" font-family="Arial" font-size="14.00">N2</text>
</g>
<!-- N1&#45;&gt;N2 -->
<g id="edge4" class="edge">
<title>N1&#45;&gt;N2</title>
<path fill="none" stroke="black" d="M320.34,-158C376.74,-158 509.38,-158 574.75,-158"/>
<polygon fill="black" stroke="black" points="574.62,-161.5 584.62,-158 574.62,-154.5 574.62,-161.5"/>
<text text-anchor="middle" x="448.5" y="-160.45" font-family="Arial" font-size="14.00">a</text>
</g>
<!-- N2&#45;&gt;N2 -->
<g id="edge5" class="edge">
<title>N2&#45;&gt;N2</title>
<path fill="none" stroke="black" d="M602.28,-176.15C600.56,-185.54 604.3,-194 613.5,-194 618.68,-194 622.12,-191.32 623.84,-187.31"/>
<polygon fill="black" stroke="black" points="627.31,-187.9 624.6,-177.66 620.33,-187.36 627.31,-187.9"/>
<text text-anchor="middle" x="613.5" y="-196.45" font-family="Arial" font-size="14.00">a</text>
</g>
<!-- N3 -->
<g id="node5" class="node">
<title>N3</title>
<path fill="none" stroke="black" d="M756.62,-179C756.62,-179 726.62,-179 726.62,-179 720.62,-179 714.62,-173 714.62,-167 714.62,-167 714.62,-155 714.62,-155 714.62,-149 720.62,-143 726.62,-143 726.62,-143 756.62,-143 756.62,-143 762.62,-143 768.62,-149 768.62,-155 768.62,-155 768.62,-167 768.62,-167 768.62,-173 762.62,-179 756.62,-179"/>
<text text-anchor="middle" x="741.62" y="-155.57" font-family="Arial" font-size="14.00">N3</text>
</g>
<!-- N2&#45;&gt;N3 -->
<g id="edge6" class="edge">
<title>N2&#45;&gt;N3</title>
<path fill="none" stroke="black" d="M640.94,-158.63C658.85,-159.05 682.79,-159.62 702.72,-160.1"/>
<polygon fill="black" stroke="black" points="702.63,-163.6 712.71,-160.34 702.79,-156.6 702.63,-163.6"/>
<text text-anchor="middle" x="675.5" y="-161.95" font-family="Arial" font-size="14.00">a</text>
</g>
<!-- A2_R -->
<g id="node7" class="node">
<title>A2_R</title>
<path fill="none" stroke="black" d="M414.75,-110C414.75,-110 350,-110 350,-110 344,-110 338,-104 338,-98 338,-98 338,-86 338,-86 338,-80 344,-74 350,-74 350,-74 414.75,-74 414.75,-74 420.75,-74 426.75,-80 426.75,-86 426.75,-86 426.75,-98 426.75,-98 426.75,-104 420.75,-110 414.75,-110"/>
<text text-anchor="start" x="350" y="-86.58" font-family="Arial" font-size="14.00">A2_R</text>
<polygon fill="lightblue" stroke="none" points="394.75,-82.12 394.75,-101.88 404.75,-101.88 404.75,-82.12 394.75,-82.12"/>
<polygon fill="darkblue" stroke="none" points="406.75,-82.12 406.75,-101.88 416.75,-101.88 416.75,-82.12 406.75,-82.12"/>
</g>
<!-- A1&#45;&gt;A2_R -->
<g id="edge7" class="edge">
<title>A1&#45;&gt;A2_R</title>
<path fill="none" stroke="black" d="M248.23,-108.42C269.89,-105.75 300.16,-102.02 326.36,-98.79"/>
<polygon fill="black" stroke="black" points="326.68,-102.27 336.18,-97.58 325.82,-95.33 326.68,-102.27"/>
<text text-anchor="middle" x="293" y="-108.54" font-family="Arial" font-size="14.00">a</text>
</g>
<!-- A2_R&#45;&gt;A1 -->
<g id="edge8" class="edge">
<title>A2_R&#45;&gt;A1</title>
<path fill="none" stroke="black" d="M337.56,-79.51C315.66,-75.27 289,-73.18 266,-80.25 260.51,-81.94 255.09,-84.51 250,-87.48"/>
<polygon fill="black" stroke="black" points="248.41,-84.34 241.93,-92.72 252.22,-90.21 248.41,-84.34"/>
<text text-anchor="middle" x="293" y="-82.7" font-family="Arial" font-size="14.00">a</text>
</g>
<!-- A3 -->
<g id="node8" class="node">
<title>A3</title>
<path fill="none" stroke="black" d="M517.75,-110C517.75,-110 482.25,-110 482.25,-110 476.25,-110 470.25,-104 470.25,-98 470.25,-98 470.25,-86 470.25,-86 470.25,-80 476.25,-74 482.25,-74 482.25,-74 517.75,-74 517.75,-74 523.75,-74 529.75,-80 529.75,-86 529.75,-86 529.75,-98 529.75,-98 529.75,-104 523.75,-110 517.75,-110"/>
<text text-anchor="start" x="482.25" y="-86.58" font-family="Arial" font-size="14.00">A3</text>
<polygon fill="lightblue" stroke="none" points="509.75,-82.12 509.75,-101.88 519.75,-101.88 519.75,-82.12 509.75,-82.12"/>
</g>
<!-- A2_R&#45;&gt;A3 -->
<g id="edge9" class="edge">
<title>A2_R&#45;&gt;A3</title>
<path fill="none" stroke="black" d="M427.09,-92C437.38,-92 448.32,-92 458.46,-92"/>
<polygon fill="black" stroke="black" points="458.42,-95.5 468.42,-92 458.42,-88.5 458.42,-95.5"/>
<text text-anchor="middle" x="448.5" y="-94.45" font-family="Arial" font-size="14.00">a</text>
</g>
<!-- A3&#45;&gt;N2 -->
<g id="edge10" class="edge">
<title>A3&#45;&gt;N2</title>
<path fill="none" stroke="black" d="M530,-109.17C544.3,-117.63 561.66,-127.91 576.76,-136.85"/>
<polygon fill="black" stroke="black" points="574.62,-139.64 585.01,-141.73 578.18,-133.62 574.62,-139.64"/>
<text text-anchor="middle" x="551.5" y="-125.47" font-family="Arial" font-size="14.00">a</text>
</g>
<!-- AB4 -->
<g id="node9" class="node">
<title>AB4</title>
<path fill="none" stroke="black" d="M641.75,-92C641.75,-92 585.25,-92 585.25,-92 579.25,-92 573.25,-86 573.25,-80 573.25,-80 573.25,-68 573.25,-68 573.25,-62 579.25,-56 585.25,-56 585.25,-56 641.75,-56 641.75,-56 647.75,-56 653.75,-62 653.75,-68 653.75,-68 653.75,-80 653.75,-80 653.75,-86 647.75,-92 641.75,-92"/>
<text text-anchor="start" x="585.25" y="-68.58" font-family="Arial" font-size="14.00">AB4</text>
<polygon fill="lightblue" stroke="none" points="621.75,-64.12 621.75,-83.88 631.75,-83.88 631.75,-64.12 621.75,-64.12"/>
<polygon fill="#ffcc80" stroke="none" points="633.75,-64.12 633.75,-83.88 643.75,-83.88 643.75,-64.12 633.75,-64.12"/>
</g>
<!-- A3&#45;&gt;AB4 -->
<g id="edge11" class="edge">
<title>A3&#45;&gt;AB4</title>
<path fill="none" stroke="black" d="M530,-87.32C539.77,-85.74 550.98,-83.93 561.92,-82.17"/>
<polygon fill="black" stroke="black" points="562.34,-85.64 571.65,-80.59 561.22,-78.73 562.34,-85.64"/>
<text text-anchor="middle" x="551.5" y="-86.53" font-family="Arial" font-size="14.00">a</text>
</g>
<!-- A5 -->
<g id="node10" class="node">
<title>A5</title>
<path fill="none" stroke="black" d="M759.38,-125C759.38,-125 723.88,-125 723.88,-125 717.88,-125 711.88,-119 711.88,-113 711.88,-113 711.88,-101 711.88,-101 711.88,-95 717.88,-89 723.88,-89 723.88,-89 759.38,-89 759.38,-89 765.38,-89 771.38,-95 771.38,-101 771.38,-101 771.38,-113 771.38,-113 771.38,-119 765.38,-125 759.38,-125"/>
<text text-anchor="start" x="723.88" y="-101.58" font-family="Arial" font-size="14.00">A5</text>
<polygon fill="lightblue" stroke="none" points="751.38,-97.12 751.38,-116.88 761.38,-116.88 761.38,-97.12 751.38,-97.12"/>
</g>
<!-- AB4&#45;&gt;A5 -->
<g id="edge12" class="edge">
<title>AB4&#45;&gt;A5</title>
<path fill="none" stroke="black" d="M654.06,-84.35C668.91,-88.24 685.8,-92.65 700.68,-96.55"/>
<polygon fill="black" stroke="black" points="699.59,-99.88 710.15,-99.03 701.36,-93.11 699.59,-99.88"/>
<text text-anchor="middle" x="675.5" y="-92.95" font-family="Arial" font-size="14.00">a</text>
</g>
<!-- B2_R -->
<g id="node12" class="node">
<title>B2_R</title>
<path fill="none" stroke="black" d="M774,-66C774,-66 709.25,-66 709.25,-66 703.25,-66 697.25,-60 697.25,-54 697.25,-54 697.25,-42 697.25,-42 697.25,-36 703.25,-30 709.25,-30 709.25,-30 774,-30 774,-30 780,-30 786,-36 786,-42 786,-42 786,-54 786,-54 786,-60 780,-66 774,-66"/>
<text text-anchor="start" x="709.25" y="-42.58" font-family="Arial" font-size="14.00">B2_R</text>
<polygon fill="#ffcc80" stroke="none" points="754,-38.12 754,-57.88 764,-57.88 764,-38.12 754,-38.12"/>
<polygon fill="#ff9900" stroke="none" points="766,-38.12 766,-57.88 776,-57.88 776,-38.12 766,-38.12"/>
</g>
<!-- AB4&#45;&gt;B2_R -->
<g id="edge13" class="edge">
<title>AB4&#45;&gt;B2_R</title>
<path fill="none" stroke="black" d="M654.06,-65.84C664.14,-63.77 675.16,-61.5 685.85,-59.29"/>
<polygon fill="black" stroke="black" points="686.25,-62.78 695.34,-57.34 684.84,-55.93 686.25,-62.78"/>
<text text-anchor="middle" x="675.5" y="-64.23" font-family="Arial" font-size="14.00">a</text>
</g>
<!-- A6 -->
<g id="node11" class="node">
<title>A6</title>
<path fill="none" stroke="black" d="M877,-132C877,-132 841.5,-132 841.5,-132 835.5,-132 829.5,-126 829.5,-120 829.5,-120 829.5,-108 829.5,-108 829.5,-102 835.5,-96 841.5,-96 841.5,-96 877,-96 877,-96 883,-96 889,-102 889,-108 889,-108 889,-120 889,-120 889,-126 883,-132 877,-132"/>
<text text-anchor="start" x="841.5" y="-108.58" font-family="Arial" font-size="14.00">A6</text>
<polygon fill="lightblue" stroke="none" points="869,-104.12 869,-123.88 879,-123.88 879,-104.12 869,-104.12"/>
</g>
<!-- A5&#45;&gt;A6 -->
<g id="edge14" class="edge">
<title>A5&#45;&gt;A6</title>
<path fill="none" stroke="black" d="M771.66,-108.95C781.88,-109.62 793.45,-110.36 804,-111 808.48,-111.27 813.17,-111.54 817.83,-111.81"/>
<polygon fill="black" stroke="black" points="817.56,-115.3 827.74,-112.36 817.95,-108.31 817.56,-115.3"/>
<text text-anchor="middle" x="807.75" y="-113.89" font-family="Arial" font-size="14.00">a</text>
</g>
<!-- A6&#45;&gt;A5 -->
<g id="edge15" class="edge">
<title>A6&#45;&gt;A5</title>
<path fill="none" stroke="black" d="M829.07,-97.33C823.4,-94.81 817.39,-92.61 811.5,-91.25 802.24,-89.12 792.27,-89.72 782.88,-91.59"/>
<polygon fill="black" stroke="black" points="782.08,-88.18 773.25,-94.04 783.81,-94.97 782.08,-88.18"/>
<text text-anchor="middle" x="807.75" y="-93.7" font-family="Arial" font-size="14.00">a</text>
</g>
<!-- B2_R&#45;&gt;AB4 -->
<g id="edge16" class="edge">
<title>B2_R&#45;&gt;AB4</title>
<path fill="none" stroke="black" d="M696.89,-39.05C688.46,-38.63 679.76,-39.12 671.75,-41.25 664.31,-43.23 656.84,-46.42 649.86,-50.06"/>
<polygon fill="black" stroke="black" points="648.34,-46.9 641.36,-54.87 651.78,-52.99 648.34,-46.9"/>
<text text-anchor="middle" x="675.5" y="-43.7" font-family="Arial" font-size="14.00">a</text>
</g>
<!-- B3 -->
<g id="node13" class="node">
<title>B3</title>
<path fill="none" stroke="black" d="M877,-66C877,-66 841.5,-66 841.5,-66 835.5,-66 829.5,-60 829.5,-54 829.5,-54 829.5,-42 829.5,-42 829.5,-36 835.5,-30 841.5,-30 841.5,-30 877,-30 877,-30 883,-30 889,-36 889,-42 889,-42 889,-54 889,-54 889,-60 883,-66 877,-66"/>
<text text-anchor="start" x="841.5" y="-42.58" font-family="Arial" font-size="14.00">B3</text>
<polygon fill="#ffcc80" stroke="none" points="869,-38.12 869,-57.88 879,-57.88 879,-38.12 869,-38.12"/>
</g>
<!-- B2_R&#45;&gt;B3 -->
<g id="edge17" class="edge">
<title>B2_R&#45;&gt;B3</title>
<path fill="none" stroke="black" d="M786.34,-48C796.63,-48 807.57,-48 817.71,-48"/>
<polygon fill="black" stroke="black" points="817.67,-51.5 827.67,-48 817.67,-44.5 817.67,-51.5"/>
<text text-anchor="middle" x="807.75" y="-50.45" font-family="Arial" font-size="14.00">a</text>
</g>
<!-- B4 -->
<g id="node14" class="node">
<title>B4</title>
<path fill="none" stroke="black" d="M980,-36C980,-36 944.5,-36 944.5,-36 938.5,-36 932.5,-30 932.5,-24 932.5,-24 932.5,-12 932.5,-12 932.5,-6 938.5,0 944.5,0 944.5,0 980,0 980,0 986,0 992,-6 992,-12 992,-12 992,-24 992,-24 992,-30 986,-36 980,-36"/>
<text text-anchor="start" x="944.5" y="-12.57" font-family="Arial" font-size="14.00">B4</text>
<polygon fill="#ffcc80" stroke="none" points="972,-8.12 972,-27.88 982,-27.88 982,-8.12 972,-8.12"/>
</g>
<!-- B3&#45;&gt;B4 -->
<g id="edge18" class="edge">
<title>B3&#45;&gt;B4</title>
<path fill="none" stroke="black" d="M889.46,-39.32C899.41,-36.37 910.7,-33.01 921.34,-29.85"/>
<polygon fill="black" stroke="black" points="922.06,-33.29 930.65,-27.09 920.07,-26.58 922.06,-33.29"/>
<text text-anchor="middle" x="910.75" y="-36.35" font-family="Arial" font-size="14.00">a</text>
</g>
<!-- B4&#45;&gt;AB4 -->
<g id="edge19" class="edge">
<title>B4&#45;&gt;AB4</title>
<path fill="none" stroke="black" d="M932.05,-13.53C882.63,-7.01 779.82,1.99 697.25,-21 677.92,-26.38 658.89,-38 643.96,-48.99"/>
<polygon fill="black" stroke="black" points="642.23,-45.91 636.43,-54.77 646.49,-51.46 642.23,-45.91"/>
<text text-anchor="middle" x="807.75" y="-8.92" font-family="Arial" font-size="14.00">a</text>
</g>
</g>
</svg>
