<?xml version="1.0" encoding="UTF-8" standalone="no"?>
<!DOCTYPE svg PUBLIC "-//W3C//DTD SVG 1.1//EN"
 "http://www.w3.org/Graphics/SVG/1.1/DTD/svg11.dtd">
<!-- Generated by graphviz version 2.43.0 (0)
 -->
<!-- Title: G Pages: 1 -->
<svg width="720pt" height="57pt"
 viewBox="0.00 0.00 720.00 56.56" xmlns="http://www.w3.org/2000/svg" xmlns:xlink="http://www.w3.org/1999/xlink">
<g id="graph0" class="graph" transform="scale(1.31 1.31) rotate(0) translate(4 70)">
<title>G</title>
<!-- dot_dummyinit_0 -->
<g id="node1" class="node">
<title>dot_dummyinit_0</title>
</g>
<!-- N0 -->
<g id="node2" class="node">
<title>N0</title>
<path fill="none" stroke="black" d="M133,-53C133,-53 103,-53 103,-53 97,-53 91,-47 91,-41 91,-41 91,-29 91,-29 91,-23 97,-17 103,-17 103,-17 133,-17 133,-17 139,-17 145,-23 145,-29 145,-29 145,-41 145,-41 145,-47 139,-53 133,-53"/>
<text text-anchor="middle" x="118" y="-31.3" font-family="Arial" font-size="14.00">N0</text>
</g>
<!-- dot_dummyinit_0&#45;&gt;N0 -->
<g id="edge1" class="edge">
<title>dot_dummyinit_0&#45;&gt;N0</title>
<path fill="none" stroke="black" d="M54.22,-35C62.55,-35 71.91,-35 80.82,-35"/>
<polygon fill="black" stroke="black" points="80.97,-38.5 90.97,-35 80.97,-31.5 80.97,-38.5"/>
</g>
<!-- A1 -->
<g id="node4" class="node">
<title>A1</title>
<path fill="none" stroke="black" d="M237,-53C237,-53 201,-53 201,-53 195,-53 189,-47 189,-41 189,-41 189,-29 189,-29 189,-23 195,-17 201,-17 201,-17 237,-17 237,-17 243,-17 249,-23 249,-29 249,-29 249,-41 249,-41 249,-47 243,-53 237,-53"/>
<text text-anchor="start" x="201" y="-30.8" font-family="Arial" font-size="14.00">A1</text>
<polygon fill="lightblue" stroke="transparent" points="229,-25 229,-44 239,-44 239,-25 229,-25"/>
</g>
<!-- N0&#45;&gt;A1 -->
<g id="edge2" class="edge">
<title>N0&#45;&gt;A1</title>
<path fill="none" stroke="black" d="M145.01,-35C155.27,-35 167.29,-35 178.58,-35"/>
<polygon fill="black" stroke="black" points="178.67,-38.5 188.67,-35 178.67,-31.5 178.67,-38.5"/>
<text text-anchor="middle" x="167" y="-38.8" font-family="Arial" font-size="14.00">a</text>
</g>
<!-- A3 -->
<g id="node3" class="node">
<title>A3</title>
<path fill="none" stroke="black" d="M468,-53C468,-53 438,-53 438,-53 432,-53 426,-47 426,-41 426,-41 426,-29 426,-29 426,-23 432,-17 438,-17 438,-17 468,-17 468,-17 474,-17 480,-23 480,-29 480,-29 480,-41 480,-41 480,-47 474,-53 468,-53"/>
<text text-anchor="middle" x="453" y="-31.3" font-family="Arial" font-size="14.00">A3</text>
</g>
<!-- AB4 -->
<g id="node6" class="node">
<title>AB4</title>
<path fill="none" stroke="black" d="M581,-53C581,-53 536,-53 536,-53 530,-53 524,-47 524,-41 524,-41 524,-29 524,-29 524,-23 530,-17 536,-17 536,-17 581,-17 581,-17 587,-17 593,-23 593,-29 593,-29 593,-41 593,-41 593,-47 587,-53 581,-53"/>
<text text-anchor="start" x="536.5" y="-30.8" font-family="Arial" font-size="14.00">AB4</text>
<polygon fill="#ffcc80" stroke="transparent" points="573.5,-25 573.5,-44 583.5,-44 583.5,-25 573.5,-25"/>
</g>
<!-- A3&#45;&gt;AB4 -->
<g id="edge6" class="edge">
<title>A3&#45;&gt;AB4</title>
<path fill="none" stroke="black" d="M480.12,-35C490.3,-35 502.24,-35 513.67,-35"/>
<polygon fill="black" stroke="black" points="513.94,-38.5 523.94,-35 513.94,-31.5 513.94,-38.5"/>
<text text-anchor="middle" x="502" y="-38.8" font-family="Arial" font-size="14.00">a</text>
</g>
<!-- A2_R -->
<g id="node5" class="node">
<title>A2_R</title>
<path fill="none" stroke="black" d="M370,-53C370,-53 305,-53 305,-53 299,-53 293,-47 293,-41 293,-41 293,-29 293,-29 293,-23 299,-17 305,-17 305,-17 370,-17 370,-17 376,-17 382,-23 382,-29 382,-29 382,-41 382,-41 382,-47 376,-53 370,-53"/>
<text text-anchor="start" x="305.5" y="-30.8" font-family="Arial" font-size="14.00">A2_R</text>
<polygon fill="lightblue" stroke="transparent" points="350.5,-25 350.5,-44 360.5,-44 360.5,-25 350.5,-25"/>
<polygon fill="darkblue" stroke="transparent" points="362.5,-25 362.5,-44 372.5,-44 372.5,-25 362.5,-25"/>
</g>
<!-- A1&#45;&gt;A2_R -->
<g id="edge3" class="edge">
<title>A1&#45;&gt;A2_R</title>
<path fill="none" stroke="black" d="M249.1,-35C259.31,-35 271.14,-35 282.73,-35"/>
<polygon fill="black" stroke="black" points="282.81,-38.5 292.81,-35 282.81,-31.5 282.81,-38.5"/>
<text text-anchor="middle" x="271" y="-38.8" font-family="Arial" font-size="14.00">a</text>
</g>
<!-- A2_R&#45;&gt;A3 -->
<g id="edge5" class="edge">
<title>A2_R&#45;&gt;A3</title>
<path fill="none" stroke="black" d="M382.06,-35C393.12,-35 404.9,-35 415.57,-35"/>
<polygon fill="black" stroke="black" points="415.8,-38.5 425.8,-35 415.8,-31.5 415.8,-38.5"/>
<text text-anchor="middle" x="404" y="-38.8" font-family="Arial" font-size="14.00">a</text>
</g>
<!-- A2_R&#45;&gt;A1 -->
<g id="edge4" class="edge">
<title>A2_R&#45;&gt;A1</title>
<path fill="none" stroke="black" d="M294.1,-17C285.21,-15.03 275.84,-14.28 267,-16 264.21,-16.54 261.37,-17.25 258.54,-18.08"/>
<polygon fill="black" stroke="black" points="257.43,-14.76 249.05,-21.25 259.65,-21.4 257.43,-14.76"/>
<text text-anchor="middle" x="271" y="-19.8" font-family="Arial" font-size="14.00">a</text>
</g>
<!-- B2_R -->
<g id="node7" class="node">
<title>B2_R</title>
<path fill="none" stroke="black" d="M714,-66C714,-66 649,-66 649,-66 643,-66 637,-60 637,-54 637,-54 637,-42 637,-42 637,-36 643,-30 649,-30 649,-30 714,-30 714,-30 720,-30 726,-36 726,-42 726,-42 726,-54 726,-54 726,-60 720,-66 714,-66"/>
<text text-anchor="start" x="649.5" y="-43.8" font-family="Arial" font-size="14.00">B2_R</text>
<polygon fill="#ffcc80" stroke="transparent" points="694.5,-38 694.5,-57 704.5,-57 704.5,-38 694.5,-38"/>
<polygon fill="#ff9900" stroke="transparent" points="706.5,-38 706.5,-57 716.5,-57 716.5,-38 706.5,-38"/>
</g>
<!-- AB4&#45;&gt;B2_R -->
<g id="edge7" class="edge">
<title>AB4&#45;&gt;B2_R</title>
<path fill="none" stroke="black" d="M593.23,-47.06C599.09,-48.7 605.17,-50.11 611,-51 616.09,-51.77 621.42,-52.21 626.76,-52.39"/>
<polygon fill="black" stroke="black" points="626.96,-55.89 636.98,-52.46 627.01,-48.89 626.96,-55.89"/>
<text text-anchor="middle" x="615" y="-54.8" font-family="Arial" font-size="14.00">a</text>
</g>
<!-- B2_R&#45;&gt;AB4 -->
<g id="edge8" class="edge">
<title>B2_R&#45;&gt;AB4</title>
<path fill="none" stroke="black" d="M636.76,-35.17C630.83,-33.86 624.8,-32.74 619,-32 615.47,-31.55 614.55,-31.9 611,-32 608.45,-32.07 605.84,-32.17 603.2,-32.28"/>
<polygon fill="black" stroke="black" points="602.83,-28.79 593.01,-32.76 603.16,-35.78 602.83,-28.79"/>
<text text-anchor="middle" x="615" y="-35.8" font-family="Arial" font-size="14.00">a</text>
</g>
<!-- B3 -->
<g id="node8" class="node">
<title>B3</title>
<path fill="none" stroke="black" d="M818,-66C818,-66 782,-66 782,-66 776,-66 770,-60 770,-54 770,-54 770,-42 770,-42 770,-36 776,-30 782,-30 782,-30 818,-30 818,-30 824,-30 830,-36 830,-42 830,-42 830,-54 830,-54 830,-60 824,-66 818,-66"/>
<text text-anchor="start" x="782" y="-43.8" font-family="Arial" font-size="14.00">B3</text>
<polygon fill="#ffcc80" stroke="transparent" points="810,-38 810,-57 820,-57 820,-38 810,-38"/>
</g>
<!-- B2_R&#45;&gt;B3 -->
<g id="edge9" class="edge">
<title>B2_R&#45;&gt;B3</title>
<path fill="none" stroke="black" d="M726.21,-48C737.27,-48 749.07,-48 759.89,-48"/>
<polygon fill="black" stroke="black" points="759.9,-51.5 769.9,-48 759.9,-44.5 759.9,-51.5"/>
<text text-anchor="middle" x="748" y="-51.8" font-family="Arial" font-size="14.00">a</text>
</g>
<!-- B4 -->
<g id="node9" class="node">
<title>B4</title>
<path fill="none" stroke="black" d="M922,-36C922,-36 886,-36 886,-36 880,-36 874,-30 874,-24 874,-24 874,-12 874,-12 874,-6 880,0 886,0 886,0 922,0 922,0 928,0 934,-6 934,-12 934,-12 934,-24 934,-24 934,-30 928,-36 922,-36"/>
<text text-anchor="start" x="886" y="-13.8" font-family="Arial" font-size="14.00">B4</text>
<polygon fill="#ffcc80" stroke="transparent" points="914,-8 914,-27 924,-27 924,-8 914,-8"/>
</g>
<!-- B3&#45;&gt;B4 -->
<g id="edge10" class="edge">
<title>B3&#45;&gt;B4</title>
<path fill="none" stroke="black" d="M830.23,-39.4C840.79,-36.3 852.89,-32.74 864.15,-29.43"/>
<polygon fill="black" stroke="black" points="865.16,-32.78 873.77,-26.6 863.19,-26.06 865.16,-32.78"/>
<text text-anchor="middle" x="852" y="-36.8" font-family="Arial" font-size="14.00">a</text>
</g>
<!-- B4&#45;&gt;AB4 -->
<g id="edge11" class="edge">
<title>B4&#45;&gt;AB4</title>
<path fill="none" stroke="black" d="M873.79,-16.74C824.73,-14.97 722.74,-12.83 637,-21 625.95,-22.05 614.12,-23.84 603.11,-25.8"/>
<polygon fill="black" stroke="black" points="602.47,-22.36 593.28,-27.63 603.75,-29.24 602.47,-22.36"/>
<text text-anchor="middle" x="748" y="-19.8" font-family="Arial" font-size="14.00">a</text>
</g>
</g>
</svg>
