<?xml version="1.0" encoding="UTF-8" standalone="no"?>
<!DOCTYPE svg PUBLIC "-//W3C//DTD SVG 1.1//EN"
 "http://www.w3.org/Graphics/SVG/1.1/DTD/svg11.dtd">
<!-- Generated by graphviz version 2.43.0 (0)
 -->
<!-- Title: wPlant3 Pages: 1 -->
<svg width="492pt" height="110pt"
 viewBox="0.00 0.00 492.00 110.00" xmlns="http://www.w3.org/2000/svg" xmlns:xlink="http://www.w3.org/1999/xlink">
<g id="graph0" class="graph" transform="scale(1 1) rotate(0) translate(4 106)">
<title>wPlant3</title>
<!-- dot_dummyinit_1 -->
<g id="node1" class="node">
<title>dot_dummyinit_1</title>
</g>
<!-- I -->
<g id="node2" class="node">
<title>I</title>
<path fill="none" stroke="black" d="M80,-69C80,-69 50,-69 50,-69 44,-69 38,-63 38,-57 38,-57 38,-45 38,-45 38,-39 44,-33 50,-33 50,-33 80,-33 80,-33 86,-33 92,-39 92,-45 92,-45 92,-57 92,-57 92,-63 86,-69 80,-69"/>
<text text-anchor="start" x="55" y="-46.8" font-family="Arial" font-size="14.00">I</text>
<polygon fill="black" stroke="transparent" points="69,-41 69,-60 77,-60 77,-41 69,-41"/>
</g>
<!-- dot_dummyinit_1&#45;&gt;I -->
<g id="edge1" class="edge">
<title>dot_dummyinit_1&#45;&gt;I</title>
<path fill="none" stroke="black" d="M1.05,-51C1.88,-51 14.11,-51 27.57,-51"/>
<polygon fill="black" stroke="black" points="27.94,-54.5 37.94,-51 27.94,-47.5 27.94,-54.5"/>
</g>
<!-- A -->
<g id="node3" class="node">
<title>A</title>
<path fill="none" stroke="black" d="M178,-101C178,-101 148,-101 148,-101 142,-101 136,-95 136,-89 136,-89 136,-77 136,-77 136,-71 142,-65 148,-65 148,-65 178,-65 178,-65 184,-65 190,-71 190,-77 190,-77 190,-89 190,-89 190,-95 184,-101 178,-101"/>
<text text-anchor="start" x="150" y="-78.8" font-family="Arial" font-size="14.00">A</text>
<polygon fill="black" stroke="transparent" points="170,-73 170,-92 178,-92 178,-73 170,-73"/>
</g>
<!-- I&#45;&gt;A -->
<g id="edge2" class="edge">
<title>I&#45;&gt;A</title>
<path fill="none" stroke="black" d="M83.14,-69.08C90.66,-75.75 100.05,-82.52 110,-86 114.94,-87.73 120.31,-88.52 125.65,-88.71"/>
<polygon fill="black" stroke="black" points="125.89,-92.2 135.79,-88.43 125.7,-85.21 125.89,-92.2"/>
<text text-anchor="middle" x="114" y="-90.8" font-family="Arial" font-size="14.00">a</text>
</g>
<!-- B -->
<g id="node4" class="node">
<title>B</title>
<path fill="none" stroke="black" d="M178,-36C178,-36 148,-36 148,-36 142,-36 136,-30 136,-24 136,-24 136,-12 136,-12 136,-6 142,0 148,0 148,0 178,0 178,0 184,0 190,-6 190,-12 190,-12 190,-24 190,-24 190,-30 184,-36 178,-36"/>
<text text-anchor="start" x="150" y="-13.8" font-family="Arial" font-size="14.00">B</text>
<polygon fill="black" stroke="transparent" points="170,-8 170,-27 178,-27 178,-8 170,-8"/>
</g>
<!-- I&#45;&gt;B -->
<g id="edge3" class="edge">
<title>I&#45;&gt;B</title>
<path fill="none" stroke="black" d="M92.23,-41.98C102.71,-38.38 114.94,-34.18 126.21,-30.3"/>
<polygon fill="black" stroke="black" points="127.48,-33.57 135.8,-27.01 125.2,-26.95 127.48,-33.57"/>
<text text-anchor="middle" x="114" y="-38.8" font-family="Arial" font-size="14.00">b</text>
</g>
<!-- A&#45;&gt;I -->
<g id="edge4" class="edge">
<title>A&#45;&gt;I</title>
<path fill="none" stroke="black" d="M135.55,-73.14C129.78,-71.06 123.7,-68.91 118,-67 112.74,-65.24 107.15,-63.44 101.67,-61.72"/>
<polygon fill="black" stroke="black" points="102.59,-58.34 92,-58.72 100.52,-65.02 102.59,-58.34"/>
<text text-anchor="middle" x="114" y="-70.8" font-family="Arial" font-size="14.00">c</text>
</g>
<!-- Af -->
<g id="node7" class="node">
<title>Af</title>
<path fill="none" stroke="black" d="M276,-101C276,-101 246,-101 246,-101 240,-101 234,-95 234,-89 234,-89 234,-77 234,-77 234,-71 240,-65 246,-65 246,-65 276,-65 276,-65 282,-65 288,-71 288,-77 288,-77 288,-89 288,-89 288,-95 282,-101 276,-101"/>
<text text-anchor="middle" x="261" y="-79.3" font-family="Arial" font-size="14.00">Af</text>
</g>
<!-- A&#45;&gt;Af -->
<g id="edge5" class="edge">
<title>A&#45;&gt;Af</title>
<path fill="none" stroke="black" d="M190.23,-83C200.5,-83 212.45,-83 223.53,-83"/>
<polygon fill="black" stroke="black" points="223.8,-86.5 233.8,-83 223.8,-79.5 223.8,-86.5"/>
<text text-anchor="middle" x="212" y="-86.8" font-family="Arial" font-size="14.00">f</text>
</g>
<!-- B&#45;&gt;I -->
<g id="edge6" class="edge">
<title>B&#45;&gt;I</title>
<path fill="none" stroke="black" d="M135.76,-11.75C127.33,-10.85 118.08,-11.05 110,-14 102.78,-16.63 95.92,-21.03 89.86,-25.89"/>
<polygon fill="black" stroke="black" points="87.33,-23.45 82.13,-32.68 91.96,-28.71 87.33,-23.45"/>
<text text-anchor="middle" x="114" y="-17.8" font-family="Arial" font-size="14.00">c</text>
</g>
<!-- Bf -->
<g id="node5" class="node">
<title>Bf</title>
<path fill="none" stroke="black" d="M472,-101C472,-101 442,-101 442,-101 436,-101 430,-95 430,-89 430,-89 430,-77 430,-77 430,-71 436,-65 442,-65 442,-65 472,-65 472,-65 478,-65 484,-71 484,-77 484,-77 484,-89 484,-89 484,-95 478,-101 472,-101"/>
<text text-anchor="start" x="443" y="-78.8" font-family="Arial" font-size="14.00">Bf</text>
<polygon fill="black" stroke="transparent" points="466,-73 466,-92 474,-92 474,-73 466,-73"/>
</g>
<!-- If -->
<g id="node6" class="node">
<title>If</title>
<path fill="none" stroke="black" d="M374,-101C374,-101 344,-101 344,-101 338,-101 332,-95 332,-89 332,-89 332,-77 332,-77 332,-71 338,-65 344,-65 344,-65 374,-65 374,-65 380,-65 386,-71 386,-77 386,-77 386,-89 386,-89 386,-95 380,-101 374,-101"/>
<text text-anchor="middle" x="359" y="-79.3" font-family="Arial" font-size="14.00">If</text>
</g>
<!-- Bf&#45;&gt;If -->
<g id="edge11" class="edge">
<title>Bf&#45;&gt;If</title>
<path fill="none" stroke="black" d="M429.58,-69.54C423.91,-67.25 417.87,-65.21 412,-64 406.72,-62.91 401.26,-63.21 395.95,-64.34"/>
<polygon fill="black" stroke="black" points="394.55,-61.11 386.02,-67.39 396.6,-67.8 394.55,-61.11"/>
<text text-anchor="middle" x="408" y="-67.8" font-family="Arial" font-size="14.00">c</text>
</g>
<!-- If&#45;&gt;Bf -->
<g id="edge8" class="edge">
<title>If&#45;&gt;Bf</title>
<path fill="none" stroke="black" d="M386.23,-83C396.5,-83 408.45,-83 419.53,-83"/>
<polygon fill="black" stroke="black" points="419.8,-86.5 429.8,-83 419.8,-79.5 419.8,-86.5"/>
<text text-anchor="middle" x="408" y="-86.8" font-family="Arial" font-size="14.00">b</text>
</g>
<!-- If&#45;&gt;Af -->
<g id="edge7" class="edge">
<title>If&#45;&gt;Af</title>
<path fill="none" stroke="black" d="M331.94,-68.22C323.77,-65.15 314.62,-63.3 306,-65 303.19,-65.55 300.34,-66.29 297.5,-67.14"/>
<polygon fill="black" stroke="black" points="296.31,-63.85 288.01,-70.43 298.6,-70.46 296.31,-63.85"/>
<text text-anchor="middle" x="310" y="-68.8" font-family="Arial" font-size="14.00">a</text>
</g>
<!-- Af&#45;&gt;A -->
<g id="edge9" class="edge">
<title>Af&#45;&gt;A</title>
<path fill="none" stroke="black" d="M233.58,-69.54C227.91,-67.25 221.87,-65.21 216,-64 210.72,-62.91 205.26,-63.21 199.95,-64.34"/>
<polygon fill="black" stroke="black" points="198.55,-61.11 190.02,-67.39 200.6,-67.8 198.55,-61.11"/>
<text text-anchor="middle" x="212" y="-67.8" font-family="Arial" font-size="14.00">e</text>
</g>
<!-- Af&#45;&gt;If -->
<g id="edge10" class="edge">
<title>Af&#45;&gt;If</title>
<path fill="none" stroke="black" d="M288.23,-83C298.5,-83 310.45,-83 321.53,-83"/>
<polygon fill="black" stroke="black" points="321.8,-86.5 331.8,-83 321.8,-79.5 321.8,-86.5"/>
<text text-anchor="middle" x="310" y="-86.8" font-family="Arial" font-size="14.00">c</text>
</g>
</g>
</svg>
