<?xml version="1.0" encoding="UTF-8" standalone="no"?>
<!DOCTYPE svg PUBLIC "-//W3C//DTD SVG 1.1//EN"
 "http://www.w3.org/Graphics/SVG/1.1/DTD/svg11.dtd">
<!-- Generated by graphviz version 12.2.1 (20241206.2353)
 -->
<!-- Title: G Pages: 1 -->
<svg width="600pt" height="338pt"
 viewBox="0.00 0.00 600.11 338.12" xmlns="http://www.w3.org/2000/svg" xmlns:xlink="http://www.w3.org/1999/xlink">
<g id="graph0" class="graph" transform="scale(1 1) rotate(0) translate(4 334.12)">
<title>G</title>
<g id="clust1" class="cluster">
<title>cluster_0</title>
<polygon fill="none" stroke="blue" points="222.18,-208 222.18,-268 281.42,-268 281.42,-208 222.18,-208"/>
</g>
<g id="clust2" class="cluster">
<title>cluster_1</title>
<polygon fill="none" stroke="blue" points="81,-150 81,-248 179.2,-248 179.2,-150 81,-150"/>
</g>
<g id="clust3" class="cluster">
<title>cluster_2</title>
<polygon fill="none" stroke="darkblue" points="89,-158 89,-240 171.2,-240 171.2,-158 89,-158"/>
</g>
<g id="clust4" class="cluster">
<title>cluster_3</title>
<polygon fill="none" stroke="blue" points="222.18,-135 222.18,-195 281.42,-195 281.42,-135 222.18,-135"/>
</g>
<g id="clust5" class="cluster">
<title>cluster_4</title>
<polygon fill="none" stroke="blue" points="324.4,-76 324.4,-164 411.62,-164 411.62,-76 324.4,-76"/>
</g>
<g id="clust6" class="cluster">
<title>cluster_5</title>
<polygon fill="none" stroke="orange" points="332.4,-84 332.4,-156 403.62,-156 403.62,-84 332.4,-84"/>
</g>
<g id="clust7" class="cluster">
<title>cluster_6</title>
<polygon fill="none" stroke="blue" points="437.62,-90 437.62,-150 496.87,-150 496.87,-90 437.62,-90"/>
</g>
<g id="clust8" class="cluster">
<title>cluster_7</title>
<polygon fill="none" stroke="blue" points="524.87,-90 524.87,-150 584.11,-150 584.11,-90 524.87,-90"/>
</g>
<g id="clust9" class="cluster">
<title>cluster_8</title>
<polygon fill="none" stroke="orange" points="202.7,-29 202.7,-127 300.9,-127 300.9,-29 202.7,-29"/>
</g>
<g id="clust10" class="cluster">
<title>cluster_9</title>
<polygon fill="none" stroke="darkorange" points="210.7,-37 210.7,-119 292.9,-119 292.9,-37 210.7,-37"/>
</g>
<g id="clust11" class="cluster">
<title>cluster_10</title>
<polygon fill="none" stroke="orange" points="338.39,-8 338.39,-68 397.63,-68 397.63,-8 338.39,-8"/>
</g>
<g id="clust12" class="cluster">
<title>cluster_11</title>
<polygon fill="none" stroke="orange" points="437.62,-16 437.62,-76 496.87,-76 496.87,-16 437.62,-16"/>
</g>
<!-- dot_dummyinit_0 -->
<g id="node1" class="node">
<title>dot_dummyinit_0</title>
</g>
<!-- N0 -->
<g id="node2" class="node">
<title>N0</title>
<ellipse fill="none" stroke="black" cx="130.1" cy="-297" rx="22.12" ry="22.12"/>
<text text-anchor="middle" x="130.1" y="-291.57" font-family="Arial" font-size="14.00">N0</text>
</g>
<!-- dot_dummyinit_0&#45;&gt;N0 -->
<g id="edge1" class="edge">
<title>dot_dummyinit_0&#45;&gt;N0</title>
<path fill="none" stroke="black" d="M53.77,-297C66.71,-297 82.53,-297 96.33,-297"/>
<polygon fill="black" stroke="black" points="96.29,-300.5 106.29,-297 96.29,-293.5 96.29,-300.5"/>
</g>
<!-- N1 -->
<g id="node3" class="node">
<title>N1</title>
<ellipse fill="none" stroke="black" cx="251.8" cy="-308" rx="22.12" ry="22.12"/>
<text text-anchor="middle" x="251.8" y="-302.57" font-family="Arial" font-size="14.00">N1</text>
</g>
<!-- N0&#45;&gt;N1 -->
<g id="edge2" class="edge">
<title>N0&#45;&gt;N1</title>
<path fill="none" stroke="black" d="M152.5,-298.97C170.8,-300.65 197.41,-303.09 218.33,-305.02"/>
<polygon fill="black" stroke="black" points="217.8,-308.48 228.08,-305.91 218.44,-301.51 217.8,-308.48"/>
<text text-anchor="middle" x="190.95" y="-305.28" font-family="Arial" font-size="14.00">a</text>
</g>
<!-- A1 -->
<g id="node6" class="node">
<title>A1</title>
<ellipse fill="none" stroke="black" cx="251.8" cy="-238" rx="21.62" ry="21.62"/>
<text text-anchor="middle" x="251.8" y="-232.57" font-family="Arial" font-size="14.00">A1</text>
</g>
<!-- N0&#45;&gt;A1 -->
<g id="edge3" class="edge">
<title>N0&#45;&gt;A1</title>
<path fill="none" stroke="black" d="M150.33,-287.52C169.64,-278 199.63,-263.22 221.82,-252.28"/>
<polygon fill="black" stroke="black" points="223.23,-255.49 230.65,-247.93 220.14,-249.21 223.23,-255.49"/>
<text text-anchor="middle" x="190.95" y="-271.72" font-family="Arial" font-size="14.00">a</text>
</g>
<!-- N2 -->
<g id="node4" class="node">
<title>N2</title>
<ellipse fill="none" stroke="black" cx="368.01" cy="-213" rx="22.12" ry="22.12"/>
<text text-anchor="middle" x="368.01" y="-207.57" font-family="Arial" font-size="14.00">N2</text>
</g>
<!-- N1&#45;&gt;N2 -->
<g id="edge4" class="edge">
<title>N1&#45;&gt;N2</title>
<path fill="none" stroke="black" d="M270.44,-295.36C279.66,-288.61 291.05,-280.06 300.9,-272 315.08,-260.4 330.38,-246.83 342.68,-235.62"/>
<polygon fill="black" stroke="black" points="344.93,-238.31 349.93,-228.97 340.2,-233.15 344.93,-238.31"/>
<text text-anchor="middle" x="312.65" y="-266.74" font-family="Arial" font-size="14.00">a</text>
</g>
<!-- N2&#45;&gt;N2 -->
<g id="edge5" class="edge">
<title>N2&#45;&gt;N2</title>
<path fill="none" stroke="black" d="M358,-233.23C356.46,-243.69 359.79,-253.12 368.01,-253.12 373.02,-253.12 376.21,-249.62 377.6,-244.52"/>
<polygon fill="black" stroke="black" points="381.09,-244.87 377.97,-234.74 374.09,-244.6 381.09,-244.87"/>
<text text-anchor="middle" x="368.01" y="-255.57" font-family="Arial" font-size="14.00">a</text>
</g>
<!-- N3 -->
<g id="node5" class="node">
<title>N3</title>
<ellipse fill="none" stroke="black" cx="467.24" cy="-213" rx="22.12" ry="22.12"/>
<text text-anchor="middle" x="467.24" y="-207.57" font-family="Arial" font-size="14.00">N3</text>
</g>
<!-- N2&#45;&gt;N3 -->
<g id="edge6" class="edge">
<title>N2&#45;&gt;N3</title>
<path fill="none" stroke="black" d="M390.59,-213C403.18,-213 419.31,-213 433.45,-213"/>
<polygon fill="black" stroke="black" points="433.21,-216.5 443.21,-213 433.21,-209.5 433.21,-216.5"/>
<text text-anchor="middle" x="423.37" y="-215.45" font-family="Arial" font-size="14.00">a</text>
</g>
<!-- A2_R -->
<g id="node7" class="node">
<title>A2_R</title>
<ellipse fill="none" stroke="black" cx="130.1" cy="-199" rx="33.1" ry="33.1"/>
<text text-anchor="middle" x="130.1" y="-193.57" font-family="Arial" font-size="14.00">A2_R</text>
</g>
<!-- A1&#45;&gt;A2_R -->
<g id="edge7" class="edge">
<title>A1&#45;&gt;A2_R</title>
<path fill="none" stroke="black" d="M234.94,-223.68C224.37,-215.11 209.7,-204.99 194.7,-200.25 188.36,-198.25 181.48,-197.12 174.67,-196.56"/>
<polygon fill="black" stroke="black" points="175.02,-193.07 164.89,-196.17 174.75,-200.07 175.02,-193.07"/>
<text text-anchor="middle" x="190.95" y="-202.7" font-family="Arial" font-size="14.00">a</text>
</g>
<!-- A2_R&#45;&gt;A1 -->
<g id="edge8" class="edge">
<title>A2_R&#45;&gt;A1</title>
<path fill="none" stroke="black" d="M161.93,-209.04C179.85,-214.88 202.36,-222.22 220.25,-228.04"/>
<polygon fill="black" stroke="black" points="218.93,-231.3 229.53,-231.07 221.1,-224.64 218.93,-231.3"/>
<text text-anchor="middle" x="190.95" y="-222.12" font-family="Arial" font-size="14.00">a</text>
</g>
<!-- A3 -->
<g id="node8" class="node">
<title>A3</title>
<ellipse fill="none" stroke="black" cx="251.8" cy="-165" rx="21.62" ry="21.62"/>
<text text-anchor="middle" x="251.8" y="-159.57" font-family="Arial" font-size="14.00">A3</text>
</g>
<!-- A2_R&#45;&gt;A3 -->
<g id="edge9" class="edge">
<title>A2_R&#45;&gt;A3</title>
<path fill="none" stroke="black" d="M155.98,-177.65C165.18,-171.06 176.08,-164.64 187.2,-161.25 197.35,-158.15 208.82,-157.9 219.19,-158.8"/>
<polygon fill="black" stroke="black" points="218.46,-162.24 228.82,-160.02 219.34,-155.29 218.46,-162.24"/>
<text text-anchor="middle" x="190.95" y="-163.7" font-family="Arial" font-size="14.00">a</text>
</g>
<!-- A3&#45;&gt;N2 -->
<g id="edge10" class="edge">
<title>A3&#45;&gt;N2</title>
<path fill="none" stroke="black" d="M272.17,-173.14C289.87,-180.58 316.31,-191.69 336.78,-200.3"/>
<polygon fill="black" stroke="black" points="335.19,-203.42 345.76,-204.07 337.9,-196.97 335.19,-203.42"/>
<text text-anchor="middle" x="312.65" y="-192.89" font-family="Arial" font-size="14.00">a</text>
</g>
<!-- AB4 -->
<g id="node9" class="node">
<title>AB4</title>
<ellipse fill="none" stroke="black" cx="368.01" cy="-120" rx="27.61" ry="27.61"/>
<text text-anchor="middle" x="368.01" y="-114.58" font-family="Arial" font-size="14.00">AB4</text>
</g>
<!-- A3&#45;&gt;AB4 -->
<g id="edge11" class="edge">
<title>A3&#45;&gt;AB4</title>
<path fill="none" stroke="black" d="M272.43,-157.26C288.61,-150.89 311.97,-141.69 331.42,-134.02"/>
<polygon fill="black" stroke="black" points="332.62,-137.31 340.64,-130.39 330.06,-130.8 332.62,-137.31"/>
<text text-anchor="middle" x="312.65" y="-144.95" font-family="Arial" font-size="14.00">a</text>
</g>
<!-- A5 -->
<g id="node10" class="node">
<title>A5</title>
<ellipse fill="none" stroke="black" cx="467.24" cy="-120" rx="21.62" ry="21.62"/>
<text text-anchor="middle" x="467.24" y="-114.58" font-family="Arial" font-size="14.00">A5</text>
</g>
<!-- AB4&#45;&gt;A5 -->
<g id="edge12" class="edge">
<title>AB4&#45;&gt;A5</title>
<path fill="none" stroke="black" d="M396.1,-120C407.85,-120 421.71,-120 433.99,-120"/>
<polygon fill="black" stroke="black" points="433.64,-123.5 443.64,-120 433.64,-116.5 433.64,-123.5"/>
<text text-anchor="middle" x="423.37" y="-122.45" font-family="Arial" font-size="14.00">a</text>
</g>
<!-- B2_R -->
<g id="node12" class="node">
<title>B2_R</title>
<ellipse fill="none" stroke="black" cx="251.8" cy="-78" rx="33.1" ry="33.1"/>
<text text-anchor="middle" x="251.8" y="-72.58" font-family="Arial" font-size="14.00">B2_R</text>
</g>
<!-- AB4&#45;&gt;B2_R -->
<g id="edge13" class="edge">
<title>AB4&#45;&gt;B2_R</title>
<path fill="none" stroke="black" d="M348.03,-101.07C339.17,-93.48 328.03,-85.53 316.4,-81.25 310.15,-78.95 303.32,-77.56 296.53,-76.76"/>
<polygon fill="black" stroke="black" points="296.99,-73.29 286.76,-76.06 296.49,-80.27 296.99,-73.29"/>
<text text-anchor="middle" x="312.65" y="-83.7" font-family="Arial" font-size="14.00">a</text>
</g>
<!-- A6 -->
<g id="node11" class="node">
<title>A6</title>
<ellipse fill="none" stroke="black" cx="554.49" cy="-120" rx="21.62" ry="21.62"/>
<text text-anchor="middle" x="554.49" y="-114.58" font-family="Arial" font-size="14.00">A6</text>
</g>
<!-- A5&#45;&gt;A6 -->
<g id="edge14" class="edge">
<title>A5&#45;&gt;A6</title>
<path fill="none" stroke="black" d="M489.32,-120C498.92,-120 510.5,-120 521.16,-120"/>
<polygon fill="black" stroke="black" points="521.15,-123.5 531.15,-120 521.15,-116.5 521.15,-123.5"/>
<text text-anchor="middle" x="511.12" y="-122.45" font-family="Arial" font-size="14.00">a</text>
</g>
<!-- A6&#45;&gt;A5 -->
<g id="edge15" class="edge">
<title>A6&#45;&gt;A5</title>
<path fill="none" stroke="black" d="M535.71,-108.69C529.38,-105.28 522.04,-101.98 514.87,-100.25 508.3,-98.67 501.47,-99.82 495.13,-102.2"/>
<polygon fill="black" stroke="black" points="493.87,-98.92 486.42,-106.45 496.94,-105.21 493.87,-98.92"/>
<text text-anchor="middle" x="511.12" y="-102.7" font-family="Arial" font-size="14.00">a</text>
</g>
<!-- B2_R&#45;&gt;AB4 -->
<g id="edge16" class="edge">
<title>B2_R&#45;&gt;AB4</title>
<path fill="none" stroke="black" d="M283.41,-89.26C298.08,-94.65 315.76,-101.15 331.07,-106.78"/>
<polygon fill="black" stroke="black" points="329.71,-110.01 340.3,-110.18 332.12,-103.44 329.71,-110.01"/>
<text text-anchor="middle" x="312.65" y="-102.71" font-family="Arial" font-size="14.00">a</text>
</g>
<!-- B3 -->
<g id="node13" class="node">
<title>B3</title>
<ellipse fill="none" stroke="black" cx="368.01" cy="-38" rx="21.62" ry="21.62"/>
<text text-anchor="middle" x="368.01" y="-32.58" font-family="Arial" font-size="14.00">B3</text>
</g>
<!-- B2_R&#45;&gt;B3 -->
<g id="edge17" class="edge">
<title>B2_R&#45;&gt;B3</title>
<path fill="none" stroke="black" d="M278.54,-57.84C287.64,-51.76 298.27,-45.78 308.9,-42.25 317.09,-39.54 326.26,-38.16 334.87,-37.53"/>
<polygon fill="black" stroke="black" points="334.73,-41.04 344.58,-37.14 334.45,-34.04 334.73,-41.04"/>
<text text-anchor="middle" x="312.65" y="-44.7" font-family="Arial" font-size="14.00">a</text>
</g>
<!-- B4 -->
<g id="node14" class="node">
<title>B4</title>
<ellipse fill="none" stroke="black" cx="467.24" cy="-46" rx="21.62" ry="21.62"/>
<text text-anchor="middle" x="467.24" y="-40.58" font-family="Arial" font-size="14.00">B4</text>
</g>
<!-- B3&#45;&gt;B4 -->
<g id="edge18" class="edge">
<title>B3&#45;&gt;B4</title>
<path fill="none" stroke="black" d="M390,-39.42C401.05,-40.2 414.83,-41.21 427.12,-42.25 429.46,-42.45 431.87,-42.66 434.3,-42.88"/>
<polygon fill="black" stroke="black" points="433.75,-46.34 444.04,-43.79 434.4,-39.37 433.75,-46.34"/>
<text text-anchor="middle" x="423.37" y="-44.7" font-family="Arial" font-size="14.00">a</text>
</g>
<!-- B4&#45;&gt;AB4 -->
<g id="edge19" class="edge">
<title>B4&#45;&gt;AB4</title>
<path fill="none" stroke="black" d="M449.55,-58.7C435.8,-69.17 415.95,-84.28 399.39,-96.88"/>
<polygon fill="black" stroke="black" points="397.63,-93.82 391.79,-102.66 401.87,-99.39 397.63,-93.82"/>
<text text-anchor="middle" x="423.37" y="-83.23" font-family="Arial" font-size="14.00">a</text>
</g>
</g>
</svg>
