<?xml version="1.0" encoding="UTF-8" standalone="no"?>
<!DOCTYPE svg PUBLIC "-//W3C//DTD SVG 1.1//EN"
 "http://www.w3.org/Graphics/SVG/1.1/DTD/svg11.dtd">
<!-- Generated by graphviz version 2.43.0 (0)
 -->
<!-- Title: A&#45;B&#45;Spec&#45;Alternate Pages: 1 -->
<svg width="396pt" height="107pt"
 viewBox="0.00 0.00 396.00 107.00" xmlns="http://www.w3.org/2000/svg" xmlns:xlink="http://www.w3.org/1999/xlink">
<g id="graph0" class="graph" transform="scale(1 1) rotate(0) translate(4 103)">
<title>A&#45;B&#45;Spec&#45;Alternate</title>
<!-- dot_dummyinit_1 -->
<g id="node1" class="node">
<title>dot_dummyinit_1</title>
</g>
<!-- A1 -->
<g id="node2" class="node">
<title>A1</title>
<path fill="none" stroke="black" d="M83,-36C83,-36 50,-36 50,-36 44,-36 38,-30 38,-24 38,-24 38,-12 38,-12 38,-6 44,0 50,0 50,0 83,0 83,0 89,0 95,-6 95,-12 95,-12 95,-24 95,-24 95,-30 89,-36 83,-36"/>
<text text-anchor="start" x="50.5" y="-13.8" font-family="Arial" font-size="14.00">A1</text>
<polygon fill="black" stroke="transparent" points="77.5,-8 77.5,-27 85.5,-27 85.5,-8 77.5,-8"/>
</g>
<!-- dot_dummyinit_1&#45;&gt;A1 -->
<g id="edge1" class="edge">
<title>dot_dummyinit_1&#45;&gt;A1</title>
<path fill="none" stroke="black" d="M1.05,-18C1.89,-18 13.9,-18 27.33,-18"/>
<polygon fill="black" stroke="black" points="27.71,-21.5 37.71,-18 27.71,-14.5 27.71,-21.5"/>
</g>
<!-- A2 -->
<g id="node3" class="node">
<title>A2</title>
<path fill="none" stroke="black" d="M181,-66C181,-66 151,-66 151,-66 145,-66 139,-60 139,-54 139,-54 139,-42 139,-42 139,-36 145,-30 151,-30 151,-30 181,-30 181,-30 187,-30 193,-36 193,-42 193,-42 193,-54 193,-54 193,-60 187,-66 181,-66"/>
<text text-anchor="middle" x="166" y="-44.3" font-family="Arial" font-size="14.00">A2</text>
</g>
<!-- A1&#45;&gt;A2 -->
<g id="edge2" class="edge">
<title>A1&#45;&gt;A2</title>
<path fill="none" stroke="black" d="M95.18,-26.52C105.8,-29.79 118.08,-33.56 129.35,-37.03"/>
<polygon fill="black" stroke="black" points="128.34,-40.38 138.93,-39.98 130.4,-33.69 128.34,-40.38"/>
<text text-anchor="middle" x="117" y="-36.8" font-family="Arial" font-size="14.00">a</text>
</g>
<!-- A2&#45;&gt;A2 -->
<g id="edge3" class="edge">
<title>A2&#45;&gt;A2</title>
<path fill="none" stroke="black" d="M157.32,-66.15C155.98,-75.54 158.88,-84 166,-84 170.34,-84 173.11,-80.86 174.31,-76.28"/>
<polygon fill="black" stroke="black" points="177.82,-76.27 174.68,-66.15 170.82,-76.02 177.82,-76.27"/>
<text text-anchor="middle" x="166" y="-87.8" font-family="Arial" font-size="14.00">a, d</text>
</g>
<!-- B1 -->
<g id="node4" class="node">
<title>B1</title>
<path fill="none" stroke="black" d="M278,-66C278,-66 248,-66 248,-66 242,-66 236,-60 236,-54 236,-54 236,-42 236,-42 236,-36 242,-30 248,-30 248,-30 278,-30 278,-30 284,-30 290,-36 290,-42 290,-42 290,-54 290,-54 290,-60 284,-66 278,-66"/>
<text text-anchor="middle" x="263" y="-44.3" font-family="Arial" font-size="14.00">B1</text>
</g>
<!-- A2&#45;&gt;B1 -->
<g id="edge4" class="edge">
<title>A2&#45;&gt;B1</title>
<path fill="none" stroke="black" d="M193.21,-48C203.28,-48 214.96,-48 225.81,-48"/>
<polygon fill="black" stroke="black" points="225.87,-51.5 235.87,-48 225.87,-44.5 225.87,-51.5"/>
<text text-anchor="middle" x="214.5" y="-51.8" font-family="Arial" font-size="14.00">c</text>
</g>
<!-- B2 -->
<g id="node5" class="node">
<title>B2</title>
<path fill="none" stroke="black" d="M376,-36C376,-36 346,-36 346,-36 340,-36 334,-30 334,-24 334,-24 334,-12 334,-12 334,-6 340,0 346,0 346,0 376,0 376,0 382,0 388,-6 388,-12 388,-12 388,-24 388,-24 388,-30 382,-36 376,-36"/>
<text text-anchor="middle" x="361" y="-14.3" font-family="Arial" font-size="14.00">B2</text>
</g>
<!-- B1&#45;&gt;B2 -->
<g id="edge5" class="edge">
<title>B1&#45;&gt;B2</title>
<path fill="none" stroke="black" d="M290.23,-39.8C300.71,-36.53 312.94,-32.71 324.21,-29.18"/>
<polygon fill="black" stroke="black" points="325.3,-32.51 333.8,-26.19 323.21,-25.83 325.3,-32.51"/>
<text text-anchor="middle" x="312" y="-36.8" font-family="Arial" font-size="14.00">b</text>
</g>
<!-- B2&#45;&gt;A1 -->
<g id="edge6" class="edge">
<title>B2&#45;&gt;A1</title>
<path fill="none" stroke="black" d="M333.61,-18C281.53,-18 165.37,-18 105.22,-18"/>
<polygon fill="black" stroke="black" points="105.02,-14.5 95.02,-18 105.02,-21.5 105.02,-14.5"/>
<text text-anchor="middle" x="214.5" y="-21.8" font-family="Arial" font-size="14.00">c</text>
</g>
<!-- B2&#45;&gt;B2 -->
<g id="edge7" class="edge">
<title>B2&#45;&gt;B2</title>
<path fill="none" stroke="black" d="M352.32,-36.15C350.98,-45.54 353.88,-54 361,-54 365.34,-54 368.11,-50.86 369.31,-46.28"/>
<polygon fill="black" stroke="black" points="372.82,-46.27 369.68,-36.15 365.82,-46.02 372.82,-46.27"/>
<text text-anchor="middle" x="361" y="-57.8" font-family="Arial" font-size="14.00">b, d</text>
</g>
</g>
</svg>
