<?xml version="1.0" encoding="UTF-8" standalone="no"?>
<!DOCTYPE svg PUBLIC "-//W3C//DTD SVG 1.1//EN"
 "http://www.w3.org/Graphics/SVG/1.1/DTD/svg11.dtd">
<!-- Generated by graphviz version 2.43.0 (0)
 -->
<!-- Title: SupBuechiConNorm((wPlant3),(wSpec3)) [minstate] Pages: 1 -->
<svg width="580pt" height="236pt"
 viewBox="0.00 0.00 579.60 236.00" xmlns="http://www.w3.org/2000/svg" xmlns:xlink="http://www.w3.org/1999/xlink">
<g id="graph0" class="graph" transform="scale(1 1) rotate(0) translate(4 232)">
<title>SupBuechiConNorm((wPlant3),(wSpec3)) [minstate]</title>
<!-- dot_dummyinit_1 -->
<g id="node1" class="node">
<title>dot_dummyinit_1</title>
</g>
<!-- 5 -->
<g id="node2" class="node">
<title>5</title>
<ellipse fill="none" stroke="black" cx="56" cy="-57" rx="18" ry="18"/>
<text text-anchor="middle" x="56" y="-53.3" font-family="Arial" font-size="14.00">5</text>
</g>
<!-- dot_dummyinit_1&#45;&gt;5 -->
<g id="edge1" class="edge">
<title>dot_dummyinit_1&#45;&gt;5</title>
<path fill="none" stroke="black" d="M1.15,-57C2.67,-57 15.1,-57 27.63,-57"/>
<polygon fill="black" stroke="black" points="27.94,-60.5 37.94,-57 27.94,-53.5 27.94,-60.5"/>
</g>
<!-- 1 -->
<g id="node3" class="node">
<title>1</title>
<ellipse fill="none" stroke="black" cx="140" cy="-91" rx="18" ry="18"/>
<ellipse fill="none" stroke="black" cx="140" cy="-91" rx="22" ry="22"/>
<text text-anchor="middle" x="140" y="-87.3" font-family="Arial" font-size="14.00">1</text>
</g>
<!-- 5&#45;&gt;1 -->
<g id="edge9" class="edge">
<title>5&#45;&gt;1</title>
<path fill="none" stroke="black" d="M66.88,-71.34C73.09,-79.04 81.84,-87.79 92,-92 96.96,-94.06 102.48,-94.99 107.94,-95.24"/>
<polygon fill="black" stroke="black" points="108.29,-98.73 118.2,-95 108.12,-91.73 108.29,-98.73"/>
<text text-anchor="middle" x="96" y="-97.8" font-family="Arial" font-size="14.00">a</text>
</g>
<!-- 6 -->
<g id="node5" class="node">
<title>6</title>
<ellipse fill="none" stroke="black" cx="140" cy="-22" rx="18" ry="18"/>
<ellipse fill="none" stroke="black" cx="140" cy="-22" rx="22" ry="22"/>
<text text-anchor="middle" x="140" y="-18.3" font-family="Arial" font-size="14.00">6</text>
</g>
<!-- 5&#45;&gt;6 -->
<g id="edge10" class="edge">
<title>5&#45;&gt;6</title>
<path fill="none" stroke="black" d="M72.81,-50.25C83.42,-45.72 97.7,-39.63 110.28,-34.26"/>
<polygon fill="black" stroke="black" points="111.65,-37.48 119.48,-30.33 108.9,-31.04 111.65,-37.48"/>
<text text-anchor="middle" x="96" y="-45.8" font-family="Arial" font-size="14.00">b</text>
</g>
<!-- 1&#45;&gt;5 -->
<g id="edge2" class="edge">
<title>1&#45;&gt;5</title>
<path fill="none" stroke="black" d="M119.48,-82.9C108.33,-78.28 94.24,-72.44 82.26,-67.48"/>
<polygon fill="black" stroke="black" points="83.39,-64.15 72.81,-63.56 80.71,-70.62 83.39,-64.15"/>
<text text-anchor="middle" x="96" y="-77.8" font-family="Arial" font-size="14.00">c</text>
</g>
<!-- 8 -->
<g id="node9" class="node">
<title>8</title>
<ellipse fill="none" stroke="black" cx="220" cy="-155" rx="18" ry="18"/>
<text text-anchor="middle" x="220" y="-151.3" font-family="Arial" font-size="14.00">8</text>
</g>
<!-- 1&#45;&gt;8 -->
<g id="edge3" class="edge">
<title>1&#45;&gt;8</title>
<path fill="none" stroke="black" d="M157.54,-104.57C169.28,-114.2 185.14,-127.22 197.8,-137.61"/>
<polygon fill="black" stroke="black" points="195.64,-140.36 205.59,-144 200.08,-134.95 195.64,-140.36"/>
<text text-anchor="middle" x="182" y="-127.8" font-family="Arial" font-size="14.00">f</text>
</g>
<!-- 3 -->
<g id="node4" class="node">
<title>3</title>
<ellipse fill="none" stroke="black" cx="384" cy="-147" rx="18" ry="18"/>
<ellipse fill="none" stroke="black" cx="384" cy="-147" rx="22" ry="22"/>
<text text-anchor="middle" x="384" y="-143.3" font-family="Arial" font-size="14.00">3</text>
</g>
<!-- 7 -->
<g id="node8" class="node">
<title>7</title>
<ellipse fill="none" stroke="black" cx="300" cy="-137" rx="18" ry="18"/>
<text text-anchor="middle" x="300" y="-133.3" font-family="Arial" font-size="14.00">7</text>
</g>
<!-- 3&#45;&gt;7 -->
<g id="edge5" class="edge">
<title>3&#45;&gt;7</title>
<path fill="none" stroke="black" d="M362.45,-142.16C356.53,-140.94 350.04,-139.75 344,-139 338.98,-138.37 333.61,-137.94 328.42,-137.64"/>
<polygon fill="black" stroke="black" points="328.35,-134.13 318.21,-137.19 328.05,-141.12 328.35,-134.13"/>
<text text-anchor="middle" x="340" y="-142.8" font-family="Arial" font-size="14.00">a</text>
</g>
<!-- 10 -->
<g id="node11" class="node">
<title>10</title>
<ellipse fill="none" stroke="black" cx="470.8" cy="-157" rx="20.6" ry="20.6"/>
<text text-anchor="middle" x="470.8" y="-153.3" font-family="Arial" font-size="14.00">10</text>
</g>
<!-- 3&#45;&gt;10 -->
<g id="edge6" class="edge">
<title>3&#45;&gt;10</title>
<path fill="none" stroke="black" d="M405.96,-149.47C416.15,-150.67 428.57,-152.14 439.74,-153.46"/>
<polygon fill="black" stroke="black" points="439.61,-156.96 449.95,-154.66 440.43,-150.01 439.61,-156.96"/>
<text text-anchor="middle" x="428" y="-155.8" font-family="Arial" font-size="14.00">b</text>
</g>
<!-- 6&#45;&gt;5 -->
<g id="edge11" class="edge">
<title>6&#45;&gt;5</title>
<path fill="none" stroke="black" d="M118.18,-17.94C109.75,-17.21 100.12,-17.57 92,-21 85.09,-23.92 78.88,-28.94 73.67,-34.32"/>
<polygon fill="black" stroke="black" points="70.69,-32.41 66.79,-42.26 75.98,-36.99 70.69,-32.41"/>
<text text-anchor="middle" x="96" y="-24.8" font-family="Arial" font-size="14.00">c</text>
</g>
<!-- 2 -->
<g id="node6" class="node">
<title>2</title>
<ellipse fill="none" stroke="black" cx="553.6" cy="-134" rx="18" ry="18"/>
<text text-anchor="middle" x="553.6" y="-130.3" font-family="Arial" font-size="14.00">2</text>
</g>
<!-- 4 -->
<g id="node7" class="node">
<title>4</title>
<ellipse fill="none" stroke="black" cx="470.8" cy="-96" rx="18" ry="18"/>
<text text-anchor="middle" x="470.8" y="-92.3" font-family="Arial" font-size="14.00">4</text>
</g>
<!-- 2&#45;&gt;4 -->
<g id="edge4" class="edge">
<title>2&#45;&gt;4</title>
<path fill="none" stroke="black" d="M543.14,-119.32C536.97,-111.13 528.1,-101.66 517.6,-97 511.91,-94.48 505.43,-93.41 499.17,-93.13"/>
<polygon fill="black" stroke="black" points="498.95,-89.63 489.02,-93.3 499.07,-96.63 498.95,-89.63"/>
<text text-anchor="middle" x="513.6" y="-100.8" font-family="Arial" font-size="14.00">c</text>
</g>
<!-- 4&#45;&gt;2 -->
<g id="edge8" class="edge">
<title>4&#45;&gt;2</title>
<path fill="none" stroke="black" d="M487.38,-103.33C498.89,-108.74 514.79,-116.22 528.01,-122.44"/>
<polygon fill="black" stroke="black" points="526.53,-125.61 537.07,-126.7 529.51,-119.27 526.53,-125.61"/>
<text text-anchor="middle" x="513.6" y="-120.8" font-family="Arial" font-size="14.00">b</text>
</g>
<!-- 11 -->
<g id="node12" class="node">
<title>11</title>
<ellipse fill="none" stroke="black" cx="384" cy="-72" rx="20.3" ry="20.3"/>
<text text-anchor="middle" x="384" y="-68.3" font-family="Arial" font-size="14.00">11</text>
</g>
<!-- 4&#45;&gt;11 -->
<g id="edge7" class="edge">
<title>4&#45;&gt;11</title>
<path fill="none" stroke="black" d="M459.68,-81.59C452.92,-73.27 443.22,-63.58 432,-59 425.47,-56.34 418.21,-56.78 411.39,-58.6"/>
<polygon fill="black" stroke="black" points="410.07,-55.35 401.85,-62.03 412.44,-61.94 410.07,-55.35"/>
<text text-anchor="middle" x="428" y="-62.8" font-family="Arial" font-size="14.00">a</text>
</g>
<!-- 7&#45;&gt;3 -->
<g id="edge12" class="edge">
<title>7&#45;&gt;3</title>
<path fill="none" stroke="black" d="M315.78,-146.02C321.82,-149.2 329.02,-152.39 336,-154 341.29,-155.22 346.97,-155.35 352.48,-154.87"/>
<polygon fill="black" stroke="black" points="353.38,-158.27 362.74,-153.32 352.33,-151.35 353.38,-158.27"/>
<text text-anchor="middle" x="340" y="-158.8" font-family="Arial" font-size="14.00">c</text>
</g>
<!-- 7&#45;&gt;11 -->
<g id="edge13" class="edge">
<title>7&#45;&gt;11</title>
<path fill="none" stroke="black" d="M314.54,-126.27C326.78,-116.56 345.08,-102.06 359.67,-90.49"/>
<polygon fill="black" stroke="black" points="362.1,-93.03 367.77,-84.08 357.75,-87.55 362.1,-93.03"/>
<text text-anchor="middle" x="340" y="-111.8" font-family="Arial" font-size="14.00">f</text>
</g>
<!-- 8&#45;&gt;7 -->
<g id="edge15" class="edge">
<title>8&#45;&gt;7</title>
<path fill="none" stroke="black" d="M235.72,-145.46C241.75,-142.08 248.96,-138.7 256,-137 261,-135.79 266.42,-135.23 271.67,-135.06"/>
<polygon fill="black" stroke="black" points="272,-138.56 282.04,-135.17 272.08,-131.56 272,-138.56"/>
<text text-anchor="middle" x="260" y="-140.8" font-family="Arial" font-size="14.00">e</text>
</g>
<!-- 9 -->
<g id="node10" class="node">
<title>9</title>
<ellipse fill="none" stroke="black" cx="300" cy="-210" rx="18" ry="18"/>
<text text-anchor="middle" x="300" y="-206.3" font-family="Arial" font-size="14.00">9</text>
</g>
<!-- 8&#45;&gt;9 -->
<g id="edge14" class="edge">
<title>8&#45;&gt;9</title>
<path fill="none" stroke="black" d="M237.25,-160.97C245.62,-164.43 255.77,-169.24 264,-175 269.87,-179.1 275.62,-184.24 280.72,-189.31"/>
<polygon fill="black" stroke="black" points="278.2,-191.75 287.64,-196.55 283.26,-186.91 278.2,-191.75"/>
<text text-anchor="middle" x="260" y="-178.8" font-family="Arial" font-size="14.00">c</text>
</g>
<!-- 9&#45;&gt;2 -->
<g id="edge17" class="edge">
<title>9&#45;&gt;2</title>
<path fill="none" stroke="black" d="M318.19,-211.2C352.7,-212.91 432.19,-213.37 491.6,-187 508.06,-179.69 523.35,-166.39 534.5,-154.94"/>
<polygon fill="black" stroke="black" points="537.27,-157.1 541.53,-147.4 532.15,-152.33 537.27,-157.1"/>
<text text-anchor="middle" x="428" y="-208.8" font-family="Arial" font-size="14.00">b</text>
</g>
<!-- 9&#45;&gt;8 -->
<g id="edge16" class="edge">
<title>9&#45;&gt;8</title>
<path fill="none" stroke="black" d="M282.75,-204.03C274.38,-200.57 264.23,-195.76 256,-190 250.13,-185.9 244.38,-180.76 239.28,-175.69"/>
<polygon fill="black" stroke="black" points="241.8,-173.25 232.36,-168.45 236.74,-178.09 241.8,-173.25"/>
<text text-anchor="middle" x="260" y="-197.8" font-family="Arial" font-size="14.00">a</text>
</g>
<!-- 10&#45;&gt;3 -->
<g id="edge18" class="edge">
<title>10&#45;&gt;3</title>
<path fill="none" stroke="black" d="M454.3,-143.78C447.84,-139.1 439.99,-134.4 432,-132 425.76,-130.12 419.07,-130.69 412.76,-132.41"/>
<polygon fill="black" stroke="black" points="411.45,-129.16 403.26,-135.88 413.85,-135.73 411.45,-129.16"/>
<text text-anchor="middle" x="428" y="-135.8" font-family="Arial" font-size="14.00">c</text>
</g>
<!-- 11&#45;&gt;1 -->
<g id="edge20" class="edge">
<title>11&#45;&gt;1</title>
<path fill="none" stroke="black" d="M363.86,-73.5C322.18,-76.77 222.92,-84.57 172.12,-88.56"/>
<polygon fill="black" stroke="black" points="171.75,-85.08 162.05,-89.35 172.3,-92.05 171.75,-85.08"/>
<text text-anchor="middle" x="260" y="-84.8" font-family="Arial" font-size="14.00">e</text>
</g>
<!-- 11&#45;&gt;4 -->
<g id="edge19" class="edge">
<title>11&#45;&gt;4</title>
<path fill="none" stroke="black" d="M403.82,-77.33C415.52,-80.64 430.74,-84.95 443.61,-88.59"/>
<polygon fill="black" stroke="black" points="442.75,-91.98 453.32,-91.34 444.65,-85.25 442.75,-91.98"/>
<text text-anchor="middle" x="428" y="-87.8" font-family="Arial" font-size="14.00">c</text>
</g>
</g>
</svg>
