<?xml version="1.0" encoding="UTF-8" standalone="no"?>
<!DOCTYPE svg PUBLIC "-//W3C//DTD SVG 1.1//EN"
 "http://www.w3.org/Graphics/SVG/1.1/DTD/svg11.dtd">
<!-- Generated by graphviz version 2.43.0 (0)
 -->
<!-- Title: A&#45;B&#45;Spec&#45;Alternate Pages: 1 -->
<svg width="357pt" height="154pt"
 viewBox="0.00 0.00 356.58 153.90" xmlns="http://www.w3.org/2000/svg" xmlns:xlink="http://www.w3.org/1999/xlink">
<g id="graph0" class="graph" transform="scale(1 1) rotate(0) translate(4 149.9)">
<title>A&#45;B&#45;Spec&#45;Alternate</title>
<!-- dot_dummyinit_1 -->
<g id="node1" class="node">
<title>dot_dummyinit_1</title>
</g>
<!-- A1 -->
<g id="node2" class="node">
<title>A1</title>
<ellipse fill="none" stroke="black" cx="63.45" cy="-25.45" rx="21.4" ry="21.4"/>
<ellipse fill="none" stroke="black" cx="63.45" cy="-25.45" rx="25.4" ry="25.4"/>
<text text-anchor="middle" x="63.45" y="-21.75" font-family="Arial" font-size="14.00">A1</text>
</g>
<!-- dot_dummyinit_1&#45;&gt;A1 -->
<g id="edge1" class="edge">
<title>dot_dummyinit_1&#45;&gt;A1</title>
<path fill="none" stroke="black" d="M1.04,-25.45C1.87,-25.45 14.13,-25.45 27.48,-25.45"/>
<polygon fill="black" stroke="black" points="27.73,-28.95 37.73,-25.45 27.73,-21.95 27.73,-28.95"/>
</g>
<!-- A2 -->
<g id="node3" class="node">
<title>A2</title>
<ellipse fill="none" stroke="black" cx="154.34" cy="-58.45" rx="21.4" ry="21.4"/>
<text text-anchor="middle" x="154.34" y="-54.75" font-family="Arial" font-size="14.00">A2</text>
</g>
<!-- A1&#45;&gt;A2 -->
<g id="edge2" class="edge">
<title>A1&#45;&gt;A2</title>
<path fill="none" stroke="black" d="M87.8,-34.12C99.06,-38.3 112.66,-43.34 124.55,-47.76"/>
<polygon fill="black" stroke="black" points="123.45,-51.08 134.04,-51.28 125.88,-44.52 123.45,-51.08"/>
<text text-anchor="middle" x="110.9" y="-47.25" font-family="Arial" font-size="14.00">a</text>
</g>
<!-- A2&#45;&gt;A2 -->
<g id="edge3" class="edge">
<title>A2&#45;&gt;A2</title>
<path fill="none" stroke="black" d="M150.48,-79.55C150.06,-89.34 151.35,-97.9 154.34,-97.9 156.22,-97.9 157.42,-94.55 157.96,-89.66"/>
<polygon fill="black" stroke="black" points="161.46,-89.63 158.2,-79.55 154.46,-89.46 161.46,-89.63"/>
<text text-anchor="middle" x="154.34" y="-101.7" font-family="Arial" font-size="14.00">a</text>
</g>
<!-- A2&#45;&gt;A2 -->
<g id="edge5" class="edge">
<title>A2&#45;&gt;A2</title>
<path fill="none" stroke="black" d="M147.77,-79.06C144.77,-96.96 146.96,-115.9 154.34,-115.9 160.34,-115.9 162.91,-103.4 162.06,-89.11"/>
<polygon fill="black" stroke="black" points="165.52,-88.6 160.92,-79.06 158.57,-89.39 165.52,-88.6"/>
<text text-anchor="middle" x="154.34" y="-119.7" font-family="Arial" font-size="14.00">d</text>
</g>
<!-- B1 -->
<g id="node4" class="node">
<title>B1</title>
<ellipse fill="none" stroke="black" cx="240.24" cy="-58.45" rx="21.4" ry="21.4"/>
<text text-anchor="middle" x="240.24" y="-54.75" font-family="Arial" font-size="14.00">B1</text>
</g>
<!-- A2&#45;&gt;B1 -->
<g id="edge4" class="edge">
<title>A2&#45;&gt;B1</title>
<path fill="none" stroke="black" d="M176.08,-58.45C185.84,-58.45 197.67,-58.45 208.44,-58.45"/>
<polygon fill="black" stroke="black" points="208.74,-61.95 218.74,-58.45 208.74,-54.95 208.74,-61.95"/>
<text text-anchor="middle" x="197.29" y="-62.25" font-family="Arial" font-size="14.00">c</text>
</g>
<!-- B2 -->
<g id="node5" class="node">
<title>B2</title>
<ellipse fill="none" stroke="black" cx="327.14" cy="-25.45" rx="21.4" ry="21.4"/>
<text text-anchor="middle" x="327.14" y="-21.75" font-family="Arial" font-size="14.00">B2</text>
</g>
<!-- B1&#45;&gt;B2 -->
<g id="edge6" class="edge">
<title>B1&#45;&gt;B2</title>
<path fill="none" stroke="black" d="M260.5,-50.96C271.47,-46.7 285.41,-41.28 297.62,-36.53"/>
<polygon fill="black" stroke="black" points="298.9,-39.79 306.95,-32.91 296.36,-33.27 298.9,-39.79"/>
<text text-anchor="middle" x="283.69" y="-46.25" font-family="Arial" font-size="14.00">b</text>
</g>
<!-- B2&#45;&gt;A1 -->
<g id="edge8" class="edge">
<title>B2&#45;&gt;A1</title>
<path fill="none" stroke="black" d="M305.45,-25.45C260.66,-25.45 154.31,-25.45 99.08,-25.45"/>
<polygon fill="black" stroke="black" points="99.07,-21.95 89.07,-25.45 99.07,-28.95 99.07,-21.95"/>
<text text-anchor="middle" x="197.29" y="-29.25" font-family="Arial" font-size="14.00">c</text>
</g>
<!-- B2&#45;&gt;B2 -->
<g id="edge7" class="edge">
<title>B2&#45;&gt;B2</title>
<path fill="none" stroke="black" d="M323.28,-46.55C322.86,-56.34 324.14,-64.9 327.14,-64.9 329.01,-64.9 330.21,-61.55 330.75,-56.66"/>
<polygon fill="black" stroke="black" points="334.25,-56.63 331,-46.55 327.25,-56.46 334.25,-56.63"/>
<text text-anchor="middle" x="327.14" y="-68.7" font-family="Arial" font-size="14.00">b</text>
</g>
<!-- B2&#45;&gt;B2 -->
<g id="edge9" class="edge">
<title>B2&#45;&gt;B2</title>
<path fill="none" stroke="black" d="M320.56,-46.06C317.56,-63.96 319.75,-82.9 327.14,-82.9 333.14,-82.9 335.71,-70.4 334.85,-56.11"/>
<polygon fill="black" stroke="black" points="338.32,-55.6 333.71,-46.06 331.36,-56.39 338.32,-55.6"/>
<text text-anchor="middle" x="327.14" y="-86.7" font-family="Arial" font-size="14.00">d</text>
</g>
</g>
</svg>
