<?xml version="1.0" encoding="UTF-8" standalone="no"?>
<!DOCTYPE svg PUBLIC "-//W3C//DTD SVG 1.1//EN"
 "http://www.w3.org/Graphics/SVG/1.1/DTD/svg11.dtd">
<!-- Generated by graphviz version 2.43.0 (0)
 -->
<!-- Title: SupBuechiCon((A&#45;B&#45;Machine&#45;B&#45;Breaks),(A&#45;B&#45;Spec&#45;Eventually&#45;B)) [minstate] Pages: 1 -->
<svg width="431pt" height="140pt"
 viewBox="0.00 0.00 431.00 140.00" xmlns="http://www.w3.org/2000/svg" xmlns:xlink="http://www.w3.org/1999/xlink">
<g id="graph0" class="graph" transform="scale(1 1) rotate(0) translate(4 136)">
<title>SupBuechiCon((A&#45;B&#45;Machine&#45;B&#45;Breaks),(A&#45;B&#45;Spec&#45;Eventually&#45;B)) [minstate]</title>
<!-- dot_dummyinit_1 -->
<g id="node1" class="node">
<title>dot_dummyinit_1</title>
</g>
<!-- 2 -->
<g id="node2" class="node">
<title>2</title>
<ellipse fill="none" stroke="black" cx="56" cy="-47" rx="18" ry="18"/>
<text text-anchor="middle" x="56" y="-43.3" font-family="Arial" font-size="14.00">2</text>
</g>
<!-- dot_dummyinit_1&#45;&gt;2 -->
<g id="edge1" class="edge">
<title>dot_dummyinit_1&#45;&gt;2</title>
<path fill="none" stroke="black" d="M1.15,-47C2.67,-47 15.1,-47 27.63,-47"/>
<polygon fill="black" stroke="black" points="27.94,-50.5 37.94,-47 27.94,-43.5 27.94,-50.5"/>
</g>
<!-- 1 -->
<g id="node3" class="node">
<title>1</title>
<ellipse fill="none" stroke="black" cx="154" cy="-85" rx="18" ry="18"/>
<ellipse fill="none" stroke="black" cx="154" cy="-85" rx="22" ry="22"/>
<text text-anchor="middle" x="154" y="-81.3" font-family="Arial" font-size="14.00">1</text>
</g>
<!-- 2&#45;&gt;1 -->
<g id="edge3" class="edge">
<title>2&#45;&gt;1</title>
<path fill="none" stroke="black" d="M73.29,-53.45C87.02,-58.88 107.02,-66.8 123.55,-73.34"/>
<polygon fill="black" stroke="black" points="122.72,-76.78 133.31,-77.21 125.3,-70.27 122.72,-76.78"/>
<text text-anchor="middle" x="103" y="-72.8" font-family="Arial" font-size="14.00">b</text>
</g>
<!-- 5 -->
<g id="node6" class="node">
<title>5</title>
<ellipse fill="none" stroke="black" cx="154" cy="-18" rx="18" ry="18"/>
<text text-anchor="middle" x="154" y="-14.3" font-family="Arial" font-size="14.00">5</text>
</g>
<!-- 2&#45;&gt;5 -->
<g id="edge4" class="edge">
<title>2&#45;&gt;5</title>
<path fill="none" stroke="black" d="M73.72,-41.95C88.31,-37.54 109.74,-31.07 126.63,-25.96"/>
<polygon fill="black" stroke="black" points="127.91,-29.24 136.47,-22.99 125.88,-22.53 127.91,-29.24"/>
<text text-anchor="middle" x="103" y="-39.8" font-family="Arial" font-size="14.00">a</text>
</g>
<!-- 7 -->
<g id="node8" class="node">
<title>7</title>
<ellipse fill="none" stroke="black" cx="237" cy="-85" rx="18" ry="18"/>
<text text-anchor="middle" x="237" y="-81.3" font-family="Arial" font-size="14.00">7</text>
</g>
<!-- 1&#45;&gt;7 -->
<g id="edge2" class="edge">
<title>1&#45;&gt;7</title>
<path fill="none" stroke="black" d="M176.28,-85C186.27,-85 198.28,-85 208.9,-85"/>
<polygon fill="black" stroke="black" points="208.94,-88.5 218.94,-85 208.94,-81.5 208.94,-88.5"/>
<text text-anchor="middle" x="197.5" y="-88.8" font-family="Arial" font-size="14.00">c</text>
</g>
<!-- 4 -->
<g id="node4" class="node">
<title>4</title>
<ellipse fill="none" stroke="black" cx="321" cy="-47" rx="18" ry="18"/>
<ellipse fill="none" stroke="black" cx="321" cy="-47" rx="22" ry="22"/>
<text text-anchor="middle" x="321" y="-43.3" font-family="Arial" font-size="14.00">4</text>
</g>
<!-- 6 -->
<g id="node7" class="node">
<title>6</title>
<ellipse fill="none" stroke="black" cx="405" cy="-47" rx="18" ry="18"/>
<text text-anchor="middle" x="405" y="-43.3" font-family="Arial" font-size="14.00">6</text>
</g>
<!-- 4&#45;&gt;6 -->
<g id="edge6" class="edge">
<title>4&#45;&gt;6</title>
<path fill="none" stroke="black" d="M343.12,-47C353.3,-47 365.63,-47 376.53,-47"/>
<polygon fill="black" stroke="black" points="376.82,-50.5 386.82,-47 376.82,-43.5 376.82,-50.5"/>
<text text-anchor="middle" x="365" y="-50.8" font-family="Arial" font-size="14.00">d</text>
</g>
<!-- 3 -->
<g id="node5" class="node">
<title>3</title>
<ellipse fill="none" stroke="black" cx="321" cy="-114" rx="18" ry="18"/>
<text text-anchor="middle" x="321" y="-110.3" font-family="Arial" font-size="14.00">3</text>
</g>
<!-- 3&#45;&gt;7 -->
<g id="edge5" class="edge">
<title>3&#45;&gt;7</title>
<path fill="none" stroke="black" d="M307.4,-101.96C300.26,-95.95 290.8,-89.28 281,-86 276.12,-84.37 270.76,-83.54 265.52,-83.21"/>
<polygon fill="black" stroke="black" points="265.18,-79.7 255.14,-83.1 265.11,-86.7 265.18,-79.7"/>
<text text-anchor="middle" x="277" y="-89.8" font-family="Arial" font-size="14.00">d</text>
</g>
<!-- 5&#45;&gt;2 -->
<g id="edge7" class="edge">
<title>5&#45;&gt;2</title>
<path fill="none" stroke="black" d="M136.83,-11.88C124.16,-8.07 106.34,-4.94 92,-11 85.09,-13.92 78.88,-18.94 73.67,-24.32"/>
<polygon fill="black" stroke="black" points="70.69,-22.41 66.79,-32.26 75.98,-26.99 70.69,-22.41"/>
<text text-anchor="middle" x="103" y="-14.8" font-family="Arial" font-size="14.00">c, d</text>
</g>
<!-- 6&#45;&gt;4 -->
<g id="edge8" class="edge">
<title>6&#45;&gt;4</title>
<path fill="none" stroke="black" d="M389.69,-37.13C383.6,-33.51 376.24,-29.84 369,-28 362.24,-26.28 355.16,-27.45 348.6,-29.88"/>
<polygon fill="black" stroke="black" points="347.04,-26.75 339.47,-34.16 350.01,-33.09 347.04,-26.75"/>
<text text-anchor="middle" x="365" y="-31.8" font-family="Arial" font-size="14.00">b</text>
</g>
<!-- 7&#45;&gt;4 -->
<g id="edge10" class="edge">
<title>7&#45;&gt;4</title>
<path fill="none" stroke="black" d="M252.72,-75.92C258.87,-72.3 266.17,-68.24 273,-65 278.56,-62.36 284.63,-59.81 290.49,-57.51"/>
<polygon fill="black" stroke="black" points="291.95,-60.7 300.05,-53.87 289.46,-54.15 291.95,-60.7"/>
<text text-anchor="middle" x="277" y="-68.8" font-family="Arial" font-size="14.00">b</text>
</g>
<!-- 7&#45;&gt;3 -->
<g id="edge9" class="edge">
<title>7&#45;&gt;3</title>
<path fill="none" stroke="black" d="M253.46,-92.71C259.47,-95.54 266.47,-98.62 273,-101 279.47,-103.36 286.58,-105.53 293.26,-107.4"/>
<polygon fill="black" stroke="black" points="292.7,-110.87 303.27,-110.06 294.5,-104.11 292.7,-110.87"/>
<text text-anchor="middle" x="277" y="-106.8" font-family="Arial" font-size="14.00">a</text>
</g>
</g>
</svg>
