<?xml version="1.0" encoding="UTF-8" standalone="no"?>
<!DOCTYPE svg PUBLIC "-//W3C//DTD SVG 1.1//EN"
 "http://www.w3.org/Graphics/SVG/1.1/DTD/svg11.dtd">
<!-- Generated by graphviz version 12.2.1 (20241206.2353)
 -->
<!-- Title: SupBuechiCon((wPlant2),(wSpec2)) Pages: 1 -->
<svg width="720pt" height="231pt"
 viewBox="0.00 0.00 720.00 230.94" xmlns="http://www.w3.org/2000/svg" xmlns:xlink="http://www.w3.org/1999/xlink">
<g id="graph0" class="graph" transform="scale(0.515769 0.515769) rotate(0) translate(4 443.75)">
<title>SupBuechiCon((wPlant2),(wSpec2))</title>
<!-- dot_dummyinit_1 -->
<g id="node1" class="node">
<title>dot_dummyinit_1</title>
</g>
<!-- 1 -->
<g id="node2" class="node">
<title>1</title>
<ellipse fill="none" stroke="black" cx="55.72" cy="-257" rx="18" ry="18"/>
<text text-anchor="middle" x="55.72" y="-251.57" font-family="Arial" font-size="14.00">1</text>
</g>
<!-- dot_dummyinit_1&#45;&gt;1 -->
<g id="edge1" class="edge">
<title>dot_dummyinit_1&#45;&gt;1</title>
<path fill="none" stroke="black" d="M0.87,-257C2.34,-257 13.93,-257 25.99,-257"/>
<polygon fill="black" stroke="black" points="25.86,-260.5 35.86,-257 25.86,-253.5 25.86,-260.5"/>
</g>
<!-- 2 -->
<g id="node5" class="node">
<title>2</title>
<ellipse fill="none" stroke="black" cx="135.22" cy="-304" rx="18" ry="18"/>
<text text-anchor="middle" x="135.22" y="-298.57" font-family="Arial" font-size="14.00">2</text>
</g>
<!-- 1&#45;&gt;2 -->
<g id="edge2" class="edge">
<title>1&#45;&gt;2</title>
<path fill="none" stroke="black" d="M71.66,-266.06C82.38,-272.56 97.08,-281.47 109.53,-289.02"/>
<polygon fill="black" stroke="black" points="107.66,-291.99 118.03,-294.18 111.29,-286 107.66,-291.99"/>
<text text-anchor="middle" x="95.47" y="-284.36" font-family="Arial" font-size="14.00">a</text>
</g>
<!-- 3 -->
<g id="node6" class="node">
<title>3</title>
<ellipse fill="none" stroke="black" cx="189.22" cy="-110" rx="18" ry="18"/>
<text text-anchor="middle" x="189.22" y="-104.58" font-family="Arial" font-size="14.00">3</text>
</g>
<!-- 1&#45;&gt;3 -->
<g id="edge3" class="edge">
<title>1&#45;&gt;3</title>
<path fill="none" stroke="black" d="M68.39,-243.95C91.04,-218.63 141.19,-162.58 168.89,-131.61"/>
<polygon fill="black" stroke="black" points="171.32,-134.14 175.38,-124.36 166.1,-129.47 171.32,-134.14"/>
<text text-anchor="middle" x="95.47" y="-219.46" font-family="Arial" font-size="14.00">b</text>
</g>
<!-- 8 -->
<g id="node3" class="node">
<title>8</title>
<ellipse fill="none" stroke="black" cx="1112.47" cy="-251" rx="18" ry="18"/>
<ellipse fill="none" stroke="black" cx="1112.47" cy="-251" rx="22" ry="22"/>
<text text-anchor="middle" x="1112.47" y="-245.57" font-family="Arial" font-size="14.00">8</text>
</g>
<!-- 9 -->
<g id="node11" class="node">
<title>9</title>
<ellipse fill="none" stroke="black" cx="1197.85" cy="-136" rx="18" ry="18"/>
<text text-anchor="middle" x="1197.85" y="-130.57" font-family="Arial" font-size="14.00">9</text>
</g>
<!-- 8&#45;&gt;9 -->
<g id="edge12" class="edge">
<title>8&#45;&gt;9</title>
<path fill="none" stroke="black" d="M1126.14,-233.53C1140.44,-213.81 1163.78,-181.61 1179.71,-159.64"/>
<polygon fill="black" stroke="black" points="1182.52,-161.73 1185.55,-151.58 1176.85,-157.62 1182.52,-161.73"/>
<text text-anchor="middle" x="1155.85" y="-199.4" font-family="Arial" font-size="14.00">c</text>
</g>
<!-- 10 -->
<g id="node12" class="node">
<title>10</title>
<ellipse fill="none" stroke="black" cx="1197.85" cy="-264" rx="20.63" ry="20.63"/>
<text text-anchor="middle" x="1197.85" y="-258.57" font-family="Arial" font-size="14.00">10</text>
</g>
<!-- 8&#45;&gt;10 -->
<g id="edge13" class="edge">
<title>8&#45;&gt;10</title>
<path fill="none" stroke="black" d="M1134.51,-254.28C1143.97,-255.76 1155.34,-257.53 1165.76,-259.15"/>
<polygon fill="black" stroke="black" points="1165.05,-262.58 1175.47,-260.67 1166.13,-255.67 1165.05,-262.58"/>
<text text-anchor="middle" x="1155.85" y="-260.34" font-family="Arial" font-size="14.00">f</text>
</g>
<!-- 13 -->
<g id="node4" class="node">
<title>13</title>
<ellipse fill="none" stroke="black" cx="500.35" cy="-237" rx="20.63" ry="20.63"/>
<ellipse fill="none" stroke="black" cx="500.35" cy="-237" rx="24.63" ry="24.63"/>
<text text-anchor="middle" x="500.35" y="-231.57" font-family="Arial" font-size="14.00">13</text>
</g>
<!-- 14 -->
<g id="node15" class="node">
<title>14</title>
<ellipse fill="none" stroke="black" cx="589.1" cy="-178" rx="20.63" ry="20.63"/>
<text text-anchor="middle" x="589.1" y="-172.57" font-family="Arial" font-size="14.00">14</text>
</g>
<!-- 13&#45;&gt;14 -->
<g id="edge20" class="edge">
<title>13&#45;&gt;14</title>
<path fill="none" stroke="black" d="M521.03,-223.61C533.14,-215.38 548.81,-204.72 561.95,-195.78"/>
<polygon fill="black" stroke="black" points="563.86,-198.72 570.16,-190.2 559.92,-192.93 563.86,-198.72"/>
<text text-anchor="middle" x="546.72" y="-209.95" font-family="Arial" font-size="14.00">d</text>
</g>
<!-- 15 -->
<g id="node16" class="node">
<title>15</title>
<ellipse fill="none" stroke="black" cx="670.1" cy="-268" rx="20.63" ry="20.63"/>
<text text-anchor="middle" x="670.1" y="-262.57" font-family="Arial" font-size="14.00">15</text>
</g>
<!-- 13&#45;&gt;15 -->
<g id="edge21" class="edge">
<title>13&#45;&gt;15</title>
<path fill="none" stroke="black" d="M525.02,-241.38C554.79,-246.88 605.92,-256.32 638.58,-262.36"/>
<polygon fill="black" stroke="black" points="637.75,-265.77 648.22,-264.14 639.02,-258.88 637.75,-265.77"/>
<text text-anchor="middle" x="589.1" y="-259.04" font-family="Arial" font-size="14.00">f</text>
</g>
<!-- 19 -->
<g id="node20" class="node">
<title>19</title>
<ellipse fill="none" stroke="black" cx="245.85" cy="-324" rx="20.63" ry="20.63"/>
<text text-anchor="middle" x="245.85" y="-318.57" font-family="Arial" font-size="14.00">19</text>
</g>
<!-- 2&#45;&gt;19 -->
<g id="edge4" class="edge">
<title>2&#45;&gt;19</title>
<path fill="none" stroke="black" d="M153.19,-307.12C169.38,-310.1 194.14,-314.66 213.84,-318.29"/>
<polygon fill="black" stroke="black" points="213.09,-321.71 223.56,-320.08 214.36,-314.83 213.09,-321.71"/>
<text text-anchor="middle" x="189.22" y="-319.41" font-family="Arial" font-size="14.00">c</text>
</g>
<!-- 4 -->
<g id="node7" class="node">
<title>4</title>
<ellipse fill="none" stroke="black" cx="870.72" cy="-156" rx="18" ry="18"/>
<text text-anchor="middle" x="870.72" y="-150.57" font-family="Arial" font-size="14.00">4</text>
</g>
<!-- 3&#45;&gt;4 -->
<g id="edge5" class="edge">
<title>3&#45;&gt;4</title>
<path fill="none" stroke="black" d="M201.19,-96.11C217.4,-77.29 249.72,-46 285.35,-46 285.35,-46 285.35,-46 671.1,-46 744.19,-46 815.61,-103.71 849.43,-135.53"/>
<polygon fill="black" stroke="black" points="846.85,-137.91 856.48,-142.33 851.71,-132.87 846.85,-137.91"/>
<text text-anchor="middle" x="500.35" y="-48.45" font-family="Arial" font-size="14.00">d</text>
</g>
<!-- 4&#45;&gt;4 -->
<g id="edge6" class="edge">
<title>4&#45;&gt;4</title>
<path fill="none" stroke="black" d="M863.68,-173.04C862.24,-182.86 864.59,-192 870.72,-192 874.27,-192 876.55,-188.94 877.56,-184.47"/>
<polygon fill="black" stroke="black" points="881.06,-184.61 877.74,-174.55 874.06,-184.49 881.06,-184.61"/>
<text text-anchor="middle" x="870.72" y="-194.45" font-family="Arial" font-size="14.00">d</text>
</g>
<!-- 5 -->
<g id="node8" class="node">
<title>5</title>
<ellipse fill="none" stroke="black" cx="950.22" cy="-156" rx="18" ry="18"/>
<text text-anchor="middle" x="950.22" y="-150.57" font-family="Arial" font-size="14.00">5</text>
</g>
<!-- 4&#45;&gt;5 -->
<g id="edge7" class="edge">
<title>4&#45;&gt;5</title>
<path fill="none" stroke="black" d="M888.92,-156C898.19,-156 909.87,-156 920.47,-156"/>
<polygon fill="black" stroke="black" points="920.29,-159.5 930.29,-156 920.29,-152.5 920.29,-159.5"/>
<text text-anchor="middle" x="910.47" y="-158.45" font-family="Arial" font-size="14.00">f</text>
</g>
<!-- 6 -->
<g id="node9" class="node">
<title>6</title>
<ellipse fill="none" stroke="black" cx="1029.72" cy="-244" rx="18" ry="18"/>
<text text-anchor="middle" x="1029.72" y="-238.57" font-family="Arial" font-size="14.00">6</text>
</g>
<!-- 5&#45;&gt;6 -->
<g id="edge8" class="edge">
<title>5&#45;&gt;6</title>
<path fill="none" stroke="black" d="M962.99,-169.37C975.35,-183.4 994.99,-205.7 1009.58,-222.27"/>
<polygon fill="black" stroke="black" points="1006.86,-224.47 1016.09,-229.66 1012.11,-219.84 1006.86,-224.47"/>
<text text-anchor="middle" x="989.97" y="-205.09" font-family="Arial" font-size="14.00">a</text>
</g>
<!-- 7 -->
<g id="node10" class="node">
<title>7</title>
<ellipse fill="none" stroke="black" cx="754.85" cy="-152" rx="18" ry="18"/>
<text text-anchor="middle" x="754.85" y="-146.57" font-family="Arial" font-size="14.00">7</text>
</g>
<!-- 5&#45;&gt;7 -->
<g id="edge9" class="edge">
<title>5&#45;&gt;7</title>
<path fill="none" stroke="black" d="M936.61,-143.5C925.19,-133.13 907.35,-119.17 888.72,-113.25 850.91,-101.24 806.61,-120.83 779.91,-136.27"/>
<polygon fill="black" stroke="black" points="778.3,-133.15 771.56,-141.32 781.93,-139.14 778.3,-133.15"/>
<text text-anchor="middle" x="870.72" y="-115.7" font-family="Arial" font-size="14.00">b</text>
</g>
<!-- 6&#45;&gt;8 -->
<g id="edge10" class="edge">
<title>6&#45;&gt;8</title>
<path fill="none" stroke="black" d="M1047.85,-245.48C1056.79,-246.26 1068.05,-247.24 1078.6,-248.15"/>
<polygon fill="black" stroke="black" points="1078.28,-251.64 1088.54,-249.01 1078.88,-244.66 1078.28,-251.64"/>
<text text-anchor="middle" x="1069.1" y="-249.95" font-family="Arial" font-size="14.00">c</text>
</g>
<!-- 7&#45;&gt;4 -->
<g id="edge11" class="edge">
<title>7&#45;&gt;4</title>
<path fill="none" stroke="black" d="M773.14,-152.61C791.12,-153.24 819.56,-154.24 840.93,-154.99"/>
<polygon fill="black" stroke="black" points="840.64,-158.48 850.75,-155.33 840.88,-151.48 840.64,-158.48"/>
<text text-anchor="middle" x="814.1" y="-157.16" font-family="Arial" font-size="14.00">d</text>
</g>
<!-- 9&#45;&gt;9 -->
<g id="edge14" class="edge">
<title>9&#45;&gt;9</title>
<path fill="none" stroke="black" d="M1190.46,-152.66C1188.82,-162.62 1191.29,-172 1197.85,-172 1201.74,-172 1204.19,-168.69 1205.2,-163.92"/>
<polygon fill="black" stroke="black" points="1208.7,-164.19 1205.23,-154.18 1201.7,-164.17 1208.7,-164.19"/>
<text text-anchor="middle" x="1197.85" y="-174.45" font-family="Arial" font-size="14.00">c</text>
</g>
<!-- 23 -->
<g id="node24" class="node">
<title>23</title>
<ellipse fill="none" stroke="black" cx="1282.6" cy="-91" rx="20.63" ry="20.63"/>
<text text-anchor="middle" x="1282.6" y="-85.58" font-family="Arial" font-size="14.00">23</text>
</g>
<!-- 9&#45;&gt;23 -->
<g id="edge15" class="edge">
<title>9&#45;&gt;23</title>
<path fill="none" stroke="black" d="M1214.03,-127.75C1225.14,-121.7 1240.55,-113.32 1253.84,-106.09"/>
<polygon fill="black" stroke="black" points="1255.49,-109.18 1262.6,-101.33 1252.14,-103.03 1255.49,-109.18"/>
<text text-anchor="middle" x="1240.22" y="-117.3" font-family="Arial" font-size="14.00">f</text>
</g>
<!-- 11 -->
<g id="node13" class="node">
<title>11</title>
<ellipse fill="none" stroke="black" cx="1282.6" cy="-363" rx="20.13" ry="20.13"/>
<text text-anchor="middle" x="1282.6" y="-357.57" font-family="Arial" font-size="14.00">11</text>
</g>
<!-- 10&#45;&gt;11 -->
<g id="edge16" class="edge">
<title>10&#45;&gt;11</title>
<path fill="none" stroke="black" d="M1211.78,-279.47C1225.15,-295.47 1246.22,-320.67 1261.72,-339.21"/>
<polygon fill="black" stroke="black" points="1258.96,-341.37 1268.06,-346.8 1264.33,-336.89 1258.96,-341.37"/>
<text text-anchor="middle" x="1240.22" y="-318.92" font-family="Arial" font-size="14.00">a</text>
</g>
<!-- 12 -->
<g id="node14" class="node">
<title>12</title>
<ellipse fill="none" stroke="black" cx="1282.6" cy="-278" rx="20.63" ry="20.63"/>
<text text-anchor="middle" x="1282.6" y="-272.57" font-family="Arial" font-size="14.00">12</text>
</g>
<!-- 10&#45;&gt;12 -->
<g id="edge17" class="edge">
<title>10&#45;&gt;12</title>
<path fill="none" stroke="black" d="M1218.75,-263.28C1226.65,-263.32 1235.8,-263.79 1243.97,-265.25 1246.67,-265.73 1249.43,-266.37 1252.17,-267.11"/>
<polygon fill="black" stroke="black" points="1251.1,-270.44 1261.69,-270.07 1253.18,-263.75 1251.1,-270.44"/>
<text text-anchor="middle" x="1240.22" y="-267.7" font-family="Arial" font-size="14.00">b</text>
</g>
<!-- 11&#45;&gt;19 -->
<g id="edge18" class="edge">
<title>11&#45;&gt;19</title>
<path fill="none" stroke="black" d="M1263.09,-369.04C1246.46,-373.93 1221.29,-380 1198.85,-380 325.85,-380 325.85,-380 325.85,-380 302.44,-380 281.13,-363.44 266.55,-348.33"/>
<polygon fill="black" stroke="black" points="269.51,-346.37 260.2,-341.32 264.32,-351.08 269.51,-346.37"/>
<text text-anchor="middle" x="754.85" y="-382.45" font-family="Arial" font-size="14.00">c</text>
</g>
<!-- 12&#45;&gt;13 -->
<g id="edge19" class="edge">
<title>12&#45;&gt;13</title>
<path fill="none" stroke="black" d="M1270.05,-294.75C1263.34,-303.38 1254.19,-313.44 1243.97,-320 1226.3,-331.34 1219.85,-334 1198.85,-334 588.1,-334 588.1,-334 588.1,-334 553.04,-334 528.61,-298.36 514.8,-270.29"/>
<polygon fill="black" stroke="black" points="518.05,-268.96 510.67,-261.36 511.69,-271.91 518.05,-268.96"/>
<text text-anchor="middle" x="910.47" y="-336.45" font-family="Arial" font-size="14.00">d</text>
</g>
<!-- 14&#45;&gt;14 -->
<g id="edge22" class="edge">
<title>14&#45;&gt;14</title>
<path fill="none" stroke="black" d="M581.77,-197.48C580.64,-207.55 583.08,-216.63 589.1,-216.63 592.67,-216.63 594.98,-213.42 596.03,-208.72"/>
<polygon fill="black" stroke="black" points="599.52,-209.11 596.37,-198.99 592.52,-208.86 599.52,-209.11"/>
<text text-anchor="middle" x="589.1" y="-219.08" font-family="Arial" font-size="14.00">d</text>
</g>
<!-- 18 -->
<g id="node19" class="node">
<title>18</title>
<ellipse fill="none" stroke="black" cx="670.1" cy="-178" rx="20.63" ry="20.63"/>
<text text-anchor="middle" x="670.1" y="-172.57" font-family="Arial" font-size="14.00">18</text>
</g>
<!-- 14&#45;&gt;18 -->
<g id="edge23" class="edge">
<title>14&#45;&gt;18</title>
<path fill="none" stroke="black" d="M610.03,-178C618.45,-178 628.46,-178 637.82,-178"/>
<polygon fill="black" stroke="black" points="637.65,-181.5 647.65,-178 637.65,-174.5 637.65,-181.5"/>
<text text-anchor="middle" x="629.6" y="-180.45" font-family="Arial" font-size="14.00">f</text>
</g>
<!-- 16 -->
<g id="node17" class="node">
<title>16</title>
<ellipse fill="none" stroke="black" cx="814.1" cy="-293" rx="20.63" ry="20.63"/>
<text text-anchor="middle" x="814.1" y="-287.57" font-family="Arial" font-size="14.00">16</text>
</g>
<!-- 15&#45;&gt;16 -->
<g id="edge24" class="edge">
<title>15&#45;&gt;16</title>
<path fill="none" stroke="black" d="M690.84,-271.48C714.58,-275.66 754.69,-282.72 782.46,-287.61"/>
<polygon fill="black" stroke="black" points="781.57,-291 792.03,-289.29 782.79,-284.11 781.57,-291"/>
<text text-anchor="middle" x="712.47" y="-278.23" font-family="Arial" font-size="14.00">a</text>
</g>
<!-- 17 -->
<g id="node18" class="node">
<title>17</title>
<ellipse fill="none" stroke="black" cx="754.85" cy="-247" rx="20.63" ry="20.63"/>
<text text-anchor="middle" x="754.85" y="-241.57" font-family="Arial" font-size="14.00">17</text>
</g>
<!-- 15&#45;&gt;17 -->
<g id="edge25" class="edge">
<title>15&#45;&gt;17</title>
<path fill="none" stroke="black" d="M690.23,-263.01C696.15,-261.47 702.71,-259.78 708.72,-258.25 713.48,-257.04 718.51,-255.77 723.44,-254.54"/>
<polygon fill="black" stroke="black" points="724.19,-257.96 733.04,-252.14 722.49,-251.17 724.19,-257.96"/>
<text text-anchor="middle" x="712.47" y="-260.7" font-family="Arial" font-size="14.00">b</text>
</g>
<!-- 16&#45;&gt;8 -->
<g id="edge26" class="edge">
<title>16&#45;&gt;8</title>
<path fill="none" stroke="black" d="M834.98,-292C854.07,-291.13 883.74,-290 909.47,-290 909.47,-290 909.47,-290 1030.72,-290 1050.39,-290 1070.31,-280.5 1085.44,-270.88"/>
<polygon fill="black" stroke="black" points="1087.08,-274 1093.4,-265.49 1083.16,-268.21 1087.08,-274"/>
<text text-anchor="middle" x="950.22" y="-292.45" font-family="Arial" font-size="14.00">c</text>
</g>
<!-- 17&#45;&gt;4 -->
<g id="edge27" class="edge">
<title>17&#45;&gt;4</title>
<path fill="none" stroke="black" d="M771.68,-234.35C791.36,-218.62 825.06,-191.69 847.37,-173.86"/>
<polygon fill="black" stroke="black" points="849.35,-176.76 854.97,-167.79 844.98,-171.29 849.35,-176.76"/>
<text text-anchor="middle" x="814.1" y="-217.42" font-family="Arial" font-size="14.00">d</text>
</g>
<!-- 18&#45;&gt;6 -->
<g id="edge28" class="edge">
<title>18&#45;&gt;6</title>
<path fill="none" stroke="black" d="M690.64,-182.6C723.84,-190.31 793.41,-206.09 852.72,-217 904.67,-226.55 965.67,-235.38 1000.5,-240.2"/>
<polygon fill="black" stroke="black" points="999.79,-243.63 1010.18,-241.52 1000.74,-236.7 999.79,-243.63"/>
<text text-anchor="middle" x="870.72" y="-225.62" font-family="Arial" font-size="14.00">a</text>
</g>
<!-- 18&#45;&gt;7 -->
<g id="edge29" class="edge">
<title>18&#45;&gt;7</title>
<path fill="none" stroke="black" d="M690.29,-171.97C701.07,-168.58 714.71,-164.3 726.58,-160.57"/>
<polygon fill="black" stroke="black" points="727.34,-164 735.83,-157.66 725.24,-157.32 727.34,-164"/>
<text text-anchor="middle" x="712.47" y="-168.23" font-family="Arial" font-size="14.00">b</text>
</g>
<!-- 19&#45;&gt;19 -->
<g id="edge30" class="edge">
<title>19&#45;&gt;19</title>
<path fill="none" stroke="black" d="M238.52,-343.48C237.39,-353.55 239.83,-362.63 245.85,-362.63 249.41,-362.63 251.73,-359.42 252.78,-354.72"/>
<polygon fill="black" stroke="black" points="256.27,-355.11 253.12,-344.99 249.27,-354.86 256.27,-355.11"/>
<text text-anchor="middle" x="245.85" y="-365.08" font-family="Arial" font-size="14.00">c</text>
</g>
<!-- 20 -->
<g id="node21" class="node">
<title>20</title>
<ellipse fill="none" stroke="black" cx="326.85" cy="-162" rx="20.63" ry="20.63"/>
<text text-anchor="middle" x="326.85" y="-156.57" font-family="Arial" font-size="14.00">20</text>
</g>
<!-- 19&#45;&gt;20 -->
<g id="edge31" class="edge">
<title>19&#45;&gt;20</title>
<path fill="none" stroke="black" d="M255.75,-305.73C269.44,-277.66 295.77,-223.67 311.97,-190.45"/>
<polygon fill="black" stroke="black" points="314.95,-192.33 316.18,-181.81 308.66,-189.26 314.95,-192.33"/>
<text text-anchor="middle" x="286.35" y="-245.45" font-family="Arial" font-size="14.00">f</text>
</g>
<!-- 21 -->
<g id="node22" class="node">
<title>21</title>
<ellipse fill="none" stroke="black" cx="1367.35" cy="-91" rx="20.63" ry="20.63"/>
<text text-anchor="middle" x="1367.35" y="-85.58" font-family="Arial" font-size="14.00">21</text>
</g>
<!-- 20&#45;&gt;21 -->
<g id="edge32" class="edge">
<title>20&#45;&gt;21</title>
<path fill="none" stroke="black" d="M339.05,-144.97C367.91,-103.38 449.33,0 545.72,0 545.72,0 545.72,0 1283.6,0 1317.38,0 1341.01,-34.75 1354.14,-61.31"/>
<polygon fill="black" stroke="black" points="1350.94,-62.73 1358.32,-70.33 1357.29,-59.78 1350.94,-62.73"/>
<text text-anchor="middle" x="870.72" y="-2.45" font-family="Arial" font-size="14.00">a</text>
</g>
<!-- 22 -->
<g id="node23" class="node">
<title>22</title>
<ellipse fill="none" stroke="black" cx="411.6" cy="-162" rx="20.63" ry="20.63"/>
<text text-anchor="middle" x="411.6" y="-156.57" font-family="Arial" font-size="14.00">22</text>
</g>
<!-- 20&#45;&gt;22 -->
<g id="edge33" class="edge">
<title>20&#45;&gt;22</title>
<path fill="none" stroke="black" d="M347.88,-162C357.33,-162 368.83,-162 379.39,-162"/>
<polygon fill="black" stroke="black" points="379.24,-165.5 389.24,-162 379.24,-158.5 379.24,-165.5"/>
<text text-anchor="middle" x="369.22" y="-164.45" font-family="Arial" font-size="14.00">b</text>
</g>
<!-- 21&#45;&gt;19 -->
<g id="edge34" class="edge">
<title>21&#45;&gt;19</title>
<path fill="none" stroke="black" d="M1365.67,-111.83C1362.75,-184.73 1348.23,-424 1283.6,-424 325.85,-424 325.85,-424 325.85,-424 289.94,-424 267.81,-383.82 256.42,-354.4"/>
<polygon fill="black" stroke="black" points="259.78,-353.4 253.09,-345.18 253.2,-355.77 259.78,-353.4"/>
<text text-anchor="middle" x="814.1" y="-426.45" font-family="Arial" font-size="14.00">c</text>
</g>
<!-- 22&#45;&gt;13 -->
<g id="edge35" class="edge">
<title>22&#45;&gt;13</title>
<path fill="none" stroke="black" d="M427.71,-175.06C440.01,-185.7 457.68,-200.98 472.4,-213.7"/>
<polygon fill="black" stroke="black" points="470.1,-216.34 479.96,-220.24 474.68,-211.05 470.1,-216.34"/>
<text text-anchor="middle" x="453.97" y="-201.95" font-family="Arial" font-size="14.00">d</text>
</g>
<!-- 23&#45;&gt;21 -->
<g id="edge36" class="edge">
<title>23&#45;&gt;21</title>
<path fill="none" stroke="black" d="M1303.63,-91C1313.08,-91 1324.58,-91 1335.14,-91"/>
<polygon fill="black" stroke="black" points="1334.99,-94.5 1344.99,-91 1334.99,-87.5 1334.99,-94.5"/>
<text text-anchor="middle" x="1324.97" y="-93.45" font-family="Arial" font-size="14.00">a</text>
</g>
<!-- 23&#45;&gt;22 -->
<g id="edge37" class="edge">
<title>23&#45;&gt;22</title>
<path fill="none" stroke="black" d="M1265.84,-78.45C1249.91,-67.04 1224.1,-52 1198.85,-52 869.72,-52 869.72,-52 869.72,-52 703.52,-52 512.53,-121.58 441.32,-150.06"/>
<polygon fill="black" stroke="black" points="440.3,-146.7 432.34,-153.7 442.92,-153.19 440.3,-146.7"/>
<text text-anchor="middle" x="870.72" y="-54.63" font-family="Arial" font-size="14.00">b</text>
</g>
</g>
</svg>
