<?xml version="1.0" encoding="UTF-8" standalone="no"?>
<!DOCTYPE svg PUBLIC "-//W3C//DTD SVG 1.1//EN"
 "http://www.w3.org/Graphics/SVG/1.1/DTD/svg11.dtd">
<!-- Generated by graphviz version 2.43.0 (0)
 -->
<!-- Title: SupConCmpl(A&#45;B&#45;Machine, PrefixClosure(A&#45;B&#45;Spec&#45;Keep&#45;Running.x.A&#45;B&#45;Machine)) [minstate] Pages: 1 -->
<svg width="250pt" height="63pt"
 viewBox="0.00 0.00 250.00 63.21" xmlns="http://www.w3.org/2000/svg" xmlns:xlink="http://www.w3.org/1999/xlink">
<g id="graph0" class="graph" transform="scale(1 1) rotate(0) translate(4 59.21)">
<title>SupConCmpl(A&#45;B&#45;Machine, PrefixClosure(A&#45;B&#45;Spec&#45;Keep&#45;Running.x.A&#45;B&#45;Machine)) [minstate]</title>
<!-- dot_dummyinit_1 -->
<g id="node1" class="node">
<title>dot_dummyinit_1</title>
</g>
<!-- 1 -->
<g id="node2" class="node">
<title>1</title>
<ellipse fill="none" stroke="black" cx="60" cy="-24.21" rx="18" ry="18"/>
<ellipse fill="none" stroke="black" cx="60" cy="-24.21" rx="22" ry="22"/>
<text text-anchor="middle" x="60" y="-20.51" font-family="Arial" font-size="14.00">1</text>
</g>
<!-- dot_dummyinit_1&#45;&gt;1 -->
<g id="edge1" class="edge">
<title>dot_dummyinit_1&#45;&gt;1</title>
<path fill="none" stroke="black" d="M1.17,-24.21C2.72,-24.21 14.89,-24.21 27.67,-24.21"/>
<polygon fill="black" stroke="black" points="27.86,-27.71 37.86,-24.21 27.86,-20.71 27.86,-27.71"/>
</g>
<!-- 3 -->
<g id="node4" class="node">
<title>3</title>
<ellipse fill="none" stroke="black" cx="144" cy="-24.21" rx="18" ry="18"/>
<text text-anchor="middle" x="144" y="-20.51" font-family="Arial" font-size="14.00">3</text>
</g>
<!-- 1&#45;&gt;3 -->
<g id="edge2" class="edge">
<title>1&#45;&gt;3</title>
<path fill="none" stroke="black" d="M79.48,-35.45C88.03,-39.36 98.4,-42.3 108,-40.21 111.5,-39.45 115.07,-38.31 118.53,-36.97"/>
<polygon fill="black" stroke="black" points="120.08,-40.11 127.82,-32.87 117.25,-33.71 120.08,-40.11"/>
<text text-anchor="middle" x="104" y="-44.01" font-family="Arial" font-size="14.00">a</text>
</g>
<!-- 1&#45;&gt;3 -->
<g id="edge3" class="edge">
<title>1&#45;&gt;3</title>
<path fill="none" stroke="black" d="M82.05,-21.91C90.15,-21.28 99.5,-20.85 108,-21.21 110.56,-21.32 113.22,-21.48 115.88,-21.66"/>
<polygon fill="black" stroke="black" points="115.68,-25.15 125.93,-22.45 116.24,-18.17 115.68,-25.15"/>
<text text-anchor="middle" x="104" y="-25.01" font-family="Arial" font-size="14.00">b</text>
</g>
<!-- 2 -->
<g id="node3" class="node">
<title>2</title>
<ellipse fill="none" stroke="black" cx="224" cy="-24.21" rx="18" ry="18"/>
<text text-anchor="middle" x="224" y="-20.51" font-family="Arial" font-size="14.00">2</text>
</g>
<!-- 2&#45;&gt;3 -->
<g id="edge4" class="edge">
<title>2&#45;&gt;3</title>
<path fill="none" stroke="black" d="M205.74,-24.21C195.95,-24.21 183.48,-24.21 172.39,-24.21"/>
<polygon fill="black" stroke="black" points="172.31,-20.71 162.31,-24.21 172.31,-27.71 172.31,-20.71"/>
<text text-anchor="middle" x="184" y="-28.01" font-family="Arial" font-size="14.00">a</text>
</g>
<!-- 2&#45;&gt;3 -->
<g id="edge5" class="edge">
<title>2&#45;&gt;3</title>
<path fill="none" stroke="black" d="M209.48,-13.04C201.21,-7.54 190.28,-2.6 180,-5.21 176.04,-6.22 172.05,-7.77 168.24,-9.56"/>
<polygon fill="black" stroke="black" points="166.48,-6.54 159.31,-14.35 169.78,-12.71 166.48,-6.54"/>
<text text-anchor="middle" x="184" y="-9.01" font-family="Arial" font-size="14.00">b</text>
</g>
<!-- 3&#45;&gt;1 -->
<g id="edge6" class="edge">
<title>3&#45;&gt;1</title>
<path fill="none" stroke="black" d="M129.64,-12.78C123.48,-8.24 115.8,-3.55 108,-1.21 100.58,1.01 92.89,-0.8 85.93,-4.2"/>
<polygon fill="black" stroke="black" points="83.75,-1.43 76.99,-9.6 87.36,-7.43 83.75,-1.43"/>
<text text-anchor="middle" x="104" y="-5.01" font-family="Arial" font-size="14.00">c</text>
</g>
<!-- 3&#45;&gt;2 -->
<g id="edge7" class="edge">
<title>3&#45;&gt;2</title>
<path fill="none" stroke="black" d="M160.18,-32.87C166.16,-35.82 173.21,-38.73 180,-40.21 186.44,-41.61 193.2,-40.44 199.41,-38.21"/>
<polygon fill="black" stroke="black" points="200.92,-41.37 208.58,-34.05 198.03,-34.99 200.92,-41.37"/>
<text text-anchor="middle" x="184" y="-44.01" font-family="Arial" font-size="14.00">d</text>
</g>
</g>
</svg>
