<?xml version="1.0" encoding="UTF-8" standalone="no"?>
<!DOCTYPE svg PUBLIC "-//W3C//DTD SVG 1.1//EN"
 "http://www.w3.org/Graphics/SVG/1.1/DTD/svg11.dtd">
<!-- Generated by graphviz version 2.43.0 (0)
 -->
<!-- Title: wPlant1 Pages: 1 -->
<svg width="264pt" height="167pt"
 viewBox="0.00 0.00 263.60 167.00" xmlns="http://www.w3.org/2000/svg" xmlns:xlink="http://www.w3.org/1999/xlink">
<g id="graph0" class="graph" transform="scale(1 1) rotate(0) translate(4 163)">
<title>wPlant1</title>
<!-- dot_dummyinit_1 -->
<g id="node1" class="node">
<title>dot_dummyinit_1</title>
</g>
<!-- L1 -->
<g id="node2" class="node">
<title>L1</title>
<ellipse fill="none" stroke="black" cx="58.8" cy="-77" rx="20.6" ry="20.6"/>
<text text-anchor="middle" x="58.8" y="-73.3" font-family="Arial" font-size="14.00">L1</text>
</g>
<!-- dot_dummyinit_1&#45;&gt;L1 -->
<g id="edge1" class="edge">
<title>dot_dummyinit_1&#45;&gt;L1</title>
<path fill="none" stroke="black" d="M1.16,-77C2.7,-77 14.93,-77 27.62,-77"/>
<polygon fill="black" stroke="black" points="27.71,-80.5 37.71,-77 27.71,-73.5 27.71,-80.5"/>
</g>
<!-- B -->
<g id="node4" class="node">
<title>B</title>
<ellipse fill="none" stroke="black" cx="145.6" cy="-137" rx="18" ry="18"/>
<ellipse fill="none" stroke="black" cx="145.6" cy="-137" rx="22" ry="22"/>
<text text-anchor="middle" x="145.6" y="-133.3" font-family="Arial" font-size="14.00">B</text>
</g>
<!-- L1&#45;&gt;B -->
<g id="edge2" class="edge">
<title>L1&#45;&gt;B</title>
<path fill="none" stroke="black" d="M68.01,-95.9C74.3,-108 84.18,-122.89 97.6,-131 102.23,-133.8 107.59,-135.56 112.99,-136.62"/>
<polygon fill="black" stroke="black" points="112.9,-140.14 123.26,-137.91 113.77,-133.19 112.9,-140.14"/>
<text text-anchor="middle" x="101.6" y="-137.8" font-family="Arial" font-size="14.00">b</text>
</g>
<!-- L2 -->
<g id="node5" class="node">
<title>L2</title>
<ellipse fill="none" stroke="black" cx="145.6" cy="-60" rx="20.6" ry="20.6"/>
<text text-anchor="middle" x="145.6" y="-56.3" font-family="Arial" font-size="14.00">L2</text>
</g>
<!-- L1&#45;&gt;L2 -->
<g id="edge3" class="edge">
<title>L1&#45;&gt;L2</title>
<path fill="none" stroke="black" d="M79.47,-73.06C90.06,-70.93 103.35,-68.27 115.15,-65.9"/>
<polygon fill="black" stroke="black" points="115.92,-69.32 125.04,-63.92 114.54,-62.46 115.92,-69.32"/>
<text text-anchor="middle" x="101.6" y="-72.8" font-family="Arial" font-size="14.00">d</text>
</g>
<!-- A -->
<g id="node3" class="node">
<title>A</title>
<ellipse fill="none" stroke="black" cx="233.6" cy="-22" rx="18" ry="18"/>
<ellipse fill="none" stroke="black" cx="233.6" cy="-22" rx="22" ry="22"/>
<text text-anchor="middle" x="233.6" y="-18.3" font-family="Arial" font-size="14.00">A</text>
</g>
<!-- A&#45;&gt;L1 -->
<g id="edge6" class="edge">
<title>A&#45;&gt;L1</title>
<path fill="none" stroke="black" d="M212.47,-15.62C189.94,-9.62 152.76,-3.16 123.6,-15 105.11,-22.5 89.03,-38.22 77.64,-51.96"/>
<polygon fill="black" stroke="black" points="74.62,-50.14 71.18,-60.16 80.12,-54.47 74.62,-50.14"/>
<text text-anchor="middle" x="145.6" y="-18.8" font-family="Arial" font-size="14.00">c</text>
</g>
<!-- B&#45;&gt;L1 -->
<g id="edge7" class="edge">
<title>B&#45;&gt;L1</title>
<path fill="none" stroke="black" d="M127.13,-124.64C114.85,-115.96 98.26,-104.21 84.61,-94.56"/>
<polygon fill="black" stroke="black" points="86.33,-91.49 76.15,-88.57 82.29,-97.2 86.33,-91.49"/>
<text text-anchor="middle" x="101.6" y="-111.8" font-family="Arial" font-size="14.00">d</text>
</g>
<!-- L2&#45;&gt;L1 -->
<g id="edge5" class="edge">
<title>L2&#45;&gt;L1</title>
<path fill="none" stroke="black" d="M127,-50.69C118.09,-47.19 107.17,-44.75 97.6,-48 92.11,-49.86 86.8,-52.87 81.98,-56.27"/>
<polygon fill="black" stroke="black" points="79.59,-53.69 73.9,-62.62 83.92,-59.19 79.59,-53.69"/>
<text text-anchor="middle" x="101.6" y="-51.8" font-family="Arial" font-size="14.00">d</text>
</g>
<!-- L2&#45;&gt;A -->
<g id="edge4" class="edge">
<title>L2&#45;&gt;A</title>
<path fill="none" stroke="black" d="M164.83,-51.94C176.15,-46.94 190.94,-40.41 203.81,-34.72"/>
<polygon fill="black" stroke="black" points="205.46,-37.82 213.19,-30.58 202.63,-31.42 205.46,-37.82"/>
<text text-anchor="middle" x="189.6" y="-45.8" font-family="Arial" font-size="14.00">a</text>
</g>
</g>
</svg>
