<?xml version="1.0" encoding="UTF-8" standalone="no"?>
<!DOCTYPE svg PUBLIC "-//W3C//DTD SVG 1.1//EN"
 "http://www.w3.org/Graphics/SVG/1.1/DTD/svg11.dtd">
<!-- Generated by graphviz version 12.2.1 (20241206.2353)
 -->
<!-- Title: eventually allways allternating a and b Pages: 1 -->
<svg width="463pt" height="125pt"
 viewBox="0.00 0.00 462.50 124.75" xmlns="http://www.w3.org/2000/svg" xmlns:xlink="http://www.w3.org/1999/xlink">
<g id="graph0" class="graph" transform="scale(1 1) rotate(0) translate(4 120.75)">
<title>eventually allways allternating a and b</title>
<!-- dot_dummyinit_0 -->
<g id="node1" class="node">
<title>dot_dummyinit_0</title>
</g>
<!-- 4 -->
<g id="node2" class="node">
<title>4</title>
<path fill="none" stroke="black" d="M133,-47C133,-47 103,-47 103,-47 97,-47 91,-41 91,-35 91,-35 91,-23 91,-23 91,-17 97,-11 103,-11 103,-11 133,-11 133,-11 139,-11 145,-17 145,-23 145,-23 145,-35 145,-35 145,-41 139,-47 133,-47"/>
<text text-anchor="middle" x="118" y="-23.57" font-family="Arial" font-size="14.00">4</text>
</g>
<!-- dot_dummyinit_0&#45;&gt;4 -->
<g id="edge1" class="edge">
<title>dot_dummyinit_0&#45;&gt;4</title>
<path fill="none" stroke="black" d="M53.74,-29C61.72,-29 70.68,-29 79.29,-29"/>
<polygon fill="black" stroke="black" points="79.18,-32.5 89.18,-29 79.18,-25.5 79.18,-32.5"/>
</g>
<!-- 4&#45;&gt;4 -->
<g id="edge9" class="edge">
<title>4&#45;&gt;4</title>
<path fill="none" stroke="black" d="M109.77,-47.15C108.5,-56.54 111.25,-65 118,-65 121.69,-65 124.19,-62.47 125.48,-58.64"/>
<polygon fill="black" stroke="black" points="128.98,-58.87 126.13,-48.66 121.99,-58.41 128.98,-58.87"/>
<text text-anchor="middle" x="118" y="-67.45" font-family="Arial" font-size="14.00">b</text>
</g>
<!-- 3 -->
<g id="node3" class="node">
<title>3</title>
<path fill="none" stroke="black" d="M230.5,-83C230.5,-83 200.5,-83 200.5,-83 194.5,-83 188.5,-77 188.5,-71 188.5,-71 188.5,-59 188.5,-59 188.5,-53 194.5,-47 200.5,-47 200.5,-47 230.5,-47 230.5,-47 236.5,-47 242.5,-53 242.5,-59 242.5,-59 242.5,-71 242.5,-71 242.5,-77 236.5,-83 230.5,-83"/>
<text text-anchor="middle" x="215.5" y="-59.58" font-family="Arial" font-size="14.00">3</text>
</g>
<!-- 4&#45;&gt;3 -->
<g id="edge8" class="edge">
<title>4&#45;&gt;3</title>
<path fill="none" stroke="black" d="M145.35,-38.93C155.37,-42.71 166.98,-47.08 177.78,-51.16"/>
<polygon fill="black" stroke="black" points="176.23,-54.31 186.82,-54.57 178.7,-47.76 176.23,-54.31"/>
<text text-anchor="middle" x="166.75" y="-50.53" font-family="Arial" font-size="14.00">a</text>
</g>
<!-- 3&#45;&gt;3 -->
<g id="edge7" class="edge">
<title>3&#45;&gt;3</title>
<path fill="none" stroke="black" d="M206.68,-83.15C205.32,-92.54 208.26,-101 215.5,-101 219.57,-101 222.28,-98.32 223.63,-94.31"/>
<polygon fill="black" stroke="black" points="227.11,-94.86 224.23,-84.66 220.12,-94.43 227.11,-94.86"/>
<text text-anchor="middle" x="215.5" y="-103.45" font-family="Arial" font-size="14.00">a</text>
</g>
<!-- 1 -->
<g id="node4" class="node">
<title>1</title>
<path fill="none" stroke="black" d="M336.5,-36C336.5,-36 298,-36 298,-36 292,-36 286,-30 286,-24 286,-24 286,-12 286,-12 286,-6 292,0 298,0 298,0 336.5,0 336.5,0 342.5,0 348.5,-6 348.5,-12 348.5,-12 348.5,-24 348.5,-24 348.5,-30 342.5,-36 336.5,-36"/>
<text text-anchor="start" x="298" y="-12.57" font-family="Arial" font-size="14.00">1</text>
<polygon fill="lightblue" stroke="none" points="316.5,-8.12 316.5,-27.88 326.5,-27.88 326.5,-8.12 316.5,-8.12"/>
<polygon fill="darkblue" stroke="none" points="328.5,-8.12 328.5,-27.88 338.5,-27.88 338.5,-8.12 328.5,-8.12"/>
</g>
<!-- 3&#45;&gt;1 -->
<g id="edge6" class="edge">
<title>3&#45;&gt;1</title>
<path fill="none" stroke="black" d="M242.97,-52.53C252.94,-47.83 264.53,-42.37 275.51,-37.2"/>
<polygon fill="black" stroke="black" points="276.85,-40.44 284.4,-33.01 273.86,-34.1 276.85,-40.44"/>
<text text-anchor="middle" x="264.25" y="-45.36" font-family="Arial" font-size="14.00">b</text>
</g>
<!-- 1&#45;&gt;4 -->
<g id="edge3" class="edge">
<title>1&#45;&gt;4</title>
<path fill="none" stroke="black" d="M285.51,-18.48C259.61,-19.01 221.61,-20.09 188.5,-22.25 178.13,-22.93 166.91,-23.91 156.57,-24.91"/>
<polygon fill="black" stroke="black" points="156.47,-21.4 146.88,-25.89 157.18,-28.37 156.47,-21.4"/>
<text text-anchor="middle" x="215.5" y="-24.7" font-family="Arial" font-size="14.00">b</text>
</g>
<!-- 2 -->
<g id="node5" class="node">
<title>2</title>
<path fill="none" stroke="black" d="M442.5,-64C442.5,-64 404,-64 404,-64 398,-64 392,-58 392,-52 392,-52 392,-40 392,-40 392,-34 398,-28 404,-28 404,-28 442.5,-28 442.5,-28 448.5,-28 454.5,-34 454.5,-40 454.5,-40 454.5,-52 454.5,-52 454.5,-58 448.5,-64 442.5,-64"/>
<text text-anchor="start" x="404" y="-40.58" font-family="Arial" font-size="14.00">2</text>
<polygon fill="lightblue" stroke="none" points="422.5,-36.12 422.5,-55.88 432.5,-55.88 432.5,-36.12 422.5,-36.12"/>
<polygon fill="darkblue" stroke="none" points="434.5,-36.12 434.5,-55.88 444.5,-55.88 444.5,-36.12 434.5,-36.12"/>
</g>
<!-- 1&#45;&gt;2 -->
<g id="edge2" class="edge">
<title>1&#45;&gt;2</title>
<path fill="none" stroke="black" d="M348.89,-26.25C358.94,-28.96 370.28,-32.01 380.98,-34.89"/>
<polygon fill="black" stroke="black" points="379.8,-38.2 390.37,-37.42 381.62,-31.44 379.8,-38.2"/>
<text text-anchor="middle" x="370.25" y="-35.29" font-family="Arial" font-size="14.00">a</text>
</g>
<!-- 2&#45;&gt;3 -->
<g id="edge5" class="edge">
<title>2&#45;&gt;3</title>
<path fill="none" stroke="black" d="M391.65,-50.67C385.8,-51.5 379.72,-52.32 374,-53 327.01,-58.62 315.22,-59.86 268,-63 263.56,-63.3 258.9,-63.55 254.27,-63.77"/>
<polygon fill="black" stroke="black" points="254.33,-60.27 244.49,-64.19 254.63,-67.26 254.33,-60.27"/>
<text text-anchor="middle" x="317.25" y="-64.19" font-family="Arial" font-size="14.00">a</text>
</g>
<!-- 2&#45;&gt;1 -->
<g id="edge4" class="edge">
<title>2&#45;&gt;1</title>
<path fill="none" stroke="black" d="M402.69,-27.65C394.48,-21.15 384.41,-14.61 374,-11.25 369.51,-9.8 364.73,-9.14 359.92,-9.02"/>
<polygon fill="black" stroke="black" points="360.11,-5.51 350.31,-9.54 360.48,-12.5 360.11,-5.51"/>
<text text-anchor="middle" x="370.25" y="-13.7" font-family="Arial" font-size="14.00">b</text>
</g>
</g>
</svg>
