<?xml version="1.0" encoding="UTF-8" standalone="no"?>
<!DOCTYPE svg PUBLIC "-//W3C//DTD SVG 1.1//EN"
 "http://www.w3.org/Graphics/SVG/1.1/DTD/svg11.dtd">
<!-- Generated by graphviz version 2.43.0 (0)
 -->
<!-- Title: A&#45;B&#45;Machine&#45;B&#45;Exhausts Pages: 1 -->
<svg width="522pt" height="104pt"
 viewBox="0.00 0.00 521.59 103.75" xmlns="http://www.w3.org/2000/svg" xmlns:xlink="http://www.w3.org/1999/xlink">
<g id="graph0" class="graph" transform="scale(1 1) rotate(0) translate(4 99.75)">
<title>A&#45;B&#45;Machine&#45;B&#45;Exhausts</title>
<!-- dot_dummyinit_1 -->
<g id="node1" class="node">
<title>dot_dummyinit_1</title>
</g>
<!-- I -->
<g id="node2" class="node">
<title>I</title>
<ellipse fill="none" stroke="black" cx="60" cy="-22" rx="18" ry="18"/>
<ellipse fill="none" stroke="black" cx="60" cy="-22" rx="22" ry="22"/>
<text text-anchor="middle" x="60" y="-18.3" font-family="Arial" font-size="14.00">I</text>
</g>
<!-- dot_dummyinit_1&#45;&gt;I -->
<g id="edge1" class="edge">
<title>dot_dummyinit_1&#45;&gt;I</title>
<path fill="none" stroke="black" d="M1.17,-22C2.72,-22 14.89,-22 27.67,-22"/>
<polygon fill="black" stroke="black" points="27.86,-25.5 37.86,-22 27.86,-18.5 27.86,-25.5"/>
</g>
<!-- A -->
<g id="node4" class="node">
<title>A</title>
<ellipse fill="none" stroke="black" cx="144" cy="-60" rx="18" ry="18"/>
<text text-anchor="middle" x="144" y="-56.3" font-family="Arial" font-size="14.00">A</text>
</g>
<!-- I&#45;&gt;A -->
<g id="edge2" class="edge">
<title>I&#45;&gt;A</title>
<path fill="none" stroke="black" d="M80.43,-31.01C91.72,-36.24 106.05,-42.88 118.15,-48.49"/>
<polygon fill="black" stroke="black" points="116.73,-51.68 127.28,-52.71 119.67,-45.33 116.73,-51.68"/>
<text text-anchor="middle" x="104" y="-46.8" font-family="Arial" font-size="14.00">a</text>
</g>
<!-- B -->
<g id="node5" class="node">
<title>B</title>
<ellipse fill="none" stroke="black" cx="310.9" cy="-40" rx="18" ry="18"/>
<text text-anchor="middle" x="310.9" y="-36.3" font-family="Arial" font-size="14.00">B</text>
</g>
<!-- I&#45;&gt;B -->
<g id="edge3" class="edge">
<title>I&#45;&gt;B</title>
<path fill="none" stroke="black" d="M81.62,-16.84C116.54,-8.94 189.36,3.85 248.9,-10 261.88,-13.02 275.27,-19.21 286.2,-25.19"/>
<polygon fill="black" stroke="black" points="284.67,-28.35 295.08,-30.31 288.16,-22.28 284.67,-28.35"/>
<text text-anchor="middle" x="184" y="-6.8" font-family="Arial" font-size="14.00">b</text>
</g>
<!-- XB -->
<g id="node3" class="node">
<title>XB</title>
<ellipse fill="none" stroke="black" cx="398.64" cy="-69" rx="22.96" ry="22.96"/>
<ellipse fill="none" stroke="black" cx="398.64" cy="-69" rx="27" ry="27"/>
<text text-anchor="middle" x="398.64" y="-65.3" font-family="Arial" font-size="14.00">XB</text>
</g>
<!-- XB&#45;&gt;A -->
<g id="edge10" class="edge">
<title>XB&#45;&gt;A</title>
<path fill="none" stroke="black" d="M371.75,-71.07C365.88,-71.46 359.68,-71.8 353.9,-72 350.79,-72.11 350.01,-72.02 346.9,-72 272.72,-71.56 253.4,-80.73 180,-70 177.07,-69.57 174.04,-68.96 171.04,-68.26"/>
<polygon fill="black" stroke="black" points="171.75,-64.83 161.18,-65.6 169.93,-71.58 171.75,-64.83"/>
<text text-anchor="middle" x="270.9" y="-77.8" font-family="Arial" font-size="14.00">a</text>
</g>
<!-- FB -->
<g id="node7" class="node">
<title>FB</title>
<ellipse fill="none" stroke="black" cx="491.49" cy="-69" rx="22.2" ry="22.2"/>
<text text-anchor="middle" x="491.49" y="-65.3" font-family="Arial" font-size="14.00">FB</text>
</g>
<!-- XB&#45;&gt;FB -->
<g id="edge11" class="edge">
<title>XB&#45;&gt;FB</title>
<path fill="none" stroke="black" d="M425.43,-69C435.93,-69 448.15,-69 459.16,-69"/>
<polygon fill="black" stroke="black" points="459.23,-72.5 469.23,-69 459.23,-65.5 459.23,-72.5"/>
<text text-anchor="middle" x="447.39" y="-72.8" font-family="Arial" font-size="14.00">b</text>
</g>
<!-- A&#45;&gt;I -->
<g id="edge4" class="edge">
<title>A&#45;&gt;I</title>
<path fill="none" stroke="black" d="M133.67,-44.85C127.54,-36.41 118.68,-26.68 108,-22 103.08,-19.84 97.59,-18.8 92.14,-18.43"/>
<polygon fill="black" stroke="black" points="91.86,-14.93 81.87,-18.45 91.88,-21.93 91.86,-14.93"/>
<text text-anchor="middle" x="104" y="-25.8" font-family="Arial" font-size="14.00">c</text>
</g>
<!-- FA -->
<g id="node6" class="node">
<title>FA</title>
<ellipse fill="none" stroke="black" cx="227.45" cy="-40" rx="21.4" ry="21.4"/>
<text text-anchor="middle" x="227.45" y="-36.3" font-family="Arial" font-size="14.00">FA</text>
</g>
<!-- A&#45;&gt;FA -->
<g id="edge5" class="edge">
<title>A&#45;&gt;FA</title>
<path fill="none" stroke="black" d="M161.88,-55.86C171.89,-53.4 184.89,-50.21 196.59,-47.33"/>
<polygon fill="black" stroke="black" points="197.55,-50.7 206.43,-44.92 195.88,-43.9 197.55,-50.7"/>
<text text-anchor="middle" x="184" y="-54.8" font-family="Arial" font-size="14.00">d</text>
</g>
<!-- B&#45;&gt;XB -->
<g id="edge6" class="edge">
<title>B&#45;&gt;XB</title>
<path fill="none" stroke="black" d="M328.43,-45.59C338.31,-48.93 351.25,-53.31 363.26,-57.37"/>
<polygon fill="black" stroke="black" points="362.45,-60.79 373.04,-60.68 364.69,-54.16 362.45,-60.79"/>
<text text-anchor="middle" x="350.4" y="-56.8" font-family="Arial" font-size="14.00">c</text>
</g>
<!-- FA&#45;&gt;A -->
<g id="edge7" class="edge">
<title>FA&#45;&gt;A</title>
<path fill="none" stroke="black" d="M207.56,-31.83C198.98,-29.26 188.81,-27.82 180,-31 174.43,-33.01 169.12,-36.33 164.4,-40.02"/>
<polygon fill="black" stroke="black" points="161.81,-37.64 156.6,-46.86 166.42,-42.9 161.81,-37.64"/>
<text text-anchor="middle" x="184" y="-34.8" font-family="Arial" font-size="14.00">a</text>
</g>
<!-- FA&#45;&gt;B -->
<g id="edge8" class="edge">
<title>FA&#45;&gt;B</title>
<path fill="none" stroke="black" d="M249,-40C259.11,-40 271.44,-40 282.35,-40"/>
<polygon fill="black" stroke="black" points="282.65,-43.5 292.65,-40 282.65,-36.5 282.65,-43.5"/>
<text text-anchor="middle" x="270.9" y="-43.8" font-family="Arial" font-size="14.00">b</text>
</g>
<!-- FB&#45;&gt;XB -->
<g id="edge9" class="edge">
<title>FB&#45;&gt;XB</title>
<path fill="none" stroke="black" d="M471.97,-58.49C465.65,-55.45 458.4,-52.54 451.39,-51 444.93,-49.58 438.16,-50.27 431.72,-52.01"/>
<polygon fill="black" stroke="black" points="430.23,-48.83 421.98,-55.48 432.57,-55.42 430.23,-48.83"/>
<text text-anchor="middle" x="447.39" y="-54.8" font-family="Arial" font-size="14.00">d</text>
</g>
</g>
</svg>
