<?xml version="1.0" encoding="UTF-8" standalone="no"?>
<!DOCTYPE svg PUBLIC "-//W3C//DTD SVG 1.1//EN"
 "http://www.w3.org/Graphics/SVG/1.1/DTD/svg11.dtd">
<!-- Generated by graphviz version 12.2.1 (20241206.2353)
 -->
<!-- Title: g Pages: 1 -->
<svg width="336pt" height="196pt"
 viewBox="0.00 0.00 336.22 196.00" xmlns="http://www.w3.org/2000/svg" xmlns:xlink="http://www.w3.org/1999/xlink">
<g id="graph0" class="graph" transform="scale(1 1) rotate(0) translate(4 192)">
<title>g</title>
<!-- dot_dummyinit_1 -->
<g id="node1" class="node">
<title>dot_dummyinit_1</title>
</g>
<!-- 1 -->
<g id="node2" class="node">
<title>1</title>
<ellipse fill="none" stroke="black" cx="59.72" cy="-22" rx="18" ry="18"/>
<ellipse fill="none" stroke="black" cx="59.72" cy="-22" rx="22" ry="22"/>
<text text-anchor="middle" x="59.72" y="-16.57" font-family="Arial" font-size="14.00">1</text>
</g>
<!-- dot_dummyinit_1&#45;&gt;1 -->
<g id="edge1" class="edge">
<title>dot_dummyinit_1&#45;&gt;1</title>
<path fill="none" stroke="black" d="M0.89,-22C2.38,-22 13.74,-22 26,-22"/>
<polygon fill="black" stroke="black" points="25.74,-25.5 35.74,-22 25.74,-18.5 25.74,-25.5"/>
</g>
<!-- 2 -->
<g id="node4" class="node">
<title>2</title>
<ellipse fill="none" stroke="black" cx="143.22" cy="-91" rx="18" ry="18"/>
<text text-anchor="middle" x="143.22" y="-85.58" font-family="Arial" font-size="14.00">2</text>
</g>
<!-- 1&#45;&gt;2 -->
<g id="edge2" class="edge">
<title>1&#45;&gt;2</title>
<path fill="none" stroke="black" d="M77.21,-35.96C89.53,-46.39 106.5,-60.76 120.02,-72.2"/>
<polygon fill="black" stroke="black" points="117.67,-74.8 127.56,-78.59 122.19,-69.46 117.67,-74.8"/>
<text text-anchor="middle" x="103.47" y="-63.08" font-family="Arial" font-size="14.00">a</text>
</g>
<!-- 5 -->
<g id="node3" class="node">
<title>5</title>
<ellipse fill="none" stroke="black" cx="306.22" cy="-117" rx="18" ry="18"/>
<ellipse fill="none" stroke="black" cx="306.22" cy="-117" rx="22" ry="22"/>
<text text-anchor="middle" x="306.22" y="-111.58" font-family="Arial" font-size="14.00">5</text>
</g>
<!-- 3 -->
<g id="node5" class="node">
<title>3</title>
<ellipse fill="none" stroke="black" cx="222.72" cy="-170" rx="18" ry="18"/>
<text text-anchor="middle" x="222.72" y="-164.57" font-family="Arial" font-size="14.00">3</text>
</g>
<!-- 2&#45;&gt;3 -->
<g id="edge3" class="edge">
<title>2&#45;&gt;3</title>
<path fill="none" stroke="black" d="M155.62,-104.25C162.33,-111.92 171.08,-121.67 179.22,-130 185.99,-136.93 193.63,-144.27 200.55,-150.74"/>
<polygon fill="black" stroke="black" points="197.98,-153.12 207.69,-157.34 202.73,-147.98 197.98,-153.12"/>
<text text-anchor="middle" x="182.97" y="-139.21" font-family="Arial" font-size="14.00">b</text>
</g>
<!-- 4 -->
<g id="node6" class="node">
<title>4</title>
<ellipse fill="none" stroke="black" cx="222.72" cy="-116" rx="18" ry="18"/>
<text text-anchor="middle" x="222.72" y="-110.58" font-family="Arial" font-size="14.00">4</text>
</g>
<!-- 2&#45;&gt;4 -->
<g id="edge4" class="edge">
<title>2&#45;&gt;4</title>
<path fill="none" stroke="black" d="M159.53,-99.53C165.52,-102.58 172.55,-105.8 179.22,-108 183.66,-109.47 188.46,-110.7 193.18,-111.71"/>
<polygon fill="black" stroke="black" points="192.54,-115.15 203.01,-113.55 193.82,-108.27 192.54,-115.15"/>
<text text-anchor="middle" x="182.97" y="-112.45" font-family="Arial" font-size="14.00">c</text>
</g>
<!-- 6 -->
<g id="node7" class="node">
<title>6</title>
<ellipse fill="none" stroke="black" cx="222.72" cy="-52" rx="18" ry="18"/>
<text text-anchor="middle" x="222.72" y="-46.58" font-family="Arial" font-size="14.00">6</text>
</g>
<!-- 2&#45;&gt;6 -->
<g id="edge5" class="edge">
<title>2&#45;&gt;6</title>
<path fill="none" stroke="black" d="M158.03,-80.45C164.27,-75.99 171.89,-70.98 179.22,-67.25 183.99,-64.83 189.23,-62.61 194.36,-60.67"/>
<polygon fill="black" stroke="black" points="195.47,-63.98 203.75,-57.36 193.15,-57.38 195.47,-63.98"/>
<text text-anchor="middle" x="182.97" y="-69.7" font-family="Arial" font-size="14.00">d</text>
</g>
<!-- 4&#45;&gt;5 -->
<g id="edge6" class="edge">
<title>4&#45;&gt;5</title>
<path fill="none" stroke="black" d="M241,-116.21C250.2,-116.32 261.82,-116.47 272.63,-116.6"/>
<polygon fill="black" stroke="black" points="272.34,-120.1 282.39,-116.72 272.43,-113.1 272.34,-120.1"/>
<text text-anchor="middle" x="262.47" y="-118.95" font-family="Arial" font-size="14.00">a</text>
</g>
<!-- 4&#45;&gt;2 -->
<g id="edge7" class="edge">
<title>4&#45;&gt;2</title>
<path fill="none" stroke="black" d="M209.71,-103.13C203.47,-97.39 195.36,-91.26 186.72,-88.25 182.16,-86.66 177.17,-86.06 172.26,-86.05"/>
<polygon fill="black" stroke="black" points="172.39,-82.53 162.69,-86.79 172.93,-89.51 172.39,-82.53"/>
<text text-anchor="middle" x="182.97" y="-90.7" font-family="Arial" font-size="14.00">b</text>
</g>
<!-- 7 -->
<g id="node8" class="node">
<title>7</title>
<ellipse fill="none" stroke="black" cx="306.22" cy="-39" rx="18" ry="18"/>
<text text-anchor="middle" x="306.22" y="-33.58" font-family="Arial" font-size="14.00">7</text>
</g>
<!-- 6&#45;&gt;7 -->
<g id="edge8" class="edge">
<title>6&#45;&gt;7</title>
<path fill="none" stroke="black" d="M240.4,-55.85C248.29,-57.1 257.8,-57.75 266.22,-56 270.73,-55.06 275.35,-53.57 279.77,-51.85"/>
<polygon fill="black" stroke="black" points="281,-55.13 288.76,-47.91 278.19,-48.72 281,-55.13"/>
<text text-anchor="middle" x="262.47" y="-59.37" font-family="Arial" font-size="14.00">a</text>
</g>
<!-- 7&#45;&gt;1 -->
<g id="edge10" class="edge">
<title>7&#45;&gt;1</title>
<path fill="none" stroke="black" d="M288.4,-34.39C275.47,-31.09 257.11,-26.9 240.72,-25 189.53,-19.08 129.62,-19.54 93.45,-20.62"/>
<polygon fill="black" stroke="black" points="93.53,-17.11 83.66,-20.95 93.77,-24.11 93.53,-17.11"/>
<text text-anchor="middle" x="182.97" y="-23.35" font-family="Arial" font-size="14.00">c</text>
</g>
<!-- 7&#45;&gt;6 -->
<g id="edge9" class="edge">
<title>7&#45;&gt;6</title>
<path fill="none" stroke="black" d="M288.27,-35.83C279.38,-34.71 268.37,-34.18 258.72,-36.25 255.65,-36.91 252.52,-37.86 249.47,-38.97"/>
<polygon fill="black" stroke="black" points="248.13,-35.73 240.31,-42.88 250.88,-42.17 248.13,-35.73"/>
<text text-anchor="middle" x="262.47" y="-38.7" font-family="Arial" font-size="14.00">b</text>
</g>
</g>
</svg>
