<?xml version="1.0" encoding="UTF-8" standalone="no"?>
<!DOCTYPE svg PUBLIC "-//W3C//DTD SVG 1.1//EN"
 "http://www.w3.org/Graphics/SVG/1.1/DTD/svg11.dtd">
<!-- Generated by graphviz version 2.43.0 (0)
 -->
<!-- Title: G Pages: 1 -->
<svg width="720pt" height="162pt"
 viewBox="0.00 0.00 720.00 161.83" xmlns="http://www.w3.org/2000/svg" xmlns:xlink="http://www.w3.org/1999/xlink">
<g id="graph0" class="graph" transform="scale(1.33 1.33) rotate(0) translate(4 212)">
<title>G</title>
<!-- dot_dummyinit_0 -->
<g id="node1" class="node">
<title>dot_dummyinit_0</title>
</g>
<!-- N0 -->
<g id="node2" class="node">
<title>N0</title>
<path fill="none" stroke="black" d="M133,-152C133,-152 103,-152 103,-152 97,-152 91,-146 91,-140 91,-140 91,-128 91,-128 91,-122 97,-116 103,-116 103,-116 133,-116 133,-116 139,-116 145,-122 145,-128 145,-128 145,-140 145,-140 145,-146 139,-152 133,-152"/>
<text text-anchor="middle" x="118" y="-130.3" font-family="Arial" font-size="14.00">N0</text>
</g>
<!-- dot_dummyinit_0&#45;&gt;N0 -->
<g id="edge1" class="edge">
<title>dot_dummyinit_0&#45;&gt;N0</title>
<path fill="none" stroke="black" d="M54.22,-134C62.55,-134 71.91,-134 80.82,-134"/>
<polygon fill="black" stroke="black" points="80.97,-137.5 90.97,-134 80.97,-130.5 80.97,-137.5"/>
</g>
<!-- N1 -->
<g id="node3" class="node">
<title>N1</title>
<path fill="none" stroke="black" d="M303,-175C303,-175 273,-175 273,-175 267,-175 261,-169 261,-163 261,-163 261,-151 261,-151 261,-145 267,-139 273,-139 273,-139 303,-139 303,-139 309,-139 315,-145 315,-151 315,-151 315,-163 315,-163 315,-169 309,-175 303,-175"/>
<text text-anchor="middle" x="288" y="-153.3" font-family="Arial" font-size="14.00">N1</text>
</g>
<!-- N0&#45;&gt;N1 -->
<g id="edge2" class="edge">
<title>N0&#45;&gt;N1</title>
<path fill="none" stroke="black" d="M145.25,-137.59C173.61,-141.48 218.98,-147.69 250.73,-152.03"/>
<polygon fill="black" stroke="black" points="250.55,-155.54 260.93,-153.43 251.5,-148.61 250.55,-155.54"/>
<text text-anchor="middle" x="167" y="-143.8" font-family="Arial" font-size="14.00">a</text>
</g>
<!-- A1 -->
<g id="node6" class="node">
<title>A1</title>
<path fill="none" stroke="black" d="M231,-129C231,-129 201,-129 201,-129 195,-129 189,-123 189,-117 189,-117 189,-105 189,-105 189,-99 195,-93 201,-93 201,-93 231,-93 231,-93 237,-93 243,-99 243,-105 243,-105 243,-117 243,-117 243,-123 237,-129 231,-129"/>
<polygon fill="lightblue" stroke="transparent" points="200,-101 200,-120 210,-120 210,-101 200,-101"/>
<text text-anchor="start" x="214" y="-106.8" font-family="Arial" font-size="14.00">A1</text>
</g>
<!-- N0&#45;&gt;A1 -->
<g id="edge3" class="edge">
<title>N0&#45;&gt;A1</title>
<path fill="none" stroke="black" d="M145.36,-124.97C151.13,-123.17 157.24,-121.41 163,-120 168.1,-118.75 173.52,-117.61 178.86,-116.6"/>
<polygon fill="black" stroke="black" points="179.71,-120 188.93,-114.79 178.47,-113.11 179.71,-120"/>
<text text-anchor="middle" x="167" y="-123.8" font-family="Arial" font-size="14.00">a</text>
</g>
<!-- N2 -->
<g id="node4" class="node">
<title>N2</title>
<path fill="none" stroke="black" d="M609,-175C609,-175 579,-175 579,-175 573,-175 567,-169 567,-163 567,-163 567,-151 567,-151 567,-145 573,-139 579,-139 579,-139 609,-139 609,-139 615,-139 621,-145 621,-151 621,-151 621,-163 621,-163 621,-169 615,-175 609,-175"/>
<text text-anchor="middle" x="594" y="-153.3" font-family="Arial" font-size="14.00">N2</text>
</g>
<!-- N1&#45;&gt;N2 -->
<g id="edge4" class="edge">
<title>N1&#45;&gt;N2</title>
<path fill="none" stroke="black" d="M315.18,-157C369.5,-157 494.56,-157 556.65,-157"/>
<polygon fill="black" stroke="black" points="556.77,-160.5 566.77,-157 556.77,-153.5 556.77,-160.5"/>
<text text-anchor="middle" x="437" y="-160.8" font-family="Arial" font-size="14.00">a</text>
</g>
<!-- N2&#45;&gt;N2 -->
<g id="edge5" class="edge">
<title>N2&#45;&gt;N2</title>
<path fill="none" stroke="black" d="M583.51,-175.15C581.89,-184.54 585.39,-193 594,-193 599.25,-193 602.59,-189.86 604.04,-185.28"/>
<polygon fill="black" stroke="black" points="607.55,-185.3 604.49,-175.15 600.55,-184.99 607.55,-185.3"/>
<text text-anchor="middle" x="594" y="-196.8" font-family="Arial" font-size="14.00">a</text>
</g>
<!-- N3 -->
<g id="node5" class="node">
<title>N3</title>
<path fill="none" stroke="black" d="M731,-178C731,-178 701,-178 701,-178 695,-178 689,-172 689,-166 689,-166 689,-154 689,-154 689,-148 695,-142 701,-142 701,-142 731,-142 731,-142 737,-142 743,-148 743,-154 743,-154 743,-166 743,-166 743,-172 737,-178 731,-178"/>
<text text-anchor="middle" x="716" y="-156.3" font-family="Arial" font-size="14.00">N3</text>
</g>
<!-- N2&#45;&gt;N3 -->
<g id="edge6" class="edge">
<title>N2&#45;&gt;N3</title>
<path fill="none" stroke="black" d="M621.04,-157.65C637.83,-158.07 659.91,-158.62 678.44,-159.09"/>
<polygon fill="black" stroke="black" points="678.51,-162.59 688.6,-159.34 678.69,-155.59 678.51,-162.59"/>
<text text-anchor="middle" x="653" y="-161.8" font-family="Arial" font-size="14.00">a</text>
</g>
<!-- A2_R -->
<g id="node7" class="node">
<title>A2_R</title>
<path fill="none" stroke="black" d="M403,-109C403,-109 345,-109 345,-109 339,-109 333,-103 333,-97 333,-97 333,-85 333,-85 333,-79 339,-73 345,-73 345,-73 403,-73 403,-73 409,-73 415,-79 415,-85 415,-85 415,-97 415,-97 415,-103 409,-109 403,-109"/>
<polygon fill="darkblue" stroke="transparent" points="343,-81 343,-100 353,-100 353,-81 343,-81"/>
<polygon fill="lightblue" stroke="transparent" points="355,-81 355,-100 365,-100 365,-81 355,-81"/>
<text text-anchor="start" x="369" y="-86.8" font-family="Arial" font-size="14.00">A2_R</text>
</g>
<!-- A1&#45;&gt;A2_R -->
<g id="edge7" class="edge">
<title>A1&#45;&gt;A2_R</title>
<path fill="none" stroke="black" d="M243.11,-107.65C264.7,-104.88 296.01,-100.87 322.47,-97.48"/>
<polygon fill="black" stroke="black" points="323.25,-100.91 332.72,-96.16 322.36,-93.96 323.25,-100.91"/>
<text text-anchor="middle" x="288" y="-109.8" font-family="Arial" font-size="14.00">a</text>
</g>
<!-- A2_R&#45;&gt;A1 -->
<g id="edge8" class="edge">
<title>A2_R&#45;&gt;A1</title>
<path fill="none" stroke="black" d="M332.8,-79.4C311.09,-75.03 284.1,-72.68 261,-80 255.66,-81.69 250.4,-84.3 245.48,-87.29"/>
<polygon fill="black" stroke="black" points="243.38,-84.48 237.06,-92.98 247.3,-90.28 243.38,-84.48"/>
<text text-anchor="middle" x="288" y="-83.8" font-family="Arial" font-size="14.00">a</text>
</g>
<!-- A3 -->
<g id="node8" class="node">
<title>A3</title>
<path fill="none" stroke="black" d="M501,-109C501,-109 471,-109 471,-109 465,-109 459,-103 459,-97 459,-97 459,-85 459,-85 459,-79 465,-73 471,-73 471,-73 501,-73 501,-73 507,-73 513,-79 513,-85 513,-85 513,-97 513,-97 513,-103 507,-109 501,-109"/>
<polygon fill="lightblue" stroke="transparent" points="470,-81 470,-100 480,-100 480,-81 470,-81"/>
<text text-anchor="start" x="484" y="-86.8" font-family="Arial" font-size="14.00">A3</text>
</g>
<!-- A2_R&#45;&gt;A3 -->
<g id="edge9" class="edge">
<title>A2_R&#45;&gt;A3</title>
<path fill="none" stroke="black" d="M415.02,-91C425.99,-91 437.81,-91 448.57,-91"/>
<polygon fill="black" stroke="black" points="448.89,-94.5 458.89,-91 448.89,-87.5 448.89,-94.5"/>
<text text-anchor="middle" x="437" y="-94.8" font-family="Arial" font-size="14.00">a</text>
</g>
<!-- A3&#45;&gt;N2 -->
<g id="edge10" class="edge">
<title>A3&#45;&gt;N2</title>
<path fill="none" stroke="black" d="M513.2,-107.31C526.71,-115.72 543.36,-126.09 557.96,-135.18"/>
<polygon fill="black" stroke="black" points="556.39,-138.33 566.73,-140.64 560.09,-132.39 556.39,-138.33"/>
<text text-anchor="middle" x="535" y="-125.8" font-family="Arial" font-size="14.00">a</text>
</g>
<!-- AB4 -->
<g id="node9" class="node">
<title>AB4</title>
<path fill="none" stroke="black" d="M619,-91C619,-91 569,-91 569,-91 563,-91 557,-85 557,-79 557,-79 557,-67 557,-67 557,-61 563,-55 569,-55 569,-55 619,-55 619,-55 625,-55 631,-61 631,-67 631,-67 631,-79 631,-79 631,-85 625,-91 619,-91"/>
<polygon fill="lightblue" stroke="transparent" points="567,-63 567,-82 577,-82 577,-63 567,-63"/>
<polygon fill="#ffcc80" stroke="transparent" points="579,-63 579,-82 589,-82 589,-63 579,-63"/>
<text text-anchor="start" x="593" y="-68.8" font-family="Arial" font-size="14.00">AB4</text>
</g>
<!-- A3&#45;&gt;AB4 -->
<g id="edge11" class="edge">
<title>A3&#45;&gt;AB4</title>
<path fill="none" stroke="black" d="M513.2,-86.55C523.35,-84.83 535.28,-82.8 546.77,-80.85"/>
<polygon fill="black" stroke="black" points="547.43,-84.29 556.7,-79.16 546.26,-77.39 547.43,-84.29"/>
<text text-anchor="middle" x="535" y="-87.8" font-family="Arial" font-size="14.00">a</text>
</g>
<!-- A5 -->
<g id="node10" class="node">
<title>A5</title>
<path fill="none" stroke="black" d="M731,-124C731,-124 701,-124 701,-124 695,-124 689,-118 689,-112 689,-112 689,-100 689,-100 689,-94 695,-88 701,-88 701,-88 731,-88 731,-88 737,-88 743,-94 743,-100 743,-100 743,-112 743,-112 743,-118 737,-124 731,-124"/>
<polygon fill="lightblue" stroke="transparent" points="700,-96 700,-115 710,-115 710,-96 700,-96"/>
<text text-anchor="start" x="714" y="-101.8" font-family="Arial" font-size="14.00">A5</text>
</g>
<!-- AB4&#45;&gt;A5 -->
<g id="edge12" class="edge">
<title>AB4&#45;&gt;A5</title>
<path fill="none" stroke="black" d="M631,-82.9C646.15,-87.07 663.74,-91.9 678.89,-96.07"/>
<polygon fill="black" stroke="black" points="678.37,-99.56 688.94,-98.83 680.22,-92.81 678.37,-99.56"/>
<text text-anchor="middle" x="653" y="-93.8" font-family="Arial" font-size="14.00">a</text>
</g>
<!-- B2_R -->
<g id="node12" class="node">
<title>B2_R</title>
<path fill="none" stroke="black" d="M745,-66C745,-66 687,-66 687,-66 681,-66 675,-60 675,-54 675,-54 675,-42 675,-42 675,-36 681,-30 687,-30 687,-30 745,-30 745,-30 751,-30 757,-36 757,-42 757,-42 757,-54 757,-54 757,-60 751,-66 745,-66"/>
<polygon fill="#ff9900" stroke="transparent" points="685,-38 685,-57 695,-57 695,-38 685,-38"/>
<polygon fill="#ffcc80" stroke="transparent" points="697,-38 697,-57 707,-57 707,-38 697,-38"/>
<text text-anchor="start" x="711" y="-43.8" font-family="Arial" font-size="14.00">B2_R</text>
</g>
<!-- AB4&#45;&gt;B2_R -->
<g id="edge13" class="edge">
<title>AB4&#45;&gt;B2_R</title>
<path fill="none" stroke="black" d="M631,-65.5C641.68,-63.27 653.58,-60.8 664.98,-58.42"/>
<polygon fill="black" stroke="black" points="665.75,-61.84 674.82,-56.37 664.32,-54.98 665.75,-61.84"/>
<text text-anchor="middle" x="653" y="-65.8" font-family="Arial" font-size="14.00">a</text>
</g>
<!-- A6 -->
<g id="node11" class="node">
<title>A6</title>
<path fill="none" stroke="black" d="M843,-131C843,-131 813,-131 813,-131 807,-131 801,-125 801,-119 801,-119 801,-107 801,-107 801,-101 807,-95 813,-95 813,-95 843,-95 843,-95 849,-95 855,-101 855,-107 855,-107 855,-119 855,-119 855,-125 849,-131 843,-131"/>
<polygon fill="lightblue" stroke="transparent" points="812,-103 812,-122 822,-122 822,-103 812,-103"/>
<text text-anchor="start" x="826" y="-108.8" font-family="Arial" font-size="14.00">A6</text>
</g>
<!-- A5&#45;&gt;A6 -->
<g id="edge14" class="edge">
<title>A5&#45;&gt;A6</title>
<path fill="none" stroke="black" d="M743.27,-107.87C753.21,-108.57 764.62,-109.34 775,-110 780.11,-110.32 785.51,-110.65 790.82,-110.97"/>
<polygon fill="black" stroke="black" points="790.62,-114.46 800.81,-111.55 791.03,-107.47 790.62,-114.46"/>
<text text-anchor="middle" x="779" y="-114.8" font-family="Arial" font-size="14.00">a</text>
</g>
<!-- A6&#45;&gt;A5 -->
<g id="edge15" class="edge">
<title>A6&#45;&gt;A5</title>
<path fill="none" stroke="black" d="M800.76,-97.43C795.08,-94.77 788.98,-92.41 783,-91 773.24,-88.7 762.65,-89.6 752.87,-91.82"/>
<polygon fill="black" stroke="black" points="751.75,-88.5 743.04,-94.54 753.61,-95.24 751.75,-88.5"/>
<text text-anchor="middle" x="779" y="-94.8" font-family="Arial" font-size="14.00">a</text>
</g>
<!-- B2_R&#45;&gt;AB4 -->
<g id="edge16" class="edge">
<title>B2_R&#45;&gt;AB4</title>
<path fill="none" stroke="black" d="M674.83,-39.89C666.21,-39.38 657.23,-39.81 649,-42 642.26,-43.8 635.49,-46.66 629.13,-49.93"/>
<polygon fill="black" stroke="black" points="627.18,-47.01 620.16,-54.94 630.6,-53.12 627.18,-47.01"/>
<text text-anchor="middle" x="653" y="-45.8" font-family="Arial" font-size="14.00">a</text>
</g>
<!-- B3 -->
<g id="node13" class="node">
<title>B3</title>
<path fill="none" stroke="black" d="M843,-66C843,-66 813,-66 813,-66 807,-66 801,-60 801,-54 801,-54 801,-42 801,-42 801,-36 807,-30 813,-30 813,-30 843,-30 843,-30 849,-30 855,-36 855,-42 855,-42 855,-54 855,-54 855,-60 849,-66 843,-66"/>
<polygon fill="#ffcc80" stroke="transparent" points="812,-38 812,-57 822,-57 822,-38 812,-38"/>
<text text-anchor="start" x="826" y="-43.8" font-family="Arial" font-size="14.00">B3</text>
</g>
<!-- B2_R&#45;&gt;B3 -->
<g id="edge17" class="edge">
<title>B2_R&#45;&gt;B3</title>
<path fill="none" stroke="black" d="M757.02,-48C767.99,-48 779.81,-48 790.57,-48"/>
<polygon fill="black" stroke="black" points="790.89,-51.5 800.89,-48 790.89,-44.5 790.89,-51.5"/>
<text text-anchor="middle" x="779" y="-51.8" font-family="Arial" font-size="14.00">a</text>
</g>
<!-- B4 -->
<g id="node14" class="node">
<title>B4</title>
<path fill="none" stroke="black" d="M941,-36C941,-36 911,-36 911,-36 905,-36 899,-30 899,-24 899,-24 899,-12 899,-12 899,-6 905,0 911,0 911,0 941,0 941,0 947,0 953,-6 953,-12 953,-12 953,-24 953,-24 953,-30 947,-36 941,-36"/>
<polygon fill="#ffcc80" stroke="transparent" points="910,-8 910,-27 920,-27 920,-8 910,-8"/>
<text text-anchor="start" x="924" y="-13.8" font-family="Arial" font-size="14.00">B4</text>
</g>
<!-- B3&#45;&gt;B4 -->
<g id="edge18" class="edge">
<title>B3&#45;&gt;B4</title>
<path fill="none" stroke="black" d="M855.23,-39.8C865.71,-36.53 877.94,-32.71 889.21,-29.18"/>
<polygon fill="black" stroke="black" points="890.3,-32.51 898.8,-26.19 888.21,-25.83 890.3,-32.51"/>
<text text-anchor="middle" x="877" y="-37.8" font-family="Arial" font-size="14.00">a</text>
</g>
<!-- B4&#45;&gt;AB4 -->
<g id="edge19" class="edge">
<title>B4&#45;&gt;AB4</title>
<path fill="none" stroke="black" d="M898.78,-13.82C852.51,-7.42 753.8,1.82 675,-21 656.25,-26.43 637.8,-37.88 623.36,-48.66"/>
<polygon fill="black" stroke="black" points="621.1,-45.98 615.35,-54.88 625.39,-51.51 621.1,-45.98"/>
<text text-anchor="middle" x="779" y="-10.8" font-family="Arial" font-size="14.00">a</text>
</g>
</g>
</svg>
