<?xml version="1.0" encoding="UTF-8" standalone="no"?>
<!DOCTYPE svg PUBLIC "-//W3C//DTD SVG 1.1//EN"
 "http://www.w3.org/Graphics/SVG/1.1/DTD/svg11.dtd">
<!-- Generated by graphviz version 12.2.1 (20241206.2353)
 -->
<!-- Title: G Pages: 1 -->
<svg width="178pt" height="56pt"
 viewBox="0.00 0.00 177.72 56.25" xmlns="http://www.w3.org/2000/svg" xmlns:xlink="http://www.w3.org/1999/xlink">
<g id="graph0" class="graph" transform="scale(1 1) rotate(0) translate(4 52.25)">
<title>G</title>
<!-- dot_dummyinit_1 -->
<g id="node1" class="node">
<title>dot_dummyinit_1</title>
</g>
<!-- s1 -->
<g id="node2" class="node">
<title>s1</title>
<ellipse fill="none" stroke="black" cx="57.85" cy="-24.13" rx="20.13" ry="20.13"/>
<text text-anchor="middle" x="57.85" y="-18.7" font-family="Arial" font-size="14.00">s1</text>
</g>
<!-- dot_dummyinit_1&#45;&gt;s1 -->
<g id="edge1" class="edge">
<title>dot_dummyinit_1&#45;&gt;s1</title>
<path fill="none" stroke="black" d="M0.88,-24.13C2.37,-24.13 13.93,-24.13 26.15,-24.13"/>
<polygon fill="black" stroke="black" points="25.79,-27.63 35.79,-24.13 25.79,-20.63 25.79,-27.63"/>
</g>
<!-- s2 -->
<g id="node3" class="node">
<title>s2</title>
<ellipse fill="none" stroke="black" cx="145.6" cy="-24.13" rx="20.13" ry="20.13"/>
<ellipse fill="none" stroke="black" cx="145.6" cy="-24.13" rx="24.13" ry="24.13"/>
<text text-anchor="middle" x="145.6" y="-18.7" font-family="Arial" font-size="14.00">s2</text>
</g>
<!-- s1&#45;&gt;s2 -->
<g id="edge2" class="edge">
<title>s1&#45;&gt;s2</title>
<path fill="none" stroke="black" d="M78.3,-24.13C87.67,-24.13 99.18,-24.13 109.97,-24.13"/>
<polygon fill="black" stroke="black" points="109.74,-27.63 119.74,-24.13 109.74,-20.63 109.74,-27.63"/>
<text text-anchor="middle" x="99.72" y="-26.58" font-family="Arial" font-size="14.00">a</text>
</g>
<!-- s2&#45;&gt;s1 -->
<g id="edge3" class="edge">
<title>s2&#45;&gt;s1</title>
<path fill="none" stroke="black" d="M125.62,-10.32C116.8,-5.5 106.05,-1.86 95.97,-4.38 92.36,-5.28 88.71,-6.6 85.19,-8.15"/>
<polygon fill="black" stroke="black" points="83.83,-4.91 76.49,-12.56 87,-11.16 83.83,-4.91"/>
<text text-anchor="middle" x="99.72" y="-6.83" font-family="Arial" font-size="14.00">b</text>
</g>
</g>
</svg>
