<?xml version="1.0" encoding="UTF-8" standalone="no"?>
<!DOCTYPE svg PUBLIC "-//W3C//DTD SVG 1.1//EN"
 "http://www.w3.org/Graphics/SVG/1.1/DTD/svg11.dtd">
<!-- Generated by graphviz version 12.2.1 (20241206.2353)
 -->
<!-- Title: SupConCmpl(A&#45;B&#45;Machine, PrefixClosure(A&#45;B&#45;Spec&#45;Keep&#45;Running.x.A&#45;B&#45;Machine)) [minstate] Pages: 1 -->
<svg width="279pt" height="52pt"
 viewBox="0.00 0.00 278.72 52.00" xmlns="http://www.w3.org/2000/svg" xmlns:xlink="http://www.w3.org/1999/xlink">
<g id="graph0" class="graph" transform="scale(1 1) rotate(0) translate(4 48)">
<title>SupConCmpl(A&#45;B&#45;Machine, PrefixClosure(A&#45;B&#45;Spec&#45;Keep&#45;Running.x.A&#45;B&#45;Machine)) [minstate]</title>
<!-- dot_dummyinit_1 -->
<g id="node1" class="node">
<title>dot_dummyinit_1</title>
</g>
<!-- 1 -->
<g id="node2" class="node">
<title>1</title>
<ellipse fill="none" stroke="black" cx="59.72" cy="-22" rx="18" ry="18"/>
<ellipse fill="none" stroke="black" cx="59.72" cy="-22" rx="22" ry="22"/>
<text text-anchor="middle" x="59.72" y="-16.57" font-family="Arial" font-size="14.00">1</text>
</g>
<!-- dot_dummyinit_1&#45;&gt;1 -->
<g id="edge1" class="edge">
<title>dot_dummyinit_1&#45;&gt;1</title>
<path fill="none" stroke="black" d="M0.89,-22C2.38,-22 13.74,-22 26,-22"/>
<polygon fill="black" stroke="black" points="25.74,-25.5 35.74,-22 25.74,-18.5 25.74,-25.5"/>
</g>
<!-- 3 -->
<g id="node4" class="node">
<title>3</title>
<ellipse fill="none" stroke="black" cx="158.22" cy="-22" rx="18" ry="18"/>
<text text-anchor="middle" x="158.22" y="-16.57" font-family="Arial" font-size="14.00">3</text>
</g>
<!-- 1&#45;&gt;3 -->
<g id="edge2" class="edge">
<title>1&#45;&gt;3</title>
<path fill="none" stroke="black" d="M82.14,-22C95.81,-22 113.69,-22 128.57,-22"/>
<polygon fill="black" stroke="black" points="128.22,-25.5 138.22,-22 128.22,-18.5 128.22,-25.5"/>
<text text-anchor="middle" x="110.97" y="-24.45" font-family="Arial" font-size="14.00">a, b</text>
</g>
<!-- 2 -->
<g id="node3" class="node">
<title>2</title>
<ellipse fill="none" stroke="black" cx="252.72" cy="-22" rx="18" ry="18"/>
<text text-anchor="middle" x="252.72" y="-16.57" font-family="Arial" font-size="14.00">2</text>
</g>
<!-- 2&#45;&gt;3 -->
<g id="edge3" class="edge">
<title>2&#45;&gt;3</title>
<path fill="none" stroke="black" d="M236.99,-12.59C230.95,-9.26 223.74,-5.93 216.72,-4.25 206.99,-1.92 203.95,-1.92 194.22,-4.25 190.82,-5.06 187.37,-6.26 184.04,-7.67"/>
<polygon fill="black" stroke="black" points="182.76,-4.39 175.31,-11.92 185.83,-10.68 182.76,-4.39"/>
<text text-anchor="middle" x="205.47" y="-6.7" font-family="Arial" font-size="14.00">a, b</text>
</g>
<!-- 3&#45;&gt;1 -->
<g id="edge4" class="edge">
<title>3&#45;&gt;1</title>
<path fill="none" stroke="black" d="M142.96,-11.75C136.88,-7.98 129.51,-4.16 122.22,-2.25 112.55,0.29 109.45,0.07 99.72,-2.25 96.1,-3.11 92.44,-4.37 88.89,-5.84"/>
<polygon fill="black" stroke="black" points="87.58,-2.58 80.05,-10.04 90.58,-8.91 87.58,-2.58"/>
<text text-anchor="middle" x="110.97" y="-4.7" font-family="Arial" font-size="14.00">c</text>
</g>
<!-- 3&#45;&gt;2 -->
<g id="edge5" class="edge">
<title>3&#45;&gt;2</title>
<path fill="none" stroke="black" d="M176.62,-22C189.67,-22 207.82,-22 223.01,-22"/>
<polygon fill="black" stroke="black" points="222.89,-25.5 232.89,-22 222.89,-18.5 222.89,-25.5"/>
<text text-anchor="middle" x="205.47" y="-24.45" font-family="Arial" font-size="14.00">d</text>
</g>
</g>
</svg>
