<?xml version="1.0" encoding="UTF-8" standalone="no"?>
<!DOCTYPE svg PUBLIC "-//W3C//DTD SVG 1.1//EN"
 "http://www.w3.org/Graphics/SVG/1.1/DTD/svg11.dtd">
<!-- Generated by graphviz version 12.2.1 (20241206.2353)
 -->
<!-- Title: low spec 3 Pages: 1 -->
<svg width="406pt" height="77pt"
 viewBox="0.00 0.00 406.47 76.66" xmlns="http://www.w3.org/2000/svg" xmlns:xlink="http://www.w3.org/1999/xlink">
<g id="graph0" class="graph" transform="scale(1 1) rotate(0) translate(4 72.66)">
<title>low spec 3</title>
<!-- dot_dummyinit_1 -->
<g id="node1" class="node">
<title>dot_dummyinit_1</title>
</g>
<!-- IA -->
<g id="node2" class="node">
<title>IA</title>
<path fill="none" stroke="black" d="M79.72,-36C79.72,-36 49.72,-36 49.72,-36 43.72,-36 37.72,-30 37.72,-24 37.72,-24 37.72,-12 37.72,-12 37.72,-6 43.72,0 49.72,0 49.72,0 79.72,0 79.72,0 85.72,0 91.72,-6 91.72,-12 91.72,-12 91.72,-24 91.72,-24 91.72,-30 85.72,-36 79.72,-36"/>
<text text-anchor="middle" x="64.72" y="-12.57" font-family="Arial" font-size="14.00">IA</text>
</g>
<!-- dot_dummyinit_1&#45;&gt;IA -->
<g id="edge1" class="edge">
<title>dot_dummyinit_1&#45;&gt;IA</title>
<path fill="none" stroke="black" d="M0.77,-18C1.57,-18 12.96,-18 25.83,-18"/>
<polygon fill="black" stroke="black" points="25.79,-21.5 35.79,-18 25.79,-14.5 25.79,-21.5"/>
</g>
<!-- A -->
<g id="node3" class="node">
<title>A</title>
<path fill="none" stroke="black" d="M177.22,-66C177.22,-66 147.22,-66 147.22,-66 141.22,-66 135.22,-60 135.22,-54 135.22,-54 135.22,-42 135.22,-42 135.22,-36 141.22,-30 147.22,-30 147.22,-30 177.22,-30 177.22,-30 183.22,-30 189.22,-36 189.22,-42 189.22,-42 189.22,-54 189.22,-54 189.22,-60 183.22,-66 177.22,-66"/>
<text text-anchor="middle" x="162.22" y="-42.58" font-family="Arial" font-size="14.00">A</text>
</g>
<!-- IA&#45;&gt;A -->
<g id="edge2" class="edge">
<title>IA&#45;&gt;A</title>
<path fill="none" stroke="black" d="M92.07,-26.28C101.98,-29.39 113.45,-32.99 124.17,-36.36"/>
<polygon fill="black" stroke="black" points="122.92,-39.64 133.51,-39.3 125.02,-32.96 122.92,-39.64"/>
<text text-anchor="middle" x="113.47" y="-36.35" font-family="Arial" font-size="14.00">a</text>
</g>
<!-- IB -->
<g id="node4" class="node">
<title>IB</title>
<path fill="none" stroke="black" d="M288.97,-66C288.97,-66 258.97,-66 258.97,-66 252.97,-66 246.97,-60 246.97,-54 246.97,-54 246.97,-42 246.97,-42 246.97,-36 252.97,-30 258.97,-30 258.97,-30 288.97,-30 288.97,-30 294.97,-30 300.97,-36 300.97,-42 300.97,-42 300.97,-54 300.97,-54 300.97,-60 294.97,-66 288.97,-66"/>
<text text-anchor="middle" x="273.97" y="-42.58" font-family="Arial" font-size="14.00">IB</text>
</g>
<!-- A&#45;&gt;IB -->
<g id="edge3" class="edge">
<title>A&#45;&gt;IB</title>
<path fill="none" stroke="black" d="M189.51,-48C203.25,-48 220.32,-48 235.43,-48"/>
<polygon fill="black" stroke="black" points="235,-51.5 245,-48 235,-44.5 235,-51.5"/>
<text text-anchor="middle" x="218.1" y="-50.45" font-family="Arial" font-size="14.00">c, d</text>
</g>
<!-- B -->
<g id="node5" class="node">
<title>B</title>
<path fill="none" stroke="black" d="M386.47,-53C386.47,-53 356.47,-53 356.47,-53 350.47,-53 344.47,-47 344.47,-41 344.47,-41 344.47,-29 344.47,-29 344.47,-23 350.47,-17 356.47,-17 356.47,-17 386.47,-17 386.47,-17 392.47,-17 398.47,-23 398.47,-29 398.47,-29 398.47,-41 398.47,-41 398.47,-47 392.47,-53 386.47,-53"/>
<text text-anchor="middle" x="371.47" y="-29.57" font-family="Arial" font-size="14.00">B</text>
</g>
<!-- IB&#45;&gt;B -->
<g id="edge4" class="edge">
<title>IB&#45;&gt;B</title>
<path fill="none" stroke="black" d="M301.31,-52.68C309.43,-53.42 318.36,-53.51 326.47,-52 328.8,-51.57 331.16,-51.01 333.52,-50.37"/>
<polygon fill="black" stroke="black" points="334.52,-53.73 342.97,-47.34 332.37,-47.07 334.52,-53.73"/>
<text text-anchor="middle" x="322.72" y="-55.36" font-family="Arial" font-size="14.00">b</text>
</g>
<!-- B&#45;&gt;IA -->
<g id="edge5" class="edge">
<title>B&#45;&gt;IA</title>
<path fill="none" stroke="black" d="M344.25,-28.52C331.31,-25.63 315.41,-22.53 300.97,-21 231.47,-13.62 149.78,-14.77 103.25,-16.34"/>
<polygon fill="black" stroke="black" points="103.3,-12.83 93.44,-16.7 103.56,-19.83 103.3,-12.83"/>
<text text-anchor="middle" x="218.1" y="-18.52" font-family="Arial" font-size="14.00">c</text>
</g>
<!-- B&#45;&gt;IB -->
<g id="edge6" class="edge">
<title>B&#45;&gt;IB</title>
<path fill="none" stroke="black" d="M344.14,-31.33C336.02,-30.8 327.09,-30.84 318.97,-32.25 316.66,-32.65 314.31,-33.16 311.96,-33.75"/>
<polygon fill="black" stroke="black" points="311.13,-30.35 302.55,-36.56 313.13,-37.06 311.13,-30.35"/>
<text text-anchor="middle" x="322.72" y="-34.7" font-family="Arial" font-size="14.00">d</text>
</g>
</g>
</svg>
