<?xml version="1.0" encoding="UTF-8" standalone="no"?>
<!DOCTYPE svg PUBLIC "-//W3C//DTD SVG 1.1//EN"
 "http://www.w3.org/Graphics/SVG/1.1/DTD/svg11.dtd">
<!-- Generated by graphviz version 12.2.1 (20241206.2353)
 -->
<!-- Title: wSpec2 Pages: 1 -->
<svg width="615pt" height="395pt"
 viewBox="0.00 0.00 615.19 395.12" xmlns="http://www.w3.org/2000/svg" xmlns:xlink="http://www.w3.org/1999/xlink">
<g id="graph0" class="graph" transform="scale(1 1) rotate(0) translate(4 391.12)">
<title>wSpec2</title>
<!-- dot_dummyinit_1 -->
<g id="node1" class="node">
<title>dot_dummyinit_1</title>
</g>
<!-- N -->
<g id="node2" class="node">
<title>N</title>
<ellipse fill="none" stroke="black" cx="55.72" cy="-219" rx="18" ry="18"/>
<text text-anchor="middle" x="55.72" y="-213.57" font-family="Arial" font-size="14.00">N</text>
</g>
<!-- dot_dummyinit_1&#45;&gt;N -->
<g id="edge1" class="edge">
<title>dot_dummyinit_1&#45;&gt;N</title>
<path fill="none" stroke="black" d="M0.87,-219C2.34,-219 13.93,-219 25.99,-219"/>
<polygon fill="black" stroke="black" points="25.86,-222.5 35.86,-219 25.86,-215.5 25.86,-222.5"/>
</g>
<!-- N&#45;&gt;N -->
<g id="edge2" class="edge">
<title>N&#45;&gt;N</title>
<path fill="none" stroke="black" d="M52.42,-237.15C51.91,-246.54 53.01,-255 55.72,-255 57.2,-255 58.2,-252.47 58.72,-248.64"/>
<polygon fill="black" stroke="black" points="62.22,-248.75 58.98,-238.67 55.22,-248.57 62.22,-248.75"/>
<text text-anchor="middle" x="55.72" y="-257.45" font-family="Arial" font-size="14.00">a</text>
</g>
<!-- N&#45;&gt;N -->
<g id="edge3" class="edge">
<title>N&#45;&gt;N</title>
<path fill="none" stroke="black" d="M50.33,-236.42C47.26,-253.79 49.05,-273 55.72,-273 60.98,-273 63.21,-261.04 62.4,-247.46"/>
<polygon fill="black" stroke="black" points="65.93,-247.45 61.29,-237.92 58.97,-248.26 65.93,-247.45"/>
<text text-anchor="middle" x="55.72" y="-275.45" font-family="Arial" font-size="14.00">b</text>
</g>
<!-- C1 -->
<g id="node5" class="node">
<title>C1</title>
<ellipse fill="none" stroke="black" cx="138.59" cy="-87" rx="22.12" ry="22.12"/>
<text text-anchor="middle" x="138.59" y="-81.58" font-family="Arial" font-size="14.00">C1</text>
</g>
<!-- N&#45;&gt;C1 -->
<g id="edge4" class="edge">
<title>N&#45;&gt;C1</title>
<path fill="none" stroke="black" d="M66,-203.86C79.17,-182.36 103.53,-142.6 120.14,-115.48"/>
<polygon fill="black" stroke="black" points="123.06,-117.42 125.3,-107.07 117.09,-113.77 123.06,-117.42"/>
<text text-anchor="middle" x="95.1" y="-163.35" font-family="Arial" font-size="14.00">c</text>
</g>
<!-- D1 -->
<g id="node7" class="node">
<title>D1</title>
<ellipse fill="none" stroke="black" cx="406.07" cy="-230" rx="22.12" ry="22.12"/>
<text text-anchor="middle" x="406.07" y="-224.57" font-family="Arial" font-size="14.00">D1</text>
</g>
<!-- N&#45;&gt;D1 -->
<g id="edge5" class="edge">
<title>N&#45;&gt;D1</title>
<path fill="none" stroke="black" d="M62.63,-236.06C73.14,-262.91 97.79,-312 137.59,-312 137.59,-312 137.59,-312 319.33,-312 350.69,-312 375.08,-283 389.69,-259.49"/>
<polygon fill="black" stroke="black" points="392.54,-261.55 394.58,-251.16 386.5,-258.01 392.54,-261.55"/>
<text text-anchor="middle" x="230.34" y="-314.45" font-family="Arial" font-size="14.00">d</text>
</g>
<!-- C2 -->
<g id="node3" class="node">
<title>C2</title>
<ellipse fill="none" stroke="black" cx="230.34" cy="-124" rx="22.12" ry="22.12"/>
<ellipse fill="none" stroke="black" cx="230.34" cy="-124" rx="26.12" ry="26.12"/>
<text text-anchor="middle" x="230.34" y="-118.58" font-family="Arial" font-size="14.00">C2</text>
</g>
<!-- C2&#45;&gt;C2 -->
<g id="edge11" class="edge">
<title>C2&#45;&gt;C2</title>
<path fill="none" stroke="black" d="M226.04,-149.83C225.85,-159.82 227.28,-168.12 230.34,-168.12 232.1,-168.12 233.33,-165.35 234.01,-161.08"/>
<polygon fill="black" stroke="black" points="237.49,-161.52 234.55,-151.34 230.5,-161.13 237.49,-161.52"/>
<text text-anchor="middle" x="230.34" y="-170.57" font-family="Arial" font-size="14.00">a</text>
</g>
<!-- C2&#45;&gt;C2 -->
<g id="edge12" class="edge">
<title>C2&#45;&gt;C2</title>
<path fill="none" stroke="black" d="M222.69,-149.2C220.1,-167.64 222.66,-186.12 230.34,-186.12 236.46,-186.12 239.32,-174.39 238.92,-160.29"/>
<polygon fill="black" stroke="black" points="242.45,-160.38 238.12,-150.71 235.47,-160.97 242.45,-160.38"/>
<text text-anchor="middle" x="230.34" y="-188.57" font-family="Arial" font-size="14.00">b</text>
</g>
<!-- C3 -->
<g id="node6" class="node">
<title>C3</title>
<ellipse fill="none" stroke="black" cx="318.33" cy="-142" rx="22.12" ry="22.12"/>
<text text-anchor="middle" x="318.33" y="-136.57" font-family="Arial" font-size="14.00">C3</text>
</g>
<!-- C2&#45;&gt;C3 -->
<g id="edge14" class="edge">
<title>C2&#45;&gt;C3</title>
<path fill="none" stroke="black" d="M256.21,-129.21C265.24,-131.1 275.57,-133.26 285.14,-135.26"/>
<polygon fill="black" stroke="black" points="284.31,-138.66 294.81,-137.29 285.74,-131.81 284.31,-138.66"/>
<text text-anchor="middle" x="276.33" y="-135.99" font-family="Arial" font-size="14.00">f</text>
</g>
<!-- C2&#45;&gt;D1 -->
<g id="edge13" class="edge">
<title>C2&#45;&gt;D1</title>
<path fill="none" stroke="black" d="M237.29,-149.45C245.36,-177.52 262.79,-221.32 296.21,-241 319.98,-255 351.82,-249.58 374.92,-242.26"/>
<polygon fill="black" stroke="black" points="375.76,-245.67 384.06,-239.09 373.46,-239.06 375.76,-245.67"/>
<text text-anchor="middle" x="318.33" y="-252.15" font-family="Arial" font-size="14.00">d</text>
</g>
<!-- D2 -->
<g id="node4" class="node">
<title>D2</title>
<ellipse fill="none" stroke="black" cx="497.07" cy="-146" rx="22.12" ry="22.12"/>
<ellipse fill="none" stroke="black" cx="497.07" cy="-146" rx="26.12" ry="26.12"/>
<text text-anchor="middle" x="497.07" y="-140.57" font-family="Arial" font-size="14.00">D2</text>
</g>
<!-- D2&#45;&gt;D2 -->
<g id="edge24" class="edge">
<title>D2&#45;&gt;D2</title>
<path fill="none" stroke="black" d="M492.77,-171.83C492.58,-181.82 494.01,-190.12 497.07,-190.12 498.84,-190.12 500.06,-187.35 500.74,-183.08"/>
<polygon fill="black" stroke="black" points="504.22,-183.52 501.28,-173.34 497.23,-183.13 504.22,-183.52"/>
<text text-anchor="middle" x="497.07" y="-192.57" font-family="Arial" font-size="14.00">a</text>
</g>
<!-- D2&#45;&gt;D2 -->
<g id="edge25" class="edge">
<title>D2&#45;&gt;D2</title>
<path fill="none" stroke="black" d="M489.42,-171.2C486.84,-189.64 489.39,-208.12 497.07,-208.12 503.19,-208.12 506.05,-196.39 505.66,-182.29"/>
<polygon fill="black" stroke="black" points="509.18,-182.38 504.85,-172.71 502.2,-182.97 509.18,-182.38"/>
<text text-anchor="middle" x="497.07" y="-210.57" font-family="Arial" font-size="14.00">b</text>
</g>
<!-- D2&#45;&gt;C1 -->
<g id="edge26" class="edge">
<title>D2&#45;&gt;C1</title>
<path fill="none" stroke="black" d="M486.86,-121.54C473.94,-91.93 447.4,-46 407.07,-46 229.34,-46 229.34,-46 229.34,-46 206.57,-46 183.25,-57.05 166.09,-67.68"/>
<polygon fill="black" stroke="black" points="164.46,-64.56 158.02,-72.97 168.3,-70.42 164.46,-64.56"/>
<text text-anchor="middle" x="318.33" y="-48.45" font-family="Arial" font-size="14.00">c</text>
</g>
<!-- D3 -->
<g id="node8" class="node">
<title>D3</title>
<ellipse fill="none" stroke="black" cx="585.06" cy="-92" rx="22.12" ry="22.12"/>
<text text-anchor="middle" x="585.06" y="-86.58" font-family="Arial" font-size="14.00">D3</text>
</g>
<!-- D2&#45;&gt;D3 -->
<g id="edge27" class="edge">
<title>D2&#45;&gt;D3</title>
<path fill="none" stroke="black" d="M519.77,-132.37C530.89,-125.39 544.55,-116.82 556.41,-109.37"/>
<polygon fill="black" stroke="black" points="557.97,-112.52 564.58,-104.24 554.25,-106.59 557.97,-112.52"/>
<text text-anchor="middle" x="543.07" y="-119.83" font-family="Arial" font-size="14.00">f</text>
</g>
<!-- C1&#45;&gt;C2 -->
<g id="edge9" class="edge">
<title>C1&#45;&gt;C2</title>
<path fill="none" stroke="black" d="M159.51,-95.21C169.95,-99.51 183.03,-104.91 195.03,-109.86"/>
<polygon fill="black" stroke="black" points="193.68,-113.08 204.26,-113.66 196.34,-106.61 193.68,-113.08"/>
<text text-anchor="middle" x="182.46" y="-107.95" font-family="Arial" font-size="14.00">d</text>
</g>
<!-- C1&#45;&gt;C1 -->
<g id="edge6" class="edge">
<title>C1&#45;&gt;C1</title>
<path fill="none" stroke="black" d="M136.58,-109.28C136.41,-118.89 137.08,-127.12 138.59,-127.12 139.44,-127.12 140.02,-124.52 140.34,-120.53"/>
<polygon fill="black" stroke="black" points="143.84,-120.87 140.57,-110.79 136.84,-120.71 143.84,-120.87"/>
<text text-anchor="middle" x="138.59" y="-129.57" font-family="Arial" font-size="14.00">a</text>
</g>
<!-- C1&#45;&gt;C1 -->
<g id="edge7" class="edge">
<title>C1&#45;&gt;C1</title>
<path fill="none" stroke="black" d="M135.09,-109.07C133.69,-126.81 134.85,-145.12 138.59,-145.12 141.54,-145.12 142.89,-133.72 142.64,-120.19"/>
<polygon fill="black" stroke="black" points="146.15,-120.39 142.17,-110.58 139.16,-120.74 146.15,-120.39"/>
<text text-anchor="middle" x="138.59" y="-147.57" font-family="Arial" font-size="14.00">b</text>
</g>
<!-- C1&#45;&gt;C1 -->
<g id="edge8" class="edge">
<title>C1&#45;&gt;C1</title>
<path fill="none" stroke="black" d="M134.1,-108.82C130.91,-133.98 132.41,-163.12 138.59,-163.12 143.86,-163.12 145.72,-141.99 144.19,-120.18"/>
<polygon fill="black" stroke="black" points="147.69,-119.94 143.23,-110.33 140.72,-120.62 147.69,-119.94"/>
<text text-anchor="middle" x="138.59" y="-165.57" font-family="Arial" font-size="14.00">c</text>
</g>
<!-- C1&#45;&gt;C1 -->
<g id="edge10" class="edge">
<title>C1&#45;&gt;C1</title>
<path fill="none" stroke="black" d="M133.39,-108.74C128.15,-140.88 129.88,-181.12 138.59,-181.12 146.31,-181.12 148.55,-149.48 145.31,-119.91"/>
<polygon fill="black" stroke="black" points="148.81,-119.68 144,-110.24 141.87,-120.62 148.81,-119.68"/>
<text text-anchor="middle" x="138.59" y="-183.57" font-family="Arial" font-size="14.00">f</text>
</g>
<!-- C3&#45;&gt;D2 -->
<g id="edge17" class="edge">
<title>C3&#45;&gt;D2</title>
<path fill="none" stroke="black" d="M340.65,-142.48C370.01,-143.15 423.34,-144.35 459.24,-145.17"/>
<polygon fill="black" stroke="black" points="459.09,-148.66 469.17,-145.39 459.25,-141.67 459.09,-148.66"/>
<text text-anchor="middle" x="406.07" y="-146.91" font-family="Arial" font-size="14.00">c</text>
</g>
<!-- C3&#45;&gt;C3 -->
<g id="edge15" class="edge">
<title>C3&#45;&gt;C3</title>
<path fill="none" stroke="black" d="M314.44,-164.28C314.12,-173.89 315.42,-182.12 318.33,-182.12 319.97,-182.12 321.1,-179.52 321.71,-175.53"/>
<polygon fill="black" stroke="black" points="325.2,-175.94 322.15,-165.79 318.2,-175.62 325.2,-175.94"/>
<text text-anchor="middle" x="318.33" y="-184.57" font-family="Arial" font-size="14.00">a</text>
</g>
<!-- C3&#45;&gt;C3 -->
<g id="edge16" class="edge">
<title>C3&#45;&gt;C3</title>
<path fill="none" stroke="black" d="M311.66,-163.46C308.81,-181.39 311.03,-200.12 318.33,-200.12 324.09,-200.12 326.69,-188.46 326.13,-174.73"/>
<polygon fill="black" stroke="black" points="329.63,-174.57 325.15,-164.97 322.67,-175.27 329.63,-174.57"/>
<text text-anchor="middle" x="318.33" y="-202.57" font-family="Arial" font-size="14.00">b</text>
</g>
<!-- C3&#45;&gt;D1 -->
<g id="edge18" class="edge">
<title>C3&#45;&gt;D1</title>
<path fill="none" stroke="black" d="M334.27,-157.33C347.46,-170.87 366.92,-190.84 382.1,-206.42"/>
<polygon fill="black" stroke="black" points="379.48,-208.75 388.97,-213.47 384.49,-203.86 379.48,-208.75"/>
<text text-anchor="middle" x="362.2" y="-191.09" font-family="Arial" font-size="14.00">d</text>
</g>
<!-- D1&#45;&gt;D2 -->
<g id="edge21" class="edge">
<title>D1&#45;&gt;D2</title>
<path fill="none" stroke="black" d="M422.99,-214.98C435.89,-202.8 454.37,-185.36 469.51,-171.07"/>
<polygon fill="black" stroke="black" points="471.56,-173.95 476.43,-164.54 466.75,-168.86 471.56,-173.95"/>
<text text-anchor="middle" x="449.57" y="-195.48" font-family="Arial" font-size="14.00">c</text>
</g>
<!-- D1&#45;&gt;D1 -->
<g id="edge19" class="edge">
<title>D1&#45;&gt;D1</title>
<path fill="none" stroke="black" d="M404.06,-252.28C403.9,-261.89 404.57,-270.12 406.07,-270.12 406.92,-270.12 407.51,-267.52 407.83,-263.53"/>
<polygon fill="black" stroke="black" points="411.32,-263.87 408.05,-253.79 404.32,-263.71 411.32,-263.87"/>
<text text-anchor="middle" x="406.07" y="-272.57" font-family="Arial" font-size="14.00">a</text>
</g>
<!-- D1&#45;&gt;D1 -->
<g id="edge20" class="edge">
<title>D1&#45;&gt;D1</title>
<path fill="none" stroke="black" d="M402.57,-252.07C401.17,-269.81 402.34,-288.12 406.07,-288.12 409.02,-288.12 410.37,-276.72 410.12,-263.19"/>
<polygon fill="black" stroke="black" points="413.64,-263.39 409.65,-253.58 406.65,-263.74 413.64,-263.39"/>
<text text-anchor="middle" x="406.07" y="-290.57" font-family="Arial" font-size="14.00">b</text>
</g>
<!-- D1&#45;&gt;D1 -->
<g id="edge22" class="edge">
<title>D1&#45;&gt;D1</title>
<path fill="none" stroke="black" d="M401.58,-251.82C398.4,-276.98 399.89,-306.12 406.07,-306.12 411.34,-306.12 413.2,-284.99 411.68,-263.18"/>
<polygon fill="black" stroke="black" points="415.17,-262.94 410.71,-253.33 408.2,-263.62 415.17,-262.94"/>
<text text-anchor="middle" x="406.07" y="-308.57" font-family="Arial" font-size="14.00">d</text>
</g>
<!-- D1&#45;&gt;D1 -->
<g id="edge23" class="edge">
<title>D1&#45;&gt;D1</title>
<path fill="none" stroke="black" d="M400.87,-251.74C395.63,-283.88 397.37,-324.12 406.07,-324.12 413.8,-324.12 416.04,-292.48 412.79,-262.91"/>
<polygon fill="black" stroke="black" points="416.29,-262.68 411.48,-253.24 409.36,-263.62 416.29,-262.68"/>
<text text-anchor="middle" x="406.07" y="-326.57" font-family="Arial" font-size="14.00">f</text>
</g>
<!-- D3&#45;&gt;C2 -->
<g id="edge31" class="edge">
<title>D3&#45;&gt;C2</title>
<path fill="none" stroke="black" d="M562.51,-92C545.11,-92 520.02,-92 498.07,-92 317.33,-92 317.33,-92 317.33,-92 298.69,-92 279.13,-98.68 263.38,-105.94"/>
<polygon fill="black" stroke="black" points="261.92,-102.76 254.5,-110.32 265.02,-109.04 261.92,-102.76"/>
<text text-anchor="middle" x="406.07" y="-94.45" font-family="Arial" font-size="14.00">d</text>
</g>
<!-- D3&#45;&gt;C1 -->
<g id="edge30" class="edge">
<title>D3&#45;&gt;C1</title>
<path fill="none" stroke="black" d="M575.82,-71.58C563.36,-44.48 536.99,0 498.07,0 229.34,0 229.34,0 229.34,0 195.58,0 169.71,-32.13 154.61,-57.34"/>
<polygon fill="black" stroke="black" points="151.61,-55.52 149.73,-65.94 157.7,-58.97 151.61,-55.52"/>
<text text-anchor="middle" x="362.2" y="-2.45" font-family="Arial" font-size="14.00">c</text>
</g>
<!-- D3&#45;&gt;D3 -->
<g id="edge28" class="edge">
<title>D3&#45;&gt;D3</title>
<path fill="none" stroke="black" d="M581.17,-114.28C580.85,-123.89 582.15,-132.12 585.06,-132.12 586.7,-132.12 587.83,-129.52 588.44,-125.53"/>
<polygon fill="black" stroke="black" points="591.93,-125.94 588.89,-115.79 584.94,-125.62 591.93,-125.94"/>
<text text-anchor="middle" x="585.06" y="-134.57" font-family="Arial" font-size="14.00">a</text>
</g>
<!-- D3&#45;&gt;D3 -->
<g id="edge29" class="edge">
<title>D3&#45;&gt;D3</title>
<path fill="none" stroke="black" d="M578.39,-113.46C575.54,-131.39 577.76,-150.12 585.06,-150.12 590.82,-150.12 593.42,-138.46 592.86,-124.73"/>
<polygon fill="black" stroke="black" points="596.36,-124.57 591.89,-114.97 589.4,-125.27 596.36,-124.57"/>
<text text-anchor="middle" x="585.06" y="-152.57" font-family="Arial" font-size="14.00">b</text>
</g>
</g>
</svg>
