<?xml version="1.0" encoding="UTF-8" standalone="no"?>
<!DOCTYPE svg PUBLIC "-//W3C//DTD SVG 1.1//EN"
 "http://www.w3.org/Graphics/SVG/1.1/DTD/svg11.dtd">
<!-- Generated by graphviz version 2.43.0 (0)
 -->
<!-- Title: A&#45;B&#45;Machine&#45;B&#45;Breaks Pages: 1 -->
<svg width="522pt" height="106pt"
 viewBox="0.00 0.00 521.59 106.47" xmlns="http://www.w3.org/2000/svg" xmlns:xlink="http://www.w3.org/1999/xlink">
<g id="graph0" class="graph" transform="scale(1 1) rotate(0) translate(4 102.47)">
<title>A&#45;B&#45;Machine&#45;B&#45;Breaks</title>
<!-- dot_dummyinit_1 -->
<g id="node1" class="node">
<title>dot_dummyinit_1</title>
</g>
<!-- I -->
<g id="node2" class="node">
<title>I</title>
<ellipse fill="none" stroke="black" cx="60" cy="-55.47" rx="18" ry="18"/>
<ellipse fill="none" stroke="black" cx="60" cy="-55.47" rx="22" ry="22"/>
<text text-anchor="middle" x="60" y="-51.77" font-family="Arial" font-size="14.00">I</text>
</g>
<!-- dot_dummyinit_1&#45;&gt;I -->
<g id="edge1" class="edge">
<title>dot_dummyinit_1&#45;&gt;I</title>
<path fill="none" stroke="black" d="M1.17,-55.47C2.72,-55.47 14.89,-55.47 27.67,-55.47"/>
<polygon fill="black" stroke="black" points="27.86,-58.98 37.86,-55.47 27.86,-51.98 27.86,-58.98"/>
</g>
<!-- A -->
<g id="node4" class="node">
<title>A</title>
<ellipse fill="none" stroke="black" cx="144" cy="-80.47" rx="18" ry="18"/>
<text text-anchor="middle" x="144" y="-76.77" font-family="Arial" font-size="14.00">A</text>
</g>
<!-- I&#45;&gt;A -->
<g id="edge2" class="edge">
<title>I&#45;&gt;A</title>
<path fill="none" stroke="black" d="M80.58,-64.33C86.72,-66.88 93.56,-69.5 100,-71.47 105.15,-73.06 110.74,-74.45 116.13,-75.64"/>
<polygon fill="black" stroke="black" points="115.58,-79.1 126.07,-77.67 116.98,-72.24 115.58,-79.1"/>
<text text-anchor="middle" x="104" y="-76.27" font-family="Arial" font-size="14.00">a</text>
</g>
<!-- B -->
<g id="node5" class="node">
<title>B</title>
<ellipse fill="none" stroke="black" cx="310.9" cy="-38.47" rx="18" ry="18"/>
<text text-anchor="middle" x="310.9" y="-34.77" font-family="Arial" font-size="14.00">B</text>
</g>
<!-- I&#45;&gt;B -->
<g id="edge3" class="edge">
<title>I&#45;&gt;B</title>
<path fill="none" stroke="black" d="M81.53,-50.12C87.46,-48.74 93.95,-47.39 100,-46.47 165.06,-36.59 242.69,-36.66 282.85,-37.57"/>
<polygon fill="black" stroke="black" points="282.82,-41.07 292.91,-37.83 283,-34.07 282.82,-41.07"/>
<text text-anchor="middle" x="184" y="-42.27" font-family="Arial" font-size="14.00">b</text>
</g>
<!-- XB -->
<g id="node3" class="node">
<title>XB</title>
<ellipse fill="none" stroke="black" cx="398.64" cy="-38.47" rx="22.96" ry="22.96"/>
<ellipse fill="none" stroke="black" cx="398.64" cy="-38.47" rx="27" ry="27"/>
<text text-anchor="middle" x="398.64" y="-34.77" font-family="Arial" font-size="14.00">XB</text>
</g>
<!-- FB -->
<g id="node7" class="node">
<title>FB</title>
<ellipse fill="none" stroke="black" cx="491.49" cy="-38.47" rx="22.2" ry="22.2"/>
<text text-anchor="middle" x="491.49" y="-34.77" font-family="Arial" font-size="14.00">FB</text>
</g>
<!-- XB&#45;&gt;FB -->
<g id="edge10" class="edge">
<title>XB&#45;&gt;FB</title>
<path fill="none" stroke="black" d="M422.56,-50.69C431.46,-54.08 441.8,-56.36 451.39,-54.47 454.88,-53.79 458.45,-52.79 461.94,-51.62"/>
<polygon fill="black" stroke="black" points="463.37,-54.82 471.46,-47.99 460.87,-48.28 463.37,-54.82"/>
<text text-anchor="middle" x="447.39" y="-58.27" font-family="Arial" font-size="14.00">a</text>
</g>
<!-- XB&#45;&gt;FB -->
<g id="edge11" class="edge">
<title>XB&#45;&gt;FB</title>
<path fill="none" stroke="black" d="M425.43,-36C433.72,-35.47 442.94,-35.15 451.39,-35.47 453.95,-35.57 456.6,-35.71 459.27,-35.86"/>
<polygon fill="black" stroke="black" points="459.19,-39.37 469.4,-36.56 459.67,-32.38 459.19,-39.37"/>
<text text-anchor="middle" x="447.39" y="-39.27" font-family="Arial" font-size="14.00">b</text>
</g>
<!-- A&#45;&gt;I -->
<g id="edge4" class="edge">
<title>A&#45;&gt;I</title>
<path fill="none" stroke="black" d="M131.01,-67.49C124.78,-61.7 116.66,-55.51 108,-52.47 102.92,-50.69 97.35,-50.03 91.87,-50.02"/>
<polygon fill="black" stroke="black" points="91.36,-46.54 81.61,-50.7 91.82,-53.53 91.36,-46.54"/>
<text text-anchor="middle" x="104" y="-56.27" font-family="Arial" font-size="14.00">c</text>
</g>
<!-- FA -->
<g id="node6" class="node">
<title>FA</title>
<ellipse fill="none" stroke="black" cx="227.45" cy="-71.47" rx="21.4" ry="21.4"/>
<text text-anchor="middle" x="227.45" y="-67.77" font-family="Arial" font-size="14.00">FA</text>
</g>
<!-- A&#45;&gt;FA -->
<g id="edge5" class="edge">
<title>A&#45;&gt;FA</title>
<path fill="none" stroke="black" d="M162.21,-81.38C170.09,-81.56 179.55,-81.45 188,-80.47 190.87,-80.14 193.84,-79.68 196.8,-79.13"/>
<polygon fill="black" stroke="black" points="197.6,-82.54 206.65,-77.03 196.14,-75.69 197.6,-82.54"/>
<text text-anchor="middle" x="184" y="-84.27" font-family="Arial" font-size="14.00">d</text>
</g>
<!-- B&#45;&gt;XB -->
<g id="edge6" class="edge">
<title>B&#45;&gt;XB</title>
<path fill="none" stroke="black" d="M329.25,-38.47C338.62,-38.47 350.54,-38.47 361.8,-38.47"/>
<polygon fill="black" stroke="black" points="361.86,-41.98 371.86,-38.47 361.86,-34.98 361.86,-41.98"/>
<text text-anchor="middle" x="350.4" y="-42.27" font-family="Arial" font-size="14.00">c</text>
</g>
<!-- FA&#45;&gt;A -->
<g id="edge7" class="edge">
<title>FA&#45;&gt;A</title>
<path fill="none" stroke="black" d="M207.39,-63.38C198.96,-60.83 188.95,-59.2 180,-61.47 176.04,-62.48 172.05,-64.03 168.24,-65.83"/>
<polygon fill="black" stroke="black" points="166.48,-62.8 159.31,-70.61 169.78,-68.97 166.48,-62.8"/>
<text text-anchor="middle" x="184" y="-65.27" font-family="Arial" font-size="14.00">a</text>
</g>
<!-- FA&#45;&gt;B -->
<g id="edge8" class="edge">
<title>FA&#45;&gt;B</title>
<path fill="none" stroke="black" d="M247.75,-63.65C258.78,-59.19 272.73,-53.53 284.62,-48.72"/>
<polygon fill="black" stroke="black" points="286.06,-51.91 294.01,-44.91 283.43,-45.42 286.06,-51.91"/>
<text text-anchor="middle" x="270.9" y="-58.27" font-family="Arial" font-size="14.00">b</text>
</g>
<!-- FB&#45;&gt;XB -->
<g id="edge9" class="edge">
<title>FB&#45;&gt;XB</title>
<path fill="none" stroke="black" d="M479.04,-19.98C470.23,-8.34 457.26,3.6 443.39,-1.47 436.87,-3.86 430.64,-7.71 425.04,-12.03"/>
<polygon fill="black" stroke="black" points="422.67,-9.45 417.32,-18.59 427.21,-14.78 422.67,-9.45"/>
<text text-anchor="middle" x="447.39" y="-5.27" font-family="Arial" font-size="14.00">d</text>
</g>
</g>
</svg>
