<?xml version="1.0" encoding="UTF-8" standalone="no"?>
<!DOCTYPE svg PUBLIC "-//W3C//DTD SVG 1.1//EN"
 "http://www.w3.org/Graphics/SVG/1.1/DTD/svg11.dtd">
<!-- Generated by graphviz version 2.43.0 (0)
 -->
<!-- Title: wSpec3 Pages: 1 -->
<svg width="170pt" height="184pt"
 viewBox="0.00 0.00 170.00 184.00" xmlns="http://www.w3.org/2000/svg" xmlns:xlink="http://www.w3.org/1999/xlink">
<g id="graph0" class="graph" transform="scale(1 1) rotate(0) translate(4 180)">
<title>wSpec3</title>
<!-- dot_dummyinit_1 -->
<g id="node1" class="node">
<title>dot_dummyinit_1</title>
</g>
<!-- N -->
<g id="node2" class="node">
<title>N</title>
<ellipse fill="none" stroke="black" cx="60" cy="-22" rx="18" ry="18"/>
<ellipse fill="none" stroke="black" cx="60" cy="-22" rx="22" ry="22"/>
<text text-anchor="middle" x="60" y="-18.3" font-family="Arial" font-size="14.00">N</text>
</g>
<!-- dot_dummyinit_1&#45;&gt;N -->
<g id="edge1" class="edge">
<title>dot_dummyinit_1&#45;&gt;N</title>
<path fill="none" stroke="black" d="M1.17,-22C2.72,-22 14.89,-22 27.67,-22"/>
<polygon fill="black" stroke="black" points="27.86,-25.5 37.86,-22 27.86,-18.5 27.86,-25.5"/>
</g>
<!-- N&#45;&gt;N -->
<g id="edge2" class="edge">
<title>N&#45;&gt;N</title>
<path fill="none" stroke="black" d="M58.15,-44.21C58,-53.8 58.61,-62 60,-62 60.85,-62 61.4,-58.95 61.68,-54.4"/>
<polygon fill="black" stroke="black" points="65.18,-54.27 61.85,-44.21 58.18,-54.15 65.18,-54.27"/>
<text text-anchor="middle" x="60" y="-65.8" font-family="Arial" font-size="14.00">a</text>
</g>
<!-- N&#45;&gt;N -->
<g id="edge3" class="edge">
<title>N&#45;&gt;N</title>
<path fill="none" stroke="black" d="M56.78,-44.02C55.49,-61.72 56.56,-80 60,-80 62.77,-80 64,-68.17 63.71,-54.32"/>
<polygon fill="black" stroke="black" points="67.19,-53.84 63.22,-44.02 60.2,-54.17 67.19,-53.84"/>
<text text-anchor="middle" x="60" y="-83.8" font-family="Arial" font-size="14.00">b</text>
</g>
<!-- N&#45;&gt;N -->
<g id="edge4" class="edge">
<title>N&#45;&gt;N</title>
<path fill="none" stroke="black" d="M55.87,-43.78C52.94,-68.9 54.32,-98 60,-98 64.93,-98 66.62,-76.12 65.07,-53.93"/>
<polygon fill="black" stroke="black" points="68.54,-53.42 64.13,-43.78 61.57,-54.06 68.54,-53.42"/>
<text text-anchor="middle" x="60" y="-101.8" font-family="Arial" font-size="14.00">c</text>
</g>
<!-- N&#45;&gt;N -->
<g id="edge6" class="edge">
<title>N&#45;&gt;N</title>
<path fill="none" stroke="black" d="M55.21,-43.71C50.4,-75.81 51.99,-116 60,-116 67.19,-116 69.21,-83.56 66.06,-53.69"/>
<polygon fill="black" stroke="black" points="69.52,-53.19 64.79,-43.71 62.58,-54.08 69.52,-53.19"/>
<text text-anchor="middle" x="60" y="-119.8" font-family="Arial" font-size="14.00">e</text>
</g>
<!-- F -->
<g id="node3" class="node">
<title>F</title>
<ellipse fill="none" stroke="black" cx="144" cy="-22" rx="18" ry="18"/>
<text text-anchor="middle" x="144" y="-18.3" font-family="Arial" font-size="14.00">F</text>
</g>
<!-- N&#45;&gt;F -->
<g id="edge5" class="edge">
<title>N&#45;&gt;F</title>
<path fill="none" stroke="black" d="M82.12,-22C92.3,-22 104.63,-22 115.53,-22"/>
<polygon fill="black" stroke="black" points="115.82,-25.5 125.82,-22 115.82,-18.5 115.82,-25.5"/>
<text text-anchor="middle" x="104" y="-25.8" font-family="Arial" font-size="14.00">f</text>
</g>
<!-- F&#45;&gt;N -->
<g id="edge11" class="edge">
<title>F&#45;&gt;N</title>
<path fill="none" stroke="black" d="M128.69,-12.13C122.6,-8.51 115.24,-4.84 108,-3 101.24,-1.28 94.16,-2.45 87.6,-4.88"/>
<polygon fill="black" stroke="black" points="86.04,-1.75 78.47,-9.16 89.01,-8.09 86.04,-1.75"/>
<text text-anchor="middle" x="104" y="-6.8" font-family="Arial" font-size="14.00">e</text>
</g>
<!-- F&#45;&gt;F -->
<g id="edge7" class="edge">
<title>F&#45;&gt;F</title>
<path fill="none" stroke="black" d="M142.19,-40.15C141.91,-49.54 142.52,-58 144,-58 144.9,-58 145.48,-54.86 145.73,-50.28"/>
<polygon fill="black" stroke="black" points="149.23,-50.18 145.81,-40.15 142.23,-50.13 149.23,-50.18"/>
<text text-anchor="middle" x="144" y="-61.8" font-family="Arial" font-size="14.00">a</text>
</g>
<!-- F&#45;&gt;F -->
<g id="edge8" class="edge">
<title>F&#45;&gt;F</title>
<path fill="none" stroke="black" d="M140.99,-39.98C139.38,-57.2 140.39,-76 144,-76 146.91,-76 148.12,-63.83 147.65,-50.1"/>
<polygon fill="black" stroke="black" points="151.13,-49.74 147.01,-39.98 144.15,-50.18 151.13,-49.74"/>
<text text-anchor="middle" x="144" y="-79.8" font-family="Arial" font-size="14.00">b</text>
</g>
<!-- F&#45;&gt;F -->
<g id="edge9" class="edge">
<title>F&#45;&gt;F</title>
<path fill="none" stroke="black" d="M140.26,-39.72C136.83,-64.11 138.08,-94 144,-94 149.11,-94 150.74,-71.73 148.89,-49.94"/>
<polygon fill="black" stroke="black" points="152.33,-49.27 147.74,-39.72 145.38,-50.04 152.33,-49.27"/>
<text text-anchor="middle" x="144" y="-97.8" font-family="Arial" font-size="14.00">c</text>
</g>
<!-- F&#45;&gt;F -->
<g id="edge10" class="edge">
<title>F&#45;&gt;F</title>
<path fill="none" stroke="black" d="M139.73,-39.67C134.3,-70.85 135.72,-112 144,-112 151.41,-112 153.33,-79.07 149.76,-49.81"/>
<polygon fill="black" stroke="black" points="153.19,-49.05 148.27,-39.67 146.26,-50.07 153.19,-49.05"/>
<text text-anchor="middle" x="144" y="-115.8" font-family="Arial" font-size="14.00">f</text>
</g>
</g>
</svg>
