<?xml version="1.0" encoding="UTF-8" standalone="no"?>
<!DOCTYPE svg PUBLIC "-//W3C//DTD SVG 1.1//EN"
 "http://www.w3.org/Graphics/SVG/1.1/DTD/svg11.dtd">
<!-- Generated by graphviz version 2.43.0 (0)
 -->
<!-- Title: wPlant3 Pages: 1 -->
<svg width="429pt" height="122pt"
 viewBox="0.00 0.00 429.39 121.85" xmlns="http://www.w3.org/2000/svg" xmlns:xlink="http://www.w3.org/1999/xlink">
<g id="graph0" class="graph" transform="scale(1 1) rotate(0) translate(4 117.85)">
<title>wPlant3</title>
<!-- dot_dummyinit_1 -->
<g id="node1" class="node">
<title>dot_dummyinit_1</title>
</g>
<!-- I -->
<g id="node2" class="node">
<title>I</title>
<ellipse fill="none" stroke="black" cx="60" cy="-57" rx="18" ry="18"/>
<ellipse fill="none" stroke="black" cx="60" cy="-57" rx="22" ry="22"/>
<text text-anchor="middle" x="60" y="-53.3" font-family="Arial" font-size="14.00">I</text>
</g>
<!-- dot_dummyinit_1&#45;&gt;I -->
<g id="edge1" class="edge">
<title>dot_dummyinit_1&#45;&gt;I</title>
<path fill="none" stroke="black" d="M1.17,-57C2.72,-57 14.89,-57 27.67,-57"/>
<polygon fill="black" stroke="black" points="27.86,-60.5 37.86,-57 27.86,-53.5 27.86,-60.5"/>
</g>
<!-- A -->
<g id="node3" class="node">
<title>A</title>
<ellipse fill="none" stroke="black" cx="148" cy="-91" rx="18" ry="18"/>
<ellipse fill="none" stroke="black" cx="148" cy="-91" rx="22" ry="22"/>
<text text-anchor="middle" x="148" y="-87.3" font-family="Arial" font-size="14.00">A</text>
</g>
<!-- I&#45;&gt;A -->
<g id="edge2" class="edge">
<title>I&#45;&gt;A</title>
<path fill="none" stroke="black" d="M74.75,-73.94C81.52,-80.94 90.31,-88.29 100,-92 105.02,-93.92 110.56,-94.79 116.03,-95.02"/>
<polygon fill="black" stroke="black" points="116.38,-98.51 126.29,-94.78 116.21,-91.51 116.38,-98.51"/>
<text text-anchor="middle" x="104" y="-97.8" font-family="Arial" font-size="14.00">a</text>
</g>
<!-- B -->
<g id="node4" class="node">
<title>B</title>
<ellipse fill="none" stroke="black" cx="148" cy="-22" rx="18" ry="18"/>
<ellipse fill="none" stroke="black" cx="148" cy="-22" rx="22" ry="22"/>
<text text-anchor="middle" x="148" y="-18.3" font-family="Arial" font-size="14.00">B</text>
</g>
<!-- I&#45;&gt;B -->
<g id="edge3" class="edge">
<title>I&#45;&gt;B</title>
<path fill="none" stroke="black" d="M80.95,-48.88C91.99,-44.39 105.91,-38.72 118.12,-33.75"/>
<polygon fill="black" stroke="black" points="119.52,-36.96 127.46,-29.95 116.88,-30.48 119.52,-36.96"/>
<text text-anchor="middle" x="104" y="-43.8" font-family="Arial" font-size="14.00">b</text>
</g>
<!-- A&#45;&gt;I -->
<g id="edge4" class="edge">
<title>A&#45;&gt;I</title>
<path fill="none" stroke="black" d="M127.73,-81.62C121.5,-78.72 114.51,-75.6 108,-73 102.6,-70.84 96.78,-68.71 91.13,-66.74"/>
<polygon fill="black" stroke="black" points="91.89,-63.3 81.3,-63.4 89.64,-69.93 91.89,-63.3"/>
<text text-anchor="middle" x="104" y="-76.8" font-family="Arial" font-size="14.00">c</text>
</g>
<!-- Af -->
<g id="node7" class="node">
<title>Af</title>
<ellipse fill="none" stroke="black" cx="232.85" cy="-91" rx="18.7" ry="18.7"/>
<text text-anchor="middle" x="232.85" y="-87.3" font-family="Arial" font-size="14.00">Af</text>
</g>
<!-- A&#45;&gt;Af -->
<g id="edge5" class="edge">
<title>A&#45;&gt;Af</title>
<path fill="none" stroke="black" d="M170.34,-91C180.48,-91 192.73,-91 203.63,-91"/>
<polygon fill="black" stroke="black" points="203.95,-94.5 213.95,-91 203.95,-87.5 203.95,-94.5"/>
<text text-anchor="middle" x="192" y="-94.8" font-family="Arial" font-size="14.00">f</text>
</g>
<!-- B&#45;&gt;I -->
<g id="edge6" class="edge">
<title>B&#45;&gt;I</title>
<path fill="none" stroke="black" d="M126.24,-16.82C117.82,-15.69 108.18,-15.67 100,-19 92.9,-21.89 86.38,-26.76 80.79,-32.07"/>
<polygon fill="black" stroke="black" points="78.13,-29.79 73.77,-39.44 83.2,-34.61 78.13,-29.79"/>
<text text-anchor="middle" x="104" y="-22.8" font-family="Arial" font-size="14.00">c</text>
</g>
<!-- Bf -->
<g id="node5" class="node">
<title>Bf</title>
<ellipse fill="none" stroke="black" cx="398.54" cy="-91" rx="18.72" ry="18.72"/>
<ellipse fill="none" stroke="black" cx="398.54" cy="-91" rx="22.7" ry="22.7"/>
<text text-anchor="middle" x="398.54" y="-87.3" font-family="Arial" font-size="14.00">Bf</text>
</g>
<!-- If -->
<g id="node6" class="node">
<title>If</title>
<ellipse fill="none" stroke="black" cx="313.7" cy="-91" rx="18" ry="18"/>
<text text-anchor="middle" x="313.7" y="-87.3" font-family="Arial" font-size="14.00">If</text>
</g>
<!-- Bf&#45;&gt;If -->
<g id="edge11" class="edge">
<title>Bf&#45;&gt;If</title>
<path fill="none" stroke="black" d="M379.28,-77.88C370.51,-73.11 359.75,-69.45 349.7,-72 345.74,-73.01 341.74,-74.56 337.94,-76.35"/>
<polygon fill="black" stroke="black" points="336.17,-73.33 329.01,-81.13 339.48,-79.5 336.17,-73.33"/>
<text text-anchor="middle" x="353.7" y="-75.8" font-family="Arial" font-size="14.00">c</text>
</g>
<!-- If&#45;&gt;Bf -->
<g id="edge8" class="edge">
<title>If&#45;&gt;Bf</title>
<path fill="none" stroke="black" d="M331.86,-91C341.59,-91 354.07,-91 365.53,-91"/>
<polygon fill="black" stroke="black" points="365.67,-94.5 375.67,-91 365.67,-87.5 365.67,-94.5"/>
<text text-anchor="middle" x="353.7" y="-94.8" font-family="Arial" font-size="14.00">b</text>
</g>
<!-- If&#45;&gt;Af -->
<g id="edge7" class="edge">
<title>If&#45;&gt;Af</title>
<path fill="none" stroke="black" d="M297.98,-81.46C291.95,-78.08 284.74,-74.7 277.7,-73 271.08,-71.4 264.17,-72.71 257.83,-75.22"/>
<polygon fill="black" stroke="black" points="255.86,-72.29 248.49,-79.9 259,-78.55 255.86,-72.29"/>
<text text-anchor="middle" x="273.7" y="-76.8" font-family="Arial" font-size="14.00">a</text>
</g>
<!-- Af&#45;&gt;A -->
<g id="edge10" class="edge">
<title>Af&#45;&gt;A</title>
<path fill="none" stroke="black" d="M216.81,-80.93C210.64,-77.37 203.25,-73.8 196,-72 189.23,-70.32 182.14,-71.5 175.59,-73.93"/>
<polygon fill="black" stroke="black" points="174.03,-70.79 166.46,-78.2 177,-77.13 174.03,-70.79"/>
<text text-anchor="middle" x="192" y="-75.8" font-family="Arial" font-size="14.00">e</text>
</g>
<!-- Af&#45;&gt;If -->
<g id="edge9" class="edge">
<title>Af&#45;&gt;If</title>
<path fill="none" stroke="black" d="M251.74,-91C261.73,-91 274.37,-91 285.55,-91"/>
<polygon fill="black" stroke="black" points="285.69,-94.5 295.69,-91 285.69,-87.5 285.69,-94.5"/>
<text text-anchor="middle" x="273.7" y="-94.8" font-family="Arial" font-size="14.00">c</text>
</g>
</g>
</svg>
