<?xml version="1.0" encoding="UTF-8" standalone="no"?>
<!DOCTYPE svg PUBLIC "-//W3C//DTD SVG 1.1//EN"
 "http://www.w3.org/Graphics/SVG/1.1/DTD/svg11.dtd">
<!-- Generated by graphviz version 12.2.1 (20241206.2353)
 -->
<!-- Title: wPlant1 Pages: 1 -->
<svg width="295pt" height="158pt"
 viewBox="0.00 0.00 294.72 158.00" xmlns="http://www.w3.org/2000/svg" xmlns:xlink="http://www.w3.org/1999/xlink">
<g id="graph0" class="graph" transform="scale(1 1) rotate(0) translate(4 154)">
<title>wPlant1</title>
<!-- dot_dummyinit_1 -->
<g id="node1" class="node">
<title>dot_dummyinit_1</title>
</g>
<!-- L1 -->
<g id="node2" class="node">
<title>L1</title>
<path fill="none" stroke="black" d="M79.72,-92C79.72,-92 49.72,-92 49.72,-92 43.72,-92 37.72,-86 37.72,-80 37.72,-80 37.72,-68 37.72,-68 37.72,-62 43.72,-56 49.72,-56 49.72,-56 79.72,-56 79.72,-56 85.72,-56 91.72,-62 91.72,-68 91.72,-68 91.72,-80 91.72,-80 91.72,-86 85.72,-92 79.72,-92"/>
<text text-anchor="middle" x="64.72" y="-68.58" font-family="Arial" font-size="14.00">L1</text>
</g>
<!-- dot_dummyinit_1&#45;&gt;L1 -->
<g id="edge1" class="edge">
<title>dot_dummyinit_1&#45;&gt;L1</title>
<path fill="none" stroke="black" d="M0.77,-74C1.57,-74 12.96,-74 25.83,-74"/>
<polygon fill="black" stroke="black" points="25.79,-77.5 35.79,-74 25.79,-70.5 25.79,-77.5"/>
</g>
<!-- B -->
<g id="node4" class="node">
<title>B</title>
<path fill="none" stroke="black" d="M177.22,-150C177.22,-150 147.22,-150 147.22,-150 141.22,-150 135.22,-144 135.22,-138 135.22,-138 135.22,-126 135.22,-126 135.22,-120 141.22,-114 147.22,-114 147.22,-114 177.22,-114 177.22,-114 183.22,-114 189.22,-120 189.22,-126 189.22,-126 189.22,-138 189.22,-138 189.22,-144 183.22,-150 177.22,-150"/>
<text text-anchor="start" x="149.72" y="-126.58" font-family="Arial" font-size="14.00">B</text>
<polygon fill="black" stroke="none" points="168.72,-122.12 168.72,-141.88 176.72,-141.88 176.72,-122.12 168.72,-122.12"/>
</g>
<!-- L1&#45;&gt;B -->
<g id="edge3" class="edge">
<title>L1&#45;&gt;B</title>
<path fill="none" stroke="black" d="M74.66,-92.4C82.09,-105.43 93.97,-121.96 109.72,-130 114.02,-132.2 118.8,-133.55 123.67,-134.33"/>
<polygon fill="black" stroke="black" points="123.23,-137.81 133.47,-135.09 123.77,-130.83 123.23,-137.81"/>
<text text-anchor="middle" x="113.47" y="-135.04" font-family="Arial" font-size="14.00">b</text>
</g>
<!-- L2 -->
<g id="node5" class="node">
<title>L2</title>
<path fill="none" stroke="black" d="M177.22,-72C177.22,-72 147.22,-72 147.22,-72 141.22,-72 135.22,-66 135.22,-60 135.22,-60 135.22,-48 135.22,-48 135.22,-42 141.22,-36 147.22,-36 147.22,-36 177.22,-36 177.22,-36 183.22,-36 189.22,-42 189.22,-48 189.22,-48 189.22,-60 189.22,-60 189.22,-66 183.22,-72 177.22,-72"/>
<text text-anchor="middle" x="162.22" y="-48.58" font-family="Arial" font-size="14.00">L2</text>
</g>
<!-- L1&#45;&gt;L2 -->
<g id="edge2" class="edge">
<title>L1&#45;&gt;L2</title>
<path fill="none" stroke="black" d="M92.07,-68.48C101.88,-66.43 113.21,-64.05 123.83,-61.83"/>
<polygon fill="black" stroke="black" points="124.41,-65.29 133.48,-59.81 122.97,-58.43 124.41,-65.29"/>
<text text-anchor="middle" x="113.47" y="-67.05" font-family="Arial" font-size="14.00">d</text>
</g>
<!-- A -->
<g id="node3" class="node">
<title>A</title>
<path fill="none" stroke="black" d="M274.72,-36C274.72,-36 244.72,-36 244.72,-36 238.72,-36 232.72,-30 232.72,-24 232.72,-24 232.72,-12 232.72,-12 232.72,-6 238.72,0 244.72,0 244.72,0 274.72,0 274.72,0 280.72,0 286.72,-6 286.72,-12 286.72,-12 286.72,-24 286.72,-24 286.72,-30 280.72,-36 274.72,-36"/>
<text text-anchor="start" x="247.22" y="-12.57" font-family="Arial" font-size="14.00">A</text>
<polygon fill="black" stroke="none" points="266.22,-8.12 266.22,-27.88 274.22,-27.88 274.22,-8.12 266.22,-8.12"/>
</g>
<!-- A&#45;&gt;L1 -->
<g id="edge6" class="edge">
<title>A&#45;&gt;L1</title>
<path fill="none" stroke="black" d="M232.69,-10.55C207.01,-4.57 167.09,1.01 135.22,-11.25 116.3,-18.53 99.32,-33.6 86.89,-47.15"/>
<polygon fill="black" stroke="black" points="84.33,-44.76 80.39,-54.6 89.6,-49.36 84.33,-44.76"/>
<text text-anchor="middle" x="162.22" y="-13.7" font-family="Arial" font-size="14.00">c</text>
</g>
<!-- B&#45;&gt;L1 -->
<g id="edge7" class="edge">
<title>B&#45;&gt;L1</title>
<path fill="none" stroke="black" d="M134.96,-116.05C124.74,-109.84 112.86,-102.63 101.85,-95.95"/>
<polygon fill="black" stroke="black" points="103.73,-92.99 93.36,-90.79 100.09,-98.97 103.73,-92.99"/>
<text text-anchor="middle" x="113.47" y="-107.19" font-family="Arial" font-size="14.00">d</text>
</g>
<!-- L2&#45;&gt;L1 -->
<g id="edge4" class="edge">
<title>L2&#45;&gt;L1</title>
<path fill="none" stroke="black" d="M134.76,-43.31C126.64,-41.41 117.74,-40.73 109.72,-43.25 104.89,-44.77 100.13,-47.03 95.62,-49.65"/>
<polygon fill="black" stroke="black" points="93.95,-46.56 87.51,-54.97 97.79,-52.41 93.95,-46.56"/>
<text text-anchor="middle" x="113.47" y="-45.7" font-family="Arial" font-size="14.00">d</text>
</g>
<!-- L2&#45;&gt;A -->
<g id="edge5" class="edge">
<title>L2&#45;&gt;A</title>
<path fill="none" stroke="black" d="M189.57,-44.07C199.59,-40.29 211.2,-35.92 222,-31.84"/>
<polygon fill="black" stroke="black" points="222.92,-35.24 231.04,-28.43 220.45,-28.69 222.92,-35.24"/>
<text text-anchor="middle" x="210.97" y="-39.53" font-family="Arial" font-size="14.00">a</text>
</g>
</g>
</svg>
