<?xml version="1.0" encoding="UTF-8" standalone="no"?>
<!DOCTYPE svg PUBLIC "-//W3C//DTD SVG 1.1//EN"
 "http://www.w3.org/Graphics/SVG/1.1/DTD/svg11.dtd">
<!-- Generated by graphviz version 2.43.0 (0)
 -->
<!-- Title: wSpec1 Pages: 1 -->
<svg width="183pt" height="158pt"
 viewBox="0.00 0.00 182.79 157.90" xmlns="http://www.w3.org/2000/svg" xmlns:xlink="http://www.w3.org/1999/xlink">
<g id="graph0" class="graph" transform="scale(1 1) rotate(0) translate(4 153.9)">
<title>wSpec1</title>
<!-- dot_dummyinit_1 -->
<g id="node1" class="node">
<title>dot_dummyinit_1</title>
</g>
<!-- S1 -->
<g id="node2" class="node">
<title>S1</title>
<ellipse fill="none" stroke="black" cx="59.45" cy="-25.45" rx="21.4" ry="21.4"/>
<text text-anchor="middle" x="59.45" y="-21.75" font-family="Arial" font-size="14.00">S1</text>
</g>
<!-- dot_dummyinit_1&#45;&gt;S1 -->
<g id="edge1" class="edge">
<title>dot_dummyinit_1&#45;&gt;S1</title>
<path fill="none" stroke="black" d="M1.16,-25.45C2.71,-25.45 14.92,-25.45 27.67,-25.45"/>
<polygon fill="black" stroke="black" points="27.82,-28.95 37.82,-25.45 27.82,-21.95 27.82,-28.95"/>
</g>
<!-- S1&#45;&gt;S1 -->
<g id="edge2" class="edge">
<title>S1&#45;&gt;S1</title>
<path fill="none" stroke="black" d="M57.11,-46.95C56.89,-56.58 57.67,-64.9 59.45,-64.9 60.53,-64.9 61.25,-61.81 61.59,-57.22"/>
<polygon fill="black" stroke="black" points="65.09,-57.02 61.79,-46.95 58.09,-56.88 65.09,-57.02"/>
<text text-anchor="middle" x="59.45" y="-68.7" font-family="Arial" font-size="14.00">a</text>
</g>
<!-- S1&#45;&gt;S1 -->
<g id="edge3" class="edge">
<title>S1&#45;&gt;S1</title>
<path fill="none" stroke="black" d="M55.42,-46.66C53.7,-64.38 55.04,-82.9 59.45,-82.9 62.99,-82.9 64.55,-70.91 64.13,-56.99"/>
<polygon fill="black" stroke="black" points="67.6,-56.42 63.47,-46.66 60.62,-56.86 67.6,-56.42"/>
<text text-anchor="middle" x="59.45" y="-86.7" font-family="Arial" font-size="14.00">b</text>
</g>
<!-- S1&#45;&gt;S1 -->
<g id="edge5" class="edge">
<title>S1&#45;&gt;S1</title>
<path fill="none" stroke="black" d="M54.33,-46.3C50.47,-71.41 52.17,-100.9 59.45,-100.9 65.76,-100.9 67.88,-78.72 65.81,-56.46"/>
<polygon fill="black" stroke="black" points="69.25,-55.8 64.56,-46.3 62.3,-56.66 69.25,-55.8"/>
<text text-anchor="middle" x="59.45" y="-104.7" font-family="Arial" font-size="14.00">d</text>
</g>
<!-- S2 -->
<g id="node3" class="node">
<title>S2</title>
<ellipse fill="none" stroke="black" cx="149.34" cy="-25.45" rx="21.4" ry="21.4"/>
<ellipse fill="none" stroke="black" cx="149.34" cy="-25.45" rx="25.4" ry="25.4"/>
<text text-anchor="middle" x="149.34" y="-21.75" font-family="Arial" font-size="14.00">S2</text>
</g>
<!-- S1&#45;&gt;S2 -->
<g id="edge4" class="edge">
<title>S1&#45;&gt;S2</title>
<path fill="none" stroke="black" d="M81.28,-25.45C90.9,-25.45 102.58,-25.45 113.48,-25.45"/>
<polygon fill="black" stroke="black" points="113.6,-28.95 123.6,-25.45 113.6,-21.95 113.6,-28.95"/>
<text text-anchor="middle" x="102.4" y="-29.25" font-family="Arial" font-size="14.00">c</text>
</g>
<!-- S2&#45;&gt;S2 -->
<g id="edge6" class="edge">
<title>S2&#45;&gt;S2</title>
<path fill="none" stroke="black" d="M146.48,-50.89C146.35,-60.72 147.31,-68.9 149.34,-68.9 150.62,-68.9 151.47,-65.7 151.89,-60.91"/>
<polygon fill="black" stroke="black" points="155.39,-60.99 152.21,-50.89 148.4,-60.77 155.39,-60.99"/>
<text text-anchor="middle" x="149.34" y="-72.7" font-family="Arial" font-size="14.00">b</text>
</g>
<!-- S2&#45;&gt;S2 -->
<g id="edge7" class="edge">
<title>S2&#45;&gt;S2</title>
<path fill="none" stroke="black" d="M144.21,-50.7C142.54,-68.83 144.25,-86.9 149.34,-86.9 153.48,-86.9 155.39,-74.97 155.06,-60.77"/>
<polygon fill="black" stroke="black" points="158.55,-60.48 154.48,-50.7 151.56,-60.88 158.55,-60.48"/>
<text text-anchor="middle" x="149.34" y="-90.7" font-family="Arial" font-size="14.00">c</text>
</g>
<!-- S2&#45;&gt;S2 -->
<g id="edge8" class="edge">
<title>S2&#45;&gt;S2</title>
<path fill="none" stroke="black" d="M142.68,-50.26C138.63,-76.03 140.85,-104.9 149.34,-104.9 156.74,-104.9 159.38,-82.99 157.26,-60.31"/>
<polygon fill="black" stroke="black" points="160.72,-59.75 156.01,-50.26 153.77,-60.61 160.72,-59.75"/>
<text text-anchor="middle" x="149.34" y="-108.7" font-family="Arial" font-size="14.00">d</text>
</g>
</g>
</svg>
