<?xml version="1.0" encoding="UTF-8" standalone="no"?>
<!DOCTYPE svg PUBLIC "-//W3C//DTD SVG 1.1//EN"
 "http://www.w3.org/Graphics/SVG/1.1/DTD/svg11.dtd">
<!-- Generated by graphviz version 2.43.0 (0)
 -->
<!-- Title: wPlant1 Pages: 1 -->
<svg width="296pt" height="156pt"
 viewBox="0.00 0.00 296.00 156.00" xmlns="http://www.w3.org/2000/svg" xmlns:xlink="http://www.w3.org/1999/xlink">
<g id="graph0" class="graph" transform="scale(1 1) rotate(0) translate(4 152)">
<title>wPlant1</title>
<!-- dot_dummyinit_1 -->
<g id="node1" class="node">
<title>dot_dummyinit_1</title>
</g>
<!-- L1 -->
<g id="node2" class="node">
<title>L1</title>
<path fill="none" stroke="black" d="M80,-91C80,-91 50,-91 50,-91 44,-91 38,-85 38,-79 38,-79 38,-67 38,-67 38,-61 44,-55 50,-55 50,-55 80,-55 80,-55 86,-55 92,-61 92,-67 92,-67 92,-79 92,-79 92,-85 86,-91 80,-91"/>
<text text-anchor="middle" x="65" y="-69.3" font-family="Arial" font-size="14.00">L1</text>
</g>
<!-- dot_dummyinit_1&#45;&gt;L1 -->
<g id="edge1" class="edge">
<title>dot_dummyinit_1&#45;&gt;L1</title>
<path fill="none" stroke="black" d="M1.05,-73C1.88,-73 14.11,-73 27.57,-73"/>
<polygon fill="black" stroke="black" points="27.94,-76.5 37.94,-73 27.94,-69.5 27.94,-76.5"/>
</g>
<!-- B -->
<g id="node4" class="node">
<title>B</title>
<path fill="none" stroke="black" d="M178,-148C178,-148 148,-148 148,-148 142,-148 136,-142 136,-136 136,-136 136,-124 136,-124 136,-118 142,-112 148,-112 148,-112 178,-112 178,-112 184,-112 190,-118 190,-124 190,-124 190,-136 190,-136 190,-142 184,-148 178,-148"/>
<text text-anchor="start" x="150" y="-125.8" font-family="Arial" font-size="14.00">B</text>
<polygon fill="black" stroke="transparent" points="170,-120 170,-139 178,-139 178,-120 170,-120"/>
</g>
<!-- L1&#45;&gt;B -->
<g id="edge3" class="edge">
<title>L1&#45;&gt;B</title>
<path fill="none" stroke="black" d="M75.47,-91.2C83.01,-103.65 94.82,-119.24 110,-127 114.76,-129.43 120.09,-130.9 125.48,-131.72"/>
<polygon fill="black" stroke="black" points="125.52,-135.24 135.78,-132.58 126.11,-128.26 125.52,-135.24"/>
<text text-anchor="middle" x="114" y="-133.8" font-family="Arial" font-size="14.00">b</text>
</g>
<!-- L2 -->
<g id="node5" class="node">
<title>L2</title>
<path fill="none" stroke="black" d="M178,-71C178,-71 148,-71 148,-71 142,-71 136,-65 136,-59 136,-59 136,-47 136,-47 136,-41 142,-35 148,-35 148,-35 178,-35 178,-35 184,-35 190,-41 190,-47 190,-47 190,-59 190,-59 190,-65 184,-71 178,-71"/>
<text text-anchor="middle" x="163" y="-49.3" font-family="Arial" font-size="14.00">L2</text>
</g>
<!-- L1&#45;&gt;L2 -->
<g id="edge2" class="edge">
<title>L1&#45;&gt;L2</title>
<path fill="none" stroke="black" d="M92.23,-67.53C102.6,-65.37 114.69,-62.86 125.87,-60.53"/>
<polygon fill="black" stroke="black" points="126.72,-63.92 135.8,-58.46 125.3,-57.07 126.72,-63.92"/>
<text text-anchor="middle" x="114" y="-66.8" font-family="Arial" font-size="14.00">d</text>
</g>
<!-- A -->
<g id="node3" class="node">
<title>A</title>
<path fill="none" stroke="black" d="M276,-36C276,-36 246,-36 246,-36 240,-36 234,-30 234,-24 234,-24 234,-12 234,-12 234,-6 240,0 246,0 246,0 276,0 276,0 282,0 288,-6 288,-12 288,-12 288,-24 288,-24 288,-30 282,-36 276,-36"/>
<text text-anchor="start" x="248" y="-13.8" font-family="Arial" font-size="14.00">A</text>
<polygon fill="black" stroke="transparent" points="268,-8 268,-27 276,-27 276,-8 268,-8"/>
</g>
<!-- A&#45;&gt;L1 -->
<g id="edge6" class="edge">
<title>A&#45;&gt;L1</title>
<path fill="none" stroke="black" d="M233.89,-10.51C208.13,-4.49 168.06,1.16 136,-11 116.71,-18.31 99.33,-33.64 86.71,-47.23"/>
<polygon fill="black" stroke="black" points="83.87,-45.15 79.85,-54.95 89.1,-49.8 83.87,-45.15"/>
<text text-anchor="middle" x="163" y="-14.8" font-family="Arial" font-size="14.00">c</text>
</g>
<!-- B&#45;&gt;L1 -->
<g id="edge7" class="edge">
<title>B&#45;&gt;L1</title>
<path fill="none" stroke="black" d="M135.8,-114.44C125.11,-108.1 112.6,-100.67 101.14,-93.86"/>
<polygon fill="black" stroke="black" points="102.62,-90.67 92.23,-88.58 99.04,-96.69 102.62,-90.67"/>
<text text-anchor="middle" x="114" y="-106.8" font-family="Arial" font-size="14.00">d</text>
</g>
<!-- L2&#45;&gt;L1 -->
<g id="edge4" class="edge">
<title>L2&#45;&gt;L1</title>
<path fill="none" stroke="black" d="M135.8,-42.99C127.46,-41.12 118.26,-40.45 110,-43 105.05,-44.53 100.15,-46.83 95.53,-49.48"/>
<polygon fill="black" stroke="black" points="93.56,-46.59 87.03,-54.93 97.34,-52.48 93.56,-46.59"/>
<text text-anchor="middle" x="114" y="-46.8" font-family="Arial" font-size="14.00">d</text>
</g>
<!-- L2&#45;&gt;A -->
<g id="edge5" class="edge">
<title>L2&#45;&gt;A</title>
<path fill="none" stroke="black" d="M190.23,-43.44C200.71,-39.62 212.94,-35.16 224.21,-31.05"/>
<polygon fill="black" stroke="black" points="225.6,-34.27 233.8,-27.55 223.21,-27.69 225.6,-34.27"/>
<text text-anchor="middle" x="212" y="-39.8" font-family="Arial" font-size="14.00">a</text>
</g>
</g>
</svg>
