<?xml version="1.0" encoding="UTF-8" standalone="no"?>
<!DOCTYPE svg PUBLIC "-//W3C//DTD SVG 1.1//EN"
 "http://www.w3.org/Graphics/SVG/1.1/DTD/svg11.dtd">
<!-- Generated by graphviz version 12.2.1 (20241206.2353)
 -->
<!-- Title: A&#45;B&#45;Machine&#45;B&#45;Breaks Pages: 1 -->
<svg width="519pt" height="108pt"
 viewBox="0.00 0.00 519.20 108.25" xmlns="http://www.w3.org/2000/svg" xmlns:xlink="http://www.w3.org/1999/xlink">
<g id="graph0" class="graph" transform="scale(1 1) rotate(0) translate(4 104.25)">
<title>A&#45;B&#45;Machine&#45;B&#45;Breaks</title>
<!-- dot_dummyinit_1 -->
<g id="node1" class="node">
<title>dot_dummyinit_1</title>
</g>
<!-- I -->
<g id="node2" class="node">
<title>I</title>
<ellipse fill="none" stroke="black" cx="59.72" cy="-56.25" rx="18" ry="18"/>
<ellipse fill="none" stroke="black" cx="59.72" cy="-56.25" rx="22" ry="22"/>
<text text-anchor="middle" x="59.72" y="-50.82" font-family="Arial" font-size="14.00">I</text>
</g>
<!-- dot_dummyinit_1&#45;&gt;I -->
<g id="edge1" class="edge">
<title>dot_dummyinit_1&#45;&gt;I</title>
<path fill="none" stroke="black" d="M0.89,-56.25C2.38,-56.25 13.74,-56.25 26,-56.25"/>
<polygon fill="black" stroke="black" points="25.74,-59.75 35.74,-56.25 25.74,-52.75 25.74,-59.75"/>
</g>
<!-- A -->
<g id="node4" class="node">
<title>A</title>
<ellipse fill="none" stroke="black" cx="143.22" cy="-82.25" rx="18" ry="18"/>
<text text-anchor="middle" x="143.22" y="-76.82" font-family="Arial" font-size="14.00">A</text>
</g>
<!-- I&#45;&gt;A -->
<g id="edge2" class="edge">
<title>I&#45;&gt;A</title>
<path fill="none" stroke="black" d="M79.86,-65.51C86.09,-68.28 93.11,-71.13 99.72,-73.25 104.33,-74.72 109.29,-76.02 114.15,-77.14"/>
<polygon fill="black" stroke="black" points="113.07,-80.49 123.57,-79.12 114.51,-73.64 113.07,-80.49"/>
<text text-anchor="middle" x="103.47" y="-77.7" font-family="Arial" font-size="14.00">a</text>
</g>
<!-- B -->
<g id="node5" class="node">
<title>B</title>
<ellipse fill="none" stroke="black" cx="309.47" cy="-39.25" rx="18" ry="18"/>
<text text-anchor="middle" x="309.47" y="-33.82" font-family="Arial" font-size="14.00">B</text>
</g>
<!-- I&#45;&gt;B -->
<g id="edge3" class="edge">
<title>I&#45;&gt;B</title>
<path fill="none" stroke="black" d="M81.25,-50.88C87.18,-49.51 93.67,-48.16 99.72,-47.25 163.42,-37.65 239.22,-37.52 279.66,-38.34"/>
<polygon fill="black" stroke="black" points="279.43,-41.84 289.51,-38.58 279.6,-34.84 279.43,-41.84"/>
<text text-anchor="middle" x="182.97" y="-42.08" font-family="Arial" font-size="14.00">b</text>
</g>
<!-- XB -->
<g id="node3" class="node">
<title>XB</title>
<ellipse fill="none" stroke="black" cx="396.84" cy="-39.25" rx="22.62" ry="22.62"/>
<ellipse fill="none" stroke="black" cx="396.84" cy="-39.25" rx="26.62" ry="26.62"/>
<text text-anchor="middle" x="396.84" y="-33.82" font-family="Arial" font-size="14.00">XB</text>
</g>
<!-- FB -->
<g id="node7" class="node">
<title>FB</title>
<ellipse fill="none" stroke="black" cx="489.08" cy="-39.25" rx="22.12" ry="22.12"/>
<text text-anchor="middle" x="489.08" y="-33.82" font-family="Arial" font-size="14.00">FB</text>
</g>
<!-- XB&#45;&gt;FB -->
<g id="edge10" class="edge">
<title>XB&#45;&gt;FB</title>
<path fill="none" stroke="black" d="M420.43,-52.2C429.21,-55.79 439.43,-58.23 448.96,-56.25 452.15,-55.58 455.41,-54.64 458.61,-53.54"/>
<polygon fill="black" stroke="black" points="459.7,-56.88 467.69,-49.91 457.11,-50.37 459.7,-56.88"/>
<text text-anchor="middle" x="445.21" y="-59.41" font-family="Arial" font-size="14.00">a</text>
</g>
<!-- XB&#45;&gt;FB -->
<g id="edge11" class="edge">
<title>XB&#45;&gt;FB</title>
<path fill="none" stroke="black" d="M423.84,-36.95C431.89,-36.49 440.79,-36.21 448.96,-36.5 451.01,-36.57 453.13,-36.66 455.26,-36.77"/>
<polygon fill="black" stroke="black" points="454.87,-40.25 465.06,-37.37 455.29,-33.27 454.87,-40.25"/>
<text text-anchor="middle" x="445.21" y="-38.95" font-family="Arial" font-size="14.00">b</text>
</g>
<!-- A&#45;&gt;I -->
<g id="edge4" class="edge">
<title>A&#45;&gt;I</title>
<path fill="none" stroke="black" d="M130.6,-69.22C124.35,-63.19 116.1,-56.68 107.22,-53.5 102.68,-51.87 97.73,-51.15 92.81,-51.01"/>
<polygon fill="black" stroke="black" points="92.93,-47.5 83.1,-51.47 93.26,-54.49 92.93,-47.5"/>
<text text-anchor="middle" x="103.47" y="-55.95" font-family="Arial" font-size="14.00">c</text>
</g>
<!-- FA -->
<g id="node6" class="node">
<title>FA</title>
<ellipse fill="none" stroke="black" cx="226.34" cy="-73.25" rx="21.62" ry="21.62"/>
<text text-anchor="middle" x="226.34" y="-67.82" font-family="Arial" font-size="14.00">FA</text>
</g>
<!-- A&#45;&gt;FA -->
<g id="edge5" class="edge">
<title>A&#45;&gt;FA</title>
<path fill="none" stroke="black" d="M161.64,-83.14C169.35,-83.31 178.51,-83.19 186.72,-82.25 189.07,-81.98 191.49,-81.62 193.91,-81.2"/>
<polygon fill="black" stroke="black" points="194.48,-84.65 203.57,-79.2 193.07,-77.8 194.48,-84.65"/>
<text text-anchor="middle" x="182.97" y="-85.3" font-family="Arial" font-size="14.00">d</text>
</g>
<!-- B&#45;&gt;XB -->
<g id="edge6" class="edge">
<title>B&#45;&gt;XB</title>
<path fill="none" stroke="black" d="M327.74,-39.25C336.62,-39.25 347.79,-39.25 358.51,-39.25"/>
<polygon fill="black" stroke="black" points="358.32,-42.75 368.32,-39.25 358.32,-35.75 358.32,-42.75"/>
<text text-anchor="middle" x="348.84" y="-41.7" font-family="Arial" font-size="14.00">c</text>
</g>
<!-- FA&#45;&gt;A -->
<g id="edge7" class="edge">
<title>FA&#45;&gt;A</title>
<path fill="none" stroke="black" d="M206.43,-64.65C198.07,-61.92 188.13,-60.16 179.22,-62.5 175.58,-63.46 171.91,-64.89 168.4,-66.55"/>
<polygon fill="black" stroke="black" points="166.89,-63.39 159.81,-71.27 170.26,-69.52 166.89,-63.39"/>
<text text-anchor="middle" x="182.97" y="-64.95" font-family="Arial" font-size="14.00">a</text>
</g>
<!-- FA&#45;&gt;B -->
<g id="edge8" class="edge">
<title>FA&#45;&gt;B</title>
<path fill="none" stroke="black" d="M246.57,-65.19C257.15,-60.76 270.44,-55.19 281.99,-50.35"/>
<polygon fill="black" stroke="black" points="283.12,-53.67 290.99,-46.57 280.41,-47.21 283.12,-53.67"/>
<text text-anchor="middle" x="269.72" y="-58.7" font-family="Arial" font-size="14.00">b</text>
</g>
<!-- FB&#45;&gt;XB -->
<g id="edge9" class="edge">
<title>FB&#45;&gt;XB</title>
<path fill="none" stroke="black" d="M476.82,-20.39C468.15,-8.51 455.32,3.67 441.46,-1.5 435.09,-3.87 429.02,-7.64 423.56,-11.9"/>
<polygon fill="black" stroke="black" points="421.36,-9.18 416.11,-18.38 425.95,-14.46 421.36,-9.18"/>
<text text-anchor="middle" x="445.21" y="-3.95" font-family="Arial" font-size="14.00">d</text>
</g>
</g>
</svg>
