<?xml version="1.0" encoding="UTF-8" standalone="no"?>
<!DOCTYPE svg PUBLIC "-//W3C//DTD SVG 1.1//EN"
 "http://www.w3.org/Graphics/SVG/1.1/DTD/svg11.dtd">
<!-- Generated by graphviz version 12.2.1 (20241206.2353)
 -->
<!-- Title: A&#45;B&#45;Spec&#45;Eventually&#45;B Pages: 1 -->
<svg width="169pt" height="149pt"
 viewBox="0.00 0.00 169.22 149.25" xmlns="http://www.w3.org/2000/svg" xmlns:xlink="http://www.w3.org/1999/xlink">
<g id="graph0" class="graph" transform="scale(1 1) rotate(0) translate(4 145.25)">
<title>A&#45;B&#45;Spec&#45;Eventually&#45;B</title>
<!-- dot_dummyinit_1 -->
<g id="node1" class="node">
<title>dot_dummyinit_1</title>
</g>
<!-- A -->
<g id="node2" class="node">
<title>A</title>
<ellipse fill="none" stroke="black" cx="55.72" cy="-22" rx="18" ry="18"/>
<text text-anchor="middle" x="55.72" y="-16.57" font-family="Arial" font-size="14.00">A</text>
</g>
<!-- dot_dummyinit_1&#45;&gt;A -->
<g id="edge1" class="edge">
<title>dot_dummyinit_1&#45;&gt;A</title>
<path fill="none" stroke="black" d="M0.87,-22C2.34,-22 13.93,-22 25.99,-22"/>
<polygon fill="black" stroke="black" points="25.86,-25.5 35.86,-22 25.86,-18.5 25.86,-25.5"/>
</g>
<!-- A&#45;&gt;A -->
<g id="edge2" class="edge">
<title>A&#45;&gt;A</title>
<path fill="none" stroke="black" d="M53.52,-40.15C53.18,-49.54 53.91,-58 55.72,-58 56.71,-58 57.37,-55.47 57.72,-51.64"/>
<polygon fill="black" stroke="black" points="61.22,-51.73 57.89,-41.67 54.22,-51.6 61.22,-51.73"/>
<text text-anchor="middle" x="55.72" y="-60.45" font-family="Arial" font-size="14.00">a</text>
</g>
<!-- A&#45;&gt;A -->
<g id="edge4" class="edge">
<title>A&#45;&gt;A</title>
<path fill="none" stroke="black" d="M52.06,-39.98C50.1,-57.2 51.32,-76 55.72,-76 59.15,-76 60.65,-64.53 60.21,-51.29"/>
<polygon fill="black" stroke="black" points="63.71,-51.21 59.49,-41.49 56.73,-51.72 63.71,-51.21"/>
<text text-anchor="middle" x="55.72" y="-78.45" font-family="Arial" font-size="14.00">c</text>
</g>
<!-- A&#45;&gt;A -->
<g id="edge5" class="edge">
<title>A&#45;&gt;A</title>
<path fill="none" stroke="black" d="M51.16,-39.72C47,-64.11 48.52,-94 55.72,-94 61.82,-94 63.84,-72.53 61.78,-51.12"/>
<polygon fill="black" stroke="black" points="65.25,-50.67 60.47,-41.22 58.31,-51.59 65.25,-50.67"/>
<text text-anchor="middle" x="55.72" y="-96.45" font-family="Arial" font-size="14.00">d</text>
</g>
<!-- B -->
<g id="node3" class="node">
<title>B</title>
<ellipse fill="none" stroke="black" cx="139.22" cy="-22" rx="18" ry="18"/>
<ellipse fill="none" stroke="black" cx="139.22" cy="-22" rx="22" ry="22"/>
<text text-anchor="middle" x="139.22" y="-16.57" font-family="Arial" font-size="14.00">B</text>
</g>
<!-- A&#45;&gt;B -->
<g id="edge3" class="edge">
<title>A&#45;&gt;B</title>
<path fill="none" stroke="black" d="M74,-22C83.2,-22 94.82,-22 105.63,-22"/>
<polygon fill="black" stroke="black" points="105.39,-25.5 115.39,-22 105.39,-18.5 105.39,-25.5"/>
<text text-anchor="middle" x="95.47" y="-24.45" font-family="Arial" font-size="14.00">b</text>
</g>
<!-- B&#45;&gt;A -->
<g id="edge7" class="edge">
<title>B&#45;&gt;A</title>
<path fill="none" stroke="black" d="M121.41,-8.94C112.75,-3.75 101.9,0.42 91.72,-2.25 88.08,-3.21 84.41,-4.64 80.9,-6.3"/>
<polygon fill="black" stroke="black" points="79.39,-3.14 72.31,-11.02 82.76,-9.28 79.39,-3.14"/>
<text text-anchor="middle" x="95.47" y="-4.7" font-family="Arial" font-size="14.00">c</text>
</g>
<!-- B&#45;&gt;B -->
<g id="edge6" class="edge">
<title>B&#45;&gt;B</title>
<path fill="none" stroke="black" d="M135.18,-43.81C134.8,-53.56 136.14,-62 139.22,-62 140.95,-62 142.13,-59.33 142.77,-55.26"/>
<polygon fill="black" stroke="black" points="146.26,-55.46 143.19,-45.32 139.27,-55.16 146.26,-55.46"/>
<text text-anchor="middle" x="139.22" y="-64.45" font-family="Arial" font-size="14.00">b</text>
</g>
<!-- B&#45;&gt;B -->
<g id="edge8" class="edge">
<title>B&#45;&gt;B</title>
<path fill="none" stroke="black" d="M132.32,-43.11C129.27,-61.1 131.57,-80 139.22,-80 145.25,-80 147.96,-68.23 147.34,-54.43"/>
<polygon fill="black" stroke="black" points="150.83,-54.19 146.28,-44.62 143.87,-54.94 150.83,-54.19"/>
<text text-anchor="middle" x="139.22" y="-82.45" font-family="Arial" font-size="14.00">d</text>
</g>
</g>
</svg>
