<?xml version="1.0" encoding="UTF-8" standalone="no"?>
<!DOCTYPE svg PUBLIC "-//W3C//DTD SVG 1.1//EN"
 "http://www.w3.org/Graphics/SVG/1.1/DTD/svg11.dtd">
<!-- Generated by graphviz version 2.43.0 (0)
 -->
<!-- Title: G Pages: 1 -->
<svg width="701pt" height="189pt"
 viewBox="0.00 0.00 701.47 188.85" xmlns="http://www.w3.org/2000/svg" xmlns:xlink="http://www.w3.org/1999/xlink">
<g id="graph0" class="graph" transform="scale(1 1) rotate(0) translate(4 184.85)">
<title>G</title>
<!-- dot_dummyinit_1 -->
<g id="node1" class="node">
<title>dot_dummyinit_1</title>
</g>
<!-- s1 -->
<g id="node2" class="node">
<title>s1</title>
<ellipse fill="none" stroke="black" cx="58.15" cy="-64.15" rx="20.3" ry="20.3"/>
<text text-anchor="middle" x="58.15" y="-60.45" font-family="Arial" font-size="14.00">s1</text>
</g>
<!-- dot_dummyinit_1&#45;&gt;s1 -->
<g id="edge1" class="edge">
<title>dot_dummyinit_1&#45;&gt;s1</title>
<path fill="none" stroke="black" d="M1.16,-64.15C2.7,-64.15 15.09,-64.15 27.82,-64.15"/>
<polygon fill="black" stroke="black" points="27.9,-67.65 37.9,-64.15 27.9,-60.65 27.9,-67.65"/>
</g>
<!-- s2 -->
<g id="node3" class="node">
<title>s2</title>
<ellipse fill="none" stroke="black" cx="146.44" cy="-64.15" rx="20.27" ry="20.27"/>
<ellipse fill="none" stroke="black" cx="146.44" cy="-64.15" rx="24.3" ry="24.3"/>
<text text-anchor="middle" x="146.44" y="-60.45" font-family="Arial" font-size="14.00">s2</text>
</g>
<!-- s1&#45;&gt;s2 -->
<g id="edge2" class="edge">
<title>s1&#45;&gt;s2</title>
<path fill="none" stroke="black" d="M78.3,-64.15C88.18,-64.15 100.53,-64.15 111.93,-64.15"/>
<polygon fill="black" stroke="black" points="112.04,-67.65 122.04,-64.15 112.04,-60.65 112.04,-67.65"/>
<text text-anchor="middle" x="100.3" y="-67.95" font-family="Arial" font-size="14.00">a</text>
</g>
<!-- s2&#45;&gt;s1 -->
<g id="edge4" class="edge">
<title>s2&#45;&gt;s1</title>
<path fill="none" stroke="black" d="M126.21,-50.84C117.29,-46.21 106.44,-42.71 96.3,-45.15 92.37,-46.09 88.39,-47.53 84.56,-49.2"/>
<polygon fill="black" stroke="black" points="82.92,-46.11 75.51,-53.67 86.02,-52.38 82.92,-46.11"/>
<text text-anchor="middle" x="100.3" y="-48.95" font-family="Arial" font-size="14.00">b</text>
</g>
<!-- s3 -->
<g id="node5" class="node">
<title>s3</title>
<ellipse fill="none" stroke="black" cx="234.74" cy="-64.15" rx="20.3" ry="20.3"/>
<text text-anchor="middle" x="234.74" y="-60.45" font-family="Arial" font-size="14.00">s3</text>
</g>
<!-- s2&#45;&gt;s3 -->
<g id="edge3" class="edge">
<title>s2&#45;&gt;s3</title>
<path fill="none" stroke="black" d="M171.03,-64.15C181.28,-64.15 193.41,-64.15 204.25,-64.15"/>
<polygon fill="black" stroke="black" points="204.55,-67.65 214.55,-64.15 204.55,-60.65 204.55,-67.65"/>
<text text-anchor="middle" x="192.59" y="-67.95" font-family="Arial" font-size="14.00">a</text>
</g>
<!-- s9 -->
<g id="node4" class="node">
<title>s9</title>
<ellipse fill="none" stroke="black" cx="491.63" cy="-95.15" rx="20.27" ry="20.27"/>
<ellipse fill="none" stroke="black" cx="491.63" cy="-95.15" rx="24.3" ry="24.3"/>
<text text-anchor="middle" x="491.63" y="-91.45" font-family="Arial" font-size="14.00">s9</text>
</g>
<!-- s10 -->
<g id="node11" class="node">
<title>s10</title>
<ellipse fill="none" stroke="black" cx="584.48" cy="-156.15" rx="24.9" ry="24.9"/>
<text text-anchor="middle" x="584.48" y="-152.45" font-family="Arial" font-size="14.00">s10</text>
</g>
<!-- s9&#45;&gt;s10 -->
<g id="edge13" class="edge">
<title>s9&#45;&gt;s10</title>
<path fill="none" stroke="black" d="M512.34,-108.38C524.76,-116.72 540.99,-127.62 554.82,-136.9"/>
<polygon fill="black" stroke="black" points="553.24,-140.06 563.49,-142.73 557.14,-134.25 553.24,-140.06"/>
<text text-anchor="middle" x="537.78" y="-130.95" font-family="Arial" font-size="14.00">a</text>
</g>
<!-- s11 -->
<g id="node12" class="node">
<title>s11</title>
<ellipse fill="none" stroke="black" cx="584.48" cy="-89.15" rx="24.9" ry="24.9"/>
<text text-anchor="middle" x="584.48" y="-85.45" font-family="Arial" font-size="14.00">s11</text>
</g>
<!-- s9&#45;&gt;s11 -->
<g id="edge14" class="edge">
<title>s9&#45;&gt;s11</title>
<path fill="none" stroke="black" d="M516.03,-93.6C526.14,-92.93 538.19,-92.14 549.28,-91.41"/>
<polygon fill="black" stroke="black" points="549.78,-94.88 559.53,-90.73 549.32,-87.9 549.78,-94.88"/>
<text text-anchor="middle" x="537.78" y="-96.95" font-family="Arial" font-size="14.00">b</text>
</g>
<!-- s4 -->
<g id="node6" class="node">
<title>s4</title>
<ellipse fill="none" stroke="black" cx="319.04" cy="-64.15" rx="20.3" ry="20.3"/>
<text text-anchor="middle" x="319.04" y="-60.45" font-family="Arial" font-size="14.00">s4</text>
</g>
<!-- s3&#45;&gt;s4 -->
<g id="edge5" class="edge">
<title>s3&#45;&gt;s4</title>
<path fill="none" stroke="black" d="M255.24,-64.15C265.19,-64.15 277.48,-64.15 288.55,-64.15"/>
<polygon fill="black" stroke="black" points="288.67,-67.65 298.67,-64.15 288.67,-60.65 288.67,-67.65"/>
<text text-anchor="middle" x="276.89" y="-67.95" font-family="Arial" font-size="14.00">c</text>
</g>
<!-- s4&#45;&gt;s3 -->
<g id="edge7" class="edge">
<title>s4&#45;&gt;s3</title>
<path fill="none" stroke="black" d="M301.68,-53.67C295.43,-50.25 288.07,-46.88 280.89,-45.15 274,-43.49 266.81,-44.92 260.25,-47.61"/>
<polygon fill="black" stroke="black" points="258.51,-44.57 251.2,-52.23 261.69,-50.8 258.51,-44.57"/>
<text text-anchor="middle" x="276.89" y="-48.95" font-family="Arial" font-size="14.00">d</text>
</g>
<!-- s5 -->
<g id="node7" class="node">
<title>s5</title>
<ellipse fill="none" stroke="black" cx="403.33" cy="-64.15" rx="20.3" ry="20.3"/>
<text text-anchor="middle" x="403.33" y="-60.45" font-family="Arial" font-size="14.00">s5</text>
</g>
<!-- s4&#45;&gt;s5 -->
<g id="edge6" class="edge">
<title>s4&#45;&gt;s5</title>
<path fill="none" stroke="black" d="M339.54,-64.15C349.48,-64.15 361.78,-64.15 372.85,-64.15"/>
<polygon fill="black" stroke="black" points="372.97,-67.65 382.97,-64.15 372.97,-60.65 372.97,-67.65"/>
<text text-anchor="middle" x="361.19" y="-67.95" font-family="Arial" font-size="14.00">b</text>
</g>
<!-- s5&#45;&gt;s9 -->
<g id="edge9" class="edge">
<title>s5&#45;&gt;s9</title>
<path fill="none" stroke="black" d="M422.64,-70.72C433.25,-74.54 446.92,-79.45 459.21,-83.86"/>
<polygon fill="black" stroke="black" points="458.09,-87.18 468.69,-87.27 460.46,-80.59 458.09,-87.18"/>
<text text-anchor="middle" x="445.48" y="-83.95" font-family="Arial" font-size="14.00">b</text>
</g>
<!-- s6 -->
<g id="node8" class="node">
<title>s6</title>
<ellipse fill="none" stroke="black" cx="491.63" cy="-33.15" rx="20.3" ry="20.3"/>
<text text-anchor="middle" x="491.63" y="-29.45" font-family="Arial" font-size="14.00">s6</text>
</g>
<!-- s5&#45;&gt;s6 -->
<g id="edge8" class="edge">
<title>s5&#45;&gt;s6</title>
<path fill="none" stroke="black" d="M422.64,-57.57C434.31,-53.38 449.65,-47.87 462.81,-43.14"/>
<polygon fill="black" stroke="black" points="464.13,-46.39 472.36,-39.71 461.76,-39.8 464.13,-46.39"/>
<text text-anchor="middle" x="445.48" y="-54.95" font-family="Arial" font-size="14.00">a</text>
</g>
<!-- s7 -->
<g id="node9" class="node">
<title>s7</title>
<ellipse fill="none" stroke="black" cx="584.48" cy="-20.15" rx="20.3" ry="20.3"/>
<text text-anchor="middle" x="584.48" y="-16.45" font-family="Arial" font-size="14.00">s7</text>
</g>
<!-- s6&#45;&gt;s7 -->
<g id="edge10" class="edge">
<title>s6&#45;&gt;s7</title>
<path fill="none" stroke="black" d="M511.9,-30.39C524.18,-28.63 540.34,-26.32 554.19,-24.34"/>
<polygon fill="black" stroke="black" points="554.83,-27.78 564.24,-22.9 553.84,-20.85 554.83,-27.78"/>
<text text-anchor="middle" x="537.78" y="-30.95" font-family="Arial" font-size="14.00">b</text>
</g>
<!-- s7&#45;&gt;s6 -->
<g id="edge11" class="edge">
<title>s7&#45;&gt;s6</title>
<path fill="none" stroke="black" d="M565.92,-11.5C556.37,-7.9 544.38,-5.18 533.78,-8.15 527.9,-9.79 522.03,-12.54 516.63,-15.61"/>
<polygon fill="black" stroke="black" points="514.7,-12.69 508.1,-20.98 518.43,-18.62 514.7,-12.69"/>
<text text-anchor="middle" x="537.78" y="-11.95" font-family="Arial" font-size="14.00">a</text>
</g>
<!-- s8 -->
<g id="node10" class="node">
<title>s8</title>
<ellipse fill="none" stroke="black" cx="673.32" cy="-20.15" rx="20.3" ry="20.3"/>
<text text-anchor="middle" x="673.32" y="-16.45" font-family="Arial" font-size="14.00">s8</text>
</g>
<!-- s7&#45;&gt;s8 -->
<g id="edge12" class="edge">
<title>s7&#45;&gt;s8</title>
<path fill="none" stroke="black" d="M604.75,-20.15C615.99,-20.15 630.4,-20.15 643.03,-20.15"/>
<polygon fill="black" stroke="black" points="643.1,-23.65 653.1,-20.15 643.1,-16.65 643.1,-23.65"/>
<text text-anchor="middle" x="631.17" y="-23.95" font-family="Arial" font-size="14.00">a</text>
</g>
</g>
</svg>
