<?xml version="1.0" encoding="UTF-8" standalone="no"?>
<!DOCTYPE svg PUBLIC "-//W3C//DTD SVG 1.1//EN"
 "http://www.w3.org/Graphics/SVG/1.1/DTD/svg11.dtd">
<!-- Generated by graphviz version 2.43.0 (0)
 -->
<!-- Title: SupBuechiCon((wPlant2),(wSpec2)) Pages: 1 -->
<svg width="720pt" height="226pt"
 viewBox="0.00 0.00 720.00 225.90" xmlns="http://www.w3.org/2000/svg" xmlns:xlink="http://www.w3.org/1999/xlink">
<g id="graph0" class="graph" transform="scale(1.95 1.95) rotate(0) translate(4 437)">
<title>SupBuechiCon((wPlant2),(wSpec2))</title>
<!-- dot_dummyinit_1 -->
<g id="node1" class="node">
<title>dot_dummyinit_1</title>
</g>
<!-- 1 -->
<g id="node2" class="node">
<title>1</title>
<ellipse fill="none" stroke="black" cx="56" cy="-177" rx="18" ry="18"/>
<text text-anchor="middle" x="56" y="-173.3" font-family="Arial" font-size="14.00">1</text>
</g>
<!-- dot_dummyinit_1&#45;&gt;1 -->
<g id="edge1" class="edge">
<title>dot_dummyinit_1&#45;&gt;1</title>
<path fill="none" stroke="black" d="M1.15,-177C2.67,-177 15.1,-177 27.63,-177"/>
<polygon fill="black" stroke="black" points="27.94,-180.5 37.94,-177 27.94,-173.5 27.94,-180.5"/>
</g>
<!-- 2 -->
<g id="node5" class="node">
<title>2</title>
<ellipse fill="none" stroke="black" cx="136" cy="-251" rx="18" ry="18"/>
<text text-anchor="middle" x="136" y="-247.3" font-family="Arial" font-size="14.00">2</text>
</g>
<!-- 1&#45;&gt;2 -->
<g id="edge2" class="edge">
<title>1&#45;&gt;2</title>
<path fill="none" stroke="black" d="M69.53,-188.89C81.74,-200.47 100.5,-218.27 114.82,-231.85"/>
<polygon fill="black" stroke="black" points="112.58,-234.55 122.24,-238.89 117.39,-229.47 112.58,-234.55"/>
<text text-anchor="middle" x="96" y="-220.8" font-family="Arial" font-size="14.00">a</text>
</g>
<!-- 3 -->
<g id="node6" class="node">
<title>3</title>
<ellipse fill="none" stroke="black" cx="190" cy="-83" rx="18" ry="18"/>
<text text-anchor="middle" x="190" y="-79.3" font-family="Arial" font-size="14.00">3</text>
</g>
<!-- 1&#45;&gt;3 -->
<g id="edge3" class="edge">
<title>1&#45;&gt;3</title>
<path fill="none" stroke="black" d="M71.13,-166.94C94.05,-150.61 139.53,-118.23 166.81,-98.8"/>
<polygon fill="black" stroke="black" points="168.86,-101.64 174.98,-92.99 164.8,-95.94 168.86,-101.64"/>
<text text-anchor="middle" x="96" y="-155.8" font-family="Arial" font-size="14.00">b</text>
</g>
<!-- 8 -->
<g id="node3" class="node">
<title>8</title>
<ellipse fill="none" stroke="black" cx="1119.77" cy="-255" rx="18" ry="18"/>
<ellipse fill="none" stroke="black" cx="1119.77" cy="-255" rx="22" ry="22"/>
<text text-anchor="middle" x="1119.77" y="-251.3" font-family="Arial" font-size="14.00">8</text>
</g>
<!-- 9 -->
<g id="node11" class="node">
<title>9</title>
<ellipse fill="none" stroke="black" cx="1205.57" cy="-134" rx="18" ry="18"/>
<text text-anchor="middle" x="1205.57" y="-130.3" font-family="Arial" font-size="14.00">9</text>
</g>
<!-- 8&#45;&gt;9 -->
<g id="edge12" class="edge">
<title>8&#45;&gt;9</title>
<path fill="none" stroke="black" d="M1133.14,-237.15C1147.91,-215.81 1172.66,-180.08 1188.79,-156.78"/>
<polygon fill="black" stroke="black" points="1191.7,-158.72 1194.52,-148.51 1185.95,-154.74 1191.7,-158.72"/>
<text text-anchor="middle" x="1163.27" y="-202.8" font-family="Arial" font-size="14.00">c</text>
</g>
<!-- 10 -->
<g id="node12" class="node">
<title>10</title>
<ellipse fill="none" stroke="black" cx="1205.57" cy="-261" rx="20.6" ry="20.6"/>
<text text-anchor="middle" x="1205.57" y="-257.3" font-family="Arial" font-size="14.00">10</text>
</g>
<!-- 8&#45;&gt;10 -->
<g id="edge13" class="edge">
<title>8&#45;&gt;10</title>
<path fill="none" stroke="black" d="M1141.92,-256.51C1151.73,-257.22 1163.59,-258.07 1174.33,-258.83"/>
<polygon fill="black" stroke="black" points="1174.36,-262.35 1184.58,-259.57 1174.86,-255.36 1174.36,-262.35"/>
<text text-anchor="middle" x="1163.27" y="-261.8" font-family="Arial" font-size="14.00">f</text>
</g>
<!-- 13 -->
<g id="node4" class="node">
<title>13</title>
<ellipse fill="none" stroke="black" cx="503.59" cy="-239" rx="20.63" ry="20.63"/>
<ellipse fill="none" stroke="black" cx="503.59" cy="-239" rx="24.6" ry="24.6"/>
<text text-anchor="middle" x="503.59" y="-235.3" font-family="Arial" font-size="14.00">13</text>
</g>
<!-- 14 -->
<g id="node15" class="node">
<title>14</title>
<ellipse fill="none" stroke="black" cx="593.18" cy="-162" rx="20.6" ry="20.6"/>
<text text-anchor="middle" x="593.18" y="-158.3" font-family="Arial" font-size="14.00">14</text>
</g>
<!-- 13&#45;&gt;14 -->
<g id="edge20" class="edge">
<title>13&#45;&gt;14</title>
<path fill="none" stroke="black" d="M522.74,-223.05C536.27,-211.15 554.84,-194.83 569.37,-182.05"/>
<polygon fill="black" stroke="black" points="571.78,-184.6 576.98,-175.37 567.15,-179.34 571.78,-184.6"/>
<text text-anchor="middle" x="550.39" y="-204.8" font-family="Arial" font-size="14.00">d</text>
</g>
<!-- 15 -->
<g id="node16" class="node">
<title>15</title>
<ellipse fill="none" stroke="black" cx="674.78" cy="-252" rx="20.6" ry="20.6"/>
<text text-anchor="middle" x="674.78" y="-248.3" font-family="Arial" font-size="14.00">15</text>
</g>
<!-- 13&#45;&gt;15 -->
<g id="edge21" class="edge">
<title>13&#45;&gt;15</title>
<path fill="none" stroke="black" d="M528.47,-240.84C558.67,-243.16 610.68,-247.15 643.6,-249.68"/>
<polygon fill="black" stroke="black" points="643.73,-253.2 653.97,-250.48 644.27,-246.22 643.73,-253.2"/>
<text text-anchor="middle" x="593.18" y="-251.8" font-family="Arial" font-size="14.00">f</text>
</g>
<!-- 19 -->
<g id="node20" class="node">
<title>19</title>
<ellipse fill="none" stroke="black" cx="246.8" cy="-334" rx="20.6" ry="20.6"/>
<text text-anchor="middle" x="246.8" y="-330.3" font-family="Arial" font-size="14.00">19</text>
</g>
<!-- 2&#45;&gt;19 -->
<g id="edge4" class="edge">
<title>2&#45;&gt;19</title>
<path fill="none" stroke="black" d="M150.78,-261.51C168.55,-275.07 199.75,-298.87 221.53,-315.49"/>
<polygon fill="black" stroke="black" points="219.58,-318.4 229.66,-321.69 223.83,-312.84 219.58,-318.4"/>
<text text-anchor="middle" x="190" y="-307.8" font-family="Arial" font-size="14.00">c</text>
</g>
<!-- 4 -->
<g id="node7" class="node">
<title>4</title>
<ellipse fill="none" stroke="black" cx="876.77" cy="-153" rx="18" ry="18"/>
<text text-anchor="middle" x="876.77" y="-149.3" font-family="Arial" font-size="14.00">4</text>
</g>
<!-- 3&#45;&gt;4 -->
<g id="edge5" class="edge">
<title>3&#45;&gt;4</title>
<path fill="none" stroke="black" d="M205.55,-73.47C223.73,-62.51 256.16,-46 286.6,-46 286.6,-46 286.6,-46 504.59,-46 590.25,-46 613.22,-48.42 695.58,-72 753.8,-88.67 817.43,-120.88 851.31,-139.26"/>
<polygon fill="black" stroke="black" points="849.99,-142.53 860.44,-144.27 853.36,-136.39 849.99,-142.53"/>
<text text-anchor="middle" x="503.59" y="-49.8" font-family="Arial" font-size="14.00">d</text>
</g>
<!-- 4&#45;&gt;4 -->
<g id="edge6" class="edge">
<title>4&#45;&gt;4</title>
<path fill="none" stroke="black" d="M870.04,-170.04C868.66,-179.86 870.91,-189 876.77,-189 880.44,-189 882.69,-185.43 883.52,-180.35"/>
<polygon fill="black" stroke="black" points="887.02,-180.03 883.5,-170.04 880.02,-180.04 887.02,-180.03"/>
<text text-anchor="middle" x="876.77" y="-192.8" font-family="Arial" font-size="14.00">d</text>
</g>
<!-- 5 -->
<g id="node8" class="node">
<title>5</title>
<ellipse fill="none" stroke="black" cx="956.77" cy="-153" rx="18" ry="18"/>
<text text-anchor="middle" x="956.77" y="-149.3" font-family="Arial" font-size="14.00">5</text>
</g>
<!-- 4&#45;&gt;5 -->
<g id="edge7" class="edge">
<title>4&#45;&gt;5</title>
<path fill="none" stroke="black" d="M895.08,-153C904.88,-153 917.35,-153 928.44,-153"/>
<polygon fill="black" stroke="black" points="928.51,-156.5 938.51,-153 928.51,-149.5 928.51,-156.5"/>
<text text-anchor="middle" x="916.77" y="-156.8" font-family="Arial" font-size="14.00">f</text>
</g>
<!-- 6 -->
<g id="node9" class="node">
<title>6</title>
<ellipse fill="none" stroke="black" cx="1036.77" cy="-240" rx="18" ry="18"/>
<text text-anchor="middle" x="1036.77" y="-236.3" font-family="Arial" font-size="14.00">6</text>
</g>
<!-- 5&#45;&gt;6 -->
<g id="edge8" class="edge">
<title>5&#45;&gt;6</title>
<path fill="none" stroke="black" d="M969.62,-166.21C982.29,-180.35 1002.55,-202.95 1017.32,-219.42"/>
<polygon fill="black" stroke="black" points="1014.79,-221.84 1024.07,-226.95 1020,-217.17 1014.79,-221.84"/>
<text text-anchor="middle" x="996.77" y="-203.8" font-family="Arial" font-size="14.00">a</text>
</g>
<!-- 7 -->
<g id="node10" class="node">
<title>7</title>
<ellipse fill="none" stroke="black" cx="760.38" cy="-147" rx="18" ry="18"/>
<text text-anchor="middle" x="760.38" y="-143.3" font-family="Arial" font-size="14.00">7</text>
</g>
<!-- 5&#45;&gt;7 -->
<g id="edge9" class="edge">
<title>5&#45;&gt;7</title>
<path fill="none" stroke="black" d="M942.99,-140.71C931.44,-130.52 913.43,-116.8 894.77,-111 856.62,-99.14 811.65,-117.95 784.88,-132.54"/>
<polygon fill="black" stroke="black" points="782.85,-129.67 775.89,-137.66 786.31,-135.75 782.85,-129.67"/>
<text text-anchor="middle" x="876.77" y="-114.8" font-family="Arial" font-size="14.00">b</text>
</g>
<!-- 6&#45;&gt;8 -->
<g id="edge10" class="edge">
<title>6&#45;&gt;8</title>
<path fill="none" stroke="black" d="M1054.55,-243.11C1064.2,-244.9 1076.63,-247.2 1087.97,-249.3"/>
<polygon fill="black" stroke="black" points="1087.51,-252.77 1097.98,-251.15 1088.78,-245.89 1087.51,-252.77"/>
<text text-anchor="middle" x="1076.27" y="-251.8" font-family="Arial" font-size="14.00">c</text>
</g>
<!-- 7&#45;&gt;4 -->
<g id="edge11" class="edge">
<title>7&#45;&gt;4</title>
<path fill="none" stroke="black" d="M778.75,-147.91C797.25,-148.88 826.79,-150.43 848.41,-151.57"/>
<polygon fill="black" stroke="black" points="848.44,-155.07 858.61,-152.1 848.8,-148.08 848.44,-155.07"/>
<text text-anchor="middle" x="819.97" y="-155.8" font-family="Arial" font-size="14.00">d</text>
</g>
<!-- 9&#45;&gt;9 -->
<g id="edge14" class="edge">
<title>9&#45;&gt;9</title>
<path fill="none" stroke="black" d="M1198.19,-150.66C1196.55,-160.62 1199.01,-170 1205.57,-170 1209.77,-170 1212.29,-166.15 1213.13,-160.77"/>
<polygon fill="black" stroke="black" points="1216.63,-160.6 1212.95,-150.66 1209.63,-160.72 1216.63,-160.6"/>
<text text-anchor="middle" x="1205.57" y="-173.8" font-family="Arial" font-size="14.00">c</text>
</g>
<!-- 23 -->
<g id="node24" class="node">
<title>23</title>
<ellipse fill="none" stroke="black" cx="1291.16" cy="-67" rx="20.6" ry="20.6"/>
<text text-anchor="middle" x="1291.16" y="-63.3" font-family="Arial" font-size="14.00">23</text>
</g>
<!-- 9&#45;&gt;23 -->
<g id="edge15" class="edge">
<title>9&#45;&gt;23</title>
<path fill="none" stroke="black" d="M1220,-123.24C1232.54,-113.19 1251.53,-97.97 1266.59,-85.89"/>
<polygon fill="black" stroke="black" points="1268.87,-88.55 1274.49,-79.56 1264.5,-83.09 1268.87,-88.55"/>
<text text-anchor="middle" x="1248.37" y="-106.8" font-family="Arial" font-size="14.00">f</text>
</g>
<!-- 11 -->
<g id="node13" class="node">
<title>11</title>
<ellipse fill="none" stroke="black" cx="1291.16" cy="-358" rx="20.3" ry="20.3"/>
<text text-anchor="middle" x="1291.16" y="-354.3" font-family="Arial" font-size="14.00">11</text>
</g>
<!-- 10&#45;&gt;11 -->
<g id="edge16" class="edge">
<title>10&#45;&gt;11</title>
<path fill="none" stroke="black" d="M1220,-276.58C1233.69,-292.47 1255.06,-317.27 1270.62,-335.33"/>
<polygon fill="black" stroke="black" points="1268.14,-337.8 1277.32,-343.09 1273.44,-333.23 1268.14,-337.8"/>
<text text-anchor="middle" x="1248.37" y="-315.8" font-family="Arial" font-size="14.00">a</text>
</g>
<!-- 12 -->
<g id="node14" class="node">
<title>12</title>
<ellipse fill="none" stroke="black" cx="1291.16" cy="-274" rx="20.6" ry="20.6"/>
<text text-anchor="middle" x="1291.16" y="-270.3" font-family="Arial" font-size="14.00">12</text>
</g>
<!-- 10&#45;&gt;12 -->
<g id="edge17" class="edge">
<title>10&#45;&gt;12</title>
<path fill="none" stroke="black" d="M1226.75,-260.2C1234.77,-260.21 1244.05,-260.62 1252.37,-262 1255.46,-262.51 1258.65,-263.22 1261.8,-264.05"/>
<polygon fill="black" stroke="black" points="1261,-267.46 1271.58,-266.94 1262.99,-260.75 1261,-267.46"/>
<text text-anchor="middle" x="1248.37" y="-265.8" font-family="Arial" font-size="14.00">b</text>
</g>
<!-- 11&#45;&gt;19 -->
<g id="edge18" class="edge">
<title>11&#45;&gt;19</title>
<path fill="none" stroke="black" d="M1271.79,-363.95C1255,-368.85 1229.38,-375 1206.57,-375 327.39,-375 327.39,-375 327.39,-375 306.86,-375 286.33,-364.09 271.26,-353.52"/>
<polygon fill="black" stroke="black" points="273.18,-350.58 263.06,-347.42 269,-356.2 273.18,-350.58"/>
<text text-anchor="middle" x="760.38" y="-378.8" font-family="Arial" font-size="14.00">c</text>
</g>
<!-- 12&#45;&gt;13 -->
<g id="edge19" class="edge">
<title>12&#45;&gt;13</title>
<path fill="none" stroke="black" d="M1278.16,-290.77C1271.42,-299.11 1262.37,-308.71 1252.37,-315 1234.35,-326.33 1227.85,-329 1206.57,-329 592.18,-329 592.18,-329 592.18,-329 558.64,-329 533.77,-296.49 519.27,-270.55"/>
<polygon fill="black" stroke="black" points="522.36,-268.9 514.58,-261.71 516.18,-272.18 522.36,-268.9"/>
<text text-anchor="middle" x="916.77" y="-332.8" font-family="Arial" font-size="14.00">d</text>
</g>
<!-- 14&#45;&gt;14 -->
<g id="edge22" class="edge">
<title>14&#45;&gt;14</title>
<path fill="none" stroke="black" d="M585.95,-181.56C584.83,-191.68 587.25,-200.8 593.18,-200.8 596.99,-200.8 599.34,-197.06 600.25,-191.71"/>
<polygon fill="black" stroke="black" points="603.76,-191.62 600.42,-181.56 596.76,-191.51 603.76,-191.62"/>
<text text-anchor="middle" x="593.18" y="-204.6" font-family="Arial" font-size="14.00">d</text>
</g>
<!-- 18 -->
<g id="node19" class="node">
<title>18</title>
<ellipse fill="none" stroke="black" cx="674.78" cy="-162" rx="20.6" ry="20.6"/>
<text text-anchor="middle" x="674.78" y="-158.3" font-family="Arial" font-size="14.00">18</text>
</g>
<!-- 14&#45;&gt;18 -->
<g id="edge23" class="edge">
<title>14&#45;&gt;18</title>
<path fill="none" stroke="black" d="M614.27,-162C623.2,-162 633.9,-162 643.75,-162"/>
<polygon fill="black" stroke="black" points="643.98,-165.5 653.98,-162 643.98,-158.5 643.98,-165.5"/>
<text text-anchor="middle" x="633.98" y="-165.8" font-family="Arial" font-size="14.00">f</text>
</g>
<!-- 16 -->
<g id="node17" class="node">
<title>16</title>
<ellipse fill="none" stroke="black" cx="819.97" cy="-288" rx="20.6" ry="20.6"/>
<text text-anchor="middle" x="819.97" y="-284.3" font-family="Arial" font-size="14.00">16</text>
</g>
<!-- 15&#45;&gt;16 -->
<g id="edge24" class="edge">
<title>15&#45;&gt;16</title>
<path fill="none" stroke="black" d="M694,-260C700.14,-262.49 707.08,-265.08 713.58,-267 738.68,-274.42 767.92,-280.01 789.23,-283.55"/>
<polygon fill="black" stroke="black" points="788.86,-287.04 799.29,-285.17 789.97,-280.13 788.86,-287.04"/>
<text text-anchor="middle" x="717.58" y="-272.8" font-family="Arial" font-size="14.00">a</text>
</g>
<!-- 17 -->
<g id="node18" class="node">
<title>17</title>
<ellipse fill="none" stroke="black" cx="760.38" cy="-242" rx="20.6" ry="20.6"/>
<text text-anchor="middle" x="760.38" y="-238.3" font-family="Arial" font-size="14.00">17</text>
</g>
<!-- 15&#45;&gt;17 -->
<g id="edge25" class="edge">
<title>15&#45;&gt;17</title>
<path fill="none" stroke="black" d="M695.59,-249.63C705.79,-248.41 718.44,-246.9 729.77,-245.54"/>
<polygon fill="black" stroke="black" points="730.19,-249.02 739.71,-244.35 729.36,-242.07 730.19,-249.02"/>
<text text-anchor="middle" x="717.58" y="-251.8" font-family="Arial" font-size="14.00">b</text>
</g>
<!-- 16&#45;&gt;8 -->
<g id="edge26" class="edge">
<title>16&#45;&gt;8</title>
<path fill="none" stroke="black" d="M840.94,-287.33C860.13,-286.75 889.93,-286 915.77,-286 915.77,-286 915.77,-286 1037.77,-286 1056.6,-286 1076.36,-278.6 1091.65,-271.04"/>
<polygon fill="black" stroke="black" points="1093.32,-274.11 1100.54,-266.37 1090.06,-267.92 1093.32,-274.11"/>
<text text-anchor="middle" x="956.77" y="-289.8" font-family="Arial" font-size="14.00">c</text>
</g>
<!-- 17&#45;&gt;4 -->
<g id="edge27" class="edge">
<title>17&#45;&gt;4</title>
<path fill="none" stroke="black" d="M777.28,-229.62C797.31,-214.04 831.82,-187.2 854.21,-169.78"/>
<polygon fill="black" stroke="black" points="856.4,-172.51 862.14,-163.6 852.1,-166.98 856.4,-172.51"/>
<text text-anchor="middle" x="819.97" y="-214.8" font-family="Arial" font-size="14.00">d</text>
</g>
<!-- 18&#45;&gt;6 -->
<g id="edge28" class="edge">
<title>18&#45;&gt;6</title>
<path fill="none" stroke="black" d="M694.96,-168.27C700.91,-170.17 707.5,-172.22 713.58,-174 777.7,-192.78 793.38,-199.27 858.77,-213 911.34,-224.03 973.58,-232.47 1008.49,-236.79"/>
<polygon fill="black" stroke="black" points="1008.47,-240.32 1018.82,-238.05 1009.31,-233.37 1008.47,-240.32"/>
<text text-anchor="middle" x="876.77" y="-223.8" font-family="Arial" font-size="14.00">a</text>
</g>
<!-- 18&#45;&gt;7 -->
<g id="edge29" class="edge">
<title>18&#45;&gt;7</title>
<path fill="none" stroke="black" d="M695.59,-158.45C706.64,-156.46 720.57,-153.96 732.58,-151.81"/>
<polygon fill="black" stroke="black" points="733.3,-155.23 742.53,-150.02 732.07,-148.34 733.3,-155.23"/>
<text text-anchor="middle" x="717.58" y="-158.8" font-family="Arial" font-size="14.00">b</text>
</g>
<!-- 19&#45;&gt;19 -->
<g id="edge30" class="edge">
<title>19&#45;&gt;19</title>
<path fill="none" stroke="black" d="M239.56,-353.56C238.45,-363.68 240.86,-372.8 246.8,-372.8 250.6,-372.8 252.96,-369.06 253.87,-363.71"/>
<polygon fill="black" stroke="black" points="257.37,-363.62 254.03,-353.56 250.37,-363.51 257.37,-363.62"/>
<text text-anchor="middle" x="246.8" y="-376.6" font-family="Arial" font-size="14.00">c</text>
</g>
<!-- 20 -->
<g id="node21" class="node">
<title>20</title>
<ellipse fill="none" stroke="black" cx="328.39" cy="-213" rx="20.6" ry="20.6"/>
<text text-anchor="middle" x="328.39" y="-209.3" font-family="Arial" font-size="14.00">20</text>
</g>
<!-- 19&#45;&gt;20 -->
<g id="edge31" class="edge">
<title>19&#45;&gt;20</title>
<path fill="none" stroke="black" d="M259.03,-316.92C272.49,-296.47 295.14,-262.04 310.65,-238.45"/>
<polygon fill="black" stroke="black" points="313.64,-240.27 316.22,-229.99 307.8,-236.42 313.64,-240.27"/>
<text text-anchor="middle" x="287.6" y="-276.8" font-family="Arial" font-size="14.00">f</text>
</g>
<!-- 21 -->
<g id="node22" class="node">
<title>21</title>
<ellipse fill="none" stroke="black" cx="1376.76" cy="-67" rx="20.6" ry="20.6"/>
<text text-anchor="middle" x="1376.76" y="-63.3" font-family="Arial" font-size="14.00">21</text>
</g>
<!-- 20&#45;&gt;21 -->
<g id="edge32" class="edge">
<title>20&#45;&gt;21</title>
<path fill="none" stroke="black" d="M337.68,-194.1C361.96,-141.97 438.28,0 549.39,0 549.39,0 549.39,0 1292.16,0 1319.87,0 1343.64,-22.68 1358.67,-41.65"/>
<polygon fill="black" stroke="black" points="1355.95,-43.86 1364.75,-49.75 1361.54,-39.65 1355.95,-43.86"/>
<text text-anchor="middle" x="876.77" y="-3.8" font-family="Arial" font-size="14.00">a</text>
</g>
<!-- 22 -->
<g id="node23" class="node">
<title>22</title>
<ellipse fill="none" stroke="black" cx="413.99" cy="-213" rx="20.6" ry="20.6"/>
<text text-anchor="middle" x="413.99" y="-209.3" font-family="Arial" font-size="14.00">22</text>
</g>
<!-- 20&#45;&gt;22 -->
<g id="edge33" class="edge">
<title>20&#45;&gt;22</title>
<path fill="none" stroke="black" d="M349.21,-213C359.23,-213 371.62,-213 382.8,-213"/>
<polygon fill="black" stroke="black" points="383.03,-216.5 393.03,-213 383.03,-209.5 383.03,-216.5"/>
<text text-anchor="middle" x="371.19" y="-216.8" font-family="Arial" font-size="14.00">b</text>
</g>
<!-- 21&#45;&gt;19 -->
<g id="edge34" class="edge">
<title>21&#45;&gt;19</title>
<path fill="none" stroke="black" d="M1375.3,-87.91C1373.06,-163.47 1360.44,-418 1292.16,-418 327.39,-418 327.39,-418 327.39,-418 296,-418 273.28,-386.7 260.33,-362.32"/>
<polygon fill="black" stroke="black" points="263.31,-360.44 255.7,-353.06 257.05,-363.57 263.31,-360.44"/>
<text text-anchor="middle" x="819.97" y="-421.8" font-family="Arial" font-size="14.00">c</text>
</g>
<!-- 22&#45;&gt;13 -->
<g id="edge35" class="edge">
<title>22&#45;&gt;13</title>
<path fill="none" stroke="black" d="M434.43,-218.77C444.83,-221.86 457.91,-225.74 469.82,-229.27"/>
<polygon fill="black" stroke="black" points="468.89,-232.65 479.47,-232.14 470.88,-225.94 468.89,-232.65"/>
<text text-anchor="middle" x="456.79" y="-229.8" font-family="Arial" font-size="14.00">d</text>
</g>
<!-- 23&#45;&gt;21 -->
<g id="edge36" class="edge">
<title>23&#45;&gt;21</title>
<path fill="none" stroke="black" d="M1311.98,-67C1322,-67 1334.39,-67 1345.57,-67"/>
<polygon fill="black" stroke="black" points="1345.8,-70.5 1355.8,-67 1345.8,-63.5 1345.8,-70.5"/>
<text text-anchor="middle" x="1333.96" y="-70.8" font-family="Arial" font-size="14.00">a</text>
</g>
<!-- 23&#45;&gt;22 -->
<g id="edge37" class="edge">
<title>23&#45;&gt;22</title>
<path fill="none" stroke="black" d="M1271.11,-61.22C1254.29,-56.64 1229.03,-51 1206.57,-51 875.77,-51 875.77,-51 875.77,-51 701.24,-51 509.51,-155.71 441.05,-196.77"/>
<polygon fill="black" stroke="black" points="438.95,-193.94 432.22,-202.12 442.58,-199.93 438.95,-193.94"/>
<text text-anchor="middle" x="876.77" y="-55.8" font-family="Arial" font-size="14.00">b</text>
</g>
</g>
</svg>
