<?xml version="1.0" encoding="UTF-8" standalone="no"?>
<!DOCTYPE svg PUBLIC "-//W3C//DTD SVG 1.1//EN"
 "http://www.w3.org/Graphics/SVG/1.1/DTD/svg11.dtd">
<!-- Generated by graphviz version 12.2.1 (20241206.2353)
 -->
<!-- Title: wSpec1 Pages: 1 -->
<svg width="199pt" height="78pt"
 viewBox="0.00 0.00 198.97 77.75" xmlns="http://www.w3.org/2000/svg" xmlns:xlink="http://www.w3.org/1999/xlink">
<g id="graph0" class="graph" transform="scale(1 1) rotate(0) translate(4 73.75)">
<title>wSpec1</title>
<!-- dot_dummyinit_1 -->
<g id="node1" class="node">
<title>dot_dummyinit_1</title>
</g>
<!-- S1 -->
<g id="node2" class="node">
<title>S1</title>
<path fill="none" stroke="black" d="M79.72,-36C79.72,-36 49.72,-36 49.72,-36 43.72,-36 37.72,-30 37.72,-24 37.72,-24 37.72,-12 37.72,-12 37.72,-6 43.72,0 49.72,0 49.72,0 79.72,0 79.72,0 85.72,0 91.72,-6 91.72,-12 91.72,-12 91.72,-24 91.72,-24 91.72,-30 85.72,-36 79.72,-36"/>
<text text-anchor="middle" x="64.72" y="-12.57" font-family="Arial" font-size="14.00">S1</text>
</g>
<!-- dot_dummyinit_1&#45;&gt;S1 -->
<g id="edge1" class="edge">
<title>dot_dummyinit_1&#45;&gt;S1</title>
<path fill="none" stroke="black" d="M0.77,-18C1.57,-18 12.96,-18 25.83,-18"/>
<polygon fill="black" stroke="black" points="25.79,-21.5 35.79,-18 25.79,-14.5 25.79,-21.5"/>
</g>
<!-- S1&#45;&gt;S1 -->
<g id="edge2" class="edge">
<title>S1&#45;&gt;S1</title>
<path fill="none" stroke="black" d="M56.49,-36.15C55.22,-45.54 57.97,-54 64.72,-54 68.41,-54 70.91,-51.47 72.2,-47.64"/>
<polygon fill="black" stroke="black" points="75.7,-47.87 72.85,-37.66 68.71,-47.41 75.7,-47.87"/>
<text text-anchor="middle" x="64.72" y="-56.45" font-family="Arial" font-size="14.00">a, b, d</text>
</g>
<!-- S2 -->
<g id="node3" class="node">
<title>S2</title>
<path fill="none" stroke="black" d="M178.97,-36C178.97,-36 146.47,-36 146.47,-36 140.47,-36 134.47,-30 134.47,-24 134.47,-24 134.47,-12 134.47,-12 134.47,-6 140.47,0 146.47,0 146.47,0 178.97,0 178.97,0 184.97,0 190.97,-6 190.97,-12 190.97,-12 190.97,-24 190.97,-24 190.97,-30 184.97,-36 178.97,-36"/>
<text text-anchor="start" x="146.47" y="-12.57" font-family="Arial" font-size="14.00">S2</text>
<polygon fill="black" stroke="none" points="172.97,-8.12 172.97,-27.88 180.97,-27.88 180.97,-8.12 172.97,-8.12"/>
</g>
<!-- S1&#45;&gt;S2 -->
<g id="edge3" class="edge">
<title>S1&#45;&gt;S2</title>
<path fill="none" stroke="black" d="M92.21,-18C101.64,-18 112.48,-18 122.74,-18"/>
<polygon fill="black" stroke="black" points="122.47,-21.5 132.47,-18 122.47,-14.5 122.47,-21.5"/>
<text text-anchor="middle" x="113.1" y="-20.45" font-family="Arial" font-size="14.00">c</text>
</g>
<!-- S2&#45;&gt;S2 -->
<g id="edge4" class="edge">
<title>S2&#45;&gt;S2</title>
<path fill="none" stroke="black" d="M153.74,-36.15C152.36,-45.54 155.35,-54 162.72,-54 166.86,-54 169.62,-51.32 171,-47.31"/>
<polygon fill="black" stroke="black" points="174.47,-47.86 171.6,-37.66 167.48,-47.42 174.47,-47.86"/>
<text text-anchor="middle" x="162.72" y="-56.45" font-family="Arial" font-size="14.00">b, c, d</text>
</g>
</g>
</svg>
