<?xml version="1.0" encoding="UTF-8" standalone="no"?>
<!DOCTYPE svg PUBLIC "-//W3C//DTD SVG 1.1//EN"
 "http://www.w3.org/Graphics/SVG/1.1/DTD/svg11.dtd">
<!-- Generated by graphviz version 2.43.0 (0)
 -->
<!-- Title: eventually always alternating a and b Pages: 1 -->
<svg width="451pt" height="124pt"
 viewBox="0.00 0.00 451.00 124.00" xmlns="http://www.w3.org/2000/svg" xmlns:xlink="http://www.w3.org/1999/xlink">
<g id="graph0" class="graph" transform="scale(1 1) rotate(0) translate(4 120)">
<title>eventually always alternating a and b</title>
<!-- dot_dummyinit_0 -->
<g id="node1" class="node">
<title>dot_dummyinit_0</title>
</g>
<!-- 4 -->
<g id="node2" class="node">
<title>4</title>
<path fill="none" stroke="black" d="M133,-48C133,-48 103,-48 103,-48 97,-48 91,-42 91,-36 91,-36 91,-24 91,-24 91,-18 97,-12 103,-12 103,-12 133,-12 133,-12 139,-12 145,-18 145,-24 145,-24 145,-36 145,-36 145,-42 139,-48 133,-48"/>
<text text-anchor="middle" x="118" y="-26.3" font-family="Arial" font-size="14.00">4</text>
</g>
<!-- dot_dummyinit_0&#45;&gt;4 -->
<g id="edge1" class="edge">
<title>dot_dummyinit_0&#45;&gt;4</title>
<path fill="none" stroke="black" d="M54.22,-30C62.55,-30 71.91,-30 80.82,-30"/>
<polygon fill="black" stroke="black" points="80.97,-33.5 90.97,-30 80.97,-26.5 80.97,-33.5"/>
</g>
<!-- 4&#45;&gt;4 -->
<g id="edge9" class="edge">
<title>4&#45;&gt;4</title>
<path fill="none" stroke="black" d="M110.04,-48.15C108.82,-57.54 111.47,-66 118,-66 121.98,-66 124.52,-62.86 125.62,-58.28"/>
<polygon fill="black" stroke="black" points="129.12,-58.26 125.96,-48.15 122.13,-58.03 129.12,-58.26"/>
<text text-anchor="middle" x="118" y="-69.8" font-family="Arial" font-size="14.00">b</text>
</g>
<!-- 3 -->
<g id="node3" class="node">
<title>3</title>
<path fill="none" stroke="black" d="M231,-83C231,-83 201,-83 201,-83 195,-83 189,-77 189,-71 189,-71 189,-59 189,-59 189,-53 195,-47 201,-47 201,-47 231,-47 231,-47 237,-47 243,-53 243,-59 243,-59 243,-71 243,-71 243,-77 237,-83 231,-83"/>
<text text-anchor="middle" x="216" y="-61.3" font-family="Arial" font-size="14.00">3</text>
</g>
<!-- 4&#45;&gt;3 -->
<g id="edge8" class="edge">
<title>4&#45;&gt;3</title>
<path fill="none" stroke="black" d="M145.23,-39.56C155.71,-43.38 167.94,-47.84 179.21,-51.95"/>
<polygon fill="black" stroke="black" points="178.21,-55.31 188.8,-55.45 180.6,-48.73 178.21,-55.31"/>
<text text-anchor="middle" x="167" y="-51.8" font-family="Arial" font-size="14.00">a</text>
</g>
<!-- 3&#45;&gt;3 -->
<g id="edge6" class="edge">
<title>3&#45;&gt;3</title>
<path fill="none" stroke="black" d="M207.32,-83.15C205.98,-92.54 208.88,-101 216,-101 220.34,-101 223.11,-97.86 224.31,-93.28"/>
<polygon fill="black" stroke="black" points="227.82,-93.27 224.68,-83.15 220.82,-93.02 227.82,-93.27"/>
<text text-anchor="middle" x="216" y="-104.8" font-family="Arial" font-size="14.00">a</text>
</g>
<!-- 1 -->
<g id="node4" class="node">
<title>1</title>
<path fill="none" stroke="black" d="M331,-36C331,-36 299,-36 299,-36 293,-36 287,-30 287,-24 287,-24 287,-12 287,-12 287,-6 293,0 299,0 299,0 331,0 331,0 337,0 343,-6 343,-12 343,-12 343,-24 343,-24 343,-30 337,-36 331,-36"/>
<polygon fill="darkblue" stroke="transparent" points="297,-8 297,-27 307,-27 307,-8 297,-8"/>
<polygon fill="lightblue" stroke="transparent" points="309,-8 309,-27 319,-27 319,-8 309,-8"/>
<text text-anchor="start" x="323" y="-13.8" font-family="Arial" font-size="14.00">1</text>
</g>
<!-- 3&#45;&gt;1 -->
<g id="edge7" class="edge">
<title>3&#45;&gt;1</title>
<path fill="none" stroke="black" d="M243.25,-52.28C253.77,-47.18 266.07,-41.22 277.44,-35.71"/>
<polygon fill="black" stroke="black" points="279.24,-38.73 286.71,-31.22 276.19,-32.43 279.24,-38.73"/>
<text text-anchor="middle" x="265" y="-45.8" font-family="Arial" font-size="14.00">b</text>
</g>
<!-- 1&#45;&gt;4 -->
<g id="edge3" class="edge">
<title>1&#45;&gt;4</title>
<path fill="none" stroke="black" d="M286.66,-18.62C261.32,-19.31 222.58,-20.65 189,-23 178.01,-23.77 166.08,-24.86 155.23,-25.96"/>
<polygon fill="black" stroke="black" points="154.81,-22.49 145.23,-27 155.54,-29.45 154.81,-22.49"/>
<text text-anchor="middle" x="216" y="-26.8" font-family="Arial" font-size="14.00">b</text>
</g>
<!-- 2 -->
<g id="node5" class="node">
<title>2</title>
<path fill="none" stroke="black" d="M431,-65C431,-65 399,-65 399,-65 393,-65 387,-59 387,-53 387,-53 387,-41 387,-41 387,-35 393,-29 399,-29 399,-29 431,-29 431,-29 437,-29 443,-35 443,-41 443,-41 443,-53 443,-53 443,-59 437,-65 431,-65"/>
<polygon fill="darkblue" stroke="transparent" points="397,-37 397,-56 407,-56 407,-37 397,-37"/>
<polygon fill="lightblue" stroke="transparent" points="409,-37 409,-56 419,-56 419,-37 409,-37"/>
<text text-anchor="start" x="423" y="-42.8" font-family="Arial" font-size="14.00">2</text>
</g>
<!-- 1&#45;&gt;2 -->
<g id="edge2" class="edge">
<title>1&#45;&gt;2</title>
<path fill="none" stroke="black" d="M343.04,-26C353.55,-29.11 365.77,-32.73 377.08,-36.07"/>
<polygon fill="black" stroke="black" points="376.13,-39.44 386.71,-38.92 378.11,-32.73 376.13,-39.44"/>
<text text-anchor="middle" x="365" y="-36.8" font-family="Arial" font-size="14.00">a</text>
</g>
<!-- 2&#45;&gt;3 -->
<g id="edge4" class="edge">
<title>2&#45;&gt;3</title>
<path fill="none" stroke="black" d="M386.88,-50.11C380.99,-50.75 374.79,-51.42 369,-52 324.6,-56.46 313.47,-57.29 269,-61 263.89,-61.43 258.49,-61.86 253.18,-62.28"/>
<polygon fill="black" stroke="black" points="252.89,-58.79 243.19,-63.05 253.43,-65.77 252.89,-58.79"/>
<text text-anchor="middle" x="315" y="-62.8" font-family="Arial" font-size="14.00">a</text>
</g>
<!-- 2&#45;&gt;1 -->
<g id="edge5" class="edge">
<title>2&#45;&gt;1</title>
<path fill="none" stroke="black" d="M396.41,-28.91C388.7,-22.24 379.11,-15.47 369,-12 364.04,-10.3 358.67,-9.64 353.33,-9.65"/>
<polygon fill="black" stroke="black" points="352.91,-6.18 343.19,-10.4 353.42,-13.16 352.91,-6.18"/>
<text text-anchor="middle" x="365" y="-15.8" font-family="Arial" font-size="14.00">b</text>
</g>
</g>
</svg>
