<?xml version="1.0" encoding="UTF-8" standalone="no"?>
<!DOCTYPE svg PUBLIC "-//W3C//DTD SVG 1.1//EN"
 "http://www.w3.org/Graphics/SVG/1.1/DTD/svg11.dtd">
<!-- Generated by graphviz version 12.2.1 (20241206.2353)
 -->
<!-- Title: g Pages: 1 -->
<svg width="392pt" height="192pt"
 viewBox="0.00 0.00 392.22 192.00" xmlns="http://www.w3.org/2000/svg" xmlns:xlink="http://www.w3.org/1999/xlink">
<g id="graph0" class="graph" transform="scale(1 1) rotate(0) translate(4 188)">
<title>g</title>
<!-- dot_dummyinit_1 -->
<g id="node1" class="node">
<title>dot_dummyinit_1</title>
</g>
<!-- 1 -->
<g id="node2" class="node">
<title>1</title>
<path fill="none" stroke="black" d="M79.72,-36C79.72,-36 49.72,-36 49.72,-36 43.72,-36 37.72,-30 37.72,-24 37.72,-24 37.72,-12 37.72,-12 37.72,-6 43.72,0 49.72,0 49.72,0 79.72,0 79.72,0 85.72,0 91.72,-6 91.72,-12 91.72,-12 91.72,-24 91.72,-24 91.72,-30 85.72,-36 79.72,-36"/>
<text text-anchor="start" x="52.97" y="-12.57" font-family="Arial" font-size="14.00">1</text>
<polygon fill="black" stroke="none" points="70.47,-8.12 70.47,-27.88 78.47,-27.88 78.47,-8.12 70.47,-8.12"/>
</g>
<!-- dot_dummyinit_1&#45;&gt;1 -->
<g id="edge1" class="edge">
<title>dot_dummyinit_1&#45;&gt;1</title>
<path fill="none" stroke="black" d="M0.77,-18C1.57,-18 12.96,-18 25.83,-18"/>
<polygon fill="black" stroke="black" points="25.79,-21.5 35.79,-18 25.79,-14.5 25.79,-21.5"/>
</g>
<!-- 2 -->
<g id="node4" class="node">
<title>2</title>
<path fill="none" stroke="black" d="M177.22,-105C177.22,-105 147.22,-105 147.22,-105 141.22,-105 135.22,-99 135.22,-93 135.22,-93 135.22,-81 135.22,-81 135.22,-75 141.22,-69 147.22,-69 147.22,-69 177.22,-69 177.22,-69 183.22,-69 189.22,-75 189.22,-81 189.22,-81 189.22,-93 189.22,-93 189.22,-99 183.22,-105 177.22,-105"/>
<text text-anchor="middle" x="162.22" y="-81.58" font-family="Arial" font-size="14.00">2</text>
</g>
<!-- 1&#45;&gt;2 -->
<g id="edge2" class="edge">
<title>1&#45;&gt;2</title>
<path fill="none" stroke="black" d="M91.31,-36.49C102.21,-44.37 115.09,-53.67 126.8,-62.13"/>
<polygon fill="black" stroke="black" points="124.51,-64.79 134.66,-67.81 128.61,-59.12 124.51,-64.79"/>
<text text-anchor="middle" x="113.47" y="-57.02" font-family="Arial" font-size="14.00">a</text>
</g>
<!-- 5 -->
<g id="node3" class="node">
<title>5</title>
<path fill="none" stroke="black" d="M372.22,-131C372.22,-131 342.22,-131 342.22,-131 336.22,-131 330.22,-125 330.22,-119 330.22,-119 330.22,-107 330.22,-107 330.22,-101 336.22,-95 342.22,-95 342.22,-95 372.22,-95 372.22,-95 378.22,-95 384.22,-101 384.22,-107 384.22,-107 384.22,-119 384.22,-119 384.22,-125 378.22,-131 372.22,-131"/>
<text text-anchor="start" x="345.47" y="-107.58" font-family="Arial" font-size="14.00">5</text>
<polygon fill="black" stroke="none" points="362.97,-103.12 362.97,-122.88 370.97,-122.88 370.97,-103.12 362.97,-103.12"/>
</g>
<!-- 3 -->
<g id="node5" class="node">
<title>3</title>
<path fill="none" stroke="black" d="M274.72,-184C274.72,-184 244.72,-184 244.72,-184 238.72,-184 232.72,-178 232.72,-172 232.72,-172 232.72,-160 232.72,-160 232.72,-154 238.72,-148 244.72,-148 244.72,-148 274.72,-148 274.72,-148 280.72,-148 286.72,-154 286.72,-160 286.72,-160 286.72,-172 286.72,-172 286.72,-178 280.72,-184 274.72,-184"/>
<text text-anchor="middle" x="259.72" y="-160.57" font-family="Arial" font-size="14.00">3</text>
</g>
<!-- 2&#45;&gt;3 -->
<g id="edge3" class="edge">
<title>2&#45;&gt;3</title>
<path fill="none" stroke="black" d="M184.11,-105.34C191.37,-111.64 199.61,-118.69 207.22,-125 213.45,-130.17 220.17,-135.61 226.64,-140.79"/>
<polygon fill="black" stroke="black" points="224.04,-143.19 234.05,-146.68 228.4,-137.71 224.04,-143.19"/>
<text text-anchor="middle" x="210.97" y="-133.14" font-family="Arial" font-size="14.00">b</text>
</g>
<!-- 4 -->
<g id="node6" class="node">
<title>4</title>
<path fill="none" stroke="black" d="M274.72,-130C274.72,-130 244.72,-130 244.72,-130 238.72,-130 232.72,-124 232.72,-118 232.72,-118 232.72,-106 232.72,-106 232.72,-100 238.72,-94 244.72,-94 244.72,-94 274.72,-94 274.72,-94 280.72,-94 286.72,-100 286.72,-106 286.72,-106 286.72,-118 286.72,-118 286.72,-124 280.72,-130 274.72,-130"/>
<text text-anchor="middle" x="259.72" y="-106.58" font-family="Arial" font-size="14.00">4</text>
</g>
<!-- 2&#45;&gt;4 -->
<g id="edge4" class="edge">
<title>2&#45;&gt;4</title>
<path fill="none" stroke="black" d="M189.44,-98.19C195.22,-100.35 201.37,-102.43 207.22,-104 211.74,-105.21 216.54,-106.26 221.32,-107.16"/>
<polygon fill="black" stroke="black" points="220.36,-110.55 230.8,-108.75 221.52,-103.64 220.36,-110.55"/>
<text text-anchor="middle" x="210.97" y="-108.13" font-family="Arial" font-size="14.00">c</text>
</g>
<!-- 6 -->
<g id="node7" class="node">
<title>6</title>
<path fill="none" stroke="black" d="M274.72,-66C274.72,-66 244.72,-66 244.72,-66 238.72,-66 232.72,-60 232.72,-54 232.72,-54 232.72,-42 232.72,-42 232.72,-36 238.72,-30 244.72,-30 244.72,-30 274.72,-30 274.72,-30 280.72,-30 286.72,-36 286.72,-42 286.72,-42 286.72,-54 286.72,-54 286.72,-60 280.72,-66 274.72,-66"/>
<text text-anchor="middle" x="259.72" y="-42.58" font-family="Arial" font-size="14.00">6</text>
</g>
<!-- 2&#45;&gt;6 -->
<g id="edge5" class="edge">
<title>2&#45;&gt;6</title>
<path fill="none" stroke="black" d="M189.31,-71.77C195.1,-68.72 201.28,-65.7 207.22,-63.25 211.85,-61.34 216.81,-59.56 221.76,-57.93"/>
<polygon fill="black" stroke="black" points="222.45,-61.38 230.97,-55.1 220.39,-54.69 222.45,-61.38"/>
<text text-anchor="middle" x="210.97" y="-65.7" font-family="Arial" font-size="14.00">d</text>
</g>
<!-- 4&#45;&gt;5 -->
<g id="edge7" class="edge">
<title>4&#45;&gt;5</title>
<path fill="none" stroke="black" d="M287.07,-112.28C296.78,-112.38 307.97,-112.49 318.49,-112.6"/>
<polygon fill="black" stroke="black" points="318.41,-116.1 328.44,-112.71 318.48,-109.1 318.41,-116.1"/>
<text text-anchor="middle" x="308.47" y="-114.98" font-family="Arial" font-size="14.00">a</text>
</g>
<!-- 4&#45;&gt;2 -->
<g id="edge6" class="edge">
<title>4&#45;&gt;2</title>
<path fill="none" stroke="black" d="M234.77,-93.53C228.56,-89.72 221.66,-86.26 214.72,-84.25 210.35,-82.99 205.68,-82.33 201,-82.1"/>
<polygon fill="black" stroke="black" points="201,-78.6 191.05,-82.24 201.1,-85.6 201,-78.6"/>
<text text-anchor="middle" x="210.97" y="-86.7" font-family="Arial" font-size="14.00">b</text>
</g>
<!-- 7 -->
<g id="node8" class="node">
<title>7</title>
<path fill="none" stroke="black" d="M372.22,-53C372.22,-53 342.22,-53 342.22,-53 336.22,-53 330.22,-47 330.22,-41 330.22,-41 330.22,-29 330.22,-29 330.22,-23 336.22,-17 342.22,-17 342.22,-17 372.22,-17 372.22,-17 378.22,-17 384.22,-23 384.22,-29 384.22,-29 384.22,-41 384.22,-41 384.22,-47 378.22,-53 372.22,-53"/>
<text text-anchor="middle" x="357.22" y="-29.57" font-family="Arial" font-size="14.00">7</text>
</g>
<!-- 6&#45;&gt;7 -->
<g id="edge8" class="edge">
<title>6&#45;&gt;7</title>
<path fill="none" stroke="black" d="M287.06,-52.68C295.18,-53.42 304.11,-53.51 312.22,-52 314.55,-51.57 316.91,-51.01 319.27,-50.37"/>
<polygon fill="black" stroke="black" points="320.27,-53.73 328.72,-47.34 318.12,-47.07 320.27,-53.73"/>
<text text-anchor="middle" x="308.47" y="-55.36" font-family="Arial" font-size="14.00">a</text>
</g>
<!-- 7&#45;&gt;1 -->
<g id="edge9" class="edge">
<title>7&#45;&gt;1</title>
<path fill="none" stroke="black" d="M330,-28.52C317.06,-25.63 301.16,-22.54 286.72,-21 222.58,-14.16 147.39,-15.01 103.32,-16.4"/>
<polygon fill="black" stroke="black" points="103.4,-12.9 93.52,-16.74 103.64,-19.89 103.4,-12.9"/>
<text text-anchor="middle" x="210.97" y="-18.7" font-family="Arial" font-size="14.00">c</text>
</g>
<!-- 7&#45;&gt;6 -->
<g id="edge10" class="edge">
<title>7&#45;&gt;6</title>
<path fill="none" stroke="black" d="M329.89,-31.33C321.77,-30.8 312.84,-30.84 304.72,-32.25 302.41,-32.65 300.06,-33.16 297.71,-33.75"/>
<polygon fill="black" stroke="black" points="296.88,-30.35 288.3,-36.56 298.88,-37.06 296.88,-30.35"/>
<text text-anchor="middle" x="308.47" y="-34.7" font-family="Arial" font-size="14.00">b</text>
</g>
</g>
</svg>
