<?xml version="1.0" encoding="UTF-8" standalone="no"?>
<!DOCTYPE svg PUBLIC "-//W3C//DTD SVG 1.1//EN"
 "http://www.w3.org/Graphics/SVG/1.1/DTD/svg11.dtd">
<!-- Generated by graphviz version 2.43.0 (0)
 -->
<!-- Title: A&#45;B&#45;Spec&#45;Keep&#45;Running Pages: 1 -->
<svg width="170pt" height="149pt"
 viewBox="0.00 0.00 170.00 149.21" xmlns="http://www.w3.org/2000/svg" xmlns:xlink="http://www.w3.org/1999/xlink">
<g id="graph0" class="graph" transform="scale(1 1) rotate(0) translate(4 145.21)">
<title>A&#45;B&#45;Spec&#45;Keep&#45;Running</title>
<!-- dot_dummyinit_1 -->
<g id="node1" class="node">
<title>dot_dummyinit_1</title>
</g>
<!-- I -->
<g id="node2" class="node">
<title>I</title>
<ellipse fill="none" stroke="black" cx="60" cy="-24.21" rx="18" ry="18"/>
<ellipse fill="none" stroke="black" cx="60" cy="-24.21" rx="22" ry="22"/>
<text text-anchor="middle" x="60" y="-20.51" font-family="Arial" font-size="14.00">I</text>
</g>
<!-- dot_dummyinit_1&#45;&gt;I -->
<g id="edge1" class="edge">
<title>dot_dummyinit_1&#45;&gt;I</title>
<path fill="none" stroke="black" d="M1.17,-24.21C2.72,-24.21 14.89,-24.21 27.67,-24.21"/>
<polygon fill="black" stroke="black" points="27.86,-27.71 37.86,-24.21 27.86,-20.71 27.86,-27.71"/>
</g>
<!-- B -->
<g id="node3" class="node">
<title>B</title>
<ellipse fill="none" stroke="black" cx="144" cy="-24.21" rx="18" ry="18"/>
<text text-anchor="middle" x="144" y="-20.51" font-family="Arial" font-size="14.00">B</text>
</g>
<!-- I&#45;&gt;B -->
<g id="edge2" class="edge">
<title>I&#45;&gt;B</title>
<path fill="none" stroke="black" d="M79.48,-35.45C88.03,-39.36 98.4,-42.3 108,-40.21 111.5,-39.45 115.07,-38.31 118.53,-36.97"/>
<polygon fill="black" stroke="black" points="120.08,-40.11 127.82,-32.87 117.25,-33.71 120.08,-40.11"/>
<text text-anchor="middle" x="104" y="-44.01" font-family="Arial" font-size="14.00">a</text>
</g>
<!-- I&#45;&gt;B -->
<g id="edge3" class="edge">
<title>I&#45;&gt;B</title>
<path fill="none" stroke="black" d="M82.05,-21.91C90.15,-21.28 99.5,-20.85 108,-21.21 110.56,-21.32 113.22,-21.48 115.88,-21.66"/>
<polygon fill="black" stroke="black" points="115.68,-25.15 125.93,-22.45 116.24,-18.17 115.68,-25.15"/>
<text text-anchor="middle" x="104" y="-25.01" font-family="Arial" font-size="14.00">b</text>
</g>
<!-- B&#45;&gt;I -->
<g id="edge6" class="edge">
<title>B&#45;&gt;I</title>
<path fill="none" stroke="black" d="M129.64,-12.78C123.48,-8.24 115.8,-3.55 108,-1.21 100.58,1.01 92.89,-0.8 85.93,-4.2"/>
<polygon fill="black" stroke="black" points="83.75,-1.43 76.99,-9.6 87.36,-7.43 83.75,-1.43"/>
<text text-anchor="middle" x="104" y="-5.01" font-family="Arial" font-size="14.00">c</text>
</g>
<!-- B&#45;&gt;B -->
<g id="edge4" class="edge">
<title>B&#45;&gt;B</title>
<path fill="none" stroke="black" d="M141.59,-42.37C141.22,-51.75 142.02,-60.21 144,-60.21 145.21,-60.21 145.98,-57.07 146.31,-52.49"/>
<polygon fill="black" stroke="black" points="149.81,-52.4 146.41,-42.37 142.81,-52.33 149.81,-52.4"/>
<text text-anchor="middle" x="144" y="-64.01" font-family="Arial" font-size="14.00">a</text>
</g>
<!-- B&#45;&gt;B -->
<g id="edge5" class="edge">
<title>B&#45;&gt;B</title>
<path fill="none" stroke="black" d="M140.03,-41.91C137.83,-59.21 139.16,-78.21 144,-78.21 147.9,-78.21 149.52,-65.91 148.86,-52.09"/>
<polygon fill="black" stroke="black" points="152.33,-51.57 147.97,-41.91 145.35,-52.18 152.33,-51.57"/>
<text text-anchor="middle" x="144" y="-82.01" font-family="Arial" font-size="14.00">b</text>
</g>
<!-- B&#45;&gt;B -->
<g id="edge7" class="edge">
<title>B&#45;&gt;B</title>
<path fill="none" stroke="black" d="M139.07,-41.57C134.43,-66.03 136.07,-96.21 144,-96.21 150.88,-96.21 153.02,-73.51 150.44,-51.53"/>
<polygon fill="black" stroke="black" points="153.89,-50.92 148.93,-41.57 146.97,-51.98 153.89,-50.92"/>
<text text-anchor="middle" x="144" y="-100.01" font-family="Arial" font-size="14.00">d</text>
</g>
</g>
</svg>
