<?xml version="1.0" encoding="UTF-8" standalone="no"?>
<!DOCTYPE svg PUBLIC "-//W3C//DTD SVG 1.1//EN"
 "http://www.w3.org/Graphics/SVG/1.1/DTD/svg11.dtd">
<!-- Generated by graphviz version 2.43.0 (0)
 -->
<!-- Title: SupBuechiCon((A&#45;B&#45;Machine),(A&#45;B&#45;Spec&#45;Eventually&#45;B)) [minstate] Pages: 1 -->
<svg width="330pt" height="150pt"
 viewBox="0.00 0.00 330.00 149.95" xmlns="http://www.w3.org/2000/svg" xmlns:xlink="http://www.w3.org/1999/xlink">
<g id="graph0" class="graph" transform="scale(1 1) rotate(0) translate(4 145.95)">
<title>SupBuechiCon((A&#45;B&#45;Machine),(A&#45;B&#45;Spec&#45;Eventually&#45;B)) [minstate]</title>
<!-- dot_dummyinit_1 -->
<g id="node1" class="node">
<title>dot_dummyinit_1</title>
</g>
<!-- 2 -->
<g id="node2" class="node">
<title>2</title>
<ellipse fill="none" stroke="black" cx="56" cy="-62.95" rx="18" ry="18"/>
<text text-anchor="middle" x="56" y="-59.25" font-family="Arial" font-size="14.00">2</text>
</g>
<!-- dot_dummyinit_1&#45;&gt;2 -->
<g id="edge1" class="edge">
<title>dot_dummyinit_1&#45;&gt;2</title>
<path fill="none" stroke="black" d="M1.15,-62.95C2.67,-62.95 15.1,-62.95 27.63,-62.95"/>
<polygon fill="black" stroke="black" points="27.94,-66.45 37.94,-62.95 27.94,-59.45 27.94,-66.45"/>
</g>
<!-- 1 -->
<g id="node3" class="node">
<title>1</title>
<ellipse fill="none" stroke="black" cx="140" cy="-119.95" rx="18" ry="18"/>
<ellipse fill="none" stroke="black" cx="140" cy="-119.95" rx="22" ry="22"/>
<text text-anchor="middle" x="140" y="-116.25" font-family="Arial" font-size="14.00">1</text>
</g>
<!-- 2&#45;&gt;1 -->
<g id="edge5" class="edge">
<title>2&#45;&gt;1</title>
<path fill="none" stroke="black" d="M64.92,-78.87C70.93,-89.31 80.18,-102.37 92,-109.95 96.74,-112.99 102.25,-115.12 107.79,-116.61"/>
<polygon fill="black" stroke="black" points="107.14,-120.05 117.64,-118.66 108.57,-113.2 107.14,-120.05"/>
<text text-anchor="middle" x="96" y="-116.75" font-family="Arial" font-size="14.00">b</text>
</g>
<!-- 5 -->
<g id="node6" class="node">
<title>5</title>
<ellipse fill="none" stroke="black" cx="140" cy="-43.95" rx="18" ry="18"/>
<text text-anchor="middle" x="140" y="-40.25" font-family="Arial" font-size="14.00">5</text>
</g>
<!-- 2&#45;&gt;5 -->
<g id="edge4" class="edge">
<title>2&#45;&gt;5</title>
<path fill="none" stroke="black" d="M74.35,-63C82.26,-62.7 91.69,-61.89 100,-59.95 104.61,-58.87 109.39,-57.32 113.95,-55.59"/>
<polygon fill="black" stroke="black" points="115.53,-58.73 123.44,-51.67 112.86,-52.26 115.53,-58.73"/>
<text text-anchor="middle" x="96" y="-64.75" font-family="Arial" font-size="14.00">a</text>
</g>
<!-- 1&#45;&gt;2 -->
<g id="edge2" class="edge">
<title>1&#45;&gt;2</title>
<path fill="none" stroke="black" d="M121.46,-107.76C109.3,-99.3 92.98,-87.96 79.81,-78.81"/>
<polygon fill="black" stroke="black" points="81.49,-75.71 71.28,-72.88 77.5,-81.46 81.49,-75.71"/>
<text text-anchor="middle" x="96" y="-94.75" font-family="Arial" font-size="14.00">c</text>
</g>
<!-- 4 -->
<g id="node5" class="node">
<title>4</title>
<ellipse fill="none" stroke="black" cx="224" cy="-81.95" rx="18" ry="18"/>
<text text-anchor="middle" x="224" y="-78.25" font-family="Arial" font-size="14.00">4</text>
</g>
<!-- 1&#45;&gt;4 -->
<g id="edge3" class="edge">
<title>1&#45;&gt;4</title>
<path fill="none" stroke="black" d="M160.43,-110.94C171.72,-105.71 186.05,-99.07 198.15,-93.47"/>
<polygon fill="black" stroke="black" points="199.67,-96.62 207.28,-89.24 196.73,-90.27 199.67,-96.62"/>
<text text-anchor="middle" x="184" y="-104.75" font-family="Arial" font-size="14.00">d</text>
</g>
<!-- 3 -->
<g id="node4" class="node">
<title>3</title>
<ellipse fill="none" stroke="black" cx="304" cy="-43.95" rx="18" ry="18"/>
<text text-anchor="middle" x="304" y="-40.25" font-family="Arial" font-size="14.00">3</text>
</g>
<!-- 3&#45;&gt;2 -->
<g id="edge6" class="edge">
<title>3&#45;&gt;2</title>
<path fill="none" stroke="black" d="M287.67,-35.94C251.41,-18.2 158.46,20.25 92,-13.95 82.1,-19.05 74.38,-28.38 68.74,-37.55"/>
<polygon fill="black" stroke="black" points="65.57,-36.05 63.79,-46.5 71.69,-39.44 65.57,-36.05"/>
<text text-anchor="middle" x="184" y="-6.75" font-family="Arial" font-size="14.00">c</text>
</g>
<!-- 3&#45;&gt;4 -->
<g id="edge7" class="edge">
<title>3&#45;&gt;4</title>
<path fill="none" stroke="black" d="M286.01,-41.39C277.82,-40.88 268.05,-41.37 260,-44.95 252.78,-48.16 246.33,-53.64 241,-59.41"/>
<polygon fill="black" stroke="black" points="238.16,-57.35 234.46,-67.28 243.54,-61.83 238.16,-57.35"/>
<text text-anchor="middle" x="264" y="-48.75" font-family="Arial" font-size="14.00">d</text>
</g>
<!-- 4&#45;&gt;3 -->
<g id="edge8" class="edge">
<title>4&#45;&gt;3</title>
<path fill="none" stroke="black" d="M240.41,-74.44C251.31,-69.13 266.14,-61.91 278.63,-55.82"/>
<polygon fill="black" stroke="black" points="280.16,-58.97 287.62,-51.44 277.1,-52.68 280.16,-58.97"/>
<text text-anchor="middle" x="264" y="-67.75" font-family="Arial" font-size="14.00">b</text>
</g>
<!-- 5&#45;&gt;2 -->
<g id="edge9" class="edge">
<title>5&#45;&gt;2</title>
<path fill="none" stroke="black" d="M122.17,-40.14C113.07,-38.76 101.74,-38.14 92,-40.95 87.53,-42.24 83.09,-44.28 78.94,-46.62"/>
<polygon fill="black" stroke="black" points="77,-43.7 70.43,-52.01 80.75,-49.61 77,-43.7"/>
<text text-anchor="middle" x="96" y="-44.75" font-family="Arial" font-size="14.00">c</text>
</g>
<!-- 5&#45;&gt;2 -->
<g id="edge10" class="edge">
<title>5&#45;&gt;2</title>
<path fill="none" stroke="black" d="M127.12,-31.28C117.67,-22.82 104.08,-14.21 92,-19.95 83.5,-23.99 76.39,-31.21 70.85,-38.6"/>
<polygon fill="black" stroke="black" points="67.76,-36.92 65.07,-47.17 73.56,-40.84 67.76,-36.92"/>
<text text-anchor="middle" x="96" y="-23.75" font-family="Arial" font-size="14.00">d</text>
</g>
</g>
</svg>
