<?xml version="1.0" encoding="UTF-8" standalone="no"?>
<!DOCTYPE svg PUBLIC "-//W3C//DTD SVG 1.1//EN"
 "http://www.w3.org/Graphics/SVG/1.1/DTD/svg11.dtd">
<!-- Generated by graphviz version 12.2.1 (20241206.2353)
 -->
<!-- Title: wPlant2 Pages: 1 -->
<svg width="263pt" height="223pt"
 viewBox="0.00 0.00 263.21 223.00" xmlns="http://www.w3.org/2000/svg" xmlns:xlink="http://www.w3.org/1999/xlink">
<g id="graph0" class="graph" transform="scale(1 1) rotate(0) translate(4 219)">
<title>wPlant2</title>
<!-- dot_dummyinit_1 -->
<g id="node1" class="node">
<title>dot_dummyinit_1</title>
</g>
<!-- I -->
<g id="node2" class="node">
<title>I</title>
<ellipse fill="none" stroke="black" cx="59.72" cy="-105.62" rx="18" ry="18"/>
<ellipse fill="none" stroke="black" cx="59.72" cy="-105.62" rx="22" ry="22"/>
<text text-anchor="middle" x="59.72" y="-100.2" font-family="Arial" font-size="14.00">I</text>
</g>
<!-- dot_dummyinit_1&#45;&gt;I -->
<g id="edge1" class="edge">
<title>dot_dummyinit_1&#45;&gt;I</title>
<path fill="none" stroke="black" d="M0.89,-105.62C2.38,-105.62 13.74,-105.62 26,-105.62"/>
<polygon fill="black" stroke="black" points="25.74,-109.12 35.74,-105.62 25.74,-102.12 25.74,-109.12"/>
</g>
<!-- A1 -->
<g id="node3" class="node">
<title>A1</title>
<ellipse fill="none" stroke="black" cx="146.84" cy="-186.62" rx="21.62" ry="21.62"/>
<text text-anchor="middle" x="146.84" y="-181.2" font-family="Arial" font-size="14.00">A1</text>
</g>
<!-- I&#45;&gt;A1 -->
<g id="edge2" class="edge">
<title>I&#45;&gt;A1</title>
<path fill="none" stroke="black" d="M75.65,-121.46C82.81,-128.91 91.58,-137.85 99.72,-145.62 106.58,-152.18 114.22,-159.11 121.27,-165.37"/>
<polygon fill="black" stroke="black" points="118.84,-167.88 128.66,-171.86 123.46,-162.62 118.84,-167.88"/>
<text text-anchor="middle" x="103.47" y="-154.98" font-family="Arial" font-size="14.00">a</text>
</g>
<!-- B1 -->
<g id="node5" class="node">
<title>B1</title>
<ellipse fill="none" stroke="black" cx="146.84" cy="-21.62" rx="21.62" ry="21.62"/>
<text text-anchor="middle" x="146.84" y="-16.2" font-family="Arial" font-size="14.00">B1</text>
</g>
<!-- I&#45;&gt;B1 -->
<g id="edge3" class="edge">
<title>I&#45;&gt;B1</title>
<path fill="none" stroke="black" d="M71.31,-86.57C78.35,-75.05 88.36,-60.56 99.72,-49.87 105.02,-44.89 111.33,-40.34 117.56,-36.41"/>
<polygon fill="black" stroke="black" points="118.97,-39.64 125.82,-31.55 115.42,-33.61 118.97,-39.64"/>
<text text-anchor="middle" x="103.47" y="-52.32" font-family="Arial" font-size="14.00">b</text>
</g>
<!-- A2 -->
<g id="node4" class="node">
<title>A2</title>
<ellipse fill="none" stroke="black" cx="233.59" cy="-159.62" rx="21.62" ry="21.62"/>
<text text-anchor="middle" x="233.59" y="-154.2" font-family="Arial" font-size="14.00">A2</text>
</g>
<!-- A1&#45;&gt;A2 -->
<g id="edge4" class="edge">
<title>A1&#45;&gt;A2</title>
<path fill="none" stroke="black" d="M167.93,-180.22C178.06,-177 190.57,-173.01 201.88,-169.41"/>
<polygon fill="black" stroke="black" points="202.74,-172.81 211.21,-166.44 200.62,-166.14 202.74,-172.81"/>
<text text-anchor="middle" x="190.22" y="-176.38" font-family="Arial" font-size="14.00">c</text>
</g>
<!-- A2&#45;&gt;I -->
<g id="edge6" class="edge">
<title>A2&#45;&gt;I</title>
<path fill="none" stroke="black" d="M212.49,-153.31C182.73,-143.96 126.71,-126.36 91.69,-115.35"/>
<polygon fill="black" stroke="black" points="93.14,-112.14 82.55,-112.48 91.05,-118.82 93.14,-112.14"/>
<text text-anchor="middle" x="146.84" y="-141.32" font-family="Arial" font-size="14.00">f</text>
</g>
<!-- A2&#45;&gt;A2 -->
<g id="edge5" class="edge">
<title>A2&#45;&gt;A2</title>
<path fill="none" stroke="black" d="M225.7,-180.01C224.61,-190.18 227.24,-199.25 233.59,-199.25 237.36,-199.25 239.82,-196.05 240.97,-191.32"/>
<polygon fill="black" stroke="black" points="244.46,-191.67 241.41,-181.52 237.46,-191.35 244.46,-191.67"/>
<text text-anchor="middle" x="233.59" y="-201.7" font-family="Arial" font-size="14.00">c</text>
</g>
<!-- B2 -->
<g id="node6" class="node">
<title>B2</title>
<ellipse fill="none" stroke="black" cx="233.59" cy="-44.62" rx="21.62" ry="21.62"/>
<text text-anchor="middle" x="233.59" y="-39.2" font-family="Arial" font-size="14.00">B2</text>
</g>
<!-- B1&#45;&gt;B2 -->
<g id="edge7" class="edge">
<title>B1&#45;&gt;B2</title>
<path fill="none" stroke="black" d="M167.93,-27.07C177.88,-29.78 190.13,-33.1 201.28,-36.13"/>
<polygon fill="black" stroke="black" points="200.33,-39.49 210.9,-38.74 202.16,-32.74 200.33,-39.49"/>
<text text-anchor="middle" x="190.22" y="-36.26" font-family="Arial" font-size="14.00">d</text>
</g>
<!-- B2&#45;&gt;I -->
<g id="edge9" class="edge">
<title>B2&#45;&gt;I</title>
<path fill="none" stroke="black" d="M212.67,-51.69C182.86,-62.27 126.42,-82.31 91.35,-94.75"/>
<polygon fill="black" stroke="black" points="90.45,-91.36 82.2,-98 92.79,-97.95 90.45,-91.36"/>
<text text-anchor="middle" x="146.84" y="-84.63" font-family="Arial" font-size="14.00">f</text>
</g>
<!-- B2&#45;&gt;B2 -->
<g id="edge8" class="edge">
<title>B2&#45;&gt;B2</title>
<path fill="none" stroke="black" d="M225.7,-65.01C224.61,-75.18 227.24,-84.25 233.59,-84.25 237.36,-84.25 239.82,-81.05 240.97,-76.32"/>
<polygon fill="black" stroke="black" points="244.46,-76.67 241.41,-66.52 237.46,-76.35 244.46,-76.67"/>
<text text-anchor="middle" x="233.59" y="-86.7" font-family="Arial" font-size="14.00">d</text>
</g>
</g>
</svg>
