<?xml version="1.0" encoding="UTF-8" standalone="no"?>
<!DOCTYPE svg PUBLIC "-//W3C//DTD SVG 1.1//EN"
 "http://www.w3.org/Graphics/SVG/1.1/DTD/svg11.dtd">
<!-- Generated by graphviz version 2.43.0 (0)
 -->
<!-- Title: very simple machine 1|||very simple machine 2 Pages: 1 -->
<svg width="720pt" height="94pt"
 viewBox="0.00 0.00 720.00 94.23" xmlns="http://www.w3.org/2000/svg" xmlns:xlink="http://www.w3.org/1999/xlink">
<g id="graph0" class="graph" transform="scale(2.04 2.04) rotate(0) translate(4 188)">
<title>very simple machine 1|||very simple machine 2</title>
<!-- dot_dummyinit_1 -->
<g id="node1" class="node">
<title>dot_dummyinit_1</title>
</g>
<!-- I|I|r1m* -->
<g id="node2" class="node">
<title>I|I|r1m*</title>
<path fill="none" stroke="black" d="M111,-119C111,-119 50,-119 50,-119 44,-119 38,-113 38,-107 38,-107 38,-95 38,-95 38,-89 44,-83 50,-83 50,-83 111,-83 111,-83 117,-83 123,-89 123,-95 123,-95 123,-107 123,-107 123,-113 117,-119 111,-119"/>
<text text-anchor="start" x="50.5" y="-96.8" font-family="Arial" font-size="14.00">I|I|r1m*</text>
<polygon fill="black" stroke="transparent" points="105.5,-91 105.5,-110 113.5,-110 113.5,-91 105.5,-91"/>
</g>
<!-- dot_dummyinit_1&#45;&gt;I|I|r1m* -->
<g id="edge1" class="edge">
<title>dot_dummyinit_1&#45;&gt;I|I|r1m*</title>
<path fill="none" stroke="black" d="M1.06,-101C1.95,-101 13.33,-101 27.16,-101"/>
<polygon fill="black" stroke="black" points="27.55,-104.5 37.55,-101 27.55,-97.5 27.55,-104.5"/>
</g>
<!-- B|I|r1m -->
<g id="node4" class="node">
<title>B|I|r1m</title>
<path fill="none" stroke="black" d="M544,-157C544,-157 507,-157 507,-157 501,-157 495,-151 495,-145 495,-145 495,-133 495,-133 495,-127 501,-121 507,-121 507,-121 544,-121 544,-121 550,-121 556,-127 556,-133 556,-133 556,-145 556,-145 556,-151 550,-157 544,-157"/>
<text text-anchor="middle" x="525.5" y="-135.3" font-family="Arial" font-size="14.00">B|I|r1m</text>
</g>
<!-- I|I|r1m*&#45;&gt;B|I|r1m -->
<g id="edge2" class="edge">
<title>I|I|r1m*&#45;&gt;B|I|r1m</title>
<path fill="none" stroke="black" d="M123.23,-115.09C129.16,-116.87 135.21,-118.57 141,-120 258.2,-149.03 289.29,-160.7 410,-158 439.8,-157.33 447.7,-160.48 477,-155 479.67,-154.5 482.4,-153.88 485.14,-153.19"/>
<polygon fill="black" stroke="black" points="486.29,-156.5 494.94,-150.37 484.36,-149.77 486.29,-156.5"/>
<text text-anchor="middle" x="311.5" y="-160.8" font-family="Arial" font-size="14.00">alpha_1</text>
</g>
<!-- I|B|r1m -->
<g id="node5" class="node">
<title>I|B|r1m</title>
<path fill="none" stroke="black" d="M257,-119C257,-119 220,-119 220,-119 214,-119 208,-113 208,-107 208,-107 208,-95 208,-95 208,-89 214,-83 220,-83 220,-83 257,-83 257,-83 263,-83 269,-89 269,-95 269,-95 269,-107 269,-107 269,-113 263,-119 257,-119"/>
<text text-anchor="middle" x="238.5" y="-97.3" font-family="Arial" font-size="14.00">I|B|r1m</text>
</g>
<!-- I|I|r1m*&#45;&gt;I|B|r1m -->
<g id="edge3" class="edge">
<title>I|I|r1m*&#45;&gt;I|B|r1m</title>
<path fill="none" stroke="black" d="M123.31,-101C146.47,-101 175.11,-101 197.91,-101"/>
<polygon fill="black" stroke="black" points="197.94,-104.5 207.94,-101 197.94,-97.5 197.94,-104.5"/>
<text text-anchor="middle" x="165.5" y="-104.8" font-family="Arial" font-size="14.00">alpha_2</text>
</g>
<!-- B|I|r1m* -->
<g id="node3" class="node">
<title>B|I|r1m*</title>
<path fill="none" stroke="black" d="M1160,-50C1160,-50 1094,-50 1094,-50 1088,-50 1082,-44 1082,-38 1082,-38 1082,-26 1082,-26 1082,-20 1088,-14 1094,-14 1094,-14 1160,-14 1160,-14 1166,-14 1172,-20 1172,-26 1172,-26 1172,-38 1172,-38 1172,-44 1166,-50 1160,-50"/>
<text text-anchor="start" x="1094" y="-27.8" font-family="Arial" font-size="14.00">B|I|r1m*</text>
<polygon fill="black" stroke="transparent" points="1154,-22 1154,-41 1162,-41 1162,-22 1154,-22"/>
</g>
<!-- B|B|r1m -->
<g id="node6" class="node">
<title>B|B|r1m</title>
<path fill="none" stroke="black" d="M695,-119C695,-119 653,-119 653,-119 647,-119 641,-113 641,-107 641,-107 641,-95 641,-95 641,-89 647,-83 653,-83 653,-83 695,-83 695,-83 701,-83 707,-89 707,-95 707,-95 707,-107 707,-107 707,-113 701,-119 695,-119"/>
<text text-anchor="middle" x="674" y="-97.3" font-family="Arial" font-size="14.00">B|B|r1m</text>
</g>
<!-- B|I|r1m*&#45;&gt;B|B|r1m -->
<g id="edge16" class="edge">
<title>B|I|r1m*&#45;&gt;B|B|r1m</title>
<path fill="none" stroke="black" d="M1111.58,-50.19C1100.19,-63.05 1083.09,-79.31 1064,-87 945.86,-134.6 790.82,-119.7 717.25,-108.53"/>
<polygon fill="black" stroke="black" points="717.42,-105.01 707,-106.91 716.34,-111.93 717.42,-105.01"/>
<text text-anchor="middle" x="888.5" y="-122.8" font-family="Arial" font-size="14.00">alpha_2</text>
</g>
<!-- I|I|r2m -->
<g id="node10" class="node">
<title>I|I|r2m</title>
<path fill="none" stroke="black" d="M1301,-85C1301,-85 1269,-85 1269,-85 1263,-85 1257,-79 1257,-73 1257,-73 1257,-61 1257,-61 1257,-55 1263,-49 1269,-49 1269,-49 1301,-49 1301,-49 1307,-49 1313,-55 1313,-61 1313,-61 1313,-73 1313,-73 1313,-79 1307,-85 1301,-85"/>
<text text-anchor="middle" x="1285" y="-63.3" font-family="Arial" font-size="14.00">I|I|r2m</text>
</g>
<!-- B|I|r1m*&#45;&gt;I|I|r2m -->
<g id="edge17" class="edge">
<title>B|I|r1m*&#45;&gt;I|I|r2m</title>
<path fill="none" stroke="black" d="M1172.24,-36.42C1192.77,-39.07 1217.37,-43.1 1239,-49 1241.65,-49.72 1244.35,-50.55 1247.06,-51.45"/>
<polygon fill="black" stroke="black" points="1246.14,-54.84 1256.73,-54.94 1248.51,-48.26 1246.14,-54.84"/>
<text text-anchor="middle" x="1214.5" y="-52.8" font-family="Arial" font-size="14.00">beta_1</text>
</g>
<!-- B|I|r1m&#45;&gt;B|B|r1m -->
<g id="edge4" class="edge">
<title>B|I|r1m&#45;&gt;B|B|r1m</title>
<path fill="none" stroke="black" d="M544.19,-120.71C552.47,-113.42 562.95,-105.86 574,-102 591.91,-95.75 612.77,-94.7 630.71,-95.53"/>
<polygon fill="black" stroke="black" points="630.69,-99.04 640.9,-96.21 631.15,-92.05 630.69,-99.04"/>
<text text-anchor="middle" x="598.5" y="-105.8" font-family="Arial" font-size="14.00">alpha_2</text>
</g>
<!-- B|I|r1m&#45;&gt;I|I|r2m -->
<g id="edge5" class="edge">
<title>B|I|r1m&#45;&gt;I|I|r2m</title>
<path fill="none" stroke="black" d="M556.16,-148.74C585.5,-157.5 631.85,-169 673,-169 673,-169 673,-169 1128,-169 1183.55,-169 1234.74,-123.14 1262.45,-92.92"/>
<polygon fill="black" stroke="black" points="1265.26,-95.03 1269.3,-85.24 1260.03,-90.37 1265.26,-95.03"/>
<text text-anchor="middle" x="888.5" y="-172.8" font-family="Arial" font-size="14.00">beta_1</text>
</g>
<!-- I|B|r1m&#45;&gt;B|B|r1m -->
<g id="edge6" class="edge">
<title>I|B|r1m&#45;&gt;B|B|r1m</title>
<path fill="none" stroke="black" d="M269.03,-94.54C274.95,-93.49 281.15,-92.56 287,-92 413.98,-79.85 446.44,-91.22 574,-91 595.78,-90.96 601.33,-88.85 623,-91 625.54,-91.25 628.15,-91.57 630.77,-91.95"/>
<polygon fill="black" stroke="black" points="630.43,-95.44 640.86,-93.6 631.56,-88.53 630.43,-95.44"/>
<text text-anchor="middle" x="452.5" y="-91.8" font-family="Arial" font-size="14.00">alpha_1</text>
</g>
<!-- I|I|r1m -->
<g id="node7" class="node">
<title>I|I|r1m</title>
<path fill="none" stroke="black" d="M398,-149C398,-149 366,-149 366,-149 360,-149 354,-143 354,-137 354,-137 354,-125 354,-125 354,-119 360,-113 366,-113 366,-113 398,-113 398,-113 404,-113 410,-119 410,-125 410,-125 410,-137 410,-137 410,-143 404,-149 398,-149"/>
<text text-anchor="middle" x="382" y="-127.3" font-family="Arial" font-size="14.00">I|I|r1m</text>
</g>
<!-- I|B|r1m&#45;&gt;I|I|r1m -->
<g id="edge7" class="edge">
<title>I|B|r1m&#45;&gt;I|I|r1m</title>
<path fill="none" stroke="black" d="M269.28,-97.1C288.68,-95.58 314.34,-95.5 336,-102 340.65,-103.4 345.28,-105.43 349.7,-107.78"/>
<polygon fill="black" stroke="black" points="348.03,-110.86 358.42,-112.96 351.61,-104.85 348.03,-110.86"/>
<text text-anchor="middle" x="311.5" y="-105.8" font-family="Arial" font-size="14.00">beta_2</text>
</g>
<!-- B|B|r1m&#45;&gt;B|I|r1m -->
<g id="edge8" class="edge">
<title>B|B|r1m&#45;&gt;B|I|r1m</title>
<path fill="none" stroke="black" d="M640.84,-111.74C634.94,-113.58 628.8,-115.41 623,-117 604.43,-122.08 583.64,-126.92 566.12,-130.77"/>
<polygon fill="black" stroke="black" points="565.26,-127.37 556.23,-132.91 566.74,-134.22 565.26,-127.37"/>
<text text-anchor="middle" x="598.5" y="-131.8" font-family="Arial" font-size="14.00">beta_2</text>
</g>
<!-- I|B|r2m -->
<g id="node8" class="node">
<title>I|B|r2m</title>
<path fill="none" stroke="black" d="M834,-66C834,-66 797,-66 797,-66 791,-66 785,-60 785,-54 785,-54 785,-42 785,-42 785,-36 791,-30 797,-30 797,-30 834,-30 834,-30 840,-30 846,-36 846,-42 846,-42 846,-54 846,-54 846,-60 840,-66 834,-66"/>
<text text-anchor="middle" x="815.5" y="-44.3" font-family="Arial" font-size="14.00">I|B|r2m</text>
</g>
<!-- B|B|r1m&#45;&gt;I|B|r2m -->
<g id="edge9" class="edge">
<title>B|B|r1m&#45;&gt;I|B|r2m</title>
<path fill="none" stroke="black" d="M707,-88.84C727.23,-81.16 753.52,-71.17 775.04,-62.99"/>
<polygon fill="black" stroke="black" points="776.45,-66.2 784.55,-59.38 773.96,-59.66 776.45,-66.2"/>
<text text-anchor="middle" x="746" y="-83.8" font-family="Arial" font-size="14.00">beta_1</text>
</g>
<!-- I|I|r1m&#45;&gt;B|I|r1m -->
<g id="edge10" class="edge">
<title>I|I|r1m&#45;&gt;B|I|r1m</title>
<path fill="none" stroke="black" d="M410.28,-132.54C431.41,-133.74 460.98,-135.41 484.74,-136.75"/>
<polygon fill="black" stroke="black" points="484.68,-140.25 494.86,-137.32 485.07,-133.27 484.68,-140.25"/>
<text text-anchor="middle" x="452.5" y="-139.8" font-family="Arial" font-size="14.00">alpha_1</text>
</g>
<!-- I|I|r1m&#45;&gt;I|B|r1m -->
<g id="edge11" class="edge">
<title>I|I|r1m&#45;&gt;I|B|r1m</title>
<path fill="none" stroke="black" d="M353.61,-128.22C334.72,-125.98 309.14,-122.33 287,-117 284.35,-116.36 281.65,-115.64 278.93,-114.87"/>
<polygon fill="black" stroke="black" points="279.75,-111.46 269.16,-111.89 277.71,-118.15 279.75,-111.46"/>
<text text-anchor="middle" x="311.5" y="-128.8" font-family="Arial" font-size="14.00">alpha_2</text>
</g>
<!-- I|B|r2m&#45;&gt;I|I|r1m* -->
<g id="edge12" class="edge">
<title>I|B|r2m&#45;&gt;I|I|r1m*</title>
<path fill="none" stroke="black" d="M784.98,-41.96C756.84,-36.73 713.22,-30 675,-30 237.5,-30 237.5,-30 237.5,-30 191.05,-30 143.25,-56.4 113.01,-77"/>
<polygon fill="black" stroke="black" points="110.77,-74.3 104.59,-82.9 114.79,-80.03 110.77,-74.3"/>
<text text-anchor="middle" x="452.5" y="-33.8" font-family="Arial" font-size="14.00">beta_2</text>
</g>
<!-- B|B|r2m -->
<g id="node9" class="node">
<title>B|B|r2m</title>
<path fill="none" stroke="black" d="M985,-36C985,-36 943,-36 943,-36 937,-36 931,-30 931,-24 931,-24 931,-12 931,-12 931,-6 937,0 943,0 943,0 985,0 985,0 991,0 997,-6 997,-12 997,-12 997,-24 997,-24 997,-30 991,-36 985,-36"/>
<text text-anchor="middle" x="964" y="-14.3" font-family="Arial" font-size="14.00">B|B|r2m</text>
</g>
<!-- I|B|r2m&#45;&gt;B|B|r2m -->
<g id="edge13" class="edge">
<title>I|B|r2m&#45;&gt;B|B|r2m</title>
<path fill="none" stroke="black" d="M846.15,-41.93C867.65,-37.52 897.05,-31.51 920.98,-26.61"/>
<polygon fill="black" stroke="black" points="921.76,-30.02 930.86,-24.58 920.36,-23.16 921.76,-30.02"/>
<text text-anchor="middle" x="888.5" y="-41.8" font-family="Arial" font-size="14.00">alpha_1</text>
</g>
<!-- B|B|r2m&#45;&gt;B|I|r1m* -->
<g id="edge15" class="edge">
<title>B|B|r2m&#45;&gt;B|I|r1m*</title>
<path fill="none" stroke="black" d="M997.19,-20.8C1018.57,-22.66 1047.15,-25.14 1071.96,-27.3"/>
<polygon fill="black" stroke="black" points="1071.7,-30.79 1081.97,-28.17 1072.31,-23.82 1071.7,-30.79"/>
<text text-anchor="middle" x="1039.5" y="-30.8" font-family="Arial" font-size="14.00">beta_2</text>
</g>
<!-- B|B|r2m&#45;&gt;I|B|r2m -->
<g id="edge14" class="edge">
<title>B|B|r2m&#45;&gt;I|B|r2m</title>
<path fill="none" stroke="black" d="M930.94,-8.88C911.13,-4.83 885.48,-2.47 864,-10 855.69,-12.91 847.76,-17.96 840.83,-23.44"/>
<polygon fill="black" stroke="black" points="838.53,-20.81 833.21,-29.97 843.08,-26.13 838.53,-20.81"/>
<text text-anchor="middle" x="888.5" y="-13.8" font-family="Arial" font-size="14.00">beta_1</text>
</g>
<!-- I|I|r2m&#45;&gt;I|B|r2m -->
<g id="edge18" class="edge">
<title>I|I|r2m&#45;&gt;I|B|r2m</title>
<path fill="none" stroke="black" d="M1256.88,-67.88C1189.94,-69.73 1011.6,-72.63 864,-57 861.44,-56.73 858.82,-56.39 856.18,-56.01"/>
<polygon fill="black" stroke="black" points="856.47,-52.52 846.03,-54.37 855.35,-59.43 856.47,-52.52"/>
<text text-anchor="middle" x="1039.5" y="-71.8" font-family="Arial" font-size="14.00">alpha_2</text>
</g>
<!-- B|I|r2m -->
<g id="node11" class="node">
<title>B|I|r2m</title>
<path fill="none" stroke="black" d="M1447,-47C1447,-47 1410,-47 1410,-47 1404,-47 1398,-41 1398,-35 1398,-35 1398,-23 1398,-23 1398,-17 1404,-11 1410,-11 1410,-11 1447,-11 1447,-11 1453,-11 1459,-17 1459,-23 1459,-23 1459,-35 1459,-35 1459,-41 1453,-47 1447,-47"/>
<text text-anchor="middle" x="1428.5" y="-25.3" font-family="Arial" font-size="14.00">B|I|r2m</text>
</g>
<!-- I|I|r2m&#45;&gt;B|I|r2m -->
<g id="edge19" class="edge">
<title>I|I|r2m&#45;&gt;B|I|r2m</title>
<path fill="none" stroke="black" d="M1302.59,-48.73C1310.41,-41.44 1320.36,-33.88 1331,-30 1348.9,-23.48 1369.93,-22.56 1387.78,-23.54"/>
<polygon fill="black" stroke="black" points="1387.64,-27.04 1397.88,-24.31 1388.18,-20.06 1387.64,-27.04"/>
<text text-anchor="middle" x="1355.5" y="-33.8" font-family="Arial" font-size="14.00">alpha_1</text>
</g>
<!-- B|I|r2m&#45;&gt;B|B|r2m -->
<g id="edge20" class="edge">
<title>B|I|r2m&#45;&gt;B|B|r2m</title>
<path fill="none" stroke="black" d="M1397.94,-22.85C1392.02,-21.78 1385.83,-20.76 1380,-20 1248.5,-2.86 1214.41,2.33 1082,-5 1057.16,-6.38 1029.49,-9.38 1007.3,-12.16"/>
<polygon fill="black" stroke="black" points="1006.67,-8.71 997.2,-13.45 1007.56,-15.65 1006.67,-8.71"/>
<text text-anchor="middle" x="1214.5" y="-7.8" font-family="Arial" font-size="14.00">alpha_2</text>
</g>
<!-- B|I|r2m&#45;&gt;I|I|r2m -->
<g id="edge21" class="edge">
<title>B|I|r2m&#45;&gt;I|I|r2m</title>
<path fill="none" stroke="black" d="M1397.99,-39.42C1392.06,-41.38 1385.86,-43.33 1380,-45 1361.4,-50.3 1340.48,-55.29 1323.1,-59.17"/>
<polygon fill="black" stroke="black" points="1322.34,-55.75 1313.32,-61.32 1323.84,-62.59 1322.34,-55.75"/>
<text text-anchor="middle" x="1355.5" y="-60.8" font-family="Arial" font-size="14.00">beta_1</text>
</g>
</g>
</svg>
