<?xml version="1.0" encoding="UTF-8" standalone="no"?>
<!DOCTYPE svg PUBLIC "-//W3C//DTD SVG 1.1//EN"
 "http://www.w3.org/Graphics/SVG/1.1/DTD/svg11.dtd">
<!-- Generated by graphviz version 12.2.1 (20241206.2353)
 -->
<!-- Title: BuechiClosure(g) Pages: 1 -->
<svg width="392pt" height="138pt"
 viewBox="0.00 0.00 392.22 138.00" xmlns="http://www.w3.org/2000/svg" xmlns:xlink="http://www.w3.org/1999/xlink">
<g id="graph0" class="graph" transform="scale(1 1) rotate(0) translate(4 134)">
<title>BuechiClosure(g)</title>
<!-- dot_dummyinit_1 -->
<g id="node1" class="node">
<title>dot_dummyinit_1</title>
</g>
<!-- 1 -->
<g id="node2" class="node">
<title>1</title>
<path fill="none" stroke="black" d="M79.72,-36C79.72,-36 49.72,-36 49.72,-36 43.72,-36 37.72,-30 37.72,-24 37.72,-24 37.72,-12 37.72,-12 37.72,-6 43.72,0 49.72,0 49.72,0 79.72,0 79.72,0 85.72,0 91.72,-6 91.72,-12 91.72,-12 91.72,-24 91.72,-24 91.72,-30 85.72,-36 79.72,-36"/>
<text text-anchor="start" x="52.97" y="-12.57" font-family="Arial" font-size="14.00">1</text>
<polygon fill="black" stroke="none" points="70.47,-8.12 70.47,-27.88 78.47,-27.88 78.47,-8.12 70.47,-8.12"/>
</g>
<!-- dot_dummyinit_1&#45;&gt;1 -->
<g id="edge1" class="edge">
<title>dot_dummyinit_1&#45;&gt;1</title>
<path fill="none" stroke="black" d="M0.77,-18C1.57,-18 12.96,-18 25.83,-18"/>
<polygon fill="black" stroke="black" points="25.79,-21.5 35.79,-18 25.79,-14.5 25.79,-21.5"/>
</g>
<!-- 2 -->
<g id="node3" class="node">
<title>2</title>
<path fill="none" stroke="black" d="M177.22,-82C177.22,-82 147.22,-82 147.22,-82 141.22,-82 135.22,-76 135.22,-70 135.22,-70 135.22,-58 135.22,-58 135.22,-52 141.22,-46 147.22,-46 147.22,-46 177.22,-46 177.22,-46 183.22,-46 189.22,-52 189.22,-58 189.22,-58 189.22,-70 189.22,-70 189.22,-76 183.22,-82 177.22,-82"/>
<text text-anchor="start" x="150.47" y="-58.58" font-family="Arial" font-size="14.00">2</text>
<polygon fill="black" stroke="none" points="167.97,-54.12 167.97,-73.88 175.97,-73.88 175.97,-54.12 167.97,-54.12"/>
</g>
<!-- 1&#45;&gt;2 -->
<g id="edge2" class="edge">
<title>1&#45;&gt;2</title>
<path fill="none" stroke="black" d="M92.07,-30.69C102.19,-35.57 113.94,-41.23 124.84,-46.48"/>
<polygon fill="black" stroke="black" points="123.07,-49.51 133.59,-50.69 126.1,-43.2 123.07,-49.51"/>
<text text-anchor="middle" x="113.47" y="-44.83" font-family="Arial" font-size="14.00">a</text>
</g>
<!-- 4 -->
<g id="node4" class="node">
<title>4</title>
<path fill="none" stroke="black" d="M274.72,-130C274.72,-130 244.72,-130 244.72,-130 238.72,-130 232.72,-124 232.72,-118 232.72,-118 232.72,-106 232.72,-106 232.72,-100 238.72,-94 244.72,-94 244.72,-94 274.72,-94 274.72,-94 280.72,-94 286.72,-100 286.72,-106 286.72,-106 286.72,-118 286.72,-118 286.72,-124 280.72,-130 274.72,-130"/>
<text text-anchor="start" x="247.97" y="-106.58" font-family="Arial" font-size="14.00">4</text>
<polygon fill="black" stroke="none" points="265.47,-102.12 265.47,-121.88 273.47,-121.88 273.47,-102.12 265.47,-102.12"/>
</g>
<!-- 2&#45;&gt;4 -->
<g id="edge3" class="edge">
<title>2&#45;&gt;4</title>
<path fill="none" stroke="black" d="M181.59,-82.21C189.02,-88.68 198.01,-95.47 207.22,-100 211.58,-102.14 216.33,-103.91 221.13,-105.37"/>
<polygon fill="black" stroke="black" points="220.23,-108.76 230.79,-107.87 221.98,-101.98 220.23,-108.76"/>
<text text-anchor="middle" x="210.97" y="-105.31" font-family="Arial" font-size="14.00">c</text>
</g>
<!-- 6 -->
<g id="node5" class="node">
<title>6</title>
<path fill="none" stroke="black" d="M274.72,-66C274.72,-66 244.72,-66 244.72,-66 238.72,-66 232.72,-60 232.72,-54 232.72,-54 232.72,-42 232.72,-42 232.72,-36 238.72,-30 244.72,-30 244.72,-30 274.72,-30 274.72,-30 280.72,-30 286.72,-36 286.72,-42 286.72,-42 286.72,-54 286.72,-54 286.72,-60 280.72,-66 274.72,-66"/>
<text text-anchor="start" x="247.97" y="-42.58" font-family="Arial" font-size="14.00">6</text>
<polygon fill="black" stroke="none" points="265.47,-38.12 265.47,-57.88 273.47,-57.88 273.47,-38.12 265.47,-38.12"/>
</g>
<!-- 2&#45;&gt;6 -->
<g id="edge4" class="edge">
<title>2&#45;&gt;6</title>
<path fill="none" stroke="black" d="M189.66,-50.72C195.32,-48.45 201.36,-46.45 207.22,-45.25 211.63,-44.35 216.3,-43.91 220.95,-43.78"/>
<polygon fill="black" stroke="black" points="220.74,-47.28 230.82,-44 220.9,-40.28 220.74,-47.28"/>
<text text-anchor="middle" x="210.97" y="-47.7" font-family="Arial" font-size="14.00">d</text>
</g>
<!-- 4&#45;&gt;2 -->
<g id="edge5" class="edge">
<title>4&#45;&gt;2</title>
<path fill="none" stroke="black" d="M236.31,-93.73C229.64,-88.88 222.13,-83.97 214.72,-80.25 210.17,-77.96 205.23,-75.92 200.27,-74.11"/>
<polygon fill="black" stroke="black" points="201.56,-70.85 190.96,-71.01 199.35,-77.49 201.56,-70.85"/>
<text text-anchor="middle" x="210.97" y="-82.7" font-family="Arial" font-size="14.00">b</text>
</g>
<!-- 7 -->
<g id="node6" class="node">
<title>7</title>
<path fill="none" stroke="black" d="M372.22,-53C372.22,-53 342.22,-53 342.22,-53 336.22,-53 330.22,-47 330.22,-41 330.22,-41 330.22,-29 330.22,-29 330.22,-23 336.22,-17 342.22,-17 342.22,-17 372.22,-17 372.22,-17 378.22,-17 384.22,-23 384.22,-29 384.22,-29 384.22,-41 384.22,-41 384.22,-47 378.22,-53 372.22,-53"/>
<text text-anchor="start" x="345.47" y="-29.57" font-family="Arial" font-size="14.00">7</text>
<polygon fill="black" stroke="none" points="362.97,-25.12 362.97,-44.88 370.97,-44.88 370.97,-25.12 362.97,-25.12"/>
</g>
<!-- 6&#45;&gt;7 -->
<g id="edge6" class="edge">
<title>6&#45;&gt;7</title>
<path fill="none" stroke="black" d="M287.06,-52.68C295.18,-53.42 304.11,-53.51 312.22,-52 314.55,-51.57 316.91,-51.01 319.27,-50.37"/>
<polygon fill="black" stroke="black" points="320.27,-53.73 328.72,-47.34 318.12,-47.07 320.27,-53.73"/>
<text text-anchor="middle" x="308.47" y="-55.36" font-family="Arial" font-size="14.00">a</text>
</g>
<!-- 7&#45;&gt;1 -->
<g id="edge7" class="edge">
<title>7&#45;&gt;1</title>
<path fill="none" stroke="black" d="M330,-28.52C317.06,-25.63 301.16,-22.54 286.72,-21 222.58,-14.16 147.39,-15.01 103.32,-16.4"/>
<polygon fill="black" stroke="black" points="103.4,-12.9 93.52,-16.74 103.64,-19.89 103.4,-12.9"/>
<text text-anchor="middle" x="210.97" y="-18.7" font-family="Arial" font-size="14.00">c</text>
</g>
<!-- 7&#45;&gt;6 -->
<g id="edge8" class="edge">
<title>7&#45;&gt;6</title>
<path fill="none" stroke="black" d="M329.89,-31.33C321.77,-30.8 312.84,-30.84 304.72,-32.25 302.41,-32.65 300.06,-33.16 297.71,-33.75"/>
<polygon fill="black" stroke="black" points="296.88,-30.35 288.3,-36.56 298.88,-37.06 296.88,-30.35"/>
<text text-anchor="middle" x="308.47" y="-34.7" font-family="Arial" font-size="14.00">b</text>
</g>
</g>
</svg>
