<?xml version="1.0" encoding="UTF-8" standalone="no"?>
<!DOCTYPE svg PUBLIC "-//W3C//DTD SVG 1.1//EN"
 "http://www.w3.org/Graphics/SVG/1.1/DTD/svg11.dtd">
<!-- Generated by graphviz version 12.2.1 (20241206.2353)
 -->
<!-- Title: G Pages: 1 -->
<svg width="588pt" height="284pt"
 viewBox="0.00 0.00 588.11 284.00" xmlns="http://www.w3.org/2000/svg" xmlns:xlink="http://www.w3.org/1999/xlink">
<g id="graph0" class="graph" transform="scale(1 1) rotate(0) translate(4 280)">
<title>G</title>
<g id="clust1" class="cluster">
<title>cluster_0</title>
<polygon fill="none" stroke="blue" points="170.74,-179 170.74,-239 229.99,-239 229.99,-179 170.74,-179"/>
</g>
<g id="clust2" class="cluster">
<title>cluster_1</title>
<polygon fill="none" stroke="blue" points="255.49,-170 255.49,-268 353.69,-268 353.69,-170 255.49,-170"/>
</g>
<g id="clust3" class="cluster">
<title>cluster_2</title>
<polygon fill="none" stroke="darkblue" points="263.49,-178 263.49,-260 345.69,-260 345.69,-178 263.49,-178"/>
</g>
<g id="clust4" class="cluster">
<title>cluster_3</title>
<polygon fill="none" stroke="orange" points="500.89,-123 500.89,-195 572.11,-195 572.11,-123 500.89,-123"/>
</g>
<g id="clust5" class="cluster">
<title>cluster_4</title>
<polygon fill="none" stroke="orange" points="377.19,-91 377.19,-189 475.39,-189 475.39,-91 377.19,-91"/>
</g>
<g id="clust6" class="cluster">
<title>cluster_5</title>
<polygon fill="none" stroke="darkorange" points="385.19,-99 385.19,-181 467.39,-181 467.39,-99 385.19,-99"/>
</g>
<g id="clust7" class="cluster">
<title>cluster_6</title>
<polygon fill="none" stroke="orange" points="506.88,-41 506.88,-101 566.12,-101 566.12,-41 506.88,-41"/>
</g>
<g id="clust8" class="cluster">
<title>cluster_7</title>
<polygon fill="none" stroke="orange" points="396.67,-8 396.67,-68 455.91,-68 455.91,-8 396.67,-8"/>
</g>
<!-- dot_dummyinit_0 -->
<g id="node1" class="node">
<title>dot_dummyinit_0</title>
</g>
<!-- N0 -->
<g id="node2" class="node">
<title>N0</title>
<ellipse fill="none" stroke="black" cx="113.12" cy="-209" rx="22.12" ry="22.12"/>
<text text-anchor="middle" x="113.12" y="-203.57" font-family="Arial" font-size="14.00">N0</text>
</g>
<!-- dot_dummyinit_0&#45;&gt;N0 -->
<g id="edge1" class="edge">
<title>dot_dummyinit_0&#45;&gt;N0</title>
<path fill="none" stroke="black" d="M53.7,-209C61.71,-209 70.66,-209 79.1,-209"/>
<polygon fill="black" stroke="black" points="79.03,-212.5 89.03,-209 79.03,-205.5 79.03,-212.5"/>
</g>
<!-- A1 -->
<g id="node4" class="node">
<title>A1</title>
<ellipse fill="none" stroke="black" cx="200.37" cy="-209" rx="21.62" ry="21.62"/>
<text text-anchor="middle" x="200.37" y="-203.57" font-family="Arial" font-size="14.00">A1</text>
</g>
<!-- N0&#45;&gt;A1 -->
<g id="edge2" class="edge">
<title>N0&#45;&gt;A1</title>
<path fill="none" stroke="black" d="M135.63,-209C145.17,-209 156.58,-209 167.1,-209"/>
<polygon fill="black" stroke="black" points="166.94,-212.5 176.94,-209 166.94,-205.5 166.94,-212.5"/>
<text text-anchor="middle" x="156.99" y="-211.45" font-family="Arial" font-size="14.00">a</text>
</g>
<!-- A3 -->
<g id="node3" class="node">
<title>A3</title>
<ellipse fill="none" stroke="black" cx="426.29" cy="-219" rx="21.62" ry="21.62"/>
<text text-anchor="middle" x="426.29" y="-213.57" font-family="Arial" font-size="14.00">A3</text>
</g>
<!-- AB4 -->
<g id="node6" class="node">
<title>AB4</title>
<ellipse fill="none" stroke="black" cx="536.5" cy="-159" rx="27.61" ry="27.61"/>
<text text-anchor="middle" x="536.5" y="-153.57" font-family="Arial" font-size="14.00">AB4</text>
</g>
<!-- A3&#45;&gt;AB4 -->
<g id="edge6" class="edge">
<title>A3&#45;&gt;AB4</title>
<path fill="none" stroke="black" d="M445.65,-208.82C461.01,-200.3 483.34,-187.92 501.89,-177.64"/>
<polygon fill="black" stroke="black" points="503.37,-180.82 510.42,-172.91 499.98,-174.7 503.37,-180.82"/>
<text text-anchor="middle" x="487.14" y="-189.65" font-family="Arial" font-size="14.00">a</text>
</g>
<!-- A2_R -->
<g id="node5" class="node">
<title>A2_R</title>
<ellipse fill="none" stroke="black" cx="304.59" cy="-219" rx="33.1" ry="33.1"/>
<text text-anchor="middle" x="304.59" y="-213.57" font-family="Arial" font-size="14.00">A2_R</text>
</g>
<!-- A1&#45;&gt;A2_R -->
<g id="edge3" class="edge">
<title>A1&#45;&gt;A2_R</title>
<path fill="none" stroke="black" d="M222.05,-211.02C232.97,-212.09 246.81,-213.45 259.96,-214.73"/>
<polygon fill="black" stroke="black" points="259.46,-218.2 269.75,-215.69 260.14,-211.23 259.46,-218.2"/>
<text text-anchor="middle" x="243.74" y="-215.85" font-family="Arial" font-size="14.00">a</text>
</g>
<!-- A2_R&#45;&gt;A3 -->
<g id="edge5" class="edge">
<title>A2_R&#45;&gt;A3</title>
<path fill="none" stroke="black" d="M337.98,-219C355.08,-219 376.01,-219 393.08,-219"/>
<polygon fill="black" stroke="black" points="392.68,-222.5 402.68,-219 392.68,-215.5 392.68,-222.5"/>
<text text-anchor="middle" x="365.44" y="-221.45" font-family="Arial" font-size="14.00">a</text>
</g>
<!-- A2_R&#45;&gt;A1 -->
<g id="edge4" class="edge">
<title>A2_R&#45;&gt;A1</title>
<path fill="none" stroke="black" d="M275.3,-203.16C266.64,-199.1 256.91,-195.31 247.49,-193.25 241.75,-192 235.73,-192.58 230,-194.1"/>
<polygon fill="black" stroke="black" points="229.11,-190.7 220.92,-197.42 231.51,-197.27 229.11,-190.7"/>
<text text-anchor="middle" x="243.74" y="-195.7" font-family="Arial" font-size="14.00">a</text>
</g>
<!-- B2_R -->
<g id="node7" class="node">
<title>B2_R</title>
<ellipse fill="none" stroke="black" cx="426.29" cy="-140" rx="33.1" ry="33.1"/>
<text text-anchor="middle" x="426.29" y="-134.57" font-family="Arial" font-size="14.00">B2_R</text>
</g>
<!-- AB4&#45;&gt;B2_R -->
<g id="edge7" class="edge">
<title>AB4&#45;&gt;B2_R</title>
<path fill="none" stroke="black" d="M508.59,-159.28C500.45,-159.01 491.52,-158.36 483.39,-157 478.65,-156.2 473.75,-155.12 468.9,-153.89"/>
<polygon fill="black" stroke="black" points="469.85,-150.52 459.27,-151.2 467.97,-157.26 469.85,-150.52"/>
<text text-anchor="middle" x="487.14" y="-160.44" font-family="Arial" font-size="14.00">a</text>
</g>
<!-- B2_R&#45;&gt;AB4 -->
<g id="edge8" class="edge">
<title>B2_R&#45;&gt;AB4</title>
<path fill="none" stroke="black" d="M459.3,-135.28C469.5,-134.66 480.77,-134.91 490.89,-137.25 494.5,-138.08 498.16,-139.25 501.74,-140.62"/>
<polygon fill="black" stroke="black" points="500.21,-143.77 510.78,-144.56 503.01,-137.35 500.21,-143.77"/>
<text text-anchor="middle" x="487.14" y="-139.7" font-family="Arial" font-size="14.00">a</text>
</g>
<!-- B3 -->
<g id="node8" class="node">
<title>B3</title>
<ellipse fill="none" stroke="black" cx="536.5" cy="-71" rx="21.62" ry="21.62"/>
<text text-anchor="middle" x="536.5" y="-65.58" font-family="Arial" font-size="14.00">B3</text>
</g>
<!-- B2_R&#45;&gt;B3 -->
<g id="edge9" class="edge">
<title>B2_R&#45;&gt;B3</title>
<path fill="none" stroke="black" d="M454.88,-122.41C471.26,-111.96 491.96,-98.76 508.28,-88.36"/>
<polygon fill="black" stroke="black" points="509.98,-91.43 516.53,-83.1 506.21,-85.53 509.98,-91.43"/>
<text text-anchor="middle" x="487.14" y="-105.88" font-family="Arial" font-size="14.00">a</text>
</g>
<!-- B4 -->
<g id="node9" class="node">
<title>B4</title>
<ellipse fill="none" stroke="black" cx="426.29" cy="-38" rx="21.62" ry="21.62"/>
<text text-anchor="middle" x="426.29" y="-32.58" font-family="Arial" font-size="14.00">B4</text>
</g>
<!-- B3&#45;&gt;B4 -->
<g id="edge10" class="edge">
<title>B3&#45;&gt;B4</title>
<path fill="none" stroke="black" d="M524.18,-53.3C516.29,-42.7 504.71,-30.17 490.89,-24.25 480.18,-19.66 467.77,-21.01 456.77,-24.25"/>
<polygon fill="black" stroke="black" points="455.6,-20.95 447.38,-27.63 457.97,-27.53 455.6,-20.95"/>
<text text-anchor="middle" x="487.14" y="-26.7" font-family="Arial" font-size="14.00">a</text>
</g>
<!-- B4&#45;&gt;AB4 -->
<g id="edge11" class="edge">
<title>B4&#45;&gt;AB4</title>
<path fill="none" stroke="black" d="M446.16,-47.05C460.11,-54.55 478.71,-66.37 490.89,-81.25 498.15,-90.11 495.56,-94.86 500.89,-105 504.78,-112.39 509.35,-120.07 513.88,-127.26"/>
<polygon fill="black" stroke="black" points="510.77,-128.89 519.14,-135.39 516.65,-125.09 510.77,-128.89"/>
<text text-anchor="middle" x="487.14" y="-83.7" font-family="Arial" font-size="14.00">a</text>
</g>
</g>
</svg>
