<?xml version="1.0" encoding="UTF-8" standalone="no"?>
<!DOCTYPE svg PUBLIC "-//W3C//DTD SVG 1.1//EN"
 "http://www.w3.org/Graphics/SVG/1.1/DTD/svg11.dtd">
<!-- Generated by graphviz version 12.2.1 (20241206.2353)
 -->
<!-- Title: SupRabinCon((A&#45;B&#45;Machine),(Automaton(A&#45;B&#45;Spec&#45;Eventually&#45;B))) Pages: 1 -->
<svg width="720pt" height="116pt"
 viewBox="0.00 0.00 720.00 115.94" xmlns="http://www.w3.org/2000/svg" xmlns:xlink="http://www.w3.org/1999/xlink">
<g id="graph0" class="graph" transform="scale(0.713578 0.713578) rotate(0) translate(4 158.47)">
<title>SupRabinCon((A&#45;B&#45;Machine),(Automaton(A&#45;B&#45;Spec&#45;Eventually&#45;B)))</title>
<!-- dot_dummyinit_0 -->
<g id="node1" class="node">
<title>dot_dummyinit_0</title>
</g>
<!-- A|I|r1m -->
<g id="node2" class="node">
<title>A|I|r1m</title>
<path fill="none" stroke="black" d="M166.25,-83.72C166.25,-83.72 103,-83.72 103,-83.72 97,-83.72 91,-77.72 91,-71.72 91,-71.72 91,-59.72 91,-59.72 91,-53.72 97,-47.72 103,-47.72 103,-47.72 166.25,-47.72 166.25,-47.72 172.25,-47.72 178.25,-53.72 178.25,-59.72 178.25,-59.72 178.25,-71.72 178.25,-71.72 178.25,-77.72 172.25,-83.72 166.25,-83.72"/>
<text text-anchor="start" x="103" y="-60.3" font-family="Arial" font-size="14.00">A|I|r1m</text>
<polygon fill="lightblue" stroke="none" points="158.25,-55.85 158.25,-75.6 168.25,-75.6 168.25,-55.85 158.25,-55.85"/>
</g>
<!-- dot_dummyinit_0&#45;&gt;A|I|r1m -->
<g id="edge1" class="edge">
<title>dot_dummyinit_0&#45;&gt;A|I|r1m</title>
<path fill="none" stroke="black" d="M53.84,-65.72C61.65,-65.72 70.55,-65.72 79.49,-65.72"/>
<polygon fill="black" stroke="black" points="79.26,-69.22 89.26,-65.72 79.26,-62.22 79.26,-69.22"/>
</g>
<!-- A|R|r1m -->
<g id="node3" class="node">
<title>A|R|r1m</title>
<path fill="none" stroke="black" d="M303,-122.72C303,-122.72 233.75,-122.72 233.75,-122.72 227.75,-122.72 221.75,-116.72 221.75,-110.72 221.75,-110.72 221.75,-98.72 221.75,-98.72 221.75,-92.72 227.75,-86.72 233.75,-86.72 233.75,-86.72 303,-86.72 303,-86.72 309,-86.72 315,-92.72 315,-98.72 315,-98.72 315,-110.72 315,-110.72 315,-116.72 309,-122.72 303,-122.72"/>
<text text-anchor="start" x="233.75" y="-99.3" font-family="Arial" font-size="14.00">A|R|r1m</text>
<polygon fill="lightblue" stroke="none" points="295,-94.85 295,-114.6 305,-114.6 305,-94.85 295,-94.85"/>
</g>
<!-- A|I|r1m&#45;&gt;A|R|r1m -->
<g id="edge2" class="edge">
<title>A|I|r1m&#45;&gt;A|R|r1m</title>
<path fill="none" stroke="black" d="M178.4,-78.38C188.77,-81.45 200.01,-84.78 210.91,-88"/>
<polygon fill="black" stroke="black" points="209.6,-91.27 220.18,-90.75 211.59,-84.56 209.6,-91.27"/>
<text text-anchor="middle" x="200" y="-87.67" font-family="Arial" font-size="14.00">a</text>
</g>
<!-- B|R|r1m -->
<g id="node4" class="node">
<title>B|R|r1m</title>
<path fill="none" stroke="black" d="M575,-59.72C575,-59.72 505.75,-59.72 505.75,-59.72 499.75,-59.72 493.75,-53.72 493.75,-47.72 493.75,-47.72 493.75,-35.72 493.75,-35.72 493.75,-29.72 499.75,-23.72 505.75,-23.72 505.75,-23.72 575,-23.72 575,-23.72 581,-23.72 587,-29.72 587,-35.72 587,-35.72 587,-47.72 587,-47.72 587,-53.72 581,-59.72 575,-59.72"/>
<text text-anchor="start" x="505.75" y="-36.3" font-family="Arial" font-size="14.00">B|R|r1m</text>
<polygon fill="lightblue" stroke="none" points="567,-31.85 567,-51.6 577,-51.6 577,-31.85 567,-31.85"/>
</g>
<!-- A|I|r1m&#45;&gt;B|R|r1m -->
<g id="edge3" class="edge">
<title>A|I|r1m&#45;&gt;B|R|r1m</title>
<path fill="none" stroke="black" d="M178.66,-60.52C184.56,-59.87 190.55,-59.25 196.25,-58.72 256.92,-53.06 272.15,-52.21 333,-48.97 383.39,-46.29 440.77,-44.37 482.21,-43.18"/>
<polygon fill="black" stroke="black" points="482.04,-46.68 491.94,-42.9 481.85,-39.68 482.04,-46.68"/>
<text text-anchor="middle" x="336.75" y="-51.42" font-family="Arial" font-size="14.00">b</text>
</g>
<!-- A|R|r1m&#45;&gt;A|I|r1m -->
<g id="edge4" class="edge">
<title>A|R|r1m&#45;&gt;A|I|r1m</title>
<path fill="none" stroke="black" d="M245.66,-86.4C234.03,-77.78 218.98,-68.43 203.75,-63.97 199.28,-62.66 194.57,-61.8 189.81,-61.27"/>
<polygon fill="black" stroke="black" points="190.37,-57.8 180.18,-60.7 189.95,-64.79 190.37,-57.8"/>
<text text-anchor="middle" x="200" y="-66.42" font-family="Arial" font-size="14.00">c</text>
</g>
<!-- A|F|r1m -->
<g id="node8" class="node">
<title>A|F|r1m</title>
<path fill="none" stroke="black" d="M438.25,-93.72C438.25,-93.72 370.5,-93.72 370.5,-93.72 364.5,-93.72 358.5,-87.72 358.5,-81.72 358.5,-81.72 358.5,-69.72 358.5,-69.72 358.5,-63.72 364.5,-57.72 370.5,-57.72 370.5,-57.72 438.25,-57.72 438.25,-57.72 444.25,-57.72 450.25,-63.72 450.25,-69.72 450.25,-69.72 450.25,-81.72 450.25,-81.72 450.25,-87.72 444.25,-93.72 438.25,-93.72"/>
<text text-anchor="start" x="370.5" y="-70.3" font-family="Arial" font-size="14.00">A|F|r1m</text>
<polygon fill="lightblue" stroke="none" points="430.25,-65.85 430.25,-85.6 440.25,-85.6 440.25,-65.85 430.25,-65.85"/>
</g>
<!-- A|R|r1m&#45;&gt;A|F|r1m -->
<g id="edge5" class="edge">
<title>A|R|r1m&#45;&gt;A|F|r1m</title>
<path fill="none" stroke="black" d="M315.49,-94.74C325.61,-92.55 336.43,-90.21 346.91,-87.94"/>
<polygon fill="black" stroke="black" points="347.57,-91.38 356.6,-85.84 346.09,-84.54 347.57,-91.38"/>
<text text-anchor="middle" x="336.75" y="-92.67" font-family="Arial" font-size="14.00">d</text>
</g>
<!-- A|I|r2m -->
<g id="node5" class="node">
<title>A|I|r2m</title>
<path fill="none" stroke="black" d="M989,-102.72C989,-102.72 913.75,-102.72 913.75,-102.72 907.75,-102.72 901.75,-96.72 901.75,-90.72 901.75,-90.72 901.75,-78.72 901.75,-78.72 901.75,-72.72 907.75,-66.72 913.75,-66.72 913.75,-66.72 989,-66.72 989,-66.72 995,-66.72 1001,-72.72 1001,-78.72 1001,-78.72 1001,-90.72 1001,-90.72 1001,-96.72 995,-102.72 989,-102.72"/>
<text text-anchor="start" x="913.75" y="-79.3" font-family="Arial" font-size="14.00">A|I|r2m</text>
<polygon fill="lightblue" stroke="none" points="969,-74.85 969,-94.6 979,-94.6 979,-74.85 969,-74.85"/>
<polygon fill="darkblue" stroke="none" points="981,-74.85 981,-94.6 991,-94.6 991,-74.85 981,-74.85"/>
</g>
<!-- B|R|r1m&#45;&gt;A|I|r2m -->
<g id="edge6" class="edge">
<title>B|R|r1m&#45;&gt;A|I|r2m</title>
<path fill="none" stroke="black" d="M587.15,-57.74C600.93,-61.97 616.19,-66.09 630.5,-68.72 738.54,-88.59 767.18,-84.25 877,-86.72 881.32,-86.82 885.78,-86.85 890.27,-86.84"/>
<polygon fill="black" stroke="black" points="889.96,-90.35 899.92,-86.75 889.89,-83.35 889.96,-90.35"/>
<text text-anchor="middle" x="744" y="-86.36" font-family="Arial" font-size="14.00">c</text>
</g>
<!-- B|F|r2m -->
<g id="node6" class="node">
<title>B|F|r2m</title>
<path fill="none" stroke="black" d="M710.25,-59.72C710.25,-59.72 642.5,-59.72 642.5,-59.72 636.5,-59.72 630.5,-53.72 630.5,-47.72 630.5,-47.72 630.5,-35.72 630.5,-35.72 630.5,-29.72 636.5,-23.72 642.5,-23.72 642.5,-23.72 710.25,-23.72 710.25,-23.72 716.25,-23.72 722.25,-29.72 722.25,-35.72 722.25,-35.72 722.25,-47.72 722.25,-47.72 722.25,-53.72 716.25,-59.72 710.25,-59.72"/>
<text text-anchor="start" x="642.5" y="-36.3" font-family="Arial" font-size="14.00">B|F|r2m</text>
<polygon fill="lightblue" stroke="none" points="702.25,-31.85 702.25,-51.6 712.25,-51.6 712.25,-31.85 702.25,-31.85"/>
</g>
<!-- B|R|r1m&#45;&gt;B|F|r2m -->
<g id="edge7" class="edge">
<title>B|R|r1m&#45;&gt;B|F|r2m</title>
<path fill="none" stroke="black" d="M587.49,-41.72C597.5,-41.72 608.2,-41.72 618.57,-41.72"/>
<polygon fill="black" stroke="black" points="618.57,-45.22 628.57,-41.72 618.57,-38.22 618.57,-45.22"/>
<text text-anchor="middle" x="608.75" y="-44.17" font-family="Arial" font-size="14.00">d</text>
</g>
<!-- A|I|r2m&#45;&gt;A|R|r1m -->
<g id="edge8" class="edge">
<title>A|I|r2m&#45;&gt;A|R|r1m</title>
<path fill="none" stroke="black" d="M921.99,-103.15C895.14,-118.8 853.13,-138.72 813.38,-138.72 403.38,-138.72 403.38,-138.72 403.38,-138.72 377.58,-138.72 349.82,-132.73 326.3,-125.77"/>
<polygon fill="black" stroke="black" points="327.5,-122.48 316.91,-122.87 325.43,-129.17 327.5,-122.48"/>
<text text-anchor="middle" x="608.75" y="-141.17" font-family="Arial" font-size="14.00">a</text>
</g>
<!-- A|I|r2m&#45;&gt;B|R|r1m -->
<g id="edge9" class="edge">
<title>A|I|r2m&#45;&gt;B|R|r1m</title>
<path fill="none" stroke="black" d="M926.5,-66.33C908.79,-53.6 883.57,-37.28 859,-27.72 764.2,9.16 730.53,3.72 630.5,-14.72 619.88,-16.68 608.73,-19.45 598.06,-22.48"/>
<polygon fill="black" stroke="black" points="597.2,-19.09 588.6,-25.28 599.18,-25.8 597.2,-19.09"/>
<text text-anchor="middle" x="744" y="-2.92" font-family="Arial" font-size="14.00">b</text>
</g>
<!-- B|R|r2m -->
<g id="node7" class="node">
<title>B|R|r2m</title>
<path fill="none" stroke="black" d="M847,-72.72C847,-72.72 777.75,-72.72 777.75,-72.72 771.75,-72.72 765.75,-66.72 765.75,-60.72 765.75,-60.72 765.75,-48.72 765.75,-48.72 765.75,-42.72 771.75,-36.72 777.75,-36.72 777.75,-36.72 847,-36.72 847,-36.72 853,-36.72 859,-42.72 859,-48.72 859,-48.72 859,-60.72 859,-60.72 859,-66.72 853,-72.72 847,-72.72"/>
<text text-anchor="start" x="777.75" y="-49.3" font-family="Arial" font-size="14.00">B|R|r2m</text>
<polygon fill="lightblue" stroke="none" points="839,-44.85 839,-64.6 849,-64.6 849,-44.85 839,-44.85"/>
</g>
<!-- B|F|r2m&#45;&gt;B|R|r2m -->
<g id="edge10" class="edge">
<title>B|F|r2m&#45;&gt;B|R|r2m</title>
<path fill="none" stroke="black" d="M722.74,-46.12C732.89,-47.11 743.78,-48.16 754.33,-49.19"/>
<polygon fill="black" stroke="black" points="753.8,-52.65 764.09,-50.13 754.48,-45.68 753.8,-52.65"/>
<text text-anchor="middle" x="744" y="-50.67" font-family="Arial" font-size="14.00">b</text>
</g>
<!-- B|R|r2m&#45;&gt;A|I|r2m -->
<g id="edge11" class="edge">
<title>B|R|r2m&#45;&gt;A|I|r2m</title>
<path fill="none" stroke="black" d="M859.38,-64.79C869.31,-66.97 879.95,-69.3 890.33,-71.57"/>
<polygon fill="black" stroke="black" points="889.45,-74.96 899.97,-73.68 890.95,-68.12 889.45,-74.96"/>
<text text-anchor="middle" x="880.38" y="-72.17" font-family="Arial" font-size="14.00">c</text>
</g>
<!-- B|R|r2m&#45;&gt;B|F|r2m -->
<g id="edge12" class="edge">
<title>B|R|r2m&#45;&gt;B|F|r2m</title>
<path fill="none" stroke="black" d="M774.48,-36.31C765.91,-32.86 756.68,-29.77 747.75,-27.97 743.15,-27.04 738.38,-26.69 733.59,-26.75"/>
<polygon fill="black" stroke="black" points="733.66,-23.24 723.95,-27.49 734.19,-30.22 733.66,-23.24"/>
<text text-anchor="middle" x="744" y="-30.42" font-family="Arial" font-size="14.00">d</text>
</g>
<!-- A|F|r1m&#45;&gt;A|R|r1m -->
<g id="edge13" class="edge">
<title>A|F|r1m&#45;&gt;A|R|r1m</title>
<path fill="none" stroke="black" d="M358.33,-67.64C349.83,-67.35 341.08,-67.91 333,-69.97 323.81,-72.32 314.52,-76.29 305.98,-80.74"/>
<polygon fill="black" stroke="black" points="304.34,-77.64 297.32,-85.57 307.75,-83.75 304.34,-77.64"/>
<text text-anchor="middle" x="336.75" y="-72.42" font-family="Arial" font-size="14.00">a</text>
</g>
<!-- A|F|r1m&#45;&gt;B|R|r1m -->
<g id="edge14" class="edge">
<title>A|F|r1m&#45;&gt;B|R|r1m</title>
<path fill="none" stroke="black" d="M450.74,-64.21C461,-61.61 472.01,-58.81 482.67,-56.11"/>
<polygon fill="black" stroke="black" points="483.3,-59.56 492.13,-53.71 481.58,-52.77 483.3,-59.56"/>
<text text-anchor="middle" x="472" y="-62.19" font-family="Arial" font-size="14.00">b</text>
</g>
</g>
</svg>
