<?xml version="1.0" encoding="UTF-8" standalone="no"?>
<!DOCTYPE svg PUBLIC "-//W3C//DTD SVG 1.1//EN"
 "http://www.w3.org/Graphics/SVG/1.1/DTD/svg11.dtd">
<!-- Generated by graphviz version 12.2.1 (20241206.2353)
 -->
<!-- Title: A&#45;B&#45;Spec&#45;Alternate Pages: 1 -->
<svg width="356pt" height="157pt"
 viewBox="0.00 0.00 356.46 156.75" xmlns="http://www.w3.org/2000/svg" xmlns:xlink="http://www.w3.org/1999/xlink">
<g id="graph0" class="graph" transform="scale(1 1) rotate(0) translate(4 152.75)">
<title>A&#45;B&#45;Spec&#45;Alternate</title>
<!-- dot_dummyinit_1 -->
<g id="node1" class="node">
<title>dot_dummyinit_1</title>
</g>
<!-- A1 -->
<g id="node2" class="node">
<title>A1</title>
<ellipse fill="none" stroke="black" cx="63.34" cy="-25.62" rx="21.62" ry="21.62"/>
<ellipse fill="none" stroke="black" cx="63.34" cy="-25.62" rx="25.62" ry="25.62"/>
<text text-anchor="middle" x="63.34" y="-20.2" font-family="Arial" font-size="14.00">A1</text>
</g>
<!-- dot_dummyinit_1&#45;&gt;A1 -->
<g id="edge1" class="edge">
<title>dot_dummyinit_1&#45;&gt;A1</title>
<path fill="none" stroke="black" d="M0.76,-25.62C1.57,-25.62 13.17,-25.62 26.1,-25.62"/>
<polygon fill="black" stroke="black" points="26.04,-29.12 36.04,-25.62 26.04,-22.12 26.04,-29.12"/>
</g>
<!-- A2 -->
<g id="node3" class="node">
<title>A2</title>
<ellipse fill="none" stroke="black" cx="154.09" cy="-59.62" rx="21.62" ry="21.62"/>
<text text-anchor="middle" x="154.09" y="-54.2" font-family="Arial" font-size="14.00">A2</text>
</g>
<!-- A1&#45;&gt;A2 -->
<g id="edge2" class="edge">
<title>A1&#45;&gt;A2</title>
<path fill="none" stroke="black" d="M87.66,-34.56C98.48,-38.7 111.47,-43.68 123.02,-48.1"/>
<polygon fill="black" stroke="black" points="121.52,-51.28 132.11,-51.59 124.03,-44.74 121.52,-51.28"/>
<text text-anchor="middle" x="110.72" y="-47.11" font-family="Arial" font-size="14.00">a</text>
</g>
<!-- A2&#45;&gt;A2 -->
<g id="edge3" class="edge">
<title>A2&#45;&gt;A2</title>
<path fill="none" stroke="black" d="M150.12,-81.22C149.74,-90.89 151.07,-99.25 154.09,-99.25 155.79,-99.25 156.95,-96.6 157.58,-92.57"/>
<polygon fill="black" stroke="black" points="161.07,-92.88 157.99,-82.74 154.07,-92.58 161.07,-92.88"/>
<text text-anchor="middle" x="154.09" y="-101.7" font-family="Arial" font-size="14.00">a</text>
</g>
<!-- A2&#45;&gt;A2 -->
<g id="edge5" class="edge">
<title>A2&#45;&gt;A2</title>
<path fill="none" stroke="black" d="M147.31,-80.6C144.31,-98.46 146.57,-117.25 154.09,-117.25 160.02,-117.25 162.68,-105.55 162.07,-91.84"/>
<polygon fill="black" stroke="black" points="165.57,-91.68 161.03,-82.11 158.61,-92.42 165.57,-91.68"/>
<text text-anchor="middle" x="154.09" y="-119.7" font-family="Arial" font-size="14.00">d</text>
</g>
<!-- B1 -->
<g id="node4" class="node">
<title>B1</title>
<ellipse fill="none" stroke="black" cx="240.09" cy="-59.62" rx="21.62" ry="21.62"/>
<text text-anchor="middle" x="240.09" y="-54.2" font-family="Arial" font-size="14.00">B1</text>
</g>
<!-- A2&#45;&gt;B1 -->
<g id="edge4" class="edge">
<title>A2&#45;&gt;B1</title>
<path fill="none" stroke="black" d="M175.85,-59.62C185.17,-59.62 196.38,-59.62 206.76,-59.62"/>
<polygon fill="black" stroke="black" points="206.46,-63.12 216.46,-59.62 206.46,-56.12 206.46,-63.12"/>
<text text-anchor="middle" x="197.09" y="-62.07" font-family="Arial" font-size="14.00">c</text>
</g>
<!-- B2 -->
<g id="node5" class="node">
<title>B2</title>
<ellipse fill="none" stroke="black" cx="326.83" cy="-25.62" rx="21.62" ry="21.62"/>
<text text-anchor="middle" x="326.83" y="-20.2" font-family="Arial" font-size="14.00">B2</text>
</g>
<!-- B1&#45;&gt;B2 -->
<g id="edge6" class="edge">
<title>B1&#45;&gt;B2</title>
<path fill="none" stroke="black" d="M260.74,-51.74C271.12,-47.57 284.07,-42.38 295.69,-37.72"/>
<polygon fill="black" stroke="black" points="296.9,-41 304.88,-34.03 294.29,-34.5 296.9,-41"/>
<text text-anchor="middle" x="283.46" y="-46.09" font-family="Arial" font-size="14.00">b</text>
</g>
<!-- B2&#45;&gt;A1 -->
<g id="edge8" class="edge">
<title>B2&#45;&gt;A1</title>
<path fill="none" stroke="black" d="M304.9,-25.62C260.5,-25.62 156.4,-25.62 100.82,-25.62"/>
<polygon fill="black" stroke="black" points="100.93,-22.12 90.93,-25.62 100.93,-29.12 100.93,-22.12"/>
<text text-anchor="middle" x="197.09" y="-28.07" font-family="Arial" font-size="14.00">c</text>
</g>
<!-- B2&#45;&gt;B2 -->
<g id="edge7" class="edge">
<title>B2&#45;&gt;B2</title>
<path fill="none" stroke="black" d="M322.83,-47.22C322.45,-56.89 323.78,-65.25 326.83,-65.25 328.55,-65.25 329.72,-62.6 330.35,-58.57"/>
<polygon fill="black" stroke="black" points="333.84,-58.88 330.77,-48.74 326.85,-58.58 333.84,-58.88"/>
<text text-anchor="middle" x="326.83" y="-67.7" font-family="Arial" font-size="14.00">b</text>
</g>
<!-- B2&#45;&gt;B2 -->
<g id="edge9" class="edge">
<title>B2&#45;&gt;B2</title>
<path fill="none" stroke="black" d="M319.99,-46.6C316.97,-64.46 319.25,-83.25 326.83,-83.25 332.81,-83.25 335.5,-71.55 334.88,-57.84"/>
<polygon fill="black" stroke="black" points="338.38,-57.68 333.83,-48.11 331.42,-58.42 338.38,-57.68"/>
<text text-anchor="middle" x="326.83" y="-85.7" font-family="Arial" font-size="14.00">d</text>
</g>
</g>
</svg>
