<?xml version="1.0" encoding="UTF-8" standalone="no"?>
<!DOCTYPE svg PUBLIC "-//W3C//DTD SVG 1.1//EN"
 "http://www.w3.org/Graphics/SVG/1.1/DTD/svg11.dtd">
<!-- Generated by graphviz version 12.2.1 (20241206.2353)
 -->
<!-- Title: BuechiConNorm((wPlant3),(wSpec3)) [minstate] Pages: 1 -->
<svg width="720pt" height="189pt"
 viewBox="0.00 0.00 720.00 189.02" xmlns="http://www.w3.org/2000/svg" xmlns:xlink="http://www.w3.org/1999/xlink">
<g id="graph0" class="graph" transform="scale(0.733218 0.733218) rotate(0) translate(4 253.8)">
<title>BuechiConNorm((wPlant3),(wSpec3)) [minstate]</title>
<!-- dot_dummyinit_1 -->
<g id="node1" class="node">
<title>dot_dummyinit_1</title>
</g>
<!-- 19 -->
<g id="node2" class="node">
<title>19</title>
<ellipse fill="none" stroke="black" cx="58.35" cy="-124.17" rx="20.63" ry="20.63"/>
<text text-anchor="middle" x="58.35" y="-118.75" font-family="Arial" font-size="14.00">19</text>
</g>
<!-- dot_dummyinit_1&#45;&gt;19 -->
<g id="edge1" class="edge">
<title>dot_dummyinit_1&#45;&gt;19</title>
<path fill="none" stroke="black" d="M0.88,-124.17C2.37,-124.17 13.89,-124.17 26.14,-124.17"/>
<polygon fill="black" stroke="black" points="25.81,-127.67 35.81,-124.17 25.81,-120.67 25.81,-127.67"/>
</g>
<!-- 7 -->
<g id="node5" class="node">
<title>7</title>
<ellipse fill="none" stroke="black" cx="147.1" cy="-156.17" rx="18" ry="18"/>
<ellipse fill="none" stroke="black" cx="147.1" cy="-156.17" rx="22" ry="22"/>
<text text-anchor="middle" x="147.1" y="-150.75" font-family="Arial" font-size="14.00">7</text>
</g>
<!-- 19&#45;&gt;7 -->
<g id="edge31" class="edge">
<title>19&#45;&gt;7</title>
<path fill="none" stroke="black" d="M77.52,-132.95C83.63,-135.75 90.53,-138.75 96.97,-141.17 102.56,-143.28 108.6,-145.31 114.45,-147.17"/>
<polygon fill="black" stroke="black" points="113.31,-150.48 123.89,-150.04 115.35,-143.78 113.31,-150.48"/>
<text text-anchor="middle" x="100.72" y="-146" font-family="Arial" font-size="14.00">b</text>
</g>
<!-- 12 -->
<g id="node6" class="node">
<title>12</title>
<ellipse fill="none" stroke="black" cx="147.1" cy="-85.17" rx="20.63" ry="20.63"/>
<ellipse fill="none" stroke="black" cx="147.1" cy="-85.17" rx="24.63" ry="24.63"/>
<text text-anchor="middle" x="147.1" y="-79.75" font-family="Arial" font-size="14.00">12</text>
</g>
<!-- 19&#45;&gt;12 -->
<g id="edge30" class="edge">
<title>19&#45;&gt;12</title>
<path fill="none" stroke="black" d="M76.68,-113.91C82.96,-110.38 90.19,-106.53 96.97,-103.42 101.98,-101.13 107.37,-98.9 112.68,-96.83"/>
<polygon fill="black" stroke="black" points="113.76,-100.16 121.89,-93.37 111.3,-93.61 113.76,-100.16"/>
<text text-anchor="middle" x="100.72" y="-105.87" font-family="Arial" font-size="14.00">a</text>
</g>
<!-- 1 -->
<g id="node3" class="node">
<title>1</title>
<ellipse fill="none" stroke="black" cx="700.22" cy="-137.17" rx="18" ry="18"/>
<ellipse fill="none" stroke="black" cx="700.22" cy="-137.17" rx="22" ry="22"/>
<text text-anchor="middle" x="700.22" y="-131.75" font-family="Arial" font-size="14.00">1</text>
</g>
<!-- 6 -->
<g id="node12" class="node">
<title>6</title>
<ellipse fill="none" stroke="black" cx="783.72" cy="-194.17" rx="18" ry="18"/>
<text text-anchor="middle" x="783.72" y="-188.75" font-family="Arial" font-size="14.00">6</text>
</g>
<!-- 1&#45;&gt;6 -->
<g id="edge2" class="edge">
<title>1&#45;&gt;6</title>
<path fill="none" stroke="black" d="M716.4,-152.44C723.33,-158.96 731.84,-166.38 740.22,-172.17 745.3,-175.69 751.02,-179.01 756.57,-181.97"/>
<polygon fill="black" stroke="black" points="754.98,-185.08 765.48,-186.46 758.13,-178.83 754.98,-185.08"/>
<text text-anchor="middle" x="743.97" y="-178.87" font-family="Arial" font-size="14.00">c</text>
</g>
<!-- 9 -->
<g id="node14" class="node">
<title>9</title>
<ellipse fill="none" stroke="black" cx="783.72" cy="-117.17" rx="18" ry="18"/>
<text text-anchor="middle" x="783.72" y="-111.75" font-family="Arial" font-size="14.00">9</text>
</g>
<!-- 1&#45;&gt;9 -->
<g id="edge3" class="edge">
<title>1&#45;&gt;9</title>
<path fill="none" stroke="black" d="M719.19,-125.89C725.58,-122.48 732.99,-119.17 740.22,-117.42 744.69,-116.34 749.51,-115.77 754.23,-115.53"/>
<polygon fill="black" stroke="black" points="754.04,-119.03 764.03,-115.5 754.02,-112.03 754.04,-119.03"/>
<text text-anchor="middle" x="743.97" y="-119.87" font-family="Arial" font-size="14.00">f</text>
</g>
<!-- 3 -->
<g id="node4" class="node">
<title>3</title>
<ellipse fill="none" stroke="black" cx="951.97" cy="-67.17" rx="18" ry="18"/>
<ellipse fill="none" stroke="black" cx="951.97" cy="-67.17" rx="22" ry="22"/>
<text text-anchor="middle" x="951.97" y="-61.75" font-family="Arial" font-size="14.00">3</text>
</g>
<!-- 16 -->
<g id="node20" class="node">
<title>16</title>
<ellipse fill="none" stroke="black" cx="865.85" cy="-67.17" rx="20.63" ry="20.63"/>
<text text-anchor="middle" x="865.85" y="-61.75" font-family="Arial" font-size="14.00">16</text>
</g>
<!-- 3&#45;&gt;16 -->
<g id="edge6" class="edge">
<title>3&#45;&gt;16</title>
<path fill="none" stroke="black" d="M933.24,-55.09C924.72,-50.67 914.25,-47.23 904.47,-49.42 901.23,-50.15 897.95,-51.19 894.73,-52.4"/>
<polygon fill="black" stroke="black" points="893.39,-49.17 885.64,-56.4 896.21,-55.57 893.39,-49.17"/>
<text text-anchor="middle" x="908.22" y="-51.87" font-family="Arial" font-size="14.00">a</text>
</g>
<!-- 7&#45;&gt;19 -->
<g id="edge11" class="edge">
<title>7&#45;&gt;19</title>
<path fill="none" stroke="black" d="M130.82,-141.37C123.47,-135.23 114.15,-128.76 104.47,-125.42 100.09,-123.92 95.34,-123.04 90.6,-122.58"/>
<polygon fill="black" stroke="black" points="90.76,-119.08 80.64,-122.23 90.51,-126.08 90.76,-119.08"/>
<text text-anchor="middle" x="100.72" y="-127.87" font-family="Arial" font-size="14.00">c</text>
</g>
<!-- 11 -->
<g id="node16" class="node">
<title>11</title>
<ellipse fill="none" stroke="black" cx="235.85" cy="-21.17" rx="20.13" ry="20.13"/>
<text text-anchor="middle" x="235.85" y="-15.75" font-family="Arial" font-size="14.00">11</text>
</g>
<!-- 12&#45;&gt;11 -->
<g id="edge20" class="edge">
<title>12&#45;&gt;11</title>
<path fill="none" stroke="black" d="M162.66,-65.48C169.99,-56.61 179.5,-46.54 189.72,-39.42 194.62,-36.01 200.26,-33.09 205.85,-30.65"/>
<polygon fill="black" stroke="black" points="206.89,-34 214.93,-27.1 204.34,-27.48 206.89,-34"/>
<text text-anchor="middle" x="193.47" y="-41.87" font-family="Arial" font-size="14.00">f</text>
</g>
<!-- 13 -->
<g id="node17" class="node">
<title>13</title>
<ellipse fill="none" stroke="black" cx="235.85" cy="-141.17" rx="20.63" ry="20.63"/>
<text text-anchor="middle" x="235.85" y="-135.75" font-family="Arial" font-size="14.00">13</text>
</g>
<!-- 12&#45;&gt;13 -->
<g id="edge19" class="edge">
<title>12&#45;&gt;13</title>
<path fill="none" stroke="black" d="M171.07,-91.42C179.66,-94.34 189.26,-98.31 197.22,-103.42 203.35,-107.37 209.27,-112.45 214.53,-117.61"/>
<polygon fill="black" stroke="black" points="211.69,-119.71 221.13,-124.52 216.75,-114.88 211.69,-119.71"/>
<text text-anchor="middle" x="193.47" y="-105.87" font-family="Arial" font-size="14.00">c</text>
</g>
<!-- 17 -->
<g id="node7" class="node">
<title>17</title>
<ellipse fill="none" stroke="black" cx="445.85" cy="-164.17" rx="20.63" ry="20.63"/>
<ellipse fill="none" stroke="black" cx="445.85" cy="-164.17" rx="24.63" ry="24.63"/>
<text text-anchor="middle" x="445.85" y="-158.75" font-family="Arial" font-size="14.00">17</text>
</g>
<!-- 8 -->
<g id="node13" class="node">
<title>8</title>
<ellipse fill="none" stroke="black" cx="317.97" cy="-128.17" rx="18" ry="18"/>
<text text-anchor="middle" x="317.97" y="-122.75" font-family="Arial" font-size="14.00">8</text>
</g>
<!-- 17&#45;&gt;8 -->
<g id="edge28" class="edge">
<title>17&#45;&gt;8</title>
<path fill="none" stroke="black" d="M421.16,-166.61C402.26,-167.63 375.49,-166.95 353.97,-158.17 348.69,-156.02 343.64,-152.74 339.1,-149.13"/>
<polygon fill="black" stroke="black" points="341.49,-146.58 331.71,-142.52 336.82,-151.79 341.49,-146.58"/>
<text text-anchor="middle" x="378.6" y="-169.34" font-family="Arial" font-size="14.00">a</text>
</g>
<!-- 18 -->
<g id="node8" class="node">
<title>18</title>
<ellipse fill="none" stroke="black" cx="378.6" cy="-225.17" rx="20.63" ry="20.63"/>
<ellipse fill="none" stroke="black" cx="378.6" cy="-225.17" rx="24.63" ry="24.63"/>
<text text-anchor="middle" x="378.6" y="-219.75" font-family="Arial" font-size="14.00">18</text>
</g>
<!-- 18&#45;&gt;6 -->
<g id="edge29" class="edge">
<title>18&#45;&gt;6</title>
<path fill="none" stroke="black" d="M403.55,-225.17C426.15,-225.17 460.99,-225.17 491.22,-225.17 491.22,-225.17 491.22,-225.17 701.22,-225.17 721.27,-225.17 742.39,-216.88 758.1,-208.87"/>
<polygon fill="black" stroke="black" points="759.59,-212.04 766.71,-204.2 756.25,-205.89 759.59,-212.04"/>
<text text-anchor="middle" x="576.97" y="-227.62" font-family="Arial" font-size="14.00">c</text>
</g>
<!-- 2 -->
<g id="node9" class="node">
<title>2</title>
<ellipse fill="none" stroke="black" cx="616.72" cy="-51.17" rx="18" ry="18"/>
<text text-anchor="middle" x="616.72" y="-45.75" font-family="Arial" font-size="14.00">2</text>
</g>
<!-- 2&#45;&gt;1 -->
<g id="edge5" class="edge">
<title>2&#45;&gt;1</title>
<path fill="none" stroke="black" d="M629.75,-63.86C642.11,-76.91 661.66,-97.54 676.88,-113.6"/>
<polygon fill="black" stroke="black" points="673.92,-115.56 683.34,-120.41 679,-110.75 673.92,-115.56"/>
<text text-anchor="middle" x="656.47" y="-96.62" font-family="Arial" font-size="14.00">e</text>
</g>
<!-- 4 -->
<g id="node10" class="node">
<title>4</title>
<ellipse fill="none" stroke="black" cx="534.6" cy="-22.17" rx="18" ry="18"/>
<text text-anchor="middle" x="534.6" y="-16.75" font-family="Arial" font-size="14.00">4</text>
</g>
<!-- 2&#45;&gt;4 -->
<g id="edge4" class="edge">
<title>2&#45;&gt;4</title>
<path fill="none" stroke="black" d="M599.26,-45.22C588.63,-41.37 574.56,-36.28 562.35,-31.86"/>
<polygon fill="black" stroke="black" points="563.83,-28.67 553.23,-28.56 561.45,-35.25 563.83,-28.67"/>
<text text-anchor="middle" x="576.97" y="-40.86" font-family="Arial" font-size="14.00">c</text>
</g>
<!-- 4&#45;&gt;2 -->
<g id="edge7" class="edge">
<title>4&#45;&gt;2</title>
<path fill="none" stroke="black" d="M551.99,-16.19C560.8,-13.93 571.67,-12.69 580.72,-16.42 587.11,-19.06 592.95,-23.49 597.95,-28.31"/>
<polygon fill="black" stroke="black" points="595.17,-30.45 604.51,-35.46 600.33,-25.72 595.17,-30.45"/>
<text text-anchor="middle" x="576.97" y="-18.87" font-family="Arial" font-size="14.00">a</text>
</g>
<!-- 5 -->
<g id="node11" class="node">
<title>5</title>
<ellipse fill="none" stroke="black" cx="317.97" cy="-22.17" rx="18" ry="18"/>
<text text-anchor="middle" x="317.97" y="-16.75" font-family="Arial" font-size="14.00">5</text>
</g>
<!-- 5&#45;&gt;11 -->
<g id="edge8" class="edge">
<title>5&#45;&gt;11</title>
<path fill="none" stroke="black" d="M299.66,-21.96C290.28,-21.84 278.4,-21.69 267.51,-21.56"/>
<polygon fill="black" stroke="black" points="267.8,-18.06 257.76,-21.44 267.71,-25.06 267.8,-18.06"/>
<text text-anchor="middle" x="278.22" y="-24.18" font-family="Arial" font-size="14.00">a</text>
</g>
<!-- 20 -->
<g id="node21" class="node">
<title>20</title>
<ellipse fill="none" stroke="black" cx="445.85" cy="-22.17" rx="20.63" ry="20.63"/>
<text text-anchor="middle" x="445.85" y="-16.75" font-family="Arial" font-size="14.00">20</text>
</g>
<!-- 5&#45;&gt;20 -->
<g id="edge9" class="edge">
<title>5&#45;&gt;20</title>
<path fill="none" stroke="black" d="M336.21,-22.17C356.11,-22.17 389.25,-22.17 413.7,-22.17"/>
<polygon fill="black" stroke="black" points="413.4,-25.67 423.4,-22.17 413.4,-18.67 413.4,-25.67"/>
<text text-anchor="middle" x="378.6" y="-24.62" font-family="Arial" font-size="14.00">b</text>
</g>
<!-- 6&#45;&gt;1 -->
<g id="edge10" class="edge">
<title>6&#45;&gt;1</title>
<path fill="none" stroke="black" d="M773.32,-179.2C767.04,-170.3 758.06,-159.42 747.72,-152.42 743.21,-149.37 738.04,-146.89 732.83,-144.89"/>
<polygon fill="black" stroke="black" points="734.29,-141.68 723.7,-141.89 732.1,-148.33 734.29,-141.68"/>
<text text-anchor="middle" x="743.97" y="-154.87" font-family="Arial" font-size="14.00">a</text>
</g>
<!-- 8&#45;&gt;17 -->
<g id="edge12" class="edge">
<title>8&#45;&gt;17</title>
<path fill="none" stroke="black" d="M336.14,-129.49C353.44,-131.18 380.72,-134.86 403.22,-142.42 406.78,-143.62 410.4,-145.09 413.95,-146.69"/>
<polygon fill="black" stroke="black" points="412.37,-149.82 422.88,-151.11 415.47,-143.54 412.37,-149.82"/>
<text text-anchor="middle" x="378.6" y="-144.87" font-family="Arial" font-size="14.00">c</text>
</g>
<!-- 14 -->
<g id="node18" class="node">
<title>14</title>
<ellipse fill="none" stroke="black" cx="445.85" cy="-92.17" rx="20.63" ry="20.63"/>
<text text-anchor="middle" x="445.85" y="-86.75" font-family="Arial" font-size="14.00">14</text>
</g>
<!-- 8&#45;&gt;14 -->
<g id="edge13" class="edge">
<title>8&#45;&gt;14</title>
<path fill="none" stroke="black" d="M334.38,-120.42C340.39,-117.62 347.4,-114.61 353.97,-112.42 373.51,-105.93 396.1,-100.88 413.87,-97.45"/>
<polygon fill="black" stroke="black" points="414.35,-100.92 423.54,-95.66 413.07,-94.04 414.35,-100.92"/>
<text text-anchor="middle" x="378.6" y="-114.87" font-family="Arial" font-size="14.00">f</text>
</g>
<!-- 10 -->
<g id="node15" class="node">
<title>10</title>
<ellipse fill="none" stroke="black" cx="865.85" cy="-132.17" rx="20.63" ry="20.63"/>
<text text-anchor="middle" x="865.85" y="-126.75" font-family="Arial" font-size="14.00">10</text>
</g>
<!-- 9&#45;&gt;10 -->
<g id="edge14" class="edge">
<title>9&#45;&gt;10</title>
<path fill="none" stroke="black" d="M799.03,-127.04C805.12,-130.67 812.48,-134.34 819.72,-136.17 824.35,-137.35 829.33,-137.74 834.22,-137.66"/>
<polygon fill="black" stroke="black" points="834.11,-141.18 843.79,-136.86 833.53,-134.2 834.11,-141.18"/>
<text text-anchor="middle" x="823.47" y="-139.85" font-family="Arial" font-size="14.00">c</text>
</g>
<!-- 9&#45;&gt;16 -->
<g id="edge15" class="edge">
<title>9&#45;&gt;16</title>
<path fill="none" stroke="black" d="M799.42,-108C810.18,-101.29 825.1,-91.98 837.97,-83.94"/>
<polygon fill="black" stroke="black" points="839.83,-86.91 846.46,-78.65 836.12,-80.97 839.83,-86.91"/>
<text text-anchor="middle" x="823.47" y="-97.62" font-family="Arial" font-size="14.00">e</text>
</g>
<!-- 10&#45;&gt;9 -->
<g id="edge16" class="edge">
<title>10&#45;&gt;9</title>
<path fill="none" stroke="black" d="M846.94,-122.98C840.84,-120.31 833.89,-117.76 827.22,-116.42 822.71,-115.52 817.88,-115.1 813.14,-114.98"/>
<polygon fill="black" stroke="black" points="813.27,-111.48 803.34,-115.18 813.41,-118.48 813.27,-111.48"/>
<text text-anchor="middle" x="823.47" y="-118.87" font-family="Arial" font-size="14.00">a</text>
</g>
<!-- 11&#45;&gt;5 -->
<g id="edge17" class="edge">
<title>11&#45;&gt;5</title>
<path fill="none" stroke="black" d="M251.9,-8.86C260.49,-3.32 271.58,1.42 281.97,-1.42 285.83,-2.48 289.7,-4.09 293.39,-5.95"/>
<polygon fill="black" stroke="black" points="291.41,-8.85 301.81,-10.87 294.94,-2.8 291.41,-8.85"/>
<text text-anchor="middle" x="278.22" y="-3.87" font-family="Arial" font-size="14.00">c</text>
</g>
<!-- 11&#45;&gt;8 -->
<g id="edge18" class="edge">
<title>11&#45;&gt;8</title>
<path fill="none" stroke="black" d="M244.97,-39.48C251.76,-53.76 262.29,-73.7 274.47,-89.17 280.39,-96.7 287.82,-104.04 294.8,-110.29"/>
<polygon fill="black" stroke="black" points="292.25,-112.71 302.11,-116.57 296.81,-107.4 292.25,-112.71"/>
<text text-anchor="middle" x="278.22" y="-99.96" font-family="Arial" font-size="14.00">e</text>
</g>
<!-- 13&#45;&gt;12 -->
<g id="edge21" class="edge">
<title>13&#45;&gt;12</title>
<path fill="none" stroke="black" d="M216.32,-133.32C207.95,-129.48 198.09,-124.53 189.72,-119.17 184.74,-115.99 179.67,-112.29 174.87,-108.54"/>
<polygon fill="black" stroke="black" points="177.19,-105.92 167.22,-102.32 172.77,-111.35 177.19,-105.92"/>
<text text-anchor="middle" x="193.47" y="-125.85" font-family="Arial" font-size="14.00">a</text>
</g>
<!-- 13&#45;&gt;18 -->
<g id="edge22" class="edge">
<title>13&#45;&gt;18</title>
<path fill="none" stroke="black" d="M254.1,-151.47C277.25,-165.29 318.72,-190.03 347.16,-207.01"/>
<polygon fill="black" stroke="black" points="345.32,-209.99 355.7,-212.11 348.9,-203.98 345.32,-209.99"/>
<text text-anchor="middle" x="278.22" y="-169.78" font-family="Arial" font-size="14.00">b</text>
</g>
<!-- 14&#45;&gt;12 -->
<g id="edge24" class="edge">
<title>14&#45;&gt;12</title>
<path fill="none" stroke="black" d="M425.52,-87.11C394.01,-79.41 329.57,-66 274.47,-69.42 243.42,-71.35 208.32,-75.92 183.01,-79.64"/>
<polygon fill="black" stroke="black" points="182.64,-76.16 173.27,-81.11 183.68,-83.08 182.64,-76.16"/>
<text text-anchor="middle" x="278.22" y="-71.87" font-family="Arial" font-size="14.00">e</text>
</g>
<!-- 15 -->
<g id="node19" class="node">
<title>15</title>
<ellipse fill="none" stroke="black" cx="534.6" cy="-93.17" rx="20.63" ry="20.63"/>
<text text-anchor="middle" x="534.6" y="-87.75" font-family="Arial" font-size="14.00">15</text>
</g>
<!-- 14&#45;&gt;15 -->
<g id="edge23" class="edge">
<title>14&#45;&gt;15</title>
<path fill="none" stroke="black" d="M463.38,-81.07C472.78,-76.07 484.85,-71.81 495.97,-74.42 499.41,-75.23 502.9,-76.41 506.29,-77.78"/>
<polygon fill="black" stroke="black" points="504.71,-80.91 515.25,-81.99 507.69,-74.57 504.71,-80.91"/>
<text text-anchor="middle" x="492.22" y="-76.87" font-family="Arial" font-size="14.00">c</text>
</g>
<!-- 15&#45;&gt;14 -->
<g id="edge25" class="edge">
<title>15&#45;&gt;14</title>
<path fill="none" stroke="black" d="M513.59,-92.94C503.09,-92.82 490,-92.67 478.2,-92.54"/>
<polygon fill="black" stroke="black" points="478.52,-89.04 468.48,-92.42 478.44,-96.04 478.52,-89.04"/>
<text text-anchor="middle" x="492.22" y="-95.18" font-family="Arial" font-size="14.00">a</text>
</g>
<!-- 16&#45;&gt;3 -->
<g id="edge26" class="edge">
<title>16&#45;&gt;3</title>
<path fill="none" stroke="black" d="M886.78,-67.17C896.17,-67.17 907.62,-67.17 918.23,-67.17"/>
<polygon fill="black" stroke="black" points="918.19,-70.67 928.19,-67.17 918.19,-63.67 918.19,-70.67"/>
<text text-anchor="middle" x="908.22" y="-69.62" font-family="Arial" font-size="14.00">c</text>
</g>
<!-- 16&#45;&gt;2 -->
<g id="edge27" class="edge">
<title>16&#45;&gt;2</title>
<path fill="none" stroke="black" d="M844.77,-65.87C801.06,-63.04 697.14,-56.32 646.48,-53.04"/>
<polygon fill="black" stroke="black" points="646.81,-49.55 636.61,-52.4 646.36,-56.54 646.81,-49.55"/>
<text text-anchor="middle" x="743.97" y="-61.99" font-family="Arial" font-size="14.00">f</text>
</g>
<!-- 20&#45;&gt;4 -->
<g id="edge32" class="edge">
<title>20&#45;&gt;4</title>
<path fill="none" stroke="black" d="M466.97,-22.17C478.27,-22.17 492.56,-22.17 505.01,-22.17"/>
<polygon fill="black" stroke="black" points="504.71,-25.67 514.71,-22.17 504.71,-18.67 504.71,-25.67"/>
<text text-anchor="middle" x="492.22" y="-24.62" font-family="Arial" font-size="14.00">c</text>
</g>
</g>
</svg>
