<?xml version="1.0" encoding="UTF-8" standalone="no"?>
<!DOCTYPE svg PUBLIC "-//W3C//DTD SVG 1.1//EN"
 "http://www.w3.org/Graphics/SVG/1.1/DTD/svg11.dtd">
<!-- Generated by graphviz version 12.2.1 (20241206.2353)
 -->
<!-- Title: SupBuechiCon((A&#45;B&#45;Machine),(A&#45;B&#45;Spec&#45;Eventually&#45;B)) [minstate] Pages: 1 -->
<svg width="342pt" height="122pt"
 viewBox="0.00 0.00 342.47 122.13" xmlns="http://www.w3.org/2000/svg" xmlns:xlink="http://www.w3.org/1999/xlink">
<g id="graph0" class="graph" transform="scale(1 1) rotate(0) translate(4 118.13)">
<title>SupBuechiCon((A&#45;B&#45;Machine),(A&#45;B&#45;Spec&#45;Eventually&#45;B)) [minstate]</title>
<!-- dot_dummyinit_1 -->
<g id="node1" class="node">
<title>dot_dummyinit_1</title>
</g>
<!-- 2 -->
<g id="node2" class="node">
<title>2</title>
<ellipse fill="none" stroke="black" cx="55.72" cy="-51.08" rx="18" ry="18"/>
<text text-anchor="middle" x="55.72" y="-45.66" font-family="Arial" font-size="14.00">2</text>
</g>
<!-- dot_dummyinit_1&#45;&gt;2 -->
<g id="edge1" class="edge">
<title>dot_dummyinit_1&#45;&gt;2</title>
<path fill="none" stroke="black" d="M0.87,-51.08C2.34,-51.08 13.93,-51.08 25.99,-51.08"/>
<polygon fill="black" stroke="black" points="25.86,-54.58 35.86,-51.08 25.86,-47.58 25.86,-54.58"/>
</g>
<!-- 1 -->
<g id="node3" class="node">
<title>1</title>
<ellipse fill="none" stroke="black" cx="153.47" cy="-90.08" rx="18" ry="18"/>
<ellipse fill="none" stroke="black" cx="153.47" cy="-90.08" rx="22" ry="22"/>
<text text-anchor="middle" x="153.47" y="-84.66" font-family="Arial" font-size="14.00">1</text>
</g>
<!-- 2&#45;&gt;1 -->
<g id="edge4" class="edge">
<title>2&#45;&gt;1</title>
<path fill="none" stroke="black" d="M64.79,-66.87C70.76,-76.68 79.9,-88.46 91.72,-94.08 100.61,-98.31 111.07,-98.93 120.79,-98.01"/>
<polygon fill="black" stroke="black" points="121.26,-101.48 130.61,-96.5 120.19,-94.56 121.26,-101.48"/>
<text text-anchor="middle" x="102.6" y="-100.83" font-family="Arial" font-size="14.00">b</text>
</g>
<!-- 5 -->
<g id="node6" class="node">
<title>5</title>
<ellipse fill="none" stroke="black" cx="153.47" cy="-29.08" rx="18" ry="18"/>
<text text-anchor="middle" x="153.47" y="-23.66" font-family="Arial" font-size="14.00">5</text>
</g>
<!-- 2&#45;&gt;5 -->
<g id="edge5" class="edge">
<title>2&#45;&gt;5</title>
<path fill="none" stroke="black" d="M73.4,-47.25C87.59,-43.99 108.26,-39.24 124.91,-35.42"/>
<polygon fill="black" stroke="black" points="125.22,-38.94 134.19,-33.29 123.66,-32.11 125.22,-38.94"/>
<text text-anchor="middle" x="102.6" y="-45.15" font-family="Arial" font-size="14.00">a</text>
</g>
<!-- 1&#45;&gt;2 -->
<g id="edge2" class="edge">
<title>1&#45;&gt;2</title>
<path fill="none" stroke="black" d="M132.83,-82.09C118.61,-76.29 99.22,-68.4 83.57,-62.02"/>
<polygon fill="black" stroke="black" points="84.95,-58.8 74.36,-58.27 82.31,-65.28 84.95,-58.8"/>
<text text-anchor="middle" x="102.6" y="-76.53" font-family="Arial" font-size="14.00">c</text>
</g>
<!-- 4 -->
<g id="node5" class="node">
<title>4</title>
<ellipse fill="none" stroke="black" cx="236.97" cy="-70.08" rx="18" ry="18"/>
<text text-anchor="middle" x="236.97" y="-64.66" font-family="Arial" font-size="14.00">4</text>
</g>
<!-- 1&#45;&gt;4 -->
<g id="edge3" class="edge">
<title>1&#45;&gt;4</title>
<path fill="none" stroke="black" d="M175.04,-85.04C185.01,-82.59 197.14,-79.61 207.95,-76.96"/>
<polygon fill="black" stroke="black" points="208.64,-80.4 217.51,-74.61 206.97,-73.6 208.64,-80.4"/>
<text text-anchor="middle" x="197.22" y="-82.53" font-family="Arial" font-size="14.00">d</text>
</g>
<!-- 3 -->
<g id="node4" class="node">
<title>3</title>
<ellipse fill="none" stroke="black" cx="316.47" cy="-31.08" rx="18" ry="18"/>
<text text-anchor="middle" x="316.47" y="-25.66" font-family="Arial" font-size="14.00">3</text>
</g>
<!-- 3&#45;&gt;2 -->
<g id="edge6" class="edge">
<title>3&#45;&gt;2</title>
<path fill="none" stroke="black" d="M299.28,-25.45C267.3,-15 193.73,5.63 131.47,-2.08 113.39,-4.32 107.32,-2.67 91.72,-12.08 84.92,-16.19 78.68,-22.03 73.42,-27.95"/>
<polygon fill="black" stroke="black" points="71.02,-25.35 67.41,-35.31 76.44,-29.78 71.02,-25.35"/>
<text text-anchor="middle" x="197.22" y="-5.32" font-family="Arial" font-size="14.00">c</text>
</g>
<!-- 3&#45;&gt;4 -->
<g id="edge7" class="edge">
<title>3&#45;&gt;4</title>
<path fill="none" stroke="black" d="M298.24,-28.62C290.22,-28.21 280.77,-28.79 272.97,-32.33 266.03,-35.49 259.83,-40.73 254.64,-46.32"/>
<polygon fill="black" stroke="black" points="251.99,-44.03 248.33,-53.98 257.4,-48.48 251.99,-44.03"/>
<text text-anchor="middle" x="276.72" y="-34.78" font-family="Arial" font-size="14.00">d</text>
</g>
<!-- 4&#45;&gt;3 -->
<g id="edge8" class="edge">
<title>4&#45;&gt;3</title>
<path fill="none" stroke="black" d="M253.65,-62.19C263.95,-57.01 277.66,-50.11 289.55,-44.13"/>
<polygon fill="black" stroke="black" points="291.1,-47.27 298.46,-39.65 287.95,-41.01 291.1,-47.27"/>
<text text-anchor="middle" x="276.72" y="-54.2" font-family="Arial" font-size="14.00">b</text>
</g>
<!-- 5&#45;&gt;2 -->
<g id="edge9" class="edge">
<title>5&#45;&gt;2</title>
<path fill="none" stroke="black" d="M136.77,-21.75C124.22,-16.95 106.36,-12.55 91.72,-18.33 85.72,-20.7 80.15,-24.64 75.29,-28.98"/>
<polygon fill="black" stroke="black" points="73,-26.32 68.45,-35.89 77.97,-31.24 73,-26.32"/>
<text text-anchor="middle" x="102.6" y="-20.78" font-family="Arial" font-size="14.00">c, d</text>
</g>
</g>
</svg>
