<?xml version="1.0" encoding="UTF-8" standalone="no"?>
<!DOCTYPE svg PUBLIC "-//W3C//DTD SVG 1.1//EN"
 "http://www.w3.org/Graphics/SVG/1.1/DTD/svg11.dtd">
<!-- Generated by graphviz version 12.2.1 (20241206.2353)
 -->
<!-- Title: G Pages: 1 -->
<svg width="720pt" height="160pt"
 viewBox="0.00 0.00 720.00 159.57" xmlns="http://www.w3.org/2000/svg" xmlns:xlink="http://www.w3.org/1999/xlink">
<g id="graph0" class="graph" transform="scale(0.732824 0.732824) rotate(0) translate(4 213.75)">
<title>G</title>
<!-- dot_dummyinit_0 -->
<g id="node1" class="node">
<title>dot_dummyinit_0</title>
</g>
<!-- N0 -->
<g id="node2" class="node">
<title>N0</title>
<path fill="none" stroke="black" d="M133,-153C133,-153 103,-153 103,-153 97,-153 91,-147 91,-141 91,-141 91,-129 91,-129 91,-123 97,-117 103,-117 103,-117 133,-117 133,-117 139,-117 145,-123 145,-129 145,-129 145,-141 145,-141 145,-147 139,-153 133,-153"/>
<text text-anchor="middle" x="118" y="-129.57" font-family="Arial" font-size="14.00">N0</text>
</g>
<!-- dot_dummyinit_0&#45;&gt;N0 -->
<g id="edge1" class="edge">
<title>dot_dummyinit_0&#45;&gt;N0</title>
<path fill="none" stroke="black" d="M53.74,-135C61.72,-135 70.68,-135 79.29,-135"/>
<polygon fill="black" stroke="black" points="79.18,-138.5 89.18,-135 79.18,-131.5 79.18,-138.5"/>
</g>
<!-- N1 -->
<g id="node3" class="node">
<title>N1</title>
<path fill="none" stroke="black" d="M308,-176C308,-176 278,-176 278,-176 272,-176 266,-170 266,-164 266,-164 266,-152 266,-152 266,-146 272,-140 278,-140 278,-140 308,-140 308,-140 314,-140 320,-146 320,-152 320,-152 320,-164 320,-164 320,-170 314,-176 308,-176"/>
<text text-anchor="middle" x="293" y="-152.57" font-family="Arial" font-size="14.00">N1</text>
</g>
<!-- N0&#45;&gt;N1 -->
<g id="edge2" class="edge">
<title>N0&#45;&gt;N1</title>
<path fill="none" stroke="black" d="M145.27,-138.49C174.45,-142.37 221.76,-148.66 254.74,-153.05"/>
<polygon fill="black" stroke="black" points="253.89,-156.46 264.26,-154.31 254.81,-149.52 253.89,-156.46"/>
<text text-anchor="middle" x="166.75" y="-144.16" font-family="Arial" font-size="14.00">a</text>
</g>
<!-- A1 -->
<g id="node9" class="node">
<title>A1</title>
<path fill="none" stroke="black" d="M236,-130C236,-130 200.5,-130 200.5,-130 194.5,-130 188.5,-124 188.5,-118 188.5,-118 188.5,-106 188.5,-106 188.5,-100 194.5,-94 200.5,-94 200.5,-94 236,-94 236,-94 242,-94 248,-100 248,-106 248,-106 248,-118 248,-118 248,-124 242,-130 236,-130"/>
<text text-anchor="start" x="200.5" y="-106.58" font-family="Arial" font-size="14.00">A1</text>
<polygon fill="lightblue" stroke="none" points="228,-102.12 228,-121.88 238,-121.88 238,-102.12 228,-102.12"/>
</g>
<!-- N0&#45;&gt;A1 -->
<g id="edge3" class="edge">
<title>N0&#45;&gt;A1</title>
<path fill="none" stroke="black" d="M145.31,-125.36C151.08,-123.47 157.2,-121.65 163,-120.25 167.53,-119.15 172.31,-118.18 177.08,-117.31"/>
<polygon fill="black" stroke="black" points="177.28,-120.83 186.58,-115.74 176.14,-113.92 177.28,-120.83"/>
<text text-anchor="middle" x="166.75" y="-122.7" font-family="Arial" font-size="14.00">a</text>
</g>
<!-- N2 -->
<g id="node4" class="node">
<title>N2</title>
<path fill="none" stroke="black" d="M617,-176C617,-176 587,-176 587,-176 581,-176 575,-170 575,-164 575,-164 575,-152 575,-152 575,-146 581,-140 587,-140 587,-140 617,-140 617,-140 623,-140 629,-146 629,-152 629,-152 629,-164 629,-164 629,-170 623,-176 617,-176"/>
<text text-anchor="middle" x="602" y="-152.57" font-family="Arial" font-size="14.00">N2</text>
</g>
<!-- N1&#45;&gt;N2 -->
<g id="edge4" class="edge">
<title>N1&#45;&gt;N2</title>
<path fill="none" stroke="black" d="M320.44,-158C374.96,-158 500.03,-158 563.12,-158"/>
<polygon fill="black" stroke="black" points="563,-161.5 573,-158 563,-154.5 563,-161.5"/>
<text text-anchor="middle" x="448.5" y="-160.45" font-family="Arial" font-size="14.00">a</text>
</g>
<!-- N2&#45;&gt;N2 -->
<g id="edge5" class="edge">
<title>N2&#45;&gt;N2</title>
<path fill="none" stroke="black" d="M591.87,-176.15C590.31,-185.54 593.69,-194 602,-194 606.68,-194 609.79,-191.32 611.34,-187.31"/>
<polygon fill="black" stroke="black" points="614.81,-187.88 612.02,-177.66 607.83,-187.39 614.81,-187.88"/>
<text text-anchor="middle" x="602" y="-196.45" font-family="Arial" font-size="14.00">a</text>
</g>
<!-- N3 -->
<g id="node5" class="node">
<title>N3</title>
<path fill="none" stroke="black" d="M739.12,-179C739.12,-179 709.12,-179 709.12,-179 703.12,-179 697.12,-173 697.12,-167 697.12,-167 697.12,-155 697.12,-155 697.12,-149 703.12,-143 709.12,-143 709.12,-143 739.12,-143 739.12,-143 745.12,-143 751.12,-149 751.12,-155 751.12,-155 751.12,-167 751.12,-167 751.12,-173 745.12,-179 739.12,-179"/>
<text text-anchor="middle" x="724.12" y="-155.57" font-family="Arial" font-size="14.00">N3</text>
</g>
<!-- N2&#45;&gt;N3 -->
<g id="edge6" class="edge">
<title>N2&#45;&gt;N3</title>
<path fill="none" stroke="black" d="M629.36,-158.66C645.79,-159.07 667.2,-159.6 685.4,-160.06"/>
<polygon fill="black" stroke="black" points="685.23,-163.55 695.31,-160.31 685.4,-156.56 685.23,-163.55"/>
<text text-anchor="middle" x="658" y="-161.86" font-family="Arial" font-size="14.00">a</text>
</g>
<!-- A3 -->
<g id="node6" class="node">
<title>A3</title>
<path fill="none" stroke="black" d="M512.25,-110C512.25,-110 482.25,-110 482.25,-110 476.25,-110 470.25,-104 470.25,-98 470.25,-98 470.25,-86 470.25,-86 470.25,-80 476.25,-74 482.25,-74 482.25,-74 512.25,-74 512.25,-74 518.25,-74 524.25,-80 524.25,-86 524.25,-86 524.25,-98 524.25,-98 524.25,-104 518.25,-110 512.25,-110"/>
<text text-anchor="middle" x="497.25" y="-86.58" font-family="Arial" font-size="14.00">A3</text>
</g>
<!-- A3&#45;&gt;N2 -->
<g id="edge10" class="edge">
<title>A3&#45;&gt;N2</title>
<path fill="none" stroke="black" d="M524.71,-109C537.06,-116.93 551.93,-126.48 565.26,-135.04"/>
<polygon fill="black" stroke="black" points="563.05,-137.78 573.36,-140.24 566.83,-131.89 563.05,-137.78"/>
<text text-anchor="middle" x="546" y="-127.45" font-family="Arial" font-size="14.00">a</text>
</g>
<!-- AB4 -->
<g id="node11" class="node">
<title>AB4</title>
<path fill="none" stroke="black" d="M624.25,-92C624.25,-92 579.75,-92 579.75,-92 573.75,-92 567.75,-86 567.75,-80 567.75,-80 567.75,-68 567.75,-68 567.75,-62 573.75,-56 579.75,-56 579.75,-56 624.25,-56 624.25,-56 630.25,-56 636.25,-62 636.25,-68 636.25,-68 636.25,-80 636.25,-80 636.25,-86 630.25,-92 624.25,-92"/>
<text text-anchor="start" x="579.75" y="-68.58" font-family="Arial" font-size="14.00">AB4</text>
<polygon fill="#ffcc80" stroke="none" points="616.25,-64.12 616.25,-83.88 626.25,-83.88 626.25,-64.12 616.25,-64.12"/>
</g>
<!-- A3&#45;&gt;AB4 -->
<g id="edge11" class="edge">
<title>A3&#45;&gt;AB4</title>
<path fill="none" stroke="black" d="M524.71,-87.36C534.42,-85.66 545.69,-83.69 556.55,-81.79"/>
<polygon fill="black" stroke="black" points="556.89,-85.28 566.14,-80.11 555.68,-78.39 556.89,-85.28"/>
<text text-anchor="middle" x="546" y="-86.53" font-family="Arial" font-size="14.00">a</text>
</g>
<!-- A5 -->
<g id="node7" class="node">
<title>A5</title>
<path fill="none" stroke="black" d="M739.12,-125C739.12,-125 709.12,-125 709.12,-125 703.12,-125 697.12,-119 697.12,-113 697.12,-113 697.12,-101 697.12,-101 697.12,-95 703.12,-89 709.12,-89 709.12,-89 739.12,-89 739.12,-89 745.12,-89 751.12,-95 751.12,-101 751.12,-101 751.12,-113 751.12,-113 751.12,-119 745.12,-125 739.12,-125"/>
<text text-anchor="middle" x="724.12" y="-101.58" font-family="Arial" font-size="14.00">A5</text>
</g>
<!-- A6 -->
<g id="node8" class="node">
<title>A6</title>
<path fill="none" stroke="black" d="M856.75,-132C856.75,-132 826.75,-132 826.75,-132 820.75,-132 814.75,-126 814.75,-120 814.75,-120 814.75,-108 814.75,-108 814.75,-102 820.75,-96 826.75,-96 826.75,-96 856.75,-96 856.75,-96 862.75,-96 868.75,-102 868.75,-108 868.75,-108 868.75,-120 868.75,-120 868.75,-126 862.75,-132 856.75,-132"/>
<text text-anchor="middle" x="841.75" y="-108.58" font-family="Arial" font-size="14.00">A6</text>
</g>
<!-- A5&#45;&gt;A6 -->
<g id="edge14" class="edge">
<title>A5&#45;&gt;A6</title>
<path fill="none" stroke="black" d="M751.4,-108.77C762.27,-109.49 774.99,-110.31 786.5,-111 791.87,-111.32 797.53,-111.65 803.1,-111.97"/>
<polygon fill="black" stroke="black" points="802.57,-115.44 812.75,-112.5 802.96,-108.45 802.57,-115.44"/>
<text text-anchor="middle" x="790.25" y="-113.89" font-family="Arial" font-size="14.00">a</text>
</g>
<!-- A6&#45;&gt;A5 -->
<g id="edge15" class="edge">
<title>A6&#45;&gt;A5</title>
<path fill="none" stroke="black" d="M814.33,-98.59C807.88,-95.56 800.86,-92.83 794,-91.25 783.84,-88.91 772.83,-89.86 762.66,-92.17"/>
<polygon fill="black" stroke="black" points="761.77,-88.79 753.08,-94.85 763.65,-95.53 761.77,-88.79"/>
<text text-anchor="middle" x="790.25" y="-93.7" font-family="Arial" font-size="14.00">a</text>
</g>
<!-- A2_R -->
<g id="node10" class="node">
<title>A2_R</title>
<path fill="none" stroke="black" d="M414.75,-110C414.75,-110 350,-110 350,-110 344,-110 338,-104 338,-98 338,-98 338,-86 338,-86 338,-80 344,-74 350,-74 350,-74 414.75,-74 414.75,-74 420.75,-74 426.75,-80 426.75,-86 426.75,-86 426.75,-98 426.75,-98 426.75,-104 420.75,-110 414.75,-110"/>
<text text-anchor="start" x="350" y="-86.58" font-family="Arial" font-size="14.00">A2_R</text>
<polygon fill="lightblue" stroke="none" points="394.75,-82.12 394.75,-101.88 404.75,-101.88 404.75,-82.12 394.75,-82.12"/>
<polygon fill="darkblue" stroke="none" points="406.75,-82.12 406.75,-101.88 416.75,-101.88 416.75,-82.12 406.75,-82.12"/>
</g>
<!-- A1&#45;&gt;A2_R -->
<g id="edge7" class="edge">
<title>A1&#45;&gt;A2_R</title>
<path fill="none" stroke="black" d="M248.23,-108.42C269.89,-105.75 300.16,-102.02 326.36,-98.79"/>
<polygon fill="black" stroke="black" points="326.68,-102.27 336.18,-97.58 325.82,-95.33 326.68,-102.27"/>
<text text-anchor="middle" x="293" y="-108.54" font-family="Arial" font-size="14.00">a</text>
</g>
<!-- A2_R&#45;&gt;A3 -->
<g id="edge9" class="edge">
<title>A2_R&#45;&gt;A3</title>
<path fill="none" stroke="black" d="M427.02,-92C437.45,-92 448.5,-92 458.63,-92"/>
<polygon fill="black" stroke="black" points="458.51,-95.5 468.51,-92 458.51,-88.5 458.51,-95.5"/>
<text text-anchor="middle" x="448.5" y="-94.45" font-family="Arial" font-size="14.00">a</text>
</g>
<!-- A2_R&#45;&gt;A1 -->
<g id="edge8" class="edge">
<title>A2_R&#45;&gt;A1</title>
<path fill="none" stroke="black" d="M337.56,-79.51C315.66,-75.27 289,-73.18 266,-80.25 260.51,-81.94 255.09,-84.51 250,-87.48"/>
<polygon fill="black" stroke="black" points="248.41,-84.34 241.93,-92.72 252.22,-90.21 248.41,-84.34"/>
<text text-anchor="middle" x="293" y="-82.7" font-family="Arial" font-size="14.00">a</text>
</g>
<!-- AB4&#45;&gt;A5 -->
<g id="edge12" class="edge">
<title>AB4&#45;&gt;A5</title>
<path fill="none" stroke="black" d="M636.46,-83.19C651.77,-87.4 669.96,-92.4 685.72,-96.72"/>
<polygon fill="black" stroke="black" points="684.66,-100.06 695.23,-99.34 686.51,-93.31 684.66,-100.06"/>
<text text-anchor="middle" x="658" y="-91.96" font-family="Arial" font-size="14.00">a</text>
</g>
<!-- B2_R -->
<g id="node12" class="node">
<title>B2_R</title>
<path fill="none" stroke="black" d="M756.5,-66C756.5,-66 691.75,-66 691.75,-66 685.75,-66 679.75,-60 679.75,-54 679.75,-54 679.75,-42 679.75,-42 679.75,-36 685.75,-30 691.75,-30 691.75,-30 756.5,-30 756.5,-30 762.5,-30 768.5,-36 768.5,-42 768.5,-42 768.5,-54 768.5,-54 768.5,-60 762.5,-66 756.5,-66"/>
<text text-anchor="start" x="691.75" y="-42.58" font-family="Arial" font-size="14.00">B2_R</text>
<polygon fill="#ffcc80" stroke="none" points="736.5,-38.12 736.5,-57.88 746.5,-57.88 746.5,-38.12 736.5,-38.12"/>
<polygon fill="#ff9900" stroke="none" points="748.5,-38.12 748.5,-57.88 758.5,-57.88 758.5,-38.12 748.5,-38.12"/>
</g>
<!-- AB4&#45;&gt;B2_R -->
<g id="edge13" class="edge">
<title>AB4&#45;&gt;B2_R</title>
<path fill="none" stroke="black" d="M636.46,-66.76C646.35,-64.62 657.45,-62.21 668.32,-59.86"/>
<polygon fill="black" stroke="black" points="668.99,-63.3 678.02,-57.76 667.51,-56.46 668.99,-63.3"/>
<text text-anchor="middle" x="658" y="-65.01" font-family="Arial" font-size="14.00">a</text>
</g>
<!-- B2_R&#45;&gt;AB4 -->
<g id="edge16" class="edge">
<title>B2_R&#45;&gt;AB4</title>
<path fill="none" stroke="black" d="M679.31,-39.65C670.89,-39.36 662.21,-39.98 654.25,-42.25 648.21,-43.97 642.19,-46.63 636.5,-49.69"/>
<polygon fill="black" stroke="black" points="634.81,-46.62 628.01,-54.75 638.39,-52.64 634.81,-46.62"/>
<text text-anchor="middle" x="658" y="-44.7" font-family="Arial" font-size="14.00">a</text>
</g>
<!-- B3 -->
<g id="node13" class="node">
<title>B3</title>
<path fill="none" stroke="black" d="M859.5,-66C859.5,-66 824,-66 824,-66 818,-66 812,-60 812,-54 812,-54 812,-42 812,-42 812,-36 818,-30 824,-30 824,-30 859.5,-30 859.5,-30 865.5,-30 871.5,-36 871.5,-42 871.5,-42 871.5,-54 871.5,-54 871.5,-60 865.5,-66 859.5,-66"/>
<text text-anchor="start" x="824" y="-42.58" font-family="Arial" font-size="14.00">B3</text>
<polygon fill="#ffcc80" stroke="none" points="851.5,-38.12 851.5,-57.88 861.5,-57.88 861.5,-38.12 851.5,-38.12"/>
</g>
<!-- B2_R&#45;&gt;B3 -->
<g id="edge17" class="edge">
<title>B2_R&#45;&gt;B3</title>
<path fill="none" stroke="black" d="M768.84,-48C779.13,-48 790.07,-48 800.21,-48"/>
<polygon fill="black" stroke="black" points="800.17,-51.5 810.17,-48 800.17,-44.5 800.17,-51.5"/>
<text text-anchor="middle" x="790.25" y="-50.45" font-family="Arial" font-size="14.00">a</text>
</g>
<!-- B4 -->
<g id="node14" class="node">
<title>B4</title>
<path fill="none" stroke="black" d="M962.5,-36C962.5,-36 927,-36 927,-36 921,-36 915,-30 915,-24 915,-24 915,-12 915,-12 915,-6 921,0 927,0 927,0 962.5,0 962.5,0 968.5,0 974.5,-6 974.5,-12 974.5,-12 974.5,-24 974.5,-24 974.5,-30 968.5,-36 962.5,-36"/>
<text text-anchor="start" x="927" y="-12.57" font-family="Arial" font-size="14.00">B4</text>
<polygon fill="#ffcc80" stroke="none" points="954.5,-8.12 954.5,-27.88 964.5,-27.88 964.5,-8.12 954.5,-8.12"/>
</g>
<!-- B3&#45;&gt;B4 -->
<g id="edge18" class="edge">
<title>B3&#45;&gt;B4</title>
<path fill="none" stroke="black" d="M871.96,-39.32C881.91,-36.37 893.2,-33.01 903.84,-29.85"/>
<polygon fill="black" stroke="black" points="904.56,-33.29 913.15,-27.09 902.57,-26.58 904.56,-33.29"/>
<text text-anchor="middle" x="893.25" y="-36.35" font-family="Arial" font-size="14.00">a</text>
</g>
<!-- B4&#45;&gt;AB4 -->
<g id="edge19" class="edge">
<title>B4&#45;&gt;AB4</title>
<path fill="none" stroke="black" d="M914.87,-13.32C865.5,-6.42 762.21,3.23 679.75,-21 661.83,-26.27 644.47,-37.55 630.81,-48.36"/>
<polygon fill="black" stroke="black" points="628.6,-45.64 623.14,-54.72 633.08,-51.03 628.6,-45.64"/>
<text text-anchor="middle" x="790.25" y="-8.13" font-family="Arial" font-size="14.00">a</text>
</g>
</g>
</svg>
