<?xml version="1.0" encoding="UTF-8" standalone="no"?>
<!DOCTYPE svg PUBLIC "-//W3C//DTD SVG 1.1//EN"
 "http://www.w3.org/Graphics/SVG/1.1/DTD/svg11.dtd">
<!-- Generated by graphviz version 12.2.1 (20241206.2353)
 -->
<!-- Title: SupBuechiCon((A&#45;B&#45;Machine&#45;B&#45;Exhausts),(A&#45;B&#45;Spec&#45;Eventually&#45;B)) [minstate] Pages: 1 -->
<svg width="416pt" height="162pt"
 viewBox="0.00 0.00 415.72 162.32" xmlns="http://www.w3.org/2000/svg" xmlns:xlink="http://www.w3.org/1999/xlink">
<g id="graph0" class="graph" transform="scale(1 1) rotate(0) translate(4 158.32)">
<title>SupBuechiCon((A&#45;B&#45;Machine&#45;B&#45;Exhausts),(A&#45;B&#45;Spec&#45;Eventually&#45;B)) [minstate]</title>
<!-- dot_dummyinit_1 -->
<g id="node1" class="node">
<title>dot_dummyinit_1</title>
</g>
<!-- 2 -->
<g id="node2" class="node">
<title>2</title>
<ellipse fill="none" stroke="black" cx="55.72" cy="-40.32" rx="18" ry="18"/>
<text text-anchor="middle" x="55.72" y="-34.89" font-family="Arial" font-size="14.00">2</text>
</g>
<!-- dot_dummyinit_1&#45;&gt;2 -->
<g id="edge1" class="edge">
<title>dot_dummyinit_1&#45;&gt;2</title>
<path fill="none" stroke="black" d="M0.87,-40.32C2.34,-40.32 13.93,-40.32 25.99,-40.32"/>
<polygon fill="black" stroke="black" points="25.86,-43.82 35.86,-40.32 25.86,-36.82 25.86,-43.82"/>
</g>
<!-- 1 -->
<g id="node3" class="node">
<title>1</title>
<ellipse fill="none" stroke="black" cx="139.22" cy="-110.32" rx="18" ry="18"/>
<ellipse fill="none" stroke="black" cx="139.22" cy="-110.32" rx="22" ry="22"/>
<text text-anchor="middle" x="139.22" y="-104.89" font-family="Arial" font-size="14.00">1</text>
</g>
<!-- 2&#45;&gt;1 -->
<g id="edge4" class="edge">
<title>2&#45;&gt;1</title>
<path fill="none" stroke="black" d="M69.03,-52.94C75.6,-59.5 83.92,-67.54 91.72,-74.32 98.19,-79.93 105.41,-85.73 112.19,-90.99"/>
<polygon fill="black" stroke="black" points="109.79,-93.56 119.86,-96.85 114.04,-88 109.79,-93.56"/>
<text text-anchor="middle" x="95.47" y="-82.98" font-family="Arial" font-size="14.00">b</text>
</g>
<!-- 3 -->
<g id="node5" class="node">
<title>3</title>
<ellipse fill="none" stroke="black" cx="306.22" cy="-41.32" rx="18" ry="18"/>
<text text-anchor="middle" x="306.22" y="-35.89" font-family="Arial" font-size="14.00">3</text>
</g>
<!-- 2&#45;&gt;3 -->
<g id="edge3" class="edge">
<title>2&#45;&gt;3</title>
<path fill="none" stroke="black" d="M74.19,-40.39C116.43,-40.56 224.42,-40.99 276.41,-41.2"/>
<polygon fill="black" stroke="black" points="276.24,-44.7 286.25,-41.24 276.27,-37.7 276.24,-44.7"/>
<text text-anchor="middle" x="182.97" y="-43.29" font-family="Arial" font-size="14.00">a</text>
</g>
<!-- 6 -->
<g id="node7" class="node">
<title>6</title>
<ellipse fill="none" stroke="black" cx="222.72" cy="-110.32" rx="18" ry="18"/>
<text text-anchor="middle" x="222.72" y="-104.89" font-family="Arial" font-size="14.00">6</text>
</g>
<!-- 1&#45;&gt;6 -->
<g id="edge2" class="edge">
<title>1&#45;&gt;6</title>
<path fill="none" stroke="black" d="M161.63,-110.32C171.19,-110.32 182.6,-110.32 192.89,-110.32"/>
<polygon fill="black" stroke="black" points="192.78,-113.82 202.78,-110.32 192.78,-106.82 192.78,-113.82"/>
<text text-anchor="middle" x="182.97" y="-112.77" font-family="Arial" font-size="14.00">c</text>
</g>
<!-- 4 -->
<g id="node4" class="node">
<title>4</title>
<ellipse fill="none" stroke="black" cx="306.22" cy="-132.32" rx="18" ry="18"/>
<ellipse fill="none" stroke="black" cx="306.22" cy="-132.32" rx="22" ry="22"/>
<text text-anchor="middle" x="306.22" y="-126.89" font-family="Arial" font-size="14.00">4</text>
</g>
<!-- 5 -->
<g id="node6" class="node">
<title>5</title>
<ellipse fill="none" stroke="black" cx="389.72" cy="-131.32" rx="18" ry="18"/>
<text text-anchor="middle" x="389.72" y="-125.89" font-family="Arial" font-size="14.00">5</text>
</g>
<!-- 4&#45;&gt;5 -->
<g id="edge7" class="edge">
<title>4&#45;&gt;5</title>
<path fill="none" stroke="black" d="M328.63,-132.06C338.19,-131.94 349.6,-131.8 359.89,-131.67"/>
<polygon fill="black" stroke="black" points="359.82,-135.17 369.78,-131.55 359.73,-128.17 359.82,-135.17"/>
<text text-anchor="middle" x="349.97" y="-134.27" font-family="Arial" font-size="14.00">d</text>
</g>
<!-- 3&#45;&gt;2 -->
<g id="edge5" class="edge">
<title>3&#45;&gt;2</title>
<path fill="none" stroke="black" d="M288.45,-37.62C265.59,-32.8 223.3,-24.6 186.72,-21.57 151.25,-18.63 110.7,-26.25 84.46,-32.64"/>
<polygon fill="black" stroke="black" points="83.76,-29.2 74.94,-35.07 85.5,-35.99 83.76,-29.2"/>
<text text-anchor="middle" x="182.97" y="-24.02" font-family="Arial" font-size="14.00">c</text>
</g>
<!-- 3&#45;&gt;2 -->
<g id="edge6" class="edge">
<title>3&#45;&gt;2</title>
<path fill="none" stroke="black" d="M289.54,-34.2C267.25,-24.51 224.86,-7.68 186.72,-1.57 149.28,4.43 107.51,-12.45 81.67,-25.79"/>
<polygon fill="black" stroke="black" points="80.1,-22.67 72.96,-30.5 83.42,-28.82 80.1,-22.67"/>
<text text-anchor="middle" x="182.97" y="-4.02" font-family="Arial" font-size="14.00">d</text>
</g>
<!-- 5&#45;&gt;4 -->
<g id="edge8" class="edge">
<title>5&#45;&gt;4</title>
<path fill="none" stroke="black" d="M375.43,-119.81C367.28,-114.14 356.48,-109.01 346.22,-111.57 342.57,-112.48 338.89,-113.8 335.33,-115.34"/>
<polygon fill="black" stroke="black" points="333.85,-112.17 326.47,-119.77 336.98,-118.43 333.85,-112.17"/>
<text text-anchor="middle" x="349.97" y="-114.02" font-family="Arial" font-size="14.00">b</text>
</g>
<!-- 6&#45;&gt;4 -->
<g id="edge10" class="edge">
<title>6&#45;&gt;4</title>
<path fill="none" stroke="black" d="M240.61,-114.88C250.19,-117.46 262.49,-120.78 273.78,-123.83"/>
<polygon fill="black" stroke="black" points="272.57,-127.13 283.14,-126.36 274.39,-120.37 272.57,-127.13"/>
<text text-anchor="middle" x="262.47" y="-123.77" font-family="Arial" font-size="14.00">b</text>
</g>
<!-- 6&#45;&gt;3 -->
<g id="edge9" class="edge">
<title>6&#45;&gt;3</title>
<path fill="none" stroke="black" d="M237.18,-98.92C249.68,-88.34 268.53,-72.38 283.23,-59.94"/>
<polygon fill="black" stroke="black" points="285.22,-62.84 290.59,-53.71 280.69,-57.5 285.22,-62.84"/>
<text text-anchor="middle" x="262.47" y="-82.4" font-family="Arial" font-size="14.00">a</text>
</g>
</g>
</svg>
