<?xml version="1.0" encoding="UTF-8" standalone="no"?>
<!DOCTYPE svg PUBLIC "-//W3C//DTD SVG 1.1//EN"
 "http://www.w3.org/Graphics/SVG/1.1/DTD/svg11.dtd">
<!-- Generated by graphviz version 12.2.1 (20241206.2353)
 -->
<!-- Title: A&#45;B&#45;Machine&#45;B&#45;Exhausts Pages: 1 -->
<svg width="519pt" height="105pt"
 viewBox="0.00 0.00 519.20 104.62" xmlns="http://www.w3.org/2000/svg" xmlns:xlink="http://www.w3.org/1999/xlink">
<g id="graph0" class="graph" transform="scale(1 1) rotate(0) translate(4 100.62)">
<title>A&#45;B&#45;Machine&#45;B&#45;Exhausts</title>
<!-- dot_dummyinit_1 -->
<g id="node1" class="node">
<title>dot_dummyinit_1</title>
</g>
<!-- I -->
<g id="node2" class="node">
<title>I</title>
<ellipse fill="none" stroke="black" cx="59.72" cy="-22" rx="18" ry="18"/>
<ellipse fill="none" stroke="black" cx="59.72" cy="-22" rx="22" ry="22"/>
<text text-anchor="middle" x="59.72" y="-16.57" font-family="Arial" font-size="14.00">I</text>
</g>
<!-- dot_dummyinit_1&#45;&gt;I -->
<g id="edge1" class="edge">
<title>dot_dummyinit_1&#45;&gt;I</title>
<path fill="none" stroke="black" d="M0.89,-22C2.38,-22 13.74,-22 26,-22"/>
<polygon fill="black" stroke="black" points="25.74,-25.5 35.74,-22 25.74,-18.5 25.74,-25.5"/>
</g>
<!-- A -->
<g id="node4" class="node">
<title>A</title>
<ellipse fill="none" stroke="black" cx="143.22" cy="-61" rx="18" ry="18"/>
<text text-anchor="middle" x="143.22" y="-55.58" font-family="Arial" font-size="14.00">A</text>
</g>
<!-- I&#45;&gt;A -->
<g id="edge2" class="edge">
<title>I&#45;&gt;A</title>
<path fill="none" stroke="black" d="M80.03,-31.24C90.92,-36.45 104.65,-43.02 116.45,-48.67"/>
<polygon fill="black" stroke="black" points="114.7,-51.71 125.23,-52.87 117.72,-45.39 114.7,-51.71"/>
<text text-anchor="middle" x="103.47" y="-46.29" font-family="Arial" font-size="14.00">a</text>
</g>
<!-- B -->
<g id="node5" class="node">
<title>B</title>
<ellipse fill="none" stroke="black" cx="309.47" cy="-41" rx="18" ry="18"/>
<text text-anchor="middle" x="309.47" y="-35.58" font-family="Arial" font-size="14.00">B</text>
</g>
<!-- I&#45;&gt;B -->
<g id="edge3" class="edge">
<title>I&#45;&gt;B</title>
<path fill="none" stroke="black" d="M81.57,-16.68C116.52,-8.63 188.91,4.25 247.97,-10 260.7,-13.07 273.77,-19.31 284.48,-25.39"/>
<polygon fill="black" stroke="black" points="282.64,-28.37 293.02,-30.51 286.24,-22.36 282.64,-28.37"/>
<text text-anchor="middle" x="182.97" y="-6.15" font-family="Arial" font-size="14.00">b</text>
</g>
<!-- XB -->
<g id="node3" class="node">
<title>XB</title>
<ellipse fill="none" stroke="black" cx="396.84" cy="-70" rx="22.62" ry="22.62"/>
<ellipse fill="none" stroke="black" cx="396.84" cy="-70" rx="26.62" ry="26.62"/>
<text text-anchor="middle" x="396.84" y="-64.58" font-family="Arial" font-size="14.00">XB</text>
</g>
<!-- XB&#45;&gt;A -->
<g id="edge10" class="edge">
<title>XB&#45;&gt;A</title>
<path fill="none" stroke="black" d="M370.03,-72.76C364.18,-73.28 357.99,-73.74 352.22,-74 349.22,-74.14 348.47,-74.02 345.47,-74 271.58,-73.56 252.19,-83.65 179.22,-72 176.57,-71.58 173.84,-70.99 171.13,-70.32"/>
<polygon fill="black" stroke="black" points="172.4,-67.04 161.82,-67.58 170.43,-73.76 172.4,-67.04"/>
<text text-anchor="middle" x="269.72" y="-79.45" font-family="Arial" font-size="14.00">a</text>
</g>
<!-- FB -->
<g id="node7" class="node">
<title>FB</title>
<ellipse fill="none" stroke="black" cx="489.08" cy="-70" rx="22.12" ry="22.12"/>
<text text-anchor="middle" x="489.08" y="-64.58" font-family="Arial" font-size="14.00">FB</text>
</g>
<!-- XB&#45;&gt;FB -->
<g id="edge11" class="edge">
<title>XB&#45;&gt;FB</title>
<path fill="none" stroke="black" d="M423.94,-70C433.67,-70 444.84,-70 455.1,-70"/>
<polygon fill="black" stroke="black" points="455.08,-73.5 465.08,-70 455.08,-66.5 455.08,-73.5"/>
<text text-anchor="middle" x="445.21" y="-72.45" font-family="Arial" font-size="14.00">b</text>
</g>
<!-- A&#45;&gt;I -->
<g id="edge4" class="edge">
<title>A&#45;&gt;I</title>
<path fill="none" stroke="black" d="M133.23,-45.97C127.11,-37.29 118.14,-27.14 107.22,-22.25 102.83,-20.28 97.96,-19.22 93.07,-18.74"/>
<polygon fill="black" stroke="black" points="93.43,-15.25 83.37,-18.58 93.31,-22.25 93.43,-15.25"/>
<text text-anchor="middle" x="103.47" y="-24.7" font-family="Arial" font-size="14.00">c</text>
</g>
<!-- FA -->
<g id="node6" class="node">
<title>FA</title>
<ellipse fill="none" stroke="black" cx="226.34" cy="-41" rx="21.62" ry="21.62"/>
<text text-anchor="middle" x="226.34" y="-35.58" font-family="Arial" font-size="14.00">FA</text>
</g>
<!-- A&#45;&gt;FA -->
<g id="edge5" class="edge">
<title>A&#45;&gt;FA</title>
<path fill="none" stroke="black" d="M161.03,-56.86C170.47,-54.53 182.55,-51.55 193.7,-48.8"/>
<polygon fill="black" stroke="black" points="194.47,-52.22 203.35,-46.42 192.8,-45.42 194.47,-52.22"/>
<text text-anchor="middle" x="182.97" y="-54.65" font-family="Arial" font-size="14.00">d</text>
</g>
<!-- B&#45;&gt;XB -->
<g id="edge6" class="edge">
<title>B&#45;&gt;XB</title>
<path fill="none" stroke="black" d="M326.93,-46.59C336.47,-49.83 348.88,-54.05 360.53,-58"/>
<polygon fill="black" stroke="black" points="359.32,-61.29 369.91,-61.19 361.57,-54.66 359.32,-61.29"/>
<text text-anchor="middle" x="348.84" y="-57.08" font-family="Arial" font-size="14.00">c</text>
</g>
<!-- FA&#45;&gt;A -->
<g id="edge7" class="edge">
<title>FA&#45;&gt;A</title>
<path fill="none" stroke="black" d="M206.15,-32.21C197.73,-29.56 187.82,-28.09 179.22,-31.25 173.89,-33.21 168.81,-36.38 164.26,-39.94"/>
<polygon fill="black" stroke="black" points="162.02,-37.25 156.88,-46.52 166.68,-42.48 162.02,-37.25"/>
<text text-anchor="middle" x="182.97" y="-33.7" font-family="Arial" font-size="14.00">a</text>
</g>
<!-- FA&#45;&gt;B -->
<g id="edge8" class="edge">
<title>FA&#45;&gt;B</title>
<path fill="none" stroke="black" d="M248.23,-41C257.82,-41 269.33,-41 279.72,-41"/>
<polygon fill="black" stroke="black" points="279.69,-44.5 289.69,-41 279.69,-37.5 279.69,-44.5"/>
<text text-anchor="middle" x="269.72" y="-43.45" font-family="Arial" font-size="14.00">b</text>
</g>
<!-- FB&#45;&gt;XB -->
<g id="edge9" class="edge">
<title>FB&#45;&gt;XB</title>
<path fill="none" stroke="black" d="M469.14,-59.45C462.91,-56.52 455.81,-53.73 448.96,-52.25 442.93,-50.95 436.64,-51.48 430.61,-52.99"/>
<polygon fill="black" stroke="black" points="429.9,-49.53 421.58,-56.09 432.18,-56.15 429.9,-49.53"/>
<text text-anchor="middle" x="445.21" y="-54.7" font-family="Arial" font-size="14.00">d</text>
</g>
</g>
</svg>
