<?xml version="1.0" encoding="UTF-8" standalone="no"?>
<!DOCTYPE svg PUBLIC "-//W3C//DTD SVG 1.1//EN"
 "http://www.w3.org/Graphics/SVG/1.1/DTD/svg11.dtd">
<!-- Generated by graphviz version 12.2.1 (20241206.2353)
 -->
<!-- Title: wPlant2 Pages: 1 -->
<svg width="295pt" height="210pt"
 viewBox="0.00 0.00 294.72 209.75" xmlns="http://www.w3.org/2000/svg" xmlns:xlink="http://www.w3.org/1999/xlink">
<g id="graph0" class="graph" transform="scale(1 1) rotate(0) translate(4 205.75)">
<title>wPlant2</title>
<!-- dot_dummyinit_1 -->
<g id="node1" class="node">
<title>dot_dummyinit_1</title>
</g>
<!-- I -->
<g id="node2" class="node">
<title>I</title>
<path fill="none" stroke="black" d="M79.72,-116C79.72,-116 49.72,-116 49.72,-116 43.72,-116 37.72,-110 37.72,-104 37.72,-104 37.72,-92 37.72,-92 37.72,-86 43.72,-80 49.72,-80 49.72,-80 79.72,-80 79.72,-80 85.72,-80 91.72,-86 91.72,-92 91.72,-92 91.72,-104 91.72,-104 91.72,-110 85.72,-116 79.72,-116"/>
<text text-anchor="start" x="54.85" y="-92.58" font-family="Arial" font-size="14.00">I</text>
<polygon fill="black" stroke="none" points="68.6,-88.12 68.6,-107.88 76.6,-107.88 76.6,-88.12 68.6,-88.12"/>
</g>
<!-- dot_dummyinit_1&#45;&gt;I -->
<g id="edge1" class="edge">
<title>dot_dummyinit_1&#45;&gt;I</title>
<path fill="none" stroke="black" d="M0.77,-98C1.57,-98 12.96,-98 25.83,-98"/>
<polygon fill="black" stroke="black" points="25.79,-101.5 35.79,-98 25.79,-94.5 25.79,-101.5"/>
</g>
<!-- A1 -->
<g id="node3" class="node">
<title>A1</title>
<path fill="none" stroke="black" d="M177.22,-194C177.22,-194 147.22,-194 147.22,-194 141.22,-194 135.22,-188 135.22,-182 135.22,-182 135.22,-170 135.22,-170 135.22,-164 141.22,-158 147.22,-158 147.22,-158 177.22,-158 177.22,-158 183.22,-158 189.22,-164 189.22,-170 189.22,-170 189.22,-182 189.22,-182 189.22,-188 183.22,-194 177.22,-194"/>
<text text-anchor="middle" x="162.22" y="-170.57" font-family="Arial" font-size="14.00">A1</text>
</g>
<!-- I&#45;&gt;A1 -->
<g id="edge2" class="edge">
<title>I&#45;&gt;A1</title>
<path fill="none" stroke="black" d="M85.05,-116.36C92.6,-123.31 101.42,-131.19 109.72,-138 114.89,-142.24 120.48,-146.59 126.01,-150.76"/>
<polygon fill="black" stroke="black" points="123.83,-153.5 133.94,-156.66 128,-147.89 123.83,-153.5"/>
<text text-anchor="middle" x="113.47" y="-145.9" font-family="Arial" font-size="14.00">a</text>
</g>
<!-- B1 -->
<g id="node5" class="node">
<title>B1</title>
<path fill="none" stroke="black" d="M177.22,-36C177.22,-36 147.22,-36 147.22,-36 141.22,-36 135.22,-30 135.22,-24 135.22,-24 135.22,-12 135.22,-12 135.22,-6 141.22,0 147.22,0 147.22,0 177.22,0 177.22,0 183.22,0 189.22,-6 189.22,-12 189.22,-12 189.22,-24 189.22,-24 189.22,-30 183.22,-36 177.22,-36"/>
<text text-anchor="middle" x="162.22" y="-12.57" font-family="Arial" font-size="14.00">B1</text>
</g>
<!-- I&#45;&gt;B1 -->
<g id="edge3" class="edge">
<title>I&#45;&gt;B1</title>
<path fill="none" stroke="black" d="M77.01,-79.61C84.99,-67.76 96.59,-52.68 109.72,-42.25 114.29,-38.62 119.5,-35.37 124.81,-32.52"/>
<polygon fill="black" stroke="black" points="126.18,-35.74 133.62,-28.21 123.1,-29.46 126.18,-35.74"/>
<text text-anchor="middle" x="113.47" y="-44.7" font-family="Arial" font-size="14.00">b</text>
</g>
<!-- A2 -->
<g id="node4" class="node">
<title>A2</title>
<path fill="none" stroke="black" d="M274.72,-168C274.72,-168 244.72,-168 244.72,-168 238.72,-168 232.72,-162 232.72,-156 232.72,-156 232.72,-144 232.72,-144 232.72,-138 238.72,-132 244.72,-132 244.72,-132 274.72,-132 274.72,-132 280.72,-132 286.72,-138 286.72,-144 286.72,-144 286.72,-156 286.72,-156 286.72,-162 280.72,-168 274.72,-168"/>
<text text-anchor="middle" x="259.72" y="-144.57" font-family="Arial" font-size="14.00">A2</text>
</g>
<!-- A1&#45;&gt;A2 -->
<g id="edge4" class="edge">
<title>A1&#45;&gt;A2</title>
<path fill="none" stroke="black" d="M189.57,-168.83C199.48,-166.13 210.95,-163 221.67,-160.09"/>
<polygon fill="black" stroke="black" points="222.27,-163.55 231,-157.55 220.43,-156.8 222.27,-163.55"/>
<text text-anchor="middle" x="210.97" y="-166.23" font-family="Arial" font-size="14.00">c</text>
</g>
<!-- A2&#45;&gt;I -->
<g id="edge5" class="edge">
<title>A2&#45;&gt;I</title>
<path fill="none" stroke="black" d="M232.3,-142.88C198.9,-133.88 141.2,-118.34 103.25,-108.11"/>
<polygon fill="black" stroke="black" points="104.18,-104.74 93.61,-105.52 102.36,-111.5 104.18,-104.74"/>
<text text-anchor="middle" x="162.22" y="-133.31" font-family="Arial" font-size="14.00">f</text>
</g>
<!-- A2&#45;&gt;A2 -->
<g id="edge6" class="edge">
<title>A2&#45;&gt;A2</title>
<path fill="none" stroke="black" d="M250.9,-168.15C249.54,-177.54 252.48,-186 259.72,-186 263.79,-186 266.5,-183.32 267.85,-179.31"/>
<polygon fill="black" stroke="black" points="271.33,-179.86 268.45,-169.66 264.34,-179.43 271.33,-179.86"/>
<text text-anchor="middle" x="259.72" y="-188.45" font-family="Arial" font-size="14.00">c</text>
</g>
<!-- B2 -->
<g id="node6" class="node">
<title>B2</title>
<path fill="none" stroke="black" d="M274.72,-64C274.72,-64 244.72,-64 244.72,-64 238.72,-64 232.72,-58 232.72,-52 232.72,-52 232.72,-40 232.72,-40 232.72,-34 238.72,-28 244.72,-28 244.72,-28 274.72,-28 274.72,-28 280.72,-28 286.72,-34 286.72,-40 286.72,-40 286.72,-52 286.72,-52 286.72,-58 280.72,-64 274.72,-64"/>
<text text-anchor="middle" x="259.72" y="-40.58" font-family="Arial" font-size="14.00">B2</text>
</g>
<!-- B1&#45;&gt;B2 -->
<g id="edge7" class="edge">
<title>B1&#45;&gt;B2</title>
<path fill="none" stroke="black" d="M189.57,-25.73C199.48,-28.63 210.95,-32 221.67,-35.14"/>
<polygon fill="black" stroke="black" points="220.42,-38.42 231,-37.87 222.39,-31.7 220.42,-38.42"/>
<text text-anchor="middle" x="210.97" y="-35.29" font-family="Arial" font-size="14.00">d</text>
</g>
<!-- B2&#45;&gt;I -->
<g id="edge8" class="edge">
<title>B2&#45;&gt;I</title>
<path fill="none" stroke="black" d="M232.3,-53.12C198.9,-62.12 141.2,-77.66 103.25,-87.89"/>
<polygon fill="black" stroke="black" points="102.36,-84.5 93.61,-90.48 104.18,-91.26 102.36,-84.5"/>
<text text-anchor="middle" x="162.22" y="-81.31" font-family="Arial" font-size="14.00">f</text>
</g>
<!-- B2&#45;&gt;B2 -->
<g id="edge9" class="edge">
<title>B2&#45;&gt;B2</title>
<path fill="none" stroke="black" d="M250.9,-64.15C249.54,-73.54 252.48,-82 259.72,-82 263.79,-82 266.5,-79.32 267.85,-75.31"/>
<polygon fill="black" stroke="black" points="271.33,-75.86 268.45,-65.66 264.34,-75.43 271.33,-75.86"/>
<text text-anchor="middle" x="259.72" y="-84.45" font-family="Arial" font-size="14.00">d</text>
</g>
</g>
</svg>
