<?xml version="1.0" encoding="UTF-8" standalone="no"?>
<!DOCTYPE svg PUBLIC "-//W3C//DTD SVG 1.1//EN"
 "http://www.w3.org/Graphics/SVG/1.1/DTD/svg11.dtd">
<!-- Generated by graphviz version 12.2.1 (20241206.2353)
 -->
<!-- Title: G Pages: 1 -->
<svg width="720pt" height="151pt"
 viewBox="0.00 0.00 720.00 150.86" xmlns="http://www.w3.org/2000/svg" xmlns:xlink="http://www.w3.org/1999/xlink">
<g id="graph0" class="graph" transform="scale(0.919869 0.919869) rotate(0) translate(4 160)">
<title>G</title>
<!-- dot_dummyinit_1 -->
<g id="node1" class="node">
<title>dot_dummyinit_1</title>
</g>
<!-- s1 -->
<g id="node2" class="node">
<title>s1</title>
<path fill="none" stroke="black" d="M79.72,-78C79.72,-78 49.72,-78 49.72,-78 43.72,-78 37.72,-72 37.72,-66 37.72,-66 37.72,-54 37.72,-54 37.72,-48 43.72,-42 49.72,-42 49.72,-42 79.72,-42 79.72,-42 85.72,-42 91.72,-48 91.72,-54 91.72,-54 91.72,-66 91.72,-66 91.72,-72 85.72,-78 79.72,-78"/>
<text text-anchor="middle" x="64.72" y="-54.58" font-family="Arial" font-size="14.00">s1</text>
</g>
<!-- dot_dummyinit_1&#45;&gt;s1 -->
<g id="edge1" class="edge">
<title>dot_dummyinit_1&#45;&gt;s1</title>
<path fill="none" stroke="black" d="M0.77,-60C1.57,-60 12.96,-60 25.83,-60"/>
<polygon fill="black" stroke="black" points="25.79,-63.5 35.79,-60 25.79,-56.5 25.79,-63.5"/>
</g>
<!-- s2 -->
<g id="node3" class="node">
<title>s2</title>
<path fill="none" stroke="black" d="M177.47,-78C177.47,-78 147.22,-78 147.22,-78 141.22,-78 135.22,-72 135.22,-66 135.22,-66 135.22,-54 135.22,-54 135.22,-48 141.22,-42 147.22,-42 147.22,-42 177.47,-42 177.47,-42 183.47,-42 189.47,-48 189.47,-54 189.47,-54 189.47,-66 189.47,-66 189.47,-72 183.47,-78 177.47,-78"/>
<text text-anchor="start" x="147.22" y="-54.58" font-family="Arial" font-size="14.00">s2</text>
<polygon fill="black" stroke="none" points="171.47,-50.12 171.47,-69.88 179.47,-69.88 179.47,-50.12 171.47,-50.12"/>
</g>
<!-- s1&#45;&gt;s2 -->
<g id="edge2" class="edge">
<title>s1&#45;&gt;s2</title>
<path fill="none" stroke="black" d="M92.1,-60C101.82,-60 113.03,-60 123.56,-60"/>
<polygon fill="black" stroke="black" points="123.53,-63.5 133.53,-60 123.53,-56.5 123.53,-63.5"/>
<text text-anchor="middle" x="113.47" y="-62.45" font-family="Arial" font-size="14.00">a</text>
</g>
<!-- s2&#45;&gt;s1 -->
<g id="edge3" class="edge">
<title>s2&#45;&gt;s1</title>
<path fill="none" stroke="black" d="M134.76,-43.47C126.86,-40.3 118.07,-38.46 109.72,-40.25 107.42,-40.74 105.09,-41.37 102.77,-42.08"/>
<polygon fill="black" stroke="black" points="101.69,-38.75 93.52,-45.49 104.11,-45.32 101.69,-38.75"/>
<text text-anchor="middle" x="113.47" y="-42.7" font-family="Arial" font-size="14.00">b</text>
</g>
<!-- s3 -->
<g id="node5" class="node">
<title>s3</title>
<path fill="none" stroke="black" d="M274.97,-78C274.97,-78 244.97,-78 244.97,-78 238.97,-78 232.97,-72 232.97,-66 232.97,-66 232.97,-54 232.97,-54 232.97,-48 238.97,-42 244.97,-42 244.97,-42 274.97,-42 274.97,-42 280.97,-42 286.97,-48 286.97,-54 286.97,-54 286.97,-66 286.97,-66 286.97,-72 280.97,-78 274.97,-78"/>
<text text-anchor="middle" x="259.97" y="-54.58" font-family="Arial" font-size="14.00">s3</text>
</g>
<!-- s2&#45;&gt;s3 -->
<g id="edge4" class="edge">
<title>s2&#45;&gt;s3</title>
<path fill="none" stroke="black" d="M189.73,-60C199.45,-60 210.66,-60 221.19,-60"/>
<polygon fill="black" stroke="black" points="221.16,-63.5 231.16,-60 221.16,-56.5 221.16,-63.5"/>
<text text-anchor="middle" x="211.22" y="-62.45" font-family="Arial" font-size="14.00">a</text>
</g>
<!-- s9 -->
<g id="node4" class="node">
<title>s9</title>
<path fill="none" stroke="black" d="M567.72,-106C567.72,-106 537.47,-106 537.47,-106 531.47,-106 525.47,-100 525.47,-94 525.47,-94 525.47,-82 525.47,-82 525.47,-76 531.47,-70 537.47,-70 537.47,-70 567.72,-70 567.72,-70 573.72,-70 579.72,-76 579.72,-82 579.72,-82 579.72,-94 579.72,-94 579.72,-100 573.72,-106 567.72,-106"/>
<text text-anchor="start" x="537.47" y="-82.58" font-family="Arial" font-size="14.00">s9</text>
<polygon fill="black" stroke="none" points="561.72,-78.12 561.72,-97.88 569.72,-97.88 569.72,-78.12 561.72,-78.12"/>
</g>
<!-- s10 -->
<g id="node11" class="node">
<title>s10</title>
<path fill="none" stroke="black" d="M665.22,-156C665.22,-156 635.22,-156 635.22,-156 629.22,-156 623.22,-150 623.22,-144 623.22,-144 623.22,-132 623.22,-132 623.22,-126 629.22,-120 635.22,-120 635.22,-120 665.22,-120 665.22,-120 671.22,-120 677.22,-126 677.22,-132 677.22,-132 677.22,-144 677.22,-144 677.22,-150 671.22,-156 665.22,-156"/>
<text text-anchor="middle" x="650.22" y="-132.57" font-family="Arial" font-size="14.00">s10</text>
</g>
<!-- s9&#45;&gt;s10 -->
<g id="edge13" class="edge">
<title>s9&#45;&gt;s10</title>
<path fill="none" stroke="black" d="M579.98,-101.8C590.12,-107.1 601.88,-113.24 612.79,-118.95"/>
<polygon fill="black" stroke="black" points="611.1,-122.02 621.58,-123.55 614.34,-115.81 611.1,-122.02"/>
<text text-anchor="middle" x="601.47" y="-116.95" font-family="Arial" font-size="14.00">a</text>
</g>
<!-- s11 -->
<g id="node12" class="node">
<title>s11</title>
<path fill="none" stroke="black" d="M665.22,-102C665.22,-102 635.22,-102 635.22,-102 629.22,-102 623.22,-96 623.22,-90 623.22,-90 623.22,-78 623.22,-78 623.22,-72 629.22,-66 635.22,-66 635.22,-66 665.22,-66 665.22,-66 671.22,-66 677.22,-72 677.22,-78 677.22,-78 677.22,-90 677.22,-90 677.22,-96 671.22,-102 665.22,-102"/>
<text text-anchor="middle" x="650.22" y="-78.58" font-family="Arial" font-size="14.00">s11</text>
</g>
<!-- s9&#45;&gt;s11 -->
<g id="edge14" class="edge">
<title>s9&#45;&gt;s11</title>
<path fill="none" stroke="black" d="M579.98,-86.9C589.7,-86.49 600.91,-86.02 611.44,-85.58"/>
<polygon fill="black" stroke="black" points="611.57,-89.08 621.41,-85.16 611.27,-82.08 611.57,-89.08"/>
<text text-anchor="middle" x="601.47" y="-88.57" font-family="Arial" font-size="14.00">b</text>
</g>
<!-- s4 -->
<g id="node6" class="node">
<title>s4</title>
<path fill="none" stroke="black" d="M372.47,-78C372.47,-78 342.47,-78 342.47,-78 336.47,-78 330.47,-72 330.47,-66 330.47,-66 330.47,-54 330.47,-54 330.47,-48 336.47,-42 342.47,-42 342.47,-42 372.47,-42 372.47,-42 378.47,-42 384.47,-48 384.47,-54 384.47,-54 384.47,-66 384.47,-66 384.47,-72 378.47,-78 372.47,-78"/>
<text text-anchor="middle" x="357.47" y="-54.58" font-family="Arial" font-size="14.00">s4</text>
</g>
<!-- s3&#45;&gt;s4 -->
<g id="edge5" class="edge">
<title>s3&#45;&gt;s4</title>
<path fill="none" stroke="black" d="M287.32,-60C297.03,-60 308.22,-60 318.74,-60"/>
<polygon fill="black" stroke="black" points="318.69,-63.5 328.69,-60 318.69,-56.5 318.69,-63.5"/>
<text text-anchor="middle" x="308.72" y="-62.45" font-family="Arial" font-size="14.00">c</text>
</g>
<!-- s4&#45;&gt;s3 -->
<g id="edge6" class="edge">
<title>s4&#45;&gt;s3</title>
<path fill="none" stroke="black" d="M330.09,-46.01C324.42,-43.63 318.37,-41.51 312.47,-40.25 307.73,-39.23 302.85,-39.39 298.07,-40.3"/>
<polygon fill="black" stroke="black" points="297.23,-36.9 288.67,-43.14 299.25,-43.6 297.23,-36.9"/>
<text text-anchor="middle" x="308.72" y="-42.7" font-family="Arial" font-size="14.00">d</text>
</g>
<!-- s5 -->
<g id="node7" class="node">
<title>s5</title>
<path fill="none" stroke="black" d="M469.97,-78C469.97,-78 439.97,-78 439.97,-78 433.97,-78 427.97,-72 427.97,-66 427.97,-66 427.97,-54 427.97,-54 427.97,-48 433.97,-42 439.97,-42 439.97,-42 469.97,-42 469.97,-42 475.97,-42 481.97,-48 481.97,-54 481.97,-54 481.97,-66 481.97,-66 481.97,-72 475.97,-78 469.97,-78"/>
<text text-anchor="middle" x="454.97" y="-54.58" font-family="Arial" font-size="14.00">s5</text>
</g>
<!-- s4&#45;&gt;s5 -->
<g id="edge7" class="edge">
<title>s4&#45;&gt;s5</title>
<path fill="none" stroke="black" d="M384.82,-60C394.53,-60 405.72,-60 416.24,-60"/>
<polygon fill="black" stroke="black" points="416.19,-63.5 426.19,-60 416.19,-56.5 416.19,-63.5"/>
<text text-anchor="middle" x="406.22" y="-62.45" font-family="Arial" font-size="14.00">b</text>
</g>
<!-- s5&#45;&gt;s9 -->
<g id="edge9" class="edge">
<title>s5&#45;&gt;s9</title>
<path fill="none" stroke="black" d="M482.35,-67.73C492.28,-70.63 503.77,-74 514.49,-77.14"/>
<polygon fill="black" stroke="black" points="513.26,-80.42 523.85,-79.87 515.23,-73.71 513.26,-80.42"/>
<text text-anchor="middle" x="503.72" y="-77.29" font-family="Arial" font-size="14.00">b</text>
</g>
<!-- s6 -->
<g id="node8" class="node">
<title>s6</title>
<path fill="none" stroke="black" d="M567.6,-52C567.6,-52 537.6,-52 537.6,-52 531.6,-52 525.6,-46 525.6,-40 525.6,-40 525.6,-28 525.6,-28 525.6,-22 531.6,-16 537.6,-16 537.6,-16 567.6,-16 567.6,-16 573.6,-16 579.6,-22 579.6,-28 579.6,-28 579.6,-40 579.6,-40 579.6,-46 573.6,-52 567.6,-52"/>
<text text-anchor="middle" x="552.6" y="-28.57" font-family="Arial" font-size="14.00">s6</text>
</g>
<!-- s5&#45;&gt;s6 -->
<g id="edge8" class="edge">
<title>s5&#45;&gt;s6</title>
<path fill="none" stroke="black" d="M482.41,-51.41C488.17,-49.63 494.26,-47.82 499.97,-46.25 504.57,-44.99 509.41,-43.74 514.22,-42.54"/>
<polygon fill="black" stroke="black" points="514.87,-45.98 523.77,-40.23 513.23,-39.18 514.87,-45.98"/>
<text text-anchor="middle" x="503.72" y="-48.7" font-family="Arial" font-size="14.00">a</text>
</g>
<!-- s7 -->
<g id="node9" class="node">
<title>s7</title>
<path fill="none" stroke="black" d="M665.22,-36C665.22,-36 635.22,-36 635.22,-36 629.22,-36 623.22,-30 623.22,-24 623.22,-24 623.22,-12 623.22,-12 623.22,-6 629.22,0 635.22,0 635.22,0 665.22,0 665.22,0 671.22,0 677.22,-6 677.22,-12 677.22,-12 677.22,-24 677.22,-24 677.22,-30 671.22,-36 665.22,-36"/>
<text text-anchor="middle" x="650.22" y="-12.57" font-family="Arial" font-size="14.00">s7</text>
</g>
<!-- s6&#45;&gt;s7 -->
<g id="edge10" class="edge">
<title>s6&#45;&gt;s7</title>
<path fill="none" stroke="black" d="M579.98,-29.59C589.8,-27.94 601.15,-26.04 611.78,-24.26"/>
<polygon fill="black" stroke="black" points="612.14,-27.75 621.43,-22.65 610.99,-20.85 612.14,-27.75"/>
<text text-anchor="middle" x="601.47" y="-28.93" font-family="Arial" font-size="14.00">b</text>
</g>
<!-- s7&#45;&gt;s6 -->
<g id="edge11" class="edge">
<title>s7&#45;&gt;s6</title>
<path fill="none" stroke="black" d="M622.87,-6.83C614.76,-4.77 605.83,-3.91 597.72,-6.25 594.35,-7.22 590.99,-8.53 587.71,-10.06"/>
<polygon fill="black" stroke="black" points="586.08,-6.97 578.95,-14.81 589.41,-13.12 586.08,-6.97"/>
<text text-anchor="middle" x="601.47" y="-8.7" font-family="Arial" font-size="14.00">a</text>
</g>
<!-- s8 -->
<g id="node10" class="node">
<title>s8</title>
<path fill="none" stroke="black" d="M762.72,-36C762.72,-36 732.72,-36 732.72,-36 726.72,-36 720.72,-30 720.72,-24 720.72,-24 720.72,-12 720.72,-12 720.72,-6 726.72,0 732.72,0 732.72,0 762.72,0 762.72,0 768.72,0 774.72,-6 774.72,-12 774.72,-12 774.72,-24 774.72,-24 774.72,-30 768.72,-36 762.72,-36"/>
<text text-anchor="middle" x="747.72" y="-12.57" font-family="Arial" font-size="14.00">s8</text>
</g>
<!-- s7&#45;&gt;s8 -->
<g id="edge12" class="edge">
<title>s7&#45;&gt;s8</title>
<path fill="none" stroke="black" d="M677.57,-18C687.28,-18 698.47,-18 708.99,-18"/>
<polygon fill="black" stroke="black" points="708.94,-21.5 718.94,-18 708.94,-14.5 708.94,-21.5"/>
<text text-anchor="middle" x="698.97" y="-20.45" font-family="Arial" font-size="14.00">a</text>
</g>
</g>
</svg>
