<?xml version="1.0" encoding="UTF-8" standalone="no"?>
<!DOCTYPE svg PUBLIC "-//W3C//DTD SVG 1.1//EN"
 "http://www.w3.org/Graphics/SVG/1.1/DTD/svg11.dtd">
<!-- Generated by graphviz version 12.2.1 (20241206.2353)
 -->
<!-- Title: A&#45;B&#45;Spec&#45;Eventually&#45;B Pages: 1 -->
<svg width="251pt" height="81pt"
 viewBox="0.00 0.00 250.50 80.52" xmlns="http://www.w3.org/2000/svg" xmlns:xlink="http://www.w3.org/1999/xlink">
<g id="graph0" class="graph" transform="scale(1 1) rotate(0) translate(4 76.52)">
<title>A&#45;B&#45;Spec&#45;Eventually&#45;B</title>
<!-- dot_dummyinit_0 -->
<g id="node1" class="node">
<title>dot_dummyinit_0</title>
</g>
<!-- A -->
<g id="node2" class="node">
<title>A</title>
<path fill="none" stroke="black" d="M133,-38.77C133,-38.77 103,-38.77 103,-38.77 97,-38.77 91,-32.77 91,-26.77 91,-26.77 91,-14.77 91,-14.77 91,-8.77 97,-2.77 103,-2.77 103,-2.77 133,-2.77 133,-2.77 139,-2.77 145,-8.77 145,-14.77 145,-14.77 145,-26.77 145,-26.77 145,-32.77 139,-38.77 133,-38.77"/>
<text text-anchor="middle" x="118" y="-15.34" font-family="Arial" font-size="14.00">A</text>
</g>
<!-- dot_dummyinit_0&#45;&gt;A -->
<g id="edge1" class="edge">
<title>dot_dummyinit_0&#45;&gt;A</title>
<path fill="none" stroke="black" d="M53.74,-20.77C61.72,-20.77 70.68,-20.77 79.29,-20.77"/>
<polygon fill="black" stroke="black" points="79.18,-24.27 89.18,-20.77 79.18,-17.27 79.18,-24.27"/>
</g>
<!-- A&#45;&gt;A -->
<g id="edge2" class="edge">
<title>A&#45;&gt;A</title>
<path fill="none" stroke="black" d="M109.77,-38.92C108.5,-48.3 111.25,-56.77 118,-56.77 121.69,-56.77 124.19,-54.23 125.48,-50.41"/>
<polygon fill="black" stroke="black" points="128.98,-50.63 126.13,-40.43 121.99,-50.18 128.98,-50.63"/>
<text text-anchor="middle" x="118" y="-59.22" font-family="Arial" font-size="14.00">a, c, d</text>
</g>
<!-- B -->
<g id="node3" class="node">
<title>B</title>
<path fill="none" stroke="black" d="M230.5,-38.77C230.5,-38.77 200.5,-38.77 200.5,-38.77 194.5,-38.77 188.5,-32.77 188.5,-26.77 188.5,-26.77 188.5,-14.77 188.5,-14.77 188.5,-8.77 194.5,-2.77 200.5,-2.77 200.5,-2.77 230.5,-2.77 230.5,-2.77 236.5,-2.77 242.5,-8.77 242.5,-14.77 242.5,-14.77 242.5,-26.77 242.5,-26.77 242.5,-32.77 236.5,-38.77 230.5,-38.77"/>
<text text-anchor="start" x="201.5" y="-15.34" font-family="Arial" font-size="14.00">B</text>
<polygon fill="black" stroke="none" points="221.5,-10.89 221.5,-30.64 231.5,-30.64 231.5,-10.89 221.5,-10.89"/>
</g>
<!-- A&#45;&gt;B -->
<g id="edge3" class="edge">
<title>A&#45;&gt;B</title>
<path fill="none" stroke="black" d="M145.35,-20.77C155.06,-20.77 166.25,-20.77 176.77,-20.77"/>
<polygon fill="black" stroke="black" points="176.72,-24.27 186.72,-20.77 176.72,-17.27 176.72,-24.27"/>
<text text-anchor="middle" x="166.75" y="-23.22" font-family="Arial" font-size="14.00">b</text>
</g>
<!-- B&#45;&gt;A -->
<g id="edge4" class="edge">
<title>B&#45;&gt;A</title>
<path fill="none" stroke="black" d="M188.12,-6.78C182.45,-4.39 176.4,-2.28 170.5,-1.02 165.76,0 160.88,-0.16 156.1,-1.07"/>
<polygon fill="black" stroke="black" points="155.26,2.33 146.7,-3.91 157.28,-4.37 155.26,2.33"/>
<text text-anchor="middle" x="166.75" y="-3.47" font-family="Arial" font-size="14.00">c</text>
</g>
<!-- B&#45;&gt;B -->
<g id="edge5" class="edge">
<title>B&#45;&gt;B</title>
<path fill="none" stroke="black" d="M206.68,-38.92C205.32,-48.3 208.26,-56.77 215.5,-56.77 219.57,-56.77 222.28,-54.09 223.63,-50.07"/>
<polygon fill="black" stroke="black" points="227.11,-50.62 224.23,-40.43 220.12,-50.19 227.11,-50.62"/>
<text text-anchor="middle" x="215.5" y="-59.22" font-family="Arial" font-size="14.00">b, d</text>
</g>
</g>
</svg>
