<?xml version="1.0" encoding="UTF-8" standalone="no"?>
<!DOCTYPE svg PUBLIC "-//W3C//DTD SVG 1.1//EN"
 "http://www.w3.org/Graphics/SVG/1.1/DTD/svg11.dtd">
<!-- Generated by graphviz version 2.43.0 (0)
 -->
<!-- Title: BuechiConNorm((wPlant3),(wSpec3)) [minstate] Pages: 1 -->
<svg width="720pt" height="186pt"
 viewBox="0.00 0.00 720.00 185.57" xmlns="http://www.w3.org/2000/svg" xmlns:xlink="http://www.w3.org/1999/xlink">
<g id="graph0" class="graph" transform="scale(1.37 1.37) rotate(0) translate(4 250.95)">
<title>BuechiConNorm((wPlant3),(wSpec3)) [minstate]</title>
<!-- dot_dummyinit_1 -->
<g id="node1" class="node">
<title>dot_dummyinit_1</title>
</g>
<!-- 19 -->
<g id="node2" class="node">
<title>19</title>
<ellipse fill="none" stroke="black" cx="58.8" cy="-122.15" rx="20.6" ry="20.6"/>
<text text-anchor="middle" x="58.8" y="-118.45" font-family="Arial" font-size="14.00">19</text>
</g>
<!-- dot_dummyinit_1&#45;&gt;19 -->
<g id="edge1" class="edge">
<title>dot_dummyinit_1&#45;&gt;19</title>
<path fill="none" stroke="black" d="M1.16,-122.15C2.7,-122.15 14.93,-122.15 27.62,-122.15"/>
<polygon fill="black" stroke="black" points="27.71,-125.65 37.71,-122.15 27.71,-118.65 27.71,-125.65"/>
</g>
<!-- 7 -->
<g id="node5" class="node">
<title>7</title>
<ellipse fill="none" stroke="black" cx="148.39" cy="-154.15" rx="18" ry="18"/>
<ellipse fill="none" stroke="black" cx="148.39" cy="-154.15" rx="22" ry="22"/>
<text text-anchor="middle" x="148.39" y="-150.45" font-family="Arial" font-size="14.00">7</text>
</g>
<!-- 19&#45;&gt;7 -->
<g id="edge31" class="edge">
<title>19&#45;&gt;7</title>
<path fill="none" stroke="black" d="M78.12,-130.29C84.27,-132.92 91.18,-135.77 97.6,-138.15 103.85,-140.47 110.62,-142.78 117.09,-144.89"/>
<polygon fill="black" stroke="black" points="116.31,-148.31 126.9,-148.02 118.44,-141.65 116.31,-148.31"/>
<text text-anchor="middle" x="101.6" y="-143.95" font-family="Arial" font-size="14.00">b</text>
</g>
<!-- 12 -->
<g id="node6" class="node">
<title>12</title>
<ellipse fill="none" stroke="black" cx="148.39" cy="-84.15" rx="20.63" ry="20.63"/>
<ellipse fill="none" stroke="black" cx="148.39" cy="-84.15" rx="24.6" ry="24.6"/>
<text text-anchor="middle" x="148.39" y="-80.45" font-family="Arial" font-size="14.00">12</text>
</g>
<!-- 19&#45;&gt;12 -->
<g id="edge30" class="edge">
<title>19&#45;&gt;12</title>
<path fill="none" stroke="black" d="M77.24,-112.27C83.56,-108.86 90.81,-105.15 97.6,-102.15 103.14,-99.69 109.14,-97.31 114.98,-95.12"/>
<polygon fill="black" stroke="black" points="116.36,-98.34 124.57,-91.64 113.98,-91.76 116.36,-98.34"/>
<text text-anchor="middle" x="101.6" y="-105.95" font-family="Arial" font-size="14.00">a</text>
</g>
<!-- 1 -->
<g id="node3" class="node">
<title>1</title>
<ellipse fill="none" stroke="black" cx="705.58" cy="-135.15" rx="18" ry="18"/>
<ellipse fill="none" stroke="black" cx="705.58" cy="-135.15" rx="22" ry="22"/>
<text text-anchor="middle" x="705.58" y="-131.45" font-family="Arial" font-size="14.00">1</text>
</g>
<!-- 6 -->
<g id="node12" class="node">
<title>6</title>
<ellipse fill="none" stroke="black" cx="789.58" cy="-192.15" rx="18" ry="18"/>
<text text-anchor="middle" x="789.58" y="-188.45" font-family="Arial" font-size="14.00">6</text>
</g>
<!-- 1&#45;&gt;6 -->
<g id="edge2" class="edge">
<title>1&#45;&gt;6</title>
<path fill="none" stroke="black" d="M721.74,-150.43C728.67,-156.96 737.18,-164.38 745.58,-170.15 751.2,-174.01 757.59,-177.64 763.7,-180.8"/>
<polygon fill="black" stroke="black" points="762.39,-184.05 772.91,-185.33 765.48,-177.77 762.39,-184.05"/>
<text text-anchor="middle" x="749.58" y="-177.95" font-family="Arial" font-size="14.00">c</text>
</g>
<!-- 9 -->
<g id="node14" class="node">
<title>9</title>
<ellipse fill="none" stroke="black" cx="789.58" cy="-117.15" rx="18" ry="18"/>
<text text-anchor="middle" x="789.58" y="-113.45" font-family="Arial" font-size="14.00">9</text>
</g>
<!-- 1&#45;&gt;9 -->
<g id="edge3" class="edge">
<title>1&#45;&gt;9</title>
<path fill="none" stroke="black" d="M725.04,-124.64C731.35,-121.6 738.59,-118.68 745.58,-117.15 750.6,-116.05 756.03,-115.54 761.29,-115.38"/>
<polygon fill="black" stroke="black" points="761.62,-118.88 771.65,-115.48 761.69,-111.88 761.62,-118.88"/>
<text text-anchor="middle" x="749.58" y="-120.95" font-family="Arial" font-size="14.00">f</text>
</g>
<!-- 3 -->
<g id="node4" class="node">
<title>3</title>
<ellipse fill="none" stroke="black" cx="959.17" cy="-66.15" rx="18" ry="18"/>
<ellipse fill="none" stroke="black" cx="959.17" cy="-66.15" rx="22" ry="22"/>
<text text-anchor="middle" x="959.17" y="-62.45" font-family="Arial" font-size="14.00">3</text>
</g>
<!-- 16 -->
<g id="node20" class="node">
<title>16</title>
<ellipse fill="none" stroke="black" cx="872.38" cy="-66.15" rx="20.6" ry="20.6"/>
<text text-anchor="middle" x="872.38" y="-62.45" font-family="Arial" font-size="14.00">16</text>
</g>
<!-- 3&#45;&gt;16 -->
<g id="edge6" class="edge">
<title>3&#45;&gt;16</title>
<path fill="none" stroke="black" d="M940.69,-54.11C932,-49.52 921.23,-45.88 911.17,-48.15 907.48,-48.98 903.73,-50.22 900.09,-51.67"/>
<polygon fill="black" stroke="black" points="898.53,-48.53 890.86,-55.84 901.41,-54.91 898.53,-48.53"/>
<text text-anchor="middle" x="915.17" y="-51.95" font-family="Arial" font-size="14.00">a</text>
</g>
<!-- 7&#45;&gt;19 -->
<g id="edge11" class="edge">
<title>7&#45;&gt;19</title>
<path fill="none" stroke="black" d="M132.07,-139.2C124.69,-133 115.34,-126.49 105.6,-123.15 100.64,-121.45 95.21,-120.56 89.87,-120.18"/>
<polygon fill="black" stroke="black" points="89.94,-116.68 79.87,-119.97 89.8,-123.68 89.94,-116.68"/>
<text text-anchor="middle" x="101.6" y="-126.95" font-family="Arial" font-size="14.00">c</text>
</g>
<!-- 11 -->
<g id="node16" class="node">
<title>11</title>
<ellipse fill="none" stroke="black" cx="237.99" cy="-20.15" rx="20.3" ry="20.3"/>
<text text-anchor="middle" x="237.99" y="-16.45" font-family="Arial" font-size="14.00">11</text>
</g>
<!-- 12&#45;&gt;11 -->
<g id="edge20" class="edge">
<title>12&#45;&gt;11</title>
<path fill="none" stroke="black" d="M164.11,-64.83C171.5,-56.11 181.04,-46.21 191.19,-39.15 196.57,-35.41 202.8,-32.21 208.9,-29.56"/>
<polygon fill="black" stroke="black" points="210.23,-32.8 218.24,-25.86 207.65,-26.3 210.23,-32.8"/>
<text text-anchor="middle" x="195.19" y="-42.95" font-family="Arial" font-size="14.00">f</text>
</g>
<!-- 13 -->
<g id="node17" class="node">
<title>13</title>
<ellipse fill="none" stroke="black" cx="237.99" cy="-139.15" rx="20.6" ry="20.6"/>
<text text-anchor="middle" x="237.99" y="-135.45" font-family="Arial" font-size="14.00">13</text>
</g>
<!-- 12&#45;&gt;13 -->
<g id="edge19" class="edge">
<title>12&#45;&gt;13</title>
<path fill="none" stroke="black" d="M172.65,-90.27C181.36,-93.14 191.1,-97.06 199.19,-102.15 205.36,-106.02 211.33,-111.04 216.64,-116.13"/>
<polygon fill="black" stroke="black" points="214.38,-118.83 223.88,-123.51 219.37,-113.92 214.38,-118.83"/>
<text text-anchor="middle" x="195.19" y="-105.95" font-family="Arial" font-size="14.00">c</text>
</g>
<!-- 17 -->
<g id="node7" class="node">
<title>17</title>
<ellipse fill="none" stroke="black" cx="449.18" cy="-163.15" rx="20.63" ry="20.63"/>
<ellipse fill="none" stroke="black" cx="449.18" cy="-163.15" rx="24.6" ry="24.6"/>
<text text-anchor="middle" x="449.18" y="-159.45" font-family="Arial" font-size="14.00">17</text>
</g>
<!-- 8 -->
<g id="node13" class="node">
<title>8</title>
<ellipse fill="none" stroke="black" cx="320.79" cy="-126.15" rx="18" ry="18"/>
<text text-anchor="middle" x="320.79" y="-122.45" font-family="Arial" font-size="14.00">8</text>
</g>
<!-- 17&#45;&gt;8 -->
<g id="edge28" class="edge">
<title>17&#45;&gt;8</title>
<path fill="none" stroke="black" d="M424.37,-164.87C405.37,-165.36 378.45,-164.04 356.79,-155.15 351.31,-152.9 346.04,-149.48 341.33,-145.77"/>
<polygon fill="black" stroke="black" points="343.35,-142.89 333.51,-138.96 338.75,-148.17 343.35,-142.89"/>
<text text-anchor="middle" x="381.59" y="-167.95" font-family="Arial" font-size="14.00">a</text>
</g>
<!-- 18 -->
<g id="node8" class="node">
<title>18</title>
<ellipse fill="none" stroke="black" cx="381.59" cy="-222.15" rx="20.63" ry="20.63"/>
<ellipse fill="none" stroke="black" cx="381.59" cy="-222.15" rx="24.6" ry="24.6"/>
<text text-anchor="middle" x="381.59" y="-218.45" font-family="Arial" font-size="14.00">18</text>
</g>
<!-- 18&#45;&gt;6 -->
<g id="edge29" class="edge">
<title>18&#45;&gt;6</title>
<path fill="none" stroke="black" d="M406.7,-222.15C429.46,-222.15 464.54,-222.15 494.98,-222.15 494.98,-222.15 494.98,-222.15 706.58,-222.15 727.04,-222.15 748.72,-213.81 764.65,-205.92"/>
<polygon fill="black" stroke="black" points="766.52,-208.89 773.76,-201.15 763.28,-202.69 766.52,-208.89"/>
<text text-anchor="middle" x="581.58" y="-225.95" font-family="Arial" font-size="14.00">c</text>
</g>
<!-- 2 -->
<g id="node9" class="node">
<title>2</title>
<ellipse fill="none" stroke="black" cx="621.58" cy="-51.15" rx="18" ry="18"/>
<text text-anchor="middle" x="621.58" y="-47.45" font-family="Arial" font-size="14.00">2</text>
</g>
<!-- 2&#45;&gt;1 -->
<g id="edge5" class="edge">
<title>2&#45;&gt;1</title>
<path fill="none" stroke="black" d="M634.68,-63.54C647.23,-76.41 667.15,-96.81 682.52,-112.55"/>
<polygon fill="black" stroke="black" points="680.16,-115.14 689.65,-119.85 685.16,-110.25 680.16,-115.14"/>
<text text-anchor="middle" x="661.58" y="-96.95" font-family="Arial" font-size="14.00">e</text>
</g>
<!-- 4 -->
<g id="node10" class="node">
<title>4</title>
<ellipse fill="none" stroke="black" cx="538.78" cy="-22.15" rx="18" ry="18"/>
<text text-anchor="middle" x="538.78" y="-18.45" font-family="Arial" font-size="14.00">4</text>
</g>
<!-- 2&#45;&gt;4 -->
<g id="edge4" class="edge">
<title>2&#45;&gt;4</title>
<path fill="none" stroke="black" d="M604.25,-45.29C593.2,-41.32 578.35,-35.99 565.7,-31.45"/>
<polygon fill="black" stroke="black" points="566.72,-28.1 556.13,-28.02 564.36,-34.69 566.72,-28.1"/>
<text text-anchor="middle" x="581.58" y="-42.95" font-family="Arial" font-size="14.00">c</text>
</g>
<!-- 4&#45;&gt;2 -->
<g id="edge7" class="edge">
<title>4&#45;&gt;2</title>
<path fill="none" stroke="black" d="M555.99,-16.66C565,-14.51 576.24,-13.36 585.58,-17.15 592.22,-19.84 598.3,-24.48 603.46,-29.47"/>
<polygon fill="black" stroke="black" points="600.95,-31.91 610.32,-36.85 606.08,-27.14 600.95,-31.91"/>
<text text-anchor="middle" x="581.58" y="-20.95" font-family="Arial" font-size="14.00">a</text>
</g>
<!-- 5 -->
<g id="node11" class="node">
<title>5</title>
<ellipse fill="none" stroke="black" cx="320.79" cy="-22.15" rx="18" ry="18"/>
<text text-anchor="middle" x="320.79" y="-18.45" font-family="Arial" font-size="14.00">5</text>
</g>
<!-- 5&#45;&gt;11 -->
<g id="edge8" class="edge">
<title>5&#45;&gt;11</title>
<path fill="none" stroke="black" d="M302.7,-21.73C292.71,-21.48 279.83,-21.16 268.27,-20.87"/>
<polygon fill="black" stroke="black" points="268.22,-17.37 258.14,-20.62 268.05,-24.37 268.22,-17.37"/>
<text text-anchor="middle" x="280.79" y="-25.95" font-family="Arial" font-size="14.00">a</text>
</g>
<!-- 20 -->
<g id="node21" class="node">
<title>20</title>
<ellipse fill="none" stroke="black" cx="449.18" cy="-22.15" rx="20.6" ry="20.6"/>
<text text-anchor="middle" x="449.18" y="-18.45" font-family="Arial" font-size="14.00">20</text>
</g>
<!-- 5&#45;&gt;20 -->
<g id="edge9" class="edge">
<title>5&#45;&gt;20</title>
<path fill="none" stroke="black" d="M338.84,-22.15C359.03,-22.15 393.04,-22.15 417.78,-22.15"/>
<polygon fill="black" stroke="black" points="418.08,-25.65 428.08,-22.15 418.08,-18.65 418.08,-25.65"/>
<text text-anchor="middle" x="381.59" y="-25.95" font-family="Arial" font-size="14.00">b</text>
</g>
<!-- 6&#45;&gt;1 -->
<g id="edge10" class="edge">
<title>6&#45;&gt;1</title>
<path fill="none" stroke="black" d="M779.09,-177.49C772.79,-168.77 763.8,-158.08 753.58,-151.15 748.55,-147.74 742.73,-144.99 736.93,-142.8"/>
<polygon fill="black" stroke="black" points="737.94,-139.45 727.35,-139.63 735.74,-146.1 737.94,-139.45"/>
<text text-anchor="middle" x="749.58" y="-154.95" font-family="Arial" font-size="14.00">a</text>
</g>
<!-- 8&#45;&gt;17 -->
<g id="edge12" class="edge">
<title>8&#45;&gt;17</title>
<path fill="none" stroke="black" d="M339.06,-127.29C356.46,-128.83 383.88,-132.35 406.39,-140.15 410.52,-141.58 414.74,-143.4 418.81,-145.39"/>
<polygon fill="black" stroke="black" points="417.51,-148.67 427.99,-150.24 420.78,-142.47 417.51,-148.67"/>
<text text-anchor="middle" x="381.59" y="-143.95" font-family="Arial" font-size="14.00">c</text>
</g>
<!-- 14 -->
<g id="node18" class="node">
<title>14</title>
<ellipse fill="none" stroke="black" cx="449.18" cy="-92.15" rx="20.6" ry="20.6"/>
<text text-anchor="middle" x="449.18" y="-88.45" font-family="Arial" font-size="14.00">14</text>
</g>
<!-- 8&#45;&gt;14 -->
<g id="edge13" class="edge">
<title>8&#45;&gt;14</title>
<path fill="none" stroke="black" d="M334.88,-114.88C341.11,-110.15 348.91,-105.07 356.79,-102.15 376.43,-94.87 399.95,-92.42 418.22,-91.77"/>
<polygon fill="black" stroke="black" points="418.36,-95.27 428.29,-91.57 418.22,-88.27 418.36,-95.27"/>
<text text-anchor="middle" x="381.59" y="-105.95" font-family="Arial" font-size="14.00">f</text>
</g>
<!-- 10 -->
<g id="node15" class="node">
<title>10</title>
<ellipse fill="none" stroke="black" cx="872.38" cy="-131.15" rx="20.6" ry="20.6"/>
<text text-anchor="middle" x="872.38" y="-127.45" font-family="Arial" font-size="14.00">10</text>
</g>
<!-- 9&#45;&gt;10 -->
<g id="edge14" class="edge">
<title>9&#45;&gt;10</title>
<path fill="none" stroke="black" d="M805.36,-126.16C811.4,-129.35 818.6,-132.54 825.58,-134.15 830.69,-135.32 836.2,-135.7 841.56,-135.6"/>
<polygon fill="black" stroke="black" points="841.82,-139.09 851.56,-134.93 841.35,-132.11 841.82,-139.09"/>
<text text-anchor="middle" x="829.58" y="-138.95" font-family="Arial" font-size="14.00">c</text>
</g>
<!-- 9&#45;&gt;16 -->
<g id="edge15" class="edge">
<title>9&#45;&gt;16</title>
<path fill="none" stroke="black" d="M805.4,-107.79C816.65,-100.69 832.4,-90.75 845.69,-82.36"/>
<polygon fill="black" stroke="black" points="847.83,-85.15 854.41,-76.86 844.09,-79.23 847.83,-85.15"/>
<text text-anchor="middle" x="829.58" y="-97.95" font-family="Arial" font-size="14.00">e</text>
</g>
<!-- 10&#45;&gt;9 -->
<g id="edge16" class="edge">
<title>10&#45;&gt;9</title>
<path fill="none" stroke="black" d="M853.39,-121.81C847.27,-119.1 840.28,-116.51 833.58,-115.15 828.53,-114.12 823.09,-113.8 817.83,-113.86"/>
<polygon fill="black" stroke="black" points="817.25,-110.39 807.47,-114.46 817.65,-117.38 817.25,-110.39"/>
<text text-anchor="middle" x="829.58" y="-118.95" font-family="Arial" font-size="14.00">a</text>
</g>
<!-- 11&#45;&gt;5 -->
<g id="edge17" class="edge">
<title>11&#45;&gt;5</title>
<path fill="none" stroke="black" d="M254.8,-8.56C263.49,-3.57 274.55,0.57 284.79,-2.15 288.97,-3.26 293.18,-5 297.15,-7.01"/>
<polygon fill="black" stroke="black" points="295.46,-10.07 305.88,-11.98 298.93,-3.99 295.46,-10.07"/>
<text text-anchor="middle" x="280.79" y="-5.95" font-family="Arial" font-size="14.00">c</text>
</g>
<!-- 11&#45;&gt;8 -->
<g id="edge18" class="edge">
<title>11&#45;&gt;8</title>
<path fill="none" stroke="black" d="M247.19,-38.19C254.04,-52.26 264.62,-71.91 276.79,-87.15 282.94,-94.85 290.66,-102.35 297.86,-108.69"/>
<polygon fill="black" stroke="black" points="296.05,-111.74 305.94,-115.53 300.57,-106.4 296.05,-111.74"/>
<text text-anchor="middle" x="280.79" y="-98.95" font-family="Arial" font-size="14.00">e</text>
</g>
<!-- 13&#45;&gt;12 -->
<g id="edge21" class="edge">
<title>13&#45;&gt;12</title>
<path fill="none" stroke="black" d="M218.22,-131.27C209.74,-127.42 199.72,-122.47 191.19,-117.15 186.07,-113.95 180.84,-110.23 175.89,-106.47"/>
<polygon fill="black" stroke="black" points="177.91,-103.61 167.89,-100.18 173.59,-109.12 177.91,-103.61"/>
<text text-anchor="middle" x="195.19" y="-124.95" font-family="Arial" font-size="14.00">a</text>
</g>
<!-- 13&#45;&gt;18 -->
<g id="edge22" class="edge">
<title>13&#45;&gt;18</title>
<path fill="none" stroke="black" d="M256.35,-149.33C279.94,-163.15 322.45,-188.07 351.09,-204.86"/>
<polygon fill="black" stroke="black" points="349.47,-207.96 359.87,-210 353.01,-201.93 349.47,-207.96"/>
<text text-anchor="middle" x="280.79" y="-167.95" font-family="Arial" font-size="14.00">b</text>
</g>
<!-- 14&#45;&gt;12 -->
<g id="edge24" class="edge">
<title>14&#45;&gt;12</title>
<path fill="none" stroke="black" d="M429,-86.9C397.42,-78.83 332.42,-64.67 276.79,-68.15 244.92,-70.14 208.82,-74.91 183.21,-78.73"/>
<polygon fill="black" stroke="black" points="182.62,-75.28 173.26,-80.25 183.67,-82.2 182.62,-75.28"/>
<text text-anchor="middle" x="280.79" y="-71.95" font-family="Arial" font-size="14.00">e</text>
</g>
<!-- 15 -->
<g id="node19" class="node">
<title>15</title>
<ellipse fill="none" stroke="black" cx="538.78" cy="-92.15" rx="20.6" ry="20.6"/>
<text text-anchor="middle" x="538.78" y="-88.45" font-family="Arial" font-size="14.00">15</text>
</g>
<!-- 14&#45;&gt;15 -->
<g id="edge23" class="edge">
<title>14&#45;&gt;15</title>
<path fill="none" stroke="black" d="M466.93,-80.96C476.44,-75.92 488.68,-71.6 499.98,-74.15 503.67,-74.98 507.43,-76.22 511.06,-77.67"/>
<polygon fill="black" stroke="black" points="509.74,-80.91 520.3,-81.84 512.62,-74.53 509.74,-80.91"/>
<text text-anchor="middle" x="495.98" y="-77.95" font-family="Arial" font-size="14.00">c</text>
</g>
<!-- 15&#45;&gt;14 -->
<g id="edge25" class="edge">
<title>15&#45;&gt;14</title>
<path fill="none" stroke="black" d="M517.98,-92.15C506.8,-92.15 492.59,-92.15 480.07,-92.15"/>
<polygon fill="black" stroke="black" points="480.06,-88.65 470.06,-92.15 480.06,-95.65 480.06,-88.65"/>
<text text-anchor="middle" x="495.98" y="-95.95" font-family="Arial" font-size="14.00">a</text>
</g>
<!-- 16&#45;&gt;3 -->
<g id="edge26" class="edge">
<title>16&#45;&gt;3</title>
<path fill="none" stroke="black" d="M893.47,-66.15C903.42,-66.15 915.66,-66.15 926.8,-66.15"/>
<polygon fill="black" stroke="black" points="927.04,-69.65 937.04,-66.15 927.04,-62.65 927.04,-69.65"/>
<text text-anchor="middle" x="915.17" y="-69.95" font-family="Arial" font-size="14.00">c</text>
</g>
<!-- 16&#45;&gt;2 -->
<g id="edge27" class="edge">
<title>16&#45;&gt;2</title>
<path fill="none" stroke="black" d="M851.43,-64.95C807.08,-62.27 700.26,-55.83 649.82,-52.79"/>
<polygon fill="black" stroke="black" points="649.87,-49.29 639.68,-52.18 649.45,-56.27 649.87,-49.29"/>
<text text-anchor="middle" x="749.58" y="-62.95" font-family="Arial" font-size="14.00">f</text>
</g>
<!-- 20&#45;&gt;4 -->
<g id="edge32" class="edge">
<title>20&#45;&gt;4</title>
<path fill="none" stroke="black" d="M470.06,-22.15C481.97,-22.15 497.28,-22.15 510.33,-22.15"/>
<polygon fill="black" stroke="black" points="510.64,-25.65 520.64,-22.15 510.64,-18.65 510.64,-25.65"/>
<text text-anchor="middle" x="495.98" y="-25.95" font-family="Arial" font-size="14.00">c</text>
</g>
</g>
</svg>
