<?xml version="1.0" encoding="UTF-8" standalone="no"?>
<!DOCTYPE svg PUBLIC "-//W3C//DTD SVG 1.1//EN"
 "http://www.w3.org/Graphics/SVG/1.1/DTD/svg11.dtd">
<!-- Generated by graphviz version 12.2.1 (20241206.2353)
 -->
<!-- Title: G Pages: 1 -->
<svg width="720pt" height="58pt"
 viewBox="0.00 0.00 720.00 57.82" xmlns="http://www.w3.org/2000/svg" xmlns:xlink="http://www.w3.org/1999/xlink">
<g id="graph0" class="graph" transform="scale(0.755113 0.755113) rotate(0) translate(4 72.57)">
<title>G</title>
<!-- dot_dummyinit_0 -->
<g id="node1" class="node">
<title>dot_dummyinit_0</title>
</g>
<!-- N0 -->
<g id="node2" class="node">
<title>N0</title>
<path fill="none" stroke="black" d="M133,-53C133,-53 103,-53 103,-53 97,-53 91,-47 91,-41 91,-41 91,-29 91,-29 91,-23 97,-17 103,-17 103,-17 133,-17 133,-17 139,-17 145,-23 145,-29 145,-29 145,-41 145,-41 145,-47 139,-53 133,-53"/>
<text text-anchor="middle" x="118" y="-29.57" font-family="Arial" font-size="14.00">N0</text>
</g>
<!-- dot_dummyinit_0&#45;&gt;N0 -->
<g id="edge1" class="edge">
<title>dot_dummyinit_0&#45;&gt;N0</title>
<path fill="none" stroke="black" d="M53.74,-35C61.72,-35 70.68,-35 79.29,-35"/>
<polygon fill="black" stroke="black" points="79.18,-38.5 89.18,-35 79.18,-31.5 79.18,-38.5"/>
</g>
<!-- A1 -->
<g id="node3" class="node">
<title>A1</title>
<path fill="none" stroke="black" d="M236,-53C236,-53 200.5,-53 200.5,-53 194.5,-53 188.5,-47 188.5,-41 188.5,-41 188.5,-29 188.5,-29 188.5,-23 194.5,-17 200.5,-17 200.5,-17 236,-17 236,-17 242,-17 248,-23 248,-29 248,-29 248,-41 248,-41 248,-47 242,-53 236,-53"/>
<text text-anchor="start" x="200.5" y="-29.57" font-family="Arial" font-size="14.00">A1</text>
<polygon fill="lightblue" stroke="none" points="228,-25.12 228,-44.88 238,-44.88 238,-25.12 228,-25.12"/>
</g>
<!-- N0&#45;&gt;A1 -->
<g id="edge2" class="edge">
<title>N0&#45;&gt;A1</title>
<path fill="none" stroke="black" d="M145.33,-35C155.01,-35 166.22,-35 176.86,-35"/>
<polygon fill="black" stroke="black" points="176.57,-38.5 186.57,-35 176.57,-31.5 176.57,-38.5"/>
<text text-anchor="middle" x="166.75" y="-37.45" font-family="Arial" font-size="14.00">a</text>
</g>
<!-- A2_R -->
<g id="node4" class="node">
<title>A2_R</title>
<path fill="none" stroke="black" d="M368.25,-53C368.25,-53 303.5,-53 303.5,-53 297.5,-53 291.5,-47 291.5,-41 291.5,-41 291.5,-29 291.5,-29 291.5,-23 297.5,-17 303.5,-17 303.5,-17 368.25,-17 368.25,-17 374.25,-17 380.25,-23 380.25,-29 380.25,-29 380.25,-41 380.25,-41 380.25,-47 374.25,-53 368.25,-53"/>
<text text-anchor="start" x="303.5" y="-29.57" font-family="Arial" font-size="14.00">A2_R</text>
<polygon fill="lightblue" stroke="none" points="348.25,-25.12 348.25,-44.88 358.25,-44.88 358.25,-25.12 348.25,-25.12"/>
<polygon fill="darkblue" stroke="none" points="360.25,-25.12 360.25,-44.88 370.25,-44.88 370.25,-25.12 360.25,-25.12"/>
</g>
<!-- A1&#45;&gt;A2_R -->
<g id="edge3" class="edge">
<title>A1&#45;&gt;A2_R</title>
<path fill="none" stroke="black" d="M248.43,-35C258.06,-35 269.11,-35 280.02,-35"/>
<polygon fill="black" stroke="black" points="279.76,-38.5 289.76,-35 279.76,-31.5 279.76,-38.5"/>
<text text-anchor="middle" x="269.75" y="-37.45" font-family="Arial" font-size="14.00">a</text>
</g>
<!-- A2_R&#45;&gt;A1 -->
<g id="edge4" class="edge">
<title>A2_R&#45;&gt;A1</title>
<path fill="none" stroke="black" d="M293.98,-16.56C284.84,-14.33 275.14,-13.4 266,-15.25 263.71,-15.71 261.39,-16.3 259.07,-16.96"/>
<polygon fill="black" stroke="black" points="258.12,-13.59 249.79,-20.13 260.38,-20.21 258.12,-13.59"/>
<text text-anchor="middle" x="269.75" y="-17.7" font-family="Arial" font-size="14.00">a</text>
</g>
<!-- A3 -->
<g id="node5" class="node">
<title>A3</title>
<path fill="none" stroke="black" d="M471.25,-53C471.25,-53 435.75,-53 435.75,-53 429.75,-53 423.75,-47 423.75,-41 423.75,-41 423.75,-29 423.75,-29 423.75,-23 429.75,-17 435.75,-17 435.75,-17 471.25,-17 471.25,-17 477.25,-17 483.25,-23 483.25,-29 483.25,-29 483.25,-41 483.25,-41 483.25,-47 477.25,-53 471.25,-53"/>
<text text-anchor="start" x="435.75" y="-29.57" font-family="Arial" font-size="14.00">A3</text>
<polygon fill="lightblue" stroke="none" points="463.25,-25.12 463.25,-44.88 473.25,-44.88 473.25,-25.12 463.25,-25.12"/>
</g>
<!-- A2_R&#45;&gt;A3 -->
<g id="edge5" class="edge">
<title>A2_R&#45;&gt;A3</title>
<path fill="none" stroke="black" d="M380.59,-35C390.88,-35 401.82,-35 411.96,-35"/>
<polygon fill="black" stroke="black" points="411.92,-38.5 421.92,-35 411.92,-31.5 411.92,-38.5"/>
<text text-anchor="middle" x="402" y="-37.45" font-family="Arial" font-size="14.00">a</text>
</g>
<!-- AB4 -->
<g id="node6" class="node">
<title>AB4</title>
<path fill="none" stroke="black" d="M595.25,-53C595.25,-53 538.75,-53 538.75,-53 532.75,-53 526.75,-47 526.75,-41 526.75,-41 526.75,-29 526.75,-29 526.75,-23 532.75,-17 538.75,-17 538.75,-17 595.25,-17 595.25,-17 601.25,-17 607.25,-23 607.25,-29 607.25,-29 607.25,-41 607.25,-41 607.25,-47 601.25,-53 595.25,-53"/>
<text text-anchor="start" x="538.75" y="-29.57" font-family="Arial" font-size="14.00">AB4</text>
<polygon fill="lightblue" stroke="none" points="575.25,-25.12 575.25,-44.88 585.25,-44.88 585.25,-25.12 575.25,-25.12"/>
<polygon fill="#ffcc80" stroke="none" points="587.25,-25.12 587.25,-44.88 597.25,-44.88 597.25,-25.12 587.25,-25.12"/>
</g>
<!-- A3&#45;&gt;AB4 -->
<g id="edge6" class="edge">
<title>A3&#45;&gt;AB4</title>
<path fill="none" stroke="black" d="M483.5,-35C493.27,-35 504.48,-35 515.42,-35"/>
<polygon fill="black" stroke="black" points="515.13,-38.5 525.13,-35 515.13,-31.5 515.13,-38.5"/>
<text text-anchor="middle" x="505" y="-37.45" font-family="Arial" font-size="14.00">a</text>
</g>
<!-- B2_R -->
<g id="node7" class="node">
<title>B2_R</title>
<path fill="none" stroke="black" d="M727.5,-66C727.5,-66 662.75,-66 662.75,-66 656.75,-66 650.75,-60 650.75,-54 650.75,-54 650.75,-42 650.75,-42 650.75,-36 656.75,-30 662.75,-30 662.75,-30 727.5,-30 727.5,-30 733.5,-30 739.5,-36 739.5,-42 739.5,-42 739.5,-54 739.5,-54 739.5,-60 733.5,-66 727.5,-66"/>
<text text-anchor="start" x="662.75" y="-42.58" font-family="Arial" font-size="14.00">B2_R</text>
<polygon fill="#ffcc80" stroke="none" points="707.5,-38.12 707.5,-57.88 717.5,-57.88 717.5,-38.12 707.5,-38.12"/>
<polygon fill="#ff9900" stroke="none" points="719.5,-38.12 719.5,-57.88 729.5,-57.88 729.5,-38.12 719.5,-38.12"/>
</g>
<!-- AB4&#45;&gt;B2_R -->
<g id="edge7" class="edge">
<title>AB4&#45;&gt;B2_R</title>
<path fill="none" stroke="black" d="M607.71,-48.39C613.53,-49.88 619.5,-51.16 625.25,-52 629.66,-52.64 634.24,-53.01 638.85,-53.18"/>
<polygon fill="black" stroke="black" points="638.77,-56.68 648.77,-53.2 638.78,-49.68 638.77,-56.68"/>
<text text-anchor="middle" x="629" y="-55.27" font-family="Arial" font-size="14.00">a</text>
</g>
<!-- B2_R&#45;&gt;AB4 -->
<g id="edge8" class="edge">
<title>B2_R&#45;&gt;AB4</title>
<path fill="none" stroke="black" d="M650.46,-35.37C644.55,-34.08 638.53,-32.98 632.75,-32.25 628.17,-31.67 623.39,-31.35 618.59,-31.22"/>
<polygon fill="black" stroke="black" points="618.98,-27.72 608.98,-31.22 618.98,-34.72 618.98,-27.72"/>
<text text-anchor="middle" x="629" y="-34.7" font-family="Arial" font-size="14.00">a</text>
</g>
<!-- B3 -->
<g id="node8" class="node">
<title>B3</title>
<path fill="none" stroke="black" d="M830.5,-66C830.5,-66 795,-66 795,-66 789,-66 783,-60 783,-54 783,-54 783,-42 783,-42 783,-36 789,-30 795,-30 795,-30 830.5,-30 830.5,-30 836.5,-30 842.5,-36 842.5,-42 842.5,-42 842.5,-54 842.5,-54 842.5,-60 836.5,-66 830.5,-66"/>
<text text-anchor="start" x="795" y="-42.58" font-family="Arial" font-size="14.00">B3</text>
<polygon fill="#ffcc80" stroke="none" points="822.5,-38.12 822.5,-57.88 832.5,-57.88 832.5,-38.12 822.5,-38.12"/>
</g>
<!-- B2_R&#45;&gt;B3 -->
<g id="edge9" class="edge">
<title>B2_R&#45;&gt;B3</title>
<path fill="none" stroke="black" d="M739.84,-48C750.13,-48 761.07,-48 771.21,-48"/>
<polygon fill="black" stroke="black" points="771.17,-51.5 781.17,-48 771.17,-44.5 771.17,-51.5"/>
<text text-anchor="middle" x="761.25" y="-50.45" font-family="Arial" font-size="14.00">a</text>
</g>
<!-- B4 -->
<g id="node9" class="node">
<title>B4</title>
<path fill="none" stroke="black" d="M933.5,-36C933.5,-36 898,-36 898,-36 892,-36 886,-30 886,-24 886,-24 886,-12 886,-12 886,-6 892,0 898,0 898,0 933.5,0 933.5,0 939.5,0 945.5,-6 945.5,-12 945.5,-12 945.5,-24 945.5,-24 945.5,-30 939.5,-36 933.5,-36"/>
<text text-anchor="start" x="898" y="-12.57" font-family="Arial" font-size="14.00">B4</text>
<polygon fill="#ffcc80" stroke="none" points="925.5,-8.12 925.5,-27.88 935.5,-27.88 935.5,-8.12 925.5,-8.12"/>
</g>
<!-- B3&#45;&gt;B4 -->
<g id="edge10" class="edge">
<title>B3&#45;&gt;B4</title>
<path fill="none" stroke="black" d="M842.96,-39.32C852.91,-36.37 864.2,-33.01 874.84,-29.85"/>
<polygon fill="black" stroke="black" points="875.56,-33.29 884.15,-27.09 873.57,-26.58 875.56,-33.29"/>
<text text-anchor="middle" x="864.25" y="-36.35" font-family="Arial" font-size="14.00">a</text>
</g>
<!-- B4&#45;&gt;AB4 -->
<g id="edge11" class="edge">
<title>B4&#45;&gt;AB4</title>
<path fill="none" stroke="black" d="M885.77,-16.85C837.09,-15.26 735.89,-13.36 650.75,-21 640.31,-21.94 629.19,-23.45 618.62,-25.15"/>
<polygon fill="black" stroke="black" points="618.17,-21.68 608.89,-26.79 619.34,-28.58 618.17,-21.68"/>
<text text-anchor="middle" x="761.25" y="-18.18" font-family="Arial" font-size="14.00">a</text>
</g>
</g>
</svg>
