<?xml version="1.0" encoding="UTF-8" standalone="no"?>
<!DOCTYPE svg PUBLIC "-//W3C//DTD SVG 1.1//EN"
 "http://www.w3.org/Graphics/SVG/1.1/DTD/svg11.dtd">
<!-- Generated by graphviz version 12.2.1 (20241206.2353)
 -->
<!-- Title: wSpec1 Pages: 1 -->
<svg width="183pt" height="160pt"
 viewBox="0.00 0.00 182.96 160.50" xmlns="http://www.w3.org/2000/svg" xmlns:xlink="http://www.w3.org/1999/xlink">
<g id="graph0" class="graph" transform="scale(1 1) rotate(0) translate(4 156.5)">
<title>wSpec1</title>
<!-- dot_dummyinit_1 -->
<g id="node1" class="node">
<title>dot_dummyinit_1</title>
</g>
<!-- S1 -->
<g id="node2" class="node">
<title>S1</title>
<ellipse fill="none" stroke="black" cx="59.34" cy="-25.62" rx="21.62" ry="21.62"/>
<text text-anchor="middle" x="59.34" y="-20.2" font-family="Arial" font-size="14.00">S1</text>
</g>
<!-- dot_dummyinit_1&#45;&gt;S1 -->
<g id="edge1" class="edge">
<title>dot_dummyinit_1&#45;&gt;S1</title>
<path fill="none" stroke="black" d="M0.89,-25.62C2.38,-25.62 13.81,-25.62 26.09,-25.62"/>
<polygon fill="black" stroke="black" points="25.82,-29.12 35.82,-25.62 25.82,-22.12 25.82,-29.12"/>
</g>
<!-- S1&#45;&gt;S1 -->
<g id="edge2" class="edge">
<title>S1&#45;&gt;S1</title>
<path fill="none" stroke="black" d="M56.87,-47.22C56.64,-56.89 57.46,-65.25 59.34,-65.25 60.4,-65.25 61.12,-62.6 61.51,-58.57"/>
<polygon fill="black" stroke="black" points="65.01,-58.83 61.77,-48.74 58.01,-58.64 65.01,-58.83"/>
<text text-anchor="middle" x="59.34" y="-67.7" font-family="Arial" font-size="14.00">a</text>
</g>
<!-- S1&#45;&gt;S1 -->
<g id="edge3" class="edge">
<title>S1&#45;&gt;S1</title>
<path fill="none" stroke="black" d="M55.06,-47.2C53.29,-64.88 54.72,-83.25 59.34,-83.25 62.99,-83.25 64.65,-71.81 64.32,-58.3"/>
<polygon fill="black" stroke="black" points="67.83,-58.47 63.72,-48.71 60.85,-58.91 67.83,-58.47"/>
<text text-anchor="middle" x="59.34" y="-85.7" font-family="Arial" font-size="14.00">b</text>
</g>
<!-- S1&#45;&gt;S1 -->
<g id="edge5" class="edge">
<title>S1&#45;&gt;S1</title>
<path fill="none" stroke="black" d="M53.88,-46.91C49.88,-71.99 51.7,-101.25 59.34,-101.25 65.85,-101.25 68.14,-80.03 66.2,-58.25"/>
<polygon fill="black" stroke="black" points="69.69,-57.91 64.99,-48.42 62.74,-58.77 69.69,-57.91"/>
<text text-anchor="middle" x="59.34" y="-103.7" font-family="Arial" font-size="14.00">d</text>
</g>
<!-- S2 -->
<g id="node3" class="node">
<title>S2</title>
<ellipse fill="none" stroke="black" cx="149.34" cy="-25.62" rx="21.62" ry="21.62"/>
<ellipse fill="none" stroke="black" cx="149.34" cy="-25.62" rx="25.62" ry="25.62"/>
<text text-anchor="middle" x="149.34" y="-20.2" font-family="Arial" font-size="14.00">S2</text>
</g>
<!-- S1&#45;&gt;S2 -->
<g id="edge4" class="edge">
<title>S1&#45;&gt;S2</title>
<path fill="none" stroke="black" d="M81.2,-25.62C90.35,-25.62 101.38,-25.62 111.83,-25.62"/>
<polygon fill="black" stroke="black" points="111.73,-29.12 121.73,-25.62 111.73,-22.12 111.73,-29.12"/>
<text text-anchor="middle" x="102.34" y="-28.07" font-family="Arial" font-size="14.00">c</text>
</g>
<!-- S2&#45;&gt;S2 -->
<g id="edge6" class="edge">
<title>S2&#45;&gt;S2</title>
<path fill="none" stroke="black" d="M146.41,-51.16C146.28,-61.04 147.26,-69.25 149.34,-69.25 150.51,-69.25 151.33,-66.65 151.8,-62.62"/>
<polygon fill="black" stroke="black" points="155.3,-62.81 152.2,-52.68 148.3,-62.53 155.3,-62.81"/>
<text text-anchor="middle" x="149.34" y="-71.7" font-family="Arial" font-size="14.00">b</text>
</g>
<!-- S2&#45;&gt;S2 -->
<g id="edge7" class="edge">
<title>S2&#45;&gt;S2</title>
<path fill="none" stroke="black" d="M144.1,-50.94C142.39,-69.13 144.14,-87.25 149.34,-87.25 153.44,-87.25 155.4,-75.97 155.2,-62.27"/>
<polygon fill="black" stroke="black" points="158.7,-62.25 154.66,-52.45 151.72,-62.63 158.7,-62.25"/>
<text text-anchor="middle" x="149.34" y="-89.7" font-family="Arial" font-size="14.00">c</text>
</g>
<!-- S2&#45;&gt;S2 -->
<g id="edge8" class="edge">
<title>S2&#45;&gt;S2</title>
<path fill="none" stroke="black" d="M142.53,-50.49C138.39,-76.31 140.66,-105.25 149.34,-105.25 156.76,-105.25 159.49,-84.07 157.54,-61.78"/>
<polygon fill="black" stroke="black" points="161.03,-61.49 156.34,-51.99 154.08,-62.34 161.03,-61.49"/>
<text text-anchor="middle" x="149.34" y="-107.7" font-family="Arial" font-size="14.00">d</text>
</g>
</g>
</svg>
