<?xml version="1.0" encoding="UTF-8" standalone="no"?>
<!DOCTYPE svg PUBLIC "-//W3C//DTD SVG 1.1//EN"
 "http://www.w3.org/Graphics/SVG/1.1/DTD/svg11.dtd">
<!-- Generated by graphviz version 12.2.1 (20241206.2353)
 -->
<!-- Title: SupBuechiCon((A&#45;B&#45;Machine),(A&#45;B&#45;Spec&#45;Eventually&#45;B)) [minstate] Pages: 1 -->
<svg width="328pt" height="151pt"
 viewBox="0.00 0.00 328.22 150.78" xmlns="http://www.w3.org/2000/svg" xmlns:xlink="http://www.w3.org/1999/xlink">
<g id="graph0" class="graph" transform="scale(1 1) rotate(0) translate(4 146.78)">
<title>SupBuechiCon((A&#45;B&#45;Machine),(A&#45;B&#45;Spec&#45;Eventually&#45;B)) [minstate]</title>
<!-- dot_dummyinit_1 -->
<g id="node1" class="node">
<title>dot_dummyinit_1</title>
</g>
<!-- 2 -->
<g id="node2" class="node">
<title>2</title>
<ellipse fill="none" stroke="black" cx="55.72" cy="-61.78" rx="18" ry="18"/>
<text text-anchor="middle" x="55.72" y="-56.35" font-family="Arial" font-size="14.00">2</text>
</g>
<!-- dot_dummyinit_1&#45;&gt;2 -->
<g id="edge1" class="edge">
<title>dot_dummyinit_1&#45;&gt;2</title>
<path fill="none" stroke="black" d="M0.87,-61.78C2.34,-61.78 13.93,-61.78 25.99,-61.78"/>
<polygon fill="black" stroke="black" points="25.86,-65.28 35.86,-61.78 25.86,-58.28 25.86,-65.28"/>
</g>
<!-- 1 -->
<g id="node3" class="node">
<title>1</title>
<ellipse fill="none" stroke="black" cx="139.22" cy="-120.78" rx="18" ry="18"/>
<ellipse fill="none" stroke="black" cx="139.22" cy="-120.78" rx="22" ry="22"/>
<text text-anchor="middle" x="139.22" y="-115.35" font-family="Arial" font-size="14.00">1</text>
</g>
<!-- 2&#45;&gt;1 -->
<g id="edge5" class="edge">
<title>2&#45;&gt;1</title>
<path fill="none" stroke="black" d="M64.23,-77.89C70.17,-88.84 79.49,-102.74 91.72,-110.78 96.03,-113.61 101,-115.65 106.06,-117.13"/>
<polygon fill="black" stroke="black" points="105.04,-120.49 115.56,-119.2 106.54,-113.65 105.04,-120.49"/>
<text text-anchor="middle" x="95.47" y="-116.86" font-family="Arial" font-size="14.00">b</text>
</g>
<!-- 5 -->
<g id="node6" class="node">
<title>5</title>
<ellipse fill="none" stroke="black" cx="139.22" cy="-42.78" rx="18" ry="18"/>
<text text-anchor="middle" x="139.22" y="-37.35" font-family="Arial" font-size="14.00">5</text>
</g>
<!-- 2&#45;&gt;5 -->
<g id="edge4" class="edge">
<title>2&#45;&gt;5</title>
<path fill="none" stroke="black" d="M73.87,-62.38C81.69,-62.29 91.02,-61.69 99.22,-59.78 103.63,-58.75 108.16,-57.24 112.5,-55.54"/>
<polygon fill="black" stroke="black" points="113.57,-58.89 121.34,-51.68 110.78,-52.47 113.57,-58.89"/>
<text text-anchor="middle" x="95.47" y="-63.5" font-family="Arial" font-size="14.00">a</text>
</g>
<!-- 1&#45;&gt;2 -->
<g id="edge2" class="edge">
<title>1&#45;&gt;2</title>
<path fill="none" stroke="black" d="M120.79,-108.16C108.93,-99.57 93.11,-88.12 80.15,-78.74"/>
<polygon fill="black" stroke="black" points="82.29,-75.97 72.14,-72.94 78.19,-81.64 82.29,-75.97"/>
<text text-anchor="middle" x="95.47" y="-93.73" font-family="Arial" font-size="14.00">c</text>
</g>
<!-- 4 -->
<g id="node5" class="node">
<title>4</title>
<ellipse fill="none" stroke="black" cx="222.72" cy="-81.78" rx="18" ry="18"/>
<text text-anchor="middle" x="222.72" y="-76.35" font-family="Arial" font-size="14.00">4</text>
</g>
<!-- 1&#45;&gt;4 -->
<g id="edge3" class="edge">
<title>1&#45;&gt;4</title>
<path fill="none" stroke="black" d="M159.53,-111.53C170.42,-106.33 184.15,-99.75 195.95,-94.11"/>
<polygon fill="black" stroke="black" points="197.22,-97.38 204.73,-89.91 194.2,-91.07 197.22,-97.38"/>
<text text-anchor="middle" x="182.97" y="-103.73" font-family="Arial" font-size="14.00">d</text>
</g>
<!-- 3 -->
<g id="node4" class="node">
<title>3</title>
<ellipse fill="none" stroke="black" cx="302.22" cy="-42.78" rx="18" ry="18"/>
<text text-anchor="middle" x="302.22" y="-37.35" font-family="Arial" font-size="14.00">3</text>
</g>
<!-- 3&#45;&gt;2 -->
<g id="edge6" class="edge">
<title>3&#45;&gt;2</title>
<path fill="none" stroke="black" d="M285.74,-34.83C249.6,-17.47 157.67,19.76 91.72,-13.78 82.47,-18.48 75.08,-26.9 69.53,-35.39"/>
<polygon fill="black" stroke="black" points="66.6,-33.46 64.6,-43.86 72.65,-36.98 66.6,-33.46"/>
<text text-anchor="middle" x="182.97" y="-5.01" font-family="Arial" font-size="14.00">c</text>
</g>
<!-- 3&#45;&gt;4 -->
<g id="edge7" class="edge">
<title>3&#45;&gt;4</title>
<path fill="none" stroke="black" d="M283.99,-40.31C275.97,-39.9 266.52,-40.49 258.72,-44.03 251.78,-47.18 245.58,-52.42 240.39,-58.01"/>
<polygon fill="black" stroke="black" points="237.74,-55.72 234.08,-65.67 243.15,-60.18 237.74,-55.72"/>
<text text-anchor="middle" x="262.47" y="-46.48" font-family="Arial" font-size="14.00">d</text>
</g>
<!-- 4&#45;&gt;3 -->
<g id="edge8" class="edge">
<title>4&#45;&gt;3</title>
<path fill="none" stroke="black" d="M239.4,-73.88C249.7,-68.7 263.41,-61.8 275.3,-55.82"/>
<polygon fill="black" stroke="black" points="276.85,-58.96 284.21,-51.34 273.7,-52.71 276.85,-58.96"/>
<text text-anchor="middle" x="262.47" y="-65.9" font-family="Arial" font-size="14.00">b</text>
</g>
<!-- 5&#45;&gt;2 -->
<g id="edge9" class="edge">
<title>5&#45;&gt;2</title>
<path fill="none" stroke="black" d="M121.13,-39.08C112.21,-37.82 101.21,-37.32 91.72,-40.03 87.82,-41.14 83.93,-42.83 80.23,-44.78"/>
<polygon fill="black" stroke="black" points="78.5,-41.74 71.79,-49.94 82.15,-47.71 78.5,-41.74"/>
<text text-anchor="middle" x="95.47" y="-42.48" font-family="Arial" font-size="14.00">c</text>
</g>
<!-- 5&#45;&gt;2 -->
<g id="edge10" class="edge">
<title>5&#45;&gt;2</title>
<path fill="none" stroke="black" d="M126.08,-29.91C116.76,-21.65 103.52,-13.44 91.72,-19.03 83.61,-22.87 76.76,-29.6 71.33,-36.61"/>
<polygon fill="black" stroke="black" points="68.45,-34.61 65.67,-44.84 74.22,-38.58 68.45,-34.61"/>
<text text-anchor="middle" x="95.47" y="-21.48" font-family="Arial" font-size="14.00">d</text>
</g>
</g>
</svg>
