<?xml version="1.0" encoding="UTF-8" standalone="no"?>
<!DOCTYPE svg PUBLIC "-//W3C//DTD SVG 1.1//EN"
 "http://www.w3.org/Graphics/SVG/1.1/DTD/svg11.dtd">
<!-- Generated by graphviz version 2.43.0 (0)
 -->
<!-- Title: SupConCmpl(A&#45;B&#45;Machine, PrefixClosure(A&#45;B&#45;Spec&#45;Alternate.x.A&#45;B&#45;Machine)) [minstate] Pages: 1 -->
<svg width="418pt" height="143pt"
 viewBox="0.00 0.00 418.00 143.00" xmlns="http://www.w3.org/2000/svg" xmlns:xlink="http://www.w3.org/1999/xlink">
<g id="graph0" class="graph" transform="scale(1 1) rotate(0) translate(4 139)">
<title>SupConCmpl(A&#45;B&#45;Machine, PrefixClosure(A&#45;B&#45;Spec&#45;Alternate.x.A&#45;B&#45;Machine)) [minstate]</title>
<!-- dot_dummyinit_1 -->
<g id="node1" class="node">
<title>dot_dummyinit_1</title>
</g>
<!-- 1 -->
<g id="node2" class="node">
<title>1</title>
<ellipse fill="none" stroke="black" cx="60" cy="-22" rx="18" ry="18"/>
<ellipse fill="none" stroke="black" cx="60" cy="-22" rx="22" ry="22"/>
<text text-anchor="middle" x="60" y="-18.3" font-family="Arial" font-size="14.00">1</text>
</g>
<!-- dot_dummyinit_1&#45;&gt;1 -->
<g id="edge1" class="edge">
<title>dot_dummyinit_1&#45;&gt;1</title>
<path fill="none" stroke="black" d="M1.17,-22C2.72,-22 14.89,-22 27.67,-22"/>
<polygon fill="black" stroke="black" points="27.86,-25.5 37.86,-22 27.86,-18.5 27.86,-25.5"/>
</g>
<!-- 6 -->
<g id="node7" class="node">
<title>6</title>
<ellipse fill="none" stroke="black" cx="144" cy="-69" rx="18" ry="18"/>
<text text-anchor="middle" x="144" y="-65.3" font-family="Arial" font-size="14.00">6</text>
</g>
<!-- 1&#45;&gt;6 -->
<g id="edge2" class="edge">
<title>1&#45;&gt;6</title>
<path fill="none" stroke="black" d="M79.61,-32.67C91.28,-39.36 106.45,-48.05 119.02,-55.25"/>
<polygon fill="black" stroke="black" points="117.61,-58.48 128.02,-60.42 121.09,-52.41 117.61,-58.48"/>
<text text-anchor="middle" x="104" y="-51.8" font-family="Arial" font-size="14.00">a</text>
</g>
<!-- 3 -->
<g id="node3" class="node">
<title>3</title>
<ellipse fill="none" stroke="black" cx="228" cy="-56" rx="18" ry="18"/>
<ellipse fill="none" stroke="black" cx="228" cy="-56" rx="22" ry="22"/>
<text text-anchor="middle" x="228" y="-52.3" font-family="Arial" font-size="14.00">3</text>
</g>
<!-- 2 -->
<g id="node4" class="node">
<title>2</title>
<ellipse fill="none" stroke="black" cx="312" cy="-22" rx="18" ry="18"/>
<text text-anchor="middle" x="312" y="-18.3" font-family="Arial" font-size="14.00">2</text>
</g>
<!-- 3&#45;&gt;2 -->
<g id="edge5" class="edge">
<title>3&#45;&gt;2</title>
<path fill="none" stroke="black" d="M248.85,-47.77C259.96,-43.16 273.92,-37.37 285.8,-32.45"/>
<polygon fill="black" stroke="black" points="287.27,-35.63 295.17,-28.56 284.59,-29.16 287.27,-35.63"/>
<text text-anchor="middle" x="272" y="-42.8" font-family="Arial" font-size="14.00">b</text>
</g>
<!-- 2&#45;&gt;1 -->
<g id="edge3" class="edge">
<title>2&#45;&gt;1</title>
<path fill="none" stroke="black" d="M293.8,-22C252.26,-22 145.92,-22 92.55,-22"/>
<polygon fill="black" stroke="black" points="92.31,-18.5 82.31,-22 92.31,-25.5 92.31,-18.5"/>
<text text-anchor="middle" x="184" y="-25.8" font-family="Arial" font-size="14.00">c</text>
</g>
<!-- 5 -->
<g id="node6" class="node">
<title>5</title>
<ellipse fill="none" stroke="black" cx="392" cy="-22" rx="18" ry="18"/>
<text text-anchor="middle" x="392" y="-18.3" font-family="Arial" font-size="14.00">5</text>
</g>
<!-- 2&#45;&gt;5 -->
<g id="edge4" class="edge">
<title>2&#45;&gt;5</title>
<path fill="none" stroke="black" d="M330.31,-22C340.11,-22 352.58,-22 363.67,-22"/>
<polygon fill="black" stroke="black" points="363.74,-25.5 373.74,-22 363.74,-18.5 363.74,-25.5"/>
<text text-anchor="middle" x="352" y="-25.8" font-family="Arial" font-size="14.00">d</text>
</g>
<!-- 4 -->
<g id="node5" class="node">
<title>4</title>
<ellipse fill="none" stroke="black" cx="228" cy="-117" rx="18" ry="18"/>
<text text-anchor="middle" x="228" y="-113.3" font-family="Arial" font-size="14.00">4</text>
</g>
<!-- 4&#45;&gt;6 -->
<g id="edge6" class="edge">
<title>4&#45;&gt;6</title>
<path fill="none" stroke="black" d="M213.89,-105.54C206.6,-99.52 197.16,-92.32 188,-87 182.62,-83.88 176.59,-81.01 170.79,-78.52"/>
<polygon fill="black" stroke="black" points="171.98,-75.22 161.4,-74.71 169.36,-81.71 171.98,-75.22"/>
<text text-anchor="middle" x="184" y="-90.8" font-family="Arial" font-size="14.00">a</text>
</g>
<!-- 5&#45;&gt;2 -->
<g id="edge7" class="edge">
<title>5&#45;&gt;2</title>
<path fill="none" stroke="black" d="M377.48,-10.82C369.21,-5.33 358.28,-0.39 348,-3 344.04,-4.01 340.05,-5.56 336.24,-7.35"/>
<polygon fill="black" stroke="black" points="334.48,-4.33 327.31,-12.13 337.78,-10.5 334.48,-4.33"/>
<text text-anchor="middle" x="352" y="-6.8" font-family="Arial" font-size="14.00">b</text>
</g>
<!-- 6&#45;&gt;3 -->
<g id="edge8" class="edge">
<title>6&#45;&gt;3</title>
<path fill="none" stroke="black" d="M158.91,-58.83C165.05,-54.95 172.56,-50.98 180,-49 185.25,-47.61 190.9,-47.39 196.41,-47.84"/>
<polygon fill="black" stroke="black" points="196.26,-51.36 206.67,-49.39 197.31,-44.44 196.26,-51.36"/>
<text text-anchor="middle" x="184" y="-52.8" font-family="Arial" font-size="14.00">c</text>
</g>
<!-- 6&#45;&gt;4 -->
<g id="edge9" class="edge">
<title>6&#45;&gt;4</title>
<path fill="none" stroke="black" d="M156.51,-82.41C162.86,-89.09 171.22,-96.83 180,-102 186.25,-105.68 193.5,-108.57 200.42,-110.78"/>
<polygon fill="black" stroke="black" points="199.57,-114.18 210.14,-113.56 201.49,-107.45 199.57,-114.18"/>
<text text-anchor="middle" x="184" y="-108.8" font-family="Arial" font-size="14.00">d</text>
</g>
</g>
</svg>
