<?xml version="1.0" encoding="UTF-8" standalone="no"?>
<!DOCTYPE svg PUBLIC "-//W3C//DTD SVG 1.1//EN"
 "http://www.w3.org/Graphics/SVG/1.1/DTD/svg11.dtd">
<!-- Generated by graphviz version 2.43.0 (0)
 -->
<!-- Title: g Pages: 1 -->
<svg width="338pt" height="194pt"
 viewBox="0.00 0.00 338.00 194.00" xmlns="http://www.w3.org/2000/svg" xmlns:xlink="http://www.w3.org/1999/xlink">
<g id="graph0" class="graph" transform="scale(1 1) rotate(0) translate(4 190)">
<title>g</title>
<!-- dot_dummyinit_1 -->
<g id="node1" class="node">
<title>dot_dummyinit_1</title>
</g>
<!-- 1 -->
<g id="node2" class="node">
<title>1</title>
<ellipse fill="none" stroke="black" cx="60" cy="-22" rx="18" ry="18"/>
<ellipse fill="none" stroke="black" cx="60" cy="-22" rx="22" ry="22"/>
<text text-anchor="middle" x="60" y="-18.3" font-family="Arial" font-size="14.00">1</text>
</g>
<!-- dot_dummyinit_1&#45;&gt;1 -->
<g id="edge1" class="edge">
<title>dot_dummyinit_1&#45;&gt;1</title>
<path fill="none" stroke="black" d="M1.17,-22C2.72,-22 14.89,-22 27.67,-22"/>
<polygon fill="black" stroke="black" points="27.86,-25.5 37.86,-22 27.86,-18.5 27.86,-25.5"/>
</g>
<!-- 2 -->
<g id="node4" class="node">
<title>2</title>
<ellipse fill="none" stroke="black" cx="144" cy="-91" rx="18" ry="18"/>
<text text-anchor="middle" x="144" y="-87.3" font-family="Arial" font-size="14.00">2</text>
</g>
<!-- 1&#45;&gt;2 -->
<g id="edge2" class="edge">
<title>1&#45;&gt;2</title>
<path fill="none" stroke="black" d="M77.59,-35.96C90.31,-46.66 107.94,-61.5 121.69,-73.07"/>
<polygon fill="black" stroke="black" points="119.77,-76.03 129.68,-79.79 124.28,-70.67 119.77,-76.03"/>
<text text-anchor="middle" x="104" y="-63.8" font-family="Arial" font-size="14.00">a</text>
</g>
<!-- 5 -->
<g id="node3" class="node">
<title>5</title>
<ellipse fill="none" stroke="black" cx="308" cy="-115" rx="18" ry="18"/>
<ellipse fill="none" stroke="black" cx="308" cy="-115" rx="22" ry="22"/>
<text text-anchor="middle" x="308" y="-111.3" font-family="Arial" font-size="14.00">5</text>
</g>
<!-- 3 -->
<g id="node5" class="node">
<title>3</title>
<ellipse fill="none" stroke="black" cx="224" cy="-168" rx="18" ry="18"/>
<text text-anchor="middle" x="224" y="-164.3" font-family="Arial" font-size="14.00">3</text>
</g>
<!-- 2&#45;&gt;3 -->
<g id="edge3" class="edge">
<title>2&#45;&gt;3</title>
<path fill="none" stroke="black" d="M157.19,-103.78C163.87,-110.71 172.32,-119.39 180,-127 187.32,-134.25 195.47,-142.08 202.7,-148.94"/>
<polygon fill="black" stroke="black" points="200.41,-151.6 210.08,-155.93 205.22,-146.51 200.41,-151.6"/>
<text text-anchor="middle" x="184" y="-136.8" font-family="Arial" font-size="14.00">b</text>
</g>
<!-- 4 -->
<g id="node6" class="node">
<title>4</title>
<ellipse fill="none" stroke="black" cx="224" cy="-114" rx="18" ry="18"/>
<text text-anchor="middle" x="224" y="-110.3" font-family="Arial" font-size="14.00">4</text>
</g>
<!-- 2&#45;&gt;4 -->
<g id="edge4" class="edge">
<title>2&#45;&gt;4</title>
<path fill="none" stroke="black" d="M160.33,-99.09C166.33,-101.96 173.35,-104.98 180,-107 185.12,-108.55 190.68,-109.78 196.07,-110.75"/>
<polygon fill="black" stroke="black" points="195.6,-114.22 206.02,-112.3 196.67,-107.3 195.6,-114.22"/>
<text text-anchor="middle" x="184" y="-111.8" font-family="Arial" font-size="14.00">c</text>
</g>
<!-- 6 -->
<g id="node7" class="node">
<title>6</title>
<ellipse fill="none" stroke="black" cx="224" cy="-53" rx="18" ry="18"/>
<text text-anchor="middle" x="224" y="-49.3" font-family="Arial" font-size="14.00">6</text>
</g>
<!-- 2&#45;&gt;6 -->
<g id="edge5" class="edge">
<title>2&#45;&gt;6</title>
<path fill="none" stroke="black" d="M158.74,-80.22C164.97,-75.7 172.6,-70.65 180,-67 185.19,-64.44 190.96,-62.19 196.55,-60.29"/>
<polygon fill="black" stroke="black" points="197.74,-63.59 206.23,-57.25 195.64,-56.91 197.74,-63.59"/>
<text text-anchor="middle" x="184" y="-70.8" font-family="Arial" font-size="14.00">d</text>
</g>
<!-- 4&#45;&gt;5 -->
<g id="edge6" class="edge">
<title>4&#45;&gt;5</title>
<path fill="none" stroke="black" d="M242.39,-114.21C252.11,-114.33 264.51,-114.48 275.85,-114.62"/>
<polygon fill="black" stroke="black" points="275.81,-118.12 285.85,-114.74 275.89,-111.12 275.81,-118.12"/>
<text text-anchor="middle" x="264" y="-117.8" font-family="Arial" font-size="14.00">a</text>
</g>
<!-- 4&#45;&gt;2 -->
<g id="edge7" class="edge">
<title>4&#45;&gt;2</title>
<path fill="none" stroke="black" d="M210.53,-101.65C204.3,-96.35 196.34,-90.76 188,-88 182.89,-86.31 177.26,-85.81 171.8,-85.96"/>
<polygon fill="black" stroke="black" points="171.33,-82.48 161.71,-86.91 171.99,-89.45 171.33,-82.48"/>
<text text-anchor="middle" x="184" y="-91.8" font-family="Arial" font-size="14.00">b</text>
</g>
<!-- 7 -->
<g id="node8" class="node">
<title>7</title>
<ellipse fill="none" stroke="black" cx="308" cy="-39" rx="18" ry="18"/>
<text text-anchor="middle" x="308" y="-35.3" font-family="Arial" font-size="14.00">7</text>
</g>
<!-- 6&#45;&gt;7 -->
<g id="edge8" class="edge">
<title>6&#45;&gt;7</title>
<path fill="none" stroke="black" d="M241.88,-55.64C249.87,-56.42 259.49,-56.68 268,-55 272.65,-54.08 277.44,-52.61 282.01,-50.91"/>
<polygon fill="black" stroke="black" points="283.59,-54.04 291.5,-46.99 280.92,-47.58 283.59,-54.04"/>
<text text-anchor="middle" x="264" y="-58.8" font-family="Arial" font-size="14.00">a</text>
</g>
<!-- 7&#45;&gt;1 -->
<g id="edge10" class="edge">
<title>7&#45;&gt;1</title>
<path fill="none" stroke="black" d="M290.3,-34.78C277.24,-31.7 258.59,-27.77 242,-26 189.88,-20.45 128.87,-20.43 92.66,-21.1"/>
<polygon fill="black" stroke="black" points="92.17,-17.61 82.25,-21.32 92.32,-24.6 92.17,-17.61"/>
<text text-anchor="middle" x="184" y="-26.8" font-family="Arial" font-size="14.00">c</text>
</g>
<!-- 7&#45;&gt;6 -->
<g id="edge9" class="edge">
<title>7&#45;&gt;6</title>
<path fill="none" stroke="black" d="M290.28,-35.62C281.22,-34.36 269.88,-33.73 260,-36 256.29,-36.85 252.52,-38.15 248.9,-39.66"/>
<polygon fill="black" stroke="black" points="247.32,-36.54 239.78,-43.98 250.32,-42.86 247.32,-36.54"/>
<text text-anchor="middle" x="264" y="-39.8" font-family="Arial" font-size="14.00">b</text>
</g>
</g>
</svg>
