<?xml version="1.0" encoding="UTF-8" standalone="no"?>
<!DOCTYPE svg PUBLIC "-//W3C//DTD SVG 1.1//EN"
 "http://www.w3.org/Graphics/SVG/1.1/DTD/svg11.dtd">
<!-- Generated by graphviz version 2.43.0 (0)
 -->
<!-- Title: SupConCmpl(A&#45;B&#45;Machine&#45;B&#45;Breaks, PrefixClosure(A&#45;B&#45;Spec&#45;Keep&#45;Running.x.A&#45;B&#45;Machine&#45;B&#45;Breaks)) [minstate] Pages: 1 -->
<svg width="250pt" height="52pt"
 viewBox="0.00 0.00 250.00 52.00" xmlns="http://www.w3.org/2000/svg" xmlns:xlink="http://www.w3.org/1999/xlink">
<g id="graph0" class="graph" transform="scale(1 1) rotate(0) translate(4 48)">
<title>SupConCmpl(A&#45;B&#45;Machine&#45;B&#45;Breaks, PrefixClosure(A&#45;B&#45;Spec&#45;Keep&#45;Running.x.A&#45;B&#45;Machine&#45;B&#45;Breaks)) [minstate]</title>
<!-- dot_dummyinit_1 -->
<g id="node1" class="node">
<title>dot_dummyinit_1</title>
</g>
<!-- 1 -->
<g id="node2" class="node">
<title>1</title>
<ellipse fill="none" stroke="black" cx="60" cy="-22" rx="18" ry="18"/>
<ellipse fill="none" stroke="black" cx="60" cy="-22" rx="22" ry="22"/>
<text text-anchor="middle" x="60" y="-18.3" font-family="Arial" font-size="14.00">1</text>
</g>
<!-- dot_dummyinit_1&#45;&gt;1 -->
<g id="edge1" class="edge">
<title>dot_dummyinit_1&#45;&gt;1</title>
<path fill="none" stroke="black" d="M1.17,-22C2.72,-22 14.89,-22 27.67,-22"/>
<polygon fill="black" stroke="black" points="27.86,-25.5 37.86,-22 27.86,-18.5 27.86,-25.5"/>
</g>
<!-- 3 -->
<g id="node4" class="node">
<title>3</title>
<ellipse fill="none" stroke="black" cx="144" cy="-22" rx="18" ry="18"/>
<text text-anchor="middle" x="144" y="-18.3" font-family="Arial" font-size="14.00">3</text>
</g>
<!-- 1&#45;&gt;3 -->
<g id="edge2" class="edge">
<title>1&#45;&gt;3</title>
<path fill="none" stroke="black" d="M82.12,-22C92.3,-22 104.63,-22 115.53,-22"/>
<polygon fill="black" stroke="black" points="115.82,-25.5 125.82,-22 115.82,-18.5 115.82,-25.5"/>
<text text-anchor="middle" x="104" y="-25.8" font-family="Arial" font-size="14.00">a</text>
</g>
<!-- 2 -->
<g id="node3" class="node">
<title>2</title>
<ellipse fill="none" stroke="black" cx="224" cy="-22" rx="18" ry="18"/>
<text text-anchor="middle" x="224" y="-18.3" font-family="Arial" font-size="14.00">2</text>
</g>
<!-- 2&#45;&gt;3 -->
<g id="edge3" class="edge">
<title>2&#45;&gt;3</title>
<path fill="none" stroke="black" d="M208.28,-12.46C202.25,-9.08 195.04,-5.7 188,-4 181.13,-2.34 173.94,-3.9 167.45,-6.69"/>
<polygon fill="black" stroke="black" points="165.75,-3.63 158.56,-11.41 169.04,-9.81 165.75,-3.63"/>
<text text-anchor="middle" x="184" y="-7.8" font-family="Arial" font-size="14.00">a</text>
</g>
<!-- 3&#45;&gt;1 -->
<g id="edge4" class="edge">
<title>3&#45;&gt;1</title>
<path fill="none" stroke="black" d="M128.69,-12.13C122.6,-8.51 115.24,-4.84 108,-3 101.24,-1.28 94.16,-2.45 87.6,-4.88"/>
<polygon fill="black" stroke="black" points="86.04,-1.75 78.47,-9.16 89.01,-8.09 86.04,-1.75"/>
<text text-anchor="middle" x="104" y="-6.8" font-family="Arial" font-size="14.00">c</text>
</g>
<!-- 3&#45;&gt;2 -->
<g id="edge5" class="edge">
<title>3&#45;&gt;2</title>
<path fill="none" stroke="black" d="M162.31,-22C172.11,-22 184.58,-22 195.67,-22"/>
<polygon fill="black" stroke="black" points="195.74,-25.5 205.74,-22 195.74,-18.5 195.74,-25.5"/>
<text text-anchor="middle" x="184" y="-25.8" font-family="Arial" font-size="14.00">d</text>
</g>
</g>
</svg>
