<?xml version="1.0" encoding="UTF-8" standalone="no"?>
<!DOCTYPE svg PUBLIC "-//W3C//DTD SVG 1.1//EN"
 "http://www.w3.org/Graphics/SVG/1.1/DTD/svg11.dtd">
<!-- Generated by graphviz version 2.43.0 (0)
 -->
<!-- Title: eventually always alternating a and b Pages: 1 -->
<svg width="258pt" height="81pt"
 viewBox="0.00 0.00 258.00 81.00" xmlns="http://www.w3.org/2000/svg" xmlns:xlink="http://www.w3.org/1999/xlink">
<g id="graph0" class="graph" transform="scale(1 1) rotate(0) translate(4 77)">
<title>eventually always alternating a and b</title>
<!-- dot_dummyinit_1 -->
<g id="node1" class="node">
<title>dot_dummyinit_1</title>
</g>
<!-- 1 -->
<g id="node2" class="node">
<title>1</title>
<ellipse fill="none" stroke="black" cx="56" cy="-22" rx="18" ry="18"/>
<text text-anchor="middle" x="56" y="-18.3" font-family="Arial" font-size="14.00">1</text>
</g>
<!-- dot_dummyinit_1&#45;&gt;1 -->
<g id="edge1" class="edge">
<title>dot_dummyinit_1&#45;&gt;1</title>
<path fill="none" stroke="black" d="M1.15,-22C2.67,-22 15.1,-22 27.63,-22"/>
<polygon fill="black" stroke="black" points="27.94,-25.5 37.94,-22 27.94,-18.5 27.94,-25.5"/>
</g>
<!-- 1&#45;&gt;1 -->
<g id="edge2" class="edge">
<title>1&#45;&gt;1</title>
<path fill="none" stroke="black" d="M49.62,-39.04C48.32,-48.86 50.45,-58 56,-58 59.47,-58 61.6,-54.43 62.4,-49.35"/>
<polygon fill="black" stroke="black" points="65.9,-49.03 62.38,-39.04 58.9,-49.04 65.9,-49.03"/>
<text text-anchor="middle" x="56" y="-61.8" font-family="Arial" font-size="14.00">a, b</text>
</g>
<!-- 2 -->
<g id="node3" class="node">
<title>2</title>
<ellipse fill="none" stroke="black" cx="140" cy="-22" rx="18" ry="18"/>
<ellipse fill="none" stroke="black" cx="140" cy="-22" rx="22" ry="22"/>
<text text-anchor="middle" x="140" y="-18.3" font-family="Arial" font-size="14.00">2</text>
</g>
<!-- 1&#45;&gt;2 -->
<g id="edge3" class="edge">
<title>1&#45;&gt;2</title>
<path fill="none" stroke="black" d="M74.39,-22C84.11,-22 96.51,-22 107.85,-22"/>
<polygon fill="black" stroke="black" points="107.85,-25.5 117.85,-22 107.85,-18.5 107.85,-25.5"/>
<text text-anchor="middle" x="96" y="-25.8" font-family="Arial" font-size="14.00">a</text>
</g>
<!-- 3 -->
<g id="node4" class="node">
<title>3</title>
<ellipse fill="none" stroke="black" cx="228" cy="-22" rx="18" ry="18"/>
<ellipse fill="none" stroke="black" cx="228" cy="-22" rx="22" ry="22"/>
<text text-anchor="middle" x="228" y="-18.3" font-family="Arial" font-size="14.00">3</text>
</g>
<!-- 2&#45;&gt;3 -->
<g id="edge4" class="edge">
<title>2&#45;&gt;3</title>
<path fill="none" stroke="black" d="M162.26,-22C172.36,-22 184.63,-22 195.77,-22"/>
<polygon fill="black" stroke="black" points="195.99,-25.5 205.99,-22 195.99,-18.5 195.99,-25.5"/>
<text text-anchor="middle" x="184" y="-25.8" font-family="Arial" font-size="14.00">b</text>
</g>
<!-- 3&#45;&gt;2 -->
<g id="edge5" class="edge">
<title>3&#45;&gt;2</title>
<path fill="none" stroke="black" d="M208.6,-10.92C202.29,-7.7 195.05,-4.62 188,-3 181.2,-1.43 174.11,-2.66 167.55,-5.1"/>
<polygon fill="black" stroke="black" points="166.01,-1.95 158.43,-9.35 168.97,-8.3 166.01,-1.95"/>
<text text-anchor="middle" x="184" y="-6.8" font-family="Arial" font-size="14.00">a</text>
</g>
</g>
</svg>
