<?xml version="1.0" encoding="UTF-8" standalone="no"?>
<!DOCTYPE svg PUBLIC "-//W3C//DTD SVG 1.1//EN"
 "http://www.w3.org/Graphics/SVG/1.1/DTD/svg11.dtd">
<!-- Generated by graphviz version 2.43.0 (0)
 -->
<!-- Title: BuechiClosure(g) Pages: 1 -->
<svg width="394pt" height="137pt"
 viewBox="0.00 0.00 394.00 137.00" xmlns="http://www.w3.org/2000/svg" xmlns:xlink="http://www.w3.org/1999/xlink">
<g id="graph0" class="graph" transform="scale(1 1) rotate(0) translate(4 133)">
<title>BuechiClosure(g)</title>
<!-- dot_dummyinit_1 -->
<g id="node1" class="node">
<title>dot_dummyinit_1</title>
</g>
<!-- 1 -->
<g id="node2" class="node">
<title>1</title>
<path fill="none" stroke="black" d="M80,-36C80,-36 50,-36 50,-36 44,-36 38,-30 38,-24 38,-24 38,-12 38,-12 38,-6 44,0 50,0 50,0 80,0 80,0 86,0 92,-6 92,-12 92,-12 92,-24 92,-24 92,-30 86,-36 80,-36"/>
<text text-anchor="start" x="53" y="-13.8" font-family="Arial" font-size="14.00">1</text>
<polygon fill="black" stroke="transparent" points="71,-8 71,-27 79,-27 79,-8 71,-8"/>
</g>
<!-- dot_dummyinit_1&#45;&gt;1 -->
<g id="edge1" class="edge">
<title>dot_dummyinit_1&#45;&gt;1</title>
<path fill="none" stroke="black" d="M1.05,-18C1.88,-18 14.11,-18 27.57,-18"/>
<polygon fill="black" stroke="black" points="27.94,-21.5 37.94,-18 27.94,-14.5 27.94,-21.5"/>
</g>
<!-- 2 -->
<g id="node3" class="node">
<title>2</title>
<path fill="none" stroke="black" d="M178,-81C178,-81 148,-81 148,-81 142,-81 136,-75 136,-69 136,-69 136,-57 136,-57 136,-51 142,-45 148,-45 148,-45 178,-45 178,-45 184,-45 190,-51 190,-57 190,-57 190,-69 190,-69 190,-75 184,-81 178,-81"/>
<text text-anchor="start" x="151" y="-58.8" font-family="Arial" font-size="14.00">2</text>
<polygon fill="black" stroke="transparent" points="169,-53 169,-72 177,-72 177,-53 169,-53"/>
</g>
<!-- 1&#45;&gt;2 -->
<g id="edge2" class="edge">
<title>1&#45;&gt;2</title>
<path fill="none" stroke="black" d="M92.23,-30.3C102.82,-35.26 115.19,-41.06 126.55,-46.38"/>
<polygon fill="black" stroke="black" points="125.26,-49.64 135.8,-50.72 128.23,-43.3 125.26,-49.64"/>
<text text-anchor="middle" x="114" y="-44.8" font-family="Arial" font-size="14.00">a</text>
</g>
<!-- 4 -->
<g id="node4" class="node">
<title>4</title>
<path fill="none" stroke="black" d="M276,-129C276,-129 246,-129 246,-129 240,-129 234,-123 234,-117 234,-117 234,-105 234,-105 234,-99 240,-93 246,-93 246,-93 276,-93 276,-93 282,-93 288,-99 288,-105 288,-105 288,-117 288,-117 288,-123 282,-129 276,-129"/>
<text text-anchor="start" x="249" y="-106.8" font-family="Arial" font-size="14.00">4</text>
<polygon fill="black" stroke="transparent" points="267,-101 267,-120 275,-120 275,-101 267,-101"/>
</g>
<!-- 2&#45;&gt;4 -->
<g id="edge3" class="edge">
<title>2&#45;&gt;4</title>
<path fill="none" stroke="black" d="M183.35,-81.34C190.62,-87.39 199.25,-93.68 208,-98 213.01,-100.47 218.52,-102.5 224.04,-104.15"/>
<polygon fill="black" stroke="black" points="223.28,-107.57 233.84,-106.75 225.07,-100.81 223.28,-107.57"/>
<text text-anchor="middle" x="212" y="-103.8" font-family="Arial" font-size="14.00">c</text>
</g>
<!-- 6 -->
<g id="node5" class="node">
<title>6</title>
<path fill="none" stroke="black" d="M276,-66C276,-66 246,-66 246,-66 240,-66 234,-60 234,-54 234,-54 234,-42 234,-42 234,-36 240,-30 246,-30 246,-30 276,-30 276,-30 282,-30 288,-36 288,-42 288,-42 288,-54 288,-54 288,-60 282,-66 276,-66"/>
<text text-anchor="start" x="249" y="-43.8" font-family="Arial" font-size="14.00">6</text>
<polygon fill="black" stroke="transparent" points="267,-38 267,-57 275,-57 275,-38 267,-38"/>
</g>
<!-- 2&#45;&gt;6 -->
<g id="edge4" class="edge">
<title>2&#45;&gt;6</title>
<path fill="none" stroke="black" d="M190.01,-50.43C195.8,-48.18 202.01,-46.18 208,-45 213.08,-44 218.49,-43.6 223.83,-43.58"/>
<polygon fill="black" stroke="black" points="223.78,-47.08 233.9,-43.95 224.04,-40.08 223.78,-47.08"/>
<text text-anchor="middle" x="212" y="-48.8" font-family="Arial" font-size="14.00">d</text>
</g>
<!-- 4&#45;&gt;2 -->
<g id="edge5" class="edge">
<title>4&#45;&gt;2</title>
<path fill="none" stroke="black" d="M238.08,-92.88C231.3,-87.89 223.6,-82.8 216,-79 210.93,-76.47 205.38,-74.24 199.86,-72.32"/>
<polygon fill="black" stroke="black" points="200.63,-68.89 190.04,-69.19 198.5,-75.56 200.63,-68.89"/>
<text text-anchor="middle" x="212" y="-82.8" font-family="Arial" font-size="14.00">b</text>
</g>
<!-- 7 -->
<g id="node6" class="node">
<title>7</title>
<path fill="none" stroke="black" d="M374,-53C374,-53 344,-53 344,-53 338,-53 332,-47 332,-41 332,-41 332,-29 332,-29 332,-23 338,-17 344,-17 344,-17 374,-17 374,-17 380,-17 386,-23 386,-29 386,-29 386,-41 386,-41 386,-47 380,-53 374,-53"/>
<text text-anchor="start" x="347" y="-30.8" font-family="Arial" font-size="14.00">7</text>
<polygon fill="black" stroke="transparent" points="365,-25 365,-44 373,-44 373,-25 365,-25"/>
</g>
<!-- 6&#45;&gt;7 -->
<g id="edge6" class="edge">
<title>6&#45;&gt;7</title>
<path fill="none" stroke="black" d="M288.06,-51.86C296.39,-52.46 305.63,-52.47 314,-51 316.68,-50.53 319.42,-49.9 322.15,-49.18"/>
<polygon fill="black" stroke="black" points="323.36,-52.47 331.89,-46.18 321.3,-45.78 323.36,-52.47"/>
<text text-anchor="middle" x="310" y="-54.8" font-family="Arial" font-size="14.00">a</text>
</g>
<!-- 7&#45;&gt;1 -->
<g id="edge7" class="edge">
<title>7&#45;&gt;1</title>
<path fill="none" stroke="black" d="M331.92,-28.6C318.82,-25.69 302.67,-22.55 288,-21 222.84,-14.1 146.34,-15.04 102.28,-16.45"/>
<polygon fill="black" stroke="black" points="101.94,-12.96 92.07,-16.81 102.18,-19.96 101.94,-12.96"/>
<text text-anchor="middle" x="212" y="-20.8" font-family="Arial" font-size="14.00">c</text>
</g>
<!-- 7&#45;&gt;6 -->
<g id="edge8" class="edge">
<title>7&#45;&gt;6</title>
<path fill="none" stroke="black" d="M331.94,-31.14C323.61,-30.54 314.37,-30.53 306,-32 303.32,-32.47 300.58,-33.1 297.85,-33.82"/>
<polygon fill="black" stroke="black" points="296.64,-30.53 288.11,-36.82 298.7,-37.22 296.64,-30.53"/>
<text text-anchor="middle" x="310" y="-35.8" font-family="Arial" font-size="14.00">b</text>
</g>
</g>
</svg>
