<?xml version="1.0" encoding="UTF-8" standalone="no"?>
<!DOCTYPE svg PUBLIC "-//W3C//DTD SVG 1.1//EN"
 "http://www.w3.org/Graphics/SVG/1.1/DTD/svg11.dtd">
<!-- Generated by graphviz version 2.43.0 (0)
 -->
<!-- Title: SupBuechiCon((A&#45;B&#45;Machine&#45;B&#45;Exhausts),(A&#45;B&#45;Spec&#45;Eventually&#45;B)) [minstate] Pages: 1 -->
<svg width="418pt" height="160pt"
 viewBox="0.00 0.00 418.00 160.47" xmlns="http://www.w3.org/2000/svg" xmlns:xlink="http://www.w3.org/1999/xlink">
<g id="graph0" class="graph" transform="scale(1 1) rotate(0) translate(4 156.47)">
<title>SupBuechiCon((A&#45;B&#45;Machine&#45;B&#45;Exhausts),(A&#45;B&#45;Spec&#45;Eventually&#45;B)) [minstate]</title>
<!-- dot_dummyinit_1 -->
<g id="node1" class="node">
<title>dot_dummyinit_1</title>
</g>
<!-- 2 -->
<g id="node2" class="node">
<title>2</title>
<ellipse fill="none" stroke="black" cx="56" cy="-40.47" rx="18" ry="18"/>
<text text-anchor="middle" x="56" y="-36.77" font-family="Arial" font-size="14.00">2</text>
</g>
<!-- dot_dummyinit_1&#45;&gt;2 -->
<g id="edge1" class="edge">
<title>dot_dummyinit_1&#45;&gt;2</title>
<path fill="none" stroke="black" d="M1.15,-40.47C2.67,-40.47 15.1,-40.47 27.63,-40.47"/>
<polygon fill="black" stroke="black" points="27.94,-43.97 37.94,-40.47 27.94,-36.97 27.94,-43.97"/>
</g>
<!-- 1 -->
<g id="node3" class="node">
<title>1</title>
<ellipse fill="none" stroke="black" cx="140" cy="-109.47" rx="18" ry="18"/>
<ellipse fill="none" stroke="black" cx="140" cy="-109.47" rx="22" ry="22"/>
<text text-anchor="middle" x="140" y="-105.77" font-family="Arial" font-size="14.00">1</text>
</g>
<!-- 2&#45;&gt;1 -->
<g id="edge4" class="edge">
<title>2&#45;&gt;1</title>
<path fill="none" stroke="black" d="M69.35,-52.7C75.93,-59.06 84.24,-66.86 92,-73.47 98.87,-79.3 106.54,-85.37 113.67,-90.82"/>
<polygon fill="black" stroke="black" points="111.61,-93.65 121.7,-96.88 115.83,-88.06 111.61,-93.65"/>
<text text-anchor="middle" x="96" y="-83.27" font-family="Arial" font-size="14.00">b</text>
</g>
<!-- 3 -->
<g id="node5" class="node">
<title>3</title>
<ellipse fill="none" stroke="black" cx="308" cy="-40.47" rx="18" ry="18"/>
<text text-anchor="middle" x="308" y="-36.77" font-family="Arial" font-size="14.00">3</text>
</g>
<!-- 2&#45;&gt;3 -->
<g id="edge3" class="edge">
<title>2&#45;&gt;3</title>
<path fill="none" stroke="black" d="M74.18,-40.47C116.82,-40.47 227.76,-40.47 279.58,-40.47"/>
<polygon fill="black" stroke="black" points="279.7,-43.97 289.7,-40.47 279.7,-36.97 279.7,-43.97"/>
<text text-anchor="middle" x="184" y="-44.27" font-family="Arial" font-size="14.00">a</text>
</g>
<!-- 6 -->
<g id="node7" class="node">
<title>6</title>
<ellipse fill="none" stroke="black" cx="224" cy="-109.47" rx="18" ry="18"/>
<text text-anchor="middle" x="224" y="-105.77" font-family="Arial" font-size="14.00">6</text>
</g>
<!-- 1&#45;&gt;6 -->
<g id="edge2" class="edge">
<title>1&#45;&gt;6</title>
<path fill="none" stroke="black" d="M162.12,-109.47C172.3,-109.47 184.63,-109.47 195.53,-109.47"/>
<polygon fill="black" stroke="black" points="195.82,-112.97 205.82,-109.47 195.82,-105.97 195.82,-112.97"/>
<text text-anchor="middle" x="184" y="-113.27" font-family="Arial" font-size="14.00">c</text>
</g>
<!-- 4 -->
<g id="node4" class="node">
<title>4</title>
<ellipse fill="none" stroke="black" cx="308" cy="-130.47" rx="18" ry="18"/>
<ellipse fill="none" stroke="black" cx="308" cy="-130.47" rx="22" ry="22"/>
<text text-anchor="middle" x="308" y="-126.77" font-family="Arial" font-size="14.00">4</text>
</g>
<!-- 5 -->
<g id="node6" class="node">
<title>5</title>
<ellipse fill="none" stroke="black" cx="392" cy="-130.47" rx="18" ry="18"/>
<text text-anchor="middle" x="392" y="-126.77" font-family="Arial" font-size="14.00">5</text>
</g>
<!-- 4&#45;&gt;5 -->
<g id="edge7" class="edge">
<title>4&#45;&gt;5</title>
<path fill="none" stroke="black" d="M330.12,-130.47C340.3,-130.47 352.63,-130.47 363.53,-130.47"/>
<polygon fill="black" stroke="black" points="363.82,-133.97 373.82,-130.47 363.82,-126.97 363.82,-133.97"/>
<text text-anchor="middle" x="352" y="-134.27" font-family="Arial" font-size="14.00">d</text>
</g>
<!-- 3&#45;&gt;2 -->
<g id="edge5" class="edge">
<title>3&#45;&gt;2</title>
<path fill="none" stroke="black" d="M290.15,-36.91C267.19,-32.27 224.71,-24.38 188,-21.47 151.56,-18.57 109.82,-26.61 83.44,-33.11"/>
<polygon fill="black" stroke="black" points="82.28,-29.8 73.47,-35.68 84.02,-36.58 82.28,-29.8"/>
<text text-anchor="middle" x="184" y="-25.27" font-family="Arial" font-size="14.00">c</text>
</g>
<!-- 3&#45;&gt;2 -->
<g id="edge6" class="edge">
<title>3&#45;&gt;2</title>
<path fill="none" stroke="black" d="M291.24,-33.44C268.84,-23.88 226.26,-7.3 188,-1.47 149.73,4.38 107.03,-13.07 81.09,-26.49"/>
<polygon fill="black" stroke="black" points="79.16,-23.56 72.02,-31.38 82.48,-29.72 79.16,-23.56"/>
<text text-anchor="middle" x="184" y="-5.27" font-family="Arial" font-size="14.00">d</text>
</g>
<!-- 5&#45;&gt;4 -->
<g id="edge8" class="edge">
<title>5&#45;&gt;4</title>
<path fill="none" stroke="black" d="M376.69,-120.6C370.6,-116.97 363.24,-113.3 356,-111.47 349.24,-109.75 342.16,-110.92 335.6,-113.35"/>
<polygon fill="black" stroke="black" points="334.04,-110.21 326.47,-117.63 337.01,-116.55 334.04,-110.21"/>
<text text-anchor="middle" x="352" y="-115.27" font-family="Arial" font-size="14.00">b</text>
</g>
<!-- 6&#45;&gt;4 -->
<g id="edge10" class="edge">
<title>6&#45;&gt;4</title>
<path fill="none" stroke="black" d="M241.59,-113.71C251.58,-116.27 264.61,-119.61 276.41,-122.63"/>
<polygon fill="black" stroke="black" points="275.8,-126.09 286.35,-125.18 277.54,-119.31 275.8,-126.09"/>
<text text-anchor="middle" x="264" y="-123.27" font-family="Arial" font-size="14.00">b</text>
</g>
<!-- 6&#45;&gt;3 -->
<g id="edge9" class="edge">
<title>6&#45;&gt;3</title>
<path fill="none" stroke="black" d="M238.54,-98.07C251.44,-87.22 271.04,-70.72 285.97,-58.16"/>
<polygon fill="black" stroke="black" points="288.31,-60.76 293.71,-51.65 283.81,-55.41 288.31,-60.76"/>
<text text-anchor="middle" x="264" y="-82.27" font-family="Arial" font-size="14.00">a</text>
</g>
</g>
</svg>
