<?xml version="1.0" encoding="UTF-8" standalone="no"?>
<!DOCTYPE svg PUBLIC "-//W3C//DTD SVG 1.1//EN"
 "http://www.w3.org/Graphics/SVG/1.1/DTD/svg11.dtd">
<!-- Generated by graphviz version 2.43.0 (0)
 -->
<!-- Title: A&#45;B&#45;Machine&#45;B&#45;Exhausts Pages: 1 -->
<svg width="594pt" height="91pt"
 viewBox="0.00 0.00 594.00 91.00" xmlns="http://www.w3.org/2000/svg" xmlns:xlink="http://www.w3.org/1999/xlink">
<g id="graph0" class="graph" transform="scale(1 1) rotate(0) translate(4 87)">
<title>A&#45;B&#45;Machine&#45;B&#45;Exhausts</title>
<!-- dot_dummyinit_1 -->
<g id="node1" class="node">
<title>dot_dummyinit_1</title>
</g>
<!-- I -->
<g id="node2" class="node">
<title>I</title>
<path fill="none" stroke="black" d="M80,-36C80,-36 50,-36 50,-36 44,-36 38,-30 38,-24 38,-24 38,-12 38,-12 38,-6 44,0 50,0 50,0 80,0 80,0 86,0 92,-6 92,-12 92,-12 92,-24 92,-24 92,-30 86,-36 80,-36"/>
<text text-anchor="start" x="55" y="-13.8" font-family="Arial" font-size="14.00">I</text>
<polygon fill="black" stroke="transparent" points="69,-8 69,-27 77,-27 77,-8 69,-8"/>
</g>
<!-- dot_dummyinit_1&#45;&gt;I -->
<g id="edge1" class="edge">
<title>dot_dummyinit_1&#45;&gt;I</title>
<path fill="none" stroke="black" d="M1.05,-18C1.88,-18 14.11,-18 27.57,-18"/>
<polygon fill="black" stroke="black" points="27.94,-21.5 37.94,-18 27.94,-14.5 27.94,-21.5"/>
</g>
<!-- A -->
<g id="node4" class="node">
<title>A</title>
<path fill="none" stroke="black" d="M178,-74C178,-74 148,-74 148,-74 142,-74 136,-68 136,-62 136,-62 136,-50 136,-50 136,-44 142,-38 148,-38 148,-38 178,-38 178,-38 184,-38 190,-44 190,-50 190,-50 190,-62 190,-62 190,-68 184,-74 178,-74"/>
<text text-anchor="middle" x="163" y="-52.3" font-family="Arial" font-size="14.00">A</text>
</g>
<!-- I&#45;&gt;A -->
<g id="edge2" class="edge">
<title>I&#45;&gt;A</title>
<path fill="none" stroke="black" d="M92.23,-28.38C102.71,-32.53 114.94,-37.37 126.21,-41.83"/>
<polygon fill="black" stroke="black" points="125.21,-45.2 135.8,-45.63 127.79,-38.69 125.21,-45.2"/>
<text text-anchor="middle" x="114" y="-41.8" font-family="Arial" font-size="14.00">a</text>
</g>
<!-- B -->
<g id="node5" class="node">
<title>B</title>
<path fill="none" stroke="black" d="M374,-54C374,-54 344,-54 344,-54 338,-54 332,-48 332,-42 332,-42 332,-30 332,-30 332,-24 338,-18 344,-18 344,-18 374,-18 374,-18 380,-18 386,-24 386,-30 386,-30 386,-42 386,-42 386,-48 380,-54 374,-54"/>
<text text-anchor="middle" x="359" y="-32.3" font-family="Arial" font-size="14.00">B</text>
</g>
<!-- I&#45;&gt;B -->
<g id="edge3" class="edge">
<title>I&#45;&gt;B</title>
<path fill="none" stroke="black" d="M92.34,-12.72C134.28,-5.26 218.61,5.92 288,-9 299.41,-11.45 311.4,-15.5 322.18,-19.71"/>
<polygon fill="black" stroke="black" points="321.1,-23.05 331.68,-23.6 323.74,-16.57 321.1,-23.05"/>
<text text-anchor="middle" x="212" y="-4.8" font-family="Arial" font-size="14.00">b</text>
</g>
<!-- XB -->
<g id="node3" class="node">
<title>XB</title>
<path fill="none" stroke="black" d="M476,-77C476,-77 441,-77 441,-77 435,-77 429,-71 429,-65 429,-65 429,-53 429,-53 429,-47 435,-41 441,-41 441,-41 476,-41 476,-41 482,-41 488,-47 488,-53 488,-53 488,-65 488,-65 488,-71 482,-77 476,-77"/>
<text text-anchor="start" x="441.5" y="-54.8" font-family="Arial" font-size="14.00">XB</text>
<polygon fill="black" stroke="transparent" points="470.5,-49 470.5,-68 478.5,-68 478.5,-49 470.5,-49"/>
</g>
<!-- XB&#45;&gt;A -->
<g id="edge10" class="edge">
<title>XB&#45;&gt;A</title>
<path fill="none" stroke="black" d="M428.55,-64.04C422.76,-64.86 416.7,-65.57 411,-66 407.9,-66.23 407.11,-66.01 404,-66 316.89,-65.78 294.65,-73.99 208,-65 205.49,-64.74 202.91,-64.4 200.32,-64.01"/>
<polygon fill="black" stroke="black" points="200.85,-60.55 190.39,-62.28 199.64,-67.44 200.85,-60.55"/>
<text text-anchor="middle" x="310" y="-71.8" font-family="Arial" font-size="14.00">a</text>
</g>
<!-- FB -->
<g id="node7" class="node">
<title>FB</title>
<path fill="none" stroke="black" d="M574,-77C574,-77 544,-77 544,-77 538,-77 532,-71 532,-65 532,-65 532,-53 532,-53 532,-47 538,-41 544,-41 544,-41 574,-41 574,-41 580,-41 586,-47 586,-53 586,-53 586,-65 586,-65 586,-71 580,-77 574,-77"/>
<text text-anchor="middle" x="559" y="-55.3" font-family="Arial" font-size="14.00">FB</text>
</g>
<!-- XB&#45;&gt;FB -->
<g id="edge11" class="edge">
<title>XB&#45;&gt;FB</title>
<path fill="none" stroke="black" d="M488.26,-59C498.67,-59 510.57,-59 521.56,-59"/>
<polygon fill="black" stroke="black" points="521.73,-62.5 531.73,-59 521.73,-55.5 521.73,-62.5"/>
<text text-anchor="middle" x="510" y="-62.8" font-family="Arial" font-size="14.00">b</text>
</g>
<!-- A&#45;&gt;I -->
<g id="edge4" class="edge">
<title>A&#45;&gt;I</title>
<path fill="none" stroke="black" d="M147.72,-37.91C139.95,-29.54 129.55,-20.47 118,-16 113.07,-14.09 107.68,-13.16 102.29,-12.86"/>
<polygon fill="black" stroke="black" points="102.03,-9.37 92.07,-12.97 102.1,-16.36 102.03,-9.37"/>
<text text-anchor="middle" x="114" y="-19.8" font-family="Arial" font-size="14.00">c</text>
</g>
<!-- FA -->
<g id="node6" class="node">
<title>FA</title>
<path fill="none" stroke="black" d="M276,-54C276,-54 246,-54 246,-54 240,-54 234,-48 234,-42 234,-42 234,-30 234,-30 234,-24 240,-18 246,-18 246,-18 276,-18 276,-18 282,-18 288,-24 288,-30 288,-30 288,-42 288,-42 288,-48 282,-54 276,-54"/>
<text text-anchor="middle" x="261" y="-32.3" font-family="Arial" font-size="14.00">FA</text>
</g>
<!-- A&#45;&gt;FA -->
<g id="edge5" class="edge">
<title>A&#45;&gt;FA</title>
<path fill="none" stroke="black" d="M190.23,-50.53C200.6,-48.37 212.69,-45.86 223.87,-43.53"/>
<polygon fill="black" stroke="black" points="224.72,-46.92 233.8,-41.46 223.3,-40.07 224.72,-46.92"/>
<text text-anchor="middle" x="212" y="-49.8" font-family="Arial" font-size="14.00">d</text>
</g>
<!-- B&#45;&gt;XB -->
<g id="edge6" class="edge">
<title>B&#45;&gt;XB</title>
<path fill="none" stroke="black" d="M386.13,-42.16C396.23,-44.55 408.01,-47.32 419.04,-49.93"/>
<polygon fill="black" stroke="black" points="418.36,-53.36 428.9,-52.25 419.97,-46.55 418.36,-53.36"/>
<text text-anchor="middle" x="407.5" y="-50.8" font-family="Arial" font-size="14.00">c</text>
</g>
<!-- FA&#45;&gt;A -->
<g id="edge7" class="edge">
<title>FA&#45;&gt;A</title>
<path fill="none" stroke="black" d="M233.8,-25.99C225.46,-24.12 216.26,-23.45 208,-26 203.05,-27.53 198.15,-29.83 193.53,-32.48"/>
<polygon fill="black" stroke="black" points="191.56,-29.59 185.03,-37.93 195.34,-35.48 191.56,-29.59"/>
<text text-anchor="middle" x="212" y="-29.8" font-family="Arial" font-size="14.00">a</text>
</g>
<!-- FA&#45;&gt;B -->
<g id="edge8" class="edge">
<title>FA&#45;&gt;B</title>
<path fill="none" stroke="black" d="M288.23,-36C298.5,-36 310.45,-36 321.53,-36"/>
<polygon fill="black" stroke="black" points="321.8,-39.5 331.8,-36 321.8,-32.5 321.8,-39.5"/>
<text text-anchor="middle" x="310" y="-39.8" font-family="Arial" font-size="14.00">b</text>
</g>
<!-- FB&#45;&gt;XB -->
<g id="edge9" class="edge">
<title>FB&#45;&gt;XB</title>
<path fill="none" stroke="black" d="M531.99,-46.43C526.2,-44.18 519.99,-42.18 514,-41 508.82,-39.98 503.44,-40.16 498.18,-41.07"/>
<polygon fill="black" stroke="black" points="497.08,-37.74 488.27,-43.64 498.83,-44.52 497.08,-37.74"/>
<text text-anchor="middle" x="510" y="-44.8" font-family="Arial" font-size="14.00">d</text>
</g>
</g>
</svg>
