<?xml version="1.0" encoding="UTF-8" standalone="no"?>
<!DOCTYPE svg PUBLIC "-//W3C//DTD SVG 1.1//EN"
 "http://www.w3.org/Graphics/SVG/1.1/DTD/svg11.dtd">
<!-- Generated by graphviz version 2.43.0 (0)
 -->
<!-- Title: A&#45;B&#45;Spec&#45;Keep&#45;Running Pages: 1 -->
<svg width="213pt" height="80pt"
 viewBox="0.00 0.00 213.00 79.55" xmlns="http://www.w3.org/2000/svg" xmlns:xlink="http://www.w3.org/1999/xlink">
<g id="graph0" class="graph" transform="scale(1 1) rotate(0) translate(4 75.55)">
<title>A&#45;B&#45;Spec&#45;Keep&#45;Running</title>
<!-- dot_dummyinit_1 -->
<g id="node1" class="node">
<title>dot_dummyinit_1</title>
</g>
<!-- I -->
<g id="node2" class="node">
<title>I</title>
<path fill="none" stroke="black" d="M80,-38.55C80,-38.55 50,-38.55 50,-38.55 44,-38.55 38,-32.55 38,-26.55 38,-26.55 38,-14.55 38,-14.55 38,-8.55 44,-2.55 50,-2.55 50,-2.55 80,-2.55 80,-2.55 86,-2.55 92,-8.55 92,-14.55 92,-14.55 92,-26.55 92,-26.55 92,-32.55 86,-38.55 80,-38.55"/>
<text text-anchor="start" x="55" y="-16.35" font-family="Arial" font-size="14.00">I</text>
<polygon fill="black" stroke="transparent" points="69,-10.55 69,-29.55 77,-29.55 77,-10.55 69,-10.55"/>
</g>
<!-- dot_dummyinit_1&#45;&gt;I -->
<g id="edge1" class="edge">
<title>dot_dummyinit_1&#45;&gt;I</title>
<path fill="none" stroke="black" d="M1.05,-20.55C1.88,-20.55 14.11,-20.55 27.57,-20.55"/>
<polygon fill="black" stroke="black" points="27.94,-24.05 37.94,-20.55 27.94,-17.05 27.94,-24.05"/>
</g>
<!-- B -->
<g id="node3" class="node">
<title>B</title>
<path fill="none" stroke="black" d="M193,-38.55C193,-38.55 163,-38.55 163,-38.55 157,-38.55 151,-32.55 151,-26.55 151,-26.55 151,-14.55 151,-14.55 151,-8.55 157,-2.55 163,-2.55 163,-2.55 193,-2.55 193,-2.55 199,-2.55 205,-8.55 205,-14.55 205,-14.55 205,-26.55 205,-26.55 205,-32.55 199,-38.55 193,-38.55"/>
<text text-anchor="middle" x="178" y="-16.85" font-family="Arial" font-size="14.00">B</text>
</g>
<!-- I&#45;&gt;B -->
<g id="edge2" class="edge">
<title>I&#45;&gt;B</title>
<path fill="none" stroke="black" d="M92.02,-20.55C106.53,-20.55 124.83,-20.55 140.72,-20.55"/>
<polygon fill="black" stroke="black" points="140.75,-24.05 150.75,-20.55 140.75,-17.05 140.75,-24.05"/>
<text text-anchor="middle" x="121.5" y="-24.35" font-family="Arial" font-size="14.00">a, b</text>
</g>
<!-- B&#45;&gt;I -->
<g id="edge3" class="edge">
<title>B&#45;&gt;I</title>
<path fill="none" stroke="black" d="M150.58,-7.09C144.91,-4.8 138.87,-2.76 133,-1.55 122.99,0.52 120.01,0.52 110,-1.55 107.34,-2.1 104.65,-2.82 101.97,-3.65"/>
<polygon fill="black" stroke="black" points="100.64,-0.41 92.42,-7.09 103.02,-7 100.64,-0.41"/>
<text text-anchor="middle" x="121.5" y="-5.35" font-family="Arial" font-size="14.00">c</text>
</g>
<!-- B&#45;&gt;B -->
<g id="edge4" class="edge">
<title>B&#45;&gt;B</title>
<path fill="none" stroke="black" d="M167.87,-38.7C166.31,-48.09 169.69,-56.55 178,-56.55 183.07,-56.55 186.3,-53.41 187.7,-48.83"/>
<polygon fill="black" stroke="black" points="191.2,-48.84 188.13,-38.7 184.21,-48.55 191.2,-48.84"/>
<text text-anchor="middle" x="178" y="-60.35" font-family="Arial" font-size="14.00">a, b, d</text>
</g>
</g>
</svg>
