<?xml version="1.0" encoding="UTF-8" standalone="no"?>
<!DOCTYPE svg PUBLIC "-//W3C//DTD SVG 1.1//EN"
 "http://www.w3.org/Graphics/SVG/1.1/DTD/svg11.dtd">
<!-- Generated by graphviz version 12.2.1 (20241206.2353)
 -->
<!-- Title: SupBuechiCon((A&#45;B&#45;Machine&#45;B&#45;Breaks),(A&#45;B&#45;Spec&#45;Eventually&#45;B)) [minstate] Pages: 1 -->
<svg width="415pt" height="159pt"
 viewBox="0.00 0.00 414.97 158.68" xmlns="http://www.w3.org/2000/svg" xmlns:xlink="http://www.w3.org/1999/xlink">
<g id="graph0" class="graph" transform="scale(1 1) rotate(0) translate(4 154.68)">
<title>SupBuechiCon((A&#45;B&#45;Machine&#45;B&#45;Breaks),(A&#45;B&#45;Spec&#45;Eventually&#45;B)) [minstate]</title>
<!-- dot_dummyinit_1 -->
<g id="node1" class="node">
<title>dot_dummyinit_1</title>
</g>
<!-- 2 -->
<g id="node2" class="node">
<title>2</title>
<ellipse fill="none" stroke="black" cx="55.72" cy="-44.68" rx="18" ry="18"/>
<text text-anchor="middle" x="55.72" y="-39.26" font-family="Arial" font-size="14.00">2</text>
</g>
<!-- dot_dummyinit_1&#45;&gt;2 -->
<g id="edge1" class="edge">
<title>dot_dummyinit_1&#45;&gt;2</title>
<path fill="none" stroke="black" d="M0.87,-44.68C2.34,-44.68 13.93,-44.68 25.99,-44.68"/>
<polygon fill="black" stroke="black" points="25.86,-48.18 35.86,-44.68 25.86,-41.18 25.86,-48.18"/>
</g>
<!-- 1 -->
<g id="node3" class="node">
<title>1</title>
<ellipse fill="none" stroke="black" cx="139.22" cy="-103.68" rx="18" ry="18"/>
<ellipse fill="none" stroke="black" cx="139.22" cy="-103.68" rx="22" ry="22"/>
<text text-anchor="middle" x="139.22" y="-98.26" font-family="Arial" font-size="14.00">1</text>
</g>
<!-- 2&#45;&gt;1 -->
<g id="edge4" class="edge">
<title>2&#45;&gt;1</title>
<path fill="none" stroke="black" d="M70.92,-54.96C82.18,-63.11 98.24,-74.74 111.85,-84.59"/>
<polygon fill="black" stroke="black" points="109.41,-87.14 119.56,-90.17 113.51,-81.47 109.41,-87.14"/>
<text text-anchor="middle" x="95.47" y="-76.63" font-family="Arial" font-size="14.00">b</text>
</g>
<!-- 5 -->
<g id="node6" class="node">
<title>5</title>
<ellipse fill="none" stroke="black" cx="139.22" cy="-25.68" rx="18" ry="18"/>
<text text-anchor="middle" x="139.22" y="-20.26" font-family="Arial" font-size="14.00">5</text>
</g>
<!-- 2&#45;&gt;5 -->
<g id="edge3" class="edge">
<title>2&#45;&gt;5</title>
<path fill="none" stroke="black" d="M73.87,-45.28C81.69,-45.2 91.02,-44.59 99.22,-42.68 103.63,-41.65 108.16,-40.15 112.5,-38.44"/>
<polygon fill="black" stroke="black" points="113.57,-41.79 121.34,-34.59 110.78,-35.38 113.57,-41.79"/>
<text text-anchor="middle" x="95.47" y="-46.41" font-family="Arial" font-size="14.00">a</text>
</g>
<!-- 7 -->
<g id="node8" class="node">
<title>7</title>
<ellipse fill="none" stroke="black" cx="221.97" cy="-103.68" rx="18" ry="18"/>
<text text-anchor="middle" x="221.97" y="-98.26" font-family="Arial" font-size="14.00">7</text>
</g>
<!-- 1&#45;&gt;7 -->
<g id="edge2" class="edge">
<title>1&#45;&gt;7</title>
<path fill="none" stroke="black" d="M161.44,-103.68C170.91,-103.68 182.21,-103.68 192.41,-103.68"/>
<polygon fill="black" stroke="black" points="192.19,-107.18 202.19,-103.68 192.19,-100.18 192.19,-107.18"/>
<text text-anchor="middle" x="182.6" y="-106.13" font-family="Arial" font-size="14.00">c</text>
</g>
<!-- 4 -->
<g id="node4" class="node">
<title>4</title>
<ellipse fill="none" stroke="black" cx="305.47" cy="-64.68" rx="18" ry="18"/>
<ellipse fill="none" stroke="black" cx="305.47" cy="-64.68" rx="22" ry="22"/>
<text text-anchor="middle" x="305.47" y="-59.26" font-family="Arial" font-size="14.00">4</text>
</g>
<!-- 6 -->
<g id="node7" class="node">
<title>6</title>
<ellipse fill="none" stroke="black" cx="388.97" cy="-64.68" rx="18" ry="18"/>
<text text-anchor="middle" x="388.97" y="-59.26" font-family="Arial" font-size="14.00">6</text>
</g>
<!-- 4&#45;&gt;6 -->
<g id="edge6" class="edge">
<title>4&#45;&gt;6</title>
<path fill="none" stroke="black" d="M327.88,-64.68C337.44,-64.68 348.85,-64.68 359.14,-64.68"/>
<polygon fill="black" stroke="black" points="359.03,-68.18 369.03,-64.68 359.03,-61.18 359.03,-68.18"/>
<text text-anchor="middle" x="349.22" y="-67.13" font-family="Arial" font-size="14.00">d</text>
</g>
<!-- 3 -->
<g id="node5" class="node">
<title>3</title>
<ellipse fill="none" stroke="black" cx="305.47" cy="-132.68" rx="18" ry="18"/>
<text text-anchor="middle" x="305.47" y="-127.26" font-family="Arial" font-size="14.00">3</text>
</g>
<!-- 3&#45;&gt;7 -->
<g id="edge5" class="edge">
<title>3&#45;&gt;7</title>
<path fill="none" stroke="black" d="M291.85,-120.77C284.69,-114.82 275.24,-108.21 265.47,-104.93 261.11,-103.47 256.35,-102.64 251.65,-102.23"/>
<polygon fill="black" stroke="black" points="251.93,-98.74 241.84,-101.98 251.75,-105.73 251.93,-98.74"/>
<text text-anchor="middle" x="261.72" y="-107.38" font-family="Arial" font-size="14.00">d</text>
</g>
<!-- 5&#45;&gt;2 -->
<g id="edge7" class="edge">
<title>5&#45;&gt;2</title>
<path fill="none" stroke="black" d="M121.13,-21.98C112.21,-20.72 101.21,-20.22 91.72,-22.93 87.82,-24.05 83.93,-25.73 80.23,-27.69"/>
<polygon fill="black" stroke="black" points="78.5,-24.64 71.79,-32.85 82.15,-30.62 78.5,-24.64"/>
<text text-anchor="middle" x="95.47" y="-25.38" font-family="Arial" font-size="14.00">c</text>
</g>
<!-- 5&#45;&gt;2 -->
<g id="edge8" class="edge">
<title>5&#45;&gt;2</title>
<path fill="none" stroke="black" d="M126.08,-12.81C116.76,-4.56 103.52,3.66 91.72,-1.93 83.61,-5.77 76.76,-12.51 71.33,-19.51"/>
<polygon fill="black" stroke="black" points="68.45,-17.52 65.67,-27.74 74.22,-21.49 68.45,-17.52"/>
<text text-anchor="middle" x="95.47" y="-4.38" font-family="Arial" font-size="14.00">d</text>
</g>
<!-- 6&#45;&gt;4 -->
<g id="edge9" class="edge">
<title>6&#45;&gt;4</title>
<path fill="none" stroke="black" d="M373.71,-54.43C367.63,-50.66 360.26,-46.85 352.97,-44.93 346.45,-43.22 339.65,-44.32 333.33,-46.69"/>
<polygon fill="black" stroke="black" points="332.07,-43.41 324.64,-50.95 335.16,-49.69 332.07,-43.41"/>
<text text-anchor="middle" x="349.22" y="-47.38" font-family="Arial" font-size="14.00">b</text>
</g>
<!-- 7&#45;&gt;4 -->
<g id="edge11" class="edge">
<title>7&#45;&gt;4</title>
<path fill="none" stroke="black" d="M238.09,-94.62C244.18,-91.11 251.32,-87.17 257.97,-83.93 263.24,-81.37 268.93,-78.83 274.47,-76.47"/>
<polygon fill="black" stroke="black" points="275.47,-79.85 283.38,-72.8 272.8,-73.38 275.47,-79.85"/>
<text text-anchor="middle" x="261.72" y="-86.38" font-family="Arial" font-size="14.00">b</text>
</g>
<!-- 7&#45;&gt;3 -->
<g id="edge10" class="edge">
<title>7&#45;&gt;3</title>
<path fill="none" stroke="black" d="M238.36,-111.98C244.36,-115 251.38,-118.26 257.97,-120.68 263.94,-122.88 270.47,-124.83 276.71,-126.49"/>
<polygon fill="black" stroke="black" points="275.42,-129.77 285.96,-128.78 277.1,-122.98 275.42,-129.77"/>
<text text-anchor="middle" x="261.72" y="-125.66" font-family="Arial" font-size="14.00">a</text>
</g>
</g>
</svg>
