<?xml version="1.0" encoding="UTF-8" standalone="no"?>
<!DOCTYPE svg PUBLIC "-//W3C//DTD SVG 1.1//EN"
 "http://www.w3.org/Graphics/SVG/1.1/DTD/svg11.dtd">
<!-- Generated by graphviz version 12.2.1 (20241206.2353)
 -->
<!-- Title: A&#45;B&#45;Spec&#45;Eventually&#45;B Pages: 1 -->
<svg width="261pt" height="80pt"
 viewBox="0.00 0.00 260.50 80.49" xmlns="http://www.w3.org/2000/svg" xmlns:xlink="http://www.w3.org/1999/xlink">
<g id="graph0" class="graph" transform="scale(1 1) rotate(0) translate(4 76.49)">
<title>A&#45;B&#45;Spec&#45;Eventually&#45;B</title>
<!-- dot_dummyinit_0 -->
<g id="node1" class="node">
<title>dot_dummyinit_0</title>
</g>
<!-- A -->
<g id="node2" class="node">
<title>A</title>
<path fill="none" stroke="black" d="M133,-38.74C133,-38.74 103,-38.74 103,-38.74 97,-38.74 91,-32.74 91,-26.74 91,-26.74 91,-14.74 91,-14.74 91,-8.74 97,-2.74 103,-2.74 103,-2.74 133,-2.74 133,-2.74 139,-2.74 145,-8.74 145,-14.74 145,-14.74 145,-26.74 145,-26.74 145,-32.74 139,-38.74 133,-38.74"/>
<text text-anchor="start" x="104" y="-15.32" font-family="Arial" font-size="14.00">A</text>
<polygon fill="lightblue" stroke="none" points="124,-10.87 124,-30.62 134,-30.62 134,-10.87 124,-10.87"/>
</g>
<!-- dot_dummyinit_0&#45;&gt;A -->
<g id="edge1" class="edge">
<title>dot_dummyinit_0&#45;&gt;A</title>
<path fill="none" stroke="black" d="M53.74,-20.74C61.72,-20.74 70.68,-20.74 79.29,-20.74"/>
<polygon fill="black" stroke="black" points="79.18,-24.24 89.18,-20.74 79.18,-17.24 79.18,-24.24"/>
</g>
<!-- A&#45;&gt;A -->
<g id="edge2" class="edge">
<title>A&#45;&gt;A</title>
<path fill="none" stroke="black" d="M109.77,-38.89C108.5,-48.28 111.25,-56.74 118,-56.74 121.69,-56.74 124.19,-54.21 125.48,-50.38"/>
<polygon fill="black" stroke="black" points="128.98,-50.61 126.13,-40.4 121.99,-50.16 128.98,-50.61"/>
<text text-anchor="middle" x="118" y="-59.19" font-family="Arial" font-size="14.00">a, c, d</text>
</g>
<!-- B -->
<g id="node3" class="node">
<title>B</title>
<path fill="none" stroke="black" d="M240.5,-38.74C240.5,-38.74 200.5,-38.74 200.5,-38.74 194.5,-38.74 188.5,-32.74 188.5,-26.74 188.5,-26.74 188.5,-14.74 188.5,-14.74 188.5,-8.74 194.5,-2.74 200.5,-2.74 200.5,-2.74 240.5,-2.74 240.5,-2.74 246.5,-2.74 252.5,-8.74 252.5,-14.74 252.5,-14.74 252.5,-26.74 252.5,-26.74 252.5,-32.74 246.5,-38.74 240.5,-38.74"/>
<text text-anchor="start" x="200.5" y="-15.32" font-family="Arial" font-size="14.00">B</text>
<polygon fill="lightblue" stroke="none" points="220.5,-10.87 220.5,-30.62 230.5,-30.62 230.5,-10.87 220.5,-10.87"/>
<polygon fill="darkblue" stroke="none" points="232.5,-10.87 232.5,-30.62 242.5,-30.62 242.5,-10.87 232.5,-10.87"/>
</g>
<!-- A&#45;&gt;B -->
<g id="edge3" class="edge">
<title>A&#45;&gt;B</title>
<path fill="none" stroke="black" d="M145.41,-20.74C155.06,-20.74 166.24,-20.74 176.94,-20.74"/>
<polygon fill="black" stroke="black" points="176.76,-24.24 186.76,-20.74 176.76,-17.24 176.76,-24.24"/>
<text text-anchor="middle" x="166.75" y="-23.19" font-family="Arial" font-size="14.00">b</text>
</g>
<!-- B&#45;&gt;A -->
<g id="edge4" class="edge">
<title>B&#45;&gt;A</title>
<path fill="none" stroke="black" d="M188.22,-3.3C180.12,-0.59 171.33,0.79 163,-0.99 160.7,-1.48 158.37,-2.11 156.05,-2.83"/>
<polygon fill="black" stroke="black" points="154.97,0.51 146.8,-6.23 157.39,-6.06 154.97,0.51"/>
<text text-anchor="middle" x="166.75" y="-3.44" font-family="Arial" font-size="14.00">c</text>
</g>
<!-- B&#45;&gt;B -->
<g id="edge5" class="edge">
<title>B&#45;&gt;B</title>
<path fill="none" stroke="black" d="M210.78,-38.89C209.28,-48.28 212.52,-56.74 220.5,-56.74 224.99,-56.74 227.98,-54.06 229.47,-50.05"/>
<polygon fill="black" stroke="black" points="232.94,-50.62 230.12,-40.4 225.95,-50.14 232.94,-50.62"/>
<text text-anchor="middle" x="220.5" y="-59.19" font-family="Arial" font-size="14.00">b, d</text>
</g>
</g>
</svg>
