<?xml version="1.0" encoding="UTF-8" standalone="no"?>
<!DOCTYPE svg PUBLIC "-//W3C//DTD SVG 1.1//EN"
 "http://www.w3.org/Graphics/SVG/1.1/DTD/svg11.dtd">
<!-- Generated by graphviz version 12.2.1 (20241206.2353)
 -->
<!-- Title: wPlant3 Pages: 1 -->
<svg width="428pt" height="122pt"
 viewBox="0.00 0.00 428.23 122.13" xmlns="http://www.w3.org/2000/svg" xmlns:xlink="http://www.w3.org/1999/xlink">
<g id="graph0" class="graph" transform="scale(1 1) rotate(0) translate(4 118.13)">
<title>wPlant3</title>
<!-- dot_dummyinit_1 -->
<g id="node1" class="node">
<title>dot_dummyinit_1</title>
</g>
<!-- I -->
<g id="node2" class="node">
<title>I</title>
<ellipse fill="none" stroke="black" cx="59.72" cy="-57" rx="18" ry="18"/>
<ellipse fill="none" stroke="black" cx="59.72" cy="-57" rx="22" ry="22"/>
<text text-anchor="middle" x="59.72" y="-51.58" font-family="Arial" font-size="14.00">I</text>
</g>
<!-- dot_dummyinit_1&#45;&gt;I -->
<g id="edge1" class="edge">
<title>dot_dummyinit_1&#45;&gt;I</title>
<path fill="none" stroke="black" d="M0.89,-57C2.38,-57 13.74,-57 26,-57"/>
<polygon fill="black" stroke="black" points="25.74,-60.5 35.74,-57 25.74,-53.5 25.74,-60.5"/>
</g>
<!-- A -->
<g id="node3" class="node">
<title>A</title>
<ellipse fill="none" stroke="black" cx="147.22" cy="-92" rx="18" ry="18"/>
<ellipse fill="none" stroke="black" cx="147.22" cy="-92" rx="22" ry="22"/>
<text text-anchor="middle" x="147.22" y="-86.58" font-family="Arial" font-size="14.00">A</text>
</g>
<!-- I&#45;&gt;A -->
<g id="edge2" class="edge">
<title>I&#45;&gt;A</title>
<path fill="none" stroke="black" d="M73.58,-74.11C80.41,-81.74 89.49,-89.92 99.72,-94 104.2,-95.79 109.11,-96.63 114.01,-96.88"/>
<polygon fill="black" stroke="black" points="113.83,-100.38 123.72,-96.57 113.61,-93.39 113.83,-100.38"/>
<text text-anchor="middle" x="103.47" y="-98.51" font-family="Arial" font-size="14.00">a</text>
</g>
<!-- B -->
<g id="node4" class="node">
<title>B</title>
<ellipse fill="none" stroke="black" cx="147.22" cy="-22" rx="18" ry="18"/>
<ellipse fill="none" stroke="black" cx="147.22" cy="-22" rx="22" ry="22"/>
<text text-anchor="middle" x="147.22" y="-16.57" font-family="Arial" font-size="14.00">B</text>
</g>
<!-- I&#45;&gt;B -->
<g id="edge3" class="edge">
<title>I&#45;&gt;B</title>
<path fill="none" stroke="black" d="M80.04,-47.88C86.28,-45.02 93.26,-41.92 99.72,-39.25 104.82,-37.14 110.29,-35.01 115.61,-33"/>
<polygon fill="black" stroke="black" points="116.61,-36.36 124.77,-29.6 114.17,-29.8 116.61,-36.36"/>
<text text-anchor="middle" x="103.47" y="-41.7" font-family="Arial" font-size="14.00">b</text>
</g>
<!-- A&#45;&gt;I -->
<g id="edge4" class="edge">
<title>A&#45;&gt;I</title>
<path fill="none" stroke="black" d="M126.9,-82.88C120.66,-80.02 113.68,-76.92 107.22,-74.25 102.12,-72.14 96.65,-70.01 91.33,-68"/>
<polygon fill="black" stroke="black" points="92.77,-64.8 82.17,-64.6 90.33,-71.36 92.77,-64.8"/>
<text text-anchor="middle" x="103.47" y="-76.7" font-family="Arial" font-size="14.00">c</text>
</g>
<!-- Af -->
<g id="node7" class="node">
<title>Af</title>
<ellipse fill="none" stroke="black" cx="231.85" cy="-91" rx="19.13" ry="19.13"/>
<text text-anchor="middle" x="231.85" y="-85.58" font-family="Arial" font-size="14.00">Af</text>
</g>
<!-- A&#45;&gt;Af -->
<g id="edge5" class="edge">
<title>A&#45;&gt;Af</title>
<path fill="none" stroke="black" d="M169.5,-91.74C179.16,-91.63 190.74,-91.49 201.23,-91.36"/>
<polygon fill="black" stroke="black" points="200.98,-94.86 210.93,-91.24 200.89,-87.86 200.98,-94.86"/>
<text text-anchor="middle" x="190.97" y="-93.95" font-family="Arial" font-size="14.00">f</text>
</g>
<!-- B&#45;&gt;I -->
<g id="edge6" class="edge">
<title>B&#45;&gt;I</title>
<path fill="none" stroke="black" d="M125.67,-15.67C117.34,-14.17 107.8,-13.86 99.72,-17.25 92.53,-20.27 86,-25.33 80.43,-30.84"/>
<polygon fill="black" stroke="black" points="78.12,-28.18 74,-37.94 83.31,-32.88 78.12,-28.18"/>
<text text-anchor="middle" x="103.47" y="-19.7" font-family="Arial" font-size="14.00">c</text>
</g>
<!-- Bf -->
<g id="node5" class="node">
<title>Bf</title>
<ellipse fill="none" stroke="black" cx="397.1" cy="-91" rx="19.13" ry="19.13"/>
<ellipse fill="none" stroke="black" cx="397.1" cy="-91" rx="23.13" ry="23.13"/>
<text text-anchor="middle" x="397.1" y="-85.58" font-family="Arial" font-size="14.00">Bf</text>
</g>
<!-- If -->
<g id="node6" class="node">
<title>If</title>
<ellipse fill="none" stroke="black" cx="312.48" cy="-91" rx="18" ry="18"/>
<text text-anchor="middle" x="312.48" y="-85.58" font-family="Arial" font-size="14.00">If</text>
</g>
<!-- Bf&#45;&gt;If -->
<g id="edge11" class="edge">
<title>Bf&#45;&gt;If</title>
<path fill="none" stroke="black" d="M377.96,-77.37C369.24,-72.42 358.52,-68.61 348.48,-71.25 344.83,-72.21 341.17,-73.64 337.65,-75.3"/>
<polygon fill="black" stroke="black" points="336.14,-72.14 329.06,-80.02 339.51,-78.28 336.14,-72.14"/>
<text text-anchor="middle" x="352.23" y="-73.7" font-family="Arial" font-size="14.00">c</text>
</g>
<!-- If&#45;&gt;Bf -->
<g id="edge8" class="edge">
<title>If&#45;&gt;Bf</title>
<path fill="none" stroke="black" d="M330.6,-91C339.76,-91 351.38,-91 362.28,-91"/>
<polygon fill="black" stroke="black" points="362.16,-94.5 372.16,-91 362.16,-87.5 362.16,-94.5"/>
<text text-anchor="middle" x="352.23" y="-93.45" font-family="Arial" font-size="14.00">b</text>
</g>
<!-- If&#45;&gt;Af -->
<g id="edge7" class="edge">
<title>If&#45;&gt;Af</title>
<path fill="none" stroke="black" d="M296.74,-81.59C290.71,-78.26 283.5,-74.93 276.48,-73.25 270.31,-71.78 263.88,-72.82 257.91,-75"/>
<polygon fill="black" stroke="black" points="256.69,-71.7 249.18,-79.17 259.71,-78.01 256.69,-71.7"/>
<text text-anchor="middle" x="272.73" y="-75.7" font-family="Arial" font-size="14.00">a</text>
</g>
<!-- Af&#45;&gt;A -->
<g id="edge10" class="edge">
<title>Af&#45;&gt;A</title>
<path fill="none" stroke="black" d="M216.39,-78.93C208.11,-73.46 197.38,-68.71 187.22,-71.25 183.57,-72.16 179.89,-73.48 176.33,-75.02"/>
<polygon fill="black" stroke="black" points="174.85,-71.85 167.47,-79.45 177.98,-78.11 174.85,-71.85"/>
<text text-anchor="middle" x="190.97" y="-73.7" font-family="Arial" font-size="14.00">e</text>
</g>
<!-- Af&#45;&gt;If -->
<g id="edge9" class="edge">
<title>Af&#45;&gt;If</title>
<path fill="none" stroke="black" d="M251.08,-91C260.51,-91 272.23,-91 282.84,-91"/>
<polygon fill="black" stroke="black" points="282.63,-94.5 292.63,-91 282.63,-87.5 282.63,-94.5"/>
<text text-anchor="middle" x="272.73" y="-93.45" font-family="Arial" font-size="14.00">c</text>
</g>
</g>
</svg>
