<?xml version="1.0" encoding="UTF-8" standalone="no"?>
<!DOCTYPE svg PUBLIC "-//W3C//DTD SVG 1.1//EN"
 "http://www.w3.org/Graphics/SVG/1.1/DTD/svg11.dtd">
<!-- Generated by graphviz version 2.43.0 (0)
 -->
<!-- Title: very simple machine 2 Pages: 1 -->
<svg width="239pt" height="48pt"
 viewBox="0.00 0.00 239.00 48.31" xmlns="http://www.w3.org/2000/svg" xmlns:xlink="http://www.w3.org/1999/xlink">
<g id="graph0" class="graph" transform="scale(1 1) rotate(0) translate(4 44.31)">
<title>very simple machine 2</title>
<!-- dot_dummyinit_1 -->
<g id="node1" class="node">
<title>dot_dummyinit_1</title>
</g>
<!-- I -->
<g id="node2" class="node">
<title>I</title>
<path fill="none" stroke="black" d="M80,-40.31C80,-40.31 50,-40.31 50,-40.31 44,-40.31 38,-34.31 38,-28.31 38,-28.31 38,-16.31 38,-16.31 38,-10.31 44,-4.31 50,-4.31 50,-4.31 80,-4.31 80,-4.31 86,-4.31 92,-10.31 92,-16.31 92,-16.31 92,-28.31 92,-28.31 92,-34.31 86,-40.31 80,-40.31"/>
<text text-anchor="start" x="55" y="-18.11" font-family="Arial" font-size="14.00">I</text>
<polygon fill="black" stroke="transparent" points="69,-12.31 69,-31.31 77,-31.31 77,-12.31 69,-12.31"/>
</g>
<!-- dot_dummyinit_1&#45;&gt;I -->
<g id="edge1" class="edge">
<title>dot_dummyinit_1&#45;&gt;I</title>
<path fill="none" stroke="black" d="M1.05,-22.31C1.88,-22.31 14.11,-22.31 27.57,-22.31"/>
<polygon fill="black" stroke="black" points="27.94,-25.81 37.94,-22.31 27.94,-18.81 27.94,-25.81"/>
</g>
<!-- B -->
<g id="node3" class="node">
<title>B</title>
<path fill="none" stroke="black" d="M219,-40.31C219,-40.31 189,-40.31 189,-40.31 183,-40.31 177,-34.31 177,-28.31 177,-28.31 177,-16.31 177,-16.31 177,-10.31 183,-4.31 189,-4.31 189,-4.31 219,-4.31 219,-4.31 225,-4.31 231,-10.31 231,-16.31 231,-16.31 231,-28.31 231,-28.31 231,-34.31 225,-40.31 219,-40.31"/>
<text text-anchor="middle" x="204" y="-18.61" font-family="Arial" font-size="14.00">B</text>
</g>
<!-- I&#45;&gt;B -->
<g id="edge2" class="edge">
<title>I&#45;&gt;B</title>
<path fill="none" stroke="black" d="M92.09,-22.31C113.1,-22.31 142.87,-22.31 166.28,-22.31"/>
<polygon fill="black" stroke="black" points="166.54,-25.81 176.54,-22.31 166.54,-18.81 166.54,-25.81"/>
<text text-anchor="middle" x="134.5" y="-26.11" font-family="Arial" font-size="14.00">alpha_2</text>
</g>
<!-- B&#45;&gt;I -->
<g id="edge3" class="edge">
<title>B&#45;&gt;I</title>
<path fill="none" stroke="black" d="M176.58,-8.85C170.91,-6.55 164.87,-4.52 159,-3.31 137.67,1.1 131.33,1.1 110,-3.31 107.34,-3.86 104.65,-4.57 101.97,-5.41"/>
<polygon fill="black" stroke="black" points="100.64,-2.16 92.42,-8.85 103.02,-8.75 100.64,-2.16"/>
<text text-anchor="middle" x="134.5" y="-7.11" font-family="Arial" font-size="14.00">beta_2</text>
</g>
</g>
</svg>
