<?xml version="1.0" encoding="UTF-8" standalone="no"?>
<!DOCTYPE svg PUBLIC "-//W3C//DTD SVG 1.1//EN"
 "http://www.w3.org/Graphics/SVG/1.1/DTD/svg11.dtd">
<!-- Generated by graphviz version 2.43.0 (0)
 -->
<!-- Title: eventually always alternating a and b Pages: 1 -->
<svg width="465pt" height="124pt"
 viewBox="0.00 0.00 465.00 124.00" xmlns="http://www.w3.org/2000/svg" xmlns:xlink="http://www.w3.org/1999/xlink">
<g id="graph0" class="graph" transform="scale(1 1) rotate(0) translate(4 120)">
<title>eventually always alternating a and b</title>
<!-- dot_dummyinit_0 -->
<g id="node1" class="node">
<title>dot_dummyinit_0</title>
</g>
<!-- 4 -->
<g id="node2" class="node">
<title>4</title>
<path fill="none" stroke="black" d="M133,-48C133,-48 103,-48 103,-48 97,-48 91,-42 91,-36 91,-36 91,-24 91,-24 91,-18 97,-12 103,-12 103,-12 133,-12 133,-12 139,-12 145,-18 145,-24 145,-24 145,-36 145,-36 145,-42 139,-48 133,-48"/>
<text text-anchor="middle" x="118" y="-26.3" font-family="Arial" font-size="14.00">4</text>
</g>
<!-- dot_dummyinit_0&#45;&gt;4 -->
<g id="edge1" class="edge">
<title>dot_dummyinit_0&#45;&gt;4</title>
<path fill="none" stroke="black" d="M54.22,-30C62.55,-30 71.91,-30 80.82,-30"/>
<polygon fill="black" stroke="black" points="80.97,-33.5 90.97,-30 80.97,-26.5 80.97,-33.5"/>
</g>
<!-- 4&#45;&gt;4 -->
<g id="edge9" class="edge">
<title>4&#45;&gt;4</title>
<path fill="none" stroke="black" d="M110.04,-48.15C108.82,-57.54 111.47,-66 118,-66 121.98,-66 124.52,-62.86 125.62,-58.28"/>
<polygon fill="black" stroke="black" points="129.12,-58.26 125.96,-48.15 122.13,-58.03 129.12,-58.26"/>
<text text-anchor="middle" x="118" y="-69.8" font-family="Arial" font-size="14.00">b</text>
</g>
<!-- 3 -->
<g id="node3" class="node">
<title>3</title>
<path fill="none" stroke="black" d="M231,-83C231,-83 201,-83 201,-83 195,-83 189,-77 189,-71 189,-71 189,-59 189,-59 189,-53 195,-47 201,-47 201,-47 231,-47 231,-47 237,-47 243,-53 243,-59 243,-59 243,-71 243,-71 243,-77 237,-83 231,-83"/>
<text text-anchor="middle" x="216" y="-61.3" font-family="Arial" font-size="14.00">3</text>
</g>
<!-- 4&#45;&gt;3 -->
<g id="edge8" class="edge">
<title>4&#45;&gt;3</title>
<path fill="none" stroke="black" d="M145.23,-39.56C155.71,-43.38 167.94,-47.84 179.21,-51.95"/>
<polygon fill="black" stroke="black" points="178.21,-55.31 188.8,-55.45 180.6,-48.73 178.21,-55.31"/>
<text text-anchor="middle" x="167" y="-51.8" font-family="Arial" font-size="14.00">a</text>
</g>
<!-- 3&#45;&gt;3 -->
<g id="edge6" class="edge">
<title>3&#45;&gt;3</title>
<path fill="none" stroke="black" d="M207.32,-83.15C205.98,-92.54 208.88,-101 216,-101 220.34,-101 223.11,-97.86 224.31,-93.28"/>
<polygon fill="black" stroke="black" points="227.82,-93.27 224.68,-83.15 220.82,-93.02 227.82,-93.27"/>
<text text-anchor="middle" x="216" y="-104.8" font-family="Arial" font-size="14.00">a</text>
</g>
<!-- 1 -->
<g id="node4" class="node">
<title>1</title>
<path fill="none" stroke="black" d="M338,-36C338,-36 299,-36 299,-36 293,-36 287,-30 287,-24 287,-24 287,-12 287,-12 287,-6 293,0 299,0 299,0 338,0 338,0 344,0 350,-6 350,-12 350,-12 350,-24 350,-24 350,-30 344,-36 338,-36"/>
<text text-anchor="start" x="299.5" y="-13.8" font-family="Arial" font-size="14.00">1</text>
<polygon fill="lightblue" stroke="transparent" points="318.5,-8 318.5,-27 328.5,-27 328.5,-8 318.5,-8"/>
<polygon fill="darkblue" stroke="transparent" points="330.5,-8 330.5,-27 340.5,-27 340.5,-8 330.5,-8"/>
</g>
<!-- 3&#45;&gt;1 -->
<g id="edge7" class="edge">
<title>3&#45;&gt;1</title>
<path fill="none" stroke="black" d="M243.14,-52.77C253.7,-47.84 266.11,-42.03 277.74,-36.59"/>
<polygon fill="black" stroke="black" points="279.28,-39.74 286.85,-32.33 276.31,-33.4 279.28,-39.74"/>
<text text-anchor="middle" x="265" y="-47.8" font-family="Arial" font-size="14.00">b</text>
</g>
<!-- 1&#45;&gt;4 -->
<g id="edge3" class="edge">
<title>1&#45;&gt;4</title>
<path fill="none" stroke="black" d="M286.83,-18.67C260.78,-19.36 222.41,-20.68 189,-23 178.01,-23.76 166.08,-24.86 155.23,-25.95"/>
<polygon fill="black" stroke="black" points="154.81,-22.48 145.23,-27 155.54,-29.44 154.81,-22.48"/>
<text text-anchor="middle" x="216" y="-26.8" font-family="Arial" font-size="14.00">b</text>
</g>
<!-- 2 -->
<g id="node5" class="node">
<title>2</title>
<path fill="none" stroke="black" d="M445,-65C445,-65 406,-65 406,-65 400,-65 394,-59 394,-53 394,-53 394,-41 394,-41 394,-35 400,-29 406,-29 406,-29 445,-29 445,-29 451,-29 457,-35 457,-41 457,-41 457,-53 457,-53 457,-59 451,-65 445,-65"/>
<text text-anchor="start" x="406.5" y="-42.8" font-family="Arial" font-size="14.00">2</text>
<polygon fill="lightblue" stroke="transparent" points="425.5,-37 425.5,-56 435.5,-56 435.5,-37 425.5,-37"/>
<polygon fill="darkblue" stroke="transparent" points="437.5,-37 437.5,-56 447.5,-56 447.5,-37 437.5,-37"/>
</g>
<!-- 1&#45;&gt;2 -->
<g id="edge2" class="edge">
<title>1&#45;&gt;2</title>
<path fill="none" stroke="black" d="M350.15,-26.47C360.83,-29.41 372.97,-32.77 384.3,-35.9"/>
<polygon fill="black" stroke="black" points="383.42,-39.29 393.99,-38.57 385.28,-32.54 383.42,-39.29"/>
<text text-anchor="middle" x="372" y="-36.8" font-family="Arial" font-size="14.00">a</text>
</g>
<!-- 2&#45;&gt;3 -->
<g id="edge4" class="edge">
<title>2&#45;&gt;3</title>
<path fill="none" stroke="black" d="M393.97,-50.15C388.01,-50.76 381.81,-51.4 376,-52 328.45,-56.9 316.69,-59.64 269,-63 264.02,-63.35 258.77,-63.64 253.6,-63.89"/>
<polygon fill="black" stroke="black" points="253.05,-60.41 243.2,-64.32 253.34,-67.4 253.05,-60.41"/>
<text text-anchor="middle" x="318.5" y="-64.8" font-family="Arial" font-size="14.00">a</text>
</g>
<!-- 2&#45;&gt;1 -->
<g id="edge5" class="edge">
<title>2&#45;&gt;1</title>
<path fill="none" stroke="black" d="M405.31,-28.89C396.97,-22.22 386.67,-15.45 376,-12 371.02,-10.39 365.69,-9.71 360.35,-9.63"/>
<polygon fill="black" stroke="black" points="359.99,-6.15 350.18,-10.16 360.35,-13.14 359.99,-6.15"/>
<text text-anchor="middle" x="372" y="-15.8" font-family="Arial" font-size="14.00">b</text>
</g>
</g>
</svg>
