<?xml version="1.0" encoding="UTF-8" standalone="no"?>
<!DOCTYPE svg PUBLIC "-//W3C//DTD SVG 1.1//EN"
 "http://www.w3.org/Graphics/SVG/1.1/DTD/svg11.dtd">
<!-- Generated by graphviz version 2.43.0 (0)
 -->
<!-- Title: BuechiClosure(g) Pages: 1 -->
<svg width="354pt" height="152pt"
 viewBox="0.00 0.00 354.00 152.00" xmlns="http://www.w3.org/2000/svg" xmlns:xlink="http://www.w3.org/1999/xlink">
<g id="graph0" class="graph" transform="scale(1 1) rotate(0) translate(4 148)">
<title>BuechiClosure(g)</title>
<!-- dot_dummyinit_1 -->
<g id="node1" class="node">
<title>dot_dummyinit_1</title>
</g>
<!-- 1 -->
<g id="node2" class="node">
<title>1</title>
<ellipse fill="none" stroke="black" cx="60" cy="-22" rx="18" ry="18"/>
<ellipse fill="none" stroke="black" cx="60" cy="-22" rx="22" ry="22"/>
<text text-anchor="middle" x="60" y="-18.3" font-family="Arial" font-size="14.00">1</text>
</g>
<!-- dot_dummyinit_1&#45;&gt;1 -->
<g id="edge1" class="edge">
<title>dot_dummyinit_1&#45;&gt;1</title>
<path fill="none" stroke="black" d="M1.17,-22C2.72,-22 14.89,-22 27.67,-22"/>
<polygon fill="black" stroke="black" points="27.86,-25.5 37.86,-22 27.86,-18.5 27.86,-25.5"/>
</g>
<!-- 2 -->
<g id="node3" class="node">
<title>2</title>
<ellipse fill="none" stroke="black" cx="148" cy="-69" rx="18" ry="18"/>
<ellipse fill="none" stroke="black" cx="148" cy="-69" rx="22" ry="22"/>
<text text-anchor="middle" x="148" y="-65.3" font-family="Arial" font-size="14.00">2</text>
</g>
<!-- 1&#45;&gt;2 -->
<g id="edge2" class="edge">
<title>1&#45;&gt;2</title>
<path fill="none" stroke="black" d="M79.66,-32.2C91.27,-38.54 106.4,-46.81 119.39,-53.91"/>
<polygon fill="black" stroke="black" points="117.92,-57.1 128.38,-58.82 121.28,-50.95 117.92,-57.1"/>
<text text-anchor="middle" x="104" y="-49.8" font-family="Arial" font-size="14.00">a</text>
</g>
<!-- 4 -->
<g id="node4" class="node">
<title>4</title>
<ellipse fill="none" stroke="black" cx="236" cy="-122" rx="18" ry="18"/>
<ellipse fill="none" stroke="black" cx="236" cy="-122" rx="22" ry="22"/>
<text text-anchor="middle" x="236" y="-118.3" font-family="Arial" font-size="14.00">4</text>
</g>
<!-- 2&#45;&gt;4 -->
<g id="edge3" class="edge">
<title>2&#45;&gt;4</title>
<path fill="none" stroke="black" d="M163.88,-84.72C170.75,-91.32 179.31,-98.69 188,-104 193.25,-107.21 199.18,-110.02 205,-112.4"/>
<polygon fill="black" stroke="black" points="203.99,-115.76 214.58,-116 206.45,-109.21 203.99,-115.76"/>
<text text-anchor="middle" x="192" y="-110.8" font-family="Arial" font-size="14.00">c</text>
</g>
<!-- 6 -->
<g id="node5" class="node">
<title>6</title>
<ellipse fill="none" stroke="black" cx="236" cy="-56" rx="18" ry="18"/>
<ellipse fill="none" stroke="black" cx="236" cy="-56" rx="22" ry="22"/>
<text text-anchor="middle" x="236" y="-52.3" font-family="Arial" font-size="14.00">6</text>
</g>
<!-- 2&#45;&gt;6 -->
<g id="edge4" class="edge">
<title>2&#45;&gt;6</title>
<path fill="none" stroke="black" d="M167.47,-58.5C173.78,-55.45 181.01,-52.54 188,-51 193.18,-49.86 198.73,-49.62 204.15,-49.89"/>
<polygon fill="black" stroke="black" points="203.94,-53.38 214.25,-50.94 204.67,-46.42 203.94,-53.38"/>
<text text-anchor="middle" x="192" y="-54.8" font-family="Arial" font-size="14.00">d</text>
</g>
<!-- 4&#45;&gt;2 -->
<g id="edge5" class="edge">
<title>4&#45;&gt;2</title>
<path fill="none" stroke="black" d="M220.72,-105.56C213.84,-98.44 205.11,-90.5 196,-85 190.8,-81.86 184.9,-79.23 179.09,-77.08"/>
<polygon fill="black" stroke="black" points="180.1,-73.73 169.51,-73.89 177.89,-80.37 180.1,-73.73"/>
<text text-anchor="middle" x="192" y="-88.8" font-family="Arial" font-size="14.00">b</text>
</g>
<!-- 7 -->
<g id="node6" class="node">
<title>7</title>
<ellipse fill="none" stroke="black" cx="324" cy="-39" rx="18" ry="18"/>
<ellipse fill="none" stroke="black" cx="324" cy="-39" rx="22" ry="22"/>
<text text-anchor="middle" x="324" y="-35.3" font-family="Arial" font-size="14.00">7</text>
</g>
<!-- 6&#45;&gt;7 -->
<g id="edge6" class="edge">
<title>6&#45;&gt;7</title>
<path fill="none" stroke="black" d="M258.24,-57.19C266.38,-57.22 275.69,-56.73 284,-55 287.47,-54.28 291.03,-53.25 294.51,-52.07"/>
<polygon fill="black" stroke="black" points="295.92,-55.28 304,-48.43 293.41,-48.74 295.92,-55.28"/>
<text text-anchor="middle" x="280" y="-59.8" font-family="Arial" font-size="14.00">a</text>
</g>
<!-- 7&#45;&gt;1 -->
<g id="edge8" class="edge">
<title>7&#45;&gt;1</title>
<path fill="none" stroke="black" d="M302.68,-33.54C289.95,-30.4 273.14,-26.73 258,-25 199.75,-18.35 131.2,-19.26 92.25,-20.59"/>
<polygon fill="black" stroke="black" points="91.94,-17.1 82.08,-20.97 92.2,-24.09 91.94,-17.1"/>
<text text-anchor="middle" x="192" y="-24.8" font-family="Arial" font-size="14.00">c</text>
</g>
<!-- 7&#45;&gt;6 -->
<g id="edge7" class="edge">
<title>7&#45;&gt;6</title>
<path fill="none" stroke="black" d="M302.18,-35.02C293.93,-34.13 284.42,-33.97 276,-36 272.04,-36.96 268.02,-38.39 264.15,-40.06"/>
<polygon fill="black" stroke="black" points="262.4,-37.02 254.95,-44.55 265.47,-43.31 262.4,-37.02"/>
<text text-anchor="middle" x="280" y="-39.8" font-family="Arial" font-size="14.00">b</text>
</g>
</g>
</svg>
