<?xml version="1.0" encoding="UTF-8" standalone="no"?>
<!DOCTYPE svg PUBLIC "-//W3C//DTD SVG 1.1//EN"
 "http://www.w3.org/Graphics/SVG/1.1/DTD/svg11.dtd">
<!-- Generated by graphviz version 12.2.1 (20241206.2353)
 -->
<!-- Title: A&#45;B&#45;Spec&#45;Alternate Pages: 1 -->
<svg width="394pt" height="108pt"
 viewBox="0.00 0.00 393.97 107.75" xmlns="http://www.w3.org/2000/svg" xmlns:xlink="http://www.w3.org/1999/xlink">
<g id="graph0" class="graph" transform="scale(1 1) rotate(0) translate(4 103.75)">
<title>A&#45;B&#45;Spec&#45;Alternate</title>
<!-- dot_dummyinit_1 -->
<g id="node1" class="node">
<title>dot_dummyinit_1</title>
</g>
<!-- A1 -->
<g id="node2" class="node">
<title>A1</title>
<path fill="none" stroke="black" d="M82.22,-36C82.22,-36 49.72,-36 49.72,-36 43.72,-36 37.72,-30 37.72,-24 37.72,-24 37.72,-12 37.72,-12 37.72,-6 43.72,0 49.72,0 49.72,0 82.22,0 82.22,0 88.22,0 94.22,-6 94.22,-12 94.22,-12 94.22,-24 94.22,-24 94.22,-30 88.22,-36 82.22,-36"/>
<text text-anchor="start" x="49.72" y="-12.57" font-family="Arial" font-size="14.00">A1</text>
<polygon fill="black" stroke="none" points="76.22,-8.12 76.22,-27.88 84.22,-27.88 84.22,-8.12 76.22,-8.12"/>
</g>
<!-- dot_dummyinit_1&#45;&gt;A1 -->
<g id="edge1" class="edge">
<title>dot_dummyinit_1&#45;&gt;A1</title>
<path fill="none" stroke="black" d="M0.77,-18C1.59,-18 13.1,-18 26.16,-18"/>
<polygon fill="black" stroke="black" points="25.78,-21.5 35.78,-18 25.78,-14.5 25.78,-21.5"/>
</g>
<!-- A2 -->
<g id="node3" class="node">
<title>A2</title>
<path fill="none" stroke="black" d="M179.72,-66C179.72,-66 149.72,-66 149.72,-66 143.72,-66 137.72,-60 137.72,-54 137.72,-54 137.72,-42 137.72,-42 137.72,-36 143.72,-30 149.72,-30 149.72,-30 179.72,-30 179.72,-30 185.72,-30 191.72,-36 191.72,-42 191.72,-42 191.72,-54 191.72,-54 191.72,-60 185.72,-66 179.72,-66"/>
<text text-anchor="middle" x="164.72" y="-42.58" font-family="Arial" font-size="14.00">A2</text>
</g>
<!-- A1&#45;&gt;A2 -->
<g id="edge2" class="edge">
<title>A1&#45;&gt;A2</title>
<path fill="none" stroke="black" d="M94.69,-26.6C104.64,-29.68 116.02,-33.21 126.63,-36.5"/>
<polygon fill="black" stroke="black" points="125.29,-39.75 135.88,-39.37 127.36,-33.06 125.29,-39.75"/>
<text text-anchor="middle" x="115.97" y="-36.35" font-family="Arial" font-size="14.00">a</text>
</g>
<!-- A2&#45;&gt;A2 -->
<g id="edge3" class="edge">
<title>A2&#45;&gt;A2</title>
<path fill="none" stroke="black" d="M155.97,-66.15C154.62,-75.54 157.54,-84 164.72,-84 168.76,-84 171.45,-81.32 172.79,-77.31"/>
<polygon fill="black" stroke="black" points="176.26,-77.86 173.38,-67.66 169.28,-77.43 176.26,-77.86"/>
<text text-anchor="middle" x="164.72" y="-86.45" font-family="Arial" font-size="14.00">a, d</text>
</g>
<!-- B1 -->
<g id="node4" class="node">
<title>B1</title>
<path fill="none" stroke="black" d="M276.47,-66C276.47,-66 246.47,-66 246.47,-66 240.47,-66 234.47,-60 234.47,-54 234.47,-54 234.47,-42 234.47,-42 234.47,-36 240.47,-30 246.47,-30 246.47,-30 276.47,-30 276.47,-30 282.47,-30 288.47,-36 288.47,-42 288.47,-42 288.47,-54 288.47,-54 288.47,-60 282.47,-66 276.47,-66"/>
<text text-anchor="middle" x="261.47" y="-42.58" font-family="Arial" font-size="14.00">B1</text>
</g>
<!-- A2&#45;&gt;B1 -->
<g id="edge4" class="edge">
<title>A2&#45;&gt;B1</title>
<path fill="none" stroke="black" d="M192.11,-48C201.66,-48 212.63,-48 222.95,-48"/>
<polygon fill="black" stroke="black" points="222.7,-51.5 232.7,-48 222.7,-44.5 222.7,-51.5"/>
<text text-anchor="middle" x="213.1" y="-50.45" font-family="Arial" font-size="14.00">c</text>
</g>
<!-- B2 -->
<g id="node5" class="node">
<title>B2</title>
<path fill="none" stroke="black" d="M373.97,-36C373.97,-36 343.97,-36 343.97,-36 337.97,-36 331.97,-30 331.97,-24 331.97,-24 331.97,-12 331.97,-12 331.97,-6 337.97,0 343.97,0 343.97,0 373.97,0 373.97,0 379.97,0 385.97,-6 385.97,-12 385.97,-12 385.97,-24 385.97,-24 385.97,-30 379.97,-36 373.97,-36"/>
<text text-anchor="middle" x="358.97" y="-12.57" font-family="Arial" font-size="14.00">B2</text>
</g>
<!-- B1&#45;&gt;B2 -->
<g id="edge5" class="edge">
<title>B1&#45;&gt;B2</title>
<path fill="none" stroke="black" d="M288.82,-39.72C298.73,-36.61 310.2,-33.01 320.92,-29.64"/>
<polygon fill="black" stroke="black" points="321.77,-33.04 330.26,-26.7 319.67,-26.36 321.77,-33.04"/>
<text text-anchor="middle" x="310.22" y="-36.35" font-family="Arial" font-size="14.00">b</text>
</g>
<!-- B2&#45;&gt;A1 -->
<g id="edge6" class="edge">
<title>B2&#45;&gt;A1</title>
<path fill="none" stroke="black" d="M331.78,-18C280.4,-18 166.16,-18 105.91,-18"/>
<polygon fill="black" stroke="black" points="106.12,-14.5 96.12,-18 106.12,-21.5 106.12,-14.5"/>
<text text-anchor="middle" x="213.1" y="-20.45" font-family="Arial" font-size="14.00">c</text>
</g>
<!-- B2&#45;&gt;B2 -->
<g id="edge7" class="edge">
<title>B2&#45;&gt;B2</title>
<path fill="none" stroke="black" d="M350.15,-36.15C348.79,-45.54 351.73,-54 358.97,-54 363.04,-54 365.75,-51.32 367.1,-47.31"/>
<polygon fill="black" stroke="black" points="370.58,-47.86 367.7,-37.66 363.59,-47.43 370.58,-47.86"/>
<text text-anchor="middle" x="358.97" y="-56.45" font-family="Arial" font-size="14.00">b, d</text>
</g>
</g>
</svg>
