<?xml version="1.0" encoding="UTF-8" standalone="no"?>
<!DOCTYPE svg PUBLIC "-//W3C//DTD SVG 1.1//EN"
 "http://www.w3.org/Graphics/SVG/1.1/DTD/svg11.dtd">
<!-- Generated by graphviz version 2.43.0 (0)
 -->
<!-- Title: wPlant2 Pages: 1 -->
<svg width="296pt" height="200pt"
 viewBox="0.00 0.00 296.00 200.00" xmlns="http://www.w3.org/2000/svg" xmlns:xlink="http://www.w3.org/1999/xlink">
<g id="graph0" class="graph" transform="scale(1 1) rotate(0) translate(4 196)">
<title>wPlant2</title>
<!-- dot_dummyinit_1 -->
<g id="node1" class="node">
<title>dot_dummyinit_1</title>
</g>
<!-- I -->
<g id="node2" class="node">
<title>I</title>
<path fill="none" stroke="black" d="M80,-115C80,-115 50,-115 50,-115 44,-115 38,-109 38,-103 38,-103 38,-91 38,-91 38,-85 44,-79 50,-79 50,-79 80,-79 80,-79 86,-79 92,-85 92,-91 92,-91 92,-103 92,-103 92,-109 86,-115 80,-115"/>
<text text-anchor="start" x="55" y="-92.8" font-family="Arial" font-size="14.00">I</text>
<polygon fill="black" stroke="transparent" points="69,-87 69,-106 77,-106 77,-87 69,-87"/>
</g>
<!-- dot_dummyinit_1&#45;&gt;I -->
<g id="edge1" class="edge">
<title>dot_dummyinit_1&#45;&gt;I</title>
<path fill="none" stroke="black" d="M1.05,-97C1.88,-97 14.11,-97 27.57,-97"/>
<polygon fill="black" stroke="black" points="27.94,-100.5 37.94,-97 27.94,-93.5 27.94,-100.5"/>
</g>
<!-- A1 -->
<g id="node3" class="node">
<title>A1</title>
<path fill="none" stroke="black" d="M178,-192C178,-192 148,-192 148,-192 142,-192 136,-186 136,-180 136,-180 136,-168 136,-168 136,-162 142,-156 148,-156 148,-156 178,-156 178,-156 184,-156 190,-162 190,-168 190,-168 190,-180 190,-180 190,-186 184,-192 178,-192"/>
<text text-anchor="middle" x="163" y="-170.3" font-family="Arial" font-size="14.00">A1</text>
</g>
<!-- I&#45;&gt;A1 -->
<g id="edge2" class="edge">
<title>I&#45;&gt;A1</title>
<path fill="none" stroke="black" d="M84.84,-115.03C92.47,-122.1 101.48,-130.14 110,-137 115.51,-141.44 121.5,-145.96 127.4,-150.25"/>
<polygon fill="black" stroke="black" points="125.73,-153.36 135.89,-156.34 129.8,-147.67 125.73,-153.36"/>
<text text-anchor="middle" x="114" y="-145.8" font-family="Arial" font-size="14.00">a</text>
</g>
<!-- B1 -->
<g id="node5" class="node">
<title>B1</title>
<path fill="none" stroke="black" d="M178,-36C178,-36 148,-36 148,-36 142,-36 136,-30 136,-24 136,-24 136,-12 136,-12 136,-6 142,0 148,0 148,0 178,0 178,0 184,0 190,-6 190,-12 190,-12 190,-24 190,-24 190,-30 184,-36 178,-36"/>
<text text-anchor="middle" x="163" y="-14.3" font-family="Arial" font-size="14.00">B1</text>
</g>
<!-- I&#45;&gt;B1 -->
<g id="edge3" class="edge">
<title>I&#45;&gt;B1</title>
<path fill="none" stroke="black" d="M77.6,-78.99C85.64,-67.57 97.18,-53.11 110,-43 115.06,-39.01 120.86,-35.45 126.71,-32.35"/>
<polygon fill="black" stroke="black" points="128.4,-35.42 135.84,-27.87 125.32,-29.13 128.4,-35.42"/>
<text text-anchor="middle" x="114" y="-46.8" font-family="Arial" font-size="14.00">b</text>
</g>
<!-- A2 -->
<g id="node4" class="node">
<title>A2</title>
<path fill="none" stroke="black" d="M276,-155C276,-155 246,-155 246,-155 240,-155 234,-149 234,-143 234,-143 234,-131 234,-131 234,-125 240,-119 246,-119 246,-119 276,-119 276,-119 282,-119 288,-125 288,-131 288,-131 288,-143 288,-143 288,-149 282,-155 276,-155"/>
<text text-anchor="middle" x="261" y="-133.3" font-family="Arial" font-size="14.00">A2</text>
</g>
<!-- A1&#45;&gt;A2 -->
<g id="edge4" class="edge">
<title>A1&#45;&gt;A2</title>
<path fill="none" stroke="black" d="M190.23,-163.89C200.71,-159.85 212.94,-155.14 224.21,-150.79"/>
<polygon fill="black" stroke="black" points="225.73,-153.96 233.8,-147.1 223.21,-147.43 225.73,-153.96"/>
<text text-anchor="middle" x="212" y="-159.8" font-family="Arial" font-size="14.00">c</text>
</g>
<!-- A2&#45;&gt;I -->
<g id="edge5" class="edge">
<title>A2&#45;&gt;I</title>
<path fill="none" stroke="black" d="M233.94,-131.63C200.06,-124.64 140.68,-112.4 102.37,-104.5"/>
<polygon fill="black" stroke="black" points="102.66,-100.99 92.16,-102.39 101.25,-107.84 102.66,-100.99"/>
<text text-anchor="middle" x="163" y="-125.8" font-family="Arial" font-size="14.00">f</text>
</g>
<!-- A2&#45;&gt;A2 -->
<g id="edge6" class="edge">
<title>A2&#45;&gt;A2</title>
<path fill="none" stroke="black" d="M252.32,-155.15C250.98,-164.54 253.88,-173 261,-173 265.34,-173 268.11,-169.86 269.31,-165.28"/>
<polygon fill="black" stroke="black" points="272.82,-165.27 269.68,-155.15 265.82,-165.02 272.82,-165.27"/>
<text text-anchor="middle" x="261" y="-176.8" font-family="Arial" font-size="14.00">c</text>
</g>
<!-- B2 -->
<g id="node6" class="node">
<title>B2</title>
<path fill="none" stroke="black" d="M276,-61C276,-61 246,-61 246,-61 240,-61 234,-55 234,-49 234,-49 234,-37 234,-37 234,-31 240,-25 246,-25 246,-25 276,-25 276,-25 282,-25 288,-31 288,-37 288,-37 288,-49 288,-49 288,-55 282,-61 276,-61"/>
<text text-anchor="middle" x="261" y="-39.3" font-family="Arial" font-size="14.00">B2</text>
</g>
<!-- B1&#45;&gt;B2 -->
<g id="edge7" class="edge">
<title>B1&#45;&gt;B2</title>
<path fill="none" stroke="black" d="M190.23,-24.83C200.6,-27.53 212.69,-30.68 223.87,-33.59"/>
<polygon fill="black" stroke="black" points="223.24,-37.04 233.8,-36.18 225,-30.27 223.24,-37.04"/>
<text text-anchor="middle" x="212" y="-35.8" font-family="Arial" font-size="14.00">d</text>
</g>
<!-- B2&#45;&gt;I -->
<g id="edge8" class="edge">
<title>B2&#45;&gt;I</title>
<path fill="none" stroke="black" d="M233.94,-50.25C199.91,-59.73 140.17,-76.35 101.88,-87.01"/>
<polygon fill="black" stroke="black" points="100.86,-83.66 92.16,-89.72 102.74,-90.41 100.86,-83.66"/>
<text text-anchor="middle" x="163" y="-80.8" font-family="Arial" font-size="14.00">f</text>
</g>
<!-- B2&#45;&gt;B2 -->
<g id="edge9" class="edge">
<title>B2&#45;&gt;B2</title>
<path fill="none" stroke="black" d="M252.32,-61.15C250.98,-70.54 253.88,-79 261,-79 265.34,-79 268.11,-75.86 269.31,-71.28"/>
<polygon fill="black" stroke="black" points="272.82,-71.27 269.68,-61.15 265.82,-71.02 272.82,-71.27"/>
<text text-anchor="middle" x="261" y="-82.8" font-family="Arial" font-size="14.00">d</text>
</g>
</g>
</svg>
