<?xml version="1.0" encoding="UTF-8" standalone="no"?>
<!DOCTYPE svg PUBLIC "-//W3C//DTD SVG 1.1//EN"
 "http://www.w3.org/Graphics/SVG/1.1/DTD/svg11.dtd">
<!-- Generated by graphviz version 12.2.1 (20241206.2353)
 -->
<!-- Title: Automaton(A&#45;B&#45;Spec&#45;Eventually&#45;B).x.A&#45;B&#45;Machine Pages: 1 -->
<svg width="720pt" height="205pt"
 viewBox="0.00 0.00 720.00 204.57" xmlns="http://www.w3.org/2000/svg" xmlns:xlink="http://www.w3.org/1999/xlink">
<g id="graph0" class="graph" transform="scale(0.677807 0.677807) rotate(0) translate(4 297.81)">
<title>Automaton(A&#45;B&#45;Spec&#45;Eventually&#45;B).x.A&#45;B&#45;Machine</title>
<!-- dot_dummyinit_0 -->
<g id="node1" class="node">
<title>dot_dummyinit_0</title>
</g>
<!-- A|I|r1m -->
<g id="node2" class="node">
<title>A|I|r1m</title>
<path fill="none" stroke="black" d="M178.25,-288C178.25,-288 103,-288 103,-288 97,-288 91,-282 91,-276 91,-276 91,-264 91,-264 91,-258 97,-252 103,-252 103,-252 178.25,-252 178.25,-252 184.25,-252 190.25,-258 190.25,-264 190.25,-264 190.25,-276 190.25,-276 190.25,-282 184.25,-288 178.25,-288"/>
<text text-anchor="start" x="103" y="-264.57" font-family="Arial" font-size="14.00">A|I|r1m</text>
<polygon fill="lightblue" stroke="none" points="158.25,-260.12 158.25,-279.88 168.25,-279.88 168.25,-260.12 158.25,-260.12"/>
<polygon fill="black" stroke="none" points="170.25,-260.12 170.25,-279.88 180.25,-279.88 180.25,-260.12 170.25,-260.12"/>
</g>
<!-- dot_dummyinit_0&#45;&gt;A|I|r1m -->
<g id="edge1" class="edge">
<title>dot_dummyinit_0&#45;&gt;A|I|r1m</title>
<path fill="none" stroke="black" d="M53.89,-270C61.59,-270 70.36,-270 79.3,-270"/>
<polygon fill="black" stroke="black" points="79.11,-273.5 89.11,-270 79.11,-266.5 79.11,-273.5"/>
</g>
<!-- A|R|r1m -->
<g id="node5" class="node">
<title>A|R|r1m</title>
<path fill="none" stroke="black" d="M315,-250C315,-250 245.75,-250 245.75,-250 239.75,-250 233.75,-244 233.75,-238 233.75,-238 233.75,-226 233.75,-226 233.75,-220 239.75,-214 245.75,-214 245.75,-214 315,-214 315,-214 321,-214 327,-220 327,-226 327,-226 327,-238 327,-238 327,-244 321,-250 315,-250"/>
<text text-anchor="start" x="245.75" y="-226.57" font-family="Arial" font-size="14.00">A|R|r1m</text>
<polygon fill="lightblue" stroke="none" points="307,-222.12 307,-241.88 317,-241.88 317,-222.12 307,-222.12"/>
</g>
<!-- A|I|r1m&#45;&gt;A|R|r1m -->
<g id="edge2" class="edge">
<title>A|I|r1m&#45;&gt;A|R|r1m</title>
<path fill="none" stroke="black" d="M190.58,-256.5C200.91,-253.65 211.89,-250.62 222.49,-247.69"/>
<polygon fill="black" stroke="black" points="223.18,-251.13 231.89,-245.1 221.31,-244.39 223.18,-251.13"/>
<text text-anchor="middle" x="212" y="-253.45" font-family="Arial" font-size="14.00">a</text>
</g>
<!-- B|R|r1m -->
<g id="node6" class="node">
<title>B|R|r1m</title>
<path fill="none" stroke="black" d="M587,-223C587,-223 517.75,-223 517.75,-223 511.75,-223 505.75,-217 505.75,-211 505.75,-211 505.75,-199 505.75,-199 505.75,-193 511.75,-187 517.75,-187 517.75,-187 587,-187 587,-187 593,-187 599,-193 599,-199 599,-199 599,-211 599,-211 599,-217 593,-223 587,-223"/>
<text text-anchor="start" x="517.75" y="-199.57" font-family="Arial" font-size="14.00">B|R|r1m</text>
<polygon fill="lightblue" stroke="none" points="579,-195.12 579,-214.88 589,-214.88 589,-195.12 579,-195.12"/>
</g>
<!-- A|I|r1m&#45;&gt;B|R|r1m -->
<g id="edge3" class="edge">
<title>A|I|r1m&#45;&gt;B|R|r1m</title>
<path fill="none" stroke="black" d="M190.6,-277.29C233.6,-282.35 297.66,-286.62 352.5,-277 405.51,-267.7 463.01,-245.45 502.48,-228.13"/>
<polygon fill="black" stroke="black" points="503.77,-231.38 511.48,-224.11 500.92,-224.99 503.77,-231.38"/>
<text text-anchor="middle" x="348.75" y="-280.51" font-family="Arial" font-size="14.00">b</text>
</g>
<!-- dump|R|r2m -->
<g id="node3" class="node">
<title>dump|R|r2m</title>
<path fill="none" stroke="black" d="M858.25,-87C858.25,-87 790.5,-87 790.5,-87 784.5,-87 778.5,-81 778.5,-75 778.5,-75 778.5,-63 778.5,-63 778.5,-57 784.5,-51 790.5,-51 790.5,-51 858.25,-51 858.25,-51 864.25,-51 870.25,-57 870.25,-63 870.25,-63 870.25,-75 870.25,-75 870.25,-81 864.25,-87 858.25,-87"/>
<text text-anchor="middle" x="824.38" y="-63.58" font-family="Arial" font-size="14.00">dump|R|r2m</text>
</g>
<!-- dump|F|r2m -->
<g id="node4" class="node">
<title>dump|F|r2m</title>
<path fill="none" stroke="black" d="M1025,-102C1025,-102 958.75,-102 958.75,-102 952.75,-102 946.75,-96 946.75,-90 946.75,-90 946.75,-78 946.75,-78 946.75,-72 952.75,-66 958.75,-66 958.75,-66 1025,-66 1025,-66 1031,-66 1037,-72 1037,-78 1037,-78 1037,-90 1037,-90 1037,-96 1031,-102 1025,-102"/>
<text text-anchor="middle" x="991.88" y="-78.58" font-family="Arial" font-size="14.00">dump|F|r2m</text>
</g>
<!-- dump|R|r2m&#45;&gt;dump|F|r2m -->
<g id="edge13" class="edge">
<title>dump|R|r2m&#45;&gt;dump|F|r2m</title>
<path fill="none" stroke="black" d="M870.54,-84.23C876.68,-85.78 882.95,-87.12 889,-88 903.86,-90.17 920.07,-90.46 935.09,-89.88"/>
<polygon fill="black" stroke="black" points="935,-93.39 944.8,-89.37 934.62,-86.4 935,-93.39"/>
<text text-anchor="middle" x="900.25" y="-92.39" font-family="Arial" font-size="14.00">d</text>
</g>
<!-- dump|I|r2m -->
<g id="node10" class="node">
<title>dump|I|r2m</title>
<path fill="none" stroke="black" d="M1042.25,-36C1042.25,-36 941.5,-36 941.5,-36 935.5,-36 929.5,-30 929.5,-24 929.5,-24 929.5,-12 929.5,-12 929.5,-6 935.5,0 941.5,0 941.5,0 1042.25,0 1042.25,0 1048.25,0 1054.25,-6 1054.25,-12 1054.25,-12 1054.25,-24 1054.25,-24 1054.25,-30 1048.25,-36 1042.25,-36"/>
<text text-anchor="start" x="941.5" y="-12.57" font-family="Arial" font-size="14.00">dump|I|r2m</text>
<polygon fill="darkblue" stroke="none" points="1022.25,-8.12 1022.25,-27.88 1032.25,-27.88 1032.25,-8.12 1022.25,-8.12"/>
<polygon fill="black" stroke="none" points="1034.25,-8.12 1034.25,-27.88 1044.25,-27.88 1044.25,-8.12 1034.25,-8.12"/>
</g>
<!-- dump|R|r2m&#45;&gt;dump|I|r2m -->
<g id="edge12" class="edge">
<title>dump|R|r2m&#45;&gt;dump|I|r2m</title>
<path fill="none" stroke="black" d="M870.51,-54.12C876.72,-52.12 883.01,-50.12 889,-48.25 898.41,-45.32 908.32,-42.3 918.12,-39.34"/>
<polygon fill="black" stroke="black" points="919.09,-42.71 927.66,-36.49 917.08,-36.01 919.09,-42.71"/>
<text text-anchor="middle" x="900.25" y="-50.7" font-family="Arial" font-size="14.00">c</text>
</g>
<!-- dump|F|r2m&#45;&gt;dump|R|r2m -->
<g id="edge17" class="edge">
<title>dump|F|r2m&#45;&gt;dump|R|r2m</title>
<path fill="none" stroke="black" d="M946.6,-73.62C935.23,-71.4 922.97,-69.38 911.5,-68.25 901.55,-67.27 899,-68.19 889,-68.25 886.67,-68.26 884.29,-68.28 881.89,-68.3"/>
<polygon fill="black" stroke="black" points="882.04,-64.8 872.07,-68.39 882.1,-71.8 882.04,-64.8"/>
<text text-anchor="middle" x="900.25" y="-70.7" font-family="Arial" font-size="14.00">a, b</text>
</g>
<!-- A|R|r1m&#45;&gt;A|I|r1m -->
<g id="edge4" class="edge">
<title>A|R|r1m&#45;&gt;A|I|r1m</title>
<path fill="none" stroke="black" d="M233.36,-226.95C224.9,-227.12 216.23,-228.05 208.25,-230.25 196.54,-233.48 184.81,-239.36 174.53,-245.64"/>
<polygon fill="black" stroke="black" points="172.94,-242.5 166.44,-250.87 176.74,-248.38 172.94,-242.5"/>
<text text-anchor="middle" x="212" y="-232.7" font-family="Arial" font-size="14.00">c</text>
</g>
<!-- A|F|r1m -->
<g id="node11" class="node">
<title>A|F|r1m</title>
<path fill="none" stroke="black" d="M450.25,-223C450.25,-223 382.5,-223 382.5,-223 376.5,-223 370.5,-217 370.5,-211 370.5,-211 370.5,-199 370.5,-199 370.5,-193 376.5,-187 382.5,-187 382.5,-187 450.25,-187 450.25,-187 456.25,-187 462.25,-193 462.25,-199 462.25,-199 462.25,-211 462.25,-211 462.25,-217 456.25,-223 450.25,-223"/>
<text text-anchor="start" x="382.5" y="-199.57" font-family="Arial" font-size="14.00">A|F|r1m</text>
<polygon fill="lightblue" stroke="none" points="442.25,-195.12 442.25,-214.88 452.25,-214.88 452.25,-195.12 442.25,-195.12"/>
</g>
<!-- A|R|r1m&#45;&gt;A|F|r1m -->
<g id="edge5" class="edge">
<title>A|R|r1m&#45;&gt;A|F|r1m</title>
<path fill="none" stroke="black" d="M327.49,-222.71C337.61,-220.67 348.43,-218.49 358.91,-216.38"/>
<polygon fill="black" stroke="black" points="359.49,-219.83 368.6,-214.43 358.1,-212.97 359.49,-219.83"/>
<text text-anchor="middle" x="348.75" y="-220.95" font-family="Arial" font-size="14.00">d</text>
</g>
<!-- A|I|r2m -->
<g id="node7" class="node">
<title>A|I|r2m</title>
<path fill="none" stroke="black" d="M1035.5,-223C1035.5,-223 948.25,-223 948.25,-223 942.25,-223 936.25,-217 936.25,-211 936.25,-211 936.25,-199 936.25,-199 936.25,-193 942.25,-187 948.25,-187 948.25,-187 1035.5,-187 1035.5,-187 1041.5,-187 1047.5,-193 1047.5,-199 1047.5,-199 1047.5,-211 1047.5,-211 1047.5,-217 1041.5,-223 1035.5,-223"/>
<text text-anchor="start" x="948.25" y="-199.57" font-family="Arial" font-size="14.00">A|I|r2m</text>
<polygon fill="lightblue" stroke="none" points="1003.5,-195.12 1003.5,-214.88 1013.5,-214.88 1013.5,-195.12 1003.5,-195.12"/>
<polygon fill="darkblue" stroke="none" points="1015.5,-195.12 1015.5,-214.88 1025.5,-214.88 1025.5,-195.12 1015.5,-195.12"/>
<polygon fill="black" stroke="none" points="1027.5,-195.12 1027.5,-214.88 1037.5,-214.88 1037.5,-195.12 1027.5,-195.12"/>
</g>
<!-- B|R|r1m&#45;&gt;A|I|r2m -->
<g id="edge6" class="edge">
<title>B|R|r1m&#45;&gt;A|I|r2m</title>
<path fill="none" stroke="black" d="M599.37,-205C677.13,-205 834.87,-205 924.58,-205"/>
<polygon fill="black" stroke="black" points="924.45,-208.5 934.45,-205 924.45,-201.5 924.45,-208.5"/>
<text text-anchor="middle" x="756" y="-207.45" font-family="Arial" font-size="14.00">c</text>
</g>
<!-- B|F|r2m -->
<g id="node8" class="node">
<title>B|F|r2m</title>
<path fill="none" stroke="black" d="M722.25,-142C722.25,-142 654.5,-142 654.5,-142 648.5,-142 642.5,-136 642.5,-130 642.5,-130 642.5,-118 642.5,-118 642.5,-112 648.5,-106 654.5,-106 654.5,-106 722.25,-106 722.25,-106 728.25,-106 734.25,-112 734.25,-118 734.25,-118 734.25,-130 734.25,-130 734.25,-136 728.25,-142 722.25,-142"/>
<text text-anchor="start" x="654.5" y="-118.58" font-family="Arial" font-size="14.00">B|F|r2m</text>
<polygon fill="lightblue" stroke="none" points="714.25,-114.12 714.25,-133.88 724.25,-133.88 724.25,-114.12 714.25,-114.12"/>
</g>
<!-- B|R|r1m&#45;&gt;B|F|r2m -->
<g id="edge7" class="edge">
<title>B|R|r1m&#45;&gt;B|F|r2m</title>
<path fill="none" stroke="black" d="M574.89,-186.58C586.83,-176.86 602.22,-165.15 617,-156.25 622.11,-153.17 627.56,-150.2 633.09,-147.37"/>
<polygon fill="black" stroke="black" points="634.26,-150.7 641.69,-143.14 631.17,-144.42 634.26,-150.7"/>
<text text-anchor="middle" x="620.75" y="-158.7" font-family="Arial" font-size="14.00">d</text>
</g>
<!-- A|I|r2m&#45;&gt;A|R|r1m -->
<g id="edge8" class="edge">
<title>A|I|r2m&#45;&gt;A|R|r1m</title>
<path fill="none" stroke="black" d="M959.06,-223.35C926.56,-240.34 874.09,-263 825.38,-263 415.38,-263 415.38,-263 415.38,-263 389.61,-263 361.75,-257.49 338.15,-251.12"/>
<polygon fill="black" stroke="black" points="339.31,-247.81 328.74,-248.46 337.41,-254.55 339.31,-247.81"/>
<text text-anchor="middle" x="620.75" y="-265.45" font-family="Arial" font-size="14.00">a</text>
</g>
<!-- A|I|r2m&#45;&gt;B|R|r1m -->
<g id="edge9" class="edge">
<title>A|I|r2m&#45;&gt;B|R|r1m</title>
<path fill="none" stroke="black" d="M935.97,-196.32C887.65,-189.67 815.36,-182.12 752.25,-185.25 704.47,-187.62 650.46,-193.16 610.8,-197.78"/>
<polygon fill="black" stroke="black" points="610.51,-194.29 600.99,-198.94 611.34,-201.24 610.51,-194.29"/>
<text text-anchor="middle" x="756" y="-187.7" font-family="Arial" font-size="14.00">b</text>
</g>
<!-- B|F|r2m&#45;&gt;dump|R|r2m -->
<g id="edge10" class="edge">
<title>B|F|r2m&#45;&gt;dump|R|r2m</title>
<path fill="none" stroke="black" d="M722.14,-105.54C731.68,-100.55 742.24,-95.38 752.25,-91.25 757.15,-89.23 762.3,-87.28 767.5,-85.44"/>
<polygon fill="black" stroke="black" points="768.4,-88.83 776.74,-82.3 766.15,-82.2 768.4,-88.83"/>
<text text-anchor="middle" x="756" y="-93.7" font-family="Arial" font-size="14.00">a</text>
</g>
<!-- B|R|r2m -->
<g id="node9" class="node">
<title>B|R|r2m</title>
<path fill="none" stroke="black" d="M859,-158C859,-158 789.75,-158 789.75,-158 783.75,-158 777.75,-152 777.75,-146 777.75,-146 777.75,-134 777.75,-134 777.75,-128 783.75,-122 789.75,-122 789.75,-122 859,-122 859,-122 865,-122 871,-128 871,-134 871,-134 871,-146 871,-146 871,-152 865,-158 859,-158"/>
<text text-anchor="start" x="789.75" y="-134.57" font-family="Arial" font-size="14.00">B|R|r2m</text>
<polygon fill="lightblue" stroke="none" points="851,-130.12 851,-149.88 861,-149.88 861,-130.12 851,-130.12"/>
</g>
<!-- B|F|r2m&#45;&gt;B|R|r2m -->
<g id="edge11" class="edge">
<title>B|F|r2m&#45;&gt;B|R|r2m</title>
<path fill="none" stroke="black" d="M734.74,-129.42C744.89,-130.63 755.78,-131.93 766.33,-133.19"/>
<polygon fill="black" stroke="black" points="765.75,-136.64 776.1,-134.35 766.58,-129.69 765.75,-136.64"/>
<text text-anchor="middle" x="756" y="-134.45" font-family="Arial" font-size="14.00">b</text>
</g>
<!-- B|R|r2m&#45;&gt;A|I|r2m -->
<g id="edge14" class="edge">
<title>B|R|r2m&#45;&gt;A|I|r2m</title>
<path fill="none" stroke="black" d="M871.38,-145.49C884.61,-147.92 898.87,-151.37 911.5,-156.25 927.28,-162.35 943.42,-171.6 956.99,-180.41"/>
<polygon fill="black" stroke="black" points="954.86,-183.2 965.11,-185.86 958.75,-177.38 954.86,-183.2"/>
<text text-anchor="middle" x="900.25" y="-158.7" font-family="Arial" font-size="14.00">c</text>
</g>
<!-- B|R|r2m&#45;&gt;B|F|r2m -->
<g id="edge15" class="edge">
<title>B|R|r2m&#45;&gt;B|F|r2m</title>
<path fill="none" stroke="black" d="M788.22,-121.62C779.18,-117.75 769.31,-114.24 759.75,-112.25 755.18,-111.3 750.43,-110.88 745.65,-110.86"/>
<polygon fill="black" stroke="black" points="745.83,-107.34 736.04,-111.39 746.22,-114.33 745.83,-107.34"/>
<text text-anchor="middle" x="756" y="-114.7" font-family="Arial" font-size="14.00">d</text>
</g>
<!-- dump|I|r2m&#45;&gt;dump|R|r2m -->
<g id="edge16" class="edge">
<title>dump|I|r2m&#45;&gt;dump|R|r2m</title>
<path fill="none" stroke="black" d="M929.16,-13.96C915.64,-14.72 901.6,-16.82 889,-21.25 875.6,-25.96 862.69,-34.59 852.05,-43.24"/>
<polygon fill="black" stroke="black" points="849.77,-40.58 844.47,-49.75 854.34,-45.89 849.77,-40.58"/>
<text text-anchor="middle" x="900.25" y="-23.7" font-family="Arial" font-size="14.00">a, b</text>
</g>
<!-- A|F|r1m&#45;&gt;A|R|r1m -->
<g id="edge18" class="edge">
<title>A|F|r1m&#45;&gt;A|R|r1m</title>
<path fill="none" stroke="black" d="M370.36,-196.17C361.86,-195.77 353.1,-196.23 345,-198.25 336.21,-200.44 327.3,-204.09 319.05,-208.2"/>
<polygon fill="black" stroke="black" points="317.5,-205.06 310.33,-212.86 320.8,-211.23 317.5,-205.06"/>
<text text-anchor="middle" x="348.75" y="-200.7" font-family="Arial" font-size="14.00">a</text>
</g>
<!-- A|F|r1m&#45;&gt;B|R|r1m -->
<g id="edge19" class="edge">
<title>A|F|r1m&#45;&gt;B|R|r1m</title>
<path fill="none" stroke="black" d="M462.74,-205C472.89,-205 483.78,-205 494.33,-205"/>
<polygon fill="black" stroke="black" points="494.09,-208.5 504.09,-205 494.09,-201.5 494.09,-208.5"/>
<text text-anchor="middle" x="484" y="-207.45" font-family="Arial" font-size="14.00">b</text>
</g>
</g>
</svg>
