<?xml version="1.0" encoding="UTF-8" standalone="no"?>
<!DOCTYPE svg PUBLIC "-//W3C//DTD SVG 1.1//EN"
 "http://www.w3.org/Graphics/SVG/1.1/DTD/svg11.dtd">
<!-- Generated by graphviz version 12.2.1 (20241206.2353)
 -->
<!-- Title: A&#45;B&#45;Machine Pages: 1 -->
<svg width="423pt" height="142pt"
 viewBox="0.00 0.00 423.21 142.39" xmlns="http://www.w3.org/2000/svg" xmlns:xlink="http://www.w3.org/1999/xlink">
<g id="graph0" class="graph" transform="scale(1 1) rotate(0) translate(4 138.39)">
<title>A&#45;B&#45;Machine</title>
<!-- dot_dummyinit_1 -->
<g id="node1" class="node">
<title>dot_dummyinit_1</title>
</g>
<!-- I -->
<g id="node2" class="node">
<title>I</title>
<ellipse fill="none" stroke="black" cx="59.72" cy="-55.41" rx="18" ry="18"/>
<ellipse fill="none" stroke="black" cx="59.72" cy="-55.41" rx="22" ry="22"/>
<text text-anchor="middle" x="59.72" y="-49.98" font-family="Arial" font-size="14.00">I</text>
</g>
<!-- dot_dummyinit_1&#45;&gt;I -->
<g id="edge1" class="edge">
<title>dot_dummyinit_1&#45;&gt;I</title>
<path fill="none" stroke="black" d="M0.89,-55.41C2.38,-55.41 13.74,-55.41 26,-55.41"/>
<polygon fill="black" stroke="black" points="25.74,-58.91 35.74,-55.41 25.74,-51.91 25.74,-58.91"/>
</g>
<!-- A -->
<g id="node3" class="node">
<title>A</title>
<ellipse fill="none" stroke="black" cx="143.22" cy="-111.41" rx="18" ry="18"/>
<text text-anchor="middle" x="143.22" y="-105.98" font-family="Arial" font-size="14.00">A</text>
</g>
<!-- I&#45;&gt;A -->
<g id="edge2" class="edge">
<title>I&#45;&gt;A</title>
<path fill="none" stroke="black" d="M76.33,-70.55C83.2,-76.79 91.55,-83.85 99.72,-89.41 104.83,-92.88 110.55,-96.2 116.11,-99.15"/>
<polygon fill="black" stroke="black" points="114.51,-102.26 125.01,-103.64 117.66,-96.01 114.51,-102.26"/>
<text text-anchor="middle" x="103.47" y="-96.07" font-family="Arial" font-size="14.00">a</text>
</g>
<!-- B -->
<g id="node4" class="node">
<title>B</title>
<ellipse fill="none" stroke="black" cx="309.47" cy="-59.41" rx="18" ry="18"/>
<text text-anchor="middle" x="309.47" y="-53.98" font-family="Arial" font-size="14.00">B</text>
</g>
<!-- I&#45;&gt;B -->
<g id="edge3" class="edge">
<title>I&#45;&gt;B</title>
<path fill="none" stroke="black" d="M76.52,-41.14C83.28,-35.61 91.51,-29.61 99.72,-25.41 135.4,-7.15 147,3.68 186.72,-1.66 226.34,-6.98 238.76,-5.58 273.47,-25.41 279.17,-28.67 284.62,-33.07 289.46,-37.62"/>
<polygon fill="black" stroke="black" points="286.87,-39.98 296.36,-44.69 291.88,-35.09 286.87,-39.98"/>
<text text-anchor="middle" x="182.97" y="-4.11" font-family="Arial" font-size="14.00">b</text>
</g>
<!-- A&#45;&gt;I -->
<g id="edge4" class="edge">
<title>A&#45;&gt;I</title>
<path fill="none" stroke="black" d="M132.87,-96.37C126.61,-87.44 117.63,-76.56 107.22,-69.66 102.83,-66.75 97.81,-64.41 92.73,-62.54"/>
<polygon fill="black" stroke="black" points="93.79,-59.2 83.2,-59.59 91.72,-65.88 93.79,-59.2"/>
<text text-anchor="middle" x="103.47" y="-72.11" font-family="Arial" font-size="14.00">c</text>
</g>
<!-- FA -->
<g id="node5" class="node">
<title>FA</title>
<ellipse fill="none" stroke="black" cx="226.34" cy="-89.41" rx="21.62" ry="21.62"/>
<text text-anchor="middle" x="226.34" y="-83.98" font-family="Arial" font-size="14.00">FA</text>
</g>
<!-- A&#45;&gt;FA -->
<g id="edge5" class="edge">
<title>A&#45;&gt;FA</title>
<path fill="none" stroke="black" d="M155.27,-97.38C161.5,-90.64 169.88,-83.26 179.22,-79.66 184.16,-77.75 189.56,-77.43 194.86,-78.02"/>
<polygon fill="black" stroke="black" points="194.1,-81.44 204.62,-80.17 195.6,-74.6 194.1,-81.44"/>
<text text-anchor="middle" x="182.97" y="-82.11" font-family="Arial" font-size="14.00">d</text>
</g>
<!-- B&#45;&gt;I -->
<g id="edge6" class="edge">
<title>B&#45;&gt;I</title>
<path fill="none" stroke="black" d="M290.99,-59.12C278.91,-58.92 262.46,-58.65 247.97,-58.41 193.7,-57.53 130.59,-56.52 93.24,-55.93"/>
<polygon fill="black" stroke="black" points="93.63,-52.43 83.58,-55.77 93.52,-59.43 93.63,-52.43"/>
<text text-anchor="middle" x="182.97" y="-59.87" font-family="Arial" font-size="14.00">c</text>
</g>
<!-- FB -->
<g id="node6" class="node">
<title>FB</title>
<ellipse fill="none" stroke="black" cx="393.09" cy="-98.41" rx="22.12" ry="22.12"/>
<text text-anchor="middle" x="393.09" y="-92.98" font-family="Arial" font-size="14.00">FB</text>
</g>
<!-- B&#45;&gt;FB -->
<g id="edge7" class="edge">
<title>B&#45;&gt;FB</title>
<path fill="none" stroke="black" d="M326.13,-67.06C332.17,-70 339.13,-73.38 345.47,-76.41 350.88,-79 356.65,-81.74 362.23,-84.38"/>
<polygon fill="black" stroke="black" points="360.65,-87.51 371.19,-88.61 363.64,-81.17 360.65,-87.51"/>
<text text-anchor="middle" x="349.22" y="-81.88" font-family="Arial" font-size="14.00">d</text>
</g>
<!-- FA&#45;&gt;A -->
<g id="edge8" class="edge">
<title>FA&#45;&gt;A</title>
<path fill="none" stroke="black" d="M205.11,-94.9C195.13,-97.6 182.95,-100.91 172.1,-103.85"/>
<polygon fill="black" stroke="black" points="171.22,-100.46 162.49,-106.45 173.06,-107.22 171.22,-100.46"/>
<text text-anchor="middle" x="182.97" y="-104.18" font-family="Arial" font-size="14.00">a</text>
</g>
<!-- FA&#45;&gt;B -->
<g id="edge9" class="edge">
<title>FA&#45;&gt;B</title>
<path fill="none" stroke="black" d="M246.98,-82.15C257.32,-78.32 270.16,-73.58 281.42,-69.41"/>
<polygon fill="black" stroke="black" points="282.43,-72.77 290.6,-66.02 280,-66.2 282.43,-72.77"/>
<text text-anchor="middle" x="269.72" y="-76.86" font-family="Arial" font-size="14.00">b</text>
</g>
<!-- FB&#45;&gt;A -->
<g id="edge10" class="edge">
<title>FB&#45;&gt;A</title>
<path fill="none" stroke="black" d="M371.19,-102.51C343.25,-107.78 292.1,-116.7 247.97,-120.41 220.84,-122.69 213.94,-121.19 186.72,-121.41 183.39,-121.44 182.52,-121.87 179.22,-121.41 176.73,-121.06 174.17,-120.58 171.61,-120.01"/>
<polygon fill="black" stroke="black" points="172.78,-116.7 162.21,-117.54 170.99,-123.47 172.78,-116.7"/>
<text text-anchor="middle" x="269.72" y="-121.09" font-family="Arial" font-size="14.00">a</text>
</g>
<!-- FB&#45;&gt;B -->
<g id="edge11" class="edge">
<title>FB&#45;&gt;B</title>
<path fill="none" stroke="black" d="M380.29,-80.03C373.49,-71.19 364.09,-61.48 352.97,-56.66 348.46,-54.71 343.44,-53.95 338.46,-53.91"/>
<polygon fill="black" stroke="black" points="338.4,-50.4 328.73,-54.72 338.99,-57.37 338.4,-50.4"/>
<text text-anchor="middle" x="349.22" y="-59.11" font-family="Arial" font-size="14.00">b</text>
</g>
</g>
</svg>
