<?xml version="1.0" encoding="UTF-8" standalone="no"?>
<!DOCTYPE svg PUBLIC "-//W3C//DTD SVG 1.1//EN"
 "http://www.w3.org/Graphics/SVG/1.1/DTD/svg11.dtd">
<!-- Generated by graphviz version 12.2.1 (20241206.2353)
 -->
<!-- Title: A&#45;B&#45;Machine Pages: 1 -->
<svg width="490pt" height="138pt"
 viewBox="0.00 0.00 489.72 137.62" xmlns="http://www.w3.org/2000/svg" xmlns:xlink="http://www.w3.org/1999/xlink">
<g id="graph0" class="graph" transform="scale(1 1) rotate(0) translate(4 133.62)">
<title>A&#45;B&#45;Machine</title>
<!-- dot_dummyinit_1 -->
<g id="node1" class="node">
<title>dot_dummyinit_1</title>
</g>
<!-- I -->
<g id="node2" class="node">
<title>I</title>
<path fill="none" stroke="black" d="M79.72,-73.62C79.72,-73.62 49.72,-73.62 49.72,-73.62 43.72,-73.62 37.72,-67.62 37.72,-61.62 37.72,-61.62 37.72,-49.62 37.72,-49.62 37.72,-43.62 43.72,-37.62 49.72,-37.62 49.72,-37.62 79.72,-37.62 79.72,-37.62 85.72,-37.62 91.72,-43.62 91.72,-49.62 91.72,-49.62 91.72,-61.62 91.72,-61.62 91.72,-67.62 85.72,-73.62 79.72,-73.62"/>
<text text-anchor="start" x="54.85" y="-50.19" font-family="Arial" font-size="14.00">I</text>
<polygon fill="black" stroke="none" points="68.6,-45.74 68.6,-65.49 76.6,-65.49 76.6,-45.74 68.6,-45.74"/>
</g>
<!-- dot_dummyinit_1&#45;&gt;I -->
<g id="edge1" class="edge">
<title>dot_dummyinit_1&#45;&gt;I</title>
<path fill="none" stroke="black" d="M0.77,-55.62C1.57,-55.62 12.96,-55.62 25.83,-55.62"/>
<polygon fill="black" stroke="black" points="25.79,-59.12 35.79,-55.62 25.79,-52.12 25.79,-59.12"/>
</g>
<!-- A -->
<g id="node3" class="node">
<title>A</title>
<path fill="none" stroke="black" d="M177.22,-129.62C177.22,-129.62 147.22,-129.62 147.22,-129.62 141.22,-129.62 135.22,-123.62 135.22,-117.62 135.22,-117.62 135.22,-105.62 135.22,-105.62 135.22,-99.62 141.22,-93.62 147.22,-93.62 147.22,-93.62 177.22,-93.62 177.22,-93.62 183.22,-93.62 189.22,-99.62 189.22,-105.62 189.22,-105.62 189.22,-117.62 189.22,-117.62 189.22,-123.62 183.22,-129.62 177.22,-129.62"/>
<text text-anchor="middle" x="162.22" y="-106.19" font-family="Arial" font-size="14.00">A</text>
</g>
<!-- I&#45;&gt;A -->
<g id="edge2" class="edge">
<title>I&#45;&gt;A</title>
<path fill="none" stroke="black" d="M87.33,-74.07C94.22,-79.47 102.06,-85.12 109.72,-89.62 114.4,-92.37 119.49,-94.96 124.58,-97.34"/>
<polygon fill="black" stroke="black" points="122.97,-100.46 133.54,-101.29 125.8,-94.05 122.97,-100.46"/>
<text text-anchor="middle" x="113.47" y="-95.75" font-family="Arial" font-size="14.00">a</text>
</g>
<!-- B -->
<g id="node4" class="node">
<title>B</title>
<path fill="none" stroke="black" d="M372.22,-77.62C372.22,-77.62 342.22,-77.62 342.22,-77.62 336.22,-77.62 330.22,-71.62 330.22,-65.62 330.22,-65.62 330.22,-53.62 330.22,-53.62 330.22,-47.62 336.22,-41.62 342.22,-41.62 342.22,-41.62 372.22,-41.62 372.22,-41.62 378.22,-41.62 384.22,-47.62 384.22,-53.62 384.22,-53.62 384.22,-65.62 384.22,-65.62 384.22,-71.62 378.22,-77.62 372.22,-77.62"/>
<text text-anchor="middle" x="357.22" y="-54.19" font-family="Arial" font-size="14.00">B</text>
</g>
<!-- I&#45;&gt;B -->
<g id="edge3" class="edge">
<title>I&#45;&gt;B</title>
<path fill="none" stroke="black" d="M89.47,-37.15C95.79,-32.89 102.79,-28.7 109.72,-25.62 153.43,-6.17 167.22,3.83 214.72,-1.87 259,-7.19 272.03,-6.28 312.22,-25.62 317.42,-28.12 322.58,-31.3 327.45,-34.72"/>
<polygon fill="black" stroke="black" points="325.07,-37.3 335.16,-40.53 329.28,-31.71 325.07,-37.3"/>
<text text-anchor="middle" x="210.97" y="-4.32" font-family="Arial" font-size="14.00">b</text>
</g>
<!-- A&#45;&gt;I -->
<g id="edge4" class="edge">
<title>A&#45;&gt;I</title>
<path fill="none" stroke="black" d="M145.68,-93.21C137.88,-85.02 127.85,-75.88 117.22,-69.87 112.78,-67.36 107.88,-65.27 102.92,-63.54"/>
<polygon fill="black" stroke="black" points="104.14,-60.25 93.55,-60.73 102.12,-66.96 104.14,-60.25"/>
<text text-anchor="middle" x="113.47" y="-72.32" font-family="Arial" font-size="14.00">c</text>
</g>
<!-- FA -->
<g id="node5" class="node">
<title>FA</title>
<path fill="none" stroke="black" d="M274.72,-103.62C274.72,-103.62 244.72,-103.62 244.72,-103.62 238.72,-103.62 232.72,-97.62 232.72,-91.62 232.72,-91.62 232.72,-79.62 232.72,-79.62 232.72,-73.62 238.72,-67.62 244.72,-67.62 244.72,-67.62 274.72,-67.62 274.72,-67.62 280.72,-67.62 286.72,-73.62 286.72,-79.62 286.72,-79.62 286.72,-91.62 286.72,-91.62 286.72,-97.62 280.72,-103.62 274.72,-103.62"/>
<text text-anchor="middle" x="259.72" y="-80.19" font-family="Arial" font-size="14.00">FA</text>
</g>
<!-- A&#45;&gt;FA -->
<g id="edge5" class="edge">
<title>A&#45;&gt;FA</title>
<path fill="none" stroke="black" d="M183.21,-93.17C190.28,-87.81 198.61,-82.65 207.22,-79.87 211.57,-78.46 216.23,-77.84 220.9,-77.75"/>
<polygon fill="black" stroke="black" points="220.65,-81.24 230.84,-78.37 221.08,-74.25 220.65,-81.24"/>
<text text-anchor="middle" x="210.97" y="-82.32" font-family="Arial" font-size="14.00">d</text>
</g>
<!-- B&#45;&gt;I -->
<g id="edge6" class="edge">
<title>B&#45;&gt;I</title>
<path fill="none" stroke="black" d="M329.82,-59.23C316.84,-59.05 300.96,-58.82 286.72,-58.62 222.23,-57.72 147.15,-56.71 103.19,-56.12"/>
<polygon fill="black" stroke="black" points="103.47,-52.62 93.43,-55.99 103.38,-59.62 103.47,-52.62"/>
<text text-anchor="middle" x="210.97" y="-60.07" font-family="Arial" font-size="14.00">c</text>
</g>
<!-- FB -->
<g id="node6" class="node">
<title>FB</title>
<path fill="none" stroke="black" d="M469.72,-116.62C469.72,-116.62 439.72,-116.62 439.72,-116.62 433.72,-116.62 427.72,-110.62 427.72,-104.62 427.72,-104.62 427.72,-92.62 427.72,-92.62 427.72,-86.62 433.72,-80.62 439.72,-80.62 439.72,-80.62 469.72,-80.62 469.72,-80.62 475.72,-80.62 481.72,-86.62 481.72,-92.62 481.72,-92.62 481.72,-104.62 481.72,-104.62 481.72,-110.62 475.72,-116.62 469.72,-116.62"/>
<text text-anchor="middle" x="454.72" y="-93.19" font-family="Arial" font-size="14.00">FB</text>
</g>
<!-- B&#45;&gt;FB -->
<g id="edge7" class="edge">
<title>B&#45;&gt;FB</title>
<path fill="none" stroke="black" d="M384.57,-70.38C394.59,-74.47 406.2,-79.21 417,-83.63"/>
<polygon fill="black" stroke="black" points="415.48,-86.78 426.06,-87.32 418.12,-80.3 415.48,-86.78"/>
<text text-anchor="middle" x="405.97" y="-82.74" font-family="Arial" font-size="14.00">d</text>
</g>
<!-- FA&#45;&gt;A -->
<g id="edge8" class="edge">
<title>FA&#45;&gt;A</title>
<path fill="none" stroke="black" d="M232.46,-92.77C222.55,-95.47 211.08,-98.59 200.37,-101.51"/>
<polygon fill="black" stroke="black" points="199.76,-98.04 191.03,-104.05 201.6,-104.8 199.76,-98.04"/>
<text text-anchor="middle" x="210.97" y="-101.85" font-family="Arial" font-size="14.00">a</text>
</g>
<!-- FA&#45;&gt;B -->
<g id="edge9" class="edge">
<title>FA&#45;&gt;B</title>
<path fill="none" stroke="black" d="M287.07,-78.45C296.98,-75.75 308.45,-72.62 319.17,-69.71"/>
<polygon fill="black" stroke="black" points="319.77,-73.17 328.5,-67.17 317.93,-66.42 319.77,-73.17"/>
<text text-anchor="middle" x="308.47" y="-75.85" font-family="Arial" font-size="14.00">b</text>
</g>
<!-- FB&#45;&gt;A -->
<g id="edge10" class="edge">
<title>FB&#45;&gt;A</title>
<path fill="none" stroke="black" d="M427.24,-101.71C383.21,-106.68 292.12,-116.23 214.72,-119.62 210.22,-119.82 205.53,-119.64 200.88,-119.21"/>
<polygon fill="black" stroke="black" points="201.44,-115.76 191.07,-117.95 200.54,-122.7 201.44,-115.76"/>
<text text-anchor="middle" x="308.47" y="-116.1" font-family="Arial" font-size="14.00">a</text>
</g>
<!-- FB&#45;&gt;B -->
<g id="edge11" class="edge">
<title>FB&#45;&gt;B</title>
<path fill="none" stroke="black" d="M439.51,-80.2C431.75,-71.67 421.35,-62.43 409.72,-57.87 405.32,-56.14 400.53,-55.21 395.72,-54.8"/>
<polygon fill="black" stroke="black" points="396.12,-51.31 386.1,-54.73 396.07,-58.31 396.12,-51.31"/>
<text text-anchor="middle" x="405.97" y="-60.32" font-family="Arial" font-size="14.00">b</text>
</g>
</g>
</svg>
