<?xml version="1.0" encoding="UTF-8" standalone="no"?>
<!DOCTYPE svg PUBLIC "-//W3C//DTD SVG 1.1//EN"
 "http://www.w3.org/Graphics/SVG/1.1/DTD/svg11.dtd">
<!-- Generated by graphviz version 2.43.0 (0)
 -->
<!-- Title: G Pages: 1 -->
<svg width="720pt" height="149pt"
 viewBox="0.00 0.00 720.00 148.93" xmlns="http://www.w3.org/2000/svg" xmlns:xlink="http://www.w3.org/1999/xlink">
<g id="graph0" class="graph" transform="scale(1.09 1.09) rotate(0) translate(4 159)">
<title>G</title>
<!-- dot_dummyinit_1 -->
<g id="node1" class="node">
<title>dot_dummyinit_1</title>
</g>
<!-- s1 -->
<g id="node2" class="node">
<title>s1</title>
<path fill="none" stroke="black" d="M80,-78C80,-78 50,-78 50,-78 44,-78 38,-72 38,-66 38,-66 38,-54 38,-54 38,-48 44,-42 50,-42 50,-42 80,-42 80,-42 86,-42 92,-48 92,-54 92,-54 92,-66 92,-66 92,-72 86,-78 80,-78"/>
<text text-anchor="middle" x="65" y="-56.3" font-family="Arial" font-size="14.00">s1</text>
</g>
<!-- dot_dummyinit_1&#45;&gt;s1 -->
<g id="edge1" class="edge">
<title>dot_dummyinit_1&#45;&gt;s1</title>
<path fill="none" stroke="black" d="M1.05,-60C1.88,-60 14.11,-60 27.57,-60"/>
<polygon fill="black" stroke="black" points="27.94,-63.5 37.94,-60 27.94,-56.5 27.94,-63.5"/>
</g>
<!-- s2 -->
<g id="node3" class="node">
<title>s2</title>
<path fill="none" stroke="black" d="M179,-78C179,-78 148,-78 148,-78 142,-78 136,-72 136,-66 136,-66 136,-54 136,-54 136,-48 142,-42 148,-42 148,-42 179,-42 179,-42 185,-42 191,-48 191,-54 191,-54 191,-66 191,-66 191,-72 185,-78 179,-78"/>
<text text-anchor="start" x="148.5" y="-55.8" font-family="Arial" font-size="14.00">s2</text>
<polygon fill="black" stroke="transparent" points="173.5,-50 173.5,-69 181.5,-69 181.5,-50 173.5,-50"/>
</g>
<!-- s1&#45;&gt;s2 -->
<g id="edge2" class="edge">
<title>s1&#45;&gt;s2</title>
<path fill="none" stroke="black" d="M92.11,-60C102.35,-60 114.28,-60 125.39,-60"/>
<polygon fill="black" stroke="black" points="125.69,-63.5 135.69,-60 125.69,-56.5 125.69,-63.5"/>
<text text-anchor="middle" x="114" y="-63.8" font-family="Arial" font-size="14.00">a</text>
</g>
<!-- s2&#45;&gt;s1 -->
<g id="edge3" class="edge">
<title>s2&#45;&gt;s1</title>
<path fill="none" stroke="black" d="M135.95,-44.27C127.77,-41.1 118.64,-39.21 110,-41 107.34,-41.55 104.65,-42.27 101.97,-43.1"/>
<polygon fill="black" stroke="black" points="100.64,-39.86 92.42,-46.54 103.02,-46.44 100.64,-39.86"/>
<text text-anchor="middle" x="114" y="-44.8" font-family="Arial" font-size="14.00">b</text>
</g>
<!-- s3 -->
<g id="node5" class="node">
<title>s3</title>
<path fill="none" stroke="black" d="M277,-78C277,-78 247,-78 247,-78 241,-78 235,-72 235,-66 235,-66 235,-54 235,-54 235,-48 241,-42 247,-42 247,-42 277,-42 277,-42 283,-42 289,-48 289,-54 289,-54 289,-66 289,-66 289,-72 283,-78 277,-78"/>
<text text-anchor="middle" x="262" y="-56.3" font-family="Arial" font-size="14.00">s3</text>
</g>
<!-- s2&#45;&gt;s3 -->
<g id="edge4" class="edge">
<title>s2&#45;&gt;s3</title>
<path fill="none" stroke="black" d="M191.12,-60C201.44,-60 213.42,-60 224.51,-60"/>
<polygon fill="black" stroke="black" points="224.8,-63.5 234.8,-60 224.8,-56.5 224.8,-63.5"/>
<text text-anchor="middle" x="213" y="-63.8" font-family="Arial" font-size="14.00">a</text>
</g>
<!-- s9 -->
<g id="node4" class="node">
<title>s9</title>
<path fill="none" stroke="black" d="M572,-105C572,-105 541,-105 541,-105 535,-105 529,-99 529,-93 529,-93 529,-81 529,-81 529,-75 535,-69 541,-69 541,-69 572,-69 572,-69 578,-69 584,-75 584,-81 584,-81 584,-93 584,-93 584,-99 578,-105 572,-105"/>
<text text-anchor="start" x="541.5" y="-82.8" font-family="Arial" font-size="14.00">s9</text>
<polygon fill="black" stroke="transparent" points="566.5,-77 566.5,-96 574.5,-96 574.5,-77 566.5,-77"/>
</g>
<!-- s10 -->
<g id="node11" class="node">
<title>s10</title>
<path fill="none" stroke="black" d="M670,-155C670,-155 640,-155 640,-155 634,-155 628,-149 628,-143 628,-143 628,-131 628,-131 628,-125 634,-119 640,-119 640,-119 670,-119 670,-119 676,-119 682,-125 682,-131 682,-131 682,-143 682,-143 682,-149 676,-155 670,-155"/>
<text text-anchor="middle" x="655" y="-133.3" font-family="Arial" font-size="14.00">s10</text>
</g>
<!-- s9&#45;&gt;s10 -->
<g id="edge13" class="edge">
<title>s9&#45;&gt;s10</title>
<path fill="none" stroke="black" d="M584.12,-100.8C594.87,-106.36 607.41,-112.86 618.88,-118.8"/>
<polygon fill="black" stroke="black" points="617.31,-121.93 627.8,-123.42 620.53,-115.71 617.31,-121.93"/>
<text text-anchor="middle" x="606" y="-116.8" font-family="Arial" font-size="14.00">a</text>
</g>
<!-- s11 -->
<g id="node12" class="node">
<title>s11</title>
<path fill="none" stroke="black" d="M670,-101C670,-101 640,-101 640,-101 634,-101 628,-95 628,-89 628,-89 628,-77 628,-77 628,-71 634,-65 640,-65 640,-65 670,-65 670,-65 676,-65 682,-71 682,-77 682,-77 682,-89 682,-89 682,-95 676,-101 670,-101"/>
<text text-anchor="middle" x="655" y="-79.3" font-family="Arial" font-size="14.00">s11</text>
</g>
<!-- s9&#45;&gt;s11 -->
<g id="edge14" class="edge">
<title>s9&#45;&gt;s11</title>
<path fill="none" stroke="black" d="M584.12,-85.9C594.44,-85.47 606.42,-84.97 617.51,-84.51"/>
<polygon fill="black" stroke="black" points="617.95,-88 627.8,-84.09 617.66,-81 617.95,-88"/>
<text text-anchor="middle" x="606" y="-88.8" font-family="Arial" font-size="14.00">b</text>
</g>
<!-- s4 -->
<g id="node6" class="node">
<title>s4</title>
<path fill="none" stroke="black" d="M375,-78C375,-78 345,-78 345,-78 339,-78 333,-72 333,-66 333,-66 333,-54 333,-54 333,-48 339,-42 345,-42 345,-42 375,-42 375,-42 381,-42 387,-48 387,-54 387,-54 387,-66 387,-66 387,-72 381,-78 375,-78"/>
<text text-anchor="middle" x="360" y="-56.3" font-family="Arial" font-size="14.00">s4</text>
</g>
<!-- s3&#45;&gt;s4 -->
<g id="edge5" class="edge">
<title>s3&#45;&gt;s4</title>
<path fill="none" stroke="black" d="M289.23,-60C299.5,-60 311.45,-60 322.53,-60"/>
<polygon fill="black" stroke="black" points="322.8,-63.5 332.8,-60 322.8,-56.5 322.8,-63.5"/>
<text text-anchor="middle" x="311" y="-63.8" font-family="Arial" font-size="14.00">c</text>
</g>
<!-- s4&#45;&gt;s3 -->
<g id="edge6" class="edge">
<title>s4&#45;&gt;s3</title>
<path fill="none" stroke="black" d="M332.58,-46.54C326.91,-44.25 320.87,-42.21 315,-41 309.72,-39.91 304.26,-40.21 298.95,-41.34"/>
<polygon fill="black" stroke="black" points="297.55,-38.11 289.02,-44.39 299.6,-44.8 297.55,-38.11"/>
<text text-anchor="middle" x="311" y="-44.8" font-family="Arial" font-size="14.00">d</text>
</g>
<!-- s5 -->
<g id="node7" class="node">
<title>s5</title>
<path fill="none" stroke="black" d="M473,-78C473,-78 443,-78 443,-78 437,-78 431,-72 431,-66 431,-66 431,-54 431,-54 431,-48 437,-42 443,-42 443,-42 473,-42 473,-42 479,-42 485,-48 485,-54 485,-54 485,-66 485,-66 485,-72 479,-78 473,-78"/>
<text text-anchor="middle" x="458" y="-56.3" font-family="Arial" font-size="14.00">s5</text>
</g>
<!-- s4&#45;&gt;s5 -->
<g id="edge7" class="edge">
<title>s4&#45;&gt;s5</title>
<path fill="none" stroke="black" d="M387.23,-60C397.5,-60 409.45,-60 420.53,-60"/>
<polygon fill="black" stroke="black" points="420.8,-63.5 430.8,-60 420.8,-56.5 420.8,-63.5"/>
<text text-anchor="middle" x="409" y="-63.8" font-family="Arial" font-size="14.00">b</text>
</g>
<!-- s5&#45;&gt;s9 -->
<g id="edge9" class="edge">
<title>s5&#45;&gt;s9</title>
<path fill="none" stroke="black" d="M485.11,-67.31C495.46,-70.2 507.53,-73.58 518.73,-76.71"/>
<polygon fill="black" stroke="black" points="518.12,-80.18 528.69,-79.5 520.01,-73.43 518.12,-80.18"/>
<text text-anchor="middle" x="507" y="-77.8" font-family="Arial" font-size="14.00">b</text>
</g>
<!-- s6 -->
<g id="node8" class="node">
<title>s6</title>
<path fill="none" stroke="black" d="M571.5,-51C571.5,-51 541.5,-51 541.5,-51 535.5,-51 529.5,-45 529.5,-39 529.5,-39 529.5,-27 529.5,-27 529.5,-21 535.5,-15 541.5,-15 541.5,-15 571.5,-15 571.5,-15 577.5,-15 583.5,-21 583.5,-27 583.5,-27 583.5,-39 583.5,-39 583.5,-45 577.5,-51 571.5,-51"/>
<text text-anchor="middle" x="556.5" y="-29.3" font-family="Arial" font-size="14.00">s6</text>
</g>
<!-- s5&#45;&gt;s6 -->
<g id="edge8" class="edge">
<title>s5&#45;&gt;s6</title>
<path fill="none" stroke="black" d="M485.44,-51.28C491.21,-49.46 497.29,-47.61 503,-46 508.31,-44.5 513.95,-43 519.48,-41.59"/>
<polygon fill="black" stroke="black" points="520.39,-44.97 529.24,-39.15 518.69,-38.18 520.39,-44.97"/>
<text text-anchor="middle" x="507" y="-49.8" font-family="Arial" font-size="14.00">a</text>
</g>
<!-- s7 -->
<g id="node9" class="node">
<title>s7</title>
<path fill="none" stroke="black" d="M670,-36C670,-36 640,-36 640,-36 634,-36 628,-30 628,-24 628,-24 628,-12 628,-12 628,-6 634,0 640,0 640,0 670,0 670,0 676,0 682,-6 682,-12 682,-12 682,-24 682,-24 682,-30 676,-36 670,-36"/>
<text text-anchor="middle" x="655" y="-14.3" font-family="Arial" font-size="14.00">s7</text>
</g>
<!-- s6&#45;&gt;s7 -->
<g id="edge10" class="edge">
<title>s6&#45;&gt;s7</title>
<path fill="none" stroke="black" d="M583.61,-28.94C594.13,-27.31 606.43,-25.39 617.78,-23.63"/>
<polygon fill="black" stroke="black" points="618.52,-27.06 627.86,-22.06 617.45,-20.14 618.52,-27.06"/>
<text text-anchor="middle" x="606" y="-29.8" font-family="Arial" font-size="14.00">b</text>
</g>
<!-- s7&#45;&gt;s6 -->
<g id="edge11" class="edge">
<title>s7&#45;&gt;s6</title>
<path fill="none" stroke="black" d="M627.94,-7.64C619.61,-5.61 610.37,-4.73 602,-7 598.8,-7.87 595.6,-9.02 592.46,-10.37"/>
<polygon fill="black" stroke="black" points="590.73,-7.33 583.3,-14.89 593.82,-13.6 590.73,-7.33"/>
<text text-anchor="middle" x="606" y="-10.8" font-family="Arial" font-size="14.00">a</text>
</g>
<!-- s8 -->
<g id="node10" class="node">
<title>s8</title>
<path fill="none" stroke="black" d="M768,-36C768,-36 738,-36 738,-36 732,-36 726,-30 726,-24 726,-24 726,-12 726,-12 726,-6 732,0 738,0 738,0 768,0 768,0 774,0 780,-6 780,-12 780,-12 780,-24 780,-24 780,-30 774,-36 768,-36"/>
<text text-anchor="middle" x="753" y="-14.3" font-family="Arial" font-size="14.00">s8</text>
</g>
<!-- s7&#45;&gt;s8 -->
<g id="edge12" class="edge">
<title>s7&#45;&gt;s8</title>
<path fill="none" stroke="black" d="M682.23,-18C692.5,-18 704.45,-18 715.53,-18"/>
<polygon fill="black" stroke="black" points="715.8,-21.5 725.8,-18 715.8,-14.5 715.8,-21.5"/>
<text text-anchor="middle" x="704" y="-21.8" font-family="Arial" font-size="14.00">a</text>
</g>
</g>
</svg>
