<?xml version="1.0" encoding="UTF-8" standalone="no"?>
<!DOCTYPE svg PUBLIC "-//W3C//DTD SVG 1.1//EN"
 "http://www.w3.org/Graphics/SVG/1.1/DTD/svg11.dtd">
<!-- Generated by graphviz version 12.2.1 (20241206.2353)
 -->
<!-- Title: A&#45;B&#45;Spec&#45;Keep&#45;Running Pages: 1 -->
<svg width="212pt" height="81pt"
 viewBox="0.00 0.00 212.22 81.07" xmlns="http://www.w3.org/2000/svg" xmlns:xlink="http://www.w3.org/1999/xlink">
<g id="graph0" class="graph" transform="scale(1 1) rotate(0) translate(4 77.07)">
<title>A&#45;B&#45;Spec&#45;Keep&#45;Running</title>
<!-- dot_dummyinit_1 -->
<g id="node1" class="node">
<title>dot_dummyinit_1</title>
</g>
<!-- I -->
<g id="node2" class="node">
<title>I</title>
<path fill="none" stroke="black" d="M79.72,-39.32C79.72,-39.32 49.72,-39.32 49.72,-39.32 43.72,-39.32 37.72,-33.32 37.72,-27.32 37.72,-27.32 37.72,-15.32 37.72,-15.32 37.72,-9.32 43.72,-3.32 49.72,-3.32 49.72,-3.32 79.72,-3.32 79.72,-3.32 85.72,-3.32 91.72,-9.32 91.72,-15.32 91.72,-15.32 91.72,-27.32 91.72,-27.32 91.72,-33.32 85.72,-39.32 79.72,-39.32"/>
<text text-anchor="start" x="54.85" y="-15.9" font-family="Arial" font-size="14.00">I</text>
<polygon fill="black" stroke="none" points="68.6,-11.45 68.6,-31.2 76.6,-31.2 76.6,-11.45 68.6,-11.45"/>
</g>
<!-- dot_dummyinit_1&#45;&gt;I -->
<g id="edge1" class="edge">
<title>dot_dummyinit_1&#45;&gt;I</title>
<path fill="none" stroke="black" d="M0.77,-21.32C1.57,-21.32 12.96,-21.32 25.83,-21.32"/>
<polygon fill="black" stroke="black" points="25.79,-24.82 35.79,-21.32 25.79,-17.82 25.79,-24.82"/>
</g>
<!-- B -->
<g id="node3" class="node">
<title>B</title>
<path fill="none" stroke="black" d="M192.22,-39.32C192.22,-39.32 162.22,-39.32 162.22,-39.32 156.22,-39.32 150.22,-33.32 150.22,-27.32 150.22,-27.32 150.22,-15.32 150.22,-15.32 150.22,-9.32 156.22,-3.32 162.22,-3.32 162.22,-3.32 192.22,-3.32 192.22,-3.32 198.22,-3.32 204.22,-9.32 204.22,-15.32 204.22,-15.32 204.22,-27.32 204.22,-27.32 204.22,-33.32 198.22,-39.32 192.22,-39.32"/>
<text text-anchor="middle" x="177.22" y="-15.9" font-family="Arial" font-size="14.00">B</text>
</g>
<!-- I&#45;&gt;B -->
<g id="edge2" class="edge">
<title>I&#45;&gt;B</title>
<path fill="none" stroke="black" d="M92.19,-21.32C106.13,-21.32 123.46,-21.32 138.76,-21.32"/>
<polygon fill="black" stroke="black" points="138.45,-24.82 148.45,-21.32 138.45,-17.82 138.45,-24.82"/>
<text text-anchor="middle" x="120.97" y="-23.77" font-family="Arial" font-size="14.00">a, b</text>
</g>
<!-- B&#45;&gt;I -->
<g id="edge3" class="edge">
<title>B&#45;&gt;I</title>
<path fill="none" stroke="black" d="M149.84,-7.33C144.17,-4.95 138.12,-2.83 132.22,-1.57 122.44,0.52 119.5,0.52 109.72,-1.57 107.42,-2.06 105.09,-2.69 102.77,-3.41"/>
<polygon fill="black" stroke="black" points="101.69,-0.07 93.52,-6.81 104.11,-6.64 101.69,-0.07"/>
<text text-anchor="middle" x="120.97" y="-4.02" font-family="Arial" font-size="14.00">c</text>
</g>
<!-- B&#45;&gt;B -->
<g id="edge4" class="edge">
<title>B&#45;&gt;B</title>
<path fill="none" stroke="black" d="M167.04,-39.47C165.48,-48.86 168.87,-57.32 177.22,-57.32 181.92,-57.32 185.04,-54.64 186.6,-50.63"/>
<polygon fill="black" stroke="black" points="190.07,-51.21 187.29,-40.98 183.09,-50.71 190.07,-51.21"/>
<text text-anchor="middle" x="177.22" y="-59.77" font-family="Arial" font-size="14.00">a, b, d</text>
</g>
</g>
</svg>
