<?xml version="1.0" encoding="UTF-8" standalone="no"?>
<!DOCTYPE svg PUBLIC "-//W3C//DTD SVG 1.1//EN"
 "http://www.w3.org/Graphics/SVG/1.1/DTD/svg11.dtd">
<!-- Generated by graphviz version 12.2.1 (20241206.2353)
 -->
<!-- Title: G Pages: 1 -->
<svg width="720pt" height="164pt"
 viewBox="0.00 0.00 720.00 163.82" xmlns="http://www.w3.org/2000/svg" xmlns:xlink="http://www.w3.org/1999/xlink">
<g id="graph0" class="graph" transform="scale(0.752351 0.752351) rotate(0) translate(4 213.75)">
<title>G</title>
<!-- dot_dummyinit_0 -->
<g id="node1" class="node">
<title>dot_dummyinit_0</title>
</g>
<!-- N0 -->
<g id="node2" class="node">
<title>N0</title>
<path fill="none" stroke="black" d="M133,-153C133,-153 103,-153 103,-153 97,-153 91,-147 91,-141 91,-141 91,-129 91,-129 91,-123 97,-117 103,-117 103,-117 133,-117 133,-117 139,-117 145,-123 145,-129 145,-129 145,-141 145,-141 145,-147 139,-153 133,-153"/>
<text text-anchor="middle" x="118" y="-129.57" font-family="Arial" font-size="14.00">N0</text>
</g>
<!-- dot_dummyinit_0&#45;&gt;N0 -->
<g id="edge1" class="edge">
<title>dot_dummyinit_0&#45;&gt;N0</title>
<path fill="none" stroke="black" d="M53.74,-135C61.72,-135 70.68,-135 79.29,-135"/>
<polygon fill="black" stroke="black" points="79.18,-138.5 89.18,-135 79.18,-131.5 79.18,-138.5"/>
</g>
<!-- N1 -->
<g id="node3" class="node">
<title>N1</title>
<path fill="none" stroke="black" d="M302.5,-176C302.5,-176 272.5,-176 272.5,-176 266.5,-176 260.5,-170 260.5,-164 260.5,-164 260.5,-152 260.5,-152 260.5,-146 266.5,-140 272.5,-140 272.5,-140 302.5,-140 302.5,-140 308.5,-140 314.5,-146 314.5,-152 314.5,-152 314.5,-164 314.5,-164 314.5,-170 308.5,-176 302.5,-176"/>
<text text-anchor="middle" x="287.5" y="-152.57" font-family="Arial" font-size="14.00">N1</text>
</g>
<!-- N0&#45;&gt;N1 -->
<g id="edge2" class="edge">
<title>N0&#45;&gt;N1</title>
<path fill="none" stroke="black" d="M145.17,-138.59C173.12,-142.43 217.64,-148.54 249.23,-152.88"/>
<polygon fill="black" stroke="black" points="248.35,-156.29 258.74,-154.19 249.31,-149.36 248.35,-156.29"/>
<text text-anchor="middle" x="166.75" y="-144.16" font-family="Arial" font-size="14.00">a</text>
</g>
<!-- A1 -->
<g id="node6" class="node">
<title>A1</title>
<path fill="none" stroke="black" d="M230.5,-130C230.5,-130 200.5,-130 200.5,-130 194.5,-130 188.5,-124 188.5,-118 188.5,-118 188.5,-106 188.5,-106 188.5,-100 194.5,-94 200.5,-94 200.5,-94 230.5,-94 230.5,-94 236.5,-94 242.5,-100 242.5,-106 242.5,-106 242.5,-118 242.5,-118 242.5,-124 236.5,-130 230.5,-130"/>
<polygon fill="lightblue" stroke="none" points="199.25,-102.12 199.25,-121.88 209.25,-121.88 209.25,-102.12 199.25,-102.12"/>
<text text-anchor="start" x="213.25" y="-106.58" font-family="Arial" font-size="14.00">A1</text>
</g>
<!-- N0&#45;&gt;A1 -->
<g id="edge3" class="edge">
<title>N0&#45;&gt;A1</title>
<path fill="none" stroke="black" d="M145.32,-125.39C151.09,-123.51 157.21,-121.67 163,-120.25 167.55,-119.13 172.37,-118.13 177.15,-117.24"/>
<polygon fill="black" stroke="black" points="177.37,-120.75 186.64,-115.62 176.2,-113.85 177.37,-120.75"/>
<text text-anchor="middle" x="166.75" y="-122.7" font-family="Arial" font-size="14.00">a</text>
</g>
<!-- N2 -->
<g id="node4" class="node">
<title>N2</title>
<path fill="none" stroke="black" d="M607,-176C607,-176 577,-176 577,-176 571,-176 565,-170 565,-164 565,-164 565,-152 565,-152 565,-146 571,-140 577,-140 577,-140 607,-140 607,-140 613,-140 619,-146 619,-152 619,-152 619,-164 619,-164 619,-170 613,-176 607,-176"/>
<text text-anchor="middle" x="592" y="-152.57" font-family="Arial" font-size="14.00">N2</text>
</g>
<!-- N1&#45;&gt;N2 -->
<g id="edge4" class="edge">
<title>N1&#45;&gt;N2</title>
<path fill="none" stroke="black" d="M314.82,-158C368.56,-158 491.1,-158 553.29,-158"/>
<polygon fill="black" stroke="black" points="553.02,-161.5 563.02,-158 553.02,-154.5 553.02,-161.5"/>
<text text-anchor="middle" x="436" y="-160.45" font-family="Arial" font-size="14.00">a</text>
</g>
<!-- N2&#45;&gt;N2 -->
<g id="edge5" class="edge">
<title>N2&#45;&gt;N2</title>
<path fill="none" stroke="black" d="M581.42,-176.15C579.79,-185.54 583.32,-194 592,-194 596.88,-194 600.14,-191.32 601.76,-187.31"/>
<polygon fill="black" stroke="black" points="605.23,-187.89 602.47,-177.66 598.24,-187.38 605.23,-187.89"/>
<text text-anchor="middle" x="592" y="-196.45" font-family="Arial" font-size="14.00">a</text>
</g>
<!-- N3 -->
<g id="node5" class="node">
<title>N3</title>
<path fill="none" stroke="black" d="M728.12,-179C728.12,-179 698.12,-179 698.12,-179 692.12,-179 686.12,-173 686.12,-167 686.12,-167 686.12,-155 686.12,-155 686.12,-149 692.12,-143 698.12,-143 698.12,-143 728.12,-143 728.12,-143 734.12,-143 740.12,-149 740.12,-155 740.12,-155 740.12,-167 740.12,-167 740.12,-173 734.12,-179 728.12,-179"/>
<text text-anchor="middle" x="713.12" y="-155.57" font-family="Arial" font-size="14.00">N3</text>
</g>
<!-- N2&#45;&gt;N3 -->
<g id="edge6" class="edge">
<title>N2&#45;&gt;N3</title>
<path fill="none" stroke="black" d="M619.44,-158.67C635.55,-159.07 656.42,-159.6 674.26,-160.05"/>
<polygon fill="black" stroke="black" points="674.16,-163.54 684.25,-160.3 674.34,-156.55 674.16,-163.54"/>
<text text-anchor="middle" x="650.5" y="-161.95" font-family="Arial" font-size="14.00">a</text>
</g>
<!-- A2_R -->
<g id="node7" class="node">
<title>A2_R</title>
<path fill="none" stroke="black" d="M402.25,-110C402.25,-110 344.5,-110 344.5,-110 338.5,-110 332.5,-104 332.5,-98 332.5,-98 332.5,-86 332.5,-86 332.5,-80 338.5,-74 344.5,-74 344.5,-74 402.25,-74 402.25,-74 408.25,-74 414.25,-80 414.25,-86 414.25,-86 414.25,-98 414.25,-98 414.25,-104 408.25,-110 402.25,-110"/>
<polygon fill="darkblue" stroke="none" points="342.5,-82.12 342.5,-101.88 352.5,-101.88 352.5,-82.12 342.5,-82.12"/>
<polygon fill="lightblue" stroke="none" points="354.5,-82.12 354.5,-101.88 364.5,-101.88 364.5,-82.12 354.5,-82.12"/>
<text text-anchor="start" x="368.5" y="-86.58" font-family="Arial" font-size="14.00">A2_R</text>
</g>
<!-- A1&#45;&gt;A2_R -->
<g id="edge7" class="edge">
<title>A1&#45;&gt;A2_R</title>
<path fill="none" stroke="black" d="M242.94,-108.61C264.2,-105.88 294.72,-101.96 320.78,-98.62"/>
<polygon fill="black" stroke="black" points="321.04,-102.12 330.51,-97.37 320.15,-95.17 321.04,-102.12"/>
<text text-anchor="middle" x="287.5" y="-108.54" font-family="Arial" font-size="14.00">a</text>
</g>
<!-- A2_R&#45;&gt;A1 -->
<g id="edge8" class="edge">
<title>A2_R&#45;&gt;A1</title>
<path fill="none" stroke="black" d="M332.2,-79.91C310.51,-75.33 283.54,-72.8 260.5,-80.25 255.39,-81.9 250.38,-84.39 245.67,-87.26"/>
<polygon fill="black" stroke="black" points="244.01,-84.16 237.74,-92.7 247.97,-89.93 244.01,-84.16"/>
<text text-anchor="middle" x="287.5" y="-82.7" font-family="Arial" font-size="14.00">a</text>
</g>
<!-- A3 -->
<g id="node8" class="node">
<title>A3</title>
<path fill="none" stroke="black" d="M499.75,-110C499.75,-110 469.75,-110 469.75,-110 463.75,-110 457.75,-104 457.75,-98 457.75,-98 457.75,-86 457.75,-86 457.75,-80 463.75,-74 469.75,-74 469.75,-74 499.75,-74 499.75,-74 505.75,-74 511.75,-80 511.75,-86 511.75,-86 511.75,-98 511.75,-98 511.75,-104 505.75,-110 499.75,-110"/>
<polygon fill="lightblue" stroke="none" points="468.5,-82.12 468.5,-101.88 478.5,-101.88 478.5,-82.12 468.5,-82.12"/>
<text text-anchor="start" x="482.5" y="-86.58" font-family="Arial" font-size="14.00">A3</text>
</g>
<!-- A2_R&#45;&gt;A3 -->
<g id="edge9" class="edge">
<title>A2_R&#45;&gt;A3</title>
<path fill="none" stroke="black" d="M414.48,-92C424.74,-92 435.73,-92 445.87,-92"/>
<polygon fill="black" stroke="black" points="445.77,-95.5 455.77,-92 445.77,-88.5 445.77,-95.5"/>
<text text-anchor="middle" x="436" y="-94.45" font-family="Arial" font-size="14.00">a</text>
</g>
<!-- A3&#45;&gt;N2 -->
<g id="edge10" class="edge">
<title>A3&#45;&gt;N2</title>
<path fill="none" stroke="black" d="M512.04,-108.48C525.1,-116.67 541.07,-126.69 555.23,-135.57"/>
<polygon fill="black" stroke="black" points="553.07,-138.35 563.4,-140.69 556.79,-132.42 553.07,-138.35"/>
<text text-anchor="middle" x="533.5" y="-125.47" font-family="Arial" font-size="14.00">a</text>
</g>
<!-- AB4 -->
<g id="node9" class="node">
<title>AB4</title>
<path fill="none" stroke="black" d="M616.75,-92C616.75,-92 567.25,-92 567.25,-92 561.25,-92 555.25,-86 555.25,-80 555.25,-80 555.25,-68 555.25,-68 555.25,-62 561.25,-56 567.25,-56 567.25,-56 616.75,-56 616.75,-56 622.75,-56 628.75,-62 628.75,-68 628.75,-68 628.75,-80 628.75,-80 628.75,-86 622.75,-92 616.75,-92"/>
<polygon fill="lightblue" stroke="none" points="565.25,-64.12 565.25,-83.88 575.25,-83.88 575.25,-64.12 565.25,-64.12"/>
<polygon fill="#ffcc80" stroke="none" points="577.25,-64.12 577.25,-83.88 587.25,-83.88 587.25,-64.12 577.25,-64.12"/>
<text text-anchor="start" x="591.25" y="-68.58" font-family="Arial" font-size="14.00">AB4</text>
</g>
<!-- A3&#45;&gt;AB4 -->
<g id="edge11" class="edge">
<title>A3&#45;&gt;AB4</title>
<path fill="none" stroke="black" d="M512.04,-87.5C521.71,-85.85 532.98,-83.92 543.92,-82.05"/>
<polygon fill="black" stroke="black" points="544.37,-85.53 553.64,-80.39 543.19,-78.63 544.37,-85.53"/>
<text text-anchor="middle" x="533.5" y="-86.53" font-family="Arial" font-size="14.00">a</text>
</g>
<!-- A5 -->
<g id="node10" class="node">
<title>A5</title>
<path fill="none" stroke="black" d="M728.12,-125C728.12,-125 698.12,-125 698.12,-125 692.12,-125 686.12,-119 686.12,-113 686.12,-113 686.12,-101 686.12,-101 686.12,-95 692.12,-89 698.12,-89 698.12,-89 728.12,-89 728.12,-89 734.12,-89 740.12,-95 740.12,-101 740.12,-101 740.12,-113 740.12,-113 740.12,-119 734.12,-125 728.12,-125"/>
<polygon fill="lightblue" stroke="none" points="696.88,-97.12 696.88,-116.88 706.88,-116.88 706.88,-97.12 696.88,-97.12"/>
<text text-anchor="start" x="710.88" y="-101.58" font-family="Arial" font-size="14.00">A5</text>
</g>
<!-- AB4&#45;&gt;A5 -->
<g id="edge12" class="edge">
<title>AB4&#45;&gt;A5</title>
<path fill="none" stroke="black" d="M629.06,-83.99C643.58,-88.01 660.31,-92.65 674.94,-96.7"/>
<polygon fill="black" stroke="black" points="673.61,-99.96 684.18,-99.26 675.48,-93.22 673.61,-99.96"/>
<text text-anchor="middle" x="650.5" y="-92.95" font-family="Arial" font-size="14.00">a</text>
</g>
<!-- B2_R -->
<g id="node12" class="node">
<title>B2_R</title>
<path fill="none" stroke="black" d="M742,-66C742,-66 684.25,-66 684.25,-66 678.25,-66 672.25,-60 672.25,-54 672.25,-54 672.25,-42 672.25,-42 672.25,-36 678.25,-30 684.25,-30 684.25,-30 742,-30 742,-30 748,-30 754,-36 754,-42 754,-42 754,-54 754,-54 754,-60 748,-66 742,-66"/>
<polygon fill="#ff9900" stroke="none" points="682.25,-38.12 682.25,-57.88 692.25,-57.88 692.25,-38.12 682.25,-38.12"/>
<polygon fill="#ffcc80" stroke="none" points="694.25,-38.12 694.25,-57.88 704.25,-57.88 704.25,-38.12 694.25,-38.12"/>
<text text-anchor="start" x="708.25" y="-42.58" font-family="Arial" font-size="14.00">B2_R</text>
</g>
<!-- AB4&#45;&gt;B2_R -->
<g id="edge13" class="edge">
<title>AB4&#45;&gt;B2_R</title>
<path fill="none" stroke="black" d="M629.06,-66.13C639.13,-63.93 650.26,-61.5 661.01,-59.16"/>
<polygon fill="black" stroke="black" points="661.52,-62.63 670.54,-57.08 660.03,-55.79 661.52,-62.63"/>
<text text-anchor="middle" x="650.5" y="-64.23" font-family="Arial" font-size="14.00">a</text>
</g>
<!-- A6 -->
<g id="node11" class="node">
<title>A6</title>
<path fill="none" stroke="black" d="M839.5,-132C839.5,-132 809.5,-132 809.5,-132 803.5,-132 797.5,-126 797.5,-120 797.5,-120 797.5,-108 797.5,-108 797.5,-102 803.5,-96 809.5,-96 809.5,-96 839.5,-96 839.5,-96 845.5,-96 851.5,-102 851.5,-108 851.5,-108 851.5,-120 851.5,-120 851.5,-126 845.5,-132 839.5,-132"/>
<polygon fill="lightblue" stroke="none" points="808.25,-104.12 808.25,-123.88 818.25,-123.88 818.25,-104.12 808.25,-104.12"/>
<text text-anchor="start" x="822.25" y="-108.58" font-family="Arial" font-size="14.00">A6</text>
</g>
<!-- A5&#45;&gt;A6 -->
<g id="edge14" class="edge">
<title>A5&#45;&gt;A6</title>
<path fill="none" stroke="black" d="M740.34,-108.87C750.26,-109.56 761.65,-110.34 772,-111 776.45,-111.28 781.11,-111.57 785.74,-111.85"/>
<polygon fill="black" stroke="black" points="785.33,-115.33 795.52,-112.42 785.74,-108.34 785.33,-115.33"/>
<text text-anchor="middle" x="775.75" y="-113.89" font-family="Arial" font-size="14.00">a</text>
</g>
<!-- A6&#45;&gt;A5 -->
<g id="edge15" class="edge">
<title>A6&#45;&gt;A5</title>
<path fill="none" stroke="black" d="M797.31,-97.9C791.63,-95.15 785.52,-92.71 779.5,-91.25 770.39,-89.03 760.56,-89.76 751.35,-91.8"/>
<polygon fill="black" stroke="black" points="750.68,-88.35 741.99,-94.42 752.56,-95.09 750.68,-88.35"/>
<text text-anchor="middle" x="775.75" y="-93.7" font-family="Arial" font-size="14.00">a</text>
</g>
<!-- B2_R&#45;&gt;AB4 -->
<g id="edge16" class="edge">
<title>B2_R&#45;&gt;AB4</title>
<path fill="none" stroke="black" d="M671.96,-39.13C663.53,-38.58 654.77,-39 646.75,-41.25 639.85,-43.19 632.95,-46.28 626.51,-49.82"/>
<polygon fill="black" stroke="black" points="624.9,-46.7 618.13,-54.85 628.51,-52.7 624.9,-46.7"/>
<text text-anchor="middle" x="650.5" y="-43.7" font-family="Arial" font-size="14.00">a</text>
</g>
<!-- B3 -->
<g id="node13" class="node">
<title>B3</title>
<path fill="none" stroke="black" d="M839.5,-66C839.5,-66 809.5,-66 809.5,-66 803.5,-66 797.5,-60 797.5,-54 797.5,-54 797.5,-42 797.5,-42 797.5,-36 803.5,-30 809.5,-30 809.5,-30 839.5,-30 839.5,-30 845.5,-30 851.5,-36 851.5,-42 851.5,-42 851.5,-54 851.5,-54 851.5,-60 845.5,-66 839.5,-66"/>
<polygon fill="#ffcc80" stroke="none" points="808.25,-38.12 808.25,-57.88 818.25,-57.88 818.25,-38.12 808.25,-38.12"/>
<text text-anchor="start" x="822.25" y="-42.58" font-family="Arial" font-size="14.00">B3</text>
</g>
<!-- B2_R&#45;&gt;B3 -->
<g id="edge17" class="edge">
<title>B2_R&#45;&gt;B3</title>
<path fill="none" stroke="black" d="M754.23,-48C764.49,-48 775.48,-48 785.62,-48"/>
<polygon fill="black" stroke="black" points="785.52,-51.5 795.52,-48 785.52,-44.5 785.52,-51.5"/>
<text text-anchor="middle" x="775.75" y="-50.45" font-family="Arial" font-size="14.00">a</text>
</g>
<!-- B4 -->
<g id="node14" class="node">
<title>B4</title>
<path fill="none" stroke="black" d="M937,-36C937,-36 907,-36 907,-36 901,-36 895,-30 895,-24 895,-24 895,-12 895,-12 895,-6 901,0 907,0 907,0 937,0 937,0 943,0 949,-6 949,-12 949,-12 949,-24 949,-24 949,-30 943,-36 937,-36"/>
<polygon fill="#ffcc80" stroke="none" points="905.75,-8.12 905.75,-27.88 915.75,-27.88 915.75,-8.12 905.75,-8.12"/>
<text text-anchor="start" x="919.75" y="-12.57" font-family="Arial" font-size="14.00">B4</text>
</g>
<!-- B3&#45;&gt;B4 -->
<g id="edge18" class="edge">
<title>B3&#45;&gt;B4</title>
<path fill="none" stroke="black" d="M851.85,-39.72C861.76,-36.61 873.23,-33.01 883.95,-29.64"/>
<polygon fill="black" stroke="black" points="884.8,-33.04 893.29,-26.7 882.7,-26.36 884.8,-33.04"/>
<text text-anchor="middle" x="873.25" y="-36.35" font-family="Arial" font-size="14.00">a</text>
</g>
<!-- B4&#45;&gt;AB4 -->
<g id="edge19" class="edge">
<title>B4&#45;&gt;AB4</title>
<path fill="none" stroke="black" d="M894.59,-13.96C848.47,-7.84 750.67,0.86 672.25,-21 653.68,-26.18 635.6,-37.62 621.41,-48.55"/>
<polygon fill="black" stroke="black" points="619.45,-45.63 613.86,-54.64 623.84,-51.08 619.45,-45.63"/>
<text text-anchor="middle" x="775.75" y="-9.71" font-family="Arial" font-size="14.00">a</text>
</g>
</g>
</svg>
