<?xml version="1.0" encoding="UTF-8" standalone="no"?>
<!DOCTYPE svg PUBLIC "-//W3C//DTD SVG 1.1//EN"
 "http://www.w3.org/Graphics/SVG/1.1/DTD/svg11.dtd">
<!-- Generated by graphviz version 12.2.1 (20241206.2353)
 -->
<!-- Title: G Pages: 1 -->
<svg width="720pt" height="61pt"
 viewBox="0.00 0.00 720.00 61.45" xmlns="http://www.w3.org/2000/svg" xmlns:xlink="http://www.w3.org/1999/xlink">
<g id="graph0" class="graph" transform="scale(0.801336 0.801336) rotate(0) translate(4 72.68)">
<title>G</title>
<!-- dot_dummyinit_0 -->
<g id="node1" class="node">
<title>dot_dummyinit_0</title>
</g>
<!-- N0 -->
<g id="node2" class="node">
<title>N0</title>
<path fill="none" stroke="black" d="M133,-53C133,-53 103,-53 103,-53 97,-53 91,-47 91,-41 91,-41 91,-29 91,-29 91,-23 97,-17 103,-17 103,-17 133,-17 133,-17 139,-17 145,-23 145,-29 145,-29 145,-41 145,-41 145,-47 139,-53 133,-53"/>
<text text-anchor="middle" x="118" y="-29.57" font-family="Arial" font-size="14.00">N0</text>
</g>
<!-- dot_dummyinit_0&#45;&gt;N0 -->
<g id="edge1" class="edge">
<title>dot_dummyinit_0&#45;&gt;N0</title>
<path fill="none" stroke="black" d="M53.74,-35C61.72,-35 70.68,-35 79.29,-35"/>
<polygon fill="black" stroke="black" points="79.18,-38.5 89.18,-35 79.18,-31.5 79.18,-38.5"/>
</g>
<!-- A1 -->
<g id="node4" class="node">
<title>A1</title>
<path fill="none" stroke="black" d="M230.5,-53C230.5,-53 200.5,-53 200.5,-53 194.5,-53 188.5,-47 188.5,-41 188.5,-41 188.5,-29 188.5,-29 188.5,-23 194.5,-17 200.5,-17 200.5,-17 230.5,-17 230.5,-17 236.5,-17 242.5,-23 242.5,-29 242.5,-29 242.5,-41 242.5,-41 242.5,-47 236.5,-53 230.5,-53"/>
<polygon fill="lightblue" stroke="none" points="199.25,-25.12 199.25,-44.88 209.25,-44.88 209.25,-25.12 199.25,-25.12"/>
<text text-anchor="start" x="213.25" y="-29.57" font-family="Arial" font-size="14.00">A1</text>
</g>
<!-- N0&#45;&gt;A1 -->
<g id="edge2" class="edge">
<title>N0&#45;&gt;A1</title>
<path fill="none" stroke="black" d="M145.35,-35C155.06,-35 166.25,-35 176.77,-35"/>
<polygon fill="black" stroke="black" points="176.72,-38.5 186.72,-35 176.72,-31.5 176.72,-38.5"/>
<text text-anchor="middle" x="166.75" y="-37.45" font-family="Arial" font-size="14.00">a</text>
</g>
<!-- A3 -->
<g id="node3" class="node">
<title>A3</title>
<path fill="none" stroke="black" d="M453.25,-53C453.25,-53 423.25,-53 423.25,-53 417.25,-53 411.25,-47 411.25,-41 411.25,-41 411.25,-29 411.25,-29 411.25,-23 417.25,-17 423.25,-17 423.25,-17 453.25,-17 453.25,-17 459.25,-17 465.25,-23 465.25,-29 465.25,-29 465.25,-41 465.25,-41 465.25,-47 459.25,-53 453.25,-53"/>
<text text-anchor="middle" x="438.25" y="-29.57" font-family="Arial" font-size="14.00">A3</text>
</g>
<!-- AB4 -->
<g id="node6" class="node">
<title>AB4</title>
<path fill="none" stroke="black" d="M558.25,-53C558.25,-53 520.75,-53 520.75,-53 514.75,-53 508.75,-47 508.75,-41 508.75,-41 508.75,-29 508.75,-29 508.75,-23 514.75,-17 520.75,-17 520.75,-17 558.25,-17 558.25,-17 564.25,-17 570.25,-23 570.25,-29 570.25,-29 570.25,-41 570.25,-41 570.25,-47 564.25,-53 558.25,-53"/>
<polygon fill="#ffcc80" stroke="none" points="518.75,-25.12 518.75,-44.88 528.75,-44.88 528.75,-25.12 518.75,-25.12"/>
<text text-anchor="start" x="532.75" y="-29.57" font-family="Arial" font-size="14.00">AB4</text>
</g>
<!-- A3&#45;&gt;AB4 -->
<g id="edge6" class="edge">
<title>A3&#45;&gt;AB4</title>
<path fill="none" stroke="black" d="M465.59,-35C475.29,-35 486.52,-35 497.22,-35"/>
<polygon fill="black" stroke="black" points="497.02,-38.5 507.02,-35 497.02,-31.5 497.02,-38.5"/>
<text text-anchor="middle" x="487" y="-37.45" font-family="Arial" font-size="14.00">a</text>
</g>
<!-- A2_R -->
<g id="node5" class="node">
<title>A2_R</title>
<path fill="none" stroke="black" d="M355.75,-53C355.75,-53 298,-53 298,-53 292,-53 286,-47 286,-41 286,-41 286,-29 286,-29 286,-23 292,-17 298,-17 298,-17 355.75,-17 355.75,-17 361.75,-17 367.75,-23 367.75,-29 367.75,-29 367.75,-41 367.75,-41 367.75,-47 361.75,-53 355.75,-53"/>
<polygon fill="darkblue" stroke="none" points="296,-25.12 296,-44.88 306,-44.88 306,-25.12 296,-25.12"/>
<polygon fill="lightblue" stroke="none" points="308,-25.12 308,-44.88 318,-44.88 318,-25.12 308,-25.12"/>
<text text-anchor="start" x="322" y="-29.57" font-family="Arial" font-size="14.00">A2_R</text>
</g>
<!-- A1&#45;&gt;A2_R -->
<g id="edge3" class="edge">
<title>A1&#45;&gt;A2_R</title>
<path fill="none" stroke="black" d="M242.98,-35C252.46,-35 263.49,-35 274.36,-35"/>
<polygon fill="black" stroke="black" points="274.04,-38.5 284.04,-35 274.04,-31.5 274.04,-38.5"/>
<text text-anchor="middle" x="264.25" y="-37.45" font-family="Arial" font-size="14.00">a</text>
</g>
<!-- A2_R&#45;&gt;A3 -->
<g id="edge5" class="edge">
<title>A2_R&#45;&gt;A3</title>
<path fill="none" stroke="black" d="M367.98,-35C378.24,-35 389.23,-35 399.37,-35"/>
<polygon fill="black" stroke="black" points="399.27,-38.5 409.27,-35 399.27,-31.5 399.27,-38.5"/>
<text text-anchor="middle" x="389.5" y="-37.45" font-family="Arial" font-size="14.00">a</text>
</g>
<!-- A2_R&#45;&gt;A1 -->
<g id="edge4" class="edge">
<title>A2_R&#45;&gt;A1</title>
<path fill="none" stroke="black" d="M287.09,-16.55C278.41,-14.31 269.2,-13.39 260.5,-15.25 258.2,-15.74 255.87,-16.37 253.55,-17.08"/>
<polygon fill="black" stroke="black" points="252.47,-13.75 244.3,-20.49 254.89,-20.32 252.47,-13.75"/>
<text text-anchor="middle" x="264.25" y="-17.7" font-family="Arial" font-size="14.00">a</text>
</g>
<!-- B2_R -->
<g id="node7" class="node">
<title>B2_R</title>
<path fill="none" stroke="black" d="M683.5,-66C683.5,-66 625.75,-66 625.75,-66 619.75,-66 613.75,-60 613.75,-54 613.75,-54 613.75,-42 613.75,-42 613.75,-36 619.75,-30 625.75,-30 625.75,-30 683.5,-30 683.5,-30 689.5,-30 695.5,-36 695.5,-42 695.5,-42 695.5,-54 695.5,-54 695.5,-60 689.5,-66 683.5,-66"/>
<polygon fill="#ff9900" stroke="none" points="623.75,-38.12 623.75,-57.88 633.75,-57.88 633.75,-38.12 623.75,-38.12"/>
<polygon fill="#ffcc80" stroke="none" points="635.75,-38.12 635.75,-57.88 645.75,-57.88 645.75,-38.12 635.75,-38.12"/>
<text text-anchor="start" x="649.75" y="-42.58" font-family="Arial" font-size="14.00">B2_R</text>
</g>
<!-- AB4&#45;&gt;B2_R -->
<g id="edge7" class="edge">
<title>AB4&#45;&gt;B2_R</title>
<path fill="none" stroke="black" d="M570.65,-47.48C576.4,-49.35 582.44,-51 588.25,-52 592.66,-52.76 597.26,-53.19 601.89,-53.38"/>
<polygon fill="black" stroke="black" points="601.84,-56.88 611.84,-53.39 601.85,-49.88 601.84,-56.88"/>
<text text-anchor="middle" x="592" y="-55.38" font-family="Arial" font-size="14.00">a</text>
</g>
<!-- B2_R&#45;&gt;AB4 -->
<g id="edge8" class="edge">
<title>B2_R&#45;&gt;AB4</title>
<path fill="none" stroke="black" d="M613.43,-35.6C607.55,-34.21 601.53,-33.02 595.75,-32.25 592.45,-31.81 591.58,-32.15 588.25,-32.25 586.19,-32.31 584.08,-32.38 581.96,-32.47"/>
<polygon fill="black" stroke="black" points="581.88,-28.97 572.06,-32.93 582.21,-35.96 581.88,-28.97"/>
<text text-anchor="middle" x="592" y="-34.7" font-family="Arial" font-size="14.00">a</text>
</g>
<!-- B3 -->
<g id="node8" class="node">
<title>B3</title>
<path fill="none" stroke="black" d="M781,-66C781,-66 751,-66 751,-66 745,-66 739,-60 739,-54 739,-54 739,-42 739,-42 739,-36 745,-30 751,-30 751,-30 781,-30 781,-30 787,-30 793,-36 793,-42 793,-42 793,-54 793,-54 793,-60 787,-66 781,-66"/>
<polygon fill="#ffcc80" stroke="none" points="749.75,-38.12 749.75,-57.88 759.75,-57.88 759.75,-38.12 749.75,-38.12"/>
<text text-anchor="start" x="763.75" y="-42.58" font-family="Arial" font-size="14.00">B3</text>
</g>
<!-- B2_R&#45;&gt;B3 -->
<g id="edge9" class="edge">
<title>B2_R&#45;&gt;B3</title>
<path fill="none" stroke="black" d="M695.73,-48C705.99,-48 716.98,-48 727.12,-48"/>
<polygon fill="black" stroke="black" points="727.02,-51.5 737.02,-48 727.02,-44.5 727.02,-51.5"/>
<text text-anchor="middle" x="717.25" y="-50.45" font-family="Arial" font-size="14.00">a</text>
</g>
<!-- B4 -->
<g id="node9" class="node">
<title>B4</title>
<path fill="none" stroke="black" d="M878.5,-36C878.5,-36 848.5,-36 848.5,-36 842.5,-36 836.5,-30 836.5,-24 836.5,-24 836.5,-12 836.5,-12 836.5,-6 842.5,0 848.5,0 848.5,0 878.5,0 878.5,0 884.5,0 890.5,-6 890.5,-12 890.5,-12 890.5,-24 890.5,-24 890.5,-30 884.5,-36 878.5,-36"/>
<polygon fill="#ffcc80" stroke="none" points="847.25,-8.12 847.25,-27.88 857.25,-27.88 857.25,-8.12 847.25,-8.12"/>
<text text-anchor="start" x="861.25" y="-12.57" font-family="Arial" font-size="14.00">B4</text>
</g>
<!-- B3&#45;&gt;B4 -->
<g id="edge10" class="edge">
<title>B3&#45;&gt;B4</title>
<path fill="none" stroke="black" d="M793.35,-39.72C803.26,-36.61 814.73,-33.01 825.45,-29.64"/>
<polygon fill="black" stroke="black" points="826.3,-33.04 834.79,-26.7 824.2,-26.36 826.3,-33.04"/>
<text text-anchor="middle" x="814.75" y="-36.35" font-family="Arial" font-size="14.00">a</text>
</g>
<!-- B4&#45;&gt;AB4 -->
<g id="edge11" class="edge">
<title>B4&#45;&gt;AB4</title>
<path fill="none" stroke="black" d="M836.27,-16.8C790.82,-15.06 694.54,-12.86 613.75,-21 603.36,-22.05 592.25,-23.82 581.9,-25.77"/>
<polygon fill="black" stroke="black" points="581.23,-22.33 572.1,-27.71 582.59,-29.2 581.23,-22.33"/>
<text text-anchor="middle" x="717.25" y="-17.91" font-family="Arial" font-size="14.00">a</text>
</g>
</g>
</svg>
