<?xml version="1.0" encoding="UTF-8" standalone="no"?>
<!DOCTYPE svg PUBLIC "-//W3C//DTD SVG 1.1//EN"
 "http://www.w3.org/Graphics/SVG/1.1/DTD/svg11.dtd">
<!-- Generated by graphviz version 12.2.1 (20241206.2353)
 -->
<!-- Title: G Pages: 1 -->
<svg width="720pt" height="154pt"
 viewBox="0.00 0.00 720.00 153.97" xmlns="http://www.w3.org/2000/svg" xmlns:xlink="http://www.w3.org/1999/xlink">
<g id="graph0" class="graph" transform="scale(0.707096 0.707096) rotate(0) translate(4 213.75)">
<title>G</title>
<!-- dot_dummyinit_0 -->
<g id="node1" class="node">
<title>dot_dummyinit_0</title>
</g>
<!-- N0 -->
<g id="node2" class="node">
<title>N0</title>
<path fill="none" stroke="black" d="M133,-153C133,-153 103,-153 103,-153 97,-153 91,-147 91,-141 91,-141 91,-129 91,-129 91,-123 97,-117 103,-117 103,-117 133,-117 133,-117 139,-117 145,-123 145,-129 145,-129 145,-141 145,-141 145,-147 139,-153 133,-153"/>
<text text-anchor="middle" x="118" y="-129.57" font-family="Arial" font-size="14.00">N0</text>
</g>
<!-- dot_dummyinit_0&#45;&gt;N0 -->
<g id="edge1" class="edge">
<title>dot_dummyinit_0&#45;&gt;N0</title>
<path fill="none" stroke="black" d="M53.74,-135C61.72,-135 70.68,-135 79.29,-135"/>
<polygon fill="black" stroke="black" points="79.18,-138.5 89.18,-135 79.18,-131.5 79.18,-138.5"/>
</g>
<!-- N1 -->
<g id="node4" class="node">
<title>N1</title>
<path fill="none" stroke="black" d="M326.25,-176C326.25,-176 278,-176 278,-176 272,-176 266,-170 266,-164 266,-164 266,-152 266,-152 266,-146 272,-140 278,-140 278,-140 326.25,-140 326.25,-140 332.25,-140 338.25,-146 338.25,-152 338.25,-152 338.25,-164 338.25,-164 338.25,-170 332.25,-176 326.25,-176"/>
<text text-anchor="start" x="278" y="-152.57" font-family="Arial" font-size="14.00">N1</text>
<polygon fill="#b0ffb0" stroke="none" points="306.25,-148.12 306.25,-167.88 316.25,-167.88 316.25,-148.12 306.25,-148.12"/>
<polygon fill="#307030" stroke="none" points="318.25,-148.12 318.25,-167.88 328.25,-167.88 328.25,-148.12 318.25,-148.12"/>
</g>
<!-- N0&#45;&gt;N1 -->
<g id="edge2" class="edge">
<title>N0&#45;&gt;N1</title>
<path fill="none" stroke="black" d="M145.48,-138.34C173.93,-141.94 219.72,-147.72 254.28,-152.08"/>
<polygon fill="black" stroke="black" points="253.67,-155.53 264.03,-153.31 254.54,-148.59 253.67,-155.53"/>
<text text-anchor="middle" x="166.75" y="-143.71" font-family="Arial" font-size="14.00">a</text>
</g>
<!-- A1 -->
<g id="node6" class="node">
<title>A1</title>
<path fill="none" stroke="black" d="M236,-130C236,-130 200.5,-130 200.5,-130 194.5,-130 188.5,-124 188.5,-118 188.5,-118 188.5,-106 188.5,-106 188.5,-100 194.5,-94 200.5,-94 200.5,-94 236,-94 236,-94 242,-94 248,-100 248,-106 248,-106 248,-118 248,-118 248,-124 242,-130 236,-130"/>
<text text-anchor="start" x="200.5" y="-106.58" font-family="Arial" font-size="14.00">A1</text>
<polygon fill="lightblue" stroke="none" points="228,-102.12 228,-121.88 238,-121.88 238,-102.12 228,-102.12"/>
</g>
<!-- N0&#45;&gt;A1 -->
<g id="edge3" class="edge">
<title>N0&#45;&gt;A1</title>
<path fill="none" stroke="black" d="M145.31,-125.36C151.08,-123.47 157.2,-121.65 163,-120.25 167.53,-119.15 172.31,-118.18 177.08,-117.31"/>
<polygon fill="black" stroke="black" points="177.28,-120.83 186.58,-115.74 176.14,-113.92 177.28,-120.83"/>
<text text-anchor="middle" x="166.75" y="-122.7" font-family="Arial" font-size="14.00">a</text>
</g>
<!-- N3 -->
<g id="node3" class="node">
<title>N3</title>
<path fill="none" stroke="black" d="M774.88,-179C774.88,-179 744.88,-179 744.88,-179 738.88,-179 732.88,-173 732.88,-167 732.88,-167 732.88,-155 732.88,-155 732.88,-149 738.88,-143 744.88,-143 744.88,-143 774.88,-143 774.88,-143 780.88,-143 786.88,-149 786.88,-155 786.88,-155 786.88,-167 786.88,-167 786.88,-173 780.88,-179 774.88,-179"/>
<text text-anchor="middle" x="759.88" y="-155.57" font-family="Arial" font-size="14.00">N3</text>
</g>
<!-- N2 -->
<g id="node5" class="node">
<title>N2</title>
<path fill="none" stroke="black" d="M649.88,-176C649.88,-176 613.62,-176 613.62,-176 607.62,-176 601.62,-170 601.62,-164 601.62,-164 601.62,-152 601.62,-152 601.62,-146 607.62,-140 613.62,-140 613.62,-140 649.88,-140 649.88,-140 655.88,-140 661.88,-146 661.88,-152 661.88,-152 661.88,-164 661.88,-164 661.88,-170 655.88,-176 649.88,-176"/>
<text text-anchor="start" x="613.62" y="-152.57" font-family="Arial" font-size="14.00">N2</text>
<polygon fill="#b0ffb0" stroke="none" points="641.88,-148.12 641.88,-167.88 651.88,-167.88 651.88,-148.12 641.88,-148.12"/>
</g>
<!-- N1&#45;&gt;N2 -->
<g id="edge4" class="edge">
<title>N1&#45;&gt;N2</title>
<path fill="none" stroke="black" d="M338.5,-158C399.71,-158 525.06,-158 589.89,-158"/>
<polygon fill="black" stroke="black" points="589.75,-161.5 599.75,-158 589.75,-154.5 589.75,-161.5"/>
<text text-anchor="middle" x="466.75" y="-160.45" font-family="Arial" font-size="14.00">a</text>
</g>
<!-- N2&#45;&gt;N3 -->
<g id="edge6" class="edge">
<title>N2&#45;&gt;N3</title>
<path fill="none" stroke="black" d="M662.32,-158.7C679.84,-159.12 702.23,-159.65 721.03,-160.1"/>
<polygon fill="black" stroke="black" points="720.9,-163.6 730.98,-160.34 721.06,-156.6 720.9,-163.6"/>
<text text-anchor="middle" x="693.75" y="-161.95" font-family="Arial" font-size="14.00">a</text>
</g>
<!-- N2&#45;&gt;N2 -->
<g id="edge5" class="edge">
<title>N2&#45;&gt;N2</title>
<path fill="none" stroke="black" d="M620.53,-176.15C618.81,-185.54 622.55,-194 631.75,-194 636.93,-194 640.37,-191.32 642.09,-187.31"/>
<polygon fill="black" stroke="black" points="645.56,-187.9 642.85,-177.66 638.58,-187.36 645.56,-187.9"/>
<text text-anchor="middle" x="631.75" y="-196.45" font-family="Arial" font-size="14.00">a</text>
</g>
<!-- A2_R -->
<g id="node7" class="node">
<title>A2_R</title>
<path fill="none" stroke="black" d="M433,-110C433,-110 368.25,-110 368.25,-110 362.25,-110 356.25,-104 356.25,-98 356.25,-98 356.25,-86 356.25,-86 356.25,-80 362.25,-74 368.25,-74 368.25,-74 433,-74 433,-74 439,-74 445,-80 445,-86 445,-86 445,-98 445,-98 445,-104 439,-110 433,-110"/>
<text text-anchor="start" x="368.25" y="-86.58" font-family="Arial" font-size="14.00">A2_R</text>
<polygon fill="lightblue" stroke="none" points="413,-82.12 413,-101.88 423,-101.88 423,-82.12 413,-82.12"/>
<polygon fill="darkblue" stroke="none" points="425,-82.12 425,-101.88 435,-101.88 435,-82.12 425,-82.12"/>
</g>
<!-- A1&#45;&gt;A2_R -->
<g id="edge7" class="edge">
<title>A1&#45;&gt;A2_R</title>
<path fill="none" stroke="black" d="M248.23,-108.79C274.13,-105.92 312.78,-101.63 344.54,-98.11"/>
<polygon fill="black" stroke="black" points="344.84,-101.6 354.39,-97.02 344.07,-94.64 344.84,-101.6"/>
<text text-anchor="middle" x="302.12" y="-109.09" font-family="Arial" font-size="14.00">a</text>
</g>
<!-- A2_R&#45;&gt;A1 -->
<g id="edge8" class="edge">
<title>A2_R&#45;&gt;A1</title>
<path fill="none" stroke="black" d="M355.99,-79.28C329.42,-73.62 295.11,-70.07 266,-79.25 260.09,-81.11 254.28,-84.02 248.88,-87.35"/>
<polygon fill="black" stroke="black" points="247.17,-84.27 240.89,-92.8 251.12,-90.05 247.17,-84.27"/>
<text text-anchor="middle" x="302.12" y="-81.7" font-family="Arial" font-size="14.00">a</text>
</g>
<!-- A3 -->
<g id="node8" class="node">
<title>A3</title>
<path fill="none" stroke="black" d="M536,-110C536,-110 500.5,-110 500.5,-110 494.5,-110 488.5,-104 488.5,-98 488.5,-98 488.5,-86 488.5,-86 488.5,-80 494.5,-74 500.5,-74 500.5,-74 536,-74 536,-74 542,-74 548,-80 548,-86 548,-86 548,-98 548,-98 548,-104 542,-110 536,-110"/>
<text text-anchor="start" x="500.5" y="-86.58" font-family="Arial" font-size="14.00">A3</text>
<polygon fill="lightblue" stroke="none" points="528,-82.12 528,-101.88 538,-101.88 538,-82.12 528,-82.12"/>
</g>
<!-- A2_R&#45;&gt;A3 -->
<g id="edge9" class="edge">
<title>A2_R&#45;&gt;A3</title>
<path fill="none" stroke="black" d="M445.34,-92C455.63,-92 466.57,-92 476.71,-92"/>
<polygon fill="black" stroke="black" points="476.67,-95.5 486.67,-92 476.67,-88.5 476.67,-95.5"/>
<text text-anchor="middle" x="466.75" y="-94.45" font-family="Arial" font-size="14.00">a</text>
</g>
<!-- A3&#45;&gt;N2 -->
<g id="edge10" class="edge">
<title>A3&#45;&gt;N2</title>
<path fill="none" stroke="black" d="M548.25,-109.17C561.57,-117.05 577.56,-126.51 591.89,-135"/>
<polygon fill="black" stroke="black" points="589.81,-137.84 600.2,-139.92 593.38,-131.81 589.81,-137.84"/>
<text text-anchor="middle" x="569.75" y="-125.47" font-family="Arial" font-size="14.00">a</text>
</g>
<!-- AB4 -->
<g id="node9" class="node">
<title>AB4</title>
<path fill="none" stroke="black" d="M660,-92C660,-92 603.5,-92 603.5,-92 597.5,-92 591.5,-86 591.5,-80 591.5,-80 591.5,-68 591.5,-68 591.5,-62 597.5,-56 603.5,-56 603.5,-56 660,-56 660,-56 666,-56 672,-62 672,-68 672,-68 672,-80 672,-80 672,-86 666,-92 660,-92"/>
<text text-anchor="start" x="603.5" y="-68.58" font-family="Arial" font-size="14.00">AB4</text>
<polygon fill="lightblue" stroke="none" points="640,-64.12 640,-83.88 650,-83.88 650,-64.12 640,-64.12"/>
<polygon fill="#ffcc80" stroke="none" points="652,-64.12 652,-83.88 662,-83.88 662,-64.12 652,-64.12"/>
</g>
<!-- A3&#45;&gt;AB4 -->
<g id="edge11" class="edge">
<title>A3&#45;&gt;AB4</title>
<path fill="none" stroke="black" d="M548.25,-87.32C558.02,-85.74 569.23,-83.93 580.17,-82.17"/>
<polygon fill="black" stroke="black" points="580.59,-85.64 589.9,-80.59 579.47,-78.73 580.59,-85.64"/>
<text text-anchor="middle" x="569.75" y="-86.53" font-family="Arial" font-size="14.00">a</text>
</g>
<!-- A5 -->
<g id="node10" class="node">
<title>A5</title>
<path fill="none" stroke="black" d="M777.62,-125C777.62,-125 742.12,-125 742.12,-125 736.12,-125 730.12,-119 730.12,-113 730.12,-113 730.12,-101 730.12,-101 730.12,-95 736.12,-89 742.12,-89 742.12,-89 777.62,-89 777.62,-89 783.62,-89 789.62,-95 789.62,-101 789.62,-101 789.62,-113 789.62,-113 789.62,-119 783.62,-125 777.62,-125"/>
<text text-anchor="start" x="742.12" y="-101.58" font-family="Arial" font-size="14.00">A5</text>
<polygon fill="lightblue" stroke="none" points="769.62,-97.12 769.62,-116.88 779.62,-116.88 779.62,-97.12 769.62,-97.12"/>
</g>
<!-- AB4&#45;&gt;A5 -->
<g id="edge12" class="edge">
<title>AB4&#45;&gt;A5</title>
<path fill="none" stroke="black" d="M672.31,-84.35C687.16,-88.24 704.05,-92.65 718.93,-96.55"/>
<polygon fill="black" stroke="black" points="717.84,-99.88 728.4,-99.03 719.61,-93.11 717.84,-99.88"/>
<text text-anchor="middle" x="693.75" y="-92.95" font-family="Arial" font-size="14.00">a</text>
</g>
<!-- B2_R -->
<g id="node12" class="node">
<title>B2_R</title>
<path fill="none" stroke="black" d="M792.25,-66C792.25,-66 727.5,-66 727.5,-66 721.5,-66 715.5,-60 715.5,-54 715.5,-54 715.5,-42 715.5,-42 715.5,-36 721.5,-30 727.5,-30 727.5,-30 792.25,-30 792.25,-30 798.25,-30 804.25,-36 804.25,-42 804.25,-42 804.25,-54 804.25,-54 804.25,-60 798.25,-66 792.25,-66"/>
<text text-anchor="start" x="727.5" y="-42.58" font-family="Arial" font-size="14.00">B2_R</text>
<polygon fill="#ffcc80" stroke="none" points="772.25,-38.12 772.25,-57.88 782.25,-57.88 782.25,-38.12 772.25,-38.12"/>
<polygon fill="#ff9900" stroke="none" points="784.25,-38.12 784.25,-57.88 794.25,-57.88 794.25,-38.12 784.25,-38.12"/>
</g>
<!-- AB4&#45;&gt;B2_R -->
<g id="edge13" class="edge">
<title>AB4&#45;&gt;B2_R</title>
<path fill="none" stroke="black" d="M672.31,-65.84C682.39,-63.77 693.41,-61.5 704.1,-59.29"/>
<polygon fill="black" stroke="black" points="704.5,-62.78 713.59,-57.34 703.09,-55.93 704.5,-62.78"/>
<text text-anchor="middle" x="693.75" y="-64.23" font-family="Arial" font-size="14.00">a</text>
</g>
<!-- A6 -->
<g id="node11" class="node">
<title>A6</title>
<path fill="none" stroke="black" d="M895.25,-132C895.25,-132 859.75,-132 859.75,-132 853.75,-132 847.75,-126 847.75,-120 847.75,-120 847.75,-108 847.75,-108 847.75,-102 853.75,-96 859.75,-96 859.75,-96 895.25,-96 895.25,-96 901.25,-96 907.25,-102 907.25,-108 907.25,-108 907.25,-120 907.25,-120 907.25,-126 901.25,-132 895.25,-132"/>
<text text-anchor="start" x="859.75" y="-108.58" font-family="Arial" font-size="14.00">A6</text>
<polygon fill="lightblue" stroke="none" points="887.25,-104.12 887.25,-123.88 897.25,-123.88 897.25,-104.12 887.25,-104.12"/>
</g>
<!-- A5&#45;&gt;A6 -->
<g id="edge14" class="edge">
<title>A5&#45;&gt;A6</title>
<path fill="none" stroke="black" d="M789.91,-108.95C800.13,-109.62 811.7,-110.36 822.25,-111 826.73,-111.27 831.42,-111.54 836.08,-111.81"/>
<polygon fill="black" stroke="black" points="835.81,-115.3 845.99,-112.36 836.2,-108.31 835.81,-115.3"/>
<text text-anchor="middle" x="826" y="-113.89" font-family="Arial" font-size="14.00">a</text>
</g>
<!-- A6&#45;&gt;A5 -->
<g id="edge15" class="edge">
<title>A6&#45;&gt;A5</title>
<path fill="none" stroke="black" d="M847.32,-97.33C841.65,-94.81 835.64,-92.61 829.75,-91.25 820.49,-89.12 810.52,-89.72 801.13,-91.59"/>
<polygon fill="black" stroke="black" points="800.33,-88.18 791.5,-94.04 802.06,-94.97 800.33,-88.18"/>
<text text-anchor="middle" x="826" y="-93.7" font-family="Arial" font-size="14.00">a</text>
</g>
<!-- B2_R&#45;&gt;AB4 -->
<g id="edge16" class="edge">
<title>B2_R&#45;&gt;AB4</title>
<path fill="none" stroke="black" d="M715.14,-39.05C706.71,-38.63 698.01,-39.12 690,-41.25 682.56,-43.23 675.09,-46.42 668.11,-50.06"/>
<polygon fill="black" stroke="black" points="666.59,-46.9 659.61,-54.87 670.03,-52.99 666.59,-46.9"/>
<text text-anchor="middle" x="693.75" y="-43.7" font-family="Arial" font-size="14.00">a</text>
</g>
<!-- B3 -->
<g id="node13" class="node">
<title>B3</title>
<path fill="none" stroke="black" d="M895.25,-66C895.25,-66 859.75,-66 859.75,-66 853.75,-66 847.75,-60 847.75,-54 847.75,-54 847.75,-42 847.75,-42 847.75,-36 853.75,-30 859.75,-30 859.75,-30 895.25,-30 895.25,-30 901.25,-30 907.25,-36 907.25,-42 907.25,-42 907.25,-54 907.25,-54 907.25,-60 901.25,-66 895.25,-66"/>
<text text-anchor="start" x="859.75" y="-42.58" font-family="Arial" font-size="14.00">B3</text>
<polygon fill="#ffcc80" stroke="none" points="887.25,-38.12 887.25,-57.88 897.25,-57.88 897.25,-38.12 887.25,-38.12"/>
</g>
<!-- B2_R&#45;&gt;B3 -->
<g id="edge17" class="edge">
<title>B2_R&#45;&gt;B3</title>
<path fill="none" stroke="black" d="M804.59,-48C814.88,-48 825.82,-48 835.96,-48"/>
<polygon fill="black" stroke="black" points="835.92,-51.5 845.92,-48 835.92,-44.5 835.92,-51.5"/>
<text text-anchor="middle" x="826" y="-50.45" font-family="Arial" font-size="14.00">a</text>
</g>
<!-- B4 -->
<g id="node14" class="node">
<title>B4</title>
<path fill="none" stroke="black" d="M998.25,-36C998.25,-36 962.75,-36 962.75,-36 956.75,-36 950.75,-30 950.75,-24 950.75,-24 950.75,-12 950.75,-12 950.75,-6 956.75,0 962.75,0 962.75,0 998.25,0 998.25,0 1004.25,0 1010.25,-6 1010.25,-12 1010.25,-12 1010.25,-24 1010.25,-24 1010.25,-30 1004.25,-36 998.25,-36"/>
<text text-anchor="start" x="962.75" y="-12.57" font-family="Arial" font-size="14.00">B4</text>
<polygon fill="#ffcc80" stroke="none" points="990.25,-8.12 990.25,-27.88 1000.25,-27.88 1000.25,-8.12 990.25,-8.12"/>
</g>
<!-- B3&#45;&gt;B4 -->
<g id="edge18" class="edge">
<title>B3&#45;&gt;B4</title>
<path fill="none" stroke="black" d="M907.71,-39.32C917.66,-36.37 928.95,-33.01 939.59,-29.85"/>
<polygon fill="black" stroke="black" points="940.31,-33.29 948.9,-27.09 938.32,-26.58 940.31,-33.29"/>
<text text-anchor="middle" x="929" y="-36.35" font-family="Arial" font-size="14.00">a</text>
</g>
<!-- B4&#45;&gt;AB4 -->
<g id="edge19" class="edge">
<title>B4&#45;&gt;AB4</title>
<path fill="none" stroke="black" d="M950.3,-13.53C900.88,-7.01 798.07,1.99 715.5,-21 696.17,-26.38 677.14,-38 662.21,-48.99"/>
<polygon fill="black" stroke="black" points="660.48,-45.91 654.68,-54.77 664.74,-51.46 660.48,-45.91"/>
<text text-anchor="middle" x="826" y="-8.92" font-family="Arial" font-size="14.00">a</text>
</g>
</g>
</svg>
