<?xml version="1.0" encoding="UTF-8" standalone="no"?>
<!DOCTYPE svg PUBLIC "-//W3C//DTD SVG 1.1//EN"
 "http://www.w3.org/Graphics/SVG/1.1/DTD/svg11.dtd">
<!-- Generated by graphviz version 12.2.1 (20241206.2353)
 -->
<!-- Title: very simple machine 1 Pages: 1 -->
<svg width="210pt" height="54pt"
 viewBox="0.00 0.00 209.72 53.70" xmlns="http://www.w3.org/2000/svg" xmlns:xlink="http://www.w3.org/1999/xlink">
<g id="graph0" class="graph" transform="scale(1 1) rotate(0) translate(4 49.7)">
<title>very simple machine 1</title>
<!-- dot_dummyinit_1 -->
<g id="node1" class="node">
<title>dot_dummyinit_1</title>
</g>
<!-- I -->
<g id="node2" class="node">
<title>I</title>
<ellipse fill="none" stroke="black" cx="59.72" cy="-23.7" rx="18" ry="18"/>
<ellipse fill="none" stroke="black" cx="59.72" cy="-23.7" rx="22" ry="22"/>
<text text-anchor="middle" x="59.72" y="-18.27" font-family="Arial" font-size="14.00">I</text>
</g>
<!-- dot_dummyinit_1&#45;&gt;I -->
<g id="edge1" class="edge">
<title>dot_dummyinit_1&#45;&gt;I</title>
<path fill="none" stroke="black" d="M0.89,-23.7C2.38,-23.7 13.74,-23.7 26,-23.7"/>
<polygon fill="black" stroke="black" points="25.74,-27.2 35.74,-23.7 25.74,-20.2 25.74,-27.2"/>
</g>
<!-- B -->
<g id="node3" class="node">
<title>B</title>
<ellipse fill="none" stroke="black" cx="183.72" cy="-23.7" rx="18" ry="18"/>
<text text-anchor="middle" x="183.72" y="-18.27" font-family="Arial" font-size="14.00">B</text>
</g>
<!-- I&#45;&gt;B -->
<g id="edge2" class="edge">
<title>I&#45;&gt;B</title>
<path fill="none" stroke="black" d="M81.97,-23.7C101.9,-23.7 131.86,-23.7 153.93,-23.7"/>
<polygon fill="black" stroke="black" points="153.75,-27.2 163.75,-23.7 153.75,-20.2 153.75,-27.2"/>
<text text-anchor="middle" x="123.72" y="-26.15" font-family="Arial" font-size="14.00">alpha_1</text>
</g>
<!-- B&#45;&gt;I -->
<g id="edge3" class="edge">
<title>B&#45;&gt;I</title>
<path fill="none" stroke="black" d="M168.46,-13.45C162.38,-9.68 155.01,-5.86 147.72,-3.95 127.09,1.47 120.47,1.01 99.72,-3.95 96.1,-4.81 92.44,-6.07 88.89,-7.54"/>
<polygon fill="black" stroke="black" points="87.58,-4.28 80.05,-11.74 90.58,-10.6 87.58,-4.28"/>
<text text-anchor="middle" x="123.72" y="-6.4" font-family="Arial" font-size="14.00">beta_1</text>
</g>
</g>
</svg>
