<?xml version="1.0" encoding="UTF-8" standalone="no"?>
<!DOCTYPE svg PUBLIC "-//W3C//DTD SVG 1.1//EN"
 "http://www.w3.org/Graphics/SVG/1.1/DTD/svg11.dtd">
<!-- Generated by graphviz version 12.2.1 (20241206.2353)
 -->
<!-- Title: very simple machine 1|||very simple machine 2 Pages: 1 -->
<svg width="720pt" height="97pt"
 viewBox="0.00 0.00 720.00 97.15" xmlns="http://www.w3.org/2000/svg" xmlns:xlink="http://www.w3.org/1999/xlink">
<g id="graph0" class="graph" transform="scale(0.496305 0.496305) rotate(0) translate(4 191.75)">
<title>very simple machine 1|||very simple machine 2</title>
<!-- dot_dummyinit_1 -->
<g id="node1" class="node">
<title>dot_dummyinit_1</title>
</g>
<!-- I|I|r1m* -->
<g id="node2" class="node">
<title>I|I|r1m*</title>
<path fill="none" stroke="black" d="M109.97,-120C109.97,-120 49.72,-120 49.72,-120 43.72,-120 37.72,-114 37.72,-108 37.72,-108 37.72,-96 37.72,-96 37.72,-90 43.72,-84 49.72,-84 49.72,-84 109.97,-84 109.97,-84 115.97,-84 121.97,-90 121.97,-96 121.97,-96 121.97,-108 121.97,-108 121.97,-114 115.97,-120 109.97,-120"/>
<text text-anchor="start" x="49.72" y="-96.58" font-family="Arial" font-size="14.00">I|I|r1m*</text>
<polygon fill="black" stroke="none" points="103.97,-92.12 103.97,-111.88 111.97,-111.88 111.97,-92.12 103.97,-92.12"/>
</g>
<!-- dot_dummyinit_1&#45;&gt;I|I|r1m* -->
<g id="edge1" class="edge">
<title>dot_dummyinit_1&#45;&gt;I|I|r1m*</title>
<path fill="none" stroke="black" d="M0.78,-102C1.66,-102 12.74,-102 26.29,-102"/>
<polygon fill="black" stroke="black" points="26.03,-105.5 36.03,-102 26.03,-98.5 26.03,-105.5"/>
</g>
<!-- B|I|r1m -->
<g id="node4" class="node">
<title>B|I|r1m</title>
<path fill="none" stroke="black" d="M537.47,-159C537.47,-159 501.22,-159 501.22,-159 495.22,-159 489.22,-153 489.22,-147 489.22,-147 489.22,-135 489.22,-135 489.22,-129 495.22,-123 501.22,-123 501.22,-123 537.47,-123 537.47,-123 543.47,-123 549.47,-129 549.47,-135 549.47,-135 549.47,-147 549.47,-147 549.47,-153 543.47,-159 537.47,-159"/>
<text text-anchor="middle" x="519.34" y="-135.57" font-family="Arial" font-size="14.00">B|I|r1m</text>
</g>
<!-- I|I|r1m*&#45;&gt;B|I|r1m -->
<g id="edge2" class="edge">
<title>I|I|r1m*&#45;&gt;B|I|r1m</title>
<path fill="none" stroke="black" d="M122.29,-116.85C128.18,-118.72 134.2,-120.5 139.97,-122 255.28,-152.03 286.09,-163.71 405.22,-161 434.58,-160.33 442.42,-163.71 471.22,-158 473.4,-157.57 475.61,-157.05 477.82,-156.48"/>
<polygon fill="black" stroke="black" points="478.79,-159.84 487.36,-153.61 476.78,-153.14 478.79,-159.84"/>
<text text-anchor="middle" x="308.22" y="-162.78" font-family="Arial" font-size="14.00">alpha_1</text>
</g>
<!-- I|B|r1m -->
<g id="node5" class="node">
<title>I|B|r1m</title>
<path fill="none" stroke="black" d="M254.22,-120C254.22,-120 217.97,-120 217.97,-120 211.97,-120 205.97,-114 205.97,-108 205.97,-108 205.97,-96 205.97,-96 205.97,-90 211.97,-84 217.97,-84 217.97,-84 254.22,-84 254.22,-84 260.22,-84 266.22,-90 266.22,-96 266.22,-96 266.22,-108 266.22,-108 266.22,-114 260.22,-120 254.22,-120"/>
<text text-anchor="middle" x="236.09" y="-96.58" font-family="Arial" font-size="14.00">I|B|r1m</text>
</g>
<!-- I|I|r1m*&#45;&gt;I|B|r1m -->
<g id="edge3" class="edge">
<title>I|I|r1m*&#45;&gt;I|B|r1m</title>
<path fill="none" stroke="black" d="M122.18,-102C144.57,-102 172.13,-102 194.42,-102"/>
<polygon fill="black" stroke="black" points="194.35,-105.5 204.35,-102 194.35,-98.5 194.35,-105.5"/>
<text text-anchor="middle" x="163.97" y="-104.45" font-family="Arial" font-size="14.00">alpha_2</text>
</g>
<!-- B|I|r1m* -->
<g id="node3" class="node">
<title>B|I|r1m*</title>
<path fill="none" stroke="black" d="M1147.47,-51C1147.47,-51 1081.97,-51 1081.97,-51 1075.97,-51 1069.97,-45 1069.97,-39 1069.97,-39 1069.97,-27 1069.97,-27 1069.97,-21 1075.97,-15 1081.97,-15 1081.97,-15 1147.47,-15 1147.47,-15 1153.47,-15 1159.47,-21 1159.47,-27 1159.47,-27 1159.47,-39 1159.47,-39 1159.47,-45 1153.47,-51 1147.47,-51"/>
<text text-anchor="start" x="1081.97" y="-27.57" font-family="Arial" font-size="14.00">B|I|r1m*</text>
<polygon fill="black" stroke="none" points="1141.47,-23.12 1141.47,-42.88 1149.47,-42.88 1149.47,-23.12 1141.47,-23.12"/>
</g>
<!-- B|B|r1m -->
<g id="node6" class="node">
<title>B|B|r1m</title>
<path fill="none" stroke="black" d="M686.97,-120C686.97,-120 645.47,-120 645.47,-120 639.47,-120 633.47,-114 633.47,-108 633.47,-108 633.47,-96 633.47,-96 633.47,-90 639.47,-84 645.47,-84 645.47,-84 686.97,-84 686.97,-84 692.97,-84 698.97,-90 698.97,-96 698.97,-96 698.97,-108 698.97,-108 698.97,-114 692.97,-120 686.97,-120"/>
<text text-anchor="middle" x="666.22" y="-96.58" font-family="Arial" font-size="14.00">B|B|r1m</text>
</g>
<!-- B|I|r1m*&#45;&gt;B|B|r1m -->
<g id="edge16" class="edge">
<title>B|I|r1m*&#45;&gt;B|B|r1m</title>
<path fill="none" stroke="black" d="M1099.68,-51.24C1088.38,-64.37 1071.26,-81.1 1051.97,-89 936.17,-136.43 783.95,-121.43 710.52,-109.96"/>
<polygon fill="black" stroke="black" points="711.36,-106.55 700.93,-108.4 710.24,-113.46 711.36,-106.55"/>
<text text-anchor="middle" x="878.47" y="-124.08" font-family="Arial" font-size="14.00">alpha_2</text>
</g>
<!-- I|I|r2m -->
<g id="node10" class="node">
<title>I|I|r2m</title>
<path fill="none" stroke="black" d="M1286.47,-87C1286.47,-87 1255.47,-87 1255.47,-87 1249.47,-87 1243.47,-81 1243.47,-75 1243.47,-75 1243.47,-63 1243.47,-63 1243.47,-57 1249.47,-51 1255.47,-51 1255.47,-51 1286.47,-51 1286.47,-51 1292.47,-51 1298.47,-57 1298.47,-63 1298.47,-63 1298.47,-75 1298.47,-75 1298.47,-81 1292.47,-87 1286.47,-87"/>
<text text-anchor="middle" x="1270.97" y="-63.58" font-family="Arial" font-size="14.00">I|I|r2m</text>
</g>
<!-- B|I|r1m*&#45;&gt;I|I|r2m -->
<g id="edge17" class="edge">
<title>B|I|r1m*&#45;&gt;I|I|r2m</title>
<path fill="none" stroke="black" d="M1159.83,-36.77C1180.1,-39.21 1204.29,-43.11 1225.47,-49.25 1227.75,-49.91 1230.07,-50.67 1232.39,-51.49"/>
<polygon fill="black" stroke="black" points="1231.11,-54.75 1241.7,-55.13 1233.66,-48.23 1231.11,-54.75"/>
<text text-anchor="middle" x="1201.47" y="-51.7" font-family="Arial" font-size="14.00">beta_1</text>
</g>
<!-- B|I|r1m&#45;&gt;B|B|r1m -->
<g id="edge4" class="edge">
<title>B|I|r1m&#45;&gt;B|B|r1m</title>
<path fill="none" stroke="black" d="M537.37,-122.76C545.64,-115.21 556.22,-107.28 567.47,-103.25 584.64,-97.1 604.62,-95.89 622.02,-96.56"/>
<polygon fill="black" stroke="black" points="621.33,-100.02 631.52,-97.15 621.76,-93.04 621.33,-100.02"/>
<text text-anchor="middle" x="591.47" y="-105.7" font-family="Arial" font-size="14.00">alpha_2</text>
</g>
<!-- B|I|r1m&#45;&gt;I|I|r2m -->
<g id="edge5" class="edge">
<title>B|I|r1m&#45;&gt;I|I|r2m</title>
<path fill="none" stroke="black" d="M549.92,-151.15C578.92,-160.19 624.58,-172 665.22,-172 665.22,-172 665.22,-172 1115.72,-172 1170.53,-172 1220.64,-126.47 1248.07,-95.95"/>
<polygon fill="black" stroke="black" points="1250.59,-98.39 1254.52,-88.56 1245.31,-93.79 1250.59,-98.39"/>
<text text-anchor="middle" x="878.47" y="-174.45" font-family="Arial" font-size="14.00">beta_1</text>
</g>
<!-- I|B|r1m&#45;&gt;B|B|r1m -->
<g id="edge6" class="edge">
<title>I|B|r1m&#45;&gt;B|B|r1m</title>
<path fill="none" stroke="black" d="M266.64,-95.49C272.44,-94.46 278.5,-93.55 284.22,-93 409.53,-80.92 441.58,-92.22 567.47,-92 588.8,-91.96 594.24,-89.89 615.47,-92 617.52,-92.2 619.61,-92.45 621.71,-92.74"/>
<polygon fill="black" stroke="black" points="621.06,-96.18 631.48,-94.31 622.17,-89.27 621.06,-96.18"/>
<text text-anchor="middle" x="447.22" y="-92.32" font-family="Arial" font-size="14.00">alpha_1</text>
</g>
<!-- I|I|r1m -->
<g id="node7" class="node">
<title>I|I|r1m</title>
<path fill="none" stroke="black" d="M393.22,-152C393.22,-152 362.22,-152 362.22,-152 356.22,-152 350.22,-146 350.22,-140 350.22,-140 350.22,-128 350.22,-128 350.22,-122 356.22,-116 362.22,-116 362.22,-116 393.22,-116 393.22,-116 399.22,-116 405.22,-122 405.22,-128 405.22,-128 405.22,-140 405.22,-140 405.22,-146 399.22,-152 393.22,-152"/>
<text text-anchor="middle" x="377.72" y="-128.57" font-family="Arial" font-size="14.00">I|I|r1m</text>
</g>
<!-- I|B|r1m&#45;&gt;I|I|r1m -->
<g id="edge7" class="edge">
<title>I|B|r1m&#45;&gt;I|I|r1m</title>
<path fill="none" stroke="black" d="M266.52,-98.03C285.69,-96.49 310.98,-96.47 332.22,-103.25 336.85,-104.73 341.43,-106.86 345.78,-109.33"/>
<polygon fill="black" stroke="black" points="343.88,-112.27 354.19,-114.73 347.66,-106.38 343.88,-112.27"/>
<text text-anchor="middle" x="308.22" y="-105.7" font-family="Arial" font-size="14.00">beta_2</text>
</g>
<!-- B|B|r1m&#45;&gt;B|I|r1m -->
<g id="edge8" class="edge">
<title>B|B|r1m&#45;&gt;B|I|r1m</title>
<path fill="none" stroke="black" d="M632.99,-113.55C627.19,-115.47 621.17,-117.37 615.47,-119 597.72,-124.07 577.87,-128.81 560.9,-132.58"/>
<polygon fill="black" stroke="black" points="560.19,-129.15 551.16,-134.7 561.68,-135.99 560.19,-129.15"/>
<text text-anchor="middle" x="591.47" y="-133.22" font-family="Arial" font-size="14.00">beta_2</text>
</g>
<!-- I|B|r2m -->
<g id="node8" class="node">
<title>I|B|r2m</title>
<path fill="none" stroke="black" d="M824.47,-66C824.47,-66 788.22,-66 788.22,-66 782.22,-66 776.22,-60 776.22,-54 776.22,-54 776.22,-42 776.22,-42 776.22,-36 782.22,-30 788.22,-30 788.22,-30 824.47,-30 824.47,-30 830.47,-30 836.47,-36 836.47,-42 836.47,-42 836.47,-54 836.47,-54 836.47,-60 830.47,-66 824.47,-66"/>
<text text-anchor="middle" x="806.34" y="-42.58" font-family="Arial" font-size="14.00">I|B|r2m</text>
</g>
<!-- B|B|r1m&#45;&gt;I|B|r2m -->
<g id="edge9" class="edge">
<title>B|B|r1m&#45;&gt;I|B|r2m</title>
<path fill="none" stroke="black" d="M699.26,-89.48C718.94,-81.78 744.31,-71.86 765.31,-63.65"/>
<polygon fill="black" stroke="black" points="766.39,-66.99 774.43,-60.09 763.84,-60.47 766.39,-66.99"/>
<text text-anchor="middle" x="737.59" y="-83.87" font-family="Arial" font-size="14.00">beta_1</text>
</g>
<!-- I|I|r1m&#45;&gt;B|I|r1m -->
<g id="edge10" class="edge">
<title>I|I|r1m&#45;&gt;B|I|r1m</title>
<path fill="none" stroke="black" d="M405.64,-135.35C426.11,-136.38 454.62,-137.81 477.84,-138.97"/>
<polygon fill="black" stroke="black" points="477.42,-142.45 487.58,-139.46 477.77,-135.46 477.42,-142.45"/>
<text text-anchor="middle" x="447.22" y="-140.99" font-family="Arial" font-size="14.00">alpha_1</text>
</g>
<!-- I|I|r1m&#45;&gt;I|B|r1m -->
<g id="edge11" class="edge">
<title>I|I|r1m&#45;&gt;I|B|r1m</title>
<path fill="none" stroke="black" d="M349.73,-130.97C331.13,-128.55 305.95,-124.63 284.22,-119 281.95,-118.41 279.64,-117.76 277.31,-117.06"/>
<polygon fill="black" stroke="black" points="278.53,-113.78 267.94,-114.02 276.37,-120.43 278.53,-113.78"/>
<text text-anchor="middle" x="308.22" y="-130.88" font-family="Arial" font-size="14.00">alpha_2</text>
</g>
<!-- I|B|r2m&#45;&gt;I|I|r1m* -->
<g id="edge12" class="edge">
<title>I|B|r2m&#45;&gt;I|I|r1m*</title>
<path fill="none" stroke="black" d="M775.85,-41.91C747.98,-36.68 704.95,-30 667.22,-30 235.09,-30 235.09,-30 235.09,-30 189.36,-30 142.55,-56.31 112.68,-77.12"/>
<polygon fill="black" stroke="black" points="110.91,-74.08 104.83,-82.76 114.99,-79.77 110.91,-74.08"/>
<text text-anchor="middle" x="447.22" y="-32.45" font-family="Arial" font-size="14.00">beta_2</text>
</g>
<!-- B|B|r2m -->
<g id="node9" class="node">
<title>B|B|r2m</title>
<path fill="none" stroke="black" d="M973.97,-36C973.97,-36 932.47,-36 932.47,-36 926.47,-36 920.47,-30 920.47,-24 920.47,-24 920.47,-12 920.47,-12 920.47,-6 926.47,0 932.47,0 932.47,0 973.97,0 973.97,0 979.97,0 985.97,-6 985.97,-12 985.97,-12 985.97,-24 985.97,-24 985.97,-30 979.97,-36 973.97,-36"/>
<text text-anchor="middle" x="953.22" y="-12.57" font-family="Arial" font-size="14.00">B|B|r2m</text>
</g>
<!-- I|B|r2m&#45;&gt;B|B|r2m -->
<g id="edge13" class="edge">
<title>I|B|r2m&#45;&gt;B|B|r2m</title>
<path fill="none" stroke="black" d="M836.66,-41.93C857.48,-37.62 885.77,-31.76 909.15,-26.92"/>
<polygon fill="black" stroke="black" points="909.61,-30.4 918.69,-24.94 908.19,-23.54 909.61,-30.4"/>
<text text-anchor="middle" x="878.47" y="-39.89" font-family="Arial" font-size="14.00">alpha_1</text>
</g>
<!-- B|B|r2m&#45;&gt;B|I|r1m* -->
<g id="edge15" class="edge">
<title>B|B|r2m&#45;&gt;B|I|r1m*</title>
<path fill="none" stroke="black" d="M986.11,-21C1006.75,-22.94 1034.18,-25.52 1058.32,-27.79"/>
<polygon fill="black" stroke="black" points="1057.71,-31.25 1067.99,-28.7 1058.36,-24.28 1057.71,-31.25"/>
<text text-anchor="middle" x="1027.97" y="-29.29" font-family="Arial" font-size="14.00">beta_2</text>
</g>
<!-- B|B|r2m&#45;&gt;I|B|r2m -->
<g id="edge14" class="edge">
<title>B|B|r2m&#45;&gt;I|B|r2m</title>
<path fill="none" stroke="black" d="M920.09,-8.39C900.59,-4.19 875.48,-1.72 854.47,-9.25 846.52,-12.1 838.95,-16.93 832.29,-22.24"/>
<polygon fill="black" stroke="black" points="830.2,-19.42 824.97,-28.63 834.81,-24.69 830.2,-19.42"/>
<text text-anchor="middle" x="878.47" y="-11.7" font-family="Arial" font-size="14.00">beta_1</text>
</g>
<!-- I|I|r2m&#45;&gt;I|B|r2m -->
<g id="edge18" class="edge">
<title>I|I|r2m&#45;&gt;I|B|r2m</title>
<path fill="none" stroke="black" d="M1243.13,-69.7C1176.9,-71.12 1000.46,-72.95 854.47,-57 852.42,-56.78 850.32,-56.51 848.21,-56.21"/>
<polygon fill="black" stroke="black" points="848.82,-52.77 838.39,-54.63 847.71,-59.68 848.82,-52.77"/>
<text text-anchor="middle" x="1027.97" y="-71.67" font-family="Arial" font-size="14.00">alpha_2</text>
</g>
<!-- B|I|r2m -->
<g id="node11" class="node">
<title>B|I|r2m</title>
<path fill="none" stroke="black" d="M1430.72,-48C1430.72,-48 1394.47,-48 1394.47,-48 1388.47,-48 1382.47,-42 1382.47,-36 1382.47,-36 1382.47,-24 1382.47,-24 1382.47,-18 1388.47,-12 1394.47,-12 1394.47,-12 1430.72,-12 1430.72,-12 1436.72,-12 1442.72,-18 1442.72,-24 1442.72,-24 1442.72,-36 1442.72,-36 1442.72,-42 1436.72,-48 1430.72,-48"/>
<text text-anchor="middle" x="1412.59" y="-24.57" font-family="Arial" font-size="14.00">B|I|r2m</text>
</g>
<!-- I|I|r2m&#45;&gt;B|I|r2m -->
<g id="edge19" class="edge">
<title>I|I|r2m&#45;&gt;B|I|r2m</title>
<path fill="none" stroke="black" d="M1287.87,-50.78C1295.65,-43.23 1305.65,-35.3 1316.47,-31.25 1333.56,-24.85 1353.62,-23.74 1370.9,-24.55"/>
<polygon fill="black" stroke="black" points="1370.62,-28.04 1380.84,-25.27 1371.12,-21.06 1370.62,-28.04"/>
<text text-anchor="middle" x="1340.47" y="-33.7" font-family="Arial" font-size="14.00">alpha_1</text>
</g>
<!-- B|I|r2m&#45;&gt;B|B|r2m -->
<g id="edge20" class="edge">
<title>B|I|r2m&#45;&gt;B|B|r2m</title>
<path fill="none" stroke="black" d="M1382.04,-23.06C1376.24,-21.89 1370.19,-20.8 1364.47,-20 1234.69,-1.89 1200.83,0.77 1069.97,-6 1045.86,-7.25 1019.03,-9.94 997.28,-12.47"/>
<polygon fill="black" stroke="black" points="997.1,-8.96 987.59,-13.62 997.93,-15.91 997.1,-8.96"/>
<text text-anchor="middle" x="1201.47" y="-6.54" font-family="Arial" font-size="14.00">alpha_2</text>
</g>
<!-- B|I|r2m&#45;&gt;I|I|r2m -->
<g id="edge21" class="edge">
<title>B|I|r2m&#45;&gt;I|I|r2m</title>
<path fill="none" stroke="black" d="M1382.1,-41.22C1376.3,-43.26 1370.22,-45.28 1364.47,-47 1346.73,-52.29 1326.79,-57.17 1309.97,-60.98"/>
<polygon fill="black" stroke="black" points="1309.38,-57.52 1300.37,-63.11 1310.9,-64.36 1309.38,-57.52"/>
<text text-anchor="middle" x="1340.47" y="-61.86" font-family="Arial" font-size="14.00">beta_1</text>
</g>
</g>
</svg>
