<?xml version="1.0" encoding="UTF-8" standalone="no"?>
<!DOCTYPE svg PUBLIC "-//W3C//DTD SVG 1.1//EN"
 "http://www.w3.org/Graphics/SVG/1.1/DTD/svg11.dtd">
<!-- Generated by graphviz version 12.2.1 (20241206.2353)
 -->
<!-- Title: G Pages: 1 -->
<svg width="720pt" height="59pt"
 viewBox="0.00 0.00 720.00 58.98" xmlns="http://www.w3.org/2000/svg" xmlns:xlink="http://www.w3.org/1999/xlink">
<g id="graph0" class="graph" transform="scale(0.769231 0.769231) rotate(0) translate(4 72.67)">
<title>G</title>
<!-- dot_dummyinit_0 -->
<g id="node1" class="node">
<title>dot_dummyinit_0</title>
</g>
<!-- N0 -->
<g id="node2" class="node">
<title>N0</title>
<path fill="none" stroke="black" d="M133,-53C133,-53 103,-53 103,-53 97,-53 91,-47 91,-41 91,-41 91,-29 91,-29 91,-23 97,-17 103,-17 103,-17 133,-17 133,-17 139,-17 145,-23 145,-29 145,-29 145,-41 145,-41 145,-47 139,-53 133,-53"/>
<text text-anchor="middle" x="118" y="-29.57" font-family="Arial" font-size="14.00">N0</text>
</g>
<!-- dot_dummyinit_0&#45;&gt;N0 -->
<g id="edge1" class="edge">
<title>dot_dummyinit_0&#45;&gt;N0</title>
<path fill="none" stroke="black" d="M53.74,-35C61.72,-35 70.68,-35 79.29,-35"/>
<polygon fill="black" stroke="black" points="79.18,-38.5 89.18,-35 79.18,-31.5 79.18,-38.5"/>
</g>
<!-- A1 -->
<g id="node4" class="node">
<title>A1</title>
<path fill="none" stroke="black" d="M236,-53C236,-53 200.5,-53 200.5,-53 194.5,-53 188.5,-47 188.5,-41 188.5,-41 188.5,-29 188.5,-29 188.5,-23 194.5,-17 200.5,-17 200.5,-17 236,-17 236,-17 242,-17 248,-23 248,-29 248,-29 248,-41 248,-41 248,-47 242,-53 236,-53"/>
<text text-anchor="start" x="200.5" y="-29.57" font-family="Arial" font-size="14.00">A1</text>
<polygon fill="lightblue" stroke="none" points="228,-25.12 228,-44.88 238,-44.88 238,-25.12 228,-25.12"/>
</g>
<!-- N0&#45;&gt;A1 -->
<g id="edge2" class="edge">
<title>N0&#45;&gt;A1</title>
<path fill="none" stroke="black" d="M145.33,-35C155.01,-35 166.22,-35 176.86,-35"/>
<polygon fill="black" stroke="black" points="176.57,-38.5 186.57,-35 176.57,-31.5 176.57,-38.5"/>
<text text-anchor="middle" x="166.75" y="-37.45" font-family="Arial" font-size="14.00">a</text>
</g>
<!-- A3 -->
<g id="node3" class="node">
<title>A3</title>
<path fill="none" stroke="black" d="M465.75,-53C465.75,-53 435.75,-53 435.75,-53 429.75,-53 423.75,-47 423.75,-41 423.75,-41 423.75,-29 423.75,-29 423.75,-23 429.75,-17 435.75,-17 435.75,-17 465.75,-17 465.75,-17 471.75,-17 477.75,-23 477.75,-29 477.75,-29 477.75,-41 477.75,-41 477.75,-47 471.75,-53 465.75,-53"/>
<text text-anchor="middle" x="450.75" y="-29.57" font-family="Arial" font-size="14.00">A3</text>
</g>
<!-- AB4 -->
<g id="node6" class="node">
<title>AB4</title>
<path fill="none" stroke="black" d="M577.75,-53C577.75,-53 533.25,-53 533.25,-53 527.25,-53 521.25,-47 521.25,-41 521.25,-41 521.25,-29 521.25,-29 521.25,-23 527.25,-17 533.25,-17 533.25,-17 577.75,-17 577.75,-17 583.75,-17 589.75,-23 589.75,-29 589.75,-29 589.75,-41 589.75,-41 589.75,-47 583.75,-53 577.75,-53"/>
<text text-anchor="start" x="533.25" y="-29.57" font-family="Arial" font-size="14.00">AB4</text>
<polygon fill="#ffcc80" stroke="none" points="569.75,-25.12 569.75,-44.88 579.75,-44.88 579.75,-25.12 569.75,-25.12"/>
</g>
<!-- A3&#45;&gt;AB4 -->
<g id="edge6" class="edge">
<title>A3&#45;&gt;AB4</title>
<path fill="none" stroke="black" d="M478.21,-35C487.82,-35 498.96,-35 509.71,-35"/>
<polygon fill="black" stroke="black" points="509.61,-38.5 519.61,-35 509.61,-31.5 509.61,-38.5"/>
<text text-anchor="middle" x="499.5" y="-37.45" font-family="Arial" font-size="14.00">a</text>
</g>
<!-- A2_R -->
<g id="node5" class="node">
<title>A2_R</title>
<path fill="none" stroke="black" d="M368.25,-53C368.25,-53 303.5,-53 303.5,-53 297.5,-53 291.5,-47 291.5,-41 291.5,-41 291.5,-29 291.5,-29 291.5,-23 297.5,-17 303.5,-17 303.5,-17 368.25,-17 368.25,-17 374.25,-17 380.25,-23 380.25,-29 380.25,-29 380.25,-41 380.25,-41 380.25,-47 374.25,-53 368.25,-53"/>
<text text-anchor="start" x="303.5" y="-29.57" font-family="Arial" font-size="14.00">A2_R</text>
<polygon fill="lightblue" stroke="none" points="348.25,-25.12 348.25,-44.88 358.25,-44.88 358.25,-25.12 348.25,-25.12"/>
<polygon fill="darkblue" stroke="none" points="360.25,-25.12 360.25,-44.88 370.25,-44.88 370.25,-25.12 360.25,-25.12"/>
</g>
<!-- A1&#45;&gt;A2_R -->
<g id="edge3" class="edge">
<title>A1&#45;&gt;A2_R</title>
<path fill="none" stroke="black" d="M248.43,-35C258.06,-35 269.11,-35 280.02,-35"/>
<polygon fill="black" stroke="black" points="279.76,-38.5 289.76,-35 279.76,-31.5 279.76,-38.5"/>
<text text-anchor="middle" x="269.75" y="-37.45" font-family="Arial" font-size="14.00">a</text>
</g>
<!-- A2_R&#45;&gt;A3 -->
<g id="edge5" class="edge">
<title>A2_R&#45;&gt;A3</title>
<path fill="none" stroke="black" d="M380.52,-35C390.95,-35 402,-35 412.13,-35"/>
<polygon fill="black" stroke="black" points="412.01,-38.5 422.01,-35 412.01,-31.5 412.01,-38.5"/>
<text text-anchor="middle" x="402" y="-37.45" font-family="Arial" font-size="14.00">a</text>
</g>
<!-- A2_R&#45;&gt;A1 -->
<g id="edge4" class="edge">
<title>A2_R&#45;&gt;A1</title>
<path fill="none" stroke="black" d="M293.98,-16.56C284.84,-14.33 275.14,-13.4 266,-15.25 263.71,-15.71 261.39,-16.3 259.07,-16.96"/>
<polygon fill="black" stroke="black" points="258.12,-13.59 249.79,-20.13 260.38,-20.21 258.12,-13.59"/>
<text text-anchor="middle" x="269.75" y="-17.7" font-family="Arial" font-size="14.00">a</text>
</g>
<!-- B2_R -->
<g id="node7" class="node">
<title>B2_R</title>
<path fill="none" stroke="black" d="M710,-66C710,-66 645.25,-66 645.25,-66 639.25,-66 633.25,-60 633.25,-54 633.25,-54 633.25,-42 633.25,-42 633.25,-36 639.25,-30 645.25,-30 645.25,-30 710,-30 710,-30 716,-30 722,-36 722,-42 722,-42 722,-54 722,-54 722,-60 716,-66 710,-66"/>
<text text-anchor="start" x="645.25" y="-42.58" font-family="Arial" font-size="14.00">B2_R</text>
<polygon fill="#ffcc80" stroke="none" points="690,-38.12 690,-57.88 700,-57.88 700,-38.12 690,-38.12"/>
<polygon fill="#ff9900" stroke="none" points="702,-38.12 702,-57.88 712,-57.88 712,-38.12 702,-38.12"/>
</g>
<!-- AB4&#45;&gt;B2_R -->
<g id="edge7" class="edge">
<title>AB4&#45;&gt;B2_R</title>
<path fill="none" stroke="black" d="M590.02,-47.81C595.86,-49.55 601.92,-51.06 607.75,-52 612.15,-52.71 616.72,-53.13 621.33,-53.33"/>
<polygon fill="black" stroke="black" points="621.22,-56.83 631.24,-53.39 621.27,-49.83 621.22,-56.83"/>
<text text-anchor="middle" x="611.5" y="-55.37" font-family="Arial" font-size="14.00">a</text>
</g>
<!-- B2_R&#45;&gt;AB4 -->
<g id="edge8" class="edge">
<title>B2_R&#45;&gt;AB4</title>
<path fill="none" stroke="black" d="M632.96,-35.37C627.05,-34.08 621.03,-32.98 615.25,-32.25 611.94,-31.83 611.08,-32.16 607.75,-32.25 605.7,-32.3 603.61,-32.37 601.49,-32.45"/>
<polygon fill="black" stroke="black" points="601.48,-28.95 591.63,-32.87 601.78,-35.94 601.48,-28.95"/>
<text text-anchor="middle" x="611.5" y="-34.7" font-family="Arial" font-size="14.00">a</text>
</g>
<!-- B3 -->
<g id="node8" class="node">
<title>B3</title>
<path fill="none" stroke="black" d="M813,-66C813,-66 777.5,-66 777.5,-66 771.5,-66 765.5,-60 765.5,-54 765.5,-54 765.5,-42 765.5,-42 765.5,-36 771.5,-30 777.5,-30 777.5,-30 813,-30 813,-30 819,-30 825,-36 825,-42 825,-42 825,-54 825,-54 825,-60 819,-66 813,-66"/>
<text text-anchor="start" x="777.5" y="-42.58" font-family="Arial" font-size="14.00">B3</text>
<polygon fill="#ffcc80" stroke="none" points="805,-38.12 805,-57.88 815,-57.88 815,-38.12 805,-38.12"/>
</g>
<!-- B2_R&#45;&gt;B3 -->
<g id="edge9" class="edge">
<title>B2_R&#45;&gt;B3</title>
<path fill="none" stroke="black" d="M722.34,-48C732.63,-48 743.57,-48 753.71,-48"/>
<polygon fill="black" stroke="black" points="753.67,-51.5 763.67,-48 753.67,-44.5 753.67,-51.5"/>
<text text-anchor="middle" x="743.75" y="-50.45" font-family="Arial" font-size="14.00">a</text>
</g>
<!-- B4 -->
<g id="node9" class="node">
<title>B4</title>
<path fill="none" stroke="black" d="M916,-36C916,-36 880.5,-36 880.5,-36 874.5,-36 868.5,-30 868.5,-24 868.5,-24 868.5,-12 868.5,-12 868.5,-6 874.5,0 880.5,0 880.5,0 916,0 916,0 922,0 928,-6 928,-12 928,-12 928,-24 928,-24 928,-30 922,-36 916,-36"/>
<text text-anchor="start" x="880.5" y="-12.57" font-family="Arial" font-size="14.00">B4</text>
<polygon fill="#ffcc80" stroke="none" points="908,-8.12 908,-27.88 918,-27.88 918,-8.12 908,-8.12"/>
</g>
<!-- B3&#45;&gt;B4 -->
<g id="edge10" class="edge">
<title>B3&#45;&gt;B4</title>
<path fill="none" stroke="black" d="M825.46,-39.32C835.41,-36.37 846.7,-33.01 857.34,-29.85"/>
<polygon fill="black" stroke="black" points="858.06,-33.29 866.65,-27.09 856.07,-26.58 858.06,-33.29"/>
<text text-anchor="middle" x="846.75" y="-36.35" font-family="Arial" font-size="14.00">a</text>
</g>
<!-- B4&#45;&gt;AB4 -->
<g id="edge11" class="edge">
<title>B4&#45;&gt;AB4</title>
<path fill="none" stroke="black" d="M868.26,-16.73C819.57,-14.96 718.34,-12.82 633.25,-21 622.75,-22.01 611.55,-23.7 601.03,-25.56"/>
<polygon fill="black" stroke="black" points="600.63,-22.08 591.44,-27.35 601.91,-28.96 600.63,-22.08"/>
<text text-anchor="middle" x="743.75" y="-17.85" font-family="Arial" font-size="14.00">a</text>
</g>
</g>
</svg>
