<?xml version="1.0" encoding="UTF-8" standalone="no"?>
<!DOCTYPE svg PUBLIC "-//W3C//DTD SVG 1.1//EN"
 "http://www.w3.org/Graphics/SVG/1.1/DTD/svg11.dtd">
<!-- Generated by graphviz version 12.2.1 (20241206.2353)
 -->
<!-- Title: wSpec3 Pages: 1 -->
<svg width="169pt" height="187pt"
 viewBox="0.00 0.00 169.22 187.00" xmlns="http://www.w3.org/2000/svg" xmlns:xlink="http://www.w3.org/1999/xlink">
<g id="graph0" class="graph" transform="scale(1 1) rotate(0) translate(4 183)">
<title>wSpec3</title>
<!-- dot_dummyinit_1 -->
<g id="node1" class="node">
<title>dot_dummyinit_1</title>
</g>
<!-- N -->
<g id="node2" class="node">
<title>N</title>
<ellipse fill="none" stroke="black" cx="59.72" cy="-22" rx="18" ry="18"/>
<ellipse fill="none" stroke="black" cx="59.72" cy="-22" rx="22" ry="22"/>
<text text-anchor="middle" x="59.72" y="-16.57" font-family="Arial" font-size="14.00">N</text>
</g>
<!-- dot_dummyinit_1&#45;&gt;N -->
<g id="edge1" class="edge">
<title>dot_dummyinit_1&#45;&gt;N</title>
<path fill="none" stroke="black" d="M0.89,-22C2.38,-22 13.74,-22 26,-22"/>
<polygon fill="black" stroke="black" points="25.74,-25.5 35.74,-22 25.74,-18.5 25.74,-25.5"/>
</g>
<!-- N&#45;&gt;N -->
<g id="edge2" class="edge">
<title>N&#45;&gt;N</title>
<path fill="none" stroke="black" d="M57.84,-44.21C57.69,-53.8 58.32,-62 59.72,-62 60.51,-62 61.05,-59.4 61.35,-55.43"/>
<polygon fill="black" stroke="black" points="64.84,-55.8 61.56,-45.73 57.84,-55.65 64.84,-55.8"/>
<text text-anchor="middle" x="59.72" y="-64.45" font-family="Arial" font-size="14.00">a</text>
</g>
<!-- N&#45;&gt;N -->
<g id="edge3" class="edge">
<title>N&#45;&gt;N</title>
<path fill="none" stroke="black" d="M56.46,-44.02C55.15,-61.72 56.24,-80 59.72,-80 62.47,-80 63.72,-68.62 63.49,-55.12"/>
<polygon fill="black" stroke="black" points="67,-55.36 63.05,-45.53 60.01,-55.68 67,-55.36"/>
<text text-anchor="middle" x="59.72" y="-82.45" font-family="Arial" font-size="14.00">b</text>
</g>
<!-- N&#45;&gt;N -->
<g id="edge4" class="edge">
<title>N&#45;&gt;N</title>
<path fill="none" stroke="black" d="M55.54,-43.78C52.57,-68.9 53.97,-98 59.72,-98 64.62,-98 66.36,-76.9 64.93,-55.12"/>
<polygon fill="black" stroke="black" points="68.43,-54.93 64.04,-45.29 61.46,-55.57 68.43,-54.93"/>
<text text-anchor="middle" x="59.72" y="-100.45" font-family="Arial" font-size="14.00">c</text>
</g>
<!-- N&#45;&gt;N -->
<g id="edge6" class="edge">
<title>N&#45;&gt;N</title>
<path fill="none" stroke="black" d="M54.87,-43.71C50,-75.81 51.61,-116 59.72,-116 66.91,-116 68.99,-84.4 65.97,-54.86"/>
<polygon fill="black" stroke="black" points="69.48,-54.7 64.76,-45.22 62.54,-55.58 69.48,-54.7"/>
<text text-anchor="middle" x="59.72" y="-118.45" font-family="Arial" font-size="14.00">e</text>
</g>
<!-- F -->
<g id="node3" class="node">
<title>F</title>
<ellipse fill="none" stroke="black" cx="143.22" cy="-22" rx="18" ry="18"/>
<text text-anchor="middle" x="143.22" y="-16.57" font-family="Arial" font-size="14.00">F</text>
</g>
<!-- N&#45;&gt;F -->
<g id="edge5" class="edge">
<title>N&#45;&gt;F</title>
<path fill="none" stroke="black" d="M82.13,-22C91.69,-22 103.1,-22 113.39,-22"/>
<polygon fill="black" stroke="black" points="113.28,-25.5 123.28,-22 113.28,-18.5 113.28,-25.5"/>
<text text-anchor="middle" x="103.47" y="-24.45" font-family="Arial" font-size="14.00">f</text>
</g>
<!-- F&#45;&gt;N -->
<g id="edge11" class="edge">
<title>F&#45;&gt;N</title>
<path fill="none" stroke="black" d="M127.96,-11.75C121.88,-7.98 114.51,-4.16 107.22,-2.25 100.7,-0.54 93.9,-1.63 87.58,-4.01"/>
<polygon fill="black" stroke="black" points="86.32,-0.72 78.89,-8.27 89.41,-7.01 86.32,-0.72"/>
<text text-anchor="middle" x="103.47" y="-4.7" font-family="Arial" font-size="14.00">e</text>
</g>
<!-- F&#45;&gt;F -->
<g id="edge7" class="edge">
<title>F&#45;&gt;F</title>
<path fill="none" stroke="black" d="M141.42,-40.15C141.15,-49.54 141.74,-58 143.22,-58 144.03,-58 144.57,-55.47 144.85,-51.64"/>
<polygon fill="black" stroke="black" points="148.35,-51.71 145,-41.67 141.35,-51.62 148.35,-51.71"/>
<text text-anchor="middle" x="143.22" y="-60.45" font-family="Arial" font-size="14.00">a</text>
</g>
<!-- F&#45;&gt;F -->
<g id="edge8" class="edge">
<title>F&#45;&gt;F</title>
<path fill="none" stroke="black" d="M140.23,-39.98C138.63,-57.2 139.63,-76 143.22,-76 146.03,-76 147.25,-64.53 146.88,-51.29"/>
<polygon fill="black" stroke="black" points="150.39,-51.26 146.3,-41.49 143.4,-51.68 150.39,-51.26"/>
<text text-anchor="middle" x="143.22" y="-78.45" font-family="Arial" font-size="14.00">b</text>
</g>
<!-- F&#45;&gt;F -->
<g id="edge9" class="edge">
<title>F&#45;&gt;F</title>
<path fill="none" stroke="black" d="M139.45,-40.08C136.11,-64.41 137.37,-94 143.22,-94 148.18,-94 149.84,-72.74 148.2,-51.44"/>
<polygon fill="black" stroke="black" points="151.69,-51.16 147.15,-41.58 144.73,-51.9 151.69,-51.16"/>
<text text-anchor="middle" x="143.22" y="-96.45" font-family="Arial" font-size="14.00">c</text>
</g>
<!-- F&#45;&gt;F -->
<g id="edge10" class="edge">
<title>F&#45;&gt;F</title>
<path fill="none" stroke="black" d="M138.98,-39.67C133.58,-70.85 134.99,-112 143.22,-112 150.49,-112 152.44,-79.93 149.08,-50.96"/>
<polygon fill="black" stroke="black" points="152.56,-50.57 147.68,-41.17 145.63,-51.56 152.56,-50.57"/>
<text text-anchor="middle" x="143.22" y="-114.45" font-family="Arial" font-size="14.00">f</text>
</g>
</g>
</svg>
