<?xml version="1.0" encoding="UTF-8" standalone="no"?>
<!DOCTYPE svg PUBLIC "-//W3C//DTD SVG 1.1//EN"
 "http://www.w3.org/Graphics/SVG/1.1/DTD/svg11.dtd">
<!-- Generated by graphviz version 2.43.0 (0)
 -->
<!-- Title: G Pages: 1 -->
<svg width="720pt" height="59pt"
 viewBox="0.00 0.00 720.00 59.00" xmlns="http://www.w3.org/2000/svg" xmlns:xlink="http://www.w3.org/1999/xlink">
<g id="graph0" class="graph" transform="scale(1.25 1.25) rotate(0) translate(4 70)">
<title>G</title>
<!-- dot_dummyinit_0 -->
<g id="node1" class="node">
<title>dot_dummyinit_0</title>
</g>
<!-- N0 -->
<g id="node2" class="node">
<title>N0</title>
<path fill="none" stroke="black" d="M133,-53C133,-53 103,-53 103,-53 97,-53 91,-47 91,-41 91,-41 91,-29 91,-29 91,-23 97,-17 103,-17 103,-17 133,-17 133,-17 139,-17 145,-23 145,-29 145,-29 145,-41 145,-41 145,-47 139,-53 133,-53"/>
<text text-anchor="middle" x="118" y="-31.3" font-family="Arial" font-size="14.00">N0</text>
</g>
<!-- dot_dummyinit_0&#45;&gt;N0 -->
<g id="edge1" class="edge">
<title>dot_dummyinit_0&#45;&gt;N0</title>
<path fill="none" stroke="black" d="M54.22,-35C62.55,-35 71.91,-35 80.82,-35"/>
<polygon fill="black" stroke="black" points="80.97,-38.5 90.97,-35 80.97,-31.5 80.97,-38.5"/>
</g>
<!-- A1 -->
<g id="node4" class="node">
<title>A1</title>
<path fill="none" stroke="black" d="M231,-53C231,-53 201,-53 201,-53 195,-53 189,-47 189,-41 189,-41 189,-29 189,-29 189,-23 195,-17 201,-17 201,-17 231,-17 231,-17 237,-17 243,-23 243,-29 243,-29 243,-41 243,-41 243,-47 237,-53 231,-53"/>
<polygon fill="lightblue" stroke="transparent" points="200,-25 200,-44 210,-44 210,-25 200,-25"/>
<text text-anchor="start" x="214" y="-30.8" font-family="Arial" font-size="14.00">A1</text>
</g>
<!-- N0&#45;&gt;A1 -->
<g id="edge2" class="edge">
<title>N0&#45;&gt;A1</title>
<path fill="none" stroke="black" d="M145.23,-35C155.5,-35 167.45,-35 178.53,-35"/>
<polygon fill="black" stroke="black" points="178.8,-38.5 188.8,-35 178.8,-31.5 178.8,-38.5"/>
<text text-anchor="middle" x="167" y="-38.8" font-family="Arial" font-size="14.00">a</text>
</g>
<!-- A3 -->
<g id="node3" class="node">
<title>A3</title>
<path fill="none" stroke="black" d="M455,-53C455,-53 425,-53 425,-53 419,-53 413,-47 413,-41 413,-41 413,-29 413,-29 413,-23 419,-17 425,-17 425,-17 455,-17 455,-17 461,-17 467,-23 467,-29 467,-29 467,-41 467,-41 467,-47 461,-53 455,-53"/>
<text text-anchor="middle" x="440" y="-31.3" font-family="Arial" font-size="14.00">A3</text>
</g>
<!-- AB4 -->
<g id="node6" class="node">
<title>AB4</title>
<path fill="none" stroke="black" d="M561,-53C561,-53 523,-53 523,-53 517,-53 511,-47 511,-41 511,-41 511,-29 511,-29 511,-23 517,-17 523,-17 523,-17 561,-17 561,-17 567,-17 573,-23 573,-29 573,-29 573,-41 573,-41 573,-47 567,-53 561,-53"/>
<polygon fill="#ffcc80" stroke="transparent" points="521,-25 521,-44 531,-44 531,-25 521,-25"/>
<text text-anchor="start" x="535" y="-30.8" font-family="Arial" font-size="14.00">AB4</text>
</g>
<!-- A3&#45;&gt;AB4 -->
<g id="edge6" class="edge">
<title>A3&#45;&gt;AB4</title>
<path fill="none" stroke="black" d="M467.01,-35C477.29,-35 489.34,-35 500.7,-35"/>
<polygon fill="black" stroke="black" points="500.87,-38.5 510.87,-35 500.87,-31.5 500.87,-38.5"/>
<text text-anchor="middle" x="489" y="-38.8" font-family="Arial" font-size="14.00">a</text>
</g>
<!-- A2_R -->
<g id="node5" class="node">
<title>A2_R</title>
<path fill="none" stroke="black" d="M357,-53C357,-53 299,-53 299,-53 293,-53 287,-47 287,-41 287,-41 287,-29 287,-29 287,-23 293,-17 299,-17 299,-17 357,-17 357,-17 363,-17 369,-23 369,-29 369,-29 369,-41 369,-41 369,-47 363,-53 357,-53"/>
<polygon fill="darkblue" stroke="transparent" points="297,-25 297,-44 307,-44 307,-25 297,-25"/>
<polygon fill="lightblue" stroke="transparent" points="309,-25 309,-44 319,-44 319,-25 309,-25"/>
<text text-anchor="start" x="323" y="-30.8" font-family="Arial" font-size="14.00">A2_R</text>
</g>
<!-- A1&#45;&gt;A2_R -->
<g id="edge3" class="edge">
<title>A1&#45;&gt;A2_R</title>
<path fill="none" stroke="black" d="M243.07,-35C253.19,-35 265.14,-35 276.8,-35"/>
<polygon fill="black" stroke="black" points="276.92,-38.5 286.92,-35 276.92,-31.5 276.92,-38.5"/>
<text text-anchor="middle" x="265" y="-38.8" font-family="Arial" font-size="14.00">a</text>
</g>
<!-- A2_R&#45;&gt;A3 -->
<g id="edge5" class="edge">
<title>A2_R&#45;&gt;A3</title>
<path fill="none" stroke="black" d="M369.02,-35C379.99,-35 391.81,-35 402.57,-35"/>
<polygon fill="black" stroke="black" points="402.89,-38.5 412.89,-35 402.89,-31.5 402.89,-38.5"/>
<text text-anchor="middle" x="391" y="-38.8" font-family="Arial" font-size="14.00">a</text>
</g>
<!-- A2_R&#45;&gt;A1 -->
<g id="edge4" class="edge">
<title>A2_R&#45;&gt;A1</title>
<path fill="none" stroke="black" d="M286.76,-16.97C278.31,-15.01 269.41,-14.26 261,-16 258.34,-16.55 255.65,-17.27 252.97,-18.1"/>
<polygon fill="black" stroke="black" points="251.64,-14.86 243.42,-21.54 254.02,-21.44 251.64,-14.86"/>
<text text-anchor="middle" x="265" y="-19.8" font-family="Arial" font-size="14.00">a</text>
</g>
<!-- B2_R -->
<g id="node7" class="node">
<title>B2_R</title>
<path fill="none" stroke="black" d="M687,-66C687,-66 629,-66 629,-66 623,-66 617,-60 617,-54 617,-54 617,-42 617,-42 617,-36 623,-30 629,-30 629,-30 687,-30 687,-30 693,-30 699,-36 699,-42 699,-42 699,-54 699,-54 699,-60 693,-66 687,-66"/>
<polygon fill="#ff9900" stroke="transparent" points="627,-38 627,-57 637,-57 637,-38 627,-38"/>
<polygon fill="#ffcc80" stroke="transparent" points="639,-38 639,-57 649,-57 649,-38 639,-38"/>
<text text-anchor="start" x="653" y="-43.8" font-family="Arial" font-size="14.00">B2_R</text>
</g>
<!-- AB4&#45;&gt;B2_R -->
<g id="edge7" class="edge">
<title>AB4&#45;&gt;B2_R</title>
<path fill="none" stroke="black" d="M573.1,-46.66C578.95,-48.47 585.1,-50.04 591,-51 596.04,-51.82 601.32,-52.26 606.6,-52.43"/>
<polygon fill="black" stroke="black" points="606.7,-55.93 616.71,-52.46 606.72,-48.93 606.7,-55.93"/>
<text text-anchor="middle" x="595" y="-54.8" font-family="Arial" font-size="14.00">a</text>
</g>
<!-- B2_R&#45;&gt;AB4 -->
<g id="edge8" class="edge">
<title>B2_R&#45;&gt;AB4</title>
<path fill="none" stroke="black" d="M616.73,-35.4C610.83,-33.99 604.8,-32.78 599,-32 595.48,-31.52 594.55,-31.89 591,-32 588.48,-32.08 585.89,-32.18 583.27,-32.3"/>
<polygon fill="black" stroke="black" points="583,-28.81 573.2,-32.82 583.37,-35.8 583,-28.81"/>
<text text-anchor="middle" x="595" y="-35.8" font-family="Arial" font-size="14.00">a</text>
</g>
<!-- B3 -->
<g id="node8" class="node">
<title>B3</title>
<path fill="none" stroke="black" d="M785,-66C785,-66 755,-66 755,-66 749,-66 743,-60 743,-54 743,-54 743,-42 743,-42 743,-36 749,-30 755,-30 755,-30 785,-30 785,-30 791,-30 797,-36 797,-42 797,-42 797,-54 797,-54 797,-60 791,-66 785,-66"/>
<polygon fill="#ffcc80" stroke="transparent" points="754,-38 754,-57 764,-57 764,-38 754,-38"/>
<text text-anchor="start" x="768" y="-43.8" font-family="Arial" font-size="14.00">B3</text>
</g>
<!-- B2_R&#45;&gt;B3 -->
<g id="edge9" class="edge">
<title>B2_R&#45;&gt;B3</title>
<path fill="none" stroke="black" d="M699.02,-48C709.99,-48 721.81,-48 732.57,-48"/>
<polygon fill="black" stroke="black" points="732.89,-51.5 742.89,-48 732.89,-44.5 732.89,-51.5"/>
<text text-anchor="middle" x="721" y="-51.8" font-family="Arial" font-size="14.00">a</text>
</g>
<!-- B4 -->
<g id="node9" class="node">
<title>B4</title>
<path fill="none" stroke="black" d="M883,-36C883,-36 853,-36 853,-36 847,-36 841,-30 841,-24 841,-24 841,-12 841,-12 841,-6 847,0 853,0 853,0 883,0 883,0 889,0 895,-6 895,-12 895,-12 895,-24 895,-24 895,-30 889,-36 883,-36"/>
<polygon fill="#ffcc80" stroke="transparent" points="852,-8 852,-27 862,-27 862,-8 852,-8"/>
<text text-anchor="start" x="866" y="-13.8" font-family="Arial" font-size="14.00">B4</text>
</g>
<!-- B3&#45;&gt;B4 -->
<g id="edge10" class="edge">
<title>B3&#45;&gt;B4</title>
<path fill="none" stroke="black" d="M797.23,-39.8C807.71,-36.53 819.94,-32.71 831.21,-29.18"/>
<polygon fill="black" stroke="black" points="832.3,-32.51 840.8,-26.19 830.21,-25.83 832.3,-32.51"/>
<text text-anchor="middle" x="819" y="-36.8" font-family="Arial" font-size="14.00">a</text>
</g>
<!-- B4&#45;&gt;AB4 -->
<g id="edge11" class="edge">
<title>B4&#45;&gt;AB4</title>
<path fill="none" stroke="black" d="M840.64,-16.81C794.96,-15.08 698.2,-12.89 617,-21 605.96,-22.1 594.1,-24.01 583.19,-26.07"/>
<polygon fill="black" stroke="black" points="582.2,-22.7 573.07,-28.08 583.56,-29.57 582.2,-22.7"/>
<text text-anchor="middle" x="721" y="-19.8" font-family="Arial" font-size="14.00">a</text>
</g>
</g>
</svg>
