<?xml version="1.0" encoding="UTF-8" standalone="no"?>
<!DOCTYPE svg PUBLIC "-//W3C//DTD SVG 1.1//EN"
 "http://www.w3.org/Graphics/SVG/1.1/DTD/svg11.dtd">
<!-- Generated by graphviz version 12.2.1 (20241206.2353)
 -->
<!-- Title: SupBuechiConNorm((wPlant3),(wSpec3)) [minstate] Pages: 1 -->
<svg width="576pt" height="240pt"
 viewBox="0.00 0.00 576.22 240.00" xmlns="http://www.w3.org/2000/svg" xmlns:xlink="http://www.w3.org/1999/xlink">
<g id="graph0" class="graph" transform="scale(1 1) rotate(0) translate(4 236)">
<title>SupBuechiConNorm((wPlant3),(wSpec3)) [minstate]</title>
<!-- dot_dummyinit_1 -->
<g id="node1" class="node">
<title>dot_dummyinit_1</title>
</g>
<!-- 5 -->
<g id="node2" class="node">
<title>5</title>
<ellipse fill="none" stroke="black" cx="55.72" cy="-57" rx="18" ry="18"/>
<text text-anchor="middle" x="55.72" y="-51.58" font-family="Arial" font-size="14.00">5</text>
</g>
<!-- dot_dummyinit_1&#45;&gt;5 -->
<g id="edge1" class="edge">
<title>dot_dummyinit_1&#45;&gt;5</title>
<path fill="none" stroke="black" d="M0.87,-57C2.34,-57 13.93,-57 25.99,-57"/>
<polygon fill="black" stroke="black" points="25.86,-60.5 35.86,-57 25.86,-53.5 25.86,-60.5"/>
</g>
<!-- 1 -->
<g id="node3" class="node">
<title>1</title>
<ellipse fill="none" stroke="black" cx="139.22" cy="-92" rx="18" ry="18"/>
<ellipse fill="none" stroke="black" cx="139.22" cy="-92" rx="22" ry="22"/>
<text text-anchor="middle" x="139.22" y="-86.58" font-family="Arial" font-size="14.00">1</text>
</g>
<!-- 5&#45;&gt;1 -->
<g id="edge9" class="edge">
<title>5&#45;&gt;1</title>
<path fill="none" stroke="black" d="M66.14,-71.76C72.3,-79.98 81.16,-89.45 91.72,-94 96.23,-95.94 101.22,-96.85 106.2,-97.1"/>
<polygon fill="black" stroke="black" points="106.22,-100.61 116.09,-96.75 105.97,-93.61 106.22,-100.61"/>
<text text-anchor="middle" x="95.47" y="-98.65" font-family="Arial" font-size="14.00">a</text>
</g>
<!-- 6 -->
<g id="node5" class="node">
<title>6</title>
<ellipse fill="none" stroke="black" cx="139.22" cy="-22" rx="18" ry="18"/>
<ellipse fill="none" stroke="black" cx="139.22" cy="-22" rx="22" ry="22"/>
<text text-anchor="middle" x="139.22" y="-16.57" font-family="Arial" font-size="14.00">6</text>
</g>
<!-- 5&#45;&gt;6 -->
<g id="edge10" class="edge">
<title>5&#45;&gt;6</title>
<path fill="none" stroke="black" d="M72.82,-50.09C82.84,-45.78 96.04,-40.12 107.95,-35"/>
<polygon fill="black" stroke="black" points="109.21,-38.27 117.01,-31.11 106.44,-31.84 109.21,-38.27"/>
<text text-anchor="middle" x="95.47" y="-44.05" font-family="Arial" font-size="14.00">b</text>
</g>
<!-- 1&#45;&gt;5 -->
<g id="edge2" class="edge">
<title>1&#45;&gt;5</title>
<path fill="none" stroke="black" d="M118.4,-83.49C107.8,-78.94 94.6,-73.27 83.14,-68.35"/>
<polygon fill="black" stroke="black" points="84.78,-65.24 74.21,-64.51 82.02,-71.67 84.78,-65.24"/>
<text text-anchor="middle" x="95.47" y="-76.95" font-family="Arial" font-size="14.00">c</text>
</g>
<!-- 8 -->
<g id="node9" class="node">
<title>8</title>
<ellipse fill="none" stroke="black" cx="218.97" cy="-157" rx="18" ry="18"/>
<text text-anchor="middle" x="218.97" y="-151.57" font-family="Arial" font-size="14.00">8</text>
</g>
<!-- 1&#45;&gt;8 -->
<g id="edge3" class="edge">
<title>1&#45;&gt;8</title>
<path fill="none" stroke="black" d="M156.71,-105.78C168.19,-115.38 183.62,-128.28 196.12,-138.73"/>
<polygon fill="black" stroke="black" points="193.53,-141.13 203.44,-144.86 198.02,-135.76 193.53,-141.13"/>
<text text-anchor="middle" x="181.1" y="-128.9" font-family="Arial" font-size="14.00">f</text>
</g>
<!-- 3 -->
<g id="node4" class="node">
<title>3</title>
<ellipse fill="none" stroke="black" cx="381.97" cy="-150" rx="18" ry="18"/>
<ellipse fill="none" stroke="black" cx="381.97" cy="-150" rx="22" ry="22"/>
<text text-anchor="middle" x="381.97" y="-144.57" font-family="Arial" font-size="14.00">3</text>
</g>
<!-- 7 -->
<g id="node8" class="node">
<title>7</title>
<ellipse fill="none" stroke="black" cx="298.47" cy="-139" rx="18" ry="18"/>
<text text-anchor="middle" x="298.47" y="-133.57" font-family="Arial" font-size="14.00">7</text>
</g>
<!-- 3&#45;&gt;7 -->
<g id="edge5" class="edge">
<title>3&#45;&gt;7</title>
<path fill="none" stroke="black" d="M360.44,-144.72C354.52,-143.38 348.02,-142.08 341.97,-141.25 337.49,-140.63 332.72,-140.18 328.05,-139.85"/>
<polygon fill="black" stroke="black" points="328.58,-136.38 318.41,-139.34 328.21,-143.37 328.58,-136.38"/>
<text text-anchor="middle" x="338.22" y="-143.7" font-family="Arial" font-size="14.00">a</text>
</g>
<!-- 10 -->
<g id="node11" class="node">
<title>10</title>
<ellipse fill="none" stroke="black" cx="468.1" cy="-160" rx="20.63" ry="20.63"/>
<text text-anchor="middle" x="468.1" y="-154.57" font-family="Arial" font-size="14.00">10</text>
</g>
<!-- 3&#45;&gt;10 -->
<g id="edge6" class="edge">
<title>3&#45;&gt;10</title>
<path fill="none" stroke="black" d="M404.2,-152.52C413.82,-153.67 425.38,-155.04 435.96,-156.3"/>
<polygon fill="black" stroke="black" points="435.47,-159.77 445.82,-157.47 436.3,-152.81 435.47,-159.77"/>
<text text-anchor="middle" x="425.72" y="-157.75" font-family="Arial" font-size="14.00">b</text>
</g>
<!-- 6&#45;&gt;5 -->
<g id="edge11" class="edge">
<title>6&#45;&gt;5</title>
<path fill="none" stroke="black" d="M117.61,-17.48C109.27,-16.59 99.74,-16.81 91.72,-20.25 84.92,-23.17 78.81,-28.12 73.68,-33.47"/>
<polygon fill="black" stroke="black" points="71.25,-30.92 67.43,-40.8 76.58,-35.46 71.25,-30.92"/>
<text text-anchor="middle" x="95.47" y="-22.7" font-family="Arial" font-size="14.00">c</text>
</g>
<!-- 2 -->
<g id="node6" class="node">
<title>2</title>
<ellipse fill="none" stroke="black" cx="550.22" cy="-136" rx="18" ry="18"/>
<text text-anchor="middle" x="550.22" y="-130.57" font-family="Arial" font-size="14.00">2</text>
</g>
<!-- 4 -->
<g id="node7" class="node">
<title>4</title>
<ellipse fill="none" stroke="black" cx="468.1" cy="-97" rx="18" ry="18"/>
<text text-anchor="middle" x="468.1" y="-91.58" font-family="Arial" font-size="14.00">4</text>
</g>
<!-- 2&#45;&gt;4 -->
<g id="edge4" class="edge">
<title>2&#45;&gt;4</title>
<path fill="none" stroke="black" d="M539.82,-121.05C533.66,-112.7 524.8,-103.05 514.22,-98.25 509.05,-95.91 503.19,-94.79 497.45,-94.39"/>
<polygon fill="black" stroke="black" points="497.59,-90.89 487.6,-94.42 497.61,-97.89 497.59,-90.89"/>
<text text-anchor="middle" x="510.47" y="-100.7" font-family="Arial" font-size="14.00">c</text>
</g>
<!-- 4&#45;&gt;2 -->
<g id="edge7" class="edge">
<title>4&#45;&gt;2</title>
<path fill="none" stroke="black" d="M484.54,-104.52C495.56,-109.88 510.62,-117.21 523.44,-123.45"/>
<polygon fill="black" stroke="black" points="521.66,-126.48 532.18,-127.71 524.72,-120.18 521.66,-126.48"/>
<text text-anchor="middle" x="510.47" y="-121.29" font-family="Arial" font-size="14.00">b</text>
</g>
<!-- 11 -->
<g id="node12" class="node">
<title>11</title>
<ellipse fill="none" stroke="black" cx="381.97" cy="-74" rx="20.13" ry="20.13"/>
<text text-anchor="middle" x="381.97" y="-68.58" font-family="Arial" font-size="14.00">11</text>
</g>
<!-- 4&#45;&gt;11 -->
<g id="edge8" class="edge">
<title>4&#45;&gt;11</title>
<path fill="none" stroke="black" d="M457.1,-82.31C450.4,-73.82 440.75,-63.93 429.47,-59.25 423.16,-56.63 416.2,-57.13 409.64,-59.04"/>
<polygon fill="black" stroke="black" points="408.5,-55.72 400.54,-62.72 411.13,-62.21 408.5,-55.72"/>
<text text-anchor="middle" x="425.72" y="-61.7" font-family="Arial" font-size="14.00">a</text>
</g>
<!-- 7&#45;&gt;3 -->
<g id="edge12" class="edge">
<title>7&#45;&gt;3</title>
<path fill="none" stroke="black" d="M314.19,-148.54C320.22,-151.92 327.43,-155.3 334.47,-157 339.2,-158.15 344.25,-158.38 349.21,-158.06"/>
<polygon fill="black" stroke="black" points="349.53,-161.55 358.95,-156.7 348.56,-154.62 349.53,-161.55"/>
<text text-anchor="middle" x="338.22" y="-160.45" font-family="Arial" font-size="14.00">c</text>
</g>
<!-- 7&#45;&gt;11 -->
<g id="edge13" class="edge">
<title>7&#45;&gt;11</title>
<path fill="none" stroke="black" d="M313.3,-127.97C325.22,-118.47 342.7,-104.52 356.91,-93.19"/>
<polygon fill="black" stroke="black" points="358.87,-96.1 364.51,-87.13 354.5,-90.63 358.87,-96.1"/>
<text text-anchor="middle" x="338.22" y="-112.84" font-family="Arial" font-size="14.00">f</text>
</g>
<!-- 8&#45;&gt;7 -->
<g id="edge14" class="edge">
<title>8&#45;&gt;7</title>
<path fill="none" stroke="black" d="M234.71,-147.61C240.74,-144.29 247.95,-140.95 254.97,-139.25 259.44,-138.17 264.25,-137.6 268.98,-137.35"/>
<polygon fill="black" stroke="black" points="268.79,-140.85 278.78,-137.32 268.77,-133.85 268.79,-140.85"/>
<text text-anchor="middle" x="258.72" y="-141.7" font-family="Arial" font-size="14.00">e</text>
</g>
<!-- 9 -->
<g id="node10" class="node">
<title>9</title>
<ellipse fill="none" stroke="black" cx="298.47" cy="-214" rx="18" ry="18"/>
<text text-anchor="middle" x="298.47" y="-208.57" font-family="Arial" font-size="14.00">9</text>
</g>
<!-- 8&#45;&gt;9 -->
<g id="edge15" class="edge">
<title>8&#45;&gt;9</title>
<path fill="none" stroke="black" d="M236.03,-163.5C244.3,-167.22 254.34,-172.32 262.47,-178.25 268.05,-182.31 273.53,-187.3 278.45,-192.24"/>
<polygon fill="black" stroke="black" points="275.65,-194.37 285.05,-199.25 280.74,-189.57 275.65,-194.37"/>
<text text-anchor="middle" x="258.72" y="-180.7" font-family="Arial" font-size="14.00">c</text>
</g>
<!-- 9&#45;&gt;2 -->
<g id="edge16" class="edge">
<title>9&#45;&gt;2</title>
<path fill="none" stroke="black" d="M316.84,-215.13C351.31,-216.68 430.1,-216.7 488.72,-190 504.85,-182.65 519.75,-169.47 530.73,-157.97"/>
<polygon fill="black" stroke="black" points="533.15,-160.5 537.29,-150.75 527.98,-155.79 533.15,-160.5"/>
<text text-anchor="middle" x="425.72" y="-211.55" font-family="Arial" font-size="14.00">b</text>
</g>
<!-- 9&#45;&gt;8 -->
<g id="edge17" class="edge">
<title>9&#45;&gt;8</title>
<path fill="none" stroke="black" d="M281.35,-208.09C273.06,-204.65 263.03,-199.83 254.97,-194 249.19,-189.82 243.57,-184.59 238.59,-179.4"/>
<polygon fill="black" stroke="black" points="241.21,-177.08 231.91,-172 236.02,-181.77 241.21,-177.08"/>
<text text-anchor="middle" x="258.72" y="-200.66" font-family="Arial" font-size="14.00">a</text>
</g>
<!-- 10&#45;&gt;3 -->
<g id="edge18" class="edge">
<title>10&#45;&gt;3</title>
<path fill="none" stroke="black" d="M451.66,-146.91C445.22,-142.28 437.41,-137.63 429.47,-135.25 423.83,-133.56 417.83,-133.88 412.08,-135.23"/>
<polygon fill="black" stroke="black" points="411.24,-131.82 402.91,-138.37 413.51,-138.44 411.24,-131.82"/>
<text text-anchor="middle" x="425.72" y="-137.7" font-family="Arial" font-size="14.00">c</text>
</g>
<!-- 11&#45;&gt;1 -->
<g id="edge19" class="edge">
<title>11&#45;&gt;1</title>
<path fill="none" stroke="black" d="M361.68,-75.44C320.55,-78.52 223.83,-85.75 172.9,-89.56"/>
<polygon fill="black" stroke="black" points="172.81,-86.05 163.09,-90.29 173.33,-93.03 172.81,-86.05"/>
<text text-anchor="middle" x="258.72" y="-85.87" font-family="Arial" font-size="14.00">e</text>
</g>
<!-- 11&#45;&gt;4 -->
<g id="edge20" class="edge">
<title>11&#45;&gt;4</title>
<path fill="none" stroke="black" d="M401.64,-79.1C412.64,-82.11 426.78,-85.98 439.1,-89.35"/>
<polygon fill="black" stroke="black" points="438.16,-92.72 448.73,-91.98 440.01,-85.97 438.16,-92.72"/>
<text text-anchor="middle" x="425.72" y="-88.64" font-family="Arial" font-size="14.00">c</text>
</g>
</g>
</svg>
