<?xml version="1.0" encoding="UTF-8" standalone="no"?>
<!DOCTYPE svg PUBLIC "-//W3C//DTD SVG 1.1//EN"
 "http://www.w3.org/Graphics/SVG/1.1/DTD/svg11.dtd">
<!-- Generated by graphviz version 2.43.0 (0)
 -->
<!-- Title: A&#45;B&#45;Machine&#45;B&#45;Breaks Pages: 1 -->
<svg width="609pt" height="88pt"
 viewBox="0.00 0.00 609.00 87.97" xmlns="http://www.w3.org/2000/svg" xmlns:xlink="http://www.w3.org/1999/xlink">
<g id="graph0" class="graph" transform="scale(1 1) rotate(0) translate(4 83.97)">
<title>A&#45;B&#45;Machine&#45;B&#45;Breaks</title>
<!-- dot_dummyinit_1 -->
<g id="node1" class="node">
<title>dot_dummyinit_1</title>
</g>
<!-- I -->
<g id="node2" class="node">
<title>I</title>
<path fill="none" stroke="black" d="M80,-54.97C80,-54.97 50,-54.97 50,-54.97 44,-54.97 38,-48.97 38,-42.97 38,-42.97 38,-30.97 38,-30.97 38,-24.97 44,-18.97 50,-18.97 50,-18.97 80,-18.97 80,-18.97 86,-18.97 92,-24.97 92,-30.97 92,-30.97 92,-42.97 92,-42.97 92,-48.97 86,-54.97 80,-54.97"/>
<text text-anchor="start" x="55" y="-32.77" font-family="Arial" font-size="14.00">I</text>
<polygon fill="black" stroke="transparent" points="69,-26.97 69,-45.97 77,-45.97 77,-26.97 69,-26.97"/>
</g>
<!-- dot_dummyinit_1&#45;&gt;I -->
<g id="edge1" class="edge">
<title>dot_dummyinit_1&#45;&gt;I</title>
<path fill="none" stroke="black" d="M1.05,-36.97C1.88,-36.97 14.11,-36.97 27.57,-36.97"/>
<polygon fill="black" stroke="black" points="27.94,-40.47 37.94,-36.97 27.94,-33.47 27.94,-40.47"/>
</g>
<!-- A -->
<g id="node4" class="node">
<title>A</title>
<path fill="none" stroke="black" d="M178,-79.97C178,-79.97 148,-79.97 148,-79.97 142,-79.97 136,-73.97 136,-67.97 136,-67.97 136,-55.97 136,-55.97 136,-49.97 142,-43.97 148,-43.97 148,-43.97 178,-43.97 178,-43.97 184,-43.97 190,-49.97 190,-55.97 190,-55.97 190,-67.97 190,-67.97 190,-73.97 184,-79.97 178,-79.97"/>
<text text-anchor="middle" x="163" y="-58.27" font-family="Arial" font-size="14.00">A</text>
</g>
<!-- I&#45;&gt;A -->
<g id="edge2" class="edge">
<title>I&#45;&gt;A</title>
<path fill="none" stroke="black" d="M92.28,-47.39C98.06,-49.44 104.19,-51.43 110,-52.97 115.07,-54.32 120.48,-55.52 125.81,-56.56"/>
<polygon fill="black" stroke="black" points="125.42,-60.05 135.88,-58.38 126.66,-53.16 125.42,-60.05"/>
<text text-anchor="middle" x="114" y="-57.77" font-family="Arial" font-size="14.00">a</text>
</g>
<!-- B -->
<g id="node5" class="node">
<title>B</title>
<path fill="none" stroke="black" d="M374,-37.97C374,-37.97 344,-37.97 344,-37.97 338,-37.97 332,-31.97 332,-25.97 332,-25.97 332,-13.97 332,-13.97 332,-7.97 338,-1.97 344,-1.97 344,-1.97 374,-1.97 374,-1.97 380,-1.97 386,-7.97 386,-13.97 386,-13.97 386,-25.97 386,-25.97 386,-31.97 380,-37.97 374,-37.97"/>
<text text-anchor="middle" x="359" y="-16.27" font-family="Arial" font-size="14.00">B</text>
</g>
<!-- I&#45;&gt;B -->
<g id="edge3" class="edge">
<title>I&#45;&gt;B</title>
<path fill="none" stroke="black" d="M92.42,-30.9C98.18,-29.76 104.28,-28.7 110,-27.97 184.69,-18.48 272.99,-18.22 321.51,-19.01"/>
<polygon fill="black" stroke="black" points="321.74,-22.52 331.81,-19.21 321.88,-15.52 321.74,-22.52"/>
<text text-anchor="middle" x="212" y="-23.77" font-family="Arial" font-size="14.00">b</text>
</g>
<!-- XB -->
<g id="node3" class="node">
<title>XB</title>
<path fill="none" stroke="black" d="M476,-37.97C476,-37.97 441,-37.97 441,-37.97 435,-37.97 429,-31.97 429,-25.97 429,-25.97 429,-13.97 429,-13.97 429,-7.97 435,-1.97 441,-1.97 441,-1.97 476,-1.97 476,-1.97 482,-1.97 488,-7.97 488,-13.97 488,-13.97 488,-25.97 488,-25.97 488,-31.97 482,-37.97 476,-37.97"/>
<text text-anchor="start" x="441.5" y="-15.77" font-family="Arial" font-size="14.00">XB</text>
<polygon fill="black" stroke="transparent" points="470.5,-9.97 470.5,-28.97 478.5,-28.97 478.5,-9.97 470.5,-9.97"/>
</g>
<!-- FB -->
<g id="node7" class="node">
<title>FB</title>
<path fill="none" stroke="black" d="M589,-37.97C589,-37.97 559,-37.97 559,-37.97 553,-37.97 547,-31.97 547,-25.97 547,-25.97 547,-13.97 547,-13.97 547,-7.97 553,-1.97 559,-1.97 559,-1.97 589,-1.97 589,-1.97 595,-1.97 601,-7.97 601,-13.97 601,-13.97 601,-25.97 601,-25.97 601,-31.97 595,-37.97 589,-37.97"/>
<text text-anchor="middle" x="574" y="-16.27" font-family="Arial" font-size="14.00">FB</text>
</g>
<!-- XB&#45;&gt;FB -->
<g id="edge10" class="edge">
<title>XB&#45;&gt;FB</title>
<path fill="none" stroke="black" d="M488.14,-19.97C502.76,-19.97 520.71,-19.97 536.33,-19.97"/>
<polygon fill="black" stroke="black" points="536.7,-23.47 546.7,-19.97 536.7,-16.47 536.7,-23.47"/>
<text text-anchor="middle" x="517.5" y="-23.77" font-family="Arial" font-size="14.00">a, b</text>
</g>
<!-- A&#45;&gt;I -->
<g id="edge4" class="edge">
<title>A&#45;&gt;I</title>
<path fill="none" stroke="black" d="M138.99,-43.92C132.55,-39.84 125.3,-36.1 118,-33.97 112.97,-32.51 107.56,-31.86 102.2,-31.73"/>
<polygon fill="black" stroke="black" points="101.93,-28.24 92.05,-32.06 102.15,-35.24 101.93,-28.24"/>
<text text-anchor="middle" x="114" y="-37.77" font-family="Arial" font-size="14.00">c</text>
</g>
<!-- FA -->
<g id="node6" class="node">
<title>FA</title>
<path fill="none" stroke="black" d="M276,-67.97C276,-67.97 246,-67.97 246,-67.97 240,-67.97 234,-61.97 234,-55.97 234,-55.97 234,-43.97 234,-43.97 234,-37.97 240,-31.97 246,-31.97 246,-31.97 276,-31.97 276,-31.97 282,-31.97 288,-37.97 288,-43.97 288,-43.97 288,-55.97 288,-55.97 288,-61.97 282,-67.97 276,-67.97"/>
<text text-anchor="middle" x="261" y="-46.27" font-family="Arial" font-size="14.00">FA</text>
</g>
<!-- A&#45;&gt;FA -->
<g id="edge5" class="edge">
<title>A&#45;&gt;FA</title>
<path fill="none" stroke="black" d="M190.01,-63.33C198.34,-63.4 207.59,-63.1 216,-61.97 218.54,-61.63 221.14,-61.19 223.75,-60.67"/>
<polygon fill="black" stroke="black" points="224.75,-64.03 233.71,-58.36 223.18,-57.21 224.75,-64.03"/>
<text text-anchor="middle" x="212" y="-65.77" font-family="Arial" font-size="14.00">d</text>
</g>
<!-- B&#45;&gt;XB -->
<g id="edge6" class="edge">
<title>B&#45;&gt;XB</title>
<path fill="none" stroke="black" d="M386.13,-19.97C396.13,-19.97 407.77,-19.97 418.7,-19.97"/>
<polygon fill="black" stroke="black" points="418.9,-23.47 428.9,-19.97 418.9,-16.47 418.9,-23.47"/>
<text text-anchor="middle" x="407.5" y="-23.77" font-family="Arial" font-size="14.00">c</text>
</g>
<!-- FA&#45;&gt;A -->
<g id="edge7" class="edge">
<title>FA&#45;&gt;A</title>
<path fill="none" stroke="black" d="M233.96,-43.03C225.62,-41.72 216.39,-41.24 208,-42.97 205.34,-43.52 202.65,-44.24 199.97,-45.07"/>
<polygon fill="black" stroke="black" points="198.64,-41.83 190.42,-48.51 201.02,-48.42 198.64,-41.83"/>
<text text-anchor="middle" x="212" y="-46.77" font-family="Arial" font-size="14.00">a</text>
</g>
<!-- FA&#45;&gt;B -->
<g id="edge8" class="edge">
<title>FA&#45;&gt;B</title>
<path fill="none" stroke="black" d="M288.23,-41.77C298.71,-38.5 310.94,-34.68 322.21,-31.16"/>
<polygon fill="black" stroke="black" points="323.3,-34.48 331.8,-28.16 321.21,-27.8 323.3,-34.48"/>
<text text-anchor="middle" x="310" y="-38.77" font-family="Arial" font-size="14.00">b</text>
</g>
<!-- FB&#45;&gt;XB -->
<g id="edge9" class="edge">
<title>FB&#45;&gt;XB</title>
<path fill="none" stroke="black" d="M546.99,-7.4C541.2,-5.15 534.99,-3.15 529,-1.97 518.97,0 516.05,-0.1 506,-1.97 503.3,-2.48 500.56,-3.13 497.82,-3.89"/>
<polygon fill="black" stroke="black" points="496.49,-0.65 488.04,-7.04 498.63,-7.31 496.49,-0.65"/>
<text text-anchor="middle" x="517.5" y="-5.77" font-family="Arial" font-size="14.00">d</text>
</g>
</g>
</svg>
