<?xml version="1.0" encoding="UTF-8" standalone="no"?>
<!DOCTYPE svg PUBLIC "-//W3C//DTD SVG 1.1//EN"
 "http://www.w3.org/Graphics/SVG/1.1/DTD/svg11.dtd">
<!-- Generated by graphviz version 12.2.1 (20241206.2353)
 -->
<!-- Title: RabinCtrl((A&#45;B&#45;Machine),(Automaton(A&#45;B&#45;Spec&#45;Eventually&#45;B))) [minstate] Pages: 1 -->
<svg width="249pt" height="52pt"
 viewBox="0.00 0.00 248.72 52.00" xmlns="http://www.w3.org/2000/svg" xmlns:xlink="http://www.w3.org/1999/xlink">
<g id="graph0" class="graph" transform="scale(1 1) rotate(0) translate(4 48)">
<title>RabinCtrl((A&#45;B&#45;Machine),(Automaton(A&#45;B&#45;Spec&#45;Eventually&#45;B))) [minstate]</title>
<!-- dot_dummyinit_1 -->
<g id="node1" class="node">
<title>dot_dummyinit_1</title>
</g>
<!-- 1 -->
<g id="node2" class="node">
<title>1</title>
<ellipse fill="none" stroke="black" cx="59.72" cy="-22" rx="18" ry="18"/>
<ellipse fill="none" stroke="black" cx="59.72" cy="-22" rx="22" ry="22"/>
<text text-anchor="middle" x="59.72" y="-16.57" font-family="Arial" font-size="14.00">1</text>
</g>
<!-- dot_dummyinit_1&#45;&gt;1 -->
<g id="edge1" class="edge">
<title>dot_dummyinit_1&#45;&gt;1</title>
<path fill="none" stroke="black" d="M0.89,-22C2.38,-22 13.74,-22 26,-22"/>
<polygon fill="black" stroke="black" points="25.74,-25.5 35.74,-22 25.74,-18.5 25.74,-25.5"/>
</g>
<!-- 2 -->
<g id="node3" class="node">
<title>2</title>
<ellipse fill="none" stroke="black" cx="143.22" cy="-22" rx="18" ry="18"/>
<text text-anchor="middle" x="143.22" y="-16.57" font-family="Arial" font-size="14.00">2</text>
</g>
<!-- 1&#45;&gt;2 -->
<g id="edge2" class="edge">
<title>1&#45;&gt;2</title>
<path fill="none" stroke="black" d="M82.13,-22C91.69,-22 103.1,-22 113.39,-22"/>
<polygon fill="black" stroke="black" points="113.28,-25.5 123.28,-22 113.28,-18.5 113.28,-25.5"/>
<text text-anchor="middle" x="103.47" y="-24.45" font-family="Arial" font-size="14.00">b</text>
</g>
<!-- 2&#45;&gt;1 -->
<g id="edge3" class="edge">
<title>2&#45;&gt;1</title>
<path fill="none" stroke="black" d="M127.96,-11.75C121.88,-7.98 114.51,-4.16 107.22,-2.25 100.7,-0.54 93.9,-1.63 87.58,-4.01"/>
<polygon fill="black" stroke="black" points="86.32,-0.72 78.89,-8.27 89.41,-7.01 86.32,-0.72"/>
<text text-anchor="middle" x="103.47" y="-4.7" font-family="Arial" font-size="14.00">c</text>
</g>
<!-- 3 -->
<g id="node4" class="node">
<title>3</title>
<ellipse fill="none" stroke="black" cx="222.72" cy="-22" rx="18" ry="18"/>
<text text-anchor="middle" x="222.72" y="-16.57" font-family="Arial" font-size="14.00">3</text>
</g>
<!-- 2&#45;&gt;3 -->
<g id="edge4" class="edge">
<title>2&#45;&gt;3</title>
<path fill="none" stroke="black" d="M161.42,-22C170.69,-22 182.36,-22 192.97,-22"/>
<polygon fill="black" stroke="black" points="192.79,-25.5 202.79,-22 192.79,-18.5 192.79,-25.5"/>
<text text-anchor="middle" x="182.97" y="-24.45" font-family="Arial" font-size="14.00">d</text>
</g>
<!-- 3&#45;&gt;2 -->
<g id="edge5" class="edge">
<title>3&#45;&gt;2</title>
<path fill="none" stroke="black" d="M207.46,-11.75C201.38,-7.98 194.01,-4.16 186.72,-2.25 180.17,-0.53 173.38,-2.02 167.2,-4.81"/>
<polygon fill="black" stroke="black" points="165.75,-1.61 158.85,-9.65 169.26,-7.67 165.75,-1.61"/>
<text text-anchor="middle" x="182.97" y="-4.7" font-family="Arial" font-size="14.00">b</text>
</g>
</g>
</svg>
