<?xml version="1.0" encoding="UTF-8" standalone="no"?>
<!DOCTYPE svg PUBLIC "-//W3C//DTD SVG 1.1//EN"
 "http://www.w3.org/Graphics/SVG/1.1/DTD/svg11.dtd">
<!-- Generated by graphviz version 2.43.0 (0)
 -->
<!-- Title: G Pages: 1 -->
<svg width="720pt" height="155pt"
 viewBox="0.00 0.00 720.00 154.59" xmlns="http://www.w3.org/2000/svg" xmlns:xlink="http://www.w3.org/1999/xlink">
<g id="graph0" class="graph" transform="scale(1.4 1.4) rotate(0) translate(4 212)">
<title>G</title>
<!-- dot_dummyinit_0 -->
<g id="node1" class="node">
<title>dot_dummyinit_0</title>
</g>
<!-- N0 -->
<g id="node2" class="node">
<title>N0</title>
<path fill="none" stroke="black" d="M133,-152C133,-152 103,-152 103,-152 97,-152 91,-146 91,-140 91,-140 91,-128 91,-128 91,-122 97,-116 103,-116 103,-116 133,-116 133,-116 139,-116 145,-122 145,-128 145,-128 145,-140 145,-140 145,-146 139,-152 133,-152"/>
<text text-anchor="middle" x="118" y="-130.3" font-family="Arial" font-size="14.00">N0</text>
</g>
<!-- dot_dummyinit_0&#45;&gt;N0 -->
<g id="edge1" class="edge">
<title>dot_dummyinit_0&#45;&gt;N0</title>
<path fill="none" stroke="black" d="M54.22,-134C62.55,-134 71.91,-134 80.82,-134"/>
<polygon fill="black" stroke="black" points="80.97,-137.5 90.97,-134 80.97,-130.5 80.97,-137.5"/>
</g>
<!-- N1 -->
<g id="node3" class="node">
<title>N1</title>
<path fill="none" stroke="black" d="M309,-175C309,-175 279,-175 279,-175 273,-175 267,-169 267,-163 267,-163 267,-151 267,-151 267,-145 273,-139 279,-139 279,-139 309,-139 309,-139 315,-139 321,-145 321,-151 321,-151 321,-163 321,-163 321,-169 315,-175 309,-175"/>
<text text-anchor="middle" x="294" y="-153.3" font-family="Arial" font-size="14.00">N1</text>
</g>
<!-- N0&#45;&gt;N1 -->
<g id="edge2" class="edge">
<title>N0&#45;&gt;N1</title>
<path fill="none" stroke="black" d="M145.05,-137.44C174.65,-141.36 223.16,-147.77 256.52,-152.18"/>
<polygon fill="black" stroke="black" points="256.4,-155.69 266.77,-153.53 257.32,-148.75 256.4,-155.69"/>
<text text-anchor="middle" x="167" y="-143.8" font-family="Arial" font-size="14.00">a</text>
</g>
<!-- A1 -->
<g id="node6" class="node">
<title>A1</title>
<path fill="none" stroke="black" d="M237,-129C237,-129 201,-129 201,-129 195,-129 189,-123 189,-117 189,-117 189,-105 189,-105 189,-99 195,-93 201,-93 201,-93 237,-93 237,-93 243,-93 249,-99 249,-105 249,-105 249,-117 249,-117 249,-123 243,-129 237,-129"/>
<text text-anchor="start" x="201" y="-106.8" font-family="Arial" font-size="14.00">A1</text>
<polygon fill="lightblue" stroke="transparent" points="229,-101 229,-120 239,-120 239,-101 229,-101"/>
</g>
<!-- N0&#45;&gt;A1 -->
<g id="edge3" class="edge">
<title>N0&#45;&gt;A1</title>
<path fill="none" stroke="black" d="M145.35,-124.93C151.12,-123.13 157.23,-121.38 163,-120 168.05,-118.79 173.39,-117.69 178.69,-116.71"/>
<polygon fill="black" stroke="black" points="179.47,-120.13 188.73,-114.98 178.28,-113.23 179.47,-120.13"/>
<text text-anchor="middle" x="167" y="-123.8" font-family="Arial" font-size="14.00">a</text>
</g>
<!-- N2 -->
<g id="node4" class="node">
<title>N2</title>
<path fill="none" stroke="black" d="M631.5,-175C631.5,-175 601.5,-175 601.5,-175 595.5,-175 589.5,-169 589.5,-163 589.5,-163 589.5,-151 589.5,-151 589.5,-145 595.5,-139 601.5,-139 601.5,-139 631.5,-139 631.5,-139 637.5,-139 643.5,-145 643.5,-151 643.5,-151 643.5,-163 643.5,-163 643.5,-169 637.5,-175 631.5,-175"/>
<text text-anchor="middle" x="616.5" y="-153.3" font-family="Arial" font-size="14.00">N2</text>
</g>
<!-- N1&#45;&gt;N2 -->
<g id="edge4" class="edge">
<title>N1&#45;&gt;N2</title>
<path fill="none" stroke="black" d="M321.23,-157C378.3,-157 513.86,-157 579.14,-157"/>
<polygon fill="black" stroke="black" points="579.36,-160.5 589.36,-157 579.36,-153.5 579.36,-160.5"/>
<text text-anchor="middle" x="450" y="-160.8" font-family="Arial" font-size="14.00">a</text>
</g>
<!-- N2&#45;&gt;N2 -->
<g id="edge5" class="edge">
<title>N2&#45;&gt;N2</title>
<path fill="none" stroke="black" d="M605.28,-175.15C603.56,-184.54 607.3,-193 616.5,-193 622.11,-193 625.69,-189.86 627.24,-185.28"/>
<polygon fill="black" stroke="black" points="630.74,-185.31 627.72,-175.15 623.75,-184.98 630.74,-185.31"/>
<text text-anchor="middle" x="616.5" y="-196.8" font-family="Arial" font-size="14.00">a</text>
</g>
<!-- N3 -->
<g id="node5" class="node">
<title>N3</title>
<path fill="none" stroke="black" d="M760.5,-178C760.5,-178 730.5,-178 730.5,-178 724.5,-178 718.5,-172 718.5,-166 718.5,-166 718.5,-154 718.5,-154 718.5,-148 724.5,-142 730.5,-142 730.5,-142 760.5,-142 760.5,-142 766.5,-142 772.5,-148 772.5,-154 772.5,-154 772.5,-166 772.5,-166 772.5,-172 766.5,-178 760.5,-178"/>
<text text-anchor="middle" x="745.5" y="-156.3" font-family="Arial" font-size="14.00">N3</text>
</g>
<!-- N2&#45;&gt;N3 -->
<g id="edge6" class="edge">
<title>N2&#45;&gt;N3</title>
<path fill="none" stroke="black" d="M643.51,-157.61C662.13,-158.05 687.46,-158.65 708.09,-159.14"/>
<polygon fill="black" stroke="black" points="708.01,-162.64 718.09,-159.38 708.18,-155.64 708.01,-162.64"/>
<text text-anchor="middle" x="679" y="-161.8" font-family="Arial" font-size="14.00">a</text>
</g>
<!-- A2_R -->
<g id="node7" class="node">
<title>A2_R</title>
<path fill="none" stroke="black" d="M416,-109C416,-109 351,-109 351,-109 345,-109 339,-103 339,-97 339,-97 339,-85 339,-85 339,-79 345,-73 351,-73 351,-73 416,-73 416,-73 422,-73 428,-79 428,-85 428,-85 428,-97 428,-97 428,-103 422,-109 416,-109"/>
<text text-anchor="start" x="351.5" y="-86.8" font-family="Arial" font-size="14.00">A2_R</text>
<polygon fill="lightblue" stroke="transparent" points="396.5,-81 396.5,-100 406.5,-100 406.5,-81 396.5,-81"/>
<polygon fill="darkblue" stroke="transparent" points="408.5,-81 408.5,-100 418.5,-100 418.5,-81 408.5,-81"/>
</g>
<!-- A1&#45;&gt;A2_R -->
<g id="edge7" class="edge">
<title>A1&#45;&gt;A2_R</title>
<path fill="none" stroke="black" d="M249.05,-107.42C271.15,-104.7 302.18,-100.89 328.76,-97.61"/>
<polygon fill="black" stroke="black" points="329.21,-101.09 338.7,-96.39 328.35,-94.14 329.21,-101.09"/>
<text text-anchor="middle" x="294" y="-109.8" font-family="Arial" font-size="14.00">a</text>
</g>
<!-- A2_R&#45;&gt;A1 -->
<g id="edge8" class="edge">
<title>A2_R&#45;&gt;A1</title>
<path fill="none" stroke="black" d="M338.94,-79.1C316.98,-75.04 290.15,-73.05 267,-80 261.24,-81.73 255.54,-84.41 250.19,-87.5"/>
<polygon fill="black" stroke="black" points="248.16,-84.65 241.6,-92.97 251.91,-90.56 248.16,-84.65"/>
<text text-anchor="middle" x="294" y="-83.8" font-family="Arial" font-size="14.00">a</text>
</g>
<!-- A3 -->
<g id="node8" class="node">
<title>A3</title>
<path fill="none" stroke="black" d="M520,-109C520,-109 484,-109 484,-109 478,-109 472,-103 472,-97 472,-97 472,-85 472,-85 472,-79 478,-73 484,-73 484,-73 520,-73 520,-73 526,-73 532,-79 532,-85 532,-85 532,-97 532,-97 532,-103 526,-109 520,-109"/>
<text text-anchor="start" x="484" y="-86.8" font-family="Arial" font-size="14.00">A3</text>
<polygon fill="lightblue" stroke="transparent" points="512,-81 512,-100 522,-100 522,-81 512,-81"/>
</g>
<!-- A2_R&#45;&gt;A3 -->
<g id="edge9" class="edge">
<title>A2_R&#45;&gt;A3</title>
<path fill="none" stroke="black" d="M428.21,-91C439.27,-91 451.07,-91 461.89,-91"/>
<polygon fill="black" stroke="black" points="461.9,-94.5 471.9,-91 461.9,-87.5 461.9,-94.5"/>
<text text-anchor="middle" x="450" y="-94.8" font-family="Arial" font-size="14.00">a</text>
</g>
<!-- A3&#45;&gt;N2 -->
<g id="edge10" class="edge">
<title>A3&#45;&gt;N2</title>
<path fill="none" stroke="black" d="M532.26,-108.17C547.07,-116.85 565.14,-127.45 580.65,-136.56"/>
<polygon fill="black" stroke="black" points="579.06,-139.68 589.45,-141.72 582.6,-133.64 579.06,-139.68"/>
<text text-anchor="middle" x="554" y="-125.8" font-family="Arial" font-size="14.00">a</text>
</g>
<!-- AB4 -->
<g id="node9" class="node">
<title>AB4</title>
<path fill="none" stroke="black" d="M645,-91C645,-91 588,-91 588,-91 582,-91 576,-85 576,-79 576,-79 576,-67 576,-67 576,-61 582,-55 588,-55 588,-55 645,-55 645,-55 651,-55 657,-61 657,-67 657,-67 657,-79 657,-79 657,-85 651,-91 645,-91"/>
<text text-anchor="start" x="588.5" y="-68.8" font-family="Arial" font-size="14.00">AB4</text>
<polygon fill="lightblue" stroke="transparent" points="625.5,-63 625.5,-82 635.5,-82 635.5,-63 625.5,-63"/>
<polygon fill="#ffcc80" stroke="transparent" points="637.5,-63 637.5,-82 647.5,-82 647.5,-63 637.5,-63"/>
</g>
<!-- A3&#45;&gt;AB4 -->
<g id="edge11" class="edge">
<title>A3&#45;&gt;AB4</title>
<path fill="none" stroke="black" d="M532.26,-86.32C542.54,-84.67 554.38,-82.78 565.86,-80.94"/>
<polygon fill="black" stroke="black" points="566.47,-84.39 575.79,-79.35 565.37,-77.48 566.47,-84.39"/>
<text text-anchor="middle" x="554" y="-87.8" font-family="Arial" font-size="14.00">a</text>
</g>
<!-- A5 -->
<g id="node10" class="node">
<title>A5</title>
<path fill="none" stroke="black" d="M763.5,-124C763.5,-124 727.5,-124 727.5,-124 721.5,-124 715.5,-118 715.5,-112 715.5,-112 715.5,-100 715.5,-100 715.5,-94 721.5,-88 727.5,-88 727.5,-88 763.5,-88 763.5,-88 769.5,-88 775.5,-94 775.5,-100 775.5,-100 775.5,-112 775.5,-112 775.5,-118 769.5,-124 763.5,-124"/>
<text text-anchor="start" x="727.5" y="-101.8" font-family="Arial" font-size="14.00">A5</text>
<polygon fill="lightblue" stroke="transparent" points="755.5,-96 755.5,-115 765.5,-115 765.5,-96 755.5,-96"/>
</g>
<!-- AB4&#45;&gt;A5 -->
<g id="edge12" class="edge">
<title>AB4&#45;&gt;A5</title>
<path fill="none" stroke="black" d="M657.34,-83.35C672.73,-87.35 690.29,-91.91 705.6,-95.89"/>
<polygon fill="black" stroke="black" points="704.73,-99.28 715.29,-98.41 706.49,-92.51 704.73,-99.28"/>
<text text-anchor="middle" x="679" y="-93.8" font-family="Arial" font-size="14.00">a</text>
</g>
<!-- B2_R -->
<g id="node12" class="node">
<title>B2_R</title>
<path fill="none" stroke="black" d="M778,-66C778,-66 713,-66 713,-66 707,-66 701,-60 701,-54 701,-54 701,-42 701,-42 701,-36 707,-30 713,-30 713,-30 778,-30 778,-30 784,-30 790,-36 790,-42 790,-42 790,-54 790,-54 790,-60 784,-66 778,-66"/>
<text text-anchor="start" x="713.5" y="-43.8" font-family="Arial" font-size="14.00">B2_R</text>
<polygon fill="#ffcc80" stroke="transparent" points="758.5,-38 758.5,-57 768.5,-57 768.5,-38 758.5,-38"/>
<polygon fill="#ff9900" stroke="transparent" points="770.5,-38 770.5,-57 780.5,-57 780.5,-38 770.5,-38"/>
</g>
<!-- AB4&#45;&gt;B2_R -->
<g id="edge13" class="edge">
<title>AB4&#45;&gt;B2_R</title>
<path fill="none" stroke="black" d="M657.34,-65.16C667.92,-63.08 679.52,-60.79 690.71,-58.59"/>
<polygon fill="black" stroke="black" points="691.7,-61.96 700.84,-56.6 690.35,-55.09 691.7,-61.96"/>
<text text-anchor="middle" x="679" y="-65.8" font-family="Arial" font-size="14.00">a</text>
</g>
<!-- A6 -->
<g id="node11" class="node">
<title>A6</title>
<path fill="none" stroke="black" d="M882,-131C882,-131 846,-131 846,-131 840,-131 834,-125 834,-119 834,-119 834,-107 834,-107 834,-101 840,-95 846,-95 846,-95 882,-95 882,-95 888,-95 894,-101 894,-107 894,-107 894,-119 894,-119 894,-125 888,-131 882,-131"/>
<text text-anchor="start" x="846" y="-108.8" font-family="Arial" font-size="14.00">A6</text>
<polygon fill="lightblue" stroke="transparent" points="874,-103 874,-122 884,-122 884,-103 874,-103"/>
</g>
<!-- A5&#45;&gt;A6 -->
<g id="edge14" class="edge">
<title>A5&#45;&gt;A6</title>
<path fill="none" stroke="black" d="M775.59,-107.95C785.83,-108.63 797.43,-109.37 808,-110 813.12,-110.31 818.51,-110.62 823.83,-110.91"/>
<polygon fill="black" stroke="black" points="823.7,-114.41 833.88,-111.47 824.09,-107.42 823.7,-114.41"/>
<text text-anchor="middle" x="812" y="-114.8" font-family="Arial" font-size="14.00">a</text>
</g>
<!-- A6&#45;&gt;A5 -->
<g id="edge15" class="edge">
<title>A6&#45;&gt;A5</title>
<path fill="none" stroke="black" d="M833.86,-96.98C828.1,-94.51 821.98,-92.33 816,-91 806.06,-88.79 795.31,-89.56 785.3,-91.62"/>
<polygon fill="black" stroke="black" points="784.45,-88.23 775.6,-94.05 786.15,-95.02 784.45,-88.23"/>
<text text-anchor="middle" x="812" y="-94.8" font-family="Arial" font-size="14.00">a</text>
</g>
<!-- B2_R&#45;&gt;AB4 -->
<g id="edge16" class="edge">
<title>B2_R&#45;&gt;AB4</title>
<path fill="none" stroke="black" d="M700.76,-39.81C692.14,-39.43 683.22,-39.93 675,-42 667.74,-43.83 660.41,-46.78 653.51,-50.15"/>
<polygon fill="black" stroke="black" points="651.65,-47.17 644.44,-54.93 654.91,-53.36 651.65,-47.17"/>
<text text-anchor="middle" x="679" y="-45.8" font-family="Arial" font-size="14.00">a</text>
</g>
<!-- B3 -->
<g id="node13" class="node">
<title>B3</title>
<path fill="none" stroke="black" d="M882,-66C882,-66 846,-66 846,-66 840,-66 834,-60 834,-54 834,-54 834,-42 834,-42 834,-36 840,-30 846,-30 846,-30 882,-30 882,-30 888,-30 894,-36 894,-42 894,-42 894,-54 894,-54 894,-60 888,-66 882,-66"/>
<text text-anchor="start" x="846" y="-43.8" font-family="Arial" font-size="14.00">B3</text>
<polygon fill="#ffcc80" stroke="transparent" points="874,-38 874,-57 884,-57 884,-38 874,-38"/>
</g>
<!-- B2_R&#45;&gt;B3 -->
<g id="edge17" class="edge">
<title>B2_R&#45;&gt;B3</title>
<path fill="none" stroke="black" d="M790.21,-48C801.27,-48 813.07,-48 823.89,-48"/>
<polygon fill="black" stroke="black" points="823.9,-51.5 833.9,-48 823.9,-44.5 823.9,-51.5"/>
<text text-anchor="middle" x="812" y="-51.8" font-family="Arial" font-size="14.00">a</text>
</g>
<!-- B4 -->
<g id="node14" class="node">
<title>B4</title>
<path fill="none" stroke="black" d="M986,-36C986,-36 950,-36 950,-36 944,-36 938,-30 938,-24 938,-24 938,-12 938,-12 938,-6 944,0 950,0 950,0 986,0 986,0 992,0 998,-6 998,-12 998,-12 998,-24 998,-24 998,-30 992,-36 986,-36"/>
<text text-anchor="start" x="950" y="-13.8" font-family="Arial" font-size="14.00">B4</text>
<polygon fill="#ffcc80" stroke="transparent" points="978,-8 978,-27 988,-27 988,-8 978,-8"/>
</g>
<!-- B3&#45;&gt;B4 -->
<g id="edge18" class="edge">
<title>B3&#45;&gt;B4</title>
<path fill="none" stroke="black" d="M894.23,-39.4C904.79,-36.3 916.89,-32.74 928.15,-29.43"/>
<polygon fill="black" stroke="black" points="929.16,-32.78 937.77,-26.6 927.19,-26.06 929.16,-32.78"/>
<text text-anchor="middle" x="916" y="-37.8" font-family="Arial" font-size="14.00">a</text>
</g>
<!-- B4&#45;&gt;AB4 -->
<g id="edge19" class="edge">
<title>B4&#45;&gt;AB4</title>
<path fill="none" stroke="black" d="M937.92,-13.36C888.21,-6.52 784.19,3.05 701,-21 681.66,-26.59 662.43,-38.06 647.31,-48.8"/>
<polygon fill="black" stroke="black" points="644.88,-46.24 638.91,-55 649.03,-51.88 644.88,-46.24"/>
<text text-anchor="middle" x="812" y="-9.8" font-family="Arial" font-size="14.00">a</text>
</g>
</g>
</svg>
