<?xml version="1.0" encoding="UTF-8" standalone="no"?>
<!DOCTYPE svg PUBLIC "-//W3C//DTD SVG 1.1//EN"
 "http://www.w3.org/Graphics/SVG/1.1/DTD/svg11.dtd">
<!-- Generated by graphviz version 12.2.1 (20241206.2353)
 -->
<!-- Title: Automaton(A&#45;B&#45;Spec&#45;Eventually&#45;B).x.A&#45;B&#45;Machine Pages: 1 -->
<svg width="720pt" height="192pt"
 viewBox="0.00 0.00 720.00 191.58" xmlns="http://www.w3.org/2000/svg" xmlns:xlink="http://www.w3.org/1999/xlink">
<g id="graph0" class="graph" transform="scale(0.634781 0.634781) rotate(0) translate(4 297.81)">
<title>Automaton(A&#45;B&#45;Spec&#45;Eventually&#45;B).x.A&#45;B&#45;Machine</title>
<!-- dot_dummyinit_0 -->
<g id="node1" class="node">
<title>dot_dummyinit_0</title>
</g>
<!-- A|I|r1m -->
<g id="node2" class="node">
<title>A|I|r1m</title>
<path fill="none" stroke="black" d="M190.25,-288C190.25,-288 103,-288 103,-288 97,-288 91,-282 91,-276 91,-276 91,-264 91,-264 91,-258 97,-252 103,-252 103,-252 190.25,-252 190.25,-252 196.25,-252 202.25,-258 202.25,-264 202.25,-264 202.25,-276 202.25,-276 202.25,-282 196.25,-288 190.25,-288"/>
<text text-anchor="start" x="103" y="-264.57" font-family="Arial" font-size="14.00">A|I|r1m</text>
<polygon fill="lightblue" stroke="none" points="158.25,-260.12 158.25,-279.88 168.25,-279.88 168.25,-260.12 158.25,-260.12"/>
<polygon fill="#a00202" stroke="none" points="170.25,-260.12 170.25,-279.88 180.25,-279.88 180.25,-260.12 170.25,-260.12"/>
<polygon fill="black" stroke="none" points="182.25,-260.12 182.25,-279.88 192.25,-279.88 192.25,-260.12 182.25,-260.12"/>
</g>
<!-- dot_dummyinit_0&#45;&gt;A|I|r1m -->
<g id="edge1" class="edge">
<title>dot_dummyinit_0&#45;&gt;A|I|r1m</title>
<path fill="none" stroke="black" d="M53.81,-270C61.6,-270 70.53,-270 79.7,-270"/>
<polygon fill="black" stroke="black" points="79.42,-273.5 89.42,-270 79.42,-266.5 79.42,-273.5"/>
</g>
<!-- A|R|r1m -->
<g id="node5" class="node">
<title>A|R|r1m</title>
<path fill="none" stroke="black" d="M339,-250C339,-250 257.75,-250 257.75,-250 251.75,-250 245.75,-244 245.75,-238 245.75,-238 245.75,-226 245.75,-226 245.75,-220 251.75,-214 257.75,-214 257.75,-214 339,-214 339,-214 345,-214 351,-220 351,-226 351,-226 351,-238 351,-238 351,-244 345,-250 339,-250"/>
<text text-anchor="start" x="257.75" y="-226.57" font-family="Arial" font-size="14.00">A|R|r1m</text>
<polygon fill="lightblue" stroke="none" points="319,-222.12 319,-241.88 329,-241.88 329,-222.12 319,-222.12"/>
<polygon fill="#a00202" stroke="none" points="331,-222.12 331,-241.88 341,-241.88 341,-222.12 331,-222.12"/>
</g>
<!-- A|I|r1m&#45;&gt;A|R|r1m -->
<g id="edge2" class="edge">
<title>A|I|r1m&#45;&gt;A|R|r1m</title>
<path fill="none" stroke="black" d="M202.54,-256.07C212.94,-253.42 223.91,-250.64 234.54,-247.95"/>
<polygon fill="black" stroke="black" points="235.16,-251.4 243.99,-245.55 233.44,-244.61 235.16,-251.4"/>
<text text-anchor="middle" x="224" y="-253.45" font-family="Arial" font-size="14.00">a</text>
</g>
<!-- B|R|r1m -->
<g id="node6" class="node">
<title>B|R|r1m</title>
<path fill="none" stroke="black" d="M635,-223C635,-223 553.75,-223 553.75,-223 547.75,-223 541.75,-217 541.75,-211 541.75,-211 541.75,-199 541.75,-199 541.75,-193 547.75,-187 553.75,-187 553.75,-187 635,-187 635,-187 641,-187 647,-193 647,-199 647,-199 647,-211 647,-211 647,-217 641,-223 635,-223"/>
<text text-anchor="start" x="553.75" y="-199.57" font-family="Arial" font-size="14.00">B|R|r1m</text>
<polygon fill="lightblue" stroke="none" points="615,-195.12 615,-214.88 625,-214.88 625,-195.12 615,-195.12"/>
<polygon fill="#a00202" stroke="none" points="627,-195.12 627,-214.88 637,-214.88 637,-195.12 627,-195.12"/>
</g>
<!-- A|I|r1m&#45;&gt;B|R|r1m -->
<g id="edge3" class="edge">
<title>A|I|r1m&#45;&gt;B|R|r1m</title>
<path fill="none" stroke="black" d="M202.57,-277.5C249.17,-282.48 317.63,-286.52 376.5,-277 434.45,-267.63 497.86,-245.04 541.06,-227.64"/>
<polygon fill="black" stroke="black" points="542.26,-230.93 550.19,-223.91 539.61,-224.45 542.26,-230.93"/>
<text text-anchor="middle" x="372.75" y="-280.51" font-family="Arial" font-size="14.00">b</text>
</g>
<!-- dump|R|r2m -->
<g id="node3" class="node">
<title>dump|R|r2m</title>
<path fill="none" stroke="black" d="M924.25,-87C924.25,-87 856.5,-87 856.5,-87 850.5,-87 844.5,-81 844.5,-75 844.5,-75 844.5,-63 844.5,-63 844.5,-57 850.5,-51 856.5,-51 856.5,-51 924.25,-51 924.25,-51 930.25,-51 936.25,-57 936.25,-63 936.25,-63 936.25,-75 936.25,-75 936.25,-81 930.25,-87 924.25,-87"/>
<text text-anchor="middle" x="890.38" y="-63.58" font-family="Arial" font-size="14.00">dump|R|r2m</text>
</g>
<!-- dump|F|r2m -->
<g id="node4" class="node">
<title>dump|F|r2m</title>
<path fill="none" stroke="black" d="M1097,-102C1097,-102 1030.75,-102 1030.75,-102 1024.75,-102 1018.75,-96 1018.75,-90 1018.75,-90 1018.75,-78 1018.75,-78 1018.75,-72 1024.75,-66 1030.75,-66 1030.75,-66 1097,-66 1097,-66 1103,-66 1109,-72 1109,-78 1109,-78 1109,-90 1109,-90 1109,-96 1103,-102 1097,-102"/>
<text text-anchor="middle" x="1063.88" y="-78.58" font-family="Arial" font-size="14.00">dump|F|r2m</text>
</g>
<!-- dump|R|r2m&#45;&gt;dump|F|r2m -->
<g id="edge13" class="edge">
<title>dump|R|r2m&#45;&gt;dump|F|r2m</title>
<path fill="none" stroke="black" d="M936.71,-83.23C944.73,-85.22 953.05,-86.94 961,-88 975.89,-90 992.1,-90.23 1007.13,-89.65"/>
<polygon fill="black" stroke="black" points="1007.03,-93.16 1016.83,-89.14 1006.66,-86.17 1007.03,-93.16"/>
<text text-anchor="middle" x="972.25" y="-92.21" font-family="Arial" font-size="14.00">d</text>
</g>
<!-- dump|I|r2m -->
<g id="node10" class="node">
<title>dump|I|r2m</title>
<path fill="none" stroke="black" d="M1114.25,-36C1114.25,-36 1013.5,-36 1013.5,-36 1007.5,-36 1001.5,-30 1001.5,-24 1001.5,-24 1001.5,-12 1001.5,-12 1001.5,-6 1007.5,0 1013.5,0 1013.5,0 1114.25,0 1114.25,0 1120.25,0 1126.25,-6 1126.25,-12 1126.25,-12 1126.25,-24 1126.25,-24 1126.25,-30 1120.25,-36 1114.25,-36"/>
<text text-anchor="start" x="1013.5" y="-12.57" font-family="Arial" font-size="14.00">dump|I|r2m</text>
<polygon fill="darkblue" stroke="none" points="1094.25,-8.12 1094.25,-27.88 1104.25,-27.88 1104.25,-8.12 1094.25,-8.12"/>
<polygon fill="black" stroke="none" points="1106.25,-8.12 1106.25,-27.88 1116.25,-27.88 1116.25,-8.12 1106.25,-8.12"/>
</g>
<!-- dump|R|r2m&#45;&gt;dump|I|r2m -->
<g id="edge12" class="edge">
<title>dump|R|r2m&#45;&gt;dump|I|r2m</title>
<path fill="none" stroke="black" d="M936.69,-55.49C944.79,-53.08 953.14,-50.59 961,-48.25 970.44,-45.44 980.38,-42.49 990.19,-39.57"/>
<polygon fill="black" stroke="black" points="991.15,-42.94 999.74,-36.74 989.15,-36.23 991.15,-42.94"/>
<text text-anchor="middle" x="972.25" y="-50.7" font-family="Arial" font-size="14.00">c</text>
</g>
<!-- dump|F|r2m&#45;&gt;dump|R|r2m -->
<g id="edge17" class="edge">
<title>dump|F|r2m&#45;&gt;dump|R|r2m</title>
<path fill="none" stroke="black" d="M1018.6,-73.62C1007.23,-71.4 994.97,-69.38 983.5,-68.25 973.55,-67.27 971,-68.2 961,-68.25 956.83,-68.27 952.51,-68.3 948.17,-68.34"/>
<polygon fill="black" stroke="black" points="948.17,-64.84 938.21,-68.43 948.24,-71.84 948.17,-64.84"/>
<text text-anchor="middle" x="972.25" y="-70.7" font-family="Arial" font-size="14.00">a, b</text>
</g>
<!-- A|R|r1m&#45;&gt;A|I|r1m -->
<g id="edge4" class="edge">
<title>A|R|r1m&#45;&gt;A|I|r1m</title>
<path fill="none" stroke="black" d="M245.49,-226.96C236.97,-227.23 228.29,-228.19 220.25,-230.25 207.56,-233.49 194.71,-239.46 183.41,-245.81"/>
<polygon fill="black" stroke="black" points="181.64,-242.79 174.83,-250.9 185.21,-248.81 181.64,-242.79"/>
<text text-anchor="middle" x="224" y="-232.7" font-family="Arial" font-size="14.00">c</text>
</g>
<!-- A|F|r1m -->
<g id="node11" class="node">
<title>A|F|r1m</title>
<path fill="none" stroke="black" d="M486.25,-223C486.25,-223 406.5,-223 406.5,-223 400.5,-223 394.5,-217 394.5,-211 394.5,-211 394.5,-199 394.5,-199 394.5,-193 400.5,-187 406.5,-187 406.5,-187 486.25,-187 486.25,-187 492.25,-187 498.25,-193 498.25,-199 498.25,-199 498.25,-211 498.25,-211 498.25,-217 492.25,-223 486.25,-223"/>
<text text-anchor="start" x="406.5" y="-199.57" font-family="Arial" font-size="14.00">A|F|r1m</text>
<polygon fill="lightblue" stroke="none" points="466.25,-195.12 466.25,-214.88 476.25,-214.88 476.25,-195.12 466.25,-195.12"/>
<polygon fill="#a00202" stroke="none" points="478.25,-195.12 478.25,-214.88 488.25,-214.88 488.25,-195.12 478.25,-195.12"/>
</g>
<!-- A|R|r1m&#45;&gt;A|F|r1m -->
<g id="edge5" class="edge">
<title>A|R|r1m&#45;&gt;A|F|r1m</title>
<path fill="none" stroke="black" d="M351.26,-222.4C361.49,-220.51 372.33,-218.51 382.87,-216.56"/>
<polygon fill="black" stroke="black" points="383.46,-220.01 392.66,-214.75 382.19,-213.13 383.46,-220.01"/>
<text text-anchor="middle" x="372.75" y="-220.95" font-family="Arial" font-size="14.00">d</text>
</g>
<!-- A|I|r2m -->
<g id="node7" class="node">
<title>A|I|r2m</title>
<path fill="none" stroke="black" d="M1113.5,-223C1113.5,-223 1014.25,-223 1014.25,-223 1008.25,-223 1002.25,-217 1002.25,-211 1002.25,-211 1002.25,-199 1002.25,-199 1002.25,-193 1008.25,-187 1014.25,-187 1014.25,-187 1113.5,-187 1113.5,-187 1119.5,-187 1125.5,-193 1125.5,-199 1125.5,-199 1125.5,-211 1125.5,-211 1125.5,-217 1119.5,-223 1113.5,-223"/>
<text text-anchor="start" x="1014.25" y="-199.57" font-family="Arial" font-size="14.00">A|I|r2m</text>
<polygon fill="lightblue" stroke="none" points="1069.5,-195.12 1069.5,-214.88 1079.5,-214.88 1079.5,-195.12 1069.5,-195.12"/>
<polygon fill="darkblue" stroke="none" points="1081.5,-195.12 1081.5,-214.88 1091.5,-214.88 1091.5,-195.12 1081.5,-195.12"/>
<polygon fill="#a00202" stroke="none" points="1093.5,-195.12 1093.5,-214.88 1103.5,-214.88 1103.5,-195.12 1093.5,-195.12"/>
<polygon fill="black" stroke="none" points="1105.5,-195.12 1105.5,-214.88 1115.5,-214.88 1115.5,-195.12 1105.5,-195.12"/>
</g>
<!-- B|R|r1m&#45;&gt;A|I|r2m -->
<g id="edge6" class="edge">
<title>B|R|r1m&#45;&gt;A|I|r2m</title>
<path fill="none" stroke="black" d="M647.19,-205C730.8,-205 895.69,-205 990.74,-205"/>
<polygon fill="black" stroke="black" points="990.46,-208.5 1000.46,-205 990.46,-201.5 990.46,-208.5"/>
<text text-anchor="middle" x="816" y="-207.45" font-family="Arial" font-size="14.00">c</text>
</g>
<!-- B|F|r2m -->
<g id="node8" class="node">
<title>B|F|r2m</title>
<path fill="none" stroke="black" d="M782.25,-142C782.25,-142 702.5,-142 702.5,-142 696.5,-142 690.5,-136 690.5,-130 690.5,-130 690.5,-118 690.5,-118 690.5,-112 696.5,-106 702.5,-106 702.5,-106 782.25,-106 782.25,-106 788.25,-106 794.25,-112 794.25,-118 794.25,-118 794.25,-130 794.25,-130 794.25,-136 788.25,-142 782.25,-142"/>
<text text-anchor="start" x="702.5" y="-118.58" font-family="Arial" font-size="14.00">B|F|r2m</text>
<polygon fill="lightblue" stroke="none" points="762.25,-114.12 762.25,-133.88 772.25,-133.88 772.25,-114.12 762.25,-114.12"/>
<polygon fill="#a00202" stroke="none" points="774.25,-114.12 774.25,-133.88 784.25,-133.88 784.25,-114.12 774.25,-114.12"/>
</g>
<!-- B|R|r1m&#45;&gt;B|F|r2m -->
<g id="edge7" class="edge">
<title>B|R|r1m&#45;&gt;B|F|r2m</title>
<path fill="none" stroke="black" d="M619.05,-186.55C632.15,-176.82 648.99,-165.11 665,-156.25 670.73,-153.08 676.83,-150.02 683,-147.13"/>
<polygon fill="black" stroke="black" points="684.33,-150.37 692,-143.06 681.44,-143.99 684.33,-150.37"/>
<text text-anchor="middle" x="668.75" y="-158.7" font-family="Arial" font-size="14.00">d</text>
</g>
<!-- A|I|r2m&#45;&gt;A|R|r1m -->
<g id="edge8" class="edge">
<title>A|I|r2m&#45;&gt;A|R|r1m</title>
<path fill="none" stroke="black" d="M1029.83,-223.35C996.08,-240.34 941.66,-263 891.38,-263 445.38,-263 445.38,-263 445.38,-263 417.72,-263 387.76,-257.61 362.21,-251.33"/>
<polygon fill="black" stroke="black" points="363.2,-247.97 352.65,-248.87 361.46,-254.75 363.2,-247.97"/>
<text text-anchor="middle" x="668.75" y="-265.45" font-family="Arial" font-size="14.00">a</text>
</g>
<!-- A|I|r2m&#45;&gt;B|R|r1m -->
<g id="edge9" class="edge">
<title>A|I|r2m&#45;&gt;B|R|r1m</title>
<path fill="none" stroke="black" d="M1001.92,-195.95C951.21,-189.45 877.11,-182.3 812.25,-185.25 760.42,-187.61 701.83,-193.11 658.63,-197.71"/>
<polygon fill="black" stroke="black" points="658.5,-194.21 648.94,-198.76 659.25,-201.17 658.5,-194.21"/>
<text text-anchor="middle" x="816" y="-187.7" font-family="Arial" font-size="14.00">b</text>
</g>
<!-- B|F|r2m&#45;&gt;dump|R|r2m -->
<g id="edge10" class="edge">
<title>B|F|r2m&#45;&gt;dump|R|r2m</title>
<path fill="none" stroke="black" d="M779.35,-105.54C789.81,-100.54 801.36,-95.38 812.25,-91.25 819,-88.69 826.18,-86.26 833.33,-84"/>
<polygon fill="black" stroke="black" points="834.11,-87.42 842.66,-81.16 832.07,-80.72 834.11,-87.42"/>
<text text-anchor="middle" x="816" y="-93.7" font-family="Arial" font-size="14.00">a</text>
</g>
<!-- B|R|r2m -->
<g id="node9" class="node">
<title>B|R|r2m</title>
<path fill="none" stroke="black" d="M931,-158C931,-158 849.75,-158 849.75,-158 843.75,-158 837.75,-152 837.75,-146 837.75,-146 837.75,-134 837.75,-134 837.75,-128 843.75,-122 849.75,-122 849.75,-122 931,-122 931,-122 937,-122 943,-128 943,-134 943,-134 943,-146 943,-146 943,-152 937,-158 931,-158"/>
<text text-anchor="start" x="849.75" y="-134.57" font-family="Arial" font-size="14.00">B|R|r2m</text>
<polygon fill="lightblue" stroke="none" points="911,-130.12 911,-149.88 921,-149.88 921,-130.12 911,-130.12"/>
<polygon fill="#a00202" stroke="none" points="923,-130.12 923,-149.88 933,-149.88 933,-130.12 923,-130.12"/>
</g>
<!-- B|F|r2m&#45;&gt;B|R|r2m -->
<g id="edge11" class="edge">
<title>B|F|r2m&#45;&gt;B|R|r2m</title>
<path fill="none" stroke="black" d="M794.44,-129.6C804.7,-130.72 815.61,-131.92 826.23,-133.08"/>
<polygon fill="black" stroke="black" points="825.77,-136.55 836.09,-134.16 826.54,-129.59 825.77,-136.55"/>
<text text-anchor="middle" x="816" y="-134.45" font-family="Arial" font-size="14.00">b</text>
</g>
<!-- B|R|r2m&#45;&gt;A|I|r2m -->
<g id="edge14" class="edge">
<title>B|R|r2m&#45;&gt;A|I|r2m</title>
<path fill="none" stroke="black" d="M943.46,-145.68C956.78,-148.08 970.9,-151.47 983.5,-156.25 999.32,-162.25 1015.46,-171.49 1029.02,-180.32"/>
<polygon fill="black" stroke="black" points="1026.89,-183.1 1037.15,-185.77 1030.8,-177.29 1026.89,-183.1"/>
<text text-anchor="middle" x="972.25" y="-158.7" font-family="Arial" font-size="14.00">c</text>
</g>
<!-- B|R|r2m&#45;&gt;B|F|r2m -->
<g id="edge15" class="edge">
<title>B|R|r2m&#45;&gt;B|F|r2m</title>
<path fill="none" stroke="black" d="M850.76,-121.61C840.87,-117.74 830.1,-114.24 819.75,-112.25 815.16,-111.37 810.39,-110.94 805.6,-110.87"/>
<polygon fill="black" stroke="black" points="805.78,-107.36 795.92,-111.23 806.04,-114.36 805.78,-107.36"/>
<text text-anchor="middle" x="816" y="-114.7" font-family="Arial" font-size="14.00">d</text>
</g>
<!-- dump|I|r2m&#45;&gt;dump|R|r2m -->
<g id="edge16" class="edge">
<title>dump|I|r2m&#45;&gt;dump|R|r2m</title>
<path fill="none" stroke="black" d="M1001.03,-15.17C987.59,-16.04 973.62,-18.12 961,-22.25 946.7,-26.93 932.59,-35.46 920.86,-43.96"/>
<polygon fill="black" stroke="black" points="919.05,-40.94 913.2,-49.78 923.28,-46.51 919.05,-40.94"/>
<text text-anchor="middle" x="972.25" y="-24.7" font-family="Arial" font-size="14.00">a, b</text>
</g>
<!-- A|F|r1m&#45;&gt;A|R|r1m -->
<g id="edge18" class="edge">
<title>A|F|r1m&#45;&gt;A|R|r1m</title>
<path fill="none" stroke="black" d="M394.13,-196.06C385.67,-195.85 377.04,-196.4 369,-198.25 359.2,-200.5 349.18,-204.32 339.91,-208.6"/>
<polygon fill="black" stroke="black" points="338.6,-205.34 331.16,-212.89 341.68,-211.62 338.6,-205.34"/>
<text text-anchor="middle" x="372.75" y="-200.7" font-family="Arial" font-size="14.00">a</text>
</g>
<!-- A|F|r1m&#45;&gt;B|R|r1m -->
<g id="edge19" class="edge">
<title>A|F|r1m&#45;&gt;B|R|r1m</title>
<path fill="none" stroke="black" d="M498.44,-205C508.7,-205 519.61,-205 530.23,-205"/>
<polygon fill="black" stroke="black" points="530.09,-208.5 540.09,-205 530.09,-201.5 530.09,-208.5"/>
<text text-anchor="middle" x="520" y="-207.45" font-family="Arial" font-size="14.00">b</text>
</g>
</g>
</svg>
