<?xml version="1.0" encoding="UTF-8" standalone="no"?>
<!DOCTYPE svg PUBLIC "-//W3C//DTD SVG 1.1//EN"
 "http://www.w3.org/Graphics/SVG/1.1/DTD/svg11.dtd">
<!-- Generated by graphviz version 12.2.1 (20241206.2353)
 -->
<!-- Title: very simple machine 1|||very simple machine 2 Pages: 1 -->
<svg width="720pt" height="111pt"
 viewBox="0.00 0.00 720.00 111.34" xmlns="http://www.w3.org/2000/svg" xmlns:xlink="http://www.w3.org/1999/xlink">
<g id="graph0" class="graph" transform="scale(0.444533 0.444533) rotate(0) translate(4 246.46)">
<title>very simple machine 1|||very simple machine 2</title>
<!-- dot_dummyinit_1 -->
<g id="node1" class="node">
<title>dot_dummyinit_1</title>
</g>
<!-- I|I|r1m* -->
<g id="node2" class="node">
<title>I|I|r1m*</title>
<ellipse fill="none" stroke="black" cx="81.81" cy="-146.38" rx="40.09" ry="40.09"/>
<ellipse fill="none" stroke="black" cx="81.81" cy="-146.38" rx="44.09" ry="44.09"/>
<text text-anchor="middle" x="81.81" y="-140.96" font-family="Arial" font-size="14.00">I|I|r1m*</text>
</g>
<!-- dot_dummyinit_1&#45;&gt;I|I|r1m* -->
<g id="edge1" class="edge">
<title>dot_dummyinit_1&#45;&gt;I|I|r1m*</title>
<path fill="none" stroke="black" d="M0.78,-146.38C1.67,-146.38 12.67,-146.38 26.25,-146.38"/>
<polygon fill="black" stroke="black" points="26.03,-149.88 36.03,-146.38 26.03,-142.88 26.03,-149.88"/>
</g>
<!-- B|I|r1m -->
<g id="node4" class="node">
<title>B|I|r1m</title>
<ellipse fill="none" stroke="black" cx="571.34" cy="-185.38" rx="40.09" ry="40.09"/>
<text text-anchor="middle" x="571.34" y="-179.96" font-family="Arial" font-size="14.00">B|I|r1m</text>
</g>
<!-- I|I|r1m*&#45;&gt;B|I|r1m -->
<g id="edge2" class="edge">
<title>I|I|r1m*&#45;&gt;B|I|r1m</title>
<path fill="none" stroke="black" d="M122.44,-164.58C189.07,-193 327.99,-242.82 447.25,-224.38 472.86,-220.42 500.43,-212.09 522.98,-204.14"/>
<polygon fill="black" stroke="black" points="523.98,-207.5 532.19,-200.8 521.59,-200.91 523.98,-207.5"/>
<text text-anchor="middle" x="332.06" y="-229.16" font-family="Arial" font-size="14.00">alpha_1</text>
</g>
<!-- I|B|r1m -->
<g id="node5" class="node">
<title>I|B|r1m</title>
<ellipse fill="none" stroke="black" cx="249.98" cy="-146.38" rx="40.09" ry="40.09"/>
<text text-anchor="middle" x="249.98" y="-140.96" font-family="Arial" font-size="14.00">I|B|r1m</text>
</g>
<!-- I|I|r1m*&#45;&gt;I|B|r1m -->
<g id="edge3" class="edge">
<title>I|I|r1m*&#45;&gt;I|B|r1m</title>
<path fill="none" stroke="black" d="M126.03,-146.38C148.16,-146.38 175.23,-146.38 198.34,-146.38"/>
<polygon fill="black" stroke="black" points="198.15,-149.88 208.15,-146.38 198.15,-142.88 198.15,-149.88"/>
<text text-anchor="middle" x="167.89" y="-148.83" font-family="Arial" font-size="14.00">alpha_2</text>
</g>
<!-- B|I|r1m* -->
<g id="node3" class="node">
<title>B|I|r1m*</title>
<ellipse fill="none" stroke="black" cx="1242.74" cy="-64.38" rx="43.58" ry="43.58"/>
<ellipse fill="none" stroke="black" cx="1242.74" cy="-64.38" rx="47.58" ry="47.58"/>
<text text-anchor="middle" x="1242.74" y="-58.96" font-family="Arial" font-size="14.00">B|I|r1m*</text>
</g>
<!-- B|B|r1m -->
<g id="node6" class="node">
<title>B|B|r1m</title>
<ellipse fill="none" stroke="black" cx="739" cy="-146.38" rx="43.58" ry="43.58"/>
<text text-anchor="middle" x="739" y="-140.96" font-family="Arial" font-size="14.00">B|B|r1m</text>
</g>
<!-- B|I|r1m*&#45;&gt;B|B|r1m -->
<g id="edge17" class="edge">
<title>B|I|r1m*&#45;&gt;B|B|r1m</title>
<path fill="none" stroke="black" d="M1218.1,-105.21C1207.53,-119.58 1193.69,-134.17 1177.16,-142.38 1111.45,-174.99 895.73,-160.64 794,-151.65"/>
<polygon fill="black" stroke="black" points="794.54,-148.18 784.27,-150.77 793.92,-155.15 794.54,-148.18"/>
<text text-anchor="middle" x="982" y="-165.1" font-family="Arial" font-size="14.00">alpha_2</text>
</g>
<!-- I|I|r2m -->
<g id="node10" class="node">
<title>I|I|r2m</title>
<ellipse fill="none" stroke="black" cx="1410.91" cy="-121.38" rx="36.59" ry="36.59"/>
<text text-anchor="middle" x="1410.91" y="-115.96" font-family="Arial" font-size="14.00">I|I|r2m</text>
</g>
<!-- B|I|r1m*&#45;&gt;I|I|r2m -->
<g id="edge16" class="edge">
<title>B|I|r1m*&#45;&gt;I|I|r2m</title>
<path fill="none" stroke="black" d="M1288.27,-79.66C1312.01,-87.8 1341.14,-97.79 1364.94,-105.96"/>
<polygon fill="black" stroke="black" points="1363.78,-109.26 1374.37,-109.19 1366.05,-102.64 1363.78,-109.26"/>
<text text-anchor="middle" x="1332.32" y="-105.39" font-family="Arial" font-size="14.00">beta_1</text>
</g>
<!-- B|I|r1m&#45;&gt;B|B|r1m -->
<g id="edge5" class="edge">
<title>B|I|r1m&#45;&gt;B|B|r1m</title>
<path fill="none" stroke="black" d="M603,-160.54C611.13,-155.27 620.22,-150.46 629.42,-147.63 646.72,-142.32 666.31,-140.82 684.04,-141.01"/>
<polygon fill="black" stroke="black" points="683.76,-144.5 693.87,-141.31 683.98,-137.51 683.76,-144.5"/>
<text text-anchor="middle" x="653.42" y="-150.08" font-family="Arial" font-size="14.00">alpha_2</text>
</g>
<!-- B|I|r1m&#45;&gt;I|I|r2m -->
<g id="edge4" class="edge">
<title>B|I|r1m&#45;&gt;I|I|r2m</title>
<path fill="none" stroke="black" d="M610.07,-197.3C643.38,-206.75 693.42,-218.38 738,-218.38 738,-218.38 738,-218.38 1243.74,-218.38 1295.34,-218.38 1345.17,-183.06 1376.58,-155.05"/>
<polygon fill="black" stroke="black" points="1378.83,-157.74 1383.82,-148.4 1374.09,-152.58 1378.83,-157.74"/>
<text text-anchor="middle" x="982" y="-220.83" font-family="Arial" font-size="14.00">beta_1</text>
</g>
<!-- I|B|r1m&#45;&gt;B|B|r1m -->
<g id="edge6" class="edge">
<title>I|B|r1m&#45;&gt;B|B|r1m</title>
<path fill="none" stroke="black" d="M289.92,-139.81C295.98,-138.91 302.18,-138.07 308.06,-137.38 337.28,-133.98 344.67,-133.49 374.06,-132.38 456.81,-129.25 648.27,-134.91 677.42,-137.38 679.74,-137.58 682.1,-137.81 684.49,-138.06"/>
<polygon fill="black" stroke="black" points="683.87,-141.51 694.21,-139.23 684.7,-134.56 683.87,-141.51"/>
<text text-anchor="middle" x="489.25" y="-134.57" font-family="Arial" font-size="14.00">alpha_1</text>
</g>
<!-- I|I|r1m -->
<g id="node7" class="node">
<title>I|I|r1m</title>
<ellipse fill="none" stroke="black" cx="410.66" cy="-178.38" rx="36.59" ry="36.59"/>
<text text-anchor="middle" x="410.66" y="-172.96" font-family="Arial" font-size="14.00">I|I|r1m</text>
</g>
<!-- I|B|r1m&#45;&gt;I|I|r1m -->
<g id="edge7" class="edge">
<title>I|B|r1m&#45;&gt;I|I|r1m</title>
<path fill="none" stroke="black" d="M290.06,-142.21C310.12,-141.22 334.77,-141.82 356.06,-147.63 360.66,-148.89 365.28,-150.63 369.77,-152.66"/>
<polygon fill="black" stroke="black" points="368.1,-155.74 378.6,-157.13 371.25,-149.49 368.1,-155.74"/>
<text text-anchor="middle" x="332.06" y="-150.08" font-family="Arial" font-size="14.00">beta_2</text>
</g>
<!-- B|B|r1m&#45;&gt;B|I|r1m -->
<g id="edge9" class="edge">
<title>B|B|r1m&#45;&gt;B|I|r1m</title>
<path fill="none" stroke="black" d="M696.71,-158.37C690.27,-160.12 683.68,-161.85 677.42,-163.38 659.45,-167.78 639.62,-172.07 622.07,-175.68"/>
<polygon fill="black" stroke="black" points="621.49,-172.23 612.39,-177.65 622.89,-179.09 621.49,-172.23"/>
<text text-anchor="middle" x="653.42" y="-176.18" font-family="Arial" font-size="14.00">beta_2</text>
</g>
<!-- I|B|r2m -->
<g id="node8" class="node">
<title>I|B|r2m</title>
<ellipse fill="none" stroke="black" cx="899.92" cy="-103.38" rx="40.09" ry="40.09"/>
<text text-anchor="middle" x="899.92" y="-97.96" font-family="Arial" font-size="14.00">I|B|r2m</text>
</g>
<!-- B|B|r1m&#45;&gt;I|B|r2m -->
<g id="edge8" class="edge">
<title>B|B|r1m&#45;&gt;I|B|r2m</title>
<path fill="none" stroke="black" d="M781.34,-135.2C802.25,-129.54 827.77,-122.63 849.69,-116.7"/>
<polygon fill="black" stroke="black" points="850.58,-120.09 859.32,-114.1 848.75,-113.33 850.58,-120.09"/>
<text text-anchor="middle" x="821.2" y="-131.18" font-family="Arial" font-size="14.00">beta_1</text>
</g>
<!-- I|I|r1m&#45;&gt;B|I|r1m -->
<g id="edge10" class="edge">
<title>I|I|r1m&#45;&gt;B|I|r1m</title>
<path fill="none" stroke="black" d="M447.66,-179.97C468.86,-180.91 496.01,-182.1 519.38,-183.13"/>
<polygon fill="black" stroke="black" points="519.2,-186.63 529.34,-183.57 519.51,-179.64 519.2,-186.63"/>
<text text-anchor="middle" x="489.25" y="-185.16" font-family="Arial" font-size="14.00">alpha_1</text>
</g>
<!-- I|I|r1m&#45;&gt;I|B|r1m -->
<g id="edge11" class="edge">
<title>I|I|r1m&#45;&gt;I|B|r1m</title>
<path fill="none" stroke="black" d="M374.17,-174.4C354.55,-171.89 329.82,-168.2 308.06,-163.38 305.28,-162.77 302.44,-162.08 299.57,-161.36"/>
<polygon fill="black" stroke="black" points="300.58,-158.01 290.01,-158.79 298.76,-164.77 300.58,-158.01"/>
<text text-anchor="middle" x="332.06" y="-174.24" font-family="Arial" font-size="14.00">alpha_2</text>
</g>
<!-- I|B|r2m&#45;&gt;I|I|r1m* -->
<g id="edge13" class="edge">
<title>I|B|r2m&#45;&gt;I|I|r1m*</title>
<path fill="none" stroke="black" d="M861.06,-92.5C829.08,-84.27 781.93,-74.38 740,-74.38 248.98,-74.38 248.98,-74.38 248.98,-74.38 205.24,-74.38 159.97,-95.64 127.75,-115.06"/>
<polygon fill="black" stroke="black" points="126.12,-111.95 119.47,-120.2 129.81,-117.9 126.12,-111.95"/>
<text text-anchor="middle" x="489.25" y="-76.83" font-family="Arial" font-size="14.00">beta_2</text>
</g>
<!-- B|B|r2m -->
<g id="node9" class="node">
<title>B|B|r2m</title>
<ellipse fill="none" stroke="black" cx="1067.58" cy="-64.38" rx="43.58" ry="43.58"/>
<text text-anchor="middle" x="1067.58" y="-58.96" font-family="Arial" font-size="14.00">B|B|r2m</text>
</g>
<!-- I|B|r2m&#45;&gt;B|B|r2m -->
<g id="edge12" class="edge">
<title>I|B|r2m&#45;&gt;B|B|r2m</title>
<path fill="none" stroke="black" d="M939.49,-95.95C959.42,-91.95 984.09,-86.74 1006,-81.38 1008.74,-80.71 1011.54,-80 1014.37,-79.27"/>
<polygon fill="black" stroke="black" points="1015.07,-82.71 1023.83,-76.76 1013.27,-75.94 1015.07,-82.71"/>
<text text-anchor="middle" x="982" y="-94.18" font-family="Arial" font-size="14.00">alpha_1</text>
</g>
<!-- B|B|r2m&#45;&gt;B|I|r1m* -->
<g id="edge15" class="edge">
<title>B|B|r2m&#45;&gt;B|I|r1m*</title>
<path fill="none" stroke="black" d="M1111.38,-64.38C1133.16,-64.38 1159.95,-64.38 1183.56,-64.38"/>
<polygon fill="black" stroke="black" points="1183.35,-67.88 1193.35,-64.38 1183.35,-60.88 1183.35,-67.88"/>
<text text-anchor="middle" x="1153.16" y="-66.83" font-family="Arial" font-size="14.00">beta_2</text>
</g>
<!-- B|B|r2m&#45;&gt;I|B|r2m -->
<g id="edge14" class="edge">
<title>B|B|r2m&#45;&gt;I|B|r2m</title>
<path fill="none" stroke="black" d="M1024.38,-56.82C1003.87,-54.77 979.15,-54.72 958,-61.63 951.72,-63.68 945.56,-66.72 939.74,-70.23"/>
<polygon fill="black" stroke="black" points="937.96,-67.21 931.58,-75.66 941.84,-73.04 937.96,-67.21"/>
<text text-anchor="middle" x="982" y="-64.08" font-family="Arial" font-size="14.00">beta_1</text>
</g>
<!-- I|I|r2m&#45;&gt;I|B|r2m -->
<g id="edge19" class="edge">
<title>I|I|r2m&#45;&gt;I|B|r2m</title>
<path fill="none" stroke="black" d="M1373.88,-122.15C1368.01,-122.24 1361.99,-122.33 1356.32,-122.38 1334.99,-122.58 1329.65,-122.48 1308.32,-122.38 1181.94,-121.82 1150.18,-124.58 1024,-117.38 994.6,-115.7 987.26,-114.76 958,-111.38 955.8,-111.13 953.56,-110.86 951.29,-110.58"/>
<polygon fill="black" stroke="black" points="951.75,-107.11 941.38,-109.29 950.85,-114.05 951.75,-107.11"/>
<text text-anchor="middle" x="1153.16" y="-124.88" font-family="Arial" font-size="14.00">alpha_2</text>
</g>
<!-- B|I|r2m -->
<g id="node11" class="node">
<title>B|I|r2m</title>
<ellipse fill="none" stroke="black" cx="1571.59" cy="-82.38" rx="40.09" ry="40.09"/>
<text text-anchor="middle" x="1571.59" y="-76.96" font-family="Arial" font-size="14.00">B|I|r2m</text>
</g>
<!-- I|I|r2m&#45;&gt;B|I|r2m -->
<g id="edge18" class="edge">
<title>I|I|r2m&#45;&gt;B|I|r2m</title>
<path fill="none" stroke="black" d="M1439.1,-97.53C1447.09,-91.89 1456.19,-86.64 1465.5,-83.63 1482.88,-78.01 1502.73,-76.6 1520.46,-76.95"/>
<polygon fill="black" stroke="black" points="1520.12,-80.44 1530.25,-77.36 1520.4,-73.45 1520.12,-80.44"/>
<text text-anchor="middle" x="1489.5" y="-86.08" font-family="Arial" font-size="14.00">alpha_1</text>
</g>
<!-- B|I|r2m&#45;&gt;B|B|r2m -->
<g id="edge21" class="edge">
<title>B|I|r2m&#45;&gt;B|B|r2m</title>
<path fill="none" stroke="black" d="M1534.8,-65.41C1467.95,-35.88 1319.61,19.35 1195.16,-7.38 1167.68,-13.28 1138.96,-25.64 1115.84,-37.34"/>
<polygon fill="black" stroke="black" points="1114.24,-34.23 1106.98,-41.95 1117.47,-40.44 1114.24,-34.23"/>
<text text-anchor="middle" x="1332.32" y="-10.96" font-family="Arial" font-size="14.00">alpha_2</text>
</g>
<!-- B|I|r2m&#45;&gt;I|I|r2m -->
<g id="edge20" class="edge">
<title>B|I|r2m&#45;&gt;I|I|r2m</title>
<path fill="none" stroke="black" d="M1532.93,-94.04C1526.48,-95.91 1519.81,-97.76 1513.5,-99.38 1495.58,-103.98 1475.72,-108.43 1458.34,-112.1"/>
<polygon fill="black" stroke="black" points="1457.88,-108.62 1448.81,-114.09 1459.31,-115.48 1457.88,-108.62"/>
<text text-anchor="middle" x="1489.5" y="-112.84" font-family="Arial" font-size="14.00">beta_1</text>
</g>
</g>
</svg>
