<?xml version="1.0" encoding="UTF-8" standalone="no"?>
<!DOCTYPE svg PUBLIC "-//W3C//DTD SVG 1.1//EN"
 "http://www.w3.org/Graphics/SVG/1.1/DTD/svg11.dtd">
<!-- Generated by graphviz version 12.2.1 (20241206.2353)
 -->
<!-- Title: SupBuechiCon((A&#45;B&#45;Machine&#45;B&#45;Breaks),(A&#45;B&#45;Spec&#45;Eventually&#45;B)) [minstate] Pages: 1 -->
<svg width="429pt" height="141pt"
 viewBox="0.00 0.00 429.22 141.00" xmlns="http://www.w3.org/2000/svg" xmlns:xlink="http://www.w3.org/1999/xlink">
<g id="graph0" class="graph" transform="scale(1 1) rotate(0) translate(4 137)">
<title>SupBuechiCon((A&#45;B&#45;Machine&#45;B&#45;Breaks),(A&#45;B&#45;Spec&#45;Eventually&#45;B)) [minstate]</title>
<!-- dot_dummyinit_1 -->
<g id="node1" class="node">
<title>dot_dummyinit_1</title>
</g>
<!-- 2 -->
<g id="node2" class="node">
<title>2</title>
<ellipse fill="none" stroke="black" cx="55.72" cy="-47" rx="18" ry="18"/>
<text text-anchor="middle" x="55.72" y="-41.58" font-family="Arial" font-size="14.00">2</text>
</g>
<!-- dot_dummyinit_1&#45;&gt;2 -->
<g id="edge1" class="edge">
<title>dot_dummyinit_1&#45;&gt;2</title>
<path fill="none" stroke="black" d="M0.87,-47C2.34,-47 13.93,-47 25.99,-47"/>
<polygon fill="black" stroke="black" points="25.86,-50.5 35.86,-47 25.86,-43.5 25.86,-50.5"/>
</g>
<!-- 1 -->
<g id="node3" class="node">
<title>1</title>
<ellipse fill="none" stroke="black" cx="153.47" cy="-86" rx="18" ry="18"/>
<ellipse fill="none" stroke="black" cx="153.47" cy="-86" rx="22" ry="22"/>
<text text-anchor="middle" x="153.47" y="-80.58" font-family="Arial" font-size="14.00">1</text>
</g>
<!-- 2&#45;&gt;1 -->
<g id="edge3" class="edge">
<title>2&#45;&gt;1</title>
<path fill="none" stroke="black" d="M72.96,-53.62C86.53,-59.14 106.23,-67.17 122.63,-73.85"/>
<polygon fill="black" stroke="black" points="120.85,-76.9 131.43,-77.43 123.49,-70.42 120.85,-76.9"/>
<text text-anchor="middle" x="102.6" y="-72.44" font-family="Arial" font-size="14.00">b</text>
</g>
<!-- 5 -->
<g id="node6" class="node">
<title>5</title>
<ellipse fill="none" stroke="black" cx="153.47" cy="-18" rx="18" ry="18"/>
<text text-anchor="middle" x="153.47" y="-12.57" font-family="Arial" font-size="14.00">5</text>
</g>
<!-- 2&#45;&gt;5 -->
<g id="edge4" class="edge">
<title>2&#45;&gt;5</title>
<path fill="none" stroke="black" d="M73.4,-41.95C87.68,-37.62 108.51,-31.31 125.21,-26.26"/>
<polygon fill="black" stroke="black" points="125.98,-29.68 134.53,-23.43 123.95,-22.98 125.98,-29.68"/>
<text text-anchor="middle" x="102.6" y="-38.4" font-family="Arial" font-size="14.00">a</text>
</g>
<!-- 7 -->
<g id="node8" class="node">
<title>7</title>
<ellipse fill="none" stroke="black" cx="236.22" cy="-86" rx="18" ry="18"/>
<text text-anchor="middle" x="236.22" y="-80.58" font-family="Arial" font-size="14.00">7</text>
</g>
<!-- 1&#45;&gt;7 -->
<g id="edge2" class="edge">
<title>1&#45;&gt;7</title>
<path fill="none" stroke="black" d="M175.69,-86C185.16,-86 196.46,-86 206.66,-86"/>
<polygon fill="black" stroke="black" points="206.44,-89.5 216.44,-86 206.44,-82.5 206.44,-89.5"/>
<text text-anchor="middle" x="196.85" y="-88.45" font-family="Arial" font-size="14.00">c</text>
</g>
<!-- 4 -->
<g id="node4" class="node">
<title>4</title>
<ellipse fill="none" stroke="black" cx="319.72" cy="-47" rx="18" ry="18"/>
<ellipse fill="none" stroke="black" cx="319.72" cy="-47" rx="22" ry="22"/>
<text text-anchor="middle" x="319.72" y="-41.58" font-family="Arial" font-size="14.00">4</text>
</g>
<!-- 6 -->
<g id="node7" class="node">
<title>6</title>
<ellipse fill="none" stroke="black" cx="403.22" cy="-47" rx="18" ry="18"/>
<text text-anchor="middle" x="403.22" y="-41.58" font-family="Arial" font-size="14.00">6</text>
</g>
<!-- 4&#45;&gt;6 -->
<g id="edge6" class="edge">
<title>4&#45;&gt;6</title>
<path fill="none" stroke="black" d="M342.13,-47C351.69,-47 363.1,-47 373.39,-47"/>
<polygon fill="black" stroke="black" points="373.28,-50.5 383.28,-47 373.28,-43.5 373.28,-50.5"/>
<text text-anchor="middle" x="363.47" y="-49.45" font-family="Arial" font-size="14.00">d</text>
</g>
<!-- 3 -->
<g id="node5" class="node">
<title>3</title>
<ellipse fill="none" stroke="black" cx="319.72" cy="-115" rx="18" ry="18"/>
<text text-anchor="middle" x="319.72" y="-109.58" font-family="Arial" font-size="14.00">3</text>
</g>
<!-- 3&#45;&gt;7 -->
<g id="edge5" class="edge">
<title>3&#45;&gt;7</title>
<path fill="none" stroke="black" d="M306.1,-103.09C298.94,-97.14 289.49,-90.53 279.72,-87.25 275.36,-85.79 270.6,-84.96 265.9,-84.55"/>
<polygon fill="black" stroke="black" points="266.18,-81.06 256.09,-84.29 266,-88.05 266.18,-81.06"/>
<text text-anchor="middle" x="275.97" y="-89.7" font-family="Arial" font-size="14.00">d</text>
</g>
<!-- 5&#45;&gt;2 -->
<g id="edge7" class="edge">
<title>5&#45;&gt;2</title>
<path fill="none" stroke="black" d="M136.36,-11.55C123.74,-7.52 105.99,-4.14 91.72,-10.25 84.92,-13.17 78.81,-18.12 73.68,-23.47"/>
<polygon fill="black" stroke="black" points="71.25,-20.92 67.43,-30.8 76.58,-25.46 71.25,-20.92"/>
<text text-anchor="middle" x="102.6" y="-12.7" font-family="Arial" font-size="14.00">c, d</text>
</g>
<!-- 6&#45;&gt;4 -->
<g id="edge8" class="edge">
<title>6&#45;&gt;4</title>
<path fill="none" stroke="black" d="M387.96,-36.75C381.88,-32.98 374.51,-29.16 367.22,-27.25 360.7,-25.54 353.9,-26.63 347.58,-29.01"/>
<polygon fill="black" stroke="black" points="346.32,-25.72 338.89,-33.27 349.41,-32.01 346.32,-25.72"/>
<text text-anchor="middle" x="363.47" y="-29.7" font-family="Arial" font-size="14.00">b</text>
</g>
<!-- 7&#45;&gt;4 -->
<g id="edge10" class="edge">
<title>7&#45;&gt;4</title>
<path fill="none" stroke="black" d="M252.34,-76.94C258.43,-73.43 265.57,-69.49 272.22,-66.25 277.49,-63.69 283.18,-61.15 288.72,-58.79"/>
<polygon fill="black" stroke="black" points="289.72,-62.16 297.63,-55.11 287.05,-55.69 289.72,-62.16"/>
<text text-anchor="middle" x="275.97" y="-68.7" font-family="Arial" font-size="14.00">b</text>
</g>
<!-- 7&#45;&gt;3 -->
<g id="edge9" class="edge">
<title>7&#45;&gt;3</title>
<path fill="none" stroke="black" d="M252.61,-94.3C258.61,-97.32 265.63,-100.58 272.22,-103 278.19,-105.19 284.72,-107.15 290.96,-108.8"/>
<polygon fill="black" stroke="black" points="289.67,-112.09 300.21,-111.1 291.35,-105.29 289.67,-112.09"/>
<text text-anchor="middle" x="275.97" y="-107.98" font-family="Arial" font-size="14.00">a</text>
</g>
</g>
</svg>
