<?xml version="1.0" encoding="UTF-8" standalone="no"?>
<!DOCTYPE svg PUBLIC "-//W3C//DTD SVG 1.1//EN"
 "http://www.w3.org/Graphics/SVG/1.1/DTD/svg11.dtd">
<!-- Generated by graphviz version 12.2.1 (20241206.2353)
 -->
<!-- Title: G Pages: 1 -->
<svg width="698pt" height="191pt"
 viewBox="0.00 0.00 698.22 191.24" xmlns="http://www.w3.org/2000/svg" xmlns:xlink="http://www.w3.org/1999/xlink">
<g id="graph0" class="graph" transform="scale(1 1) rotate(0) translate(4 187.24)">
<title>G</title>
<!-- dot_dummyinit_1 -->
<g id="node1" class="node">
<title>dot_dummyinit_1</title>
</g>
<!-- s1 -->
<g id="node2" class="node">
<title>s1</title>
<ellipse fill="none" stroke="black" cx="57.85" cy="-64.13" rx="20.13" ry="20.13"/>
<text text-anchor="middle" x="57.85" y="-58.7" font-family="Arial" font-size="14.00">s1</text>
</g>
<!-- dot_dummyinit_1&#45;&gt;s1 -->
<g id="edge1" class="edge">
<title>dot_dummyinit_1&#45;&gt;s1</title>
<path fill="none" stroke="black" d="M0.88,-64.13C2.37,-64.13 13.93,-64.13 26.15,-64.13"/>
<polygon fill="black" stroke="black" points="25.79,-67.63 35.79,-64.13 25.79,-60.63 25.79,-67.63"/>
</g>
<!-- s2 -->
<g id="node3" class="node">
<title>s2</title>
<ellipse fill="none" stroke="black" cx="145.6" cy="-64.13" rx="20.13" ry="20.13"/>
<ellipse fill="none" stroke="black" cx="145.6" cy="-64.13" rx="24.13" ry="24.13"/>
<text text-anchor="middle" x="145.6" y="-58.7" font-family="Arial" font-size="14.00">s2</text>
</g>
<!-- s1&#45;&gt;s2 -->
<g id="edge2" class="edge">
<title>s1&#45;&gt;s2</title>
<path fill="none" stroke="black" d="M78.3,-64.13C87.67,-64.13 99.18,-64.13 109.97,-64.13"/>
<polygon fill="black" stroke="black" points="109.74,-67.63 119.74,-64.13 109.74,-60.63 109.74,-67.63"/>
<text text-anchor="middle" x="99.72" y="-66.58" font-family="Arial" font-size="14.00">a</text>
</g>
<!-- s2&#45;&gt;s1 -->
<g id="edge4" class="edge">
<title>s2&#45;&gt;s1</title>
<path fill="none" stroke="black" d="M125.62,-50.32C116.8,-45.5 106.05,-41.86 95.97,-44.38 92.36,-45.28 88.71,-46.6 85.19,-48.15"/>
<polygon fill="black" stroke="black" points="83.83,-44.91 76.49,-52.56 87,-51.16 83.83,-44.91"/>
<text text-anchor="middle" x="99.72" y="-46.83" font-family="Arial" font-size="14.00">b</text>
</g>
<!-- s3 -->
<g id="node5" class="node">
<title>s3</title>
<ellipse fill="none" stroke="black" cx="233.35" cy="-64.13" rx="20.13" ry="20.13"/>
<text text-anchor="middle" x="233.35" y="-58.7" font-family="Arial" font-size="14.00">s3</text>
</g>
<!-- s2&#45;&gt;s3 -->
<g id="edge3" class="edge">
<title>s2&#45;&gt;s3</title>
<path fill="none" stroke="black" d="M170.03,-64.13C179.83,-64.13 191.35,-64.13 201.8,-64.13"/>
<polygon fill="black" stroke="black" points="201.49,-67.63 211.49,-64.13 201.49,-60.63 201.49,-67.63"/>
<text text-anchor="middle" x="191.47" y="-66.58" font-family="Arial" font-size="14.00">a</text>
</g>
<!-- s9 -->
<g id="node4" class="node">
<title>s9</title>
<ellipse fill="none" stroke="black" cx="488.61" cy="-96.13" rx="20.13" ry="20.13"/>
<ellipse fill="none" stroke="black" cx="488.61" cy="-96.13" rx="24.13" ry="24.13"/>
<text text-anchor="middle" x="488.61" y="-90.7" font-family="Arial" font-size="14.00">s9</text>
</g>
<!-- s10 -->
<g id="node11" class="node">
<title>s10</title>
<ellipse fill="none" stroke="black" cx="581.35" cy="-158.13" rx="25.12" ry="25.12"/>
<text text-anchor="middle" x="581.35" y="-152.7" font-family="Arial" font-size="14.00">s10</text>
</g>
<!-- s9&#45;&gt;s10 -->
<g id="edge13" class="edge">
<title>s9&#45;&gt;s10</title>
<path fill="none" stroke="black" d="M508.85,-109.27C521.11,-117.65 537.23,-128.66 551.06,-138.11"/>
<polygon fill="black" stroke="black" points="548.71,-140.75 558.94,-143.5 552.66,-134.97 548.71,-140.75"/>
<text text-anchor="middle" x="534.48" y="-131.44" font-family="Arial" font-size="14.00">a</text>
</g>
<!-- s11 -->
<g id="node12" class="node">
<title>s11</title>
<ellipse fill="none" stroke="black" cx="581.35" cy="-90.13" rx="24.62" ry="24.62"/>
<text text-anchor="middle" x="581.35" y="-84.7" font-family="Arial" font-size="14.00">s11</text>
</g>
<!-- s9&#45;&gt;s11 -->
<g id="edge14" class="edge">
<title>s9&#45;&gt;s11</title>
<path fill="none" stroke="black" d="M512.98,-94.58C522.77,-93.93 534.37,-93.17 545.16,-92.45"/>
<polygon fill="black" stroke="black" points="545.17,-95.96 554.92,-91.81 544.71,-88.98 545.17,-95.96"/>
<text text-anchor="middle" x="534.48" y="-95.76" font-family="Arial" font-size="14.00">b</text>
</g>
<!-- s4 -->
<g id="node6" class="node">
<title>s4</title>
<ellipse fill="none" stroke="black" cx="317.1" cy="-64.13" rx="20.13" ry="20.13"/>
<text text-anchor="middle" x="317.1" y="-58.7" font-family="Arial" font-size="14.00">s4</text>
</g>
<!-- s3&#45;&gt;s4 -->
<g id="edge5" class="edge">
<title>s3&#45;&gt;s4</title>
<path fill="none" stroke="black" d="M253.72,-64.13C263.12,-64.13 274.65,-64.13 285.22,-64.13"/>
<polygon fill="black" stroke="black" points="285.07,-67.63 295.07,-64.13 285.07,-60.63 285.07,-67.63"/>
<text text-anchor="middle" x="275.23" y="-66.58" font-family="Arial" font-size="14.00">c</text>
</g>
<!-- s4&#45;&gt;s3 -->
<g id="edge7" class="edge">
<title>s4&#45;&gt;s3</title>
<path fill="none" stroke="black" d="M300.87,-51.76C292.46,-46.39 281.67,-41.83 271.48,-44.38 267.86,-45.28 264.22,-46.6 260.69,-48.15"/>
<polygon fill="black" stroke="black" points="259.34,-44.91 252,-52.56 262.5,-51.16 259.34,-44.91"/>
<text text-anchor="middle" x="275.23" y="-46.83" font-family="Arial" font-size="14.00">d</text>
</g>
<!-- s5 -->
<g id="node7" class="node">
<title>s5</title>
<ellipse fill="none" stroke="black" cx="400.86" cy="-64.13" rx="20.13" ry="20.13"/>
<text text-anchor="middle" x="400.86" y="-58.7" font-family="Arial" font-size="14.00">s5</text>
</g>
<!-- s4&#45;&gt;s5 -->
<g id="edge6" class="edge">
<title>s4&#45;&gt;s5</title>
<path fill="none" stroke="black" d="M337.48,-64.13C346.88,-64.13 358.4,-64.13 368.97,-64.13"/>
<polygon fill="black" stroke="black" points="368.82,-67.63 378.82,-64.13 368.82,-60.63 368.82,-67.63"/>
<text text-anchor="middle" x="358.98" y="-66.58" font-family="Arial" font-size="14.00">b</text>
</g>
<!-- s5&#45;&gt;s9 -->
<g id="edge9" class="edge">
<title>s5&#45;&gt;s9</title>
<path fill="none" stroke="black" d="M420.04,-70.91C430.2,-74.71 443.17,-79.55 455.03,-83.97"/>
<polygon fill="black" stroke="black" points="453.48,-87.13 464.07,-87.34 455.93,-80.57 453.48,-87.13"/>
<text text-anchor="middle" x="442.73" y="-82.58" font-family="Arial" font-size="14.00">b</text>
</g>
<!-- s6 -->
<g id="node8" class="node">
<title>s6</title>
<ellipse fill="none" stroke="black" cx="488.61" cy="-34.13" rx="20.13" ry="20.13"/>
<text text-anchor="middle" x="488.61" y="-28.7" font-family="Arial" font-size="14.00">s6</text>
</g>
<!-- s5&#45;&gt;s6 -->
<g id="edge8" class="edge">
<title>s5&#45;&gt;s6</title>
<path fill="none" stroke="black" d="M420.04,-57.76C431.22,-53.85 445.8,-48.75 458.55,-44.29"/>
<polygon fill="black" stroke="black" points="459.44,-47.69 467.72,-41.08 457.13,-41.08 459.44,-47.69"/>
<text text-anchor="middle" x="442.73" y="-53.37" font-family="Arial" font-size="14.00">a</text>
</g>
<!-- s7 -->
<g id="node9" class="node">
<title>s7</title>
<ellipse fill="none" stroke="black" cx="581.35" cy="-20.13" rx="20.13" ry="20.13"/>
<text text-anchor="middle" x="581.35" y="-14.7" font-family="Arial" font-size="14.00">s7</text>
</g>
<!-- s6&#45;&gt;s7 -->
<g id="edge10" class="edge">
<title>s6&#45;&gt;s7</title>
<path fill="none" stroke="black" d="M508.85,-31.16C520.76,-29.32 536.32,-26.92 549.87,-24.83"/>
<polygon fill="black" stroke="black" points="550.29,-28.31 559.64,-23.32 549.22,-21.39 550.29,-28.31"/>
<text text-anchor="middle" x="534.48" y="-30" font-family="Arial" font-size="14.00">b</text>
</g>
<!-- s7&#45;&gt;s6 -->
<g id="edge11" class="edge">
<title>s7&#45;&gt;s6</title>
<path fill="none" stroke="black" d="M563.27,-11.14C553.66,-7.23 541.48,-4.19 530.73,-7.38 524.96,-9.09 519.24,-11.89 513.98,-15.06"/>
<polygon fill="black" stroke="black" points="512.16,-12.07 505.81,-20.55 516.06,-17.88 512.16,-12.07"/>
<text text-anchor="middle" x="534.48" y="-9.83" font-family="Arial" font-size="14.00">a</text>
</g>
<!-- s8 -->
<g id="node10" class="node">
<title>s8</title>
<ellipse fill="none" stroke="black" cx="670.09" cy="-20.13" rx="20.13" ry="20.13"/>
<text text-anchor="middle" x="670.09" y="-14.7" font-family="Arial" font-size="14.00">s8</text>
</g>
<!-- s7&#45;&gt;s8 -->
<g id="edge12" class="edge">
<title>s7&#45;&gt;s8</title>
<path fill="none" stroke="black" d="M601.6,-20.13C612.42,-20.13 626.17,-20.13 638.44,-20.13"/>
<polygon fill="black" stroke="black" points="638.08,-23.63 648.08,-20.13 638.08,-16.63 638.08,-23.63"/>
<text text-anchor="middle" x="628.22" y="-22.58" font-family="Arial" font-size="14.00">a</text>
</g>
</g>
</svg>
