<?xml version="1.0" encoding="UTF-8" standalone="no"?>
<!DOCTYPE svg PUBLIC "-//W3C//DTD SVG 1.1//EN"
 "http://www.w3.org/Graphics/SVG/1.1/DTD/svg11.dtd">
<!-- Generated by graphviz version 12.2.1 (20241206.2353)
 -->
<!-- Title: RabinCtrl((A&#45;B&#45;Machine),(Automaton(A&#45;B&#45;Spec&#45;Eventually&#45;B))) [minstate] Pages: 1 -->
<svg width="175pt" height="48pt"
 viewBox="0.00 0.00 175.47 47.59" xmlns="http://www.w3.org/2000/svg" xmlns:xlink="http://www.w3.org/1999/xlink">
<g id="graph0" class="graph" transform="scale(1 1) rotate(0) translate(4 43.59)">
<title>RabinCtrl((A&#45;B&#45;Machine),(Automaton(A&#45;B&#45;Spec&#45;Eventually&#45;B))) [minstate]</title>
<!-- dot_dummyinit_1 -->
<g id="node1" class="node">
<title>dot_dummyinit_1</title>
</g>
<!-- 1 -->
<g id="node2" class="node">
<title>1</title>
<ellipse fill="none" stroke="black" cx="55.72" cy="-21.59" rx="18" ry="18"/>
<text text-anchor="middle" x="55.72" y="-16.17" font-family="Arial" font-size="14.00">1</text>
</g>
<!-- dot_dummyinit_1&#45;&gt;1 -->
<g id="edge1" class="edge">
<title>dot_dummyinit_1&#45;&gt;1</title>
<path fill="none" stroke="black" d="M0.87,-21.59C2.34,-21.59 13.93,-21.59 25.99,-21.59"/>
<polygon fill="black" stroke="black" points="25.86,-25.09 35.86,-21.59 25.86,-18.09 25.86,-25.09"/>
</g>
<!-- 2 -->
<g id="node3" class="node">
<title>2</title>
<ellipse fill="none" stroke="black" cx="149.47" cy="-21.59" rx="18" ry="18"/>
<text text-anchor="middle" x="149.47" y="-16.17" font-family="Arial" font-size="14.00">2</text>
</g>
<!-- 1&#45;&gt;2 -->
<g id="edge2" class="edge">
<title>1&#45;&gt;2</title>
<path fill="none" stroke="black" d="M73.98,-21.59C86.84,-21.59 104.7,-21.59 119.7,-21.59"/>
<polygon fill="black" stroke="black" points="119.46,-25.09 129.46,-21.59 119.46,-18.09 119.46,-25.09"/>
<text text-anchor="middle" x="102.6" y="-24.04" font-family="Arial" font-size="14.00">b</text>
</g>
<!-- 2&#45;&gt;1 -->
<g id="edge3" class="edge">
<title>2&#45;&gt;1</title>
<path fill="none" stroke="black" d="M134.21,-11.34C128.13,-7.57 120.76,-3.76 113.47,-1.84 104.12,0.61 101.07,0.61 91.72,-1.84 88.08,-2.8 84.41,-4.23 80.9,-5.9"/>
<polygon fill="black" stroke="black" points="79.39,-2.73 72.31,-10.61 82.76,-8.87 79.39,-2.73"/>
<text text-anchor="middle" x="102.6" y="-4.29" font-family="Arial" font-size="14.00">c, d</text>
</g>
</g>
</svg>
