<?xml version="1.0" encoding="UTF-8" standalone="no"?>
<!DOCTYPE svg PUBLIC "-//W3C//DTD SVG 1.1//EN"
 "http://www.w3.org/Graphics/SVG/1.1/DTD/svg11.dtd">
<!-- Generated by graphviz version 12.2.1 (20241206.2353)
 -->
<!-- Title: eventually allways allternating a and b Pages: 1 -->
<svg width="257pt" height="82pt"
 viewBox="0.00 0.00 256.72 81.75" xmlns="http://www.w3.org/2000/svg" xmlns:xlink="http://www.w3.org/1999/xlink">
<g id="graph0" class="graph" transform="scale(1 1) rotate(0) translate(4 77.75)">
<title>eventually allways allternating a and b</title>
<!-- dot_dummyinit_1 -->
<g id="node1" class="node">
<title>dot_dummyinit_1</title>
</g>
<!-- 1 -->
<g id="node2" class="node">
<title>1</title>
<ellipse fill="none" stroke="black" cx="55.72" cy="-22" rx="18" ry="18"/>
<text text-anchor="middle" x="55.72" y="-16.57" font-family="Arial" font-size="14.00">1</text>
</g>
<!-- dot_dummyinit_1&#45;&gt;1 -->
<g id="edge1" class="edge">
<title>dot_dummyinit_1&#45;&gt;1</title>
<path fill="none" stroke="black" d="M0.87,-22C2.34,-22 13.93,-22 25.99,-22"/>
<polygon fill="black" stroke="black" points="25.86,-25.5 35.86,-22 25.86,-18.5 25.86,-25.5"/>
</g>
<!-- 1&#45;&gt;1 -->
<g id="edge2" class="edge">
<title>1&#45;&gt;1</title>
<path fill="none" stroke="black" d="M49.25,-39.04C47.93,-48.86 50.09,-58 55.72,-58 58.98,-58 61.07,-54.94 62,-50.47"/>
<polygon fill="black" stroke="black" points="65.5,-50.61 62.16,-40.55 58.5,-50.49 65.5,-50.61"/>
<text text-anchor="middle" x="55.72" y="-60.45" font-family="Arial" font-size="14.00">a, b</text>
</g>
<!-- 2 -->
<g id="node3" class="node">
<title>2</title>
<ellipse fill="none" stroke="black" cx="139.22" cy="-22" rx="18" ry="18"/>
<ellipse fill="none" stroke="black" cx="139.22" cy="-22" rx="22" ry="22"/>
<text text-anchor="middle" x="139.22" y="-16.57" font-family="Arial" font-size="14.00">2</text>
</g>
<!-- 1&#45;&gt;2 -->
<g id="edge3" class="edge">
<title>1&#45;&gt;2</title>
<path fill="none" stroke="black" d="M74,-22C83.2,-22 94.82,-22 105.63,-22"/>
<polygon fill="black" stroke="black" points="105.39,-25.5 115.39,-22 105.39,-18.5 105.39,-25.5"/>
<text text-anchor="middle" x="95.47" y="-24.45" font-family="Arial" font-size="14.00">a</text>
</g>
<!-- 3 -->
<g id="node4" class="node">
<title>3</title>
<ellipse fill="none" stroke="black" cx="226.72" cy="-22" rx="18" ry="18"/>
<ellipse fill="none" stroke="black" cx="226.72" cy="-22" rx="22" ry="22"/>
<text text-anchor="middle" x="226.72" y="-16.57" font-family="Arial" font-size="14.00">3</text>
</g>
<!-- 2&#45;&gt;3 -->
<g id="edge4" class="edge">
<title>2&#45;&gt;3</title>
<path fill="none" stroke="black" d="M161.35,-22C170.84,-22 182.25,-22 192.82,-22"/>
<polygon fill="black" stroke="black" points="192.72,-25.5 202.72,-22 192.72,-18.5 192.72,-25.5"/>
<text text-anchor="middle" x="182.97" y="-24.45" font-family="Arial" font-size="14.00">b</text>
</g>
<!-- 3&#45;&gt;2 -->
<g id="edge5" class="edge">
<title>3&#45;&gt;2</title>
<path fill="none" stroke="black" d="M208.53,-8.87C199.95,-3.85 189.29,0.15 179.22,-2.25 175.6,-3.11 171.94,-4.37 168.39,-5.84"/>
<polygon fill="black" stroke="black" points="167.08,-2.58 159.55,-10.04 170.08,-8.91 167.08,-2.58"/>
<text text-anchor="middle" x="182.97" y="-4.7" font-family="Arial" font-size="14.00">a</text>
</g>
</g>
</svg>
