<?xml version="1.0" encoding="UTF-8" standalone="no"?>
<!DOCTYPE svg PUBLIC "-//W3C//DTD SVG 1.1//EN"
 "http://www.w3.org/Graphics/SVG/1.1/DTD/svg11.dtd">
<!-- Generated by graphviz version 12.2.1 (20241206.2353)
 -->
<!-- Title: SupBuechiCon((A&#45;B&#45;Machine&#45;B&#45;Exhausts),(A&#45;B&#45;Spec&#45;Eventually&#45;B)) [minstate] Pages: 1 -->
<svg width="430pt" height="123pt"
 viewBox="0.00 0.00 429.97 122.68" xmlns="http://www.w3.org/2000/svg" xmlns:xlink="http://www.w3.org/1999/xlink">
<g id="graph0" class="graph" transform="scale(1 1) rotate(0) translate(4 118.68)">
<title>SupBuechiCon((A&#45;B&#45;Machine&#45;B&#45;Exhausts),(A&#45;B&#45;Spec&#45;Eventually&#45;B)) [minstate]</title>
<!-- dot_dummyinit_1 -->
<g id="node1" class="node">
<title>dot_dummyinit_1</title>
</g>
<!-- 2 -->
<g id="node2" class="node">
<title>2</title>
<ellipse fill="none" stroke="black" cx="55.72" cy="-20.68" rx="18" ry="18"/>
<text text-anchor="middle" x="55.72" y="-15.25" font-family="Arial" font-size="14.00">2</text>
</g>
<!-- dot_dummyinit_1&#45;&gt;2 -->
<g id="edge1" class="edge">
<title>dot_dummyinit_1&#45;&gt;2</title>
<path fill="none" stroke="black" d="M0.87,-20.68C2.34,-20.68 13.93,-20.68 25.99,-20.68"/>
<polygon fill="black" stroke="black" points="25.86,-24.18 35.86,-20.68 25.86,-17.18 25.86,-24.18"/>
</g>
<!-- 1 -->
<g id="node3" class="node">
<title>1</title>
<ellipse fill="none" stroke="black" cx="139.22" cy="-70.68" rx="18" ry="18"/>
<ellipse fill="none" stroke="black" cx="139.22" cy="-70.68" rx="22" ry="22"/>
<text text-anchor="middle" x="139.22" y="-65.25" font-family="Arial" font-size="14.00">1</text>
</g>
<!-- 2&#45;&gt;1 -->
<g id="edge3" class="edge">
<title>2&#45;&gt;1</title>
<path fill="none" stroke="black" d="M71.67,-29.85C82.51,-36.5 97.48,-45.69 110.49,-53.66"/>
<polygon fill="black" stroke="black" points="108.3,-56.43 118.65,-58.67 111.96,-50.46 108.3,-56.43"/>
<text text-anchor="middle" x="95.47" y="-48.13" font-family="Arial" font-size="14.00">b</text>
</g>
<!-- 3 -->
<g id="node5" class="node">
<title>3</title>
<ellipse fill="none" stroke="black" cx="320.47" cy="-20.68" rx="18" ry="18"/>
<text text-anchor="middle" x="320.47" y="-15.25" font-family="Arial" font-size="14.00">3</text>
</g>
<!-- 2&#45;&gt;3 -->
<g id="edge4" class="edge">
<title>2&#45;&gt;3</title>
<path fill="none" stroke="black" d="M73.96,-20.68C118.22,-20.68 236.21,-20.68 290.9,-20.68"/>
<polygon fill="black" stroke="black" points="290.65,-24.18 300.65,-20.68 290.65,-17.18 290.65,-24.18"/>
<text text-anchor="middle" x="190.1" y="-23.13" font-family="Arial" font-size="14.00">a</text>
</g>
<!-- 6 -->
<g id="node7" class="node">
<title>6</title>
<ellipse fill="none" stroke="black" cx="236.97" cy="-70.68" rx="18" ry="18"/>
<text text-anchor="middle" x="236.97" y="-65.25" font-family="Arial" font-size="14.00">6</text>
</g>
<!-- 1&#45;&gt;6 -->
<g id="edge2" class="edge">
<title>1&#45;&gt;6</title>
<path fill="none" stroke="black" d="M161.47,-70.68C174.9,-70.68 192.43,-70.68 207.11,-70.68"/>
<polygon fill="black" stroke="black" points="207.1,-74.18 217.1,-70.68 207.1,-67.18 207.1,-74.18"/>
<text text-anchor="middle" x="190.1" y="-73.13" font-family="Arial" font-size="14.00">c</text>
</g>
<!-- 4 -->
<g id="node4" class="node">
<title>4</title>
<ellipse fill="none" stroke="black" cx="320.47" cy="-92.68" rx="18" ry="18"/>
<ellipse fill="none" stroke="black" cx="320.47" cy="-92.68" rx="22" ry="22"/>
<text text-anchor="middle" x="320.47" y="-87.25" font-family="Arial" font-size="14.00">4</text>
</g>
<!-- 5 -->
<g id="node6" class="node">
<title>5</title>
<ellipse fill="none" stroke="black" cx="403.97" cy="-91.68" rx="18" ry="18"/>
<text text-anchor="middle" x="403.97" y="-86.25" font-family="Arial" font-size="14.00">5</text>
</g>
<!-- 4&#45;&gt;5 -->
<g id="edge6" class="edge">
<title>4&#45;&gt;5</title>
<path fill="none" stroke="black" d="M342.88,-92.41C352.44,-92.3 363.85,-92.16 374.14,-92.03"/>
<polygon fill="black" stroke="black" points="374.07,-95.53 384.03,-91.91 373.98,-88.53 374.07,-95.53"/>
<text text-anchor="middle" x="364.22" y="-94.63" font-family="Arial" font-size="14.00">d</text>
</g>
<!-- 3&#45;&gt;2 -->
<g id="edge5" class="edge">
<title>3&#45;&gt;2</title>
<path fill="none" stroke="black" d="M302.7,-16.98C279.84,-12.15 237.55,-3.95 200.97,-0.93 160.23,2.44 113.4,-6.33 84.43,-13.24"/>
<polygon fill="black" stroke="black" points="83.86,-9.78 75,-15.59 85.55,-16.57 83.86,-9.78"/>
<text text-anchor="middle" x="190.1" y="-3.38" font-family="Arial" font-size="14.00">c, d</text>
</g>
<!-- 5&#45;&gt;4 -->
<g id="edge7" class="edge">
<title>5&#45;&gt;4</title>
<path fill="none" stroke="black" d="M389.68,-80.17C381.53,-74.5 370.73,-69.37 360.47,-71.93 356.82,-72.84 353.14,-74.16 349.58,-75.7"/>
<polygon fill="black" stroke="black" points="348.1,-72.53 340.72,-80.12 351.23,-78.79 348.1,-72.53"/>
<text text-anchor="middle" x="364.22" y="-74.38" font-family="Arial" font-size="14.00">b</text>
</g>
<!-- 6&#45;&gt;4 -->
<g id="edge9" class="edge">
<title>6&#45;&gt;4</title>
<path fill="none" stroke="black" d="M254.86,-75.24C264.44,-77.82 276.74,-81.14 288.03,-84.19"/>
<polygon fill="black" stroke="black" points="286.82,-87.49 297.39,-86.72 288.64,-80.73 286.82,-87.49"/>
<text text-anchor="middle" x="276.72" y="-84.13" font-family="Arial" font-size="14.00">b</text>
</g>
<!-- 6&#45;&gt;3 -->
<g id="edge8" class="edge">
<title>6&#45;&gt;3</title>
<path fill="none" stroke="black" d="M252.92,-61.51C264.64,-54.32 281.19,-44.16 294.86,-35.78"/>
<polygon fill="black" stroke="black" points="296.63,-38.79 303.33,-30.58 292.97,-32.83 296.63,-38.79"/>
<text text-anchor="middle" x="276.72" y="-51.12" font-family="Arial" font-size="14.00">a</text>
</g>
</g>
</svg>
