<?xml version="1.0" encoding="UTF-8" standalone="no"?>
<!DOCTYPE svg PUBLIC "-//W3C//DTD SVG 1.1//EN"
 "http://www.w3.org/Graphics/SVG/1.1/DTD/svg11.dtd">
<!-- Generated by graphviz version 12.2.1 (20241206.2353)
 -->
<!-- Title: A&#45;B&#45;Spec&#45;Keep&#45;Running Pages: 1 -->
<svg width="169pt" height="151pt"
 viewBox="0.00 0.00 169.22 151.17" xmlns="http://www.w3.org/2000/svg" xmlns:xlink="http://www.w3.org/1999/xlink">
<g id="graph0" class="graph" transform="scale(1 1) rotate(0) translate(4 147.17)">
<title>A&#45;B&#45;Spec&#45;Keep&#45;Running</title>
<!-- dot_dummyinit_1 -->
<g id="node1" class="node">
<title>dot_dummyinit_1</title>
</g>
<!-- I -->
<g id="node2" class="node">
<title>I</title>
<ellipse fill="none" stroke="black" cx="59.72" cy="-23.92" rx="18" ry="18"/>
<ellipse fill="none" stroke="black" cx="59.72" cy="-23.92" rx="22" ry="22"/>
<text text-anchor="middle" x="59.72" y="-18.5" font-family="Arial" font-size="14.00">I</text>
</g>
<!-- dot_dummyinit_1&#45;&gt;I -->
<g id="edge1" class="edge">
<title>dot_dummyinit_1&#45;&gt;I</title>
<path fill="none" stroke="black" d="M0.89,-23.92C2.38,-23.92 13.74,-23.92 26,-23.92"/>
<polygon fill="black" stroke="black" points="25.74,-27.42 35.74,-23.92 25.74,-20.42 25.74,-27.42"/>
</g>
<!-- B -->
<g id="node3" class="node">
<title>B</title>
<ellipse fill="none" stroke="black" cx="143.22" cy="-23.92" rx="18" ry="18"/>
<text text-anchor="middle" x="143.22" y="-18.5" font-family="Arial" font-size="14.00">B</text>
</g>
<!-- I&#45;&gt;B -->
<g id="edge2" class="edge">
<title>I&#45;&gt;B</title>
<path fill="none" stroke="black" d="M78.51,-35.62C87.04,-39.88 97.5,-43.16 107.22,-40.92 110.49,-40.17 113.81,-39.07 117.04,-37.78"/>
<polygon fill="black" stroke="black" points="118.48,-40.97 126.07,-33.58 115.53,-34.63 118.48,-40.97"/>
<text text-anchor="middle" x="103.47" y="-44.1" font-family="Arial" font-size="14.00">a</text>
</g>
<!-- I&#45;&gt;B -->
<g id="edge3" class="edge">
<title>I&#45;&gt;B</title>
<path fill="none" stroke="black" d="M82.01,-21.78C89.92,-21.22 98.98,-20.85 107.22,-21.17 109.32,-21.26 111.49,-21.37 113.67,-21.5"/>
<polygon fill="black" stroke="black" points="113.41,-24.99 123.64,-22.2 113.91,-18 113.41,-24.99"/>
<text text-anchor="middle" x="103.47" y="-23.62" font-family="Arial" font-size="14.00">b</text>
</g>
<!-- B&#45;&gt;I -->
<g id="edge6" class="edge">
<title>B&#45;&gt;I</title>
<path fill="none" stroke="black" d="M128.84,-12.62C122.67,-8.12 115,-3.48 107.22,-1.17 100.21,0.91 92.96,-0.64 86.32,-3.71"/>
<polygon fill="black" stroke="black" points="84.67,-0.62 77.84,-8.72 88.23,-6.65 84.67,-0.62"/>
<text text-anchor="middle" x="103.47" y="-3.62" font-family="Arial" font-size="14.00">c</text>
</g>
<!-- B&#45;&gt;B -->
<g id="edge4" class="edge">
<title>B&#45;&gt;B</title>
<path fill="none" stroke="black" d="M140.82,-42.08C140.45,-51.46 141.25,-59.92 143.22,-59.92 144.3,-59.92 145.02,-57.39 145.4,-53.56"/>
<polygon fill="black" stroke="black" points="148.9,-53.65 145.59,-43.59 141.9,-53.52 148.9,-53.65"/>
<text text-anchor="middle" x="143.22" y="-62.37" font-family="Arial" font-size="14.00">a</text>
</g>
<!-- B&#45;&gt;B -->
<g id="edge5" class="edge">
<title>B&#45;&gt;B</title>
<path fill="none" stroke="black" d="M139.24,-41.9C137.1,-59.12 138.43,-77.92 143.22,-77.92 146.96,-77.92 148.59,-66.45 148.11,-53.22"/>
<polygon fill="black" stroke="black" points="151.61,-53.1 147.32,-43.41 144.63,-53.66 151.61,-53.1"/>
<text text-anchor="middle" x="143.22" y="-80.37" font-family="Arial" font-size="14.00">b</text>
</g>
<!-- B&#45;&gt;B -->
<g id="edge7" class="edge">
<title>B&#45;&gt;B</title>
<path fill="none" stroke="black" d="M138.26,-41.64C133.72,-66.04 135.38,-95.92 143.22,-95.92 149.9,-95.92 152.09,-74.25 149.79,-52.75"/>
<polygon fill="black" stroke="black" points="153.3,-52.53 148.4,-43.14 146.37,-53.54 153.3,-52.53"/>
<text text-anchor="middle" x="143.22" y="-98.37" font-family="Arial" font-size="14.00">d</text>
</g>
</g>
</svg>
