<?xml version="1.0" encoding="UTF-8" standalone="no"?>
<!DOCTYPE svg PUBLIC "-//W3C//DTD SVG 1.1//EN"
 "http://www.w3.org/Graphics/SVG/1.1/DTD/svg11.dtd">
<!-- Generated by graphviz version 12.2.1 (20241206.2353)
 -->
<!-- Title: Automaton(A&#45;B&#45;Spec&#45;Eventually&#45;B) Pages: 1 -->
<svg width="370pt" height="81pt"
 viewBox="0.00 0.00 370.00 80.60" xmlns="http://www.w3.org/2000/svg" xmlns:xlink="http://www.w3.org/1999/xlink">
<g id="graph0" class="graph" transform="scale(1 1) rotate(0) translate(4 76.6)">
<title>Automaton(A&#45;B&#45;Spec&#45;Eventually&#45;B)</title>
<!-- dot_dummyinit_0 -->
<g id="node1" class="node">
<title>dot_dummyinit_0</title>
</g>
<!-- A -->
<g id="node2" class="node">
<title>A</title>
<path fill="none" stroke="black" d="M133,-38.85C133,-38.85 103,-38.85 103,-38.85 97,-38.85 91,-32.85 91,-26.85 91,-26.85 91,-14.85 91,-14.85 91,-8.85 97,-2.85 103,-2.85 103,-2.85 133,-2.85 133,-2.85 139,-2.85 145,-8.85 145,-14.85 145,-14.85 145,-26.85 145,-26.85 145,-32.85 139,-38.85 133,-38.85"/>
<text text-anchor="start" x="104" y="-15.42" font-family="Arial" font-size="14.00">A</text>
<polygon fill="lightblue" stroke="none" points="124,-10.97 124,-30.72 134,-30.72 134,-10.97 124,-10.97"/>
</g>
<!-- dot_dummyinit_0&#45;&gt;A -->
<g id="edge1" class="edge">
<title>dot_dummyinit_0&#45;&gt;A</title>
<path fill="none" stroke="black" d="M53.74,-20.85C61.72,-20.85 70.68,-20.85 79.29,-20.85"/>
<polygon fill="black" stroke="black" points="79.18,-24.35 89.18,-20.85 79.18,-17.35 79.18,-24.35"/>
</g>
<!-- A&#45;&gt;A -->
<g id="edge2" class="edge">
<title>A&#45;&gt;A</title>
<path fill="none" stroke="black" d="M109.77,-39C108.5,-48.38 111.25,-56.85 118,-56.85 121.69,-56.85 124.19,-54.32 125.48,-50.49"/>
<polygon fill="black" stroke="black" points="128.98,-50.72 126.13,-40.51 121.99,-50.26 128.98,-50.72"/>
<text text-anchor="middle" x="118" y="-59.3" font-family="Arial" font-size="14.00">a, c, d</text>
</g>
<!-- B -->
<g id="node4" class="node">
<title>B</title>
<path fill="none" stroke="black" d="M252.5,-38.85C252.5,-38.85 200.5,-38.85 200.5,-38.85 194.5,-38.85 188.5,-32.85 188.5,-26.85 188.5,-26.85 188.5,-14.85 188.5,-14.85 188.5,-8.85 194.5,-2.85 200.5,-2.85 200.5,-2.85 252.5,-2.85 252.5,-2.85 258.5,-2.85 264.5,-8.85 264.5,-14.85 264.5,-14.85 264.5,-26.85 264.5,-26.85 264.5,-32.85 258.5,-38.85 252.5,-38.85"/>
<text text-anchor="start" x="200.5" y="-15.42" font-family="Arial" font-size="14.00">B</text>
<polygon fill="lightblue" stroke="none" points="220.5,-10.97 220.5,-30.72 230.5,-30.72 230.5,-10.97 220.5,-10.97"/>
<polygon fill="darkblue" stroke="none" points="232.5,-10.97 232.5,-30.72 242.5,-30.72 242.5,-10.97 232.5,-10.97"/>
<polygon fill="black" stroke="none" points="244.5,-10.97 244.5,-30.72 254.5,-30.72 254.5,-10.97 244.5,-10.97"/>
</g>
<!-- A&#45;&gt;B -->
<g id="edge3" class="edge">
<title>A&#45;&gt;B</title>
<path fill="none" stroke="black" d="M145.33,-20.85C154.93,-20.85 166.11,-20.85 177.03,-20.85"/>
<polygon fill="black" stroke="black" points="176.71,-24.35 186.71,-20.85 176.71,-17.35 176.71,-24.35"/>
<text text-anchor="middle" x="166.75" y="-23.3" font-family="Arial" font-size="14.00">b</text>
</g>
<!-- dump -->
<g id="node3" class="node">
<title>dump</title>
<path fill="none" stroke="black" d="M350,-38.85C350,-38.85 320,-38.85 320,-38.85 314,-38.85 308,-32.85 308,-26.85 308,-26.85 308,-14.85 308,-14.85 308,-8.85 314,-2.85 320,-2.85 320,-2.85 350,-2.85 350,-2.85 356,-2.85 362,-8.85 362,-14.85 362,-14.85 362,-26.85 362,-26.85 362,-32.85 356,-38.85 350,-38.85"/>
<text text-anchor="middle" x="335" y="-15.42" font-family="Arial" font-size="14.00">dump</text>
</g>
<!-- dump&#45;&gt;dump -->
<g id="edge7" class="edge">
<title>dump&#45;&gt;dump</title>
<path fill="none" stroke="black" d="M326.18,-39C324.82,-48.38 327.76,-56.85 335,-56.85 339.07,-56.85 341.78,-54.17 343.13,-50.16"/>
<polygon fill="black" stroke="black" points="346.61,-50.71 343.73,-40.51 339.62,-50.28 346.61,-50.71"/>
<text text-anchor="middle" x="335" y="-59.3" font-family="Arial" font-size="14.00">a, b, c, d</text>
</g>
<!-- B&#45;&gt;A -->
<g id="edge4" class="edge">
<title>B&#45;&gt;A</title>
<path fill="none" stroke="black" d="M188.13,-2.42C179.93,-0.24 171.23,0.67 163,-1.1 160.7,-1.59 158.37,-2.21 156.05,-2.93"/>
<polygon fill="black" stroke="black" points="154.97,0.4 146.8,-6.34 157.39,-6.17 154.97,0.4"/>
<text text-anchor="middle" x="166.75" y="-3.55" font-family="Arial" font-size="14.00">c</text>
</g>
<!-- B&#45;&gt;dump -->
<g id="edge6" class="edge">
<title>B&#45;&gt;dump</title>
<path fill="none" stroke="black" d="M264.75,-20.85C274.92,-20.85 285.96,-20.85 296.16,-20.85"/>
<polygon fill="black" stroke="black" points="296.15,-24.35 306.15,-20.85 296.15,-17.35 296.15,-24.35"/>
<text text-anchor="middle" x="286.25" y="-23.3" font-family="Arial" font-size="14.00">a</text>
</g>
<!-- B&#45;&gt;B -->
<g id="edge5" class="edge">
<title>B&#45;&gt;B</title>
<path fill="none" stroke="black" d="M215.69,-39C214.03,-48.38 217.63,-56.85 226.5,-56.85 231.49,-56.85 234.81,-54.17 236.47,-50.16"/>
<polygon fill="black" stroke="black" points="239.93,-50.74 237.2,-40.51 232.95,-50.22 239.93,-50.74"/>
<text text-anchor="middle" x="226.5" y="-59.3" font-family="Arial" font-size="14.00">b, d</text>
</g>
</g>
</svg>
