<?xml version="1.0" encoding="UTF-8" standalone="no"?>
<!DOCTYPE svg PUBLIC "-//W3C//DTD SVG 1.1//EN"
 "http://www.w3.org/Graphics/SVG/1.1/DTD/svg11.dtd">
<!-- Generated by graphviz version 2.43.0 (0)
 -->
<!-- Title: very simple machine 1|||very simple machine 2 Pages: 1 -->
<svg width="720pt" height="113pt"
 viewBox="0.00 0.00 720.00 113.48" xmlns="http://www.w3.org/2000/svg" xmlns:xlink="http://www.w3.org/1999/xlink">
<g id="graph0" class="graph" transform="scale(2.25 2.25) rotate(0) translate(4 251.23)">
<title>very simple machine 1|||very simple machine 2</title>
<!-- dot_dummyinit_1 -->
<g id="node1" class="node">
<title>dot_dummyinit_1</title>
</g>
<!-- I|I|r1m* -->
<g id="node2" class="node">
<title>I|I|r1m*</title>
<ellipse fill="none" stroke="black" cx="81.65" cy="-154.23" rx="39.78" ry="39.78"/>
<ellipse fill="none" stroke="black" cx="81.65" cy="-154.23" rx="43.79" ry="43.79"/>
<text text-anchor="middle" x="81.65" y="-150.53" font-family="Arial" font-size="14.00">I|I|r1m*</text>
</g>
<!-- dot_dummyinit_1&#45;&gt;I|I|r1m* -->
<g id="edge1" class="edge">
<title>dot_dummyinit_1&#45;&gt;I|I|r1m*</title>
<path fill="none" stroke="black" d="M1.06,-154.23C1.97,-154.23 13.54,-154.23 27.6,-154.23"/>
<polygon fill="black" stroke="black" points="27.63,-157.73 37.63,-154.23 27.63,-150.73 27.63,-157.73"/>
</g>
<!-- B|I|r1m -->
<g id="node4" class="node">
<title>B|I|r1m</title>
<ellipse fill="none" stroke="black" cx="572.03" cy="-192.23" rx="39.79" ry="39.79"/>
<text text-anchor="middle" x="572.03" y="-188.53" font-family="Arial" font-size="14.00">B|I|r1m</text>
</g>
<!-- I|I|r1m*&#45;&gt;B|I|r1m -->
<g id="edge2" class="edge">
<title>I|I|r1m*&#45;&gt;B|I|r1m</title>
<path fill="none" stroke="black" d="M121.78,-171.74C188.28,-199.37 327.77,-248.2 447.38,-230.23 473.81,-226.26 502.38,-217.77 525.4,-209.82"/>
<polygon fill="black" stroke="black" points="526.64,-213.1 534.9,-206.46 524.31,-206.5 526.64,-213.1"/>
<text text-anchor="middle" x="332.09" y="-236.03" font-family="Arial" font-size="14.00">alpha_1</text>
</g>
<!-- I|B|r1m -->
<g id="node5" class="node">
<title>I|B|r1m</title>
<ellipse fill="none" stroke="black" cx="249.94" cy="-154.23" rx="39.79" ry="39.79"/>
<text text-anchor="middle" x="249.94" y="-150.53" font-family="Arial" font-size="14.00">I|B|r1m</text>
</g>
<!-- I|I|r1m*&#45;&gt;I|B|r1m -->
<g id="edge3" class="edge">
<title>I|I|r1m*&#45;&gt;I|B|r1m</title>
<path fill="none" stroke="black" d="M125.47,-154.23C148.27,-154.23 176.41,-154.23 200.07,-154.23"/>
<polygon fill="black" stroke="black" points="200.24,-157.73 210.24,-154.23 200.24,-150.73 200.24,-157.73"/>
<text text-anchor="middle" x="167.79" y="-158.03" font-family="Arial" font-size="14.00">alpha_2</text>
</g>
<!-- B|I|r1m* -->
<g id="node3" class="node">
<title>B|I|r1m*</title>
<ellipse fill="none" stroke="black" cx="1242.45" cy="-63.23" rx="42.8" ry="42.8"/>
<ellipse fill="none" stroke="black" cx="1242.45" cy="-63.23" rx="46.79" ry="46.79"/>
<text text-anchor="middle" x="1242.45" y="-59.53" font-family="Arial" font-size="14.00">B|I|r1m*</text>
</g>
<!-- B|B|r1m -->
<g id="node6" class="node">
<title>B|B|r1m</title>
<ellipse fill="none" stroke="black" cx="739.57" cy="-154.23" rx="42.79" ry="42.79"/>
<text text-anchor="middle" x="739.57" y="-150.53" font-family="Arial" font-size="14.00">B|B|r1m</text>
</g>
<!-- B|I|r1m*&#45;&gt;B|B|r1m -->
<g id="edge17" class="edge">
<title>B|I|r1m*&#45;&gt;B|B|r1m</title>
<path fill="none" stroke="black" d="M1217.62,-103.4C1207.18,-117.26 1193.62,-131.29 1177.55,-139.23 1050.52,-202.01 876.41,-181.21 791.42,-165.34"/>
<polygon fill="black" stroke="black" points="791.98,-161.89 781.5,-163.44 790.66,-168.76 791.98,-161.89"/>
<text text-anchor="middle" x="982.26" y="-185.03" font-family="Arial" font-size="14.00">alpha_2</text>
</g>
<!-- I|I|r2m -->
<g id="node10" class="node">
<title>I|I|r2m</title>
<ellipse fill="none" stroke="black" cx="1410.74" cy="-119.23" rx="36.29" ry="36.29"/>
<text text-anchor="middle" x="1410.74" y="-115.53" font-family="Arial" font-size="14.00">I|I|r2m</text>
</g>
<!-- B|I|r1m*&#45;&gt;I|I|r2m -->
<g id="edge16" class="edge">
<title>B|I|r1m*&#45;&gt;I|I|r2m</title>
<path fill="none" stroke="black" d="M1287.14,-77.95C1311.58,-86.18 1341.95,-96.4 1366.34,-104.62"/>
<polygon fill="black" stroke="black" points="1365.46,-108.02 1376.05,-107.89 1367.69,-101.38 1365.46,-108.02"/>
<text text-anchor="middle" x="1331.84" y="-105.03" font-family="Arial" font-size="14.00">beta_1</text>
</g>
<!-- B|I|r1m&#45;&gt;B|B|r1m -->
<g id="edge5" class="edge">
<title>B|I|r1m&#45;&gt;B|B|r1m</title>
<path fill="none" stroke="black" d="M603.48,-167.87C611.55,-162.71 620.57,-157.99 629.67,-155.23 647.76,-149.76 668.32,-148.41 686.67,-148.79"/>
<polygon fill="black" stroke="black" points="686.76,-152.3 696.89,-149.19 687.03,-145.3 686.76,-152.3"/>
<text text-anchor="middle" x="654.17" y="-159.03" font-family="Arial" font-size="14.00">alpha_2</text>
</g>
<!-- B|I|r1m&#45;&gt;I|I|r2m -->
<g id="edge4" class="edge">
<title>B|I|r1m&#45;&gt;I|I|r2m</title>
<path fill="none" stroke="black" d="M610.08,-203.96C643.36,-213.45 693.73,-225.23 738.57,-225.23 738.57,-225.23 738.57,-225.23 1243.45,-225.23 1297.65,-225.23 1348.4,-184.7 1379.25,-153.76"/>
<polygon fill="black" stroke="black" points="1381.82,-156.14 1386.28,-146.53 1376.8,-151.26 1381.82,-156.14"/>
<text text-anchor="middle" x="982.26" y="-229.03" font-family="Arial" font-size="14.00">beta_1</text>
</g>
<!-- I|B|r1m&#45;&gt;B|B|r1m -->
<g id="edge6" class="edge">
<title>I|B|r1m&#45;&gt;B|B|r1m</title>
<path fill="none" stroke="black" d="M289.27,-147.7C295.39,-146.79 301.65,-145.93 307.59,-145.23 337.25,-141.78 344.75,-141.35 374.59,-140.23 454.84,-137.24 639.27,-140.62 678.67,-144.23 681.38,-144.48 684.16,-144.78 686.95,-145.12"/>
<polygon fill="black" stroke="black" points="686.73,-148.62 697.11,-146.49 687.67,-141.69 686.73,-148.62"/>
<text text-anchor="middle" x="489.88" y="-143.03" font-family="Arial" font-size="14.00">alpha_1</text>
</g>
<!-- I|I|r1m -->
<g id="node7" class="node">
<title>I|I|r1m</title>
<ellipse fill="none" stroke="black" cx="410.98" cy="-185.23" rx="36.29" ry="36.29"/>
<text text-anchor="middle" x="410.98" y="-181.53" font-family="Arial" font-size="14.00">I|I|r1m</text>
</g>
<!-- I|B|r1m&#45;&gt;I|I|r1m -->
<g id="edge7" class="edge">
<title>I|B|r1m&#45;&gt;I|I|r1m</title>
<path fill="none" stroke="black" d="M289.7,-150.03C309.96,-148.97 334.96,-149.47 356.59,-155.23 361.53,-156.55 366.51,-158.44 371.32,-160.63"/>
<polygon fill="black" stroke="black" points="369.83,-163.8 380.34,-165.15 372.97,-157.54 369.83,-163.8"/>
<text text-anchor="middle" x="332.09" y="-159.03" font-family="Arial" font-size="14.00">beta_2</text>
</g>
<!-- B|B|r1m&#45;&gt;B|I|r1m -->
<g id="edge9" class="edge">
<title>B|B|r1m&#45;&gt;B|I|r1m</title>
<path fill="none" stroke="black" d="M698.05,-165.39C691.58,-167.07 684.96,-168.74 678.67,-170.23 660,-174.67 639.35,-179.08 621.29,-182.77"/>
<polygon fill="black" stroke="black" points="620.39,-179.38 611.28,-184.8 621.78,-186.24 620.39,-179.38"/>
<text text-anchor="middle" x="654.17" y="-184.03" font-family="Arial" font-size="14.00">beta_2</text>
</g>
<!-- I|B|r2m -->
<g id="node8" class="node">
<title>I|B|r2m</title>
<ellipse fill="none" stroke="black" cx="900.11" cy="-101.23" rx="39.79" ry="39.79"/>
<text text-anchor="middle" x="900.11" y="-97.53" font-family="Arial" font-size="14.00">I|B|r2m</text>
</g>
<!-- B|B|r1m&#45;&gt;I|B|r2m -->
<g id="edge8" class="edge">
<title>B|B|r1m&#45;&gt;I|B|r2m</title>
<path fill="none" stroke="black" d="M780.58,-140.86C802.57,-133.51 829.96,-124.35 852.86,-116.69"/>
<polygon fill="black" stroke="black" points="854,-120 862.38,-113.51 851.78,-113.36 854,-120"/>
<text text-anchor="middle" x="821.46" y="-137.03" font-family="Arial" font-size="14.00">beta_1</text>
</g>
<!-- I|I|r1m&#45;&gt;B|I|r1m -->
<g id="edge10" class="edge">
<title>I|I|r1m&#45;&gt;B|I|r1m</title>
<path fill="none" stroke="black" d="M447.68,-186.8C469.71,-187.77 498.28,-189.03 522.37,-190.09"/>
<polygon fill="black" stroke="black" points="522.25,-193.59 532.39,-190.53 522.56,-186.6 522.25,-193.59"/>
<text text-anchor="middle" x="489.88" y="-193.03" font-family="Arial" font-size="14.00">alpha_1</text>
</g>
<!-- I|I|r1m&#45;&gt;I|B|r1m -->
<g id="edge11" class="edge">
<title>I|I|r1m&#45;&gt;I|B|r1m</title>
<path fill="none" stroke="black" d="M374.71,-181.22C354.88,-178.67 329.73,-174.96 307.59,-170.23 304.44,-169.56 301.21,-168.81 297.96,-168.02"/>
<polygon fill="black" stroke="black" points="298.8,-164.62 288.25,-165.51 297.06,-171.4 298.8,-164.62"/>
<text text-anchor="middle" x="332.09" y="-182.03" font-family="Arial" font-size="14.00">alpha_2</text>
</g>
<!-- I|B|r2m&#45;&gt;I|I|r1m* -->
<g id="edge13" class="edge">
<title>I|B|r2m&#45;&gt;I|I|r1m*</title>
<path fill="none" stroke="black" d="M860.81,-94.43C828.78,-89.33 781.84,-83.23 740.57,-83.23 248.94,-83.23 248.94,-83.23 248.94,-83.23 204.75,-83.23 158.88,-104.7 126.54,-124.03"/>
<polygon fill="black" stroke="black" points="124.47,-121.19 117.78,-129.4 128.14,-127.15 124.47,-121.19"/>
<text text-anchor="middle" x="489.88" y="-87.03" font-family="Arial" font-size="14.00">beta_2</text>
</g>
<!-- B|B|r2m -->
<g id="node9" class="node">
<title>B|B|r2m</title>
<ellipse fill="none" stroke="black" cx="1067.65" cy="-63.23" rx="42.79" ry="42.79"/>
<text text-anchor="middle" x="1067.65" y="-59.53" font-family="Arial" font-size="14.00">B|B|r2m</text>
</g>
<!-- I|B|r2m&#45;&gt;B|B|r2m -->
<g id="edge12" class="edge">
<title>I|B|r2m&#45;&gt;B|B|r2m</title>
<path fill="none" stroke="black" d="M939.37,-93.8C959.48,-89.76 984.52,-84.52 1006.76,-79.23 1009.9,-78.49 1013.13,-77.7 1016.38,-76.88"/>
<polygon fill="black" stroke="black" points="1017.32,-80.25 1026.14,-74.39 1015.58,-73.47 1017.32,-80.25"/>
<text text-anchor="middle" x="982.26" y="-94.03" font-family="Arial" font-size="14.00">alpha_1</text>
</g>
<!-- B|B|r2m&#45;&gt;B|I|r1m* -->
<g id="edge15" class="edge">
<title>B|B|r2m&#45;&gt;B|I|r1m*</title>
<path fill="none" stroke="black" d="M1110.92,-63.23C1133.3,-63.23 1161.08,-63.23 1185.26,-63.23"/>
<polygon fill="black" stroke="black" points="1185.37,-66.73 1195.37,-63.23 1185.37,-59.73 1185.37,-66.73"/>
<text text-anchor="middle" x="1153.05" y="-67.03" font-family="Arial" font-size="14.00">beta_2</text>
</g>
<!-- B|B|r2m&#45;&gt;I|B|r2m -->
<g id="edge14" class="edge">
<title>B|B|r2m&#45;&gt;I|B|r2m</title>
<path fill="none" stroke="black" d="M1025.39,-55.67C1004.63,-53.46 979.35,-53.24 957.76,-60.23 951.16,-62.37 944.69,-65.59 938.61,-69.31"/>
<polygon fill="black" stroke="black" points="936.4,-66.58 930.03,-75.05 940.29,-72.4 936.4,-66.58"/>
<text text-anchor="middle" x="982.26" y="-64.03" font-family="Arial" font-size="14.00">beta_1</text>
</g>
<!-- I|I|r2m&#45;&gt;I|B|r2m -->
<g id="edge19" class="edge">
<title>I|I|r2m&#45;&gt;I|B|r2m</title>
<path fill="none" stroke="black" d="M1374.12,-119.99C1368.19,-120.09 1362.09,-120.18 1356.34,-120.23 1334.57,-120.44 1329.12,-120.33 1307.34,-120.23 1181.73,-119.67 1150.17,-122.31 1024.76,-115.23 994.91,-113.55 987.46,-112.66 957.76,-109.23 955.08,-108.92 952.32,-108.59 949.55,-108.24"/>
<polygon fill="black" stroke="black" points="949.84,-104.75 939.47,-106.92 948.93,-111.69 949.84,-104.75"/>
<text text-anchor="middle" x="1153.05" y="-124.03" font-family="Arial" font-size="14.00">alpha_2</text>
</g>
<!-- B|I|r2m -->
<g id="node11" class="node">
<title>B|I|r2m</title>
<ellipse fill="none" stroke="black" cx="1571.78" cy="-81.23" rx="39.79" ry="39.79"/>
<text text-anchor="middle" x="1571.78" y="-77.53" font-family="Arial" font-size="14.00">B|I|r2m</text>
</g>
<!-- I|I|r2m&#45;&gt;B|I|r2m -->
<g id="edge18" class="edge">
<title>I|I|r2m&#45;&gt;B|I|r2m</title>
<path fill="none" stroke="black" d="M1438.88,-95.84C1446.83,-90.31 1455.89,-85.17 1465.14,-82.23 1483.19,-76.49 1503.88,-75.22 1522.13,-75.75"/>
<polygon fill="black" stroke="black" points="1522.12,-79.25 1532.28,-76.23 1522.45,-72.26 1522.12,-79.25"/>
<text text-anchor="middle" x="1489.64" y="-86.03" font-family="Arial" font-size="14.00">alpha_1</text>
</g>
<!-- B|I|r2m&#45;&gt;B|B|r2m -->
<g id="edge21" class="edge">
<title>B|I|r2m&#45;&gt;B|B|r2m</title>
<path fill="none" stroke="black" d="M1535.54,-64.74C1468.99,-35.71 1320.29,19.07 1195.55,-7.23 1167.36,-13.18 1137.81,-25.79 1114.33,-37.55"/>
<polygon fill="black" stroke="black" points="1112.61,-34.49 1105.31,-42.17 1115.81,-40.72 1112.61,-34.49"/>
<text text-anchor="middle" x="1331.84" y="-13.03" font-family="Arial" font-size="14.00">alpha_2</text>
</g>
<!-- B|I|r2m&#45;&gt;I|I|r2m -->
<g id="edge20" class="edge">
<title>B|I|r2m&#45;&gt;I|I|r2m</title>
<path fill="none" stroke="black" d="M1533.39,-92.16C1526.99,-93.92 1520.38,-95.68 1514.14,-97.23 1495.46,-101.87 1474.73,-106.43 1456.83,-110.19"/>
<polygon fill="black" stroke="black" points="1456.01,-106.79 1446.94,-112.25 1457.44,-113.64 1456.01,-106.79"/>
<text text-anchor="middle" x="1489.64" y="-112.03" font-family="Arial" font-size="14.00">beta_1</text>
</g>
</g>
</svg>
