<?xml version="1.0" encoding="UTF-8" standalone="no"?>
<!DOCTYPE svg PUBLIC "-//W3C//DTD SVG 1.1//EN"
 "http://www.w3.org/Graphics/SVG/1.1/DTD/svg11.dtd">
<!-- Generated by graphviz version 2.43.0 (0)
 -->
<!-- Title: G Pages: 1 -->
<svg width="199pt" height="46pt"
 viewBox="0.00 0.00 199.00 45.89" xmlns="http://www.w3.org/2000/svg" xmlns:xlink="http://www.w3.org/1999/xlink">
<g id="graph0" class="graph" transform="scale(1 1) rotate(0) translate(4 41.89)">
<title>G</title>
<!-- dot_dummyinit_1 -->
<g id="node1" class="node">
<title>dot_dummyinit_1</title>
</g>
<!-- s1 -->
<g id="node2" class="node">
<title>s1</title>
<path fill="none" stroke="black" d="M80,-37.89C80,-37.89 50,-37.89 50,-37.89 44,-37.89 38,-31.89 38,-25.89 38,-25.89 38,-13.89 38,-13.89 38,-7.89 44,-1.89 50,-1.89 50,-1.89 80,-1.89 80,-1.89 86,-1.89 92,-7.89 92,-13.89 92,-13.89 92,-25.89 92,-25.89 92,-31.89 86,-37.89 80,-37.89"/>
<text text-anchor="middle" x="65" y="-16.19" font-family="Arial" font-size="14.00">s1</text>
</g>
<!-- dot_dummyinit_1&#45;&gt;s1 -->
<g id="edge1" class="edge">
<title>dot_dummyinit_1&#45;&gt;s1</title>
<path fill="none" stroke="black" d="M1.05,-19.89C1.88,-19.89 14.11,-19.89 27.57,-19.89"/>
<polygon fill="black" stroke="black" points="27.94,-23.39 37.94,-19.89 27.94,-16.39 27.94,-23.39"/>
</g>
<!-- s2 -->
<g id="node3" class="node">
<title>s2</title>
<path fill="none" stroke="black" d="M179,-37.89C179,-37.89 148,-37.89 148,-37.89 142,-37.89 136,-31.89 136,-25.89 136,-25.89 136,-13.89 136,-13.89 136,-7.89 142,-1.89 148,-1.89 148,-1.89 179,-1.89 179,-1.89 185,-1.89 191,-7.89 191,-13.89 191,-13.89 191,-25.89 191,-25.89 191,-31.89 185,-37.89 179,-37.89"/>
<text text-anchor="start" x="148.5" y="-15.69" font-family="Arial" font-size="14.00">s2</text>
<polygon fill="black" stroke="transparent" points="173.5,-9.89 173.5,-28.89 181.5,-28.89 181.5,-9.89 173.5,-9.89"/>
</g>
<!-- s1&#45;&gt;s2 -->
<g id="edge2" class="edge">
<title>s1&#45;&gt;s2</title>
<path fill="none" stroke="black" d="M92.11,-19.89C102.35,-19.89 114.28,-19.89 125.39,-19.89"/>
<polygon fill="black" stroke="black" points="125.69,-23.39 135.69,-19.89 125.69,-16.39 125.69,-23.39"/>
<text text-anchor="middle" x="114" y="-23.69" font-family="Arial" font-size="14.00">a</text>
</g>
<!-- s2&#45;&gt;s1 -->
<g id="edge3" class="edge">
<title>s2&#45;&gt;s1</title>
<path fill="none" stroke="black" d="M135.95,-4.16C127.77,-0.99 118.64,0.89 110,-0.89 107.34,-1.44 104.65,-2.16 101.97,-2.99"/>
<polygon fill="black" stroke="black" points="100.64,0.25 92.42,-6.44 103.02,-6.34 100.64,0.25"/>
<text text-anchor="middle" x="114" y="-4.69" font-family="Arial" font-size="14.00">b</text>
</g>
</g>
</svg>
