<?xml version="1.0" encoding="UTF-8" standalone="no"?>
<!DOCTYPE svg PUBLIC "-//W3C//DTD SVG 1.1//EN"
 "http://www.w3.org/Graphics/SVG/1.1/DTD/svg11.dtd">
<!-- Generated by graphviz version 2.43.0 (0)
 -->
<!-- Title: G Pages: 1 -->
<svg width="179pt" height="56pt"
 viewBox="0.00 0.00 178.59 56.30" xmlns="http://www.w3.org/2000/svg" xmlns:xlink="http://www.w3.org/1999/xlink">
<g id="graph0" class="graph" transform="scale(1 1) rotate(0) translate(4 52.3)">
<title>G</title>
<!-- dot_dummyinit_1 -->
<g id="node1" class="node">
<title>dot_dummyinit_1</title>
</g>
<!-- s1 -->
<g id="node2" class="node">
<title>s1</title>
<ellipse fill="none" stroke="black" cx="58.15" cy="-24.15" rx="20.3" ry="20.3"/>
<text text-anchor="middle" x="58.15" y="-20.45" font-family="Arial" font-size="14.00">s1</text>
</g>
<!-- dot_dummyinit_1&#45;&gt;s1 -->
<g id="edge1" class="edge">
<title>dot_dummyinit_1&#45;&gt;s1</title>
<path fill="none" stroke="black" d="M1.16,-24.15C2.7,-24.15 15.09,-24.15 27.82,-24.15"/>
<polygon fill="black" stroke="black" points="27.9,-27.65 37.9,-24.15 27.9,-20.65 27.9,-27.65"/>
</g>
<!-- s2 -->
<g id="node3" class="node">
<title>s2</title>
<ellipse fill="none" stroke="black" cx="146.44" cy="-24.15" rx="20.27" ry="20.27"/>
<ellipse fill="none" stroke="black" cx="146.44" cy="-24.15" rx="24.3" ry="24.3"/>
<text text-anchor="middle" x="146.44" y="-20.45" font-family="Arial" font-size="14.00">s2</text>
</g>
<!-- s1&#45;&gt;s2 -->
<g id="edge2" class="edge">
<title>s1&#45;&gt;s2</title>
<path fill="none" stroke="black" d="M78.3,-24.15C88.18,-24.15 100.53,-24.15 111.93,-24.15"/>
<polygon fill="black" stroke="black" points="112.04,-27.65 122.04,-24.15 112.04,-20.65 112.04,-27.65"/>
<text text-anchor="middle" x="100.3" y="-27.95" font-family="Arial" font-size="14.00">a</text>
</g>
<!-- s2&#45;&gt;s1 -->
<g id="edge3" class="edge">
<title>s2&#45;&gt;s1</title>
<path fill="none" stroke="black" d="M126.21,-10.84C117.29,-6.21 106.44,-2.71 96.3,-5.15 92.37,-6.09 88.39,-7.53 84.56,-9.2"/>
<polygon fill="black" stroke="black" points="82.92,-6.11 75.51,-13.67 86.02,-12.38 82.92,-6.11"/>
<text text-anchor="middle" x="100.3" y="-8.95" font-family="Arial" font-size="14.00">b</text>
</g>
</g>
</svg>
