<?xml version="1.0" encoding="UTF-8" standalone="no"?>
<!DOCTYPE svg PUBLIC "-//W3C//DTD SVG 1.1//EN"
 "http://www.w3.org/Graphics/SVG/1.1/DTD/svg11.dtd">
<!-- Generated by graphviz version 2.43.0 (0)
 -->
<!-- Title: wSpec1 Pages: 1 -->
<svg width="200pt" height="77pt"
 viewBox="0.00 0.00 200.00 77.00" xmlns="http://www.w3.org/2000/svg" xmlns:xlink="http://www.w3.org/1999/xlink">
<g id="graph0" class="graph" transform="scale(1 1) rotate(0) translate(4 73)">
<title>wSpec1</title>
<!-- dot_dummyinit_1 -->
<g id="node1" class="node">
<title>dot_dummyinit_1</title>
</g>
<!-- S1 -->
<g id="node2" class="node">
<title>S1</title>
<path fill="none" stroke="black" d="M80,-36C80,-36 50,-36 50,-36 44,-36 38,-30 38,-24 38,-24 38,-12 38,-12 38,-6 44,0 50,0 50,0 80,0 80,0 86,0 92,-6 92,-12 92,-12 92,-24 92,-24 92,-30 86,-36 80,-36"/>
<text text-anchor="middle" x="65" y="-14.3" font-family="Arial" font-size="14.00">S1</text>
</g>
<!-- dot_dummyinit_1&#45;&gt;S1 -->
<g id="edge1" class="edge">
<title>dot_dummyinit_1&#45;&gt;S1</title>
<path fill="none" stroke="black" d="M1.05,-18C1.88,-18 14.11,-18 27.57,-18"/>
<polygon fill="black" stroke="black" points="27.94,-21.5 37.94,-18 27.94,-14.5 27.94,-21.5"/>
</g>
<!-- S1&#45;&gt;S1 -->
<g id="edge2" class="edge">
<title>S1&#45;&gt;S1</title>
<path fill="none" stroke="black" d="M57.04,-36.15C55.82,-45.54 58.47,-54 65,-54 68.98,-54 71.52,-50.86 72.62,-46.28"/>
<polygon fill="black" stroke="black" points="76.12,-46.26 72.96,-36.15 69.13,-46.03 76.12,-46.26"/>
<text text-anchor="middle" x="65" y="-57.8" font-family="Arial" font-size="14.00">a, b, d</text>
</g>
<!-- S2 -->
<g id="node3" class="node">
<title>S2</title>
<path fill="none" stroke="black" d="M180,-36C180,-36 147,-36 147,-36 141,-36 135,-30 135,-24 135,-24 135,-12 135,-12 135,-6 141,0 147,0 147,0 180,0 180,0 186,0 192,-6 192,-12 192,-12 192,-24 192,-24 192,-30 186,-36 180,-36"/>
<text text-anchor="start" x="147.5" y="-13.8" font-family="Arial" font-size="14.00">S2</text>
<polygon fill="black" stroke="transparent" points="174.5,-8 174.5,-27 182.5,-27 182.5,-8 174.5,-8"/>
</g>
<!-- S1&#45;&gt;S2 -->
<g id="edge3" class="edge">
<title>S1&#45;&gt;S2</title>
<path fill="none" stroke="black" d="M92.11,-18C102.1,-18 113.69,-18 124.56,-18"/>
<polygon fill="black" stroke="black" points="124.68,-21.5 134.68,-18 124.68,-14.5 124.68,-21.5"/>
<text text-anchor="middle" x="113.5" y="-21.8" font-family="Arial" font-size="14.00">c</text>
</g>
<!-- S2&#45;&gt;S2 -->
<g id="edge4" class="edge">
<title>S2&#45;&gt;S2</title>
<path fill="none" stroke="black" d="M154.45,-36.15C153.06,-45.54 156.08,-54 163.5,-54 168.02,-54 170.91,-50.86 172.16,-46.28"/>
<polygon fill="black" stroke="black" points="175.66,-46.28 172.55,-36.15 168.67,-46.01 175.66,-46.28"/>
<text text-anchor="middle" x="163.5" y="-57.8" font-family="Arial" font-size="14.00">b, c, d</text>
</g>
</g>
</svg>
