<?xml version="1.0" encoding="UTF-8" standalone="no"?>
<!DOCTYPE svg PUBLIC "-//W3C//DTD SVG 1.1//EN"
 "http://www.w3.org/Graphics/SVG/1.1/DTD/svg11.dtd">
<!-- Generated by graphviz version 12.2.1 (20241206.2353)
 -->
<!-- Title: SupBuechiCon((wPlant1),(wSpec1)) Pages: 1 -->
<svg width="720pt" height="181pt"
 viewBox="0.00 0.00 720.00 181.22" xmlns="http://www.w3.org/2000/svg" xmlns:xlink="http://www.w3.org/1999/xlink">
<g id="graph0" class="graph" transform="scale(0.942445 0.942445) rotate(0) translate(4 188.29)">
<title>SupBuechiCon((wPlant1),(wSpec1))</title>
<!-- dot_dummyinit_1 -->
<g id="node1" class="node">
<title>dot_dummyinit_1</title>
</g>
<!-- 1 -->
<g id="node2" class="node">
<title>1</title>
<ellipse fill="none" stroke="black" cx="55.72" cy="-64.76" rx="18" ry="18"/>
<text text-anchor="middle" x="55.72" y="-59.33" font-family="Arial" font-size="14.00">1</text>
</g>
<!-- dot_dummyinit_1&#45;&gt;1 -->
<g id="edge1" class="edge">
<title>dot_dummyinit_1&#45;&gt;1</title>
<path fill="none" stroke="black" d="M0.87,-64.76C2.34,-64.76 13.93,-64.76 25.99,-64.76"/>
<polygon fill="black" stroke="black" points="25.86,-68.26 35.86,-64.76 25.86,-61.26 25.86,-68.26"/>
</g>
<!-- 2 -->
<g id="node4" class="node">
<title>2</title>
<ellipse fill="none" stroke="black" cx="135.22" cy="-104.76" rx="18" ry="18"/>
<text text-anchor="middle" x="135.22" y="-99.33" font-family="Arial" font-size="14.00">2</text>
</g>
<!-- 1&#45;&gt;2 -->
<g id="edge2" class="edge">
<title>1&#45;&gt;2</title>
<path fill="none" stroke="black" d="M72.03,-72.66C82.47,-78.05 96.55,-85.32 108.67,-91.57"/>
<polygon fill="black" stroke="black" points="106.84,-94.57 117.33,-96.04 110.05,-88.35 106.84,-94.57"/>
<text text-anchor="middle" x="95.47" y="-88.41" font-family="Arial" font-size="14.00">b</text>
</g>
<!-- 3 -->
<g id="node5" class="node">
<title>3</title>
<ellipse fill="none" stroke="black" cx="135.22" cy="-25.76" rx="18" ry="18"/>
<text text-anchor="middle" x="135.22" y="-20.33" font-family="Arial" font-size="14.00">3</text>
</g>
<!-- 1&#45;&gt;3 -->
<g id="edge3" class="edge">
<title>1&#45;&gt;3</title>
<path fill="none" stroke="black" d="M72.4,-56.87C82.7,-51.69 96.41,-44.79 108.3,-38.8"/>
<polygon fill="black" stroke="black" points="109.85,-41.94 117.21,-34.32 106.7,-35.69 109.85,-41.94"/>
<text text-anchor="middle" x="95.47" y="-48.88" font-family="Arial" font-size="14.00">d</text>
</g>
<!-- 5 -->
<g id="node3" class="node">
<title>5</title>
<ellipse fill="none" stroke="black" cx="495.47" cy="-40.76" rx="18" ry="18"/>
<ellipse fill="none" stroke="black" cx="495.47" cy="-40.76" rx="22" ry="22"/>
<text text-anchor="middle" x="495.47" y="-35.33" font-family="Arial" font-size="14.00">5</text>
</g>
<!-- 6 -->
<g id="node7" class="node">
<title>6</title>
<ellipse fill="none" stroke="black" cx="737.97" cy="-40.76" rx="18" ry="18"/>
<text text-anchor="middle" x="737.97" y="-35.33" font-family="Arial" font-size="14.00">6</text>
</g>
<!-- 5&#45;&gt;6 -->
<g id="edge8" class="edge">
<title>5&#45;&gt;6</title>
<path fill="none" stroke="black" d="M514.92,-51.54C527.43,-58.07 544.61,-65.55 560.97,-67.76 623.15,-76.14 644.02,-84.82 701.97,-60.76 705.46,-59.31 709.04,-57.58 712.5,-55.76"/>
<polygon fill="black" stroke="black" points="714.09,-58.88 721.08,-50.92 710.65,-52.78 714.09,-58.88"/>
<text text-anchor="middle" x="618.72" y="-78.37" font-family="Arial" font-size="14.00">b</text>
</g>
<!-- 7 -->
<g id="node8" class="node">
<title>7</title>
<ellipse fill="none" stroke="black" cx="578.97" cy="-40.76" rx="18" ry="18"/>
<text text-anchor="middle" x="578.97" y="-35.33" font-family="Arial" font-size="14.00">7</text>
</g>
<!-- 5&#45;&gt;7 -->
<g id="edge9" class="edge">
<title>5&#45;&gt;7</title>
<path fill="none" stroke="black" d="M517.88,-40.76C527.44,-40.76 538.85,-40.76 549.14,-40.76"/>
<polygon fill="black" stroke="black" points="549.03,-44.26 559.03,-40.76 549.03,-37.26 549.03,-44.26"/>
<text text-anchor="middle" x="539.22" y="-43.21" font-family="Arial" font-size="14.00">d</text>
</g>
<!-- 9 -->
<g id="node10" class="node">
<title>9</title>
<ellipse fill="none" stroke="black" cx="214.72" cy="-104.76" rx="18" ry="18"/>
<text text-anchor="middle" x="214.72" y="-99.33" font-family="Arial" font-size="14.00">9</text>
</g>
<!-- 2&#45;&gt;9 -->
<g id="edge4" class="edge">
<title>2&#45;&gt;9</title>
<path fill="none" stroke="black" d="M153.42,-104.76C162.69,-104.76 174.36,-104.76 184.97,-104.76"/>
<polygon fill="black" stroke="black" points="184.79,-108.26 194.79,-104.76 184.79,-101.26 184.79,-108.26"/>
<text text-anchor="middle" x="174.97" y="-107.21" font-family="Arial" font-size="14.00">d</text>
</g>
<!-- 3&#45;&gt;1 -->
<g id="edge6" class="edge">
<title>3&#45;&gt;1</title>
<path fill="none" stroke="black" d="M117.39,-21.61C109.29,-20.46 99.64,-20.37 91.72,-24.01 83.91,-27.6 77.19,-33.88 71.79,-40.45"/>
<polygon fill="black" stroke="black" points="69.23,-38.01 66.15,-48.15 74.88,-42.15 69.23,-38.01"/>
<text text-anchor="middle" x="95.47" y="-26.46" font-family="Arial" font-size="14.00">d</text>
</g>
<!-- 4 -->
<g id="node6" class="node">
<title>4</title>
<ellipse fill="none" stroke="black" cx="268.72" cy="-24.76" rx="18" ry="18"/>
<text text-anchor="middle" x="268.72" y="-19.33" font-family="Arial" font-size="14.00">4</text>
</g>
<!-- 3&#45;&gt;4 -->
<g id="edge5" class="edge">
<title>3&#45;&gt;4</title>
<path fill="none" stroke="black" d="M153.68,-25.63C175.52,-25.46 213.18,-25.17 239.22,-24.98"/>
<polygon fill="black" stroke="black" points="239.12,-28.48 249.09,-24.9 239.06,-21.48 239.12,-28.48"/>
<text text-anchor="middle" x="174.97" y="-27.94" font-family="Arial" font-size="14.00">a</text>
</g>
<!-- 4&#45;&gt;5 -->
<g id="edge7" class="edge">
<title>4&#45;&gt;5</title>
<path fill="none" stroke="black" d="M286.98,-25.99C324.41,-28.65 413.55,-35 461.92,-38.44"/>
<polygon fill="black" stroke="black" points="461.55,-41.92 471.77,-39.14 462.04,-34.94 461.55,-41.92"/>
<text text-anchor="middle" x="367.72" y="-34.34" font-family="Arial" font-size="14.00">c</text>
</g>
<!-- 6&#45;&gt;5 -->
<g id="edge10" class="edge">
<title>6&#45;&gt;5</title>
<path fill="none" stroke="black" d="M721.37,-32.82C709.34,-26.94 692.16,-19.06 676.47,-13.76 653.11,-5.87 646.96,-3.86 622.47,-1.01 587.78,3.03 549.79,-11.8 524.69,-24.47"/>
<polygon fill="black" stroke="black" points="523.31,-21.24 516.11,-29.01 526.58,-27.43 523.31,-21.24"/>
<text text-anchor="middle" x="618.72" y="-3.46" font-family="Arial" font-size="14.00">d</text>
</g>
<!-- 8 -->
<g id="node9" class="node">
<title>8</title>
<ellipse fill="none" stroke="black" cx="658.47" cy="-40.76" rx="18" ry="18"/>
<text text-anchor="middle" x="658.47" y="-35.33" font-family="Arial" font-size="14.00">8</text>
</g>
<!-- 7&#45;&gt;8 -->
<g id="edge11" class="edge">
<title>7&#45;&gt;8</title>
<path fill="none" stroke="black" d="M597.17,-40.76C606.44,-40.76 618.11,-40.76 628.72,-40.76"/>
<polygon fill="black" stroke="black" points="628.54,-44.26 638.54,-40.76 628.54,-37.26 628.54,-44.26"/>
<text text-anchor="middle" x="618.72" y="-43.21" font-family="Arial" font-size="14.00">d</text>
</g>
<!-- 8&#45;&gt;6 -->
<g id="edge12" class="edge">
<title>8&#45;&gt;6</title>
<path fill="none" stroke="black" d="M676.67,-40.76C685.94,-40.76 697.61,-40.76 708.22,-40.76"/>
<polygon fill="black" stroke="black" points="708.04,-44.26 718.04,-40.76 708.04,-37.26 708.04,-44.26"/>
<text text-anchor="middle" x="698.22" y="-43.21" font-family="Arial" font-size="14.00">b</text>
</g>
<!-- 8&#45;&gt;7 -->
<g id="edge13" class="edge">
<title>8&#45;&gt;7</title>
<path fill="none" stroke="black" d="M643.21,-30.51C637.13,-26.74 629.76,-22.92 622.47,-21.01 615.92,-19.29 609.13,-20.78 602.95,-23.57"/>
<polygon fill="black" stroke="black" points="601.5,-20.37 594.6,-28.41 605.01,-26.43 601.5,-20.37"/>
<text text-anchor="middle" x="618.72" y="-23.46" font-family="Arial" font-size="14.00">d</text>
</g>
<!-- 10 -->
<g id="node11" class="node">
<title>10</title>
<ellipse fill="none" stroke="black" cx="325.35" cy="-162.76" rx="20.63" ry="20.63"/>
<text text-anchor="middle" x="325.35" y="-157.33" font-family="Arial" font-size="14.00">10</text>
</g>
<!-- 9&#45;&gt;10 -->
<g id="edge14" class="edge">
<title>9&#45;&gt;10</title>
<path fill="none" stroke="black" d="M221.29,-121.75C226.6,-134.93 235.99,-152.33 250.72,-160.76 263.55,-168.1 279.81,-169.22 293.79,-168.24"/>
<polygon fill="black" stroke="black" points="293.8,-171.76 303.36,-167.18 293.03,-164.8 293.8,-171.76"/>
<text text-anchor="middle" x="268.72" y="-170.99" font-family="Arial" font-size="14.00">b</text>
</g>
<!-- 11 -->
<g id="node12" class="node">
<title>11</title>
<ellipse fill="none" stroke="black" cx="325.35" cy="-73.76" rx="20.13" ry="20.13"/>
<text text-anchor="middle" x="325.35" y="-68.33" font-family="Arial" font-size="14.00">11</text>
</g>
<!-- 9&#45;&gt;11 -->
<g id="edge15" class="edge">
<title>9&#45;&gt;11</title>
<path fill="none" stroke="black" d="M232.22,-100.05C248.69,-95.35 274.37,-88.02 294.44,-82.29"/>
<polygon fill="black" stroke="black" points="295.39,-85.66 304.04,-79.55 293.47,-78.93 295.39,-85.66"/>
<text text-anchor="middle" x="268.72" y="-97.18" font-family="Arial" font-size="14.00">d</text>
</g>
<!-- 10&#45;&gt;9 -->
<g id="edge16" class="edge">
<title>10&#45;&gt;9</title>
<path fill="none" stroke="black" d="M307.22,-152.61C300.83,-148.89 293.48,-144.69 286.72,-141.01 271.85,-132.92 254.98,-124.29 241.42,-117.48"/>
<polygon fill="black" stroke="black" points="243.22,-114.46 232.71,-113.13 240.09,-120.72 243.22,-114.46"/>
<text text-anchor="middle" x="268.72" y="-143.46" font-family="Arial" font-size="14.00">d</text>
</g>
<!-- 11&#45;&gt;9 -->
<g id="edge18" class="edge">
<title>11&#45;&gt;9</title>
<path fill="none" stroke="black" d="M306.29,-66.51C290.86,-61.49 268.43,-57.01 250.72,-65.01 243.29,-68.37 236.81,-74.17 231.51,-80.32"/>
<polygon fill="black" stroke="black" points="228.83,-78.06 225.53,-88.13 234.39,-82.31 228.83,-78.06"/>
<text text-anchor="middle" x="268.72" y="-67.46" font-family="Arial" font-size="14.00">d</text>
</g>
<!-- 12 -->
<g id="node13" class="node">
<title>12</title>
<ellipse fill="none" stroke="black" cx="410.1" cy="-73.76" rx="20.63" ry="20.63"/>
<text text-anchor="middle" x="410.1" y="-68.33" font-family="Arial" font-size="14.00">12</text>
</g>
<!-- 11&#45;&gt;12 -->
<g id="edge17" class="edge">
<title>11&#45;&gt;12</title>
<path fill="none" stroke="black" d="M345.96,-73.76C355.4,-73.76 366.96,-73.76 377.6,-73.76"/>
<polygon fill="black" stroke="black" points="377.54,-77.26 387.54,-73.76 377.54,-70.26 377.54,-77.26"/>
<text text-anchor="middle" x="367.72" y="-76.21" font-family="Arial" font-size="14.00">a</text>
</g>
<!-- 12&#45;&gt;5 -->
<g id="edge19" class="edge">
<title>12&#45;&gt;5</title>
<path fill="none" stroke="black" d="M429.6,-66.44C439.71,-62.44 452.48,-57.38 464.01,-52.82"/>
<polygon fill="black" stroke="black" points="465.15,-56.13 473.16,-49.2 462.57,-49.62 465.15,-56.13"/>
<text text-anchor="middle" x="452.1" y="-60.7" font-family="Arial" font-size="14.00">c</text>
</g>
</g>
</svg>
