<?xml version="1.0" encoding="UTF-8" standalone="no"?>
<!DOCTYPE svg PUBLIC "-//W3C//DTD SVG 1.1//EN"
 "http://www.w3.org/Graphics/SVG/1.1/DTD/svg11.dtd">
<!-- Generated by graphviz version 2.43.0 (0)
 -->
<!-- Title: g Pages: 1 -->
<svg width="394pt" height="190pt"
 viewBox="0.00 0.00 394.00 190.00" xmlns="http://www.w3.org/2000/svg" xmlns:xlink="http://www.w3.org/1999/xlink">
<g id="graph0" class="graph" transform="scale(1 1) rotate(0) translate(4 186)">
<title>g</title>
<!-- dot_dummyinit_1 -->
<g id="node1" class="node">
<title>dot_dummyinit_1</title>
</g>
<!-- 1 -->
<g id="node2" class="node">
<title>1</title>
<path fill="none" stroke="black" d="M80,-36C80,-36 50,-36 50,-36 44,-36 38,-30 38,-24 38,-24 38,-12 38,-12 38,-6 44,0 50,0 50,0 80,0 80,0 86,0 92,-6 92,-12 92,-12 92,-24 92,-24 92,-30 86,-36 80,-36"/>
<text text-anchor="start" x="53" y="-13.8" font-family="Arial" font-size="14.00">1</text>
<polygon fill="black" stroke="transparent" points="71,-8 71,-27 79,-27 79,-8 71,-8"/>
</g>
<!-- dot_dummyinit_1&#45;&gt;1 -->
<g id="edge1" class="edge">
<title>dot_dummyinit_1&#45;&gt;1</title>
<path fill="none" stroke="black" d="M1.05,-18C1.88,-18 14.11,-18 27.57,-18"/>
<polygon fill="black" stroke="black" points="27.94,-21.5 37.94,-18 27.94,-14.5 27.94,-21.5"/>
</g>
<!-- 2 -->
<g id="node4" class="node">
<title>2</title>
<path fill="none" stroke="black" d="M178,-105C178,-105 148,-105 148,-105 142,-105 136,-99 136,-93 136,-93 136,-81 136,-81 136,-75 142,-69 148,-69 148,-69 178,-69 178,-69 184,-69 190,-75 190,-81 190,-81 190,-93 190,-93 190,-99 184,-105 178,-105"/>
<text text-anchor="middle" x="163" y="-83.3" font-family="Arial" font-size="14.00">2</text>
</g>
<!-- 1&#45;&gt;2 -->
<g id="edge2" class="edge">
<title>1&#45;&gt;2</title>
<path fill="none" stroke="black" d="M91.22,-36.13C102.69,-44.37 116.41,-54.23 128.71,-63.07"/>
<polygon fill="black" stroke="black" points="126.78,-66 136.95,-68.99 130.87,-60.31 126.78,-66"/>
<text text-anchor="middle" x="114" y="-57.8" font-family="Arial" font-size="14.00">a</text>
</g>
<!-- 5 -->
<g id="node3" class="node">
<title>5</title>
<path fill="none" stroke="black" d="M374,-129C374,-129 344,-129 344,-129 338,-129 332,-123 332,-117 332,-117 332,-105 332,-105 332,-99 338,-93 344,-93 344,-93 374,-93 374,-93 380,-93 386,-99 386,-105 386,-105 386,-117 386,-117 386,-123 380,-129 374,-129"/>
<text text-anchor="start" x="347" y="-106.8" font-family="Arial" font-size="14.00">5</text>
<polygon fill="black" stroke="transparent" points="365,-101 365,-120 373,-120 373,-101 365,-101"/>
</g>
<!-- 3 -->
<g id="node5" class="node">
<title>3</title>
<path fill="none" stroke="black" d="M276,-182C276,-182 246,-182 246,-182 240,-182 234,-176 234,-170 234,-170 234,-158 234,-158 234,-152 240,-146 246,-146 246,-146 276,-146 276,-146 282,-146 288,-152 288,-158 288,-158 288,-170 288,-170 288,-176 282,-182 276,-182"/>
<text text-anchor="middle" x="261" y="-160.3" font-family="Arial" font-size="14.00">3</text>
</g>
<!-- 2&#45;&gt;3 -->
<g id="edge3" class="edge">
<title>2&#45;&gt;3</title>
<path fill="none" stroke="black" d="M185.87,-105.02C192.91,-110.79 200.77,-117.19 208,-123 214.76,-128.43 222.06,-134.23 228.98,-139.69"/>
<polygon fill="black" stroke="black" points="226.87,-142.48 236.89,-145.92 231.2,-136.99 226.87,-142.48"/>
<text text-anchor="middle" x="212" y="-131.8" font-family="Arial" font-size="14.00">b</text>
</g>
<!-- 4 -->
<g id="node6" class="node">
<title>4</title>
<path fill="none" stroke="black" d="M276,-128C276,-128 246,-128 246,-128 240,-128 234,-122 234,-116 234,-116 234,-104 234,-104 234,-98 240,-92 246,-92 246,-92 276,-92 276,-92 282,-92 288,-98 288,-104 288,-104 288,-116 288,-116 288,-122 282,-128 276,-128"/>
<text text-anchor="middle" x="261" y="-106.3" font-family="Arial" font-size="14.00">4</text>
</g>
<!-- 2&#45;&gt;4 -->
<g id="edge4" class="edge">
<title>2&#45;&gt;4</title>
<path fill="none" stroke="black" d="M190.24,-97.58C196.02,-99.62 202.16,-101.56 208,-103 213.07,-104.25 218.47,-105.29 223.8,-106.15"/>
<polygon fill="black" stroke="black" points="223.48,-109.64 233.87,-107.6 224.47,-102.71 223.48,-109.64"/>
<text text-anchor="middle" x="212" y="-107.8" font-family="Arial" font-size="14.00">c</text>
</g>
<!-- 6 -->
<g id="node7" class="node">
<title>6</title>
<path fill="none" stroke="black" d="M276,-67C276,-67 246,-67 246,-67 240,-67 234,-61 234,-55 234,-55 234,-43 234,-43 234,-37 240,-31 246,-31 246,-31 276,-31 276,-31 282,-31 288,-37 288,-43 288,-43 288,-55 288,-55 288,-61 282,-67 276,-67"/>
<text text-anchor="middle" x="261" y="-45.3" font-family="Arial" font-size="14.00">6</text>
</g>
<!-- 2&#45;&gt;6 -->
<g id="edge5" class="edge">
<title>2&#45;&gt;6</title>
<path fill="none" stroke="black" d="M190.03,-71.49C195.83,-68.41 202.02,-65.4 208,-63 213.15,-60.93 218.71,-59.07 224.21,-57.44"/>
<polygon fill="black" stroke="black" points="225.25,-60.78 233.95,-54.73 223.38,-54.03 225.25,-60.78"/>
<text text-anchor="middle" x="212" y="-66.8" font-family="Arial" font-size="14.00">d</text>
</g>
<!-- 4&#45;&gt;5 -->
<g id="edge7" class="edge">
<title>4&#45;&gt;5</title>
<path fill="none" stroke="black" d="M288.23,-110.27C298.5,-110.38 310.45,-110.5 321.53,-110.62"/>
<polygon fill="black" stroke="black" points="321.76,-114.12 331.8,-110.73 321.84,-107.12 321.76,-114.12"/>
<text text-anchor="middle" x="310" y="-113.8" font-family="Arial" font-size="14.00">a</text>
</g>
<!-- 4&#45;&gt;2 -->
<g id="edge6" class="edge">
<title>4&#45;&gt;2</title>
<path fill="none" stroke="black" d="M234.51,-91.89C228.68,-88.63 222.33,-85.73 216,-84 211,-82.63 205.64,-82.03 200.32,-81.91"/>
<polygon fill="black" stroke="black" points="200.15,-78.42 190.27,-82.22 200.37,-85.41 200.15,-78.42"/>
<text text-anchor="middle" x="212" y="-87.8" font-family="Arial" font-size="14.00">b</text>
</g>
<!-- 7 -->
<g id="node8" class="node">
<title>7</title>
<path fill="none" stroke="black" d="M374,-53C374,-53 344,-53 344,-53 338,-53 332,-47 332,-41 332,-41 332,-29 332,-29 332,-23 338,-17 344,-17 344,-17 374,-17 374,-17 380,-17 386,-23 386,-29 386,-29 386,-41 386,-41 386,-47 380,-53 374,-53"/>
<text text-anchor="middle" x="359" y="-31.3" font-family="Arial" font-size="14.00">7</text>
</g>
<!-- 6&#45;&gt;7 -->
<g id="edge8" class="edge">
<title>6&#45;&gt;7</title>
<path fill="none" stroke="black" d="M288.07,-52.16C296.4,-52.6 305.64,-52.47 314,-51 316.68,-50.53 319.42,-49.9 322.15,-49.18"/>
<polygon fill="black" stroke="black" points="323.36,-52.47 331.89,-46.18 321.3,-45.78 323.36,-52.47"/>
<text text-anchor="middle" x="310" y="-54.8" font-family="Arial" font-size="14.00">a</text>
</g>
<!-- 7&#45;&gt;1 -->
<g id="edge9" class="edge">
<title>7&#45;&gt;1</title>
<path fill="none" stroke="black" d="M331.89,-29.09C318.79,-26.39 302.63,-23.48 288,-22 222.81,-15.4 146.31,-15.8 102.27,-16.82"/>
<polygon fill="black" stroke="black" points="101.97,-13.32 92.06,-17.08 102.14,-20.32 101.97,-13.32"/>
<text text-anchor="middle" x="212" y="-21.8" font-family="Arial" font-size="14.00">c</text>
</g>
<!-- 7&#45;&gt;6 -->
<g id="edge10" class="edge">
<title>7&#45;&gt;6</title>
<path fill="none" stroke="black" d="M331.92,-31.04C323.59,-30.43 314.36,-30.44 306,-32 303.3,-32.5 300.55,-33.17 297.82,-33.94"/>
<polygon fill="black" stroke="black" points="296.48,-30.69 288.06,-37.12 298.66,-37.35 296.48,-30.69"/>
<text text-anchor="middle" x="310" y="-35.8" font-family="Arial" font-size="14.00">b</text>
</g>
</g>
</svg>
