<?xml version="1.0" encoding="UTF-8" standalone="no"?>
<!DOCTYPE svg PUBLIC "-//W3C//DTD SVG 1.1//EN"
 "http://www.w3.org/Graphics/SVG/1.1/DTD/svg11.dtd">
<!-- Generated by graphviz version 12.2.1 (20241206.2353)
 -->
<!-- Title: RabinCtrl((A&#45;B&#45;Machine),(Automaton(A&#45;B&#45;Spec&#45;Eventually&#45;B))) [minstate] Pages: 1 -->
<svg width="424pt" height="210pt"
 viewBox="0.00 0.00 423.72 210.00" xmlns="http://www.w3.org/2000/svg" xmlns:xlink="http://www.w3.org/1999/xlink">
<g id="graph0" class="graph" transform="scale(1 1) rotate(0) translate(4 206)">
<title>RabinCtrl((A&#45;B&#45;Machine),(Automaton(A&#45;B&#45;Spec&#45;Eventually&#45;B))) [minstate]</title>
<!-- dot_dummyinit_1 -->
<g id="node1" class="node">
<title>dot_dummyinit_1</title>
</g>
<!-- 1 -->
<g id="node2" class="node">
<title>1</title>
<ellipse fill="none" stroke="black" cx="59.72" cy="-81" rx="18" ry="18"/>
<ellipse fill="none" stroke="black" cx="59.72" cy="-81" rx="22" ry="22"/>
<text text-anchor="middle" x="59.72" y="-75.58" font-family="Arial" font-size="14.00">1</text>
</g>
<!-- dot_dummyinit_1&#45;&gt;1 -->
<g id="edge1" class="edge">
<title>dot_dummyinit_1&#45;&gt;1</title>
<path fill="none" stroke="black" d="M0.89,-81C2.38,-81 13.74,-81 26,-81"/>
<polygon fill="black" stroke="black" points="25.74,-84.5 35.74,-81 25.74,-77.5 25.74,-84.5"/>
</g>
<!-- 2 -->
<g id="node5" class="node">
<title>2</title>
<ellipse fill="none" stroke="black" cx="310.22" cy="-135" rx="18" ry="18"/>
<text text-anchor="middle" x="310.22" y="-129.57" font-family="Arial" font-size="14.00">2</text>
</g>
<!-- 1&#45;&gt;2 -->
<g id="edge2" class="edge">
<title>1&#45;&gt;2</title>
<path fill="none" stroke="black" d="M79.49,-91.36C85.82,-94.65 92.99,-98.17 99.72,-101 170.18,-130.61 190.38,-138.31 266.72,-142 270.05,-142.16 270.9,-142.33 274.22,-142 276.44,-141.78 278.73,-141.48 281.02,-141.14"/>
<polygon fill="black" stroke="black" points="281.53,-144.6 290.74,-139.37 280.28,-137.71 281.53,-144.6"/>
<text text-anchor="middle" x="182.97" y="-135.02" font-family="Arial" font-size="14.00">b</text>
</g>
<!-- 6 -->
<g id="node8" class="node">
<title>6</title>
<ellipse fill="none" stroke="black" cx="143.22" cy="-81" rx="18" ry="18"/>
<text text-anchor="middle" x="143.22" y="-75.58" font-family="Arial" font-size="14.00">6</text>
</g>
<!-- 1&#45;&gt;6 -->
<g id="edge3" class="edge">
<title>1&#45;&gt;6</title>
<path fill="none" stroke="black" d="M82.13,-81C91.69,-81 103.1,-81 113.39,-81"/>
<polygon fill="black" stroke="black" points="113.28,-84.5 123.28,-81 113.28,-77.5 113.28,-84.5"/>
<text text-anchor="middle" x="103.47" y="-83.45" font-family="Arial" font-size="14.00">a</text>
</g>
<!-- 3 -->
<g id="node3" class="node">
<title>3</title>
<ellipse fill="none" stroke="black" cx="393.72" cy="-180" rx="18" ry="18"/>
<ellipse fill="none" stroke="black" cx="393.72" cy="-180" rx="22" ry="22"/>
<text text-anchor="middle" x="393.72" y="-174.57" font-family="Arial" font-size="14.00">3</text>
</g>
<!-- 3&#45;&gt;2 -->
<g id="edge6" class="edge">
<title>3&#45;&gt;2</title>
<path fill="none" stroke="black" d="M374.09,-169.57C367.64,-165.97 360.37,-161.92 353.72,-158.25 348.11,-155.15 342.07,-151.83 336.35,-148.7"/>
<polygon fill="black" stroke="black" points="338.36,-145.81 327.91,-144.09 335,-151.96 338.36,-145.81"/>
<text text-anchor="middle" x="349.97" y="-160.7" font-family="Arial" font-size="14.00">b</text>
</g>
<!-- 7 -->
<g id="node4" class="node">
<title>7</title>
<ellipse fill="none" stroke="black" cx="226.72" cy="-105" rx="18" ry="18"/>
<ellipse fill="none" stroke="black" cx="226.72" cy="-105" rx="22" ry="22"/>
<text text-anchor="middle" x="226.72" y="-99.58" font-family="Arial" font-size="14.00">7</text>
</g>
<!-- 7&#45;&gt;2 -->
<g id="edge12" class="edge">
<title>7&#45;&gt;2</title>
<path fill="none" stroke="black" d="M247.87,-112.42C258.26,-116.24 271.08,-120.96 282.31,-125.09"/>
<polygon fill="black" stroke="black" points="280.85,-128.29 291.44,-128.46 283.26,-121.72 280.85,-128.29"/>
<text text-anchor="middle" x="270.47" y="-124.25" font-family="Arial" font-size="14.00">a</text>
</g>
<!-- 8 -->
<g id="node9" class="node">
<title>8</title>
<ellipse fill="none" stroke="black" cx="310.22" cy="-18" rx="18" ry="18"/>
<text text-anchor="middle" x="310.22" y="-12.57" font-family="Arial" font-size="14.00">8</text>
</g>
<!-- 7&#45;&gt;8 -->
<g id="edge13" class="edge">
<title>7&#45;&gt;8</title>
<path fill="none" stroke="black" d="M246.74,-94.85C255.74,-89.44 266.24,-82.21 274.22,-74 282.7,-65.27 290.16,-54.15 295.99,-44.13"/>
<polygon fill="black" stroke="black" points="298.96,-46 300.73,-35.55 292.83,-42.62 298.96,-46"/>
<text text-anchor="middle" x="270.47" y="-82.65" font-family="Arial" font-size="14.00">b</text>
</g>
<!-- 2&#45;&gt;3 -->
<g id="edge4" class="edge">
<title>2&#45;&gt;3</title>
<path fill="none" stroke="black" d="M319.37,-150.62C325.37,-160.36 334.52,-172.13 346.22,-178 350.53,-180.16 355.35,-181.42 360.21,-182.09"/>
<polygon fill="black" stroke="black" points="359.73,-185.57 369.91,-182.62 360.11,-178.58 359.73,-185.57"/>
<text text-anchor="middle" x="349.97" y="-183.12" font-family="Arial" font-size="14.00">c</text>
</g>
<!-- 5 -->
<g id="node7" class="node">
<title>5</title>
<ellipse fill="none" stroke="black" cx="393.72" cy="-90" rx="18" ry="18"/>
<text text-anchor="middle" x="393.72" y="-84.58" font-family="Arial" font-size="14.00">5</text>
</g>
<!-- 2&#45;&gt;5 -->
<g id="edge5" class="edge">
<title>2&#45;&gt;5</title>
<path fill="none" stroke="black" d="M326.55,-126.54C338.05,-120.19 354.04,-111.36 367.42,-103.97"/>
<polygon fill="black" stroke="black" points="369.07,-107.06 376.13,-99.16 365.69,-100.93 369.07,-107.06"/>
<text text-anchor="middle" x="349.97" y="-117.64" font-family="Arial" font-size="14.00">d</text>
</g>
<!-- 4 -->
<g id="node6" class="node">
<title>4</title>
<ellipse fill="none" stroke="black" cx="226.72" cy="-47" rx="18" ry="18"/>
<text text-anchor="middle" x="226.72" y="-41.58" font-family="Arial" font-size="14.00">4</text>
</g>
<!-- 4&#45;&gt;2 -->
<g id="edge7" class="edge">
<title>4&#45;&gt;2</title>
<path fill="none" stroke="black" d="M244.77,-45.83C254.32,-46.04 265.95,-47.85 274.22,-54.25 290.4,-66.76 299.23,-88.28 303.97,-105.95"/>
<polygon fill="black" stroke="black" points="300.56,-106.73 306.24,-115.67 307.38,-105.14 300.56,-106.73"/>
<text text-anchor="middle" x="270.47" y="-56.7" font-family="Arial" font-size="14.00">a</text>
</g>
<!-- 4&#45;&gt;8 -->
<g id="edge8" class="edge">
<title>4&#45;&gt;8</title>
<path fill="none" stroke="black" d="M240.34,-35.09C247.5,-29.14 256.95,-22.53 266.72,-19.25 271.08,-17.79 275.84,-16.96 280.54,-16.55"/>
<polygon fill="black" stroke="black" points="280.44,-20.05 290.35,-16.29 280.26,-13.06 280.44,-20.05"/>
<text text-anchor="middle" x="270.47" y="-21.7" font-family="Arial" font-size="14.00">b</text>
</g>
<!-- 5&#45;&gt;2 -->
<g id="edge9" class="edge">
<title>5&#45;&gt;2</title>
<path fill="none" stroke="black" d="M375.51,-88.07C366.35,-87.79 355.16,-88.69 346.22,-93.25 338.46,-97.21 331.75,-103.72 326.34,-110.44"/>
<polygon fill="black" stroke="black" points="323.7,-108.13 320.68,-118.29 329.37,-112.22 323.7,-108.13"/>
<text text-anchor="middle" x="349.97" y="-95.7" font-family="Arial" font-size="14.00">b</text>
</g>
<!-- 6&#45;&gt;7 -->
<g id="edge11" class="edge">
<title>6&#45;&gt;7</title>
<path fill="none" stroke="black" d="M160.71,-85.86C170.34,-88.69 182.81,-92.36 194.25,-95.73"/>
<polygon fill="black" stroke="black" points="193.17,-99.06 203.75,-98.53 195.14,-92.35 193.17,-99.06"/>
<text text-anchor="middle" x="182.97" y="-95.45" font-family="Arial" font-size="14.00">c</text>
</g>
<!-- 6&#45;&gt;4 -->
<g id="edge10" class="edge">
<title>6&#45;&gt;4</title>
<path fill="none" stroke="black" d="M160.32,-74.28C171.37,-69.67 186.3,-63.45 199.1,-58.11"/>
<polygon fill="black" stroke="black" points="200.37,-61.37 208.25,-54.29 197.68,-54.91 200.37,-61.37"/>
<text text-anchor="middle" x="182.97" y="-68.49" font-family="Arial" font-size="14.00">d</text>
</g>
<!-- 8&#45;&gt;1 -->
<g id="edge14" class="edge">
<title>8&#45;&gt;1</title>
<path fill="none" stroke="black" d="M292.29,-15.3C284.51,-14.34 275.16,-13.59 266.72,-14 239.07,-15.33 231.55,-13.19 204.72,-20 163.18,-30.54 118.13,-51.27 89.68,-65.62"/>
<polygon fill="black" stroke="black" points="88.28,-62.41 80.98,-70.08 91.47,-68.63 88.28,-62.41"/>
<text text-anchor="middle" x="182.97" y="-29.85" font-family="Arial" font-size="14.00">c</text>
</g>
<!-- 9 -->
<g id="node10" class="node">
<title>9</title>
<ellipse fill="none" stroke="black" cx="393.72" cy="-24" rx="18" ry="18"/>
<text text-anchor="middle" x="393.72" y="-18.57" font-family="Arial" font-size="14.00">9</text>
</g>
<!-- 8&#45;&gt;9 -->
<g id="edge15" class="edge">
<title>8&#45;&gt;9</title>
<path fill="none" stroke="black" d="M328.5,-19.27C338.88,-20.04 352.33,-21.03 364.24,-21.9"/>
<polygon fill="black" stroke="black" points="363.72,-25.37 373.95,-22.62 364.24,-18.39 363.72,-25.37"/>
<text text-anchor="middle" x="349.97" y="-23.45" font-family="Arial" font-size="14.00">d</text>
</g>
<!-- 9&#45;&gt;8 -->
<g id="edge16" class="edge">
<title>9&#45;&gt;8</title>
<path fill="none" stroke="black" d="M378.72,-13.4C371.63,-8.69 362.65,-3.66 353.72,-1.25 347.6,0.41 341.15,-0.61 335.18,-2.79"/>
<polygon fill="black" stroke="black" points="333.97,0.52 326.48,-6.98 337.01,-5.79 333.97,0.52"/>
<text text-anchor="middle" x="349.97" y="-3.7" font-family="Arial" font-size="14.00">b</text>
</g>
</g>
</svg>
