<?xml version="1.0" encoding="UTF-8" standalone="no"?>
<!DOCTYPE svg PUBLIC "-//W3C//DTD SVG 1.1//EN"
 "http://www.w3.org/Graphics/SVG/1.1/DTD/svg11.dtd">
<!-- Generated by graphviz version 2.43.0 (0)
 -->
<!-- Title: SupBuechiCon((A&#45;B&#45;Machine&#45;B&#45;Exhausts),(A&#45;B&#45;Spec&#45;Eventually&#45;B)) [minstate] Pages: 1 -->
<svg width="432pt" height="121pt"
 viewBox="0.00 0.00 432.00 120.90" xmlns="http://www.w3.org/2000/svg" xmlns:xlink="http://www.w3.org/1999/xlink">
<g id="graph0" class="graph" transform="scale(1 1) rotate(0) translate(4 116.9)">
<title>SupBuechiCon((A&#45;B&#45;Machine&#45;B&#45;Exhausts),(A&#45;B&#45;Spec&#45;Eventually&#45;B)) [minstate]</title>
<!-- dot_dummyinit_1 -->
<g id="node1" class="node">
<title>dot_dummyinit_1</title>
</g>
<!-- 2 -->
<g id="node2" class="node">
<title>2</title>
<ellipse fill="none" stroke="black" cx="56" cy="-19.9" rx="18" ry="18"/>
<text text-anchor="middle" x="56" y="-16.2" font-family="Arial" font-size="14.00">2</text>
</g>
<!-- dot_dummyinit_1&#45;&gt;2 -->
<g id="edge1" class="edge">
<title>dot_dummyinit_1&#45;&gt;2</title>
<path fill="none" stroke="black" d="M1.15,-19.9C2.67,-19.9 15.1,-19.9 27.63,-19.9"/>
<polygon fill="black" stroke="black" points="27.94,-23.4 37.94,-19.9 27.94,-16.4 27.94,-23.4"/>
</g>
<!-- 1 -->
<g id="node3" class="node">
<title>1</title>
<ellipse fill="none" stroke="black" cx="140" cy="-69.9" rx="18" ry="18"/>
<ellipse fill="none" stroke="black" cx="140" cy="-69.9" rx="22" ry="22"/>
<text text-anchor="middle" x="140" y="-66.2" font-family="Arial" font-size="14.00">1</text>
</g>
<!-- 2&#45;&gt;1 -->
<g id="edge3" class="edge">
<title>2&#45;&gt;1</title>
<path fill="none" stroke="black" d="M71.66,-28.84C82.81,-35.64 98.48,-45.19 111.89,-53.37"/>
<polygon fill="black" stroke="black" points="110.38,-56.54 120.74,-58.76 114.02,-50.57 110.38,-56.54"/>
<text text-anchor="middle" x="96" y="-48.7" font-family="Arial" font-size="14.00">b</text>
</g>
<!-- 3 -->
<g id="node5" class="node">
<title>3</title>
<ellipse fill="none" stroke="black" cx="322" cy="-19.9" rx="18" ry="18"/>
<text text-anchor="middle" x="322" y="-16.2" font-family="Arial" font-size="14.00">3</text>
</g>
<!-- 2&#45;&gt;3 -->
<g id="edge4" class="edge">
<title>2&#45;&gt;3</title>
<path fill="none" stroke="black" d="M74.32,-19.9C119.18,-19.9 239.42,-19.9 293.72,-19.9"/>
<polygon fill="black" stroke="black" points="293.96,-23.4 303.96,-19.9 293.96,-16.4 293.96,-23.4"/>
<text text-anchor="middle" x="191" y="-23.7" font-family="Arial" font-size="14.00">a</text>
</g>
<!-- 6 -->
<g id="node7" class="node">
<title>6</title>
<ellipse fill="none" stroke="black" cx="238" cy="-69.9" rx="18" ry="18"/>
<text text-anchor="middle" x="238" y="-66.2" font-family="Arial" font-size="14.00">6</text>
</g>
<!-- 1&#45;&gt;6 -->
<g id="edge2" class="edge">
<title>1&#45;&gt;6</title>
<path fill="none" stroke="black" d="M162.31,-69.9C176.26,-69.9 194.64,-69.9 209.67,-69.9"/>
<polygon fill="black" stroke="black" points="209.91,-73.4 219.91,-69.9 209.91,-66.4 209.91,-73.4"/>
<text text-anchor="middle" x="191" y="-73.7" font-family="Arial" font-size="14.00">c</text>
</g>
<!-- 4 -->
<g id="node4" class="node">
<title>4</title>
<ellipse fill="none" stroke="black" cx="322" cy="-90.9" rx="18" ry="18"/>
<ellipse fill="none" stroke="black" cx="322" cy="-90.9" rx="22" ry="22"/>
<text text-anchor="middle" x="322" y="-87.2" font-family="Arial" font-size="14.00">4</text>
</g>
<!-- 5 -->
<g id="node6" class="node">
<title>5</title>
<ellipse fill="none" stroke="black" cx="406" cy="-90.9" rx="18" ry="18"/>
<text text-anchor="middle" x="406" y="-87.2" font-family="Arial" font-size="14.00">5</text>
</g>
<!-- 4&#45;&gt;5 -->
<g id="edge6" class="edge">
<title>4&#45;&gt;5</title>
<path fill="none" stroke="black" d="M344.12,-90.9C354.3,-90.9 366.63,-90.9 377.53,-90.9"/>
<polygon fill="black" stroke="black" points="377.82,-94.4 387.82,-90.9 377.82,-87.4 377.82,-94.4"/>
<text text-anchor="middle" x="366" y="-94.7" font-family="Arial" font-size="14.00">d</text>
</g>
<!-- 3&#45;&gt;2 -->
<g id="edge5" class="edge">
<title>3&#45;&gt;2</title>
<path fill="none" stroke="black" d="M304.15,-16.34C281.19,-11.7 238.71,-3.81 202,-0.9 160.3,2.41 112.21,-6.41 83.23,-13.12"/>
<polygon fill="black" stroke="black" points="82.37,-9.72 73.47,-15.47 84.01,-16.53 82.37,-9.72"/>
<text text-anchor="middle" x="191" y="-4.7" font-family="Arial" font-size="14.00">c, d</text>
</g>
<!-- 5&#45;&gt;4 -->
<g id="edge7" class="edge">
<title>5&#45;&gt;4</title>
<path fill="none" stroke="black" d="M390.69,-81.03C384.6,-77.4 377.24,-73.73 370,-71.9 363.24,-70.18 356.16,-71.35 349.6,-73.78"/>
<polygon fill="black" stroke="black" points="348.04,-70.64 340.47,-78.06 351.01,-76.98 348.04,-70.64"/>
<text text-anchor="middle" x="366" y="-75.7" font-family="Arial" font-size="14.00">b</text>
</g>
<!-- 6&#45;&gt;4 -->
<g id="edge9" class="edge">
<title>6&#45;&gt;4</title>
<path fill="none" stroke="black" d="M255.59,-74.15C265.58,-76.7 278.61,-80.04 290.41,-83.06"/>
<polygon fill="black" stroke="black" points="289.8,-86.52 300.35,-85.61 291.54,-79.74 289.8,-86.52"/>
<text text-anchor="middle" x="278" y="-83.7" font-family="Arial" font-size="14.00">b</text>
</g>
<!-- 6&#45;&gt;3 -->
<g id="edge8" class="edge">
<title>6&#45;&gt;3</title>
<path fill="none" stroke="black" d="M253.66,-60.96C265.83,-53.54 283.36,-42.84 297.49,-34.23"/>
<polygon fill="black" stroke="black" points="299.47,-37.12 306.19,-28.93 295.83,-31.14 299.47,-37.12"/>
<text text-anchor="middle" x="278" y="-50.7" font-family="Arial" font-size="14.00">a</text>
</g>
</g>
</svg>
