<?xml version="1.0" encoding="UTF-8" standalone="no"?>
<!DOCTYPE svg PUBLIC "-//W3C//DTD SVG 1.1//EN"
 "http://www.w3.org/Graphics/SVG/1.1/DTD/svg11.dtd">
<!-- Generated by graphviz version 2.43.0 (0)
 -->
<!-- Title: SupBuechiCon((A&#45;B&#45;Machine),(A&#45;B&#45;Spec&#45;Eventually&#45;B)) [minstate] Pages: 1 -->
<svg width="344pt" height="119pt"
 viewBox="0.00 0.00 344.00 119.05" xmlns="http://www.w3.org/2000/svg" xmlns:xlink="http://www.w3.org/1999/xlink">
<g id="graph0" class="graph" transform="scale(1 1) rotate(0) translate(4 115.05)">
<title>SupBuechiCon((A&#45;B&#45;Machine),(A&#45;B&#45;Spec&#45;Eventually&#45;B)) [minstate]</title>
<!-- dot_dummyinit_1 -->
<g id="node1" class="node">
<title>dot_dummyinit_1</title>
</g>
<!-- 2 -->
<g id="node2" class="node">
<title>2</title>
<ellipse fill="none" stroke="black" cx="56" cy="-51.05" rx="18" ry="18"/>
<text text-anchor="middle" x="56" y="-47.35" font-family="Arial" font-size="14.00">2</text>
</g>
<!-- dot_dummyinit_1&#45;&gt;2 -->
<g id="edge1" class="edge">
<title>dot_dummyinit_1&#45;&gt;2</title>
<path fill="none" stroke="black" d="M1.15,-51.05C2.67,-51.05 15.1,-51.05 27.63,-51.05"/>
<polygon fill="black" stroke="black" points="27.94,-54.55 37.94,-51.05 27.94,-47.55 27.94,-54.55"/>
</g>
<!-- 1 -->
<g id="node3" class="node">
<title>1</title>
<ellipse fill="none" stroke="black" cx="154" cy="-89.05" rx="18" ry="18"/>
<ellipse fill="none" stroke="black" cx="154" cy="-89.05" rx="22" ry="22"/>
<text text-anchor="middle" x="154" y="-85.35" font-family="Arial" font-size="14.00">1</text>
</g>
<!-- 2&#45;&gt;1 -->
<g id="edge4" class="edge">
<title>2&#45;&gt;1</title>
<path fill="none" stroke="black" d="M65.51,-66.53C71.56,-75.81 80.61,-86.8 92,-92.05 101.36,-96.37 112.41,-96.97 122.52,-96.06"/>
<polygon fill="black" stroke="black" points="123.17,-99.5 132.59,-94.66 122.21,-92.57 123.17,-99.5"/>
<text text-anchor="middle" x="103" y="-99.85" font-family="Arial" font-size="14.00">b</text>
</g>
<!-- 5 -->
<g id="node6" class="node">
<title>5</title>
<ellipse fill="none" stroke="black" cx="154" cy="-29.05" rx="18" ry="18"/>
<text text-anchor="middle" x="154" y="-25.35" font-family="Arial" font-size="14.00">5</text>
</g>
<!-- 2&#45;&gt;5 -->
<g id="edge5" class="edge">
<title>2&#45;&gt;5</title>
<path fill="none" stroke="black" d="M73.72,-47.22C88.22,-43.89 109.47,-39.02 126.32,-35.16"/>
<polygon fill="black" stroke="black" points="127.18,-38.56 136.15,-32.91 125.62,-31.73 127.18,-38.56"/>
<text text-anchor="middle" x="103" y="-45.85" font-family="Arial" font-size="14.00">a</text>
</g>
<!-- 1&#45;&gt;2 -->
<g id="edge2" class="edge">
<title>1&#45;&gt;2</title>
<path fill="none" stroke="black" d="M133.31,-81.26C118.78,-75.5 98.85,-67.62 83.01,-61.34"/>
<polygon fill="black" stroke="black" points="83.87,-57.92 73.29,-57.5 81.29,-64.43 83.87,-57.92"/>
<text text-anchor="middle" x="103" y="-76.85" font-family="Arial" font-size="14.00">c</text>
</g>
<!-- 4 -->
<g id="node5" class="node">
<title>4</title>
<ellipse fill="none" stroke="black" cx="238" cy="-70.05" rx="18" ry="18"/>
<text text-anchor="middle" x="238" y="-66.35" font-family="Arial" font-size="14.00">4</text>
</g>
<!-- 1&#45;&gt;4 -->
<g id="edge3" class="edge">
<title>1&#45;&gt;4</title>
<path fill="none" stroke="black" d="M175.69,-84.25C186.23,-81.81 199.15,-78.82 210.42,-76.21"/>
<polygon fill="black" stroke="black" points="211.23,-79.61 220.18,-73.95 209.65,-72.79 211.23,-79.61"/>
<text text-anchor="middle" x="198" y="-82.85" font-family="Arial" font-size="14.00">d</text>
</g>
<!-- 3 -->
<g id="node4" class="node">
<title>3</title>
<ellipse fill="none" stroke="black" cx="318" cy="-32.05" rx="18" ry="18"/>
<text text-anchor="middle" x="318" y="-28.35" font-family="Arial" font-size="14.00">3</text>
</g>
<!-- 3&#45;&gt;2 -->
<g id="edge6" class="edge">
<title>3&#45;&gt;2</title>
<path fill="none" stroke="black" d="M300.73,-26.27C268.59,-15.54 194.65,5.66 132,-2.05 113.81,-4.29 107.7,-2.59 92,-12.05 85.04,-16.24 78.67,-22.26 73.33,-28.32"/>
<polygon fill="black" stroke="black" points="70.32,-26.47 66.73,-36.44 75.75,-30.89 70.32,-26.47"/>
<text text-anchor="middle" x="198" y="-5.85" font-family="Arial" font-size="14.00">c</text>
</g>
<!-- 3&#45;&gt;4 -->
<g id="edge7" class="edge">
<title>3&#45;&gt;4</title>
<path fill="none" stroke="black" d="M300.01,-29.49C291.82,-28.98 282.05,-29.47 274,-33.05 266.78,-36.26 260.33,-41.74 255,-47.51"/>
<polygon fill="black" stroke="black" points="252.16,-45.45 248.46,-55.38 257.54,-49.93 252.16,-45.45"/>
<text text-anchor="middle" x="278" y="-36.85" font-family="Arial" font-size="14.00">d</text>
</g>
<!-- 4&#45;&gt;3 -->
<g id="edge8" class="edge">
<title>4&#45;&gt;3</title>
<path fill="none" stroke="black" d="M254.41,-62.54C265.31,-57.23 280.14,-50.01 292.63,-43.92"/>
<polygon fill="black" stroke="black" points="294.16,-47.07 301.62,-39.54 291.1,-40.77 294.16,-47.07"/>
<text text-anchor="middle" x="278" y="-55.85" font-family="Arial" font-size="14.00">b</text>
</g>
<!-- 5&#45;&gt;2 -->
<g id="edge9" class="edge">
<title>5&#45;&gt;2</title>
<path fill="none" stroke="black" d="M137.24,-22.05C124.64,-17.48 106.71,-13.34 92,-19.05 85.75,-21.47 79.94,-25.59 74.92,-30.08"/>
<polygon fill="black" stroke="black" points="72.34,-27.71 67.73,-37.25 77.28,-32.67 72.34,-27.71"/>
<text text-anchor="middle" x="103" y="-22.85" font-family="Arial" font-size="14.00">c, d</text>
</g>
</g>
</svg>
