<?xml version="1.0" encoding="UTF-8" standalone="no"?>
<!DOCTYPE svg PUBLIC "-//W3C//DTD SVG 1.1//EN"
 "http://www.w3.org/Graphics/SVG/1.1/DTD/svg11.dtd">
<!-- Generated by graphviz version 2.43.0 (0)
 -->
<!-- Title: wPlant2 Pages: 1 -->
<svg width="264pt" height="220pt"
 viewBox="0.00 0.00 263.79 219.90" xmlns="http://www.w3.org/2000/svg" xmlns:xlink="http://www.w3.org/1999/xlink">
<g id="graph0" class="graph" transform="scale(1 1) rotate(0) translate(4 215.9)">
<title>wPlant2</title>
<!-- dot_dummyinit_1 -->
<g id="node1" class="node">
<title>dot_dummyinit_1</title>
</g>
<!-- I -->
<g id="node2" class="node">
<title>I</title>
<ellipse fill="none" stroke="black" cx="60" cy="-103.45" rx="18" ry="18"/>
<ellipse fill="none" stroke="black" cx="60" cy="-103.45" rx="22" ry="22"/>
<text text-anchor="middle" x="60" y="-99.75" font-family="Arial" font-size="14.00">I</text>
</g>
<!-- dot_dummyinit_1&#45;&gt;I -->
<g id="edge1" class="edge">
<title>dot_dummyinit_1&#45;&gt;I</title>
<path fill="none" stroke="black" d="M1.17,-103.45C2.72,-103.45 14.89,-103.45 27.67,-103.45"/>
<polygon fill="black" stroke="black" points="27.86,-106.95 37.86,-103.45 27.86,-99.95 27.86,-106.95"/>
</g>
<!-- A1 -->
<g id="node3" class="node">
<title>A1</title>
<ellipse fill="none" stroke="black" cx="147.45" cy="-183.45" rx="21.4" ry="21.4"/>
<text text-anchor="middle" x="147.45" y="-179.75" font-family="Arial" font-size="14.00">A1</text>
</g>
<!-- I&#45;&gt;A1 -->
<g id="edge2" class="edge">
<title>I&#45;&gt;A1</title>
<path fill="none" stroke="black" d="M75.88,-119.34C83.03,-126.81 91.8,-135.74 100,-143.45 107.17,-150.19 115.23,-157.29 122.59,-163.6"/>
<polygon fill="black" stroke="black" points="120.35,-166.28 130.24,-170.08 124.88,-160.95 120.35,-166.28"/>
<text text-anchor="middle" x="104" y="-153.25" font-family="Arial" font-size="14.00">a</text>
</g>
<!-- B1 -->
<g id="node5" class="node">
<title>B1</title>
<ellipse fill="none" stroke="black" cx="147.45" cy="-21.45" rx="21.4" ry="21.4"/>
<text text-anchor="middle" x="147.45" y="-17.75" font-family="Arial" font-size="14.00">B1</text>
</g>
<!-- I&#45;&gt;B1 -->
<g id="edge3" class="edge">
<title>I&#45;&gt;B1</title>
<path fill="none" stroke="black" d="M71.84,-84.73C78.9,-73.61 88.85,-59.71 100,-49.45 105.62,-44.28 112.34,-39.57 118.91,-35.55"/>
<polygon fill="black" stroke="black" points="120.72,-38.55 127.64,-30.53 117.22,-32.48 120.72,-38.55"/>
<text text-anchor="middle" x="104" y="-53.25" font-family="Arial" font-size="14.00">b</text>
</g>
<!-- A2 -->
<g id="node4" class="node">
<title>A2</title>
<ellipse fill="none" stroke="black" cx="234.34" cy="-157.45" rx="21.4" ry="21.4"/>
<text text-anchor="middle" x="234.34" y="-153.75" font-family="Arial" font-size="14.00">A2</text>
</g>
<!-- A1&#45;&gt;A2 -->
<g id="edge4" class="edge">
<title>A1&#45;&gt;A2</title>
<path fill="none" stroke="black" d="M168.14,-177.42C178.67,-174.19 191.86,-170.15 203.61,-166.55"/>
<polygon fill="black" stroke="black" points="204.93,-169.81 213.47,-163.54 202.88,-163.12 204.93,-169.81"/>
<text text-anchor="middle" x="190.9" y="-174.25" font-family="Arial" font-size="14.00">c</text>
</g>
<!-- A2&#45;&gt;I -->
<g id="edge6" class="edge">
<title>A2&#45;&gt;I</title>
<path fill="none" stroke="black" d="M213.63,-151.27C183.56,-141.85 126.03,-123.82 90.83,-112.79"/>
<polygon fill="black" stroke="black" points="91.7,-109.4 81.11,-109.75 89.6,-116.08 91.7,-109.4"/>
<text text-anchor="middle" x="147.45" y="-140.25" font-family="Arial" font-size="14.00">f</text>
</g>
<!-- A2&#45;&gt;A2 -->
<g id="edge5" class="edge">
<title>A2&#45;&gt;A2</title>
<path fill="none" stroke="black" d="M226.7,-177.74C225.64,-187.87 228.19,-196.9 234.34,-196.9 238.29,-196.9 240.75,-193.19 241.73,-187.87"/>
<polygon fill="black" stroke="black" points="245.23,-187.83 241.99,-177.74 238.23,-187.65 245.23,-187.83"/>
<text text-anchor="middle" x="234.34" y="-200.7" font-family="Arial" font-size="14.00">c</text>
</g>
<!-- B2 -->
<g id="node6" class="node">
<title>B2</title>
<ellipse fill="none" stroke="black" cx="234.34" cy="-44.45" rx="21.4" ry="21.4"/>
<text text-anchor="middle" x="234.34" y="-40.75" font-family="Arial" font-size="14.00">B2</text>
</g>
<!-- B1&#45;&gt;B2 -->
<g id="edge7" class="edge">
<title>B1&#45;&gt;B2</title>
<path fill="none" stroke="black" d="M168.57,-26.9C179.03,-29.73 192.03,-33.26 203.63,-36.4"/>
<polygon fill="black" stroke="black" points="202.8,-39.8 213.37,-39.04 204.63,-33.04 202.8,-39.8"/>
<text text-anchor="middle" x="190.9" y="-38.25" font-family="Arial" font-size="14.00">d</text>
</g>
<!-- B2&#45;&gt;I -->
<g id="edge9" class="edge">
<title>B2&#45;&gt;I</title>
<path fill="none" stroke="black" d="M213.89,-51.11C183.91,-61.37 126.16,-81.14 90.86,-93.23"/>
<polygon fill="black" stroke="black" points="89.43,-90.01 81.11,-96.56 91.7,-96.64 89.43,-90.01"/>
<text text-anchor="middle" x="147.45" y="-84.25" font-family="Arial" font-size="14.00">f</text>
</g>
<!-- B2&#45;&gt;B2 -->
<g id="edge8" class="edge">
<title>B2&#45;&gt;B2</title>
<path fill="none" stroke="black" d="M226.7,-64.74C225.64,-74.87 228.19,-83.9 234.34,-83.9 238.29,-83.9 240.75,-80.19 241.73,-74.87"/>
<polygon fill="black" stroke="black" points="245.23,-74.83 241.99,-64.74 238.23,-74.65 245.23,-74.83"/>
<text text-anchor="middle" x="234.34" y="-87.7" font-family="Arial" font-size="14.00">d</text>
</g>
</g>
</svg>
