<?xml version="1.0" encoding="UTF-8" standalone="no"?>
<!DOCTYPE svg PUBLIC "-//W3C//DTD SVG 1.1//EN"
 "http://www.w3.org/Graphics/SVG/1.1/DTD/svg11.dtd">
<!-- Generated by graphviz version 12.2.1 (20241206.2353)
 -->
<!-- Title: SupConCmpl(A&#45;B&#45;Machine, PrefixClosure(A&#45;B&#45;Spec&#45;Alternate.x.A&#45;B&#45;Machine)) [minstate] Pages: 1 -->
<svg width="416pt" height="144pt"
 viewBox="0.00 0.00 415.72 144.00" xmlns="http://www.w3.org/2000/svg" xmlns:xlink="http://www.w3.org/1999/xlink">
<g id="graph0" class="graph" transform="scale(1 1) rotate(0) translate(4 140)">
<title>SupConCmpl(A&#45;B&#45;Machine, PrefixClosure(A&#45;B&#45;Spec&#45;Alternate.x.A&#45;B&#45;Machine)) [minstate]</title>
<!-- dot_dummyinit_1 -->
<g id="node1" class="node">
<title>dot_dummyinit_1</title>
</g>
<!-- 1 -->
<g id="node2" class="node">
<title>1</title>
<ellipse fill="none" stroke="black" cx="59.72" cy="-22" rx="18" ry="18"/>
<ellipse fill="none" stroke="black" cx="59.72" cy="-22" rx="22" ry="22"/>
<text text-anchor="middle" x="59.72" y="-16.57" font-family="Arial" font-size="14.00">1</text>
</g>
<!-- dot_dummyinit_1&#45;&gt;1 -->
<g id="edge1" class="edge">
<title>dot_dummyinit_1&#45;&gt;1</title>
<path fill="none" stroke="black" d="M0.89,-22C2.38,-22 13.74,-22 26,-22"/>
<polygon fill="black" stroke="black" points="25.74,-25.5 35.74,-22 25.74,-18.5 25.74,-25.5"/>
</g>
<!-- 6 -->
<g id="node7" class="node">
<title>6</title>
<ellipse fill="none" stroke="black" cx="143.22" cy="-69" rx="18" ry="18"/>
<text text-anchor="middle" x="143.22" y="-63.58" font-family="Arial" font-size="14.00">6</text>
</g>
<!-- 1&#45;&gt;6 -->
<g id="edge2" class="edge">
<title>1&#45;&gt;6</title>
<path fill="none" stroke="black" d="M79.21,-32.67C90.51,-39.18 105.11,-47.6 117.41,-54.69"/>
<polygon fill="black" stroke="black" points="115.35,-57.54 125.76,-59.51 118.85,-51.48 115.35,-57.54"/>
<text text-anchor="middle" x="103.47" y="-50.76" font-family="Arial" font-size="14.00">a</text>
</g>
<!-- 3 -->
<g id="node3" class="node">
<title>3</title>
<ellipse fill="none" stroke="black" cx="226.72" cy="-56" rx="18" ry="18"/>
<ellipse fill="none" stroke="black" cx="226.72" cy="-56" rx="22" ry="22"/>
<text text-anchor="middle" x="226.72" y="-50.58" font-family="Arial" font-size="14.00">3</text>
</g>
<!-- 2 -->
<g id="node4" class="node">
<title>2</title>
<ellipse fill="none" stroke="black" cx="310.22" cy="-22" rx="18" ry="18"/>
<text text-anchor="middle" x="310.22" y="-16.57" font-family="Arial" font-size="14.00">2</text>
</g>
<!-- 3&#45;&gt;2 -->
<g id="edge5" class="edge">
<title>3&#45;&gt;2</title>
<path fill="none" stroke="black" d="M247.45,-47.77C258.09,-43.33 271.36,-37.79 282.87,-32.99"/>
<polygon fill="black" stroke="black" points="283.95,-36.34 291.83,-29.26 281.25,-29.88 283.95,-36.34"/>
<text text-anchor="middle" x="270.47" y="-41.45" font-family="Arial" font-size="14.00">b</text>
</g>
<!-- 2&#45;&gt;1 -->
<g id="edge3" class="edge">
<title>2&#45;&gt;1</title>
<path fill="none" stroke="black" d="M291.8,-22C250.62,-22 146.72,-22 93.39,-22"/>
<polygon fill="black" stroke="black" points="93.42,-18.5 83.42,-22 93.42,-25.5 93.42,-18.5"/>
<text text-anchor="middle" x="182.97" y="-24.45" font-family="Arial" font-size="14.00">c</text>
</g>
<!-- 5 -->
<g id="node6" class="node">
<title>5</title>
<ellipse fill="none" stroke="black" cx="389.72" cy="-22" rx="18" ry="18"/>
<text text-anchor="middle" x="389.72" y="-16.57" font-family="Arial" font-size="14.00">5</text>
</g>
<!-- 2&#45;&gt;5 -->
<g id="edge4" class="edge">
<title>2&#45;&gt;5</title>
<path fill="none" stroke="black" d="M328.42,-22C337.69,-22 349.36,-22 359.97,-22"/>
<polygon fill="black" stroke="black" points="359.79,-25.5 369.79,-22 359.79,-18.5 359.79,-25.5"/>
<text text-anchor="middle" x="349.97" y="-24.45" font-family="Arial" font-size="14.00">d</text>
</g>
<!-- 4 -->
<g id="node5" class="node">
<title>4</title>
<ellipse fill="none" stroke="black" cx="226.72" cy="-118" rx="18" ry="18"/>
<text text-anchor="middle" x="226.72" y="-112.58" font-family="Arial" font-size="14.00">4</text>
</g>
<!-- 4&#45;&gt;6 -->
<g id="edge6" class="edge">
<title>4&#45;&gt;6</title>
<path fill="none" stroke="black" d="M212.54,-106.75C205.22,-100.81 195.79,-93.67 186.72,-88.25 181.64,-85.21 175.99,-82.34 170.51,-79.79"/>
<polygon fill="black" stroke="black" points="172.34,-76.77 161.78,-75.92 169.51,-83.17 172.34,-76.77"/>
<text text-anchor="middle" x="182.97" y="-90.7" font-family="Arial" font-size="14.00">a</text>
</g>
<!-- 5&#45;&gt;2 -->
<g id="edge7" class="edge">
<title>5&#45;&gt;2</title>
<path fill="none" stroke="black" d="M374.46,-11.75C368.38,-7.98 361.01,-4.16 353.72,-2.25 347.17,-0.53 340.38,-2.02 334.2,-4.81"/>
<polygon fill="black" stroke="black" points="332.75,-1.61 325.85,-9.65 336.26,-7.67 332.75,-1.61"/>
<text text-anchor="middle" x="349.97" y="-4.7" font-family="Arial" font-size="14.00">b</text>
</g>
<!-- 6&#45;&gt;3 -->
<g id="edge8" class="edge">
<title>6&#45;&gt;3</title>
<path fill="none" stroke="black" d="M158.48,-58.75C164.56,-54.98 171.93,-51.16 179.22,-49.25 184.15,-47.96 189.44,-47.69 194.62,-48.04"/>
<polygon fill="black" stroke="black" points="193.72,-51.45 204.11,-49.38 194.7,-44.52 193.72,-51.45"/>
<text text-anchor="middle" x="182.97" y="-51.7" font-family="Arial" font-size="14.00">c</text>
</g>
<!-- 6&#45;&gt;4 -->
<g id="edge9" class="edge">
<title>6&#45;&gt;4</title>
<path fill="none" stroke="black" d="M155.25,-82.96C161.58,-90.15 170.07,-98.53 179.22,-104 184.83,-107.35 191.3,-109.96 197.6,-111.96"/>
<polygon fill="black" stroke="black" points="196.51,-115.29 207.08,-114.55 198.35,-108.54 196.51,-115.29"/>
<text text-anchor="middle" x="182.97" y="-110.09" font-family="Arial" font-size="14.00">d</text>
</g>
</g>
</svg>
