<?xml version="1.0" encoding="UTF-8" standalone="no"?>
<!DOCTYPE svg PUBLIC "-//W3C//DTD SVG 1.1//EN"
 "http://www.w3.org/Graphics/SVG/1.1/DTD/svg11.dtd">
<!-- Generated by graphviz version 12.2.1 (20241206.2353)
 -->
<!-- Title: A&#45;B&#45;Machine&#45;B&#45;Exhausts Pages: 1 -->
<svg width="590pt" height="97pt"
 viewBox="0.00 0.00 590.47 96.86" xmlns="http://www.w3.org/2000/svg" xmlns:xlink="http://www.w3.org/1999/xlink">
<g id="graph0" class="graph" transform="scale(1 1) rotate(0) translate(4 92.86)">
<title>A&#45;B&#45;Machine&#45;B&#45;Exhausts</title>
<!-- dot_dummyinit_1 -->
<g id="node1" class="node">
<title>dot_dummyinit_1</title>
</g>
<!-- I -->
<g id="node2" class="node">
<title>I</title>
<path fill="none" stroke="black" d="M79.72,-36C79.72,-36 49.72,-36 49.72,-36 43.72,-36 37.72,-30 37.72,-24 37.72,-24 37.72,-12 37.72,-12 37.72,-6 43.72,0 49.72,0 49.72,0 79.72,0 79.72,0 85.72,0 91.72,-6 91.72,-12 91.72,-12 91.72,-24 91.72,-24 91.72,-30 85.72,-36 79.72,-36"/>
<text text-anchor="start" x="54.85" y="-12.57" font-family="Arial" font-size="14.00">I</text>
<polygon fill="black" stroke="none" points="68.6,-8.12 68.6,-27.88 76.6,-27.88 76.6,-8.12 68.6,-8.12"/>
</g>
<!-- dot_dummyinit_1&#45;&gt;I -->
<g id="edge1" class="edge">
<title>dot_dummyinit_1&#45;&gt;I</title>
<path fill="none" stroke="black" d="M0.77,-18C1.57,-18 12.96,-18 25.83,-18"/>
<polygon fill="black" stroke="black" points="25.79,-21.5 35.79,-18 25.79,-14.5 25.79,-21.5"/>
</g>
<!-- A -->
<g id="node4" class="node">
<title>A</title>
<path fill="none" stroke="black" d="M177.22,-75C177.22,-75 147.22,-75 147.22,-75 141.22,-75 135.22,-69 135.22,-63 135.22,-63 135.22,-51 135.22,-51 135.22,-45 141.22,-39 147.22,-39 147.22,-39 177.22,-39 177.22,-39 183.22,-39 189.22,-45 189.22,-51 189.22,-51 189.22,-63 189.22,-63 189.22,-69 183.22,-75 177.22,-75"/>
<text text-anchor="middle" x="162.22" y="-51.58" font-family="Arial" font-size="14.00">A</text>
</g>
<!-- I&#45;&gt;A -->
<g id="edge2" class="edge">
<title>I&#45;&gt;A</title>
<path fill="none" stroke="black" d="M92.07,-28.76C102.09,-32.85 113.7,-37.59 124.5,-42.01"/>
<polygon fill="black" stroke="black" points="122.98,-45.16 133.56,-45.7 125.62,-38.68 122.98,-45.16"/>
<text text-anchor="middle" x="113.47" y="-41.12" font-family="Arial" font-size="14.00">a</text>
</g>
<!-- B -->
<g id="node5" class="node">
<title>B</title>
<path fill="none" stroke="black" d="M372.22,-55C372.22,-55 342.22,-55 342.22,-55 336.22,-55 330.22,-49 330.22,-43 330.22,-43 330.22,-31 330.22,-31 330.22,-25 336.22,-19 342.22,-19 342.22,-19 372.22,-19 372.22,-19 378.22,-19 384.22,-25 384.22,-31 384.22,-31 384.22,-43 384.22,-43 384.22,-49 378.22,-55 372.22,-55"/>
<text text-anchor="middle" x="357.22" y="-31.57" font-family="Arial" font-size="14.00">B</text>
</g>
<!-- I&#45;&gt;B -->
<g id="edge3" class="edge">
<title>I&#45;&gt;B</title>
<path fill="none" stroke="black" d="M91.96,-12.83C133.76,-5.53 217.75,5.29 286.72,-10 297.6,-12.41 309.02,-16.26 319.39,-20.3"/>
<polygon fill="black" stroke="black" points="317.77,-23.41 328.35,-23.95 320.41,-16.93 317.77,-23.41"/>
<text text-anchor="middle" x="210.97" y="-4.74" font-family="Arial" font-size="14.00">b</text>
</g>
<!-- XB -->
<g id="node3" class="node">
<title>XB</title>
<path fill="none" stroke="black" d="M472.97,-86C472.97,-86 438.97,-86 438.97,-86 432.97,-86 426.97,-80 426.97,-74 426.97,-74 426.97,-62 426.97,-62 426.97,-56 432.97,-50 438.97,-50 438.97,-50 472.97,-50 472.97,-50 478.97,-50 484.97,-56 484.97,-62 484.97,-62 484.97,-74 484.97,-74 484.97,-80 478.97,-86 472.97,-86"/>
<text text-anchor="start" x="438.97" y="-62.58" font-family="Arial" font-size="14.00">XB</text>
<polygon fill="black" stroke="none" points="466.97,-58.12 466.97,-77.88 474.97,-77.88 474.97,-58.12 466.97,-58.12"/>
</g>
<!-- XB&#45;&gt;A -->
<g id="edge10" class="edge">
<title>XB&#45;&gt;A</title>
<path fill="none" stroke="black" d="M426.78,-70.84C420.9,-71.32 414.74,-71.75 408.97,-72 405.97,-72.13 405.22,-72.04 402.22,-72 315.53,-70.89 293.24,-77.77 207.22,-67 205.06,-66.73 202.86,-66.4 200.64,-66.03"/>
<polygon fill="black" stroke="black" points="201.56,-62.64 191.08,-64.17 200.23,-69.52 201.56,-62.64"/>
<text text-anchor="middle" x="308.47" y="-75.56" font-family="Arial" font-size="14.00">a</text>
</g>
<!-- FB -->
<g id="node7" class="node">
<title>FB</title>
<path fill="none" stroke="black" d="M570.47,-86C570.47,-86 540.47,-86 540.47,-86 534.47,-86 528.47,-80 528.47,-74 528.47,-74 528.47,-62 528.47,-62 528.47,-56 534.47,-50 540.47,-50 540.47,-50 570.47,-50 570.47,-50 576.47,-50 582.47,-56 582.47,-62 582.47,-62 582.47,-74 582.47,-74 582.47,-80 576.47,-86 570.47,-86"/>
<text text-anchor="middle" x="555.47" y="-62.58" font-family="Arial" font-size="14.00">FB</text>
</g>
<!-- XB&#45;&gt;FB -->
<g id="edge11" class="edge">
<title>XB&#45;&gt;FB</title>
<path fill="none" stroke="black" d="M485.43,-68C495.23,-68 506.37,-68 516.79,-68"/>
<polygon fill="black" stroke="black" points="516.63,-71.5 526.63,-68 516.63,-64.5 516.63,-71.5"/>
<text text-anchor="middle" x="506.72" y="-70.45" font-family="Arial" font-size="14.00">b</text>
</g>
<!-- A&#45;&gt;I -->
<g id="edge4" class="edge">
<title>A&#45;&gt;I</title>
<path fill="none" stroke="black" d="M147.01,-38.58C139.25,-30.05 128.85,-20.81 117.22,-16.25 112.82,-14.52 108.03,-13.59 103.22,-13.18"/>
<polygon fill="black" stroke="black" points="103.62,-9.69 93.6,-13.11 103.57,-16.69 103.62,-9.69"/>
<text text-anchor="middle" x="113.47" y="-18.7" font-family="Arial" font-size="14.00">c</text>
</g>
<!-- FA -->
<g id="node6" class="node">
<title>FA</title>
<path fill="none" stroke="black" d="M274.72,-55C274.72,-55 244.72,-55 244.72,-55 238.72,-55 232.72,-49 232.72,-43 232.72,-43 232.72,-31 232.72,-31 232.72,-25 238.72,-19 244.72,-19 244.72,-19 274.72,-19 274.72,-19 280.72,-19 286.72,-25 286.72,-31 286.72,-31 286.72,-43 286.72,-43 286.72,-49 280.72,-55 274.72,-55"/>
<text text-anchor="middle" x="259.72" y="-31.57" font-family="Arial" font-size="14.00">FA</text>
</g>
<!-- A&#45;&gt;FA -->
<g id="edge5" class="edge">
<title>A&#45;&gt;FA</title>
<path fill="none" stroke="black" d="M189.57,-51.48C199.38,-49.43 210.71,-47.05 221.33,-44.83"/>
<polygon fill="black" stroke="black" points="221.91,-48.29 230.98,-42.81 220.47,-41.43 221.91,-48.29"/>
<text text-anchor="middle" x="210.97" y="-50.05" font-family="Arial" font-size="14.00">d</text>
</g>
<!-- B&#45;&gt;XB -->
<g id="edge6" class="edge">
<title>B&#45;&gt;XB</title>
<path fill="none" stroke="black" d="M384.66,-45.47C394.29,-48.56 405.4,-52.12 415.9,-55.48"/>
<polygon fill="black" stroke="black" points="414.5,-58.71 425.09,-58.43 416.63,-52.04 414.5,-58.71"/>
<text text-anchor="middle" x="405.6" y="-54.95" font-family="Arial" font-size="14.00">c</text>
</g>
<!-- FA&#45;&gt;A -->
<g id="edge7" class="edge">
<title>FA&#45;&gt;A</title>
<path fill="none" stroke="black" d="M232.26,-26.31C224.14,-24.41 215.24,-23.73 207.22,-26.25 202.39,-27.77 197.63,-30.03 193.12,-32.65"/>
<polygon fill="black" stroke="black" points="191.45,-29.56 185.01,-37.97 195.29,-35.41 191.45,-29.56"/>
<text text-anchor="middle" x="210.97" y="-28.7" font-family="Arial" font-size="14.00">a</text>
</g>
<!-- FA&#45;&gt;B -->
<g id="edge8" class="edge">
<title>FA&#45;&gt;B</title>
<path fill="none" stroke="black" d="M287.07,-37C296.78,-37 307.97,-37 318.49,-37"/>
<polygon fill="black" stroke="black" points="318.44,-40.5 328.44,-37 318.44,-33.5 318.44,-40.5"/>
<text text-anchor="middle" x="308.47" y="-39.45" font-family="Arial" font-size="14.00">b</text>
</g>
<!-- FB&#45;&gt;XB -->
<g id="edge9" class="edge">
<title>FB&#45;&gt;XB</title>
<path fill="none" stroke="black" d="M527.98,-55.42C522.32,-53.28 516.29,-51.38 510.47,-50.25 505.77,-49.34 500.91,-49.42 496.13,-50.16"/>
<polygon fill="black" stroke="black" points="495.53,-46.7 486.67,-52.52 497.22,-53.49 495.53,-46.7"/>
<text text-anchor="middle" x="506.72" y="-52.7" font-family="Arial" font-size="14.00">d</text>
</g>
</g>
</svg>
