<?xml version="1.0" encoding="UTF-8" standalone="no"?>
<!DOCTYPE svg PUBLIC "-//W3C//DTD SVG 1.1//EN"
 "http://www.w3.org/Graphics/SVG/1.1/DTD/svg11.dtd">
<!-- Generated by graphviz version 2.43.0 (0)
 -->
<!-- Title: SupConCmpl(A&#45;B&#45;Machine&#45;B&#45;Exhausts, PrefixClosure(A&#45;B&#45;Spec&#45;Alternate.x.A&#45;B&#45;Machine&#45;B&#45;Exhausts)) [minstate] Pages: 1 -->
<svg width="338pt" height="147pt"
 viewBox="0.00 0.00 338.00 147.00" xmlns="http://www.w3.org/2000/svg" xmlns:xlink="http://www.w3.org/1999/xlink">
<g id="graph0" class="graph" transform="scale(1 1) rotate(0) translate(4 143)">
<title>SupConCmpl(A&#45;B&#45;Machine&#45;B&#45;Exhausts, PrefixClosure(A&#45;B&#45;Spec&#45;Alternate.x.A&#45;B&#45;Machine&#45;B&#45;Exhausts)) [minstate]</title>
<!-- dot_dummyinit_1 -->
<g id="node1" class="node">
<title>dot_dummyinit_1</title>
</g>
<!-- 1 -->
<g id="node2" class="node">
<title>1</title>
<ellipse fill="none" stroke="black" cx="60" cy="-22" rx="18" ry="18"/>
<ellipse fill="none" stroke="black" cx="60" cy="-22" rx="22" ry="22"/>
<text text-anchor="middle" x="60" y="-18.3" font-family="Arial" font-size="14.00">1</text>
</g>
<!-- dot_dummyinit_1&#45;&gt;1 -->
<g id="edge1" class="edge">
<title>dot_dummyinit_1&#45;&gt;1</title>
<path fill="none" stroke="black" d="M1.17,-22C2.72,-22 14.89,-22 27.67,-22"/>
<polygon fill="black" stroke="black" points="27.86,-25.5 37.86,-22 27.86,-18.5 27.86,-25.5"/>
</g>
<!-- 2 -->
<g id="node4" class="node">
<title>2</title>
<ellipse fill="none" stroke="black" cx="144" cy="-67" rx="18" ry="18"/>
<text text-anchor="middle" x="144" y="-63.3" font-family="Arial" font-size="14.00">2</text>
</g>
<!-- 1&#45;&gt;2 -->
<g id="edge2" class="edge">
<title>1&#45;&gt;2</title>
<path fill="none" stroke="black" d="M79.61,-32.21C91.2,-38.58 106.25,-46.83 118.77,-53.71"/>
<polygon fill="black" stroke="black" points="117.31,-56.89 127.76,-58.64 120.68,-50.76 117.31,-56.89"/>
<text text-anchor="middle" x="104" y="-50.8" font-family="Arial" font-size="14.00">a</text>
</g>
<!-- 3 -->
<g id="node3" class="node">
<title>3</title>
<ellipse fill="none" stroke="black" cx="228" cy="-117" rx="18" ry="18"/>
<ellipse fill="none" stroke="black" cx="228" cy="-117" rx="22" ry="22"/>
<text text-anchor="middle" x="228" y="-113.3" font-family="Arial" font-size="14.00">3</text>
</g>
<!-- 5 -->
<g id="node6" class="node">
<title>5</title>
<ellipse fill="none" stroke="black" cx="312" cy="-22" rx="18" ry="18"/>
<text text-anchor="middle" x="312" y="-18.3" font-family="Arial" font-size="14.00">5</text>
</g>
<!-- 3&#45;&gt;5 -->
<g id="edge5" class="edge">
<title>3&#45;&gt;5</title>
<path fill="none" stroke="black" d="M243.28,-100.45C257.01,-84.55 277.8,-60.46 292.72,-43.17"/>
<polygon fill="black" stroke="black" points="295.64,-45.15 299.52,-35.3 290.34,-40.58 295.64,-45.15"/>
<text text-anchor="middle" x="272" y="-72.8" font-family="Arial" font-size="14.00">b</text>
</g>
<!-- 2&#45;&gt;3 -->
<g id="edge3" class="edge">
<title>2&#45;&gt;3</title>
<path fill="none" stroke="black" d="M159.66,-75.94C170.81,-82.74 186.48,-92.29 199.89,-100.47"/>
<polygon fill="black" stroke="black" points="198.38,-103.65 208.74,-105.86 202.02,-97.67 198.38,-103.65"/>
<text text-anchor="middle" x="184" y="-95.8" font-family="Arial" font-size="14.00">c</text>
</g>
<!-- 4 -->
<g id="node5" class="node">
<title>4</title>
<ellipse fill="none" stroke="black" cx="228" cy="-57" rx="18" ry="18"/>
<text text-anchor="middle" x="228" y="-53.3" font-family="Arial" font-size="14.00">4</text>
</g>
<!-- 2&#45;&gt;4 -->
<g id="edge4" class="edge">
<title>2&#45;&gt;4</title>
<path fill="none" stroke="black" d="M161.99,-64.93C172.99,-63.59 187.54,-61.81 200.08,-60.28"/>
<polygon fill="black" stroke="black" points="200.53,-63.75 210.03,-59.07 199.68,-56.81 200.53,-63.75"/>
<text text-anchor="middle" x="184" y="-65.8" font-family="Arial" font-size="14.00">d</text>
</g>
<!-- 4&#45;&gt;2 -->
<g id="edge6" class="edge">
<title>4&#45;&gt;2</title>
<path fill="none" stroke="black" d="M212.16,-47.99C202.9,-43.5 190.73,-39.67 180,-43 175.24,-44.48 170.55,-46.85 166.22,-49.54"/>
<polygon fill="black" stroke="black" points="164.14,-46.73 157.95,-55.33 168.15,-52.46 164.14,-46.73"/>
<text text-anchor="middle" x="184" y="-46.8" font-family="Arial" font-size="14.00">a</text>
</g>
<!-- 5&#45;&gt;1 -->
<g id="edge7" class="edge">
<title>5&#45;&gt;1</title>
<path fill="none" stroke="black" d="M293.8,-22C252.26,-22 145.92,-22 92.55,-22"/>
<polygon fill="black" stroke="black" points="92.31,-18.5 82.31,-22 92.31,-25.5 92.31,-18.5"/>
<text text-anchor="middle" x="184" y="-25.8" font-family="Arial" font-size="14.00">c</text>
</g>
</g>
</svg>
