<?xml version="1.0" encoding="UTF-8" standalone="no"?>
<!DOCTYPE svg PUBLIC "-//W3C//DTD SVG 1.1//EN"
 "http://www.w3.org/Graphics/SVG/1.1/DTD/svg11.dtd">
<!-- Generated by graphviz version 12.2.1 (20241206.2353)
 -->
<!-- Title: wPlant3 Pages: 1 -->
<svg width="490pt" height="114pt"
 viewBox="0.00 0.00 489.72 113.55" xmlns="http://www.w3.org/2000/svg" xmlns:xlink="http://www.w3.org/1999/xlink">
<g id="graph0" class="graph" transform="scale(1 1) rotate(0) translate(4 109.55)">
<title>wPlant3</title>
<!-- dot_dummyinit_1 -->
<g id="node1" class="node">
<title>dot_dummyinit_1</title>
</g>
<!-- I -->
<g id="node2" class="node">
<title>I</title>
<path fill="none" stroke="black" d="M79.72,-69C79.72,-69 49.72,-69 49.72,-69 43.72,-69 37.72,-63 37.72,-57 37.72,-57 37.72,-45 37.72,-45 37.72,-39 43.72,-33 49.72,-33 49.72,-33 79.72,-33 79.72,-33 85.72,-33 91.72,-39 91.72,-45 91.72,-45 91.72,-57 91.72,-57 91.72,-63 85.72,-69 79.72,-69"/>
<text text-anchor="start" x="54.85" y="-45.58" font-family="Arial" font-size="14.00">I</text>
<polygon fill="black" stroke="none" points="68.6,-41.12 68.6,-60.88 76.6,-60.88 76.6,-41.12 68.6,-41.12"/>
</g>
<!-- dot_dummyinit_1&#45;&gt;I -->
<g id="edge1" class="edge">
<title>dot_dummyinit_1&#45;&gt;I</title>
<path fill="none" stroke="black" d="M0.77,-51C1.57,-51 12.96,-51 25.83,-51"/>
<polygon fill="black" stroke="black" points="25.79,-54.5 35.79,-51 25.79,-47.5 25.79,-54.5"/>
</g>
<!-- A -->
<g id="node3" class="node">
<title>A</title>
<path fill="none" stroke="black" d="M177.22,-102C177.22,-102 147.22,-102 147.22,-102 141.22,-102 135.22,-96 135.22,-90 135.22,-90 135.22,-78 135.22,-78 135.22,-72 141.22,-66 147.22,-66 147.22,-66 177.22,-66 177.22,-66 183.22,-66 189.22,-72 189.22,-78 189.22,-78 189.22,-90 189.22,-90 189.22,-96 183.22,-102 177.22,-102"/>
<text text-anchor="start" x="149.72" y="-78.58" font-family="Arial" font-size="14.00">A</text>
<polygon fill="black" stroke="none" points="168.72,-74.12 168.72,-93.88 176.72,-93.88 176.72,-74.12 168.72,-74.12"/>
</g>
<!-- I&#45;&gt;A -->
<g id="edge2" class="edge">
<title>I&#45;&gt;A</title>
<path fill="none" stroke="black" d="M81.85,-69.32C89.48,-76.61 99.22,-84.17 109.72,-88 114.17,-89.62 118.99,-90.41 123.82,-90.63"/>
<polygon fill="black" stroke="black" points="123.58,-94.14 133.45,-90.3 123.34,-87.14 123.58,-94.14"/>
<text text-anchor="middle" x="113.47" y="-92.25" font-family="Arial" font-size="14.00">a</text>
</g>
<!-- B -->
<g id="node4" class="node">
<title>B</title>
<path fill="none" stroke="black" d="M177.22,-36C177.22,-36 147.22,-36 147.22,-36 141.22,-36 135.22,-30 135.22,-24 135.22,-24 135.22,-12 135.22,-12 135.22,-6 141.22,0 147.22,0 147.22,0 177.22,0 177.22,0 183.22,0 189.22,-6 189.22,-12 189.22,-12 189.22,-24 189.22,-24 189.22,-30 183.22,-36 177.22,-36"/>
<text text-anchor="start" x="149.72" y="-12.57" font-family="Arial" font-size="14.00">B</text>
<polygon fill="black" stroke="none" points="168.72,-8.12 168.72,-27.88 176.72,-27.88 176.72,-8.12 168.72,-8.12"/>
</g>
<!-- I&#45;&gt;B -->
<g id="edge3" class="edge">
<title>I&#45;&gt;B</title>
<path fill="none" stroke="black" d="M92.09,-39.89C97.86,-37.59 103.96,-35.26 109.72,-33.25 114.28,-31.66 119.09,-30.09 123.88,-28.6"/>
<polygon fill="black" stroke="black" points="124.86,-31.96 133.42,-25.72 122.83,-25.26 124.86,-31.96"/>
<text text-anchor="middle" x="113.47" y="-35.7" font-family="Arial" font-size="14.00">b</text>
</g>
<!-- A&#45;&gt;I -->
<g id="edge4" class="edge">
<title>A&#45;&gt;I</title>
<path fill="none" stroke="black" d="M134.73,-74.42C128.96,-72.36 122.89,-70.22 117.22,-68.25 112.66,-66.67 107.86,-65.03 103.11,-63.42"/>
<polygon fill="black" stroke="black" points="104.25,-60.11 93.65,-60.24 102.02,-66.75 104.25,-60.11"/>
<text text-anchor="middle" x="113.47" y="-70.7" font-family="Arial" font-size="14.00">c</text>
</g>
<!-- Af -->
<g id="node7" class="node">
<title>Af</title>
<path fill="none" stroke="black" d="M274.72,-101C274.72,-101 244.72,-101 244.72,-101 238.72,-101 232.72,-95 232.72,-89 232.72,-89 232.72,-77 232.72,-77 232.72,-71 238.72,-65 244.72,-65 244.72,-65 274.72,-65 274.72,-65 280.72,-65 286.72,-71 286.72,-77 286.72,-77 286.72,-89 286.72,-89 286.72,-95 280.72,-101 274.72,-101"/>
<text text-anchor="middle" x="259.72" y="-77.58" font-family="Arial" font-size="14.00">Af</text>
</g>
<!-- A&#45;&gt;Af -->
<g id="edge5" class="edge">
<title>A&#45;&gt;Af</title>
<path fill="none" stroke="black" d="M189.57,-83.72C199.28,-83.62 210.47,-83.51 220.99,-83.4"/>
<polygon fill="black" stroke="black" points="220.98,-86.9 230.94,-83.29 220.91,-79.9 220.98,-86.9"/>
<text text-anchor="middle" x="210.97" y="-85.98" font-family="Arial" font-size="14.00">f</text>
</g>
<!-- B&#45;&gt;I -->
<g id="edge6" class="edge">
<title>B&#45;&gt;I</title>
<path fill="none" stroke="black" d="M134.96,-9.65C126.68,-8.31 117.63,-8.21 109.72,-11.25 101.93,-14.25 94.65,-19.34 88.35,-24.89"/>
<polygon fill="black" stroke="black" points="86.23,-22.07 81.5,-31.55 91.11,-27.1 86.23,-22.07"/>
<text text-anchor="middle" x="113.47" y="-13.7" font-family="Arial" font-size="14.00">c</text>
</g>
<!-- Bf -->
<g id="node5" class="node">
<title>Bf</title>
<path fill="none" stroke="black" d="M469.72,-101C469.72,-101 439.72,-101 439.72,-101 433.72,-101 427.72,-95 427.72,-89 427.72,-89 427.72,-77 427.72,-77 427.72,-71 433.72,-65 439.72,-65 439.72,-65 469.72,-65 469.72,-65 475.72,-65 481.72,-71 481.72,-77 481.72,-77 481.72,-89 481.72,-89 481.72,-95 475.72,-101 469.72,-101"/>
<text text-anchor="start" x="440.35" y="-77.58" font-family="Arial" font-size="14.00">Bf</text>
<polygon fill="black" stroke="none" points="463.1,-73.12 463.1,-92.88 471.1,-92.88 471.1,-73.12 463.1,-73.12"/>
</g>
<!-- If -->
<g id="node6" class="node">
<title>If</title>
<path fill="none" stroke="black" d="M372.22,-101C372.22,-101 342.22,-101 342.22,-101 336.22,-101 330.22,-95 330.22,-89 330.22,-89 330.22,-77 330.22,-77 330.22,-71 336.22,-65 342.22,-65 342.22,-65 372.22,-65 372.22,-65 378.22,-65 384.22,-71 384.22,-77 384.22,-77 384.22,-89 384.22,-89 384.22,-95 378.22,-101 372.22,-101"/>
<text text-anchor="middle" x="357.22" y="-77.58" font-family="Arial" font-size="14.00">If</text>
</g>
<!-- Bf&#45;&gt;If -->
<g id="edge11" class="edge">
<title>Bf&#45;&gt;If</title>
<path fill="none" stroke="black" d="M427.34,-69.01C421.67,-66.63 415.62,-64.51 409.72,-63.25 404.98,-62.23 400.1,-62.39 395.32,-63.3"/>
<polygon fill="black" stroke="black" points="394.48,-59.9 385.92,-66.14 396.5,-66.6 394.48,-59.9"/>
<text text-anchor="middle" x="405.97" y="-65.7" font-family="Arial" font-size="14.00">c</text>
</g>
<!-- If&#45;&gt;Bf -->
<g id="edge8" class="edge">
<title>If&#45;&gt;Bf</title>
<path fill="none" stroke="black" d="M384.57,-83C394.28,-83 405.47,-83 415.99,-83"/>
<polygon fill="black" stroke="black" points="415.94,-86.5 425.94,-83 415.94,-79.5 415.94,-86.5"/>
<text text-anchor="middle" x="405.97" y="-85.45" font-family="Arial" font-size="14.00">b</text>
</g>
<!-- If&#45;&gt;Af -->
<g id="edge7" class="edge">
<title>If&#45;&gt;Af</title>
<path fill="none" stroke="black" d="M329.73,-70.42C324.07,-68.28 318.04,-66.38 312.22,-65.25 307.52,-64.34 302.66,-64.48 297.9,-65.3"/>
<polygon fill="black" stroke="black" points="297.25,-61.85 288.52,-67.85 299.09,-68.6 297.25,-61.85"/>
<text text-anchor="middle" x="308.47" y="-67.7" font-family="Arial" font-size="14.00">a</text>
</g>
<!-- Af&#45;&gt;A -->
<g id="edge9" class="edge">
<title>Af&#45;&gt;A</title>
<path fill="none" stroke="black" d="M232.45,-66.48C224.49,-63.25 215.63,-61.37 207.22,-63.25 204.9,-63.77 202.56,-64.42 200.23,-65.18"/>
<polygon fill="black" stroke="black" points="199.02,-61.9 190.95,-68.77 201.54,-68.43 199.02,-61.9"/>
<text text-anchor="middle" x="210.97" y="-65.7" font-family="Arial" font-size="14.00">e</text>
</g>
<!-- Af&#45;&gt;If -->
<g id="edge10" class="edge">
<title>Af&#45;&gt;If</title>
<path fill="none" stroke="black" d="M287.07,-83C296.78,-83 307.97,-83 318.49,-83"/>
<polygon fill="black" stroke="black" points="318.44,-86.5 328.44,-83 318.44,-79.5 318.44,-86.5"/>
<text text-anchor="middle" x="308.47" y="-85.45" font-family="Arial" font-size="14.00">c</text>
</g>
</g>
</svg>
