<?xml version="1.0" encoding="UTF-8" standalone="no"?>
<!DOCTYPE svg PUBLIC "-//W3C//DTD SVG 1.1//EN"
 "http://www.w3.org/Graphics/SVG/1.1/DTD/svg11.dtd">
<!-- Generated by graphviz version 2.43.0 (0)
 -->
<!-- Title: SupConCmpl(A&#45;B&#45;Machine, PrefixClosure(A&#45;B&#45;Spec&#45;Keep&#45;Running.x.A&#45;B&#45;Machine)) [minstate] Pages: 1 -->
<svg width="280pt" height="52pt"
 viewBox="0.00 0.00 280.00 52.00" xmlns="http://www.w3.org/2000/svg" xmlns:xlink="http://www.w3.org/1999/xlink">
<g id="graph0" class="graph" transform="scale(1 1) rotate(0) translate(4 48)">
<title>SupConCmpl(A&#45;B&#45;Machine, PrefixClosure(A&#45;B&#45;Spec&#45;Keep&#45;Running.x.A&#45;B&#45;Machine)) [minstate]</title>
<!-- dot_dummyinit_1 -->
<g id="node1" class="node">
<title>dot_dummyinit_1</title>
</g>
<!-- 1 -->
<g id="node2" class="node">
<title>1</title>
<ellipse fill="none" stroke="black" cx="60" cy="-22" rx="18" ry="18"/>
<ellipse fill="none" stroke="black" cx="60" cy="-22" rx="22" ry="22"/>
<text text-anchor="middle" x="60" y="-18.3" font-family="Arial" font-size="14.00">1</text>
</g>
<!-- dot_dummyinit_1&#45;&gt;1 -->
<g id="edge1" class="edge">
<title>dot_dummyinit_1&#45;&gt;1</title>
<path fill="none" stroke="black" d="M1.17,-22C2.72,-22 14.89,-22 27.67,-22"/>
<polygon fill="black" stroke="black" points="27.86,-25.5 37.86,-22 27.86,-18.5 27.86,-25.5"/>
</g>
<!-- 3 -->
<g id="node4" class="node">
<title>3</title>
<ellipse fill="none" stroke="black" cx="159" cy="-22" rx="18" ry="18"/>
<text text-anchor="middle" x="159" y="-18.3" font-family="Arial" font-size="14.00">3</text>
</g>
<!-- 1&#45;&gt;3 -->
<g id="edge2" class="edge">
<title>1&#45;&gt;3</title>
<path fill="none" stroke="black" d="M82.05,-22C96.35,-22 115.41,-22 130.86,-22"/>
<polygon fill="black" stroke="black" points="130.87,-25.5 140.87,-22 130.87,-18.5 130.87,-25.5"/>
<text text-anchor="middle" x="111.5" y="-25.8" font-family="Arial" font-size="14.00">a, b</text>
</g>
<!-- 2 -->
<g id="node3" class="node">
<title>2</title>
<ellipse fill="none" stroke="black" cx="254" cy="-22" rx="18" ry="18"/>
<text text-anchor="middle" x="254" y="-18.3" font-family="Arial" font-size="14.00">2</text>
</g>
<!-- 2&#45;&gt;3 -->
<g id="edge3" class="edge">
<title>2&#45;&gt;3</title>
<path fill="none" stroke="black" d="M238.28,-12.46C232.25,-9.08 225.04,-5.7 218,-4 208.06,-1.59 204.94,-1.59 195,-4 191.26,-4.91 187.47,-6.28 183.84,-7.88"/>
<polygon fill="black" stroke="black" points="182.09,-4.85 174.72,-12.46 185.22,-11.1 182.09,-4.85"/>
<text text-anchor="middle" x="206.5" y="-7.8" font-family="Arial" font-size="14.00">a, b</text>
</g>
<!-- 3&#45;&gt;1 -->
<g id="edge4" class="edge">
<title>3&#45;&gt;1</title>
<path fill="none" stroke="black" d="M143.69,-12.13C137.6,-8.51 130.24,-4.84 123,-3 113.09,-0.48 109.96,-0.7 100,-3 96.26,-3.86 92.46,-5.14 88.77,-6.62"/>
<polygon fill="black" stroke="black" points="87.04,-3.57 79.4,-10.92 89.95,-9.93 87.04,-3.57"/>
<text text-anchor="middle" x="111.5" y="-6.8" font-family="Arial" font-size="14.00">c</text>
</g>
<!-- 3&#45;&gt;2 -->
<g id="edge5" class="edge">
<title>3&#45;&gt;2</title>
<path fill="none" stroke="black" d="M177.06,-22C190.61,-22 209.82,-22 225.53,-22"/>
<polygon fill="black" stroke="black" points="225.74,-25.5 235.74,-22 225.74,-18.5 225.74,-25.5"/>
<text text-anchor="middle" x="206.5" y="-25.8" font-family="Arial" font-size="14.00">d</text>
</g>
</g>
</svg>
