<?xml version="1.0" encoding="UTF-8" standalone="no"?>
<!DOCTYPE svg PUBLIC "-//W3C//DTD SVG 1.1//EN"
 "http://www.w3.org/Graphics/SVG/1.1/DTD/svg11.dtd">
<!-- Generated by graphviz version 12.2.1 (20241206.2353)
 -->
<!-- Title: wSpec2 Pages: 1 -->
<svg width="682pt" height="294pt"
 viewBox="0.00 0.00 682.22 293.75" xmlns="http://www.w3.org/2000/svg" xmlns:xlink="http://www.w3.org/1999/xlink">
<g id="graph0" class="graph" transform="scale(1 1) rotate(0) translate(4 289.75)">
<title>wSpec2</title>
<!-- dot_dummyinit_1 -->
<g id="node1" class="node">
<title>dot_dummyinit_1</title>
</g>
<!-- N -->
<g id="node2" class="node">
<title>N</title>
<path fill="none" stroke="black" d="M79.72,-222C79.72,-222 49.72,-222 49.72,-222 43.72,-222 37.72,-216 37.72,-210 37.72,-210 37.72,-198 37.72,-198 37.72,-192 43.72,-186 49.72,-186 49.72,-186 79.72,-186 79.72,-186 85.72,-186 91.72,-192 91.72,-198 91.72,-198 91.72,-210 91.72,-210 91.72,-216 85.72,-222 79.72,-222"/>
<text text-anchor="middle" x="64.72" y="-198.57" font-family="Arial" font-size="14.00">N</text>
</g>
<!-- dot_dummyinit_1&#45;&gt;N -->
<g id="edge1" class="edge">
<title>dot_dummyinit_1&#45;&gt;N</title>
<path fill="none" stroke="black" d="M0.77,-204C1.57,-204 12.96,-204 25.83,-204"/>
<polygon fill="black" stroke="black" points="25.79,-207.5 35.79,-204 25.79,-200.5 25.79,-207.5"/>
</g>
<!-- N&#45;&gt;N -->
<g id="edge2" class="edge">
<title>N&#45;&gt;N</title>
<path fill="none" stroke="black" d="M56.49,-222.15C55.22,-231.54 57.97,-240 64.72,-240 68.41,-240 70.91,-237.47 72.2,-233.64"/>
<polygon fill="black" stroke="black" points="75.7,-233.87 72.85,-223.66 68.71,-233.41 75.7,-233.87"/>
<text text-anchor="middle" x="64.72" y="-242.45" font-family="Arial" font-size="14.00">a, b</text>
</g>
<!-- C1 -->
<g id="node5" class="node">
<title>C1</title>
<path fill="none" stroke="black" d="M176.47,-81C176.47,-81 146.47,-81 146.47,-81 140.47,-81 134.47,-75 134.47,-69 134.47,-69 134.47,-57 134.47,-57 134.47,-51 140.47,-45 146.47,-45 146.47,-45 176.47,-45 176.47,-45 182.47,-45 188.47,-51 188.47,-57 188.47,-57 188.47,-69 188.47,-69 188.47,-75 182.47,-81 176.47,-81"/>
<text text-anchor="middle" x="161.47" y="-57.58" font-family="Arial" font-size="14.00">C1</text>
</g>
<!-- N&#45;&gt;C1 -->
<g id="edge3" class="edge">
<title>N&#45;&gt;C1</title>
<path fill="none" stroke="black" d="M78.11,-185.57C94.35,-161.39 122.99,-118.77 141.85,-90.7"/>
<polygon fill="black" stroke="black" points="144.56,-92.95 147.24,-82.69 138.75,-89.04 144.56,-92.95"/>
<text text-anchor="middle" x="113.1" y="-140.18" font-family="Arial" font-size="14.00">c</text>
</g>
<!-- D1 -->
<g id="node7" class="node">
<title>D1</title>
<path fill="none" stroke="black" d="M468.47,-232C468.47,-232 438.47,-232 438.47,-232 432.47,-232 426.47,-226 426.47,-220 426.47,-220 426.47,-208 426.47,-208 426.47,-202 432.47,-196 438.47,-196 438.47,-196 468.47,-196 468.47,-196 474.47,-196 480.47,-202 480.47,-208 480.47,-208 480.47,-220 480.47,-220 480.47,-226 474.47,-232 468.47,-232"/>
<text text-anchor="middle" x="453.47" y="-208.57" font-family="Arial" font-size="14.00">D1</text>
</g>
<!-- N&#45;&gt;D1 -->
<g id="edge4" class="edge">
<title>N&#45;&gt;D1</title>
<path fill="none" stroke="black" d="M79.97,-222.38C96.87,-241.91 126.99,-270 160.47,-270 160.47,-270 160.47,-270 356.97,-270 382.83,-270 407.89,-254.53 425.84,-239.85"/>
<polygon fill="black" stroke="black" points="428.12,-242.51 433.4,-233.33 423.55,-237.21 428.12,-242.51"/>
<text text-anchor="middle" x="260.6" y="-272.45" font-family="Arial" font-size="14.00">d</text>
</g>
<!-- C2 -->
<g id="node3" class="node">
<title>C2</title>
<path fill="none" stroke="black" d="M277.22,-137C277.22,-137 243.97,-137 243.97,-137 237.97,-137 231.97,-131 231.97,-125 231.97,-125 231.97,-113 231.97,-113 231.97,-107 237.97,-101 243.97,-101 243.97,-101 277.22,-101 277.22,-101 283.22,-101 289.22,-107 289.22,-113 289.22,-113 289.22,-125 289.22,-125 289.22,-131 283.22,-137 277.22,-137"/>
<text text-anchor="start" x="243.97" y="-113.58" font-family="Arial" font-size="14.00">C2</text>
<polygon fill="black" stroke="none" points="271.22,-109.12 271.22,-128.88 279.22,-128.88 279.22,-109.12 271.22,-109.12"/>
</g>
<!-- C2&#45;&gt;C2 -->
<g id="edge7" class="edge">
<title>C2&#45;&gt;C2</title>
<path fill="none" stroke="black" d="M251.82,-137.15C250.47,-146.54 253.4,-155 260.6,-155 264.64,-155 267.34,-152.32 268.69,-148.31"/>
<polygon fill="black" stroke="black" points="272.16,-148.86 269.28,-138.66 265.17,-148.43 272.16,-148.86"/>
<text text-anchor="middle" x="260.6" y="-157.45" font-family="Arial" font-size="14.00">a, b</text>
</g>
<!-- C3 -->
<g id="node6" class="node">
<title>C3</title>
<path fill="none" stroke="black" d="M370.97,-156C370.97,-156 340.97,-156 340.97,-156 334.97,-156 328.97,-150 328.97,-144 328.97,-144 328.97,-132 328.97,-132 328.97,-126 334.97,-120 340.97,-120 340.97,-120 370.97,-120 370.97,-120 376.97,-120 382.97,-126 382.97,-132 382.97,-132 382.97,-144 382.97,-144 382.97,-150 376.97,-156 370.97,-156"/>
<text text-anchor="middle" x="355.97" y="-132.57" font-family="Arial" font-size="14.00">C3</text>
</g>
<!-- C2&#45;&gt;C3 -->
<g id="edge8" class="edge">
<title>C2&#45;&gt;C3</title>
<path fill="none" stroke="black" d="M289.61,-124.7C298.39,-126.49 308.23,-128.49 317.56,-130.39"/>
<polygon fill="black" stroke="black" points="316.59,-133.76 327.09,-132.33 317.99,-126.9 316.59,-133.76"/>
<text text-anchor="middle" x="309.1" y="-130.95" font-family="Arial" font-size="14.00">f</text>
</g>
<!-- C2&#45;&gt;D1 -->
<g id="edge9" class="edge">
<title>C2&#45;&gt;D1</title>
<path fill="none" stroke="black" d="M271.5,-137.43C282.74,-156.34 302.94,-184.92 328.97,-199 355.21,-213.19 389.09,-216.44 414.72,-216.42"/>
<polygon fill="black" stroke="black" points="414.77,-219.92 424.7,-216.22 414.64,-212.92 414.77,-219.92"/>
<text text-anchor="middle" x="355.97" y="-217.03" font-family="Arial" font-size="14.00">d</text>
</g>
<!-- D2 -->
<g id="node4" class="node">
<title>D2</title>
<path fill="none" stroke="black" d="M568.47,-159C568.47,-159 535.22,-159 535.22,-159 529.22,-159 523.22,-153 523.22,-147 523.22,-147 523.22,-135 523.22,-135 523.22,-129 529.22,-123 535.22,-123 535.22,-123 568.47,-123 568.47,-123 574.47,-123 580.47,-129 580.47,-135 580.47,-135 580.47,-147 580.47,-147 580.47,-153 574.47,-159 568.47,-159"/>
<text text-anchor="start" x="535.22" y="-135.57" font-family="Arial" font-size="14.00">D2</text>
<polygon fill="black" stroke="none" points="562.47,-131.12 562.47,-150.88 570.47,-150.88 570.47,-131.12 562.47,-131.12"/>
</g>
<!-- D2&#45;&gt;D2 -->
<g id="edge16" class="edge">
<title>D2&#45;&gt;D2</title>
<path fill="none" stroke="black" d="M543.07,-159.15C541.72,-168.54 544.65,-177 551.85,-177 555.89,-177 558.59,-174.32 559.94,-170.31"/>
<polygon fill="black" stroke="black" points="563.41,-170.86 560.53,-160.66 556.42,-170.43 563.41,-170.86"/>
<text text-anchor="middle" x="551.85" y="-179.45" font-family="Arial" font-size="14.00">a, b</text>
</g>
<!-- D2&#45;&gt;C1 -->
<g id="edge15" class="edge">
<title>D2&#45;&gt;C1</title>
<path fill="none" stroke="black" d="M542.52,-122.68C528.57,-95.08 497.7,-46 454.47,-46 259.6,-46 259.6,-46 259.6,-46 239.65,-46 217.75,-49.52 199.8,-53.36"/>
<polygon fill="black" stroke="black" points="199.09,-49.93 190.11,-55.55 200.64,-56.75 199.09,-49.93"/>
<text text-anchor="middle" x="355.97" y="-48.45" font-family="Arial" font-size="14.00">c</text>
</g>
<!-- D3 -->
<g id="node8" class="node">
<title>D3</title>
<path fill="none" stroke="black" d="M662.22,-110C662.22,-110 632.22,-110 632.22,-110 626.22,-110 620.22,-104 620.22,-98 620.22,-98 620.22,-86 620.22,-86 620.22,-80 626.22,-74 632.22,-74 632.22,-74 662.22,-74 662.22,-74 668.22,-74 674.22,-80 674.22,-86 674.22,-86 674.22,-98 674.22,-98 674.22,-104 668.22,-110 662.22,-110"/>
<text text-anchor="middle" x="647.22" y="-86.58" font-family="Arial" font-size="14.00">D3</text>
</g>
<!-- D2&#45;&gt;D3 -->
<g id="edge17" class="edge">
<title>D2&#45;&gt;D3</title>
<path fill="none" stroke="black" d="M580.86,-126.3C589.93,-121.54 600.13,-116.18 609.73,-111.15"/>
<polygon fill="black" stroke="black" points="611.25,-114.3 618.48,-106.56 608,-108.1 611.25,-114.3"/>
<text text-anchor="middle" x="600.35" y="-118.95" font-family="Arial" font-size="14.00">f</text>
</g>
<!-- C1&#45;&gt;C2 -->
<g id="edge6" class="edge">
<title>C1&#45;&gt;C2</title>
<path fill="none" stroke="black" d="M188.75,-78.15C198.9,-84.01 210.71,-90.82 221.75,-97.18"/>
<polygon fill="black" stroke="black" points="219.87,-100.13 230.28,-102.1 223.36,-94.07 219.87,-100.13"/>
<text text-anchor="middle" x="210.22" y="-95.13" font-family="Arial" font-size="14.00">d</text>
</g>
<!-- C1&#45;&gt;C1 -->
<g id="edge5" class="edge">
<title>C1&#45;&gt;C1</title>
<path fill="none" stroke="black" d="M152.72,-81.15C151.37,-90.54 154.29,-99 161.47,-99 165.51,-99 168.2,-96.32 169.54,-92.31"/>
<polygon fill="black" stroke="black" points="173.01,-92.86 170.13,-82.66 166.03,-92.43 173.01,-92.86"/>
<text text-anchor="middle" x="161.47" y="-101.45" font-family="Arial" font-size="14.00">a, b, c, f</text>
</g>
<!-- C3&#45;&gt;D2 -->
<g id="edge12" class="edge">
<title>C3&#45;&gt;D2</title>
<path fill="none" stroke="black" d="M383.12,-138.4C416.18,-138.92 473.41,-139.8 511.69,-140.39"/>
<polygon fill="black" stroke="black" points="511.35,-143.89 521.41,-140.54 511.46,-136.89 511.35,-143.89"/>
<text text-anchor="middle" x="453.47" y="-142.35" font-family="Arial" font-size="14.00">c</text>
</g>
<!-- C3&#45;&gt;C3 -->
<g id="edge10" class="edge">
<title>C3&#45;&gt;C3</title>
<path fill="none" stroke="black" d="M347.49,-156.15C346.19,-165.54 349.01,-174 355.97,-174 359.88,-174 362.49,-171.32 363.79,-167.31"/>
<polygon fill="black" stroke="black" points="367.26,-167.85 364.36,-157.66 360.28,-167.44 367.26,-167.85"/>
<text text-anchor="middle" x="355.97" y="-176.45" font-family="Arial" font-size="14.00">a, b</text>
</g>
<!-- C3&#45;&gt;D1 -->
<g id="edge11" class="edge">
<title>C3&#45;&gt;D1</title>
<path fill="none" stroke="black" d="M380.09,-156.4C392.2,-166.03 407.22,-177.99 420.43,-188.5"/>
<polygon fill="black" stroke="black" points="418.05,-191.08 428.05,-194.57 422.4,-185.6 418.05,-191.08"/>
<text text-anchor="middle" x="404.72" y="-180.73" font-family="Arial" font-size="14.00">d</text>
</g>
<!-- D1&#45;&gt;D2 -->
<g id="edge14" class="edge">
<title>D1&#45;&gt;D2</title>
<path fill="none" stroke="black" d="M478.79,-195.58C490.55,-186.67 504.84,-175.85 517.58,-166.19"/>
<polygon fill="black" stroke="black" points="519.47,-169.16 525.33,-160.33 515.24,-163.58 519.47,-169.16"/>
<text text-anchor="middle" x="501.85" y="-182.14" font-family="Arial" font-size="14.00">c</text>
</g>
<!-- D1&#45;&gt;D1 -->
<g id="edge13" class="edge">
<title>D1&#45;&gt;D1</title>
<path fill="none" stroke="black" d="M444.72,-232.15C443.37,-241.54 446.29,-250 453.47,-250 457.51,-250 460.2,-247.32 461.54,-243.31"/>
<polygon fill="black" stroke="black" points="465.01,-243.86 462.13,-233.66 458.03,-243.43 465.01,-243.86"/>
<text text-anchor="middle" x="453.47" y="-252.45" font-family="Arial" font-size="14.00">a, b, d, f</text>
</g>
<!-- D3&#45;&gt;C2 -->
<g id="edge19" class="edge">
<title>D3&#45;&gt;C2</title>
<path fill="none" stroke="black" d="M620.06,-92C601.34,-92 575.54,-92 552.85,-92 354.97,-92 354.97,-92 354.97,-92 336.42,-92 316.59,-96.98 299.99,-102.66"/>
<polygon fill="black" stroke="black" points="299.21,-99.22 291.02,-105.93 301.61,-105.79 299.21,-99.22"/>
<text text-anchor="middle" x="453.47" y="-94.45" font-family="Arial" font-size="14.00">d</text>
</g>
<!-- D3&#45;&gt;C1 -->
<g id="edge18" class="edge">
<title>D3&#45;&gt;C1</title>
<path fill="none" stroke="black" d="M637.93,-73.82C624.31,-47.01 594.49,0 552.85,0 259.6,0 259.6,0 259.6,0 230.84,0 203.88,-19.68 185.7,-37.04"/>
<polygon fill="black" stroke="black" points="183.64,-34.15 179.06,-43.71 188.6,-39.1 183.64,-34.15"/>
<text text-anchor="middle" x="404.72" y="-2.45" font-family="Arial" font-size="14.00">c</text>
</g>
<!-- D3&#45;&gt;D3 -->
<g id="edge20" class="edge">
<title>D3&#45;&gt;D3</title>
<path fill="none" stroke="black" d="M638.74,-110.15C637.44,-119.54 640.26,-128 647.22,-128 651.13,-128 653.74,-125.32 655.04,-121.31"/>
<polygon fill="black" stroke="black" points="658.51,-121.85 655.61,-111.66 651.53,-121.44 658.51,-121.85"/>
<text text-anchor="middle" x="647.22" y="-130.45" font-family="Arial" font-size="14.00">a, b</text>
</g>
</g>
</svg>
