<?xml version="1.0" encoding="UTF-8" standalone="no"?>
<!DOCTYPE svg PUBLIC "-//W3C//DTD SVG 1.1//EN"
 "http://www.w3.org/Graphics/SVG/1.1/DTD/svg11.dtd">
<!-- Generated by graphviz version 2.43.0 (0)
 -->
<!-- Title: A&#45;B&#45;Machine Pages: 1 -->
<svg width="425pt" height="139pt"
 viewBox="0.00 0.00 425.09 138.66" xmlns="http://www.w3.org/2000/svg" xmlns:xlink="http://www.w3.org/1999/xlink">
<g id="graph0" class="graph" transform="scale(1 1) rotate(0) translate(4 134.66)">
<title>A&#45;B&#45;Machine</title>
<!-- dot_dummyinit_1 -->
<g id="node1" class="node">
<title>dot_dummyinit_1</title>
</g>
<!-- I -->
<g id="node2" class="node">
<title>I</title>
<ellipse fill="none" stroke="black" cx="60" cy="-54.66" rx="18" ry="18"/>
<ellipse fill="none" stroke="black" cx="60" cy="-54.66" rx="22" ry="22"/>
<text text-anchor="middle" x="60" y="-50.96" font-family="Arial" font-size="14.00">I</text>
</g>
<!-- dot_dummyinit_1&#45;&gt;I -->
<g id="edge1" class="edge">
<title>dot_dummyinit_1&#45;&gt;I</title>
<path fill="none" stroke="black" d="M1.17,-54.66C2.72,-54.66 14.89,-54.66 27.67,-54.66"/>
<polygon fill="black" stroke="black" points="27.86,-58.16 37.86,-54.66 27.86,-51.16 27.86,-58.16"/>
</g>
<!-- A -->
<g id="node3" class="node">
<title>A</title>
<ellipse fill="none" stroke="black" cx="144" cy="-109.66" rx="18" ry="18"/>
<text text-anchor="middle" x="144" y="-105.96" font-family="Arial" font-size="14.00">A</text>
</g>
<!-- I&#45;&gt;A -->
<g id="edge2" class="edge">
<title>I&#45;&gt;A</title>
<path fill="none" stroke="black" d="M76.66,-69.34C83.54,-75.4 91.88,-82.25 100,-87.66 105.59,-91.38 111.89,-94.93 117.9,-98.04"/>
<polygon fill="black" stroke="black" points="116.47,-101.24 126.99,-102.55 119.58,-94.97 116.47,-101.24"/>
<text text-anchor="middle" x="104" y="-95.46" font-family="Arial" font-size="14.00">a</text>
</g>
<!-- B -->
<g id="node4" class="node">
<title>B</title>
<ellipse fill="none" stroke="black" cx="310.9" cy="-57.66" rx="18" ry="18"/>
<text text-anchor="middle" x="310.9" y="-53.96" font-family="Arial" font-size="14.00">B</text>
</g>
<!-- I&#45;&gt;B -->
<g id="edge3" class="edge">
<title>I&#45;&gt;B</title>
<path fill="none" stroke="black" d="M76.78,-40.34C83.54,-34.81 91.77,-28.82 100,-24.66 136.08,-6.43 147.91,3.56 188,-1.66 227.62,-6.81 239.98,-5.25 274.9,-24.66 280.74,-27.91 286.35,-32.35 291.31,-36.93"/>
<polygon fill="black" stroke="black" points="288.93,-39.5 298.49,-44.07 293.86,-34.53 288.93,-39.5"/>
<text text-anchor="middle" x="184" y="-5.46" font-family="Arial" font-size="14.00">b</text>
</g>
<!-- A&#45;&gt;I -->
<g id="edge4" class="edge">
<title>A&#45;&gt;I</title>
<path fill="none" stroke="black" d="M133.61,-94.86C127.34,-86.09 118.35,-75.4 108,-68.66 103.09,-65.47 97.43,-62.98 91.78,-61.05"/>
<polygon fill="black" stroke="black" points="92.34,-57.57 81.76,-58.14 90.39,-64.29 92.34,-57.57"/>
<text text-anchor="middle" x="104" y="-72.46" font-family="Arial" font-size="14.00">c</text>
</g>
<!-- FA -->
<g id="node5" class="node">
<title>FA</title>
<ellipse fill="none" stroke="black" cx="227.45" cy="-87.66" rx="21.4" ry="21.4"/>
<text text-anchor="middle" x="227.45" y="-83.96" font-family="Arial" font-size="14.00">FA</text>
</g>
<!-- A&#45;&gt;FA -->
<g id="edge5" class="edge">
<title>A&#45;&gt;FA</title>
<path fill="none" stroke="black" d="M155.73,-95.85C161.97,-88.98 170.48,-81.35 180,-77.66 185.62,-75.48 191.81,-75.35 197.79,-76.29"/>
<polygon fill="black" stroke="black" points="196.97,-79.7 207.52,-78.7 198.65,-72.9 196.97,-79.7"/>
<text text-anchor="middle" x="184" y="-81.46" font-family="Arial" font-size="14.00">d</text>
</g>
<!-- B&#45;&gt;I -->
<g id="edge6" class="edge">
<title>B&#45;&gt;I</title>
<path fill="none" stroke="black" d="M292.78,-57.45C251.41,-56.95 145.55,-55.68 92.41,-55.04"/>
<polygon fill="black" stroke="black" points="92.26,-51.53 82.22,-54.91 92.18,-58.53 92.26,-51.53"/>
<text text-anchor="middle" x="184" y="-59.46" font-family="Arial" font-size="14.00">c</text>
</g>
<!-- FB -->
<g id="node6" class="node">
<title>FB</title>
<ellipse fill="none" stroke="black" cx="394.99" cy="-95.66" rx="22.2" ry="22.2"/>
<text text-anchor="middle" x="394.99" y="-91.96" font-family="Arial" font-size="14.00">FB</text>
</g>
<!-- B&#45;&gt;FB -->
<g id="edge7" class="edge">
<title>B&#45;&gt;FB</title>
<path fill="none" stroke="black" d="M327.73,-64.98C338.42,-69.93 352.84,-76.61 365.5,-82.47"/>
<polygon fill="black" stroke="black" points="364.2,-85.72 374.75,-86.75 367.14,-79.37 364.2,-85.72"/>
<text text-anchor="middle" x="350.9" y="-80.46" font-family="Arial" font-size="14.00">d</text>
</g>
<!-- FA&#45;&gt;A -->
<g id="edge8" class="edge">
<title>FA&#45;&gt;A</title>
<path fill="none" stroke="black" d="M206.54,-93.04C195.95,-95.9 182.79,-99.45 171.37,-102.54"/>
<polygon fill="black" stroke="black" points="170.22,-99.22 161.48,-105.21 172.05,-105.98 170.22,-99.22"/>
<text text-anchor="middle" x="184" y="-103.46" font-family="Arial" font-size="14.00">a</text>
</g>
<!-- FA&#45;&gt;B -->
<g id="edge9" class="edge">
<title>FA&#45;&gt;B</title>
<path fill="none" stroke="black" d="M247.75,-80.55C258.59,-76.55 272.27,-71.52 284.03,-67.19"/>
<polygon fill="black" stroke="black" points="285.57,-70.35 293.75,-63.61 283.15,-63.78 285.57,-70.35"/>
<text text-anchor="middle" x="270.9" y="-76.46" font-family="Arial" font-size="14.00">b</text>
</g>
<!-- FB&#45;&gt;A -->
<g id="edge10" class="edge">
<title>FB&#45;&gt;A</title>
<path fill="none" stroke="black" d="M372.95,-99.76C344.82,-105.03 293.33,-113.94 248.9,-117.66 221.92,-119.91 215.07,-118.44 188,-118.66 184.44,-118.69 183.53,-119.1 180,-118.66 177.24,-118.31 174.38,-117.81 171.54,-117.22"/>
<polygon fill="black" stroke="black" points="172.11,-113.76 161.57,-114.83 170.48,-120.57 172.11,-113.76"/>
<text text-anchor="middle" x="270.9" y="-119.46" font-family="Arial" font-size="14.00">a</text>
</g>
<!-- FB&#45;&gt;B -->
<g id="edge11" class="edge">
<title>FB&#45;&gt;B</title>
<path fill="none" stroke="black" d="M382.14,-77.6C375.32,-68.91 365.93,-59.38 354.9,-54.66 349.87,-52.5 344.2,-51.82 338.67,-51.95"/>
<polygon fill="black" stroke="black" points="338,-48.51 328.42,-53.02 338.73,-55.47 338,-48.51"/>
<text text-anchor="middle" x="350.9" y="-58.46" font-family="Arial" font-size="14.00">b</text>
</g>
</g>
</svg>
