<?xml version="1.0" encoding="UTF-8" standalone="no"?>
<!DOCTYPE svg PUBLIC "-//W3C//DTD SVG 1.1//EN"
 "http://www.w3.org/Graphics/SVG/1.1/DTD/svg11.dtd">
<!-- Generated by graphviz version 2.43.0 (0)
 -->
<!-- Title: A&#45;B&#45;Spec&#45;Eventually&#45;B Pages: 1 -->
<svg width="170pt" height="147pt"
 viewBox="0.00 0.00 170.00 147.00" xmlns="http://www.w3.org/2000/svg" xmlns:xlink="http://www.w3.org/1999/xlink">
<g id="graph0" class="graph" transform="scale(1 1) rotate(0) translate(4 143)">
<title>A&#45;B&#45;Spec&#45;Eventually&#45;B</title>
<!-- dot_dummyinit_1 -->
<g id="node1" class="node">
<title>dot_dummyinit_1</title>
</g>
<!-- A -->
<g id="node2" class="node">
<title>A</title>
<ellipse fill="none" stroke="black" cx="56" cy="-22" rx="18" ry="18"/>
<text text-anchor="middle" x="56" y="-18.3" font-family="Arial" font-size="14.00">A</text>
</g>
<!-- dot_dummyinit_1&#45;&gt;A -->
<g id="edge1" class="edge">
<title>dot_dummyinit_1&#45;&gt;A</title>
<path fill="none" stroke="black" d="M1.15,-22C2.67,-22 15.1,-22 27.63,-22"/>
<polygon fill="black" stroke="black" points="27.94,-25.5 37.94,-22 27.94,-18.5 27.94,-25.5"/>
</g>
<!-- A&#45;&gt;A -->
<g id="edge2" class="edge">
<title>A&#45;&gt;A</title>
<path fill="none" stroke="black" d="M53.83,-40.15C53.5,-49.54 54.22,-58 56,-58 57.09,-58 57.78,-54.86 58.08,-50.28"/>
<polygon fill="black" stroke="black" points="61.58,-50.18 58.17,-40.15 54.58,-50.12 61.58,-50.18"/>
<text text-anchor="middle" x="56" y="-61.8" font-family="Arial" font-size="14.00">a</text>
</g>
<!-- A&#45;&gt;A -->
<g id="edge4" class="edge">
<title>A&#45;&gt;A</title>
<path fill="none" stroke="black" d="M52.42,-39.7C50.45,-57 51.64,-76 56,-76 59.51,-76 60.96,-63.69 60.37,-49.87"/>
<polygon fill="black" stroke="black" points="63.84,-49.4 59.58,-39.7 56.87,-49.94 63.84,-49.4"/>
<text text-anchor="middle" x="56" y="-79.8" font-family="Arial" font-size="14.00">c</text>
</g>
<!-- A&#45;&gt;A -->
<g id="edge5" class="edge">
<title>A&#45;&gt;A</title>
<path fill="none" stroke="black" d="M51.51,-39.72C47.4,-64.11 48.9,-94 56,-94 62.16,-94 64.1,-71.53 61.83,-49.64"/>
<polygon fill="black" stroke="black" points="65.3,-49.16 60.49,-39.72 58.36,-50.09 65.3,-49.16"/>
<text text-anchor="middle" x="56" y="-97.8" font-family="Arial" font-size="14.00">d</text>
</g>
<!-- B -->
<g id="node3" class="node">
<title>B</title>
<ellipse fill="none" stroke="black" cx="140" cy="-22" rx="18" ry="18"/>
<ellipse fill="none" stroke="black" cx="140" cy="-22" rx="22" ry="22"/>
<text text-anchor="middle" x="140" y="-18.3" font-family="Arial" font-size="14.00">B</text>
</g>
<!-- A&#45;&gt;B -->
<g id="edge3" class="edge">
<title>A&#45;&gt;B</title>
<path fill="none" stroke="black" d="M74.39,-22C84.11,-22 96.51,-22 107.85,-22"/>
<polygon fill="black" stroke="black" points="107.85,-25.5 117.85,-22 107.85,-18.5 107.85,-25.5"/>
<text text-anchor="middle" x="96" y="-25.8" font-family="Arial" font-size="14.00">b</text>
</g>
<!-- B&#45;&gt;A -->
<g id="edge7" class="edge">
<title>B&#45;&gt;A</title>
<path fill="none" stroke="black" d="M121.53,-9.16C112.84,-4.28 102.07,-0.44 92,-3 88.04,-4.01 84.05,-5.56 80.24,-7.35"/>
<polygon fill="black" stroke="black" points="78.48,-4.33 71.31,-12.13 81.78,-10.5 78.48,-4.33"/>
<text text-anchor="middle" x="96" y="-6.8" font-family="Arial" font-size="14.00">c</text>
</g>
<!-- B&#45;&gt;B -->
<g id="edge6" class="edge">
<title>B&#45;&gt;B</title>
<path fill="none" stroke="black" d="M135.94,-43.81C135.55,-53.56 136.91,-62 140,-62 141.93,-62 143.19,-58.7 143.76,-53.85"/>
<polygon fill="black" stroke="black" points="147.26,-53.91 144.06,-43.81 140.26,-53.7 147.26,-53.91"/>
<text text-anchor="middle" x="140" y="-65.8" font-family="Arial" font-size="14.00">b</text>
</g>
<!-- B&#45;&gt;B -->
<g id="edge8" class="edge">
<title>B&#45;&gt;B</title>
<path fill="none" stroke="black" d="M133.06,-43.11C130,-61.1 132.31,-80 140,-80 146.25,-80 148.95,-67.52 148.1,-53.2"/>
<polygon fill="black" stroke="black" points="151.56,-52.65 146.94,-43.11 144.6,-53.45 151.56,-52.65"/>
<text text-anchor="middle" x="140" y="-83.8" font-family="Arial" font-size="14.00">d</text>
</g>
</g>
</svg>
