<?xml version="1.0" encoding="UTF-8" standalone="no"?>
<!DOCTYPE svg PUBLIC "-//W3C//DTD SVG 1.1//EN"
 "http://www.w3.org/Graphics/SVG/1.1/DTD/svg11.dtd">
<!-- Generated by graphviz version 12.2.1 (20241206.2353)
 -->
<!-- Title: eventually always alternating a and b Pages: 1 -->
<svg width="449pt" height="125pt"
 viewBox="0.00 0.00 448.50 124.75" xmlns="http://www.w3.org/2000/svg" xmlns:xlink="http://www.w3.org/1999/xlink">
<g id="graph0" class="graph" transform="scale(1 1) rotate(0) translate(4 120.75)">
<title>eventually always alternating a and b</title>
<!-- dot_dummyinit_0 -->
<g id="node1" class="node">
<title>dot_dummyinit_0</title>
</g>
<!-- 4 -->
<g id="node2" class="node">
<title>4</title>
<path fill="none" stroke="black" d="M133,-47C133,-47 103,-47 103,-47 97,-47 91,-41 91,-35 91,-35 91,-23 91,-23 91,-17 97,-11 103,-11 103,-11 133,-11 133,-11 139,-11 145,-17 145,-23 145,-23 145,-35 145,-35 145,-41 139,-47 133,-47"/>
<text text-anchor="middle" x="118" y="-23.57" font-family="Arial" font-size="14.00">4</text>
</g>
<!-- dot_dummyinit_0&#45;&gt;4 -->
<g id="edge1" class="edge">
<title>dot_dummyinit_0&#45;&gt;4</title>
<path fill="none" stroke="black" d="M53.74,-29C61.72,-29 70.68,-29 79.29,-29"/>
<polygon fill="black" stroke="black" points="79.18,-32.5 89.18,-29 79.18,-25.5 79.18,-32.5"/>
</g>
<!-- 4&#45;&gt;4 -->
<g id="edge9" class="edge">
<title>4&#45;&gt;4</title>
<path fill="none" stroke="black" d="M109.77,-47.15C108.5,-56.54 111.25,-65 118,-65 121.69,-65 124.19,-62.47 125.48,-58.64"/>
<polygon fill="black" stroke="black" points="128.98,-58.87 126.13,-48.66 121.99,-58.41 128.98,-58.87"/>
<text text-anchor="middle" x="118" y="-67.45" font-family="Arial" font-size="14.00">b</text>
</g>
<!-- 3 -->
<g id="node3" class="node">
<title>3</title>
<path fill="none" stroke="black" d="M230.5,-83C230.5,-83 200.5,-83 200.5,-83 194.5,-83 188.5,-77 188.5,-71 188.5,-71 188.5,-59 188.5,-59 188.5,-53 194.5,-47 200.5,-47 200.5,-47 230.5,-47 230.5,-47 236.5,-47 242.5,-53 242.5,-59 242.5,-59 242.5,-71 242.5,-71 242.5,-77 236.5,-83 230.5,-83"/>
<text text-anchor="middle" x="215.5" y="-59.58" font-family="Arial" font-size="14.00">3</text>
</g>
<!-- 4&#45;&gt;3 -->
<g id="edge8" class="edge">
<title>4&#45;&gt;3</title>
<path fill="none" stroke="black" d="M145.35,-38.93C155.37,-42.71 166.98,-47.08 177.78,-51.16"/>
<polygon fill="black" stroke="black" points="176.23,-54.31 186.82,-54.57 178.7,-47.76 176.23,-54.31"/>
<text text-anchor="middle" x="166.75" y="-50.53" font-family="Arial" font-size="14.00">a</text>
</g>
<!-- 3&#45;&gt;3 -->
<g id="edge6" class="edge">
<title>3&#45;&gt;3</title>
<path fill="none" stroke="black" d="M206.68,-83.15C205.32,-92.54 208.26,-101 215.5,-101 219.57,-101 222.28,-98.32 223.63,-94.31"/>
<polygon fill="black" stroke="black" points="227.11,-94.86 224.23,-84.66 220.12,-94.43 227.11,-94.86"/>
<text text-anchor="middle" x="215.5" y="-103.45" font-family="Arial" font-size="14.00">a</text>
</g>
<!-- 1 -->
<g id="node4" class="node">
<title>1</title>
<path fill="none" stroke="black" d="M329.5,-36C329.5,-36 298,-36 298,-36 292,-36 286,-30 286,-24 286,-24 286,-12 286,-12 286,-6 292,0 298,0 298,0 329.5,0 329.5,0 335.5,0 341.5,-6 341.5,-12 341.5,-12 341.5,-24 341.5,-24 341.5,-30 335.5,-36 329.5,-36"/>
<polygon fill="darkblue" stroke="none" points="296,-8.12 296,-27.88 306,-27.88 306,-8.12 296,-8.12"/>
<polygon fill="lightblue" stroke="none" points="308,-8.12 308,-27.88 318,-27.88 318,-8.12 308,-8.12"/>
<text text-anchor="start" x="322" y="-12.57" font-family="Arial" font-size="14.00">1</text>
</g>
<!-- 3&#45;&gt;1 -->
<g id="edge7" class="edge">
<title>3&#45;&gt;1</title>
<path fill="none" stroke="black" d="M242.8,-52.16C252.92,-47.21 264.68,-41.47 275.64,-36.12"/>
<polygon fill="black" stroke="black" points="277,-39.35 284.45,-31.82 273.93,-33.06 277,-39.35"/>
<text text-anchor="middle" x="264.25" y="-45.36" font-family="Arial" font-size="14.00">b</text>
</g>
<!-- 1&#45;&gt;4 -->
<g id="edge3" class="edge">
<title>1&#45;&gt;4</title>
<path fill="none" stroke="black" d="M285.58,-18.44C260.39,-18.96 221.88,-20.06 188.5,-22.25 178.13,-22.93 166.91,-23.91 156.57,-24.92"/>
<polygon fill="black" stroke="black" points="156.47,-21.41 146.88,-25.89 157.18,-28.37 156.47,-21.41"/>
<text text-anchor="middle" x="215.5" y="-24.7" font-family="Arial" font-size="14.00">b</text>
</g>
<!-- 2 -->
<g id="node5" class="node">
<title>2</title>
<path fill="none" stroke="black" d="M428.5,-64C428.5,-64 397,-64 397,-64 391,-64 385,-58 385,-52 385,-52 385,-40 385,-40 385,-34 391,-28 397,-28 397,-28 428.5,-28 428.5,-28 434.5,-28 440.5,-34 440.5,-40 440.5,-40 440.5,-52 440.5,-52 440.5,-58 434.5,-64 428.5,-64"/>
<polygon fill="darkblue" stroke="none" points="395,-36.12 395,-55.88 405,-55.88 405,-36.12 395,-36.12"/>
<polygon fill="lightblue" stroke="none" points="407,-36.12 407,-55.88 417,-55.88 417,-36.12 407,-36.12"/>
<text text-anchor="start" x="421" y="-40.58" font-family="Arial" font-size="14.00">2</text>
</g>
<!-- 1&#45;&gt;2 -->
<g id="edge2" class="edge">
<title>1&#45;&gt;2</title>
<path fill="none" stroke="black" d="M341.77,-25.8C351.67,-28.66 363.07,-31.95 373.76,-35.03"/>
<polygon fill="black" stroke="black" points="372.51,-38.31 383.08,-37.73 374.45,-31.59 372.51,-38.31"/>
<text text-anchor="middle" x="363.25" y="-35.29" font-family="Arial" font-size="14.00">a</text>
</g>
<!-- 2&#45;&gt;3 -->
<g id="edge4" class="edge">
<title>2&#45;&gt;3</title>
<path fill="none" stroke="black" d="M384.81,-50.46C378.95,-51.36 372.77,-52.26 367,-53 323.14,-58.64 312.12,-59.92 268,-63 263.56,-63.31 258.9,-63.58 254.27,-63.8"/>
<polygon fill="black" stroke="black" points="254.33,-60.3 244.49,-64.22 254.63,-67.29 254.33,-60.3"/>
<text text-anchor="middle" x="313.75" y="-64.12" font-family="Arial" font-size="14.00">a</text>
</g>
<!-- 2&#45;&gt;1 -->
<g id="edge5" class="edge">
<title>2&#45;&gt;1</title>
<path fill="none" stroke="black" d="M393.82,-27.67C386.23,-21.17 376.86,-14.63 367,-11.25 362.52,-9.72 357.72,-9.08 352.91,-9.04"/>
<polygon fill="black" stroke="black" points="353.02,-5.52 343.31,-9.77 353.55,-12.5 353.02,-5.52"/>
<text text-anchor="middle" x="363.25" y="-13.7" font-family="Arial" font-size="14.00">b</text>
</g>
</g>
</svg>
