<?xml version="1.0" encoding="UTF-8" standalone="no"?>
<!DOCTYPE svg PUBLIC "-//W3C//DTD SVG 1.1//EN"
 "http://www.w3.org/Graphics/SVG/1.1/DTD/svg11.dtd">
<!-- Generated by graphviz version 12.2.1 (20241206.2353)
 -->
<!-- Title: SupClosed(Automaton(A&#45;B&#45;Spec&#45;Eventually&#45;B).x.A&#45;B&#45;Machine) [minstate] Pages: 1 -->
<svg width="342pt" height="170pt"
 viewBox="0.00 0.00 342.47 169.78" xmlns="http://www.w3.org/2000/svg" xmlns:xlink="http://www.w3.org/1999/xlink">
<g id="graph0" class="graph" transform="scale(1 1) rotate(0) translate(4 165.78)">
<title>SupClosed(Automaton(A&#45;B&#45;Spec&#45;Eventually&#45;B).x.A&#45;B&#45;Machine) [minstate]</title>
<!-- dot_dummyinit_1 -->
<g id="node1" class="node">
<title>dot_dummyinit_1</title>
</g>
<!-- 3 -->
<g id="node2" class="node">
<title>3</title>
<ellipse fill="none" stroke="black" cx="55.72" cy="-20.74" rx="18" ry="18"/>
<text text-anchor="middle" x="55.72" y="-15.32" font-family="Arial" font-size="14.00">3</text>
</g>
<!-- dot_dummyinit_1&#45;&gt;3 -->
<g id="edge1" class="edge">
<title>dot_dummyinit_1&#45;&gt;3</title>
<path fill="none" stroke="black" d="M0.87,-20.74C2.34,-20.74 13.93,-20.74 25.99,-20.74"/>
<polygon fill="black" stroke="black" points="25.86,-24.24 35.86,-20.74 25.86,-17.24 25.86,-24.24"/>
</g>
<!-- 2 -->
<g id="node4" class="node">
<title>2</title>
<ellipse fill="none" stroke="black" cx="135.22" cy="-98.74" rx="18" ry="18"/>
<text text-anchor="middle" x="135.22" y="-93.32" font-family="Arial" font-size="14.00">2</text>
</g>
<!-- 3&#45;&gt;2 -->
<g id="edge6" class="edge">
<title>3&#45;&gt;2</title>
<path fill="none" stroke="black" d="M69.17,-33.27C81.26,-45.44 99.82,-64.12 114.02,-78.41"/>
<polygon fill="black" stroke="black" points="111.2,-80.54 120.73,-85.17 116.17,-75.61 111.2,-80.54"/>
<text text-anchor="middle" x="95.47" y="-64.53" font-family="Arial" font-size="14.00">b</text>
</g>
<!-- 5 -->
<g id="node6" class="node">
<title>5</title>
<ellipse fill="none" stroke="black" cx="316.47" cy="-20.74" rx="18" ry="18"/>
<text text-anchor="middle" x="316.47" y="-15.32" font-family="Arial" font-size="14.00">5</text>
</g>
<!-- 3&#45;&gt;5 -->
<g id="edge7" class="edge">
<title>3&#45;&gt;5</title>
<path fill="none" stroke="black" d="M74.1,-20.74C117.83,-20.74 232.78,-20.74 286.73,-20.74"/>
<polygon fill="black" stroke="black" points="286.65,-24.24 296.65,-20.74 286.65,-17.24 286.65,-24.24"/>
<text text-anchor="middle" x="182.1" y="-23.19" font-family="Arial" font-size="14.00">a</text>
</g>
<!-- 1 -->
<g id="node3" class="node">
<title>1</title>
<ellipse fill="none" stroke="black" cx="232.97" cy="-137.74" rx="18" ry="18"/>
<ellipse fill="none" stroke="black" cx="232.97" cy="-137.74" rx="22" ry="22"/>
<text text-anchor="middle" x="232.97" y="-132.32" font-family="Arial" font-size="14.00">1</text>
</g>
<!-- 1&#45;&gt;2 -->
<g id="edge2" class="edge">
<title>1&#45;&gt;2</title>
<path fill="none" stroke="black" d="M212.33,-129.74C198.11,-123.95 178.72,-116.05 163.07,-109.68"/>
<polygon fill="black" stroke="black" points="164.45,-106.46 153.86,-105.93 161.81,-112.94 164.45,-106.46"/>
<text text-anchor="middle" x="182.1" y="-124.18" font-family="Arial" font-size="14.00">b</text>
</g>
<!-- 1&#45;&gt;5 -->
<g id="edge3" class="edge">
<title>1&#45;&gt;5</title>
<path fill="none" stroke="black" d="M246.35,-119.97C260.39,-99.81 283.35,-66.85 298.92,-44.49"/>
<polygon fill="black" stroke="black" points="301.59,-46.79 304.43,-36.59 295.85,-42.79 301.59,-46.79"/>
<text text-anchor="middle" x="276.72" y="-81.69" font-family="Arial" font-size="14.00">a</text>
</g>
<!-- 2&#45;&gt;1 -->
<g id="edge4" class="edge">
<title>2&#45;&gt;1</title>
<path fill="none" stroke="black" d="M144.29,-114.52C150.26,-124.34 159.4,-136.12 171.22,-141.74 180.11,-145.97 190.57,-146.59 200.29,-145.67"/>
<polygon fill="black" stroke="black" points="200.76,-149.14 210.11,-144.15 199.69,-142.22 200.76,-149.14"/>
<text text-anchor="middle" x="182.1" y="-148.48" font-family="Arial" font-size="14.00">c</text>
</g>
<!-- 4 -->
<g id="node5" class="node">
<title>4</title>
<ellipse fill="none" stroke="black" cx="232.97" cy="-73.74" rx="18" ry="18"/>
<text text-anchor="middle" x="232.97" y="-68.32" font-family="Arial" font-size="14.00">4</text>
</g>
<!-- 2&#45;&gt;4 -->
<g id="edge5" class="edge">
<title>2&#45;&gt;4</title>
<path fill="none" stroke="black" d="M152.9,-94.39C167.09,-90.68 187.76,-85.28 204.41,-80.94"/>
<polygon fill="black" stroke="black" points="204.91,-84.43 213.7,-78.51 203.14,-77.65 204.91,-84.43"/>
<text text-anchor="middle" x="182.1" y="-91.67" font-family="Arial" font-size="14.00">d</text>
</g>
<!-- 4&#45;&gt;2 -->
<g id="edge8" class="edge">
<title>4&#45;&gt;2</title>
<path fill="none" stroke="black" d="M215.95,-66.6C203.37,-62.06 185.64,-58.05 171.22,-63.99 164.83,-66.63 158.99,-71.05 153.99,-75.88"/>
<polygon fill="black" stroke="black" points="151.62,-73.29 147.44,-83.02 156.78,-78.02 151.62,-73.29"/>
<text text-anchor="middle" x="182.1" y="-66.44" font-family="Arial" font-size="14.00">b</text>
</g>
<!-- 5&#45;&gt;3 -->
<g id="edge9" class="edge">
<title>5&#45;&gt;3</title>
<path fill="none" stroke="black" d="M298.65,-15.99C271.81,-8.96 217.56,2.98 171.22,-0.99 141.44,-3.54 107.77,-9.76 84.7,-14.54"/>
<polygon fill="black" stroke="black" points="84.21,-11.06 75.15,-16.57 85.66,-17.91 84.21,-11.06"/>
<text text-anchor="middle" x="182.1" y="-3.44" font-family="Arial" font-size="14.00">c, d</text>
</g>
</g>
</svg>
