<?xml version="1.0" encoding="UTF-8" standalone="no"?>
<!DOCTYPE svg PUBLIC "-//W3C//DTD SVG 1.1//EN"
 "http://www.w3.org/Graphics/SVG/1.1/DTD/svg11.dtd">
<!-- Generated by graphviz version 12.2.1 (20241206.2353)
 -->
<!-- Title: A&#45;B&#45;Machine&#45;B&#45;Breaks Pages: 1 -->
<svg width="605pt" height="89pt"
 viewBox="0.00 0.00 605.47 88.66" xmlns="http://www.w3.org/2000/svg" xmlns:xlink="http://www.w3.org/1999/xlink">
<g id="graph0" class="graph" transform="scale(1 1) rotate(0) translate(4 84.66)">
<title>A&#45;B&#45;Machine&#45;B&#45;Breaks</title>
<!-- dot_dummyinit_1 -->
<g id="node1" class="node">
<title>dot_dummyinit_1</title>
</g>
<!-- I -->
<g id="node2" class="node">
<title>I</title>
<path fill="none" stroke="black" d="M79.72,-54.66C79.72,-54.66 49.72,-54.66 49.72,-54.66 43.72,-54.66 37.72,-48.66 37.72,-42.66 37.72,-42.66 37.72,-30.66 37.72,-30.66 37.72,-24.66 43.72,-18.66 49.72,-18.66 49.72,-18.66 79.72,-18.66 79.72,-18.66 85.72,-18.66 91.72,-24.66 91.72,-30.66 91.72,-30.66 91.72,-42.66 91.72,-42.66 91.72,-48.66 85.72,-54.66 79.72,-54.66"/>
<text text-anchor="start" x="54.85" y="-31.23" font-family="Arial" font-size="14.00">I</text>
<polygon fill="black" stroke="none" points="68.6,-26.78 68.6,-46.53 76.6,-46.53 76.6,-26.78 68.6,-26.78"/>
</g>
<!-- dot_dummyinit_1&#45;&gt;I -->
<g id="edge1" class="edge">
<title>dot_dummyinit_1&#45;&gt;I</title>
<path fill="none" stroke="black" d="M0.77,-36.66C1.57,-36.66 12.96,-36.66 25.83,-36.66"/>
<polygon fill="black" stroke="black" points="25.79,-40.16 35.79,-36.66 25.79,-33.16 25.79,-40.16"/>
</g>
<!-- A -->
<g id="node4" class="node">
<title>A</title>
<path fill="none" stroke="black" d="M177.22,-80.66C177.22,-80.66 147.22,-80.66 147.22,-80.66 141.22,-80.66 135.22,-74.66 135.22,-68.66 135.22,-68.66 135.22,-56.66 135.22,-56.66 135.22,-50.66 141.22,-44.66 147.22,-44.66 147.22,-44.66 177.22,-44.66 177.22,-44.66 183.22,-44.66 189.22,-50.66 189.22,-56.66 189.22,-56.66 189.22,-68.66 189.22,-68.66 189.22,-74.66 183.22,-80.66 177.22,-80.66"/>
<text text-anchor="middle" x="162.22" y="-57.23" font-family="Arial" font-size="14.00">A</text>
</g>
<!-- I&#45;&gt;A -->
<g id="edge2" class="edge">
<title>I&#45;&gt;A</title>
<path fill="none" stroke="black" d="M91.96,-47.76C97.74,-49.93 103.88,-52.03 109.72,-53.66 114.25,-54.91 119.05,-56.03 123.83,-57.01"/>
<polygon fill="black" stroke="black" points="122.84,-60.39 133.31,-58.78 124.12,-53.51 122.84,-60.39"/>
<text text-anchor="middle" x="113.47" y="-57.87" font-family="Arial" font-size="14.00">a</text>
</g>
<!-- B -->
<g id="node5" class="node">
<title>B</title>
<path fill="none" stroke="black" d="M372.22,-37.66C372.22,-37.66 342.22,-37.66 342.22,-37.66 336.22,-37.66 330.22,-31.66 330.22,-25.66 330.22,-25.66 330.22,-13.66 330.22,-13.66 330.22,-7.66 336.22,-1.66 342.22,-1.66 342.22,-1.66 372.22,-1.66 372.22,-1.66 378.22,-1.66 384.22,-7.66 384.22,-13.66 384.22,-13.66 384.22,-25.66 384.22,-25.66 384.22,-31.66 378.22,-37.66 372.22,-37.66"/>
<text text-anchor="middle" x="357.22" y="-14.23" font-family="Arial" font-size="14.00">B</text>
</g>
<!-- I&#45;&gt;B -->
<g id="edge3" class="edge">
<title>I&#45;&gt;B</title>
<path fill="none" stroke="black" d="M92.17,-31.36C97.94,-30.34 104.02,-29.37 109.72,-28.66 183.17,-19.46 269.81,-18.58 318.34,-18.98"/>
<polygon fill="black" stroke="black" points="318.28,-22.48 328.32,-19.09 318.36,-15.48 318.28,-22.48"/>
<text text-anchor="middle" x="210.97" y="-23.27" font-family="Arial" font-size="14.00">b</text>
</g>
<!-- XB -->
<g id="node3" class="node">
<title>XB</title>
<path fill="none" stroke="black" d="M472.97,-37.66C472.97,-37.66 438.97,-37.66 438.97,-37.66 432.97,-37.66 426.97,-31.66 426.97,-25.66 426.97,-25.66 426.97,-13.66 426.97,-13.66 426.97,-7.66 432.97,-1.66 438.97,-1.66 438.97,-1.66 472.97,-1.66 472.97,-1.66 478.97,-1.66 484.97,-7.66 484.97,-13.66 484.97,-13.66 484.97,-25.66 484.97,-25.66 484.97,-31.66 478.97,-37.66 472.97,-37.66"/>
<text text-anchor="start" x="438.97" y="-14.23" font-family="Arial" font-size="14.00">XB</text>
<polygon fill="black" stroke="none" points="466.97,-9.78 466.97,-29.53 474.97,-29.53 474.97,-9.78 466.97,-9.78"/>
</g>
<!-- FB -->
<g id="node7" class="node">
<title>FB</title>
<path fill="none" stroke="black" d="M585.47,-37.66C585.47,-37.66 555.47,-37.66 555.47,-37.66 549.47,-37.66 543.47,-31.66 543.47,-25.66 543.47,-25.66 543.47,-13.66 543.47,-13.66 543.47,-7.66 549.47,-1.66 555.47,-1.66 555.47,-1.66 585.47,-1.66 585.47,-1.66 591.47,-1.66 597.47,-7.66 597.47,-13.66 597.47,-13.66 597.47,-25.66 597.47,-25.66 597.47,-31.66 591.47,-37.66 585.47,-37.66"/>
<text text-anchor="middle" x="570.47" y="-14.23" font-family="Arial" font-size="14.00">FB</text>
</g>
<!-- XB&#45;&gt;FB -->
<g id="edge10" class="edge">
<title>XB&#45;&gt;FB</title>
<path fill="none" stroke="black" d="M485.36,-19.66C499.47,-19.66 516.7,-19.66 531.89,-19.66"/>
<polygon fill="black" stroke="black" points="531.51,-23.16 541.51,-19.66 531.51,-16.16 531.51,-23.16"/>
<text text-anchor="middle" x="514.22" y="-22.11" font-family="Arial" font-size="14.00">a, b</text>
</g>
<!-- A&#45;&gt;I -->
<g id="edge4" class="edge">
<title>A&#45;&gt;I</title>
<path fill="none" stroke="black" d="M138.73,-44.42C132.17,-40.12 124.74,-36.14 117.22,-33.91 112.86,-32.61 108.19,-31.93 103.52,-31.68"/>
<polygon fill="black" stroke="black" points="103.53,-28.18 93.58,-31.82 103.62,-35.18 103.53,-28.18"/>
<text text-anchor="middle" x="113.47" y="-36.36" font-family="Arial" font-size="14.00">c</text>
</g>
<!-- FA -->
<g id="node6" class="node">
<title>FA</title>
<path fill="none" stroke="black" d="M274.72,-67.66C274.72,-67.66 244.72,-67.66 244.72,-67.66 238.72,-67.66 232.72,-61.66 232.72,-55.66 232.72,-55.66 232.72,-43.66 232.72,-43.66 232.72,-37.66 238.72,-31.66 244.72,-31.66 244.72,-31.66 274.72,-31.66 274.72,-31.66 280.72,-31.66 286.72,-37.66 286.72,-43.66 286.72,-43.66 286.72,-55.66 286.72,-55.66 286.72,-61.66 280.72,-67.66 274.72,-67.66"/>
<text text-anchor="middle" x="259.72" y="-44.23" font-family="Arial" font-size="14.00">FA</text>
</g>
<!-- A&#45;&gt;FA -->
<g id="edge5" class="edge">
<title>A&#45;&gt;FA</title>
<path fill="none" stroke="black" d="M189.52,-64.11C197.64,-64.16 206.58,-63.83 214.72,-62.66 216.91,-62.34 219.14,-61.94 221.38,-61.48"/>
<polygon fill="black" stroke="black" points="222.13,-64.9 231,-59.11 220.45,-58.1 222.13,-64.9"/>
<text text-anchor="middle" x="210.97" y="-65.9" font-family="Arial" font-size="14.00">d</text>
</g>
<!-- B&#45;&gt;XB -->
<g id="edge6" class="edge">
<title>B&#45;&gt;XB</title>
<path fill="none" stroke="black" d="M384.66,-19.66C394.09,-19.66 404.93,-19.66 415.23,-19.66"/>
<polygon fill="black" stroke="black" points="415.02,-23.16 425.02,-19.66 415.02,-16.16 415.02,-23.16"/>
<text text-anchor="middle" x="405.6" y="-22.11" font-family="Arial" font-size="14.00">c</text>
</g>
<!-- FA&#45;&gt;A -->
<g id="edge7" class="edge">
<title>FA&#45;&gt;A</title>
<path fill="none" stroke="black" d="M232.38,-42.76C224.26,-41.55 215.33,-41.17 207.22,-42.91 204.92,-43.4 202.59,-44.02 200.27,-44.74"/>
<polygon fill="black" stroke="black" points="199.19,-41.41 191.02,-48.15 201.61,-47.98 199.19,-41.41"/>
<text text-anchor="middle" x="210.97" y="-45.36" font-family="Arial" font-size="14.00">a</text>
</g>
<!-- FA&#45;&gt;B -->
<g id="edge8" class="edge">
<title>FA&#45;&gt;B</title>
<path fill="none" stroke="black" d="M287.07,-41.38C296.98,-38.26 308.45,-34.66 319.17,-31.3"/>
<polygon fill="black" stroke="black" points="320.02,-34.7 328.51,-28.36 317.92,-28.02 320.02,-34.7"/>
<text text-anchor="middle" x="308.47" y="-38.01" font-family="Arial" font-size="14.00">b</text>
</g>
<!-- FB&#45;&gt;XB -->
<g id="edge9" class="edge">
<title>FB&#45;&gt;XB</title>
<path fill="none" stroke="black" d="M542.98,-7.08C537.32,-4.93 531.29,-3.04 525.47,-1.91 515.65,0 512.8,-0.07 502.97,-1.91 500.67,-2.33 498.33,-2.87 496,-3.5"/>
<polygon fill="black" stroke="black" points="495.13,-0.1 486.65,-6.44 497.24,-6.78 495.13,-0.1"/>
<text text-anchor="middle" x="514.22" y="-4.36" font-family="Arial" font-size="14.00">d</text>
</g>
</g>
</svg>
