<?xml version="1.0" encoding="UTF-8" standalone="no"?>
<!DOCTYPE svg PUBLIC "-//W3C//DTD SVG 1.1//EN"
 "http://www.w3.org/Graphics/SVG/1.1/DTD/svg11.dtd">
<!-- Generated by graphviz version 2.43.0 (0)
 -->
<!-- Title: A&#45;B&#45;Machine Pages: 1 -->
<svg width="492pt" height="136pt"
 viewBox="0.00 0.00 492.00 135.85" xmlns="http://www.w3.org/2000/svg" xmlns:xlink="http://www.w3.org/1999/xlink">
<g id="graph0" class="graph" transform="scale(1 1) rotate(0) translate(4 131.85)">
<title>A&#45;B&#45;Machine</title>
<!-- dot_dummyinit_1 -->
<g id="node1" class="node">
<title>dot_dummyinit_1</title>
</g>
<!-- I -->
<g id="node2" class="node">
<title>I</title>
<path fill="none" stroke="black" d="M80,-72.85C80,-72.85 50,-72.85 50,-72.85 44,-72.85 38,-66.85 38,-60.85 38,-60.85 38,-48.85 38,-48.85 38,-42.85 44,-36.85 50,-36.85 50,-36.85 80,-36.85 80,-36.85 86,-36.85 92,-42.85 92,-48.85 92,-48.85 92,-60.85 92,-60.85 92,-66.85 86,-72.85 80,-72.85"/>
<text text-anchor="start" x="55" y="-50.65" font-family="Arial" font-size="14.00">I</text>
<polygon fill="black" stroke="transparent" points="69,-44.85 69,-63.85 77,-63.85 77,-44.85 69,-44.85"/>
</g>
<!-- dot_dummyinit_1&#45;&gt;I -->
<g id="edge1" class="edge">
<title>dot_dummyinit_1&#45;&gt;I</title>
<path fill="none" stroke="black" d="M1.05,-54.85C1.88,-54.85 14.11,-54.85 27.57,-54.85"/>
<polygon fill="black" stroke="black" points="27.94,-58.35 37.94,-54.85 27.94,-51.35 27.94,-58.35"/>
</g>
<!-- A -->
<g id="node3" class="node">
<title>A</title>
<path fill="none" stroke="black" d="M178,-127.85C178,-127.85 148,-127.85 148,-127.85 142,-127.85 136,-121.85 136,-115.85 136,-115.85 136,-103.85 136,-103.85 136,-97.85 142,-91.85 148,-91.85 148,-91.85 178,-91.85 178,-91.85 184,-91.85 190,-97.85 190,-103.85 190,-103.85 190,-115.85 190,-115.85 190,-121.85 184,-127.85 178,-127.85"/>
<text text-anchor="middle" x="163" y="-106.15" font-family="Arial" font-size="14.00">A</text>
</g>
<!-- I&#45;&gt;A -->
<g id="edge2" class="edge">
<title>I&#45;&gt;A</title>
<path fill="none" stroke="black" d="M88.11,-73.08C94.9,-78.22 102.55,-83.57 110,-87.85 115.17,-90.83 120.82,-93.63 126.43,-96.18"/>
<polygon fill="black" stroke="black" points="125.18,-99.45 135.75,-100.2 127.96,-93.02 125.18,-99.45"/>
<text text-anchor="middle" x="114" y="-94.65" font-family="Arial" font-size="14.00">a</text>
</g>
<!-- B -->
<g id="node4" class="node">
<title>B</title>
<path fill="none" stroke="black" d="M374,-75.85C374,-75.85 344,-75.85 344,-75.85 338,-75.85 332,-69.85 332,-63.85 332,-63.85 332,-51.85 332,-51.85 332,-45.85 338,-39.85 344,-39.85 344,-39.85 374,-39.85 374,-39.85 380,-39.85 386,-45.85 386,-51.85 386,-51.85 386,-63.85 386,-63.85 386,-69.85 380,-75.85 374,-75.85"/>
<text text-anchor="middle" x="359" y="-54.15" font-family="Arial" font-size="14.00">B</text>
</g>
<!-- I&#45;&gt;B -->
<g id="edge3" class="edge">
<title>I&#45;&gt;B</title>
<path fill="none" stroke="black" d="M89.27,-36.66C95.71,-32.29 102.89,-27.98 110,-24.85 154.13,-5.44 168.11,3.69 216,-1.85 260.44,-7 273.47,-5.92 314,-24.85 319.19,-27.28 324.37,-30.38 329.25,-33.71"/>
<polygon fill="black" stroke="black" points="327.51,-36.78 337.65,-39.84 331.64,-31.12 327.51,-36.78"/>
<text text-anchor="middle" x="212" y="-5.65" font-family="Arial" font-size="14.00">b</text>
</g>
<!-- A&#45;&gt;I -->
<g id="edge4" class="edge">
<title>A&#45;&gt;I</title>
<path fill="none" stroke="black" d="M146.42,-91.75C138.62,-83.7 128.59,-74.73 118,-68.85 113.04,-66.1 107.52,-63.87 101.97,-62.07"/>
<polygon fill="black" stroke="black" points="102.66,-58.62 92.08,-59.26 100.75,-65.36 102.66,-58.62"/>
<text text-anchor="middle" x="114" y="-72.65" font-family="Arial" font-size="14.00">c</text>
</g>
<!-- FA -->
<g id="node5" class="node">
<title>FA</title>
<path fill="none" stroke="black" d="M276,-102.85C276,-102.85 246,-102.85 246,-102.85 240,-102.85 234,-96.85 234,-90.85 234,-90.85 234,-78.85 234,-78.85 234,-72.85 240,-66.85 246,-66.85 246,-66.85 276,-66.85 276,-66.85 282,-66.85 288,-72.85 288,-78.85 288,-78.85 288,-90.85 288,-90.85 288,-96.85 282,-102.85 276,-102.85"/>
<text text-anchor="middle" x="261" y="-81.15" font-family="Arial" font-size="14.00">FA</text>
</g>
<!-- A&#45;&gt;FA -->
<g id="edge5" class="edge">
<title>A&#45;&gt;FA</title>
<path fill="none" stroke="black" d="M183.53,-91.6C190.69,-86.08 199.2,-80.72 208,-77.85 213.01,-76.22 218.42,-75.69 223.78,-75.84"/>
<polygon fill="black" stroke="black" points="223.63,-79.34 233.93,-76.86 224.33,-72.37 223.63,-79.34"/>
<text text-anchor="middle" x="212" y="-81.65" font-family="Arial" font-size="14.00">d</text>
</g>
<!-- B&#45;&gt;I -->
<g id="edge6" class="edge">
<title>B&#45;&gt;I</title>
<path fill="none" stroke="black" d="M331.78,-57.59C279.45,-57.05 161.95,-55.84 102.27,-55.23"/>
<polygon fill="black" stroke="black" points="102.21,-51.73 92.17,-55.12 102.13,-58.73 102.21,-51.73"/>
<text text-anchor="middle" x="212" y="-59.65" font-family="Arial" font-size="14.00">c</text>
</g>
<!-- FB -->
<g id="node6" class="node">
<title>FB</title>
<path fill="none" stroke="black" d="M472,-113.85C472,-113.85 442,-113.85 442,-113.85 436,-113.85 430,-107.85 430,-101.85 430,-101.85 430,-89.85 430,-89.85 430,-83.85 436,-77.85 442,-77.85 442,-77.85 472,-77.85 472,-77.85 478,-77.85 484,-83.85 484,-89.85 484,-89.85 484,-101.85 484,-101.85 484,-107.85 478,-113.85 472,-113.85"/>
<text text-anchor="middle" x="457" y="-92.15" font-family="Arial" font-size="14.00">FB</text>
</g>
<!-- B&#45;&gt;FB -->
<g id="edge7" class="edge">
<title>B&#45;&gt;FB</title>
<path fill="none" stroke="black" d="M386.23,-68.24C396.71,-72.39 408.94,-77.23 420.21,-81.69"/>
<polygon fill="black" stroke="black" points="419.21,-85.06 429.8,-85.48 421.79,-78.55 419.21,-85.06"/>
<text text-anchor="middle" x="408" y="-81.65" font-family="Arial" font-size="14.00">d</text>
</g>
<!-- FA&#45;&gt;A -->
<g id="edge8" class="edge">
<title>FA&#45;&gt;A</title>
<path fill="none" stroke="black" d="M233.8,-91.68C223.43,-94.38 211.34,-97.53 200.16,-100.44"/>
<polygon fill="black" stroke="black" points="199.03,-97.12 190.23,-103.02 200.79,-103.89 199.03,-97.12"/>
<text text-anchor="middle" x="212" y="-101.65" font-family="Arial" font-size="14.00">a</text>
</g>
<!-- FA&#45;&gt;B -->
<g id="edge9" class="edge">
<title>FA&#45;&gt;B</title>
<path fill="none" stroke="black" d="M288.23,-77.48C298.6,-74.56 310.69,-71.16 321.87,-68.02"/>
<polygon fill="black" stroke="black" points="323.12,-71.3 331.8,-65.22 321.23,-64.56 323.12,-71.3"/>
<text text-anchor="middle" x="310" y="-75.65" font-family="Arial" font-size="14.00">b</text>
</g>
<!-- FB&#45;&gt;A -->
<g id="edge10" class="edge">
<title>FB&#45;&gt;A</title>
<path fill="none" stroke="black" d="M429.78,-99.06C385.71,-104.24 293.96,-114.15 216,-116.85 212.45,-116.98 211.54,-117.14 208,-116.85 205.59,-116.66 203.12,-116.42 200.63,-116.13"/>
<polygon fill="black" stroke="black" points="200.82,-112.62 190.44,-114.75 199.89,-119.56 200.82,-112.62"/>
<text text-anchor="middle" x="310" y="-114.65" font-family="Arial" font-size="14.00">a</text>
</g>
<!-- FB&#45;&gt;B -->
<g id="edge11" class="edge">
<title>FB&#45;&gt;B</title>
<path fill="none" stroke="black" d="M441.72,-77.76C433.95,-69.39 423.55,-60.32 412,-55.85 407.07,-53.95 401.68,-53.02 396.29,-52.72"/>
<polygon fill="black" stroke="black" points="396.03,-49.22 386.07,-52.82 396.1,-56.22 396.03,-49.22"/>
<text text-anchor="middle" x="408" y="-59.65" font-family="Arial" font-size="14.00">b</text>
</g>
</g>
</svg>
