<?xml version="1.0" encoding="UTF-8" standalone="no"?>
<!DOCTYPE svg PUBLIC "-//W3C//DTD SVG 1.1//EN"
 "http://www.w3.org/Graphics/SVG/1.1/DTD/svg11.dtd">
<!-- Generated by graphviz version 12.2.1 (20241206.2353)
 -->
<!-- Title: wPlant1 Pages: 1 -->
<svg width="262pt" height="168pt"
 viewBox="0.00 0.00 261.97 168.00" xmlns="http://www.w3.org/2000/svg" xmlns:xlink="http://www.w3.org/1999/xlink">
<g id="graph0" class="graph" transform="scale(1 1) rotate(0) translate(4 164)">
<title>wPlant1</title>
<!-- dot_dummyinit_1 -->
<g id="node1" class="node">
<title>dot_dummyinit_1</title>
</g>
<!-- L1 -->
<g id="node2" class="node">
<title>L1</title>
<ellipse fill="none" stroke="black" cx="58.35" cy="-78" rx="20.63" ry="20.63"/>
<text text-anchor="middle" x="58.35" y="-72.58" font-family="Arial" font-size="14.00">L1</text>
</g>
<!-- dot_dummyinit_1&#45;&gt;L1 -->
<g id="edge1" class="edge">
<title>dot_dummyinit_1&#45;&gt;L1</title>
<path fill="none" stroke="black" d="M0.88,-78C2.37,-78 13.89,-78 26.14,-78"/>
<polygon fill="black" stroke="black" points="25.81,-81.5 35.81,-78 25.81,-74.5 25.81,-81.5"/>
</g>
<!-- B -->
<g id="node4" class="node">
<title>B</title>
<ellipse fill="none" stroke="black" cx="144.47" cy="-138" rx="18" ry="18"/>
<ellipse fill="none" stroke="black" cx="144.47" cy="-138" rx="22" ry="22"/>
<text text-anchor="middle" x="144.47" y="-132.57" font-family="Arial" font-size="14.00">B</text>
</g>
<!-- L1&#45;&gt;B -->
<g id="edge2" class="edge">
<title>L1&#45;&gt;B</title>
<path fill="none" stroke="black" d="M66.95,-97.22C73.06,-109.94 82.94,-125.73 96.97,-134 101.21,-136.5 106.06,-138.04 110.98,-138.93"/>
<polygon fill="black" stroke="black" points="110.59,-142.41 120.87,-139.85 111.24,-135.44 110.59,-142.41"/>
<text text-anchor="middle" x="100.72" y="-139.54" font-family="Arial" font-size="14.00">b</text>
</g>
<!-- L2 -->
<g id="node5" class="node">
<title>L2</title>
<ellipse fill="none" stroke="black" cx="144.47" cy="-60" rx="20.63" ry="20.63"/>
<text text-anchor="middle" x="144.47" y="-54.58" font-family="Arial" font-size="14.00">L2</text>
</g>
<!-- L1&#45;&gt;L2 -->
<g id="edge3" class="edge">
<title>L1&#45;&gt;L2</title>
<path fill="none" stroke="black" d="M78.86,-73.83C88.87,-71.68 101.31,-69.02 112.59,-66.61"/>
<polygon fill="black" stroke="black" points="113.25,-70.05 122.29,-64.53 111.78,-63.2 113.25,-70.05"/>
<text text-anchor="middle" x="100.72" y="-71.99" font-family="Arial" font-size="14.00">d</text>
</g>
<!-- A -->
<g id="node3" class="node">
<title>A</title>
<ellipse fill="none" stroke="black" cx="231.97" cy="-22" rx="18" ry="18"/>
<ellipse fill="none" stroke="black" cx="231.97" cy="-22" rx="22" ry="22"/>
<text text-anchor="middle" x="231.97" y="-16.57" font-family="Arial" font-size="14.00">A</text>
</g>
<!-- A&#45;&gt;L1 -->
<g id="edge6" class="edge">
<title>A&#45;&gt;L1</title>
<path fill="none" stroke="black" d="M210.9,-15.33C188.43,-9.02 151.4,-2.18 122.47,-14.25 104.07,-21.92 88.3,-37.85 77.12,-51.87"/>
<polygon fill="black" stroke="black" points="74.59,-49.4 71.36,-59.49 80.18,-53.62 74.59,-49.4"/>
<text text-anchor="middle" x="144.47" y="-16.7" font-family="Arial" font-size="14.00">c</text>
</g>
<!-- B&#45;&gt;L1 -->
<g id="edge7" class="edge">
<title>B&#45;&gt;L1</title>
<path fill="none" stroke="black" d="M125.85,-125.43C113.92,-116.92 97.96,-105.54 84.68,-96.07"/>
<polygon fill="black" stroke="black" points="86.97,-93.4 76.8,-90.45 82.91,-99.1 86.97,-93.4"/>
<text text-anchor="middle" x="100.72" y="-112.25" font-family="Arial" font-size="14.00">d</text>
</g>
<!-- L2&#45;&gt;L1 -->
<g id="edge5" class="edge">
<title>L2&#45;&gt;L1</title>
<path fill="none" stroke="black" d="M125.59,-50.63C116.86,-47.27 106.25,-45.02 96.97,-48.25 91.74,-50.07 86.69,-52.95 82.07,-56.22"/>
<polygon fill="black" stroke="black" points="80.09,-53.32 74.48,-62.31 84.47,-58.78 80.09,-53.32"/>
<text text-anchor="middle" x="100.72" y="-50.7" font-family="Arial" font-size="14.00">d</text>
</g>
<!-- L2&#45;&gt;A -->
<g id="edge4" class="edge">
<title>L2&#45;&gt;A</title>
<path fill="none" stroke="black" d="M163.6,-51.94C174.45,-47.12 188.49,-40.88 200.95,-35.34"/>
<polygon fill="black" stroke="black" points="202.28,-38.58 209.99,-31.32 199.43,-32.19 202.28,-38.58"/>
<text text-anchor="middle" x="188.22" y="-44.59" font-family="Arial" font-size="14.00">a</text>
</g>
</g>
</svg>
