<?xml version="1.0" encoding="UTF-8" standalone="no"?>
<!DOCTYPE svg PUBLIC "-//W3C//DTD SVG 1.1//EN"
 "http://www.w3.org/Graphics/SVG/1.1/DTD/svg11.dtd">
<!-- Generated by graphviz version 12.2.1 (20241206.2353)
 -->
<!-- Title: Generator Pages: 1 -->
<svg width="720pt" height="111pt"
 viewBox="0.00 0.00 720.00 111.46" xmlns="http://www.w3.org/2000/svg" xmlns:xlink="http://www.w3.org/1999/xlink">
<g id="graph0" class="graph" transform="scale(0.819579 0.819579) rotate(0) translate(4 132)">
<title>Generator</title>
<!-- dot_dummyinit_0 -->
<g id="node1" class="node">
<title>dot_dummyinit_0</title>
</g>
<!-- A|I -->
<g id="node2" class="node">
<title>A|I</title>
<path fill="none" stroke="black" d="M150.5,-85C150.5,-85 103,-85 103,-85 97,-85 91,-79 91,-73 91,-73 91,-61 91,-61 91,-55 97,-49 103,-49 103,-49 150.5,-49 150.5,-49 156.5,-49 162.5,-55 162.5,-61 162.5,-61 162.5,-73 162.5,-73 162.5,-79 156.5,-85 150.5,-85"/>
<text text-anchor="start" x="103" y="-61.58" font-family="Arial" font-size="14.00">A|I</text>
<polygon fill="lightblue" stroke="none" points="130.5,-57.12 130.5,-76.88 140.5,-76.88 140.5,-57.12 130.5,-57.12"/>
<polygon fill="black" stroke="none" points="142.5,-57.12 142.5,-76.88 152.5,-76.88 152.5,-57.12 142.5,-57.12"/>
</g>
<!-- dot_dummyinit_0&#45;&gt;A|I -->
<g id="edge1" class="edge">
<title>dot_dummyinit_0&#45;&gt;A|I</title>
<path fill="none" stroke="black" d="M53.94,-67C61.8,-67 70.69,-67 79.47,-67"/>
<polygon fill="black" stroke="black" points="79.34,-70.5 89.34,-67 79.34,-63.5 79.34,-70.5"/>
</g>
<!-- A|R -->
<g id="node5" class="node">
<title>A|R</title>
<path fill="none" stroke="black" d="M259.5,-128C259.5,-128 218,-128 218,-128 212,-128 206,-122 206,-116 206,-116 206,-104 206,-104 206,-98 212,-92 218,-92 218,-92 259.5,-92 259.5,-92 265.5,-92 271.5,-98 271.5,-104 271.5,-104 271.5,-116 271.5,-116 271.5,-122 265.5,-128 259.5,-128"/>
<text text-anchor="start" x="218" y="-104.58" font-family="Arial" font-size="14.00">A|R</text>
<polygon fill="lightblue" stroke="none" points="251.5,-100.12 251.5,-119.88 261.5,-119.88 261.5,-100.12 251.5,-100.12"/>
</g>
<!-- A|I&#45;&gt;A|R -->
<g id="edge2" class="edge">
<title>A|I&#45;&gt;A|R</title>
<path fill="none" stroke="black" d="M151.56,-85.34C160.25,-91.2 170.42,-97.16 180.5,-101 184.94,-102.69 189.69,-104.07 194.49,-105.18"/>
<polygon fill="black" stroke="black" points="193.67,-108.59 204.16,-107.06 195.01,-101.72 193.67,-108.59"/>
<text text-anchor="middle" x="184.25" y="-105.93" font-family="Arial" font-size="14.00">a</text>
</g>
<!-- B|R -->
<g id="node6" class="node">
<title>B|R</title>
<path fill="none" stroke="black" d="M488,-69C488,-69 434.5,-69 434.5,-69 428.5,-69 422.5,-63 422.5,-57 422.5,-57 422.5,-45 422.5,-45 422.5,-39 428.5,-33 434.5,-33 434.5,-33 488,-33 488,-33 494,-33 500,-39 500,-45 500,-45 500,-57 500,-57 500,-63 494,-69 488,-69"/>
<text text-anchor="start" x="434.5" y="-45.58" font-family="Arial" font-size="14.00">B|R</text>
<polygon fill="lightblue" stroke="none" points="468,-41.12 468,-60.88 478,-60.88 478,-41.12 468,-41.12"/>
<polygon fill="darkblue" stroke="none" points="480,-41.12 480,-60.88 490,-60.88 490,-41.12 480,-41.12"/>
</g>
<!-- A|I&#45;&gt;B|R -->
<g id="edge3" class="edge">
<title>A|I&#45;&gt;B|R</title>
<path fill="none" stroke="black" d="M162.7,-65.32C222.13,-62.46 342.99,-56.64 410.97,-53.37"/>
<polygon fill="black" stroke="black" points="410.88,-56.88 420.7,-52.9 410.54,-49.89 410.88,-56.88"/>
<text text-anchor="middle" x="293.25" y="-61.63" font-family="Arial" font-size="14.00">b</text>
</g>
<!-- dump|R -->
<g id="node3" class="node">
<title>dump|R</title>
<path fill="none" stroke="black" d="M715,-69C715,-69 675,-69 675,-69 669,-69 663,-63 663,-57 663,-57 663,-45 663,-45 663,-39 669,-33 675,-33 675,-33 715,-33 715,-33 721,-33 727,-39 727,-45 727,-45 727,-57 727,-57 727,-63 721,-69 715,-69"/>
<text text-anchor="middle" x="695" y="-45.58" font-family="Arial" font-size="14.00">dump|R</text>
</g>
<!-- dump|F -->
<g id="node4" class="node">
<title>dump|F</title>
<path fill="none" stroke="black" d="M847.25,-102C847.25,-102 808.75,-102 808.75,-102 802.75,-102 796.75,-96 796.75,-90 796.75,-90 796.75,-78 796.75,-78 796.75,-72 802.75,-66 808.75,-66 808.75,-66 847.25,-66 847.25,-66 853.25,-66 859.25,-72 859.25,-78 859.25,-78 859.25,-90 859.25,-90 859.25,-96 853.25,-102 847.25,-102"/>
<text text-anchor="middle" x="828" y="-78.58" font-family="Arial" font-size="14.00">dump|F</text>
</g>
<!-- dump|R&#45;&gt;dump|F -->
<g id="edge11" class="edge">
<title>dump|R&#45;&gt;dump|F</title>
<path fill="none" stroke="black" d="M714.32,-69.35C722.89,-76.65 733.68,-84.21 745,-88 757.65,-92.24 772.01,-92.84 785.14,-91.91"/>
<polygon fill="black" stroke="black" points="785.2,-95.42 794.78,-90.89 784.47,-88.46 785.2,-95.42"/>
<text text-anchor="middle" x="756.25" y="-94.49" font-family="Arial" font-size="14.00">d</text>
</g>
<!-- dump|I -->
<g id="node8" class="node">
<title>dump|I</title>
<path fill="none" stroke="black" d="M858.5,-36C858.5,-36 797.5,-36 797.5,-36 791.5,-36 785.5,-30 785.5,-24 785.5,-24 785.5,-12 785.5,-12 785.5,-6 791.5,0 797.5,0 797.5,0 858.5,0 858.5,0 864.5,0 870.5,-6 870.5,-12 870.5,-12 870.5,-24 870.5,-24 870.5,-30 864.5,-36 858.5,-36"/>
<text text-anchor="start" x="797.5" y="-12.57" font-family="Arial" font-size="14.00">dump|I</text>
<polygon fill="black" stroke="none" points="850.5,-8.12 850.5,-27.88 860.5,-27.88 860.5,-8.12 850.5,-8.12"/>
</g>
<!-- dump|R&#45;&gt;dump|I -->
<g id="edge10" class="edge">
<title>dump|R&#45;&gt;dump|I</title>
<path fill="none" stroke="black" d="M727.39,-38.77C733.19,-36.76 739.24,-34.82 745,-33.25 754.34,-30.71 764.39,-28.45 774.15,-26.51"/>
<polygon fill="black" stroke="black" points="774.75,-29.96 783.92,-24.66 773.44,-23.08 774.75,-29.96"/>
<text text-anchor="middle" x="756.25" y="-35.7" font-family="Arial" font-size="14.00">c</text>
</g>
<!-- dump|F&#45;&gt;dump|R -->
<g id="edge13" class="edge">
<title>dump|F&#45;&gt;dump|R</title>
<path fill="none" stroke="black" d="M796.46,-75.78C787.17,-73.31 776.93,-70.63 767.5,-68.25 758.07,-65.86 747.92,-63.37 738.31,-61.04"/>
<polygon fill="black" stroke="black" points="739.37,-57.7 728.83,-58.76 737.73,-64.51 739.37,-57.7"/>
<text text-anchor="middle" x="756.25" y="-70.7" font-family="Arial" font-size="14.00">a, b</text>
</g>
<!-- A|R&#45;&gt;A|I -->
<g id="edge4" class="edge">
<title>A|R&#45;&gt;A|I</title>
<path fill="none" stroke="black" d="M209.27,-91.65C202.48,-87.82 195.14,-84.09 188,-81.25 183.38,-79.41 178.46,-77.78 173.51,-76.33"/>
<polygon fill="black" stroke="black" points="174.72,-73.03 164.16,-73.83 172.92,-79.79 174.72,-73.03"/>
<text text-anchor="middle" x="184.25" y="-83.7" font-family="Arial" font-size="14.00">c</text>
</g>
<!-- A|F -->
<g id="node9" class="node">
<title>A|F</title>
<path fill="none" stroke="black" d="M367,-115C367,-115 327,-115 327,-115 321,-115 315,-109 315,-103 315,-103 315,-91 315,-91 315,-85 321,-79 327,-79 327,-79 367,-79 367,-79 373,-79 379,-85 379,-91 379,-91 379,-103 379,-103 379,-109 373,-115 367,-115"/>
<text text-anchor="start" x="327" y="-91.58" font-family="Arial" font-size="14.00">A|F</text>
<polygon fill="lightblue" stroke="none" points="359,-87.12 359,-106.88 369,-106.88 369,-87.12 359,-87.12"/>
</g>
<!-- A|R&#45;&gt;A|F -->
<g id="edge5" class="edge">
<title>A|R&#45;&gt;A|F</title>
<path fill="none" stroke="black" d="M271.94,-111.46C280.14,-111.43 288.92,-111.05 297,-110 299.16,-109.72 301.36,-109.37 303.57,-108.97"/>
<polygon fill="black" stroke="black" points="304.08,-112.44 313.13,-106.93 302.62,-105.59 304.08,-112.44"/>
<text text-anchor="middle" x="293.25" y="-113.12" font-family="Arial" font-size="14.00">d</text>
</g>
<!-- B|R&#45;&gt;A|I -->
<g id="edge6" class="edge">
<title>B|R&#45;&gt;A|I</title>
<path fill="none" stroke="black" d="M422.24,-45.04C387.62,-40.41 335.09,-35.37 289.5,-39.25 250.14,-42.6 205.97,-50.46 173.74,-56.97"/>
<polygon fill="black" stroke="black" points="173.44,-53.45 164.35,-58.9 174.85,-60.31 173.44,-53.45"/>
<text text-anchor="middle" x="293.25" y="-41.7" font-family="Arial" font-size="14.00">c</text>
</g>
<!-- B|F -->
<g id="node7" class="node">
<title>B|F</title>
<path fill="none" stroke="black" d="M607.5,-69C607.5,-69 555.5,-69 555.5,-69 549.5,-69 543.5,-63 543.5,-57 543.5,-57 543.5,-45 543.5,-45 543.5,-39 549.5,-33 555.5,-33 555.5,-33 607.5,-33 607.5,-33 613.5,-33 619.5,-39 619.5,-45 619.5,-45 619.5,-57 619.5,-57 619.5,-63 613.5,-69 607.5,-69"/>
<text text-anchor="start" x="555.5" y="-45.58" font-family="Arial" font-size="14.00">B|F</text>
<polygon fill="lightblue" stroke="none" points="587.5,-41.12 587.5,-60.88 597.5,-60.88 597.5,-41.12 587.5,-41.12"/>
<polygon fill="darkblue" stroke="none" points="599.5,-41.12 599.5,-60.88 609.5,-60.88 609.5,-41.12 599.5,-41.12"/>
</g>
<!-- B|R&#45;&gt;B|F -->
<g id="edge7" class="edge">
<title>B|R&#45;&gt;B|F</title>
<path fill="none" stroke="black" d="M500.32,-51C510.43,-51 521.49,-51 532.08,-51"/>
<polygon fill="black" stroke="black" points="531.8,-54.5 541.8,-51 531.8,-47.5 531.8,-54.5"/>
<text text-anchor="middle" x="521.75" y="-53.45" font-family="Arial" font-size="14.00">d</text>
</g>
<!-- B|F&#45;&gt;dump|R -->
<g id="edge9" class="edge">
<title>B|F&#45;&gt;dump|R</title>
<path fill="none" stroke="black" d="M619.94,-51C630.05,-51 641.07,-51 651.44,-51"/>
<polygon fill="black" stroke="black" points="651.28,-54.5 661.28,-51 651.28,-47.5 651.28,-54.5"/>
<text text-anchor="middle" x="641.25" y="-53.45" font-family="Arial" font-size="14.00">a</text>
</g>
<!-- B|F&#45;&gt;B|R -->
<g id="edge8" class="edge">
<title>B|F&#45;&gt;B|R</title>
<path fill="none" stroke="black" d="M543.09,-35.64C537.29,-33.83 531.3,-32.26 525.5,-31.25 520.85,-30.44 516.06,-30.4 511.3,-30.9"/>
<polygon fill="black" stroke="black" points="511,-27.39 501.81,-32.67 512.28,-34.28 511,-27.39"/>
<text text-anchor="middle" x="521.75" y="-33.7" font-family="Arial" font-size="14.00">b</text>
</g>
<!-- dump|I&#45;&gt;dump|R -->
<g id="edge12" class="edge">
<title>dump|I&#45;&gt;dump|R</title>
<path fill="none" stroke="black" d="M785.21,-5.54C772.03,-3.58 757.62,-3.52 745,-8.25 735.58,-11.78 726.78,-18.04 719.31,-24.69"/>
<polygon fill="black" stroke="black" points="717.03,-22.02 712.28,-31.49 721.9,-27.05 717.03,-22.02"/>
<text text-anchor="middle" x="756.25" y="-10.7" font-family="Arial" font-size="14.00">a, b</text>
</g>
<!-- A|F&#45;&gt;A|R -->
<g id="edge14" class="edge">
<title>A|F&#45;&gt;A|R</title>
<path fill="none" stroke="black" d="M314.8,-89.84C306.54,-88.88 297.65,-88.69 289.5,-90.25 287.22,-90.69 284.91,-91.23 282.6,-91.84"/>
<polygon fill="black" stroke="black" points="281.8,-88.43 273.31,-94.77 283.9,-95.1 281.8,-88.43"/>
<text text-anchor="middle" x="293.25" y="-92.7" font-family="Arial" font-size="14.00">a</text>
</g>
<!-- A|F&#45;&gt;B|R -->
<g id="edge15" class="edge">
<title>A|F&#45;&gt;B|R</title>
<path fill="none" stroke="black" d="M379.27,-84.19C389.39,-80.04 400.87,-75.33 411.94,-70.8"/>
<polygon fill="black" stroke="black" points="413.04,-74.13 420.97,-67.1 410.39,-67.65 413.04,-74.13"/>
<text text-anchor="middle" x="400.75" y="-79.2" font-family="Arial" font-size="14.00">b</text>
</g>
</g>
</svg>
