<?xml version="1.0" encoding="UTF-8" standalone="no"?>
<!DOCTYPE svg PUBLIC "-//W3C//DTD SVG 1.1//EN"
 "http://www.w3.org/Graphics/SVG/1.1/DTD/svg11.dtd">
<!-- Generated by graphviz version 2.43.0 (0)
 -->
<!-- Title: wSpec2 Pages: 1 -->
<svg width="686pt" height="291pt"
 viewBox="0.00 0.00 686.00 291.00" xmlns="http://www.w3.org/2000/svg" xmlns:xlink="http://www.w3.org/1999/xlink">
<g id="graph0" class="graph" transform="scale(1 1) rotate(0) translate(4 287)">
<title>wSpec2</title>
<!-- dot_dummyinit_1 -->
<g id="node1" class="node">
<title>dot_dummyinit_1</title>
</g>
<!-- N -->
<g id="node2" class="node">
<title>N</title>
<path fill="none" stroke="black" d="M80,-221C80,-221 50,-221 50,-221 44,-221 38,-215 38,-209 38,-209 38,-197 38,-197 38,-191 44,-185 50,-185 50,-185 80,-185 80,-185 86,-185 92,-191 92,-197 92,-197 92,-209 92,-209 92,-215 86,-221 80,-221"/>
<text text-anchor="middle" x="65" y="-199.3" font-family="Arial" font-size="14.00">N</text>
</g>
<!-- dot_dummyinit_1&#45;&gt;N -->
<g id="edge1" class="edge">
<title>dot_dummyinit_1&#45;&gt;N</title>
<path fill="none" stroke="black" d="M1.05,-203C1.88,-203 14.11,-203 27.57,-203"/>
<polygon fill="black" stroke="black" points="27.94,-206.5 37.94,-203 27.94,-199.5 27.94,-206.5"/>
</g>
<!-- N&#45;&gt;N -->
<g id="edge2" class="edge">
<title>N&#45;&gt;N</title>
<path fill="none" stroke="black" d="M57.04,-221.15C55.82,-230.54 58.47,-239 65,-239 68.98,-239 71.52,-235.86 72.62,-231.28"/>
<polygon fill="black" stroke="black" points="76.12,-231.26 72.96,-221.15 69.13,-231.03 76.12,-231.26"/>
<text text-anchor="middle" x="65" y="-242.8" font-family="Arial" font-size="14.00">a, b</text>
</g>
<!-- C1 -->
<g id="node5" class="node">
<title>C1</title>
<path fill="none" stroke="black" d="M177,-81C177,-81 147,-81 147,-81 141,-81 135,-75 135,-69 135,-69 135,-57 135,-57 135,-51 141,-45 147,-45 147,-45 177,-45 177,-45 183,-45 189,-51 189,-57 189,-57 189,-69 189,-69 189,-75 183,-81 177,-81"/>
<text text-anchor="middle" x="162" y="-59.3" font-family="Arial" font-size="14.00">C1</text>
</g>
<!-- N&#45;&gt;C1 -->
<g id="edge3" class="edge">
<title>N&#45;&gt;C1</title>
<path fill="none" stroke="black" d="M78.23,-184.98C94.59,-160.86 123.77,-117.87 142.75,-89.9"/>
<polygon fill="black" stroke="black" points="145.8,-91.63 148.52,-81.39 140.01,-87.7 145.8,-91.63"/>
<text text-anchor="middle" x="113.5" y="-140.8" font-family="Arial" font-size="14.00">c</text>
</g>
<!-- D1 -->
<g id="node7" class="node">
<title>D1</title>
<path fill="none" stroke="black" d="M471,-231C471,-231 441,-231 441,-231 435,-231 429,-225 429,-219 429,-219 429,-207 429,-207 429,-201 435,-195 441,-195 441,-195 471,-195 471,-195 477,-195 483,-201 483,-207 483,-207 483,-219 483,-219 483,-225 477,-231 471,-231"/>
<text text-anchor="middle" x="456" y="-209.3" font-family="Arial" font-size="14.00">D1</text>
</g>
<!-- N&#45;&gt;D1 -->
<g id="edge4" class="edge">
<title>N&#45;&gt;D1</title>
<path fill="none" stroke="black" d="M80.36,-221.11C97.37,-240.34 127.63,-268 161,-268 161,-268 161,-268 359,-268 385.32,-268 410.96,-252.24 429.12,-237.6"/>
<polygon fill="black" stroke="black" points="431.53,-240.14 436.91,-231.01 427.01,-234.8 431.53,-240.14"/>
<text text-anchor="middle" x="262" y="-271.8" font-family="Arial" font-size="14.00">d</text>
</g>
<!-- C2 -->
<g id="node3" class="node">
<title>C2</title>
<path fill="none" stroke="black" d="M279,-137C279,-137 245,-137 245,-137 239,-137 233,-131 233,-125 233,-125 233,-113 233,-113 233,-107 239,-101 245,-101 245,-101 279,-101 279,-101 285,-101 291,-107 291,-113 291,-113 291,-125 291,-125 291,-131 285,-137 279,-137"/>
<text text-anchor="start" x="245" y="-114.8" font-family="Arial" font-size="14.00">C2</text>
<polygon fill="black" stroke="transparent" points="273,-109 273,-128 281,-128 281,-109 273,-109"/>
</g>
<!-- C2&#45;&gt;C2 -->
<g id="edge7" class="edge">
<title>C2&#45;&gt;C2</title>
<path fill="none" stroke="black" d="M253.32,-137.15C251.98,-146.54 254.88,-155 262,-155 266.34,-155 269.11,-151.86 270.31,-147.28"/>
<polygon fill="black" stroke="black" points="273.82,-147.27 270.68,-137.15 266.82,-147.02 273.82,-147.27"/>
<text text-anchor="middle" x="262" y="-158.8" font-family="Arial" font-size="14.00">a, b</text>
</g>
<!-- C3 -->
<g id="node6" class="node">
<title>C3</title>
<path fill="none" stroke="black" d="M373,-156C373,-156 343,-156 343,-156 337,-156 331,-150 331,-144 331,-144 331,-132 331,-132 331,-126 337,-120 343,-120 343,-120 373,-120 373,-120 379,-120 385,-126 385,-132 385,-132 385,-144 385,-144 385,-150 379,-156 373,-156"/>
<text text-anchor="middle" x="358" y="-134.3" font-family="Arial" font-size="14.00">C3</text>
</g>
<!-- C2&#45;&gt;C3 -->
<g id="edge8" class="edge">
<title>C2&#45;&gt;C3</title>
<path fill="none" stroke="black" d="M291.2,-124.7C300.51,-126.58 311,-128.7 320.83,-130.69"/>
<polygon fill="black" stroke="black" points="320.25,-134.14 330.75,-132.69 321.64,-127.28 320.25,-134.14"/>
<text text-anchor="middle" x="311" y="-132.8" font-family="Arial" font-size="14.00">f</text>
</g>
<!-- C2&#45;&gt;D1 -->
<g id="edge9" class="edge">
<title>C2&#45;&gt;D1</title>
<path fill="none" stroke="black" d="M273.1,-137.2C284.52,-155.88 304.98,-184.11 331,-198 357.9,-212.36 392.67,-215.47 418.54,-215.35"/>
<polygon fill="black" stroke="black" points="418.75,-218.85 428.68,-215.15 418.61,-211.85 418.75,-218.85"/>
<text text-anchor="middle" x="358" y="-216.8" font-family="Arial" font-size="14.00">d</text>
</g>
<!-- D2 -->
<g id="node4" class="node">
<title>D2</title>
<path fill="none" stroke="black" d="M572,-159C572,-159 538,-159 538,-159 532,-159 526,-153 526,-147 526,-147 526,-135 526,-135 526,-129 532,-123 538,-123 538,-123 572,-123 572,-123 578,-123 584,-129 584,-135 584,-135 584,-147 584,-147 584,-153 578,-159 572,-159"/>
<text text-anchor="start" x="538" y="-136.8" font-family="Arial" font-size="14.00">D2</text>
<polygon fill="black" stroke="transparent" points="566,-131 566,-150 574,-150 574,-131 566,-131"/>
</g>
<!-- D2&#45;&gt;D2 -->
<g id="edge16" class="edge">
<title>D2&#45;&gt;D2</title>
<path fill="none" stroke="black" d="M546.32,-159.15C544.98,-168.54 547.88,-177 555,-177 559.34,-177 562.11,-173.86 563.31,-169.28"/>
<polygon fill="black" stroke="black" points="566.82,-169.27 563.68,-159.15 559.82,-169.02 566.82,-169.27"/>
<text text-anchor="middle" x="555" y="-180.8" font-family="Arial" font-size="14.00">a, b</text>
</g>
<!-- D2&#45;&gt;C1 -->
<g id="edge15" class="edge">
<title>D2&#45;&gt;C1</title>
<path fill="none" stroke="black" d="M545.59,-122.68C531.51,-95.08 500.37,-46 457,-46 261,-46 261,-46 261,-46 240.41,-46 217.73,-49.69 199.39,-53.63"/>
<polygon fill="black" stroke="black" points="198.39,-50.27 189.41,-55.89 199.93,-57.1 198.39,-50.27"/>
<text text-anchor="middle" x="358" y="-49.8" font-family="Arial" font-size="14.00">c</text>
</g>
<!-- D3 -->
<g id="node8" class="node">
<title>D3</title>
<path fill="none" stroke="black" d="M666,-110C666,-110 636,-110 636,-110 630,-110 624,-104 624,-98 624,-98 624,-86 624,-86 624,-80 630,-74 636,-74 636,-74 666,-74 666,-74 672,-74 678,-80 678,-86 678,-86 678,-98 678,-98 678,-104 672,-110 666,-110"/>
<text text-anchor="middle" x="651" y="-88.3" font-family="Arial" font-size="14.00">D3</text>
</g>
<!-- D2&#45;&gt;D3 -->
<g id="edge17" class="edge">
<title>D2&#45;&gt;D3</title>
<path fill="none" stroke="black" d="M584.2,-126.3C593.81,-121.29 604.67,-115.63 614.76,-110.37"/>
<polygon fill="black" stroke="black" points="616.5,-113.41 623.75,-105.69 613.26,-107.2 616.5,-113.41"/>
<text text-anchor="middle" x="604" y="-119.8" font-family="Arial" font-size="14.00">f</text>
</g>
<!-- C1&#45;&gt;C2 -->
<g id="edge6" class="edge">
<title>C1&#45;&gt;C2</title>
<path fill="none" stroke="black" d="M189,-77.86C199.76,-84.01 212.43,-91.24 224.11,-97.92"/>
<polygon fill="black" stroke="black" points="222.39,-100.97 232.81,-102.89 225.86,-94.89 222.39,-100.97"/>
<text text-anchor="middle" x="211" y="-95.8" font-family="Arial" font-size="14.00">d</text>
</g>
<!-- C1&#45;&gt;C1 -->
<g id="edge5" class="edge">
<title>C1&#45;&gt;C1</title>
<path fill="none" stroke="black" d="M153.32,-81.15C151.98,-90.54 154.88,-99 162,-99 166.34,-99 169.11,-95.86 170.31,-91.28"/>
<polygon fill="black" stroke="black" points="173.82,-91.27 170.68,-81.15 166.82,-91.02 173.82,-91.27"/>
<text text-anchor="middle" x="162" y="-102.8" font-family="Arial" font-size="14.00">a, b, c, f</text>
</g>
<!-- C3&#45;&gt;D2 -->
<g id="edge12" class="edge">
<title>C3&#45;&gt;D2</title>
<path fill="none" stroke="black" d="M385.3,-138.4C418.84,-138.92 477.11,-139.82 515.61,-140.41"/>
<polygon fill="black" stroke="black" points="515.86,-143.91 525.91,-140.57 515.97,-136.91 515.86,-143.91"/>
<text text-anchor="middle" x="456" y="-142.8" font-family="Arial" font-size="14.00">c</text>
</g>
<!-- C3&#45;&gt;C3 -->
<g id="edge10" class="edge">
<title>C3&#45;&gt;C3</title>
<path fill="none" stroke="black" d="M349.68,-156.15C348.4,-165.54 351.17,-174 358,-174 362.16,-174 364.82,-170.86 365.97,-166.28"/>
<polygon fill="black" stroke="black" points="369.47,-166.27 366.32,-156.15 362.47,-166.02 369.47,-166.27"/>
<text text-anchor="middle" x="358" y="-177.8" font-family="Arial" font-size="14.00">a, b</text>
</g>
<!-- C3&#45;&gt;D1 -->
<g id="edge11" class="edge">
<title>C3&#45;&gt;D1</title>
<path fill="none" stroke="black" d="M382.24,-156.16C394.65,-165.85 410.09,-177.92 423.56,-188.44"/>
<polygon fill="black" stroke="black" points="421.61,-191.35 431.64,-194.75 425.92,-185.84 421.61,-191.35"/>
<text text-anchor="middle" x="407" y="-180.8" font-family="Arial" font-size="14.00">d</text>
</g>
<!-- D1&#45;&gt;D2 -->
<g id="edge14" class="edge">
<title>D1&#45;&gt;D2</title>
<path fill="none" stroke="black" d="M481.48,-194.83C493.54,-185.88 508.25,-174.96 521.27,-165.3"/>
<polygon fill="black" stroke="black" points="523.59,-167.93 529.53,-159.16 519.41,-162.31 523.59,-167.93"/>
<text text-anchor="middle" x="504.5" y="-182.8" font-family="Arial" font-size="14.00">c</text>
</g>
<!-- D1&#45;&gt;D1 -->
<g id="edge13" class="edge">
<title>D1&#45;&gt;D1</title>
<path fill="none" stroke="black" d="M447.32,-231.15C445.98,-240.54 448.88,-249 456,-249 460.34,-249 463.11,-245.86 464.31,-241.28"/>
<polygon fill="black" stroke="black" points="467.82,-241.27 464.68,-231.15 460.82,-241.02 467.82,-241.27"/>
<text text-anchor="middle" x="456" y="-252.8" font-family="Arial" font-size="14.00">a, b, d, f</text>
</g>
<!-- D3&#45;&gt;C2 -->
<g id="edge19" class="edge">
<title>D3&#45;&gt;C2</title>
<path fill="none" stroke="black" d="M623.66,-92C604.82,-92 578.85,-92 556,-92 357,-92 357,-92 357,-92 337.98,-92 317.61,-97.17 300.71,-102.98"/>
<polygon fill="black" stroke="black" points="299.39,-99.74 291.2,-106.45 301.79,-106.32 299.39,-99.74"/>
<text text-anchor="middle" x="456" y="-95.8" font-family="Arial" font-size="14.00">d</text>
</g>
<!-- D3&#45;&gt;C1 -->
<g id="edge18" class="edge">
<title>D3&#45;&gt;C1</title>
<path fill="none" stroke="black" d="M641.62,-73.82C627.87,-47.01 597.79,0 556,0 261,0 261,0 261,0 231.8,0 204.36,-20.04 185.99,-37.51"/>
<polygon fill="black" stroke="black" points="183.31,-35.24 178.69,-44.78 188.25,-40.2 183.31,-35.24"/>
<text text-anchor="middle" x="407" y="-3.8" font-family="Arial" font-size="14.00">c</text>
</g>
<!-- D3&#45;&gt;D3 -->
<g id="edge20" class="edge">
<title>D3&#45;&gt;D3</title>
<path fill="none" stroke="black" d="M642.68,-110.15C641.4,-119.54 644.17,-128 651,-128 655.16,-128 657.82,-124.86 658.97,-120.28"/>
<polygon fill="black" stroke="black" points="662.47,-120.27 659.32,-110.15 655.47,-120.02 662.47,-120.27"/>
<text text-anchor="middle" x="651" y="-131.8" font-family="Arial" font-size="14.00">a, b</text>
</g>
</g>
</svg>
