<?xml version="1.0" encoding="UTF-8" standalone="no"?>
<!DOCTYPE svg PUBLIC "-//W3C//DTD SVG 1.1//EN"
 "http://www.w3.org/Graphics/SVG/1.1/DTD/svg11.dtd">
<!-- Generated by graphviz version 2.43.0 (0)
 -->
<!-- Title: very simple machine 1 Pages: 1 -->
<svg width="211pt" height="53pt"
 viewBox="0.00 0.00 211.00 52.90" xmlns="http://www.w3.org/2000/svg" xmlns:xlink="http://www.w3.org/1999/xlink">
<g id="graph0" class="graph" transform="scale(1 1) rotate(0) translate(4 48.9)">
<title>very simple machine 1</title>
<!-- dot_dummyinit_1 -->
<g id="node1" class="node">
<title>dot_dummyinit_1</title>
</g>
<!-- I -->
<g id="node2" class="node">
<title>I</title>
<ellipse fill="none" stroke="black" cx="60" cy="-22.9" rx="18" ry="18"/>
<ellipse fill="none" stroke="black" cx="60" cy="-22.9" rx="22" ry="22"/>
<text text-anchor="middle" x="60" y="-19.2" font-family="Arial" font-size="14.00">I</text>
</g>
<!-- dot_dummyinit_1&#45;&gt;I -->
<g id="edge1" class="edge">
<title>dot_dummyinit_1&#45;&gt;I</title>
<path fill="none" stroke="black" d="M1.17,-22.9C2.72,-22.9 14.89,-22.9 27.67,-22.9"/>
<polygon fill="black" stroke="black" points="27.86,-26.4 37.86,-22.9 27.86,-19.4 27.86,-26.4"/>
</g>
<!-- B -->
<g id="node3" class="node">
<title>B</title>
<ellipse fill="none" stroke="black" cx="185" cy="-22.9" rx="18" ry="18"/>
<text text-anchor="middle" x="185" y="-19.2" font-family="Arial" font-size="14.00">B</text>
</g>
<!-- I&#45;&gt;B -->
<g id="edge2" class="edge">
<title>I&#45;&gt;B</title>
<path fill="none" stroke="black" d="M82.14,-22.9C102.69,-22.9 133.98,-22.9 156.46,-22.9"/>
<polygon fill="black" stroke="black" points="156.7,-26.4 166.7,-22.9 156.7,-19.4 156.7,-26.4"/>
<text text-anchor="middle" x="124.5" y="-26.7" font-family="Arial" font-size="14.00">alpha_1</text>
</g>
<!-- B&#45;&gt;I -->
<g id="edge3" class="edge">
<title>B&#45;&gt;I</title>
<path fill="none" stroke="black" d="M169.69,-13.04C163.6,-9.41 156.24,-5.74 149,-3.9 127.89,1.46 121.22,0.99 100,-3.9 96.26,-4.77 92.46,-6.04 88.77,-7.53"/>
<polygon fill="black" stroke="black" points="87.04,-4.47 79.4,-11.82 89.95,-10.84 87.04,-4.47"/>
<text text-anchor="middle" x="124.5" y="-7.7" font-family="Arial" font-size="14.00">beta_1</text>
</g>
</g>
</svg>
