<?xml version="1.0" encoding="UTF-8" standalone="no"?>
<!DOCTYPE svg PUBLIC "-//W3C//DTD SVG 1.1//EN"
 "http://www.w3.org/Graphics/SVG/1.1/DTD/svg11.dtd">
<!-- Generated by graphviz version 2.43.0 (0)
 -->
<!-- Title: SupBuechiCon((wPlant1),(wSpec1)) Pages: 1 -->
<svg width="720pt" height="176pt"
 viewBox="0.00 0.00 720.00 175.91" xmlns="http://www.w3.org/2000/svg" xmlns:xlink="http://www.w3.org/1999/xlink">
<g id="graph0" class="graph" transform="scale(1.07 1.07) rotate(0) translate(4 183.69)">
<title>SupBuechiCon((wPlant1),(wSpec1))</title>
<!-- dot_dummyinit_1 -->
<g id="node1" class="node">
<title>dot_dummyinit_1</title>
</g>
<!-- 1 -->
<g id="node2" class="node">
<title>1</title>
<ellipse fill="none" stroke="black" cx="56" cy="-62.89" rx="18" ry="18"/>
<text text-anchor="middle" x="56" y="-59.19" font-family="Arial" font-size="14.00">1</text>
</g>
<!-- dot_dummyinit_1&#45;&gt;1 -->
<g id="edge1" class="edge">
<title>dot_dummyinit_1&#45;&gt;1</title>
<path fill="none" stroke="black" d="M1.15,-62.89C2.67,-62.89 15.1,-62.89 27.63,-62.89"/>
<polygon fill="black" stroke="black" points="27.94,-66.39 37.94,-62.89 27.94,-59.39 27.94,-66.39"/>
</g>
<!-- 2 -->
<g id="node4" class="node">
<title>2</title>
<ellipse fill="none" stroke="black" cx="136" cy="-101.89" rx="18" ry="18"/>
<text text-anchor="middle" x="136" y="-98.19" font-family="Arial" font-size="14.00">2</text>
</g>
<!-- 1&#45;&gt;2 -->
<g id="edge2" class="edge">
<title>1&#45;&gt;2</title>
<path fill="none" stroke="black" d="M72.41,-70.6C83.31,-76.04 98.14,-83.46 110.63,-89.71"/>
<polygon fill="black" stroke="black" points="109.11,-92.86 119.62,-94.2 112.24,-86.6 109.11,-92.86"/>
<text text-anchor="middle" x="96" y="-86.69" font-family="Arial" font-size="14.00">b</text>
</g>
<!-- 3 -->
<g id="node5" class="node">
<title>3</title>
<ellipse fill="none" stroke="black" cx="136" cy="-24.89" rx="18" ry="18"/>
<text text-anchor="middle" x="136" y="-21.19" font-family="Arial" font-size="14.00">3</text>
</g>
<!-- 1&#45;&gt;3 -->
<g id="edge3" class="edge">
<title>1&#45;&gt;3</title>
<path fill="none" stroke="black" d="M72.41,-55.38C83.31,-50.07 98.14,-42.85 110.63,-36.76"/>
<polygon fill="black" stroke="black" points="112.16,-39.91 119.62,-32.38 109.1,-33.62 112.16,-39.91"/>
<text text-anchor="middle" x="96" y="-48.69" font-family="Arial" font-size="14.00">d</text>
</g>
<!-- 5 -->
<g id="node3" class="node">
<title>5</title>
<ellipse fill="none" stroke="black" cx="498.19" cy="-38.89" rx="18" ry="18"/>
<ellipse fill="none" stroke="black" cx="498.19" cy="-38.89" rx="22" ry="22"/>
<text text-anchor="middle" x="498.19" y="-35.19" font-family="Arial" font-size="14.00">5</text>
</g>
<!-- 6 -->
<g id="node7" class="node">
<title>6</title>
<ellipse fill="none" stroke="black" cx="742.19" cy="-38.89" rx="18" ry="18"/>
<text text-anchor="middle" x="742.19" y="-35.19" font-family="Arial" font-size="14.00">6</text>
</g>
<!-- 5&#45;&gt;6 -->
<g id="edge8" class="edge">
<title>5&#45;&gt;6</title>
<path fill="none" stroke="black" d="M517.97,-48.77C524.3,-51.9 531.47,-55.24 538.19,-57.89 596.99,-81.1 617.68,-75.29 680.19,-65.89 693.13,-63.95 706.52,-58.46 717.45,-52.94"/>
<polygon fill="black" stroke="black" points="719.19,-55.98 726.35,-48.17 715.88,-49.81 719.19,-55.98"/>
<text text-anchor="middle" x="622.19" y="-77.69" font-family="Arial" font-size="14.00">b</text>
</g>
<!-- 7 -->
<g id="node8" class="node">
<title>7</title>
<ellipse fill="none" stroke="black" cx="582.19" cy="-38.89" rx="18" ry="18"/>
<text text-anchor="middle" x="582.19" y="-35.19" font-family="Arial" font-size="14.00">7</text>
</g>
<!-- 5&#45;&gt;7 -->
<g id="edge9" class="edge">
<title>5&#45;&gt;7</title>
<path fill="none" stroke="black" d="M520.31,-38.89C530.49,-38.89 542.82,-38.89 553.72,-38.89"/>
<polygon fill="black" stroke="black" points="554.01,-42.39 564.01,-38.89 554.01,-35.39 554.01,-42.39"/>
<text text-anchor="middle" x="542.19" y="-42.69" font-family="Arial" font-size="14.00">d</text>
</g>
<!-- 9 -->
<g id="node10" class="node">
<title>9</title>
<ellipse fill="none" stroke="black" cx="216" cy="-101.89" rx="18" ry="18"/>
<text text-anchor="middle" x="216" y="-98.19" font-family="Arial" font-size="14.00">9</text>
</g>
<!-- 2&#45;&gt;9 -->
<g id="edge4" class="edge">
<title>2&#45;&gt;9</title>
<path fill="none" stroke="black" d="M154.31,-101.89C164.11,-101.89 176.58,-101.89 187.67,-101.89"/>
<polygon fill="black" stroke="black" points="187.74,-105.39 197.74,-101.89 187.74,-98.39 187.74,-105.39"/>
<text text-anchor="middle" x="176" y="-105.69" font-family="Arial" font-size="14.00">d</text>
</g>
<!-- 3&#45;&gt;1 -->
<g id="edge5" class="edge">
<title>3&#45;&gt;1</title>
<path fill="none" stroke="black" d="M118.4,-20.66C110.13,-19.39 100.17,-19.18 92,-22.89 84.2,-26.43 77.46,-32.66 72.03,-39.17"/>
<polygon fill="black" stroke="black" points="69.07,-37.27 65.87,-47.37 74.67,-41.47 69.07,-37.27"/>
<text text-anchor="middle" x="96" y="-26.69" font-family="Arial" font-size="14.00">d</text>
</g>
<!-- 4 -->
<g id="node6" class="node">
<title>4</title>
<ellipse fill="none" stroke="black" cx="270" cy="-22.89" rx="18" ry="18"/>
<text text-anchor="middle" x="270" y="-19.19" font-family="Arial" font-size="14.00">4</text>
</g>
<!-- 3&#45;&gt;4 -->
<g id="edge6" class="edge">
<title>3&#45;&gt;4</title>
<path fill="none" stroke="black" d="M154.26,-24.63C176.49,-24.29 215.4,-23.7 241.68,-23.3"/>
<polygon fill="black" stroke="black" points="241.79,-26.8 251.74,-23.15 241.69,-19.8 241.79,-26.8"/>
<text text-anchor="middle" x="176" y="-27.69" font-family="Arial" font-size="14.00">a</text>
</g>
<!-- 4&#45;&gt;5 -->
<g id="edge7" class="edge">
<title>4&#45;&gt;5</title>
<path fill="none" stroke="black" d="M288,-24.09C325.83,-26.77 417.42,-33.25 465.89,-36.68"/>
<polygon fill="black" stroke="black" points="465.89,-40.18 476.11,-37.4 466.38,-33.2 465.89,-40.18"/>
<text text-anchor="middle" x="369.6" y="-33.69" font-family="Arial" font-size="14.00">c</text>
</g>
<!-- 6&#45;&gt;5 -->
<g id="edge10" class="edge">
<title>6&#45;&gt;5</title>
<path fill="none" stroke="black" d="M725.5,-30.82C713.4,-24.87 696.08,-16.96 680.19,-11.89 656.86,-4.45 650.56,-3.35 626.19,-0.89 590.86,2.67 551.99,-11.86 526.67,-23.97"/>
<polygon fill="black" stroke="black" points="525.06,-20.87 517.67,-28.46 528.18,-27.13 525.06,-20.87"/>
<text text-anchor="middle" x="622.19" y="-4.69" font-family="Arial" font-size="14.00">d</text>
</g>
<!-- 8 -->
<g id="node9" class="node">
<title>8</title>
<ellipse fill="none" stroke="black" cx="662.19" cy="-38.89" rx="18" ry="18"/>
<text text-anchor="middle" x="662.19" y="-35.19" font-family="Arial" font-size="14.00">8</text>
</g>
<!-- 7&#45;&gt;8 -->
<g id="edge11" class="edge">
<title>7&#45;&gt;8</title>
<path fill="none" stroke="black" d="M600.5,-38.89C610.3,-38.89 622.77,-38.89 633.86,-38.89"/>
<polygon fill="black" stroke="black" points="633.93,-42.39 643.93,-38.89 633.93,-35.39 633.93,-42.39"/>
<text text-anchor="middle" x="622.19" y="-42.69" font-family="Arial" font-size="14.00">d</text>
</g>
<!-- 8&#45;&gt;6 -->
<g id="edge12" class="edge">
<title>8&#45;&gt;6</title>
<path fill="none" stroke="black" d="M680.5,-38.89C690.3,-38.89 702.77,-38.89 713.86,-38.89"/>
<polygon fill="black" stroke="black" points="713.93,-42.39 723.93,-38.89 713.93,-35.39 713.93,-42.39"/>
<text text-anchor="middle" x="702.19" y="-42.69" font-family="Arial" font-size="14.00">b</text>
</g>
<!-- 8&#45;&gt;7 -->
<g id="edge13" class="edge">
<title>8&#45;&gt;7</title>
<path fill="none" stroke="black" d="M647.67,-27.72C639.4,-22.22 628.48,-17.28 618.19,-19.89 614.23,-20.9 610.24,-22.45 606.44,-24.24"/>
<polygon fill="black" stroke="black" points="604.67,-21.22 597.5,-29.02 607.97,-27.39 604.67,-21.22"/>
<text text-anchor="middle" x="622.19" y="-23.69" font-family="Arial" font-size="14.00">d</text>
</g>
<!-- 10 -->
<g id="node11" class="node">
<title>10</title>
<ellipse fill="none" stroke="black" cx="326.8" cy="-158.89" rx="20.6" ry="20.6"/>
<text text-anchor="middle" x="326.8" y="-155.19" font-family="Arial" font-size="14.00">10</text>
</g>
<!-- 9&#45;&gt;10 -->
<g id="edge14" class="edge">
<title>9&#45;&gt;10</title>
<path fill="none" stroke="black" d="M222.98,-118.76C228.44,-131.38 237.83,-147.81 252,-155.89 265.14,-163.38 281.83,-164.61 296.02,-163.75"/>
<polygon fill="black" stroke="black" points="296.66,-167.2 306.28,-162.76 295.99,-160.24 296.66,-167.2"/>
<text text-anchor="middle" x="270" y="-167.69" font-family="Arial" font-size="14.00">b</text>
</g>
<!-- 11 -->
<g id="node12" class="node">
<title>11</title>
<ellipse fill="none" stroke="black" cx="326.8" cy="-71.89" rx="20.3" ry="20.3"/>
<text text-anchor="middle" x="326.8" y="-68.19" font-family="Arial" font-size="14.00">11</text>
</g>
<!-- 9&#45;&gt;11 -->
<g id="edge15" class="edge">
<title>9&#45;&gt;11</title>
<path fill="none" stroke="black" d="M233.52,-97.33C250.51,-92.65 277.27,-85.27 297.61,-79.66"/>
<polygon fill="black" stroke="black" points="298.58,-83.03 307.29,-76.99 296.72,-76.28 298.58,-83.03"/>
<text text-anchor="middle" x="270" y="-95.69" font-family="Arial" font-size="14.00">d</text>
</g>
<!-- 10&#45;&gt;9 -->
<g id="edge16" class="edge">
<title>10&#45;&gt;9</title>
<path fill="none" stroke="black" d="M308.63,-148.56C302.21,-144.79 294.82,-140.55 288,-136.89 272.9,-128.78 255.66,-120.27 241.95,-113.67"/>
<polygon fill="black" stroke="black" points="243.2,-110.39 232.67,-109.23 240.18,-116.7 243.2,-110.39"/>
<text text-anchor="middle" x="270" y="-140.69" font-family="Arial" font-size="14.00">d</text>
</g>
<!-- 11&#45;&gt;9 -->
<g id="edge17" class="edge">
<title>11&#45;&gt;9</title>
<path fill="none" stroke="black" d="M307.72,-64.58C292.28,-59.51 269.8,-54.95 252,-62.89 244.29,-66.33 237.57,-72.4 232.13,-78.75"/>
<polygon fill="black" stroke="black" points="229.3,-76.69 225.96,-86.75 234.84,-80.97 229.3,-76.69"/>
<text text-anchor="middle" x="270" y="-66.69" font-family="Arial" font-size="14.00">d</text>
</g>
<!-- 12 -->
<g id="node13" class="node">
<title>12</title>
<ellipse fill="none" stroke="black" cx="412.39" cy="-71.89" rx="20.6" ry="20.6"/>
<text text-anchor="middle" x="412.39" y="-68.19" font-family="Arial" font-size="14.00">12</text>
</g>
<!-- 11&#45;&gt;12 -->
<g id="edge18" class="edge">
<title>11&#45;&gt;12</title>
<path fill="none" stroke="black" d="M347.19,-71.89C357.38,-71.89 370.1,-71.89 381.52,-71.89"/>
<polygon fill="black" stroke="black" points="381.53,-75.39 391.53,-71.89 381.53,-68.39 381.53,-75.39"/>
<text text-anchor="middle" x="369.6" y="-75.69" font-family="Arial" font-size="14.00">a</text>
</g>
<!-- 12&#45;&gt;5 -->
<g id="edge19" class="edge">
<title>12&#45;&gt;5</title>
<path fill="none" stroke="black" d="M431.99,-64.57C442.54,-60.41 455.98,-55.12 467.91,-50.42"/>
<polygon fill="black" stroke="black" points="469.46,-53.57 477.48,-46.65 466.89,-47.06 469.46,-53.57"/>
<text text-anchor="middle" x="454.69" y="-59.69" font-family="Arial" font-size="14.00">c</text>
</g>
</g>
</svg>
