<?xml version="1.0" encoding="UTF-8" standalone="no"?>
<!DOCTYPE svg PUBLIC "-//W3C//DTD SVG 1.1//EN"
 "http://www.w3.org/Graphics/SVG/1.1/DTD/svg11.dtd">
<!-- Generated by graphviz version 12.2.1 (20241206.2353)
 -->
<!-- Title: SupConCmpl(A&#45;B&#45;Machine&#45;B&#45;Exhausts, PrefixClosure(A&#45;B&#45;Spec&#45;Alternate.x.A&#45;B&#45;Machine&#45;B&#45;Exhausts)) [minstate] Pages: 1 -->
<svg width="336pt" height="149pt"
 viewBox="0.00 0.00 336.22 149.00" xmlns="http://www.w3.org/2000/svg" xmlns:xlink="http://www.w3.org/1999/xlink">
<g id="graph0" class="graph" transform="scale(1 1) rotate(0) translate(4 145)">
<title>SupConCmpl(A&#45;B&#45;Machine&#45;B&#45;Exhausts, PrefixClosure(A&#45;B&#45;Spec&#45;Alternate.x.A&#45;B&#45;Machine&#45;B&#45;Exhausts)) [minstate]</title>
<!-- dot_dummyinit_1 -->
<g id="node1" class="node">
<title>dot_dummyinit_1</title>
</g>
<!-- 1 -->
<g id="node2" class="node">
<title>1</title>
<ellipse fill="none" stroke="black" cx="59.72" cy="-22" rx="18" ry="18"/>
<ellipse fill="none" stroke="black" cx="59.72" cy="-22" rx="22" ry="22"/>
<text text-anchor="middle" x="59.72" y="-16.57" font-family="Arial" font-size="14.00">1</text>
</g>
<!-- dot_dummyinit_1&#45;&gt;1 -->
<g id="edge1" class="edge">
<title>dot_dummyinit_1&#45;&gt;1</title>
<path fill="none" stroke="black" d="M0.89,-22C2.38,-22 13.74,-22 26,-22"/>
<polygon fill="black" stroke="black" points="25.74,-25.5 35.74,-22 25.74,-18.5 25.74,-25.5"/>
</g>
<!-- 2 -->
<g id="node4" class="node">
<title>2</title>
<ellipse fill="none" stroke="black" cx="143.22" cy="-68" rx="18" ry="18"/>
<text text-anchor="middle" x="143.22" y="-62.58" font-family="Arial" font-size="14.00">2</text>
</g>
<!-- 1&#45;&gt;2 -->
<g id="edge2" class="edge">
<title>1&#45;&gt;2</title>
<path fill="none" stroke="black" d="M79.21,-32.44C90.51,-38.82 105.11,-47.05 117.41,-53.99"/>
<polygon fill="black" stroke="black" points="115.33,-56.84 125.75,-58.71 118.77,-50.74 115.33,-56.84"/>
<text text-anchor="middle" x="103.47" y="-50.2" font-family="Arial" font-size="14.00">a</text>
</g>
<!-- 3 -->
<g id="node3" class="node">
<title>3</title>
<ellipse fill="none" stroke="black" cx="226.72" cy="-119" rx="18" ry="18"/>
<ellipse fill="none" stroke="black" cx="226.72" cy="-119" rx="22" ry="22"/>
<text text-anchor="middle" x="226.72" y="-113.58" font-family="Arial" font-size="14.00">3</text>
</g>
<!-- 5 -->
<g id="node6" class="node">
<title>5</title>
<ellipse fill="none" stroke="black" cx="310.22" cy="-22" rx="18" ry="18"/>
<text text-anchor="middle" x="310.22" y="-16.57" font-family="Arial" font-size="14.00">5</text>
</g>
<!-- 3&#45;&gt;5 -->
<g id="edge5" class="edge">
<title>3&#45;&gt;5</title>
<path fill="none" stroke="black" d="M241.55,-102.55C255.08,-86.44 275.79,-61.79 290.74,-44"/>
<polygon fill="black" stroke="black" points="293.23,-46.47 296.98,-36.57 287.87,-41.97 293.23,-46.47"/>
<text text-anchor="middle" x="270.47" y="-72.95" font-family="Arial" font-size="14.00">b</text>
</g>
<!-- 2&#45;&gt;3 -->
<g id="edge3" class="edge">
<title>2&#45;&gt;3</title>
<path fill="none" stroke="black" d="M159.17,-77.35C170.01,-84.14 184.98,-93.51 197.99,-101.65"/>
<polygon fill="black" stroke="black" points="195.83,-104.42 206.16,-106.76 199.54,-98.49 195.83,-104.42"/>
<text text-anchor="middle" x="182.97" y="-95.95" font-family="Arial" font-size="14.00">c</text>
</g>
<!-- 4 -->
<g id="node5" class="node">
<title>4</title>
<ellipse fill="none" stroke="black" cx="226.72" cy="-58" rx="18" ry="18"/>
<text text-anchor="middle" x="226.72" y="-52.58" font-family="Arial" font-size="14.00">4</text>
</g>
<!-- 2&#45;&gt;4 -->
<g id="edge4" class="edge">
<title>2&#45;&gt;4</title>
<path fill="none" stroke="black" d="M161.5,-65.88C171.88,-64.61 185.33,-62.96 197.24,-61.49"/>
<polygon fill="black" stroke="black" points="197.46,-64.99 206.96,-60.3 196.61,-58.05 197.46,-64.99"/>
<text text-anchor="middle" x="182.97" y="-66.05" font-family="Arial" font-size="14.00">d</text>
</g>
<!-- 4&#45;&gt;2 -->
<g id="edge6" class="edge">
<title>4&#45;&gt;2</title>
<path fill="none" stroke="black" d="M211.06,-48.59C201.9,-43.89 189.87,-39.86 179.22,-43.25 174.8,-44.66 170.45,-46.84 166.41,-49.35"/>
<polygon fill="black" stroke="black" points="164.46,-46.44 158.35,-55.1 168.52,-52.14 164.46,-46.44"/>
<text text-anchor="middle" x="182.97" y="-45.7" font-family="Arial" font-size="14.00">a</text>
</g>
<!-- 5&#45;&gt;1 -->
<g id="edge7" class="edge">
<title>5&#45;&gt;1</title>
<path fill="none" stroke="black" d="M291.8,-22C250.62,-22 146.72,-22 93.39,-22"/>
<polygon fill="black" stroke="black" points="93.42,-18.5 83.42,-22 93.42,-25.5 93.42,-18.5"/>
<text text-anchor="middle" x="182.97" y="-24.45" font-family="Arial" font-size="14.00">c</text>
</g>
</g>
</svg>
