<?xml version="1.0" encoding="UTF-8" standalone="no"?>
<!DOCTYPE svg PUBLIC "-//W3C//DTD SVG 1.1//EN"
 "http://www.w3.org/Graphics/SVG/1.1/DTD/svg11.dtd">
<!-- Generated by graphviz version 12.2.1 (20241206.2353)
 -->
<!-- Title: wSpec3 Pages: 1 -->
<svg width="197pt" height="81pt"
 viewBox="0.00 0.00 197.22 80.52" xmlns="http://www.w3.org/2000/svg" xmlns:xlink="http://www.w3.org/1999/xlink">
<g id="graph0" class="graph" transform="scale(1 1) rotate(0) translate(4 76.52)">
<title>wSpec3</title>
<!-- dot_dummyinit_1 -->
<g id="node1" class="node">
<title>dot_dummyinit_1</title>
</g>
<!-- N -->
<g id="node2" class="node">
<title>N</title>
<path fill="none" stroke="black" d="M79.72,-38.77C79.72,-38.77 49.72,-38.77 49.72,-38.77 43.72,-38.77 37.72,-32.77 37.72,-26.77 37.72,-26.77 37.72,-14.77 37.72,-14.77 37.72,-8.77 43.72,-2.77 49.72,-2.77 49.72,-2.77 79.72,-2.77 79.72,-2.77 85.72,-2.77 91.72,-8.77 91.72,-14.77 91.72,-14.77 91.72,-26.77 91.72,-26.77 91.72,-32.77 85.72,-38.77 79.72,-38.77"/>
<text text-anchor="start" x="51.85" y="-15.34" font-family="Arial" font-size="14.00">N</text>
<polygon fill="black" stroke="none" points="71.6,-10.89 71.6,-30.64 79.6,-30.64 79.6,-10.89 71.6,-10.89"/>
</g>
<!-- dot_dummyinit_1&#45;&gt;N -->
<g id="edge1" class="edge">
<title>dot_dummyinit_1&#45;&gt;N</title>
<path fill="none" stroke="black" d="M0.77,-20.77C1.57,-20.77 12.96,-20.77 25.83,-20.77"/>
<polygon fill="black" stroke="black" points="25.79,-24.27 35.79,-20.77 25.79,-17.27 25.79,-24.27"/>
</g>
<!-- N&#45;&gt;N -->
<g id="edge2" class="edge">
<title>N&#45;&gt;N</title>
<path fill="none" stroke="black" d="M56.49,-38.92C55.22,-48.3 57.97,-56.77 64.72,-56.77 68.41,-56.77 70.91,-54.23 72.2,-50.41"/>
<polygon fill="black" stroke="black" points="75.7,-50.63 72.85,-40.43 68.71,-50.18 75.7,-50.63"/>
<text text-anchor="middle" x="64.72" y="-59.22" font-family="Arial" font-size="14.00">a, b, c, e</text>
</g>
<!-- F -->
<g id="node3" class="node">
<title>F</title>
<path fill="none" stroke="black" d="M177.22,-38.77C177.22,-38.77 147.22,-38.77 147.22,-38.77 141.22,-38.77 135.22,-32.77 135.22,-26.77 135.22,-26.77 135.22,-14.77 135.22,-14.77 135.22,-8.77 141.22,-2.77 147.22,-2.77 147.22,-2.77 177.22,-2.77 177.22,-2.77 183.22,-2.77 189.22,-8.77 189.22,-14.77 189.22,-14.77 189.22,-26.77 189.22,-26.77 189.22,-32.77 183.22,-38.77 177.22,-38.77"/>
<text text-anchor="middle" x="162.22" y="-15.34" font-family="Arial" font-size="14.00">F</text>
</g>
<!-- N&#45;&gt;F -->
<g id="edge3" class="edge">
<title>N&#45;&gt;F</title>
<path fill="none" stroke="black" d="M92.07,-20.77C101.78,-20.77 112.97,-20.77 123.49,-20.77"/>
<polygon fill="black" stroke="black" points="123.44,-24.27 133.44,-20.77 123.44,-17.27 123.44,-24.27"/>
<text text-anchor="middle" x="113.47" y="-23.22" font-family="Arial" font-size="14.00">f</text>
</g>
<!-- F&#45;&gt;N -->
<g id="edge4" class="edge">
<title>F&#45;&gt;N</title>
<path fill="none" stroke="black" d="M134.84,-6.78C129.17,-4.39 123.12,-2.28 117.22,-1.02 112.48,0 107.6,-0.16 102.82,-1.07"/>
<polygon fill="black" stroke="black" points="101.98,2.33 93.42,-3.91 104,-4.37 101.98,2.33"/>
<text text-anchor="middle" x="113.47" y="-3.47" font-family="Arial" font-size="14.00">e</text>
</g>
<!-- F&#45;&gt;F -->
<g id="edge5" class="edge">
<title>F&#45;&gt;F</title>
<path fill="none" stroke="black" d="M153.4,-38.92C152.04,-48.3 154.98,-56.77 162.22,-56.77 166.29,-56.77 169,-54.09 170.35,-50.07"/>
<polygon fill="black" stroke="black" points="173.83,-50.62 170.95,-40.43 166.84,-50.19 173.83,-50.62"/>
<text text-anchor="middle" x="162.22" y="-59.22" font-family="Arial" font-size="14.00">a, b, c, f</text>
</g>
</g>
</svg>
