<?xml version="1.0" encoding="UTF-8" standalone="no"?>
<!DOCTYPE svg PUBLIC "-//W3C//DTD SVG 1.1//EN"
 "http://www.w3.org/Graphics/SVG/1.1/DTD/svg11.dtd">
<!-- Generated by graphviz version 2.43.0 (0)
 -->
<!-- Title: wSpec2 Pages: 1 -->
<svg width="617pt" height="406pt"
 viewBox="0.00 0.00 617.18 406.10" xmlns="http://www.w3.org/2000/svg" xmlns:xlink="http://www.w3.org/1999/xlink">
<g id="graph0" class="graph" transform="scale(1 1) rotate(0) translate(4 402.1)">
<title>wSpec2</title>
<!-- dot_dummyinit_1 -->
<g id="node1" class="node">
<title>dot_dummyinit_1</title>
</g>
<!-- N -->
<g id="node2" class="node">
<title>N</title>
<ellipse fill="none" stroke="black" cx="56" cy="-218" rx="18" ry="18"/>
<text text-anchor="middle" x="56" y="-214.3" font-family="Arial" font-size="14.00">N</text>
</g>
<!-- dot_dummyinit_1&#45;&gt;N -->
<g id="edge1" class="edge">
<title>dot_dummyinit_1&#45;&gt;N</title>
<path fill="none" stroke="black" d="M1.15,-218C2.67,-218 15.1,-218 27.63,-218"/>
<polygon fill="black" stroke="black" points="27.94,-221.5 37.94,-218 27.94,-214.5 27.94,-221.5"/>
</g>
<!-- N&#45;&gt;N -->
<g id="edge2" class="edge">
<title>N&#45;&gt;N</title>
<path fill="none" stroke="black" d="M52.76,-235.78C52.21,-245.31 53.29,-254 56,-254 57.65,-254 58.69,-250.77 59.13,-246.1"/>
<polygon fill="black" stroke="black" points="62.64,-245.82 59.24,-235.78 55.64,-245.75 62.64,-245.82"/>
<text text-anchor="middle" x="56" y="-257.8" font-family="Arial" font-size="14.00">a</text>
</g>
<!-- N&#45;&gt;N -->
<g id="edge3" class="edge">
<title>N&#45;&gt;N</title>
<path fill="none" stroke="black" d="M50.68,-235.42C47.65,-252.79 49.43,-272 56,-272 61.29,-272 63.47,-259.56 62.54,-245.65"/>
<polygon fill="black" stroke="black" points="65.98,-244.93 61.32,-235.42 59.03,-245.77 65.98,-244.93"/>
<text text-anchor="middle" x="56" y="-275.8" font-family="Arial" font-size="14.00">b</text>
</g>
<!-- C1 -->
<g id="node5" class="node">
<title>C1</title>
<ellipse fill="none" stroke="black" cx="139.1" cy="-87" rx="22.2" ry="22.2"/>
<text text-anchor="middle" x="139.1" y="-83.3" font-family="Arial" font-size="14.00">C1</text>
</g>
<!-- N&#45;&gt;C1 -->
<g id="edge4" class="edge">
<title>N&#45;&gt;C1</title>
<path fill="none" stroke="black" d="M66.3,-202.97C79.68,-181.36 104.59,-141.13 121.25,-114.21"/>
<polygon fill="black" stroke="black" points="124.27,-115.98 126.56,-105.63 118.32,-112.29 124.27,-115.98"/>
<text text-anchor="middle" x="95.5" y="-163.8" font-family="Arial" font-size="14.00">c</text>
</g>
<!-- D1 -->
<g id="node7" class="node">
<title>D1</title>
<ellipse fill="none" stroke="black" cx="407.69" cy="-244" rx="22.2" ry="22.2"/>
<text text-anchor="middle" x="407.69" y="-240.3" font-family="Arial" font-size="14.00">D1</text>
</g>
<!-- N&#45;&gt;D1 -->
<g id="edge5" class="edge">
<title>N&#45;&gt;D1</title>
<path fill="none" stroke="black" d="M63.05,-234.69C73.76,-260.96 98.74,-309 138.1,-309 138.1,-309 138.1,-309 320.49,-309 347.8,-309 371.94,-287.95 387.67,-269.81"/>
<polygon fill="black" stroke="black" points="390.64,-271.71 394.29,-261.76 385.24,-267.26 390.64,-271.71"/>
<text text-anchor="middle" x="231.29" y="-312.8" font-family="Arial" font-size="14.00">d</text>
</g>
<!-- C2 -->
<g id="node3" class="node">
<title>C2</title>
<ellipse fill="none" stroke="black" cx="231.29" cy="-124" rx="22.18" ry="22.18"/>
<ellipse fill="none" stroke="black" cx="231.29" cy="-124" rx="26.2" ry="26.2"/>
<text text-anchor="middle" x="231.29" y="-120.3" font-family="Arial" font-size="14.00">C2</text>
</g>
<!-- C2&#45;&gt;C2 -->
<g id="edge11" class="edge">
<title>C2&#45;&gt;C2</title>
<path fill="none" stroke="black" d="M227,-149.82C226.81,-159.8 228.24,-168.1 231.29,-168.1 233.2,-168.1 234.48,-164.86 235.12,-159.99"/>
<polygon fill="black" stroke="black" points="238.62,-159.97 235.59,-149.82 231.63,-159.65 238.62,-159.97"/>
<text text-anchor="middle" x="231.29" y="-171.9" font-family="Arial" font-size="14.00">a</text>
</g>
<!-- C2&#45;&gt;C2 -->
<g id="edge12" class="edge">
<title>C2&#45;&gt;C2</title>
<path fill="none" stroke="black" d="M223.64,-149.19C221.06,-167.63 223.61,-186.1 231.29,-186.1 237.54,-186.1 240.39,-173.9 239.86,-159.44"/>
<polygon fill="black" stroke="black" points="243.32,-158.84 238.95,-149.19 236.34,-159.46 243.32,-158.84"/>
<text text-anchor="middle" x="231.29" y="-189.9" font-family="Arial" font-size="14.00">b</text>
</g>
<!-- C3 -->
<g id="node6" class="node">
<title>C3</title>
<ellipse fill="none" stroke="black" cx="319.49" cy="-142" rx="22.2" ry="22.2"/>
<text text-anchor="middle" x="319.49" y="-138.3" font-family="Arial" font-size="14.00">C3</text>
</g>
<!-- C2&#45;&gt;C3 -->
<g id="edge14" class="edge">
<title>C2&#45;&gt;C3</title>
<path fill="none" stroke="black" d="M257.23,-129.21C266.75,-131.19 277.71,-133.49 287.72,-135.57"/>
<polygon fill="black" stroke="black" points="287.18,-139.04 297.69,-137.66 288.61,-132.19 287.18,-139.04"/>
<text text-anchor="middle" x="277.39" y="-136.8" font-family="Arial" font-size="14.00">f</text>
</g>
<!-- C2&#45;&gt;D1 -->
<g id="edge13" class="edge">
<title>C2&#45;&gt;D1</title>
<path fill="none" stroke="black" d="M238.74,-149.26C247.2,-176.63 264.94,-219.07 297.39,-239 320.83,-253.39 352.73,-253.1 376.01,-250.13"/>
<polygon fill="black" stroke="black" points="376.68,-253.57 386.04,-248.63 375.63,-246.65 376.68,-253.57"/>
<text text-anchor="middle" x="319.49" y="-254.8" font-family="Arial" font-size="14.00">d</text>
</g>
<!-- D2 -->
<g id="node4" class="node">
<title>D2</title>
<ellipse fill="none" stroke="black" cx="498.88" cy="-146" rx="22.18" ry="22.18"/>
<ellipse fill="none" stroke="black" cx="498.88" cy="-146" rx="26.2" ry="26.2"/>
<text text-anchor="middle" x="498.88" y="-142.3" font-family="Arial" font-size="14.00">D2</text>
</g>
<!-- D2&#45;&gt;D2 -->
<g id="edge24" class="edge">
<title>D2&#45;&gt;D2</title>
<path fill="none" stroke="black" d="M494.59,-171.82C494.4,-181.8 495.83,-190.1 498.88,-190.1 500.79,-190.1 502.07,-186.86 502.71,-181.99"/>
<polygon fill="black" stroke="black" points="506.21,-181.97 503.18,-171.82 499.22,-181.65 506.21,-181.97"/>
<text text-anchor="middle" x="498.88" y="-193.9" font-family="Arial" font-size="14.00">a</text>
</g>
<!-- D2&#45;&gt;D2 -->
<g id="edge25" class="edge">
<title>D2&#45;&gt;D2</title>
<path fill="none" stroke="black" d="M491.23,-171.19C488.65,-189.63 491.2,-208.1 498.88,-208.1 505.12,-208.1 507.98,-195.9 507.44,-181.44"/>
<polygon fill="black" stroke="black" points="510.9,-180.84 506.53,-171.19 503.93,-181.46 510.9,-180.84"/>
<text text-anchor="middle" x="498.88" y="-211.9" font-family="Arial" font-size="14.00">b</text>
</g>
<!-- D2&#45;&gt;C1 -->
<g id="edge26" class="edge">
<title>D2&#45;&gt;C1</title>
<path fill="none" stroke="black" d="M488.75,-121.79C475.82,-92.2 449.17,-46 408.69,-46 230.29,-46 230.29,-46 230.29,-46 206.86,-46 182.82,-57.61 165.46,-68.48"/>
<polygon fill="black" stroke="black" points="163.46,-65.61 157.03,-74.03 167.3,-71.45 163.46,-65.61"/>
<text text-anchor="middle" x="319.49" y="-49.8" font-family="Arial" font-size="14.00">c</text>
</g>
<!-- D3 -->
<g id="node8" class="node">
<title>D3</title>
<ellipse fill="none" stroke="black" cx="587.08" cy="-92" rx="22.2" ry="22.2"/>
<text text-anchor="middle" x="587.08" y="-88.3" font-family="Arial" font-size="14.00">D3</text>
</g>
<!-- D2&#45;&gt;D3 -->
<g id="edge27" class="edge">
<title>D2&#45;&gt;D3</title>
<path fill="none" stroke="black" d="M521.63,-132.37C533,-125.25 547.02,-116.47 559.07,-108.92"/>
<polygon fill="black" stroke="black" points="561.22,-111.71 567.83,-103.43 557.5,-105.77 561.22,-111.71"/>
<text text-anchor="middle" x="544.98" y="-122.8" font-family="Arial" font-size="14.00">f</text>
</g>
<!-- C1&#45;&gt;C2 -->
<g id="edge9" class="edge">
<title>C1&#45;&gt;C2</title>
<path fill="none" stroke="black" d="M160.12,-95.21C171.01,-99.68 184.76,-105.32 197.21,-110.43"/>
<polygon fill="black" stroke="black" points="196.24,-113.81 206.82,-114.37 198.9,-107.34 196.24,-113.81"/>
<text text-anchor="middle" x="183.2" y="-108.8" font-family="Arial" font-size="14.00">d</text>
</g>
<!-- C1&#45;&gt;C1 -->
<g id="edge6" class="edge">
<title>C1&#45;&gt;C1</title>
<path fill="none" stroke="black" d="M137.15,-109.27C136.99,-118.87 137.64,-127.1 139.1,-127.1 139.99,-127.1 140.57,-124.04 140.86,-119.48"/>
<polygon fill="black" stroke="black" points="144.36,-119.33 141.04,-109.27 137.36,-119.2 144.36,-119.33"/>
<text text-anchor="middle" x="139.1" y="-130.9" font-family="Arial" font-size="14.00">a</text>
</g>
<!-- C1&#45;&gt;C1 -->
<g id="edge7" class="edge">
<title>C1&#45;&gt;C1</title>
<path fill="none" stroke="black" d="M135.71,-109.06C134.36,-126.79 135.49,-145.1 139.1,-145.1 142,-145.1 143.3,-133.24 142.99,-119.37"/>
<polygon fill="black" stroke="black" points="146.47,-118.87 142.48,-109.06 139.48,-119.22 146.47,-118.87"/>
<text text-anchor="middle" x="139.1" y="-148.9" font-family="Arial" font-size="14.00">b</text>
</g>
<!-- C1&#45;&gt;C1 -->
<g id="edge8" class="edge">
<title>C1&#45;&gt;C1</title>
<path fill="none" stroke="black" d="M134.76,-108.81C131.68,-133.96 133.13,-163.1 139.1,-163.1 144.27,-163.1 146.05,-141.19 144.42,-118.97"/>
<polygon fill="black" stroke="black" points="147.88,-118.43 143.43,-108.81 140.92,-119.1 147.88,-118.43"/>
<text text-anchor="middle" x="139.1" y="-166.9" font-family="Arial" font-size="14.00">c</text>
</g>
<!-- C1&#45;&gt;C1 -->
<g id="edge10" class="edge">
<title>C1&#45;&gt;C1</title>
<path fill="none" stroke="black" d="M134.07,-108.74C129.01,-140.87 130.69,-181.1 139.1,-181.1 146.65,-181.1 148.77,-148.63 145.46,-118.73"/>
<polygon fill="black" stroke="black" points="148.91,-118.19 144.12,-108.74 141.98,-119.11 148.91,-118.19"/>
<text text-anchor="middle" x="139.1" y="-184.9" font-family="Arial" font-size="14.00">f</text>
</g>
<!-- C3&#45;&gt;D2 -->
<g id="edge17" class="edge">
<title>C3&#45;&gt;D2</title>
<path fill="none" stroke="black" d="M341.89,-142.48C371.83,-143.16 426.59,-144.39 462.62,-145.2"/>
<polygon fill="black" stroke="black" points="462.62,-148.71 472.69,-145.43 462.78,-141.71 462.62,-148.71"/>
<text text-anchor="middle" x="407.69" y="-147.8" font-family="Arial" font-size="14.00">c</text>
</g>
<!-- C3&#45;&gt;C3 -->
<g id="edge15" class="edge">
<title>C3&#45;&gt;C3</title>
<path fill="none" stroke="black" d="M315.61,-163.86C315.25,-173.64 316.54,-182.1 319.49,-182.1 321.34,-182.1 322.53,-178.79 323.08,-173.93"/>
<polygon fill="black" stroke="black" points="326.58,-173.96 323.37,-163.86 319.58,-173.76 326.58,-173.96"/>
<text text-anchor="middle" x="319.49" y="-185.9" font-family="Arial" font-size="14.00">a</text>
</g>
<!-- C3&#45;&gt;C3 -->
<g id="edge16" class="edge">
<title>C3&#45;&gt;C3</title>
<path fill="none" stroke="black" d="M312.87,-163.15C309.94,-181.16 312.15,-200.1 319.49,-200.1 325.46,-200.1 328.03,-187.6 327.22,-173.25"/>
<polygon fill="black" stroke="black" points="330.68,-172.71 326.12,-163.15 323.72,-173.47 330.68,-172.71"/>
<text text-anchor="middle" x="319.49" y="-203.9" font-family="Arial" font-size="14.00">b</text>
</g>
<!-- C3&#45;&gt;D1 -->
<g id="edge18" class="edge">
<title>C3&#45;&gt;D1</title>
<path fill="none" stroke="black" d="M334.34,-158.39C348.33,-174.94 370.11,-200.72 386.12,-219.66"/>
<polygon fill="black" stroke="black" points="383.46,-221.93 392.59,-227.31 388.8,-217.42 383.46,-221.93"/>
<text text-anchor="middle" x="363.59" y="-199.8" font-family="Arial" font-size="14.00">d</text>
</g>
<!-- D1&#45;&gt;D2 -->
<g id="edge21" class="edge">
<title>D1&#45;&gt;D2</title>
<path fill="none" stroke="black" d="M423.42,-227.82C437.06,-212.83 457.61,-190.25 473.67,-172.61"/>
<polygon fill="black" stroke="black" points="476.55,-174.64 480.69,-164.89 471.37,-169.93 476.55,-174.64"/>
<text text-anchor="middle" x="451.28" y="-203.8" font-family="Arial" font-size="14.00">c</text>
</g>
<!-- D1&#45;&gt;D1 -->
<g id="edge19" class="edge">
<title>D1&#45;&gt;D1</title>
<path fill="none" stroke="black" d="M405.74,-266.27C405.58,-275.87 406.23,-284.1 407.69,-284.1 408.57,-284.1 409.16,-281.04 409.45,-276.48"/>
<polygon fill="black" stroke="black" points="412.95,-276.33 409.63,-266.27 405.95,-276.2 412.95,-276.33"/>
<text text-anchor="middle" x="407.69" y="-287.9" font-family="Arial" font-size="14.00">a</text>
</g>
<!-- D1&#45;&gt;D1 -->
<g id="edge20" class="edge">
<title>D1&#45;&gt;D1</title>
<path fill="none" stroke="black" d="M404.3,-266.06C402.95,-283.79 404.08,-302.1 407.69,-302.1 410.59,-302.1 411.89,-290.24 411.58,-276.37"/>
<polygon fill="black" stroke="black" points="415.06,-275.87 411.07,-266.06 408.07,-276.22 415.06,-275.87"/>
<text text-anchor="middle" x="407.69" y="-305.9" font-family="Arial" font-size="14.00">b</text>
</g>
<!-- D1&#45;&gt;D1 -->
<g id="edge22" class="edge">
<title>D1&#45;&gt;D1</title>
<path fill="none" stroke="black" d="M403.35,-265.81C400.27,-290.96 401.72,-320.1 407.69,-320.1 412.86,-320.1 414.64,-298.19 413.01,-275.97"/>
<polygon fill="black" stroke="black" points="416.47,-275.43 412.02,-265.81 409.51,-276.1 416.47,-275.43"/>
<text text-anchor="middle" x="407.69" y="-323.9" font-family="Arial" font-size="14.00">d</text>
</g>
<!-- D1&#45;&gt;D1 -->
<g id="edge23" class="edge">
<title>D1&#45;&gt;D1</title>
<path fill="none" stroke="black" d="M402.66,-265.74C397.6,-297.87 399.28,-338.1 407.69,-338.1 415.24,-338.1 417.36,-305.63 414.04,-275.73"/>
<polygon fill="black" stroke="black" points="417.5,-275.19 412.71,-265.74 410.56,-276.11 417.5,-275.19"/>
<text text-anchor="middle" x="407.69" y="-341.9" font-family="Arial" font-size="14.00">f</text>
</g>
<!-- D3&#45;&gt;C2 -->
<g id="edge31" class="edge">
<title>D3&#45;&gt;C2</title>
<path fill="none" stroke="black" d="M564.82,-92C547.38,-92 522.03,-92 499.88,-92 318.49,-92 318.49,-92 318.49,-92 299.45,-92 279.45,-98.94 263.51,-106.36"/>
<polygon fill="black" stroke="black" points="261.57,-103.42 254.15,-110.98 264.67,-109.69 261.57,-103.42"/>
<text text-anchor="middle" x="407.69" y="-95.8" font-family="Arial" font-size="14.00">d</text>
</g>
<!-- D3&#45;&gt;C1 -->
<g id="edge30" class="edge">
<title>D3&#45;&gt;C1</title>
<path fill="none" stroke="black" d="M577.8,-71.58C565.3,-44.48 538.84,0 499.88,0 230.29,0 230.29,0 230.29,0 196,0 169.74,-32.99 154.62,-58.34"/>
<polygon fill="black" stroke="black" points="151.45,-56.83 149.56,-67.26 157.54,-60.29 151.45,-56.83"/>
<text text-anchor="middle" x="363.59" y="-3.8" font-family="Arial" font-size="14.00">c</text>
</g>
<!-- D3&#45;&gt;D3 -->
<g id="edge28" class="edge">
<title>D3&#45;&gt;D3</title>
<path fill="none" stroke="black" d="M583.2,-113.86C582.83,-123.64 584.13,-132.1 587.08,-132.1 588.92,-132.1 590.12,-128.79 590.67,-123.93"/>
<polygon fill="black" stroke="black" points="594.17,-123.96 590.95,-113.86 587.17,-123.76 594.17,-123.96"/>
<text text-anchor="middle" x="587.08" y="-135.9" font-family="Arial" font-size="14.00">a</text>
</g>
<!-- D3&#45;&gt;D3 -->
<g id="edge29" class="edge">
<title>D3&#45;&gt;D3</title>
<path fill="none" stroke="black" d="M580.45,-113.15C577.53,-131.16 579.74,-150.1 587.08,-150.1 593.04,-150.1 595.62,-137.6 594.81,-123.25"/>
<polygon fill="black" stroke="black" points="598.27,-122.71 593.7,-113.15 591.31,-123.47 598.27,-122.71"/>
<text text-anchor="middle" x="587.08" y="-153.9" font-family="Arial" font-size="14.00">b</text>
</g>
</g>
</svg>
