<?xml version="1.0" encoding="UTF-8" standalone="no"?>
<!DOCTYPE svg PUBLIC "-//W3C//DTD SVG 1.1//EN"
 "http://www.w3.org/Graphics/SVG/1.1/DTD/svg11.dtd">
<!-- Generated by graphviz version 12.2.1 (20241206.2353)
 -->
<!-- Title: SupConCmpl(A&#45;B&#45;Machine, PrefixClosure(A&#45;B&#45;Spec&#45;Keep&#45;Running.x.A&#45;B&#45;Machine)) [minstate] Pages: 1 -->
<svg width="249pt" height="65pt"
 viewBox="0.00 0.00 248.72 65.40" xmlns="http://www.w3.org/2000/svg" xmlns:xlink="http://www.w3.org/1999/xlink">
<g id="graph0" class="graph" transform="scale(1 1) rotate(0) translate(4 61.4)">
<title>SupConCmpl(A&#45;B&#45;Machine, PrefixClosure(A&#45;B&#45;Spec&#45;Keep&#45;Running.x.A&#45;B&#45;Machine)) [minstate]</title>
<!-- dot_dummyinit_1 -->
<g id="node1" class="node">
<title>dot_dummyinit_1</title>
</g>
<!-- 1 -->
<g id="node2" class="node">
<title>1</title>
<ellipse fill="none" stroke="black" cx="59.72" cy="-23.92" rx="18" ry="18"/>
<ellipse fill="none" stroke="black" cx="59.72" cy="-23.92" rx="22" ry="22"/>
<text text-anchor="middle" x="59.72" y="-18.5" font-family="Arial" font-size="14.00">1</text>
</g>
<!-- dot_dummyinit_1&#45;&gt;1 -->
<g id="edge1" class="edge">
<title>dot_dummyinit_1&#45;&gt;1</title>
<path fill="none" stroke="black" d="M0.89,-23.92C2.38,-23.92 13.74,-23.92 26,-23.92"/>
<polygon fill="black" stroke="black" points="25.74,-27.42 35.74,-23.92 25.74,-20.42 25.74,-27.42"/>
</g>
<!-- 3 -->
<g id="node4" class="node">
<title>3</title>
<ellipse fill="none" stroke="black" cx="143.22" cy="-23.92" rx="18" ry="18"/>
<text text-anchor="middle" x="143.22" y="-18.5" font-family="Arial" font-size="14.00">3</text>
</g>
<!-- 1&#45;&gt;3 -->
<g id="edge2" class="edge">
<title>1&#45;&gt;3</title>
<path fill="none" stroke="black" d="M78.51,-35.62C87.04,-39.88 97.5,-43.16 107.22,-40.92 110.49,-40.17 113.81,-39.07 117.04,-37.78"/>
<polygon fill="black" stroke="black" points="118.48,-40.97 126.07,-33.58 115.53,-34.63 118.48,-40.97"/>
<text text-anchor="middle" x="103.47" y="-44.1" font-family="Arial" font-size="14.00">a</text>
</g>
<!-- 1&#45;&gt;3 -->
<g id="edge3" class="edge">
<title>1&#45;&gt;3</title>
<path fill="none" stroke="black" d="M82.01,-21.78C89.92,-21.22 98.98,-20.85 107.22,-21.17 109.32,-21.26 111.49,-21.37 113.67,-21.5"/>
<polygon fill="black" stroke="black" points="113.41,-24.99 123.64,-22.2 113.91,-18 113.41,-24.99"/>
<text text-anchor="middle" x="103.47" y="-23.62" font-family="Arial" font-size="14.00">b</text>
</g>
<!-- 2 -->
<g id="node3" class="node">
<title>2</title>
<ellipse fill="none" stroke="black" cx="222.72" cy="-23.92" rx="18" ry="18"/>
<text text-anchor="middle" x="222.72" y="-18.5" font-family="Arial" font-size="14.00">2</text>
</g>
<!-- 2&#45;&gt;3 -->
<g id="edge4" class="edge">
<title>2&#45;&gt;3</title>
<path fill="none" stroke="black" d="M204.3,-23.92C195,-23.92 183.31,-23.92 172.72,-23.92"/>
<polygon fill="black" stroke="black" points="172.93,-20.42 162.93,-23.92 172.93,-27.42 172.93,-20.42"/>
<text text-anchor="middle" x="182.97" y="-26.37" font-family="Arial" font-size="14.00">a</text>
</g>
<!-- 2&#45;&gt;3 -->
<g id="edge5" class="edge">
<title>2&#45;&gt;3</title>
<path fill="none" stroke="black" d="M207.46,-13.67C201.38,-9.9 194.01,-6.09 186.72,-4.17 180.17,-2.45 173.38,-3.94 167.2,-6.73"/>
<polygon fill="black" stroke="black" points="165.75,-3.53 158.85,-11.57 169.26,-9.59 165.75,-3.53"/>
<text text-anchor="middle" x="182.97" y="-6.62" font-family="Arial" font-size="14.00">b</text>
</g>
<!-- 3&#45;&gt;1 -->
<g id="edge6" class="edge">
<title>3&#45;&gt;1</title>
<path fill="none" stroke="black" d="M128.84,-12.62C122.67,-8.12 115,-3.48 107.22,-1.17 100.21,0.91 92.96,-0.64 86.32,-3.71"/>
<polygon fill="black" stroke="black" points="84.67,-0.62 77.84,-8.72 88.23,-6.65 84.67,-0.62"/>
<text text-anchor="middle" x="103.47" y="-3.62" font-family="Arial" font-size="14.00">c</text>
</g>
<!-- 3&#45;&gt;2 -->
<g id="edge7" class="edge">
<title>3&#45;&gt;2</title>
<path fill="none" stroke="black" d="M159,-32.94C165.04,-36.13 172.24,-39.32 179.22,-40.92 185.17,-42.29 191.37,-41.31 197.14,-39.26"/>
<polygon fill="black" stroke="black" points="198.61,-42.44 206.15,-35.01 195.62,-36.11 198.61,-42.44"/>
<text text-anchor="middle" x="182.97" y="-44.01" font-family="Arial" font-size="14.00">d</text>
</g>
</g>
</svg>
