<?xml version="1.0" encoding="UTF-8" standalone="no"?>
<!DOCTYPE svg PUBLIC "-//W3C//DTD SVG 1.1//EN"
 "http://www.w3.org/Graphics/SVG/1.1/DTD/svg11.dtd">
<!-- Generated by graphviz version 12.2.1 (20241206.2353)
 -->
<!-- Title: BuechiClosure(g) Pages: 1 -->
<svg width="352pt" height="153pt"
 viewBox="0.00 0.00 352.22 153.00" xmlns="http://www.w3.org/2000/svg" xmlns:xlink="http://www.w3.org/1999/xlink">
<g id="graph0" class="graph" transform="scale(1 1) rotate(0) translate(4 149)">
<title>BuechiClosure(g)</title>
<!-- dot_dummyinit_1 -->
<g id="node1" class="node">
<title>dot_dummyinit_1</title>
</g>
<!-- 1 -->
<g id="node2" class="node">
<title>1</title>
<ellipse fill="none" stroke="black" cx="59.72" cy="-22" rx="18" ry="18"/>
<ellipse fill="none" stroke="black" cx="59.72" cy="-22" rx="22" ry="22"/>
<text text-anchor="middle" x="59.72" y="-16.57" font-family="Arial" font-size="14.00">1</text>
</g>
<!-- dot_dummyinit_1&#45;&gt;1 -->
<g id="edge1" class="edge">
<title>dot_dummyinit_1&#45;&gt;1</title>
<path fill="none" stroke="black" d="M0.89,-22C2.38,-22 13.74,-22 26,-22"/>
<polygon fill="black" stroke="black" points="25.74,-25.5 35.74,-22 25.74,-18.5 25.74,-25.5"/>
</g>
<!-- 2 -->
<g id="node3" class="node">
<title>2</title>
<ellipse fill="none" stroke="black" cx="147.22" cy="-70" rx="18" ry="18"/>
<ellipse fill="none" stroke="black" cx="147.22" cy="-70" rx="22" ry="22"/>
<text text-anchor="middle" x="147.22" y="-64.58" font-family="Arial" font-size="14.00">2</text>
</g>
<!-- 1&#45;&gt;2 -->
<g id="edge2" class="edge">
<title>1&#45;&gt;2</title>
<path fill="none" stroke="black" d="M79.27,-32.42C90.4,-38.66 104.79,-46.74 117.37,-53.81"/>
<polygon fill="black" stroke="black" points="115.66,-56.85 126.09,-58.7 119.08,-50.75 115.66,-56.85"/>
<text text-anchor="middle" x="103.47" y="-49.89" font-family="Arial" font-size="14.00">a</text>
</g>
<!-- 4 -->
<g id="node4" class="node">
<title>4</title>
<ellipse fill="none" stroke="black" cx="234.72" cy="-123" rx="18" ry="18"/>
<ellipse fill="none" stroke="black" cx="234.72" cy="-123" rx="22" ry="22"/>
<text text-anchor="middle" x="234.72" y="-117.58" font-family="Arial" font-size="14.00">4</text>
</g>
<!-- 2&#45;&gt;4 -->
<g id="edge3" class="edge">
<title>2&#45;&gt;4</title>
<path fill="none" stroke="black" d="M162.63,-85.89C169.54,-92.79 178.25,-100.53 187.22,-106 191.92,-108.87 197.19,-111.37 202.44,-113.5"/>
<polygon fill="black" stroke="black" points="201,-116.7 211.59,-116.85 203.4,-110.13 201,-116.7"/>
<text text-anchor="middle" x="190.97" y="-112.32" font-family="Arial" font-size="14.00">c</text>
</g>
<!-- 6 -->
<g id="node5" class="node">
<title>6</title>
<ellipse fill="none" stroke="black" cx="234.72" cy="-56" rx="18" ry="18"/>
<ellipse fill="none" stroke="black" cx="234.72" cy="-56" rx="22" ry="22"/>
<text text-anchor="middle" x="234.72" y="-50.58" font-family="Arial" font-size="14.00">6</text>
</g>
<!-- 2&#45;&gt;6 -->
<g id="edge4" class="edge">
<title>2&#45;&gt;6</title>
<path fill="none" stroke="black" d="M166.64,-59.06C172.95,-55.89 180.19,-52.85 187.22,-51.25 191.94,-50.17 196.98,-49.86 201.94,-50.01"/>
<polygon fill="black" stroke="black" points="201.38,-53.47 211.67,-50.91 202.03,-46.5 201.38,-53.47"/>
<text text-anchor="middle" x="190.97" y="-53.7" font-family="Arial" font-size="14.00">d</text>
</g>
<!-- 4&#45;&gt;2 -->
<g id="edge5" class="edge">
<title>4&#45;&gt;2</title>
<path fill="none" stroke="black" d="M219.4,-106.71C212.51,-99.65 203.78,-91.76 194.72,-86.25 190.03,-83.4 184.78,-80.96 179.53,-78.9"/>
<polygon fill="black" stroke="black" points="180.98,-75.7 170.39,-75.71 178.67,-82.31 180.98,-75.7"/>
<text text-anchor="middle" x="190.97" y="-88.7" font-family="Arial" font-size="14.00">b</text>
</g>
<!-- 7 -->
<g id="node6" class="node">
<title>7</title>
<ellipse fill="none" stroke="black" cx="322.22" cy="-39" rx="18" ry="18"/>
<ellipse fill="none" stroke="black" cx="322.22" cy="-39" rx="22" ry="22"/>
<text text-anchor="middle" x="322.22" y="-33.58" font-family="Arial" font-size="14.00">7</text>
</g>
<!-- 6&#45;&gt;7 -->
<g id="edge6" class="edge">
<title>6&#45;&gt;7</title>
<path fill="none" stroke="black" d="M256.74,-57.81C264.79,-58.03 274,-57.71 282.22,-56 285.41,-55.34 288.65,-54.4 291.84,-53.3"/>
<polygon fill="black" stroke="black" points="292.91,-56.64 300.89,-49.67 290.31,-50.14 292.91,-56.64"/>
<text text-anchor="middle" x="278.47" y="-59.63" font-family="Arial" font-size="14.00">a</text>
</g>
<!-- 7&#45;&gt;1 -->
<g id="edge8" class="edge">
<title>7&#45;&gt;1</title>
<path fill="none" stroke="black" d="M300.48,-33.4C287.92,-30.29 271.52,-26.7 256.72,-25 199.55,-18.42 132.38,-19.23 93.38,-20.53"/>
<polygon fill="black" stroke="black" points="93.36,-17.03 83.49,-20.9 93.62,-24.02 93.36,-17.03"/>
<text text-anchor="middle" x="190.97" y="-22.89" font-family="Arial" font-size="14.00">c</text>
</g>
<!-- 7&#45;&gt;6 -->
<g id="edge7" class="edge">
<title>7&#45;&gt;6</title>
<path fill="none" stroke="black" d="M300.16,-35.18C292.11,-34.38 282.9,-34.3 274.72,-36.25 271.1,-37.11 267.44,-38.37 263.89,-39.84"/>
<polygon fill="black" stroke="black" points="262.58,-36.58 255.05,-44.04 265.58,-42.91 262.58,-36.58"/>
<text text-anchor="middle" x="278.47" y="-38.7" font-family="Arial" font-size="14.00">b</text>
</g>
</g>
</svg>
