<?xml version="1.0" encoding="UTF-8" standalone="no"?>
<!DOCTYPE svg PUBLIC "-//W3C//DTD SVG 1.1//EN"
 "http://www.w3.org/Graphics/SVG/1.1/DTD/svg11.dtd">
<!-- Generated by graphviz version 12.2.1 (20241206.2353)
 -->
<!-- Title: Generator Pages: 1 -->
<svg width="720pt" height="149pt"
 viewBox="0.00 0.00 720.00 148.82" xmlns="http://www.w3.org/2000/svg" xmlns:xlink="http://www.w3.org/1999/xlink">
<g id="graph0" class="graph" transform="scale(0.654843 0.654843) rotate(0) translate(4 223.26)">
<title>Generator</title>
<!-- dot_dummyinit_0 -->
<g id="node1" class="node">
<title>dot_dummyinit_0</title>
</g>
<!-- A|I -->
<g id="node2" class="node">
<title>A|I</title>
<path fill="none" stroke="black" d="M150.5,-169C150.5,-169 103,-169 103,-169 97,-169 91,-163 91,-157 91,-157 91,-145 91,-145 91,-139 97,-133 103,-133 103,-133 150.5,-133 150.5,-133 156.5,-133 162.5,-139 162.5,-145 162.5,-145 162.5,-157 162.5,-157 162.5,-163 156.5,-169 150.5,-169"/>
<text text-anchor="start" x="103" y="-145.57" font-family="Arial" font-size="14.00">A|I</text>
<polygon fill="lightblue" stroke="none" points="130.5,-141.12 130.5,-160.88 140.5,-160.88 140.5,-141.12 130.5,-141.12"/>
<polygon fill="black" stroke="none" points="142.5,-141.12 142.5,-160.88 152.5,-160.88 152.5,-141.12 142.5,-141.12"/>
</g>
<!-- dot_dummyinit_0&#45;&gt;A|I -->
<g id="edge1" class="edge">
<title>dot_dummyinit_0&#45;&gt;A|I</title>
<path fill="none" stroke="black" d="M53.94,-151C61.8,-151 70.69,-151 79.47,-151"/>
<polygon fill="black" stroke="black" points="79.34,-154.5 89.34,-151 79.34,-147.5 79.34,-154.5"/>
</g>
<!-- A|A -->
<g id="node7" class="node">
<title>A|A</title>
<path fill="none" stroke="black" d="M258.75,-212C258.75,-212 218,-212 218,-212 212,-212 206,-206 206,-200 206,-200 206,-188 206,-188 206,-182 212,-176 218,-176 218,-176 258.75,-176 258.75,-176 264.75,-176 270.75,-182 270.75,-188 270.75,-188 270.75,-200 270.75,-200 270.75,-206 264.75,-212 258.75,-212"/>
<text text-anchor="start" x="218" y="-188.57" font-family="Arial" font-size="14.00">A|A</text>
<polygon fill="lightblue" stroke="none" points="250.75,-184.12 250.75,-203.88 260.75,-203.88 260.75,-184.12 250.75,-184.12"/>
</g>
<!-- A|I&#45;&gt;A|A -->
<g id="edge2" class="edge">
<title>A|I&#45;&gt;A|A</title>
<path fill="none" stroke="black" d="M151.56,-169.34C160.25,-175.2 170.42,-181.15 180.5,-185 184.97,-186.7 189.75,-188.09 194.57,-189.21"/>
<polygon fill="black" stroke="black" points="193.8,-192.62 204.29,-191.09 195.13,-185.75 193.8,-192.62"/>
<text text-anchor="middle" x="184.25" y="-189.92" font-family="Arial" font-size="14.00">a</text>
</g>
<!-- B|B -->
<g id="node8" class="node">
<title>B|B</title>
<path fill="none" stroke="black" d="M494.75,-153C494.75,-153 442,-153 442,-153 436,-153 430,-147 430,-141 430,-141 430,-129 430,-129 430,-123 436,-117 442,-117 442,-117 494.75,-117 494.75,-117 500.75,-117 506.75,-123 506.75,-129 506.75,-129 506.75,-141 506.75,-141 506.75,-147 500.75,-153 494.75,-153"/>
<text text-anchor="start" x="442" y="-129.57" font-family="Arial" font-size="14.00">B|B</text>
<polygon fill="lightblue" stroke="none" points="474.75,-125.12 474.75,-144.88 484.75,-144.88 484.75,-125.12 474.75,-125.12"/>
<polygon fill="darkblue" stroke="none" points="486.75,-125.12 486.75,-144.88 496.75,-144.88 496.75,-125.12 486.75,-125.12"/>
</g>
<!-- A|I&#45;&gt;B|B -->
<g id="edge3" class="edge">
<title>A|I&#45;&gt;B|B</title>
<path fill="none" stroke="black" d="M162.82,-149.35C223.62,-146.48 348.74,-140.59 418.19,-137.32"/>
<polygon fill="black" stroke="black" points="418.33,-140.81 428.15,-136.85 418,-133.82 418.33,-140.81"/>
<text text-anchor="middle" x="292.5" y="-145.82" font-family="Arial" font-size="14.00">b</text>
</g>
<!-- dump|A -->
<g id="node3" class="node">
<title>dump|A</title>
<path fill="none" stroke="black" d="M730,-153C730,-153 690.75,-153 690.75,-153 684.75,-153 678.75,-147 678.75,-141 678.75,-141 678.75,-129 678.75,-129 678.75,-123 684.75,-117 690.75,-117 690.75,-117 730,-117 730,-117 736,-117 742,-123 742,-129 742,-129 742,-141 742,-141 742,-147 736,-153 730,-153"/>
<text text-anchor="middle" x="710.38" y="-129.57" font-family="Arial" font-size="14.00">dump|A</text>
</g>
<!-- dump|FA -->
<g id="node4" class="node">
<title>dump|FA</title>
<path fill="none" stroke="black" d="M844.25,-114C844.25,-114 797.5,-114 797.5,-114 791.5,-114 785.5,-108 785.5,-102 785.5,-102 785.5,-90 785.5,-90 785.5,-84 791.5,-78 797.5,-78 797.5,-78 844.25,-78 844.25,-78 850.25,-78 856.25,-84 856.25,-90 856.25,-90 856.25,-102 856.25,-102 856.25,-108 850.25,-114 844.25,-114"/>
<text text-anchor="middle" x="820.88" y="-90.58" font-family="Arial" font-size="14.00">dump|FA</text>
</g>
<!-- dump|A&#45;&gt;dump|FA -->
<g id="edge11" class="edge">
<title>dump|A&#45;&gt;dump|FA</title>
<path fill="none" stroke="black" d="M729.06,-116.8C737.62,-109.25 748.52,-101.32 760,-97.25 764.41,-95.69 769.12,-94.64 773.89,-93.96"/>
<polygon fill="black" stroke="black" points="773.83,-97.48 783.5,-93.15 773.24,-90.51 773.83,-97.48"/>
<text text-anchor="middle" x="763.75" y="-99.7" font-family="Arial" font-size="14.00">d</text>
</g>
<!-- dump|I -->
<g id="node10" class="node">
<title>dump|I</title>
<path fill="none" stroke="black" d="M1079.5,-168C1079.5,-168 1018.5,-168 1018.5,-168 1012.5,-168 1006.5,-162 1006.5,-156 1006.5,-156 1006.5,-144 1006.5,-144 1006.5,-138 1012.5,-132 1018.5,-132 1018.5,-132 1079.5,-132 1079.5,-132 1085.5,-132 1091.5,-138 1091.5,-144 1091.5,-144 1091.5,-156 1091.5,-156 1091.5,-162 1085.5,-168 1079.5,-168"/>
<text text-anchor="start" x="1018.5" y="-144.57" font-family="Arial" font-size="14.00">dump|I</text>
<polygon fill="black" stroke="none" points="1071.5,-140.12 1071.5,-159.88 1081.5,-159.88 1081.5,-140.12 1071.5,-140.12"/>
</g>
<!-- dump|A&#45;&gt;dump|I -->
<g id="edge10" class="edge">
<title>dump|A&#45;&gt;dump|I</title>
<path fill="none" stroke="black" d="M725.46,-153.34C734.21,-163.2 746.36,-174.45 760,-180 854.07,-218.28 890.04,-204.88 988.5,-180 994.89,-178.38 1001.39,-176 1007.63,-173.27"/>
<polygon fill="black" stroke="black" points="1008.92,-176.53 1016.45,-169.07 1005.92,-170.21 1008.92,-176.53"/>
<text text-anchor="middle" x="878" y="-205.96" font-family="Arial" font-size="14.00">c</text>
</g>
<!-- dump|FA&#45;&gt;dump|A -->
<g id="edge14" class="edge">
<title>dump|FA&#45;&gt;dump|A</title>
<path fill="none" stroke="black" d="M785.35,-108.41C775.14,-112.08 763.84,-116.14 753.22,-119.96"/>
<polygon fill="black" stroke="black" points="752.12,-116.64 743.89,-123.31 754.49,-123.22 752.12,-116.64"/>
<text text-anchor="middle" x="763.75" y="-119.12" font-family="Arial" font-size="14.00">a</text>
</g>
<!-- dump|B -->
<g id="node5" class="node">
<title>dump|B</title>
<path fill="none" stroke="black" d="M951,-114C951,-114 911.75,-114 911.75,-114 905.75,-114 899.75,-108 899.75,-102 899.75,-102 899.75,-90 899.75,-90 899.75,-84 905.75,-78 911.75,-78 911.75,-78 951,-78 951,-78 957,-78 963,-84 963,-90 963,-90 963,-102 963,-102 963,-108 957,-114 951,-114"/>
<text text-anchor="middle" x="931.38" y="-90.58" font-family="Arial" font-size="14.00">dump|B</text>
</g>
<!-- dump|FA&#45;&gt;dump|B -->
<g id="edge15" class="edge">
<title>dump|FA&#45;&gt;dump|B</title>
<path fill="none" stroke="black" d="M856.5,-96C866.51,-96 877.54,-96 887.96,-96"/>
<polygon fill="black" stroke="black" points="887.86,-99.5 897.86,-96 887.86,-92.5 887.86,-99.5"/>
<text text-anchor="middle" x="878" y="-98.45" font-family="Arial" font-size="14.00">b</text>
</g>
<!-- dump|FB -->
<g id="node6" class="node">
<title>dump|FB</title>
<path fill="none" stroke="black" d="M1072.75,-36C1072.75,-36 1025.25,-36 1025.25,-36 1019.25,-36 1013.25,-30 1013.25,-24 1013.25,-24 1013.25,-12 1013.25,-12 1013.25,-6 1019.25,0 1025.25,0 1025.25,0 1072.75,0 1072.75,0 1078.75,0 1084.75,-6 1084.75,-12 1084.75,-12 1084.75,-24 1084.75,-24 1084.75,-30 1078.75,-36 1072.75,-36"/>
<text text-anchor="middle" x="1049" y="-12.57" font-family="Arial" font-size="14.00">dump|FB</text>
</g>
<!-- dump|B&#45;&gt;dump|FB -->
<g id="edge17" class="edge">
<title>dump|B&#45;&gt;dump|FB</title>
<path fill="none" stroke="black" d="M959.78,-77.52C975.18,-67.12 994.62,-54.01 1011.33,-42.74"/>
<polygon fill="black" stroke="black" points="1013.21,-45.69 1019.54,-37.2 1009.29,-39.89 1013.21,-45.69"/>
<text text-anchor="middle" x="984.75" y="-64.12" font-family="Arial" font-size="14.00">d</text>
</g>
<!-- dump|B&#45;&gt;dump|I -->
<g id="edge16" class="edge">
<title>dump|B&#45;&gt;dump|I</title>
<path fill="none" stroke="black" d="M963.45,-94.95C971.83,-95.57 980.71,-97.09 988.5,-100.25 1001.43,-105.5 1013.64,-114.66 1023.6,-123.69"/>
<polygon fill="black" stroke="black" points="1021,-126.05 1030.64,-130.45 1025.85,-121 1021,-126.05"/>
<text text-anchor="middle" x="984.75" y="-102.7" font-family="Arial" font-size="14.00">c</text>
</g>
<!-- dump|FB&#45;&gt;dump|A -->
<g id="edge18" class="edge">
<title>dump|FB&#45;&gt;dump|A</title>
<path fill="none" stroke="black" d="M1013.07,-19.12C961.02,-22 861.09,-32.31 785.5,-69 766.12,-78.41 747.98,-94.37 734.5,-108.24"/>
<polygon fill="black" stroke="black" points="732.06,-105.74 727.78,-115.43 737.17,-110.52 732.06,-105.74"/>
<text text-anchor="middle" x="878" y="-40.6" font-family="Arial" font-size="14.00">a</text>
</g>
<!-- dump|FB&#45;&gt;dump|B -->
<g id="edge19" class="edge">
<title>dump|FB&#45;&gt;dump|B</title>
<path fill="none" stroke="black" d="M1012.96,-25.15C1002.14,-28.37 990.56,-32.92 981,-39.25 969.49,-46.87 959.14,-57.96 950.99,-68.32"/>
<polygon fill="black" stroke="black" points="948.21,-66.19 945.04,-76.3 953.82,-70.37 948.21,-66.19"/>
<text text-anchor="middle" x="984.75" y="-41.7" font-family="Arial" font-size="14.00">b</text>
</g>
<!-- A|A&#45;&gt;A|I -->
<g id="edge4" class="edge">
<title>A|A&#45;&gt;A|I</title>
<path fill="none" stroke="black" d="M209.12,-175.64C202.39,-171.81 195.09,-168.08 188,-165.25 183.38,-163.41 178.47,-161.77 173.51,-160.31"/>
<polygon fill="black" stroke="black" points="174.73,-157.01 164.16,-157.82 172.92,-163.78 174.73,-157.01"/>
<text text-anchor="middle" x="184.25" y="-167.7" font-family="Arial" font-size="14.00">c</text>
</g>
<!-- A|FA -->
<g id="node11" class="node">
<title>A|FA</title>
<path fill="none" stroke="black" d="M374.5,-199C374.5,-199 326.25,-199 326.25,-199 320.25,-199 314.25,-193 314.25,-187 314.25,-187 314.25,-175 314.25,-175 314.25,-169 320.25,-163 326.25,-163 326.25,-163 374.5,-163 374.5,-163 380.5,-163 386.5,-169 386.5,-175 386.5,-175 386.5,-187 386.5,-187 386.5,-193 380.5,-199 374.5,-199"/>
<text text-anchor="start" x="326.25" y="-175.57" font-family="Arial" font-size="14.00">A|FA</text>
<polygon fill="lightblue" stroke="none" points="366.5,-171.12 366.5,-190.88 376.5,-190.88 376.5,-171.12 366.5,-171.12"/>
</g>
<!-- A|A&#45;&gt;A|FA -->
<g id="edge5" class="edge">
<title>A|A&#45;&gt;A|FA</title>
<path fill="none" stroke="black" d="M271.04,-195.34C279.27,-195.33 288.11,-194.98 296.25,-194 298.41,-193.74 300.6,-193.42 302.81,-193.06"/>
<polygon fill="black" stroke="black" points="303.23,-196.54 312.38,-191.22 301.9,-189.67 303.23,-196.54"/>
<text text-anchor="middle" x="292.5" y="-197.06" font-family="Arial" font-size="14.00">d</text>
</g>
<!-- B|B&#45;&gt;A|I -->
<g id="edge6" class="edge">
<title>B|B&#45;&gt;A|I</title>
<path fill="none" stroke="black" d="M429.71,-129.22C393.53,-124.45 337.37,-119.09 288.75,-123.25 249.74,-126.59 205.98,-134.39 173.95,-140.88"/>
<polygon fill="black" stroke="black" points="173.27,-137.45 164.18,-142.89 174.69,-144.3 173.27,-137.45"/>
<text text-anchor="middle" x="292.5" y="-125.7" font-family="Arial" font-size="14.00">c</text>
</g>
<!-- B|FB -->
<g id="node9" class="node">
<title>B|FB</title>
<path fill="none" stroke="black" d="M623.25,-153C623.25,-153 562.25,-153 562.25,-153 556.25,-153 550.25,-147 550.25,-141 550.25,-141 550.25,-129 550.25,-129 550.25,-123 556.25,-117 562.25,-117 562.25,-117 623.25,-117 623.25,-117 629.25,-117 635.25,-123 635.25,-129 635.25,-129 635.25,-141 635.25,-141 635.25,-147 629.25,-153 623.25,-153"/>
<text text-anchor="start" x="562.25" y="-129.57" font-family="Arial" font-size="14.00">B|FB</text>
<polygon fill="lightblue" stroke="none" points="603.25,-125.12 603.25,-144.88 613.25,-144.88 613.25,-125.12 603.25,-125.12"/>
<polygon fill="darkblue" stroke="none" points="615.25,-125.12 615.25,-144.88 625.25,-144.88 625.25,-125.12 615.25,-125.12"/>
</g>
<!-- B|B&#45;&gt;B|FB -->
<g id="edge7" class="edge">
<title>B|B&#45;&gt;B|FB</title>
<path fill="none" stroke="black" d="M507.09,-135C517.1,-135 528.09,-135 538.74,-135"/>
<polygon fill="black" stroke="black" points="538.6,-138.5 548.6,-135 538.6,-131.5 538.6,-138.5"/>
<text text-anchor="middle" x="528.5" y="-137.45" font-family="Arial" font-size="14.00">d</text>
</g>
<!-- B|FB&#45;&gt;dump|A -->
<g id="edge9" class="edge">
<title>B|FB&#45;&gt;dump|A</title>
<path fill="none" stroke="black" d="M635.49,-135C645.83,-135 656.92,-135 667.27,-135"/>
<polygon fill="black" stroke="black" points="667.07,-138.5 677.07,-135 667.07,-131.5 667.07,-138.5"/>
<text text-anchor="middle" x="657" y="-137.45" font-family="Arial" font-size="14.00">a</text>
</g>
<!-- B|FB&#45;&gt;B|B -->
<g id="edge8" class="edge">
<title>B|FB&#45;&gt;B|B</title>
<path fill="none" stroke="black" d="M550.29,-116.58C541.91,-114.62 533.11,-113.8 524.75,-115.25 522.56,-115.63 520.35,-116.09 518.12,-116.6"/>
<polygon fill="black" stroke="black" points="517.22,-113.22 508.5,-119.24 519.07,-119.97 517.22,-113.22"/>
<text text-anchor="middle" x="528.5" y="-117.7" font-family="Arial" font-size="14.00">b</text>
</g>
<!-- dump|I&#45;&gt;dump|A -->
<g id="edge12" class="edge">
<title>dump|I&#45;&gt;dump|A</title>
<path fill="none" stroke="black" d="M1006.09,-148.13C941.59,-145.26 818.68,-139.78 753.84,-136.89"/>
<polygon fill="black" stroke="black" points="754.1,-133.4 743.95,-136.45 753.79,-140.39 754.1,-133.4"/>
<text text-anchor="middle" x="878" y="-144.95" font-family="Arial" font-size="14.00">a</text>
</g>
<!-- dump|I&#45;&gt;dump|B -->
<g id="edge13" class="edge">
<title>dump|I&#45;&gt;dump|B</title>
<path fill="none" stroke="black" d="M1008.63,-131.61C997.32,-126.33 984.95,-120.55 973.53,-115.22"/>
<polygon fill="black" stroke="black" points="975.27,-112.17 964.73,-111.11 972.31,-118.51 975.27,-112.17"/>
<text text-anchor="middle" x="984.75" y="-123.83" font-family="Arial" font-size="14.00">b</text>
</g>
<!-- A|FA&#45;&gt;A|A -->
<g id="edge20" class="edge">
<title>A|FA&#45;&gt;A|A</title>
<path fill="none" stroke="black" d="M313.97,-173.48C305.66,-172.7 296.86,-172.69 288.75,-174.25 286.57,-174.67 284.37,-175.18 282.17,-175.77"/>
<polygon fill="black" stroke="black" points="281.17,-172.42 272.69,-178.77 283.28,-179.09 281.17,-172.42"/>
<text text-anchor="middle" x="292.5" y="-176.7" font-family="Arial" font-size="14.00">a</text>
</g>
<!-- A|FA&#45;&gt;B|B -->
<g id="edge21" class="edge">
<title>A|FA&#45;&gt;B|B</title>
<path fill="none" stroke="black" d="M386.81,-166.95C397,-162.91 408.3,-158.43 419.13,-154.13"/>
<polygon fill="black" stroke="black" points="420.33,-157.42 428.34,-150.48 417.75,-150.91 420.33,-157.42"/>
<text text-anchor="middle" x="408.25" y="-161.83" font-family="Arial" font-size="14.00">b</text>
</g>
</g>
</svg>
