<?xml version="1.0" encoding="UTF-8" standalone="no"?>
<!DOCTYPE svg PUBLIC "-//W3C//DTD SVG 1.1//EN"
 "http://www.w3.org/Graphics/SVG/1.1/DTD/svg11.dtd">
<!-- Generated by graphviz version 2.43.0 (0)
 -->
<!-- Title: SupBuechiCon((A&#45;B&#45;Machine&#45;B&#45;Breaks),(A&#45;B&#45;Spec&#45;Eventually&#45;B)) [minstate] Pages: 1 -->
<svg width="417pt" height="156pt"
 viewBox="0.00 0.00 417.00 155.93" xmlns="http://www.w3.org/2000/svg" xmlns:xlink="http://www.w3.org/1999/xlink">
<g id="graph0" class="graph" transform="scale(1 1) rotate(0) translate(4 151.93)">
<title>SupBuechiCon((A&#45;B&#45;Machine&#45;B&#45;Breaks),(A&#45;B&#45;Spec&#45;Eventually&#45;B)) [minstate]</title>
<!-- dot_dummyinit_1 -->
<g id="node1" class="node">
<title>dot_dummyinit_1</title>
</g>
<!-- 2 -->
<g id="node2" class="node">
<title>2</title>
<ellipse fill="none" stroke="black" cx="56" cy="-43.93" rx="18" ry="18"/>
<text text-anchor="middle" x="56" y="-40.23" font-family="Arial" font-size="14.00">2</text>
</g>
<!-- dot_dummyinit_1&#45;&gt;2 -->
<g id="edge1" class="edge">
<title>dot_dummyinit_1&#45;&gt;2</title>
<path fill="none" stroke="black" d="M1.15,-43.93C2.67,-43.93 15.1,-43.93 27.63,-43.93"/>
<polygon fill="black" stroke="black" points="27.94,-47.43 37.94,-43.93 27.94,-40.43 27.94,-47.43"/>
</g>
<!-- 1 -->
<g id="node3" class="node">
<title>1</title>
<ellipse fill="none" stroke="black" cx="140" cy="-100.93" rx="18" ry="18"/>
<ellipse fill="none" stroke="black" cx="140" cy="-100.93" rx="22" ry="22"/>
<text text-anchor="middle" x="140" y="-97.23" font-family="Arial" font-size="14.00">1</text>
</g>
<!-- 2&#45;&gt;1 -->
<g id="edge4" class="edge">
<title>2&#45;&gt;1</title>
<path fill="none" stroke="black" d="M71.28,-53.86C82.73,-61.81 99.09,-73.18 112.86,-82.76"/>
<polygon fill="black" stroke="black" points="111.25,-85.9 121.46,-88.74 115.25,-80.15 111.25,-85.9"/>
<text text-anchor="middle" x="96" y="-75.73" font-family="Arial" font-size="14.00">b</text>
</g>
<!-- 5 -->
<g id="node6" class="node">
<title>5</title>
<ellipse fill="none" stroke="black" cx="140" cy="-24.93" rx="18" ry="18"/>
<text text-anchor="middle" x="140" y="-21.23" font-family="Arial" font-size="14.00">5</text>
</g>
<!-- 2&#45;&gt;5 -->
<g id="edge3" class="edge">
<title>2&#45;&gt;5</title>
<path fill="none" stroke="black" d="M74.35,-43.98C82.26,-43.68 91.69,-42.87 100,-40.93 104.61,-39.85 109.39,-38.3 113.95,-36.57"/>
<polygon fill="black" stroke="black" points="115.53,-39.7 123.44,-32.65 112.86,-33.23 115.53,-39.7"/>
<text text-anchor="middle" x="96" y="-46.73" font-family="Arial" font-size="14.00">a</text>
</g>
<!-- 7 -->
<g id="node8" class="node">
<title>7</title>
<ellipse fill="none" stroke="black" cx="223" cy="-100.93" rx="18" ry="18"/>
<text text-anchor="middle" x="223" y="-97.23" font-family="Arial" font-size="14.00">7</text>
</g>
<!-- 1&#45;&gt;7 -->
<g id="edge2" class="edge">
<title>1&#45;&gt;7</title>
<path fill="none" stroke="black" d="M162.28,-100.93C172.27,-100.93 184.28,-100.93 194.9,-100.93"/>
<polygon fill="black" stroke="black" points="194.94,-104.43 204.94,-100.93 194.94,-97.43 194.94,-104.43"/>
<text text-anchor="middle" x="183.5" y="-104.73" font-family="Arial" font-size="14.00">c</text>
</g>
<!-- 4 -->
<g id="node4" class="node">
<title>4</title>
<ellipse fill="none" stroke="black" cx="307" cy="-62.93" rx="18" ry="18"/>
<ellipse fill="none" stroke="black" cx="307" cy="-62.93" rx="22" ry="22"/>
<text text-anchor="middle" x="307" y="-59.23" font-family="Arial" font-size="14.00">4</text>
</g>
<!-- 6 -->
<g id="node7" class="node">
<title>6</title>
<ellipse fill="none" stroke="black" cx="391" cy="-62.93" rx="18" ry="18"/>
<text text-anchor="middle" x="391" y="-59.23" font-family="Arial" font-size="14.00">6</text>
</g>
<!-- 4&#45;&gt;6 -->
<g id="edge6" class="edge">
<title>4&#45;&gt;6</title>
<path fill="none" stroke="black" d="M329.12,-62.93C339.3,-62.93 351.63,-62.93 362.53,-62.93"/>
<polygon fill="black" stroke="black" points="362.82,-66.43 372.82,-62.93 362.82,-59.43 362.82,-66.43"/>
<text text-anchor="middle" x="351" y="-66.73" font-family="Arial" font-size="14.00">d</text>
</g>
<!-- 3 -->
<g id="node5" class="node">
<title>3</title>
<ellipse fill="none" stroke="black" cx="307" cy="-129.93" rx="18" ry="18"/>
<text text-anchor="middle" x="307" y="-126.23" font-family="Arial" font-size="14.00">3</text>
</g>
<!-- 3&#45;&gt;7 -->
<g id="edge5" class="edge">
<title>3&#45;&gt;7</title>
<path fill="none" stroke="black" d="M293.4,-117.89C286.26,-111.88 276.8,-105.21 267,-101.93 262.12,-100.3 256.76,-99.47 251.52,-99.13"/>
<polygon fill="black" stroke="black" points="251.18,-95.63 241.14,-99.03 251.11,-102.63 251.18,-95.63"/>
<text text-anchor="middle" x="263" y="-105.73" font-family="Arial" font-size="14.00">d</text>
</g>
<!-- 5&#45;&gt;2 -->
<g id="edge7" class="edge">
<title>5&#45;&gt;2</title>
<path fill="none" stroke="black" d="M122.17,-21.12C113.07,-19.74 101.74,-19.12 92,-21.93 87.53,-23.22 83.09,-25.26 78.94,-27.59"/>
<polygon fill="black" stroke="black" points="77,-24.68 70.43,-32.99 80.75,-30.59 77,-24.68"/>
<text text-anchor="middle" x="96" y="-25.73" font-family="Arial" font-size="14.00">c</text>
</g>
<!-- 5&#45;&gt;2 -->
<g id="edge8" class="edge">
<title>5&#45;&gt;2</title>
<path fill="none" stroke="black" d="M126.69,-12.39C117.24,-4.35 103.85,3.62 92,-1.93 83.72,-5.81 76.72,-12.71 71.2,-19.82"/>
<polygon fill="black" stroke="black" points="68.29,-17.88 65.42,-28.08 74.02,-21.89 68.29,-17.88"/>
<text text-anchor="middle" x="96" y="-5.73" font-family="Arial" font-size="14.00">d</text>
</g>
<!-- 6&#45;&gt;4 -->
<g id="edge9" class="edge">
<title>6&#45;&gt;4</title>
<path fill="none" stroke="black" d="M375.69,-53.06C369.6,-49.44 362.24,-45.77 355,-43.93 348.24,-42.21 341.16,-43.38 334.6,-45.81"/>
<polygon fill="black" stroke="black" points="333.04,-42.68 325.47,-50.09 336.01,-49.02 333.04,-42.68"/>
<text text-anchor="middle" x="351" y="-47.73" font-family="Arial" font-size="14.00">b</text>
</g>
<!-- 7&#45;&gt;4 -->
<g id="edge11" class="edge">
<title>7&#45;&gt;4</title>
<path fill="none" stroke="black" d="M238.72,-91.85C244.87,-88.23 252.17,-84.17 259,-80.93 264.56,-78.29 270.63,-75.74 276.49,-73.43"/>
<polygon fill="black" stroke="black" points="277.95,-76.63 286.05,-69.8 275.46,-70.08 277.95,-76.63"/>
<text text-anchor="middle" x="263" y="-84.73" font-family="Arial" font-size="14.00">b</text>
</g>
<!-- 7&#45;&gt;3 -->
<g id="edge10" class="edge">
<title>7&#45;&gt;3</title>
<path fill="none" stroke="black" d="M239.46,-108.64C245.47,-111.46 252.47,-114.55 259,-116.93 265.47,-119.29 272.58,-121.46 279.26,-123.33"/>
<polygon fill="black" stroke="black" points="278.7,-126.8 289.27,-125.99 280.5,-120.03 278.7,-126.8"/>
<text text-anchor="middle" x="263" y="-122.73" font-family="Arial" font-size="14.00">a</text>
</g>
</g>
</svg>
