<?xml version="1.0" encoding="UTF-8" standalone="no"?>
<!DOCTYPE svg PUBLIC "-//W3C//DTD SVG 1.0//EN"
 "http://www.w3.org/TR/2001/REC-SVG-20010904/DTD/svg10.dtd" [
 <!ATTLIST svg xmlns:xlink CDATA #FIXED "http://www.w3.org/1999/xlink">
]>
<!-- Generated by Graphviz version 2.20.2 (Tue Mar &#160;2 21:46:26 UTC 2010)
     For user: (mtmoor) Prof. Thomas Moor -->
<!-- Title: Generator Pages: 1 -->
<svg width="358pt" height="164pt"
 viewBox="0.00 0.00 358.00 164.00" xmlns="http://www.w3.org/2000/svg" xmlns:xlink="http://www.w3.org/1999/xlink">
<g id="graph0" class="graph" transform="scale(1 1) rotate(0) translate(4 160)">
<title>Generator</title>
<polygon style="fill:none;stroke:none;" points="-4,4 -4,-160 354,-160 354,4 -4,4"/>
<!-- dot_dummyinit_1 -->
<g id="node1" class="node"><title>dot_dummyinit_1</title>
</g>
<!-- 1N -->
<g id="node3" class="node"><title>1N</title>
<polygon style="fill:none;stroke:black;" points="146,-96 92,-96 92,-60 146,-60 146,-96"/>
<text text-anchor="middle" x="119" y="-73.9" style="font-family:Times New Roman;font-size:14.00;">1N</text>
</g>
<!-- dot_dummyinit_1&#45;&gt;1N -->
<g id="edge2" class="edge"><title>dot_dummyinit_1&#45;&gt;1N</title>
<path style="fill:none;stroke:black;" d="M54,-78C63,-78 72,-78 82,-78"/>
<polygon style="fill:black;stroke:black;" points="82,-81.5001 92,-78 82,-74.5001 82,-81.5001"/>
</g>
<!-- 5F 6N -->
<g id="node4" class="node"><title>5F 6N</title>
<polygon style="fill:none;stroke:black;" points="247,-96 191,-96 191,-60 247,-60 247,-96"/>
<text text-anchor="middle" x="219" y="-73.9" style="font-family:Times New Roman;font-size:14.00;">5F 6N</text>
</g>
<!-- 1N&#45;&gt;5F 6N -->
<g id="edge4" class="edge"><title>1N&#45;&gt;5F 6N</title>
<path style="fill:none;stroke:black;" d="M146,-78C157,-78 169,-78 180,-78"/>
<polygon style="fill:black;stroke:black;" points="180,-81.5001 190,-78 180,-74.5001 180,-81.5001"/>
<text text-anchor="middle" x="168" y="-81.9" style="font-family:Times New Roman;font-size:14.00;">e</text>
</g>
<!-- 9N -->
<g id="node5" class="node"><title>9N</title>
<polygon style="fill:none;stroke:black;" points="348,-156 294,-156 294,-120 348,-120 348,-156"/>
<text text-anchor="middle" x="321" y="-133.9" style="font-family:Times New Roman;font-size:14.00;">9N</text>
</g>
<!-- 5F 6N&#45;&gt;9N -->
<g id="edge6" class="edge"><title>5F 6N&#45;&gt;9N</title>
<path style="fill:none;stroke:black;" d="M248,-95C259,-102 273,-110 285,-117"/>
<polygon style="fill:black;stroke:black;" points="283.559,-120.203 294,-122 286.958,-114.084 283.559,-120.203"/>
<text text-anchor="middle" x="270" y="-111.9" style="font-family:Times New Roman;font-size:14.00;">d</text>
</g>
<!-- 2F 3N -->
<g id="node6" class="node"><title>2F 3N</title>
<polygon style="fill:none;stroke:black;" points="349,-96 293,-96 293,-60 349,-60 349,-96"/>
<text text-anchor="middle" x="321" y="-73.9" style="font-family:Times New Roman;font-size:14.00;">2F 3N</text>
</g>
<!-- 5F 6N&#45;&gt;2F 3N -->
<g id="edge8" class="edge"><title>5F 6N&#45;&gt;2F 3N</title>
<path style="fill:none;stroke:black;" d="M248,-78C259,-78 271,-78 282,-78"/>
<polygon style="fill:black;stroke:black;" points="282,-81.5001 292,-78 282,-74.5001 282,-81.5001"/>
<text text-anchor="middle" x="270" y="-81.9" style="font-family:Times New Roman;font-size:14.00;">f</text>
</g>
<!-- 8F -->
<g id="node7" class="node"><title>8F</title>
<polygon style="fill:none;stroke:black;" points="348,-36 294,-36 294,-1.06581e-14 348,-0 348,-36"/>
<text text-anchor="middle" x="321" y="-13.9" style="font-family:Times New Roman;font-size:14.00;">8F</text>
</g>
<!-- 5F 6N&#45;&gt;8F -->
<g id="edge10" class="edge"><title>5F 6N&#45;&gt;8F</title>
<path style="fill:none;stroke:black;" d="M234,-60C242,-51 254,-40 266,-33 272,-30 278,-27 284,-25"/>
<polygon style="fill:black;stroke:black;" points="285.427,-28.2259 294,-22 283.416,-21.5212 285.427,-28.2259"/>
<text text-anchor="middle" x="270" y="-36.9" style="font-family:Times New Roman;font-size:14.00;">i</text>
</g>
<!-- 2F 3N&#45;&gt;5F 6N -->
<g id="edge12" class="edge"><title>2F 3N&#45;&gt;5F 6N</title>
<path style="fill:none;stroke:black;" d="M292,-62C286,-60 280,-58 274,-57 269,-56 263,-56 258,-57"/>
<polygon style="fill:black;stroke:black;" points="256.573,-53.7741 248,-60 258.584,-60.4788 256.573,-53.7741"/>
<text text-anchor="middle" x="270" y="-60.9" style="font-family:Times New Roman;font-size:14.00;">e</text>
</g>
</g>
</svg>
