<?xml version="1.0" encoding="UTF-8" standalone="no"?>
<!DOCTYPE svg PUBLIC "-//W3C//DTD SVG 1.0//EN"
 "http://www.w3.org/TR/2001/REC-SVG-20010904/DTD/svg10.dtd" [
 <!ATTLIST svg xmlns:xlink CDATA #FIXED "http://www.w3.org/1999/xlink">
]>
<!-- Generated by Graphviz version 2.20.2 (Tue Mar &#160;2 21:46:26 UTC 2010)
     For user: (mtmoor) Prof. Thomas Moor -->
<!-- Title: diag_system_3_modular1 Pages: 1 -->
<svg width="422pt" height="117pt"
 viewBox="0.00 0.00 422.00 117.00" xmlns="http://www.w3.org/2000/svg" xmlns:xlink="http://www.w3.org/1999/xlink">
<g id="graph0" class="graph" transform="scale(1 1) rotate(0) translate(4 113)">
<title>diag_system_3_modular1</title>
<polygon style="fill:none;stroke:none;" points="-4,4 -4,-113 418,-113 418,4 -4,4"/>
<!-- dot_dummyinit_1 -->
<g id="node1" class="node"><title>dot_dummyinit_1</title>
</g>
<!-- 1 -->
<g id="node3" class="node"><title>1</title>
<ellipse style="fill:none;stroke:black;" cx="62" cy="-44" rx="18" ry="18"/>
<ellipse style="fill:none;stroke:black;" cx="62" cy="-44" rx="22" ry="22"/>
<text text-anchor="middle" x="62" y="-39.9" style="font-family:Times New Roman;font-size:14.00;">1</text>
</g>
<!-- dot_dummyinit_1&#45;&gt;1 -->
<g id="edge2" class="edge"><title>dot_dummyinit_1&#45;&gt;1</title>
<path style="fill:none;stroke:black;" d="M2,-44C5,-44 17,-44 30,-44"/>
<polygon style="fill:black;stroke:black;" points="30,-47.5001 40,-44 30,-40.5001 30,-47.5001"/>
</g>
<!-- 2 -->
<g id="node4" class="node"><title>2</title>
<ellipse style="fill:none;stroke:black;" cx="150" cy="-72" rx="18" ry="18"/>
<ellipse style="fill:none;stroke:black;" cx="150" cy="-72" rx="22" ry="22"/>
<text text-anchor="middle" x="150" y="-67.9" style="font-family:Times New Roman;font-size:14.00;">2</text>
</g>
<!-- 1&#45;&gt;2 -->
<g id="edge4" class="edge"><title>1&#45;&gt;2</title>
<path style="fill:none;stroke:black;" d="M83,-51C94,-54 107,-58 119,-62"/>
<polygon style="fill:black;stroke:black;" points="118.416,-65.4788 129,-65 120.427,-58.7741 118.416,-65.4788"/>
<text text-anchor="middle" x="106" y="-61.9" style="font-family:Times New Roman;font-size:14.00;">a</text>
</g>
<!-- 4 -->
<g id="node6" class="node"><title>4</title>
<ellipse style="fill:none;stroke:black;" cx="212" cy="-22" rx="18" ry="18"/>
<ellipse style="fill:none;stroke:black;" cx="212" cy="-22" rx="22" ry="22"/>
<text text-anchor="middle" x="212" y="-17.9" style="font-family:Times New Roman;font-size:14.00;">4</text>
</g>
<!-- 1&#45;&gt;4 -->
<g id="edge6" class="edge"><title>1&#45;&gt;4</title>
<path style="fill:none;stroke:black;" d="M83,-38C89,-36 96,-35 102,-34 128,-29 158,-26 180,-24"/>
<polygon style="fill:black;stroke:black;" points="180.398,-27.4778 190,-23 179.701,-20.5125 180.398,-27.4778"/>
<text text-anchor="middle" x="106" y="-37.9" style="font-family:Times New Roman;font-size:14.00;">b</text>
</g>
<!-- 3 -->
<g id="node5" class="node"><title>3</title>
<ellipse style="fill:none;stroke:black;" cx="274" cy="-87" rx="18" ry="18"/>
<ellipse style="fill:none;stroke:black;" cx="274" cy="-87" rx="22" ry="22"/>
<text text-anchor="middle" x="274" y="-82.9" style="font-family:Times New Roman;font-size:14.00;">3</text>
</g>
<!-- 2&#45;&gt;3 -->
<g id="edge8" class="edge"><title>2&#45;&gt;3</title>
<path style="fill:none;stroke:black;" d="M170,-81C177,-83 184,-86 190,-87 207,-89 226,-90 242,-89"/>
<polygon style="fill:black;stroke:black;" points="242,-92.5001 252,-89 242,-85.5001 242,-92.5001"/>
<text text-anchor="middle" x="212" y="-91.9" style="font-family:Times New Roman;font-size:14.00;">alpha</text>
</g>
<!-- 3&#45;&gt;2 -->
<g id="edge10" class="edge"><title>3&#45;&gt;2</title>
<path style="fill:none;stroke:black;" d="M256,-73C250,-69 242,-65 234,-63 217,-58 197,-60 181,-63"/>
<polygon style="fill:black;stroke:black;" points="180.119,-59.6067 171,-65 181.492,-66.4708 180.119,-59.6067"/>
<text text-anchor="middle" x="212" y="-66.9" style="font-family:Times New Roman;font-size:14.00;">e</text>
</g>
<!-- 5 -->
<g id="node7" class="node"><title>5</title>
<ellipse style="fill:none;stroke:black;" cx="392" cy="-55" rx="18" ry="18"/>
<ellipse style="fill:none;stroke:black;" cx="392" cy="-55" rx="22" ry="22"/>
<text text-anchor="middle" x="392" y="-50.9" style="font-family:Times New Roman;font-size:14.00;">5</text>
</g>
<!-- 3&#45;&gt;5 -->
<g id="edge12" class="edge"><title>3&#45;&gt;5</title>
<path style="fill:none;stroke:black;" d="M296,-84C312,-82 334,-79 352,-73 356,-72 359,-71 363,-69"/>
<polygon style="fill:black;stroke:black;" points="364.283,-72.2598 372,-65 361.44,-65.8631 364.283,-72.2598"/>
<text text-anchor="middle" x="333" y="-84.9" style="font-family:Times New Roman;font-size:14.00;">f</text>
</g>
<!-- 4&#45;&gt;5 -->
<g id="edge14" class="edge"><title>4&#45;&gt;5</title>
<path style="fill:none;stroke:black;" d="M234,-24C262,-26 311,-31 352,-41 355,-41 359,-42 362,-43"/>
<polygon style="fill:black;stroke:black;" points="360.44,-46.1369 371,-47 363.283,-39.7402 360.44,-46.1369"/>
<text text-anchor="middle" x="274" y="-32.9" style="font-family:Times New Roman;font-size:14.00;">d</text>
</g>
<!-- 5&#45;&gt;3 -->
<g id="edge16" class="edge"><title>5&#45;&gt;3</title>
<path style="fill:none;stroke:black;" d="M371,-50C355,-47 332,-45 314,-52 307,-55 301,-59 296,-63"/>
<polygon style="fill:black;stroke:black;" points="293.221,-60.7809 288,-70 297.831,-66.0489 293.221,-60.7809"/>
<text text-anchor="middle" x="333" y="-55.9" style="font-family:Times New Roman;font-size:14.00;">alpha</text>
</g>
</g>
</svg>
