<?xml version="1.0" encoding="UTF-8" standalone="no"?>
<!DOCTYPE svg PUBLIC "-//W3C//DTD SVG 1.0//EN"
 "http://www.w3.org/TR/2001/REC-SVG-20010904/DTD/svg10.dtd" [
 <!ATTLIST svg xmlns:xlink CDATA #FIXED "http://www.w3.org/1999/xlink">
]>
<!-- Generated by Graphviz version 2.20.2 (Tue Mar &#160;2 21:46:26 UTC 2010)
     For user: (mtmoor) Prof. Thomas Moor -->
<!-- Title: Generator Pages: 1 -->
<svg width="720pt" height="83pt"
 viewBox="0.00 0.00 720.00 82.97" xmlns="http://www.w3.org/2000/svg" xmlns:xlink="http://www.w3.org/1999/xlink">
<g id="graph0" class="graph" transform="scale(0.669145 0.669145) rotate(0) translate(4 120)">
<title>Generator</title>
<polygon style="fill:none;stroke:none;" points="-4,4 -4,-120 1072,-120 1072,4 -4,4"/>
<!-- dot_dummyinit_1 -->
<g id="node1" class="node"><title>dot_dummyinit_1</title>
</g>
<!-- 1N -->
<g id="node3" class="node"><title>1N</title>
<polygon style="fill:none;stroke:black;" points="146,-39 92,-39 92,-3 146,-3 146,-39"/>
<text text-anchor="middle" x="119" y="-16.9" style="font-family:Times New Roman;font-size:14.00;">1N</text>
</g>
<!-- dot_dummyinit_1&#45;&gt;1N -->
<g id="edge2" class="edge"><title>dot_dummyinit_1&#45;&gt;1N</title>
<path style="fill:none;stroke:black;" d="M54,-21C63,-21 72,-21 82,-21"/>
<polygon style="fill:black;stroke:black;" points="82,-24.5001 92,-21 82,-17.5001 82,-24.5001"/>
</g>
<!-- 2N -->
<g id="node4" class="node"><title>2N</title>
<polygon style="fill:none;stroke:black;" points="256,-71 202,-71 202,-35 256,-35 256,-71"/>
<text text-anchor="middle" x="229" y="-48.9" style="font-family:Times New Roman;font-size:14.00;">2N</text>
</g>
<!-- 1N&#45;&gt;2N -->
<g id="edge4" class="edge"><title>1N&#45;&gt;2N</title>
<path style="fill:none;stroke:black;" d="M146,-29C160,-33 177,-38 192,-42"/>
<polygon style="fill:black;stroke:black;" points="191.416,-45.4788 202,-45 193.427,-38.7741 191.416,-45.4788"/>
<text text-anchor="middle" x="174" y="-41.9" style="font-family:Times New Roman;font-size:14.00;">sfa</text>
</g>
<!-- 3N 10F 13F -->
<g id="node5" class="node"><title>3N 10F 13F</title>
<polygon style="fill:none;stroke:black;" points="421,-71 325,-71 325,-35 421,-35 421,-71"/>
<text text-anchor="middle" x="373" y="-48.9" style="font-family:Times New Roman;font-size:14.00;">3N 10F 13F</text>
</g>
<!-- 2N&#45;&gt;3N 10F 13F -->
<g id="edge6" class="edge"><title>2N&#45;&gt;3N 10F 13F</title>
<path style="fill:none;stroke:black;" d="M256,-53C272,-53 294,-53 314,-53"/>
<polygon style="fill:black;stroke:black;" points="314,-56.5001 324,-53 314,-49.5001 314,-56.5001"/>
<text text-anchor="middle" x="290" y="-56.9" style="font-family:Times New Roman;font-size:14.00;">sf&#45;c1</text>
</g>
<!-- 4N 11F 14F -->
<g id="node6" class="node"><title>4N 11F 14F</title>
<polygon style="fill:none;stroke:black;" points="587,-64 491,-64 491,-28 587,-28 587,-64"/>
<text text-anchor="middle" x="539" y="-41.9" style="font-family:Times New Roman;font-size:14.00;">4N 11F 14F</text>
</g>
<!-- 3N 10F 13F&#45;&gt;4N 11F 14F -->
<g id="edge8" class="edge"><title>3N 10F 13F&#45;&gt;4N 11F 14F</title>
<path style="fill:none;stroke:black;" d="M422,-51C441,-50 461,-49 480,-48"/>
<polygon style="fill:black;stroke:black;" points="480,-51.5001 490,-48 480,-44.5001 480,-51.5001"/>
<text text-anchor="middle" x="456" y="-52.9" style="font-family:Times New Roman;font-size:14.00;">sfmv</text>
</g>
<!-- 5N 15F -->
<g id="node7" class="node"><title>5N 15F</title>
<polygon style="fill:none;stroke:black;" points="706,-64 640,-64 640,-28 706,-28 706,-64"/>
<text text-anchor="middle" x="673" y="-41.9" style="font-family:Times New Roman;font-size:14.00;">5N 15F</text>
</g>
<!-- 4N 11F 14F&#45;&gt;5N 15F -->
<g id="edge10" class="edge"><title>4N 11F 14F&#45;&gt;5N 15F</title>
<path style="fill:none;stroke:black;" d="M588,-46C602,-46 616,-46 630,-46"/>
<polygon style="fill:black;stroke:black;" points="630,-49.5001 640,-46 630,-42.5001 630,-49.5001"/>
<text text-anchor="middle" x="614" y="-49.9" style="font-family:Times New Roman;font-size:14.00;">sfl</text>
</g>
<!-- 5N 15F&#45;&gt;1N -->
<g id="edge14" class="edge"><title>5N 15F&#45;&gt;1N</title>
<path style="fill:none;stroke:black;" d="M640,-28C614,-15 575,-0 539,-0 229,-0 229,-0 229,-0 205,-0 177,-5 156,-10"/>
<polygon style="fill:black;stroke:black;" points="154.573,-6.77406 146,-13 156.584,-13.4788 154.573,-6.77406"/>
<text text-anchor="middle" x="373" y="-3.9" style="font-family:Times New Roman;font-size:14.00;">sfs</text>
</g>
<!-- 6N 7N 14F -->
<g id="node8" class="node"><title>6N 7N 14F</title>
<polygon style="fill:none;stroke:black;" points="852,-96 762,-96 762,-60 852,-60 852,-96"/>
<text text-anchor="middle" x="807" y="-73.9" style="font-family:Times New Roman;font-size:14.00;">6N 7N 14F</text>
</g>
<!-- 5N 15F&#45;&gt;6N 7N 14F -->
<g id="edge12" class="edge"><title>5N 15F&#45;&gt;6N 7N 14F</title>
<path style="fill:none;stroke:black;" d="M706,-54C720,-57 737,-61 752,-65"/>
<polygon style="fill:black;stroke:black;" points="751.508,-68.4708 762,-67 752.881,-61.6067 751.508,-68.4708"/>
<text text-anchor="middle" x="734" y="-65.9" style="font-family:Times New Roman;font-size:14.00;">sfa</text>
</g>
<!-- 6N 7N 14F&#45;&gt;2N -->
<g id="edge18" class="edge"><title>6N 7N 14F&#45;&gt;2N</title>
<path style="fill:none;stroke:black;" d="M762,-89C736,-95 703,-100 673,-100 373,-100 373,-100 373,-100 335,-100 293,-85 265,-71"/>
<polygon style="fill:black;stroke:black;" points="266.56,-67.8631 256,-67 263.717,-74.2598 266.56,-67.8631"/>
<text text-anchor="middle" x="539" y="-103.9" style="font-family:Times New Roman;font-size:14.00;">sfs</text>
</g>
<!-- 15F -->
<g id="node9" class="node"><title>15F</title>
<polygon style="fill:none;stroke:black;" points="958,-96 904,-96 904,-60 958,-60 958,-96"/>
<text text-anchor="middle" x="931" y="-73.9" style="font-family:Times New Roman;font-size:14.00;">15F</text>
</g>
<!-- 6N 7N 14F&#45;&gt;15F -->
<g id="edge16" class="edge"><title>6N 7N 14F&#45;&gt;15F</title>
<path style="fill:none;stroke:black;" d="M852,-78C866,-78 881,-78 894,-78"/>
<polygon style="fill:black;stroke:black;" points="894,-81.5001 904,-78 894,-74.5001 894,-81.5001"/>
<text text-anchor="middle" x="878" y="-81.9" style="font-family:Times New Roman;font-size:14.00;">sfl</text>
</g>
<!-- 14F -->
<g id="node10" class="node"><title>14F</title>
<polygon style="fill:none;stroke:black;" points="1068,-96 1014,-96 1014,-60 1068,-60 1068,-96"/>
<text text-anchor="middle" x="1041" y="-73.9" style="font-family:Times New Roman;font-size:14.00;">14F</text>
</g>
<!-- 15F&#45;&gt;14F -->
<g id="edge20" class="edge"><title>15F&#45;&gt;14F</title>
<path style="fill:none;stroke:black;" d="M958,-78C972,-78 989,-78 1004,-78"/>
<polygon style="fill:black;stroke:black;" points="1004,-81.5001 1014,-78 1004,-74.5001 1004,-81.5001"/>
<text text-anchor="middle" x="986" y="-81.9" style="font-family:Times New Roman;font-size:14.00;">sfa</text>
</g>
<!-- 14F&#45;&gt;15F -->
<g id="edge22" class="edge"><title>14F&#45;&gt;15F</title>
<path style="fill:none;stroke:black;" d="M1014,-62C1002,-57 989,-54 976,-57 973,-57 970,-58 967,-59"/>
<polygon style="fill:black;stroke:black;" points="965.717,-55.7402 958,-63 968.56,-62.1369 965.717,-55.7402"/>
<text text-anchor="middle" x="986" y="-60.9" style="font-family:Times New Roman;font-size:14.00;">sfl</text>
</g>
</g>
</svg>
