<?xml version="1.0" encoding="UTF-8" standalone="no"?>
<!DOCTYPE svg PUBLIC "-//W3C//DTD SVG 1.0//EN"
 "http://www.w3.org/TR/2001/REC-SVG-20010904/DTD/svg10.dtd" [
 <!ATTLIST svg xmlns:xlink CDATA #FIXED "http://www.w3.org/1999/xlink">
]>
<!-- Generated by Graphviz version 2.20.2 (Tue Mar &#160;2 21:46:26 UTC 2010)
     For user: (mtmoor) Prof. Thomas Moor -->
<!-- Title: Generator Pages: 1 -->
<svg width="578pt" height="108pt"
 viewBox="0.00 0.00 578.00 108.00" xmlns="http://www.w3.org/2000/svg" xmlns:xlink="http://www.w3.org/1999/xlink">
<g id="graph0" class="graph" transform="scale(1 1) rotate(0) translate(4 104)">
<title>Generator</title>
<polygon style="fill:none;stroke:none;" points="-4,4 -4,-104 574,-104 574,4 -4,4"/>
<!-- dot_dummyinit_1 -->
<g id="node1" class="node"><title>dot_dummyinit_1</title>
</g>
<!-- 1N -->
<g id="node3" class="node"><title>1N</title>
<polygon style="fill:none;stroke:black;" points="146,-46 92,-46 92,-10 146,-10 146,-46"/>
<text text-anchor="middle" x="119" y="-23.9" style="font-family:Times New Roman;font-size:14.00;">1N</text>
</g>
<!-- dot_dummyinit_1&#45;&gt;1N -->
<g id="edge2" class="edge"><title>dot_dummyinit_1&#45;&gt;1N</title>
<path style="fill:none;stroke:black;" d="M54,-28C63,-28 72,-28 82,-28"/>
<polygon style="fill:black;stroke:black;" points="82,-31.5001 92,-28 82,-24.5001 82,-31.5001"/>
</g>
<!-- 2N -->
<g id="node4" class="node"><title>2N</title>
<polygon style="fill:none;stroke:black;" points="268,-73 214,-73 214,-37 268,-37 268,-73"/>
<text text-anchor="middle" x="241" y="-50.9" style="font-family:Times New Roman;font-size:14.00;">2N</text>
</g>
<!-- 1N&#45;&gt;2N -->
<g id="edge4" class="edge"><title>1N&#45;&gt;2N</title>
<path style="fill:none;stroke:black;" d="M146,-34C163,-38 185,-43 204,-47"/>
<polygon style="fill:black;stroke:black;" points="203.508,-50.4708 214,-49 204.881,-43.6067 203.508,-50.4708"/>
<text text-anchor="middle" x="180" y="-46.9" style="font-family:Times New Roman;font-size:14.00;">sf&#45;c1</text>
</g>
<!-- 3N 6N 8N 9N -->
<g id="node5" class="node"><title>3N 6N 8N 9N</title>
<polygon style="fill:none;stroke:black;" points="450,-73 342,-73 342,-37 450,-37 450,-73"/>
<text text-anchor="middle" x="396" y="-50.9" style="font-family:Times New Roman;font-size:14.00;">3N 6N 8N 9N</text>
</g>
<!-- 2N&#45;&gt;3N 6N 8N 9N -->
<g id="edge6" class="edge"><title>2N&#45;&gt;3N 6N 8N 9N</title>
<path style="fill:none;stroke:black;" d="M268,-55C286,-55 310,-55 332,-55"/>
<polygon style="fill:black;stroke:black;" points="332,-58.5001 342,-55 332,-51.5001 332,-58.5001"/>
<text text-anchor="middle" x="305" y="-58.9" style="font-family:Times New Roman;font-size:14.00;">c1mv</text>
</g>
<!-- 10N -->
<g id="node6" class="node"><title>10N</title>
<polygon style="fill:none;stroke:black;" points="570,-36 516,-36 516,-1.06581e-14 570,-0 570,-36"/>
<text text-anchor="middle" x="543" y="-13.9" style="font-family:Times New Roman;font-size:14.00;">10N</text>
</g>
<!-- 3N 6N 8N 9N&#45;&gt;10N -->
<g id="edge8" class="edge"><title>3N 6N 8N 9N&#45;&gt;10N</title>
<path style="fill:none;stroke:black;" d="M450,-41C468,-37 489,-31 506,-27"/>
<polygon style="fill:black;stroke:black;" points="506.881,-30.3933 516,-25 505.508,-23.5292 506.881,-30.3933"/>
<text text-anchor="middle" x="483" y="-38.9" style="font-family:Times New Roman;font-size:14.00;">c1a</text>
</g>
<!-- 12F -->
<g id="node7" class="node"><title>12F</title>
<polygon style="fill:none;stroke:black;" points="570,-100 516,-100 516,-64 570,-64 570,-100"/>
<text text-anchor="middle" x="543" y="-77.9" style="font-family:Times New Roman;font-size:14.00;">12F</text>
</g>
<!-- 3N 6N 8N 9N&#45;&gt;12F -->
<g id="edge10" class="edge"><title>3N 6N 8N 9N&#45;&gt;12F</title>
<path style="fill:none;stroke:black;" d="M450,-65C468,-68 489,-72 506,-75"/>
<polygon style="fill:black;stroke:black;" points="505.508,-78.4708 516,-77 506.881,-71.6067 505.508,-78.4708"/>
<text text-anchor="middle" x="483" y="-75.9" style="font-family:Times New Roman;font-size:14.00;">t_c1</text>
</g>
<!-- 10N&#45;&gt;1N -->
<g id="edge12" class="edge"><title>10N&#45;&gt;1N</title>
<path style="fill:none;stroke:black;" d="M516,-19C442,-20 240,-25 156,-27"/>
<polygon style="fill:black;stroke:black;" points="156,-23.5001 146,-27 156,-30.5001 156,-23.5001"/>
<text text-anchor="middle" x="305" y="-28.9" style="font-family:Times New Roman;font-size:14.00;">c1s</text>
</g>
</g>
</svg>
