<?xml version="1.0" encoding="UTF-8" standalone="no"?>
<!DOCTYPE svg PUBLIC "-//W3C//DTD SVG 1.0//EN"
 "http://www.w3.org/TR/2001/REC-SVG-20010904/DTD/svg10.dtd" [
 <!ATTLIST svg xmlns:xlink CDATA #FIXED "http://www.w3.org/1999/xlink">
]>
<!-- Generated by Graphviz version 2.20.2 (Tue Mar &#160;2 21:46:26 UTC 2010)
     For user: (mtmoor) Prof. Thomas Moor -->
<!-- Title: Generator Pages: 1 -->
<svg width="282pt" height="79pt"
 viewBox="0.00 0.00 282.00 79.00" xmlns="http://www.w3.org/2000/svg" xmlns:xlink="http://www.w3.org/1999/xlink">
<g id="graph0" class="graph" transform="scale(1 1) rotate(0) translate(4 75)">
<title>Generator</title>
<polygon style="fill:none;stroke:none;" points="-4,4 -4,-75 278,-75 278,4 -4,4"/>
<!-- dot_dummyinit_1 -->
<g id="node1" class="node"><title>dot_dummyinit_1</title>
</g>
<!-- 1N -->
<g id="node3" class="node"><title>1N</title>
<polygon style="fill:none;stroke:black;" points="146,-36 92,-36 92,-1.06581e-14 146,-0 146,-36"/>
<text text-anchor="middle" x="119" y="-13.9" style="font-family:Times New Roman;font-size:14.00;">1N</text>
</g>
<!-- dot_dummyinit_1&#45;&gt;1N -->
<g id="edge2" class="edge"><title>dot_dummyinit_1&#45;&gt;1N</title>
<path style="fill:none;stroke:black;" d="M54,-18C63,-18 72,-18 82,-18"/>
<polygon style="fill:black;stroke:black;" points="82,-21.5001 92,-18 82,-14.5001 82,-21.5001"/>
</g>
<!-- 5F -->
<g id="node4" class="node"><title>5F</title>
<polygon style="fill:none;stroke:black;" points="274,-36 220,-36 220,-1.06581e-14 274,-0 274,-36"/>
<text text-anchor="middle" x="247" y="-13.9" style="font-family:Times New Roman;font-size:14.00;">5F</text>
</g>
<!-- 1N&#45;&gt;5F -->
<g id="edge4" class="edge"><title>1N&#45;&gt;5F</title>
<path style="fill:none;stroke:black;" d="M146,-18C165,-18 189,-18 210,-18"/>
<polygon style="fill:black;stroke:black;" points="210,-21.5001 220,-18 210,-14.5001 210,-21.5001"/>
<text text-anchor="middle" x="183" y="-21.9" style="font-family:Times New Roman;font-size:14.00;">alpha</text>
</g>
<!-- 5F&#45;&gt;5F -->
<g id="edge6" class="edge"><title>5F&#45;&gt;5F</title>
<path style="fill:none;stroke:black;" d="M235,-36C234,-46 237,-54 247,-54 253,-54 256,-51 258,-46"/>
<polygon style="fill:black;stroke:black;" points="261.488,-46.2987 259,-36 254.522,-45.6021 261.488,-46.2987"/>
<text text-anchor="middle" x="247" y="-57.9" style="font-family:Times New Roman;font-size:14.00;">alpha</text>
</g>
</g>
</svg>
