<?xml version="1.0" encoding="UTF-8" standalone="no"?>
<!DOCTYPE svg PUBLIC "-//W3C//DTD SVG 1.0//EN"
 "http://www.w3.org/TR/2001/REC-SVG-20010904/DTD/svg10.dtd" [
 <!ATTLIST svg xmlns:xlink CDATA #FIXED "http://www.w3.org/1999/xlink">
]>
<!-- Generated by Graphviz version 2.20.2 (Tue Mar &#160;2 21:46:26 UTC 2010)
     For user: (mtmoor) Prof. Thomas Moor -->
<!-- Title: Generator Pages: 1 -->
<svg width="254pt" height="98pt"
 viewBox="0.00 0.00 254.00 98.00" xmlns="http://www.w3.org/2000/svg" xmlns:xlink="http://www.w3.org/1999/xlink">
<g id="graph0" class="graph" transform="scale(1 1) rotate(0) translate(4 94)">
<title>Generator</title>
<polygon style="fill:none;stroke:none;" points="-4,4 -4,-94 250,-94 250,4 -4,4"/>
<!-- dot_dummyinit_1 -->
<g id="node1" class="node"><title>dot_dummyinit_1</title>
</g>
<!-- 1N -->
<g id="node3" class="node"><title>1N</title>
<polygon style="fill:none;stroke:black;" points="146,-63 92,-63 92,-27 146,-27 146,-63"/>
<text text-anchor="middle" x="119" y="-40.9" style="font-family:Times New Roman;font-size:14.00;">1N</text>
</g>
<!-- dot_dummyinit_1&#45;&gt;1N -->
<g id="edge2" class="edge"><title>dot_dummyinit_1&#45;&gt;1N</title>
<path style="fill:none;stroke:black;" d="M54,-45C63,-45 72,-45 82,-45"/>
<polygon style="fill:black;stroke:black;" points="82,-48.5001 92,-45 82,-41.5001 82,-48.5001"/>
</g>
<!-- 6N -->
<g id="node4" class="node"><title>6N</title>
<polygon style="fill:none;stroke:black;" points="246,-90 192,-90 192,-54 246,-54 246,-90"/>
<text text-anchor="middle" x="219" y="-67.9" style="font-family:Times New Roman;font-size:14.00;">6N</text>
</g>
<!-- 1N&#45;&gt;6N -->
<g id="edge4" class="edge"><title>1N&#45;&gt;6N</title>
<path style="fill:none;stroke:black;" d="M146,-52C157,-55 170,-59 182,-62"/>
<polygon style="fill:black;stroke:black;" points="181.508,-65.4708 192,-64 182.881,-58.6067 181.508,-65.4708"/>
<text text-anchor="middle" x="169" y="-61.9" style="font-family:Times New Roman;font-size:14.00;">d</text>
</g>
<!-- 7F -->
<g id="node5" class="node"><title>7F</title>
<polygon style="fill:none;stroke:black;" points="246,-36 192,-36 192,-1.06581e-14 246,-0 246,-36"/>
<text text-anchor="middle" x="219" y="-13.9" style="font-family:Times New Roman;font-size:14.00;">7F</text>
</g>
<!-- 1N&#45;&gt;7F -->
<g id="edge6" class="edge"><title>1N&#45;&gt;7F</title>
<path style="fill:none;stroke:black;" d="M146,-38C157,-35 170,-31 182,-28"/>
<polygon style="fill:black;stroke:black;" points="182.881,-31.3933 192,-26 181.508,-24.5292 182.881,-31.3933"/>
<text text-anchor="middle" x="169" y="-35.9" style="font-family:Times New Roman;font-size:14.00;">h</text>
</g>
</g>
</svg>
