<?xml version="1.0" encoding="UTF-8" standalone="no"?>
<!DOCTYPE svg PUBLIC "-//W3C//DTD SVG 1.0//EN"
 "http://www.w3.org/TR/2001/REC-SVG-20010904/DTD/svg10.dtd" [
 <!ATTLIST svg xmlns:xlink CDATA #FIXED "http://www.w3.org/1999/xlink">
]>
<!-- Generated by Graphviz version 2.20.2 (Tue Mar &#160;2 21:46:26 UTC 2010)
     For user: (mtmoor) Prof. Thomas Moor -->
<!-- Title: Generator Pages: 1 -->
<svg width="686pt" height="126pt"
 viewBox="0.00 0.00 686.00 126.00" xmlns="http://www.w3.org/2000/svg" xmlns:xlink="http://www.w3.org/1999/xlink">
<g id="graph0" class="graph" transform="scale(1 1) rotate(0) translate(4 122)">
<title>Generator</title>
<polygon style="fill:none;stroke:none;" points="-4,4 -4,-122 682,-122 682,4 -4,4"/>
<!-- dot_dummyinit_1 -->
<g id="node1" class="node"><title>dot_dummyinit_1</title>
</g>
<!-- 1N -->
<g id="node3" class="node"><title>1N</title>
<polygon style="fill:none;stroke:black;" points="146,-38 92,-38 92,-2 146,-2 146,-38"/>
<text text-anchor="middle" x="119" y="-15.9" style="font-family:Times New Roman;font-size:14.00;">1N</text>
</g>
<!-- dot_dummyinit_1&#45;&gt;1N -->
<g id="edge2" class="edge"><title>dot_dummyinit_1&#45;&gt;1N</title>
<path style="fill:none;stroke:black;" d="M54,-20C63,-20 72,-20 82,-20"/>
<polygon style="fill:black;stroke:black;" points="82,-23.5001 92,-20 82,-16.5001 82,-23.5001"/>
</g>
<!-- 2N 9F -->
<g id="node4" class="node"><title>2N 9F</title>
<polygon style="fill:none;stroke:black;" points="271,-66 215,-66 215,-30 271,-30 271,-66"/>
<text text-anchor="middle" x="243" y="-43.9" style="font-family:Times New Roman;font-size:14.00;">2N 9F</text>
</g>
<!-- 1N&#45;&gt;2N 9F -->
<g id="edge4" class="edge"><title>1N&#45;&gt;2N 9F</title>
<path style="fill:none;stroke:black;" d="M146,-26C163,-29 185,-35 204,-39"/>
<polygon style="fill:black;stroke:black;" points="203.508,-42.4708 214,-41 204.881,-35.6067 203.508,-42.4708"/>
<text text-anchor="middle" x="180" y="-38.9" style="font-family:Times New Roman;font-size:14.00;">sf&#45;c1</text>
</g>
<!-- 3N 5N 10F -->
<g id="node5" class="node"><title>3N 5N 10F</title>
<polygon style="fill:none;stroke:black;" points="436,-71 346,-71 346,-35 436,-35 436,-71"/>
<text text-anchor="middle" x="391" y="-48.9" style="font-family:Times New Roman;font-size:14.00;">3N 5N 10F</text>
</g>
<!-- 2N 9F&#45;&gt;3N 5N 10F -->
<g id="edge6" class="edge"><title>2N 9F&#45;&gt;3N 5N 10F</title>
<path style="fill:none;stroke:black;" d="M272,-49C290,-49 314,-50 336,-51"/>
<polygon style="fill:black;stroke:black;" points="336,-54.5001 346,-51 336,-47.5001 336,-54.5001"/>
<text text-anchor="middle" x="309" y="-53.9" style="font-family:Times New Roman;font-size:14.00;">c1mv</text>
</g>
<!-- 6N -->
<g id="node6" class="node"><title>6N</title>
<polygon style="fill:none;stroke:black;" points="564,-118 510,-118 510,-82 564,-82 564,-118"/>
<text text-anchor="middle" x="537" y="-95.9" style="font-family:Times New Roman;font-size:14.00;">6N</text>
</g>
<!-- 3N 5N 10F&#45;&gt;6N -->
<g id="edge8" class="edge"><title>3N 5N 10F&#45;&gt;6N</title>
<path style="fill:none;stroke:black;" d="M436,-68C456,-74 481,-82 500,-88"/>
<polygon style="fill:black;stroke:black;" points="499.416,-91.4788 510,-91 501.427,-84.7741 499.416,-91.4788"/>
<text text-anchor="middle" x="473" y="-87.9" style="font-family:Times New Roman;font-size:14.00;">c1a</text>
</g>
<!-- 11F -->
<g id="node7" class="node"><title>11F</title>
<polygon style="fill:none;stroke:black;" points="564,-64 510,-64 510,-28 564,-28 564,-64"/>
<text text-anchor="middle" x="537" y="-41.9" style="font-family:Times New Roman;font-size:14.00;">11F</text>
</g>
<!-- 3N 5N 10F&#45;&gt;11F -->
<g id="edge10" class="edge"><title>3N 5N 10F&#45;&gt;11F</title>
<path style="fill:none;stroke:black;" d="M436,-51C456,-50 480,-49 500,-48"/>
<polygon style="fill:black;stroke:black;" points="500.398,-51.4778 510,-47 499.701,-44.5125 500.398,-51.4778"/>
<text text-anchor="middle" x="473" y="-52.9" style="font-family:Times New Roman;font-size:14.00;">timer</text>
</g>
<!-- 7N -->
<g id="node8" class="node"><title>7N</title>
<polygon style="fill:none;stroke:black;" points="678,-51 624,-51 624,-15 678,-15 678,-51"/>
<text text-anchor="middle" x="651" y="-28.9" style="font-family:Times New Roman;font-size:14.00;">7N</text>
</g>
<!-- 6N&#45;&gt;7N -->
<g id="edge12" class="edge"><title>6N&#45;&gt;7N</title>
<path style="fill:none;stroke:black;" d="M564,-84C579,-75 599,-63 615,-54"/>
<polygon style="fill:black;stroke:black;" points="616.958,-56.916 624,-49 613.559,-50.7969 616.958,-56.916"/>
<text text-anchor="middle" x="594" y="-76.9" style="font-family:Times New Roman;font-size:14.00;">c1s</text>
</g>
<!-- 7N&#45;&gt;1N -->
<g id="edge14" class="edge"><title>7N&#45;&gt;1N</title>
<path style="fill:none;stroke:black;" d="M624,-21C601,-12 568,-1 537,-0 243,-0 243,-0 243,-0 214,-1 181,-6 156,-11"/>
<polygon style="fill:black;stroke:black;" points="155.119,-7.60673 146,-13 156.492,-14.4708 155.119,-7.60673"/>
<text text-anchor="middle" x="391" y="-4.9" style="font-family:Times New Roman;font-size:14.00;">c1l</text>
</g>
</g>
</svg>
