<?xml version="1.0" encoding="UTF-8" standalone="no"?>
<!DOCTYPE svg PUBLIC "-//W3C//DTD SVG 1.0//EN"
 "http://www.w3.org/TR/2001/REC-SVG-20010904/DTD/svg10.dtd" [
 <!ATTLIST svg xmlns:xlink CDATA #FIXED "http://www.w3.org/1999/xlink">
]>
<!-- Generated by Graphviz version 2.20.2 (Tue Mar &#160;2 21:46:26 UTC 2010)
     For user: (mtmoor) Prof. Thomas Moor -->
<!-- Title: Generator Pages: 1 -->
<svg width="268pt" height="123pt"
 viewBox="0.00 0.00 268.00 123.00" xmlns="http://www.w3.org/2000/svg" xmlns:xlink="http://www.w3.org/1999/xlink">
<g id="graph0" class="graph" transform="scale(1 1) rotate(0) translate(4 119)">
<title>Generator</title>
<polygon style="fill:none;stroke:none;" points="-4,4 -4,-119 264,-119 264,4 -4,4"/>
<!-- dot_dummyinit_1 -->
<g id="node1" class="node"><title>dot_dummyinit_1</title>
</g>
<!-- 1 -->
<g id="node3" class="node"><title>1</title>
<ellipse style="fill:none;stroke:black;" cx="62" cy="-53" rx="18" ry="18"/>
<ellipse style="fill:none;stroke:black;" cx="62" cy="-53" rx="22" ry="22"/>
<text text-anchor="middle" x="62" y="-48.9" style="font-family:Times New Roman;font-size:14.00;">1</text>
</g>
<!-- dot_dummyinit_1&#45;&gt;1 -->
<g id="edge2" class="edge"><title>dot_dummyinit_1&#45;&gt;1</title>
<path style="fill:none;stroke:black;" d="M2,-53C5,-53 17,-53 30,-53"/>
<polygon style="fill:black;stroke:black;" points="30,-56.5001 40,-53 30,-49.5001 30,-56.5001"/>
</g>
<!-- 1&#45;&gt;1 -->
<g id="edge8" class="edge"><title>1&#45;&gt;1</title>
<path style="fill:none;stroke:black;" d="M55,-74C54,-84 56,-93 62,-93 66,-93 68,-89 69,-84"/>
<polygon style="fill:black;stroke:black;" points="72.5001,-84 69,-74 65.5001,-84 72.5001,-84"/>
<text text-anchor="middle" x="62" y="-96.9" style="font-family:Times New Roman;font-size:14.00;">alpha</text>
</g>
<!-- 2 -->
<g id="node4" class="node"><title>2</title>
<ellipse style="fill:none;stroke:black;" cx="150" cy="-93" rx="18" ry="18"/>
<ellipse style="fill:none;stroke:black;" cx="150" cy="-93" rx="22" ry="22"/>
<text text-anchor="middle" x="150" y="-88.9" style="font-family:Times New Roman;font-size:14.00;">2</text>
</g>
<!-- 1&#45;&gt;2 -->
<g id="edge4" class="edge"><title>1&#45;&gt;2</title>
<path style="fill:none;stroke:black;" d="M82,-62C93,-68 108,-74 121,-80"/>
<polygon style="fill:black;stroke:black;" points="119.44,-83.1369 130,-84 122.283,-76.7402 119.44,-83.1369"/>
<text text-anchor="middle" x="106" y="-77.9" style="font-family:Times New Roman;font-size:14.00;">a</text>
</g>
<!-- 4 -->
<g id="node6" class="node"><title>4</title>
<ellipse style="fill:none;stroke:black;" cx="150" cy="-22" rx="18" ry="18"/>
<ellipse style="fill:none;stroke:black;" cx="150" cy="-22" rx="22" ry="22"/>
<text text-anchor="middle" x="150" y="-17.9" style="font-family:Times New Roman;font-size:14.00;">4</text>
</g>
<!-- 1&#45;&gt;4 -->
<g id="edge6" class="edge"><title>1&#45;&gt;4</title>
<path style="fill:none;stroke:black;" d="M83,-46C94,-42 107,-37 119,-33"/>
<polygon style="fill:black;stroke:black;" points="121.015,-35.9636 129,-29 118.415,-29.4643 121.015,-35.9636"/>
<text text-anchor="middle" x="106" y="-45.9" style="font-family:Times New Roman;font-size:14.00;">b</text>
</g>
<!-- 3 -->
<g id="node5" class="node"><title>3</title>
<ellipse style="fill:none;stroke:black;" cx="238" cy="-93" rx="18" ry="18"/>
<ellipse style="fill:none;stroke:black;" cx="238" cy="-93" rx="22" ry="22"/>
<text text-anchor="middle" x="238" y="-88.9" style="font-family:Times New Roman;font-size:14.00;">3</text>
</g>
<!-- 2&#45;&gt;3 -->
<g id="edge10" class="edge"><title>2&#45;&gt;3</title>
<path style="fill:none;stroke:black;" d="M172,-93C182,-93 195,-93 206,-93"/>
<polygon style="fill:black;stroke:black;" points="206,-96.5001 216,-93 206,-89.5001 206,-96.5001"/>
<text text-anchor="middle" x="194" y="-96.9" style="font-family:Times New Roman;font-size:14.00;">c</text>
</g>
<!-- 4&#45;&gt;1 -->
<g id="edge12" class="edge"><title>4&#45;&gt;1</title>
<path style="fill:none;stroke:black;" d="M129,-16C120,-14 111,-14 102,-17 95,-20 89,-24 84,-29"/>
<polygon style="fill:black;stroke:black;" points="81.221,-26.7809 76,-36 85.8306,-32.0489 81.221,-26.7809"/>
<text text-anchor="middle" x="106" y="-24.9" style="font-family:Times New Roman;font-size:14.00;">d</text>
</g>
</g>
</svg>
