<?xml version="1.0" encoding="UTF-8" standalone="no"?>
<!DOCTYPE svg PUBLIC "-//W3C//DTD SVG 1.0//EN"
 "http://www.w3.org/TR/2001/REC-SVG-20010904/DTD/svg10.dtd" [
 <!ATTLIST svg xmlns:xlink CDATA #FIXED "http://www.w3.org/1999/xlink">
]>
<!-- Generated by Graphviz version 2.20.2 (Tue Mar &#160;2 21:46:26 UTC 2010)
     For user: (mtmoor) Prof. Thomas Moor -->
<!-- Title: Generator Pages: 1 -->
<svg width="416pt" height="44pt"
 viewBox="0.00 0.00 416.00 44.00" xmlns="http://www.w3.org/2000/svg" xmlns:xlink="http://www.w3.org/1999/xlink">
<g id="graph0" class="graph" transform="scale(1 1) rotate(0) translate(4 40)">
<title>Generator</title>
<polygon style="fill:none;stroke:none;" points="-4,4 -4,-40 412,-40 412,4 -4,4"/>
<!-- dot_dummyinit_1 -->
<g id="node1" class="node"><title>dot_dummyinit_1</title>
</g>
<!-- 1N -->
<g id="node3" class="node"><title>1N</title>
<polygon style="fill:none;stroke:black;" points="146,-36 92,-36 92,-1.06581e-14 146,-0 146,-36"/>
<text text-anchor="middle" x="119" y="-13.9" style="font-family:Times New Roman;font-size:14.00;">1N</text>
</g>
<!-- dot_dummyinit_1&#45;&gt;1N -->
<g id="edge2" class="edge"><title>dot_dummyinit_1&#45;&gt;1N</title>
<path style="fill:none;stroke:black;" d="M54,-18C63,-18 72,-18 82,-18"/>
<polygon style="fill:black;stroke:black;" points="82,-21.5001 92,-18 82,-14.5001 82,-21.5001"/>
</g>
<!-- 4NF 6F -->
<g id="node4" class="node"><title>4NF 6F</title>
<polygon style="fill:none;stroke:black;" points="286,-36 220,-36 220,-1.06581e-14 286,-0 286,-36"/>
<text text-anchor="middle" x="253" y="-13.9" style="font-family:Times New Roman;font-size:14.00;">4NF 6F</text>
</g>
<!-- 1N&#45;&gt;4NF 6F -->
<g id="edge4" class="edge"><title>1N&#45;&gt;4NF 6F</title>
<path style="fill:none;stroke:black;" d="M146,-18C164,-18 189,-18 210,-18"/>
<polygon style="fill:black;stroke:black;" points="210,-21.5001 220,-18 210,-14.5001 210,-21.5001"/>
<text text-anchor="middle" x="183" y="-21.9" style="font-family:Times New Roman;font-size:14.00;">alpha</text>
</g>
<!-- 7F -->
<g id="node5" class="node"><title>7F</title>
<polygon style="fill:none;stroke:black;" points="408,-36 354,-36 354,-1.06581e-14 408,-0 408,-36"/>
<text text-anchor="middle" x="381" y="-13.9" style="font-family:Times New Roman;font-size:14.00;">7F</text>
</g>
<!-- 4NF 6F&#45;&gt;7F -->
<g id="edge6" class="edge"><title>4NF 6F&#45;&gt;7F</title>
<path style="fill:none;stroke:black;" d="M286,-18C304,-18 326,-18 344,-18"/>
<polygon style="fill:black;stroke:black;" points="344,-21.5001 354,-18 344,-14.5001 344,-21.5001"/>
<text text-anchor="middle" x="320" y="-21.9" style="font-family:Times New Roman;font-size:14.00;">beta</text>
</g>
</g>
</svg>
