<?xml version="1.0" encoding="UTF-8" standalone="no"?>
<!DOCTYPE svg PUBLIC "-//W3C//DTD SVG 1.0//EN"
 "http://www.w3.org/TR/2001/REC-SVG-20010904/DTD/svg10.dtd" [
 <!ATTLIST svg xmlns:xlink CDATA #FIXED "http://www.w3.org/1999/xlink">
]>
<!-- Generated by Graphviz version 2.20.2 (Tue Mar &#160;2 21:46:26 UTC 2010)
     For user: (mtmoor) Prof. Thomas Moor -->
<!-- Title: Generator Pages: 1 -->
<svg width="720pt" height="227pt"
 viewBox="0.00 0.00 720.00 227.32" xmlns="http://www.w3.org/2000/svg" xmlns:xlink="http://www.w3.org/1999/xlink">
<g id="graph0" class="graph" transform="scale(0.97561 0.97561) rotate(0) translate(4 229)">
<title>Generator</title>
<polygon style="fill:none;stroke:none;" points="-4,4 -4,-229 734,-229 734,4 -4,4"/>
<!-- dot_dummyinit_1 -->
<g id="node1" class="node"><title>dot_dummyinit_1</title>
</g>
<!-- c1 -->
<g id="node3" class="node"><title>c1</title>
<ellipse style="fill:none;stroke:black;" cx="66" cy="-119" rx="22.2362" ry="22.2362"/>
<ellipse style="fill:none;stroke:black;" cx="66" cy="-119" rx="26.2362" ry="26.2362"/>
<text text-anchor="middle" x="66" y="-114.9" style="font-family:Times New Roman;font-size:14.00;">c1</text>
</g>
<!-- dot_dummyinit_1&#45;&gt;c1 -->
<g id="edge2" class="edge"><title>dot_dummyinit_1&#45;&gt;c1</title>
<path style="fill:none;stroke:black;" d="M2,-119C6,-119 17,-119 30,-119"/>
<polygon style="fill:black;stroke:black;" points="30,-122.5 40,-119 30,-115.5 30,-122.5"/>
</g>
<!-- c2 -->
<g id="node4" class="node"><title>c2</title>
<ellipse style="fill:none;stroke:black;" cx="190" cy="-119" rx="22.2362" ry="22.2362"/>
<ellipse style="fill:none;stroke:black;" cx="190" cy="-119" rx="26.2362" ry="26.2362"/>
<text text-anchor="middle" x="190" y="-114.9" style="font-family:Times New Roman;font-size:14.00;">c2</text>
</g>
<!-- c1&#45;&gt;c2 -->
<g id="edge4" class="edge"><title>c1&#45;&gt;c2</title>
<path style="fill:none;stroke:black;" d="M92,-119C110,-119 134,-119 154,-119"/>
<polygon style="fill:black;stroke:black;" points="154,-122.5 164,-119 154,-115.5 154,-122.5"/>
<text text-anchor="middle" x="128" y="-122.9" style="font-family:Times New Roman;font-size:14.00;">sf&#45;c1</text>
</g>
<!-- c8 -->
<g id="node10" class="node"><title>c8</title>
<ellipse style="fill:none;stroke:black;" cx="190" cy="-194" rx="22.2362" ry="22.2362"/>
<ellipse style="fill:none;stroke:black;" cx="190" cy="-194" rx="26.2362" ry="26.2362"/>
<text text-anchor="middle" x="190" y="-189.9" style="font-family:Times New Roman;font-size:14.00;">c8</text>
</g>
<!-- c1&#45;&gt;c8 -->
<g id="edge6" class="edge"><title>c1&#45;&gt;c8</title>
<path style="fill:none;stroke:black;" d="M88,-133C108,-144 137,-162 159,-175"/>
<polygon style="fill:black;stroke:black;" points="157.559,-178.203 168,-180 160.958,-172.084 157.559,-178.203"/>
<text text-anchor="middle" x="128" y="-167.9" style="font-family:Times New Roman;font-size:14.00;">block</text>
</g>
<!-- c3 -->
<g id="node5" class="node"><title>c3</title>
<ellipse style="fill:none;stroke:black;" cx="316" cy="-129" rx="22.2362" ry="22.2362"/>
<ellipse style="fill:none;stroke:black;" cx="316" cy="-129" rx="26.2362" ry="26.2362"/>
<text text-anchor="middle" x="316" y="-124.9" style="font-family:Times New Roman;font-size:14.00;">c3</text>
</g>
<!-- c2&#45;&gt;c3 -->
<g id="edge12" class="edge"><title>c2&#45;&gt;c3</title>
<path style="fill:none;stroke:black;" d="M216,-118C232,-118 253,-118 272,-120 275,-120 278,-121 281,-121"/>
<polygon style="fill:black;stroke:black;" points="280.508,-124.471 291,-123 281.881,-117.607 280.508,-124.471"/>
<text text-anchor="middle" x="253" y="-123.9" style="font-family:Times New Roman;font-size:14.00;">c1mv</text>
</g>
<!-- c4 -->
<g id="node6" class="node"><title>c4</title>
<ellipse style="fill:none;stroke:black;" cx="316" cy="-59" rx="22.2362" ry="22.2362"/>
<ellipse style="fill:none;stroke:black;" cx="316" cy="-59" rx="26.2362" ry="26.2362"/>
<text text-anchor="middle" x="316" y="-54.9" style="font-family:Times New Roman;font-size:14.00;">c4</text>
</g>
<!-- c2&#45;&gt;c4 -->
<g id="edge8" class="edge"><title>c2&#45;&gt;c4</title>
<path style="fill:none;stroke:black;" d="M213,-106C220,-102 227,-98 234,-95 250,-88 267,-80 282,-73"/>
<polygon style="fill:black;stroke:black;" points="284.015,-75.9636 292,-69 281.415,-69.4643 284.015,-75.9636"/>
<text text-anchor="middle" x="253" y="-101.9" style="font-family:Times New Roman;font-size:14.00;">pass</text>
</g>
<!-- c9 -->
<g id="node11" class="node"><title>c9</title>
<ellipse style="fill:none;stroke:black;" cx="316" cy="-199" rx="22.2362" ry="22.2362"/>
<ellipse style="fill:none;stroke:black;" cx="316" cy="-199" rx="26.2362" ry="26.2362"/>
<text text-anchor="middle" x="316" y="-194.9" style="font-family:Times New Roman;font-size:14.00;">c9</text>
</g>
<!-- c2&#45;&gt;c9 -->
<g id="edge10" class="edge"><title>c2&#45;&gt;c9</title>
<path style="fill:none;stroke:black;" d="M212,-133C232,-146 263,-165 285,-179"/>
<polygon style="fill:black;stroke:black;" points="283.738,-182.365 294,-185 287.621,-176.541 283.738,-182.365"/>
<text text-anchor="middle" x="253" y="-170.9" style="font-family:Times New Roman;font-size:14.00;">block</text>
</g>
<!-- c5 -->
<g id="node7" class="node"><title>c5</title>
<ellipse style="fill:none;stroke:black;" cx="448" cy="-59" rx="22.2362" ry="22.2362"/>
<ellipse style="fill:none;stroke:black;" cx="448" cy="-59" rx="26.2362" ry="26.2362"/>
<text text-anchor="middle" x="448" y="-54.9" style="font-family:Times New Roman;font-size:14.00;">c5</text>
</g>
<!-- c3&#45;&gt;c5 -->
<g id="edge14" class="edge"><title>c3&#45;&gt;c5</title>
<path style="fill:none;stroke:black;" d="M339,-117C360,-106 392,-89 416,-76"/>
<polygon style="fill:black;stroke:black;" points="417.958,-78.916 425,-71 414.559,-72.7969 417.958,-78.916"/>
<text text-anchor="middle" x="379" y="-108.9" style="font-family:Times New Roman;font-size:14.00;">pass</text>
</g>
<!-- c10 -->
<g id="node12" class="node"><title>c10</title>
<ellipse style="fill:none;stroke:black;" cx="448" cy="-175" rx="28.0519" ry="28.0519"/>
<ellipse style="fill:none;stroke:black;" cx="448" cy="-175" rx="31.9903" ry="31.9903"/>
<text text-anchor="middle" x="448" y="-170.9" style="font-family:Times New Roman;font-size:14.00;">c10</text>
</g>
<!-- c3&#45;&gt;c10 -->
<g id="edge16" class="edge"><title>c3&#45;&gt;c10</title>
<path style="fill:none;stroke:black;" d="M341,-138C360,-144 386,-153 408,-161"/>
<polygon style="fill:black;stroke:black;" points="407.416,-164.479 418,-164 409.427,-157.774 407.416,-164.479"/>
<text text-anchor="middle" x="379" y="-158.9" style="font-family:Times New Roman;font-size:14.00;">block</text>
</g>
<!-- c4&#45;&gt;c5 -->
<g id="edge18" class="edge"><title>c4&#45;&gt;c5</title>
<path style="fill:none;stroke:black;" d="M342,-59C362,-59 390,-59 412,-59"/>
<polygon style="fill:black;stroke:black;" points="412,-62.5001 422,-59 412,-55.5001 412,-62.5001"/>
<text text-anchor="middle" x="379" y="-63.9" style="font-family:Times New Roman;font-size:14.00;">c1mv</text>
</g>
<!-- c6 -->
<g id="node8" class="node"><title>c6</title>
<ellipse style="fill:none;stroke:black;" cx="586" cy="-59" rx="22.2362" ry="22.2362"/>
<ellipse style="fill:none;stroke:black;" cx="586" cy="-59" rx="26.2362" ry="26.2362"/>
<text text-anchor="middle" x="586" y="-54.9" style="font-family:Times New Roman;font-size:14.00;">c6</text>
</g>
<!-- c5&#45;&gt;c6 -->
<g id="edge20" class="edge"><title>c5&#45;&gt;c6</title>
<path style="fill:none;stroke:black;" d="M474,-59C496,-59 526,-59 550,-59"/>
<polygon style="fill:black;stroke:black;" points="550,-62.5001 560,-59 550,-55.5001 550,-62.5001"/>
<text text-anchor="middle" x="517" y="-63.9" style="font-family:Times New Roman;font-size:14.00;">c1a</text>
</g>
<!-- c7 -->
<g id="node9" class="node"><title>c7</title>
<ellipse style="fill:none;stroke:black;" cx="704" cy="-26" rx="22.2362" ry="22.2362"/>
<ellipse style="fill:none;stroke:black;" cx="704" cy="-26" rx="26.2362" ry="26.2362"/>
<text text-anchor="middle" x="704" y="-21.9" style="font-family:Times New Roman;font-size:14.00;">c7</text>
</g>
<!-- c6&#45;&gt;c7 -->
<g id="edge22" class="edge"><title>c6&#45;&gt;c7</title>
<path style="fill:none;stroke:black;" d="M611,-52C628,-47 651,-41 669,-36"/>
<polygon style="fill:black;stroke:black;" points="670.427,-39.2259 679,-33 668.416,-32.5212 670.427,-39.2259"/>
<text text-anchor="middle" x="648" y="-50.9" style="font-family:Times New Roman;font-size:14.00;">c1s</text>
</g>
<!-- c7&#45;&gt;c1 -->
<g id="edge24" class="edge"><title>c7&#45;&gt;c1</title>
<path style="fill:none;stroke:black;" d="M679,-19C655,-13 619,-5 586,-5 190,-5 190,-5 190,-5 142,-5 104,-53 83,-87"/>
<polygon style="fill:black;stroke:black;" points="79.7969,-85.5586 78,-96 85.916,-88.9582 79.7969,-85.5586"/>
<text text-anchor="middle" x="379" y="-9.9" style="font-family:Times New Roman;font-size:14.00;">c1l</text>
</g>
<!-- c8&#45;&gt;c9 -->
<g id="edge26" class="edge"><title>c8&#45;&gt;c9</title>
<path style="fill:none;stroke:black;" d="M216,-195C235,-196 259,-197 280,-198"/>
<polygon style="fill:black;stroke:black;" points="280,-201.5 290,-198 280,-194.5 280,-201.5"/>
<text text-anchor="middle" x="253" y="-199.9" style="font-family:Times New Roman;font-size:14.00;">sf&#45;c1</text>
</g>
<!-- c9&#45;&gt;c10 -->
<g id="edge28" class="edge"><title>c9&#45;&gt;c10</title>
<path style="fill:none;stroke:black;" d="M342,-194C360,-191 385,-186 406,-183"/>
<polygon style="fill:black;stroke:black;" points="406.881,-186.393 416,-181 405.508,-179.529 406.881,-186.393"/>
<text text-anchor="middle" x="379" y="-193.9" style="font-family:Times New Roman;font-size:14.00;">c1mv</text>
</g>
<!-- c11 -->
<g id="node13" class="node"><title>c11</title>
<ellipse style="fill:none;stroke:black;" cx="586" cy="-175" rx="28.0519" ry="28.0519"/>
<ellipse style="fill:none;stroke:black;" cx="586" cy="-175" rx="31.9903" ry="31.9903"/>
<text text-anchor="middle" x="586" y="-170.9" style="font-family:Times New Roman;font-size:14.00;">c11</text>
</g>
<!-- c10&#45;&gt;c11 -->
<g id="edge30" class="edge"><title>c10&#45;&gt;c11</title>
<path style="fill:none;stroke:black;" d="M480,-175C499,-175 523,-175 544,-175"/>
<polygon style="fill:black;stroke:black;" points="544,-178.5 554,-175 544,-171.5 544,-178.5"/>
<text text-anchor="middle" x="517" y="-178.9" style="font-family:Times New Roman;font-size:14.00;">timer</text>
</g>
</g>
</svg>
