<?xml version="1.0" encoding="UTF-8" standalone="no"?>
<!DOCTYPE svg PUBLIC "-//W3C//DTD SVG 1.0//EN"
 "http://www.w3.org/TR/2001/REC-SVG-20010904/DTD/svg10.dtd" [
 <!ATTLIST svg xmlns:xlink CDATA #FIXED "http://www.w3.org/1999/xlink">
]>
<!-- Generated by Graphviz version 2.20.2 (Tue Mar &#160;2 21:46:26 UTC 2010)
     For user: (mtmoor) Prof. Thomas Moor -->
<!-- Title: Generator Pages: 1 -->
<svg width="720pt" height="206pt"
 viewBox="0.00 0.00 720.00 206.11" xmlns="http://www.w3.org/2000/svg" xmlns:xlink="http://www.w3.org/1999/xlink">
<g id="graph0" class="graph" transform="scale(0.932642 0.932642) rotate(0) translate(4 217)">
<title>Generator</title>
<polygon style="fill:none;stroke:none;" points="-4,4 -4,-217 768,-217 768,4 -4,4"/>
<!-- dot_dummyinit_1 -->
<g id="node1" class="node"><title>dot_dummyinit_1</title>
</g>
<!-- c1 -->
<g id="node3" class="node"><title>c1</title>
<ellipse style="fill:none;stroke:black;" cx="66" cy="-57" rx="22.2362" ry="22.2362"/>
<ellipse style="fill:none;stroke:black;" cx="66" cy="-57" rx="26.2362" ry="26.2362"/>
<text text-anchor="middle" x="66" y="-52.9" style="font-family:Times New Roman;font-size:14.00;">c1</text>
</g>
<!-- dot_dummyinit_1&#45;&gt;c1 -->
<g id="edge2" class="edge"><title>dot_dummyinit_1&#45;&gt;c1</title>
<path style="fill:none;stroke:black;" d="M2,-57C6,-57 17,-57 30,-57"/>
<polygon style="fill:black;stroke:black;" points="30,-60.5001 40,-57 30,-53.5001 30,-60.5001"/>
</g>
<!-- cb2 -->
<g id="node4" class="node"><title>cb2</title>
<ellipse style="fill:none;stroke:black;" cx="192" cy="-99" rx="27.7953" ry="27.7953"/>
<ellipse style="fill:none;stroke:black;" cx="192" cy="-99" rx="31.7953" ry="31.7953"/>
<text text-anchor="middle" x="192" y="-94.9" style="font-family:Times New Roman;font-size:14.00;">cb2</text>
</g>
<!-- c1&#45;&gt;cb2 -->
<g id="edge4" class="edge"><title>c1&#45;&gt;cb2</title>
<path style="fill:none;stroke:black;" d="M91,-65C108,-71 132,-79 152,-86"/>
<polygon style="fill:black;stroke:black;" points="151.416,-89.4788 162,-89 153.427,-82.7741 151.416,-89.4788"/>
<text text-anchor="middle" x="126" y="-87.9" style="font-family:Times New Roman;font-size:14.00;">sf&#45;c1</text>
</g>
<!-- cb3 -->
<g id="node5" class="node"><title>cb3</title>
<ellipse style="fill:none;stroke:black;" cx="330" cy="-99" rx="27.7953" ry="27.7953"/>
<ellipse style="fill:none;stroke:black;" cx="330" cy="-99" rx="31.7953" ry="31.7953"/>
<text text-anchor="middle" x="330" y="-94.9" style="font-family:Times New Roman;font-size:14.00;">cb3</text>
</g>
<!-- cb2&#45;&gt;cb3 -->
<g id="edge8" class="edge"><title>cb2&#45;&gt;cb3</title>
<path style="fill:none;stroke:black;" d="M224,-99C243,-99 267,-99 288,-99"/>
<polygon style="fill:black;stroke:black;" points="288,-102.5 298,-99 288,-95.5001 288,-102.5"/>
<text text-anchor="middle" x="261" y="-103.9" style="font-family:Times New Roman;font-size:14.00;">c1mv</text>
</g>
<!-- cb4 -->
<g id="node6" class="node"><title>cb4</title>
<ellipse style="fill:none;stroke:black;" cx="330" cy="-181" rx="27.7953" ry="27.7953"/>
<ellipse style="fill:none;stroke:black;" cx="330" cy="-181" rx="31.7953" ry="31.7953"/>
<text text-anchor="middle" x="330" y="-176.9" style="font-family:Times New Roman;font-size:14.00;">cb4</text>
</g>
<!-- cb2&#45;&gt;cb4 -->
<g id="edge6" class="edge"><title>cb2&#45;&gt;cb4</title>
<path style="fill:none;stroke:black;" d="M220,-115C241,-127 271,-145 294,-160"/>
<polygon style="fill:black;stroke:black;" points="292.559,-163.203 303,-165 295.958,-157.084 292.559,-163.203"/>
<text text-anchor="middle" x="261" y="-155.9" style="font-family:Times New Roman;font-size:14.00;">pass</text>
</g>
<!-- cb5 -->
<g id="node7" class="node"><title>cb5</title>
<ellipse style="fill:none;stroke:black;" cx="468" cy="-103" rx="27.7953" ry="27.7953"/>
<ellipse style="fill:none;stroke:black;" cx="468" cy="-103" rx="31.7953" ry="31.7953"/>
<text text-anchor="middle" x="468" y="-98.9" style="font-family:Times New Roman;font-size:14.00;">cb5</text>
</g>
<!-- cb3&#45;&gt;cb5 -->
<g id="edge10" class="edge"><title>cb3&#45;&gt;cb5</title>
<path style="fill:none;stroke:black;" d="M362,-100C381,-101 405,-101 426,-102"/>
<polygon style="fill:black;stroke:black;" points="426,-105.5 436,-102 426,-98.5001 426,-105.5"/>
<text text-anchor="middle" x="399" y="-107.9" style="font-family:Times New Roman;font-size:14.00;">pass</text>
</g>
<!-- cb4&#45;&gt;cb5 -->
<g id="edge12" class="edge"><title>cb4&#45;&gt;cb5</title>
<path style="fill:none;stroke:black;" d="M358,-165C379,-153 408,-136 431,-124"/>
<polygon style="fill:black;stroke:black;" points="432.958,-126.916 440,-119 429.559,-120.797 432.958,-126.916"/>
<text text-anchor="middle" x="399" y="-159.9" style="font-family:Times New Roman;font-size:14.00;">c1mv</text>
</g>
<!-- cb6 -->
<g id="node8" class="node"><title>cb6</title>
<ellipse style="fill:none;stroke:black;" cx="602" cy="-32" rx="27.7953" ry="27.7953"/>
<ellipse style="fill:none;stroke:black;" cx="602" cy="-32" rx="31.7953" ry="31.7953"/>
<text text-anchor="middle" x="602" y="-27.9" style="font-family:Times New Roman;font-size:14.00;">cb6</text>
</g>
<!-- cb5&#45;&gt;cb6 -->
<g id="edge14" class="edge"><title>cb5&#45;&gt;cb6</title>
<path style="fill:none;stroke:black;" d="M496,-88C516,-77 543,-63 565,-52"/>
<polygon style="fill:black;stroke:black;" points="566.958,-54.916 574,-47 563.559,-48.7969 566.958,-54.916"/>
<text text-anchor="middle" x="535" y="-81.9" style="font-family:Times New Roman;font-size:14.00;">c1a</text>
</g>
<!-- cb7 -->
<g id="node9" class="node"><title>cb7</title>
<ellipse style="fill:none;stroke:black;" cx="602" cy="-114" rx="27.7953" ry="27.7953"/>
<ellipse style="fill:none;stroke:black;" cx="602" cy="-114" rx="31.7953" ry="31.7953"/>
<text text-anchor="middle" x="602" y="-109.9" style="font-family:Times New Roman;font-size:14.00;">cb7</text>
</g>
<!-- cb5&#45;&gt;cb7 -->
<g id="edge16" class="edge"><title>cb5&#45;&gt;cb7</title>
<path style="fill:none;stroke:black;" d="M500,-106C518,-108 541,-109 560,-110"/>
<polygon style="fill:black;stroke:black;" points="559.701,-113.488 570,-111 560.398,-106.522 559.701,-113.488"/>
<text text-anchor="middle" x="535" y="-115.9" style="font-family:Times New Roman;font-size:14.00;">f_pfd</text>
</g>
<!-- cb6&#45;&gt;c1 -->
<g id="edge18" class="edge"><title>cb6&#45;&gt;c1</title>
<path style="fill:none;stroke:black;" d="M570,-32C543,-32 503,-32 468,-32 192,-32 192,-32 192,-32 160,-32 126,-40 101,-46"/>
<polygon style="fill:black;stroke:black;" points="99.5725,-42.7741 91,-49 101.584,-49.4788 99.5725,-42.7741"/>
<text text-anchor="middle" x="330" y="-36.9" style="font-family:Times New Roman;font-size:14.00;">c1s</text>
</g>
<!-- cb8 -->
<g id="node10" class="node"><title>cb8</title>
<ellipse style="fill:none;stroke:black;" cx="732" cy="-114" rx="27.7953" ry="27.7953"/>
<ellipse style="fill:none;stroke:black;" cx="732" cy="-114" rx="31.7953" ry="31.7953"/>
<text text-anchor="middle" x="732" y="-109.9" style="font-family:Times New Roman;font-size:14.00;">cb8</text>
</g>
<!-- cb7&#45;&gt;cb8 -->
<g id="edge20" class="edge"><title>cb7&#45;&gt;cb8</title>
<path style="fill:none;stroke:black;" d="M634,-114C651,-114 672,-114 690,-114"/>
<polygon style="fill:black;stroke:black;" points="690,-117.5 700,-114 690,-110.5 690,-117.5"/>
<text text-anchor="middle" x="667" y="-118.9" style="font-family:Times New Roman;font-size:14.00;">t_c1</text>
</g>
</g>
</svg>
