<?xml version="1.0" encoding="UTF-8" standalone="no"?>
<!DOCTYPE svg PUBLIC "-//W3C//DTD SVG 1.0//EN"
 "http://www.w3.org/TR/2001/REC-SVG-20010904/DTD/svg10.dtd" [
 <!ATTLIST svg xmlns:xlink CDATA #FIXED "http://www.w3.org/1999/xlink">
]>
<!-- Generated by Graphviz version 2.20.2 (Tue Mar &#160;2 21:46:26 UTC 2010)
     For user: (mtmoor) Prof. Thomas Moor -->
<!-- Title: diag_system_3_modular1 Pages: 1 -->
<svg width="270pt" height="176pt"
 viewBox="0.00 0.00 270.00 176.00" xmlns="http://www.w3.org/2000/svg" xmlns:xlink="http://www.w3.org/1999/xlink">
<g id="graph0" class="graph" transform="scale(1 1) rotate(0) translate(4 172)">
<title>diag_system_3_modular1</title>
<polygon style="fill:none;stroke:none;" points="-4,4 -4,-172 266,-172 266,4 -4,4"/>
<!-- dot_dummyinit_1 -->
<g id="node1" class="node"><title>dot_dummyinit_1</title>
</g>
<!-- 1 -->
<g id="node3" class="node"><title>1</title>
<ellipse style="fill:none;stroke:black;" cx="62" cy="-84" rx="18" ry="18"/>
<ellipse style="fill:none;stroke:black;" cx="62" cy="-84" rx="22" ry="22"/>
<text text-anchor="middle" x="62" y="-79.9" style="font-family:Times New Roman;font-size:14.00;">1</text>
</g>
<!-- dot_dummyinit_1&#45;&gt;1 -->
<g id="edge2" class="edge"><title>dot_dummyinit_1&#45;&gt;1</title>
<path style="fill:none;stroke:black;" d="M2,-84C5,-84 17,-84 30,-84"/>
<polygon style="fill:black;stroke:black;" points="30,-87.5001 40,-84 30,-80.5001 30,-87.5001"/>
</g>
<!-- 2 -->
<g id="node4" class="node"><title>2</title>
<ellipse style="fill:none;stroke:black;" cx="150" cy="-146" rx="18" ry="18"/>
<ellipse style="fill:none;stroke:black;" cx="150" cy="-146" rx="22" ry="22"/>
<text text-anchor="middle" x="150" y="-141.9" style="font-family:Times New Roman;font-size:14.00;">2</text>
</g>
<!-- 1&#45;&gt;2 -->
<g id="edge6" class="edge"><title>1&#45;&gt;2</title>
<path style="fill:none;stroke:black;" d="M80,-97C92,-106 109,-118 123,-127"/>
<polygon style="fill:black;stroke:black;" points="121.738,-130.365 132,-133 125.621,-124.541 121.738,-130.365"/>
<text text-anchor="middle" x="106" y="-119.9" style="font-family:Times New Roman;font-size:14.00;">b</text>
</g>
<!-- 3 -->
<g id="node5" class="node"><title>3</title>
<ellipse style="fill:none;stroke:black;" cx="150" cy="-84" rx="18" ry="18"/>
<ellipse style="fill:none;stroke:black;" cx="150" cy="-84" rx="22" ry="22"/>
<text text-anchor="middle" x="150" y="-79.9" style="font-family:Times New Roman;font-size:14.00;">3</text>
</g>
<!-- 1&#45;&gt;3 -->
<g id="edge4" class="edge"><title>1&#45;&gt;3</title>
<path style="fill:none;stroke:black;" d="M84,-84C94,-84 107,-84 118,-84"/>
<polygon style="fill:black;stroke:black;" points="118,-87.5001 128,-84 118,-80.5001 118,-87.5001"/>
<text text-anchor="middle" x="106" y="-87.9" style="font-family:Times New Roman;font-size:14.00;">a</text>
</g>
<!-- 4 -->
<g id="node6" class="node"><title>4</title>
<ellipse style="fill:none;stroke:black;" cx="150" cy="-22" rx="18" ry="18"/>
<ellipse style="fill:none;stroke:black;" cx="150" cy="-22" rx="22" ry="22"/>
<text text-anchor="middle" x="150" y="-17.9" style="font-family:Times New Roman;font-size:14.00;">4</text>
</g>
<!-- 1&#45;&gt;4 -->
<g id="edge8" class="edge"><title>1&#45;&gt;4</title>
<path style="fill:none;stroke:black;" d="M80,-71C92,-62 109,-50 123,-41"/>
<polygon style="fill:black;stroke:black;" points="125.621,-43.4592 132,-35 121.738,-37.6349 125.621,-43.4592"/>
<text text-anchor="middle" x="106" y="-58.9" style="font-family:Times New Roman;font-size:14.00;">c</text>
</g>
<!-- 5 -->
<g id="node7" class="node"><title>5</title>
<ellipse style="fill:none;stroke:black;" cx="240" cy="-146" rx="18" ry="18"/>
<ellipse style="fill:none;stroke:black;" cx="240" cy="-146" rx="22" ry="22"/>
<text text-anchor="middle" x="240" y="-141.9" style="font-family:Times New Roman;font-size:14.00;">5</text>
</g>
<!-- 2&#45;&gt;5 -->
<g id="edge10" class="edge"><title>2&#45;&gt;5</title>
<path style="fill:none;stroke:black;" d="M172,-146C183,-146 196,-146 208,-146"/>
<polygon style="fill:black;stroke:black;" points="208,-149.5 218,-146 208,-142.5 208,-149.5"/>
<text text-anchor="middle" x="195" y="-149.9" style="font-family:Times New Roman;font-size:14.00;">i</text>
</g>
<!-- 6 -->
<g id="node8" class="node"><title>6</title>
<ellipse style="fill:none;stroke:black;" cx="240" cy="-84" rx="18" ry="18"/>
<ellipse style="fill:none;stroke:black;" cx="240" cy="-84" rx="22" ry="22"/>
<text text-anchor="middle" x="240" y="-79.9" style="font-family:Times New Roman;font-size:14.00;">6</text>
</g>
<!-- 3&#45;&gt;6 -->
<g id="edge12" class="edge"><title>3&#45;&gt;6</title>
<path style="fill:none;stroke:black;" d="M172,-84C183,-84 196,-84 208,-84"/>
<polygon style="fill:black;stroke:black;" points="208,-87.5001 218,-84 208,-80.5001 208,-87.5001"/>
<text text-anchor="middle" x="195" y="-87.9" style="font-family:Times New Roman;font-size:14.00;">d</text>
</g>
<!-- 7 -->
<g id="node9" class="node"><title>7</title>
<ellipse style="fill:none;stroke:black;" cx="240" cy="-22" rx="18" ry="18"/>
<ellipse style="fill:none;stroke:black;" cx="240" cy="-22" rx="22" ry="22"/>
<text text-anchor="middle" x="240" y="-17.9" style="font-family:Times New Roman;font-size:14.00;">7</text>
</g>
<!-- 4&#45;&gt;7 -->
<g id="edge14" class="edge"><title>4&#45;&gt;7</title>
<path style="fill:none;stroke:black;" d="M172,-22C183,-22 196,-22 208,-22"/>
<polygon style="fill:black;stroke:black;" points="208,-25.5001 218,-22 208,-18.5001 208,-25.5001"/>
<text text-anchor="middle" x="195" y="-25.9" style="font-family:Times New Roman;font-size:14.00;">h</text>
</g>
</g>
</svg>
