<?xml version="1.0" encoding="UTF-8" standalone="no"?>
<!DOCTYPE svg PUBLIC "-//W3C//DTD SVG 1.0//EN"
 "http://www.w3.org/TR/2001/REC-SVG-20010904/DTD/svg10.dtd" [
 <!ATTLIST svg xmlns:xlink CDATA #FIXED "http://www.w3.org/1999/xlink">
]>
<!-- Generated by Graphviz version 2.20.2 (Tue Mar &#160;2 21:46:26 UTC 2010)
     For user: (mtmoor) Prof. Thomas Moor -->
<!-- Title: diag_system_2_abstracton_fails Pages: 1 -->
<svg width="474pt" height="128pt"
 viewBox="0.00 0.00 474.00 128.00" xmlns="http://www.w3.org/2000/svg" xmlns:xlink="http://www.w3.org/1999/xlink">
<g id="graph0" class="graph" transform="scale(1 1) rotate(0) translate(4 124)">
<title>diag_system_2_abstracton_fails</title>
<polygon style="fill:none;stroke:none;" points="-4,4 -4,-124 470,-124 470,4 -4,4"/>
<!-- dot_dummyinit_1 -->
<g id="node1" class="node"><title>dot_dummyinit_1</title>
</g>
<!-- 1 -->
<g id="node3" class="node"><title>1</title>
<ellipse style="fill:none;stroke:black;" cx="62" cy="-55" rx="18" ry="18"/>
<ellipse style="fill:none;stroke:black;" cx="62" cy="-55" rx="22" ry="22"/>
<text text-anchor="middle" x="62" y="-50.9" style="font-family:Times New Roman;font-size:14.00;">1</text>
</g>
<!-- dot_dummyinit_1&#45;&gt;1 -->
<g id="edge2" class="edge"><title>dot_dummyinit_1&#45;&gt;1</title>
<path style="fill:none;stroke:black;" d="M2,-55C5,-55 17,-55 30,-55"/>
<polygon style="fill:black;stroke:black;" points="30,-58.5001 40,-55 30,-51.5001 30,-58.5001"/>
</g>
<!-- 2 -->
<g id="node4" class="node"><title>2</title>
<ellipse style="fill:none;stroke:black;" cx="150" cy="-55" rx="18" ry="18"/>
<ellipse style="fill:none;stroke:black;" cx="150" cy="-55" rx="22" ry="22"/>
<text text-anchor="middle" x="150" y="-50.9" style="font-family:Times New Roman;font-size:14.00;">2</text>
</g>
<!-- 1&#45;&gt;2 -->
<g id="edge4" class="edge"><title>1&#45;&gt;2</title>
<path style="fill:none;stroke:black;" d="M84,-55C94,-55 107,-55 118,-55"/>
<polygon style="fill:black;stroke:black;" points="118,-58.5001 128,-55 118,-51.5001 118,-58.5001"/>
<text text-anchor="middle" x="106" y="-58.9" style="font-family:Times New Roman;font-size:14.00;">a</text>
</g>
<!-- 3 -->
<g id="node5" class="node"><title>3</title>
<ellipse style="fill:none;stroke:black;" cx="238" cy="-84" rx="18" ry="18"/>
<ellipse style="fill:none;stroke:black;" cx="238" cy="-84" rx="22" ry="22"/>
<text text-anchor="middle" x="238" y="-79.9" style="font-family:Times New Roman;font-size:14.00;">3</text>
</g>
<!-- 2&#45;&gt;3 -->
<g id="edge6" class="edge"><title>2&#45;&gt;3</title>
<path style="fill:none;stroke:black;" d="M171,-62C182,-66 195,-70 207,-74"/>
<polygon style="fill:black;stroke:black;" points="206.416,-77.4788 217,-77 208.427,-70.7741 206.416,-77.4788"/>
<text text-anchor="middle" x="194" y="-72.9" style="font-family:Times New Roman;font-size:14.00;">b</text>
</g>
<!-- 6 -->
<g id="node8" class="node"><title>6</title>
<ellipse style="fill:none;stroke:black;" cx="238" cy="-22" rx="18" ry="18"/>
<ellipse style="fill:none;stroke:black;" cx="238" cy="-22" rx="22" ry="22"/>
<text text-anchor="middle" x="238" y="-17.9" style="font-family:Times New Roman;font-size:14.00;">6</text>
</g>
<!-- 2&#45;&gt;6 -->
<g id="edge8" class="edge"><title>2&#45;&gt;6</title>
<path style="fill:none;stroke:black;" d="M171,-47C182,-43 195,-38 207,-34"/>
<polygon style="fill:black;stroke:black;" points="209.015,-36.9636 217,-30 206.415,-30.4643 209.015,-36.9636"/>
<text text-anchor="middle" x="194" y="-42.9" style="font-family:Times New Roman;font-size:14.00;">c</text>
</g>
<!-- 4 -->
<g id="node6" class="node"><title>4</title>
<ellipse style="fill:none;stroke:black;" cx="326" cy="-98" rx="18" ry="18"/>
<ellipse style="fill:none;stroke:black;" cx="326" cy="-98" rx="22" ry="22"/>
<text text-anchor="middle" x="326" y="-93.9" style="font-family:Times New Roman;font-size:14.00;">4</text>
</g>
<!-- 3&#45;&gt;4 -->
<g id="edge10" class="edge"><title>3&#45;&gt;4</title>
<path style="fill:none;stroke:black;" d="M260,-88C266,-89 272,-90 278,-91 283,-92 289,-92 294,-93"/>
<polygon style="fill:black;stroke:black;" points="293.508,-96.4708 304,-95 294.881,-89.6067 293.508,-96.4708"/>
<text text-anchor="middle" x="282" y="-94.9" style="font-family:Times New Roman;font-size:14.00;">e</text>
</g>
<!-- 4&#45;&gt;3 -->
<g id="edge14" class="edge"><title>4&#45;&gt;3</title>
<path style="fill:none;stroke:black;" d="M311,-82C304,-76 295,-70 286,-67 279,-64 272,-65 265,-67"/>
<polygon style="fill:black;stroke:black;" points="263.717,-63.7402 256,-71 266.56,-70.1369 263.717,-63.7402"/>
<text text-anchor="middle" x="282" y="-70.9" style="font-family:Times New Roman;font-size:14.00;">d</text>
</g>
<!-- 5 -->
<g id="node7" class="node"><title>5</title>
<ellipse style="fill:none;stroke:black;" cx="444" cy="-98" rx="18" ry="18"/>
<ellipse style="fill:none;stroke:black;" cx="444" cy="-98" rx="22" ry="22"/>
<text text-anchor="middle" x="444" y="-93.9" style="font-family:Times New Roman;font-size:14.00;">5</text>
</g>
<!-- 4&#45;&gt;5 -->
<g id="edge12" class="edge"><title>4&#45;&gt;5</title>
<path style="fill:none;stroke:black;" d="M348,-98C366,-98 392,-98 412,-98"/>
<polygon style="fill:black;stroke:black;" points="412,-101.5 422,-98 412,-94.5001 412,-101.5"/>
<text text-anchor="middle" x="385" y="-101.9" style="font-family:Times New Roman;font-size:14.00;">alpha</text>
</g>
<!-- 7 -->
<g id="node9" class="node"><title>7</title>
<ellipse style="fill:none;stroke:black;" cx="326" cy="-22" rx="18" ry="18"/>
<ellipse style="fill:none;stroke:black;" cx="326" cy="-22" rx="22" ry="22"/>
<text text-anchor="middle" x="326" y="-17.9" style="font-family:Times New Roman;font-size:14.00;">7</text>
</g>
<!-- 6&#45;&gt;7 -->
<g id="edge16" class="edge"><title>6&#45;&gt;7</title>
<path style="fill:none;stroke:black;" d="M260,-22C270,-22 283,-22 294,-22"/>
<polygon style="fill:black;stroke:black;" points="294,-25.5001 304,-22 294,-18.5001 294,-25.5001"/>
<text text-anchor="middle" x="282" y="-25.9" style="font-family:Times New Roman;font-size:14.00;">f</text>
</g>
<!-- 8 -->
<g id="node10" class="node"><title>8</title>
<ellipse style="fill:none;stroke:black;" cx="444" cy="-22" rx="18" ry="18"/>
<ellipse style="fill:none;stroke:black;" cx="444" cy="-22" rx="22" ry="22"/>
<text text-anchor="middle" x="444" y="-17.9" style="font-family:Times New Roman;font-size:14.00;">8</text>
</g>
<!-- 7&#45;&gt;8 -->
<g id="edge18" class="edge"><title>7&#45;&gt;8</title>
<path style="fill:none;stroke:black;" d="M348,-22C366,-22 392,-22 412,-22"/>
<polygon style="fill:black;stroke:black;" points="412,-25.5001 422,-22 412,-18.5001 412,-25.5001"/>
<text text-anchor="middle" x="385" y="-25.9" style="font-family:Times New Roman;font-size:14.00;">beta</text>
</g>
</g>
</svg>
