<?xml version="1.0" encoding="UTF-8" standalone="no"?>
<!DOCTYPE svg PUBLIC "-//W3C//DTD SVG 1.0//EN"
 "http://www.w3.org/TR/2001/REC-SVG-20010904/DTD/svg10.dtd" [
 <!ATTLIST svg xmlns:xlink CDATA #FIXED "http://www.w3.org/1999/xlink">
]>
<!-- Generated by Graphviz version 2.20.2 (Tue Mar &#160;2 21:46:26 UTC 2010)
     For user: (mtmoor) Prof. Thomas Moor -->
<!-- Title: Generator Pages: 1 -->
<svg width="386pt" height="149pt"
 viewBox="0.00 0.00 386.00 149.00" xmlns="http://www.w3.org/2000/svg" xmlns:xlink="http://www.w3.org/1999/xlink">
<g id="graph0" class="graph" transform="scale(1 1) rotate(0) translate(4 145)">
<title>Generator</title>
<polygon style="fill:none;stroke:none;" points="-4,4 -4,-145 382,-145 382,4 -4,4"/>
<!-- dot_dummyinit_1 -->
<g id="node1" class="node"><title>dot_dummyinit_1</title>
</g>
<!-- 1 -->
<g id="node3" class="node"><title>1</title>
<ellipse style="fill:none;stroke:black;" cx="62" cy="-78" rx="18" ry="18"/>
<ellipse style="fill:none;stroke:black;" cx="62" cy="-78" rx="22" ry="22"/>
<text text-anchor="middle" x="62" y="-73.9" style="font-family:Times New Roman;font-size:14.00;">1</text>
</g>
<!-- dot_dummyinit_1&#45;&gt;1 -->
<g id="edge2" class="edge"><title>dot_dummyinit_1&#45;&gt;1</title>
<path style="fill:none;stroke:black;" d="M2,-78C5,-78 17,-78 30,-78"/>
<polygon style="fill:black;stroke:black;" points="30,-81.5001 40,-78 30,-74.5001 30,-81.5001"/>
</g>
<!-- 2 -->
<g id="node4" class="node"><title>2</title>
<ellipse style="fill:none;stroke:black;" cx="150" cy="-107" rx="18" ry="18"/>
<ellipse style="fill:none;stroke:black;" cx="150" cy="-107" rx="22" ry="22"/>
<text text-anchor="middle" x="150" y="-102.9" style="font-family:Times New Roman;font-size:14.00;">2</text>
</g>
<!-- 1&#45;&gt;2 -->
<g id="edge4" class="edge"><title>1&#45;&gt;2</title>
<path style="fill:none;stroke:black;" d="M83,-85C94,-89 107,-93 119,-97"/>
<polygon style="fill:black;stroke:black;" points="118.416,-100.479 129,-100 120.427,-93.7741 118.416,-100.479"/>
<text text-anchor="middle" x="106" y="-99.9" style="font-family:Times New Roman;font-size:14.00;">a</text>
</g>
<!-- 5 -->
<g id="node7" class="node"><title>5</title>
<ellipse style="fill:none;stroke:black;" cx="150" cy="-43" rx="18" ry="18"/>
<ellipse style="fill:none;stroke:black;" cx="150" cy="-43" rx="22" ry="22"/>
<text text-anchor="middle" x="150" y="-38.9" style="font-family:Times New Roman;font-size:14.00;">5</text>
</g>
<!-- 1&#45;&gt;5 -->
<g id="edge6" class="edge"><title>1&#45;&gt;5</title>
<path style="fill:none;stroke:black;" d="M83,-70C94,-65 108,-60 120,-55"/>
<polygon style="fill:black;stroke:black;" points="121.283,-58.2598 129,-51 118.44,-51.8631 121.283,-58.2598"/>
<text text-anchor="middle" x="106" y="-68.9" style="font-family:Times New Roman;font-size:14.00;">b</text>
</g>
<!-- 3 -->
<g id="node5" class="node"><title>3</title>
<ellipse style="fill:none;stroke:black;" cx="238" cy="-119" rx="18" ry="18"/>
<ellipse style="fill:none;stroke:black;" cx="238" cy="-119" rx="22" ry="22"/>
<text text-anchor="middle" x="238" y="-114.9" style="font-family:Times New Roman;font-size:14.00;">3</text>
</g>
<!-- 2&#45;&gt;3 -->
<g id="edge8" class="edge"><title>2&#45;&gt;3</title>
<path style="fill:none;stroke:black;" d="M172,-110C182,-112 195,-113 206,-115"/>
<polygon style="fill:black;stroke:black;" points="205.701,-118.488 216,-116 206.398,-111.522 205.701,-118.488"/>
<text text-anchor="middle" x="194" y="-118.9" style="font-family:Times New Roman;font-size:14.00;">c</text>
</g>
<!-- 4 -->
<g id="node6" class="node"><title>4</title>
<ellipse style="fill:none;stroke:black;" cx="356" cy="-119" rx="18" ry="18"/>
<ellipse style="fill:none;stroke:black;" cx="356" cy="-119" rx="22" ry="22"/>
<text text-anchor="middle" x="356" y="-114.9" style="font-family:Times New Roman;font-size:14.00;">4</text>
</g>
<!-- 3&#45;&gt;4 -->
<g id="edge10" class="edge"><title>3&#45;&gt;4</title>
<path style="fill:none;stroke:black;" d="M260,-119C278,-119 304,-119 324,-119"/>
<polygon style="fill:black;stroke:black;" points="324,-122.5 334,-119 324,-115.5 324,-122.5"/>
<text text-anchor="middle" x="297" y="-122.9" style="font-family:Times New Roman;font-size:14.00;">alpha</text>
</g>
<!-- 6 -->
<g id="node8" class="node"><title>6</title>
<ellipse style="fill:none;stroke:black;" cx="238" cy="-22" rx="18" ry="18"/>
<ellipse style="fill:none;stroke:black;" cx="238" cy="-22" rx="22" ry="22"/>
<text text-anchor="middle" x="238" y="-17.9" style="font-family:Times New Roman;font-size:14.00;">6</text>
</g>
<!-- 5&#45;&gt;6 -->
<g id="edge12" class="edge"><title>5&#45;&gt;6</title>
<path style="fill:none;stroke:black;" d="M172,-38C183,-36 195,-33 207,-30"/>
<polygon style="fill:black;stroke:black;" points="208.427,-33.2259 217,-27 206.416,-26.5212 208.427,-33.2259"/>
<text text-anchor="middle" x="194" y="-39.9" style="font-family:Times New Roman;font-size:14.00;">d</text>
</g>
<!-- 6&#45;&gt;6 -->
<g id="edge14" class="edge"><title>6&#45;&gt;6</title>
<path style="fill:none;stroke:black;" d="M230,-43C229,-53 232,-62 238,-62 242,-62 244,-58 246,-53"/>
<polygon style="fill:black;stroke:black;" points="249.5,-53 246,-43 242.5,-53 249.5,-53"/>
<text text-anchor="middle" x="238" y="-66.9" style="font-family:Times New Roman;font-size:14.00;">alpha</text>
</g>
</g>
</svg>
