<?xml version="1.0" encoding="UTF-8" standalone="no"?>
<!DOCTYPE svg PUBLIC "-//W3C//DTD SVG 1.0//EN"
 "http://www.w3.org/TR/2001/REC-SVG-20010904/DTD/svg10.dtd" [
 <!ATTLIST svg xmlns:xlink CDATA #FIXED "http://www.w3.org/1999/xlink">
]>
<!-- Generated by Graphviz version 2.20.2 (Tue Mar &#160;2 21:46:26 UTC 2010)
     For user: (mtmoor) Prof. Thomas Moor -->
<!-- Title: Project(Generator) Pages: 1 -->
<svg width="180pt" height="127pt"
 viewBox="0.00 0.00 180.00 127.00" xmlns="http://www.w3.org/2000/svg" xmlns:xlink="http://www.w3.org/1999/xlink">
<g id="graph0" class="graph" transform="scale(1 1) rotate(0) translate(4 123)">
<title>Project(Generator)</title>
<polygon style="fill:none;stroke:none;" points="-4,4 -4,-123 176,-123 176,4 -4,4"/>
<!-- dot_dummyinit_1 -->
<g id="node1" class="node"><title>dot_dummyinit_1</title>
</g>
<!-- 1 -->
<g id="node3" class="node"><title>1</title>
<ellipse style="fill:none;stroke:black;" cx="62" cy="-62" rx="18" ry="18"/>
<ellipse style="fill:none;stroke:black;" cx="62" cy="-62" rx="22" ry="22"/>
<text text-anchor="middle" x="62" y="-57.9" style="font-family:Times New Roman;font-size:14.00;">1</text>
</g>
<!-- dot_dummyinit_1&#45;&gt;1 -->
<g id="edge2" class="edge"><title>dot_dummyinit_1&#45;&gt;1</title>
<path style="fill:none;stroke:black;" d="M2,-62C5,-62 17,-62 30,-62"/>
<polygon style="fill:black;stroke:black;" points="30,-65.5001 40,-62 30,-58.5001 30,-65.5001"/>
</g>
<!-- 1&#45;&gt;1 -->
<g id="edge8" class="edge"><title>1&#45;&gt;1</title>
<path style="fill:none;stroke:black;" d="M55,-83C54,-93 56,-102 62,-102 66,-102 68,-98 69,-93"/>
<polygon style="fill:black;stroke:black;" points="72.5001,-93 69,-83 65.5001,-93 72.5001,-93"/>
<text text-anchor="middle" x="62" y="-105.9" style="font-family:Times New Roman;font-size:14.00;">alpha</text>
</g>
<!-- 2 -->
<g id="node4" class="node"><title>2</title>
<ellipse style="fill:none;stroke:black;" cx="150" cy="-93" rx="18" ry="18"/>
<ellipse style="fill:none;stroke:black;" cx="150" cy="-93" rx="22" ry="22"/>
<text text-anchor="middle" x="150" y="-88.9" style="font-family:Times New Roman;font-size:14.00;">2</text>
</g>
<!-- 1&#45;&gt;2 -->
<g id="edge6" class="edge"><title>1&#45;&gt;2</title>
<path style="fill:none;stroke:black;" d="M82,-72C89,-74 96,-77 102,-80 107,-82 113,-84 118,-85"/>
<polygon style="fill:black;stroke:black;" points="117.416,-88.4788 128,-88 119.427,-81.7741 117.416,-88.4788"/>
<text text-anchor="middle" x="106" y="-83.9" style="font-family:Times New Roman;font-size:14.00;">b</text>
</g>
<!-- 3 -->
<g id="node5" class="node"><title>3</title>
<ellipse style="fill:none;stroke:black;" cx="150" cy="-22" rx="18" ry="18"/>
<ellipse style="fill:none;stroke:black;" cx="150" cy="-22" rx="22" ry="22"/>
<text text-anchor="middle" x="150" y="-17.9" style="font-family:Times New Roman;font-size:14.00;">3</text>
</g>
<!-- 1&#45;&gt;3 -->
<g id="edge4" class="edge"><title>1&#45;&gt;3</title>
<path style="fill:none;stroke:black;" d="M78,-47C85,-41 94,-35 102,-31 107,-29 112,-27 118,-26"/>
<polygon style="fill:black;stroke:black;" points="118.881,-29.3933 128,-24 117.508,-22.5292 118.881,-29.3933"/>
<text text-anchor="middle" x="106" y="-34.9" style="font-family:Times New Roman;font-size:14.00;">a</text>
</g>
<!-- 2&#45;&gt;1 -->
<g id="edge10" class="edge"><title>2&#45;&gt;1</title>
<path style="fill:none;stroke:black;" d="M137,-75C130,-68 120,-60 110,-56 105,-54 99,-53 93,-54"/>
<polygon style="fill:black;stroke:black;" points="92.6021,-50.5222 83,-55 93.2987,-57.4875 92.6021,-50.5222"/>
<text text-anchor="middle" x="106" y="-59.9" style="font-family:Times New Roman;font-size:14.00;">d</text>
</g>
</g>
</svg>
