<?xml version="1.0" encoding="UTF-8" standalone="no"?>
<!DOCTYPE svg PUBLIC "-//W3C//DTD SVG 1.0//EN"
 "http://www.w3.org/TR/2001/REC-SVG-20010904/DTD/svg10.dtd" [
 <!ATTLIST svg xmlns:xlink CDATA #FIXED "http://www.w3.org/1999/xlink">
]>
<!-- Generated by Graphviz version 2.20.2 (Tue Mar &#160;2 21:46:26 UTC 2010)
     For user: (mtmoor) Prof. Thomas Moor -->
<!-- Title: Generator Pages: 1 -->
<svg width="644pt" height="196pt"
 viewBox="0.00 0.00 644.00 196.00" xmlns="http://www.w3.org/2000/svg" xmlns:xlink="http://www.w3.org/1999/xlink">
<g id="graph0" class="graph" transform="scale(1 1) rotate(0) translate(4 192)">
<title>Generator</title>
<polygon style="fill:none;stroke:none;" points="-4,4 -4,-192 640,-192 640,4 -4,4"/>
<!-- dot_dummyinit_1 -->
<g id="node1" class="node"><title>dot_dummyinit_1</title>
</g>
<!-- cb1 -->
<g id="node3" class="node"><title>cb1</title>
<ellipse style="fill:none;stroke:black;" cx="72" cy="-32" rx="27.7953" ry="27.7953"/>
<ellipse style="fill:none;stroke:black;" cx="72" cy="-32" rx="31.7953" ry="31.7953"/>
<text text-anchor="middle" x="72" y="-27.9" style="font-family:Times New Roman;font-size:14.00;">cb1</text>
</g>
<!-- dot_dummyinit_1&#45;&gt;cb1 -->
<g id="edge2" class="edge"><title>dot_dummyinit_1&#45;&gt;cb1</title>
<path style="fill:none;stroke:black;" d="M2,-32C5,-32 17,-32 30,-32"/>
<polygon style="fill:black;stroke:black;" points="30,-35.5001 40,-32 30,-28.5001 30,-35.5001"/>
</g>
<!-- cb2 -->
<g id="node4" class="node"><title>cb2</title>
<ellipse style="fill:none;stroke:black;" cx="204" cy="-74" rx="27.7953" ry="27.7953"/>
<ellipse style="fill:none;stroke:black;" cx="204" cy="-74" rx="31.7953" ry="31.7953"/>
<text text-anchor="middle" x="204" y="-69.9" style="font-family:Times New Roman;font-size:14.00;">cb2</text>
</g>
<!-- cb1&#45;&gt;cb2 -->
<g id="edge4" class="edge"><title>cb1&#45;&gt;cb2</title>
<path style="fill:none;stroke:black;" d="M103,-42C121,-48 144,-55 163,-61"/>
<polygon style="fill:black;stroke:black;" points="162.416,-64.4788 173,-64 164.427,-57.7741 162.416,-64.4788"/>
<text text-anchor="middle" x="138" y="-58.9" style="font-family:Times New Roman;font-size:14.00;">sf&#45;c1</text>
</g>
<!-- cb3 -->
<g id="node5" class="node"><title>cb3</title>
<ellipse style="fill:none;stroke:black;" cx="342" cy="-156" rx="27.7953" ry="27.7953"/>
<ellipse style="fill:none;stroke:black;" cx="342" cy="-156" rx="31.7953" ry="31.7953"/>
<text text-anchor="middle" x="342" y="-151.9" style="font-family:Times New Roman;font-size:14.00;">cb3</text>
</g>
<!-- cb2&#45;&gt;cb3 -->
<g id="edge8" class="edge"><title>cb2&#45;&gt;cb3</title>
<path style="fill:none;stroke:black;" d="M232,-90C253,-102 283,-120 306,-135"/>
<polygon style="fill:black;stroke:black;" points="304.559,-138.203 315,-140 307.958,-132.084 304.559,-138.203"/>
<text text-anchor="middle" x="273" y="-127.9" style="font-family:Times New Roman;font-size:14.00;">c1mv</text>
</g>
<!-- cb4 -->
<g id="node6" class="node"><title>cb4</title>
<ellipse style="fill:none;stroke:black;" cx="342" cy="-74" rx="27.7953" ry="27.7953"/>
<ellipse style="fill:none;stroke:black;" cx="342" cy="-74" rx="31.7953" ry="31.7953"/>
<text text-anchor="middle" x="342" y="-69.9" style="font-family:Times New Roman;font-size:14.00;">cb4</text>
</g>
<!-- cb2&#45;&gt;cb4 -->
<g id="edge6" class="edge"><title>cb2&#45;&gt;cb4</title>
<path style="fill:none;stroke:black;" d="M236,-74C255,-74 279,-74 300,-74"/>
<polygon style="fill:black;stroke:black;" points="300,-77.5001 310,-74 300,-70.5001 300,-77.5001"/>
<text text-anchor="middle" x="273" y="-77.9" style="font-family:Times New Roman;font-size:14.00;">pass</text>
</g>
<!-- cb5 -->
<g id="node7" class="node"><title>cb5</title>
<ellipse style="fill:none;stroke:black;" cx="480" cy="-74" rx="27.7953" ry="27.7953"/>
<ellipse style="fill:none;stroke:black;" cx="480" cy="-74" rx="31.7953" ry="31.7953"/>
<text text-anchor="middle" x="480" y="-69.9" style="font-family:Times New Roman;font-size:14.00;">cb5</text>
</g>
<!-- cb3&#45;&gt;cb5 -->
<g id="edge10" class="edge"><title>cb3&#45;&gt;cb5</title>
<path style="fill:none;stroke:black;" d="M370,-140C391,-128 421,-110 444,-95"/>
<polygon style="fill:black;stroke:black;" points="445.958,-97.916 453,-90 442.559,-91.7969 445.958,-97.916"/>
<text text-anchor="middle" x="411" y="-129.9" style="font-family:Times New Roman;font-size:14.00;">pass</text>
</g>
<!-- cb4&#45;&gt;cb5 -->
<g id="edge12" class="edge"><title>cb4&#45;&gt;cb5</title>
<path style="fill:none;stroke:black;" d="M374,-74C393,-74 417,-74 438,-74"/>
<polygon style="fill:black;stroke:black;" points="438,-77.5001 448,-74 438,-70.5001 438,-77.5001"/>
<text text-anchor="middle" x="411" y="-77.9" style="font-family:Times New Roman;font-size:14.00;">c1mv</text>
</g>
<!-- cb6 -->
<g id="node8" class="node"><title>cb6</title>
<ellipse style="fill:none;stroke:black;" cx="604" cy="-32" rx="27.7953" ry="27.7953"/>
<ellipse style="fill:none;stroke:black;" cx="604" cy="-32" rx="31.7953" ry="31.7953"/>
<text text-anchor="middle" x="604" y="-27.9" style="font-family:Times New Roman;font-size:14.00;">cb6</text>
</g>
<!-- cb5&#45;&gt;cb6 -->
<g id="edge14" class="edge"><title>cb5&#45;&gt;cb6</title>
<path style="fill:none;stroke:black;" d="M510,-64C526,-58 546,-52 563,-46"/>
<polygon style="fill:black;stroke:black;" points="565.015,-48.9636 573,-42 562.415,-42.4643 565.015,-48.9636"/>
<text text-anchor="middle" x="542" y="-58.9" style="font-family:Times New Roman;font-size:14.00;">c1a</text>
</g>
<!-- cb6&#45;&gt;cb1 -->
<g id="edge16" class="edge"><title>cb6&#45;&gt;cb1</title>
<path style="fill:none;stroke:black;" d="M574,-22C549,-15 513,-7 480,-7 204,-7 204,-7 204,-7 173,-8 139,-14 113,-21"/>
<polygon style="fill:black;stroke:black;" points="112.119,-17.6067 103,-23 113.492,-24.4708 112.119,-17.6067"/>
<text text-anchor="middle" x="342" y="-11.9" style="font-family:Times New Roman;font-size:14.00;">c1s</text>
</g>
</g>
</svg>
