<?xml version="1.0" encoding="UTF-8" standalone="no"?>
<!DOCTYPE svg PUBLIC "-//W3C//DTD SVG 1.0//EN"
 "http://www.w3.org/TR/2001/REC-SVG-20010904/DTD/svg10.dtd" [
 <!ATTLIST svg xmlns:xlink CDATA #FIXED "http://www.w3.org/1999/xlink">
]>
<!-- Generated by Graphviz version 2.20.2 (Tue Mar &#160;2 21:46:26 UTC 2010)
     For user: (mtmoor) Prof. Thomas Moor -->
<!-- Title: Generator Pages: 1 -->
<svg width="666pt" height="85pt"
 viewBox="0.00 0.00 666.00 85.00" xmlns="http://www.w3.org/2000/svg" xmlns:xlink="http://www.w3.org/1999/xlink">
<g id="graph0" class="graph" transform="scale(1 1) rotate(0) translate(4 81)">
<title>Generator</title>
<polygon style="fill:none;stroke:none;" points="-4,4 -4,-81 662,-81 662,4 -4,4"/>
<!-- dot_dummyinit_1 -->
<g id="node1" class="node"><title>dot_dummyinit_1</title>
</g>
<!-- 1N -->
<g id="node3" class="node"><title>1N</title>
<polygon style="fill:none;stroke:black;" points="146,-42 92,-42 92,-6 146,-6 146,-42"/>
<text text-anchor="middle" x="119" y="-19.9" style="font-family:Times New Roman;font-size:14.00;">1N</text>
</g>
<!-- dot_dummyinit_1&#45;&gt;1N -->
<g id="edge2" class="edge"><title>dot_dummyinit_1&#45;&gt;1N</title>
<path style="fill:none;stroke:black;" d="M54,-24C63,-24 72,-24 82,-24"/>
<polygon style="fill:black;stroke:black;" points="82,-27.5001 92,-24 82,-20.5001 82,-27.5001"/>
</g>
<!-- 2N -->
<g id="node4" class="node"><title>2N</title>
<polygon style="fill:none;stroke:black;" points="274,-42 220,-42 220,-6 274,-6 274,-42"/>
<text text-anchor="middle" x="247" y="-19.9" style="font-family:Times New Roman;font-size:14.00;">2N</text>
</g>
<!-- 1N&#45;&gt;2N -->
<g id="edge4" class="edge"><title>1N&#45;&gt;2N</title>
<path style="fill:none;stroke:black;" d="M146,-24C165,-24 189,-24 210,-24"/>
<polygon style="fill:black;stroke:black;" points="210,-27.5001 220,-24 210,-20.5001 210,-27.5001"/>
<text text-anchor="middle" x="183" y="-27.9" style="font-family:Times New Roman;font-size:14.00;">alpha</text>
</g>
<!-- 1N 2F -->
<g id="node5" class="node"><title>1N 2F</title>
<polygon style="fill:none;stroke:black;" points="405,-42 349,-42 349,-6 405,-6 405,-42"/>
<text text-anchor="middle" x="377" y="-19.9" style="font-family:Times New Roman;font-size:14.00;">1N 2F</text>
</g>
<!-- 2N&#45;&gt;1N 2F -->
<g id="edge6" class="edge"><title>2N&#45;&gt;1N 2F</title>
<path style="fill:none;stroke:black;" d="M274,-24C293,-24 317,-24 338,-24"/>
<polygon style="fill:black;stroke:black;" points="338,-27.5001 348,-24 338,-20.5001 338,-27.5001"/>
<text text-anchor="middle" x="311" y="-27.9" style="font-family:Times New Roman;font-size:14.00;">beta</text>
</g>
<!-- 1N 2F&#45;&gt;2N -->
<g id="edge8" class="edge"><title>1N 2F&#45;&gt;2N</title>
<path style="fill:none;stroke:black;" d="M348,-8C342,-6 336,-4 330,-3 314,-0 309,-0 292,-3 289,-3 286,-4 283,-5"/>
<polygon style="fill:black;stroke:black;" points="281.717,-1.74021 274,-9 284.56,-8.1369 281.717,-1.74021"/>
<text text-anchor="middle" x="311" y="-7.9" style="font-family:Times New Roman;font-size:14.00;">alpha</text>
</g>
<!-- 1F 2F -->
<g id="node6" class="node"><title>1F 2F</title>
<polygon style="fill:none;stroke:black;" points="529,-42 475,-42 475,-6 529,-6 529,-42"/>
<text text-anchor="middle" x="502" y="-19.9" style="font-family:Times New Roman;font-size:14.00;">1F 2F</text>
</g>
<!-- 1N 2F&#45;&gt;1F 2F -->
<g id="edge10" class="edge"><title>1N 2F&#45;&gt;1F 2F</title>
<path style="fill:none;stroke:black;" d="M406,-24C424,-24 446,-24 464,-24"/>
<polygon style="fill:black;stroke:black;" points="464,-27.5001 474,-24 464,-20.5001 464,-27.5001"/>
<text text-anchor="middle" x="440" y="-27.9" style="font-family:Times New Roman;font-size:14.00;">beta</text>
</g>
<!-- 1F 2F&#45;&gt;1F 2F -->
<g id="edge14" class="edge"><title>1F 2F&#45;&gt;1F 2F</title>
<path style="fill:none;stroke:black;" d="M491,-42C489,-52 493,-60 502,-60 508,-60 511,-57 513,-52"/>
<polygon style="fill:black;stroke:black;" points="516.5,-52 513,-42 509.5,-52 516.5,-52"/>
<text text-anchor="middle" x="502" y="-63.9" style="font-family:Times New Roman;font-size:14.00;">beta</text>
</g>
<!-- 2F -->
<g id="node7" class="node"><title>2F</title>
<polygon style="fill:none;stroke:black;" points="658,-42 604,-42 604,-6 658,-6 658,-42"/>
<text text-anchor="middle" x="631" y="-19.9" style="font-family:Times New Roman;font-size:14.00;">2F</text>
</g>
<!-- 1F 2F&#45;&gt;2F -->
<g id="edge12" class="edge"><title>1F 2F&#45;&gt;2F</title>
<path style="fill:none;stroke:black;" d="M530,-24C549,-24 573,-24 594,-24"/>
<polygon style="fill:black;stroke:black;" points="594,-27.5001 604,-24 594,-20.5001 594,-27.5001"/>
<text text-anchor="middle" x="567" y="-27.9" style="font-family:Times New Roman;font-size:14.00;">alpha</text>
</g>
<!-- 2F&#45;&gt;1F 2F -->
<g id="edge16" class="edge"><title>2F&#45;&gt;1F 2F</title>
<path style="fill:none;stroke:black;" d="M604,-9C598,-6 592,-4 586,-3 570,-0 565,-0 548,-3 545,-3 542,-4 539,-5"/>
<polygon style="fill:black;stroke:black;" points="537.717,-1.74021 530,-9 540.56,-8.1369 537.717,-1.74021"/>
<text text-anchor="middle" x="567" y="-7.9" style="font-family:Times New Roman;font-size:14.00;">beta</text>
</g>
</g>
</svg>
