<?xml version="1.0" encoding="UTF-8" standalone="no"?>
<!DOCTYPE svg PUBLIC "-//W3C//DTD SVG 1.0//EN"
 "http://www.w3.org/TR/2001/REC-SVG-20010904/DTD/svg10.dtd" [
 <!ATTLIST svg xmlns:xlink CDATA #FIXED "http://www.w3.org/1999/xlink">
]>
<!-- Generated by Graphviz version 2.20.2 (Tue Mar &#160;2 21:46:26 UTC 2010)
     For user: (mtmoor) Prof. Thomas Moor -->
<!-- Title: Project(R_sf(0)) Pages: 1 -->
<svg width="324pt" height="229pt"
 viewBox="0.00 0.00 324.00 229.00" xmlns="http://www.w3.org/2000/svg" xmlns:xlink="http://www.w3.org/1999/xlink">
<g id="graph0" class="graph" transform="scale(1 1) rotate(0) translate(4 225)">
<title>Project(R_sf(0))</title>
<polygon style="fill:none;stroke:none;" points="-4,4 -4,-225 320,-225 320,4 -4,4"/>
<!-- dot_dummyinit_1 -->
<g id="node1" class="node"><title>dot_dummyinit_1</title>
</g>
<!-- 1 -->
<g id="node3" class="node"><title>1</title>
<ellipse style="fill:none;stroke:black;" cx="62" cy="-102" rx="18" ry="18"/>
<ellipse style="fill:none;stroke:black;" cx="62" cy="-102" rx="22" ry="22"/>
<text text-anchor="middle" x="62" y="-97.9" style="font-family:Times New Roman;font-size:14.00;">1</text>
</g>
<!-- dot_dummyinit_1&#45;&gt;1 -->
<g id="edge2" class="edge"><title>dot_dummyinit_1&#45;&gt;1</title>
<path style="fill:none;stroke:black;" d="M2,-102C5,-102 17,-102 30,-102"/>
<polygon style="fill:black;stroke:black;" points="30,-105.5 40,-102 30,-98.5001 30,-105.5"/>
</g>
<!-- 3 -->
<g id="node5" class="node"><title>3</title>
<ellipse style="fill:none;stroke:black;" cx="178" cy="-137" rx="18" ry="18"/>
<ellipse style="fill:none;stroke:black;" cx="178" cy="-137" rx="22" ry="22"/>
<text text-anchor="middle" x="178" y="-132.9" style="font-family:Times New Roman;font-size:14.00;">3</text>
</g>
<!-- 1&#45;&gt;3 -->
<g id="edge4" class="edge"><title>1&#45;&gt;3</title>
<path style="fill:none;stroke:black;" d="M83,-108C101,-114 127,-121 147,-128"/>
<polygon style="fill:black;stroke:black;" points="146.416,-131.479 157,-131 148.427,-124.774 146.416,-131.479"/>
<text text-anchor="middle" x="120" y="-125.9" style="font-family:Times New Roman;font-size:14.00;">sf&#45;c1</text>
</g>
<!-- 5 -->
<g id="node7" class="node"><title>5</title>
<ellipse style="fill:none;stroke:black;" cx="178" cy="-199" rx="18" ry="18"/>
<ellipse style="fill:none;stroke:black;" cx="178" cy="-199" rx="22" ry="22"/>
<text text-anchor="middle" x="178" y="-194.9" style="font-family:Times New Roman;font-size:14.00;">5</text>
</g>
<!-- 1&#45;&gt;5 -->
<g id="edge6" class="edge"><title>1&#45;&gt;5</title>
<path style="fill:none;stroke:black;" d="M77,-118C84,-126 93,-135 102,-143 118,-156 137,-170 152,-181"/>
<polygon style="fill:black;stroke:black;" points="149.9,-183.8 160,-187 154.1,-178.2 149.9,-183.8"/>
<text text-anchor="middle" x="120" y="-172.9" style="font-family:Times New Roman;font-size:14.00;">block</text>
</g>
<!-- 7 -->
<g id="node9" class="node"><title>7</title>
<ellipse style="fill:none;stroke:black;" cx="178" cy="-22" rx="18" ry="18"/>
<ellipse style="fill:none;stroke:black;" cx="178" cy="-22" rx="22" ry="22"/>
<text text-anchor="middle" x="178" y="-17.9" style="font-family:Times New Roman;font-size:14.00;">7</text>
</g>
<!-- 1&#45;&gt;7 -->
<g id="edge8" class="edge"><title>1&#45;&gt;7</title>
<path style="fill:none;stroke:black;" d="M73,-83C80,-71 90,-58 102,-49 115,-39 132,-33 146,-29"/>
<polygon style="fill:black;stroke:black;" points="147.427,-32.2259 156,-26 145.416,-25.5212 147.427,-32.2259"/>
<text text-anchor="middle" x="120" y="-52.9" style="font-family:Times New Roman;font-size:14.00;">diag</text>
</g>
<!-- 2 -->
<g id="node4" class="node"><title>2</title>
<ellipse style="fill:none;stroke:black;" cx="294" cy="-119" rx="18" ry="18"/>
<ellipse style="fill:none;stroke:black;" cx="294" cy="-119" rx="22" ry="22"/>
<text text-anchor="middle" x="294" y="-114.9" style="font-family:Times New Roman;font-size:14.00;">2</text>
</g>
<!-- 2&#45;&gt;1 -->
<g id="edge10" class="edge"><title>2&#45;&gt;1</title>
<path style="fill:none;stroke:black;" d="M274,-110C255,-103 226,-93 200,-89 165,-83 122,-88 94,-95"/>
<polygon style="fill:black;stroke:black;" points="93.1194,-91.6067 84,-97 94.4922,-98.4708 93.1194,-91.6067"/>
<text text-anchor="middle" x="178" y="-92.9" style="font-family:Times New Roman;font-size:14.00;">pass</text>
</g>
<!-- 3&#45;&gt;2 -->
<g id="edge12" class="edge"><title>3&#45;&gt;2</title>
<path style="fill:none;stroke:black;" d="M198,-127C204,-124 211,-121 218,-120 232,-117 248,-116 262,-117"/>
<polygon style="fill:black;stroke:black;" points="262,-120.5 272,-117 262,-113.5 262,-120.5"/>
<text text-anchor="middle" x="236" y="-123.9" style="font-family:Times New Roman;font-size:14.00;">sfl</text>
</g>
<!-- 4 -->
<g id="node6" class="node"><title>4</title>
<ellipse style="fill:none;stroke:black;" cx="294" cy="-190" rx="18" ry="18"/>
<ellipse style="fill:none;stroke:black;" cx="294" cy="-190" rx="22" ry="22"/>
<text text-anchor="middle" x="294" y="-185.9" style="font-family:Times New Roman;font-size:14.00;">4</text>
</g>
<!-- 3&#45;&gt;4 -->
<g id="edge14" class="edge"><title>3&#45;&gt;4</title>
<path style="fill:none;stroke:black;" d="M198,-146C214,-152 235,-162 254,-171 258,-173 261,-174 265,-176"/>
<polygon style="fill:black;stroke:black;" points="263.44,-179.137 274,-180 266.283,-172.74 263.44,-179.137"/>
<text text-anchor="middle" x="236" y="-174.9" style="font-family:Times New Roman;font-size:14.00;">block</text>
</g>
<!-- 5&#45;&gt;4 -->
<g id="edge16" class="edge"><title>5&#45;&gt;4</title>
<path style="fill:none;stroke:black;" d="M200,-197C218,-196 242,-194 262,-193"/>
<polygon style="fill:black;stroke:black;" points="262.398,-196.478 272,-192 261.701,-189.512 262.398,-196.478"/>
<text text-anchor="middle" x="236" y="-197.9" style="font-family:Times New Roman;font-size:14.00;">sf&#45;c1</text>
</g>
<!-- 6 -->
<g id="node8" class="node"><title>6</title>
<ellipse style="fill:none;stroke:black;" cx="294" cy="-22" rx="18" ry="18"/>
<ellipse style="fill:none;stroke:black;" cx="294" cy="-22" rx="22" ry="22"/>
<text text-anchor="middle" x="294" y="-17.9" style="font-family:Times New Roman;font-size:14.00;">6</text>
</g>
<!-- 6&#45;&gt;6 -->
<g id="edge18" class="edge"><title>6&#45;&gt;6</title>
<path style="fill:none;stroke:black;" d="M284,-42C282,-52 286,-62 294,-62 299,-62 303,-58 304,-52"/>
<polygon style="fill:black;stroke:black;" points="307.5,-52 304,-42 300.5,-52 307.5,-52"/>
<text text-anchor="middle" x="294" y="-65.9" style="font-family:Times New Roman;font-size:14.00;">sfl</text>
</g>
<!-- 7&#45;&gt;6 -->
<g id="edge20" class="edge"><title>7&#45;&gt;6</title>
<path style="fill:none;stroke:black;" d="M200,-22C218,-22 242,-22 262,-22"/>
<polygon style="fill:black;stroke:black;" points="262,-25.5001 272,-22 262,-18.5001 262,-25.5001"/>
<text text-anchor="middle" x="236" y="-25.9" style="font-family:Times New Roman;font-size:14.00;">sf&#45;c1</text>
</g>
</g>
</svg>
