<?xml version="1.0" encoding="UTF-8" standalone="no"?>
<!DOCTYPE svg PUBLIC "-//W3C//DTD SVG 1.0//EN"
 "http://www.w3.org/TR/2001/REC-SVG-20010904/DTD/svg10.dtd" [
 <!ATTLIST svg xmlns:xlink CDATA #FIXED "http://www.w3.org/1999/xlink">
]>
<!-- Generated by Graphviz version 2.20.2 (Tue Mar &#160;2 21:46:26 UTC 2010)
     For user: (mtmoor) Prof. Thomas Moor -->
<!-- Title: R_sf(0) Pages: 1 -->
<svg width="720pt" height="228pt"
 viewBox="0.00 0.00 720.00 228.33" xmlns="http://www.w3.org/2000/svg" xmlns:xlink="http://www.w3.org/1999/xlink">
<g id="graph0" class="graph" transform="scale(0.833333 0.833333) rotate(0) translate(4 270)">
<title>R_sf(0)</title>
<polygon style="fill:none;stroke:none;" points="-4,4 -4,-270 860,-270 860,4 -4,4"/>
<!-- dot_dummyinit_1 -->
<g id="node1" class="node"><title>dot_dummyinit_1</title>
</g>
<!-- sf1 -->
<g id="node3" class="node"><title>sf1</title>
<ellipse style="fill:none;stroke:black;" cx="69" cy="-62" rx="25.0158" ry="25.0158"/>
<ellipse style="fill:none;stroke:black;" cx="69" cy="-62" rx="29.0158" ry="29.0158"/>
<text text-anchor="middle" x="69" y="-57.9" style="font-family:Times New Roman;font-size:14.00;">sf1</text>
</g>
<!-- dot_dummyinit_1&#45;&gt;sf1 -->
<g id="edge2" class="edge"><title>dot_dummyinit_1&#45;&gt;sf1</title>
<path style="fill:none;stroke:black;" d="M2,-62C6,-62 17,-62 30,-62"/>
<polygon style="fill:black;stroke:black;" points="30,-65.5001 40,-62 30,-58.5001 30,-65.5001"/>
</g>
<!-- sf2 -->
<g id="node4" class="node"><title>sf2</title>
<ellipse style="fill:none;stroke:black;" cx="183" cy="-126" rx="25.0158" ry="25.0158"/>
<ellipse style="fill:none;stroke:black;" cx="183" cy="-126" rx="29.0158" ry="29.0158"/>
<text text-anchor="middle" x="183" y="-121.9" style="font-family:Times New Roman;font-size:14.00;">sf2</text>
</g>
<!-- sf1&#45;&gt;sf2 -->
<g id="edge4" class="edge"><title>sf1&#45;&gt;sf2</title>
<path style="fill:none;stroke:black;" d="M94,-76C110,-85 131,-97 148,-107"/>
<polygon style="fill:black;stroke:black;" points="146.559,-110.203 157,-112 149.958,-104.084 146.559,-110.203"/>
<text text-anchor="middle" x="126" y="-100.9" style="font-family:Times New Roman;font-size:14.00;">sfa</text>
</g>
<!-- sf3 -->
<g id="node5" class="node"><title>sf3</title>
<ellipse style="fill:none;stroke:black;" cx="309" cy="-126" rx="25.0158" ry="25.0158"/>
<ellipse style="fill:none;stroke:black;" cx="309" cy="-126" rx="29.0158" ry="29.0158"/>
<text text-anchor="middle" x="309" y="-121.9" style="font-family:Times New Roman;font-size:14.00;">sf3</text>
</g>
<!-- sf2&#45;&gt;sf3 -->
<g id="edge6" class="edge"><title>sf2&#45;&gt;sf3</title>
<path style="fill:none;stroke:black;" d="M212,-126C229,-126 251,-126 270,-126"/>
<polygon style="fill:black;stroke:black;" points="270,-129.5 280,-126 270,-122.5 270,-129.5"/>
<text text-anchor="middle" x="246" y="-129.9" style="font-family:Times New Roman;font-size:14.00;">sf&#45;c1</text>
</g>
<!-- sf4 -->
<g id="node6" class="node"><title>sf4</title>
<ellipse style="fill:none;stroke:black;" cx="435" cy="-126" rx="25.0158" ry="25.0158"/>
<ellipse style="fill:none;stroke:black;" cx="435" cy="-126" rx="29.0158" ry="29.0158"/>
<text text-anchor="middle" x="435" y="-121.9" style="font-family:Times New Roman;font-size:14.00;">sf4</text>
</g>
<!-- sf3&#45;&gt;sf4 -->
<g id="edge8" class="edge"><title>sf3&#45;&gt;sf4</title>
<path style="fill:none;stroke:black;" d="M338,-126C355,-126 377,-126 396,-126"/>
<polygon style="fill:black;stroke:black;" points="396,-129.5 406,-126 396,-122.5 396,-129.5"/>
<text text-anchor="middle" x="372" y="-129.9" style="font-family:Times New Roman;font-size:14.00;">sfmv</text>
</g>
<!-- sf5 -->
<g id="node7" class="node"><title>sf5</title>
<ellipse style="fill:none;stroke:black;" cx="567" cy="-105" rx="25.0158" ry="25.0158"/>
<ellipse style="fill:none;stroke:black;" cx="567" cy="-105" rx="29.0158" ry="29.0158"/>
<text text-anchor="middle" x="567" y="-100.9" style="font-family:Times New Roman;font-size:14.00;">sf5</text>
</g>
<!-- sf4&#45;&gt;sf5 -->
<g id="edge10" class="edge"><title>sf4&#45;&gt;sf5</title>
<path style="fill:none;stroke:black;" d="M464,-121C483,-118 507,-114 528,-111"/>
<polygon style="fill:black;stroke:black;" points="528.881,-114.393 538,-109 527.508,-107.529 528.881,-114.393"/>
<text text-anchor="middle" x="501" y="-120.9" style="font-family:Times New Roman;font-size:14.00;">sfl</text>
</g>
<!-- sf9 -->
<g id="node11" class="node"><title>sf9</title>
<ellipse style="fill:none;stroke:black;" cx="567" cy="-184" rx="25.0158" ry="25.0158"/>
<ellipse style="fill:none;stroke:black;" cx="567" cy="-184" rx="29.0158" ry="29.0158"/>
<text text-anchor="middle" x="567" y="-179.9" style="font-family:Times New Roman;font-size:14.00;">sf9</text>
</g>
<!-- sf4&#45;&gt;sf9 -->
<g id="edge12" class="edge"><title>sf4&#45;&gt;sf9</title>
<path style="fill:none;stroke:black;" d="M462,-138C482,-147 509,-158 531,-168"/>
<polygon style="fill:black;stroke:black;" points="529.44,-171.137 540,-172 532.283,-164.74 529.44,-171.137"/>
<text text-anchor="middle" x="501" y="-164.9" style="font-family:Times New Roman;font-size:14.00;">f_pjm</text>
</g>
<!-- sf6 -->
<g id="node8" class="node"><title>sf6</title>
<ellipse style="fill:none;stroke:black;" cx="697" cy="-105" rx="25.0158" ry="25.0158"/>
<ellipse style="fill:none;stroke:black;" cx="697" cy="-105" rx="29.0158" ry="29.0158"/>
<text text-anchor="middle" x="697" y="-100.9" style="font-family:Times New Roman;font-size:14.00;">sf6</text>
</g>
<!-- sf5&#45;&gt;sf6 -->
<g id="edge14" class="edge"><title>sf5&#45;&gt;sf6</title>
<path style="fill:none;stroke:black;" d="M596,-105C615,-105 638,-105 658,-105"/>
<polygon style="fill:black;stroke:black;" points="658,-108.5 668,-105 658,-101.5 658,-108.5"/>
<text text-anchor="middle" x="629" y="-108.9" style="font-family:Times New Roman;font-size:14.00;">sfa</text>
</g>
<!-- sf8 -->
<g id="node10" class="node"><title>sf8</title>
<ellipse style="fill:none;stroke:black;" cx="697" cy="-29" rx="25.0158" ry="25.0158"/>
<ellipse style="fill:none;stroke:black;" cx="697" cy="-29" rx="29.0158" ry="29.0158"/>
<text text-anchor="middle" x="697" y="-24.9" style="font-family:Times New Roman;font-size:14.00;">sf8</text>
</g>
<!-- sf5&#45;&gt;sf8 -->
<g id="edge16" class="edge"><title>sf5&#45;&gt;sf8</title>
<path style="fill:none;stroke:black;" d="M592,-90C612,-79 641,-62 663,-49"/>
<polygon style="fill:black;stroke:black;" points="664.958,-51.916 672,-44 661.559,-45.7969 664.958,-51.916"/>
<text text-anchor="middle" x="629" y="-80.9" style="font-family:Times New Roman;font-size:14.00;">pass</text>
</g>
<!-- sf7 -->
<g id="node9" class="node"><title>sf7</title>
<ellipse style="fill:none;stroke:black;" cx="827" cy="-105" rx="25.0158" ry="25.0158"/>
<ellipse style="fill:none;stroke:black;" cx="827" cy="-105" rx="29.0158" ry="29.0158"/>
<text text-anchor="middle" x="827" y="-100.9" style="font-family:Times New Roman;font-size:14.00;">sf7</text>
</g>
<!-- sf6&#45;&gt;sf7 -->
<g id="edge18" class="edge"><title>sf6&#45;&gt;sf7</title>
<path style="fill:none;stroke:black;" d="M726,-105C745,-105 768,-105 788,-105"/>
<polygon style="fill:black;stroke:black;" points="788,-108.5 798,-105 788,-101.5 788,-108.5"/>
<text text-anchor="middle" x="765" y="-108.9" style="font-family:Times New Roman;font-size:14.00;">pass</text>
</g>
<!-- sf7&#45;&gt;sf2 -->
<g id="edge20" class="edge"><title>sf7&#45;&gt;sf2</title>
<path style="fill:none;stroke:black;" d="M817,-132C800,-174 760,-250 697,-250 309,-250 309,-250 309,-250 258,-250 220,-198 200,-162"/>
<polygon style="fill:black;stroke:black;" points="202.916,-160.042 195,-153 196.797,-163.441 202.916,-160.042"/>
<text text-anchor="middle" x="501" y="-253.9" style="font-family:Times New Roman;font-size:14.00;">sfs</text>
</g>
<!-- sf8&#45;&gt;sf1 -->
<g id="edge24" class="edge"><title>sf8&#45;&gt;sf1</title>
<path style="fill:none;stroke:black;" d="M668,-29C642,-30 602,-30 567,-30 183,-30 183,-30 183,-30 157,-30 128,-38 105,-46"/>
<polygon style="fill:black;stroke:black;" points="103.717,-42.7402 96,-50 106.56,-49.1369 103.717,-42.7402"/>
<text text-anchor="middle" x="372" y="-34.9" style="font-family:Times New Roman;font-size:14.00;">sfs</text>
</g>
<!-- sf8&#45;&gt;sf7 -->
<g id="edge22" class="edge"><title>sf8&#45;&gt;sf7</title>
<path style="fill:none;stroke:black;" d="M722,-44C742,-55 771,-72 793,-85"/>
<polygon style="fill:black;stroke:black;" points="791.559,-88.2031 802,-90 794.958,-82.084 791.559,-88.2031"/>
<text text-anchor="middle" x="765" y="-79.9" style="font-family:Times New Roman;font-size:14.00;">sfa</text>
</g>
<!-- sf10 -->
<g id="node12" class="node"><title>sf10</title>
<ellipse style="fill:none;stroke:black;" cx="697" cy="-187" rx="30.8293" ry="30.8293"/>
<ellipse style="fill:none;stroke:black;" cx="697" cy="-187" rx="34.7729" ry="34.7729"/>
<text text-anchor="middle" x="697" y="-182.9" style="font-family:Times New Roman;font-size:14.00;">sf10</text>
</g>
<!-- sf9&#45;&gt;sf10 -->
<g id="edge26" class="edge"><title>sf9&#45;&gt;sf10</title>
<path style="fill:none;stroke:black;" d="M596,-185C613,-186 633,-186 652,-186"/>
<polygon style="fill:black;stroke:black;" points="652,-189.5 662,-186 652,-182.5 652,-189.5"/>
<text text-anchor="middle" x="629" y="-188.9" style="font-family:Times New Roman;font-size:14.00;">t_sf</text>
</g>
</g>
</svg>
