<?xml version="1.0" encoding="UTF-8" standalone="no"?>
<!DOCTYPE svg PUBLIC "-//W3C//DTD SVG 1.0//EN"
 "http://www.w3.org/TR/2001/REC-SVG-20010904/DTD/svg10.dtd" [
 <!ATTLIST svg xmlns:xlink CDATA #FIXED "http://www.w3.org/1999/xlink">
]>
<!-- Generated by Graphviz version 2.20.2 (Tue Mar &#160;2 21:46:26 UTC 2010)
     For user: (mtmoor) Prof. Thomas Moor -->
<!-- Title: Project(diag_system_3_modular1) Pages: 1 -->
<svg width="268pt" height="122pt"
 viewBox="0.00 0.00 268.00 122.00" xmlns="http://www.w3.org/2000/svg" xmlns:xlink="http://www.w3.org/1999/xlink">
<g id="graph0" class="graph" transform="scale(1 1) rotate(0) translate(4 118)">
<title>Project(diag_system_3_modular1)</title>
<polygon style="fill:none;stroke:none;" points="-4,4 -4,-118 264,-118 264,4 -4,4"/>
<!-- dot_dummyinit_1 -->
<g id="node1" class="node"><title>dot_dummyinit_1</title>
</g>
<!-- 1 -->
<g id="node3" class="node"><title>1</title>
<ellipse style="fill:none;stroke:black;" cx="62" cy="-57" rx="18" ry="18"/>
<ellipse style="fill:none;stroke:black;" cx="62" cy="-57" rx="22" ry="22"/>
<text text-anchor="middle" x="62" y="-52.9" style="font-family:Times New Roman;font-size:14.00;">1</text>
</g>
<!-- dot_dummyinit_1&#45;&gt;1 -->
<g id="edge2" class="edge"><title>dot_dummyinit_1&#45;&gt;1</title>
<path style="fill:none;stroke:black;" d="M2,-57C5,-57 17,-57 30,-57"/>
<polygon style="fill:black;stroke:black;" points="30,-60.5001 40,-57 30,-53.5001 30,-60.5001"/>
</g>
<!-- 2 -->
<g id="node4" class="node"><title>2</title>
<ellipse style="fill:none;stroke:black;" cx="238" cy="-57" rx="18" ry="18"/>
<ellipse style="fill:none;stroke:black;" cx="238" cy="-57" rx="22" ry="22"/>
<text text-anchor="middle" x="238" y="-52.9" style="font-family:Times New Roman;font-size:14.00;">2</text>
</g>
<!-- 1&#45;&gt;2 -->
<g id="edge4" class="edge"><title>1&#45;&gt;2</title>
<path style="fill:none;stroke:black;" d="M84,-60C90,-60 96,-61 102,-61 145,-63 156,-61 198,-60 201,-60 203,-60 206,-60"/>
<polygon style="fill:black;stroke:black;" points="206.398,-63.4778 216,-59 205.701,-56.5125 206.398,-63.4778"/>
<text text-anchor="middle" x="150" y="-64.9" style="font-family:Times New Roman;font-size:14.00;">a</text>
</g>
<!-- 3 -->
<g id="node5" class="node"><title>3</title>
<ellipse style="fill:none;stroke:black;" cx="150" cy="-22" rx="18" ry="18"/>
<ellipse style="fill:none;stroke:black;" cx="150" cy="-22" rx="22" ry="22"/>
<text text-anchor="middle" x="150" y="-17.9" style="font-family:Times New Roman;font-size:14.00;">3</text>
</g>
<!-- 1&#45;&gt;3 -->
<g id="edge6" class="edge"><title>1&#45;&gt;3</title>
<path style="fill:none;stroke:black;" d="M83,-49C94,-44 108,-39 120,-34"/>
<polygon style="fill:black;stroke:black;" points="121.283,-37.2598 129,-30 118.44,-30.8631 121.283,-37.2598"/>
<text text-anchor="middle" x="106" y="-43.9" style="font-family:Times New Roman;font-size:14.00;">b</text>
</g>
<!-- 2&#45;&gt;2 -->
<g id="edge8" class="edge"><title>2&#45;&gt;2</title>
<path style="fill:none;stroke:black;" d="M230,-78C229,-88 232,-97 238,-97 242,-97 244,-93 246,-88"/>
<polygon style="fill:black;stroke:black;" points="249.5,-88 246,-78 242.5,-88 249.5,-88"/>
<text text-anchor="middle" x="238" y="-100.9" style="font-family:Times New Roman;font-size:14.00;">alpha</text>
</g>
<!-- 3&#45;&gt;2 -->
<g id="edge10" class="edge"><title>3&#45;&gt;2</title>
<path style="fill:none;stroke:black;" d="M171,-30C182,-35 196,-40 208,-45"/>
<polygon style="fill:black;stroke:black;" points="206.44,-48.1369 217,-49 209.283,-41.7402 206.44,-48.1369"/>
<text text-anchor="middle" x="194" y="-42.9" style="font-family:Times New Roman;font-size:14.00;">d</text>
</g>
</g>
</svg>
