<?xml version="1.0" encoding="UTF-8" standalone="no"?>
<!DOCTYPE svg PUBLIC "-//W3C//DTD SVG 1.0//EN"
 "http://www.w3.org/TR/2001/REC-SVG-20010904/DTD/svg10.dtd" [
 <!ATTLIST svg xmlns:xlink CDATA #FIXED "http://www.w3.org/1999/xlink">
]>
<!-- Generated by Graphviz version 2.20.2 (Tue Mar &#160;2 21:46:26 UTC 2010)
     For user: (mtmoor) Prof. Thomas Moor -->
<!-- Title: Generator Pages: 1 -->
<svg width="298pt" height="51pt"
 viewBox="0.00 0.00 298.00 51.00" xmlns="http://www.w3.org/2000/svg" xmlns:xlink="http://www.w3.org/1999/xlink">
<g id="graph0" class="graph" transform="scale(1 1) rotate(0) translate(4 47)">
<title>Generator</title>
<polygon style="fill:none;stroke:none;" points="-4,4 -4,-47 294,-47 294,4 -4,4"/>
<!-- dot_dummyinit_1 -->
<g id="node1" class="node"><title>dot_dummyinit_1</title>
</g>
<!-- 1 -->
<g id="node3" class="node"><title>1</title>
<ellipse style="fill:none;stroke:black;" cx="58" cy="-25" rx="18" ry="18"/>
<text text-anchor="middle" x="58" y="-20.9" style="font-family:Times New Roman;font-size:14.00;">1</text>
</g>
<!-- dot_dummyinit_1&#45;&gt;1 -->
<g id="edge2" class="edge"><title>dot_dummyinit_1&#45;&gt;1</title>
<path style="fill:none;stroke:black;" d="M2,-25C6,-25 18,-25 30,-25"/>
<polygon style="fill:black;stroke:black;" points="30,-28.5001 40,-25 30,-21.5001 30,-28.5001"/>
</g>
<!-- 2 -->
<g id="node4" class="node"><title>2</title>
<ellipse style="fill:none;stroke:black;" cx="168" cy="-25" rx="18" ry="18"/>
<text text-anchor="middle" x="168" y="-20.9" style="font-family:Times New Roman;font-size:14.00;">2</text>
</g>
<!-- 1&#45;&gt;2 -->
<g id="edge4" class="edge"><title>1&#45;&gt;2</title>
<path style="fill:none;stroke:black;" d="M76,-25C93,-25 119,-25 140,-25"/>
<polygon style="fill:black;stroke:black;" points="140,-28.5001 150,-25 140,-21.5001 140,-28.5001"/>
<text text-anchor="middle" x="113" y="-28.9" style="font-family:Times New Roman;font-size:14.00;">alpha</text>
</g>
<!-- 2&#45;&gt;1 -->
<g id="edge6" class="edge"><title>2&#45;&gt;1</title>
<path style="fill:none;stroke:black;" d="M153,-14C147,-10 140,-6 132,-4 116,-0 111,-0 94,-4 90,-5 86,-7 82,-9"/>
<polygon style="fill:black;stroke:black;" points="80.0418,-6.08397 73,-14 83.4414,-12.2031 80.0418,-6.08397"/>
<text text-anchor="middle" x="113" y="-8.9" style="font-family:Times New Roman;font-size:14.00;">beta</text>
</g>
<!-- 3 -->
<g id="node5" class="node"><title>3</title>
<ellipse style="fill:none;stroke:black;" cx="272" cy="-25" rx="18" ry="18"/>
<text text-anchor="middle" x="272" y="-20.9" style="font-family:Times New Roman;font-size:14.00;">3</text>
</g>
<!-- 2&#45;&gt;3 -->
<g id="edge8" class="edge"><title>2&#45;&gt;3</title>
<path style="fill:none;stroke:black;" d="M186,-25C202,-25 225,-25 244,-25"/>
<polygon style="fill:black;stroke:black;" points="244,-28.5001 254,-25 244,-21.5001 244,-28.5001"/>
<text text-anchor="middle" x="220" y="-28.9" style="font-family:Times New Roman;font-size:14.00;">f</text>
</g>
<!-- 3&#45;&gt;2 -->
<g id="edge10" class="edge"><title>3&#45;&gt;2</title>
<path style="fill:none;stroke:black;" d="M257,-14C251,-10 244,-6 236,-4 223,-1 218,-1 204,-4 200,-5 196,-7 192,-9"/>
<polygon style="fill:black;stroke:black;" points="190.042,-6.08397 183,-14 193.441,-12.2031 190.042,-6.08397"/>
<text text-anchor="middle" x="220" y="-8.9" style="font-family:Times New Roman;font-size:14.00;">beta</text>
</g>
</g>
</svg>
