<?xml version="1.0" encoding="UTF-8" standalone="no"?>
<!DOCTYPE svg PUBLIC "-//W3C//DTD SVG 1.0//EN"
 "http://www.w3.org/TR/2001/REC-SVG-20010904/DTD/svg10.dtd" [
 <!ATTLIST svg xmlns:xlink CDATA #FIXED "http://www.w3.org/1999/xlink">
]>
<!-- Generated by Graphviz version 2.20.2 (Tue Mar &#160;2 21:46:26 UTC 2010)
     For user: (mtmoor) Prof. Thomas Moor -->
<!-- Title: Generator Pages: 1 -->
<svg width="274pt" height="44pt"
 viewBox="0.00 0.00 274.00 44.00" xmlns="http://www.w3.org/2000/svg" xmlns:xlink="http://www.w3.org/1999/xlink">
<g id="graph0" class="graph" transform="scale(1 1) rotate(0) translate(4 40)">
<title>Generator</title>
<polygon style="fill:none;stroke:none;" points="-4,4 -4,-40 270,-40 270,4 -4,4"/>
<!-- dot_dummyinit_1 -->
<g id="node1" class="node"><title>dot_dummyinit_1</title>
</g>
<!-- 1 -->
<g id="node3" class="node"><title>1</title>
<ellipse style="fill:none;stroke:black;" cx="58" cy="-18" rx="18" ry="18"/>
<text text-anchor="middle" x="58" y="-13.9" style="font-family:Times New Roman;font-size:14.00;">1</text>
</g>
<!-- dot_dummyinit_1&#45;&gt;1 -->
<g id="edge2" class="edge"><title>dot_dummyinit_1&#45;&gt;1</title>
<path style="fill:none;stroke:black;" d="M2,-18C6,-18 18,-18 30,-18"/>
<polygon style="fill:black;stroke:black;" points="30,-21.5001 40,-18 30,-14.5001 30,-21.5001"/>
</g>
<!-- 2 -->
<g id="node4" class="node"><title>2</title>
<ellipse style="fill:none;stroke:black;" cx="138" cy="-18" rx="18" ry="18"/>
<text text-anchor="middle" x="138" y="-13.9" style="font-family:Times New Roman;font-size:14.00;">2</text>
</g>
<!-- 1&#45;&gt;2 -->
<g id="edge4" class="edge"><title>1&#45;&gt;2</title>
<path style="fill:none;stroke:black;" d="M76,-18C86,-18 99,-18 110,-18"/>
<polygon style="fill:black;stroke:black;" points="110,-21.5001 120,-18 110,-14.5001 110,-21.5001"/>
<text text-anchor="middle" x="98" y="-21.9" style="font-family:Times New Roman;font-size:14.00;">a</text>
</g>
<!-- 3 -->
<g id="node5" class="node"><title>3</title>
<ellipse style="fill:none;stroke:black;" cx="248" cy="-18" rx="18" ry="18"/>
<text text-anchor="middle" x="248" y="-13.9" style="font-family:Times New Roman;font-size:14.00;">3</text>
</g>
<!-- 2&#45;&gt;3 -->
<g id="edge6" class="edge"><title>2&#45;&gt;3</title>
<path style="fill:none;stroke:black;" d="M156,-18C173,-18 199,-18 220,-18"/>
<polygon style="fill:black;stroke:black;" points="220,-21.5001 230,-18 220,-14.5001 220,-21.5001"/>
<text text-anchor="middle" x="193" y="-21.9" style="font-family:Times New Roman;font-size:14.00;">alpha</text>
</g>
</g>
</svg>
