<?xml version="1.0" encoding="UTF-8" standalone="no"?>
<!DOCTYPE svg PUBLIC "-//W3C//DTD SVG 1.0//EN"
 "http://www.w3.org/TR/2001/REC-SVG-20010904/DTD/svg10.dtd" [
 <!ATTLIST svg xmlns:xlink CDATA #FIXED "http://www.w3.org/1999/xlink">
]>
<!-- Generated by Graphviz version 2.20.2 (Tue Mar &#160;2 21:46:26 UTC 2010)
     For user: (mtmoor) Prof. Thomas Moor -->
<!-- Title: Diagnoser Pages: 1 -->
<svg width="392pt" height="79pt"
 viewBox="0.00 0.00 392.00 79.00" xmlns="http://www.w3.org/2000/svg" xmlns:xlink="http://www.w3.org/1999/xlink">
<g id="graph0" class="graph" transform="scale(1 1) rotate(0) translate(4 75)">
<title>Diagnoser</title>
<polygon style="fill:none;stroke:none;" points="-4,4 -4,-75 388,-75 388,4 -4,4"/>
<!-- dot_dummyinit_1 -->
<g id="node1" class="node"><title>dot_dummyinit_1</title>
</g>
<!-- 1N -->
<g id="node3" class="node"><title>1N</title>
<polygon style="fill:none;stroke:black;" points="146,-36 92,-36 92,-1.06581e-14 146,-0 146,-36"/>
<text text-anchor="middle" x="119" y="-13.9" style="font-family:Times New Roman;font-size:14.00;">1N</text>
</g>
<!-- dot_dummyinit_1&#45;&gt;1N -->
<g id="edge2" class="edge"><title>dot_dummyinit_1&#45;&gt;1N</title>
<path style="fill:none;stroke:black;" d="M54,-18C63,-18 72,-18 82,-18"/>
<polygon style="fill:black;stroke:black;" points="82,-21.5001 92,-18 82,-14.5001 82,-21.5001"/>
</g>
<!-- 3F1 5N -->
<g id="node4" class="node"><title>3F1 5N</title>
<polygon style="fill:none;stroke:black;" points="256,-36 190,-36 190,-1.06581e-14 256,-0 256,-36"/>
<text text-anchor="middle" x="223" y="-13.9" style="font-family:Times New Roman;font-size:14.00;">3F1 5N</text>
</g>
<!-- 1N&#45;&gt;3F1 5N -->
<g id="edge4" class="edge"><title>1N&#45;&gt;3F1 5N</title>
<path style="fill:none;stroke:black;" d="M146,-18C156,-18 168,-18 180,-18"/>
<polygon style="fill:black;stroke:black;" points="180,-21.5001 190,-18 180,-14.5001 180,-21.5001"/>
<text text-anchor="middle" x="168" y="-21.9" style="font-family:Times New Roman;font-size:14.00;">a</text>
</g>
<!-- 7F1F2 9A -->
<g id="node5" class="node"><title>7F1F2 9A</title>
<polygon style="fill:none;stroke:black;" points="383,-36 301,-36 301,-1.06581e-14 383,-0 383,-36"/>
<text text-anchor="middle" x="342" y="-13.9" style="font-family:Times New Roman;font-size:14.00;">7F1F2 9A</text>
</g>
<!-- 3F1 5N&#45;&gt;7F1F2 9A -->
<g id="edge6" class="edge"><title>3F1 5N&#45;&gt;7F1F2 9A</title>
<path style="fill:none;stroke:black;" d="M256,-18C267,-18 279,-18 290,-18"/>
<polygon style="fill:black;stroke:black;" points="290,-21.5001 300,-18 290,-14.5001 290,-21.5001"/>
<text text-anchor="middle" x="278" y="-21.9" style="font-family:Times New Roman;font-size:14.00;">b</text>
</g>
<!-- 7F1F2 9A&#45;&gt;7F1F2 9A -->
<g id="edge8" class="edge"><title>7F1F2 9A&#45;&gt;7F1F2 9A</title>
<path style="fill:none;stroke:black;" d="M330,-36C329,-46 332,-54 342,-54 348,-54 351,-51 353,-46"/>
<polygon style="fill:black;stroke:black;" points="356.488,-46.2987 354,-36 349.522,-45.6021 356.488,-46.2987"/>
<text text-anchor="middle" x="342" y="-57.9" style="font-family:Times New Roman;font-size:14.00;">a</text>
</g>
</g>
</svg>
