<?xml version="1.0" encoding="UTF-8" standalone="no"?>
<!DOCTYPE svg PUBLIC "-//W3C//DTD SVG 1.0//EN"
 "http://www.w3.org/TR/2001/REC-SVG-20010904/DTD/svg10.dtd" [
 <!ATTLIST svg xmlns:xlink CDATA #FIXED "http://www.w3.org/1999/xlink">
]>
<!-- Generated by Graphviz version 2.20.2 (Tue Mar &#160;2 21:46:26 UTC 2010)
     For user: (mtmoor) Prof. Thomas Moor -->
<!-- Title: Generator Pages: 1 -->
<svg width="392pt" height="151pt"
 viewBox="0.00 0.00 392.00 151.00" xmlns="http://www.w3.org/2000/svg" xmlns:xlink="http://www.w3.org/1999/xlink">
<g id="graph0" class="graph" transform="scale(1 1) rotate(0) translate(4 147)">
<title>Generator</title>
<polygon style="fill:none;stroke:none;" points="-4,4 -4,-147 388,-147 388,4 -4,4"/>
<!-- dot_dummyinit_1 -->
<g id="node1" class="node"><title>dot_dummyinit_1</title>
</g>
<!-- 1 -->
<g id="node3" class="node"><title>1</title>
<ellipse style="fill:none;stroke:black;" cx="58" cy="-46" rx="18" ry="18"/>
<text text-anchor="middle" x="58" y="-41.9" style="font-family:Times New Roman;font-size:14.00;">1</text>
</g>
<!-- dot_dummyinit_1&#45;&gt;1 -->
<g id="edge2" class="edge"><title>dot_dummyinit_1&#45;&gt;1</title>
<path style="fill:none;stroke:black;" d="M2,-46C6,-46 18,-46 30,-46"/>
<polygon style="fill:black;stroke:black;" points="30,-49.5001 40,-46 30,-42.5001 30,-49.5001"/>
</g>
<!-- 2 -->
<g id="node4" class="node"><title>2</title>
<ellipse style="fill:none;stroke:black;" cx="144" cy="-72" rx="18" ry="18"/>
<text text-anchor="middle" x="144" y="-67.9" style="font-family:Times New Roman;font-size:14.00;">2</text>
</g>
<!-- 1&#45;&gt;2 -->
<g id="edge4" class="edge"><title>1&#45;&gt;2</title>
<path style="fill:none;stroke:black;" d="M75,-51C87,-55 103,-60 117,-64"/>
<polygon style="fill:black;stroke:black;" points="116.416,-67.4788 127,-67 118.427,-60.7741 116.416,-67.4788"/>
<text text-anchor="middle" x="101" y="-63.9" style="font-family:Times New Roman;font-size:14.00;">a</text>
</g>
<!-- 5 -->
<g id="node7" class="node"><title>5</title>
<ellipse style="fill:none;stroke:black;" cx="144" cy="-18" rx="18" ry="18"/>
<text text-anchor="middle" x="144" y="-13.9" style="font-family:Times New Roman;font-size:14.00;">5</text>
</g>
<!-- 1&#45;&gt;5 -->
<g id="edge6" class="edge"><title>1&#45;&gt;5</title>
<path style="fill:none;stroke:black;" d="M75,-40C81,-38 88,-36 94,-34 102,-31 110,-28 117,-26"/>
<polygon style="fill:black;stroke:black;" points="118.427,-29.2259 127,-23 116.416,-22.5212 118.427,-29.2259"/>
<text text-anchor="middle" x="101" y="-37.9" style="font-family:Times New Roman;font-size:14.00;">f2</text>
</g>
<!-- 3 -->
<g id="node5" class="node"><title>3</title>
<ellipse style="fill:none;stroke:black;" cx="255" cy="-125" rx="18" ry="18"/>
<text text-anchor="middle" x="255" y="-120.9" style="font-family:Times New Roman;font-size:14.00;">3</text>
</g>
<!-- 2&#45;&gt;3 -->
<g id="edge10" class="edge"><title>2&#45;&gt;3</title>
<path style="fill:none;stroke:black;" d="M160,-80C178,-89 208,-103 229,-113"/>
<polygon style="fill:black;stroke:black;" points="227.44,-116.137 238,-117 230.283,-109.74 227.44,-116.137"/>
<text text-anchor="middle" x="199" y="-108.9" style="font-family:Times New Roman;font-size:14.00;">f1</text>
</g>
<!-- 4 -->
<g id="node6" class="node"><title>4</title>
<ellipse style="fill:none;stroke:black;" cx="366" cy="-88" rx="18" ry="18"/>
<text text-anchor="middle" x="366" y="-83.9" style="font-family:Times New Roman;font-size:14.00;">4</text>
</g>
<!-- 2&#45;&gt;4 -->
<g id="edge8" class="edge"><title>2&#45;&gt;4</title>
<path style="fill:none;stroke:black;" d="M162,-73C188,-75 235,-78 274,-81 296,-82 320,-84 338,-85"/>
<polygon style="fill:black;stroke:black;" points="337.701,-88.4875 348,-86 338.398,-81.5222 337.701,-88.4875"/>
<text text-anchor="middle" x="255" y="-84.9" style="font-family:Times New Roman;font-size:14.00;">alpha</text>
</g>
<!-- 3&#45;&gt;4 -->
<g id="edge12" class="edge"><title>3&#45;&gt;4</title>
<path style="fill:none;stroke:black;" d="M272,-119C290,-113 318,-104 339,-97"/>
<polygon style="fill:black;stroke:black;" points="340.427,-100.226 349,-94 338.416,-93.5212 340.427,-100.226"/>
<text text-anchor="middle" x="311" y="-115.9" style="font-family:Times New Roman;font-size:14.00;">alpha</text>
</g>
<!-- 6 -->
<g id="node8" class="node"><title>6</title>
<ellipse style="fill:none;stroke:black;" cx="255" cy="-18" rx="18" ry="18"/>
<text text-anchor="middle" x="255" y="-13.9" style="font-family:Times New Roman;font-size:14.00;">6</text>
</g>
<!-- 5&#45;&gt;6 -->
<g id="edge14" class="edge"><title>5&#45;&gt;6</title>
<path style="fill:none;stroke:black;" d="M162,-18C180,-18 206,-18 227,-18"/>
<polygon style="fill:black;stroke:black;" points="227,-21.5001 237,-18 227,-14.5001 227,-21.5001"/>
<text text-anchor="middle" x="199" y="-21.9" style="font-family:Times New Roman;font-size:14.00;">alpha</text>
</g>
<!-- 7 -->
<g id="node9" class="node"><title>7</title>
<ellipse style="fill:none;stroke:black;" cx="366" cy="-18" rx="18" ry="18"/>
<text text-anchor="middle" x="366" y="-13.9" style="font-family:Times New Roman;font-size:14.00;">7</text>
</g>
<!-- 6&#45;&gt;7 -->
<g id="edge16" class="edge"><title>6&#45;&gt;7</title>
<path style="fill:none;stroke:black;" d="M273,-18C291,-18 317,-18 338,-18"/>
<polygon style="fill:black;stroke:black;" points="338,-21.5001 348,-18 338,-14.5001 338,-21.5001"/>
<text text-anchor="middle" x="311" y="-21.9" style="font-family:Times New Roman;font-size:14.00;">beta</text>
</g>
</g>
</svg>
