<?xml version="1.0" encoding="UTF-8" standalone="no"?>
<!DOCTYPE svg PUBLIC "-//W3C//DTD SVG 1.0//EN"
 "http://www.w3.org/TR/2001/REC-SVG-20010904/DTD/svg10.dtd" [
 <!ATTLIST svg xmlns:xlink CDATA #FIXED "http://www.w3.org/1999/xlink">
]>
<!-- Generated by Graphviz version 2.20.2 (Tue Mar &#160;2 21:46:26 UTC 2010)
     For user: (mtmoor) Prof. Thomas Moor -->
<!-- Title: diag_system_3_modular1 Pages: 1 -->
<svg width="416pt" height="55pt"
 viewBox="0.00 0.00 416.00 55.00" xmlns="http://www.w3.org/2000/svg" xmlns:xlink="http://www.w3.org/1999/xlink">
<g id="graph0" class="graph" transform="scale(1 1) rotate(0) translate(4 51)">
<title>diag_system_3_modular1</title>
<polygon style="fill:none;stroke:none;" points="-4,4 -4,-51 412,-51 412,4 -4,4"/>
<!-- dot_dummyinit_1 -->
<g id="node1" class="node"><title>dot_dummyinit_1</title>
</g>
<!-- 1 -->
<g id="node3" class="node"><title>1</title>
<ellipse style="fill:none;stroke:black;" cx="62" cy="-25" rx="18" ry="18"/>
<ellipse style="fill:none;stroke:black;" cx="62" cy="-25" rx="22" ry="22"/>
<text text-anchor="middle" x="62" y="-20.9" style="font-family:Times New Roman;font-size:14.00;">1</text>
</g>
<!-- dot_dummyinit_1&#45;&gt;1 -->
<g id="edge2" class="edge"><title>dot_dummyinit_1&#45;&gt;1</title>
<path style="fill:none;stroke:black;" d="M2,-25C5,-25 17,-25 30,-25"/>
<polygon style="fill:black;stroke:black;" points="30,-28.5001 40,-25 30,-21.5001 30,-28.5001"/>
</g>
<!-- 2 -->
<g id="node4" class="node"><title>2</title>
<ellipse style="fill:none;stroke:black;" cx="150" cy="-25" rx="18" ry="18"/>
<ellipse style="fill:none;stroke:black;" cx="150" cy="-25" rx="22" ry="22"/>
<text text-anchor="middle" x="150" y="-20.9" style="font-family:Times New Roman;font-size:14.00;">2</text>
</g>
<!-- 1&#45;&gt;2 -->
<g id="edge4" class="edge"><title>1&#45;&gt;2</title>
<path style="fill:none;stroke:black;" d="M84,-25C94,-25 107,-25 118,-25"/>
<polygon style="fill:black;stroke:black;" points="118,-28.5001 128,-25 118,-21.5001 118,-28.5001"/>
<text text-anchor="middle" x="106" y="-28.9" style="font-family:Times New Roman;font-size:14.00;">a</text>
</g>
<!-- 3 -->
<g id="node5" class="node"><title>3</title>
<ellipse style="fill:none;stroke:black;" cx="268" cy="-25" rx="18" ry="18"/>
<ellipse style="fill:none;stroke:black;" cx="268" cy="-25" rx="22" ry="22"/>
<text text-anchor="middle" x="268" y="-20.9" style="font-family:Times New Roman;font-size:14.00;">3</text>
</g>
<!-- 2&#45;&gt;3 -->
<g id="edge6" class="edge"><title>2&#45;&gt;3</title>
<path style="fill:none;stroke:black;" d="M172,-25C190,-25 216,-25 236,-25"/>
<polygon style="fill:black;stroke:black;" points="236,-28.5001 246,-25 236,-21.5001 236,-28.5001"/>
<text text-anchor="middle" x="209" y="-28.9" style="font-family:Times New Roman;font-size:14.00;">alpha</text>
</g>
<!-- 3&#45;&gt;2 -->
<g id="edge8" class="edge"><title>3&#45;&gt;2</title>
<path style="fill:none;stroke:black;" d="M249,-12C243,-9 235,-6 228,-4 212,-0 207,-0 190,-4 186,-5 182,-6 178,-8"/>
<polygon style="fill:black;stroke:black;" points="176.042,-5.08397 169,-13 179.441,-11.2031 176.042,-5.08397"/>
<text text-anchor="middle" x="209" y="-8.9" style="font-family:Times New Roman;font-size:14.00;">e</text>
</g>
<!-- 4 -->
<g id="node6" class="node"><title>4</title>
<ellipse style="fill:none;stroke:black;" cx="386" cy="-25" rx="18" ry="18"/>
<ellipse style="fill:none;stroke:black;" cx="386" cy="-25" rx="22" ry="22"/>
<text text-anchor="middle" x="386" y="-20.9" style="font-family:Times New Roman;font-size:14.00;">4</text>
</g>
<!-- 3&#45;&gt;4 -->
<g id="edge10" class="edge"><title>3&#45;&gt;4</title>
<path style="fill:none;stroke:black;" d="M290,-25C308,-25 334,-25 354,-25"/>
<polygon style="fill:black;stroke:black;" points="354,-28.5001 364,-25 354,-21.5001 354,-28.5001"/>
<text text-anchor="middle" x="327" y="-28.9" style="font-family:Times New Roman;font-size:14.00;">f</text>
</g>
<!-- 4&#45;&gt;3 -->
<g id="edge12" class="edge"><title>4&#45;&gt;3</title>
<path style="fill:none;stroke:black;" d="M367,-12C361,-9 353,-6 346,-4 330,-0 325,-0 308,-4 304,-5 300,-6 296,-8"/>
<polygon style="fill:black;stroke:black;" points="294.042,-5.08397 287,-13 297.441,-11.2031 294.042,-5.08397"/>
<text text-anchor="middle" x="327" y="-8.9" style="font-family:Times New Roman;font-size:14.00;">alpha</text>
</g>
</g>
</svg>
