<?xml version="1.0" encoding="UTF-8" standalone="no"?>
<!DOCTYPE svg PUBLIC "-//W3C//DTD SVG 1.0//EN"
 "http://www.w3.org/TR/2001/REC-SVG-20010904/DTD/svg10.dtd" [
 <!ATTLIST svg xmlns:xlink CDATA #FIXED "http://www.w3.org/1999/xlink">
]>
<!-- Generated by Graphviz version 2.20.2 (Tue Mar &#160;2 21:46:26 UTC 2010)
     For user: (mtmoor) Prof. Thomas Moor -->
<!-- Title: Generator Pages: 1 -->
<svg width="720pt" height="98pt"
 viewBox="0.00 0.00 720.00 98.32" xmlns="http://www.w3.org/2000/svg" xmlns:xlink="http://www.w3.org/1999/xlink">
<g id="graph0" class="graph" transform="scale(0.73922 0.73922) rotate(0) translate(4 129)">
<title>Generator</title>
<polygon style="fill:none;stroke:none;" points="-4,4 -4,-129 970,-129 970,4 -4,4"/>
<!-- dot_dummyinit_1 -->
<g id="node1" class="node"><title>dot_dummyinit_1</title>
</g>
<!-- 1N -->
<g id="node3" class="node"><title>1N</title>
<polygon style="fill:none;stroke:black;" points="146,-39 92,-39 92,-3 146,-3 146,-39"/>
<text text-anchor="middle" x="119" y="-16.9" style="font-family:Times New Roman;font-size:14.00;">1N</text>
</g>
<!-- dot_dummyinit_1&#45;&gt;1N -->
<g id="edge2" class="edge"><title>dot_dummyinit_1&#45;&gt;1N</title>
<path style="fill:none;stroke:black;" d="M54,-21C63,-21 72,-21 82,-21"/>
<polygon style="fill:black;stroke:black;" points="82,-24.5001 92,-21 82,-17.5001 82,-24.5001"/>
</g>
<!-- 2N -->
<g id="node4" class="node"><title>2N</title>
<polygon style="fill:none;stroke:black;" points="256,-39 202,-39 202,-3 256,-3 256,-39"/>
<text text-anchor="middle" x="229" y="-16.9" style="font-family:Times New Roman;font-size:14.00;">2N</text>
</g>
<!-- 1N&#45;&gt;2N -->
<g id="edge4" class="edge"><title>1N&#45;&gt;2N</title>
<path style="fill:none;stroke:black;" d="M146,-21C160,-21 177,-21 192,-21"/>
<polygon style="fill:black;stroke:black;" points="192,-24.5001 202,-21 192,-17.5001 192,-24.5001"/>
<text text-anchor="middle" x="174" y="-24.9" style="font-family:Times New Roman;font-size:14.00;">sfa</text>
</g>
<!-- 3N -->
<g id="node5" class="node"><title>3N</title>
<polygon style="fill:none;stroke:black;" points="378,-39 324,-39 324,-3 378,-3 378,-39"/>
<text text-anchor="middle" x="351" y="-16.9" style="font-family:Times New Roman;font-size:14.00;">3N</text>
</g>
<!-- 2N&#45;&gt;3N -->
<g id="edge6" class="edge"><title>2N&#45;&gt;3N</title>
<path style="fill:none;stroke:black;" d="M256,-21C273,-21 295,-21 314,-21"/>
<polygon style="fill:black;stroke:black;" points="314,-24.5001 324,-21 314,-17.5001 314,-24.5001"/>
<text text-anchor="middle" x="290" y="-24.9" style="font-family:Times New Roman;font-size:14.00;">sf&#45;c1</text>
</g>
<!-- 4N -->
<g id="node6" class="node"><title>4N</title>
<polygon style="fill:none;stroke:black;" points="500,-71 446,-71 446,-35 500,-35 500,-71"/>
<text text-anchor="middle" x="473" y="-48.9" style="font-family:Times New Roman;font-size:14.00;">4N</text>
</g>
<!-- 3N&#45;&gt;4N -->
<g id="edge8" class="edge"><title>3N&#45;&gt;4N</title>
<path style="fill:none;stroke:black;" d="M378,-28C395,-33 417,-39 436,-44"/>
<polygon style="fill:black;stroke:black;" points="435.508,-47.4708 446,-46 436.881,-40.6067 435.508,-47.4708"/>
<text text-anchor="middle" x="412" y="-43.9" style="font-family:Times New Roman;font-size:14.00;">sfmv</text>
</g>
<!-- 5N -->
<g id="node7" class="node"><title>5N</title>
<polygon style="fill:none;stroke:black;" points="616,-125 562,-125 562,-89 616,-89 616,-125"/>
<text text-anchor="middle" x="589" y="-102.9" style="font-family:Times New Roman;font-size:14.00;">5N</text>
</g>
<!-- 4N&#45;&gt;5N -->
<g id="edge10" class="edge"><title>4N&#45;&gt;5N</title>
<path style="fill:none;stroke:black;" d="M500,-65C506,-68 512,-71 518,-74 530,-79 542,-84 553,-90"/>
<polygon style="fill:black;stroke:black;" points="551.44,-93.1369 562,-94 554.283,-86.7402 551.44,-93.1369"/>
<text text-anchor="middle" x="531" y="-86.9" style="font-family:Times New Roman;font-size:14.00;">sfl</text>
</g>
<!-- 7F -->
<g id="node8" class="node"><title>7F</title>
<polygon style="fill:none;stroke:black;" points="616,-71 562,-71 562,-35 616,-35 616,-71"/>
<text text-anchor="middle" x="589" y="-48.9" style="font-family:Times New Roman;font-size:14.00;">7F</text>
</g>
<!-- 4N&#45;&gt;7F -->
<g id="edge12" class="edge"><title>4N&#45;&gt;7F</title>
<path style="fill:none;stroke:black;" d="M500,-53C515,-53 535,-53 552,-53"/>
<polygon style="fill:black;stroke:black;" points="552,-56.5001 562,-53 552,-49.5001 552,-56.5001"/>
<text text-anchor="middle" x="531" y="-56.9" style="font-family:Times New Roman;font-size:14.00;">t_sf</text>
</g>
<!-- 8N 10N 14N 17N -->
<g id="node9" class="node"><title>8N 10N 14N 17N</title>
<polygon style="fill:none;stroke:black;" points="807,-125 673,-125 673,-89 807,-89 807,-125"/>
<text text-anchor="middle" x="740" y="-102.9" style="font-family:Times New Roman;font-size:14.00;">8N 10N 14N 17N</text>
</g>
<!-- 5N&#45;&gt;8N 10N 14N 17N -->
<g id="edge14" class="edge"><title>5N&#45;&gt;8N 10N 14N 17N</title>
<path style="fill:none;stroke:black;" d="M616,-107C629,-107 645,-107 662,-107"/>
<polygon style="fill:black;stroke:black;" points="662,-110.5 672,-107 662,-103.5 662,-110.5"/>
<text text-anchor="middle" x="644" y="-110.9" style="font-family:Times New Roman;font-size:14.00;">sfa</text>
</g>
<!-- 1N 11N 15N -->
<g id="node10" class="node"><title>1N 11N 15N</title>
<polygon style="fill:none;stroke:black;" points="791,-71 689,-71 689,-35 791,-35 791,-71"/>
<text text-anchor="middle" x="740" y="-48.9" style="font-family:Times New Roman;font-size:14.00;">1N 11N 15N</text>
</g>
<!-- 5N&#45;&gt;1N 11N 15N -->
<g id="edge16" class="edge"><title>5N&#45;&gt;1N 11N 15N</title>
<path style="fill:none;stroke:black;" d="M616,-93C622,-91 628,-88 634,-86 649,-80 664,-75 679,-70"/>
<polygon style="fill:black;stroke:black;" points="680.427,-73.2259 689,-67 678.416,-66.5212 680.427,-73.2259"/>
<text text-anchor="middle" x="644" y="-89.9" style="font-family:Times New Roman;font-size:14.00;">sfs</text>
</g>
<!-- 2N 16N 18N -->
<g id="node11" class="node"><title>2N 16N 18N</title>
<polygon style="fill:none;stroke:black;" points="966,-71 864,-71 864,-35 966,-35 966,-71"/>
<text text-anchor="middle" x="915" y="-48.9" style="font-family:Times New Roman;font-size:14.00;">2N 16N 18N</text>
</g>
<!-- 8N 10N 14N 17N&#45;&gt;2N 16N 18N -->
<g id="edge18" class="edge"><title>8N 10N 14N 17N&#45;&gt;2N 16N 18N</title>
<path style="fill:none;stroke:black;" d="M799,-89C817,-83 837,-77 854,-72"/>
<polygon style="fill:black;stroke:black;" points="855.427,-75.2259 864,-69 853.416,-68.5212 855.427,-75.2259"/>
<text text-anchor="middle" x="836" y="-81.9" style="font-family:Times New Roman;font-size:14.00;">sfs</text>
</g>
<!-- 1N 11N 15N&#45;&gt;2N 16N 18N -->
<g id="edge20" class="edge"><title>1N 11N 15N&#45;&gt;2N 16N 18N</title>
<path style="fill:none;stroke:black;" d="M791,-53C811,-53 833,-53 854,-53"/>
<polygon style="fill:black;stroke:black;" points="854,-56.5001 864,-53 854,-49.5001 854,-56.5001"/>
<text text-anchor="middle" x="836" y="-56.9" style="font-family:Times New Roman;font-size:14.00;">sfa</text>
</g>
<!-- 2N 16N 18N&#45;&gt;3N -->
<g id="edge22" class="edge"><title>2N 16N 18N&#45;&gt;3N</title>
<path style="fill:none;stroke:black;" d="M878,-35C843,-20 789,-1 740,-0 473,-0 473,-0 473,-0 444,-1 412,-6 388,-12"/>
<polygon style="fill:black;stroke:black;" points="387.119,-8.60673 378,-14 388.492,-15.4708 387.119,-8.60673"/>
<text text-anchor="middle" x="589" y="-4.9" style="font-family:Times New Roman;font-size:14.00;">sf&#45;c1</text>
</g>
</g>
</svg>
