<?xml version="1.0" encoding="UTF-8" standalone="no"?>
<!DOCTYPE svg PUBLIC "-//W3C//DTD SVG 1.0//EN"
 "http://www.w3.org/TR/2001/REC-SVG-20010904/DTD/svg10.dtd" [
 <!ATTLIST svg xmlns:xlink CDATA #FIXED "http://www.w3.org/1999/xlink">
]>
<!-- Generated by Graphviz version 2.20.2 (Tue Mar &#160;2 21:46:26 UTC 2010)
     For user: (mtmoor) Prof. Thomas Moor -->
<!-- Title: R_sf(0) Pages: 1 -->
<svg width="720pt" height="331pt"
 viewBox="0.00 0.00 720.00 330.60" xmlns="http://www.w3.org/2000/svg" xmlns:xlink="http://www.w3.org/1999/xlink">
<g id="graph0" class="graph" transform="scale(0.794702 0.794702) rotate(0) translate(4 412)">
<title>R_sf(0)</title>
<polygon style="fill:none;stroke:none;" points="-4,4 -4,-412 902,-412 902,4 -4,4"/>
<!-- dot_dummyinit_1 -->
<g id="node1" class="node"><title>dot_dummyinit_1</title>
</g>
<!-- sf1 -->
<g id="node3" class="node"><title>sf1</title>
<ellipse style="fill:none;stroke:black;" cx="69" cy="-147" rx="25.0158" ry="25.0158"/>
<ellipse style="fill:none;stroke:black;" cx="69" cy="-147" rx="29.0158" ry="29.0158"/>
<text text-anchor="middle" x="69" y="-142.9" style="font-family:Times New Roman;font-size:14.00;">sf1</text>
</g>
<!-- dot_dummyinit_1&#45;&gt;sf1 -->
<g id="edge2" class="edge"><title>dot_dummyinit_1&#45;&gt;sf1</title>
<path style="fill:none;stroke:black;" d="M2,-147C6,-147 17,-147 30,-147"/>
<polygon style="fill:black;stroke:black;" points="30,-150.5 40,-147 30,-143.5 30,-150.5"/>
</g>
<!-- sf2 -->
<g id="node4" class="node"><title>sf2</title>
<ellipse style="fill:none;stroke:black;" cx="183" cy="-249" rx="25.0158" ry="25.0158"/>
<ellipse style="fill:none;stroke:black;" cx="183" cy="-249" rx="29.0158" ry="29.0158"/>
<text text-anchor="middle" x="183" y="-244.9" style="font-family:Times New Roman;font-size:14.00;">sf2</text>
</g>
<!-- sf1&#45;&gt;sf2 -->
<g id="edge4" class="edge"><title>sf1&#45;&gt;sf2</title>
<path style="fill:none;stroke:black;" d="M91,-166C109,-182 134,-205 153,-222"/>
<polygon style="fill:black;stroke:black;" points="151.169,-225.049 161,-229 155.779,-219.781 151.169,-225.049"/>
<text text-anchor="middle" x="126" y="-206.9" style="font-family:Times New Roman;font-size:14.00;">sfa</text>
</g>
<!-- sf3 -->
<g id="node5" class="node"><title>sf3</title>
<ellipse style="fill:none;stroke:black;" cx="319" cy="-249" rx="25.0158" ry="25.0158"/>
<ellipse style="fill:none;stroke:black;" cx="319" cy="-249" rx="29.0158" ry="29.0158"/>
<text text-anchor="middle" x="319" y="-244.9" style="font-family:Times New Roman;font-size:14.00;">sf3</text>
</g>
<!-- sf2&#45;&gt;sf3 -->
<g id="edge6" class="edge"><title>sf2&#45;&gt;sf3</title>
<path style="fill:none;stroke:black;" d="M212,-249C232,-249 258,-249 280,-249"/>
<polygon style="fill:black;stroke:black;" points="280,-252.5 290,-249 280,-245.5 280,-252.5"/>
<text text-anchor="middle" x="248" y="-252.9" style="font-family:Times New Roman;font-size:14.00;">sf&#45;c1</text>
</g>
<!-- sf9 -->
<g id="node11" class="node"><title>sf9</title>
<ellipse style="fill:none;stroke:black;" cx="319" cy="-325" rx="25.0158" ry="25.0158"/>
<ellipse style="fill:none;stroke:black;" cx="319" cy="-325" rx="29.0158" ry="29.0158"/>
<text text-anchor="middle" x="319" y="-320.9" style="font-family:Times New Roman;font-size:14.00;">sf9</text>
</g>
<!-- sf2&#45;&gt;sf9 -->
<g id="edge8" class="edge"><title>sf2&#45;&gt;sf9</title>
<path style="fill:none;stroke:black;" d="M209,-263C230,-275 261,-293 285,-306"/>
<polygon style="fill:black;stroke:black;" points="283.559,-309.203 294,-311 286.958,-303.084 283.559,-309.203"/>
<text text-anchor="middle" x="248" y="-296.9" style="font-family:Times New Roman;font-size:14.00;">block</text>
</g>
<!-- sf12 -->
<g id="node14" class="node"><title>sf12</title>
<ellipse style="fill:none;stroke:black;" cx="319" cy="-167" rx="30.8293" ry="30.8293"/>
<ellipse style="fill:none;stroke:black;" cx="319" cy="-167" rx="34.7729" ry="34.7729"/>
<text text-anchor="middle" x="319" y="-162.9" style="font-family:Times New Roman;font-size:14.00;">sf12</text>
</g>
<!-- sf2&#45;&gt;sf12 -->
<g id="edge10" class="edge"><title>sf2&#45;&gt;sf12</title>
<path style="fill:none;stroke:black;" d="M208,-234C228,-222 257,-204 280,-190"/>
<polygon style="fill:black;stroke:black;" points="281.958,-192.916 289,-185 278.559,-186.797 281.958,-192.916"/>
<text text-anchor="middle" x="248" y="-222.9" style="font-family:Times New Roman;font-size:14.00;">diag</text>
</g>
<!-- sf4 -->
<g id="node6" class="node"><title>sf4</title>
<ellipse style="fill:none;stroke:black;" cx="461" cy="-247" rx="25.0158" ry="25.0158"/>
<ellipse style="fill:none;stroke:black;" cx="461" cy="-247" rx="29.0158" ry="29.0158"/>
<text text-anchor="middle" x="461" y="-242.9" style="font-family:Times New Roman;font-size:14.00;">sf4</text>
</g>
<!-- sf3&#45;&gt;sf4 -->
<g id="edge12" class="edge"><title>sf3&#45;&gt;sf4</title>
<path style="fill:none;stroke:black;" d="M348,-249C370,-248 398,-248 422,-247"/>
<polygon style="fill:black;stroke:black;" points="422,-250.5 432,-247 422,-243.5 422,-250.5"/>
<text text-anchor="middle" x="390" y="-250.9" style="font-family:Times New Roman;font-size:14.00;">sfmv</text>
</g>
<!-- sf10 -->
<g id="node12" class="node"><title>sf10</title>
<ellipse style="fill:none;stroke:black;" cx="461" cy="-329" rx="30.8293" ry="30.8293"/>
<ellipse style="fill:none;stroke:black;" cx="461" cy="-329" rx="34.7729" ry="34.7729"/>
<text text-anchor="middle" x="461" y="-324.9" style="font-family:Times New Roman;font-size:14.00;">sf10</text>
</g>
<!-- sf3&#45;&gt;sf10 -->
<g id="edge14" class="edge"><title>sf3&#45;&gt;sf10</title>
<path style="fill:none;stroke:black;" d="M344,-263C365,-275 397,-293 421,-307"/>
<polygon style="fill:black;stroke:black;" points="419.559,-310.203 430,-312 422.958,-304.084 419.559,-310.203"/>
<text text-anchor="middle" x="390" y="-298.9" style="font-family:Times New Roman;font-size:14.00;">block</text>
</g>
<!-- sf5 -->
<g id="node7" class="node"><title>sf5</title>
<ellipse style="fill:none;stroke:black;" cx="603" cy="-247" rx="25.0158" ry="25.0158"/>
<ellipse style="fill:none;stroke:black;" cx="603" cy="-247" rx="29.0158" ry="29.0158"/>
<text text-anchor="middle" x="603" y="-242.9" style="font-family:Times New Roman;font-size:14.00;">sf5</text>
</g>
<!-- sf4&#45;&gt;sf5 -->
<g id="edge16" class="edge"><title>sf4&#45;&gt;sf5</title>
<path style="fill:none;stroke:black;" d="M490,-247C512,-247 540,-247 564,-247"/>
<polygon style="fill:black;stroke:black;" points="564,-250.5 574,-247 564,-243.5 564,-250.5"/>
<text text-anchor="middle" x="532" y="-250.9" style="font-family:Times New Roman;font-size:14.00;">sfl</text>
</g>
<!-- sf11 -->
<g id="node13" class="node"><title>sf11</title>
<ellipse style="fill:none;stroke:black;" cx="603" cy="-329" rx="30.8293" ry="30.8293"/>
<ellipse style="fill:none;stroke:black;" cx="603" cy="-329" rx="34.7729" ry="34.7729"/>
<text text-anchor="middle" x="603" y="-324.9" style="font-family:Times New Roman;font-size:14.00;">sf11</text>
</g>
<!-- sf4&#45;&gt;sf11 -->
<g id="edge18" class="edge"><title>sf4&#45;&gt;sf11</title>
<path style="fill:none;stroke:black;" d="M486,-262C507,-274 539,-292 564,-306"/>
<polygon style="fill:black;stroke:black;" points="562.559,-309.203 573,-311 565.958,-303.084 562.559,-309.203"/>
<text text-anchor="middle" x="532" y="-297.9" style="font-family:Times New Roman;font-size:14.00;">block</text>
</g>
<!-- sf6 -->
<g id="node8" class="node"><title>sf6</title>
<ellipse style="fill:none;stroke:black;" cx="739" cy="-281" rx="25.0158" ry="25.0158"/>
<ellipse style="fill:none;stroke:black;" cx="739" cy="-281" rx="29.0158" ry="29.0158"/>
<text text-anchor="middle" x="739" y="-276.9" style="font-family:Times New Roman;font-size:14.00;">sf6</text>
</g>
<!-- sf5&#45;&gt;sf6 -->
<g id="edge20" class="edge"><title>sf5&#45;&gt;sf6</title>
<path style="fill:none;stroke:black;" d="M631,-254C651,-259 678,-266 701,-272"/>
<polygon style="fill:black;stroke:black;" points="700.508,-275.471 711,-274 701.881,-268.607 700.508,-275.471"/>
<text text-anchor="middle" x="671" y="-269.9" style="font-family:Times New Roman;font-size:14.00;">sfa</text>
</g>
<!-- sf8 -->
<g id="node10" class="node"><title>sf8</title>
<ellipse style="fill:none;stroke:black;" cx="739" cy="-205" rx="25.0158" ry="25.0158"/>
<ellipse style="fill:none;stroke:black;" cx="739" cy="-205" rx="29.0158" ry="29.0158"/>
<text text-anchor="middle" x="739" y="-200.9" style="font-family:Times New Roman;font-size:14.00;">sf8</text>
</g>
<!-- sf5&#45;&gt;sf8 -->
<g id="edge22" class="edge"><title>sf5&#45;&gt;sf8</title>
<path style="fill:none;stroke:black;" d="M631,-238C651,-232 679,-224 701,-217"/>
<polygon style="fill:black;stroke:black;" points="702.427,-220.226 711,-214 700.416,-213.521 702.427,-220.226"/>
<text text-anchor="middle" x="671" y="-233.9" style="font-family:Times New Roman;font-size:14.00;">pass</text>
</g>
<!-- sf7 -->
<g id="node9" class="node"><title>sf7</title>
<ellipse style="fill:none;stroke:black;" cx="869" cy="-281" rx="25.0158" ry="25.0158"/>
<ellipse style="fill:none;stroke:black;" cx="869" cy="-281" rx="29.0158" ry="29.0158"/>
<text text-anchor="middle" x="869" y="-276.9" style="font-family:Times New Roman;font-size:14.00;">sf7</text>
</g>
<!-- sf6&#45;&gt;sf7 -->
<g id="edge24" class="edge"><title>sf6&#45;&gt;sf7</title>
<path style="fill:none;stroke:black;" d="M768,-281C787,-281 810,-281 830,-281"/>
<polygon style="fill:black;stroke:black;" points="830,-284.5 840,-281 830,-277.5 830,-284.5"/>
<text text-anchor="middle" x="807" y="-284.9" style="font-family:Times New Roman;font-size:14.00;">pass</text>
</g>
<!-- sf7&#45;&gt;sf2 -->
<g id="edge26" class="edge"><title>sf7&#45;&gt;sf2</title>
<path style="fill:none;stroke:black;" d="M855,-306C834,-339 792,-392 739,-392 319,-392 319,-392 319,-392 260,-392 219,-327 198,-285"/>
<polygon style="fill:black;stroke:black;" points="201.26,-283.717 194,-276 194.863,-286.56 201.26,-283.717"/>
<text text-anchor="middle" x="532" y="-395.9" style="font-family:Times New Roman;font-size:14.00;">sfs</text>
</g>
<!-- sf8&#45;&gt;sf1 -->
<g id="edge30" class="edge"><title>sf8&#45;&gt;sf1</title>
<path style="fill:none;stroke:black;" d="M723,-181C700,-150 655,-102 603,-102 183,-102 183,-102 183,-102 155,-102 124,-114 102,-126"/>
<polygon style="fill:black;stroke:black;" points="100.042,-123.084 93,-131 103.441,-129.203 100.042,-123.084"/>
<text text-anchor="middle" x="390" y="-105.9" style="font-family:Times New Roman;font-size:14.00;">sfs</text>
</g>
<!-- sf8&#45;&gt;sf7 -->
<g id="edge28" class="edge"><title>sf8&#45;&gt;sf7</title>
<path style="fill:none;stroke:black;" d="M764,-220C784,-231 813,-248 835,-261"/>
<polygon style="fill:black;stroke:black;" points="833.559,-264.203 844,-266 836.958,-258.084 833.559,-264.203"/>
<text text-anchor="middle" x="807" y="-254.9" style="font-family:Times New Roman;font-size:14.00;">sfa</text>
</g>
<!-- sf9&#45;&gt;sf10 -->
<g id="edge32" class="edge"><title>sf9&#45;&gt;sf10</title>
<path style="fill:none;stroke:black;" d="M348,-326C368,-327 394,-327 416,-328"/>
<polygon style="fill:black;stroke:black;" points="416,-331.5 426,-328 416,-324.5 416,-331.5"/>
<text text-anchor="middle" x="390" y="-330.9" style="font-family:Times New Roman;font-size:14.00;">sf&#45;c1</text>
</g>
<!-- sf10&#45;&gt;sf11 -->
<g id="edge34" class="edge"><title>sf10&#45;&gt;sf11</title>
<path style="fill:none;stroke:black;" d="M496,-329C515,-329 538,-329 558,-329"/>
<polygon style="fill:black;stroke:black;" points="558,-332.5 568,-329 558,-325.5 558,-332.5"/>
<text text-anchor="middle" x="532" y="-332.9" style="font-family:Times New Roman;font-size:14.00;">sfmv</text>
</g>
<!-- sf13 -->
<g id="node15" class="node"><title>sf13</title>
<ellipse style="fill:none;stroke:black;" cx="461" cy="-165" rx="30.8293" ry="30.8293"/>
<ellipse style="fill:none;stroke:black;" cx="461" cy="-165" rx="34.7729" ry="34.7729"/>
<text text-anchor="middle" x="461" y="-160.9" style="font-family:Times New Roman;font-size:14.00;">sf13</text>
</g>
<!-- sf12&#45;&gt;sf13 -->
<g id="edge36" class="edge"><title>sf12&#45;&gt;sf13</title>
<path style="fill:none;stroke:black;" d="M354,-167C373,-166 396,-166 416,-166"/>
<polygon style="fill:black;stroke:black;" points="416,-169.5 426,-166 416,-162.5 416,-169.5"/>
<text text-anchor="middle" x="390" y="-168.9" style="font-family:Times New Roman;font-size:14.00;">sf&#45;c1</text>
</g>
<!-- sf14 -->
<g id="node16" class="node"><title>sf14</title>
<ellipse style="fill:none;stroke:black;" cx="603" cy="-39" rx="30.8293" ry="30.8293"/>
<ellipse style="fill:none;stroke:black;" cx="603" cy="-39" rx="34.7729" ry="34.7729"/>
<text text-anchor="middle" x="603" y="-34.9" style="font-family:Times New Roman;font-size:14.00;">sf14</text>
</g>
<!-- sf13&#45;&gt;sf14 -->
<g id="edge38" class="edge"><title>sf13&#45;&gt;sf14</title>
<path style="fill:none;stroke:black;" d="M487,-142C510,-121 544,-91 569,-69"/>
<polygon style="fill:black;stroke:black;" points="571.779,-71.2191 577,-62 567.169,-65.9511 571.779,-71.2191"/>
<text text-anchor="middle" x="532" y="-119.9" style="font-family:Times New Roman;font-size:14.00;">sfmv</text>
</g>
<!-- sf15 -->
<g id="node17" class="node"><title>sf15</title>
<ellipse style="fill:none;stroke:black;" cx="739" cy="-35" rx="30.8293" ry="30.8293"/>
<ellipse style="fill:none;stroke:black;" cx="739" cy="-35" rx="34.7729" ry="34.7729"/>
<text text-anchor="middle" x="739" y="-30.9" style="font-family:Times New Roman;font-size:14.00;">sf15</text>
</g>
<!-- sf14&#45;&gt;sf15 -->
<g id="edge40" class="edge"><title>sf14&#45;&gt;sf15</title>
<path style="fill:none;stroke:black;" d="M638,-38C655,-37 676,-37 694,-36"/>
<polygon style="fill:black;stroke:black;" points="694,-39.5001 704,-36 694,-32.5001 694,-39.5001"/>
<text text-anchor="middle" x="671" y="-43.9" style="font-family:Times New Roman;font-size:14.00;">sfl</text>
</g>
<!-- sf15&#45;&gt;sf14 -->
<g id="edge42" class="edge"><title>sf15&#45;&gt;sf14</title>
<path style="fill:none;stroke:black;" d="M707,-21C692,-16 673,-13 656,-16 652,-17 648,-18 644,-20"/>
<polygon style="fill:black;stroke:black;" points="642.573,-16.7741 634,-23 644.584,-23.4788 642.573,-16.7741"/>
<text text-anchor="middle" x="671" y="-23.9" style="font-family:Times New Roman;font-size:14.00;">sfa</text>
</g>
</g>
</svg>
