<?xml version="1.0" encoding="UTF-8" standalone="no"?>
<!DOCTYPE svg PUBLIC "-//W3C//DTD SVG 1.0//EN"
 "http://www.w3.org/TR/2001/REC-SVG-20010904/DTD/svg10.dtd" [
 <!ATTLIST svg xmlns:xlink CDATA #FIXED "http://www.w3.org/1999/xlink">
]>
<!-- Generated by Graphviz version 2.20.2 (Tue Mar &#160;2 21:46:26 UTC 2010)
     For user: (mtmoor) Prof. Thomas Moor -->
<!-- Title: R_sf(0) Pages: 1 -->
<svg width="720pt" height="161pt"
 viewBox="0.00 0.00 720.00 160.96" xmlns="http://www.w3.org/2000/svg" xmlns:xlink="http://www.w3.org/1999/xlink">
<g id="graph0" class="graph" transform="scale(0.865385 0.865385) rotate(0) translate(4 182)">
<title>R_sf(0)</title>
<polygon style="fill:none;stroke:none;" points="-4,4 -4,-182 828,-182 828,4 -4,4"/>
<!-- dot_dummyinit_1 -->
<g id="node1" class="node"><title>dot_dummyinit_1</title>
</g>
<!-- sf1 -->
<g id="node3" class="node"><title>sf1</title>
<ellipse style="fill:none;stroke:black;" cx="69" cy="-51" rx="25.0158" ry="25.0158"/>
<ellipse style="fill:none;stroke:black;" cx="69" cy="-51" rx="29.0158" ry="29.0158"/>
<text text-anchor="middle" x="69" y="-46.9" style="font-family:Times New Roman;font-size:14.00;">sf1</text>
</g>
<!-- dot_dummyinit_1&#45;&gt;sf1 -->
<g id="edge2" class="edge"><title>dot_dummyinit_1&#45;&gt;sf1</title>
<path style="fill:none;stroke:black;" d="M2,-51C6,-51 17,-51 30,-51"/>
<polygon style="fill:black;stroke:black;" points="30,-54.5001 40,-51 30,-47.5001 30,-54.5001"/>
</g>
<!-- sf2 -->
<g id="node4" class="node"><title>sf2</title>
<ellipse style="fill:none;stroke:black;" cx="183" cy="-95" rx="25.0158" ry="25.0158"/>
<ellipse style="fill:none;stroke:black;" cx="183" cy="-95" rx="29.0158" ry="29.0158"/>
<text text-anchor="middle" x="183" y="-90.9" style="font-family:Times New Roman;font-size:14.00;">sf2</text>
</g>
<!-- sf1&#45;&gt;sf2 -->
<g id="edge4" class="edge"><title>sf1&#45;&gt;sf2</title>
<path style="fill:none;stroke:black;" d="M96,-62C111,-68 129,-75 145,-81"/>
<polygon style="fill:black;stroke:black;" points="144.415,-84.5357 155,-85 147.015,-78.0364 144.415,-84.5357"/>
<text text-anchor="middle" x="126" y="-77.9" style="font-family:Times New Roman;font-size:14.00;">sfa</text>
</g>
<!-- sf3 -->
<g id="node5" class="node"><title>sf3</title>
<ellipse style="fill:none;stroke:black;" cx="309" cy="-95" rx="25.0158" ry="25.0158"/>
<ellipse style="fill:none;stroke:black;" cx="309" cy="-95" rx="29.0158" ry="29.0158"/>
<text text-anchor="middle" x="309" y="-90.9" style="font-family:Times New Roman;font-size:14.00;">sf3</text>
</g>
<!-- sf2&#45;&gt;sf3 -->
<g id="edge6" class="edge"><title>sf2&#45;&gt;sf3</title>
<path style="fill:none;stroke:black;" d="M212,-95C229,-95 251,-95 270,-95"/>
<polygon style="fill:black;stroke:black;" points="270,-98.5001 280,-95 270,-91.5001 270,-98.5001"/>
<text text-anchor="middle" x="246" y="-98.9" style="font-family:Times New Roman;font-size:14.00;">sf&#45;c1</text>
</g>
<!-- sf4 -->
<g id="node6" class="node"><title>sf4</title>
<ellipse style="fill:none;stroke:black;" cx="435" cy="-95" rx="25.0158" ry="25.0158"/>
<ellipse style="fill:none;stroke:black;" cx="435" cy="-95" rx="29.0158" ry="29.0158"/>
<text text-anchor="middle" x="435" y="-90.9" style="font-family:Times New Roman;font-size:14.00;">sf4</text>
</g>
<!-- sf3&#45;&gt;sf4 -->
<g id="edge8" class="edge"><title>sf3&#45;&gt;sf4</title>
<path style="fill:none;stroke:black;" d="M338,-95C355,-95 377,-95 396,-95"/>
<polygon style="fill:black;stroke:black;" points="396,-98.5001 406,-95 396,-91.5001 396,-98.5001"/>
<text text-anchor="middle" x="372" y="-98.9" style="font-family:Times New Roman;font-size:14.00;">sfmv</text>
</g>
<!-- sf5 -->
<g id="node7" class="node"><title>sf5</title>
<ellipse style="fill:none;stroke:black;" cx="547" cy="-95" rx="25.0158" ry="25.0158"/>
<ellipse style="fill:none;stroke:black;" cx="547" cy="-95" rx="29.0158" ry="29.0158"/>
<text text-anchor="middle" x="547" y="-90.9" style="font-family:Times New Roman;font-size:14.00;">sf5</text>
</g>
<!-- sf4&#45;&gt;sf5 -->
<g id="edge10" class="edge"><title>sf4&#45;&gt;sf5</title>
<path style="fill:none;stroke:black;" d="M464,-95C477,-95 493,-95 508,-95"/>
<polygon style="fill:black;stroke:black;" points="508,-98.5001 518,-95 508,-91.5001 508,-98.5001"/>
<text text-anchor="middle" x="491" y="-98.9" style="font-family:Times New Roman;font-size:14.00;">sfl</text>
</g>
<!-- sf6 -->
<g id="node8" class="node"><title>sf6</title>
<ellipse style="fill:none;stroke:black;" cx="671" cy="-105" rx="25.0158" ry="25.0158"/>
<ellipse style="fill:none;stroke:black;" cx="671" cy="-105" rx="29.0158" ry="29.0158"/>
<text text-anchor="middle" x="671" y="-100.9" style="font-family:Times New Roman;font-size:14.00;">sf6</text>
</g>
<!-- sf5&#45;&gt;sf6 -->
<g id="edge12" class="edge"><title>sf5&#45;&gt;sf6</title>
<path style="fill:none;stroke:black;" d="M576,-97C593,-99 614,-100 632,-101"/>
<polygon style="fill:black;stroke:black;" points="631.701,-104.488 642,-102 632.398,-97.5222 631.701,-104.488"/>
<text text-anchor="middle" x="609" y="-102.9" style="font-family:Times New Roman;font-size:14.00;">sfa</text>
</g>
<!-- sf8 -->
<g id="node10" class="node"><title>sf8</title>
<ellipse style="fill:none;stroke:black;" cx="671" cy="-29" rx="25.0158" ry="25.0158"/>
<ellipse style="fill:none;stroke:black;" cx="671" cy="-29" rx="29.0158" ry="29.0158"/>
<text text-anchor="middle" x="671" y="-24.9" style="font-family:Times New Roman;font-size:14.00;">sf8</text>
</g>
<!-- sf5&#45;&gt;sf8 -->
<g id="edge14" class="edge"><title>sf5&#45;&gt;sf8</title>
<path style="fill:none;stroke:black;" d="M573,-81C591,-72 616,-58 636,-48"/>
<polygon style="fill:black;stroke:black;" points="637.958,-50.916 645,-43 634.559,-44.7969 637.958,-50.916"/>
<text text-anchor="middle" x="609" y="-72.9" style="font-family:Times New Roman;font-size:14.00;">pass</text>
</g>
<!-- sf7 -->
<g id="node9" class="node"><title>sf7</title>
<ellipse style="fill:none;stroke:black;" cx="795" cy="-105" rx="25.0158" ry="25.0158"/>
<ellipse style="fill:none;stroke:black;" cx="795" cy="-105" rx="29.0158" ry="29.0158"/>
<text text-anchor="middle" x="795" y="-100.9" style="font-family:Times New Roman;font-size:14.00;">sf7</text>
</g>
<!-- sf6&#45;&gt;sf7 -->
<g id="edge16" class="edge"><title>sf6&#45;&gt;sf7</title>
<path style="fill:none;stroke:black;" d="M700,-105C717,-105 738,-105 756,-105"/>
<polygon style="fill:black;stroke:black;" points="756,-108.5 766,-105 756,-101.5 756,-108.5"/>
<text text-anchor="middle" x="733" y="-108.9" style="font-family:Times New Roman;font-size:14.00;">pass</text>
</g>
<!-- sf7&#45;&gt;sf2 -->
<g id="edge18" class="edge"><title>sf7&#45;&gt;sf2</title>
<path style="fill:none;stroke:black;" d="M772,-123C748,-140 709,-162 671,-162 309,-162 309,-162 309,-162 273,-162 236,-140 212,-121"/>
<polygon style="fill:black;stroke:black;" points="214.1,-118.2 204,-115 209.9,-123.8 214.1,-118.2"/>
<text text-anchor="middle" x="491" y="-165.9" style="font-family:Times New Roman;font-size:14.00;">sfs</text>
</g>
<!-- sf8&#45;&gt;sf1 -->
<g id="edge22" class="edge"><title>sf8&#45;&gt;sf1</title>
<path style="fill:none;stroke:black;" d="M642,-29C617,-29 580,-29 547,-29 183,-29 183,-29 183,-29 158,-29 129,-34 107,-40"/>
<polygon style="fill:black;stroke:black;" points="105.573,-36.7741 97,-43 107.584,-43.4788 105.573,-36.7741"/>
<text text-anchor="middle" x="372" y="-32.9" style="font-family:Times New Roman;font-size:14.00;">sfs</text>
</g>
<!-- sf8&#45;&gt;sf7 -->
<g id="edge20" class="edge"><title>sf8&#45;&gt;sf7</title>
<path style="fill:none;stroke:black;" d="M696,-44C715,-55 741,-71 761,-84"/>
<polygon style="fill:black;stroke:black;" points="759.738,-87.3651 770,-90 763.621,-81.5408 759.738,-87.3651"/>
<text text-anchor="middle" x="733" y="-76.9" style="font-family:Times New Roman;font-size:14.00;">sfa</text>
</g>
</g>
</svg>
