<?xml version="1.0" encoding="UTF-8" standalone="no"?>
<!DOCTYPE svg PUBLIC "-//W3C//DTD SVG 1.0//EN"
 "http://www.w3.org/TR/2001/REC-SVG-20010904/DTD/svg10.dtd" [
 <!ATTLIST svg xmlns:xlink CDATA #FIXED "http://www.w3.org/1999/xlink">
]>
<!-- Generated by Graphviz version 2.20.2 (Tue Mar &#160;2 21:46:26 UTC 2010)
     For user: (mtmoor) Prof. Thomas Moor -->
<!-- Title: Project(Generator) Pages: 1 -->
<svg width="442pt" height="114pt"
 viewBox="0.00 0.00 442.00 114.00" xmlns="http://www.w3.org/2000/svg" xmlns:xlink="http://www.w3.org/1999/xlink">
<g id="graph0" class="graph" transform="scale(1 1) rotate(0) translate(4 110)">
<title>Project(Generator)</title>
<polygon style="fill:none;stroke:none;" points="-4,4 -4,-110 438,-110 438,4 -4,4"/>
<!-- dot_dummyinit_1 -->
<g id="node1" class="node"><title>dot_dummyinit_1</title>
</g>
<!-- 1 -->
<g id="node3" class="node"><title>1</title>
<ellipse style="fill:none;stroke:black;" cx="62" cy="-62" rx="18" ry="18"/>
<ellipse style="fill:none;stroke:black;" cx="62" cy="-62" rx="22" ry="22"/>
<text text-anchor="middle" x="62" y="-57.9" style="font-family:Times New Roman;font-size:14.00;">1</text>
</g>
<!-- dot_dummyinit_1&#45;&gt;1 -->
<g id="edge2" class="edge"><title>dot_dummyinit_1&#45;&gt;1</title>
<path style="fill:none;stroke:black;" d="M2,-62C5,-62 17,-62 30,-62"/>
<polygon style="fill:black;stroke:black;" points="30,-65.5001 40,-62 30,-58.5001 30,-65.5001"/>
</g>
<!-- 2 -->
<g id="node4" class="node"><title>2</title>
<ellipse style="fill:none;stroke:black;" cx="178" cy="-84" rx="18" ry="18"/>
<ellipse style="fill:none;stroke:black;" cx="178" cy="-84" rx="22" ry="22"/>
<text text-anchor="middle" x="178" y="-79.9" style="font-family:Times New Roman;font-size:14.00;">2</text>
</g>
<!-- 1&#45;&gt;2 -->
<g id="edge4" class="edge"><title>1&#45;&gt;2</title>
<path style="fill:none;stroke:black;" d="M82,-72C88,-75 95,-78 102,-80 116,-83 132,-84 146,-85"/>
<polygon style="fill:black;stroke:black;" points="146,-88.5001 156,-85 146,-81.5001 146,-88.5001"/>
<text text-anchor="middle" x="120" y="-86.9" style="font-family:Times New Roman;font-size:14.00;">sf&#45;c1</text>
</g>
<!-- 4 -->
<g id="node6" class="node"><title>4</title>
<ellipse style="fill:none;stroke:black;" cx="178" cy="-22" rx="18" ry="18"/>
<ellipse style="fill:none;stroke:black;" cx="178" cy="-22" rx="22" ry="22"/>
<text text-anchor="middle" x="178" y="-17.9" style="font-family:Times New Roman;font-size:14.00;">4</text>
</g>
<!-- 1&#45;&gt;4 -->
<g id="edge6" class="edge"><title>1&#45;&gt;4</title>
<path style="fill:none;stroke:black;" d="M77,-46C84,-40 93,-33 102,-30 116,-24 132,-23 146,-22"/>
<polygon style="fill:black;stroke:black;" points="146.398,-25.4778 156,-21 145.701,-18.5125 146.398,-25.4778"/>
<text text-anchor="middle" x="120" y="-33.9" style="font-family:Times New Roman;font-size:14.00;">block</text>
</g>
<!-- 2&#45;&gt;1 -->
<g id="edge8" class="edge"><title>2&#45;&gt;1</title>
<path style="fill:none;stroke:black;" d="M162,-69C155,-64 147,-58 138,-56 124,-51 107,-52 93,-54"/>
<polygon style="fill:black;stroke:black;" points="92.1194,-50.6067 83,-56 93.4922,-57.4708 92.1194,-50.6067"/>
<text text-anchor="middle" x="120" y="-59.9" style="font-family:Times New Roman;font-size:14.00;">pass</text>
</g>
<!-- 3 -->
<g id="node5" class="node"><title>3</title>
<ellipse style="fill:none;stroke:black;" cx="294" cy="-55" rx="18" ry="18"/>
<ellipse style="fill:none;stroke:black;" cx="294" cy="-55" rx="22" ry="22"/>
<text text-anchor="middle" x="294" y="-50.9" style="font-family:Times New Roman;font-size:14.00;">3</text>
</g>
<!-- 2&#45;&gt;3 -->
<g id="edge10" class="edge"><title>2&#45;&gt;3</title>
<path style="fill:none;stroke:black;" d="M200,-79C217,-74 243,-68 263,-63"/>
<polygon style="fill:black;stroke:black;" points="264.427,-66.2259 273,-60 262.416,-59.5212 264.427,-66.2259"/>
<text text-anchor="middle" x="236" y="-76.9" style="font-family:Times New Roman;font-size:14.00;">block</text>
</g>
<!-- 5 -->
<g id="node7" class="node"><title>5</title>
<ellipse style="fill:none;stroke:black;" cx="412" cy="-55" rx="18" ry="18"/>
<ellipse style="fill:none;stroke:black;" cx="412" cy="-55" rx="22" ry="22"/>
<text text-anchor="middle" x="412" y="-50.9" style="font-family:Times New Roman;font-size:14.00;">5</text>
</g>
<!-- 3&#45;&gt;5 -->
<g id="edge12" class="edge"><title>3&#45;&gt;5</title>
<path style="fill:none;stroke:black;" d="M316,-55C334,-55 360,-55 380,-55"/>
<polygon style="fill:black;stroke:black;" points="380,-58.5001 390,-55 380,-51.5001 380,-58.5001"/>
<text text-anchor="middle" x="353" y="-58.9" style="font-family:Times New Roman;font-size:14.00;">timer</text>
</g>
<!-- 4&#45;&gt;3 -->
<g id="edge14" class="edge"><title>4&#45;&gt;3</title>
<path style="fill:none;stroke:black;" d="M199,-28C217,-33 243,-40 263,-46"/>
<polygon style="fill:black;stroke:black;" points="262.416,-49.4788 273,-49 264.427,-42.7741 262.416,-49.4788"/>
<text text-anchor="middle" x="236" y="-45.9" style="font-family:Times New Roman;font-size:14.00;">sf&#45;c1</text>
</g>
</g>
</svg>
