<?xml version="1.0" encoding="UTF-8" standalone="no"?>
<!DOCTYPE svg PUBLIC "-//W3C//DTD SVG 1.0//EN"
 "http://www.w3.org/TR/2001/REC-SVG-20010904/DTD/svg10.dtd" [
 <!ATTLIST svg xmlns:xlink CDATA #FIXED "http://www.w3.org/1999/xlink">
]>
<!-- Generated by Graphviz version 2.20.2 (Tue Mar &#160;2 21:46:26 UTC 2010)
     For user: (mtmoor) Prof. Thomas Moor -->
<!-- Title: languagedifference_g2 Pages: 1 -->
<svg width="268pt" height="113pt"
 viewBox="0.00 0.00 268.00 113.00" xmlns="http://www.w3.org/2000/svg" xmlns:xlink="http://www.w3.org/1999/xlink">
<g id="graph0" class="graph" transform="scale(1 1) rotate(0) translate(4 109)">
<title>languagedifference_g2</title>
<polygon style="fill:none;stroke:none;" points="-4,4 -4,-109 264,-109 264,4 -4,4"/>
<!-- dot_dummyinit_1 -->
<g id="node1" class="node"><title>dot_dummyinit_1</title>
</g>
<!-- 1 -->
<g id="node3" class="node"><title>1</title>
<ellipse style="fill:none;stroke:black;" cx="62" cy="-32" rx="18" ry="18"/>
<ellipse style="fill:none;stroke:black;" cx="62" cy="-32" rx="22" ry="22"/>
<text text-anchor="middle" x="62" y="-27.9" style="font-family:Times New Roman;font-size:14.00;">1</text>
</g>
<!-- dot_dummyinit_1&#45;&gt;1 -->
<g id="edge2" class="edge"><title>dot_dummyinit_1&#45;&gt;1</title>
<path style="fill:none;stroke:black;" d="M2,-32C5,-32 17,-32 30,-32"/>
<polygon style="fill:black;stroke:black;" points="30,-35.5001 40,-32 30,-28.5001 30,-35.5001"/>
</g>
<!-- 2 -->
<g id="node4" class="node"><title>2</title>
<ellipse style="fill:none;stroke:black;" cx="150" cy="-67" rx="18" ry="18"/>
<ellipse style="fill:none;stroke:black;" cx="150" cy="-67" rx="22" ry="22"/>
<text text-anchor="middle" x="150" y="-62.9" style="font-family:Times New Roman;font-size:14.00;">2</text>
</g>
<!-- 1&#45;&gt;2 -->
<g id="edge4" class="edge"><title>1&#45;&gt;2</title>
<path style="fill:none;stroke:black;" d="M83,-40C94,-45 108,-50 120,-55"/>
<polygon style="fill:black;stroke:black;" points="118.44,-58.1369 129,-59 121.283,-51.7402 118.44,-58.1369"/>
<text text-anchor="middle" x="106" y="-52.9" style="font-family:Times New Roman;font-size:14.00;">a</text>
</g>
<!-- 4 -->
<g id="node5" class="node"><title>4</title>
<ellipse style="fill:none;stroke:black;" cx="238" cy="-83" rx="18" ry="18"/>
<ellipse style="fill:none;stroke:black;" cx="238" cy="-83" rx="22" ry="22"/>
<text text-anchor="middle" x="238" y="-78.9" style="font-family:Times New Roman;font-size:14.00;">4</text>
</g>
<!-- 2&#45;&gt;4 -->
<g id="edge8" class="edge"><title>2&#45;&gt;4</title>
<path style="fill:none;stroke:black;" d="M172,-71C183,-73 195,-76 206,-77"/>
<polygon style="fill:black;stroke:black;" points="205.508,-80.4708 216,-79 206.881,-73.6067 205.508,-80.4708"/>
<text text-anchor="middle" x="194" y="-78.9" style="font-family:Times New Roman;font-size:14.00;">e</text>
</g>
<!-- 3 -->
<g id="node6" class="node"><title>3</title>
<ellipse style="fill:none;stroke:black;" cx="238" cy="-18" rx="18" ry="18"/>
<text text-anchor="middle" x="238" y="-13.9" style="font-family:Times New Roman;font-size:14.00;">3</text>
</g>
<!-- 2&#45;&gt;3 -->
<g id="edge6" class="edge"><title>2&#45;&gt;3</title>
<path style="fill:none;stroke:black;" d="M170,-56C182,-49 199,-39 213,-32"/>
<polygon style="fill:black;stroke:black;" points="214.958,-34.916 222,-27 211.559,-28.7969 214.958,-34.916"/>
<text text-anchor="middle" x="194" y="-47.9" style="font-family:Times New Roman;font-size:14.00;">b</text>
</g>
<!-- 3&#45;&gt;1 -->
<g id="edge10" class="edge"><title>3&#45;&gt;1</title>
<path style="fill:none;stroke:black;" d="M220,-17C198,-16 160,-16 128,-19 117,-21 104,-23 94,-25"/>
<polygon style="fill:black;stroke:black;" points="93.1194,-21.6067 84,-27 94.4922,-28.4708 93.1194,-21.6067"/>
<text text-anchor="middle" x="150" y="-22.9" style="font-family:Times New Roman;font-size:14.00;">c</text>
</g>
</g>
</svg>
