<?xml version="1.0" encoding="UTF-8" standalone="no"?>
<!DOCTYPE svg PUBLIC "-//W3C//DTD SVG 1.0//EN"
 "http://www.w3.org/TR/2001/REC-SVG-20010904/DTD/svg10.dtd" [
 <!ATTLIST svg xmlns:xlink CDATA #FIXED "http://www.w3.org/1999/xlink">
]>
<!-- Generated by Graphviz version 2.20.2 (Tue Mar &#160;2 21:46:26 UTC 2010)
     For user: (mtmoor) Prof. Thomas Moor -->
<!-- Title: GAccessible Pages: 1 -->
<svg width="720pt" height="204pt"
 viewBox="0.00 0.00 720.00 204.46" xmlns="http://www.w3.org/2000/svg" xmlns:xlink="http://www.w3.org/1999/xlink">
<g id="graph0" class="graph" transform="scale(0.978261 0.978261) rotate(0) translate(4 205)">
<title>GAccessible</title>
<polygon style="fill:none;stroke:none;" points="-4,4 -4,-205 732,-205 732,4 -4,4"/>
<!-- dot_dummyinit_1 -->
<g id="node1" class="node"><title>dot_dummyinit_1</title>
</g>
<!-- s1 -->
<g id="node3" class="node"><title>s1</title>
<ellipse style="fill:none;stroke:black;" cx="62" cy="-72" rx="22.2362" ry="22.2362"/>
<text text-anchor="middle" x="62" y="-67.9" style="font-family:Times New Roman;font-size:14.00;">s1</text>
</g>
<!-- dot_dummyinit_1&#45;&gt;s1 -->
<g id="edge2" class="edge"><title>dot_dummyinit_1&#45;&gt;s1</title>
<path style="fill:none;stroke:black;" d="M2,-72C5,-72 17,-72 30,-72"/>
<polygon style="fill:black;stroke:black;" points="30,-75.5001 40,-72 30,-68.5001 30,-75.5001"/>
</g>
<!-- s2 -->
<g id="node4" class="node"><title>s2</title>
<ellipse style="fill:none;stroke:black;" cx="154" cy="-72" rx="22.2362" ry="22.2362"/>
<ellipse style="fill:none;stroke:black;" cx="154" cy="-72" rx="26.2362" ry="26.2362"/>
<text text-anchor="middle" x="154" y="-67.9" style="font-family:Times New Roman;font-size:14.00;">s2</text>
</g>
<!-- s1&#45;&gt;s2 -->
<g id="edge4" class="edge"><title>s1&#45;&gt;s2</title>
<path style="fill:none;stroke:black;" d="M84,-72C94,-72 106,-72 118,-72"/>
<polygon style="fill:black;stroke:black;" points="118,-75.5001 128,-72 118,-68.5001 118,-75.5001"/>
<text text-anchor="middle" x="106" y="-75.9" style="font-family:Times New Roman;font-size:14.00;">a</text>
</g>
<!-- s2&#45;&gt;s1 -->
<g id="edge8" class="edge"><title>s2&#45;&gt;s1</title>
<path style="fill:none;stroke:black;" d="M133,-57C123,-52 113,-49 102,-51 98,-52 94,-53 90,-55"/>
<polygon style="fill:black;stroke:black;" points="88.0418,-52.084 81,-60 91.4414,-58.2031 88.0418,-52.084"/>
<text text-anchor="middle" x="106" y="-55.9" style="font-family:Times New Roman;font-size:14.00;">b</text>
</g>
<!-- s3 -->
<g id="node6" class="node"><title>s3</title>
<ellipse style="fill:none;stroke:black;" cx="246" cy="-72" rx="22.2362" ry="22.2362"/>
<text text-anchor="middle" x="246" y="-67.9" style="font-family:Times New Roman;font-size:14.00;">s3</text>
</g>
<!-- s2&#45;&gt;s3 -->
<g id="edge6" class="edge"><title>s2&#45;&gt;s3</title>
<path style="fill:none;stroke:black;" d="M180,-72C191,-72 203,-72 214,-72"/>
<polygon style="fill:black;stroke:black;" points="214,-75.5001 224,-72 214,-68.5001 214,-75.5001"/>
<text text-anchor="middle" x="202" y="-75.9" style="font-family:Times New Roman;font-size:14.00;">a</text>
</g>
<!-- s9 -->
<g id="node5" class="node"><title>s9</title>
<ellipse style="fill:none;stroke:black;" cx="514" cy="-112" rx="22.2362" ry="22.2362"/>
<ellipse style="fill:none;stroke:black;" cx="514" cy="-112" rx="26.2362" ry="26.2362"/>
<text text-anchor="middle" x="514" y="-107.9" style="font-family:Times New Roman;font-size:14.00;">s9</text>
</g>
<!-- s10 -->
<g id="node12" class="node"><title>s10</title>
<ellipse style="fill:none;stroke:black;" cx="612" cy="-173" rx="27.9903" ry="27.9903"/>
<text text-anchor="middle" x="612" y="-168.9" style="font-family:Times New Roman;font-size:14.00;">s10</text>
</g>
<!-- s9&#45;&gt;s10 -->
<g id="edge26" class="edge"><title>s9&#45;&gt;s10</title>
<path style="fill:none;stroke:black;" d="M536,-126C549,-134 565,-144 579,-153"/>
<polygon style="fill:black;stroke:black;" points="577.559,-156.203 588,-158 580.958,-150.084 577.559,-156.203"/>
<text text-anchor="middle" x="562" y="-145.9" style="font-family:Times New Roman;font-size:14.00;">a</text>
</g>
<!-- s11 -->
<g id="node13" class="node"><title>s11</title>
<ellipse style="fill:none;stroke:black;" cx="612" cy="-99" rx="27.9903" ry="27.9903"/>
<text text-anchor="middle" x="612" y="-94.9" style="font-family:Times New Roman;font-size:14.00;">s11</text>
</g>
<!-- s9&#45;&gt;s11 -->
<g id="edge28" class="edge"><title>s9&#45;&gt;s11</title>
<path style="fill:none;stroke:black;" d="M540,-109C551,-107 563,-106 574,-104"/>
<polygon style="fill:black;stroke:black;" points="574.398,-107.478 584,-103 573.701,-100.512 574.398,-107.478"/>
<text text-anchor="middle" x="562" y="-108.9" style="font-family:Times New Roman;font-size:14.00;">b</text>
</g>
<!-- s4 -->
<g id="node7" class="node"><title>s4</title>
<ellipse style="fill:none;stroke:black;" cx="334" cy="-72" rx="22.2362" ry="22.2362"/>
<text text-anchor="middle" x="334" y="-67.9" style="font-family:Times New Roman;font-size:14.00;">s4</text>
</g>
<!-- s3&#45;&gt;s4 -->
<g id="edge10" class="edge"><title>s3&#45;&gt;s4</title>
<path style="fill:none;stroke:black;" d="M268,-72C278,-72 291,-72 302,-72"/>
<polygon style="fill:black;stroke:black;" points="302,-75.5001 312,-72 302,-68.5001 302,-75.5001"/>
<text text-anchor="middle" x="290" y="-75.9" style="font-family:Times New Roman;font-size:14.00;">c</text>
</g>
<!-- s4&#45;&gt;s3 -->
<g id="edge14" class="edge"><title>s4&#45;&gt;s3</title>
<path style="fill:none;stroke:black;" d="M316,-58C308,-53 297,-49 286,-51 282,-52 278,-53 274,-55"/>
<polygon style="fill:black;stroke:black;" points="272.042,-52.084 265,-60 275.441,-58.2031 272.042,-52.084"/>
<text text-anchor="middle" x="290" y="-55.9" style="font-family:Times New Roman;font-size:14.00;">d</text>
</g>
<!-- s5 -->
<g id="node8" class="node"><title>s5</title>
<ellipse style="fill:none;stroke:black;" cx="422" cy="-72" rx="22.2362" ry="22.2362"/>
<text text-anchor="middle" x="422" y="-67.9" style="font-family:Times New Roman;font-size:14.00;">s5</text>
</g>
<!-- s4&#45;&gt;s5 -->
<g id="edge12" class="edge"><title>s4&#45;&gt;s5</title>
<path style="fill:none;stroke:black;" d="M356,-72C366,-72 379,-72 390,-72"/>
<polygon style="fill:black;stroke:black;" points="390,-75.5001 400,-72 390,-68.5001 390,-75.5001"/>
<text text-anchor="middle" x="378" y="-75.9" style="font-family:Times New Roman;font-size:14.00;">b</text>
</g>
<!-- s5&#45;&gt;s9 -->
<g id="edge18" class="edge"><title>s5&#45;&gt;s9</title>
<path style="fill:none;stroke:black;" d="M442,-81C453,-86 468,-92 481,-98"/>
<polygon style="fill:black;stroke:black;" points="479.44,-101.137 490,-102 482.283,-94.7402 479.44,-101.137"/>
<text text-anchor="middle" x="466" y="-95.9" style="font-family:Times New Roman;font-size:14.00;">b</text>
</g>
<!-- s6 -->
<g id="node9" class="node"><title>s6</title>
<ellipse style="fill:none;stroke:black;" cx="514" cy="-46" rx="22.2362" ry="22.2362"/>
<text text-anchor="middle" x="514" y="-41.9" style="font-family:Times New Roman;font-size:14.00;">s6</text>
</g>
<!-- s5&#45;&gt;s6 -->
<g id="edge16" class="edge"><title>s5&#45;&gt;s6</title>
<path style="fill:none;stroke:black;" d="M443,-66C455,-63 470,-58 483,-55"/>
<polygon style="fill:black;stroke:black;" points="484.427,-58.2259 493,-52 482.416,-51.5212 484.427,-58.2259"/>
<text text-anchor="middle" x="466" y="-63.9" style="font-family:Times New Roman;font-size:14.00;">a</text>
</g>
<!-- s7 -->
<g id="node10" class="node"><title>s7</title>
<ellipse style="fill:none;stroke:black;" cx="612" cy="-22" rx="22.2362" ry="22.2362"/>
<text text-anchor="middle" x="612" y="-17.9" style="font-family:Times New Roman;font-size:14.00;">s7</text>
</g>
<!-- s6&#45;&gt;s7 -->
<g id="edge20" class="edge"><title>s6&#45;&gt;s7</title>
<path style="fill:none;stroke:black;" d="M536,-41C549,-38 566,-34 580,-30"/>
<polygon style="fill:black;stroke:black;" points="581.427,-33.2259 590,-27 579.416,-26.5212 581.427,-33.2259"/>
<text text-anchor="middle" x="562" y="-40.9" style="font-family:Times New Roman;font-size:14.00;">b</text>
</g>
<!-- s7&#45;&gt;s6 -->
<g id="edge22" class="edge"><title>s7&#45;&gt;s6</title>
<path style="fill:none;stroke:black;" d="M591,-14C581,-11 569,-10 558,-13 551,-16 545,-20 538,-24"/>
<polygon style="fill:black;stroke:black;" points="535.9,-21.2 530,-30 540.1,-26.8 535.9,-21.2"/>
<text text-anchor="middle" x="562" y="-20.9" style="font-family:Times New Roman;font-size:14.00;">a</text>
</g>
<!-- s8 -->
<g id="node11" class="node"><title>s8</title>
<ellipse style="fill:none;stroke:black;" cx="706" cy="-22" rx="22.2362" ry="22.2362"/>
<text text-anchor="middle" x="706" y="-17.9" style="font-family:Times New Roman;font-size:14.00;">s8</text>
</g>
<!-- s7&#45;&gt;s8 -->
<g id="edge24" class="edge"><title>s7&#45;&gt;s8</title>
<path style="fill:none;stroke:black;" d="M634,-22C646,-22 661,-22 674,-22"/>
<polygon style="fill:black;stroke:black;" points="674,-25.5001 684,-22 674,-18.5001 674,-25.5001"/>
<text text-anchor="middle" x="662" y="-26.9" style="font-family:Times New Roman;font-size:14.00;">a</text>
</g>
</g>
</svg>
