<?xml version="1.0" encoding="UTF-8" standalone="no"?>
<!DOCTYPE svg PUBLIC "-//W3C//DTD SVG 1.1//EN"
 "http://www.w3.org/Graphics/SVG/1.1/DTD/svg11.dtd">
<!-- Generated by graphviz version 12.2.1 (20241206.2353)
 -->
<!-- Title: Union(g1,g2) Pages: 1 -->
<svg width="344pt" height="287pt"
 viewBox="0.00 0.00 344.22 287.00" xmlns="http://www.w3.org/2000/svg" xmlns:xlink="http://www.w3.org/1999/xlink">
<g id="graph0" class="graph" transform="scale(1 1) rotate(0) translate(4 283)">
<title>Union(g1,g2)</title>
<!-- dot_dummyinit_1 -->
<g id="node1" class="node">
<title>dot_dummyinit_1</title>
</g>
<!-- 1 -->
<g id="node2" class="node">
<title>1</title>
<ellipse fill="none" stroke="black" cx="59.72" cy="-149" rx="18" ry="18"/>
<ellipse fill="none" stroke="black" cx="59.72" cy="-149" rx="22" ry="22"/>
<text text-anchor="middle" x="59.72" y="-143.57" font-family="Arial" font-size="14.00">1</text>
</g>
<!-- dot_dummyinit_1&#45;&gt;1 -->
<g id="edge1" class="edge">
<title>dot_dummyinit_1&#45;&gt;1</title>
<path fill="none" stroke="black" d="M0.89,-149C2.38,-149 13.74,-149 26,-149"/>
<polygon fill="black" stroke="black" points="25.74,-152.5 35.74,-149 25.74,-145.5 25.74,-152.5"/>
</g>
<!-- 2 -->
<g id="node3" class="node">
<title>2</title>
<ellipse fill="none" stroke="black" cx="147.22" cy="-194" rx="18" ry="18"/>
<ellipse fill="none" stroke="black" cx="147.22" cy="-194" rx="22" ry="22"/>
<text text-anchor="middle" x="147.22" y="-188.57" font-family="Arial" font-size="14.00">2</text>
</g>
<!-- 1&#45;&gt;2 -->
<g id="edge2" class="edge">
<title>1&#45;&gt;2</title>
<path fill="none" stroke="black" d="M79.7,-158.99C90.76,-164.81 104.95,-172.28 117.38,-178.82"/>
<polygon fill="black" stroke="black" points="115.48,-181.78 125.96,-183.34 118.74,-175.58 115.48,-181.78"/>
<text text-anchor="middle" x="103.47" y="-175.3" font-family="Arial" font-size="14.00">a</text>
</g>
<!-- 3 -->
<g id="node6" class="node">
<title>3</title>
<ellipse fill="none" stroke="black" cx="147.22" cy="-106" rx="18" ry="18"/>
<text text-anchor="middle" x="147.22" y="-100.58" font-family="Arial" font-size="14.00">3</text>
</g>
<!-- 1&#45;&gt;3 -->
<g id="edge3" class="edge">
<title>1&#45;&gt;3</title>
<path fill="none" stroke="black" d="M79.7,-139.46C91.69,-133.43 107.34,-125.55 120.45,-118.96"/>
<polygon fill="black" stroke="black" points="122.01,-122.09 129.37,-114.47 118.87,-115.84 122.01,-122.09"/>
<text text-anchor="middle" x="103.47" y="-131.24" font-family="Arial" font-size="14.00">c</text>
</g>
<!-- 4 -->
<g id="node7" class="node">
<title>4</title>
<ellipse fill="none" stroke="black" cx="230.72" cy="-248" rx="18" ry="18"/>
<text text-anchor="middle" x="230.72" y="-242.57" font-family="Arial" font-size="14.00">4</text>
</g>
<!-- 2&#45;&gt;4 -->
<g id="edge4" class="edge">
<title>2&#45;&gt;4</title>
<path fill="none" stroke="black" d="M165.9,-205.72C177.5,-213.4 192.82,-223.55 205.54,-231.98"/>
<polygon fill="black" stroke="black" points="203.53,-234.85 213.8,-237.45 207.4,-229.01 203.53,-234.85"/>
<text text-anchor="middle" x="190.97" y="-226.68" font-family="Arial" font-size="14.00">a</text>
</g>
<!-- 5 -->
<g id="node8" class="node">
<title>5</title>
<ellipse fill="none" stroke="black" cx="230.72" cy="-194" rx="18" ry="18"/>
<text text-anchor="middle" x="230.72" y="-188.57" font-family="Arial" font-size="14.00">5</text>
</g>
<!-- 2&#45;&gt;5 -->
<g id="edge5" class="edge">
<title>2&#45;&gt;5</title>
<path fill="none" stroke="black" d="M169.63,-194C179.19,-194 190.6,-194 200.89,-194"/>
<polygon fill="black" stroke="black" points="200.78,-197.5 210.78,-194 200.78,-190.5 200.78,-197.5"/>
<text text-anchor="middle" x="190.97" y="-196.45" font-family="Arial" font-size="14.00">b</text>
</g>
<!-- 8 -->
<g id="node4" class="node">
<title>8</title>
<ellipse fill="none" stroke="black" cx="314.22" cy="-257" rx="18" ry="18"/>
<ellipse fill="none" stroke="black" cx="314.22" cy="-257" rx="22" ry="22"/>
<text text-anchor="middle" x="314.22" y="-251.57" font-family="Arial" font-size="14.00">8</text>
</g>
<!-- 8&#45;&gt;4 -->
<g id="edge12" class="edge">
<title>8&#45;&gt;4</title>
<path fill="none" stroke="black" d="M294.23,-247.63C288.01,-245.03 280.96,-242.56 274.22,-241.25 269.43,-240.32 264.33,-240.3 259.37,-240.79"/>
<polygon fill="black" stroke="black" points="259.08,-237.29 249.81,-242.42 260.25,-244.19 259.08,-237.29"/>
<text text-anchor="middle" x="270.47" y="-243.7" font-family="Arial" font-size="14.00">a</text>
</g>
<!-- 9 -->
<g id="node5" class="node">
<title>9</title>
<ellipse fill="none" stroke="black" cx="314.22" cy="-184" rx="18" ry="18"/>
<ellipse fill="none" stroke="black" cx="314.22" cy="-184" rx="22" ry="22"/>
<text text-anchor="middle" x="314.22" y="-178.57" font-family="Arial" font-size="14.00">9</text>
</g>
<!-- 9&#45;&gt;5 -->
<g id="edge13" class="edge">
<title>9&#45;&gt;5</title>
<path fill="none" stroke="black" d="M295.11,-172.92C286.51,-169.02 276.08,-166.27 266.72,-169.25 262.3,-170.66 257.95,-172.84 253.91,-175.35"/>
<polygon fill="black" stroke="black" points="251.96,-172.44 245.85,-181.1 256.02,-178.14 251.96,-172.44"/>
<text text-anchor="middle" x="270.47" y="-171.7" font-family="Arial" font-size="14.00">b</text>
</g>
<!-- 6 -->
<g id="node9" class="node">
<title>6</title>
<ellipse fill="none" stroke="black" cx="230.72" cy="-106" rx="18" ry="18"/>
<text text-anchor="middle" x="230.72" y="-100.58" font-family="Arial" font-size="14.00">6</text>
</g>
<!-- 3&#45;&gt;6 -->
<g id="edge6" class="edge">
<title>3&#45;&gt;6</title>
<path fill="none" stroke="black" d="M165.5,-106C175.88,-106 189.33,-106 201.24,-106"/>
<polygon fill="black" stroke="black" points="200.95,-109.5 210.95,-106 200.95,-102.5 200.95,-109.5"/>
<text text-anchor="middle" x="190.97" y="-108.45" font-family="Arial" font-size="14.00">d</text>
</g>
<!-- 7 -->
<g id="node10" class="node">
<title>7</title>
<ellipse fill="none" stroke="black" cx="230.72" cy="-18" rx="18" ry="18"/>
<text text-anchor="middle" x="230.72" y="-12.57" font-family="Arial" font-size="14.00">7</text>
</g>
<!-- 3&#45;&gt;7 -->
<g id="edge7" class="edge">
<title>3&#45;&gt;7</title>
<path fill="none" stroke="black" d="M160.25,-93.02C173.37,-78.85 194.57,-55.95 210.11,-39.17"/>
<polygon fill="black" stroke="black" points="212.39,-41.86 216.62,-32.15 207.25,-37.11 212.39,-41.86"/>
<text text-anchor="middle" x="190.97" y="-64.45" font-family="Arial" font-size="14.00">e</text>
</g>
<!-- 4&#45;&gt;8 -->
<g id="edge8" class="edge">
<title>4&#45;&gt;8</title>
<path fill="none" stroke="black" d="M247.41,-255.18C253.33,-257.53 260.21,-259.83 266.72,-261 271.26,-261.82 276.07,-262.07 280.82,-261.97"/>
<polygon fill="black" stroke="black" points="281.05,-265.47 290.77,-261.24 280.54,-258.49 281.05,-265.47"/>
<text text-anchor="middle" x="270.47" y="-264.23" font-family="Arial" font-size="14.00">b</text>
</g>
<!-- 5&#45;&gt;9 -->
<g id="edge9" class="edge">
<title>5&#45;&gt;9</title>
<path fill="none" stroke="black" d="M249,-191.88C258.2,-190.75 269.82,-189.33 280.63,-188"/>
<polygon fill="black" stroke="black" points="280.9,-191.49 290.4,-186.8 280.05,-184.54 280.9,-191.49"/>
<text text-anchor="middle" x="270.47" y="-192.05" font-family="Arial" font-size="14.00">a</text>
</g>
<!-- 6&#45;&gt;6 -->
<g id="edge10" class="edge">
<title>6&#45;&gt;6</title>
<path fill="none" stroke="black" d="M223.68,-123.04C222.24,-132.86 224.59,-142 230.72,-142 234.27,-142 236.55,-138.94 237.56,-134.47"/>
<polygon fill="black" stroke="black" points="241.06,-134.61 237.74,-124.55 234.06,-134.49 241.06,-134.61"/>
<text text-anchor="middle" x="230.72" y="-144.45" font-family="Arial" font-size="14.00">d</text>
</g>
<!-- 7&#45;&gt;7 -->
<g id="edge11" class="edge">
<title>7&#45;&gt;7</title>
<path fill="none" stroke="black" d="M223.68,-35.04C222.24,-44.86 224.59,-54 230.72,-54 234.27,-54 236.55,-50.94 237.56,-46.47"/>
<polygon fill="black" stroke="black" points="241.06,-46.61 237.74,-36.55 234.06,-46.49 241.06,-46.61"/>
<text text-anchor="middle" x="230.72" y="-56.45" font-family="Arial" font-size="14.00">e</text>
</g>
</g>
</svg>
