<?xml version="1.0" encoding="UTF-8" standalone="no"?>
<!DOCTYPE svg PUBLIC "-//W3C//DTD SVG 1.1//EN"
 "http://www.w3.org/Graphics/SVG/1.1/DTD/svg11.dtd">
<!-- Generated by graphviz version 12.2.1 (20241206.2353)
 -->
<!-- Title: g Pages: 1 -->
<svg width="328pt" height="177pt"
 viewBox="0.00 0.00 328.22 177.00" xmlns="http://www.w3.org/2000/svg" xmlns:xlink="http://www.w3.org/1999/xlink">
<g id="graph0" class="graph" transform="scale(1 1) rotate(0) translate(4 173)">
<title>g</title>
<!-- dot_dummyinit_1 -->
<g id="node1" class="node">
<title>dot_dummyinit_1</title>
</g>
<!-- 1 -->
<g id="node2" class="node">
<title>1</title>
<ellipse fill="none" stroke="black" cx="55.72" cy="-88" rx="18" ry="18"/>
<text text-anchor="middle" x="55.72" y="-82.58" font-family="Arial" font-size="14.00">1</text>
</g>
<!-- dot_dummyinit_1&#45;&gt;1 -->
<g id="edge1" class="edge">
<title>dot_dummyinit_1&#45;&gt;1</title>
<path fill="none" stroke="black" d="M0.87,-88C2.34,-88 13.93,-88 25.99,-88"/>
<polygon fill="black" stroke="black" points="25.86,-91.5 35.86,-88 25.86,-84.5 25.86,-91.5"/>
</g>
<!-- 2 -->
<g id="node4" class="node">
<title>2</title>
<ellipse fill="none" stroke="black" cx="135.22" cy="-88" rx="18" ry="18"/>
<text text-anchor="middle" x="135.22" y="-82.58" font-family="Arial" font-size="14.00">2</text>
</g>
<!-- 1&#45;&gt;2 -->
<g id="edge2" class="edge">
<title>1&#45;&gt;2</title>
<path fill="none" stroke="black" d="M73.92,-88C83.19,-88 94.86,-88 105.47,-88"/>
<polygon fill="black" stroke="black" points="105.29,-91.5 115.29,-88 105.29,-84.5 105.29,-91.5"/>
<text text-anchor="middle" x="95.47" y="-90.45" font-family="Arial" font-size="14.00">a</text>
</g>
<!-- 3 -->
<g id="node3" class="node">
<title>3</title>
<ellipse fill="none" stroke="black" cx="218.72" cy="-147" rx="18" ry="18"/>
<ellipse fill="none" stroke="black" cx="218.72" cy="-147" rx="22" ry="22"/>
<text text-anchor="middle" x="218.72" y="-141.57" font-family="Arial" font-size="14.00">3</text>
</g>
<!-- 2&#45;&gt;3 -->
<g id="edge3" class="edge">
<title>2&#45;&gt;3</title>
<path fill="none" stroke="black" d="M150.42,-98.28C161.68,-106.43 177.74,-118.06 191.35,-127.91"/>
<polygon fill="black" stroke="black" points="188.91,-130.46 199.06,-133.49 193.01,-124.79 188.91,-130.46"/>
<text text-anchor="middle" x="174.97" y="-119.95" font-family="Arial" font-size="14.00">b</text>
</g>
<!-- 4 -->
<g id="node5" class="node">
<title>4</title>
<ellipse fill="none" stroke="black" cx="218.72" cy="-87" rx="18" ry="18"/>
<text text-anchor="middle" x="218.72" y="-81.58" font-family="Arial" font-size="14.00">4</text>
</g>
<!-- 2&#45;&gt;4 -->
<g id="edge5" class="edge">
<title>2&#45;&gt;4</title>
<path fill="none" stroke="black" d="M153.5,-87.79C163.88,-87.66 177.33,-87.5 189.24,-87.35"/>
<polygon fill="black" stroke="black" points="188.99,-90.85 198.95,-87.23 188.91,-83.85 188.99,-90.85"/>
<text text-anchor="middle" x="174.97" y="-90.01" font-family="Arial" font-size="14.00">c</text>
</g>
<!-- 6 -->
<g id="node7" class="node">
<title>6</title>
<ellipse fill="none" stroke="black" cx="218.72" cy="-30" rx="18" ry="18"/>
<text text-anchor="middle" x="218.72" y="-24.57" font-family="Arial" font-size="14.00">6</text>
</g>
<!-- 2&#45;&gt;6 -->
<g id="edge4" class="edge">
<title>2&#45;&gt;6</title>
<path fill="none" stroke="black" d="M146.08,-73.14C152.4,-64.58 161.27,-54.18 171.22,-47.25 176.92,-43.28 183.65,-40.1 190.2,-37.6"/>
<polygon fill="black" stroke="black" points="191.02,-41.02 199.38,-34.51 188.78,-34.38 191.02,-41.02"/>
<text text-anchor="middle" x="174.97" y="-49.7" font-family="Arial" font-size="14.00">d</text>
</g>
<!-- 4&#45;&gt;2 -->
<g id="edge7" class="edge">
<title>4&#45;&gt;2</title>
<path fill="none" stroke="black" d="M203.79,-76.26C194.71,-70.56 182.5,-65.29 171.22,-68.25 167.58,-69.21 163.91,-70.64 160.4,-72.3"/>
<polygon fill="black" stroke="black" points="158.89,-69.14 151.81,-77.02 162.26,-75.28 158.89,-69.14"/>
<text text-anchor="middle" x="174.97" y="-70.7" font-family="Arial" font-size="14.00">b</text>
</g>
<!-- 5 -->
<g id="node6" class="node">
<title>5</title>
<ellipse fill="none" stroke="black" cx="302.22" cy="-87" rx="18" ry="18"/>
<text text-anchor="middle" x="302.22" y="-81.58" font-family="Arial" font-size="14.00">5</text>
</g>
<!-- 4&#45;&gt;5 -->
<g id="edge6" class="edge">
<title>4&#45;&gt;5</title>
<path fill="none" stroke="black" d="M237,-87C247.38,-87 260.83,-87 272.74,-87"/>
<polygon fill="black" stroke="black" points="272.45,-90.5 282.45,-87 272.45,-83.5 272.45,-90.5"/>
<text text-anchor="middle" x="262.47" y="-89.45" font-family="Arial" font-size="14.00">a</text>
</g>
<!-- 7 -->
<g id="node8" class="node">
<title>7</title>
<ellipse fill="none" stroke="black" cx="302.22" cy="-18" rx="18" ry="18"/>
<text text-anchor="middle" x="302.22" y="-12.57" font-family="Arial" font-size="14.00">7</text>
</g>
<!-- 6&#45;&gt;7 -->
<g id="edge8" class="edge">
<title>6&#45;&gt;7</title>
<path fill="none" stroke="black" d="M237,-27.46C247.38,-25.93 260.83,-23.95 272.74,-22.19"/>
<polygon fill="black" stroke="black" points="273.08,-25.68 282.46,-20.76 272.06,-18.76 273.08,-25.68"/>
<text text-anchor="middle" x="262.47" y="-26.45" font-family="Arial" font-size="14.00">a</text>
</g>
<!-- 7&#45;&gt;6 -->
<g id="edge9" class="edge">
<title>7&#45;&gt;6</title>
<path fill="none" stroke="black" d="M286.74,-8.2C278.56,-3.86 268.12,-0.34 258.72,-3.25 252.89,-5.06 247.16,-8.07 241.96,-11.44"/>
<polygon fill="black" stroke="black" points="240,-8.53 233.95,-17.24 244.1,-14.2 240,-8.53"/>
<text text-anchor="middle" x="262.47" y="-5.7" font-family="Arial" font-size="14.00">b</text>
</g>
</g>
</svg>
