<?xml version="1.0" encoding="UTF-8" standalone="no"?>
<!DOCTYPE svg PUBLIC "-//W3C//DTD SVG 1.0//EN"
 "http://www.w3.org/TR/2001/REC-SVG-20010904/DTD/svg10.dtd" [
 <!ATTLIST svg xmlns:xlink CDATA #FIXED "http://www.w3.org/1999/xlink">
]>
<!-- Generated by Graphviz version 2.20.2 (Tue Mar &#160;2 21:46:26 UTC 2010)
     For user: (mtmoor) Prof. Thomas Moor -->
<!-- Title: g Pages: 1 -->
<svg width="340pt" height="114pt"
 viewBox="0.00 0.00 340.00 114.00" xmlns="http://www.w3.org/2000/svg" xmlns:xlink="http://www.w3.org/1999/xlink">
<g id="graph0" class="graph" transform="scale(1 1) rotate(0) translate(4 110)">
<title>g</title>
<polygon style="fill:none;stroke:none;" points="-4,4 -4,-110 336,-110 336,4 -4,4"/>
<!-- dot_dummyinit_1 -->
<g id="node1" class="node"><title>dot_dummyinit_1</title>
</g>
<!-- 1 -->
<g id="node3" class="node"><title>1</title>
<ellipse style="fill:none;stroke:black;" cx="58" cy="-58" rx="18" ry="18"/>
<text text-anchor="middle" x="58" y="-53.9" style="font-family:Times New Roman;font-size:14.00;">1</text>
</g>
<!-- dot_dummyinit_1&#45;&gt;1 -->
<g id="edge2" class="edge"><title>dot_dummyinit_1&#45;&gt;1</title>
<path style="fill:none;stroke:black;" d="M2,-58C6,-58 18,-58 30,-58"/>
<polygon style="fill:black;stroke:black;" points="30,-61.5001 40,-58 30,-54.5001 30,-61.5001"/>
</g>
<!-- 2 -->
<g id="node7" class="node"><title>2</title>
<ellipse style="fill:none;stroke:black;" cx="138" cy="-58" rx="18" ry="18"/>
<text text-anchor="middle" x="138" y="-53.9" style="font-family:Times New Roman;font-size:14.00;">2</text>
</g>
<!-- 1&#45;&gt;2 -->
<g id="edge4" class="edge"><title>1&#45;&gt;2</title>
<path style="fill:none;stroke:black;" d="M76,-58C86,-58 99,-58 110,-58"/>
<polygon style="fill:black;stroke:black;" points="110,-61.5001 120,-58 110,-54.5001 110,-61.5001"/>
<text text-anchor="middle" x="98" y="-61.9" style="font-family:Times New Roman;font-size:14.00;">a</text>
</g>
<!-- 3 -->
<g id="node4" class="node"><title>3</title>
<ellipse style="fill:none;stroke:black;" cx="222" cy="-84" rx="18" ry="18"/>
<ellipse style="fill:none;stroke:black;" cx="222" cy="-84" rx="22" ry="22"/>
<text text-anchor="middle" x="222" y="-79.9" style="font-family:Times New Roman;font-size:14.00;">3</text>
</g>
<!-- 4 -->
<g id="node5" class="node"><title>4</title>
<ellipse style="fill:none;stroke:black;" cx="222" cy="-22" rx="18" ry="18"/>
<ellipse style="fill:none;stroke:black;" cx="222" cy="-22" rx="22" ry="22"/>
<text text-anchor="middle" x="222" y="-17.9" style="font-family:Times New Roman;font-size:14.00;">4</text>
</g>
<!-- 5 -->
<g id="node6" class="node"><title>5</title>
<ellipse style="fill:none;stroke:black;" cx="310" cy="-22" rx="18" ry="18"/>
<ellipse style="fill:none;stroke:black;" cx="310" cy="-22" rx="22" ry="22"/>
<text text-anchor="middle" x="310" y="-17.9" style="font-family:Times New Roman;font-size:14.00;">5</text>
</g>
<!-- 4&#45;&gt;5 -->
<g id="edge10" class="edge"><title>4&#45;&gt;5</title>
<path style="fill:none;stroke:black;" d="M244,-22C254,-22 267,-22 278,-22"/>
<polygon style="fill:black;stroke:black;" points="278,-25.5001 288,-22 278,-18.5001 278,-25.5001"/>
<text text-anchor="middle" x="266" y="-25.9" style="font-family:Times New Roman;font-size:14.00;">d</text>
</g>
<!-- 2&#45;&gt;3 -->
<g id="edge6" class="edge"><title>2&#45;&gt;3</title>
<path style="fill:none;stroke:black;" d="M155,-63C165,-66 179,-70 191,-74"/>
<polygon style="fill:black;stroke:black;" points="190.416,-77.4788 201,-77 192.427,-70.7741 190.416,-77.4788"/>
<text text-anchor="middle" x="178" y="-73.9" style="font-family:Times New Roman;font-size:14.00;">b</text>
</g>
<!-- 2&#45;&gt;4 -->
<g id="edge8" class="edge"><title>2&#45;&gt;4</title>
<path style="fill:none;stroke:black;" d="M155,-51C165,-46 180,-40 192,-35"/>
<polygon style="fill:black;stroke:black;" points="194.015,-37.9636 202,-31 191.415,-31.4643 194.015,-37.9636"/>
<text text-anchor="middle" x="178" y="-45.9" style="font-family:Times New Roman;font-size:14.00;">c</text>
</g>
</g>
</svg>
