<?xml version="1.0" encoding="UTF-8" standalone="no"?>
<!DOCTYPE svg PUBLIC "-//W3C//DTD SVG 1.1//EN"
 "http://www.w3.org/Graphics/SVG/1.1/DTD/svg11.dtd">
<!-- Generated by graphviz version 12.2.1 (20241206.2353)
 -->
<!-- Title: g6 Pages: 1 -->
<svg width="197pt" height="47pt"
 viewBox="0.00 0.00 197.22 46.77" xmlns="http://www.w3.org/2000/svg" xmlns:xlink="http://www.w3.org/1999/xlink">
<g id="graph0" class="graph" transform="scale(1 1) rotate(0) translate(4 42.77)">
<title>g6</title>
<!-- dot_dummyinit_1 -->
<g id="node1" class="node">
<title>dot_dummyinit_1</title>
</g>
<!-- 1 -->
<g id="node2" class="node">
<title>1</title>
<path fill="none" stroke="black" d="M79.72,-38.77C79.72,-38.77 49.72,-38.77 49.72,-38.77 43.72,-38.77 37.72,-32.77 37.72,-26.77 37.72,-26.77 37.72,-14.77 37.72,-14.77 37.72,-8.77 43.72,-2.77 49.72,-2.77 49.72,-2.77 79.72,-2.77 79.72,-2.77 85.72,-2.77 91.72,-8.77 91.72,-14.77 91.72,-14.77 91.72,-26.77 91.72,-26.77 91.72,-32.77 85.72,-38.77 79.72,-38.77"/>
<text text-anchor="middle" x="64.72" y="-15.34" font-family="Arial" font-size="14.00">1</text>
</g>
<!-- dot_dummyinit_1&#45;&gt;1 -->
<g id="edge1" class="edge">
<title>dot_dummyinit_1&#45;&gt;1</title>
<path fill="none" stroke="black" d="M0.77,-20.77C1.57,-20.77 12.96,-20.77 25.83,-20.77"/>
<polygon fill="black" stroke="black" points="25.79,-24.27 35.79,-20.77 25.79,-17.27 25.79,-24.27"/>
</g>
<!-- 2 -->
<g id="node3" class="node">
<title>2</title>
<path fill="none" stroke="black" d="M177.22,-38.77C177.22,-38.77 147.22,-38.77 147.22,-38.77 141.22,-38.77 135.22,-32.77 135.22,-26.77 135.22,-26.77 135.22,-14.77 135.22,-14.77 135.22,-8.77 141.22,-2.77 147.22,-2.77 147.22,-2.77 177.22,-2.77 177.22,-2.77 183.22,-2.77 189.22,-8.77 189.22,-14.77 189.22,-14.77 189.22,-26.77 189.22,-26.77 189.22,-32.77 183.22,-38.77 177.22,-38.77"/>
<text text-anchor="start" x="150.47" y="-15.34" font-family="Arial" font-size="14.00">2</text>
<polygon fill="black" stroke="none" points="167.97,-10.89 167.97,-30.64 175.97,-30.64 175.97,-10.89 167.97,-10.89"/>
</g>
<!-- 1&#45;&gt;2 -->
<g id="edge2" class="edge">
<title>1&#45;&gt;2</title>
<path fill="none" stroke="black" d="M92.07,-20.77C101.78,-20.77 112.97,-20.77 123.49,-20.77"/>
<polygon fill="black" stroke="black" points="123.44,-24.27 133.44,-20.77 123.44,-17.27 123.44,-24.27"/>
<text text-anchor="middle" x="113.47" y="-23.22" font-family="Arial" font-size="14.00">b</text>
</g>
<!-- 2&#45;&gt;1 -->
<g id="edge3" class="edge">
<title>2&#45;&gt;1</title>
<path fill="none" stroke="black" d="M134.84,-6.78C129.17,-4.39 123.12,-2.28 117.22,-1.02 112.48,0 107.6,-0.16 102.82,-1.07"/>
<polygon fill="black" stroke="black" points="101.98,2.33 93.42,-3.91 104,-4.37 101.98,2.33"/>
<text text-anchor="middle" x="113.47" y="-3.47" font-family="Arial" font-size="14.00">c</text>
</g>
</g>
</svg>
