<?xml version="1.0" encoding="UTF-8" standalone="no"?>
<!DOCTYPE svg PUBLIC "-//W3C//DTD SVG 1.1//EN"
 "http://www.w3.org/Graphics/SVG/1.1/DTD/svg11.dtd">
<!-- Generated by graphviz version 12.2.1 (20241206.2353)
 -->
<!-- Title: g Pages: 1 -->
<svg width="333pt" height="284pt"
 viewBox="0.00 0.00 332.72 284.00" xmlns="http://www.w3.org/2000/svg" xmlns:xlink="http://www.w3.org/1999/xlink">
<g id="graph0" class="graph" transform="scale(1 1) rotate(0) translate(4 280)">
<title>g</title>
<!-- dot_dummyinit_1 -->
<g id="node1" class="node">
<title>dot_dummyinit_1</title>
</g>
<!-- 1 -->
<g id="node2" class="node">
<title>1</title>
<ellipse fill="none" stroke="black" cx="55.72" cy="-197" rx="18" ry="18"/>
<text text-anchor="middle" x="55.72" y="-191.57" font-family="Arial" font-size="14.00">1</text>
</g>
<!-- dot_dummyinit_1&#45;&gt;1 -->
<g id="edge1" class="edge">
<title>dot_dummyinit_1&#45;&gt;1</title>
<path fill="none" stroke="black" d="M0.87,-197C2.34,-197 13.93,-197 25.99,-197"/>
<polygon fill="black" stroke="black" points="25.86,-200.5 35.86,-197 25.86,-193.5 25.86,-200.5"/>
</g>
<!-- 2 -->
<g id="node4" class="node">
<title>2</title>
<ellipse fill="none" stroke="black" cx="135.22" cy="-197" rx="18" ry="18"/>
<text text-anchor="middle" x="135.22" y="-191.57" font-family="Arial" font-size="14.00">2</text>
</g>
<!-- 1&#45;&gt;2 -->
<g id="edge2" class="edge">
<title>1&#45;&gt;2</title>
<path fill="none" stroke="black" d="M73.92,-197C83.19,-197 94.86,-197 105.47,-197"/>
<polygon fill="black" stroke="black" points="105.29,-200.5 115.29,-197 105.29,-193.5 105.29,-200.5"/>
<text text-anchor="middle" x="95.47" y="-199.45" font-family="Arial" font-size="14.00">a</text>
</g>
<!-- 5 -->
<g id="node6" class="node">
<title>5</title>
<ellipse fill="none" stroke="black" cx="219.22" cy="-255" rx="18" ry="18"/>
<text text-anchor="middle" x="219.22" y="-249.57" font-family="Arial" font-size="14.00">5</text>
</g>
<!-- 1&#45;&gt;5 -->
<g id="edge3" class="edge">
<title>1&#45;&gt;5</title>
<path fill="none" stroke="black" d="M71.43,-206.1C77.58,-209.72 84.88,-213.78 91.72,-217 125.89,-233.09 134.77,-237.12 171.22,-247 177.16,-248.61 183.61,-249.96 189.78,-251.06"/>
<polygon fill="black" stroke="black" points="189.16,-254.51 199.59,-252.65 190.27,-247.6 189.16,-254.51"/>
<text text-anchor="middle" x="135.22" y="-244.36" font-family="Arial" font-size="14.00">e</text>
</g>
<!-- 4 -->
<g id="node3" class="node">
<title>4</title>
<ellipse fill="none" stroke="black" cx="302.72" cy="-111" rx="18" ry="18"/>
<ellipse fill="none" stroke="black" cx="302.72" cy="-111" rx="22" ry="22"/>
<text text-anchor="middle" x="302.72" y="-105.58" font-family="Arial" font-size="14.00">4</text>
</g>
<!-- 4&#45;&gt;1 -->
<g id="edge8" class="edge">
<title>4&#45;&gt;1</title>
<path fill="none" stroke="black" d="M280.31,-112.63C245.93,-115.33 181.25,-120.77 171.22,-124.25 136.13,-136.41 100.83,-161.19 78.89,-178.43"/>
<polygon fill="black" stroke="black" points="76.85,-175.58 71.25,-184.57 81.24,-181.03 76.85,-175.58"/>
<text text-anchor="middle" x="177.22" y="-126.7" font-family="Arial" font-size="14.00">e</text>
</g>
<!-- 2&#45;&gt;4 -->
<g id="edge6" class="edge">
<title>2&#45;&gt;4</title>
<path fill="none" stroke="black" d="M152.48,-191.4C177.25,-182.53 225.47,-163.88 262.72,-141 267.18,-138.26 271.74,-135.11 276.1,-131.91"/>
<polygon fill="black" stroke="black" points="278.18,-134.73 283.99,-125.87 273.92,-129.17 278.18,-134.73"/>
<text text-anchor="middle" x="219.22" y="-173.91" font-family="Arial" font-size="14.00">c</text>
</g>
<!-- 3 -->
<g id="node5" class="node">
<title>3</title>
<ellipse fill="none" stroke="black" cx="219.22" cy="-81" rx="18" ry="18"/>
<text text-anchor="middle" x="219.22" y="-75.58" font-family="Arial" font-size="14.00">3</text>
</g>
<!-- 2&#45;&gt;3 -->
<g id="edge5" class="edge">
<title>2&#45;&gt;3</title>
<path fill="none" stroke="black" d="M148.64,-184.59C158.63,-174.25 172.7,-158.85 183.22,-144 191.41,-132.43 199.21,-118.76 205.36,-107.12"/>
<polygon fill="black" stroke="black" points="208.35,-108.95 209.81,-98.45 202.13,-105.75 208.35,-108.95"/>
<text text-anchor="middle" x="177.22" y="-161.83" font-family="Arial" font-size="14.00">b</text>
</g>
<!-- 2&#45;&gt;5 -->
<g id="edge4" class="edge">
<title>2&#45;&gt;5</title>
<path fill="none" stroke="black" d="M150.5,-207.1C162.66,-215.7 180.36,-228.22 194.62,-238.3"/>
<polygon fill="black" stroke="black" points="192.4,-241.03 202.59,-243.94 196.45,-235.31 192.4,-241.03"/>
<text text-anchor="middle" x="177.22" y="-231.92" font-family="Arial" font-size="14.00">f</text>
</g>
<!-- 3&#45;&gt;4 -->
<g id="edge7" class="edge">
<title>3&#45;&gt;4</title>
<path fill="none" stroke="black" d="M236.32,-86.93C246.17,-90.55 259.08,-95.31 270.83,-99.63"/>
<polygon fill="black" stroke="black" points="269.59,-102.9 280.19,-103.07 272.01,-96.33 269.59,-102.9"/>
<text text-anchor="middle" x="258.97" y="-98.45" font-family="Arial" font-size="14.00">d</text>
</g>
<!-- 6 -->
<g id="node7" class="node">
<title>6</title>
<ellipse fill="none" stroke="black" cx="302.72" cy="-258" rx="18" ry="18"/>
<text text-anchor="middle" x="302.72" y="-252.57" font-family="Arial" font-size="14.00">6</text>
</g>
<!-- 5&#45;&gt;6 -->
<g id="edge9" class="edge">
<title>5&#45;&gt;6</title>
<path fill="none" stroke="black" d="M237.5,-255.64C247.88,-256.02 261.33,-256.51 273.24,-256.95"/>
<polygon fill="black" stroke="black" points="272.83,-260.44 282.95,-257.31 273.08,-253.44 272.83,-260.44"/>
<text text-anchor="middle" x="258.97" y="-258.95" font-family="Arial" font-size="14.00">g</text>
</g>
<!-- 6&#45;&gt;5 -->
<g id="edge10" class="edge">
<title>6&#45;&gt;5</title>
<path fill="none" stroke="black" d="M287.66,-247.86C280.55,-243.35 271.57,-238.55 262.72,-236.25 256.22,-234.56 249.45,-235.95 243.28,-238.6"/>
<polygon fill="black" stroke="black" points="242,-235.31 234.92,-243.2 245.37,-241.45 242,-235.31"/>
<text text-anchor="middle" x="258.97" y="-238.7" font-family="Arial" font-size="14.00">h</text>
</g>
<!-- 7 -->
<g id="node8" class="node">
<title>7</title>
<ellipse fill="none" stroke="black" cx="219.22" cy="-22" rx="18" ry="18"/>
<text text-anchor="middle" x="219.22" y="-16.57" font-family="Arial" font-size="14.00">7</text>
</g>
<!-- 7&#45;&gt;4 -->
<g id="edge12" class="edge">
<title>7&#45;&gt;4</title>
<path fill="none" stroke="black" d="M232.25,-35.13C244.69,-48.72 264.4,-70.25 279.66,-86.91"/>
<polygon fill="black" stroke="black" points="276.81,-88.98 286.14,-93.99 281.97,-84.25 276.81,-88.98"/>
<text text-anchor="middle" x="258.97" y="-68.95" font-family="Arial" font-size="14.00">a</text>
</g>
<!-- 8 -->
<g id="node9" class="node">
<title>8</title>
<ellipse fill="none" stroke="black" cx="302.72" cy="-18" rx="18" ry="18"/>
<text text-anchor="middle" x="302.72" y="-12.57" font-family="Arial" font-size="14.00">8</text>
</g>
<!-- 7&#45;&gt;8 -->
<g id="edge11" class="edge">
<title>7&#45;&gt;8</title>
<path fill="none" stroke="black" d="M237.3,-20.48C242.99,-20.02 249.38,-19.56 255.22,-19.25 260.97,-18.95 267.12,-18.72 273,-18.54"/>
<polygon fill="black" stroke="black" points="273.06,-22.04 282.97,-18.29 272.89,-15.04 273.06,-22.04"/>
<text text-anchor="middle" x="258.97" y="-21.7" font-family="Arial" font-size="14.00">i</text>
</g>
<!-- 9 -->
<g id="node10" class="node">
<title>9</title>
<ellipse fill="none" stroke="black" cx="135.22" cy="-42" rx="18" ry="18"/>
<text text-anchor="middle" x="135.22" y="-36.58" font-family="Arial" font-size="14.00">9</text>
</g>
<!-- 7&#45;&gt;9 -->
<g id="edge13" class="edge">
<title>7&#45;&gt;9</title>
<path fill="none" stroke="black" d="M204.5,-11.09C195.05,-4.97 182.25,0.57 171.22,-4.25 164.23,-7.3 158.01,-12.51 152.83,-18.1"/>
<polygon fill="black" stroke="black" points="150.17,-15.83 146.53,-25.78 155.58,-20.27 150.17,-15.83"/>
<text text-anchor="middle" x="177.22" y="-6.7" font-family="Arial" font-size="14.00">j</text>
</g>
<!-- 9&#45;&gt;3 -->
<g id="edge15" class="edge">
<title>9&#45;&gt;3</title>
<path fill="none" stroke="black" d="M152.03,-49.52C163.37,-54.91 178.92,-62.31 192.09,-68.57"/>
<polygon fill="black" stroke="black" points="190.56,-71.72 201.09,-72.85 193.56,-65.4 190.56,-71.72"/>
<text text-anchor="middle" x="177.22" y="-66.29" font-family="Arial" font-size="14.00">m</text>
</g>
<!-- 9&#45;&gt;7 -->
<g id="edge14" class="edge">
<title>9&#45;&gt;7</title>
<path fill="none" stroke="black" d="M153.21,-37.86C163.88,-35.25 177.89,-31.84 190.17,-28.84"/>
<polygon fill="black" stroke="black" points="190.9,-32.27 199.78,-26.5 189.24,-25.47 190.9,-32.27"/>
<text text-anchor="middle" x="177.22" y="-35.65" font-family="Arial" font-size="14.00">k</text>
</g>
</g>
</svg>
