<?xml version="1.0" encoding="UTF-8" standalone="no"?>
<!DOCTYPE svg PUBLIC "-//W3C//DTD SVG 1.1//EN"
 "http://www.w3.org/Graphics/SVG/1.1/DTD/svg11.dtd">
<!-- Generated by graphviz version 12.2.1 (20241206.2353)
 -->
<!-- Title: g Pages: 1 -->
<svg width="392pt" height="171pt"
 viewBox="0.00 0.00 392.22 171.00" xmlns="http://www.w3.org/2000/svg" xmlns:xlink="http://www.w3.org/1999/xlink">
<g id="graph0" class="graph" transform="scale(1 1) rotate(0) translate(4 167)">
<title>g</title>
<!-- dot_dummyinit_1 -->
<g id="node1" class="node">
<title>dot_dummyinit_1</title>
</g>
<!-- 1 -->
<g id="node2" class="node">
<title>1</title>
<path fill="none" stroke="black" d="M79.72,-104C79.72,-104 49.72,-104 49.72,-104 43.72,-104 37.72,-98 37.72,-92 37.72,-92 37.72,-80 37.72,-80 37.72,-74 43.72,-68 49.72,-68 49.72,-68 79.72,-68 79.72,-68 85.72,-68 91.72,-74 91.72,-80 91.72,-80 91.72,-92 91.72,-92 91.72,-98 85.72,-104 79.72,-104"/>
<text text-anchor="middle" x="64.72" y="-80.58" font-family="Arial" font-size="14.00">1</text>
</g>
<!-- dot_dummyinit_1&#45;&gt;1 -->
<g id="edge1" class="edge">
<title>dot_dummyinit_1&#45;&gt;1</title>
<path fill="none" stroke="black" d="M0.77,-86C1.57,-86 12.96,-86 25.83,-86"/>
<polygon fill="black" stroke="black" points="25.79,-89.5 35.79,-86 25.79,-82.5 25.79,-89.5"/>
</g>
<!-- 2 -->
<g id="node4" class="node">
<title>2</title>
<path fill="none" stroke="black" d="M177.22,-104C177.22,-104 147.22,-104 147.22,-104 141.22,-104 135.22,-98 135.22,-92 135.22,-92 135.22,-80 135.22,-80 135.22,-74 141.22,-68 147.22,-68 147.22,-68 177.22,-68 177.22,-68 183.22,-68 189.22,-74 189.22,-80 189.22,-80 189.22,-92 189.22,-92 189.22,-98 183.22,-104 177.22,-104"/>
<text text-anchor="middle" x="162.22" y="-80.58" font-family="Arial" font-size="14.00">2</text>
</g>
<!-- 1&#45;&gt;2 -->
<g id="edge2" class="edge">
<title>1&#45;&gt;2</title>
<path fill="none" stroke="black" d="M92.07,-86C101.78,-86 112.97,-86 123.49,-86"/>
<polygon fill="black" stroke="black" points="123.44,-89.5 133.44,-86 123.44,-82.5 123.44,-89.5"/>
<text text-anchor="middle" x="113.47" y="-88.45" font-family="Arial" font-size="14.00">a</text>
</g>
<!-- 3 -->
<g id="node3" class="node">
<title>3</title>
<path fill="none" stroke="black" d="M274.72,-163C274.72,-163 244.72,-163 244.72,-163 238.72,-163 232.72,-157 232.72,-151 232.72,-151 232.72,-139 232.72,-139 232.72,-133 238.72,-127 244.72,-127 244.72,-127 274.72,-127 274.72,-127 280.72,-127 286.72,-133 286.72,-139 286.72,-139 286.72,-151 286.72,-151 286.72,-157 280.72,-163 274.72,-163"/>
<text text-anchor="start" x="247.97" y="-139.57" font-family="Arial" font-size="14.00">3</text>
<polygon fill="black" stroke="none" points="265.47,-135.12 265.47,-154.88 273.47,-154.88 273.47,-135.12 265.47,-135.12"/>
</g>
<!-- 2&#45;&gt;3 -->
<g id="edge3" class="edge">
<title>2&#45;&gt;3</title>
<path fill="none" stroke="black" d="M189.57,-102.28C199.8,-108.6 211.68,-115.94 222.68,-122.73"/>
<polygon fill="black" stroke="black" points="220.82,-125.7 231.17,-127.98 224.5,-119.75 220.82,-125.7"/>
<text text-anchor="middle" x="210.97" y="-119.72" font-family="Arial" font-size="14.00">b</text>
</g>
<!-- 4 -->
<g id="node5" class="node">
<title>4</title>
<path fill="none" stroke="black" d="M274.72,-105C274.72,-105 244.72,-105 244.72,-105 238.72,-105 232.72,-99 232.72,-93 232.72,-93 232.72,-81 232.72,-81 232.72,-75 238.72,-69 244.72,-69 244.72,-69 274.72,-69 274.72,-69 280.72,-69 286.72,-75 286.72,-81 286.72,-81 286.72,-93 286.72,-93 286.72,-99 280.72,-105 274.72,-105"/>
<text text-anchor="middle" x="259.72" y="-81.58" font-family="Arial" font-size="14.00">4</text>
</g>
<!-- 2&#45;&gt;4 -->
<g id="edge4" class="edge">
<title>2&#45;&gt;4</title>
<path fill="none" stroke="black" d="M189.57,-86.28C199.28,-86.38 210.47,-86.49 220.99,-86.6"/>
<polygon fill="black" stroke="black" points="220.91,-90.1 230.94,-86.71 220.98,-83.1 220.91,-90.1"/>
<text text-anchor="middle" x="210.97" y="-88.98" font-family="Arial" font-size="14.00">c</text>
</g>
<!-- 6 -->
<g id="node7" class="node">
<title>6</title>
<path fill="none" stroke="black" d="M274.72,-46C274.72,-46 244.72,-46 244.72,-46 238.72,-46 232.72,-40 232.72,-34 232.72,-34 232.72,-22 232.72,-22 232.72,-16 238.72,-10 244.72,-10 244.72,-10 274.72,-10 274.72,-10 280.72,-10 286.72,-16 286.72,-22 286.72,-22 286.72,-34 286.72,-34 286.72,-40 280.72,-46 274.72,-46"/>
<text text-anchor="middle" x="259.72" y="-22.57" font-family="Arial" font-size="14.00">6</text>
</g>
<!-- 2&#45;&gt;6 -->
<g id="edge5" class="edge">
<title>2&#45;&gt;6</title>
<path fill="none" stroke="black" d="M180.34,-67.62C188,-60.2 197.49,-52.05 207.22,-46.25 211.82,-43.51 216.89,-41.09 222,-38.99"/>
<polygon fill="black" stroke="black" points="222.85,-42.4 231,-35.63 220.41,-35.84 222.85,-42.4"/>
<text text-anchor="middle" x="210.97" y="-48.7" font-family="Arial" font-size="14.00">d</text>
</g>
<!-- 4&#45;&gt;2 -->
<g id="edge6" class="edge">
<title>4&#45;&gt;2</title>
<path fill="none" stroke="black" d="M232.4,-72.31C226.73,-69.8 220.65,-67.58 214.72,-66.25 209.99,-65.19 205.12,-65.32 200.34,-66.22"/>
<polygon fill="black" stroke="black" points="199.51,-62.81 190.94,-69.04 201.53,-69.51 199.51,-62.81"/>
<text text-anchor="middle" x="210.97" y="-68.7" font-family="Arial" font-size="14.00">b</text>
</g>
<!-- 5 -->
<g id="node6" class="node">
<title>5</title>
<path fill="none" stroke="black" d="M372.22,-105C372.22,-105 342.22,-105 342.22,-105 336.22,-105 330.22,-99 330.22,-93 330.22,-93 330.22,-81 330.22,-81 330.22,-75 336.22,-69 342.22,-69 342.22,-69 372.22,-69 372.22,-69 378.22,-69 384.22,-75 384.22,-81 384.22,-81 384.22,-93 384.22,-93 384.22,-99 378.22,-105 372.22,-105"/>
<text text-anchor="middle" x="357.22" y="-81.58" font-family="Arial" font-size="14.00">5</text>
</g>
<!-- 4&#45;&gt;5 -->
<g id="edge7" class="edge">
<title>4&#45;&gt;5</title>
<path fill="none" stroke="black" d="M287.07,-87C296.78,-87 307.97,-87 318.49,-87"/>
<polygon fill="black" stroke="black" points="318.44,-90.5 328.44,-87 318.44,-83.5 318.44,-90.5"/>
<text text-anchor="middle" x="308.47" y="-89.45" font-family="Arial" font-size="14.00">a</text>
</g>
<!-- 7 -->
<g id="node8" class="node">
<title>7</title>
<path fill="none" stroke="black" d="M372.22,-36C372.22,-36 342.22,-36 342.22,-36 336.22,-36 330.22,-30 330.22,-24 330.22,-24 330.22,-12 330.22,-12 330.22,-6 336.22,0 342.22,0 342.22,0 372.22,0 372.22,0 378.22,0 384.22,-6 384.22,-12 384.22,-12 384.22,-24 384.22,-24 384.22,-30 378.22,-36 372.22,-36"/>
<text text-anchor="middle" x="357.22" y="-12.57" font-family="Arial" font-size="14.00">7</text>
</g>
<!-- 6&#45;&gt;7 -->
<g id="edge8" class="edge">
<title>6&#45;&gt;7</title>
<path fill="none" stroke="black" d="M287.07,-25.24C296.88,-24.21 308.21,-23.03 318.83,-21.92"/>
<polygon fill="black" stroke="black" points="318.87,-25.43 328.45,-20.91 318.14,-18.47 318.87,-25.43"/>
<text text-anchor="middle" x="308.47" y="-25.75" font-family="Arial" font-size="14.00">a</text>
</g>
<!-- 7&#45;&gt;6 -->
<g id="edge9" class="edge">
<title>7&#45;&gt;6</title>
<path fill="none" stroke="black" d="M329.82,-4.84C321.78,-2.35 312.91,-1.11 304.72,-3.25 302.14,-3.92 299.56,-4.79 297.01,-5.78"/>
<polygon fill="black" stroke="black" points="295.77,-2.5 288.15,-9.87 298.7,-8.86 295.77,-2.5"/>
<text text-anchor="middle" x="308.47" y="-5.7" font-family="Arial" font-size="14.00">b</text>
</g>
</g>
</svg>
