<?xml version="1.0" encoding="UTF-8" standalone="no"?>
<!DOCTYPE svg PUBLIC "-//W3C//DTD SVG 1.0//EN"
 "http://www.w3.org/TR/2001/REC-SVG-20010904/DTD/svg10.dtd" [
 <!ATTLIST svg xmlns:xlink CDATA #FIXED "http://www.w3.org/1999/xlink">
]>
<!-- Generated by Graphviz version 2.20.2 (Tue Mar &#160;2 21:46:26 UTC 2010)
     For user: (mtmoor) Prof. Thomas Moor -->
<!-- Title: g2 Pages: 1 -->
<svg width="260pt" height="141pt"
 viewBox="0.00 0.00 260.00 141.00" xmlns="http://www.w3.org/2000/svg" xmlns:xlink="http://www.w3.org/1999/xlink">
<g id="graph0" class="graph" transform="scale(1 1) rotate(0) translate(4 137)">
<title>g2</title>
<polygon style="fill:none;stroke:none;" points="-4,4 -4,-137 256,-137 256,4 -4,4"/>
<!-- dot_dummyinit_1 -->
<g id="node1" class="node"><title>dot_dummyinit_1</title>
</g>
<!-- 1 -->
<g id="node3" class="node"><title>1</title>
<ellipse style="fill:none;stroke:black;" cx="62" cy="-70" rx="18" ry="18"/>
<ellipse style="fill:none;stroke:black;" cx="62" cy="-70" rx="22" ry="22"/>
<text text-anchor="middle" x="62" y="-65.9" style="font-family:Times New Roman;font-size:14.00;">1</text>
</g>
<!-- dot_dummyinit_1&#45;&gt;1 -->
<g id="edge2" class="edge"><title>dot_dummyinit_1&#45;&gt;1</title>
<path style="fill:none;stroke:black;" d="M2,-70C5,-70 17,-70 30,-70"/>
<polygon style="fill:black;stroke:black;" points="30,-73.5001 40,-70 30,-66.5001 30,-73.5001"/>
</g>
<!-- 2 -->
<g id="node4" class="node"><title>2</title>
<ellipse style="fill:none;stroke:black;" cx="150" cy="-111" rx="18" ry="18"/>
<ellipse style="fill:none;stroke:black;" cx="150" cy="-111" rx="22" ry="22"/>
<text text-anchor="middle" x="150" y="-106.9" style="font-family:Times New Roman;font-size:14.00;">2</text>
</g>
<!-- 1&#45;&gt;2 -->
<g id="edge4" class="edge"><title>1&#45;&gt;2</title>
<path style="fill:none;stroke:black;" d="M82,-79C93,-85 107,-91 120,-97"/>
<polygon style="fill:black;stroke:black;" points="119.415,-100.536 130,-101 122.015,-94.0364 119.415,-100.536"/>
<text text-anchor="middle" x="106" y="-93.9" style="font-family:Times New Roman;font-size:14.00;">a</text>
</g>
<!-- 4 -->
<g id="node6" class="node"><title>4</title>
<ellipse style="fill:none;stroke:black;" cx="150" cy="-18" rx="18" ry="18"/>
<text text-anchor="middle" x="150" y="-13.9" style="font-family:Times New Roman;font-size:14.00;">4</text>
</g>
<!-- 1&#45;&gt;4 -->
<g id="edge6" class="edge"><title>1&#45;&gt;4</title>
<path style="fill:none;stroke:black;" d="M81,-59C94,-51 111,-41 125,-32"/>
<polygon style="fill:black;stroke:black;" points="126.958,-34.916 134,-27 123.559,-28.7969 126.958,-34.916"/>
<text text-anchor="middle" x="106" y="-53.9" style="font-family:Times New Roman;font-size:14.00;">c</text>
</g>
<!-- 3 -->
<g id="node5" class="node"><title>3</title>
<ellipse style="fill:none;stroke:black;" cx="234" cy="-111" rx="18" ry="18"/>
<text text-anchor="middle" x="234" y="-106.9" style="font-family:Times New Roman;font-size:14.00;">3</text>
</g>
<!-- 2&#45;&gt;3 -->
<g id="edge8" class="edge"><title>2&#45;&gt;3</title>
<path style="fill:none;stroke:black;" d="M172,-111C183,-111 195,-111 206,-111"/>
<polygon style="fill:black;stroke:black;" points="206,-114.5 216,-111 206,-107.5 206,-114.5"/>
<text text-anchor="middle" x="194" y="-114.9" style="font-family:Times New Roman;font-size:14.00;">b</text>
</g>
<!-- 3&#45;&gt;2 -->
<g id="edge10" class="edge"><title>3&#45;&gt;2</title>
<path style="fill:none;stroke:black;" d="M219,-100C213,-96 206,-92 198,-90 191,-88 183,-89 176,-92"/>
<polygon style="fill:black;stroke:black;" points="174.042,-89.084 167,-97 177.441,-95.2031 174.042,-89.084"/>
<text text-anchor="middle" x="194" y="-93.9" style="font-family:Times New Roman;font-size:14.00;">a</text>
</g>
<!-- 4&#45;&gt;4 -->
<g id="edge12" class="edge"><title>4&#45;&gt;4</title>
<path style="fill:none;stroke:black;" d="M142,-34C140,-44 143,-54 150,-54 154,-54 157,-50 158,-44"/>
<polygon style="fill:black;stroke:black;" points="161.5,-44 158,-34 154.5,-44 161.5,-44"/>
<text text-anchor="middle" x="150" y="-58.9" style="font-family:Times New Roman;font-size:14.00;">e</text>
</g>
</g>
</svg>
