<?xml version="1.0" encoding="UTF-8" standalone="no"?>
<!DOCTYPE svg PUBLIC "-//W3C//DTD SVG 1.1//EN"
 "http://www.w3.org/Graphics/SVG/1.1/DTD/svg11.dtd">
<!-- Generated by graphviz version 12.2.1 (20241206.2353)
 -->
<!-- Title: FullLanguage(NameSet) Pages: 1 -->
<svg width="100pt" height="78pt"
 viewBox="0.00 0.00 99.72 77.75" xmlns="http://www.w3.org/2000/svg" xmlns:xlink="http://www.w3.org/1999/xlink">
<g id="graph0" class="graph" transform="scale(1 1) rotate(0) translate(4 73.75)">
<title>FullLanguage(NameSet)</title>
<!-- dot_dummyinit_1 -->
<g id="node1" class="node">
<title>dot_dummyinit_1</title>
</g>
<!-- 1 -->
<g id="node2" class="node">
<title>1</title>
<path fill="none" stroke="black" d="M79.72,-36C79.72,-36 49.72,-36 49.72,-36 43.72,-36 37.72,-30 37.72,-24 37.72,-24 37.72,-12 37.72,-12 37.72,-6 43.72,0 49.72,0 49.72,0 79.72,0 79.72,0 85.72,0 91.72,-6 91.72,-12 91.72,-12 91.72,-24 91.72,-24 91.72,-30 85.72,-36 79.72,-36"/>
<text text-anchor="start" x="52.97" y="-12.57" font-family="Arial" font-size="14.00">1</text>
<polygon fill="black" stroke="none" points="70.47,-8.12 70.47,-27.88 78.47,-27.88 78.47,-8.12 70.47,-8.12"/>
</g>
<!-- dot_dummyinit_1&#45;&gt;1 -->
<g id="edge1" class="edge">
<title>dot_dummyinit_1&#45;&gt;1</title>
<path fill="none" stroke="black" d="M0.77,-18C1.57,-18 12.96,-18 25.83,-18"/>
<polygon fill="black" stroke="black" points="25.79,-21.5 35.79,-18 25.79,-14.5 25.79,-21.5"/>
</g>
<!-- 1&#45;&gt;1 -->
<g id="edge2" class="edge">
<title>1&#45;&gt;1</title>
<path fill="none" stroke="black" d="M56.49,-36.15C55.22,-45.54 57.97,-54 64.72,-54 68.41,-54 70.91,-51.47 72.2,-47.64"/>
<polygon fill="black" stroke="black" points="75.7,-47.87 72.85,-37.66 68.71,-47.41 75.7,-47.87"/>
<text text-anchor="middle" x="64.72" y="-56.45" font-family="Arial" font-size="14.00">a, b</text>
</g>
</g>
</svg>
