<?xml version="1.0" encoding="UTF-8" standalone="no"?>
<!DOCTYPE svg PUBLIC "-//W3C//DTD SVG 1.0//EN"
 "http://www.w3.org/TR/2001/REC-SVG-20010904/DTD/svg10.dtd" [
 <!ATTLIST svg xmlns:xlink CDATA #FIXED "http://www.w3.org/1999/xlink">
]>
<!-- Generated by Graphviz version 2.20.2 (Tue Mar &#160;2 21:46:26 UTC 2010)
     For user: (mtmoor) Prof. Thomas Moor -->
<!-- Title: OmegaClosure(g) Pages: 1 -->
<svg width="356pt" height="143pt"
 viewBox="0.00 0.00 356.00 143.00" xmlns="http://www.w3.org/2000/svg" xmlns:xlink="http://www.w3.org/1999/xlink">
<g id="graph0" class="graph" transform="scale(1 1) rotate(0) translate(4 139)">
<title>OmegaClosure(g)</title>
<polygon style="fill:none;stroke:none;" points="-4,4 -4,-139 352,-139 352,4 -4,4"/>
<!-- dot_dummyinit_1 -->
<g id="node1" class="node"><title>dot_dummyinit_1</title>
</g>
<!-- 1 -->
<g id="node3" class="node"><title>1</title>
<ellipse style="fill:none;stroke:black;" cx="62" cy="-22" rx="18" ry="18"/>
<ellipse style="fill:none;stroke:black;" cx="62" cy="-22" rx="22" ry="22"/>
<text text-anchor="middle" x="62" y="-17.9" style="font-family:Times New Roman;font-size:14.00;">1</text>
</g>
<!-- dot_dummyinit_1&#45;&gt;1 -->
<g id="edge2" class="edge"><title>dot_dummyinit_1&#45;&gt;1</title>
<path style="fill:none;stroke:black;" d="M2,-22C5,-22 17,-22 30,-22"/>
<polygon style="fill:black;stroke:black;" points="30,-25.5001 40,-22 30,-18.5001 30,-25.5001"/>
</g>
<!-- 2 -->
<g id="node4" class="node"><title>2</title>
<ellipse style="fill:none;stroke:black;" cx="150" cy="-64" rx="18" ry="18"/>
<ellipse style="fill:none;stroke:black;" cx="150" cy="-64" rx="22" ry="22"/>
<text text-anchor="middle" x="150" y="-59.9" style="font-family:Times New Roman;font-size:14.00;">2</text>
</g>
<!-- 1&#45;&gt;2 -->
<g id="edge4" class="edge"><title>1&#45;&gt;2</title>
<path style="fill:none;stroke:black;" d="M82,-32C93,-38 107,-44 120,-50"/>
<polygon style="fill:black;stroke:black;" points="119.415,-53.5357 130,-54 122.015,-47.0364 119.415,-53.5357"/>
<text text-anchor="middle" x="106" y="-45.9" style="font-family:Times New Roman;font-size:14.00;">a</text>
</g>
<!-- 4 -->
<g id="node5" class="node"><title>4</title>
<ellipse style="fill:none;stroke:black;" cx="238" cy="-113" rx="18" ry="18"/>
<ellipse style="fill:none;stroke:black;" cx="238" cy="-113" rx="22" ry="22"/>
<text text-anchor="middle" x="238" y="-108.9" style="font-family:Times New Roman;font-size:14.00;">4</text>
</g>
<!-- 2&#45;&gt;4 -->
<g id="edge8" class="edge"><title>2&#45;&gt;4</title>
<path style="fill:none;stroke:black;" d="M165,-80C172,-87 181,-95 190,-100 195,-102 200,-105 206,-106"/>
<polygon style="fill:black;stroke:black;" points="205.416,-109.479 216,-109 207.427,-102.774 205.416,-109.479"/>
<text text-anchor="middle" x="194" y="-103.9" style="font-family:Times New Roman;font-size:14.00;">c</text>
</g>
<!-- 6 -->
<g id="node6" class="node"><title>6</title>
<ellipse style="fill:none;stroke:black;" cx="238" cy="-47" rx="18" ry="18"/>
<ellipse style="fill:none;stroke:black;" cx="238" cy="-47" rx="22" ry="22"/>
<text text-anchor="middle" x="238" y="-42.9" style="font-family:Times New Roman;font-size:14.00;">6</text>
</g>
<!-- 2&#45;&gt;6 -->
<g id="edge6" class="edge"><title>2&#45;&gt;6</title>
<path style="fill:none;stroke:black;" d="M169,-52C175,-48 183,-45 190,-43 195,-42 201,-41 206,-41"/>
<polygon style="fill:black;stroke:black;" points="205.701,-44.4875 216,-42 206.398,-37.5222 205.701,-44.4875"/>
<text text-anchor="middle" x="194" y="-46.9" style="font-family:Times New Roman;font-size:14.00;">d</text>
</g>
<!-- 4&#45;&gt;2 -->
<g id="edge10" class="edge"><title>4&#45;&gt;2</title>
<path style="fill:none;stroke:black;" d="M224,-96C217,-89 208,-81 198,-76 193,-73 188,-71 182,-69"/>
<polygon style="fill:black;stroke:black;" points="182.492,-65.5292 172,-67 181.119,-72.3933 182.492,-65.5292"/>
<text text-anchor="middle" x="194" y="-79.9" style="font-family:Times New Roman;font-size:14.00;">b</text>
</g>
<!-- 7 -->
<g id="node7" class="node"><title>7</title>
<ellipse style="fill:none;stroke:black;" cx="326" cy="-30" rx="18" ry="18"/>
<ellipse style="fill:none;stroke:black;" cx="326" cy="-30" rx="22" ry="22"/>
<text text-anchor="middle" x="326" y="-25.9" style="font-family:Times New Roman;font-size:14.00;">7</text>
</g>
<!-- 6&#45;&gt;7 -->
<g id="edge12" class="edge"><title>6&#45;&gt;7</title>
<path style="fill:none;stroke:black;" d="M260,-49C268,-50 278,-50 286,-48 290,-47 294,-46 297,-44"/>
<polygon style="fill:black;stroke:black;" points="299.015,-46.9636 307,-40 296.415,-40.4643 299.015,-46.9636"/>
<text text-anchor="middle" x="282" y="-51.9" style="font-family:Times New Roman;font-size:14.00;">a</text>
</g>
<!-- 7&#45;&gt;1 -->
<g id="edge16" class="edge"><title>7&#45;&gt;1</title>
<path style="fill:none;stroke:black;" d="M305,-25C292,-22 275,-18 260,-16 202,-10 134,-15 94,-18"/>
<polygon style="fill:black;stroke:black;" points="93.6021,-14.5222 84,-19 94.2987,-21.4875 93.6021,-14.5222"/>
<text text-anchor="middle" x="194" y="-18.9" style="font-family:Times New Roman;font-size:14.00;">c</text>
</g>
<!-- 7&#45;&gt;6 -->
<g id="edge14" class="edge"><title>7&#45;&gt;6</title>
<path style="fill:none;stroke:black;" d="M304,-26C296,-26 286,-25 278,-27 274,-28 270,-29 266,-31"/>
<polygon style="fill:black;stroke:black;" points="264.717,-27.7402 257,-35 267.56,-34.1369 264.717,-27.7402"/>
<text text-anchor="middle" x="282" y="-33.9" style="font-family:Times New Roman;font-size:14.00;">b</text>
</g>
</g>
</svg>
