<?xml version="1.0" encoding="UTF-8" standalone="no"?>
<!DOCTYPE svg PUBLIC "-//W3C//DTD SVG 1.1//EN"
 "http://www.w3.org/Graphics/SVG/1.1/DTD/svg11.dtd">
<!-- Generated by graphviz version 12.2.1 (20241206.2353)
 -->
<!-- Title: Complement(g1) Pages: 1 -->
<svg width="336pt" height="381pt"
 viewBox="0.00 0.00 336.22 381.47" xmlns="http://www.w3.org/2000/svg" xmlns:xlink="http://www.w3.org/1999/xlink">
<g id="graph0" class="graph" transform="scale(1 1) rotate(0) translate(4 377.47)">
<title>Complement(g1)</title>
<!-- dot_dummyinit_1 -->
<g id="node1" class="node">
<title>dot_dummyinit_1</title>
</g>
<!-- 1 -->
<g id="node2" class="node">
<title>1</title>
<ellipse fill="none" stroke="black" cx="55.72" cy="-272.17" rx="18" ry="18"/>
<text text-anchor="middle" x="55.72" y="-266.74" font-family="Arial" font-size="14.00">1</text>
</g>
<!-- dot_dummyinit_1&#45;&gt;1 -->
<g id="edge1" class="edge">
<title>dot_dummyinit_1&#45;&gt;1</title>
<path fill="none" stroke="black" d="M0.87,-272.17C2.34,-272.17 13.93,-272.17 25.99,-272.17"/>
<polygon fill="black" stroke="black" points="25.86,-275.67 35.86,-272.17 25.86,-268.67 25.86,-275.67"/>
</g>
<!-- 4 -->
<g id="node4" class="node">
<title>4</title>
<ellipse fill="none" stroke="black" cx="306.22" cy="-151.17" rx="18" ry="18"/>
<ellipse fill="none" stroke="black" cx="306.22" cy="-151.17" rx="22" ry="22"/>
<text text-anchor="middle" x="306.22" y="-145.74" font-family="Arial" font-size="14.00">4</text>
</g>
<!-- 1&#45;&gt;4 -->
<g id="edge2" class="edge">
<title>1&#45;&gt;4</title>
<path fill="none" stroke="black" d="M62.89,-289C68.41,-301.36 77.79,-317.33 91.72,-325.17 159.31,-363.19 206.52,-374.67 266.22,-325.17 287.44,-307.57 298.01,-230.25 302.48,-184.82"/>
<polygon fill="black" stroke="black" points="305.95,-185.26 303.39,-174.97 298.98,-184.61 305.95,-185.26"/>
<text text-anchor="middle" x="174.97" y="-360.17" font-family="Arial" font-size="14.00">f</text>
</g>
<!-- 1&#45;&gt;4 -->
<g id="edge4" class="edge">
<title>1&#45;&gt;4</title>
<path fill="none" stroke="black" d="M72.43,-279.57C110.32,-296.2 207.85,-331.65 266.22,-286.17 296.68,-262.43 304.38,-216.44 305.82,-184.79"/>
<polygon fill="black" stroke="black" points="309.32,-185.03 306.07,-174.95 302.32,-184.86 309.32,-185.03"/>
<text text-anchor="middle" x="174.97" y="-310.38" font-family="Arial" font-size="14.00">b</text>
</g>
<!-- 1&#45;&gt;4 -->
<g id="edge5" class="edge">
<title>1&#45;&gt;4</title>
<path fill="none" stroke="black" d="M73.47,-276.27C111.91,-284.63 207.67,-299.35 266.22,-255.17 288.21,-238.57 297.8,-208.11 301.99,-184.43"/>
<polygon fill="black" stroke="black" points="305.44,-185.01 303.45,-174.6 298.51,-183.97 305.44,-185.01"/>
<text text-anchor="middle" x="174.97" y="-287.44" font-family="Arial" font-size="14.00">d</text>
</g>
<!-- 1&#45;&gt;4 -->
<g id="edge6" class="edge">
<title>1&#45;&gt;4</title>
<path fill="none" stroke="black" d="M73.94,-271.02C112.14,-267.69 205.4,-255.19 266.22,-210.17 276.39,-202.64 284.69,-191.61 290.98,-181.12"/>
<polygon fill="black" stroke="black" points="293.87,-183.12 295.66,-172.68 287.75,-179.73 293.87,-183.12"/>
<text text-anchor="middle" x="174.97" y="-256.02" font-family="Arial" font-size="14.00">c</text>
</g>
<!-- 2 -->
<g id="node5" class="node">
<title>2</title>
<ellipse fill="none" stroke="black" cx="135.22" cy="-74.17" rx="18" ry="18"/>
<text text-anchor="middle" x="135.22" y="-68.74" font-family="Arial" font-size="14.00">2</text>
</g>
<!-- 1&#45;&gt;2 -->
<g id="edge3" class="edge">
<title>1&#45;&gt;2</title>
<path fill="none" stroke="black" d="M63.19,-255.63C76.56,-221.48 107.3,-142.93 123.61,-101.27"/>
<polygon fill="black" stroke="black" points="126.77,-102.8 127.16,-92.21 120.25,-100.24 126.77,-102.8"/>
<text text-anchor="middle" x="95.47" y="-181.55" font-family="Arial" font-size="14.00">a</text>
</g>
<!-- 3 -->
<g id="node3" class="node">
<title>3</title>
<ellipse fill="none" stroke="black" cx="218.72" cy="-139.17" rx="18" ry="18"/>
<ellipse fill="none" stroke="black" cx="218.72" cy="-139.17" rx="22" ry="22"/>
<text text-anchor="middle" x="218.72" y="-133.74" font-family="Arial" font-size="14.00">3</text>
</g>
<!-- 3&#45;&gt;4 -->
<g id="edge12" class="edge">
<title>3&#45;&gt;4</title>
<path fill="none" stroke="black" d="M229.51,-158.63C236.13,-169.49 245.99,-182.03 258.72,-188.17 268.86,-193.06 278.81,-187.05 286.88,-178.56"/>
<polygon fill="black" stroke="black" points="289.37,-181.03 293.03,-171.09 283.97,-176.58 289.37,-181.03"/>
<text text-anchor="middle" x="262.47" y="-192.37" font-family="Arial" font-size="14.00">f</text>
</g>
<!-- 3&#45;&gt;4 -->
<g id="edge13" class="edge">
<title>3&#45;&gt;4</title>
<path fill="none" stroke="black" d="M240.2,-145.27C246.13,-146.8 252.64,-148.27 258.72,-149.17 263.18,-149.83 267.9,-150.29 272.56,-150.62"/>
<polygon fill="black" stroke="black" points="272.16,-154.11 282.32,-151.1 272.51,-147.11 272.16,-154.11"/>
<text text-anchor="middle" x="262.47" y="-152.41" font-family="Arial" font-size="14.00">a</text>
</g>
<!-- 3&#45;&gt;4 -->
<g id="edge15" class="edge">
<title>3&#45;&gt;4</title>
<path fill="none" stroke="black" d="M239.27,-131.04C247.62,-128.61 257.44,-127.13 266.22,-129.42 270.09,-130.42 273.98,-131.9 277.73,-133.63"/>
<polygon fill="black" stroke="black" points="275.97,-136.66 286.44,-138.24 279.24,-130.47 275.97,-136.66"/>
<text text-anchor="middle" x="262.47" y="-131.87" font-family="Arial" font-size="14.00">d</text>
</g>
<!-- 3&#45;&gt;4 -->
<g id="edge16" class="edge">
<title>3&#45;&gt;4</title>
<path fill="none" stroke="black" d="M232.86,-121.73C241.81,-112.11 254.18,-103.1 266.22,-108.42 274.06,-111.87 281,-117.77 286.77,-124.1"/>
<polygon fill="black" stroke="black" points="283.9,-126.11 292.94,-131.63 289.31,-121.67 283.9,-126.11"/>
<text text-anchor="middle" x="262.47" y="-110.87" font-family="Arial" font-size="14.00">c</text>
</g>
<!-- 3&#45;&gt;2 -->
<g id="edge14" class="edge">
<title>3&#45;&gt;2</title>
<path fill="none" stroke="black" d="M202.12,-124.56C195.12,-118.19 186.66,-110.75 178.72,-104.42 172.77,-99.67 166.15,-94.79 159.94,-90.36"/>
<polygon fill="black" stroke="black" points="162.11,-87.61 151.91,-84.74 158.1,-93.34 162.11,-87.61"/>
<text text-anchor="middle" x="174.97" y="-106.87" font-family="Arial" font-size="14.00">b</text>
</g>
<!-- 4&#45;&gt;4 -->
<g id="edge17" class="edge">
<title>4&#45;&gt;4</title>
<path fill="none" stroke="black" d="M304.6,-173.38C304.47,-182.96 305.01,-191.17 306.22,-191.17 306.9,-191.17 307.37,-188.57 307.63,-184.59"/>
<polygon fill="black" stroke="black" points="311.12,-184.96 307.81,-174.89 304.12,-184.82 311.12,-184.96"/>
<text text-anchor="middle" x="306.22" y="-193.62" font-family="Arial" font-size="14.00">f</text>
</g>
<!-- 4&#45;&gt;4 -->
<g id="edge18" class="edge">
<title>4&#45;&gt;4</title>
<path fill="none" stroke="black" d="M303.4,-173.19C302.27,-190.89 303.21,-209.17 306.22,-209.17 308.57,-209.17 309.66,-198.01 309.48,-184.69"/>
<polygon fill="black" stroke="black" points="312.98,-184.56 309.1,-174.7 305.99,-184.82 312.98,-184.56"/>
<text text-anchor="middle" x="306.22" y="-211.62" font-family="Arial" font-size="14.00">a</text>
</g>
<!-- 4&#45;&gt;4 -->
<g id="edge19" class="edge">
<title>4&#45;&gt;4</title>
<path fill="none" stroke="black" d="M302.57,-173.34C300.05,-198.37 301.27,-227.17 306.22,-227.17 310.43,-227.17 311.94,-206.28 310.74,-184.63"/>
<polygon fill="black" stroke="black" points="314.25,-184.55 309.99,-174.85 307.27,-185.09 314.25,-184.55"/>
<text text-anchor="middle" x="306.22" y="-229.62" font-family="Arial" font-size="14.00">b</text>
</g>
<!-- 4&#45;&gt;4 -->
<g id="edge20" class="edge">
<title>4&#45;&gt;4</title>
<path fill="none" stroke="black" d="M302.03,-172.88C297.82,-204.98 299.21,-245.17 306.22,-245.17 312.43,-245.17 314.23,-213.57 311.62,-184.03"/>
<polygon fill="black" stroke="black" points="315.14,-183.95 310.57,-174.38 308.18,-184.71 315.14,-183.95"/>
<text text-anchor="middle" x="306.22" y="-247.62" font-family="Arial" font-size="14.00">d</text>
</g>
<!-- 4&#45;&gt;4 -->
<g id="edge21" class="edge">
<title>4&#45;&gt;4</title>
<path fill="none" stroke="black" d="M301.55,-173.16C295.61,-211.96 297.16,-263.17 306.22,-263.17 314.43,-263.17 316.48,-221.11 312.36,-184.34"/>
<polygon fill="black" stroke="black" points="315.86,-184.11 311.09,-174.66 308.92,-185.03 315.86,-184.11"/>
<text text-anchor="middle" x="306.22" y="-265.62" font-family="Arial" font-size="14.00">c</text>
</g>
<!-- 2&#45;&gt;3 -->
<g id="edge8" class="edge">
<title>2&#45;&gt;3</title>
<path fill="none" stroke="black" d="M143.92,-90.23C149.94,-101.23 159.29,-115.35 171.22,-124.17 175.68,-127.46 180.89,-130.05 186.17,-132.07"/>
<polygon fill="black" stroke="black" points="184.89,-135.34 195.48,-135.04 187.02,-128.67 184.89,-135.34"/>
<text text-anchor="middle" x="174.97" y="-130.81" font-family="Arial" font-size="14.00">a</text>
</g>
<!-- 2&#45;&gt;4 -->
<g id="edge7" class="edge">
<title>2&#45;&gt;4</title>
<path fill="none" stroke="black" d="M153.65,-73.7C180.49,-73.86 232.37,-77.77 266.22,-103.17 273.83,-108.88 280.84,-116.38 286.76,-123.76"/>
<polygon fill="black" stroke="black" points="283.91,-125.79 292.72,-131.68 289.5,-121.58 283.91,-125.79"/>
<text text-anchor="middle" x="218.72" y="-91.13" font-family="Arial" font-size="14.00">f</text>
</g>
<!-- 2&#45;&gt;4 -->
<g id="edge9" class="edge">
<title>2&#45;&gt;4</title>
<path fill="none" stroke="black" d="M151.71,-66.04C173,-56.08 211.93,-42.28 240.72,-57.42 265.7,-70.55 282.89,-98.22 293.2,-120.12"/>
<polygon fill="black" stroke="black" points="289.99,-121.5 297.23,-129.23 296.39,-118.67 289.99,-121.5"/>
<text text-anchor="middle" x="218.72" y="-59.87" font-family="Arial" font-size="14.00">b</text>
</g>
<!-- 2&#45;&gt;4 -->
<g id="edge10" class="edge">
<title>2&#45;&gt;4</title>
<path fill="none" stroke="black" d="M148.76,-62C168.7,-44.21 208.66,-14.9 240.72,-31.42 273.52,-48.31 290.31,-89.2 298.41,-118.49"/>
<polygon fill="black" stroke="black" points="294.97,-119.16 300.83,-127.99 301.76,-117.44 294.97,-119.16"/>
<text text-anchor="middle" x="218.72" y="-33.87" font-family="Arial" font-size="14.00">d</text>
</g>
<!-- 2&#45;&gt;4 -->
<g id="edge11" class="edge">
<title>2&#45;&gt;4</title>
<path fill="none" stroke="black" d="M144.72,-58.6C154.7,-42.12 172.97,-17.05 196.72,-6.42 214.57,1.57 223.27,2.42 240.72,-6.42 281.4,-27.02 296.44,-81.63 301.99,-117.57"/>
<polygon fill="black" stroke="black" points="298.52,-118.03 303.33,-127.47 305.46,-117.09 298.52,-118.03"/>
<text text-anchor="middle" x="218.72" y="-8.87" font-family="Arial" font-size="14.00">c</text>
</g>
</g>
</svg>
