<?xml version="1.0" encoding="UTF-8" standalone="no"?>
<!DOCTYPE svg PUBLIC "-//W3C//DTD SVG 1.1//EN"
 "http://www.w3.org/Graphics/SVG/1.1/DTD/svg11.dtd">
<!-- Generated by graphviz version 12.2.1 (20241206.2353)
 -->
<!-- Title: simple machine Pages: 1 -->
<svg width="347pt" height="80pt"
 viewBox="0.00 0.00 346.72 80.00" xmlns="http://www.w3.org/2000/svg" xmlns:xlink="http://www.w3.org/1999/xlink">
<g id="graph0" class="graph" transform="scale(1 1) rotate(0) translate(4 76)">
<title>simple machine</title>
<!-- dot_dummyinit_1 -->
<g id="node1" class="node">
<title>dot_dummyinit_1</title>
</g>
<!-- idle -->
<g id="node2" class="node">
<title>idle</title>
<path fill="none" stroke="black" d="M86.72,-53C86.72,-53 49.72,-53 49.72,-53 43.72,-53 37.72,-47 37.72,-41 37.72,-41 37.72,-29 37.72,-29 37.72,-23 43.72,-17 49.72,-17 49.72,-17 86.72,-17 86.72,-17 92.72,-17 98.72,-23 98.72,-29 98.72,-29 98.72,-41 98.72,-41 98.72,-47 92.72,-53 86.72,-53"/>
<text text-anchor="start" x="49.72" y="-29.57" font-family="Arial" font-size="14.00">idle</text>
<polygon fill="black" stroke="none" points="80.72,-25.12 80.72,-44.88 88.72,-44.88 88.72,-25.12 80.72,-25.12"/>
</g>
<!-- dot_dummyinit_1&#45;&gt;idle -->
<g id="edge1" class="edge">
<title>dot_dummyinit_1&#45;&gt;idle</title>
<path fill="none" stroke="black" d="M0.77,-35C1.6,-35 13.02,-35 26.17,-35"/>
<polygon fill="black" stroke="black" points="25.92,-38.5 35.92,-35 25.92,-31.5 25.92,-38.5"/>
</g>
<!-- busy -->
<g id="node3" class="node">
<title>busy</title>
<path fill="none" stroke="black" d="M209.72,-72C209.72,-72 179.72,-72 179.72,-72 173.72,-72 167.72,-66 167.72,-60 167.72,-60 167.72,-48 167.72,-48 167.72,-42 173.72,-36 179.72,-36 179.72,-36 209.72,-36 209.72,-36 215.72,-36 221.72,-42 221.72,-48 221.72,-48 221.72,-60 221.72,-60 221.72,-66 215.72,-72 209.72,-72"/>
<text text-anchor="middle" x="194.72" y="-48.58" font-family="Arial" font-size="14.00">busy</text>
</g>
<!-- idle&#45;&gt;busy -->
<g id="edge2" class="edge">
<title>idle&#45;&gt;busy</title>
<path fill="none" stroke="black" d="M98.97,-47.27C104.77,-49.19 110.87,-50.91 116.72,-52 129.5,-54.39 143.68,-55.25 156.35,-55.4"/>
<polygon fill="black" stroke="black" points="155.98,-58.91 165.97,-55.37 155.96,-51.91 155.98,-58.91"/>
<text text-anchor="middle" x="133.22" y="-57.66" font-family="Arial" font-size="14.00">alpha</text>
</g>
<!-- busy&#45;&gt;idle -->
<g id="edge3" class="edge">
<title>busy&#45;&gt;idle</title>
<path fill="none" stroke="black" d="M167.46,-38.61C161.79,-35.98 155.69,-33.65 149.72,-32.25 137.11,-29.3 123.08,-28.85 110.31,-29.47"/>
<polygon fill="black" stroke="black" points="110.25,-25.96 100.53,-30.19 110.76,-32.95 110.25,-25.96"/>
<text text-anchor="middle" x="133.22" y="-34.7" font-family="Arial" font-size="14.00">beta</text>
</g>
<!-- down -->
<g id="node4" class="node">
<title>down</title>
<path fill="none" stroke="black" d="M326.72,-36C326.72,-36 296.72,-36 296.72,-36 290.72,-36 284.72,-30 284.72,-24 284.72,-24 284.72,-12 284.72,-12 284.72,-6 290.72,0 296.72,0 296.72,0 326.72,0 326.72,0 332.72,0 338.72,-6 338.72,-12 338.72,-12 338.72,-24 338.72,-24 338.72,-30 332.72,-36 326.72,-36"/>
<text text-anchor="middle" x="311.72" y="-12.57" font-family="Arial" font-size="14.00">down</text>
</g>
<!-- busy&#45;&gt;down -->
<g id="edge4" class="edge">
<title>busy&#45;&gt;down</title>
<path fill="none" stroke="black" d="M222.1,-45.74C237.44,-40.94 257.01,-34.81 273.86,-29.54"/>
<polygon fill="black" stroke="black" points="274.52,-33 283.02,-26.67 272.43,-26.32 274.52,-33"/>
<text text-anchor="middle" x="253.22" y="-41.67" font-family="Arial" font-size="14.00">mue</text>
</g>
<!-- down&#45;&gt;idle -->
<g id="edge5" class="edge">
<title>down&#45;&gt;idle</title>
<path fill="none" stroke="black" d="M284.27,-15.47C266.58,-13.9 242.78,-12.05 221.72,-11.25 197.74,-10.34 191.55,-8.42 167.72,-11.25 148.52,-13.53 127.65,-18.23 110.08,-22.86"/>
<polygon fill="black" stroke="black" points="109.25,-19.45 100.52,-25.46 111.09,-26.21 109.25,-19.45"/>
<text text-anchor="middle" x="194.72" y="-13.7" font-family="Arial" font-size="14.00">lambda</text>
</g>
</g>
</svg>
