<?xml version="1.0" encoding="UTF-8" standalone="no"?>
<!DOCTYPE svg PUBLIC "-//W3C//DTD SVG 1.1//EN"
 "http://www.w3.org/Graphics/SVG/1.1/DTD/svg11.dtd">
<!-- Generated by graphviz version 12.2.1 (20241206.2353)
 -->
<!-- Title: very simple machine 1||very simple machine 2 Pages: 1 -->
<svg width="514pt" height="91pt"
 viewBox="0.00 0.00 513.72 90.80" xmlns="http://www.w3.org/2000/svg" xmlns:xlink="http://www.w3.org/1999/xlink">
<g id="graph0" class="graph" transform="scale(1 1) rotate(0) translate(4 86.8)">
<title>very simple machine 1||very simple machine 2</title>
<!-- dot_dummyinit_1 -->
<g id="node1" class="node">
<title>dot_dummyinit_1</title>
</g>
<!-- I|I -->
<g id="node2" class="node">
<title>I|I</title>
<path fill="none" stroke="black" d="M79.72,-39.8C79.72,-39.8 49.72,-39.8 49.72,-39.8 43.72,-39.8 37.72,-33.8 37.72,-27.8 37.72,-27.8 37.72,-15.8 37.72,-15.8 37.72,-9.8 43.72,-3.8 49.72,-3.8 49.72,-3.8 79.72,-3.8 79.72,-3.8 85.72,-3.8 91.72,-9.8 91.72,-15.8 91.72,-15.8 91.72,-27.8 91.72,-27.8 91.72,-33.8 85.72,-39.8 79.72,-39.8"/>
<text text-anchor="start" x="51.1" y="-16.38" font-family="Arial" font-size="14.00">I|I</text>
<polygon fill="black" stroke="none" points="72.35,-11.93 72.35,-31.68 80.35,-31.68 80.35,-11.93 72.35,-11.93"/>
</g>
<!-- dot_dummyinit_1&#45;&gt;I|I -->
<g id="edge1" class="edge">
<title>dot_dummyinit_1&#45;&gt;I|I</title>
<path fill="none" stroke="black" d="M0.77,-21.8C1.57,-21.8 12.96,-21.8 25.83,-21.8"/>
<polygon fill="black" stroke="black" points="25.79,-25.3 35.79,-21.8 25.79,-18.3 25.79,-25.3"/>
</g>
<!-- B|I -->
<g id="node3" class="node">
<title>B|I</title>
<path fill="none" stroke="black" d="M217.72,-82.8C217.72,-82.8 187.72,-82.8 187.72,-82.8 181.72,-82.8 175.72,-76.8 175.72,-70.8 175.72,-70.8 175.72,-58.8 175.72,-58.8 175.72,-52.8 181.72,-46.8 187.72,-46.8 187.72,-46.8 217.72,-46.8 217.72,-46.8 223.72,-46.8 229.72,-52.8 229.72,-58.8 229.72,-58.8 229.72,-70.8 229.72,-70.8 229.72,-76.8 223.72,-82.8 217.72,-82.8"/>
<text text-anchor="middle" x="202.72" y="-59.38" font-family="Arial" font-size="14.00">B|I</text>
</g>
<!-- I|I&#45;&gt;B|I -->
<g id="edge2" class="edge">
<title>I|I&#45;&gt;B|I</title>
<path fill="none" stroke="black" d="M84.39,-39.97C91.72,-46.04 100.57,-52.17 109.72,-55.8 126.81,-62.58 147.03,-65.1 164.15,-65.8"/>
<polygon fill="black" stroke="black" points="163.85,-69.3 173.92,-66.01 164,-62.3 163.85,-69.3"/>
<text text-anchor="middle" x="133.72" y="-67.8" font-family="Arial" font-size="14.00">alpha_1</text>
</g>
<!-- I|B -->
<g id="node4" class="node">
<title>I|B</title>
<path fill="none" stroke="black" d="M493.72,-39.8C493.72,-39.8 463.72,-39.8 463.72,-39.8 457.72,-39.8 451.72,-33.8 451.72,-27.8 451.72,-27.8 451.72,-15.8 451.72,-15.8 451.72,-9.8 457.72,-3.8 463.72,-3.8 463.72,-3.8 493.72,-3.8 493.72,-3.8 499.72,-3.8 505.72,-9.8 505.72,-15.8 505.72,-15.8 505.72,-27.8 505.72,-27.8 505.72,-33.8 499.72,-39.8 493.72,-39.8"/>
<text text-anchor="middle" x="478.72" y="-16.38" font-family="Arial" font-size="14.00">I|B</text>
</g>
<!-- I|I&#45;&gt;I|B -->
<g id="edge3" class="edge">
<title>I|I&#45;&gt;I|B</title>
<path fill="none" stroke="black" d="M91.78,-21.11C97.68,-20.98 103.91,-20.87 109.72,-20.8 131.05,-20.56 136.39,-20.77 157.72,-20.8 259.85,-20.96 380.32,-21.41 440.12,-21.65"/>
<polygon fill="black" stroke="black" points="440.06,-25.15 450.07,-21.69 440.09,-18.15 440.06,-25.15"/>
<text text-anchor="middle" x="271.72" y="-23.58" font-family="Arial" font-size="14.00">alpha_2</text>
</g>
<!-- B|I&#45;&gt;I|I -->
<g id="edge4" class="edge">
<title>B|I&#45;&gt;I|I</title>
<path fill="none" stroke="black" d="M177.59,-46.43C171.39,-42.45 164.54,-38.67 157.72,-36.05 140.43,-29.42 120.19,-25.87 103.11,-23.97"/>
<polygon fill="black" stroke="black" points="103.65,-20.51 93.36,-23.05 102.99,-27.48 103.65,-20.51"/>
<text text-anchor="middle" x="133.72" y="-38.5" font-family="Arial" font-size="14.00">beta_1</text>
</g>
<!-- B|B -->
<g id="node5" class="node">
<title>B|B</title>
<path fill="none" stroke="black" d="M355.72,-82.8C355.72,-82.8 325.72,-82.8 325.72,-82.8 319.72,-82.8 313.72,-76.8 313.72,-70.8 313.72,-70.8 313.72,-58.8 313.72,-58.8 313.72,-52.8 319.72,-46.8 325.72,-46.8 325.72,-46.8 355.72,-46.8 355.72,-46.8 361.72,-46.8 367.72,-52.8 367.72,-58.8 367.72,-58.8 367.72,-70.8 367.72,-70.8 367.72,-76.8 361.72,-82.8 355.72,-82.8"/>
<text text-anchor="middle" x="340.72" y="-59.38" font-family="Arial" font-size="14.00">B|B</text>
</g>
<!-- B|I&#45;&gt;B|B -->
<g id="edge5" class="edge">
<title>B|I&#45;&gt;B|B</title>
<path fill="none" stroke="black" d="M229.94,-64.8C250.45,-64.8 279.23,-64.8 302.18,-64.8"/>
<polygon fill="black" stroke="black" points="302.06,-68.3 312.06,-64.8 302.06,-61.3 302.06,-68.3"/>
<text text-anchor="middle" x="271.72" y="-67.25" font-family="Arial" font-size="14.00">alpha_2</text>
</g>
<!-- I|B&#45;&gt;I|I -->
<g id="edge7" class="edge">
<title>I|B&#45;&gt;I|I</title>
<path fill="none" stroke="black" d="M451.55,-16.93C408.91,-9.55 321.77,3.16 247.72,-1.05 197.58,-3.9 140.05,-11.13 103.32,-16.25"/>
<polygon fill="black" stroke="black" points="103.07,-12.75 93.66,-17.62 104.05,-19.68 103.07,-12.75"/>
<text text-anchor="middle" x="271.72" y="-3.5" font-family="Arial" font-size="14.00">beta_2</text>
</g>
<!-- I|B&#45;&gt;B|B -->
<g id="edge6" class="edge">
<title>I|B&#45;&gt;B|B</title>
<path fill="none" stroke="black" d="M451.34,-24.78C432.61,-27.43 407.1,-32.15 385.72,-40.05 383.22,-40.98 380.7,-42.03 378.19,-43.17"/>
<polygon fill="black" stroke="black" points="376.81,-39.95 369.42,-47.54 379.93,-46.21 376.81,-39.95"/>
<text text-anchor="middle" x="409.72" y="-42.5" font-family="Arial" font-size="14.00">alpha_1</text>
</g>
<!-- B|B&#45;&gt;B|I -->
<g id="edge9" class="edge">
<title>B|B&#45;&gt;B|I</title>
<path fill="none" stroke="black" d="M313.34,-50.82C307.67,-48.43 301.62,-46.31 295.72,-45.05 274.86,-40.58 268.58,-40.58 247.72,-45.05 245.42,-45.55 243.09,-46.17 240.77,-46.89"/>
<polygon fill="black" stroke="black" points="239.69,-43.55 231.52,-50.29 242.11,-50.12 239.69,-43.55"/>
<text text-anchor="middle" x="271.72" y="-47.5" font-family="Arial" font-size="14.00">beta_2</text>
</g>
<!-- B|B&#45;&gt;I|B -->
<g id="edge8" class="edge">
<title>B|B&#45;&gt;I|B</title>
<path fill="none" stroke="black" d="M368,-66.04C386.91,-66.03 412.69,-64.15 433.72,-55.8 439.44,-53.53 445.04,-50.28 450.23,-46.69"/>
<polygon fill="black" stroke="black" points="452.01,-49.73 457.84,-40.89 447.77,-44.16 452.01,-49.73"/>
<text text-anchor="middle" x="409.72" y="-67.8" font-family="Arial" font-size="14.00">beta_1</text>
</g>
</g>
</svg>
