<?xml version="1.0" encoding="UTF-8" standalone="no"?>
<!DOCTYPE svg PUBLIC "-//W3C//DTD SVG 1.1//EN"
 "http://www.w3.org/Graphics/SVG/1.1/DTD/svg11.dtd">
<!-- Generated by graphviz version 12.2.1 (20241206.2353)
 -->
<!-- Title: G1 Pages: 1 -->
<svg width="257pt" height="126pt"
 viewBox="0.00 0.00 256.72 125.75" xmlns="http://www.w3.org/2000/svg" xmlns:xlink="http://www.w3.org/1999/xlink">
<g id="graph0" class="graph" transform="scale(1 1) rotate(0) translate(4 121.75)">
<title>G1</title>
<!-- dot_dummyinit_1 -->
<g id="node1" class="node">
<title>dot_dummyinit_1</title>
</g>
<!-- 1 -->
<g id="node2" class="node">
<title>1</title>
<ellipse fill="none" stroke="black" cx="59.72" cy="-22" rx="18" ry="18"/>
<ellipse fill="none" stroke="black" cx="59.72" cy="-22" rx="22" ry="22"/>
<text text-anchor="middle" x="59.72" y="-16.57" font-family="Arial" font-size="14.00">1</text>
</g>
<!-- dot_dummyinit_1&#45;&gt;1 -->
<g id="edge1" class="edge">
<title>dot_dummyinit_1&#45;&gt;1</title>
<path fill="none" stroke="black" d="M0.89,-22C2.38,-22 13.74,-22 26,-22"/>
<polygon fill="black" stroke="black" points="25.74,-25.5 35.74,-22 25.74,-18.5 25.74,-25.5"/>
</g>
<!-- 1&#45;&gt;1 -->
<g id="edge3" class="edge">
<title>1&#45;&gt;1</title>
<path fill="none" stroke="black" d="M52.31,-42.99C51.4,-53.09 53.87,-62 59.72,-62 63.2,-62 65.48,-58.86 66.57,-54.19"/>
<polygon fill="black" stroke="black" points="70.05,-54.66 67.05,-44.5 63.06,-54.31 70.05,-54.66"/>
<text text-anchor="middle" x="59.72" y="-64.45" font-family="Arial" font-size="14.00">a</text>
</g>
<!-- 2 -->
<g id="node3" class="node">
<title>2</title>
<ellipse fill="none" stroke="black" cx="147.22" cy="-62" rx="18" ry="18"/>
<ellipse fill="none" stroke="black" cx="147.22" cy="-62" rx="22" ry="22"/>
<text text-anchor="middle" x="147.22" y="-56.58" font-family="Arial" font-size="14.00">2</text>
</g>
<!-- 1&#45;&gt;2 -->
<g id="edge2" class="edge">
<title>1&#45;&gt;2</title>
<path fill="none" stroke="black" d="M80.12,-31.08C90.94,-36.14 104.65,-42.55 116.77,-48.22"/>
<polygon fill="black" stroke="black" points="114.98,-51.25 125.52,-52.32 117.95,-44.91 114.98,-51.25"/>
<text text-anchor="middle" x="103.47" y="-45.65" font-family="Arial" font-size="14.00">g</text>
</g>
<!-- 2&#45;&gt;2 -->
<g id="edge8" class="edge">
<title>2&#45;&gt;2</title>
<path fill="none" stroke="black" d="M139.22,-82.99C138.23,-93.09 140.9,-102 147.22,-102 150.97,-102 153.44,-98.86 154.62,-94.19"/>
<polygon fill="black" stroke="black" points="158.1,-94.68 155.14,-84.5 151.11,-94.3 158.1,-94.68"/>
<text text-anchor="middle" x="147.22" y="-104.45" font-family="Arial" font-size="14.00">b</text>
</g>
<!-- 3 -->
<g id="node4" class="node">
<title>3</title>
<ellipse fill="none" stroke="black" cx="230.72" cy="-39" rx="18" ry="18"/>
<text text-anchor="middle" x="230.72" y="-33.58" font-family="Arial" font-size="14.00">3</text>
</g>
<!-- 2&#45;&gt;3 -->
<g id="edge6" class="edge">
<title>2&#45;&gt;3</title>
<path fill="none" stroke="black" d="M169.35,-60.73C177.41,-59.87 186.61,-58.42 194.72,-56 197.88,-55.06 201.1,-53.86 204.25,-52.53"/>
<polygon fill="black" stroke="black" points="205.54,-55.79 213.1,-48.38 202.57,-49.46 205.54,-55.79"/>
<text text-anchor="middle" x="190.97" y="-60.35" font-family="Arial" font-size="14.00">g</text>
</g>
<!-- 2&#45;&gt;3 -->
<g id="edge7" class="edge">
<title>2&#45;&gt;3</title>
<path fill="none" stroke="black" d="M164.59,-48.11C171.19,-43.38 179.14,-38.68 187.22,-36.25 191.71,-34.9 196.59,-34.39 201.38,-34.38"/>
<polygon fill="black" stroke="black" points="201.12,-37.87 211.35,-35.11 201.63,-30.89 201.12,-37.87"/>
<text text-anchor="middle" x="190.97" y="-38.7" font-family="Arial" font-size="14.00">a</text>
</g>
<!-- 3&#45;&gt;1 -->
<g id="edge4" class="edge">
<title>3&#45;&gt;1</title>
<path fill="none" stroke="black" d="M214.28,-31.07C202.33,-25.41 185.19,-18.27 169.22,-15.25 143.87,-10.45 114.66,-12.7 92.94,-15.84"/>
<polygon fill="black" stroke="black" points="92.53,-12.36 83.21,-17.4 93.63,-19.28 92.53,-12.36"/>
<text text-anchor="middle" x="147.22" y="-17.7" font-family="Arial" font-size="14.00">a</text>
</g>
<!-- 3&#45;&gt;3 -->
<g id="edge5" class="edge">
<title>3&#45;&gt;3</title>
<path fill="none" stroke="black" d="M223.68,-56.04C222.24,-65.86 224.59,-75 230.72,-75 234.27,-75 236.55,-71.94 237.56,-67.47"/>
<polygon fill="black" stroke="black" points="241.06,-67.61 237.74,-57.55 234.06,-67.49 241.06,-67.61"/>
<text text-anchor="middle" x="230.72" y="-77.45" font-family="Arial" font-size="14.00">b</text>
</g>
</g>
</svg>
