<?xml version="1.0" encoding="UTF-8" standalone="no"?>
<!DOCTYPE svg PUBLIC "-//W3C//DTD SVG 1.0//EN"
 "http://www.w3.org/TR/2001/REC-SVG-20010904/DTD/svg10.dtd" [
 <!ATTLIST svg xmlns:xlink CDATA #FIXED "http://www.w3.org/1999/xlink">
]>
<!-- Generated by Graphviz version 2.20.2 (Tue Mar &#160;2 21:46:26 UTC 2010)
     For user: (mtmoor) Prof. Thomas Moor -->
<!-- Title: Project(g) [minstate] Pages: 1 -->
<svg width="260pt" height="146pt"
 viewBox="0.00 0.00 260.00 146.00" xmlns="http://www.w3.org/2000/svg" xmlns:xlink="http://www.w3.org/1999/xlink">
<g id="graph0" class="graph" transform="scale(1 1) rotate(0) translate(4 142)">
<title>Project(g) [minstate]</title>
<polygon style="fill:none;stroke:none;" points="-4,4 -4,-142 256,-142 256,4 -4,4"/>
<!-- dot_dummyinit_1 -->
<g id="node1" class="node"><title>dot_dummyinit_1</title>
</g>
<!-- 3 -->
<g id="node3" class="node"><title>3</title>
<ellipse style="fill:none;stroke:black;" cx="58" cy="-65" rx="18" ry="18"/>
<text text-anchor="middle" x="58" y="-60.9" style="font-family:Times New Roman;font-size:14.00;">3</text>
</g>
<!-- dot_dummyinit_1&#45;&gt;3 -->
<g id="edge2" class="edge"><title>dot_dummyinit_1&#45;&gt;3</title>
<path style="fill:none;stroke:black;" d="M2,-65C6,-65 18,-65 30,-65"/>
<polygon style="fill:black;stroke:black;" points="30,-68.5001 40,-65 30,-61.5001 30,-68.5001"/>
</g>
<!-- 2 -->
<g id="node4" class="node"><title>2</title>
<ellipse style="fill:none;stroke:black;" cx="142" cy="-64" rx="18" ry="18"/>
<ellipse style="fill:none;stroke:black;" cx="142" cy="-64" rx="22" ry="22"/>
<text text-anchor="middle" x="142" y="-59.9" style="font-family:Times New Roman;font-size:14.00;">2</text>
</g>
<!-- 3&#45;&gt;2 -->
<g id="edge12" class="edge"><title>3&#45;&gt;2</title>
<path style="fill:none;stroke:black;" d="M72,-54C79,-50 86,-45 94,-43 102,-41 109,-42 116,-45"/>
<polygon style="fill:black;stroke:black;" points="114.559,-48.2031 125,-50 117.958,-42.084 114.559,-48.2031"/>
<text text-anchor="middle" x="98" y="-46.9" style="font-family:Times New Roman;font-size:14.00;">a</text>
</g>
<!-- 1 -->
<g id="node6" class="node"><title>1</title>
<ellipse style="fill:none;stroke:black;" cx="230" cy="-18" rx="18" ry="18"/>
<text text-anchor="middle" x="230" y="-13.9" style="font-family:Times New Roman;font-size:14.00;">1</text>
</g>
<!-- 3&#45;&gt;1 -->
<g id="edge14" class="edge"><title>3&#45;&gt;1</title>
<path style="fill:none;stroke:black;" d="M70,-51C82,-39 100,-23 120,-16 147,-7 179,-9 202,-12"/>
<polygon style="fill:black;stroke:black;" points="201.508,-15.4708 212,-14 202.881,-8.60673 201.508,-15.4708"/>
<text text-anchor="middle" x="142" y="-19.9" style="font-family:Times New Roman;font-size:14.00;">e</text>
</g>
<!-- 2&#45;&gt;3 -->
<g id="edge8" class="edge"><title>2&#45;&gt;3</title>
<path style="fill:none;stroke:black;" d="M120,-64C109,-64 97,-64 86,-64"/>
<polygon style="fill:black;stroke:black;" points="85.6021,-60.5222 76,-65 86.2987,-67.4875 85.6021,-60.5222"/>
<text text-anchor="middle" x="98" y="-67.9" style="font-family:Times New Roman;font-size:14.00;">e</text>
</g>
<!-- 4 -->
<g id="node5" class="node"><title>4</title>
<ellipse style="fill:none;stroke:black;" cx="230" cy="-116" rx="18" ry="18"/>
<ellipse style="fill:none;stroke:black;" cx="230" cy="-116" rx="22" ry="22"/>
<text text-anchor="middle" x="230" y="-111.9" style="font-family:Times New Roman;font-size:14.00;">4</text>
</g>
<!-- 2&#45;&gt;4 -->
<g id="edge10" class="edge"><title>2&#45;&gt;4</title>
<path style="fill:none;stroke:black;" d="M162,-75C170,-79 181,-85 190,-91 194,-93 198,-96 203,-98"/>
<polygon style="fill:black;stroke:black;" points="200.9,-100.8 211,-104 205.1,-95.2 200.9,-100.8"/>
<text text-anchor="middle" x="186" y="-94.9" style="font-family:Times New Roman;font-size:14.00;">c</text>
</g>
<!-- 2&#45;&gt;1 -->
<g id="edge6" class="edge"><title>2&#45;&gt;1</title>
<path style="fill:none;stroke:black;" d="M162,-54C174,-47 191,-38 205,-31"/>
<polygon style="fill:black;stroke:black;" points="206.958,-33.916 214,-26 203.559,-27.7969 206.958,-33.916"/>
<text text-anchor="middle" x="186" y="-45.9" style="font-family:Times New Roman;font-size:14.00;">g</text>
</g>
<!-- 4&#45;&gt;3 -->
<g id="edge16" class="edge"><title>4&#45;&gt;3</title>
<path style="fill:none;stroke:black;" d="M208,-114C181,-110 132,-102 94,-85 90,-83 86,-81 83,-79"/>
<polygon style="fill:black;stroke:black;" points="84.4414,-75.7969 74,-74 81.0418,-81.916 84.4414,-75.7969"/>
<text text-anchor="middle" x="142" y="-107.9" style="font-family:Times New Roman;font-size:14.00;">e</text>
</g>
<!-- 1&#45;&gt;1 -->
<g id="edge4" class="edge"><title>1&#45;&gt;1</title>
<path style="fill:none;stroke:black;" d="M222,-34C220,-44 223,-54 230,-54 234,-54 237,-50 238,-44"/>
<polygon style="fill:black;stroke:black;" points="241.5,-44 238,-34 234.5,-44 241.5,-44"/>
<text text-anchor="middle" x="230" y="-57.9" style="font-family:Times New Roman;font-size:14.00;">g</text>
</g>
</g>
</svg>
