<?xml version="1.0" encoding="UTF-8" standalone="no"?>
<!DOCTYPE svg PUBLIC "-//W3C//DTD SVG 1.1//EN"
 "http://www.w3.org/Graphics/SVG/1.1/DTD/svg11.dtd">
<!-- Generated by graphviz version 12.2.1 (20241206.2353)
 -->
<!-- Title: G Pages: 1 -->
<svg width="720pt" height="139pt"
 viewBox="0.00 0.00 720.00 138.88" xmlns="http://www.w3.org/2000/svg" xmlns:xlink="http://www.w3.org/1999/xlink">
<g id="graph0" class="graph" transform="scale(0.84681 0.84681) rotate(0) translate(4 160)">
<title>G</title>
<!-- dot_dummyinit_1 -->
<g id="node1" class="node">
<title>dot_dummyinit_1</title>
</g>
<!-- s1 -->
<g id="node2" class="node">
<title>s1</title>
<path fill="none" stroke="black" d="M147.25,-78C147.25,-78 117.25,-78 117.25,-78 111.25,-78 105.25,-72 105.25,-66 105.25,-66 105.25,-54 105.25,-54 105.25,-48 111.25,-42 117.25,-42 117.25,-42 147.25,-42 147.25,-42 153.25,-42 159.25,-48 159.25,-54 159.25,-54 159.25,-66 159.25,-66 159.25,-72 153.25,-78 147.25,-78"/>
<text text-anchor="middle" x="132.25" y="-54.58" font-family="Arial" font-size="14.00">s1</text>
</g>
<!-- dot_dummyinit_1&#45;&gt;s1 -->
<g id="edge1" class="edge">
<title>dot_dummyinit_1&#45;&gt;s1</title>
<path fill="none" stroke="black" d="M31.95,-60C33.67,-60 66.16,-60 93.51,-60"/>
<polygon fill="black" stroke="black" points="93.3,-63.5 103.3,-60 93.3,-56.5 93.3,-63.5"/>
</g>
<!-- s2 -->
<g id="node3" class="node">
<title>s2</title>
<path fill="none" stroke="black" d="M245,-78C245,-78 214.75,-78 214.75,-78 208.75,-78 202.75,-72 202.75,-66 202.75,-66 202.75,-54 202.75,-54 202.75,-48 208.75,-42 214.75,-42 214.75,-42 245,-42 245,-42 251,-42 257,-48 257,-54 257,-54 257,-66 257,-66 257,-72 251,-78 245,-78"/>
<text text-anchor="start" x="214.75" y="-54.58" font-family="Arial" font-size="14.00">s2</text>
<polygon fill="black" stroke="none" points="239,-50.12 239,-69.88 247,-69.88 247,-50.12 239,-50.12"/>
</g>
<!-- s1&#45;&gt;s2 -->
<g id="edge2" class="edge">
<title>s1&#45;&gt;s2</title>
<path fill="none" stroke="black" d="M159.63,-60C169.35,-60 180.56,-60 191.09,-60"/>
<polygon fill="black" stroke="black" points="191.06,-63.5 201.06,-60 191.06,-56.5 191.06,-63.5"/>
<text text-anchor="middle" x="181" y="-62.45" font-family="Arial" font-size="14.00">a</text>
</g>
<!-- s2&#45;&gt;s1 -->
<g id="edge4" class="edge">
<title>s2&#45;&gt;s1</title>
<path fill="none" stroke="black" d="M202.29,-43.47C194.39,-40.3 185.6,-38.46 177.25,-40.25 174.95,-40.74 172.62,-41.37 170.3,-42.08"/>
<polygon fill="black" stroke="black" points="169.22,-38.75 161.05,-45.49 171.64,-45.32 169.22,-38.75"/>
<text text-anchor="middle" x="181" y="-42.7" font-family="Arial" font-size="14.00">b</text>
</g>
<!-- s3 -->
<g id="node6" class="node">
<title>s3</title>
<path fill="none" stroke="black" d="M342.5,-78C342.5,-78 312.5,-78 312.5,-78 306.5,-78 300.5,-72 300.5,-66 300.5,-66 300.5,-54 300.5,-54 300.5,-48 306.5,-42 312.5,-42 312.5,-42 342.5,-42 342.5,-42 348.5,-42 354.5,-48 354.5,-54 354.5,-54 354.5,-66 354.5,-66 354.5,-72 348.5,-78 342.5,-78"/>
<text text-anchor="middle" x="327.5" y="-54.58" font-family="Arial" font-size="14.00">s3</text>
</g>
<!-- s2&#45;&gt;s3 -->
<g id="edge3" class="edge">
<title>s2&#45;&gt;s3</title>
<path fill="none" stroke="black" d="M257.26,-60C266.98,-60 278.19,-60 288.72,-60"/>
<polygon fill="black" stroke="black" points="288.69,-63.5 298.69,-60 288.69,-56.5 288.69,-63.5"/>
<text text-anchor="middle" x="278.75" y="-62.45" font-family="Arial" font-size="14.00">a</text>
</g>
<!-- s9 -->
<g id="node4" class="node">
<title>s9</title>
<path fill="none" stroke="black" d="M635.25,-106C635.25,-106 605,-106 605,-106 599,-106 593,-100 593,-94 593,-94 593,-82 593,-82 593,-76 599,-70 605,-70 605,-70 635.25,-70 635.25,-70 641.25,-70 647.25,-76 647.25,-82 647.25,-82 647.25,-94 647.25,-94 647.25,-100 641.25,-106 635.25,-106"/>
<text text-anchor="start" x="605" y="-82.58" font-family="Arial" font-size="14.00">s9</text>
<polygon fill="black" stroke="none" points="629.25,-78.12 629.25,-97.88 637.25,-97.88 637.25,-78.12 629.25,-78.12"/>
</g>
<!-- s10 -->
<g id="node12" class="node">
<title>s10</title>
<path fill="none" stroke="black" d="M732.75,-156C732.75,-156 702.75,-156 702.75,-156 696.75,-156 690.75,-150 690.75,-144 690.75,-144 690.75,-132 690.75,-132 690.75,-126 696.75,-120 702.75,-120 702.75,-120 732.75,-120 732.75,-120 738.75,-120 744.75,-126 744.75,-132 744.75,-132 744.75,-144 744.75,-144 744.75,-150 738.75,-156 732.75,-156"/>
<text text-anchor="middle" x="717.75" y="-132.57" font-family="Arial" font-size="14.00">s10</text>
</g>
<!-- s9&#45;&gt;s10 -->
<g id="edge13" class="edge">
<title>s9&#45;&gt;s10</title>
<path fill="none" stroke="black" d="M647.51,-101.8C657.65,-107.1 669.41,-113.24 680.32,-118.95"/>
<polygon fill="black" stroke="black" points="678.63,-122.02 689.11,-123.55 681.87,-115.81 678.63,-122.02"/>
<text text-anchor="middle" x="669" y="-116.95" font-family="Arial" font-size="14.00">a</text>
</g>
<!-- s11 -->
<g id="node13" class="node">
<title>s11</title>
<path fill="none" stroke="black" d="M732.75,-102C732.75,-102 702.75,-102 702.75,-102 696.75,-102 690.75,-96 690.75,-90 690.75,-90 690.75,-78 690.75,-78 690.75,-72 696.75,-66 702.75,-66 702.75,-66 732.75,-66 732.75,-66 738.75,-66 744.75,-72 744.75,-78 744.75,-78 744.75,-90 744.75,-90 744.75,-96 738.75,-102 732.75,-102"/>
<text text-anchor="middle" x="717.75" y="-78.58" font-family="Arial" font-size="14.00">s11</text>
</g>
<!-- s9&#45;&gt;s11 -->
<g id="edge14" class="edge">
<title>s9&#45;&gt;s11</title>
<path fill="none" stroke="black" d="M647.51,-86.9C657.23,-86.49 668.44,-86.02 678.97,-85.58"/>
<polygon fill="black" stroke="black" points="679.1,-89.08 688.94,-85.16 678.8,-82.08 679.1,-89.08"/>
<text text-anchor="middle" x="669" y="-88.57" font-family="Arial" font-size="14.00">b</text>
</g>
<!-- s20 -->
<g id="node5" class="node">
<title>s20</title>
<path fill="none" stroke="black" d="M49.75,-132C49.75,-132 12,-132 12,-132 6,-132 0,-126 0,-120 0,-120 0,-108 0,-108 0,-102 6,-96 12,-96 12,-96 49.75,-96 49.75,-96 55.75,-96 61.75,-102 61.75,-108 61.75,-108 61.75,-120 61.75,-120 61.75,-126 55.75,-132 49.75,-132"/>
<text text-anchor="start" x="12" y="-108.58" font-family="Arial" font-size="14.00">s20</text>
<polygon fill="black" stroke="none" points="43.75,-104.12 43.75,-123.88 51.75,-123.88 51.75,-104.12 43.75,-104.12"/>
</g>
<!-- s21 -->
<g id="node14" class="node">
<title>s21</title>
<path fill="none" stroke="black" d="M147.25,-146C147.25,-146 117.25,-146 117.25,-146 111.25,-146 105.25,-140 105.25,-134 105.25,-134 105.25,-122 105.25,-122 105.25,-116 111.25,-110 117.25,-110 117.25,-110 147.25,-110 147.25,-110 153.25,-110 159.25,-116 159.25,-122 159.25,-122 159.25,-134 159.25,-134 159.25,-140 153.25,-146 147.25,-146"/>
<text text-anchor="middle" x="132.25" y="-122.58" font-family="Arial" font-size="14.00">s21</text>
</g>
<!-- s20&#45;&gt;s21 -->
<g id="edge15" class="edge">
<title>s20&#45;&gt;s21</title>
<path fill="none" stroke="black" d="M62.23,-118.28C72.1,-119.67 83.18,-121.23 93.52,-122.68"/>
<polygon fill="black" stroke="black" points="92.89,-126.13 103.28,-124.06 93.87,-119.2 92.89,-126.13"/>
<text text-anchor="middle" x="83.5" y="-123.87" font-family="Arial" font-size="14.00">a</text>
</g>
<!-- s4 -->
<g id="node7" class="node">
<title>s4</title>
<path fill="none" stroke="black" d="M440,-78C440,-78 410,-78 410,-78 404,-78 398,-72 398,-66 398,-66 398,-54 398,-54 398,-48 404,-42 410,-42 410,-42 440,-42 440,-42 446,-42 452,-48 452,-54 452,-54 452,-66 452,-66 452,-72 446,-78 440,-78"/>
<text text-anchor="middle" x="425" y="-54.58" font-family="Arial" font-size="14.00">s4</text>
</g>
<!-- s3&#45;&gt;s4 -->
<g id="edge5" class="edge">
<title>s3&#45;&gt;s4</title>
<path fill="none" stroke="black" d="M354.85,-60C364.56,-60 375.75,-60 386.27,-60"/>
<polygon fill="black" stroke="black" points="386.22,-63.5 396.22,-60 386.22,-56.5 386.22,-63.5"/>
<text text-anchor="middle" x="376.25" y="-62.45" font-family="Arial" font-size="14.00">c</text>
</g>
<!-- s4&#45;&gt;s3 -->
<g id="edge7" class="edge">
<title>s4&#45;&gt;s3</title>
<path fill="none" stroke="black" d="M397.62,-46.01C391.95,-43.63 385.9,-41.51 380,-40.25 375.26,-39.23 370.38,-39.39 365.6,-40.3"/>
<polygon fill="black" stroke="black" points="364.76,-36.9 356.2,-43.14 366.78,-43.6 364.76,-36.9"/>
<text text-anchor="middle" x="376.25" y="-42.7" font-family="Arial" font-size="14.00">d</text>
</g>
<!-- s5 -->
<g id="node8" class="node">
<title>s5</title>
<path fill="none" stroke="black" d="M537.5,-78C537.5,-78 507.5,-78 507.5,-78 501.5,-78 495.5,-72 495.5,-66 495.5,-66 495.5,-54 495.5,-54 495.5,-48 501.5,-42 507.5,-42 507.5,-42 537.5,-42 537.5,-42 543.5,-42 549.5,-48 549.5,-54 549.5,-54 549.5,-66 549.5,-66 549.5,-72 543.5,-78 537.5,-78"/>
<text text-anchor="middle" x="522.5" y="-54.58" font-family="Arial" font-size="14.00">s5</text>
</g>
<!-- s4&#45;&gt;s5 -->
<g id="edge6" class="edge">
<title>s4&#45;&gt;s5</title>
<path fill="none" stroke="black" d="M452.35,-60C462.06,-60 473.25,-60 483.77,-60"/>
<polygon fill="black" stroke="black" points="483.72,-63.5 493.72,-60 483.72,-56.5 483.72,-63.5"/>
<text text-anchor="middle" x="473.75" y="-62.45" font-family="Arial" font-size="14.00">b</text>
</g>
<!-- s5&#45;&gt;s9 -->
<g id="edge9" class="edge">
<title>s5&#45;&gt;s9</title>
<path fill="none" stroke="black" d="M549.88,-67.73C559.81,-70.63 571.3,-74 582.02,-77.14"/>
<polygon fill="black" stroke="black" points="580.79,-80.42 591.38,-79.87 582.76,-73.71 580.79,-80.42"/>
<text text-anchor="middle" x="571.25" y="-77.29" font-family="Arial" font-size="14.00">b</text>
</g>
<!-- s6 -->
<g id="node9" class="node">
<title>s6</title>
<path fill="none" stroke="black" d="M635.12,-52C635.12,-52 605.12,-52 605.12,-52 599.12,-52 593.12,-46 593.12,-40 593.12,-40 593.12,-28 593.12,-28 593.12,-22 599.12,-16 605.12,-16 605.12,-16 635.12,-16 635.12,-16 641.12,-16 647.12,-22 647.12,-28 647.12,-28 647.12,-40 647.12,-40 647.12,-46 641.12,-52 635.12,-52"/>
<text text-anchor="middle" x="620.12" y="-28.57" font-family="Arial" font-size="14.00">s6</text>
</g>
<!-- s5&#45;&gt;s6 -->
<g id="edge8" class="edge">
<title>s5&#45;&gt;s6</title>
<path fill="none" stroke="black" d="M549.94,-51.41C555.7,-49.63 561.79,-47.82 567.5,-46.25 572.1,-44.99 576.94,-43.74 581.75,-42.54"/>
<polygon fill="black" stroke="black" points="582.4,-45.98 591.3,-40.23 580.76,-39.18 582.4,-45.98"/>
<text text-anchor="middle" x="571.25" y="-48.7" font-family="Arial" font-size="14.00">a</text>
</g>
<!-- s7 -->
<g id="node10" class="node">
<title>s7</title>
<path fill="none" stroke="black" d="M732.75,-36C732.75,-36 702.75,-36 702.75,-36 696.75,-36 690.75,-30 690.75,-24 690.75,-24 690.75,-12 690.75,-12 690.75,-6 696.75,0 702.75,0 702.75,0 732.75,0 732.75,0 738.75,0 744.75,-6 744.75,-12 744.75,-12 744.75,-24 744.75,-24 744.75,-30 738.75,-36 732.75,-36"/>
<text text-anchor="middle" x="717.75" y="-12.57" font-family="Arial" font-size="14.00">s7</text>
</g>
<!-- s6&#45;&gt;s7 -->
<g id="edge10" class="edge">
<title>s6&#45;&gt;s7</title>
<path fill="none" stroke="black" d="M647.51,-29.59C657.33,-27.94 668.68,-26.04 679.31,-24.26"/>
<polygon fill="black" stroke="black" points="679.67,-27.75 688.96,-22.65 678.52,-20.85 679.67,-27.75"/>
<text text-anchor="middle" x="669" y="-28.93" font-family="Arial" font-size="14.00">b</text>
</g>
<!-- s7&#45;&gt;s6 -->
<g id="edge11" class="edge">
<title>s7&#45;&gt;s6</title>
<path fill="none" stroke="black" d="M690.4,-6.83C682.29,-4.77 673.36,-3.91 665.25,-6.25 661.88,-7.22 658.52,-8.53 655.24,-10.06"/>
<polygon fill="black" stroke="black" points="653.61,-6.97 646.48,-14.81 656.94,-13.12 653.61,-6.97"/>
<text text-anchor="middle" x="669" y="-8.7" font-family="Arial" font-size="14.00">a</text>
</g>
<!-- s8 -->
<g id="node11" class="node">
<title>s8</title>
<path fill="none" stroke="black" d="M830.25,-36C830.25,-36 800.25,-36 800.25,-36 794.25,-36 788.25,-30 788.25,-24 788.25,-24 788.25,-12 788.25,-12 788.25,-6 794.25,0 800.25,0 800.25,0 830.25,0 830.25,0 836.25,0 842.25,-6 842.25,-12 842.25,-12 842.25,-24 842.25,-24 842.25,-30 836.25,-36 830.25,-36"/>
<text text-anchor="middle" x="815.25" y="-12.57" font-family="Arial" font-size="14.00">s8</text>
</g>
<!-- s7&#45;&gt;s8 -->
<g id="edge12" class="edge">
<title>s7&#45;&gt;s8</title>
<path fill="none" stroke="black" d="M745.1,-18C754.81,-18 766,-18 776.52,-18"/>
<polygon fill="black" stroke="black" points="776.47,-21.5 786.47,-18 776.47,-14.5 776.47,-21.5"/>
<text text-anchor="middle" x="766.5" y="-20.45" font-family="Arial" font-size="14.00">a</text>
</g>
<!-- s21&#45;&gt;s20 -->
<g id="edge16" class="edge">
<title>s21&#45;&gt;s20</title>
<path fill="none" stroke="black" d="M106.28,-109.64C100.33,-106.18 93.79,-103.08 87.25,-101.25 82.83,-100.01 78.2,-99.65 73.56,-99.87"/>
<polygon fill="black" stroke="black" points="73.08,-96.41 63.68,-101.29 74.08,-103.34 73.08,-96.41"/>
<text text-anchor="middle" x="83.5" y="-103.7" font-family="Arial" font-size="14.00">b</text>
</g>
</g>
</svg>
