<?xml version="1.0" encoding="UTF-8" standalone="no"?>
<!DOCTYPE svg PUBLIC "-//W3C//DTD SVG 1.1//EN"
 "http://www.w3.org/Graphics/SVG/1.1/DTD/svg11.dtd">
<!-- Generated by graphviz version 12.2.1 (20241206.2353)
 -->
<!-- Title: G2 Pages: 1 -->
<svg width="169pt" height="86pt"
 viewBox="0.00 0.00 169.22 85.75" xmlns="http://www.w3.org/2000/svg" xmlns:xlink="http://www.w3.org/1999/xlink">
<g id="graph0" class="graph" transform="scale(1 1) rotate(0) translate(4 81.75)">
<title>G2</title>
<!-- dot_dummyinit_1 -->
<g id="node1" class="node">
<title>dot_dummyinit_1</title>
</g>
<!-- 1 -->
<g id="node2" class="node">
<title>1</title>
<ellipse fill="none" stroke="black" cx="55.72" cy="-22" rx="18" ry="18"/>
<text text-anchor="middle" x="55.72" y="-16.57" font-family="Arial" font-size="14.00">1</text>
</g>
<!-- dot_dummyinit_1&#45;&gt;1 -->
<g id="edge1" class="edge">
<title>dot_dummyinit_1&#45;&gt;1</title>
<path fill="none" stroke="black" d="M0.87,-22C2.34,-22 13.93,-22 25.99,-22"/>
<polygon fill="black" stroke="black" points="25.86,-25.5 35.86,-22 25.86,-18.5 25.86,-25.5"/>
</g>
<!-- 1&#45;&gt;1 -->
<g id="edge3" class="edge">
<title>1&#45;&gt;1</title>
<path fill="none" stroke="black" d="M49.25,-39.04C47.93,-48.86 50.09,-58 55.72,-58 58.98,-58 61.07,-54.94 62,-50.47"/>
<polygon fill="black" stroke="black" points="65.5,-50.61 62.16,-40.55 58.5,-50.49 65.5,-50.61"/>
<text text-anchor="middle" x="55.72" y="-60.45" font-family="Arial" font-size="14.00">b</text>
</g>
<!-- 2 -->
<g id="node3" class="node">
<title>2</title>
<ellipse fill="none" stroke="black" cx="139.22" cy="-22" rx="18" ry="18"/>
<ellipse fill="none" stroke="black" cx="139.22" cy="-22" rx="22" ry="22"/>
<text text-anchor="middle" x="139.22" y="-16.57" font-family="Arial" font-size="14.00">2</text>
</g>
<!-- 1&#45;&gt;2 -->
<g id="edge2" class="edge">
<title>1&#45;&gt;2</title>
<path fill="none" stroke="black" d="M74,-22C83.2,-22 94.82,-22 105.63,-22"/>
<polygon fill="black" stroke="black" points="105.39,-25.5 115.39,-22 105.39,-18.5 105.39,-25.5"/>
<text text-anchor="middle" x="95.47" y="-24.45" font-family="Arial" font-size="14.00">a</text>
</g>
<!-- 2&#45;&gt;1 -->
<g id="edge5" class="edge">
<title>2&#45;&gt;1</title>
<path fill="none" stroke="black" d="M121.41,-8.94C112.75,-3.75 101.9,0.42 91.72,-2.25 88.08,-3.21 84.41,-4.64 80.9,-6.3"/>
<polygon fill="black" stroke="black" points="79.39,-3.14 72.31,-11.02 82.76,-9.28 79.39,-3.14"/>
<text text-anchor="middle" x="95.47" y="-4.7" font-family="Arial" font-size="14.00">b</text>
</g>
<!-- 2&#45;&gt;2 -->
<g id="edge4" class="edge">
<title>2&#45;&gt;2</title>
<path fill="none" stroke="black" d="M131.22,-42.99C130.23,-53.09 132.9,-62 139.22,-62 142.97,-62 145.44,-58.86 146.62,-54.19"/>
<polygon fill="black" stroke="black" points="150.1,-54.68 147.14,-44.5 143.11,-54.3 150.1,-54.68"/>
<text text-anchor="middle" x="139.22" y="-64.45" font-family="Arial" font-size="14.00">a</text>
</g>
</g>
</svg>
