<?xml version="1.0" encoding="UTF-8" standalone="no"?>
<!DOCTYPE svg PUBLIC "-//W3C//DTD SVG 1.1//EN"
 "http://www.w3.org/Graphics/SVG/1.1/DTD/svg11.dtd">
<!-- Generated by graphviz version 12.2.1 (20241206.2353)
 -->
<!-- Title: g1 Pages: 1 -->
<svg width="392pt" height="98pt"
 viewBox="0.00 0.00 392.22 98.00" xmlns="http://www.w3.org/2000/svg" xmlns:xlink="http://www.w3.org/1999/xlink">
<g id="graph0" class="graph" transform="scale(1 1) rotate(0) translate(4 94)">
<title>g1</title>
<!-- dot_dummyinit_1 -->
<g id="node1" class="node">
<title>dot_dummyinit_1</title>
</g>
<!-- 1 -->
<g id="node2" class="node">
<title>1</title>
<path fill="none" stroke="black" d="M79.72,-63C79.72,-63 49.72,-63 49.72,-63 43.72,-63 37.72,-57 37.72,-51 37.72,-51 37.72,-39 37.72,-39 37.72,-33 43.72,-27 49.72,-27 49.72,-27 79.72,-27 79.72,-27 85.72,-27 91.72,-33 91.72,-39 91.72,-39 91.72,-51 91.72,-51 91.72,-57 85.72,-63 79.72,-63"/>
<text text-anchor="middle" x="64.72" y="-39.58" font-family="Arial" font-size="14.00">1</text>
</g>
<!-- dot_dummyinit_1&#45;&gt;1 -->
<g id="edge1" class="edge">
<title>dot_dummyinit_1&#45;&gt;1</title>
<path fill="none" stroke="black" d="M0.77,-45C1.57,-45 12.96,-45 25.83,-45"/>
<polygon fill="black" stroke="black" points="25.79,-48.5 35.79,-45 25.79,-41.5 25.79,-48.5"/>
</g>
<!-- 2 -->
<g id="node6" class="node">
<title>2</title>
<path fill="none" stroke="black" d="M177.22,-63C177.22,-63 147.22,-63 147.22,-63 141.22,-63 135.22,-57 135.22,-51 135.22,-51 135.22,-39 135.22,-39 135.22,-33 141.22,-27 147.22,-27 147.22,-27 177.22,-27 177.22,-27 183.22,-27 189.22,-33 189.22,-39 189.22,-39 189.22,-51 189.22,-51 189.22,-57 183.22,-63 177.22,-63"/>
<text text-anchor="middle" x="162.22" y="-39.58" font-family="Arial" font-size="14.00">2</text>
</g>
<!-- 1&#45;&gt;2 -->
<g id="edge2" class="edge">
<title>1&#45;&gt;2</title>
<path fill="none" stroke="black" d="M92.07,-45C101.78,-45 112.97,-45 123.49,-45"/>
<polygon fill="black" stroke="black" points="123.44,-48.5 133.44,-45 123.44,-41.5 123.44,-48.5"/>
<text text-anchor="middle" x="113.47" y="-47.45" font-family="Arial" font-size="14.00">a</text>
</g>
<!-- 3 -->
<g id="node3" class="node">
<title>3</title>
<path fill="none" stroke="black" d="M274.72,-90C274.72,-90 244.72,-90 244.72,-90 238.72,-90 232.72,-84 232.72,-78 232.72,-78 232.72,-66 232.72,-66 232.72,-60 238.72,-54 244.72,-54 244.72,-54 274.72,-54 274.72,-54 280.72,-54 286.72,-60 286.72,-66 286.72,-66 286.72,-78 286.72,-78 286.72,-84 280.72,-90 274.72,-90"/>
<text text-anchor="start" x="247.97" y="-66.58" font-family="Arial" font-size="14.00">3</text>
<polygon fill="black" stroke="none" points="265.47,-62.12 265.47,-81.88 273.47,-81.88 273.47,-62.12 265.47,-62.12"/>
</g>
<!-- 4 -->
<g id="node4" class="node">
<title>4</title>
<path fill="none" stroke="black" d="M274.72,-36C274.72,-36 244.72,-36 244.72,-36 238.72,-36 232.72,-30 232.72,-24 232.72,-24 232.72,-12 232.72,-12 232.72,-6 238.72,0 244.72,0 244.72,0 274.72,0 274.72,0 280.72,0 286.72,-6 286.72,-12 286.72,-12 286.72,-24 286.72,-24 286.72,-30 280.72,-36 274.72,-36"/>
<text text-anchor="start" x="247.97" y="-12.57" font-family="Arial" font-size="14.00">4</text>
<polygon fill="black" stroke="none" points="265.47,-8.12 265.47,-27.88 273.47,-27.88 273.47,-8.12 265.47,-8.12"/>
</g>
<!-- 5 -->
<g id="node5" class="node">
<title>5</title>
<path fill="none" stroke="black" d="M372.22,-36C372.22,-36 342.22,-36 342.22,-36 336.22,-36 330.22,-30 330.22,-24 330.22,-24 330.22,-12 330.22,-12 330.22,-6 336.22,0 342.22,0 342.22,0 372.22,0 372.22,0 378.22,0 384.22,-6 384.22,-12 384.22,-12 384.22,-24 384.22,-24 384.22,-30 378.22,-36 372.22,-36"/>
<text text-anchor="start" x="345.47" y="-12.57" font-family="Arial" font-size="14.00">5</text>
<polygon fill="black" stroke="none" points="362.97,-8.12 362.97,-27.88 370.97,-27.88 370.97,-8.12 362.97,-8.12"/>
</g>
<!-- 4&#45;&gt;5 -->
<g id="edge5" class="edge">
<title>4&#45;&gt;5</title>
<path fill="none" stroke="black" d="M287.07,-18C296.78,-18 307.97,-18 318.49,-18"/>
<polygon fill="black" stroke="black" points="318.44,-21.5 328.44,-18 318.44,-14.5 318.44,-21.5"/>
<text text-anchor="middle" x="308.47" y="-20.45" font-family="Arial" font-size="14.00">d</text>
</g>
<!-- 2&#45;&gt;3 -->
<g id="edge3" class="edge">
<title>2&#45;&gt;3</title>
<path fill="none" stroke="black" d="M189.57,-52.45C199.48,-55.25 210.95,-58.5 221.67,-61.52"/>
<polygon fill="black" stroke="black" points="220.43,-64.81 231,-64.16 222.33,-58.07 220.43,-64.81"/>
<text text-anchor="middle" x="210.97" y="-61.76" font-family="Arial" font-size="14.00">b</text>
</g>
<!-- 2&#45;&gt;4 -->
<g id="edge4" class="edge">
<title>2&#45;&gt;4</title>
<path fill="none" stroke="black" d="M189.57,-37.55C199.48,-34.75 210.95,-31.5 221.67,-28.48"/>
<polygon fill="black" stroke="black" points="222.33,-31.93 231,-25.84 220.43,-25.19 222.33,-31.93"/>
<text text-anchor="middle" x="210.97" y="-34.76" font-family="Arial" font-size="14.00">c</text>
</g>
</g>
</svg>
