<?xml version="1.0" encoding="UTF-8" standalone="no"?>
<!DOCTYPE svg PUBLIC "-//W3C//DTD SVG 1.0//EN"
 "http://www.w3.org/TR/2001/REC-SVG-20010904/DTD/svg10.dtd" [
 <!ATTLIST svg xmlns:xlink CDATA #FIXED "http://www.w3.org/1999/xlink">
]>
<!-- Generated by Graphviz version 2.20.2 (Tue Mar &#160;2 21:46:26 UTC 2010)
     For user: (mtmoor) Prof. Thomas Moor -->
<!-- Title: G2 Pages: 1 -->
<svg width="172pt" height="87pt"
 viewBox="0.00 0.00 172.00 87.00" xmlns="http://www.w3.org/2000/svg" xmlns:xlink="http://www.w3.org/1999/xlink">
<g id="graph0" class="graph" transform="scale(1 1) rotate(0) translate(4 83)">
<title>G2</title>
<polygon style="fill:none;stroke:none;" points="-4,4 -4,-83 168,-83 168,4 -4,4"/>
<!-- dot_dummyinit_1 -->
<g id="node1" class="node"><title>dot_dummyinit_1</title>
</g>
<!-- 1 -->
<g id="node3" class="node"><title>1</title>
<ellipse style="fill:none;stroke:black;" cx="58" cy="-22" rx="18" ry="18"/>
<text text-anchor="middle" x="58" y="-17.9" style="font-family:Times New Roman;font-size:14.00;">1</text>
</g>
<!-- dot_dummyinit_1&#45;&gt;1 -->
<g id="edge2" class="edge"><title>dot_dummyinit_1&#45;&gt;1</title>
<path style="fill:none;stroke:black;" d="M2,-22C6,-22 18,-22 30,-22"/>
<polygon style="fill:black;stroke:black;" points="30,-25.5001 40,-22 30,-18.5001 30,-25.5001"/>
</g>
<!-- 1&#45;&gt;1 -->
<g id="edge6" class="edge"><title>1&#45;&gt;1</title>
<path style="fill:none;stroke:black;" d="M52,-39C50,-49 52,-58 58,-58 62,-58 64,-54 65,-49"/>
<polygon style="fill:black;stroke:black;" points="68.4778,-48.6021 64,-39 61.5125,-49.2987 68.4778,-48.6021"/>
<text text-anchor="middle" x="58" y="-61.9" style="font-family:Times New Roman;font-size:14.00;">b</text>
</g>
<!-- 2 -->
<g id="node4" class="node"><title>2</title>
<ellipse style="fill:none;stroke:black;" cx="142" cy="-22" rx="18" ry="18"/>
<ellipse style="fill:none;stroke:black;" cx="142" cy="-22" rx="22" ry="22"/>
<text text-anchor="middle" x="142" y="-17.9" style="font-family:Times New Roman;font-size:14.00;">2</text>
</g>
<!-- 1&#45;&gt;2 -->
<g id="edge4" class="edge"><title>1&#45;&gt;2</title>
<path style="fill:none;stroke:black;" d="M76,-22C86,-22 98,-22 110,-22"/>
<polygon style="fill:black;stroke:black;" points="110,-25.5001 120,-22 110,-18.5001 110,-25.5001"/>
<text text-anchor="middle" x="98" y="-25.9" style="font-family:Times New Roman;font-size:14.00;">a</text>
</g>
<!-- 2&#45;&gt;1 -->
<g id="edge10" class="edge"><title>2&#45;&gt;1</title>
<path style="fill:none;stroke:black;" d="M125,-8C116,-3 105,2 94,-1 90,-2 86,-4 82,-6"/>
<polygon style="fill:black;stroke:black;" points="80.0418,-3.08397 73,-11 83.4414,-9.20308 80.0418,-3.08397"/>
<text text-anchor="middle" x="98" y="-5.9" style="font-family:Times New Roman;font-size:14.00;">b</text>
</g>
<!-- 2&#45;&gt;2 -->
<g id="edge8" class="edge"><title>2&#45;&gt;2</title>
<path style="fill:none;stroke:black;" d="M134,-43C133,-53 136,-62 142,-62 146,-62 148,-58 150,-53"/>
<polygon style="fill:black;stroke:black;" points="153.5,-53 150,-43 146.5,-53 153.5,-53"/>
<text text-anchor="middle" x="142" y="-65.9" style="font-family:Times New Roman;font-size:14.00;">a</text>
</g>
</g>
</svg>
