<?xml version="1.0" encoding="UTF-8" standalone="no"?>
<!DOCTYPE svg PUBLIC "-//W3C//DTD SVG 1.1//EN"
 "http://www.w3.org/Graphics/SVG/1.1/DTD/svg11.dtd">
<!-- Generated by graphviz version 12.2.1 (20241206.2353)
 -->
<!-- Title: g1 Pages: 1 -->
<svg width="249pt" height="106pt"
 viewBox="0.00 0.00 248.72 106.00" xmlns="http://www.w3.org/2000/svg" xmlns:xlink="http://www.w3.org/1999/xlink">
<g id="graph0" class="graph" transform="scale(1 1) rotate(0) translate(4 102)">
<title>g1</title>
<!-- dot_dummyinit_1 -->
<g id="node1" class="node">
<title>dot_dummyinit_1</title>
</g>
<!-- 1 -->
<g id="node2" class="node">
<title>1</title>
<ellipse fill="none" stroke="black" cx="55.72" cy="-47" rx="18" ry="18"/>
<text text-anchor="middle" x="55.72" y="-41.58" font-family="Arial" font-size="14.00">1</text>
</g>
<!-- dot_dummyinit_1&#45;&gt;1 -->
<g id="edge1" class="edge">
<title>dot_dummyinit_1&#45;&gt;1</title>
<path fill="none" stroke="black" d="M0.87,-47C2.34,-47 13.93,-47 25.99,-47"/>
<polygon fill="black" stroke="black" points="25.86,-50.5 35.86,-47 25.86,-43.5 25.86,-50.5"/>
</g>
<!-- 2 -->
<g id="node4" class="node">
<title>2</title>
<ellipse fill="none" stroke="black" cx="135.22" cy="-47" rx="18" ry="18"/>
<text text-anchor="middle" x="135.22" y="-41.58" font-family="Arial" font-size="14.00">2</text>
</g>
<!-- 1&#45;&gt;2 -->
<g id="edge2" class="edge">
<title>1&#45;&gt;2</title>
<path fill="none" stroke="black" d="M73.92,-47C83.19,-47 94.86,-47 105.47,-47"/>
<polygon fill="black" stroke="black" points="105.29,-50.5 115.29,-47 105.29,-43.5 105.29,-50.5"/>
<text text-anchor="middle" x="95.47" y="-49.45" font-family="Arial" font-size="14.00">d</text>
</g>
<!-- 3 -->
<g id="node3" class="node">
<title>3</title>
<ellipse fill="none" stroke="black" cx="218.72" cy="-76" rx="18" ry="18"/>
<ellipse fill="none" stroke="black" cx="218.72" cy="-76" rx="22" ry="22"/>
<text text-anchor="middle" x="218.72" y="-70.58" font-family="Arial" font-size="14.00">3</text>
</g>
<!-- 2&#45;&gt;3 -->
<g id="edge4" class="edge">
<title>2&#45;&gt;3</title>
<path fill="none" stroke="black" d="M152.71,-52.87C162.51,-56.36 175.25,-60.89 186.86,-65.02"/>
<polygon fill="black" stroke="black" points="185.48,-68.24 196.07,-68.3 187.82,-61.65 185.48,-68.24"/>
<text text-anchor="middle" x="174.97" y="-63.95" font-family="Arial" font-size="14.00">u</text>
</g>
<!-- 4 -->
<g id="node5" class="node">
<title>4</title>
<ellipse fill="none" stroke="black" cx="218.72" cy="-18" rx="18" ry="18"/>
<text text-anchor="middle" x="218.72" y="-12.57" font-family="Arial" font-size="14.00">4</text>
</g>
<!-- 2&#45;&gt;4 -->
<g id="edge3" class="edge">
<title>2&#45;&gt;4</title>
<path fill="none" stroke="black" d="M152.71,-41.13C163.54,-37.28 177.96,-32.15 190.46,-27.7"/>
<polygon fill="black" stroke="black" points="191.58,-31.02 199.83,-24.37 189.23,-24.42 191.58,-31.02"/>
<text text-anchor="middle" x="174.97" y="-36.69" font-family="Arial" font-size="14.00">a</text>
</g>
</g>
</svg>
