<?xml version="1.0" encoding="UTF-8" standalone="no"?>
<!DOCTYPE svg PUBLIC "-//W3C//DTD SVG 1.1//EN"
 "http://www.w3.org/Graphics/SVG/1.1/DTD/svg11.dtd">
<!-- Generated by graphviz version 12.2.1 (20241206.2353)
 -->
<!-- Title: G1||G2 Pages: 1 -->
<svg width="597pt" height="272pt"
 viewBox="0.00 0.00 596.72 271.75" xmlns="http://www.w3.org/2000/svg" xmlns:xlink="http://www.w3.org/1999/xlink">
<g id="graph0" class="graph" transform="scale(1 1) rotate(0) translate(4 267.75)">
<title>G1||G2</title>
<!-- dot_dummyinit_1 -->
<g id="node1" class="node">
<title>dot_dummyinit_1</title>
</g>
<!-- 1|1 -->
<g id="node2" class="node">
<title>1|1</title>
<path fill="none" stroke="black" d="M79.72,-58C79.72,-58 49.72,-58 49.72,-58 43.72,-58 37.72,-52 37.72,-46 37.72,-46 37.72,-34 37.72,-34 37.72,-28 43.72,-22 49.72,-22 49.72,-22 79.72,-22 79.72,-22 85.72,-22 91.72,-28 91.72,-34 91.72,-34 91.72,-46 91.72,-46 91.72,-52 85.72,-58 79.72,-58"/>
<text text-anchor="middle" x="64.72" y="-34.58" font-family="Arial" font-size="14.00">1|1</text>
</g>
<!-- dot_dummyinit_1&#45;&gt;1|1 -->
<g id="edge1" class="edge">
<title>dot_dummyinit_1&#45;&gt;1|1</title>
<path fill="none" stroke="black" d="M0.77,-40C1.57,-40 12.96,-40 25.83,-40"/>
<polygon fill="black" stroke="black" points="25.79,-43.5 35.79,-40 25.79,-36.5 25.79,-43.5"/>
</g>
<!-- 1|2 -->
<g id="node3" class="node">
<title>1|2</title>
<path fill="none" stroke="black" d="M181.97,-208C181.97,-208 147.22,-208 147.22,-208 141.22,-208 135.22,-202 135.22,-196 135.22,-196 135.22,-184 135.22,-184 135.22,-178 141.22,-172 147.22,-172 147.22,-172 181.97,-172 181.97,-172 187.97,-172 193.97,-178 193.97,-184 193.97,-184 193.97,-196 193.97,-196 193.97,-202 187.97,-208 181.97,-208"/>
<text text-anchor="start" x="147.22" y="-184.57" font-family="Arial" font-size="14.00">1|2</text>
<polygon fill="black" stroke="none" points="175.97,-180.12 175.97,-199.88 183.97,-199.88 183.97,-180.12 175.97,-180.12"/>
</g>
<!-- 1|1&#45;&gt;1|2 -->
<g id="edge3" class="edge">
<title>1|1&#45;&gt;1|2</title>
<path fill="none" stroke="black" d="M77.72,-58.39C94.69,-84.4 125.82,-132.11 145.58,-162.38"/>
<polygon fill="black" stroke="black" points="142.58,-164.2 150.97,-170.66 148.44,-160.37 142.58,-164.2"/>
<text text-anchor="middle" x="113.47" y="-117.45" font-family="Arial" font-size="14.00">a</text>
</g>
<!-- 2|1 -->
<g id="node5" class="node">
<title>2|1</title>
<path fill="none" stroke="black" d="M381.72,-36C381.72,-36 351.72,-36 351.72,-36 345.72,-36 339.72,-30 339.72,-24 339.72,-24 339.72,-12 339.72,-12 339.72,-6 345.72,0 351.72,0 351.72,0 381.72,0 381.72,0 387.72,0 393.72,-6 393.72,-12 393.72,-12 393.72,-24 393.72,-24 393.72,-30 387.72,-36 381.72,-36"/>
<text text-anchor="middle" x="366.72" y="-12.57" font-family="Arial" font-size="14.00">2|1</text>
</g>
<!-- 1|1&#45;&gt;2|1 -->
<g id="edge2" class="edge">
<title>1|1&#45;&gt;2|1</title>
<path fill="none" stroke="black" d="M92.08,-38.07C145.54,-34.15 266.85,-25.25 328.4,-20.74"/>
<polygon fill="black" stroke="black" points="328.3,-24.25 338.02,-20.03 327.79,-17.27 328.3,-24.25"/>
<text text-anchor="middle" x="215.72" y="-31.7" font-family="Arial" font-size="14.00">g</text>
</g>
<!-- 1|2&#45;&gt;1|2 -->
<g id="edge8" class="edge">
<title>1|2&#45;&gt;1|2</title>
<path fill="none" stroke="black" d="M155.35,-208.15C153.92,-217.54 157.01,-226 164.6,-226 168.86,-226 171.71,-223.32 173.12,-219.31"/>
<polygon fill="black" stroke="black" points="176.6,-219.87 173.75,-209.66 169.61,-219.42 176.6,-219.87"/>
<text text-anchor="middle" x="164.6" y="-228.45" font-family="Arial" font-size="14.00">a</text>
</g>
<!-- 2|2 -->
<g id="node4" class="node">
<title>2|2</title>
<path fill="none" stroke="black" d="M284.22,-136C284.22,-136 249.47,-136 249.47,-136 243.47,-136 237.47,-130 237.47,-124 237.47,-124 237.47,-112 237.47,-112 237.47,-106 243.47,-100 249.47,-100 249.47,-100 284.22,-100 284.22,-100 290.22,-100 296.22,-106 296.22,-112 296.22,-112 296.22,-124 296.22,-124 296.22,-130 290.22,-136 284.22,-136"/>
<text text-anchor="start" x="249.47" y="-112.58" font-family="Arial" font-size="14.00">2|2</text>
<polygon fill="black" stroke="none" points="278.22,-108.12 278.22,-127.88 286.22,-127.88 286.22,-108.12 278.22,-108.12"/>
</g>
<!-- 1|2&#45;&gt;2|2 -->
<g id="edge7" class="edge">
<title>1|2&#45;&gt;2|2</title>
<path fill="none" stroke="black" d="M191.15,-171.65C203.29,-162.93 217.98,-152.38 231.11,-142.95"/>
<polygon fill="black" stroke="black" points="233.03,-145.88 239.11,-137.2 228.94,-140.2 233.03,-145.88"/>
<text text-anchor="middle" x="215.72" y="-158.61" font-family="Arial" font-size="14.00">g</text>
</g>
<!-- 2|2&#45;&gt;2|1 -->
<g id="edge11" class="edge">
<title>2|2&#45;&gt;2|1</title>
<path fill="none" stroke="black" d="M285.8,-99.66C300.97,-84.15 322.9,-61.75 339.95,-44.32"/>
<polygon fill="black" stroke="black" points="342.33,-46.9 346.82,-37.31 337.33,-42.01 342.33,-46.9"/>
<text text-anchor="middle" x="317.97" y="-70.45" font-family="Arial" font-size="14.00">b</text>
</g>
<!-- 3|2 -->
<g id="node6" class="node">
<title>3|2</title>
<path fill="none" stroke="black" d="M479.22,-150C479.22,-150 449.22,-150 449.22,-150 443.22,-150 437.22,-144 437.22,-138 437.22,-138 437.22,-126 437.22,-126 437.22,-120 443.22,-114 449.22,-114 449.22,-114 479.22,-114 479.22,-114 485.22,-114 491.22,-120 491.22,-126 491.22,-126 491.22,-138 491.22,-138 491.22,-144 485.22,-150 479.22,-150"/>
<text text-anchor="middle" x="464.22" y="-126.58" font-family="Arial" font-size="14.00">3|2</text>
</g>
<!-- 2|2&#45;&gt;3|2 -->
<g id="edge9" class="edge">
<title>2|2&#45;&gt;3|2</title>
<path fill="none" stroke="black" d="M296.49,-121.6C309.64,-123.15 325.45,-124.86 339.72,-126 368.59,-128.31 401.33,-129.85 425.85,-130.79"/>
<polygon fill="black" stroke="black" points="425.53,-134.28 435.66,-131.15 425.79,-127.29 425.53,-134.28"/>
<text text-anchor="middle" x="366.72" y="-131.77" font-family="Arial" font-size="14.00">g</text>
</g>
<!-- 2|2&#45;&gt;3|2 -->
<g id="edge10" class="edge">
<title>2|2&#45;&gt;3|2</title>
<path fill="none" stroke="black" d="M296.53,-110.95C322.16,-105.68 360.67,-100.32 393.72,-106.25 404.51,-108.18 415.81,-111.68 426.1,-115.49"/>
<polygon fill="black" stroke="black" points="424.78,-118.73 435.37,-119.13 427.34,-112.22 424.78,-118.73"/>
<text text-anchor="middle" x="366.72" y="-108.7" font-family="Arial" font-size="14.00">a</text>
</g>
<!-- 2|1&#45;&gt;2|1 -->
<g id="edge6" class="edge">
<title>2|1&#45;&gt;2|1</title>
<path fill="none" stroke="black" d="M357.9,-36.15C356.54,-45.54 359.48,-54 366.72,-54 370.79,-54 373.5,-51.32 374.85,-47.31"/>
<polygon fill="black" stroke="black" points="378.33,-47.86 375.45,-37.66 371.34,-47.43 378.33,-47.86"/>
<text text-anchor="middle" x="366.72" y="-56.45" font-family="Arial" font-size="14.00">b</text>
</g>
<!-- 2|1&#45;&gt;3|2 -->
<g id="edge5" class="edge">
<title>2|1&#45;&gt;3|2</title>
<path fill="none" stroke="black" d="M384.46,-36.4C394.66,-47.75 407.88,-62.68 419.22,-76.25 426.85,-85.38 434.98,-95.55 442.14,-104.67"/>
<polygon fill="black" stroke="black" points="439.36,-106.8 448.27,-112.52 444.88,-102.49 439.36,-106.8"/>
<text text-anchor="middle" x="415.47" y="-78.7" font-family="Arial" font-size="14.00">a</text>
</g>
<!-- 3|1 -->
<g id="node7" class="node">
<title>3|1</title>
<path fill="none" stroke="black" d="M576.72,-150C576.72,-150 546.72,-150 546.72,-150 540.72,-150 534.72,-144 534.72,-138 534.72,-138 534.72,-126 534.72,-126 534.72,-120 540.72,-114 546.72,-114 546.72,-114 576.72,-114 576.72,-114 582.72,-114 588.72,-120 588.72,-126 588.72,-126 588.72,-138 588.72,-138 588.72,-144 582.72,-150 576.72,-150"/>
<text text-anchor="middle" x="561.72" y="-126.58" font-family="Arial" font-size="14.00">3|1</text>
</g>
<!-- 2|1&#45;&gt;3|1 -->
<g id="edge4" class="edge">
<title>2|1&#45;&gt;3|1</title>
<path fill="none" stroke="black" d="M393.87,-32.8C418.95,-47.07 457.83,-69.36 491.22,-89.25 502.21,-95.8 514.1,-103.05 524.89,-109.69"/>
<polygon fill="black" stroke="black" points="522.79,-112.51 533.14,-114.79 526.47,-106.56 522.79,-112.51"/>
<text text-anchor="middle" x="464.22" y="-91.7" font-family="Arial" font-size="14.00">g</text>
</g>
<!-- 3|2&#45;&gt;1|2 -->
<g id="edge12" class="edge">
<title>3|2&#45;&gt;1|2</title>
<path fill="none" stroke="black" d="M436.77,-139.55C431.01,-141.1 424.93,-142.66 419.22,-144 407.97,-146.63 405.07,-146.87 393.72,-149 327.87,-161.37 251.17,-174.99 205.6,-183.01"/>
<polygon fill="black" stroke="black" points="205.17,-179.53 195.92,-184.71 206.38,-186.42 205.17,-179.53"/>
<text text-anchor="middle" x="317.97" y="-165.66" font-family="Arial" font-size="14.00">a</text>
</g>
<!-- 3|2&#45;&gt;3|1 -->
<g id="edge13" class="edge">
<title>3|2&#45;&gt;3|1</title>
<path fill="none" stroke="black" d="M491.57,-132C501.28,-132 512.47,-132 522.99,-132"/>
<polygon fill="black" stroke="black" points="522.94,-135.5 532.94,-132 522.94,-128.5 522.94,-135.5"/>
<text text-anchor="middle" x="512.97" y="-134.45" font-family="Arial" font-size="14.00">b</text>
</g>
<!-- 3|1&#45;&gt;1|2 -->
<g id="edge14" class="edge">
<title>3|1&#45;&gt;1|2</title>
<path fill="none" stroke="black" d="M555.1,-150.38C543.83,-183.09 515.17,-248 465.22,-248 265.85,-248 265.85,-248 265.85,-248 238.2,-248 211.33,-231.27 192.38,-215.78"/>
<polygon fill="black" stroke="black" points="194.75,-213.2 184.89,-209.34 190.19,-218.51 194.75,-213.2"/>
<text text-anchor="middle" x="366.72" y="-250.45" font-family="Arial" font-size="14.00">a</text>
</g>
<!-- 3|1&#45;&gt;3|1 -->
<g id="edge15" class="edge">
<title>3|1&#45;&gt;3|1</title>
<path fill="none" stroke="black" d="M552.9,-150.15C551.54,-159.54 554.48,-168 561.72,-168 565.79,-168 568.5,-165.32 569.85,-161.31"/>
<polygon fill="black" stroke="black" points="573.33,-161.86 570.45,-151.66 566.34,-161.43 573.33,-161.86"/>
<text text-anchor="middle" x="561.72" y="-170.45" font-family="Arial" font-size="14.00">b</text>
</g>
</g>
</svg>
