<?xml version="1.0" encoding="UTF-8" standalone="no"?>
<!DOCTYPE svg PUBLIC "-//W3C//DTD SVG 1.1//EN"
 "http://www.w3.org/Graphics/SVG/1.1/DTD/svg11.dtd">
<!-- Generated by graphviz version 12.2.1 (20241206.2353)
 -->
<!-- Title: languagedifference_g2 Pages: 1 -->
<svg width="295pt" height="107pt"
 viewBox="0.00 0.00 294.72 107.00" xmlns="http://www.w3.org/2000/svg" xmlns:xlink="http://www.w3.org/1999/xlink">
<g id="graph0" class="graph" transform="scale(1 1) rotate(0) translate(4 103)">
<title>languagedifference_g2</title>
<!-- dot_dummyinit_1 -->
<g id="node1" class="node">
<title>dot_dummyinit_1</title>
</g>
<!-- 1 -->
<g id="node2" class="node">
<title>1</title>
<path fill="none" stroke="black" d="M79.72,-43C79.72,-43 49.72,-43 49.72,-43 43.72,-43 37.72,-37 37.72,-31 37.72,-31 37.72,-19 37.72,-19 37.72,-13 43.72,-7 49.72,-7 49.72,-7 79.72,-7 79.72,-7 85.72,-7 91.72,-13 91.72,-19 91.72,-19 91.72,-31 91.72,-31 91.72,-37 85.72,-43 79.72,-43"/>
<text text-anchor="start" x="52.97" y="-19.57" font-family="Arial" font-size="14.00">1</text>
<polygon fill="black" stroke="none" points="70.47,-15.12 70.47,-34.88 78.47,-34.88 78.47,-15.12 70.47,-15.12"/>
</g>
<!-- dot_dummyinit_1&#45;&gt;1 -->
<g id="edge1" class="edge">
<title>dot_dummyinit_1&#45;&gt;1</title>
<path fill="none" stroke="black" d="M0.77,-25C1.57,-25 12.96,-25 25.83,-25"/>
<polygon fill="black" stroke="black" points="25.79,-28.5 35.79,-25 25.79,-21.5 25.79,-28.5"/>
</g>
<!-- 2 -->
<g id="node3" class="node">
<title>2</title>
<path fill="none" stroke="black" d="M177.22,-79C177.22,-79 147.22,-79 147.22,-79 141.22,-79 135.22,-73 135.22,-67 135.22,-67 135.22,-55 135.22,-55 135.22,-49 141.22,-43 147.22,-43 147.22,-43 177.22,-43 177.22,-43 183.22,-43 189.22,-49 189.22,-55 189.22,-55 189.22,-67 189.22,-67 189.22,-73 183.22,-79 177.22,-79"/>
<text text-anchor="start" x="150.47" y="-55.58" font-family="Arial" font-size="14.00">2</text>
<polygon fill="black" stroke="none" points="167.97,-51.12 167.97,-70.88 175.97,-70.88 175.97,-51.12 167.97,-51.12"/>
</g>
<!-- 1&#45;&gt;2 -->
<g id="edge2" class="edge">
<title>1&#45;&gt;2</title>
<path fill="none" stroke="black" d="M92.07,-34.93C102.09,-38.71 113.7,-43.08 124.5,-47.16"/>
<polygon fill="black" stroke="black" points="122.95,-50.31 133.54,-50.57 125.42,-43.76 122.95,-50.31"/>
<text text-anchor="middle" x="113.47" y="-46.53" font-family="Arial" font-size="14.00">a</text>
</g>
<!-- 4 -->
<g id="node4" class="node">
<title>4</title>
<path fill="none" stroke="black" d="M274.72,-99C274.72,-99 244.72,-99 244.72,-99 238.72,-99 232.72,-93 232.72,-87 232.72,-87 232.72,-75 232.72,-75 232.72,-69 238.72,-63 244.72,-63 244.72,-63 274.72,-63 274.72,-63 280.72,-63 286.72,-69 286.72,-75 286.72,-75 286.72,-87 286.72,-87 286.72,-93 280.72,-99 274.72,-99"/>
<text text-anchor="start" x="247.97" y="-75.58" font-family="Arial" font-size="14.00">4</text>
<polygon fill="black" stroke="none" points="265.47,-71.12 265.47,-90.88 273.47,-90.88 273.47,-71.12 265.47,-71.12"/>
</g>
<!-- 2&#45;&gt;4 -->
<g id="edge4" class="edge">
<title>2&#45;&gt;4</title>
<path fill="none" stroke="black" d="M189.57,-66.52C199.38,-68.57 210.71,-70.95 221.33,-73.17"/>
<polygon fill="black" stroke="black" points="220.47,-76.57 230.98,-75.19 221.91,-69.71 220.47,-76.57"/>
<text text-anchor="middle" x="210.97" y="-74.05" font-family="Arial" font-size="14.00">e</text>
</g>
<!-- 3 -->
<g id="node5" class="node">
<title>3</title>
<path fill="none" stroke="black" d="M274.72,-36C274.72,-36 244.72,-36 244.72,-36 238.72,-36 232.72,-30 232.72,-24 232.72,-24 232.72,-12 232.72,-12 232.72,-6 238.72,0 244.72,0 244.72,0 274.72,0 274.72,0 280.72,0 286.72,-6 286.72,-12 286.72,-12 286.72,-24 286.72,-24 286.72,-30 280.72,-36 274.72,-36"/>
<text text-anchor="middle" x="259.72" y="-12.57" font-family="Arial" font-size="14.00">3</text>
</g>
<!-- 2&#45;&gt;3 -->
<g id="edge3" class="edge">
<title>2&#45;&gt;3</title>
<path fill="none" stroke="black" d="M189.57,-49.14C199.59,-44.62 211.2,-39.4 222,-34.53"/>
<polygon fill="black" stroke="black" points="223.4,-37.74 231.08,-30.45 220.52,-31.36 223.4,-37.74"/>
<text text-anchor="middle" x="210.97" y="-43.24" font-family="Arial" font-size="14.00">b</text>
</g>
<!-- 3&#45;&gt;1 -->
<g id="edge5" class="edge">
<title>3&#45;&gt;1</title>
<path fill="none" stroke="black" d="M232.68,-17.34C207.67,-16.87 168.84,-16.59 135.22,-18.25 124.84,-18.76 113.62,-19.69 103.28,-20.7"/>
<polygon fill="black" stroke="black" points="103.17,-17.19 93.58,-21.69 103.89,-24.15 103.17,-17.19"/>
<text text-anchor="middle" x="162.22" y="-20.7" font-family="Arial" font-size="14.00">c</text>
</g>
</g>
</svg>
