<?xml version="1.0" encoding="UTF-8" standalone="no"?>
<!DOCTYPE svg PUBLIC "-//W3C//DTD SVG 1.0//EN"
 "http://www.w3.org/TR/2001/REC-SVG-20010904/DTD/svg10.dtd" [
 <!ATTLIST svg xmlns:xlink CDATA #FIXED "http://www.w3.org/1999/xlink">
]>
<!-- Generated by Graphviz version 2.20.2 (Tue Mar &#160;2 21:46:26 UTC 2010)
     For user: (mtmoor) Prof. Thomas Moor -->
<!-- Title: g Pages: 1 -->
<svg width="340pt" height="294pt"
 viewBox="0.00 0.00 340.00 294.00" xmlns="http://www.w3.org/2000/svg" xmlns:xlink="http://www.w3.org/1999/xlink">
<g id="graph0" class="graph" transform="scale(1 1) rotate(0) translate(4 290)">
<title>g</title>
<polygon style="fill:none;stroke:none;" points="-4,4 -4,-290 336,-290 336,4 -4,4"/>
<!-- dot_dummyinit_1 -->
<g id="node1" class="node"><title>dot_dummyinit_1</title>
</g>
<!-- 1 -->
<g id="node3" class="node"><title>1</title>
<ellipse style="fill:none;stroke:black;" cx="58" cy="-202" rx="18" ry="18"/>
<text text-anchor="middle" x="58" y="-197.9" style="font-family:Times New Roman;font-size:14.00;">1</text>
</g>
<!-- dot_dummyinit_1&#45;&gt;1 -->
<g id="edge2" class="edge"><title>dot_dummyinit_1&#45;&gt;1</title>
<path style="fill:none;stroke:black;" d="M2,-202C6,-202 18,-202 30,-202"/>
<polygon style="fill:black;stroke:black;" points="30,-205.5 40,-202 30,-198.5 30,-205.5"/>
</g>
<!-- 2 -->
<g id="node5" class="node"><title>2</title>
<ellipse style="fill:none;stroke:black;" cx="138" cy="-202" rx="18" ry="18"/>
<text text-anchor="middle" x="138" y="-197.9" style="font-family:Times New Roman;font-size:14.00;">2</text>
</g>
<!-- 1&#45;&gt;2 -->
<g id="edge4" class="edge"><title>1&#45;&gt;2</title>
<path style="fill:none;stroke:black;" d="M76,-202C86,-202 99,-202 110,-202"/>
<polygon style="fill:black;stroke:black;" points="110,-205.5 120,-202 110,-198.5 110,-205.5"/>
<text text-anchor="middle" x="98" y="-205.9" style="font-family:Times New Roman;font-size:14.00;">a</text>
</g>
<!-- 5 -->
<g id="node7" class="node"><title>5</title>
<ellipse style="fill:none;stroke:black;" cx="224" cy="-261" rx="18" ry="18"/>
<text text-anchor="middle" x="224" y="-256.9" style="font-family:Times New Roman;font-size:14.00;">5</text>
</g>
<!-- 1&#45;&gt;5 -->
<g id="edge6" class="edge"><title>1&#45;&gt;5</title>
<path style="fill:none;stroke:black;" d="M73,-212C80,-215 87,-220 94,-223 129,-239 138,-243 174,-253 181,-254 189,-256 196,-257"/>
<polygon style="fill:black;stroke:black;" points="195.508,-260.471 206,-259 196.881,-253.607 195.508,-260.471"/>
<text text-anchor="middle" x="138" y="-249.9" style="font-family:Times New Roman;font-size:14.00;">e</text>
</g>
<!-- 4 -->
<g id="node4" class="node"><title>4</title>
<ellipse style="fill:none;stroke:black;" cx="310" cy="-114" rx="18" ry="18"/>
<ellipse style="fill:none;stroke:black;" cx="310" cy="-114" rx="22" ry="22"/>
<text text-anchor="middle" x="310" y="-109.9" style="font-family:Times New Roman;font-size:14.00;">4</text>
</g>
<!-- 4&#45;&gt;1 -->
<g id="edge16" class="edge"><title>4&#45;&gt;1</title>
<path style="fill:none;stroke:black;" d="M288,-116C252,-119 185,-124 174,-127 139,-140 102,-166 80,-184"/>
<polygon style="fill:black;stroke:black;" points="77.9,-181.2 72,-190 82.1,-186.8 77.9,-181.2"/>
<text text-anchor="middle" x="181" y="-134.9" style="font-family:Times New Roman;font-size:14.00;">e</text>
</g>
<!-- 2&#45;&gt;4 -->
<g id="edge12" class="edge"><title>2&#45;&gt;4</title>
<path style="fill:none;stroke:black;" d="M156,-198C165,-195 178,-192 188,-188 227,-172 236,-166 270,-144 275,-141 280,-138 285,-134"/>
<polygon style="fill:black;stroke:black;" points="287.1,-136.8 293,-128 282.9,-131.2 287.1,-136.8"/>
<text text-anchor="middle" x="224" y="-182.9" style="font-family:Times New Roman;font-size:14.00;">c</text>
</g>
<!-- 3 -->
<g id="node6" class="node"><title>3</title>
<ellipse style="fill:none;stroke:black;" cx="224" cy="-84" rx="18" ry="18"/>
<text text-anchor="middle" x="224" y="-79.9" style="font-family:Times New Roman;font-size:14.00;">3</text>
</g>
<!-- 2&#45;&gt;3 -->
<g id="edge10" class="edge"><title>2&#45;&gt;3</title>
<path style="fill:none;stroke:black;" d="M151,-189C162,-179 177,-163 188,-148 197,-136 206,-122 212,-110"/>
<polygon style="fill:black;stroke:black;" points="215.137,-111.56 216,-101 208.74,-108.717 215.137,-111.56"/>
<text text-anchor="middle" x="181" y="-170.9" style="font-family:Times New Roman;font-size:14.00;">b</text>
</g>
<!-- 2&#45;&gt;5 -->
<g id="edge8" class="edge"><title>2&#45;&gt;5</title>
<path style="fill:none;stroke:black;" d="M153,-212C163,-219 176,-228 188,-236 192,-239 196,-242 201,-244"/>
<polygon style="fill:black;stroke:black;" points="198.9,-246.8 209,-250 203.1,-241.2 198.9,-246.8"/>
<text text-anchor="middle" x="181" y="-239.9" style="font-family:Times New Roman;font-size:14.00;">f</text>
</g>
<!-- 3&#45;&gt;4 -->
<g id="edge14" class="edge"><title>3&#45;&gt;4</title>
<path style="fill:none;stroke:black;" d="M241,-89C250,-92 261,-96 270,-99 273,-100 276,-101 279,-102"/>
<polygon style="fill:black;stroke:black;" points="278.415,-105.536 289,-106 281.015,-99.0364 278.415,-105.536"/>
<text text-anchor="middle" x="265" y="-103.9" style="font-family:Times New Roman;font-size:14.00;">d</text>
</g>
<!-- 6 -->
<g id="node8" class="node"><title>6</title>
<ellipse style="fill:none;stroke:black;" cx="310" cy="-268" rx="18" ry="18"/>
<text text-anchor="middle" x="310" y="-263.9" style="font-family:Times New Roman;font-size:14.00;">6</text>
</g>
<!-- 5&#45;&gt;6 -->
<g id="edge18" class="edge"><title>5&#45;&gt;6</title>
<path style="fill:none;stroke:black;" d="M242,-264C248,-264 254,-265 260,-266 267,-266 275,-266 282,-267"/>
<polygon style="fill:black;stroke:black;" points="282,-270.5 292,-267 282,-263.5 282,-270.5"/>
<text text-anchor="middle" x="265" y="-269.9" style="font-family:Times New Roman;font-size:14.00;">g</text>
</g>
<!-- 6&#45;&gt;5 -->
<g id="edge20" class="edge"><title>6&#45;&gt;5</title>
<path style="fill:none;stroke:black;" d="M296,-256C289,-251 280,-245 270,-242 262,-239 254,-241 247,-244"/>
<polygon style="fill:black;stroke:black;" points="245.042,-241.084 238,-249 248.441,-247.203 245.042,-241.084"/>
<text text-anchor="middle" x="265" y="-245.9" style="font-family:Times New Roman;font-size:14.00;">h</text>
</g>
<!-- 7 -->
<g id="node9" class="node"><title>7</title>
<ellipse style="fill:none;stroke:black;" cx="224" cy="-24" rx="18" ry="18"/>
<text text-anchor="middle" x="224" y="-19.9" style="font-family:Times New Roman;font-size:14.00;">7</text>
</g>
<!-- 7&#45;&gt;4 -->
<g id="edge24" class="edge"><title>7&#45;&gt;4</title>
<path style="fill:none;stroke:black;" d="M237,-37C250,-51 271,-73 288,-90"/>
<polygon style="fill:black;stroke:black;" points="285.781,-92.779 295,-98 291.049,-88.1694 285.781,-92.779"/>
<text text-anchor="middle" x="265" y="-75.9" style="font-family:Times New Roman;font-size:14.00;">a</text>
</g>
<!-- 8 -->
<g id="node10" class="node"><title>8</title>
<ellipse style="fill:none;stroke:black;" cx="310" cy="-18" rx="18" ry="18"/>
<text text-anchor="middle" x="310" y="-13.9" style="font-family:Times New Roman;font-size:14.00;">8</text>
</g>
<!-- 7&#45;&gt;8 -->
<g id="edge22" class="edge"><title>7&#45;&gt;8</title>
<path style="fill:none;stroke:black;" d="M242,-21C248,-21 254,-20 260,-19 267,-19 275,-19 282,-18"/>
<polygon style="fill:black;stroke:black;" points="282,-21.5001 292,-18 282,-14.5001 282,-21.5001"/>
<text text-anchor="middle" x="265" y="-26.9" style="font-family:Times New Roman;font-size:14.00;">i</text>
</g>
<!-- 9 -->
<g id="node11" class="node"><title>9</title>
<ellipse style="fill:none;stroke:black;" cx="138" cy="-44" rx="18" ry="18"/>
<text text-anchor="middle" x="138" y="-39.9" style="font-family:Times New Roman;font-size:14.00;">9</text>
</g>
<!-- 7&#45;&gt;9 -->
<g id="edge26" class="edge"><title>7&#45;&gt;9</title>
<path style="fill:none;stroke:black;" d="M209,-13C199,-6 186,-0 174,-5 166,-9 160,-15 154,-21"/>
<polygon style="fill:black;stroke:black;" points="151.2,-18.9 148,-29 156.8,-23.1 151.2,-18.9"/>
<text text-anchor="middle" x="181" y="-12.9" style="font-family:Times New Roman;font-size:14.00;">j</text>
</g>
<!-- 9&#45;&gt;3 -->
<g id="edge30" class="edge"><title>9&#45;&gt;3</title>
<path style="fill:none;stroke:black;" d="M155,-52C167,-58 185,-65 199,-72"/>
<polygon style="fill:black;stroke:black;" points="197.44,-75.1369 208,-76 200.283,-68.7402 197.44,-75.1369"/>
<text text-anchor="middle" x="181" y="-71.9" style="font-family:Times New Roman;font-size:14.00;">m</text>
</g>
<!-- 9&#45;&gt;7 -->
<g id="edge28" class="edge"><title>9&#45;&gt;7</title>
<path style="fill:none;stroke:black;" d="M156,-40C168,-37 183,-34 196,-31"/>
<polygon style="fill:black;stroke:black;" points="197.427,-34.2259 206,-28 195.416,-27.5212 197.427,-34.2259"/>
<text text-anchor="middle" x="181" y="-41.9" style="font-family:Times New Roman;font-size:14.00;">k</text>
</g>
</g>
</svg>
