<?xml version="1.0" encoding="UTF-8" standalone="no"?>
<!DOCTYPE svg PUBLIC "-//W3C//DTD SVG 1.0//EN"
 "http://www.w3.org/TR/2001/REC-SVG-20010904/DTD/svg10.dtd" [
 <!ATTLIST svg xmlns:xlink CDATA #FIXED "http://www.w3.org/1999/xlink">
]>
<!-- Generated by Graphviz version 2.20.2 (Tue Mar &#160;2 21:46:26 UTC 2010)
     For user: (mtmoor) Prof. Thomas Moor -->
<!-- Title: PrefixClosure(g) Pages: 1 -->
<svg width="268pt" height="123pt"
 viewBox="0.00 0.00 268.00 123.00" xmlns="http://www.w3.org/2000/svg" xmlns:xlink="http://www.w3.org/1999/xlink">
<g id="graph0" class="graph" transform="scale(1 1) rotate(0) translate(4 119)">
<title>PrefixClosure(g)</title>
<polygon style="fill:none;stroke:none;" points="-4,4 -4,-119 264,-119 264,4 -4,4"/>
<!-- dot_dummyinit_1 -->
<g id="node1" class="node"><title>dot_dummyinit_1</title>
</g>
<!-- 1 -->
<g id="node3" class="node"><title>1</title>
<ellipse style="fill:none;stroke:black;" cx="62" cy="-53" rx="18" ry="18"/>
<ellipse style="fill:none;stroke:black;" cx="62" cy="-53" rx="22" ry="22"/>
<text text-anchor="middle" x="62" y="-48.9" style="font-family:Times New Roman;font-size:14.00;">1</text>
</g>
<!-- dot_dummyinit_1&#45;&gt;1 -->
<g id="edge2" class="edge"><title>dot_dummyinit_1&#45;&gt;1</title>
<path style="fill:none;stroke:black;" d="M2,-53C5,-53 17,-53 30,-53"/>
<polygon style="fill:black;stroke:black;" points="30,-56.5001 40,-53 30,-49.5001 30,-56.5001"/>
</g>
<!-- 2 -->
<g id="node4" class="node"><title>2</title>
<ellipse style="fill:none;stroke:black;" cx="150" cy="-53" rx="18" ry="18"/>
<ellipse style="fill:none;stroke:black;" cx="150" cy="-53" rx="22" ry="22"/>
<text text-anchor="middle" x="150" y="-48.9" style="font-family:Times New Roman;font-size:14.00;">2</text>
</g>
<!-- 1&#45;&gt;2 -->
<g id="edge4" class="edge"><title>1&#45;&gt;2</title>
<path style="fill:none;stroke:black;" d="M84,-53C94,-53 107,-53 118,-53"/>
<polygon style="fill:black;stroke:black;" points="118,-56.5001 128,-53 118,-49.5001 118,-56.5001"/>
<text text-anchor="middle" x="106" y="-56.9" style="font-family:Times New Roman;font-size:14.00;">a</text>
</g>
<!-- 3 -->
<g id="node5" class="node"><title>3</title>
<ellipse style="fill:none;stroke:black;" cx="238" cy="-93" rx="18" ry="18"/>
<ellipse style="fill:none;stroke:black;" cx="238" cy="-93" rx="22" ry="22"/>
<text text-anchor="middle" x="238" y="-88.9" style="font-family:Times New Roman;font-size:14.00;">3</text>
</g>
<!-- 2&#45;&gt;3 -->
<g id="edge6" class="edge"><title>2&#45;&gt;3</title>
<path style="fill:none;stroke:black;" d="M170,-62C181,-68 196,-74 209,-80"/>
<polygon style="fill:black;stroke:black;" points="207.44,-83.1369 218,-84 210.283,-76.7402 207.44,-83.1369"/>
<text text-anchor="middle" x="194" y="-76.9" style="font-family:Times New Roman;font-size:14.00;">b</text>
</g>
<!-- 4 -->
<g id="node6" class="node"><title>4</title>
<ellipse style="fill:none;stroke:black;" cx="238" cy="-22" rx="18" ry="18"/>
<ellipse style="fill:none;stroke:black;" cx="238" cy="-22" rx="22" ry="22"/>
<text text-anchor="middle" x="238" y="-17.9" style="font-family:Times New Roman;font-size:14.00;">4</text>
</g>
<!-- 2&#45;&gt;4 -->
<g id="edge8" class="edge"><title>2&#45;&gt;4</title>
<path style="fill:none;stroke:black;" d="M171,-46C182,-42 195,-37 207,-33"/>
<polygon style="fill:black;stroke:black;" points="209.015,-35.9636 217,-29 206.415,-29.4643 209.015,-35.9636"/>
<text text-anchor="middle" x="194" y="-41.9" style="font-family:Times New Roman;font-size:14.00;">c</text>
</g>
<!-- 4&#45;&gt;2 -->
<g id="edge10" class="edge"><title>4&#45;&gt;2</title>
<path style="fill:none;stroke:black;" d="M217,-14C209,-12 199,-11 190,-14 183,-17 176,-22 170,-28"/>
<polygon style="fill:black;stroke:black;" points="167.596,-25.454 163,-35 172.546,-30.4038 167.596,-25.454"/>
<text text-anchor="middle" x="194" y="-17.9" style="font-family:Times New Roman;font-size:14.00;">b</text>
</g>
</g>
</svg>
