<?xml version="1.0" encoding="UTF-8" standalone="no"?>
<!DOCTYPE svg PUBLIC "-//W3C//DTD SVG 1.0//EN"
 "http://www.w3.org/TR/2001/REC-SVG-20010904/DTD/svg10.dtd" [
 <!ATTLIST svg xmlns:xlink CDATA #FIXED "http://www.w3.org/1999/xlink">
]>
<!-- Generated by Graphviz version 2.20.2 (Tue Mar &#160;2 21:46:26 UTC 2010)
     For user: (mtmoor) Prof. Thomas Moor -->
<!-- Title: G1 Pages: 1 -->
<svg width="260pt" height="122pt"
 viewBox="0.00 0.00 260.00 122.00" xmlns="http://www.w3.org/2000/svg" xmlns:xlink="http://www.w3.org/1999/xlink">
<g id="graph0" class="graph" transform="scale(1 1) rotate(0) translate(4 118)">
<title>G1</title>
<polygon style="fill:none;stroke:none;" points="-4,4 -4,-118 256,-118 256,4 -4,4"/>
<!-- dot_dummyinit_1 -->
<g id="node1" class="node"><title>dot_dummyinit_1</title>
</g>
<!-- 1 -->
<g id="node3" class="node"><title>1</title>
<ellipse style="fill:none;stroke:black;" cx="62" cy="-22" rx="18" ry="18"/>
<ellipse style="fill:none;stroke:black;" cx="62" cy="-22" rx="22" ry="22"/>
<text text-anchor="middle" x="62" y="-17.9" style="font-family:Times New Roman;font-size:14.00;">1</text>
</g>
<!-- dot_dummyinit_1&#45;&gt;1 -->
<g id="edge2" class="edge"><title>dot_dummyinit_1&#45;&gt;1</title>
<path style="fill:none;stroke:black;" d="M2,-22C5,-22 17,-22 30,-22"/>
<polygon style="fill:black;stroke:black;" points="30,-25.5001 40,-22 30,-18.5001 30,-25.5001"/>
</g>
<!-- 1&#45;&gt;1 -->
<g id="edge6" class="edge"><title>1&#45;&gt;1</title>
<path style="fill:none;stroke:black;" d="M55,-43C54,-53 56,-62 62,-62 66,-62 68,-58 69,-53"/>
<polygon style="fill:black;stroke:black;" points="72.5001,-53 69,-43 65.5001,-53 72.5001,-53"/>
<text text-anchor="middle" x="62" y="-65.9" style="font-family:Times New Roman;font-size:14.00;">a</text>
</g>
<!-- 2 -->
<g id="node4" class="node"><title>2</title>
<ellipse style="fill:none;stroke:black;" cx="150" cy="-57" rx="18" ry="18"/>
<ellipse style="fill:none;stroke:black;" cx="150" cy="-57" rx="22" ry="22"/>
<text text-anchor="middle" x="150" y="-52.9" style="font-family:Times New Roman;font-size:14.00;">2</text>
</g>
<!-- 1&#45;&gt;2 -->
<g id="edge4" class="edge"><title>1&#45;&gt;2</title>
<path style="fill:none;stroke:black;" d="M83,-30C94,-35 108,-40 120,-45"/>
<polygon style="fill:black;stroke:black;" points="118.44,-48.1369 129,-49 121.283,-41.7402 118.44,-48.1369"/>
<text text-anchor="middle" x="106" y="-42.9" style="font-family:Times New Roman;font-size:14.00;">g</text>
</g>
<!-- 2&#45;&gt;2 -->
<g id="edge16" class="edge"><title>2&#45;&gt;2</title>
<path style="fill:none;stroke:black;" d="M142,-78C141,-88 144,-97 150,-97 154,-97 156,-93 158,-88"/>
<polygon style="fill:black;stroke:black;" points="161.5,-88 158,-78 154.5,-88 161.5,-88"/>
<text text-anchor="middle" x="150" y="-100.9" style="font-family:Times New Roman;font-size:14.00;">b</text>
</g>
<!-- 3 -->
<g id="node5" class="node"><title>3</title>
<ellipse style="fill:none;stroke:black;" cx="234" cy="-33" rx="18" ry="18"/>
<text text-anchor="middle" x="234" y="-28.9" style="font-family:Times New Roman;font-size:14.00;">3</text>
</g>
<!-- 2&#45;&gt;3 -->
<g id="edge12" class="edge"><title>2&#45;&gt;3</title>
<path style="fill:none;stroke:black;" d="M172,-56C180,-55 190,-53 198,-51 202,-50 205,-48 209,-47"/>
<polygon style="fill:black;stroke:black;" points="210.958,-49.916 218,-42 207.559,-43.7969 210.958,-49.916"/>
<text text-anchor="middle" x="194" y="-54.9" style="font-family:Times New Roman;font-size:14.00;">g</text>
</g>
<!-- 2&#45;&gt;3 -->
<g id="edge14" class="edge"><title>2&#45;&gt;3</title>
<path style="fill:none;stroke:black;" d="M167,-42C174,-37 182,-32 190,-30 195,-28 200,-28 206,-28"/>
<polygon style="fill:black;stroke:black;" points="205.701,-31.4875 216,-29 206.398,-24.5222 205.701,-31.4875"/>
<text text-anchor="middle" x="194" y="-33.9" style="font-family:Times New Roman;font-size:14.00;">a</text>
</g>
<!-- 3&#45;&gt;1 -->
<g id="edge8" class="edge"><title>3&#45;&gt;1</title>
<path style="fill:none;stroke:black;" d="M218,-25C206,-19 189,-12 172,-9 146,-4 115,-8 93,-14"/>
<polygon style="fill:black;stroke:black;" points="92.1194,-10.6067 83,-16 93.4922,-17.4708 92.1194,-10.6067"/>
<text text-anchor="middle" x="150" y="-12.9" style="font-family:Times New Roman;font-size:14.00;">a</text>
</g>
<!-- 3&#45;&gt;3 -->
<g id="edge10" class="edge"><title>3&#45;&gt;3</title>
<path style="fill:none;stroke:black;" d="M227,-50C225,-60 228,-69 234,-69 238,-69 240,-65 241,-60"/>
<polygon style="fill:black;stroke:black;" points="244.5,-60 241,-50 237.5,-60 244.5,-60"/>
<text text-anchor="middle" x="234" y="-72.9" style="font-family:Times New Roman;font-size:14.00;">b</text>
</g>
</g>
</svg>
