<?xml version="1.0" encoding="UTF-8" standalone="no"?>
<!DOCTYPE svg PUBLIC "-//W3C//DTD SVG 1.0//EN"
 "http://www.w3.org/TR/2001/REC-SVG-20010904/DTD/svg10.dtd" [
 <!ATTLIST svg xmlns:xlink CDATA #FIXED "http://www.w3.org/1999/xlink">
]>
<!-- Generated by Graphviz version 2.20.2 (Tue Mar &#160;2 21:46:26 UTC 2010)
     For user: (mtmoor) Prof. Thomas Moor -->
<!-- Title: very simple machine 1|||very simple machine 2 Pages: 1 -->
<svg width="720pt" height="110pt"
 viewBox="0.00 0.00 720.00 109.51" xmlns="http://www.w3.org/2000/svg" xmlns:xlink="http://www.w3.org/1999/xlink">
<g id="graph0" class="graph" transform="scale(0.39823 0.39823) rotate(0) translate(4 271)">
<title>very simple machine 1|||very simple machine 2</title>
<polygon style="fill:none;stroke:none;" points="-4,4 -4,-271 1804,-271 1804,4 -4,4"/>
<!-- dot_dummyinit_1 -->
<g id="node1" class="node"><title>dot_dummyinit_1</title>
</g>
<!-- I|I|r1m* -->
<g id="node3" class="node"><title>I|I|r1m*</title>
<ellipse style="fill:none;stroke:black;" cx="92" cy="-160" rx="47.9469" ry="47.9469"/>
<ellipse style="fill:none;stroke:black;" cx="92" cy="-160" rx="51.9469" ry="51.9469"/>
<text text-anchor="middle" x="92" y="-155.9" style="font-family:Times New Roman;font-size:14.00;">I|I|r1m*</text>
</g>
<!-- dot_dummyinit_1&#45;&gt;I|I|r1m* -->
<g id="edge2" class="edge"><title>dot_dummyinit_1&#45;&gt;I|I|r1m*</title>
<path style="fill:none;stroke:black;" d="M2,-160C5,-160 16,-160 30,-160"/>
<polygon style="fill:black;stroke:black;" points="30,-163.5 40,-160 30,-156.5 30,-163.5"/>
</g>
<!-- B|I|r1m -->
<g id="node5" class="node"><title>B|I|r1m</title>
<ellipse style="fill:none;stroke:black;" cx="638" cy="-203" rx="46.0565" ry="46.0565"/>
<text text-anchor="middle" x="638" y="-198.9" style="font-family:Times New Roman;font-size:14.00;">B|I|r1m</text>
</g>
<!-- I|I|r1m*&#45;&gt;B|I|r1m -->
<g id="edge4" class="edge"><title>I|I|r1m*&#45;&gt;B|I|r1m</title>
<path style="fill:none;stroke:black;" d="M139,-182C215,-215 370,-272 502,-250 531,-245 562,-235 587,-226"/>
<polygon style="fill:black;stroke:black;" points="588.283,-229.26 596,-222 585.44,-222.863 588.283,-229.26"/>
<text text-anchor="middle" x="371" y="-254.9" style="font-family:Times New Roman;font-size:14.00;">alpha_1</text>
</g>
<!-- I|B|r1m -->
<g id="node6" class="node"><title>I|B|r1m</title>
<ellipse style="fill:none;stroke:black;" cx="280" cy="-160" rx="46.0565" ry="46.0565"/>
<text text-anchor="middle" x="280" y="-155.9" style="font-family:Times New Roman;font-size:14.00;">I|B|r1m</text>
</g>
<!-- I|I|r1m*&#45;&gt;I|B|r1m -->
<g id="edge6" class="edge"><title>I|I|r1m*&#45;&gt;I|B|r1m</title>
<path style="fill:none;stroke:black;" d="M144,-160C169,-160 199,-160 224,-160"/>
<polygon style="fill:black;stroke:black;" points="224,-163.5 234,-160 224,-156.5 224,-163.5"/>
<text text-anchor="middle" x="189" y="-163.9" style="font-family:Times New Roman;font-size:14.00;">alpha_2</text>
</g>
<!-- B|I|r1m* -->
<g id="node4" class="node"><title>B|I|r1m*</title>
<ellipse style="fill:none;stroke:black;" cx="1386" cy="-65" rx="52.1162" ry="52.1162"/>
<ellipse style="fill:none;stroke:black;" cx="1386" cy="-65" rx="56.1162" ry="56.1162"/>
<text text-anchor="middle" x="1386" y="-60.9" style="font-family:Times New Roman;font-size:14.00;">B|I|r1m*</text>
</g>
<!-- B|B|r1m -->
<g id="node7" class="node"><title>B|B|r1m</title>
<ellipse style="fill:none;stroke:black;" cx="824" cy="-163" rx="50.0315" ry="50.0315"/>
<text text-anchor="middle" x="824" y="-158.9" style="font-family:Times New Roman;font-size:14.00;">B|B|r1m</text>
</g>
<!-- B|I|r1m*&#45;&gt;B|B|r1m -->
<g id="edge34" class="edge"><title>B|I|r1m*&#45;&gt;B|B|r1m</title>
<path style="fill:none;stroke:black;" d="M1357,-113C1345,-128 1330,-142 1312,-151 1171,-219 978,-195 883,-176"/>
<polygon style="fill:black;stroke:black;" points="883.492,-172.529 873,-174 882.119,-179.393 883.492,-172.529"/>
<text text-anchor="middle" x="1095" y="-198.9" style="font-family:Times New Roman;font-size:14.00;">alpha_2</text>
</g>
<!-- I|I|r2m -->
<g id="node11" class="node"><title>I|I|r2m</title>
<ellipse style="fill:none;stroke:black;" cx="1575" cy="-128" rx="43.0827" ry="43.0827"/>
<text text-anchor="middle" x="1575" y="-123.9" style="font-family:Times New Roman;font-size:14.00;">I|I|r2m</text>
</g>
<!-- B|I|r1m*&#45;&gt;I|I|r2m -->
<g id="edge32" class="edge"><title>B|I|r1m*&#45;&gt;I|I|r2m</title>
<path style="fill:none;stroke:black;" d="M1439,-83C1466,-92 1498,-102 1524,-111"/>
<polygon style="fill:black;stroke:black;" points="1523.42,-114.479 1534,-114 1525.43,-107.774 1523.42,-114.479"/>
<text text-anchor="middle" x="1487" y="-108.9" style="font-family:Times New Roman;font-size:14.00;">beta_1</text>
</g>
<!-- B|I|r1m&#45;&gt;B|B|r1m -->
<g id="edge10" class="edge"><title>B|I|r1m&#45;&gt;B|B|r1m</title>
<path style="fill:none;stroke:black;" d="M675,-176C684,-171 693,-167 702,-164 722,-158 744,-156 764,-157"/>
<polygon style="fill:black;stroke:black;" points="764,-160.5 774,-157 764,-153.5 764,-160.5"/>
<text text-anchor="middle" x="729" y="-167.9" style="font-family:Times New Roman;font-size:14.00;">alpha_2</text>
</g>
<!-- B|I|r1m&#45;&gt;I|I|r2m -->
<g id="edge8" class="edge"><title>B|I|r1m&#45;&gt;I|I|r2m</title>
<path style="fill:none;stroke:black;" d="M682,-217C719,-228 775,-241 824,-241 824,-241 824,-241 1386,-241 1446,-241 1503,-199 1539,-166"/>
<polygon style="fill:black;stroke:black;" points="1541.4,-168.546 1546,-159 1536.45,-163.596 1541.4,-168.546"/>
<text text-anchor="middle" x="1095" y="-244.9" style="font-family:Times New Roman;font-size:14.00;">beta_1</text>
</g>
<!-- I|B|r1m&#45;&gt;B|B|r1m -->
<g id="edge12" class="edge"><title>I|B|r1m&#45;&gt;B|B|r1m</title>
<path style="fill:none;stroke:black;" d="M325,-151C332,-151 338,-150 344,-149 376,-145 384,-146 416,-146 568,-142 606,-135 756,-152 759,-152 762,-153 765,-153"/>
<polygon style="fill:black;stroke:black;" points="764.701,-156.488 775,-154 765.398,-149.522 764.701,-156.488"/>
<text text-anchor="middle" x="547" y="-144.9" style="font-family:Times New Roman;font-size:14.00;">alpha_1</text>
</g>
<!-- I|I|r1m -->
<g id="node8" class="node"><title>I|I|r1m</title>
<ellipse style="fill:none;stroke:black;" cx="459" cy="-198" rx="43.0827" ry="43.0827"/>
<text text-anchor="middle" x="459" y="-193.9" style="font-family:Times New Roman;font-size:14.00;">I|I|r1m</text>
</g>
<!-- I|B|r1m&#45;&gt;I|I|r1m -->
<g id="edge14" class="edge"><title>I|B|r1m&#45;&gt;I|I|r1m</title>
<path style="fill:none;stroke:black;" d="M326,-155C348,-153 375,-154 398,-161 404,-162 410,-164 415,-167"/>
<polygon style="fill:black;stroke:black;" points="413.559,-170.203 424,-172 416.958,-164.084 413.559,-170.203"/>
<text text-anchor="middle" x="371" y="-164.9" style="font-family:Times New Roman;font-size:14.00;">beta_2</text>
</g>
<!-- B|B|r1m&#45;&gt;B|I|r1m -->
<g id="edge18" class="edge"><title>B|B|r1m&#45;&gt;B|I|r1m</title>
<path style="fill:none;stroke:black;" d="M776,-176C769,-178 762,-180 756,-181 736,-185 714,-190 694,-193"/>
<polygon style="fill:black;stroke:black;" points="693.119,-189.607 684,-195 694.492,-196.471 693.119,-189.607"/>
<text text-anchor="middle" x="729" y="-193.9" style="font-family:Times New Roman;font-size:14.00;">beta_2</text>
</g>
<!-- I|B|r2m -->
<g id="node9" class="node"><title>I|B|r2m</title>
<ellipse style="fill:none;stroke:black;" cx="1004" cy="-105" rx="46.0565" ry="46.0565"/>
<text text-anchor="middle" x="1004" y="-100.9" style="font-family:Times New Roman;font-size:14.00;">I|B|r2m</text>
</g>
<!-- B|B|r1m&#45;&gt;I|B|r2m -->
<g id="edge16" class="edge"><title>B|B|r1m&#45;&gt;I|B|r2m</title>
<path style="fill:none;stroke:black;" d="M872,-148C896,-140 925,-131 950,-122"/>
<polygon style="fill:black;stroke:black;" points="951.427,-125.226 960,-119 949.416,-118.521 951.427,-125.226"/>
<text text-anchor="middle" x="916" y="-143.9" style="font-family:Times New Roman;font-size:14.00;">beta_1</text>
</g>
<!-- I|I|r1m&#45;&gt;B|I|r1m -->
<g id="edge20" class="edge"><title>I|I|r1m&#45;&gt;B|I|r1m</title>
<path style="fill:none;stroke:black;" d="M502,-199C526,-200 556,-201 582,-202"/>
<polygon style="fill:black;stroke:black;" points="582,-205.5 592,-202 582,-198.5 582,-205.5"/>
<text text-anchor="middle" x="547" y="-203.9" style="font-family:Times New Roman;font-size:14.00;">alpha_1</text>
</g>
<!-- I|I|r1m&#45;&gt;I|B|r1m -->
<g id="edge22" class="edge"><title>I|I|r1m&#45;&gt;I|B|r1m</title>
<path style="fill:none;stroke:black;" d="M416,-191C395,-188 368,-183 344,-178 341,-177 337,-176 334,-175"/>
<polygon style="fill:black;stroke:black;" points="334.492,-171.529 324,-173 333.119,-178.393 334.492,-171.529"/>
<text text-anchor="middle" x="371" y="-189.9" style="font-family:Times New Roman;font-size:14.00;">alpha_2</text>
</g>
<!-- I|B|r2m&#45;&gt;I|I|r1m* -->
<g id="edge26" class="edge"><title>I|B|r2m&#45;&gt;I|I|r1m*</title>
<path style="fill:none;stroke:black;" d="M958,-97C922,-92 870,-85 824,-85 280,-85 280,-85 280,-85 232,-85 182,-106 145,-127"/>
<polygon style="fill:black;stroke:black;" points="143.042,-124.084 136,-132 146.441,-130.203 143.042,-124.084"/>
<text text-anchor="middle" x="547" y="-88.9" style="font-family:Times New Roman;font-size:14.00;">beta_2</text>
</g>
<!-- B|B|r2m -->
<g id="node10" class="node"><title>B|B|r2m</title>
<ellipse style="fill:none;stroke:black;" cx="1190" cy="-65" rx="50.0315" ry="50.0315"/>
<text text-anchor="middle" x="1190" y="-60.9" style="font-family:Times New Roman;font-size:14.00;">B|B|r2m</text>
</g>
<!-- I|B|r2m&#45;&gt;B|B|r2m -->
<g id="edge24" class="edge"><title>I|B|r2m&#45;&gt;B|B|r2m</title>
<path style="fill:none;stroke:black;" d="M1050,-97C1072,-93 1098,-88 1122,-83 1125,-82 1128,-82 1132,-81"/>
<polygon style="fill:black;stroke:black;" points="1132.88,-84.3933 1142,-79 1131.51,-77.5292 1132.88,-84.3933"/>
<text text-anchor="middle" x="1095" y="-95.9" style="font-family:Times New Roman;font-size:14.00;">alpha_1</text>
</g>
<!-- B|B|r2m&#45;&gt;B|I|r1m* -->
<g id="edge30" class="edge"><title>B|B|r2m&#45;&gt;B|I|r1m*</title>
<path style="fill:none;stroke:black;" d="M1240,-65C1264,-65 1294,-65 1320,-65"/>
<polygon style="fill:black;stroke:black;" points="1320,-68.5001 1330,-65 1320,-61.5001 1320,-68.5001"/>
<text text-anchor="middle" x="1285" y="-69.9" style="font-family:Times New Roman;font-size:14.00;">beta_2</text>
</g>
<!-- B|B|r2m&#45;&gt;I|B|r2m -->
<g id="edge28" class="edge"><title>B|B|r2m&#45;&gt;I|B|r2m</title>
<path style="fill:none;stroke:black;" d="M1140,-57C1118,-55 1091,-55 1068,-62 1061,-64 1055,-67 1049,-70"/>
<polygon style="fill:black;stroke:black;" points="1046.38,-67.5408 1040,-76 1050.26,-73.3651 1046.38,-67.5408"/>
<text text-anchor="middle" x="1095" y="-69.9" style="font-family:Times New Roman;font-size:14.00;">beta_1</text>
</g>
<!-- I|I|r2m&#45;&gt;I|B|r2m -->
<g id="edge38" class="edge"><title>I|I|r2m&#45;&gt;I|B|r2m</title>
<path style="fill:none;stroke:black;" d="M1532,-130C1453,-132 1283,-136 1140,-124 1114,-121 1084,-117 1059,-113"/>
<polygon style="fill:black;stroke:black;" points="1059.3,-109.512 1049,-112 1058.6,-116.478 1059.3,-109.512"/>
<text text-anchor="middle" x="1285" y="-133.9" style="font-family:Times New Roman;font-size:14.00;">alpha_2</text>
</g>
<!-- B|I|r2m -->
<g id="node12" class="node"><title>B|I|r2m</title>
<ellipse style="fill:none;stroke:black;" cx="1754" cy="-88" rx="46.0565" ry="46.0565"/>
<text text-anchor="middle" x="1754" y="-83.9" style="font-family:Times New Roman;font-size:14.00;">B|I|r2m</text>
</g>
<!-- I|I|r2m&#45;&gt;B|I|r2m -->
<g id="edge36" class="edge"><title>I|I|r2m&#45;&gt;B|I|r2m</title>
<path style="fill:none;stroke:black;" d="M1609,-102C1618,-96 1627,-92 1636,-89 1656,-84 1678,-82 1698,-83"/>
<polygon style="fill:black;stroke:black;" points="1698,-86.5001 1708,-83 1698,-79.5001 1698,-86.5001"/>
<text text-anchor="middle" x="1663" y="-92.9" style="font-family:Times New Roman;font-size:14.00;">alpha_1</text>
</g>
<!-- B|I|r2m&#45;&gt;B|B|r2m -->
<g id="edge42" class="edge"><title>B|I|r2m&#45;&gt;B|B|r2m</title>
<path style="fill:none;stroke:black;" d="M1712,-68C1636,-33 1470,31 1330,-0 1300,-7 1268,-21 1242,-34"/>
<polygon style="fill:black;stroke:black;" points="1240.04,-31.084 1233,-39 1243.44,-37.2031 1240.04,-31.084"/>
<text text-anchor="middle" x="1487" y="-7.9" style="font-family:Times New Roman;font-size:14.00;">alpha_2</text>
</g>
<!-- B|I|r2m&#45;&gt;I|I|r2m -->
<g id="edge40" class="edge"><title>B|I|r2m&#45;&gt;I|I|r2m</title>
<path style="fill:none;stroke:black;" d="M1710,-101C1703,-103 1696,-104 1690,-106 1670,-110 1647,-115 1627,-118"/>
<polygon style="fill:black;stroke:black;" points="1626.12,-114.607 1617,-120 1627.49,-121.471 1626.12,-114.607"/>
<text text-anchor="middle" x="1663" y="-118.9" style="font-family:Times New Roman;font-size:14.00;">beta_1</text>
</g>
</g>
</svg>
