<?xml version="1.0" encoding="UTF-8" standalone="no"?>
<!DOCTYPE svg PUBLIC "-//W3C//DTD SVG 1.1//EN"
 "http://www.w3.org/Graphics/SVG/1.1/DTD/svg11.dtd">
<!-- Generated by graphviz version 12.2.1 (20241206.2353)
 -->
<!-- Title: Concatenate(g2,g4) Pages: 1 -->
<svg width="265pt" height="92pt"
 viewBox="0.00 0.00 264.72 92.00" xmlns="http://www.w3.org/2000/svg" xmlns:xlink="http://www.w3.org/1999/xlink">
<g id="graph0" class="graph" transform="scale(1 1) rotate(0) translate(4 88)">
<title>Concatenate(g2,g4)</title>
<!-- dot_dummyinit_1 -->
<g id="node1" class="node">
<title>dot_dummyinit_1</title>
</g>
<!-- 1 -->
<g id="node2" class="node">
<title>1</title>
<ellipse fill="none" stroke="black" cx="59.72" cy="-22" rx="18" ry="18"/>
<ellipse fill="none" stroke="black" cx="59.72" cy="-22" rx="22" ry="22"/>
<text text-anchor="middle" x="59.72" y="-16.57" font-family="Arial" font-size="14.00">1</text>
</g>
<!-- dot_dummyinit_1&#45;&gt;1 -->
<g id="edge1" class="edge">
<title>dot_dummyinit_1&#45;&gt;1</title>
<path fill="none" stroke="black" d="M0.89,-22C2.38,-22 13.74,-22 26,-22"/>
<polygon fill="black" stroke="black" points="25.74,-25.5 35.74,-22 25.74,-18.5 25.74,-25.5"/>
</g>
<!-- 2 -->
<g id="node3" class="node">
<title>2</title>
<ellipse fill="none" stroke="black" cx="147.22" cy="-62" rx="18" ry="18"/>
<ellipse fill="none" stroke="black" cx="147.22" cy="-62" rx="22" ry="22"/>
<text text-anchor="middle" x="147.22" y="-56.58" font-family="Arial" font-size="14.00">2</text>
</g>
<!-- 1&#45;&gt;2 -->
<g id="edge2" class="edge">
<title>1&#45;&gt;2</title>
<path fill="none" stroke="black" d="M80.12,-31.08C90.94,-36.14 104.65,-42.55 116.77,-48.22"/>
<polygon fill="black" stroke="black" points="114.98,-51.25 125.52,-52.32 117.95,-44.91 114.98,-51.25"/>
<text text-anchor="middle" x="103.47" y="-45.65" font-family="Arial" font-size="14.00">a</text>
</g>
<!-- 3 -->
<g id="node4" class="node">
<title>3</title>
<ellipse fill="none" stroke="black" cx="234.72" cy="-22" rx="18" ry="18"/>
<ellipse fill="none" stroke="black" cx="234.72" cy="-22" rx="22" ry="22"/>
<text text-anchor="middle" x="234.72" y="-16.57" font-family="Arial" font-size="14.00">3</text>
</g>
<!-- 1&#45;&gt;3 -->
<g id="edge3" class="edge">
<title>1&#45;&gt;3</title>
<path fill="none" stroke="black" d="M81.88,-19.22C94.45,-17.71 110.72,-16.01 125.22,-15.25 144.75,-14.23 149.69,-14.23 169.22,-15.25 179.65,-15.79 190.98,-16.83 201.2,-17.93"/>
<polygon fill="black" stroke="black" points="200.72,-21.4 211.05,-19.05 201.51,-14.44 200.72,-21.4"/>
<text text-anchor="middle" x="147.22" y="-17.7" font-family="Arial" font-size="14.00">b</text>
</g>
<!-- 2&#45;&gt;3 -->
<g id="edge4" class="edge">
<title>2&#45;&gt;3</title>
<path fill="none" stroke="black" d="M167.62,-52.92C178.44,-47.86 192.15,-41.45 204.27,-35.78"/>
<polygon fill="black" stroke="black" points="205.45,-39.09 213.02,-31.68 202.48,-32.75 205.45,-39.09"/>
<text text-anchor="middle" x="190.97" y="-45.65" font-family="Arial" font-size="14.00">b</text>
</g>
</g>
</svg>
