<?xml version="1.0" encoding="UTF-8" standalone="no"?>
<!DOCTYPE svg PUBLIC "-//W3C//DTD SVG 1.1//EN"
 "http://www.w3.org/Graphics/SVG/1.1/DTD/svg11.dtd">
<!-- Generated by graphviz version 12.2.1 (20241206.2353)
 -->
<!-- Title: g_nonmin [minstate] Pages: 1 -->
<svg width="394pt" height="78pt"
 viewBox="0.00 0.00 393.97 77.93" xmlns="http://www.w3.org/2000/svg" xmlns:xlink="http://www.w3.org/1999/xlink">
<g id="graph0" class="graph" transform="scale(1 1) rotate(0) translate(4 73.93)">
<title>g_nonmin [minstate]</title>
<!-- dot_dummyinit_1 -->
<g id="node1" class="node">
<title>dot_dummyinit_1</title>
</g>
<!-- {1} -->
<g id="node2" class="node">
<title>{1}</title>
<path fill="none" stroke="black" d="M82.22,-63C82.22,-63 49.72,-63 49.72,-63 43.72,-63 37.72,-57 37.72,-51 37.72,-51 37.72,-39 37.72,-39 37.72,-33 43.72,-27 49.72,-27 49.72,-27 82.22,-27 82.22,-27 88.22,-27 94.22,-33 94.22,-39 94.22,-39 94.22,-51 94.22,-51 94.22,-57 88.22,-63 82.22,-63"/>
<text text-anchor="start" x="49.72" y="-39.58" font-family="Arial" font-size="14.00">{1}</text>
<polygon fill="black" stroke="none" points="76.22,-35.12 76.22,-54.88 84.22,-54.88 84.22,-35.12 76.22,-35.12"/>
</g>
<!-- dot_dummyinit_1&#45;&gt;{1} -->
<g id="edge1" class="edge">
<title>dot_dummyinit_1&#45;&gt;{1}</title>
<path fill="none" stroke="black" d="M0.77,-45C1.59,-45 13.1,-45 26.16,-45"/>
<polygon fill="black" stroke="black" points="25.78,-48.5 35.78,-45 25.78,-41.5 25.78,-48.5"/>
</g>
<!-- {2,5} -->
<g id="node3" class="node">
<title>{2,5}</title>
<path fill="none" stroke="black" d="M276.47,-63C276.47,-63 246.47,-63 246.47,-63 240.47,-63 234.47,-57 234.47,-51 234.47,-51 234.47,-39 234.47,-39 234.47,-33 240.47,-27 246.47,-27 246.47,-27 276.47,-27 276.47,-27 282.47,-27 288.47,-33 288.47,-39 288.47,-39 288.47,-51 288.47,-51 288.47,-57 282.47,-63 276.47,-63"/>
<text text-anchor="middle" x="261.47" y="-39.58" font-family="Arial" font-size="14.00">{2,5}</text>
</g>
<!-- {1}&#45;&gt;{2,5} -->
<g id="edge2" class="edge">
<title>{1}&#45;&gt;{2,5}</title>
<path fill="none" stroke="black" d="M94.67,-49.22C100.46,-49.94 106.53,-50.59 112.22,-51 158.44,-54.29 170.28,-55.65 216.47,-52 218.52,-51.84 220.62,-51.63 222.74,-51.4"/>
<polygon fill="black" stroke="black" points="223.07,-54.88 232.53,-50.1 222.15,-47.95 223.07,-54.88"/>
<text text-anchor="middle" x="163.97" y="-56.63" font-family="Arial" font-size="14.00">a</text>
</g>
<!-- {3} -->
<g id="node4" class="node">
<title>{3}</title>
<path fill="none" stroke="black" d="M178.97,-36C178.97,-36 148.97,-36 148.97,-36 142.97,-36 136.97,-30 136.97,-24 136.97,-24 136.97,-12 136.97,-12 136.97,-6 142.97,0 148.97,0 148.97,0 178.97,0 178.97,0 184.97,0 190.97,-6 190.97,-12 190.97,-12 190.97,-24 190.97,-24 190.97,-30 184.97,-36 178.97,-36"/>
<text text-anchor="middle" x="163.97" y="-12.57" font-family="Arial" font-size="14.00">{3}</text>
</g>
<!-- {1}&#45;&gt;{3} -->
<g id="edge3" class="edge">
<title>{1}&#45;&gt;{3}</title>
<path fill="none" stroke="black" d="M94.48,-37.26C104.25,-34.52 115.4,-31.38 125.84,-28.44"/>
<polygon fill="black" stroke="black" points="126.64,-31.85 135.32,-25.78 124.75,-25.11 126.64,-31.85"/>
<text text-anchor="middle" x="115.6" y="-33.95" font-family="Arial" font-size="14.00">c</text>
</g>
<!-- {4,6} -->
<g id="node5" class="node">
<title>{4,6}</title>
<path fill="none" stroke="black" d="M373.97,-63C373.97,-63 343.97,-63 343.97,-63 337.97,-63 331.97,-57 331.97,-51 331.97,-51 331.97,-39 331.97,-39 331.97,-33 337.97,-27 343.97,-27 343.97,-27 373.97,-27 373.97,-27 379.97,-27 385.97,-33 385.97,-39 385.97,-39 385.97,-51 385.97,-51 385.97,-57 379.97,-63 373.97,-63"/>
<text text-anchor="middle" x="358.97" y="-39.58" font-family="Arial" font-size="14.00">{4,6}</text>
</g>
<!-- {2,5}&#45;&gt;{4,6} -->
<g id="edge4" class="edge">
<title>{2,5}&#45;&gt;{4,6}</title>
<path fill="none" stroke="black" d="M288.82,-45C298.53,-45 309.72,-45 320.24,-45"/>
<polygon fill="black" stroke="black" points="320.19,-48.5 330.19,-45 320.19,-41.5 320.19,-48.5"/>
<text text-anchor="middle" x="310.22" y="-47.45" font-family="Arial" font-size="14.00">b</text>
</g>
<!-- {3}&#45;&gt;{2,5} -->
<g id="edge5" class="edge">
<title>{3}&#45;&gt;{2,5}</title>
<path fill="none" stroke="black" d="M191.32,-25.45C201.23,-28.25 212.7,-31.5 223.42,-34.52"/>
<polygon fill="black" stroke="black" points="222.18,-37.81 232.75,-37.16 224.08,-31.07 222.18,-37.81"/>
<text text-anchor="middle" x="212.72" y="-34.76" font-family="Arial" font-size="14.00">a</text>
</g>
</g>
</svg>
