<?xml version="1.0" encoding="UTF-8" standalone="no"?>
<!DOCTYPE svg PUBLIC "-//W3C//DTD SVG 1.0//EN"
 "http://www.w3.org/TR/2001/REC-SVG-20010904/DTD/svg10.dtd" [
 <!ATTLIST svg xmlns:xlink CDATA #FIXED "http://www.w3.org/1999/xlink">
]>
<!-- Generated by Graphviz version 2.20.2 (Tue Mar &#160;2 21:46:26 UTC 2010)
     For user: (mtmoor) Prof. Thomas Moor -->
<!-- Title: g_nonmin [minstate] Pages: 1 -->
<svg width="464pt" height="118pt"
 viewBox="0.00 0.00 464.00 118.00" xmlns="http://www.w3.org/2000/svg" xmlns:xlink="http://www.w3.org/1999/xlink">
<g id="graph0" class="graph" transform="scale(1 1) rotate(0) translate(4 114)">
<title>g_nonmin [minstate]</title>
<polygon style="fill:none;stroke:none;" points="-4,4 -4,-114 460,-114 460,4 -4,4"/>
<!-- dot_dummyinit_1 -->
<g id="node1" class="node"><title>dot_dummyinit_1</title>
</g>
<!-- {1} -->
<g id="node3" class="node"><title>{1}</title>
<ellipse style="fill:none;stroke:black;" cx="74" cy="-39" rx="29.8799" ry="29.8799"/>
<ellipse style="fill:none;stroke:black;" cx="74" cy="-39" rx="33.8799" ry="33.8799"/>
<text text-anchor="middle" x="74" y="-34.9" style="font-family:Times New Roman;font-size:14.00;">{1}</text>
</g>
<!-- dot_dummyinit_1&#45;&gt;{1} -->
<g id="edge2" class="edge"><title>dot_dummyinit_1&#45;&gt;{1}</title>
<path style="fill:none;stroke:black;" d="M2,-39C5,-39 17,-39 30,-39"/>
<polygon style="fill:black;stroke:black;" points="30,-42.5001 40,-39 30,-35.5001 30,-42.5001"/>
</g>
<!-- {3} -->
<g id="node4" class="node"><title>{3}</title>
<ellipse style="fill:none;stroke:black;" cx="182" cy="-80" rx="29.8799" ry="29.8799"/>
<text text-anchor="middle" x="182" y="-75.9" style="font-family:Times New Roman;font-size:14.00;">{3}</text>
</g>
<!-- {1}&#45;&gt;{3} -->
<g id="edge8" class="edge"><title>{1}&#45;&gt;{3}</title>
<path style="fill:none;stroke:black;" d="M106,-51C118,-56 132,-61 145,-66"/>
<polygon style="fill:black;stroke:black;" points="143.406,-69.158 154,-69 145.62,-62.5173 143.406,-69.158"/>
<text text-anchor="middle" x="130" y="-62.9" style="font-family:Times New Roman;font-size:14.00;">c</text>
</g>
<!-- {2,5} -->
<g id="node5" class="node"><title>{2,5}</title>
<ellipse style="fill:none;stroke:black;" cx="295" cy="-39" rx="39.1069" ry="39.1069"/>
<text text-anchor="middle" x="295" y="-34.9" style="font-family:Times New Roman;font-size:14.00;">{2,5}</text>
</g>
<!-- {1}&#45;&gt;{2,5} -->
<g id="edge6" class="edge"><title>{1}&#45;&gt;{2,5}</title>
<path style="fill:none;stroke:black;" d="M107,-31C121,-28 137,-25 152,-24 179,-21 186,-21 212,-24 223,-25 236,-27 247,-28"/>
<polygon style="fill:black;stroke:black;" points="246.508,-31.4708 257,-30 247.881,-24.6067 246.508,-31.4708"/>
<text text-anchor="middle" x="182" y="-27.9" style="font-family:Times New Roman;font-size:14.00;">a</text>
</g>
<!-- {3}&#45;&gt;{2,5} -->
<g id="edge4" class="edge"><title>{3}&#45;&gt;{2,5}</title>
<path style="fill:none;stroke:black;" d="M210,-70C222,-66 236,-61 249,-56"/>
<polygon style="fill:black;stroke:black;" points="249.62,-59.4827 258,-53 247.406,-52.842 249.62,-59.4827"/>
<text text-anchor="middle" x="234" y="-65.9" style="font-family:Times New Roman;font-size:14.00;">a</text>
</g>
<!-- {4,6} -->
<g id="node6" class="node"><title>{4,6}</title>
<ellipse style="fill:none;stroke:black;" cx="417" cy="-39" rx="39.1069" ry="39.1069"/>
<text text-anchor="middle" x="417" y="-34.9" style="font-family:Times New Roman;font-size:14.00;">{4,6}</text>
</g>
<!-- {2,5}&#45;&gt;{4,6} -->
<g id="edge10" class="edge"><title>{2,5}&#45;&gt;{4,6}</title>
<path style="fill:none;stroke:black;" d="M334,-39C345,-39 357,-39 368,-39"/>
<polygon style="fill:black;stroke:black;" points="368,-42.5001 378,-39 368,-35.5001 368,-42.5001"/>
<text text-anchor="middle" x="356" y="-42.9" style="font-family:Times New Roman;font-size:14.00;">b</text>
</g>
</g>
</svg>
