<?xml version="1.0" encoding="UTF-8" standalone="no"?>
<!DOCTYPE svg PUBLIC "-//W3C//DTD SVG 1.1//EN"
 "http://www.w3.org/Graphics/SVG/1.1/DTD/svg11.dtd">
<!-- Generated by graphviz version 12.2.1 (20241206.2353)
 -->
<!-- Title: Concatenate(g1,g4) Pages: 1 -->
<svg width="257pt" height="52pt"
 viewBox="0.00 0.00 256.72 52.00" xmlns="http://www.w3.org/2000/svg" xmlns:xlink="http://www.w3.org/1999/xlink">
<g id="graph0" class="graph" transform="scale(1 1) rotate(0) translate(4 48)">
<title>Concatenate(g1,g4)</title>
<!-- dot_dummyinit_1 -->
<g id="node1" class="node">
<title>dot_dummyinit_1</title>
</g>
<!-- 1 -->
<g id="node2" class="node">
<title>1</title>
<ellipse fill="none" stroke="black" cx="55.72" cy="-22" rx="18" ry="18"/>
<text text-anchor="middle" x="55.72" y="-16.57" font-family="Arial" font-size="14.00">1</text>
</g>
<!-- dot_dummyinit_1&#45;&gt;1 -->
<g id="edge1" class="edge">
<title>dot_dummyinit_1&#45;&gt;1</title>
<path fill="none" stroke="black" d="M0.87,-22C2.34,-22 13.93,-22 25.99,-22"/>
<polygon fill="black" stroke="black" points="25.86,-25.5 35.86,-22 25.86,-18.5 25.86,-25.5"/>
</g>
<!-- 3 -->
<g id="node3" class="node">
<title>3</title>
<ellipse fill="none" stroke="black" cx="139.22" cy="-22" rx="18" ry="18"/>
<ellipse fill="none" stroke="black" cx="139.22" cy="-22" rx="22" ry="22"/>
<text text-anchor="middle" x="139.22" y="-16.57" font-family="Arial" font-size="14.00">3</text>
</g>
<!-- 1&#45;&gt;3 -->
<g id="edge2" class="edge">
<title>1&#45;&gt;3</title>
<path fill="none" stroke="black" d="M74,-22C83.2,-22 94.82,-22 105.63,-22"/>
<polygon fill="black" stroke="black" points="105.39,-25.5 115.39,-22 105.39,-18.5 105.39,-25.5"/>
<text text-anchor="middle" x="95.47" y="-24.45" font-family="Arial" font-size="14.00">a</text>
</g>
<!-- 4 -->
<g id="node4" class="node">
<title>4</title>
<ellipse fill="none" stroke="black" cx="226.72" cy="-22" rx="18" ry="18"/>
<ellipse fill="none" stroke="black" cx="226.72" cy="-22" rx="22" ry="22"/>
<text text-anchor="middle" x="226.72" y="-16.57" font-family="Arial" font-size="14.00">4</text>
</g>
<!-- 3&#45;&gt;4 -->
<g id="edge3" class="edge">
<title>3&#45;&gt;4</title>
<path fill="none" stroke="black" d="M161.35,-22C170.84,-22 182.25,-22 192.82,-22"/>
<polygon fill="black" stroke="black" points="192.72,-25.5 202.72,-22 192.72,-18.5 192.72,-25.5"/>
<text text-anchor="middle" x="182.97" y="-24.45" font-family="Arial" font-size="14.00">b</text>
</g>
</g>
</svg>
