<?xml version="1.0" encoding="UTF-8" standalone="no"?>
<!DOCTYPE svg PUBLIC "-//W3C//DTD SVG 1.0//EN"
 "http://www.w3.org/TR/2001/REC-SVG-20010904/DTD/svg10.dtd" [
 <!ATTLIST svg xmlns:xlink CDATA #FIXED "http://www.w3.org/1999/xlink">
]>
<!-- Generated by Graphviz version 2.20.2 (Tue Mar &#160;2 21:46:26 UTC 2010)
     For user: (mtmoor) Prof. Thomas Moor -->
<!-- Title: very simple machine 1||very simple machine 2 Pages: 1 -->
<svg width="520pt" height="109pt"
 viewBox="0.00 0.00 520.00 109.00" xmlns="http://www.w3.org/2000/svg" xmlns:xlink="http://www.w3.org/1999/xlink">
<g id="graph0" class="graph" transform="scale(1 1) rotate(0) translate(4 105)">
<title>very simple machine 1||very simple machine 2</title>
<polygon style="fill:none;stroke:none;" points="-4,4 -4,-105 516,-105 516,4 -4,4"/>
<!-- dot_dummyinit_1 -->
<g id="node1" class="node"><title>dot_dummyinit_1</title>
</g>
<!-- I|I -->
<g id="node3" class="node"><title>I|I</title>
<ellipse style="fill:none;stroke:black;" cx="65" cy="-25" rx="20.8465" ry="20.8465"/>
<ellipse style="fill:none;stroke:black;" cx="65" cy="-25" rx="24.8465" ry="24.8465"/>
<text text-anchor="middle" x="65" y="-20.9" style="font-family:Times New Roman;font-size:14.00;">I|I</text>
</g>
<!-- dot_dummyinit_1&#45;&gt;I|I -->
<g id="edge2" class="edge"><title>dot_dummyinit_1&#45;&gt;I|I</title>
<path style="fill:none;stroke:black;" d="M2,-25C6,-25 18,-25 30,-25"/>
<polygon style="fill:black;stroke:black;" points="30,-28.5001 40,-25 30,-21.5001 30,-28.5001"/>
</g>
<!-- B|I -->
<g id="node4" class="node"><title>B|I</title>
<ellipse style="fill:none;stroke:black;" cx="204" cy="-71" rx="23.8245" ry="23.8245"/>
<text text-anchor="middle" x="204" y="-66.9" style="font-family:Times New Roman;font-size:14.00;">B|I</text>
</g>
<!-- I|I&#45;&gt;B|I -->
<g id="edge4" class="edge"><title>I|I&#45;&gt;B|I</title>
<path style="fill:none;stroke:black;" d="M83,-43C90,-49 99,-56 108,-60 127,-68 151,-71 170,-72"/>
<polygon style="fill:black;stroke:black;" points="170,-75.5001 180,-72 170,-68.5001 170,-75.5001"/>
<text text-anchor="middle" x="135" y="-73.9" style="font-family:Times New Roman;font-size:14.00;">alpha_1</text>
</g>
<!-- I|B -->
<g id="node5" class="node"><title>I|B</title>
<ellipse style="fill:none;stroke:black;" cx="488" cy="-25" rx="23.8245" ry="23.8245"/>
<text text-anchor="middle" x="488" y="-20.9" style="font-family:Times New Roman;font-size:14.00;">I|B</text>
</g>
<!-- I|I&#45;&gt;I|B -->
<g id="edge6" class="edge"><title>I|I&#45;&gt;I|B</title>
<path style="fill:none;stroke:black;" d="M90,-23C96,-23 102,-23 108,-23 132,-22 139,-22 162,-23 289,-23 320,-22 446,-24 449,-24 451,-24 454,-24"/>
<polygon style="fill:black;stroke:black;" points="454,-27.5001 464,-24 454,-20.5001 454,-27.5001"/>
<text text-anchor="middle" x="273" y="-25.9" style="font-family:Times New Roman;font-size:14.00;">alpha_2</text>
</g>
<!-- B|I&#45;&gt;I|I -->
<g id="edge8" class="edge"><title>B|I&#45;&gt;I|I</title>
<path style="fill:none;stroke:black;" d="M188,-53C181,-47 172,-40 162,-36 143,-28 119,-25 100,-24"/>
<polygon style="fill:black;stroke:black;" points="100,-20.5001 90,-24 100,-27.5001 100,-20.5001"/>
<text text-anchor="middle" x="135" y="-39.9" style="font-family:Times New Roman;font-size:14.00;">beta_1</text>
</g>
<!-- B|B -->
<g id="node6" class="node"><title>B|B</title>
<ellipse style="fill:none;stroke:black;" cx="346" cy="-73" rx="27.7953" ry="27.7953"/>
<text text-anchor="middle" x="346" y="-68.9" style="font-family:Times New Roman;font-size:14.00;">B|B</text>
</g>
<!-- B|I&#45;&gt;B|B -->
<g id="edge10" class="edge"><title>B|I&#45;&gt;B|B</title>
<path style="fill:none;stroke:black;" d="M228,-74C234,-74 240,-75 246,-75 266,-76 289,-75 308,-75"/>
<polygon style="fill:black;stroke:black;" points="308,-78.5001 318,-75 308,-71.5001 308,-78.5001"/>
<text text-anchor="middle" x="273" y="-78.9" style="font-family:Times New Roman;font-size:14.00;">alpha_2</text>
</g>
<!-- I|B&#45;&gt;I|I -->
<g id="edge14" class="edge"><title>I|B&#45;&gt;I|I</title>
<path style="fill:none;stroke:black;" d="M464,-21C458,-20 452,-19 446,-18 358,-5 336,5 246,-1 185,-4 170,-9 108,-18 105,-18 103,-19 100,-19"/>
<polygon style="fill:black;stroke:black;" points="99.1194,-15.6067 90,-21 100.492,-22.4708 99.1194,-15.6067"/>
<text text-anchor="middle" x="273" y="-4.9" style="font-family:Times New Roman;font-size:14.00;">beta_2</text>
</g>
<!-- I|B&#45;&gt;B|B -->
<g id="edge12" class="edge"><title>I|B&#45;&gt;B|B</title>
<path style="fill:none;stroke:black;" d="M464,-27C444,-29 416,-33 392,-43 387,-45 382,-47 378,-50"/>
<polygon style="fill:black;stroke:black;" points="375.379,-47.5408 369,-56 379.262,-53.3651 375.379,-47.5408"/>
<text text-anchor="middle" x="419" y="-46.9" style="font-family:Times New Roman;font-size:14.00;">alpha_1</text>
</g>
<!-- B|B&#45;&gt;B|I -->
<g id="edge18" class="edge"><title>B|B&#45;&gt;B|I</title>
<path style="fill:none;stroke:black;" d="M322,-59C315,-56 308,-53 300,-51 277,-45 270,-45 246,-51 242,-52 238,-53 234,-54"/>
<polygon style="fill:black;stroke:black;" points="232.042,-51.084 225,-59 235.441,-57.2031 232.042,-51.084"/>
<text text-anchor="middle" x="273" y="-54.9" style="font-family:Times New Roman;font-size:14.00;">beta_2</text>
</g>
<!-- B|B&#45;&gt;I|B -->
<g id="edge16" class="edge"><title>B|B&#45;&gt;I|B</title>
<path style="fill:none;stroke:black;" d="M374,-73C395,-72 423,-69 446,-60 452,-57 458,-54 463,-50"/>
<polygon style="fill:black;stroke:black;" points="465.779,-52.2191 471,-43 461.169,-46.9511 465.779,-52.2191"/>
<text text-anchor="middle" x="419" y="-74.9" style="font-family:Times New Roman;font-size:14.00;">beta_1</text>
</g>
</g>
</svg>
