<?xml version="1.0" encoding="UTF-8" standalone="no"?>
<!DOCTYPE svg PUBLIC "-//W3C//DTD SVG 1.0//EN"
 "http://www.w3.org/TR/2001/REC-SVG-20010904/DTD/svg10.dtd" [
 <!ATTLIST svg xmlns:xlink CDATA #FIXED "http://www.w3.org/1999/xlink">
]>
<!-- Generated by Graphviz version 2.20.2 (Tue Mar &#160;2 21:46:26 UTC 2010)
     For user: (mtmoor) Prof. Thomas Moor -->
<!-- Title: Intersection(g1,g2) Pages: 1 -->
<svg width="180pt" height="106pt"
 viewBox="0.00 0.00 180.00 106.00" xmlns="http://www.w3.org/2000/svg" xmlns:xlink="http://www.w3.org/1999/xlink">
<g id="graph0" class="graph" transform="scale(1 1) rotate(0) translate(4 102)">
<title>Intersection(g1,g2)</title>
<polygon style="fill:none;stroke:none;" points="-4,4 -4,-102 176,-102 176,4 -4,4"/>
<!-- dot_dummyinit_1 -->
<g id="node1" class="node"><title>dot_dummyinit_1</title>
</g>
<!-- 1 -->
<g id="node3" class="node"><title>1</title>
<ellipse style="fill:none;stroke:black;" cx="62" cy="-47" rx="18" ry="18"/>
<ellipse style="fill:none;stroke:black;" cx="62" cy="-47" rx="22" ry="22"/>
<text text-anchor="middle" x="62" y="-42.9" style="font-family:Times New Roman;font-size:14.00;">1</text>
</g>
<!-- dot_dummyinit_1&#45;&gt;1 -->
<g id="edge2" class="edge"><title>dot_dummyinit_1&#45;&gt;1</title>
<path style="fill:none;stroke:black;" d="M2,-47C5,-47 17,-47 30,-47"/>
<polygon style="fill:black;stroke:black;" points="30,-50.5001 40,-47 30,-43.5001 30,-50.5001"/>
</g>
<!-- 2 -->
<g id="node4" class="node"><title>2</title>
<ellipse style="fill:none;stroke:black;" cx="150" cy="-76" rx="18" ry="18"/>
<ellipse style="fill:none;stroke:black;" cx="150" cy="-76" rx="22" ry="22"/>
<text text-anchor="middle" x="150" y="-71.9" style="font-family:Times New Roman;font-size:14.00;">2</text>
</g>
<!-- 1&#45;&gt;2 -->
<g id="edge4" class="edge"><title>1&#45;&gt;2</title>
<path style="fill:none;stroke:black;" d="M83,-54C94,-58 107,-62 119,-66"/>
<polygon style="fill:black;stroke:black;" points="118.416,-69.4788 129,-69 120.427,-62.7741 118.416,-69.4788"/>
<text text-anchor="middle" x="106" y="-64.9" style="font-family:Times New Roman;font-size:14.00;">a</text>
</g>
<!-- 3 -->
<g id="node5" class="node"><title>3</title>
<ellipse style="fill:none;stroke:black;" cx="150" cy="-18" rx="18" ry="18"/>
<text text-anchor="middle" x="150" y="-13.9" style="font-family:Times New Roman;font-size:14.00;">3</text>
</g>
<!-- 1&#45;&gt;3 -->
<g id="edge6" class="edge"><title>1&#45;&gt;3</title>
<path style="fill:none;stroke:black;" d="M83,-40C95,-36 110,-31 123,-27"/>
<polygon style="fill:black;stroke:black;" points="124.427,-30.2259 133,-24 122.416,-23.5212 124.427,-30.2259"/>
<text text-anchor="middle" x="106" y="-36.9" style="font-family:Times New Roman;font-size:14.00;">c</text>
</g>
</g>
</svg>
