<?xml version="1.0" encoding="UTF-8" standalone="no"?>
<!DOCTYPE svg PUBLIC "-//W3C//DTD SVG 1.0//EN"
 "http://www.w3.org/TR/2001/REC-SVG-20010904/DTD/svg10.dtd" [
 <!ATTLIST svg xmlns:xlink CDATA #FIXED "http://www.w3.org/1999/xlink">
]>
<!-- Generated by Graphviz version 2.20.2 (Tue Mar &#160;2 21:46:26 UTC 2010)
     For user: (mtmoor) Prof. Thomas Moor -->
<!-- Title: Complement(Complement(g1)) Pages: 1 -->
<svg width="340pt" height="396pt"
 viewBox="0.00 0.00 340.00 396.00" xmlns="http://www.w3.org/2000/svg" xmlns:xlink="http://www.w3.org/1999/xlink">
<g id="graph0" class="graph" transform="scale(1 1) rotate(0) translate(4 392)">
<title>Complement(Complement(g1))</title>
<polygon style="fill:none;stroke:none;" points="-4,4 -4,-392 336,-392 336,4 -4,4"/>
<!-- dot_dummyinit_1 -->
<g id="node1" class="node"><title>dot_dummyinit_1</title>
</g>
<!-- 1 -->
<g id="node3" class="node"><title>1</title>
<ellipse style="fill:none;stroke:black;" cx="62" cy="-24" rx="18" ry="18"/>
<ellipse style="fill:none;stroke:black;" cx="62" cy="-24" rx="22" ry="22"/>
<text text-anchor="middle" x="62" y="-19.9" style="font-family:Times New Roman;font-size:14.00;">1</text>
</g>
<!-- dot_dummyinit_1&#45;&gt;1 -->
<g id="edge2" class="edge"><title>dot_dummyinit_1&#45;&gt;1</title>
<path style="fill:none;stroke:black;" d="M2,-24C5,-24 17,-24 30,-24"/>
<polygon style="fill:black;stroke:black;" points="30,-27.5001 40,-24 30,-20.5001 30,-27.5001"/>
</g>
<!-- 2 -->
<g id="node4" class="node"><title>2</title>
<ellipse style="fill:none;stroke:black;" cx="150" cy="-215" rx="18" ry="18"/>
<ellipse style="fill:none;stroke:black;" cx="150" cy="-215" rx="22" ry="22"/>
<text text-anchor="middle" x="150" y="-210.9" style="font-family:Times New Roman;font-size:14.00;">2</text>
</g>
<!-- 1&#45;&gt;2 -->
<g id="edge6" class="edge"><title>1&#45;&gt;2</title>
<path style="fill:none;stroke:black;" d="M71,-44C87,-78 118,-146 137,-186"/>
<polygon style="fill:black;stroke:black;" points="133.74,-187.283 141,-195 140.137,-184.44 133.74,-187.283"/>
<text text-anchor="middle" x="106" y="-127.9" style="font-family:Times New Roman;font-size:14.00;">a</text>
</g>
<!-- 4 -->
<g id="node6" class="node"><title>4</title>
<ellipse style="fill:none;stroke:black;" cx="314" cy="-188" rx="18" ry="18"/>
<text text-anchor="middle" x="314" y="-183.9" style="font-family:Times New Roman;font-size:14.00;">4</text>
</g>
<!-- 1&#45;&gt;4 -->
<g id="edge4" class="edge"><title>1&#45;&gt;4</title>
<path style="fill:none;stroke:black;" d="M82,-33C122,-51 213,-96 278,-149 284,-154 290,-160 296,-165"/>
<polygon style="fill:black;stroke:black;" points="293.781,-167.779 303,-173 299.049,-163.169 293.781,-167.779"/>
<text text-anchor="middle" x="194" y="-94.9" style="font-family:Times New Roman;font-size:14.00;">f</text>
</g>
<!-- 1&#45;&gt;4 -->
<g id="edge8" class="edge"><title>1&#45;&gt;4</title>
<path style="fill:none;stroke:black;" d="M84,-27C107,-30 143,-37 172,-49 211,-65 222,-71 252,-100 272,-118 289,-144 301,-163"/>
<polygon style="fill:black;stroke:black;" points="298.084,-164.958 306,-172 304.203,-161.559 298.084,-164.958"/>
<text text-anchor="middle" x="194" y="-61.9" style="font-family:Times New Roman;font-size:14.00;">b</text>
</g>
<!-- 1&#45;&gt;4 -->
<g id="edge10" class="edge"><title>1&#45;&gt;4</title>
<path style="fill:none;stroke:black;" d="M84,-21C124,-18 207,-17 252,-63 279,-90 297,-133 306,-160"/>
<polygon style="fill:black;stroke:black;" points="302.774,-161.427 309,-170 309.479,-159.416 302.774,-161.427"/>
<text text-anchor="middle" x="194" y="-36.9" style="font-family:Times New Roman;font-size:14.00;">d</text>
</g>
<!-- 1&#45;&gt;4 -->
<g id="edge12" class="edge"><title>1&#45;&gt;4</title>
<path style="fill:none;stroke:black;" d="M84,-20C90,-19 96,-18 102,-17 169,-9 203,10 252,-34 289,-67 304,-126 310,-160"/>
<polygon style="fill:black;stroke:black;" points="306.607,-160.881 312,-170 313.471,-159.508 306.607,-160.881"/>
<text text-anchor="middle" x="194" y="-12.9" style="font-family:Times New Roman;font-size:14.00;">c</text>
</g>
<!-- 3 -->
<g id="node5" class="node"><title>3</title>
<ellipse style="fill:none;stroke:black;" cx="234" cy="-331" rx="18" ry="18"/>
<text text-anchor="middle" x="234" y="-326.9" style="font-family:Times New Roman;font-size:14.00;">3</text>
</g>
<!-- 2&#45;&gt;3 -->
<g id="edge16" class="edge"><title>2&#45;&gt;3</title>
<path style="fill:none;stroke:black;" d="M153,-237C157,-261 167,-297 190,-319 194,-323 200,-325 206,-327"/>
<polygon style="fill:black;stroke:black;" points="205.416,-330.479 216,-330 207.427,-323.774 205.416,-330.479"/>
<text text-anchor="middle" x="194" y="-325.9" style="font-family:Times New Roman;font-size:14.00;">a</text>
</g>
<!-- 2&#45;&gt;4 -->
<g id="edge22" class="edge"><title>2&#45;&gt;4</title>
<path style="fill:none;stroke:black;" d="M171,-221C192,-226 225,-231 252,-224 266,-220 280,-212 292,-205"/>
<polygon style="fill:black;stroke:black;" points="294.1,-207.8 300,-199 289.9,-202.2 294.1,-207.8"/>
<text text-anchor="middle" x="234" y="-229.9" style="font-family:Times New Roman;font-size:14.00;">c</text>
</g>
<!-- 2&#45;&gt;4 -->
<g id="edge14" class="edge"><title>2&#45;&gt;4</title>
<path style="fill:none;stroke:black;" d="M172,-211C201,-207 254,-198 286,-193"/>
<polygon style="fill:black;stroke:black;" points="286.881,-196.393 296,-191 285.508,-189.529 286.881,-196.393"/>
<text text-anchor="middle" x="234" y="-206.9" style="font-family:Times New Roman;font-size:14.00;">f</text>
</g>
<!-- 2&#45;&gt;4 -->
<g id="edge18" class="edge"><title>2&#45;&gt;4</title>
<path style="fill:none;stroke:black;" d="M167,-201C180,-192 198,-180 216,-176 240,-169 267,-174 287,-179"/>
<polygon style="fill:black;stroke:black;" points="286.416,-182.479 297,-182 288.427,-175.774 286.416,-182.479"/>
<text text-anchor="middle" x="234" y="-179.9" style="font-family:Times New Roman;font-size:14.00;">b</text>
</g>
<!-- 2&#45;&gt;4 -->
<g id="edge20" class="edge"><title>2&#45;&gt;4</title>
<path style="fill:none;stroke:black;" d="M162,-197C174,-181 193,-159 216,-150 242,-140 273,-155 292,-170"/>
<polygon style="fill:black;stroke:black;" points="289.9,-172.8 300,-176 294.1,-167.2 289.9,-172.8"/>
<text text-anchor="middle" x="234" y="-153.9" style="font-family:Times New Roman;font-size:14.00;">d</text>
</g>
<!-- 3&#45;&gt;2 -->
<g id="edge28" class="edge"><title>3&#45;&gt;2</title>
<path style="fill:none;stroke:black;" d="M222,-318C213,-307 200,-293 190,-279 182,-267 174,-254 166,-243"/>
<polygon style="fill:black;stroke:black;" points="168.916,-241.042 161,-234 162.797,-244.441 168.916,-241.042"/>
<text text-anchor="middle" x="194" y="-288.9" style="font-family:Times New Roman;font-size:14.00;">b</text>
</g>
<!-- 3&#45;&gt;4 -->
<g id="edge24" class="edge"><title>3&#45;&gt;4</title>
<path style="fill:none;stroke:black;" d="M242,-347C251,-362 265,-381 278,-371 302,-352 310,-262 312,-216"/>
<polygon style="fill:black;stroke:black;" points="315.488,-216.299 313,-206 308.522,-215.602 315.488,-216.299"/>
<text text-anchor="middle" x="274" y="-375.9" style="font-family:Times New Roman;font-size:14.00;">f</text>
</g>
<!-- 3&#45;&gt;4 -->
<g id="edge26" class="edge"><title>3&#45;&gt;4</title>
<path style="fill:none;stroke:black;" d="M252,-336C261,-337 271,-337 278,-331 296,-316 306,-254 311,-216"/>
<polygon style="fill:black;stroke:black;" points="314.488,-216.299 312,-206 307.522,-215.602 314.488,-216.299"/>
<text text-anchor="middle" x="274" y="-337.9" style="font-family:Times New Roman;font-size:14.00;">a</text>
</g>
<!-- 3&#45;&gt;4 -->
<g id="edge30" class="edge"><title>3&#45;&gt;4</title>
<path style="fill:none;stroke:black;" d="M249,-321C259,-313 271,-303 278,-291 293,-268 303,-237 309,-216"/>
<polygon style="fill:black;stroke:black;" points="312.471,-216.492 311,-206 305.607,-215.119 312.471,-216.492"/>
<text text-anchor="middle" x="274" y="-305.9" style="font-family:Times New Roman;font-size:14.00;">d</text>
</g>
<!-- 3&#45;&gt;4 -->
<g id="edge32" class="edge"><title>3&#45;&gt;4</title>
<path style="fill:none;stroke:black;" d="M243,-315C257,-291 284,-242 300,-213"/>
<polygon style="fill:black;stroke:black;" points="303.203,-214.441 305,-204 297.084,-211.042 303.203,-214.441"/>
<text text-anchor="middle" x="274" y="-270.9" style="font-family:Times New Roman;font-size:14.00;">c</text>
</g>
<!-- 4&#45;&gt;4 -->
<g id="edge34" class="edge"><title>4&#45;&gt;4</title>
<path style="fill:none;stroke:black;" d="M313,-206C312,-216 313,-224 314,-224 315,-224 315,-221 315,-216"/>
<polygon style="fill:black;stroke:black;" points="318.5,-216 315,-206 311.5,-216 318.5,-216"/>
<text text-anchor="middle" x="314" y="-227.9" style="font-family:Times New Roman;font-size:14.00;">f</text>
</g>
<!-- 4&#45;&gt;4 -->
<g id="edge36" class="edge"><title>4&#45;&gt;4</title>
<path style="fill:none;stroke:black;" d="M310,-206C308,-223 309,-242 314,-242 318,-242 319,-230 319,-216"/>
<polygon style="fill:black;stroke:black;" points="322.478,-215.602 318,-206 315.512,-216.299 322.478,-215.602"/>
<text text-anchor="middle" x="314" y="-245.9" style="font-family:Times New Roman;font-size:14.00;">a</text>
</g>
<!-- 4&#45;&gt;4 -->
<g id="edge38" class="edge"><title>4&#45;&gt;4</title>
<path style="fill:none;stroke:black;" d="M310,-206C305,-230 307,-260 314,-260 320,-260 322,-238 320,-216"/>
<polygon style="fill:black;stroke:black;" points="323.393,-215.119 318,-206 316.529,-216.492 323.393,-215.119"/>
<text text-anchor="middle" x="314" y="-263.9" style="font-family:Times New Roman;font-size:14.00;">b</text>
</g>
<!-- 4&#45;&gt;4 -->
<g id="edge40" class="edge"><title>4&#45;&gt;4</title>
<path style="fill:none;stroke:black;" d="M309,-206C303,-237 305,-278 314,-278 322,-278 325,-245 321,-216"/>
<polygon style="fill:black;stroke:black;" points="324.393,-215.119 319,-206 317.529,-216.492 324.393,-215.119"/>
<text text-anchor="middle" x="314" y="-281.9" style="font-family:Times New Roman;font-size:14.00;">d</text>
</g>
<!-- 4&#45;&gt;4 -->
<g id="edge42" class="edge"><title>4&#45;&gt;4</title>
<path style="fill:none;stroke:black;" d="M309,-206C301,-243 303,-296 314,-296 324,-296 327,-252 321,-216"/>
<polygon style="fill:black;stroke:black;" points="324.393,-215.119 319,-206 317.529,-216.492 324.393,-215.119"/>
<text text-anchor="middle" x="314" y="-299.9" style="font-family:Times New Roman;font-size:14.00;">c</text>
</g>
</g>
</svg>
