<?xml version="1.0" encoding="UTF-8" standalone="no"?>
<!DOCTYPE svg PUBLIC "-//W3C//DTD SVG 1.1//EN"
 "http://www.w3.org/Graphics/SVG/1.1/DTD/svg11.dtd">
<!-- Generated by graphviz version 12.2.1 (20241206.2353)
 -->
<!-- Title: G1||G2 Pages: 1 -->
<svg width="597pt" height="208pt"
 viewBox="0.00 0.00 596.72 207.75" xmlns="http://www.w3.org/2000/svg" xmlns:xlink="http://www.w3.org/1999/xlink">
<g id="graph0" class="graph" transform="scale(1 1) rotate(0) translate(4 203.75)">
<title>G1||G2</title>
<!-- dot_dummyinit_1 -->
<g id="node1" class="node">
<title>dot_dummyinit_1</title>
</g>
<!-- 1|1 -->
<g id="node2" class="node">
<title>1|1</title>
<path fill="none" stroke="black" d="M79.72,-132C79.72,-132 49.72,-132 49.72,-132 43.72,-132 37.72,-126 37.72,-120 37.72,-120 37.72,-108 37.72,-108 37.72,-102 43.72,-96 49.72,-96 49.72,-96 79.72,-96 79.72,-96 85.72,-96 91.72,-102 91.72,-108 91.72,-108 91.72,-120 91.72,-120 91.72,-126 85.72,-132 79.72,-132"/>
<text text-anchor="middle" x="64.72" y="-108.58" font-family="Arial" font-size="14.00">1|1</text>
</g>
<!-- dot_dummyinit_1&#45;&gt;1|1 -->
<g id="edge1" class="edge">
<title>dot_dummyinit_1&#45;&gt;1|1</title>
<path fill="none" stroke="black" d="M0.77,-114C1.57,-114 12.96,-114 25.83,-114"/>
<polygon fill="black" stroke="black" points="25.79,-117.5 35.79,-114 25.79,-110.5 25.79,-117.5"/>
</g>
<!-- 1|2 -->
<g id="node3" class="node">
<title>1|2</title>
<path fill="none" stroke="black" d="M181.97,-77C181.97,-77 147.22,-77 147.22,-77 141.22,-77 135.22,-71 135.22,-65 135.22,-65 135.22,-53 135.22,-53 135.22,-47 141.22,-41 147.22,-41 147.22,-41 181.97,-41 181.97,-41 187.97,-41 193.97,-47 193.97,-53 193.97,-53 193.97,-65 193.97,-65 193.97,-71 187.97,-77 181.97,-77"/>
<text text-anchor="start" x="147.22" y="-53.58" font-family="Arial" font-size="14.00">1|2</text>
<polygon fill="black" stroke="none" points="175.97,-49.12 175.97,-68.88 183.97,-68.88 183.97,-49.12 175.97,-49.12"/>
</g>
<!-- 1|1&#45;&gt;1|2 -->
<g id="edge3" class="edge">
<title>1|1&#45;&gt;1|2</title>
<path fill="none" stroke="black" d="M92.21,-99.12C102.35,-93.42 114.13,-86.79 125.17,-80.59"/>
<polygon fill="black" stroke="black" points="126.7,-83.74 133.71,-75.79 123.28,-77.64 126.7,-83.74"/>
<text text-anchor="middle" x="113.47" y="-90.6" font-family="Arial" font-size="14.00">a</text>
</g>
<!-- 2|1 -->
<g id="node5" class="node">
<title>2|1</title>
<path fill="none" stroke="black" d="M381.72,-166C381.72,-166 351.72,-166 351.72,-166 345.72,-166 339.72,-160 339.72,-154 339.72,-154 339.72,-142 339.72,-142 339.72,-136 345.72,-130 351.72,-130 351.72,-130 381.72,-130 381.72,-130 387.72,-130 393.72,-136 393.72,-142 393.72,-142 393.72,-154 393.72,-154 393.72,-160 387.72,-166 381.72,-166"/>
<text text-anchor="middle" x="366.72" y="-142.57" font-family="Arial" font-size="14.00">2|1</text>
</g>
<!-- 1|1&#45;&gt;2|1 -->
<g id="edge2" class="edge">
<title>1|1&#45;&gt;2|1</title>
<path fill="none" stroke="black" d="M92.08,-116.99C145.54,-123.05 266.85,-136.8 328.4,-143.77"/>
<polygon fill="black" stroke="black" points="327.69,-147.21 338.02,-144.86 328.48,-140.26 327.69,-147.21"/>
<text text-anchor="middle" x="215.72" y="-133.84" font-family="Arial" font-size="14.00">g</text>
</g>
<!-- 1|2&#45;&gt;1|2 -->
<g id="edge7" class="edge">
<title>1|2&#45;&gt;1|2</title>
<path fill="none" stroke="black" d="M155.35,-77.15C153.92,-86.54 157.01,-95 164.6,-95 168.86,-95 171.71,-92.32 173.12,-88.31"/>
<polygon fill="black" stroke="black" points="176.6,-88.87 173.75,-78.66 169.61,-88.42 176.6,-88.87"/>
<text text-anchor="middle" x="164.6" y="-97.45" font-family="Arial" font-size="14.00">a</text>
</g>
<!-- 2|2 -->
<g id="node4" class="node">
<title>2|2</title>
<path fill="none" stroke="black" d="M284.22,-108C284.22,-108 249.47,-108 249.47,-108 243.47,-108 237.47,-102 237.47,-96 237.47,-96 237.47,-84 237.47,-84 237.47,-78 243.47,-72 249.47,-72 249.47,-72 284.22,-72 284.22,-72 290.22,-72 296.22,-78 296.22,-84 296.22,-84 296.22,-96 296.22,-96 296.22,-102 290.22,-108 284.22,-108"/>
<text text-anchor="start" x="249.47" y="-84.58" font-family="Arial" font-size="14.00">2|2</text>
<polygon fill="black" stroke="none" points="278.22,-80.12 278.22,-99.88 286.22,-99.88 286.22,-80.12 278.22,-80.12"/>
</g>
<!-- 1|2&#45;&gt;2|2 -->
<g id="edge8" class="edge">
<title>1|2&#45;&gt;2|2</title>
<path fill="none" stroke="black" d="M194.32,-67.88C204.29,-70.96 215.64,-74.47 226.31,-77.78"/>
<polygon fill="black" stroke="black" points="225.08,-81.06 235.67,-80.67 227.15,-74.37 225.08,-81.06"/>
<text text-anchor="middle" x="215.72" y="-77.88" font-family="Arial" font-size="14.00">g</text>
</g>
<!-- 2|2&#45;&gt;2|1 -->
<g id="edge9" class="edge">
<title>2|2&#45;&gt;2|1</title>
<path fill="none" stroke="black" d="M296.68,-107.09C307.04,-113.23 318.86,-120.23 329.75,-126.69"/>
<polygon fill="black" stroke="black" points="327.74,-129.56 338.12,-131.65 331.31,-123.54 327.74,-129.56"/>
<text text-anchor="middle" x="317.97" y="-123.19" font-family="Arial" font-size="14.00">b</text>
</g>
<!-- 3|2 -->
<g id="node6" class="node">
<title>3|2</title>
<path fill="none" stroke="black" d="M479.22,-108C479.22,-108 449.22,-108 449.22,-108 443.22,-108 437.22,-102 437.22,-96 437.22,-96 437.22,-84 437.22,-84 437.22,-78 443.22,-72 449.22,-72 449.22,-72 479.22,-72 479.22,-72 485.22,-72 491.22,-78 491.22,-84 491.22,-84 491.22,-96 491.22,-96 491.22,-102 485.22,-108 479.22,-108"/>
<text text-anchor="middle" x="464.22" y="-84.58" font-family="Arial" font-size="14.00">3|2</text>
</g>
<!-- 2|2&#45;&gt;3|2 -->
<g id="edge10" class="edge">
<title>2|2&#45;&gt;3|2</title>
<path fill="none" stroke="black" d="M296.67,-90C330.77,-90 387.64,-90 425.29,-90"/>
<polygon fill="black" stroke="black" points="425.27,-93.5 435.27,-90 425.27,-86.5 425.27,-93.5"/>
<text text-anchor="middle" x="366.72" y="-92.45" font-family="Arial" font-size="14.00">g, a</text>
</g>
<!-- 2|1&#45;&gt;2|1 -->
<g id="edge4" class="edge">
<title>2|1&#45;&gt;2|1</title>
<path fill="none" stroke="black" d="M357.9,-166.15C356.54,-175.54 359.48,-184 366.72,-184 370.79,-184 373.5,-181.32 374.85,-177.31"/>
<polygon fill="black" stroke="black" points="378.33,-177.86 375.45,-167.66 371.34,-177.43 378.33,-177.86"/>
<text text-anchor="middle" x="366.72" y="-186.45" font-family="Arial" font-size="14.00">b</text>
</g>
<!-- 2|1&#45;&gt;3|2 -->
<g id="edge5" class="edge">
<title>2|1&#45;&gt;3|2</title>
<path fill="none" stroke="black" d="M394.07,-132C404.3,-125.79 416.18,-118.57 427.18,-111.89"/>
<polygon fill="black" stroke="black" points="428.93,-114.92 435.66,-106.74 425.3,-108.94 428.93,-114.92"/>
<text text-anchor="middle" x="415.47" y="-123.19" font-family="Arial" font-size="14.00">a</text>
</g>
<!-- 3|1 -->
<g id="node7" class="node">
<title>3|1</title>
<path fill="none" stroke="black" d="M576.72,-108C576.72,-108 546.72,-108 546.72,-108 540.72,-108 534.72,-102 534.72,-96 534.72,-96 534.72,-84 534.72,-84 534.72,-78 540.72,-72 546.72,-72 546.72,-72 576.72,-72 576.72,-72 582.72,-72 588.72,-78 588.72,-84 588.72,-84 588.72,-96 588.72,-96 588.72,-102 582.72,-108 576.72,-108"/>
<text text-anchor="middle" x="561.72" y="-84.58" font-family="Arial" font-size="14.00">3|1</text>
</g>
<!-- 2|1&#45;&gt;3|1 -->
<g id="edge6" class="edge">
<title>2|1&#45;&gt;3|1</title>
<path fill="none" stroke="black" d="M394.06,-144.66C402.18,-143.43 411.11,-141.87 419.22,-140 463.4,-129.83 474.33,-126.08 516.72,-110 519.08,-109.11 521.49,-108.14 523.91,-107.15"/>
<polygon fill="black" stroke="black" points="525.24,-110.38 533.04,-103.21 522.47,-103.96 525.24,-110.38"/>
<text text-anchor="middle" x="464.22" y="-138.1" font-family="Arial" font-size="14.00">g</text>
</g>
<!-- 3|2&#45;&gt;1|2 -->
<g id="edge11" class="edge">
<title>3|2&#45;&gt;1|2</title>
<path fill="none" stroke="black" d="M436.75,-84.63C403.93,-78.23 346.21,-67.79 296.22,-63 265.96,-60.1 231.59,-59.14 205.71,-58.89"/>
<polygon fill="black" stroke="black" points="205.99,-55.39 195.97,-58.82 205.95,-62.39 205.99,-55.39"/>
<text text-anchor="middle" x="317.97" y="-68.17" font-family="Arial" font-size="14.00">a</text>
</g>
<!-- 3|2&#45;&gt;3|1 -->
<g id="edge12" class="edge">
<title>3|2&#45;&gt;3|1</title>
<path fill="none" stroke="black" d="M491.57,-90C501.28,-90 512.47,-90 522.99,-90"/>
<polygon fill="black" stroke="black" points="522.94,-93.5 532.94,-90 522.94,-86.5 522.94,-93.5"/>
<text text-anchor="middle" x="512.97" y="-92.45" font-family="Arial" font-size="14.00">b</text>
</g>
<!-- 3|1&#45;&gt;1|2 -->
<g id="edge13" class="edge">
<title>3|1&#45;&gt;1|2</title>
<path fill="none" stroke="black" d="M551.79,-71.79C537.46,-45.49 506.68,0 465.22,0 265.85,0 265.85,0 265.85,0 237.9,0 210.88,-17.23 191.95,-33.07"/>
<polygon fill="black" stroke="black" points="189.66,-30.42 184.47,-39.66 194.29,-35.68 189.66,-30.42"/>
<text text-anchor="middle" x="366.72" y="-2.45" font-family="Arial" font-size="14.00">a</text>
</g>
<!-- 3|1&#45;&gt;3|1 -->
<g id="edge14" class="edge">
<title>3|1&#45;&gt;3|1</title>
<path fill="none" stroke="black" d="M552.9,-108.15C551.54,-117.54 554.48,-126 561.72,-126 565.79,-126 568.5,-123.32 569.85,-119.31"/>
<polygon fill="black" stroke="black" points="573.33,-119.86 570.45,-109.66 566.34,-119.43 573.33,-119.86"/>
<text text-anchor="middle" x="561.72" y="-128.45" font-family="Arial" font-size="14.00">b</text>
</g>
</g>
</svg>
