<?xml version="1.0" encoding="UTF-8" standalone="no"?>
<!DOCTYPE svg PUBLIC "-//W3C//DTD SVG 1.1//EN"
 "http://www.w3.org/Graphics/SVG/1.1/DTD/svg11.dtd">
<!-- Generated by graphviz version 12.2.1 (20241206.2353)
 -->
<!-- Title: GCoccessible Pages: 1 -->
<svg width="655pt" height="115pt"
 viewBox="0.00 0.00 655.25 114.77" xmlns="http://www.w3.org/2000/svg" xmlns:xlink="http://www.w3.org/1999/xlink">
<g id="graph0" class="graph" transform="scale(1 1) rotate(0) translate(4 110.77)">
<title>GCoccessible</title>
<!-- dot_dummyinit_1 -->
<g id="node1" class="node">
<title>dot_dummyinit_1</title>
</g>
<!-- s1 -->
<g id="node2" class="node">
<title>s1</title>
<path fill="none" stroke="black" d="M147.25,-38.77C147.25,-38.77 117.25,-38.77 117.25,-38.77 111.25,-38.77 105.25,-32.77 105.25,-26.77 105.25,-26.77 105.25,-14.77 105.25,-14.77 105.25,-8.77 111.25,-2.77 117.25,-2.77 117.25,-2.77 147.25,-2.77 147.25,-2.77 153.25,-2.77 159.25,-8.77 159.25,-14.77 159.25,-14.77 159.25,-26.77 159.25,-26.77 159.25,-32.77 153.25,-38.77 147.25,-38.77"/>
<text text-anchor="middle" x="132.25" y="-15.34" font-family="Arial" font-size="14.00">s1</text>
</g>
<!-- dot_dummyinit_1&#45;&gt;s1 -->
<g id="edge1" class="edge">
<title>dot_dummyinit_1&#45;&gt;s1</title>
<path fill="none" stroke="black" d="M31.95,-20.77C33.67,-20.77 66.16,-20.77 93.51,-20.77"/>
<polygon fill="black" stroke="black" points="93.3,-24.27 103.3,-20.77 93.3,-17.27 93.3,-24.27"/>
</g>
<!-- s2 -->
<g id="node3" class="node">
<title>s2</title>
<path fill="none" stroke="black" d="M245,-38.77C245,-38.77 214.75,-38.77 214.75,-38.77 208.75,-38.77 202.75,-32.77 202.75,-26.77 202.75,-26.77 202.75,-14.77 202.75,-14.77 202.75,-8.77 208.75,-2.77 214.75,-2.77 214.75,-2.77 245,-2.77 245,-2.77 251,-2.77 257,-8.77 257,-14.77 257,-14.77 257,-26.77 257,-26.77 257,-32.77 251,-38.77 245,-38.77"/>
<text text-anchor="start" x="214.75" y="-15.34" font-family="Arial" font-size="14.00">s2</text>
<polygon fill="black" stroke="none" points="239,-10.89 239,-30.64 247,-30.64 247,-10.89 239,-10.89"/>
</g>
<!-- s1&#45;&gt;s2 -->
<g id="edge2" class="edge">
<title>s1&#45;&gt;s2</title>
<path fill="none" stroke="black" d="M159.63,-20.77C169.35,-20.77 180.56,-20.77 191.09,-20.77"/>
<polygon fill="black" stroke="black" points="191.06,-24.27 201.06,-20.77 191.06,-17.27 191.06,-24.27"/>
<text text-anchor="middle" x="181" y="-23.22" font-family="Arial" font-size="14.00">a</text>
</g>
<!-- s2&#45;&gt;s1 -->
<g id="edge4" class="edge">
<title>s2&#45;&gt;s1</title>
<path fill="none" stroke="black" d="M202.29,-4.23C194.39,-1.07 185.6,0.77 177.25,-1.02 174.95,-1.51 172.62,-2.13 170.3,-2.85"/>
<polygon fill="black" stroke="black" points="169.22,0.48 161.05,-6.26 171.64,-6.08 169.22,0.48"/>
<text text-anchor="middle" x="181" y="-3.47" font-family="Arial" font-size="14.00">b</text>
</g>
<!-- s3 -->
<g id="node6" class="node">
<title>s3</title>
<path fill="none" stroke="black" d="M342.5,-38.77C342.5,-38.77 312.5,-38.77 312.5,-38.77 306.5,-38.77 300.5,-32.77 300.5,-26.77 300.5,-26.77 300.5,-14.77 300.5,-14.77 300.5,-8.77 306.5,-2.77 312.5,-2.77 312.5,-2.77 342.5,-2.77 342.5,-2.77 348.5,-2.77 354.5,-8.77 354.5,-14.77 354.5,-14.77 354.5,-26.77 354.5,-26.77 354.5,-32.77 348.5,-38.77 342.5,-38.77"/>
<text text-anchor="middle" x="327.5" y="-15.34" font-family="Arial" font-size="14.00">s3</text>
</g>
<!-- s2&#45;&gt;s3 -->
<g id="edge3" class="edge">
<title>s2&#45;&gt;s3</title>
<path fill="none" stroke="black" d="M257.26,-20.77C266.98,-20.77 278.19,-20.77 288.72,-20.77"/>
<polygon fill="black" stroke="black" points="288.69,-24.27 298.69,-20.77 288.69,-17.27 288.69,-24.27"/>
<text text-anchor="middle" x="278.75" y="-23.22" font-family="Arial" font-size="14.00">a</text>
</g>
<!-- s9 -->
<g id="node4" class="node">
<title>s9</title>
<path fill="none" stroke="black" d="M635.25,-38.77C635.25,-38.77 605,-38.77 605,-38.77 599,-38.77 593,-32.77 593,-26.77 593,-26.77 593,-14.77 593,-14.77 593,-8.77 599,-2.77 605,-2.77 605,-2.77 635.25,-2.77 635.25,-2.77 641.25,-2.77 647.25,-8.77 647.25,-14.77 647.25,-14.77 647.25,-26.77 647.25,-26.77 647.25,-32.77 641.25,-38.77 635.25,-38.77"/>
<text text-anchor="start" x="605" y="-15.34" font-family="Arial" font-size="14.00">s9</text>
<polygon fill="black" stroke="none" points="629.25,-10.89 629.25,-30.64 637.25,-30.64 637.25,-10.89 629.25,-10.89"/>
</g>
<!-- s20 -->
<g id="node5" class="node">
<title>s20</title>
<path fill="none" stroke="black" d="M49.75,-92.77C49.75,-92.77 12,-92.77 12,-92.77 6,-92.77 0,-86.77 0,-80.77 0,-80.77 0,-68.77 0,-68.77 0,-62.77 6,-56.77 12,-56.77 12,-56.77 49.75,-56.77 49.75,-56.77 55.75,-56.77 61.75,-62.77 61.75,-68.77 61.75,-68.77 61.75,-80.77 61.75,-80.77 61.75,-86.77 55.75,-92.77 49.75,-92.77"/>
<text text-anchor="start" x="12" y="-69.34" font-family="Arial" font-size="14.00">s20</text>
<polygon fill="black" stroke="none" points="43.75,-64.89 43.75,-84.64 51.75,-84.64 51.75,-64.89 43.75,-64.89"/>
</g>
<!-- s21 -->
<g id="node9" class="node">
<title>s21</title>
<path fill="none" stroke="black" d="M147.25,-106.77C147.25,-106.77 117.25,-106.77 117.25,-106.77 111.25,-106.77 105.25,-100.77 105.25,-94.77 105.25,-94.77 105.25,-82.77 105.25,-82.77 105.25,-76.77 111.25,-70.77 117.25,-70.77 117.25,-70.77 147.25,-70.77 147.25,-70.77 153.25,-70.77 159.25,-76.77 159.25,-82.77 159.25,-82.77 159.25,-94.77 159.25,-94.77 159.25,-100.77 153.25,-106.77 147.25,-106.77"/>
<text text-anchor="middle" x="132.25" y="-83.34" font-family="Arial" font-size="14.00">s21</text>
</g>
<!-- s20&#45;&gt;s21 -->
<g id="edge9" class="edge">
<title>s20&#45;&gt;s21</title>
<path fill="none" stroke="black" d="M62.23,-79.04C72.1,-80.43 83.18,-81.99 93.52,-83.45"/>
<polygon fill="black" stroke="black" points="92.89,-86.9 103.28,-84.82 93.87,-79.96 92.89,-86.9"/>
<text text-anchor="middle" x="83.5" y="-84.63" font-family="Arial" font-size="14.00">a</text>
</g>
<!-- s4 -->
<g id="node7" class="node">
<title>s4</title>
<path fill="none" stroke="black" d="M440,-38.77C440,-38.77 410,-38.77 410,-38.77 404,-38.77 398,-32.77 398,-26.77 398,-26.77 398,-14.77 398,-14.77 398,-8.77 404,-2.77 410,-2.77 410,-2.77 440,-2.77 440,-2.77 446,-2.77 452,-8.77 452,-14.77 452,-14.77 452,-26.77 452,-26.77 452,-32.77 446,-38.77 440,-38.77"/>
<text text-anchor="middle" x="425" y="-15.34" font-family="Arial" font-size="14.00">s4</text>
</g>
<!-- s3&#45;&gt;s4 -->
<g id="edge5" class="edge">
<title>s3&#45;&gt;s4</title>
<path fill="none" stroke="black" d="M354.85,-20.77C364.56,-20.77 375.75,-20.77 386.27,-20.77"/>
<polygon fill="black" stroke="black" points="386.22,-24.27 396.22,-20.77 386.22,-17.27 386.22,-24.27"/>
<text text-anchor="middle" x="376.25" y="-23.22" font-family="Arial" font-size="14.00">c</text>
</g>
<!-- s4&#45;&gt;s3 -->
<g id="edge7" class="edge">
<title>s4&#45;&gt;s3</title>
<path fill="none" stroke="black" d="M397.62,-6.78C391.95,-4.39 385.9,-2.28 380,-1.02 375.26,0 370.38,-0.16 365.6,-1.07"/>
<polygon fill="black" stroke="black" points="364.76,2.33 356.2,-3.91 366.78,-4.37 364.76,2.33"/>
<text text-anchor="middle" x="376.25" y="-3.47" font-family="Arial" font-size="14.00">d</text>
</g>
<!-- s5 -->
<g id="node8" class="node">
<title>s5</title>
<path fill="none" stroke="black" d="M537.5,-38.77C537.5,-38.77 507.5,-38.77 507.5,-38.77 501.5,-38.77 495.5,-32.77 495.5,-26.77 495.5,-26.77 495.5,-14.77 495.5,-14.77 495.5,-8.77 501.5,-2.77 507.5,-2.77 507.5,-2.77 537.5,-2.77 537.5,-2.77 543.5,-2.77 549.5,-8.77 549.5,-14.77 549.5,-14.77 549.5,-26.77 549.5,-26.77 549.5,-32.77 543.5,-38.77 537.5,-38.77"/>
<text text-anchor="middle" x="522.5" y="-15.34" font-family="Arial" font-size="14.00">s5</text>
</g>
<!-- s4&#45;&gt;s5 -->
<g id="edge6" class="edge">
<title>s4&#45;&gt;s5</title>
<path fill="none" stroke="black" d="M452.35,-20.77C462.06,-20.77 473.25,-20.77 483.77,-20.77"/>
<polygon fill="black" stroke="black" points="483.72,-24.27 493.72,-20.77 483.72,-17.27 483.72,-24.27"/>
<text text-anchor="middle" x="473.75" y="-23.22" font-family="Arial" font-size="14.00">b</text>
</g>
<!-- s5&#45;&gt;s9 -->
<g id="edge8" class="edge">
<title>s5&#45;&gt;s9</title>
<path fill="none" stroke="black" d="M549.88,-20.77C559.6,-20.77 570.81,-20.77 581.34,-20.77"/>
<polygon fill="black" stroke="black" points="581.31,-24.27 591.31,-20.77 581.31,-17.27 581.31,-24.27"/>
<text text-anchor="middle" x="571.25" y="-23.22" font-family="Arial" font-size="14.00">b</text>
</g>
<!-- s21&#45;&gt;s20 -->
<g id="edge10" class="edge">
<title>s21&#45;&gt;s20</title>
<path fill="none" stroke="black" d="M106.28,-70.41C100.33,-66.95 93.79,-63.85 87.25,-62.02 82.83,-60.78 78.2,-60.41 73.56,-60.64"/>
<polygon fill="black" stroke="black" points="73.08,-57.17 63.68,-62.06 74.08,-64.1 73.08,-57.17"/>
<text text-anchor="middle" x="83.5" y="-64.47" font-family="Arial" font-size="14.00">b</text>
</g>
</g>
</svg>
