<?xml version="1.0" encoding="UTF-8" standalone="no"?>
<!DOCTYPE svg PUBLIC "-//W3C//DTD SVG 1.1//EN"
 "http://www.w3.org/Graphics/SVG/1.1/DTD/svg11.dtd">
<!-- Generated by graphviz version 12.2.1 (20241206.2353)
 -->
<!-- Title: Generator Pages: 1 -->
<svg width="294pt" height="80pt"
 viewBox="0.00 0.00 293.72 80.00" xmlns="http://www.w3.org/2000/svg" xmlns:xlink="http://www.w3.org/1999/xlink">
<g id="graph0" class="graph" transform="scale(1 1) rotate(0) translate(4 76)">
<title>Generator</title>
<!-- dot_dummyinit_1 -->
<g id="node1" class="node">
<title>dot_dummyinit_1</title>
</g>
<!-- s1 -->
<g id="node2" class="node">
<title>s1</title>
<path fill="none" stroke="black" d="M79.72,-36C79.72,-36 49.72,-36 49.72,-36 43.72,-36 37.72,-30 37.72,-24 37.72,-24 37.72,-12 37.72,-12 37.72,-6 43.72,0 49.72,0 49.72,0 79.72,0 79.72,0 85.72,0 91.72,-6 91.72,-12 91.72,-12 91.72,-24 91.72,-24 91.72,-30 85.72,-36 79.72,-36"/>
<text text-anchor="middle" x="64.72" y="-12.57" font-family="Arial" font-size="14.00">s1</text>
</g>
<!-- dot_dummyinit_1&#45;&gt;s1 -->
<g id="edge1" class="edge">
<title>dot_dummyinit_1&#45;&gt;s1</title>
<path fill="none" stroke="black" d="M0.77,-18C1.57,-18 12.96,-18 25.83,-18"/>
<polygon fill="black" stroke="black" points="25.79,-21.5 35.79,-18 25.79,-14.5 25.79,-21.5"/>
</g>
<!-- s2 -->
<g id="node3" class="node">
<title>s2</title>
<path fill="none" stroke="black" d="M176.72,-72C176.72,-72 146.47,-72 146.47,-72 140.47,-72 134.47,-66 134.47,-60 134.47,-60 134.47,-48 134.47,-48 134.47,-42 140.47,-36 146.47,-36 146.47,-36 176.72,-36 176.72,-36 182.72,-36 188.72,-42 188.72,-48 188.72,-48 188.72,-60 188.72,-60 188.72,-66 182.72,-72 176.72,-72"/>
<text text-anchor="start" x="146.47" y="-48.58" font-family="Arial" font-size="14.00">s2</text>
<polygon fill="black" stroke="none" points="170.72,-44.12 170.72,-63.88 178.72,-63.88 178.72,-44.12 170.72,-44.12"/>
</g>
<!-- s1&#45;&gt;s2 -->
<g id="edge2" class="edge">
<title>s1&#45;&gt;s2</title>
<path fill="none" stroke="black" d="M92.15,-28.03C101.83,-31.7 112.98,-35.93 123.43,-39.9"/>
<polygon fill="black" stroke="black" points="121.97,-43.09 132.56,-43.36 124.46,-36.54 121.97,-43.09"/>
<text text-anchor="middle" x="113.1" y="-39.53" font-family="Arial" font-size="14.00">x</text>
</g>
<!-- s3 -->
<g id="node4" class="node">
<title>s3</title>
<path fill="none" stroke="black" d="M273.72,-36C273.72,-36 243.47,-36 243.47,-36 237.47,-36 231.47,-30 231.47,-24 231.47,-24 231.47,-12 231.47,-12 231.47,-6 237.47,0 243.47,0 243.47,0 273.72,0 273.72,0 279.72,0 285.72,-6 285.72,-12 285.72,-12 285.72,-24 285.72,-24 285.72,-30 279.72,-36 273.72,-36"/>
<text text-anchor="start" x="243.47" y="-12.57" font-family="Arial" font-size="14.00">s3</text>
<polygon fill="black" stroke="none" points="267.72,-8.12 267.72,-27.88 275.72,-27.88 275.72,-8.12 267.72,-8.12"/>
</g>
<!-- s2&#45;&gt;s3 -->
<g id="edge3" class="edge">
<title>s2&#45;&gt;s3</title>
<path fill="none" stroke="black" d="M189.06,-43.97C198.84,-40.27 210.11,-36 220.65,-32"/>
<polygon fill="black" stroke="black" points="221.75,-35.33 229.86,-28.51 219.27,-28.78 221.75,-35.33"/>
<text text-anchor="middle" x="210.1" y="-39.53" font-family="Arial" font-size="14.00">x</text>
</g>
<!-- s3&#45;&gt;s1 -->
<g id="edge4" class="edge">
<title>s3&#45;&gt;s1</title>
<path fill="none" stroke="black" d="M231.15,-14.8C218.35,-13.41 202.76,-11.94 188.72,-11.25 164.64,-10.07 158.55,-10.07 134.47,-11.25 124.4,-11.74 113.52,-12.64 103.46,-13.62"/>
<polygon fill="black" stroke="black" points="103.21,-10.13 93.63,-14.64 103.93,-17.09 103.21,-10.13"/>
<text text-anchor="middle" x="161.6" y="-13.7" font-family="Arial" font-size="14.00">y, z</text>
</g>
</g>
</svg>
