<?xml version="1.0" encoding="UTF-8" standalone="no"?>
<!DOCTYPE svg PUBLIC "-//W3C//DTD SVG 1.1//EN"
 "http://www.w3.org/Graphics/SVG/1.1/DTD/svg11.dtd">
<!-- Generated by graphviz version 12.2.1 (20241206.2353)
 -->
<!-- Title: PrefixClosure(g) Pages: 1 -->
<svg width="265pt" height="122pt"
 viewBox="0.00 0.00 264.72 122.00" xmlns="http://www.w3.org/2000/svg" xmlns:xlink="http://www.w3.org/1999/xlink">
<g id="graph0" class="graph" transform="scale(1 1) rotate(0) translate(4 118)">
<title>PrefixClosure(g)</title>
<!-- dot_dummyinit_1 -->
<g id="node1" class="node">
<title>dot_dummyinit_1</title>
</g>
<!-- 1 -->
<g id="node2" class="node">
<title>1</title>
<ellipse fill="none" stroke="black" cx="59.72" cy="-53" rx="18" ry="18"/>
<ellipse fill="none" stroke="black" cx="59.72" cy="-53" rx="22" ry="22"/>
<text text-anchor="middle" x="59.72" y="-47.58" font-family="Arial" font-size="14.00">1</text>
</g>
<!-- dot_dummyinit_1&#45;&gt;1 -->
<g id="edge1" class="edge">
<title>dot_dummyinit_1&#45;&gt;1</title>
<path fill="none" stroke="black" d="M0.89,-53C2.38,-53 13.74,-53 26,-53"/>
<polygon fill="black" stroke="black" points="25.74,-56.5 35.74,-53 25.74,-49.5 25.74,-56.5"/>
</g>
<!-- 2 -->
<g id="node3" class="node">
<title>2</title>
<ellipse fill="none" stroke="black" cx="147.22" cy="-53" rx="18" ry="18"/>
<ellipse fill="none" stroke="black" cx="147.22" cy="-53" rx="22" ry="22"/>
<text text-anchor="middle" x="147.22" y="-47.58" font-family="Arial" font-size="14.00">2</text>
</g>
<!-- 1&#45;&gt;2 -->
<g id="edge2" class="edge">
<title>1&#45;&gt;2</title>
<path fill="none" stroke="black" d="M81.85,-53C91.34,-53 102.75,-53 113.32,-53"/>
<polygon fill="black" stroke="black" points="113.22,-56.5 123.22,-53 113.22,-49.5 113.22,-56.5"/>
<text text-anchor="middle" x="103.47" y="-55.45" font-family="Arial" font-size="14.00">a</text>
</g>
<!-- 3 -->
<g id="node4" class="node">
<title>3</title>
<ellipse fill="none" stroke="black" cx="234.72" cy="-92" rx="18" ry="18"/>
<ellipse fill="none" stroke="black" cx="234.72" cy="-92" rx="22" ry="22"/>
<text text-anchor="middle" x="234.72" y="-86.58" font-family="Arial" font-size="14.00">3</text>
</g>
<!-- 2&#45;&gt;3 -->
<g id="edge3" class="edge">
<title>2&#45;&gt;3</title>
<path fill="none" stroke="black" d="M167.62,-61.85C178.26,-66.7 191.68,-72.82 203.64,-78.28"/>
<polygon fill="black" stroke="black" points="202.17,-81.46 212.72,-82.42 205.08,-75.09 202.17,-81.46"/>
<text text-anchor="middle" x="190.97" y="-76.12" font-family="Arial" font-size="14.00">b</text>
</g>
<!-- 4 -->
<g id="node5" class="node">
<title>4</title>
<ellipse fill="none" stroke="black" cx="234.72" cy="-22" rx="18" ry="18"/>
<ellipse fill="none" stroke="black" cx="234.72" cy="-22" rx="22" ry="22"/>
<text text-anchor="middle" x="234.72" y="-16.57" font-family="Arial" font-size="14.00">4</text>
</g>
<!-- 2&#45;&gt;4 -->
<g id="edge4" class="edge">
<title>2&#45;&gt;4</title>
<path fill="none" stroke="black" d="M168.48,-45.65C178.81,-41.91 191.59,-37.28 203.09,-33.11"/>
<polygon fill="black" stroke="black" points="203.97,-36.51 212.18,-29.81 201.59,-29.93 203.97,-36.51"/>
<text text-anchor="middle" x="190.97" y="-40.88" font-family="Arial" font-size="14.00">c</text>
</g>
<!-- 4&#45;&gt;2 -->
<g id="edge5" class="edge">
<title>4&#45;&gt;2</title>
<path fill="none" stroke="black" d="M213.26,-15.89C204.94,-14.42 195.39,-14.07 187.22,-17.25 180.86,-19.72 174.9,-23.77 169.66,-28.28"/>
<polygon fill="black" stroke="black" points="167.41,-25.58 162.64,-35.03 172.27,-30.62 167.41,-25.58"/>
<text text-anchor="middle" x="190.97" y="-19.7" font-family="Arial" font-size="14.00">b</text>
</g>
</g>
</svg>
