<?xml version="1.0" encoding="UTF-8" standalone="no"?>
<!DOCTYPE svg PUBLIC "-//W3C//DTD SVG 1.0//EN"
 "http://www.w3.org/TR/2001/REC-SVG-20010904/DTD/svg10.dtd" [
 <!ATTLIST svg xmlns:xlink CDATA #FIXED "http://www.w3.org/1999/xlink">
]>
<!-- Generated by Graphviz version 2.20.2 (Tue Mar &#160;2 21:46:26 UTC 2010)
     For user: (mtmoor) Prof. Thomas Moor -->
<!-- Title: g Pages: 1 -->
<svg width="332pt" height="180pt"
 viewBox="0.00 0.00 332.00 180.00" xmlns="http://www.w3.org/2000/svg" xmlns:xlink="http://www.w3.org/1999/xlink">
<g id="graph0" class="graph" transform="scale(1 1) rotate(0) translate(4 176)">
<title>g</title>
<polygon style="fill:none;stroke:none;" points="-4,4 -4,-176 328,-176 328,4 -4,4"/>
<!-- dot_dummyinit_1 -->
<g id="node1" class="node"><title>dot_dummyinit_1</title>
</g>
<!-- 1 -->
<g id="node3" class="node"><title>1</title>
<ellipse style="fill:none;stroke:black;" cx="58" cy="-90" rx="18" ry="18"/>
<text text-anchor="middle" x="58" y="-85.9" style="font-family:Times New Roman;font-size:14.00;">1</text>
</g>
<!-- dot_dummyinit_1&#45;&gt;1 -->
<g id="edge2" class="edge"><title>dot_dummyinit_1&#45;&gt;1</title>
<path style="fill:none;stroke:black;" d="M2,-90C6,-90 18,-90 30,-90"/>
<polygon style="fill:black;stroke:black;" points="30,-93.5001 40,-90 30,-86.5001 30,-93.5001"/>
</g>
<!-- 2 -->
<g id="node5" class="node"><title>2</title>
<ellipse style="fill:none;stroke:black;" cx="138" cy="-90" rx="18" ry="18"/>
<text text-anchor="middle" x="138" y="-85.9" style="font-family:Times New Roman;font-size:14.00;">2</text>
</g>
<!-- 1&#45;&gt;2 -->
<g id="edge4" class="edge"><title>1&#45;&gt;2</title>
<path style="fill:none;stroke:black;" d="M76,-90C86,-90 99,-90 110,-90"/>
<polygon style="fill:black;stroke:black;" points="110,-93.5001 120,-90 110,-86.5001 110,-93.5001"/>
<text text-anchor="middle" x="98" y="-93.9" style="font-family:Times New Roman;font-size:14.00;">a</text>
</g>
<!-- 3 -->
<g id="node4" class="node"><title>3</title>
<ellipse style="fill:none;stroke:black;" cx="222" cy="-150" rx="18" ry="18"/>
<ellipse style="fill:none;stroke:black;" cx="222" cy="-150" rx="22" ry="22"/>
<text text-anchor="middle" x="222" y="-145.9" style="font-family:Times New Roman;font-size:14.00;">3</text>
</g>
<!-- 2&#45;&gt;3 -->
<g id="edge6" class="edge"><title>2&#45;&gt;3</title>
<path style="fill:none;stroke:black;" d="M153,-101C165,-109 182,-121 196,-131"/>
<polygon style="fill:black;stroke:black;" points="193.9,-133.8 204,-137 198.1,-128.2 193.9,-133.8"/>
<text text-anchor="middle" x="178" y="-123.9" style="font-family:Times New Roman;font-size:14.00;">b</text>
</g>
<!-- 4 -->
<g id="node6" class="node"><title>4</title>
<ellipse style="fill:none;stroke:black;" cx="222" cy="-88" rx="18" ry="18"/>
<text text-anchor="middle" x="222" y="-83.9" style="font-family:Times New Roman;font-size:14.00;">4</text>
</g>
<!-- 2&#45;&gt;4 -->
<g id="edge10" class="edge"><title>2&#45;&gt;4</title>
<path style="fill:none;stroke:black;" d="M156,-90C167,-89 181,-89 194,-89"/>
<polygon style="fill:black;stroke:black;" points="194.398,-92.4778 204,-88 193.701,-85.5125 194.398,-92.4778"/>
<text text-anchor="middle" x="178" y="-91.9" style="font-family:Times New Roman;font-size:14.00;">c</text>
</g>
<!-- 6 -->
<g id="node8" class="node"><title>6</title>
<ellipse style="fill:none;stroke:black;" cx="222" cy="-30" rx="18" ry="18"/>
<text text-anchor="middle" x="222" y="-25.9" style="font-family:Times New Roman;font-size:14.00;">6</text>
</g>
<!-- 2&#45;&gt;6 -->
<g id="edge8" class="edge"><title>2&#45;&gt;6</title>
<path style="fill:none;stroke:black;" d="M147,-74C153,-64 163,-51 174,-43 180,-39 187,-36 194,-34"/>
<polygon style="fill:black;stroke:black;" points="194.881,-37.3933 204,-32 193.508,-30.5292 194.881,-37.3933"/>
<text text-anchor="middle" x="178" y="-46.9" style="font-family:Times New Roman;font-size:14.00;">d</text>
</g>
<!-- 4&#45;&gt;2 -->
<g id="edge14" class="edge"><title>4&#45;&gt;2</title>
<path style="fill:none;stroke:black;" d="M208,-76C199,-69 186,-63 174,-67 169,-68 165,-70 161,-73"/>
<polygon style="fill:black;stroke:black;" points="159.042,-70.084 152,-78 162.441,-76.2031 159.042,-70.084"/>
<text text-anchor="middle" x="178" y="-70.9" style="font-family:Times New Roman;font-size:14.00;">b</text>
</g>
<!-- 5 -->
<g id="node7" class="node"><title>5</title>
<ellipse style="fill:none;stroke:black;" cx="306" cy="-88" rx="18" ry="18"/>
<text text-anchor="middle" x="306" y="-83.9" style="font-family:Times New Roman;font-size:14.00;">5</text>
</g>
<!-- 4&#45;&gt;5 -->
<g id="edge12" class="edge"><title>4&#45;&gt;5</title>
<path style="fill:none;stroke:black;" d="M240,-88C251,-88 265,-88 278,-88"/>
<polygon style="fill:black;stroke:black;" points="278,-91.5001 288,-88 278,-84.5001 278,-91.5001"/>
<text text-anchor="middle" x="266" y="-91.9" style="font-family:Times New Roman;font-size:14.00;">a</text>
</g>
<!-- 7 -->
<g id="node9" class="node"><title>7</title>
<ellipse style="fill:none;stroke:black;" cx="306" cy="-18" rx="18" ry="18"/>
<text text-anchor="middle" x="306" y="-13.9" style="font-family:Times New Roman;font-size:14.00;">7</text>
</g>
<!-- 6&#45;&gt;7 -->
<g id="edge16" class="edge"><title>6&#45;&gt;7</title>
<path style="fill:none;stroke:black;" d="M240,-27C251,-25 266,-24 278,-22"/>
<polygon style="fill:black;stroke:black;" points="278.398,-25.4778 288,-21 277.701,-18.5125 278.398,-25.4778"/>
<text text-anchor="middle" x="266" y="-27.9" style="font-family:Times New Roman;font-size:14.00;">a</text>
</g>
<!-- 7&#45;&gt;6 -->
<g id="edge18" class="edge"><title>7&#45;&gt;6</title>
<path style="fill:none;stroke:black;" d="M291,-7C283,-2 272,2 262,-1 255,-3 249,-7 243,-11"/>
<polygon style="fill:black;stroke:black;" points="240.9,-8.19995 235,-17 245.1,-13.8 240.9,-8.19995"/>
<text text-anchor="middle" x="266" y="-4.9" style="font-family:Times New Roman;font-size:14.00;">b</text>
</g>
</g>
</svg>
