<?xml version="1.0" encoding="UTF-8" standalone="no"?>
<!DOCTYPE svg PUBLIC "-//W3C//DTD SVG 1.0//EN"
 "http://www.w3.org/TR/2001/REC-SVG-20010904/DTD/svg10.dtd" [
 <!ATTLIST svg xmlns:xlink CDATA #FIXED "http://www.w3.org/1999/xlink">
]>
<!-- Generated by Graphviz version 2.20.2 (Tue Mar &#160;2 21:46:26 UTC 2010)
     For user: (mtmoor) Prof. Thomas Moor -->
<!-- Title: G Pages: 1 -->
<svg width="720pt" height="184pt"
 viewBox="0.00 0.00 720.00 184.41" xmlns="http://www.w3.org/2000/svg" xmlns:xlink="http://www.w3.org/1999/xlink">
<g id="graph0" class="graph" transform="scale(0.882353 0.882353) rotate(0) translate(4 205)">
<title>G</title>
<polygon style="fill:none;stroke:none;" points="-4,4 -4,-205 812,-205 812,4 -4,4"/>
<!-- dot_dummyinit_1 -->
<g id="node1" class="node"><title>dot_dummyinit_1</title>
</g>
<!-- s1 -->
<g id="node3" class="node"><title>s1</title>
<ellipse style="fill:none;stroke:black;" cx="136" cy="-72" rx="22.2362" ry="22.2362"/>
<text text-anchor="middle" x="136" y="-67.9" style="font-family:Times New Roman;font-size:14.00;">s1</text>
</g>
<!-- dot_dummyinit_1&#45;&gt;s1 -->
<g id="edge2" class="edge"><title>dot_dummyinit_1&#45;&gt;s1</title>
<path style="fill:none;stroke:black;" d="M33,-72C40,-72 76,-72 104,-72"/>
<polygon style="fill:black;stroke:black;" points="104,-75.5001 114,-72 104,-68.5001 104,-75.5001"/>
</g>
<!-- s2 -->
<g id="node4" class="node"><title>s2</title>
<ellipse style="fill:none;stroke:black;" cx="234" cy="-72" rx="22.2362" ry="22.2362"/>
<ellipse style="fill:none;stroke:black;" cx="234" cy="-72" rx="26.2362" ry="26.2362"/>
<text text-anchor="middle" x="234" y="-67.9" style="font-family:Times New Roman;font-size:14.00;">s2</text>
</g>
<!-- s1&#45;&gt;s2 -->
<g id="edge4" class="edge"><title>s1&#45;&gt;s2</title>
<path style="fill:none;stroke:black;" d="M158,-72C170,-72 184,-72 198,-72"/>
<polygon style="fill:black;stroke:black;" points="198,-75.5001 208,-72 198,-68.5001 198,-75.5001"/>
<text text-anchor="middle" x="186" y="-76.9" style="font-family:Times New Roman;font-size:14.00;">a</text>
</g>
<!-- s2&#45;&gt;s1 -->
<g id="edge8" class="edge"><title>s2&#45;&gt;s1</title>
<path style="fill:none;stroke:black;" d="M211,-59C205,-56 197,-53 190,-51 181,-50 172,-52 163,-55"/>
<polygon style="fill:black;stroke:black;" points="161.717,-51.7402 154,-59 164.56,-58.1369 161.717,-51.7402"/>
<text text-anchor="middle" x="186" y="-56.9" style="font-family:Times New Roman;font-size:14.00;">b</text>
</g>
<!-- s3 -->
<g id="node7" class="node"><title>s3</title>
<ellipse style="fill:none;stroke:black;" cx="326" cy="-72" rx="22.2362" ry="22.2362"/>
<text text-anchor="middle" x="326" y="-67.9" style="font-family:Times New Roman;font-size:14.00;">s3</text>
</g>
<!-- s2&#45;&gt;s3 -->
<g id="edge6" class="edge"><title>s2&#45;&gt;s3</title>
<path style="fill:none;stroke:black;" d="M260,-72C271,-72 283,-72 294,-72"/>
<polygon style="fill:black;stroke:black;" points="294,-75.5001 304,-72 294,-68.5001 294,-75.5001"/>
<text text-anchor="middle" x="282" y="-76.9" style="font-family:Times New Roman;font-size:14.00;">a</text>
</g>
<!-- s9 -->
<g id="node5" class="node"><title>s9</title>
<ellipse style="fill:none;stroke:black;" cx="594" cy="-112" rx="22.2362" ry="22.2362"/>
<ellipse style="fill:none;stroke:black;" cx="594" cy="-112" rx="26.2362" ry="26.2362"/>
<text text-anchor="middle" x="594" y="-107.9" style="font-family:Times New Roman;font-size:14.00;">s9</text>
</g>
<!-- s10 -->
<g id="node13" class="node"><title>s10</title>
<ellipse style="fill:none;stroke:black;" cx="692" cy="-173" rx="27.9903" ry="27.9903"/>
<text text-anchor="middle" x="692" y="-168.9" style="font-family:Times New Roman;font-size:14.00;">s10</text>
</g>
<!-- s9&#45;&gt;s10 -->
<g id="edge26" class="edge"><title>s9&#45;&gt;s10</title>
<path style="fill:none;stroke:black;" d="M616,-126C629,-134 645,-144 659,-153"/>
<polygon style="fill:black;stroke:black;" points="657.559,-156.203 668,-158 660.958,-150.084 657.559,-156.203"/>
<text text-anchor="middle" x="642" y="-145.9" style="font-family:Times New Roman;font-size:14.00;">a</text>
</g>
<!-- s11 -->
<g id="node14" class="node"><title>s11</title>
<ellipse style="fill:none;stroke:black;" cx="692" cy="-99" rx="27.9903" ry="27.9903"/>
<text text-anchor="middle" x="692" y="-94.9" style="font-family:Times New Roman;font-size:14.00;">s11</text>
</g>
<!-- s9&#45;&gt;s11 -->
<g id="edge28" class="edge"><title>s9&#45;&gt;s11</title>
<path style="fill:none;stroke:black;" d="M620,-109C631,-107 643,-106 654,-104"/>
<polygon style="fill:black;stroke:black;" points="654.398,-107.478 664,-103 653.701,-100.512 654.398,-107.478"/>
<text text-anchor="middle" x="642" y="-108.9" style="font-family:Times New Roman;font-size:14.00;">b</text>
</g>
<!-- s20 -->
<g id="node6" class="node"><title>s20</title>
<ellipse style="fill:none;stroke:black;" cx="32" cy="-138" rx="28.0519" ry="28.0519"/>
<ellipse style="fill:none;stroke:black;" cx="32" cy="-138" rx="31.9903" ry="31.9903"/>
<text text-anchor="middle" x="32" y="-133.9" style="font-family:Times New Roman;font-size:14.00;">s20</text>
</g>
<!-- s21 -->
<g id="node15" class="node"><title>s21</title>
<ellipse style="fill:none;stroke:black;" cx="136" cy="-147" rx="27.9903" ry="27.9903"/>
<text text-anchor="middle" x="136" y="-142.9" style="font-family:Times New Roman;font-size:14.00;">s21</text>
</g>
<!-- s20&#45;&gt;s21 -->
<g id="edge30" class="edge"><title>s20&#45;&gt;s21</title>
<path style="fill:none;stroke:black;" d="M64,-141C75,-142 87,-143 98,-143"/>
<polygon style="fill:black;stroke:black;" points="97.7013,-146.488 108,-144 98.3979,-139.522 97.7013,-146.488"/>
<text text-anchor="middle" x="86" y="-145.9" style="font-family:Times New Roman;font-size:14.00;">a</text>
</g>
<!-- s4 -->
<g id="node8" class="node"><title>s4</title>
<ellipse style="fill:none;stroke:black;" cx="414" cy="-72" rx="22.2362" ry="22.2362"/>
<text text-anchor="middle" x="414" y="-67.9" style="font-family:Times New Roman;font-size:14.00;">s4</text>
</g>
<!-- s3&#45;&gt;s4 -->
<g id="edge10" class="edge"><title>s3&#45;&gt;s4</title>
<path style="fill:none;stroke:black;" d="M348,-72C358,-72 371,-72 382,-72"/>
<polygon style="fill:black;stroke:black;" points="382,-75.5001 392,-72 382,-68.5001 382,-75.5001"/>
<text text-anchor="middle" x="370" y="-76.9" style="font-family:Times New Roman;font-size:14.00;">c</text>
</g>
<!-- s4&#45;&gt;s3 -->
<g id="edge14" class="edge"><title>s4&#45;&gt;s3</title>
<path style="fill:none;stroke:black;" d="M396,-58C388,-53 377,-49 366,-51 362,-52 358,-53 354,-55"/>
<polygon style="fill:black;stroke:black;" points="352.042,-52.084 345,-60 355.441,-58.2031 352.042,-52.084"/>
<text text-anchor="middle" x="370" y="-58.9" style="font-family:Times New Roman;font-size:14.00;">d</text>
</g>
<!-- s5 -->
<g id="node9" class="node"><title>s5</title>
<ellipse style="fill:none;stroke:black;" cx="502" cy="-72" rx="22.2362" ry="22.2362"/>
<text text-anchor="middle" x="502" y="-67.9" style="font-family:Times New Roman;font-size:14.00;">s5</text>
</g>
<!-- s4&#45;&gt;s5 -->
<g id="edge12" class="edge"><title>s4&#45;&gt;s5</title>
<path style="fill:none;stroke:black;" d="M436,-72C446,-72 459,-72 470,-72"/>
<polygon style="fill:black;stroke:black;" points="470,-75.5001 480,-72 470,-68.5001 470,-75.5001"/>
<text text-anchor="middle" x="458" y="-76.9" style="font-family:Times New Roman;font-size:14.00;">b</text>
</g>
<!-- s5&#45;&gt;s9 -->
<g id="edge18" class="edge"><title>s5&#45;&gt;s9</title>
<path style="fill:none;stroke:black;" d="M522,-81C533,-86 548,-92 561,-98"/>
<polygon style="fill:black;stroke:black;" points="559.44,-101.137 570,-102 562.283,-94.7402 559.44,-101.137"/>
<text text-anchor="middle" x="546" y="-95.9" style="font-family:Times New Roman;font-size:14.00;">b</text>
</g>
<!-- s6 -->
<g id="node10" class="node"><title>s6</title>
<ellipse style="fill:none;stroke:black;" cx="594" cy="-46" rx="22.2362" ry="22.2362"/>
<text text-anchor="middle" x="594" y="-41.9" style="font-family:Times New Roman;font-size:14.00;">s6</text>
</g>
<!-- s5&#45;&gt;s6 -->
<g id="edge16" class="edge"><title>s5&#45;&gt;s6</title>
<path style="fill:none;stroke:black;" d="M523,-66C535,-63 550,-58 563,-55"/>
<polygon style="fill:black;stroke:black;" points="564.427,-58.2259 573,-52 562.416,-51.5212 564.427,-58.2259"/>
<text text-anchor="middle" x="546" y="-66.9" style="font-family:Times New Roman;font-size:14.00;">a</text>
</g>
<!-- s7 -->
<g id="node11" class="node"><title>s7</title>
<ellipse style="fill:none;stroke:black;" cx="692" cy="-22" rx="22.2362" ry="22.2362"/>
<text text-anchor="middle" x="692" y="-17.9" style="font-family:Times New Roman;font-size:14.00;">s7</text>
</g>
<!-- s6&#45;&gt;s7 -->
<g id="edge20" class="edge"><title>s6&#45;&gt;s7</title>
<path style="fill:none;stroke:black;" d="M616,-41C629,-38 646,-34 660,-30"/>
<polygon style="fill:black;stroke:black;" points="661.427,-33.2259 670,-27 659.416,-26.5212 661.427,-33.2259"/>
<text text-anchor="middle" x="642" y="-40.9" style="font-family:Times New Roman;font-size:14.00;">b</text>
</g>
<!-- s7&#45;&gt;s6 -->
<g id="edge22" class="edge"><title>s7&#45;&gt;s6</title>
<path style="fill:none;stroke:black;" d="M671,-14C661,-11 649,-10 638,-13 631,-16 625,-20 618,-24"/>
<polygon style="fill:black;stroke:black;" points="615.9,-21.2 610,-30 620.1,-26.8 615.9,-21.2"/>
<text text-anchor="middle" x="642" y="-20.9" style="font-family:Times New Roman;font-size:14.00;">a</text>
</g>
<!-- s8 -->
<g id="node12" class="node"><title>s8</title>
<ellipse style="fill:none;stroke:black;" cx="786" cy="-22" rx="22.2362" ry="22.2362"/>
<text text-anchor="middle" x="786" y="-17.9" style="font-family:Times New Roman;font-size:14.00;">s8</text>
</g>
<!-- s7&#45;&gt;s8 -->
<g id="edge24" class="edge"><title>s7&#45;&gt;s8</title>
<path style="fill:none;stroke:black;" d="M714,-22C726,-22 741,-22 754,-22"/>
<polygon style="fill:black;stroke:black;" points="754,-25.5001 764,-22 754,-18.5001 754,-25.5001"/>
<text text-anchor="middle" x="742" y="-26.9" style="font-family:Times New Roman;font-size:14.00;">a</text>
</g>
<!-- s21&#45;&gt;s20 -->
<g id="edge32" class="edge"><title>s21&#45;&gt;s20</title>
<path style="fill:none;stroke:black;" d="M113,-130C106,-126 98,-122 90,-120 83,-118 76,-118 70,-119"/>
<polygon style="fill:black;stroke:black;" points="68.5725,-115.774 60,-122 70.584,-122.479 68.5725,-115.774"/>
<text text-anchor="middle" x="86" y="-123.9" style="font-family:Times New Roman;font-size:14.00;">b</text>
</g>
</g>
</svg>
