<?xml version="1.0" encoding="UTF-8" standalone="no"?>
<!DOCTYPE svg PUBLIC "-//W3C//DTD SVG 1.1//EN"
 "http://www.w3.org/Graphics/SVG/1.1/DTD/svg11.dtd">
<!-- Generated by graphviz version 12.2.1 (20241206.2353)
 -->
<!-- Title: Automaton(g1) Pages: 1 -->
<svg width="437pt" height="126pt"
 viewBox="0.00 0.00 437.22 126.00" xmlns="http://www.w3.org/2000/svg" xmlns:xlink="http://www.w3.org/1999/xlink">
<g id="graph0" class="graph" transform="scale(1 1) rotate(0) translate(4 122)">
<title>Automaton(g1)</title>
<!-- dot_dummyinit_1 -->
<g id="node1" class="node">
<title>dot_dummyinit_1</title>
</g>
<!-- 1 -->
<g id="node2" class="node">
<title>1</title>
<path fill="none" stroke="black" d="M79.72,-36C79.72,-36 49.72,-36 49.72,-36 43.72,-36 37.72,-30 37.72,-24 37.72,-24 37.72,-12 37.72,-12 37.72,-6 43.72,0 49.72,0 49.72,0 79.72,0 79.72,0 85.72,0 91.72,-6 91.72,-12 91.72,-12 91.72,-24 91.72,-24 91.72,-30 85.72,-36 79.72,-36"/>
<text text-anchor="middle" x="64.72" y="-12.57" font-family="Arial" font-size="14.00">1</text>
</g>
<!-- dot_dummyinit_1&#45;&gt;1 -->
<g id="edge1" class="edge">
<title>dot_dummyinit_1&#45;&gt;1</title>
<path fill="none" stroke="black" d="M0.77,-18C1.57,-18 12.96,-18 25.83,-18"/>
<polygon fill="black" stroke="black" points="25.79,-21.5 35.79,-18 25.79,-14.5 25.79,-21.5"/>
</g>
<!-- 2 -->
<g id="node4" class="node">
<title>2</title>
<path fill="none" stroke="black" d="M177.22,-66C177.22,-66 147.22,-66 147.22,-66 141.22,-66 135.22,-60 135.22,-54 135.22,-54 135.22,-42 135.22,-42 135.22,-36 141.22,-30 147.22,-30 147.22,-30 177.22,-30 177.22,-30 183.22,-30 189.22,-36 189.22,-42 189.22,-42 189.22,-54 189.22,-54 189.22,-60 183.22,-66 177.22,-66"/>
<text text-anchor="middle" x="162.22" y="-42.58" font-family="Arial" font-size="14.00">2</text>
</g>
<!-- 1&#45;&gt;2 -->
<g id="edge2" class="edge">
<title>1&#45;&gt;2</title>
<path fill="none" stroke="black" d="M92.07,-26.28C101.98,-29.39 113.45,-32.99 124.17,-36.36"/>
<polygon fill="black" stroke="black" points="122.92,-39.64 133.51,-39.3 125.02,-32.96 122.92,-39.64"/>
<text text-anchor="middle" x="113.47" y="-36.35" font-family="Arial" font-size="14.00">d</text>
</g>
<!-- dump -->
<g id="node5" class="node">
<title>dump</title>
<path fill="none" stroke="black" d="M417.22,-66C417.22,-66 387.22,-66 387.22,-66 381.22,-66 375.22,-60 375.22,-54 375.22,-54 375.22,-42 375.22,-42 375.22,-36 381.22,-30 387.22,-30 387.22,-30 417.22,-30 417.22,-30 423.22,-30 429.22,-36 429.22,-42 429.22,-42 429.22,-54 429.22,-54 429.22,-60 423.22,-66 417.22,-66"/>
<text text-anchor="middle" x="402.22" y="-42.58" font-family="Arial" font-size="14.00">dump</text>
</g>
<!-- 1&#45;&gt;dump -->
<g id="edge3" class="edge">
<title>1&#45;&gt;dump</title>
<path fill="none" stroke="black" d="M91.78,-17.86C116.8,-17.91 155.64,-18.46 189.22,-21 250.6,-25.64 321.46,-35.61 363.73,-42.05"/>
<polygon fill="black" stroke="black" points="362.96,-45.47 373.37,-43.53 364.02,-38.55 362.96,-45.47"/>
<text text-anchor="middle" x="218.47" y="-27.07" font-family="Arial" font-size="14.00">a, u</text>
</g>
<!-- 3 -->
<g id="node3" class="node">
<title>3</title>
<path fill="none" stroke="black" d="M289.72,-118C289.72,-118 259.72,-118 259.72,-118 253.72,-118 247.72,-112 247.72,-106 247.72,-106 247.72,-94 247.72,-94 247.72,-88 253.72,-82 259.72,-82 259.72,-82 289.72,-82 289.72,-82 295.72,-82 301.72,-88 301.72,-94 301.72,-94 301.72,-106 301.72,-106 301.72,-112 295.72,-118 289.72,-118"/>
<text text-anchor="start" x="262.97" y="-94.58" font-family="Arial" font-size="14.00">3</text>
<polygon fill="black" stroke="none" points="280.47,-90.12 280.47,-109.88 288.47,-109.88 288.47,-90.12 280.47,-90.12"/>
</g>
<!-- 3&#45;&gt;dump -->
<g id="edge6" class="edge">
<title>3&#45;&gt;dump</title>
<path fill="none" stroke="black" d="M302.03,-89.1C320.1,-81.61 344.35,-71.57 364.34,-63.28"/>
<polygon fill="black" stroke="black" points="365.65,-66.53 373.55,-59.47 362.97,-60.06 365.65,-66.53"/>
<text text-anchor="middle" x="338.47" y="-84.15" font-family="Arial" font-size="14.00">a, d, u</text>
</g>
<!-- 2&#45;&gt;3 -->
<g id="edge4" class="edge">
<title>2&#45;&gt;3</title>
<path fill="none" stroke="black" d="M189.69,-60.46C203.9,-67.14 221.64,-75.49 237.16,-82.79"/>
<polygon fill="black" stroke="black" points="235.56,-85.91 246.1,-87 238.54,-79.58 235.56,-85.91"/>
<text text-anchor="middle" x="218.47" y="-81.11" font-family="Arial" font-size="14.00">u</text>
</g>
<!-- 2&#45;&gt;dump -->
<g id="edge5" class="edge">
<title>2&#45;&gt;dump</title>
<path fill="none" stroke="black" d="M189.6,-48C231.86,-48 314.92,-48 363.46,-48"/>
<polygon fill="black" stroke="black" points="363.21,-51.5 373.21,-48 363.21,-44.5 363.21,-51.5"/>
<text text-anchor="middle" x="274.72" y="-50.45" font-family="Arial" font-size="14.00">a, d</text>
</g>
<!-- dump&#45;&gt;dump -->
<g id="edge7" class="edge">
<title>dump&#45;&gt;dump</title>
<path fill="none" stroke="black" d="M390.69,-66.15C388.91,-75.54 392.76,-84 402.22,-84 407.54,-84 411.09,-81.32 412.86,-77.31"/>
<polygon fill="black" stroke="black" points="416.32,-77.91 413.63,-67.66 409.34,-77.35 416.32,-77.91"/>
<text text-anchor="middle" x="402.22" y="-86.45" font-family="Arial" font-size="14.00">a, d, u</text>
</g>
</g>
</svg>
