<?xml version="1.0" encoding="UTF-8" standalone="no"?>
<!DOCTYPE svg PUBLIC "-//W3C//DTD SVG 1.1//EN"
 "http://www.w3.org/Graphics/SVG/1.1/DTD/svg11.dtd">
<!-- Generated by graphviz version 12.2.1 (20241206.2353)
 -->
<!-- Title: Intersection(g1,g2) Pages: 1 -->
<svg width="177pt" height="106pt"
 viewBox="0.00 0.00 177.22 106.00" xmlns="http://www.w3.org/2000/svg" xmlns:xlink="http://www.w3.org/1999/xlink">
<g id="graph0" class="graph" transform="scale(1 1) rotate(0) translate(4 102)">
<title>Intersection(g1,g2)</title>
<!-- dot_dummyinit_1 -->
<g id="node1" class="node">
<title>dot_dummyinit_1</title>
</g>
<!-- 1 -->
<g id="node2" class="node">
<title>1</title>
<ellipse fill="none" stroke="black" cx="59.72" cy="-47" rx="18" ry="18"/>
<ellipse fill="none" stroke="black" cx="59.72" cy="-47" rx="22" ry="22"/>
<text text-anchor="middle" x="59.72" y="-41.58" font-family="Arial" font-size="14.00">1</text>
</g>
<!-- dot_dummyinit_1&#45;&gt;1 -->
<g id="edge1" class="edge">
<title>dot_dummyinit_1&#45;&gt;1</title>
<path fill="none" stroke="black" d="M0.89,-47C2.38,-47 13.74,-47 26,-47"/>
<polygon fill="black" stroke="black" points="25.74,-50.5 35.74,-47 25.74,-43.5 25.74,-50.5"/>
</g>
<!-- 2 -->
<g id="node3" class="node">
<title>2</title>
<ellipse fill="none" stroke="black" cx="147.22" cy="-76" rx="18" ry="18"/>
<ellipse fill="none" stroke="black" cx="147.22" cy="-76" rx="22" ry="22"/>
<text text-anchor="middle" x="147.22" y="-70.58" font-family="Arial" font-size="14.00">2</text>
</g>
<!-- 1&#45;&gt;2 -->
<g id="edge2" class="edge">
<title>1&#45;&gt;2</title>
<path fill="none" stroke="black" d="M80.98,-53.87C91.2,-57.34 103.82,-61.62 115.23,-65.49"/>
<polygon fill="black" stroke="black" points="114.08,-68.79 124.67,-68.69 116.32,-62.16 114.08,-68.79"/>
<text text-anchor="middle" x="103.47" y="-64.82" font-family="Arial" font-size="14.00">a</text>
</g>
<!-- 3 -->
<g id="node4" class="node">
<title>3</title>
<ellipse fill="none" stroke="black" cx="147.22" cy="-18" rx="18" ry="18"/>
<text text-anchor="middle" x="147.22" y="-12.57" font-family="Arial" font-size="14.00">3</text>
</g>
<!-- 1&#45;&gt;3 -->
<g id="edge3" class="edge">
<title>1&#45;&gt;3</title>
<path fill="none" stroke="black" d="M80.98,-40.13C92.4,-36.25 106.81,-31.37 119.18,-27.17"/>
<polygon fill="black" stroke="black" points="120.05,-30.57 128.39,-24.05 117.8,-23.94 120.05,-30.57"/>
<text text-anchor="middle" x="103.47" y="-35.82" font-family="Arial" font-size="14.00">c</text>
</g>
</g>
</svg>
