<?xml version="1.0" encoding="UTF-8" standalone="no"?>
<!DOCTYPE svg PUBLIC "-//W3C//DTD SVG 1.1//EN"
 "http://www.w3.org/Graphics/SVG/1.1/DTD/svg11.dtd">
<!-- Generated by graphviz version 12.2.1 (20241206.2353)
 -->
<!-- Title: G1 Pages: 1 -->
<svg width="310pt" height="114pt"
 viewBox="0.00 0.00 309.72 113.75" xmlns="http://www.w3.org/2000/svg" xmlns:xlink="http://www.w3.org/1999/xlink">
<g id="graph0" class="graph" transform="scale(1 1) rotate(0) translate(4 109.75)">
<title>G1</title>
<!-- dot_dummyinit_1 -->
<g id="node1" class="node">
<title>dot_dummyinit_1</title>
</g>
<!-- 1 -->
<g id="node2" class="node">
<title>1</title>
<path fill="none" stroke="black" d="M79.72,-36C79.72,-36 49.72,-36 49.72,-36 43.72,-36 37.72,-30 37.72,-24 37.72,-24 37.72,-12 37.72,-12 37.72,-6 43.72,0 49.72,0 49.72,0 79.72,0 79.72,0 85.72,0 91.72,-6 91.72,-12 91.72,-12 91.72,-24 91.72,-24 91.72,-30 85.72,-36 79.72,-36"/>
<text text-anchor="start" x="52.97" y="-12.57" font-family="Arial" font-size="14.00">1</text>
<polygon fill="black" stroke="none" points="70.47,-8.12 70.47,-27.88 78.47,-27.88 78.47,-8.12 70.47,-8.12"/>
</g>
<!-- dot_dummyinit_1&#45;&gt;1 -->
<g id="edge1" class="edge">
<title>dot_dummyinit_1&#45;&gt;1</title>
<path fill="none" stroke="black" d="M0.77,-18C1.57,-18 12.96,-18 25.83,-18"/>
<polygon fill="black" stroke="black" points="25.79,-21.5 35.79,-18 25.79,-14.5 25.79,-21.5"/>
</g>
<!-- 1&#45;&gt;1 -->
<g id="edge2" class="edge">
<title>1&#45;&gt;1</title>
<path fill="none" stroke="black" d="M56.49,-36.15C55.22,-45.54 57.97,-54 64.72,-54 68.41,-54 70.91,-51.47 72.2,-47.64"/>
<polygon fill="black" stroke="black" points="75.7,-47.87 72.85,-37.66 68.71,-47.41 75.7,-47.87"/>
<text text-anchor="middle" x="64.72" y="-56.45" font-family="Arial" font-size="14.00">a</text>
</g>
<!-- 2 -->
<g id="node3" class="node">
<title>2</title>
<path fill="none" stroke="black" d="M177.22,-72C177.22,-72 147.22,-72 147.22,-72 141.22,-72 135.22,-66 135.22,-60 135.22,-60 135.22,-48 135.22,-48 135.22,-42 141.22,-36 147.22,-36 147.22,-36 177.22,-36 177.22,-36 183.22,-36 189.22,-42 189.22,-48 189.22,-48 189.22,-60 189.22,-60 189.22,-66 183.22,-72 177.22,-72"/>
<text text-anchor="start" x="150.47" y="-48.58" font-family="Arial" font-size="14.00">2</text>
<polygon fill="black" stroke="none" points="167.97,-44.12 167.97,-63.88 175.97,-63.88 175.97,-44.12 167.97,-44.12"/>
</g>
<!-- 1&#45;&gt;2 -->
<g id="edge3" class="edge">
<title>1&#45;&gt;2</title>
<path fill="none" stroke="black" d="M92.07,-27.93C102.09,-31.71 113.7,-36.08 124.5,-40.16"/>
<polygon fill="black" stroke="black" points="122.95,-43.31 133.54,-43.57 125.42,-36.76 122.95,-43.31"/>
<text text-anchor="middle" x="113.47" y="-39.53" font-family="Arial" font-size="14.00">g</text>
</g>
<!-- 2&#45;&gt;2 -->
<g id="edge7" class="edge">
<title>2&#45;&gt;2</title>
<path fill="none" stroke="black" d="M153.4,-72.15C152.04,-81.54 154.98,-90 162.22,-90 166.29,-90 169,-87.32 170.35,-83.31"/>
<polygon fill="black" stroke="black" points="173.83,-83.86 170.95,-73.66 166.84,-83.43 173.83,-83.86"/>
<text text-anchor="middle" x="162.22" y="-92.45" font-family="Arial" font-size="14.00">b</text>
</g>
<!-- 3 -->
<g id="node4" class="node">
<title>3</title>
<path fill="none" stroke="black" d="M289.72,-36C289.72,-36 259.72,-36 259.72,-36 253.72,-36 247.72,-30 247.72,-24 247.72,-24 247.72,-12 247.72,-12 247.72,-6 253.72,0 259.72,0 259.72,0 289.72,0 289.72,0 295.72,0 301.72,-6 301.72,-12 301.72,-12 301.72,-24 301.72,-24 301.72,-30 295.72,-36 289.72,-36"/>
<text text-anchor="middle" x="274.72" y="-12.57" font-family="Arial" font-size="14.00">3</text>
</g>
<!-- 2&#45;&gt;3 -->
<g id="edge6" class="edge">
<title>2&#45;&gt;3</title>
<path fill="none" stroke="black" d="M189.69,-45.38C203.77,-40.79 221.3,-35.08 236.71,-30.06"/>
<polygon fill="black" stroke="black" points="237.61,-33.45 246.03,-27.02 235.44,-26.79 237.61,-33.45"/>
<text text-anchor="middle" x="218.47" y="-41.67" font-family="Arial" font-size="14.00">g, a</text>
</g>
<!-- 3&#45;&gt;1 -->
<g id="edge4" class="edge">
<title>3&#45;&gt;1</title>
<path fill="none" stroke="black" d="M247.49,-15.36C230.82,-13.82 208.78,-12.03 189.22,-11.25 165.24,-10.29 159.19,-10.09 135.22,-11.25 124.84,-11.75 113.62,-12.68 103.28,-13.68"/>
<polygon fill="black" stroke="black" points="103.17,-10.17 93.58,-14.68 103.89,-17.14 103.17,-10.17"/>
<text text-anchor="middle" x="162.22" y="-13.7" font-family="Arial" font-size="14.00">a</text>
</g>
<!-- 3&#45;&gt;3 -->
<g id="edge5" class="edge">
<title>3&#45;&gt;3</title>
<path fill="none" stroke="black" d="M264.54,-36.15C262.98,-45.54 266.37,-54 274.72,-54 279.42,-54 282.54,-51.32 284.1,-47.31"/>
<polygon fill="black" stroke="black" points="287.57,-47.89 284.79,-37.66 280.59,-47.39 287.57,-47.89"/>
<text text-anchor="middle" x="274.72" y="-56.45" font-family="Arial" font-size="14.00">b</text>
</g>
</g>
</svg>
