<?xml version="1.0" encoding="UTF-8" standalone="no"?>
<!DOCTYPE svg PUBLIC "-//W3C//DTD SVG 1.0//EN"
 "http://www.w3.org/TR/2001/REC-SVG-20010904/DTD/svg10.dtd" [
 <!ATTLIST svg xmlns:xlink CDATA #FIXED "http://www.w3.org/1999/xlink">
]>
<!-- Generated by Graphviz version 2.20.2 (Tue Mar &#160;2 21:46:26 UTC 2010)
     For user: (mtmoor) Prof. Thomas Moor -->
<!-- Title: g_nonmin Pages: 1 -->
<svg width="332pt" height="98pt"
 viewBox="0.00 0.00 332.00 98.00" xmlns="http://www.w3.org/2000/svg" xmlns:xlink="http://www.w3.org/1999/xlink">
<g id="graph0" class="graph" transform="scale(1 1) rotate(0) translate(4 94)">
<title>g_nonmin</title>
<polygon style="fill:none;stroke:none;" points="-4,4 -4,-94 328,-94 328,4 -4,4"/>
<!-- dot_dummyinit_1 -->
<g id="node1" class="node"><title>dot_dummyinit_1</title>
</g>
<!-- 1 -->
<g id="node3" class="node"><title>1</title>
<ellipse style="fill:none;stroke:black;" cx="62" cy="-46" rx="18" ry="18"/>
<ellipse style="fill:none;stroke:black;" cx="62" cy="-46" rx="22" ry="22"/>
<text text-anchor="middle" x="62" y="-41.9" style="font-family:Times New Roman;font-size:14.00;">1</text>
</g>
<!-- dot_dummyinit_1&#45;&gt;1 -->
<g id="edge2" class="edge"><title>dot_dummyinit_1&#45;&gt;1</title>
<path style="fill:none;stroke:black;" d="M2,-46C5,-46 17,-46 30,-46"/>
<polygon style="fill:black;stroke:black;" points="30,-49.5001 40,-46 30,-42.5001 30,-49.5001"/>
</g>
<!-- 2 -->
<g id="node4" class="node"><title>2</title>
<ellipse style="fill:none;stroke:black;" cx="146" cy="-72" rx="18" ry="18"/>
<text text-anchor="middle" x="146" y="-67.9" style="font-family:Times New Roman;font-size:14.00;">2</text>
</g>
<!-- 1&#45;&gt;2 -->
<g id="edge4" class="edge"><title>1&#45;&gt;2</title>
<path style="fill:none;stroke:black;" d="M83,-53C94,-56 107,-60 119,-64"/>
<polygon style="fill:black;stroke:black;" points="118.416,-67.4788 129,-67 120.427,-60.7741 118.416,-67.4788"/>
<text text-anchor="middle" x="106" y="-63.9" style="font-family:Times New Roman;font-size:14.00;">a</text>
</g>
<!-- 3 -->
<g id="node5" class="node"><title>3</title>
<ellipse style="fill:none;stroke:black;" cx="146" cy="-18" rx="18" ry="18"/>
<text text-anchor="middle" x="146" y="-13.9" style="font-family:Times New Roman;font-size:14.00;">3</text>
</g>
<!-- 1&#45;&gt;3 -->
<g id="edge6" class="edge"><title>1&#45;&gt;3</title>
<path style="fill:none;stroke:black;" d="M83,-39C94,-35 107,-31 119,-27"/>
<polygon style="fill:black;stroke:black;" points="120.427,-30.2259 129,-24 118.416,-23.5212 120.427,-30.2259"/>
<text text-anchor="middle" x="106" y="-35.9" style="font-family:Times New Roman;font-size:14.00;">c</text>
</g>
<!-- 4 -->
<g id="node6" class="node"><title>4</title>
<ellipse style="fill:none;stroke:black;" cx="226" cy="-72" rx="18" ry="18"/>
<text text-anchor="middle" x="226" y="-67.9" style="font-family:Times New Roman;font-size:14.00;">4</text>
</g>
<!-- 2&#45;&gt;4 -->
<g id="edge8" class="edge"><title>2&#45;&gt;4</title>
<path style="fill:none;stroke:black;" d="M164,-72C174,-72 187,-72 198,-72"/>
<polygon style="fill:black;stroke:black;" points="198,-75.5001 208,-72 198,-68.5001 198,-75.5001"/>
<text text-anchor="middle" x="186" y="-75.9" style="font-family:Times New Roman;font-size:14.00;">b</text>
</g>
<!-- 5 -->
<g id="node7" class="node"><title>5</title>
<ellipse style="fill:none;stroke:black;" cx="226" cy="-18" rx="18" ry="18"/>
<text text-anchor="middle" x="226" y="-13.9" style="font-family:Times New Roman;font-size:14.00;">5</text>
</g>
<!-- 3&#45;&gt;5 -->
<g id="edge10" class="edge"><title>3&#45;&gt;5</title>
<path style="fill:none;stroke:black;" d="M164,-18C174,-18 187,-18 198,-18"/>
<polygon style="fill:black;stroke:black;" points="198,-21.5001 208,-18 198,-14.5001 198,-21.5001"/>
<text text-anchor="middle" x="186" y="-21.9" style="font-family:Times New Roman;font-size:14.00;">a</text>
</g>
<!-- 6 -->
<g id="node8" class="node"><title>6</title>
<ellipse style="fill:none;stroke:black;" cx="306" cy="-18" rx="18" ry="18"/>
<text text-anchor="middle" x="306" y="-13.9" style="font-family:Times New Roman;font-size:14.00;">6</text>
</g>
<!-- 5&#45;&gt;6 -->
<g id="edge12" class="edge"><title>5&#45;&gt;6</title>
<path style="fill:none;stroke:black;" d="M244,-18C254,-18 267,-18 278,-18"/>
<polygon style="fill:black;stroke:black;" points="278,-21.5001 288,-18 278,-14.5001 278,-21.5001"/>
<text text-anchor="middle" x="266" y="-21.9" style="font-family:Times New Roman;font-size:14.00;">b</text>
</g>
</g>
</svg>
