<?xml version="1.0" encoding="UTF-8" standalone="no"?>
<!DOCTYPE svg PUBLIC "-//W3C//DTD SVG 1.0//EN"
 "http://www.w3.org/TR/2001/REC-SVG-20010904/DTD/svg10.dtd" [
 <!ATTLIST svg xmlns:xlink CDATA #FIXED "http://www.w3.org/1999/xlink">
]>
<!-- Generated by Graphviz version 2.20.2 (Tue Mar &#160;2 21:46:26 UTC 2010)
     For user: (mtmoor) Prof. Thomas Moor -->
<!-- Title: KleeneClosure(g) Pages: 1 -->
<svg width="348pt" height="166pt"
 viewBox="0.00 0.00 348.00 166.00" xmlns="http://www.w3.org/2000/svg" xmlns:xlink="http://www.w3.org/1999/xlink">
<g id="graph0" class="graph" transform="scale(1 1) rotate(0) translate(4 162)">
<title>KleeneClosure(g)</title>
<polygon style="fill:none;stroke:none;" points="-4,4 -4,-162 344,-162 344,4 -4,4"/>
<!-- dot_dummyinit_1 -->
<g id="node1" class="node"><title>dot_dummyinit_1</title>
</g>
<!-- 1 -->
<g id="node3" class="node"><title>1</title>
<ellipse style="fill:none;stroke:black;" cx="62" cy="-73" rx="18" ry="18"/>
<ellipse style="fill:none;stroke:black;" cx="62" cy="-73" rx="22" ry="22"/>
<text text-anchor="middle" x="62" y="-68.9" style="font-family:Times New Roman;font-size:14.00;">1</text>
</g>
<!-- dot_dummyinit_1&#45;&gt;1 -->
<g id="edge2" class="edge"><title>dot_dummyinit_1&#45;&gt;1</title>
<path style="fill:none;stroke:black;" d="M2,-73C5,-73 17,-73 30,-73"/>
<polygon style="fill:black;stroke:black;" points="30,-76.5001 40,-73 30,-69.5001 30,-76.5001"/>
</g>
<!-- 2 -->
<g id="node7" class="node"><title>2</title>
<ellipse style="fill:none;stroke:black;" cx="146" cy="-73" rx="18" ry="18"/>
<text text-anchor="middle" x="146" y="-68.9" style="font-family:Times New Roman;font-size:14.00;">2</text>
</g>
<!-- 1&#45;&gt;2 -->
<g id="edge4" class="edge"><title>1&#45;&gt;2</title>
<path style="fill:none;stroke:black;" d="M84,-73C95,-73 107,-73 118,-73"/>
<polygon style="fill:black;stroke:black;" points="118,-76.5001 128,-73 118,-69.5001 118,-76.5001"/>
<text text-anchor="middle" x="106" y="-76.9" style="font-family:Times New Roman;font-size:14.00;">a</text>
</g>
<!-- 3 -->
<g id="node4" class="node"><title>3</title>
<ellipse style="fill:none;stroke:black;" cx="230" cy="-136" rx="18" ry="18"/>
<ellipse style="fill:none;stroke:black;" cx="230" cy="-136" rx="22" ry="22"/>
<text text-anchor="middle" x="230" y="-131.9" style="font-family:Times New Roman;font-size:14.00;">3</text>
</g>
<!-- 3&#45;&gt;2 -->
<g id="edge10" class="edge"><title>3&#45;&gt;2</title>
<path style="fill:none;stroke:black;" d="M212,-123C200,-113 183,-101 169,-90"/>
<polygon style="fill:black;stroke:black;" points="171.1,-87.2 161,-84 166.9,-92.8 171.1,-87.2"/>
<text text-anchor="middle" x="186" y="-107.9" style="font-family:Times New Roman;font-size:14.00;">a</text>
</g>
<!-- 4 -->
<g id="node5" class="node"><title>4</title>
<ellipse style="fill:none;stroke:black;" cx="230" cy="-57" rx="18" ry="18"/>
<ellipse style="fill:none;stroke:black;" cx="230" cy="-57" rx="22" ry="22"/>
<text text-anchor="middle" x="230" y="-52.9" style="font-family:Times New Roman;font-size:14.00;">4</text>
</g>
<!-- 5 -->
<g id="node6" class="node"><title>5</title>
<ellipse style="fill:none;stroke:black;" cx="318" cy="-22" rx="18" ry="18"/>
<ellipse style="fill:none;stroke:black;" cx="318" cy="-22" rx="22" ry="22"/>
<text text-anchor="middle" x="318" y="-17.9" style="font-family:Times New Roman;font-size:14.00;">5</text>
</g>
<!-- 4&#45;&gt;5 -->
<g id="edge14" class="edge"><title>4&#45;&gt;5</title>
<path style="fill:none;stroke:black;" d="M251,-49C262,-44 276,-39 288,-34"/>
<polygon style="fill:black;stroke:black;" points="289.283,-37.2598 297,-30 286.44,-30.8631 289.283,-37.2598"/>
<text text-anchor="middle" x="274" y="-43.9" style="font-family:Times New Roman;font-size:14.00;">d</text>
</g>
<!-- 4&#45;&gt;2 -->
<g id="edge12" class="edge"><title>4&#45;&gt;2</title>
<path style="fill:none;stroke:black;" d="M211,-45C202,-41 192,-38 182,-42 176,-44 170,-48 165,-52"/>
<polygon style="fill:black;stroke:black;" points="162.596,-49.454 158,-59 167.546,-54.4038 162.596,-49.454"/>
<text text-anchor="middle" x="186" y="-45.9" style="font-family:Times New Roman;font-size:14.00;">a</text>
</g>
<!-- 5&#45;&gt;2 -->
<g id="edge16" class="edge"><title>5&#45;&gt;2</title>
<path style="fill:none;stroke:black;" d="M297,-14C275,-6 238,3 208,-9 189,-17 172,-35 162,-50"/>
<polygon style="fill:black;stroke:black;" points="159.2,-47.9 156,-58 164.8,-52.1 159.2,-47.9"/>
<text text-anchor="middle" x="230" y="-12.9" style="font-family:Times New Roman;font-size:14.00;">a</text>
</g>
<!-- 2&#45;&gt;3 -->
<g id="edge6" class="edge"><title>2&#45;&gt;3</title>
<path style="fill:none;stroke:black;" d="M152,-90C158,-103 168,-121 182,-131 187,-134 192,-136 198,-137"/>
<polygon style="fill:black;stroke:black;" points="197.701,-140.488 208,-138 198.398,-133.522 197.701,-140.488"/>
<text text-anchor="middle" x="186" y="-135.9" style="font-family:Times New Roman;font-size:14.00;">b</text>
</g>
<!-- 2&#45;&gt;4 -->
<g id="edge8" class="edge"><title>2&#45;&gt;4</title>
<path style="fill:none;stroke:black;" d="M164,-70C174,-68 187,-65 198,-63"/>
<polygon style="fill:black;stroke:black;" points="198.881,-66.3933 208,-61 197.508,-59.5292 198.881,-66.3933"/>
<text text-anchor="middle" x="186" y="-68.9" style="font-family:Times New Roman;font-size:14.00;">c</text>
</g>
</g>
</svg>
