<?xml version="1.0" encoding="UTF-8" standalone="no"?>
<!DOCTYPE svg PUBLIC "-//W3C//DTD SVG 1.1//EN"
 "http://www.w3.org/Graphics/SVG/1.1/DTD/svg11.dtd">
<!-- Generated by graphviz version 12.2.1 (20241206.2353)
 -->
<!-- Title: Intersection(languagedifference_g1,...nt(languagedifference_g2,Alphabet)) Pages: 1 -->
<svg width="393pt" height="80pt"
 viewBox="0.00 0.00 393.22 80.00" xmlns="http://www.w3.org/2000/svg" xmlns:xlink="http://www.w3.org/1999/xlink">
<g id="graph0" class="graph" transform="scale(1 1) rotate(0) translate(4 76)">
<title>Intersection(languagedifference_g1,...nt(languagedifference_g2,Alphabet))</title>
<!-- dot_dummyinit_1 -->
<g id="node1" class="node">
<title>dot_dummyinit_1</title>
</g>
<!-- 1|1 -->
<g id="node2" class="node">
<title>1|1</title>
<path fill="none" stroke="black" d="M79.72,-36C79.72,-36 49.72,-36 49.72,-36 43.72,-36 37.72,-30 37.72,-24 37.72,-24 37.72,-12 37.72,-12 37.72,-6 43.72,0 49.72,0 49.72,0 79.72,0 79.72,0 85.72,0 91.72,-6 91.72,-12 91.72,-12 91.72,-24 91.72,-24 91.72,-30 85.72,-36 79.72,-36"/>
<text text-anchor="middle" x="64.72" y="-12.57" font-family="Arial" font-size="14.00">1|1</text>
</g>
<!-- dot_dummyinit_1&#45;&gt;1|1 -->
<g id="edge1" class="edge">
<title>dot_dummyinit_1&#45;&gt;1|1</title>
<path fill="none" stroke="black" d="M0.77,-18C1.57,-18 12.96,-18 25.83,-18"/>
<polygon fill="black" stroke="black" points="25.79,-21.5 35.79,-18 25.79,-14.5 25.79,-21.5"/>
</g>
<!-- 2|2 -->
<g id="node4" class="node">
<title>2|2</title>
<path fill="none" stroke="black" d="M177.22,-72C177.22,-72 147.22,-72 147.22,-72 141.22,-72 135.22,-66 135.22,-60 135.22,-60 135.22,-48 135.22,-48 135.22,-42 141.22,-36 147.22,-36 147.22,-36 177.22,-36 177.22,-36 183.22,-36 189.22,-42 189.22,-48 189.22,-48 189.22,-60 189.22,-60 189.22,-66 183.22,-72 177.22,-72"/>
<text text-anchor="middle" x="162.22" y="-48.58" font-family="Arial" font-size="14.00">2|2</text>
</g>
<!-- 1|1&#45;&gt;2|2 -->
<g id="edge2" class="edge">
<title>1|1&#45;&gt;2|2</title>
<path fill="none" stroke="black" d="M92.07,-27.93C102.09,-31.71 113.7,-36.08 124.5,-40.16"/>
<polygon fill="black" stroke="black" points="122.95,-43.31 133.54,-43.57 125.42,-36.76 122.95,-43.31"/>
<text text-anchor="middle" x="113.47" y="-39.53" font-family="Arial" font-size="14.00">a</text>
</g>
<!-- 4|5 -->
<g id="node3" class="node">
<title>4|5</title>
<path fill="none" stroke="black" d="M373.22,-36C373.22,-36 338.47,-36 338.47,-36 332.47,-36 326.47,-30 326.47,-24 326.47,-24 326.47,-12 326.47,-12 326.47,-6 332.47,0 338.47,0 338.47,0 373.22,0 373.22,0 379.22,0 385.22,-6 385.22,-12 385.22,-12 385.22,-24 385.22,-24 385.22,-30 379.22,-36 373.22,-36"/>
<text text-anchor="start" x="338.47" y="-12.57" font-family="Arial" font-size="14.00">4|5</text>
<polygon fill="black" stroke="none" points="367.22,-8.12 367.22,-27.88 375.22,-27.88 375.22,-8.12 367.22,-8.12"/>
</g>
<!-- 3|3 -->
<g id="node5" class="node">
<title>3|3</title>
<path fill="none" stroke="black" d="M274.72,-36C274.72,-36 244.72,-36 244.72,-36 238.72,-36 232.72,-30 232.72,-24 232.72,-24 232.72,-12 232.72,-12 232.72,-6 238.72,0 244.72,0 244.72,0 274.72,0 274.72,0 280.72,0 286.72,-6 286.72,-12 286.72,-12 286.72,-24 286.72,-24 286.72,-30 280.72,-36 274.72,-36"/>
<text text-anchor="middle" x="259.72" y="-12.57" font-family="Arial" font-size="14.00">3|3</text>
</g>
<!-- 2|2&#45;&gt;3|3 -->
<g id="edge3" class="edge">
<title>2|2&#45;&gt;3|3</title>
<path fill="none" stroke="black" d="M189.57,-44.07C199.59,-40.29 211.2,-35.92 222,-31.84"/>
<polygon fill="black" stroke="black" points="222.92,-35.24 231.04,-28.43 220.45,-28.69 222.92,-35.24"/>
<text text-anchor="middle" x="210.97" y="-39.53" font-family="Arial" font-size="14.00">b</text>
</g>
<!-- 3|3&#45;&gt;1|1 -->
<g id="edge5" class="edge">
<title>3|3&#45;&gt;1|1</title>
<path fill="none" stroke="black" d="M232.36,-14.83C219.39,-13.43 203.51,-11.94 189.22,-11.25 165.25,-10.09 159.19,-10.09 135.22,-11.25 124.84,-11.75 113.62,-12.68 103.28,-13.68"/>
<polygon fill="black" stroke="black" points="103.17,-10.17 93.58,-14.68 103.89,-17.14 103.17,-10.17"/>
<text text-anchor="middle" x="162.22" y="-13.7" font-family="Arial" font-size="14.00">c</text>
</g>
<!-- 3|3&#45;&gt;4|5 -->
<g id="edge4" class="edge">
<title>3|3&#45;&gt;4|5</title>
<path fill="none" stroke="black" d="M287.19,-18C295.75,-18 305.45,-18 314.77,-18"/>
<polygon fill="black" stroke="black" points="314.76,-21.5 324.76,-18 314.76,-14.5 314.76,-21.5"/>
<text text-anchor="middle" x="306.6" y="-20.45" font-family="Arial" font-size="14.00">f</text>
</g>
</g>
</svg>
