<?xml version="1.0" encoding="UTF-8" standalone="no"?>
<!DOCTYPE svg PUBLIC "-//W3C//DTD SVG 1.0//EN"
 "http://www.w3.org/TR/2001/REC-SVG-20010904/DTD/svg10.dtd" [
 <!ATTLIST svg xmlns:xlink CDATA #FIXED "http://www.w3.org/1999/xlink">
]>
<!-- Generated by Graphviz version 2.20.2 (Tue Mar &#160;2 21:46:26 UTC 2010)
     For user: (mtmoor) Prof. Thomas Moor -->
<!-- Title: Det(g_nondet) Pages: 1 -->
<svg width="456pt" height="208pt"
 viewBox="0.00 0.00 456.00 208.00" xmlns="http://www.w3.org/2000/svg" xmlns:xlink="http://www.w3.org/1999/xlink">
<g id="graph0" class="graph" transform="scale(1 1) rotate(0) translate(4 204)">
<title>Det(g_nondet)</title>
<polygon style="fill:none;stroke:none;" points="-4,4 -4,-204 452,-204 452,4 -4,4"/>
<!-- dot_dummyinit_1 -->
<g id="node1" class="node"><title>dot_dummyinit_1</title>
</g>
<!-- {1} -->
<g id="node3" class="node"><title>{1}</title>
<ellipse style="fill:none;stroke:black;" cx="70" cy="-71" rx="29.8799" ry="29.8799"/>
<text text-anchor="middle" x="70" y="-66.9" style="font-family:Times New Roman;font-size:14.00;">{1}</text>
</g>
<!-- dot_dummyinit_1&#45;&gt;{1} -->
<g id="edge2" class="edge"><title>dot_dummyinit_1&#45;&gt;{1}</title>
<path style="fill:none;stroke:black;" d="M2,-71C6,-71 17,-71 30,-71"/>
<polygon style="fill:black;stroke:black;" points="30,-74.5001 40,-71 30,-67.5001 30,-74.5001"/>
</g>
<!-- {2} -->
<g id="node6" class="node"><title>{2}</title>
<ellipse style="fill:none;stroke:black;" cx="174" cy="-112" rx="29.8799" ry="29.8799"/>
<text text-anchor="middle" x="174" y="-107.9" style="font-family:Times New Roman;font-size:14.00;">{2}</text>
</g>
<!-- {1}&#45;&gt;{2} -->
<g id="edge4" class="edge"><title>{1}&#45;&gt;{2}</title>
<path style="fill:none;stroke:black;" d="M98,-82C110,-87 124,-92 137,-97"/>
<polygon style="fill:black;stroke:black;" points="135.44,-100.137 146,-101 138.283,-93.7402 135.44,-100.137"/>
<text text-anchor="middle" x="122" y="-94.9" style="font-family:Times New Roman;font-size:14.00;">a</text>
</g>
<!-- {5} -->
<g id="node7" class="node"><title>{5}</title>
<ellipse style="fill:none;stroke:black;" cx="291" cy="-170" rx="29.8799" ry="29.8799"/>
<text text-anchor="middle" x="291" y="-165.9" style="font-family:Times New Roman;font-size:14.00;">{5}</text>
</g>
<!-- {1}&#45;&gt;{5} -->
<g id="edge6" class="edge"><title>{1}&#45;&gt;{5}</title>
<path style="fill:none;stroke:black;" d="M86,-96C100,-115 120,-138 144,-151 177,-168 220,-172 251,-172"/>
<polygon style="fill:black;stroke:black;" points="251,-175.5 261,-172 251,-168.5 251,-175.5"/>
<text text-anchor="middle" x="174" y="-170.9" style="font-family:Times New Roman;font-size:14.00;">e</text>
</g>
<!-- {3,4} -->
<g id="node4" class="node"><title>{3,4}</title>
<ellipse style="fill:none;stroke:black;" cx="291" cy="-72" rx="39.153" ry="39.153"/>
<ellipse style="fill:none;stroke:black;" cx="291" cy="-72" rx="43.107" ry="43.107"/>
<text text-anchor="middle" x="291" y="-67.9" style="font-family:Times New Roman;font-size:14.00;">{3,4}</text>
</g>
<!-- {3,4}&#45;&gt;{1} -->
<g id="edge16" class="edge"><title>{3,4}&#45;&gt;{1}</title>
<path style="fill:none;stroke:black;" d="M249,-63C235,-60 219,-57 204,-56 178,-54 171,-54 144,-56 133,-58 120,-60 109,-62"/>
<polygon style="fill:black;stroke:black;" points="108.119,-58.6067 99,-64 109.492,-65.4708 108.119,-58.6067"/>
<text text-anchor="middle" x="174" y="-63.9" style="font-family:Times New Roman;font-size:14.00;">e</text>
</g>
<!-- {4} -->
<g id="node5" class="node"><title>{4}</title>
<ellipse style="fill:none;stroke:black;" cx="414" cy="-34" rx="29.8799" ry="29.8799"/>
<ellipse style="fill:none;stroke:black;" cx="414" cy="-34" rx="33.8799" ry="33.8799"/>
<text text-anchor="middle" x="414" y="-29.9" style="font-family:Times New Roman;font-size:14.00;">{4}</text>
</g>
<!-- {3,4}&#45;&gt;{4} -->
<g id="edge14" class="edge"><title>{3,4}&#45;&gt;{4}</title>
<path style="fill:none;stroke:black;" d="M332,-59C345,-55 358,-51 371,-47"/>
<polygon style="fill:black;stroke:black;" points="372.427,-50.2259 381,-44 370.416,-43.5212 372.427,-50.2259"/>
<text text-anchor="middle" x="357" y="-58.9" style="font-family:Times New Roman;font-size:14.00;">d</text>
</g>
<!-- {4}&#45;&gt;{1} -->
<g id="edge20" class="edge"><title>{4}&#45;&gt;{1}</title>
<path style="fill:none;stroke:black;" d="M380,-27C366,-24 349,-22 334,-20 296,-17 286,-15 248,-20 189,-29 176,-41 118,-57 115,-58 112,-59 109,-60"/>
<polygon style="fill:black;stroke:black;" points="107.573,-56.7741 99,-63 109.584,-63.4788 107.573,-56.7741"/>
<text text-anchor="middle" x="226" y="-30.9" style="font-family:Times New Roman;font-size:14.00;">e</text>
</g>
<!-- {2}&#45;&gt;{3,4} -->
<g id="edge10" class="edge"><title>{2}&#45;&gt;{3,4}</title>
<path style="fill:none;stroke:black;" d="M203,-102C214,-98 227,-93 240,-89"/>
<polygon style="fill:black;stroke:black;" points="241.427,-92.2259 250,-86 239.416,-85.5212 241.427,-92.2259"/>
<text text-anchor="middle" x="226" y="-98.9" style="font-family:Times New Roman;font-size:14.00;">b</text>
</g>
<!-- {2}&#45;&gt;{5} -->
<g id="edge8" class="edge"><title>{2}&#45;&gt;{5}</title>
<path style="fill:none;stroke:black;" d="M201,-125C217,-133 237,-143 255,-152"/>
<polygon style="fill:black;stroke:black;" points="253.559,-155.203 264,-157 256.958,-149.084 253.559,-155.203"/>
<text text-anchor="middle" x="226" y="-140.9" style="font-family:Times New Roman;font-size:14.00;">f</text>
</g>
<!-- {6} -->
<g id="node8" class="node"><title>{6}</title>
<ellipse style="fill:none;stroke:black;" cx="414" cy="-148" rx="29.8799" ry="29.8799"/>
<text text-anchor="middle" x="414" y="-143.9" style="font-family:Times New Roman;font-size:14.00;">{6}</text>
</g>
<!-- {5}&#45;&gt;{6} -->
<g id="edge12" class="edge"><title>{5}&#45;&gt;{6}</title>
<path style="fill:none;stroke:black;" d="M321,-165C337,-162 357,-158 374,-155"/>
<polygon style="fill:black;stroke:black;" points="374.881,-158.393 384,-153 373.508,-151.529 374.881,-158.393"/>
<text text-anchor="middle" x="357" y="-160.9" style="font-family:Times New Roman;font-size:14.00;">g</text>
</g>
<!-- {6}&#45;&gt;{5} -->
<g id="edge18" class="edge"><title>{6}&#45;&gt;{5}</title>
<path style="fill:none;stroke:black;" d="M386,-137C376,-134 363,-133 352,-136 342,-138 333,-143 324,-147"/>
<polygon style="fill:black;stroke:black;" points="322.042,-144.084 315,-152 325.441,-150.203 322.042,-144.084"/>
<text text-anchor="middle" x="357" y="-139.9" style="font-family:Times New Roman;font-size:14.00;">h</text>
</g>
</g>
</svg>
