<?xml version="1.0" encoding="UTF-8" standalone="no"?>
<!DOCTYPE svg PUBLIC "-//W3C//DTD SVG 1.1//EN"
 "http://www.w3.org/Graphics/SVG/1.1/DTD/svg11.dtd">
<!-- Generated by graphviz version 12.2.1 (20241206.2353)
 -->
<!-- Title: GTrim Pages: 1 -->
<svg width="588pt" height="47pt"
 viewBox="0.00 0.00 587.72 46.77" xmlns="http://www.w3.org/2000/svg" xmlns:xlink="http://www.w3.org/1999/xlink">
<g id="graph0" class="graph" transform="scale(1 1) rotate(0) translate(4 42.77)">
<title>GTrim</title>
<!-- dot_dummyinit_1 -->
<g id="node1" class="node">
<title>dot_dummyinit_1</title>
</g>
<!-- s1 -->
<g id="node2" class="node">
<title>s1</title>
<path fill="none" stroke="black" d="M79.72,-38.77C79.72,-38.77 49.72,-38.77 49.72,-38.77 43.72,-38.77 37.72,-32.77 37.72,-26.77 37.72,-26.77 37.72,-14.77 37.72,-14.77 37.72,-8.77 43.72,-2.77 49.72,-2.77 49.72,-2.77 79.72,-2.77 79.72,-2.77 85.72,-2.77 91.72,-8.77 91.72,-14.77 91.72,-14.77 91.72,-26.77 91.72,-26.77 91.72,-32.77 85.72,-38.77 79.72,-38.77"/>
<text text-anchor="middle" x="64.72" y="-15.34" font-family="Arial" font-size="14.00">s1</text>
</g>
<!-- dot_dummyinit_1&#45;&gt;s1 -->
<g id="edge1" class="edge">
<title>dot_dummyinit_1&#45;&gt;s1</title>
<path fill="none" stroke="black" d="M0.77,-20.77C1.57,-20.77 12.96,-20.77 25.83,-20.77"/>
<polygon fill="black" stroke="black" points="25.79,-24.27 35.79,-20.77 25.79,-17.27 25.79,-24.27"/>
</g>
<!-- s2 -->
<g id="node3" class="node">
<title>s2</title>
<path fill="none" stroke="black" d="M177.47,-38.77C177.47,-38.77 147.22,-38.77 147.22,-38.77 141.22,-38.77 135.22,-32.77 135.22,-26.77 135.22,-26.77 135.22,-14.77 135.22,-14.77 135.22,-8.77 141.22,-2.77 147.22,-2.77 147.22,-2.77 177.47,-2.77 177.47,-2.77 183.47,-2.77 189.47,-8.77 189.47,-14.77 189.47,-14.77 189.47,-26.77 189.47,-26.77 189.47,-32.77 183.47,-38.77 177.47,-38.77"/>
<text text-anchor="start" x="147.22" y="-15.34" font-family="Arial" font-size="14.00">s2</text>
<polygon fill="black" stroke="none" points="171.47,-10.89 171.47,-30.64 179.47,-30.64 179.47,-10.89 171.47,-10.89"/>
</g>
<!-- s1&#45;&gt;s2 -->
<g id="edge2" class="edge">
<title>s1&#45;&gt;s2</title>
<path fill="none" stroke="black" d="M92.1,-20.77C101.82,-20.77 113.03,-20.77 123.56,-20.77"/>
<polygon fill="black" stroke="black" points="123.53,-24.27 133.53,-20.77 123.53,-17.27 123.53,-24.27"/>
<text text-anchor="middle" x="113.47" y="-23.22" font-family="Arial" font-size="14.00">a</text>
</g>
<!-- s2&#45;&gt;s1 -->
<g id="edge3" class="edge">
<title>s2&#45;&gt;s1</title>
<path fill="none" stroke="black" d="M134.76,-4.23C126.86,-1.07 118.07,0.77 109.72,-1.02 107.42,-1.51 105.09,-2.13 102.77,-2.85"/>
<polygon fill="black" stroke="black" points="101.69,0.48 93.52,-6.26 104.11,-6.08 101.69,0.48"/>
<text text-anchor="middle" x="113.47" y="-3.47" font-family="Arial" font-size="14.00">b</text>
</g>
<!-- s3 -->
<g id="node5" class="node">
<title>s3</title>
<path fill="none" stroke="black" d="M274.97,-38.77C274.97,-38.77 244.97,-38.77 244.97,-38.77 238.97,-38.77 232.97,-32.77 232.97,-26.77 232.97,-26.77 232.97,-14.77 232.97,-14.77 232.97,-8.77 238.97,-2.77 244.97,-2.77 244.97,-2.77 274.97,-2.77 274.97,-2.77 280.97,-2.77 286.97,-8.77 286.97,-14.77 286.97,-14.77 286.97,-26.77 286.97,-26.77 286.97,-32.77 280.97,-38.77 274.97,-38.77"/>
<text text-anchor="middle" x="259.97" y="-15.34" font-family="Arial" font-size="14.00">s3</text>
</g>
<!-- s2&#45;&gt;s3 -->
<g id="edge4" class="edge">
<title>s2&#45;&gt;s3</title>
<path fill="none" stroke="black" d="M189.73,-20.77C199.45,-20.77 210.66,-20.77 221.19,-20.77"/>
<polygon fill="black" stroke="black" points="221.16,-24.27 231.16,-20.77 221.16,-17.27 221.16,-24.27"/>
<text text-anchor="middle" x="211.22" y="-23.22" font-family="Arial" font-size="14.00">a</text>
</g>
<!-- s9 -->
<g id="node4" class="node">
<title>s9</title>
<path fill="none" stroke="black" d="M567.72,-38.77C567.72,-38.77 537.47,-38.77 537.47,-38.77 531.47,-38.77 525.47,-32.77 525.47,-26.77 525.47,-26.77 525.47,-14.77 525.47,-14.77 525.47,-8.77 531.47,-2.77 537.47,-2.77 537.47,-2.77 567.72,-2.77 567.72,-2.77 573.72,-2.77 579.72,-8.77 579.72,-14.77 579.72,-14.77 579.72,-26.77 579.72,-26.77 579.72,-32.77 573.72,-38.77 567.72,-38.77"/>
<text text-anchor="start" x="537.47" y="-15.34" font-family="Arial" font-size="14.00">s9</text>
<polygon fill="black" stroke="none" points="561.72,-10.89 561.72,-30.64 569.72,-30.64 569.72,-10.89 561.72,-10.89"/>
</g>
<!-- s4 -->
<g id="node6" class="node">
<title>s4</title>
<path fill="none" stroke="black" d="M372.47,-38.77C372.47,-38.77 342.47,-38.77 342.47,-38.77 336.47,-38.77 330.47,-32.77 330.47,-26.77 330.47,-26.77 330.47,-14.77 330.47,-14.77 330.47,-8.77 336.47,-2.77 342.47,-2.77 342.47,-2.77 372.47,-2.77 372.47,-2.77 378.47,-2.77 384.47,-8.77 384.47,-14.77 384.47,-14.77 384.47,-26.77 384.47,-26.77 384.47,-32.77 378.47,-38.77 372.47,-38.77"/>
<text text-anchor="middle" x="357.47" y="-15.34" font-family="Arial" font-size="14.00">s4</text>
</g>
<!-- s3&#45;&gt;s4 -->
<g id="edge5" class="edge">
<title>s3&#45;&gt;s4</title>
<path fill="none" stroke="black" d="M287.32,-20.77C297.03,-20.77 308.22,-20.77 318.74,-20.77"/>
<polygon fill="black" stroke="black" points="318.69,-24.27 328.69,-20.77 318.69,-17.27 318.69,-24.27"/>
<text text-anchor="middle" x="308.72" y="-23.22" font-family="Arial" font-size="14.00">c</text>
</g>
<!-- s4&#45;&gt;s3 -->
<g id="edge6" class="edge">
<title>s4&#45;&gt;s3</title>
<path fill="none" stroke="black" d="M330.09,-6.78C324.42,-4.39 318.37,-2.28 312.47,-1.02 307.73,0 302.85,-0.16 298.07,-1.07"/>
<polygon fill="black" stroke="black" points="297.23,2.33 288.67,-3.91 299.25,-4.37 297.23,2.33"/>
<text text-anchor="middle" x="308.72" y="-3.47" font-family="Arial" font-size="14.00">d</text>
</g>
<!-- s5 -->
<g id="node7" class="node">
<title>s5</title>
<path fill="none" stroke="black" d="M469.97,-38.77C469.97,-38.77 439.97,-38.77 439.97,-38.77 433.97,-38.77 427.97,-32.77 427.97,-26.77 427.97,-26.77 427.97,-14.77 427.97,-14.77 427.97,-8.77 433.97,-2.77 439.97,-2.77 439.97,-2.77 469.97,-2.77 469.97,-2.77 475.97,-2.77 481.97,-8.77 481.97,-14.77 481.97,-14.77 481.97,-26.77 481.97,-26.77 481.97,-32.77 475.97,-38.77 469.97,-38.77"/>
<text text-anchor="middle" x="454.97" y="-15.34" font-family="Arial" font-size="14.00">s5</text>
</g>
<!-- s4&#45;&gt;s5 -->
<g id="edge7" class="edge">
<title>s4&#45;&gt;s5</title>
<path fill="none" stroke="black" d="M384.82,-20.77C394.53,-20.77 405.72,-20.77 416.24,-20.77"/>
<polygon fill="black" stroke="black" points="416.19,-24.27 426.19,-20.77 416.19,-17.27 416.19,-24.27"/>
<text text-anchor="middle" x="406.22" y="-23.22" font-family="Arial" font-size="14.00">b</text>
</g>
<!-- s5&#45;&gt;s9 -->
<g id="edge8" class="edge">
<title>s5&#45;&gt;s9</title>
<path fill="none" stroke="black" d="M482.35,-20.77C492.07,-20.77 503.28,-20.77 513.81,-20.77"/>
<polygon fill="black" stroke="black" points="513.78,-24.27 523.78,-20.77 513.78,-17.27 513.78,-24.27"/>
<text text-anchor="middle" x="503.72" y="-23.22" font-family="Arial" font-size="14.00">b</text>
</g>
</g>
</svg>
