<?xml version="1.0" encoding="UTF-8" standalone="no"?>
<!DOCTYPE svg PUBLIC "-//W3C//DTD SVG 1.1//EN"
 "http://www.w3.org/Graphics/SVG/1.1/DTD/svg11.dtd">
<!-- Generated by graphviz version 12.2.1 (20241206.2353)
 -->
<!-- Title: g_nondet Pages: 1 -->
<svg width="397pt" height="284pt"
 viewBox="0.00 0.00 396.72 284.00" xmlns="http://www.w3.org/2000/svg" xmlns:xlink="http://www.w3.org/1999/xlink">
<g id="graph0" class="graph" transform="scale(1 1) rotate(0) translate(4 280)">
<title>g_nondet</title>
<!-- dot_dummyinit_1 -->
<g id="node1" class="node">
<title>dot_dummyinit_1</title>
</g>
<!-- 1 -->
<g id="node2" class="node">
<title>1</title>
<path fill="none" stroke="black" d="M79.72,-215C79.72,-215 49.72,-215 49.72,-215 43.72,-215 37.72,-209 37.72,-203 37.72,-203 37.72,-191 37.72,-191 37.72,-185 43.72,-179 49.72,-179 49.72,-179 79.72,-179 79.72,-179 85.72,-179 91.72,-185 91.72,-191 91.72,-191 91.72,-203 91.72,-203 91.72,-209 85.72,-215 79.72,-215"/>
<text text-anchor="middle" x="64.72" y="-191.57" font-family="Arial" font-size="14.00">1</text>
</g>
<!-- dot_dummyinit_1&#45;&gt;1 -->
<g id="edge1" class="edge">
<title>dot_dummyinit_1&#45;&gt;1</title>
<path fill="none" stroke="black" d="M0.77,-197C1.57,-197 12.96,-197 25.83,-197"/>
<polygon fill="black" stroke="black" points="25.79,-200.5 35.79,-197 25.79,-193.5 25.79,-200.5"/>
</g>
<!-- 2 -->
<g id="node4" class="node">
<title>2</title>
<path fill="none" stroke="black" d="M177.22,-215C177.22,-215 147.22,-215 147.22,-215 141.22,-215 135.22,-209 135.22,-203 135.22,-203 135.22,-191 135.22,-191 135.22,-185 141.22,-179 147.22,-179 147.22,-179 177.22,-179 177.22,-179 183.22,-179 189.22,-185 189.22,-191 189.22,-191 189.22,-203 189.22,-203 189.22,-209 183.22,-215 177.22,-215"/>
<text text-anchor="middle" x="162.22" y="-191.57" font-family="Arial" font-size="14.00">2</text>
</g>
<!-- 1&#45;&gt;2 -->
<g id="edge2" class="edge">
<title>1&#45;&gt;2</title>
<path fill="none" stroke="black" d="M92.07,-197C101.78,-197 112.97,-197 123.49,-197"/>
<polygon fill="black" stroke="black" points="123.44,-200.5 133.44,-197 123.44,-193.5 123.44,-200.5"/>
<text text-anchor="middle" x="113.47" y="-199.45" font-family="Arial" font-size="14.00">a</text>
</g>
<!-- 5 -->
<g id="node6" class="node">
<title>5</title>
<path fill="none" stroke="black" d="M279.22,-273C279.22,-273 249.22,-273 249.22,-273 243.22,-273 237.22,-267 237.22,-261 237.22,-261 237.22,-249 237.22,-249 237.22,-243 243.22,-237 249.22,-237 249.22,-237 279.22,-237 279.22,-237 285.22,-237 291.22,-243 291.22,-249 291.22,-249 291.22,-261 291.22,-261 291.22,-267 285.22,-273 279.22,-273"/>
<text text-anchor="middle" x="264.22" y="-249.57" font-family="Arial" font-size="14.00">5</text>
</g>
<!-- 1&#45;&gt;5 -->
<g id="edge3" class="edge">
<title>1&#45;&gt;5</title>
<path fill="none" stroke="black" d="M92.01,-209.61C97.79,-212.2 103.91,-214.8 109.72,-217 152.11,-233.08 162.98,-237.1 207.22,-247 213.21,-248.34 219.61,-249.5 225.87,-250.5"/>
<polygon fill="black" stroke="black" points="224.96,-253.9 235.36,-251.88 225.97,-246.97 224.96,-253.9"/>
<text text-anchor="middle" x="162.22" y="-245.19" font-family="Arial" font-size="14.00">e</text>
</g>
<!-- 4 -->
<g id="node3" class="node">
<title>4</title>
<path fill="none" stroke="black" d="M376.72,-129C376.72,-129 346.72,-129 346.72,-129 340.72,-129 334.72,-123 334.72,-117 334.72,-117 334.72,-105 334.72,-105 334.72,-99 340.72,-93 346.72,-93 346.72,-93 376.72,-93 376.72,-93 382.72,-93 388.72,-99 388.72,-105 388.72,-105 388.72,-117 388.72,-117 388.72,-123 382.72,-129 376.72,-129"/>
<text text-anchor="start" x="349.97" y="-105.58" font-family="Arial" font-size="14.00">4</text>
<polygon fill="black" stroke="none" points="367.47,-101.12 367.47,-120.88 375.47,-120.88 375.47,-101.12 367.47,-101.12"/>
</g>
<!-- 4&#45;&gt;1 -->
<g id="edge8" class="edge">
<title>4&#45;&gt;1</title>
<path fill="none" stroke="black" d="M334.26,-112.72C293.57,-115.46 219.08,-120.83 207.22,-124.25 169.16,-135.21 129.34,-156.72 101.68,-173.52"/>
<polygon fill="black" stroke="black" points="100.01,-170.43 93.35,-178.67 103.69,-176.39 100.01,-170.43"/>
<text text-anchor="middle" x="213.22" y="-126.7" font-family="Arial" font-size="14.00">e</text>
</g>
<!-- 2&#45;&gt;4 -->
<g id="edge5" class="edge">
<title>2&#45;&gt;4</title>
<path fill="none" stroke="black" d="M189.58,-189.58C220.83,-180.28 274.07,-162.89 316.72,-141 320.01,-139.31 323.35,-137.42 326.63,-135.43"/>
<polygon fill="black" stroke="black" points="328.45,-138.42 334.98,-130.07 324.68,-132.52 328.45,-138.42"/>
<text text-anchor="middle" x="264.22" y="-175.94" font-family="Arial" font-size="14.00">b</text>
</g>
<!-- 3 -->
<g id="node5" class="node">
<title>3</title>
<path fill="none" stroke="black" d="M279.22,-99C279.22,-99 249.22,-99 249.22,-99 243.22,-99 237.22,-93 237.22,-87 237.22,-87 237.22,-75 237.22,-75 237.22,-69 243.22,-63 249.22,-63 249.22,-63 279.22,-63 279.22,-63 285.22,-63 291.22,-69 291.22,-75 291.22,-75 291.22,-87 291.22,-87 291.22,-93 285.22,-99 279.22,-99"/>
<text text-anchor="middle" x="264.22" y="-75.58" font-family="Arial" font-size="14.00">3</text>
</g>
<!-- 2&#45;&gt;3 -->
<g id="edge4" class="edge">
<title>2&#45;&gt;3</title>
<path fill="none" stroke="black" d="M184.69,-178.56C195.56,-168.78 208.65,-156.27 219.22,-144 228.65,-133.06 237.97,-120.1 245.6,-108.79"/>
<polygon fill="black" stroke="black" points="248.39,-110.91 250.98,-100.63 242.55,-107.05 248.39,-110.91"/>
<text text-anchor="middle" x="213.22" y="-158.88" font-family="Arial" font-size="14.00">b</text>
</g>
<!-- 2&#45;&gt;5 -->
<g id="edge6" class="edge">
<title>2&#45;&gt;5</title>
<path fill="none" stroke="black" d="M189.49,-212.24C201,-218.91 214.69,-226.85 227.13,-234.07"/>
<polygon fill="black" stroke="black" points="225.06,-236.91 235.47,-238.9 228.57,-230.86 225.06,-236.91"/>
<text text-anchor="middle" x="213.22" y="-231.92" font-family="Arial" font-size="14.00">f</text>
</g>
<!-- 3&#45;&gt;4 -->
<g id="edge7" class="edge">
<title>3&#45;&gt;4</title>
<path fill="none" stroke="black" d="M291.57,-89.28C301.48,-92.39 312.95,-95.99 323.67,-99.36"/>
<polygon fill="black" stroke="black" points="322.42,-102.64 333.01,-102.3 324.52,-95.96 322.42,-102.64"/>
<text text-anchor="middle" x="312.97" y="-99.35" font-family="Arial" font-size="14.00">d</text>
</g>
<!-- 6 -->
<g id="node7" class="node">
<title>6</title>
<path fill="none" stroke="black" d="M376.72,-276C376.72,-276 346.72,-276 346.72,-276 340.72,-276 334.72,-270 334.72,-264 334.72,-264 334.72,-252 334.72,-252 334.72,-246 340.72,-240 346.72,-240 346.72,-240 376.72,-240 376.72,-240 382.72,-240 388.72,-246 388.72,-252 388.72,-252 388.72,-264 388.72,-264 388.72,-270 382.72,-276 376.72,-276"/>
<text text-anchor="middle" x="361.72" y="-252.57" font-family="Arial" font-size="14.00">6</text>
</g>
<!-- 5&#45;&gt;6 -->
<g id="edge9" class="edge">
<title>5&#45;&gt;6</title>
<path fill="none" stroke="black" d="M291.57,-255.83C301.28,-256.13 312.47,-256.48 322.99,-256.81"/>
<polygon fill="black" stroke="black" points="322.84,-260.31 332.94,-257.13 323.06,-253.32 322.84,-260.31"/>
<text text-anchor="middle" x="312.97" y="-259.04" font-family="Arial" font-size="14.00">g</text>
</g>
<!-- 6&#45;&gt;5 -->
<g id="edge10" class="edge">
<title>6&#45;&gt;5</title>
<path fill="none" stroke="black" d="M334.46,-242.61C328.79,-239.98 322.69,-237.65 316.72,-236.25 312.03,-235.15 307.18,-235.22 302.42,-236.04"/>
<polygon fill="black" stroke="black" points="301.7,-232.61 293.04,-238.7 303.61,-239.34 301.7,-232.61"/>
<text text-anchor="middle" x="312.97" y="-238.7" font-family="Arial" font-size="14.00">h</text>
</g>
<!-- 7 -->
<g id="node8" class="node">
<title>7</title>
<path fill="none" stroke="black" d="M279.22,-40C279.22,-40 249.22,-40 249.22,-40 243.22,-40 237.22,-34 237.22,-28 237.22,-28 237.22,-16 237.22,-16 237.22,-10 243.22,-4 249.22,-4 249.22,-4 279.22,-4 279.22,-4 285.22,-4 291.22,-10 291.22,-16 291.22,-16 291.22,-28 291.22,-28 291.22,-34 285.22,-40 279.22,-40"/>
<text text-anchor="middle" x="264.22" y="-16.57" font-family="Arial" font-size="14.00">7</text>
</g>
<!-- 7&#45;&gt;4 -->
<g id="edge11" class="edge">
<title>7&#45;&gt;4</title>
<path fill="none" stroke="black" d="M285.01,-40.44C298.84,-53.33 317.5,-70.72 332.83,-85.01"/>
<polygon fill="black" stroke="black" points="330.15,-87.29 339.85,-91.55 334.92,-82.17 330.15,-87.29"/>
<text text-anchor="middle" x="312.97" y="-71.62" font-family="Arial" font-size="14.00">a</text>
</g>
<!-- 8 -->
<g id="node9" class="node">
<title>8</title>
<path fill="none" stroke="black" d="M376.72,-36C376.72,-36 346.72,-36 346.72,-36 340.72,-36 334.72,-30 334.72,-24 334.72,-24 334.72,-12 334.72,-12 334.72,-6 340.72,0 346.72,0 346.72,0 376.72,0 376.72,0 382.72,0 388.72,-6 388.72,-12 388.72,-12 388.72,-24 388.72,-24 388.72,-30 382.72,-36 376.72,-36"/>
<text text-anchor="middle" x="361.72" y="-12.57" font-family="Arial" font-size="14.00">8</text>
</g>
<!-- 7&#45;&gt;8 -->
<g id="edge12" class="edge">
<title>7&#45;&gt;8</title>
<path fill="none" stroke="black" d="M291.27,-20.21C297.17,-19.85 303.41,-19.5 309.22,-19.25 313.67,-19.06 318.33,-18.89 322.96,-18.75"/>
<polygon fill="black" stroke="black" points="322.83,-22.26 332.74,-18.49 322.65,-15.26 322.83,-22.26"/>
<text text-anchor="middle" x="312.97" y="-21.7" font-family="Arial" font-size="14.00">i</text>
</g>
<!-- 9 -->
<g id="node10" class="node">
<title>9</title>
<path fill="none" stroke="black" d="M177.22,-60C177.22,-60 147.22,-60 147.22,-60 141.22,-60 135.22,-54 135.22,-48 135.22,-48 135.22,-36 135.22,-36 135.22,-30 141.22,-24 147.22,-24 147.22,-24 177.22,-24 177.22,-24 183.22,-24 189.22,-30 189.22,-36 189.22,-36 189.22,-48 189.22,-48 189.22,-54 183.22,-60 177.22,-60"/>
<text text-anchor="middle" x="162.22" y="-36.58" font-family="Arial" font-size="14.00">9</text>
</g>
<!-- 7&#45;&gt;9 -->
<g id="edge13" class="edge">
<title>7&#45;&gt;9</title>
<path fill="none" stroke="black" d="M236.83,-6.31C227.42,-2.64 216.78,-0.71 207.22,-4.25 199.99,-6.93 193.15,-11.38 187.11,-16.31"/>
<polygon fill="black" stroke="black" points="185.1,-13.41 180.01,-22.7 189.78,-18.61 185.1,-13.41"/>
<text text-anchor="middle" x="213.22" y="-6.7" font-family="Arial" font-size="14.00">j</text>
</g>
<!-- 9&#45;&gt;3 -->
<g id="edge14" class="edge">
<title>9&#45;&gt;3</title>
<path fill="none" stroke="black" d="M189.49,-52.25C200.77,-56.65 214.15,-61.86 226.39,-66.64"/>
<polygon fill="black" stroke="black" points="224.78,-69.76 235.36,-70.14 227.32,-63.24 224.78,-69.76"/>
<text text-anchor="middle" x="213.22" y="-66.29" font-family="Arial" font-size="14.00">m</text>
</g>
<!-- 9&#45;&gt;7 -->
<g id="edge15" class="edge">
<title>9&#45;&gt;7</title>
<path fill="none" stroke="black" d="M189.49,-36.75C200.54,-34.54 213.61,-31.92 225.65,-29.51"/>
<polygon fill="black" stroke="black" points="226.17,-32.98 235.29,-27.59 224.8,-26.12 226.17,-32.98"/>
<text text-anchor="middle" x="213.22" y="-35.65" font-family="Arial" font-size="14.00">k</text>
</g>
</g>
</svg>
