<?xml version="1.0" encoding="UTF-8" standalone="no"?>
<!DOCTYPE svg PUBLIC "-//W3C//DTD SVG 1.1//EN"
 "http://www.w3.org/Graphics/SVG/1.1/DTD/svg11.dtd">
<!-- Generated by graphviz version 12.2.1 (20241206.2353)
 -->
<!-- Title: languagedifference_g1 Pages: 1 -->
<svg width="340pt" height="92pt"
 viewBox="0.00 0.00 340.47 92.00" xmlns="http://www.w3.org/2000/svg" xmlns:xlink="http://www.w3.org/1999/xlink">
<g id="graph0" class="graph" transform="scale(1 1) rotate(0) translate(4 88)">
<title>languagedifference_g1</title>
<!-- dot_dummyinit_1 -->
<g id="node1" class="node">
<title>dot_dummyinit_1</title>
</g>
<!-- 1 -->
<g id="node2" class="node">
<title>1</title>
<ellipse fill="none" stroke="black" cx="59.72" cy="-22" rx="18" ry="18"/>
<ellipse fill="none" stroke="black" cx="59.72" cy="-22" rx="22" ry="22"/>
<text text-anchor="middle" x="59.72" y="-16.57" font-family="Arial" font-size="14.00">1</text>
</g>
<!-- dot_dummyinit_1&#45;&gt;1 -->
<g id="edge1" class="edge">
<title>dot_dummyinit_1&#45;&gt;1</title>
<path fill="none" stroke="black" d="M0.89,-22C2.38,-22 13.74,-22 26,-22"/>
<polygon fill="black" stroke="black" points="25.74,-25.5 35.74,-22 25.74,-18.5 25.74,-25.5"/>
</g>
<!-- 2 -->
<g id="node3" class="node">
<title>2</title>
<ellipse fill="none" stroke="black" cx="147.22" cy="-62" rx="18" ry="18"/>
<ellipse fill="none" stroke="black" cx="147.22" cy="-62" rx="22" ry="22"/>
<text text-anchor="middle" x="147.22" y="-56.58" font-family="Arial" font-size="14.00">2</text>
</g>
<!-- 1&#45;&gt;2 -->
<g id="edge2" class="edge">
<title>1&#45;&gt;2</title>
<path fill="none" stroke="black" d="M80.12,-31.08C90.94,-36.14 104.65,-42.55 116.77,-48.22"/>
<polygon fill="black" stroke="black" points="114.98,-51.25 125.52,-52.32 117.95,-44.91 114.98,-51.25"/>
<text text-anchor="middle" x="103.47" y="-45.65" font-family="Arial" font-size="14.00">a</text>
</g>
<!-- 3 -->
<g id="node5" class="node">
<title>3</title>
<ellipse fill="none" stroke="black" cx="230.72" cy="-22" rx="18" ry="18"/>
<text text-anchor="middle" x="230.72" y="-16.57" font-family="Arial" font-size="14.00">3</text>
</g>
<!-- 2&#45;&gt;3 -->
<g id="edge3" class="edge">
<title>2&#45;&gt;3</title>
<path fill="none" stroke="black" d="M167.53,-52.52C178.42,-47.18 192.15,-40.44 203.95,-34.65"/>
<polygon fill="black" stroke="black" points="205.3,-37.89 212.73,-30.34 202.21,-31.6 205.3,-37.89"/>
<text text-anchor="middle" x="190.97" y="-44.45" font-family="Arial" font-size="14.00">b</text>
</g>
<!-- 4 -->
<g id="node4" class="node">
<title>4</title>
<ellipse fill="none" stroke="black" cx="310.47" cy="-22" rx="18" ry="18"/>
<ellipse fill="none" stroke="black" cx="310.47" cy="-22" rx="22" ry="22"/>
<text text-anchor="middle" x="310.47" y="-16.57" font-family="Arial" font-size="14.00">4</text>
</g>
<!-- 3&#45;&gt;1 -->
<g id="edge5" class="edge">
<title>3&#45;&gt;1</title>
<path fill="none" stroke="black" d="M212.55,-19.57C200.46,-17.99 183.89,-16.07 169.22,-15.25 149.69,-14.16 144.75,-14.23 125.22,-15.25 114.79,-15.79 103.46,-16.83 93.24,-17.93"/>
<polygon fill="black" stroke="black" points="92.93,-14.44 83.39,-19.05 93.72,-21.4 92.93,-14.44"/>
<text text-anchor="middle" x="147.22" y="-17.7" font-family="Arial" font-size="14.00">c</text>
</g>
<!-- 3&#45;&gt;4 -->
<g id="edge4" class="edge">
<title>3&#45;&gt;4</title>
<path fill="none" stroke="black" d="M248.98,-22C257.18,-22 267.27,-22 276.84,-22"/>
<polygon fill="black" stroke="black" points="276.59,-25.5 286.59,-22 276.59,-18.5 276.59,-25.5"/>
<text text-anchor="middle" x="268.6" y="-24.45" font-family="Arial" font-size="14.00">f</text>
</g>
</g>
</svg>
