<?xml version="1.0" encoding="UTF-8" standalone="no"?>
<!DOCTYPE svg PUBLIC "-//W3C//DTD SVG 1.1//EN"
 "http://www.w3.org/Graphics/SVG/1.1/DTD/svg11.dtd">
<!-- Generated by graphviz version 12.2.1 (20241206.2353)
 -->
<!-- Title: Automaton(g1) Pages: 1 -->
<svg width="437pt" height="180pt"
 viewBox="0.00 0.00 437.22 180.00" xmlns="http://www.w3.org/2000/svg" xmlns:xlink="http://www.w3.org/1999/xlink">
<g id="graph0" class="graph" transform="scale(1 1) rotate(0) translate(4 176)">
<title>Automaton(g1)</title>
<!-- dot_dummyinit_1 -->
<g id="node1" class="node">
<title>dot_dummyinit_1</title>
</g>
<!-- 1 -->
<g id="node2" class="node">
<title>1</title>
<path fill="none" stroke="black" d="M79.72,-36C79.72,-36 49.72,-36 49.72,-36 43.72,-36 37.72,-30 37.72,-24 37.72,-24 37.72,-12 37.72,-12 37.72,-6 43.72,0 49.72,0 49.72,0 79.72,0 79.72,0 85.72,0 91.72,-6 91.72,-12 91.72,-12 91.72,-24 91.72,-24 91.72,-30 85.72,-36 79.72,-36"/>
<text text-anchor="middle" x="64.72" y="-12.57" font-family="Arial" font-size="14.00">1</text>
</g>
<!-- dot_dummyinit_1&#45;&gt;1 -->
<g id="edge1" class="edge">
<title>dot_dummyinit_1&#45;&gt;1</title>
<path fill="none" stroke="black" d="M0.77,-18C1.57,-18 12.96,-18 25.83,-18"/>
<polygon fill="black" stroke="black" points="25.79,-21.5 35.79,-18 25.79,-14.5 25.79,-21.5"/>
</g>
<!-- 2 -->
<g id="node4" class="node">
<title>2</title>
<path fill="none" stroke="black" d="M177.22,-82C177.22,-82 147.22,-82 147.22,-82 141.22,-82 135.22,-76 135.22,-70 135.22,-70 135.22,-58 135.22,-58 135.22,-52 141.22,-46 147.22,-46 147.22,-46 177.22,-46 177.22,-46 183.22,-46 189.22,-52 189.22,-58 189.22,-58 189.22,-70 189.22,-70 189.22,-76 183.22,-82 177.22,-82"/>
<text text-anchor="middle" x="162.22" y="-58.58" font-family="Arial" font-size="14.00">2</text>
</g>
<!-- 1&#45;&gt;2 -->
<g id="edge2" class="edge">
<title>1&#45;&gt;2</title>
<path fill="none" stroke="black" d="M92.07,-30.69C102.19,-35.57 113.94,-41.23 124.84,-46.48"/>
<polygon fill="black" stroke="black" points="123.07,-49.51 133.59,-50.69 126.1,-43.2 123.07,-49.51"/>
<text text-anchor="middle" x="113.47" y="-44.83" font-family="Arial" font-size="14.00">d</text>
</g>
<!-- dump -->
<g id="node6" class="node">
<title>dump</title>
<path fill="none" stroke="black" d="M417.22,-87C417.22,-87 387.22,-87 387.22,-87 381.22,-87 375.22,-81 375.22,-75 375.22,-75 375.22,-63 375.22,-63 375.22,-57 381.22,-51 387.22,-51 387.22,-51 417.22,-51 417.22,-51 423.22,-51 429.22,-57 429.22,-63 429.22,-63 429.22,-75 429.22,-75 429.22,-81 423.22,-87 417.22,-87"/>
<text text-anchor="middle" x="402.22" y="-63.58" font-family="Arial" font-size="14.00">dump</text>
</g>
<!-- 1&#45;&gt;dump -->
<g id="edge3" class="edge">
<title>1&#45;&gt;dump</title>
<path fill="none" stroke="black" d="M92.13,-19.7C143.64,-23.37 260.87,-33.52 357.22,-55 359.48,-55.5 361.79,-56.07 364.12,-56.69"/>
<polygon fill="black" stroke="black" points="362.87,-59.97 373.45,-59.37 364.81,-53.24 362.87,-59.97"/>
<text text-anchor="middle" x="218.47" y="-35.74" font-family="Arial" font-size="14.00">a, u</text>
</g>
<!-- 3 -->
<g id="node3" class="node">
<title>3</title>
<path fill="none" stroke="black" d="M289.72,-172C289.72,-172 259.72,-172 259.72,-172 253.72,-172 247.72,-166 247.72,-160 247.72,-160 247.72,-148 247.72,-148 247.72,-142 253.72,-136 259.72,-136 259.72,-136 289.72,-136 289.72,-136 295.72,-136 301.72,-142 301.72,-148 301.72,-148 301.72,-160 301.72,-160 301.72,-166 295.72,-172 289.72,-172"/>
<text text-anchor="start" x="262.97" y="-148.57" font-family="Arial" font-size="14.00">3</text>
<polygon fill="black" stroke="none" points="280.47,-144.12 280.47,-163.88 288.47,-163.88 288.47,-144.12 280.47,-144.12"/>
</g>
<!-- 3&#45;&gt;dump -->
<g id="edge7" class="edge">
<title>3&#45;&gt;dump</title>
<path fill="none" stroke="black" d="M301.98,-141.48C318.42,-133.17 339.74,-121.51 357.22,-109 363.17,-104.74 369.2,-99.78 374.8,-94.82"/>
<polygon fill="black" stroke="black" points="377.06,-97.5 382.08,-88.16 372.34,-92.33 377.06,-97.5"/>
<text text-anchor="middle" x="338.47" y="-134.22" font-family="Arial" font-size="14.00">a, d, u</text>
</g>
<!-- 2&#45;&gt;3 -->
<g id="edge4" class="edge">
<title>2&#45;&gt;3</title>
<path fill="none" stroke="black" d="M182.06,-82.45C189.69,-89.69 198.7,-97.93 207.22,-105 217.02,-113.13 228.03,-121.52 238.22,-129.01"/>
<polygon fill="black" stroke="black" points="235.92,-131.66 246.07,-134.71 240.03,-126 235.92,-131.66"/>
<text text-anchor="middle" x="218.47" y="-124.31" font-family="Arial" font-size="14.00">u</text>
</g>
<!-- 4 -->
<g id="node5" class="node">
<title>4</title>
<path fill="none" stroke="black" d="M289.72,-118C289.72,-118 259.72,-118 259.72,-118 253.72,-118 247.72,-112 247.72,-106 247.72,-106 247.72,-94 247.72,-94 247.72,-88 253.72,-82 259.72,-82 259.72,-82 289.72,-82 289.72,-82 295.72,-82 301.72,-88 301.72,-94 301.72,-94 301.72,-106 301.72,-106 301.72,-112 295.72,-118 289.72,-118"/>
<text text-anchor="middle" x="274.72" y="-94.58" font-family="Arial" font-size="14.00">4</text>
</g>
<!-- 2&#45;&gt;4 -->
<g id="edge5" class="edge">
<title>2&#45;&gt;4</title>
<path fill="none" stroke="black" d="M189.69,-72.62C203.77,-77.21 221.3,-82.92 236.71,-87.94"/>
<polygon fill="black" stroke="black" points="235.44,-91.21 246.03,-90.98 237.61,-84.55 235.44,-91.21"/>
<text text-anchor="middle" x="218.47" y="-87.67" font-family="Arial" font-size="14.00">a</text>
</g>
<!-- 2&#45;&gt;dump -->
<g id="edge6" class="edge">
<title>2&#45;&gt;dump</title>
<path fill="none" stroke="black" d="M189.45,-61.36C206.12,-59.82 228.16,-58.03 247.72,-57.25 271.7,-56.29 277.76,-55.84 301.72,-57.25 322.33,-58.46 345.22,-61.08 363.84,-63.53"/>
<polygon fill="black" stroke="black" points="363.23,-66.98 373.61,-64.86 364.17,-60.04 363.23,-66.98"/>
<text text-anchor="middle" x="274.72" y="-59.7" font-family="Arial" font-size="14.00">d</text>
</g>
<!-- 4&#45;&gt;dump -->
<g id="edge8" class="edge">
<title>4&#45;&gt;dump</title>
<path fill="none" stroke="black" d="M302.03,-93.5C319.93,-89.08 343.9,-83.16 363.78,-78.25"/>
<polygon fill="black" stroke="black" points="364.61,-81.65 373.48,-75.85 362.93,-74.85 364.61,-81.65"/>
<text text-anchor="middle" x="338.47" y="-91.54" font-family="Arial" font-size="14.00">a, d, u</text>
</g>
<!-- dump&#45;&gt;dump -->
<g id="edge9" class="edge">
<title>dump&#45;&gt;dump</title>
<path fill="none" stroke="black" d="M390.69,-87.15C388.91,-96.54 392.76,-105 402.22,-105 407.54,-105 411.09,-102.32 412.86,-98.31"/>
<polygon fill="black" stroke="black" points="416.32,-98.91 413.63,-88.66 409.34,-98.35 416.32,-98.91"/>
<text text-anchor="middle" x="402.22" y="-107.45" font-family="Arial" font-size="14.00">a, d, u</text>
</g>
</g>
</svg>
