<?xml version="1.0" encoding="UTF-8" standalone="no"?>
<!DOCTYPE svg PUBLIC "-//W3C//DTD SVG 1.1//EN"
 "http://www.w3.org/Graphics/SVG/1.1/DTD/svg11.dtd">
<!-- Generated by graphviz version 12.2.1 (20241206.2353)
 -->
<!-- Title: FullLanguage(NameSet) Pages: 1 -->
<svg width="90pt" height="120pt"
 viewBox="0.00 0.00 89.72 119.50" xmlns="http://www.w3.org/2000/svg" xmlns:xlink="http://www.w3.org/1999/xlink">
<g id="graph0" class="graph" transform="scale(1 1) rotate(0) translate(4 115.5)">
<title>FullLanguage(NameSet)</title>
<!-- dot_dummyinit_1 -->
<g id="node1" class="node">
<title>dot_dummyinit_1</title>
</g>
<!-- 1 -->
<g id="node2" class="node">
<title>1</title>
<ellipse fill="none" stroke="black" cx="59.72" cy="-22" rx="18" ry="18"/>
<ellipse fill="none" stroke="black" cx="59.72" cy="-22" rx="22" ry="22"/>
<text text-anchor="middle" x="59.72" y="-16.57" font-family="Arial" font-size="14.00">1</text>
</g>
<!-- dot_dummyinit_1&#45;&gt;1 -->
<g id="edge1" class="edge">
<title>dot_dummyinit_1&#45;&gt;1</title>
<path fill="none" stroke="black" d="M0.89,-22C2.38,-22 13.74,-22 26,-22"/>
<polygon fill="black" stroke="black" points="25.74,-25.5 35.74,-22 25.74,-18.5 25.74,-25.5"/>
</g>
<!-- 1&#45;&gt;1 -->
<g id="edge2" class="edge">
<title>1&#45;&gt;1</title>
<path fill="none" stroke="black" d="M55.98,-43.81C55.63,-53.56 56.87,-62 59.72,-62 61.32,-62 62.42,-59.33 63,-55.26"/>
<polygon fill="black" stroke="black" points="66.5,-55.45 63.4,-45.32 59.51,-55.17 66.5,-55.45"/>
<text text-anchor="middle" x="59.72" y="-64.45" font-family="Arial" font-size="14.00">a</text>
</g>
<!-- 1&#45;&gt;1 -->
<g id="edge3" class="edge">
<title>1&#45;&gt;1</title>
<path fill="none" stroke="black" d="M53.28,-43.42C50.53,-61.31 52.68,-80 59.72,-80 65.28,-80 67.78,-68.36 67.24,-54.66"/>
<polygon fill="black" stroke="black" points="70.75,-54.54 66.3,-44.92 63.78,-55.21 70.75,-54.54"/>
<text text-anchor="middle" x="59.72" y="-82.45" font-family="Arial" font-size="14.00">b</text>
</g>
</g>
</svg>
