<?xml version="1.0" encoding="UTF-8" standalone="no"?>
<!DOCTYPE svg PUBLIC "-//W3C//DTD SVG 1.1//EN"
 "http://www.w3.org/Graphics/SVG/1.1/DTD/svg11.dtd">
<!-- Generated by graphviz version 12.2.1 (20241206.2353)
 -->
<!-- Title: Automaton(g1) Pages: 1 -->
<svg width="392pt" height="238pt"
 viewBox="0.00 0.00 392.22 238.25" xmlns="http://www.w3.org/2000/svg" xmlns:xlink="http://www.w3.org/1999/xlink">
<g id="graph0" class="graph" transform="scale(1 1) rotate(0) translate(4 234.25)">
<title>Automaton(g1)</title>
<!-- dot_dummyinit_1 -->
<g id="node1" class="node">
<title>dot_dummyinit_1</title>
</g>
<!-- 1 -->
<g id="node2" class="node">
<title>1</title>
<path fill="none" stroke="black" d="M79.72,-36C79.72,-36 49.72,-36 49.72,-36 43.72,-36 37.72,-30 37.72,-24 37.72,-24 37.72,-12 37.72,-12 37.72,-6 43.72,0 49.72,0 49.72,0 79.72,0 79.72,0 85.72,0 91.72,-6 91.72,-12 91.72,-12 91.72,-24 91.72,-24 91.72,-30 85.72,-36 79.72,-36"/>
<text text-anchor="middle" x="64.72" y="-12.57" font-family="Arial" font-size="14.00">1</text>
</g>
<!-- dot_dummyinit_1&#45;&gt;1 -->
<g id="edge1" class="edge">
<title>dot_dummyinit_1&#45;&gt;1</title>
<path fill="none" stroke="black" d="M0.77,-18C1.57,-18 12.96,-18 25.83,-18"/>
<polygon fill="black" stroke="black" points="25.79,-21.5 35.79,-18 25.79,-14.5 25.79,-21.5"/>
</g>
<!-- 2 -->
<g id="node4" class="node">
<title>2</title>
<path fill="none" stroke="black" d="M177.22,-108C177.22,-108 147.22,-108 147.22,-108 141.22,-108 135.22,-102 135.22,-96 135.22,-96 135.22,-84 135.22,-84 135.22,-78 141.22,-72 147.22,-72 147.22,-72 177.22,-72 177.22,-72 183.22,-72 189.22,-78 189.22,-84 189.22,-84 189.22,-96 189.22,-96 189.22,-102 183.22,-108 177.22,-108"/>
<text text-anchor="middle" x="162.22" y="-84.58" font-family="Arial" font-size="14.00">2</text>
</g>
<!-- 1&#45;&gt;2 -->
<g id="edge3" class="edge">
<title>1&#45;&gt;2</title>
<path fill="none" stroke="black" d="M89.82,-36.17C101.27,-44.8 115.14,-55.26 127.61,-64.66"/>
<polygon fill="black" stroke="black" points="125.5,-67.45 135.59,-70.68 129.71,-61.86 125.5,-67.45"/>
<text text-anchor="middle" x="113.47" y="-58.61" font-family="Arial" font-size="14.00">d</text>
</g>
<!-- dump -->
<g id="node5" class="node">
<title>dump</title>
<path fill="none" stroke="black" d="M372.22,-129C372.22,-129 342.22,-129 342.22,-129 336.22,-129 330.22,-123 330.22,-117 330.22,-117 330.22,-105 330.22,-105 330.22,-99 336.22,-93 342.22,-93 342.22,-93 372.22,-93 372.22,-93 378.22,-93 384.22,-99 384.22,-105 384.22,-105 384.22,-117 384.22,-117 384.22,-123 378.22,-129 372.22,-129"/>
<text text-anchor="middle" x="357.22" y="-105.58" font-family="Arial" font-size="14.00">dump</text>
</g>
<!-- 1&#45;&gt;dump -->
<g id="edge2" class="edge">
<title>1&#45;&gt;dump</title>
<path fill="none" stroke="black" d="M92.15,-23.41C133.84,-32.15 217.29,-50.48 286.72,-71 298.25,-74.41 301.54,-74.49 312.22,-80 315.93,-81.91 319.68,-84.1 323.34,-86.41"/>
<polygon fill="black" stroke="black" points="321.25,-89.22 331.51,-91.86 325.13,-83.4 321.25,-89.22"/>
<text text-anchor="middle" x="210.97" y="-53.38" font-family="Arial" font-size="14.00">a</text>
</g>
<!-- 1&#45;&gt;dump -->
<g id="edge4" class="edge">
<title>1&#45;&gt;dump</title>
<path fill="none" stroke="black" d="M91.97,-16.6C135.24,-15.43 223.05,-17.95 286.72,-52 302.82,-60.61 318.53,-73.45 330.92,-84.95"/>
<polygon fill="black" stroke="black" points="328.2,-87.19 337.85,-91.58 333.05,-82.13 328.2,-87.19"/>
<text text-anchor="middle" x="210.97" y="-29.12" font-family="Arial" font-size="14.00">u</text>
</g>
<!-- 3 -->
<g id="node3" class="node">
<title>3</title>
<path fill="none" stroke="black" d="M274.72,-196C274.72,-196 244.72,-196 244.72,-196 238.72,-196 232.72,-190 232.72,-184 232.72,-184 232.72,-172 232.72,-172 232.72,-166 238.72,-160 244.72,-160 244.72,-160 274.72,-160 274.72,-160 280.72,-160 286.72,-166 286.72,-172 286.72,-172 286.72,-184 286.72,-184 286.72,-190 280.72,-196 274.72,-196"/>
<text text-anchor="start" x="247.97" y="-172.57" font-family="Arial" font-size="14.00">3</text>
<polygon fill="black" stroke="none" points="265.47,-168.12 265.47,-187.88 273.47,-187.88 273.47,-168.12 265.47,-168.12"/>
</g>
<!-- 3&#45;&gt;dump -->
<g id="edge8" class="edge">
<title>3&#45;&gt;dump</title>
<path fill="none" stroke="black" d="M282.24,-196.35C291.76,-202.19 302.89,-205.8 312.22,-200 333.12,-187.02 344.4,-160.83 350.28,-140.21"/>
<polygon fill="black" stroke="black" points="353.65,-141.17 352.71,-130.62 346.86,-139.45 353.65,-141.17"/>
<text text-anchor="middle" x="308.47" y="-205.03" font-family="Arial" font-size="14.00">a</text>
</g>
<!-- 3&#45;&gt;dump -->
<g id="edge9" class="edge">
<title>3&#45;&gt;dump</title>
<path fill="none" stroke="black" d="M287.09,-172.22C295.55,-169.62 304.68,-165.98 312.22,-161 321.43,-154.91 329.89,-146.41 336.88,-138.15"/>
<polygon fill="black" stroke="black" points="339.42,-140.58 342.91,-130.57 333.94,-136.22 339.42,-140.58"/>
<text text-anchor="middle" x="308.47" y="-167.16" font-family="Arial" font-size="14.00">d</text>
</g>
<!-- 3&#45;&gt;dump -->
<g id="edge10" class="edge">
<title>3&#45;&gt;dump</title>
<path fill="none" stroke="black" d="M281.2,-159.7C288.43,-153.57 296.74,-146.87 304.72,-141.25 309.52,-137.87 314.73,-134.5 319.91,-131.31"/>
<polygon fill="black" stroke="black" points="321.67,-134.33 328.46,-126.2 318.08,-128.32 321.67,-134.33"/>
<text text-anchor="middle" x="308.47" y="-143.7" font-family="Arial" font-size="14.00">u</text>
</g>
<!-- 2&#45;&gt;3 -->
<g id="edge7" class="edge">
<title>2&#45;&gt;3</title>
<path fill="none" stroke="black" d="M183.01,-108.23C196.84,-120.98 215.5,-138.17 230.83,-152.3"/>
<polygon fill="black" stroke="black" points="228.12,-154.56 237.84,-158.76 232.86,-149.41 228.12,-154.56"/>
<text text-anchor="middle" x="210.97" y="-139.09" font-family="Arial" font-size="14.00">u</text>
</g>
<!-- 2&#45;&gt;dump -->
<g id="edge5" class="edge">
<title>2&#45;&gt;dump</title>
<path fill="none" stroke="black" d="M189.65,-92.88C223.05,-96.51 280.75,-102.79 318.7,-106.92"/>
<polygon fill="black" stroke="black" points="317.97,-110.36 328.29,-107.96 318.73,-103.4 317.97,-110.36"/>
<text text-anchor="middle" x="259.72" y="-105.72" font-family="Arial" font-size="14.00">a</text>
</g>
<!-- 2&#45;&gt;dump -->
<g id="edge6" class="edge">
<title>2&#45;&gt;dump</title>
<path fill="none" stroke="black" d="M189.54,-82.77C214.75,-76.96 253.72,-70.86 286.72,-78.25 297.83,-80.74 309.26,-85.21 319.55,-90.06"/>
<polygon fill="black" stroke="black" points="317.95,-93.17 328.46,-94.51 321.08,-86.91 317.95,-93.17"/>
<text text-anchor="middle" x="259.72" y="-80.7" font-family="Arial" font-size="14.00">d</text>
</g>
<!-- dump&#45;&gt;dump -->
<g id="edge11" class="edge">
<title>dump&#45;&gt;dump</title>
<path fill="none" stroke="black" d="M354.28,-129.15C353.83,-138.54 354.81,-147 357.22,-147 358.54,-147 359.43,-144.47 359.89,-140.64"/>
<polygon fill="black" stroke="black" points="363.39,-140.74 360.12,-130.67 356.39,-140.58 363.39,-140.74"/>
<text text-anchor="middle" x="357.22" y="-149.45" font-family="Arial" font-size="14.00">a</text>
</g>
<!-- dump&#45;&gt;dump -->
<g id="edge12" class="edge">
<title>dump&#45;&gt;dump</title>
<path fill="none" stroke="black" d="M352.29,-129.26C349.74,-146.4 351.38,-165 357.22,-165 361.78,-165 363.78,-153.65 363.22,-140.51"/>
<polygon fill="black" stroke="black" points="366.73,-140.39 362.29,-130.76 359.76,-141.05 366.73,-140.39"/>
<text text-anchor="middle" x="357.22" y="-167.45" font-family="Arial" font-size="14.00">d</text>
</g>
<!-- dump&#45;&gt;dump -->
<g id="edge13" class="edge">
<title>dump&#45;&gt;dump</title>
<path fill="none" stroke="black" d="M350.97,-129.44C345.62,-153.7 347.7,-183 357.22,-183 365.29,-183 368.02,-161.95 365.4,-140.76"/>
<polygon fill="black" stroke="black" points="368.85,-140.2 363.72,-130.93 361.95,-141.38 368.85,-140.2"/>
<text text-anchor="middle" x="357.22" y="-185.45" font-family="Arial" font-size="14.00">u</text>
</g>
</g>
</svg>
