<?xml version="1.0" encoding="UTF-8" standalone="no"?>
<!DOCTYPE svg PUBLIC "-//W3C//DTD SVG 1.0//EN"
 "http://www.w3.org/TR/2001/REC-SVG-20010904/DTD/svg10.dtd" [
 <!ATTLIST svg xmlns:xlink CDATA #FIXED "http://www.w3.org/1999/xlink">
]>
<!-- Generated by Graphviz version 2.20.2 (Tue Mar &#160;2 21:46:26 UTC 2010)
     For user: (mtmoor) Prof. Thomas Moor -->
<!-- Title: Automaton(g1) Pages: 1 -->
<svg width="374pt" height="263pt"
 viewBox="0.00 0.00 374.00 263.00" xmlns="http://www.w3.org/2000/svg" xmlns:xlink="http://www.w3.org/1999/xlink">
<g id="graph0" class="graph" transform="scale(1 1) rotate(0) translate(4 259)">
<title>Automaton(g1)</title>
<polygon style="fill:none;stroke:none;" points="-4,4 -4,-259 370,-259 370,4 -4,4"/>
<!-- dot_dummyinit_1 -->
<g id="node1" class="node"><title>dot_dummyinit_1</title>
</g>
<!-- 1 -->
<g id="node3" class="node"><title>1</title>
<ellipse style="fill:none;stroke:black;" cx="58" cy="-18" rx="18" ry="18"/>
<text text-anchor="middle" x="58" y="-13.9" style="font-family:Times New Roman;font-size:14.00;">1</text>
</g>
<!-- dot_dummyinit_1&#45;&gt;1 -->
<g id="edge2" class="edge"><title>dot_dummyinit_1&#45;&gt;1</title>
<path style="fill:none;stroke:black;" d="M2,-18C6,-18 18,-18 30,-18"/>
<polygon style="fill:black;stroke:black;" points="30,-21.5001 40,-18 30,-14.5001 30,-21.5001"/>
</g>
<!-- 2 -->
<g id="node5" class="node"><title>2</title>
<ellipse style="fill:none;stroke:black;" cx="138" cy="-90" rx="18" ry="18"/>
<text text-anchor="middle" x="138" y="-85.9" style="font-family:Times New Roman;font-size:14.00;">2</text>
</g>
<!-- 1&#45;&gt;2 -->
<g id="edge6" class="edge"><title>1&#45;&gt;2</title>
<path style="fill:none;stroke:black;" d="M72,-30C84,-42 103,-59 117,-71"/>
<polygon style="fill:black;stroke:black;" points="115.169,-74.0489 125,-78 119.779,-68.7809 115.169,-74.0489"/>
<text text-anchor="middle" x="98" y="-58.9" style="font-family:Times New Roman;font-size:14.00;">d</text>
</g>
<!-- dump -->
<g id="node6" class="node"><title>dump</title>
<ellipse style="fill:none;stroke:black;" cx="329" cy="-113" rx="37.0233" ry="37.0233"/>
<text text-anchor="middle" x="329" y="-108.9" style="font-family:Times New Roman;font-size:14.00;">dump</text>
</g>
<!-- 1&#45;&gt;dump -->
<g id="edge4" class="edge"><title>1&#45;&gt;dump</title>
<path style="fill:none;stroke:black;" d="M76,-20C114,-26 205,-42 274,-74 280,-77 286,-80 291,-83"/>
<polygon style="fill:black;stroke:black;" points="289.738,-86.3651 300,-89 293.621,-80.5408 289.738,-86.3651"/>
<text text-anchor="middle" x="179" y="-43.9" style="font-family:Times New Roman;font-size:14.00;">a</text>
</g>
<!-- 1&#45;&gt;dump -->
<g id="edge8" class="edge"><title>1&#45;&gt;dump</title>
<path style="fill:none;stroke:black;" d="M76,-16C101,-13 147,-9 184,-17 229,-25 240,-35 274,-64 280,-70 287,-76 294,-81"/>
<polygon style="fill:black;stroke:black;" points="292.169,-84.0489 302,-88 296.779,-78.7809 292.169,-84.0489"/>
<text text-anchor="middle" x="179" y="-20.9" style="font-family:Times New Roman;font-size:14.00;">u</text>
</g>
<!-- 3 -->
<g id="node4" class="node"><title>3</title>
<ellipse style="fill:none;stroke:black;" cx="224" cy="-182" rx="18" ry="18"/>
<ellipse style="fill:none;stroke:black;" cx="224" cy="-182" rx="22" ry="22"/>
<text text-anchor="middle" x="224" y="-177.9" style="font-family:Times New Roman;font-size:14.00;">3</text>
</g>
<!-- 3&#45;&gt;dump -->
<g id="edge16" class="edge"><title>3&#45;&gt;dump</title>
<path style="fill:none;stroke:black;" d="M241,-197C251,-204 263,-210 274,-204 292,-194 305,-176 314,-158"/>
<polygon style="fill:black;stroke:black;" points="317.137,-159.56 318,-149 310.74,-156.717 317.137,-159.56"/>
<text text-anchor="middle" x="269" y="-208.9" style="font-family:Times New Roman;font-size:14.00;">a</text>
</g>
<!-- 3&#45;&gt;dump -->
<g id="edge18" class="edge"><title>3&#45;&gt;dump</title>
<path style="fill:none;stroke:black;" d="M245,-176C255,-173 265,-169 274,-164 282,-159 290,-153 297,-147"/>
<polygon style="fill:black;stroke:black;" points="299.404,-149.546 304,-140 294.454,-144.596 299.404,-149.546"/>
<text text-anchor="middle" x="269" y="-171.9" style="font-family:Times New Roman;font-size:14.00;">d</text>
</g>
<!-- 3&#45;&gt;dump -->
<g id="edge20" class="edge"><title>3&#45;&gt;dump</title>
<path style="fill:none;stroke:black;" d="M239,-165C246,-158 255,-149 264,-143 270,-138 278,-134 285,-131"/>
<polygon style="fill:black;stroke:black;" points="286.958,-133.916 294,-126 283.559,-127.797 286.958,-133.916"/>
<text text-anchor="middle" x="269" y="-146.9" style="font-family:Times New Roman;font-size:14.00;">u</text>
</g>
<!-- 2&#45;&gt;3 -->
<g id="edge14" class="edge"><title>2&#45;&gt;3</title>
<path style="fill:none;stroke:black;" d="M150,-104C157,-112 166,-122 174,-131 183,-140 192,-150 201,-159"/>
<polygon style="fill:black;stroke:black;" points="198.454,-161.404 208,-166 203.404,-156.454 198.454,-161.404"/>
<text text-anchor="middle" x="179" y="-141.9" style="font-family:Times New Roman;font-size:14.00;">u</text>
</g>
<!-- 2&#45;&gt;dump -->
<g id="edge10" class="edge"><title>2&#45;&gt;dump</title>
<path style="fill:none;stroke:black;" d="M156,-92C185,-96 241,-103 282,-108"/>
<polygon style="fill:black;stroke:black;" points="281.701,-111.488 292,-109 282.398,-104.522 281.701,-111.488"/>
<text text-anchor="middle" x="224" y="-104.9" style="font-family:Times New Roman;font-size:14.00;">a</text>
</g>
<!-- 2&#45;&gt;dump -->
<g id="edge12" class="edge"><title>2&#45;&gt;dump</title>
<path style="fill:none;stroke:black;" d="M155,-84C177,-77 214,-68 246,-75 260,-78 275,-83 288,-89"/>
<polygon style="fill:black;stroke:black;" points="286.559,-92.2031 297,-94 289.958,-86.084 286.559,-92.2031"/>
<text text-anchor="middle" x="224" y="-78.9" style="font-family:Times New Roman;font-size:14.00;">d</text>
</g>
<!-- dump&#45;&gt;dump -->
<g id="edge22" class="edge"><title>dump&#45;&gt;dump</title>
<path style="fill:none;stroke:black;" d="M325,-150C325,-160 327,-168 329,-168 330,-168 331,-165 332,-160"/>
<polygon style="fill:black;stroke:black;" points="335.488,-160.299 333,-150 328.522,-159.602 335.488,-160.299"/>
<text text-anchor="middle" x="329" y="-171.9" style="font-family:Times New Roman;font-size:14.00;">a</text>
</g>
<!-- dump&#45;&gt;dump -->
<g id="edge24" class="edge"><title>dump&#45;&gt;dump</title>
<path style="fill:none;stroke:black;" d="M322,-149C321,-168 323,-186 329,-186 334,-186 336,-174 336,-159"/>
<polygon style="fill:black;stroke:black;" points="339.5,-159 336,-149 332.5,-159 339.5,-159"/>
<text text-anchor="middle" x="329" y="-189.9" style="font-family:Times New Roman;font-size:14.00;">d</text>
</g>
<!-- dump&#45;&gt;dump -->
<g id="edge26" class="edge"><title>dump&#45;&gt;dump</title>
<path style="fill:none;stroke:black;" d="M319,-149C316,-176 319,-204 329,-204 338,-204 341,-183 340,-159"/>
<polygon style="fill:black;stroke:black;" points="343.478,-158.602 339,-149 336.512,-159.299 343.478,-158.602"/>
<text text-anchor="middle" x="329" y="-207.9" style="font-family:Times New Roman;font-size:14.00;">u</text>
</g>
</g>
</svg>
