<?xml version="1.0" encoding="UTF-8" standalone="no"?>
<!DOCTYPE svg PUBLIC "-//W3C//DTD SVG 1.1//EN"
 "http://www.w3.org/Graphics/SVG/1.1/DTD/svg11.dtd">
<!-- Generated by graphviz version 12.2.1 (20241206.2353)
 -->
<!-- Title: SelfLoopMarkedStates(g,NameSet) Pages: 1 -->
<svg width="392pt" height="166pt"
 viewBox="0.00 0.00 392.22 165.75" xmlns="http://www.w3.org/2000/svg" xmlns:xlink="http://www.w3.org/1999/xlink">
<g id="graph0" class="graph" transform="scale(1 1) rotate(0) translate(4 161.75)">
<title>SelfLoopMarkedStates(g,NameSet)</title>
<!-- dot_dummyinit_1 -->
<g id="node1" class="node">
<title>dot_dummyinit_1</title>
</g>
<!-- 1 -->
<g id="node2" class="node">
<title>1</title>
<path fill="none" stroke="black" d="M79.72,-79C79.72,-79 49.72,-79 49.72,-79 43.72,-79 37.72,-73 37.72,-67 37.72,-67 37.72,-55 37.72,-55 37.72,-49 43.72,-43 49.72,-43 49.72,-43 79.72,-43 79.72,-43 85.72,-43 91.72,-49 91.72,-55 91.72,-55 91.72,-67 91.72,-67 91.72,-73 85.72,-79 79.72,-79"/>
<text text-anchor="middle" x="64.72" y="-55.58" font-family="Arial" font-size="14.00">1</text>
</g>
<!-- dot_dummyinit_1&#45;&gt;1 -->
<g id="edge1" class="edge">
<title>dot_dummyinit_1&#45;&gt;1</title>
<path fill="none" stroke="black" d="M0.77,-61C1.57,-61 12.96,-61 25.83,-61"/>
<polygon fill="black" stroke="black" points="25.79,-64.5 35.79,-61 25.79,-57.5 25.79,-64.5"/>
</g>
<!-- 2 -->
<g id="node6" class="node">
<title>2</title>
<path fill="none" stroke="black" d="M177.22,-79C177.22,-79 147.22,-79 147.22,-79 141.22,-79 135.22,-73 135.22,-67 135.22,-67 135.22,-55 135.22,-55 135.22,-49 141.22,-43 147.22,-43 147.22,-43 177.22,-43 177.22,-43 183.22,-43 189.22,-49 189.22,-55 189.22,-55 189.22,-67 189.22,-67 189.22,-73 183.22,-79 177.22,-79"/>
<text text-anchor="middle" x="162.22" y="-55.58" font-family="Arial" font-size="14.00">2</text>
</g>
<!-- 1&#45;&gt;2 -->
<g id="edge2" class="edge">
<title>1&#45;&gt;2</title>
<path fill="none" stroke="black" d="M92.07,-61C101.78,-61 112.97,-61 123.49,-61"/>
<polygon fill="black" stroke="black" points="123.44,-64.5 133.44,-61 123.44,-57.5 123.44,-64.5"/>
<text text-anchor="middle" x="113.47" y="-63.45" font-family="Arial" font-size="14.00">a</text>
</g>
<!-- 3 -->
<g id="node3" class="node">
<title>3</title>
<path fill="none" stroke="black" d="M274.72,-124C274.72,-124 244.72,-124 244.72,-124 238.72,-124 232.72,-118 232.72,-112 232.72,-112 232.72,-100 232.72,-100 232.72,-94 238.72,-88 244.72,-88 244.72,-88 274.72,-88 274.72,-88 280.72,-88 286.72,-94 286.72,-100 286.72,-100 286.72,-112 286.72,-112 286.72,-118 280.72,-124 274.72,-124"/>
<text text-anchor="start" x="247.97" y="-100.58" font-family="Arial" font-size="14.00">3</text>
<polygon fill="black" stroke="none" points="265.47,-96.12 265.47,-115.88 273.47,-115.88 273.47,-96.12 265.47,-96.12"/>
</g>
<!-- 3&#45;&gt;3 -->
<g id="edge5" class="edge">
<title>3&#45;&gt;3</title>
<path fill="none" stroke="black" d="M250.9,-124.15C249.54,-133.54 252.48,-142 259.72,-142 263.79,-142 266.5,-139.32 267.85,-135.31"/>
<polygon fill="black" stroke="black" points="271.33,-135.86 268.45,-125.66 264.34,-135.43 271.33,-135.86"/>
<text text-anchor="middle" x="259.72" y="-144.45" font-family="Arial" font-size="14.00">f, e</text>
</g>
<!-- 4 -->
<g id="node4" class="node">
<title>4</title>
<path fill="none" stroke="black" d="M274.72,-36C274.72,-36 244.72,-36 244.72,-36 238.72,-36 232.72,-30 232.72,-24 232.72,-24 232.72,-12 232.72,-12 232.72,-6 238.72,0 244.72,0 244.72,0 274.72,0 274.72,0 280.72,0 286.72,-6 286.72,-12 286.72,-12 286.72,-24 286.72,-24 286.72,-30 280.72,-36 274.72,-36"/>
<text text-anchor="start" x="247.97" y="-12.57" font-family="Arial" font-size="14.00">4</text>
<polygon fill="black" stroke="none" points="265.47,-8.12 265.47,-27.88 273.47,-27.88 273.47,-8.12 265.47,-8.12"/>
</g>
<!-- 4&#45;&gt;4 -->
<g id="edge6" class="edge">
<title>4&#45;&gt;4</title>
<path fill="none" stroke="black" d="M250.9,-36.15C249.54,-45.54 252.48,-54 259.72,-54 263.79,-54 266.5,-51.32 267.85,-47.31"/>
<polygon fill="black" stroke="black" points="271.33,-47.86 268.45,-37.66 264.34,-47.43 271.33,-47.86"/>
<text text-anchor="middle" x="259.72" y="-56.45" font-family="Arial" font-size="14.00">f, e</text>
</g>
<!-- 5 -->
<g id="node5" class="node">
<title>5</title>
<path fill="none" stroke="black" d="M372.22,-36C372.22,-36 342.22,-36 342.22,-36 336.22,-36 330.22,-30 330.22,-24 330.22,-24 330.22,-12 330.22,-12 330.22,-6 336.22,0 342.22,0 342.22,0 372.22,0 372.22,0 378.22,0 384.22,-6 384.22,-12 384.22,-12 384.22,-24 384.22,-24 384.22,-30 378.22,-36 372.22,-36"/>
<text text-anchor="start" x="345.47" y="-12.57" font-family="Arial" font-size="14.00">5</text>
<polygon fill="black" stroke="none" points="362.97,-8.12 362.97,-27.88 370.97,-27.88 370.97,-8.12 362.97,-8.12"/>
</g>
<!-- 4&#45;&gt;5 -->
<g id="edge7" class="edge">
<title>4&#45;&gt;5</title>
<path fill="none" stroke="black" d="M287.07,-18C296.78,-18 307.97,-18 318.49,-18"/>
<polygon fill="black" stroke="black" points="318.44,-21.5 328.44,-18 318.44,-14.5 318.44,-21.5"/>
<text text-anchor="middle" x="308.47" y="-20.45" font-family="Arial" font-size="14.00">d</text>
</g>
<!-- 5&#45;&gt;5 -->
<g id="edge8" class="edge">
<title>5&#45;&gt;5</title>
<path fill="none" stroke="black" d="M348.4,-36.15C347.04,-45.54 349.98,-54 357.22,-54 361.29,-54 364,-51.32 365.35,-47.31"/>
<polygon fill="black" stroke="black" points="368.83,-47.86 365.95,-37.66 361.84,-47.43 368.83,-47.86"/>
<text text-anchor="middle" x="357.22" y="-56.45" font-family="Arial" font-size="14.00">f, e</text>
</g>
<!-- 2&#45;&gt;3 -->
<g id="edge3" class="edge">
<title>2&#45;&gt;3</title>
<path fill="none" stroke="black" d="M189.57,-73.42C199.69,-78.19 211.44,-83.72 222.34,-88.86"/>
<polygon fill="black" stroke="black" points="220.55,-91.88 231.09,-92.98 223.53,-85.55 220.55,-91.88"/>
<text text-anchor="middle" x="210.97" y="-87.3" font-family="Arial" font-size="14.00">b</text>
</g>
<!-- 2&#45;&gt;4 -->
<g id="edge4" class="edge">
<title>2&#45;&gt;4</title>
<path fill="none" stroke="black" d="M189.57,-49.14C199.59,-44.62 211.2,-39.4 222,-34.53"/>
<polygon fill="black" stroke="black" points="223.4,-37.74 231.08,-30.45 220.52,-31.36 223.4,-37.74"/>
<text text-anchor="middle" x="210.97" y="-43.24" font-family="Arial" font-size="14.00">c</text>
</g>
</g>
</svg>
