<?xml version="1.0" encoding="UTF-8" standalone="no"?>
<!DOCTYPE svg PUBLIC "-//W3C//DTD SVG 1.1//EN"
 "http://www.w3.org/Graphics/SVG/1.1/DTD/svg11.dtd">
<!-- Generated by graphviz version 12.2.1 (20241206.2353)
 -->
<!-- Title: KleeneClosure(g1) Pages: 1 -->
<svg width="344pt" height="170pt"
 viewBox="0.00 0.00 344.22 170.00" xmlns="http://www.w3.org/2000/svg" xmlns:xlink="http://www.w3.org/1999/xlink">
<g id="graph0" class="graph" transform="scale(1 1) rotate(0) translate(4 166)">
<title>KleeneClosure(g1)</title>
<!-- dot_dummyinit_1 -->
<g id="node1" class="node">
<title>dot_dummyinit_1</title>
</g>
<!-- 1 -->
<g id="node2" class="node">
<title>1</title>
<ellipse fill="none" stroke="black" cx="59.72" cy="-78" rx="18" ry="18"/>
<ellipse fill="none" stroke="black" cx="59.72" cy="-78" rx="22" ry="22"/>
<text text-anchor="middle" x="59.72" y="-72.58" font-family="Arial" font-size="14.00">1</text>
</g>
<!-- dot_dummyinit_1&#45;&gt;1 -->
<g id="edge1" class="edge">
<title>dot_dummyinit_1&#45;&gt;1</title>
<path fill="none" stroke="black" d="M0.89,-78C2.38,-78 13.74,-78 26,-78"/>
<polygon fill="black" stroke="black" points="25.74,-81.5 35.74,-78 25.74,-74.5 25.74,-81.5"/>
</g>
<!-- 2 -->
<g id="node6" class="node">
<title>2</title>
<ellipse fill="none" stroke="black" cx="143.22" cy="-78" rx="18" ry="18"/>
<text text-anchor="middle" x="143.22" y="-72.58" font-family="Arial" font-size="14.00">2</text>
</g>
<!-- 1&#45;&gt;2 -->
<g id="edge2" class="edge">
<title>1&#45;&gt;2</title>
<path fill="none" stroke="black" d="M82.13,-78C91.69,-78 103.1,-78 113.39,-78"/>
<polygon fill="black" stroke="black" points="113.28,-81.5 123.28,-78 113.28,-74.5 113.28,-81.5"/>
<text text-anchor="middle" x="103.47" y="-80.45" font-family="Arial" font-size="14.00">a</text>
</g>
<!-- 3 -->
<g id="node3" class="node">
<title>3</title>
<ellipse fill="none" stroke="black" cx="226.72" cy="-140" rx="18" ry="18"/>
<ellipse fill="none" stroke="black" cx="226.72" cy="-140" rx="22" ry="22"/>
<text text-anchor="middle" x="226.72" y="-134.57" font-family="Arial" font-size="14.00">3</text>
</g>
<!-- 3&#45;&gt;2 -->
<g id="edge5" class="edge">
<title>3&#45;&gt;2</title>
<path fill="none" stroke="black" d="M208.71,-127.06C196.62,-117.86 180.24,-105.4 167.01,-95.34"/>
<polygon fill="black" stroke="black" points="169.33,-92.7 159.25,-89.43 165.09,-98.27 169.33,-92.7"/>
<text text-anchor="middle" x="182.97" y="-111.45" font-family="Arial" font-size="14.00">a</text>
</g>
<!-- 4 -->
<g id="node4" class="node">
<title>4</title>
<ellipse fill="none" stroke="black" cx="226.72" cy="-62" rx="18" ry="18"/>
<ellipse fill="none" stroke="black" cx="226.72" cy="-62" rx="22" ry="22"/>
<text text-anchor="middle" x="226.72" y="-56.58" font-family="Arial" font-size="14.00">4</text>
</g>
<!-- 5 -->
<g id="node5" class="node">
<title>5</title>
<ellipse fill="none" stroke="black" cx="314.22" cy="-22" rx="18" ry="18"/>
<ellipse fill="none" stroke="black" cx="314.22" cy="-22" rx="22" ry="22"/>
<text text-anchor="middle" x="314.22" y="-16.57" font-family="Arial" font-size="14.00">5</text>
</g>
<!-- 4&#45;&gt;5 -->
<g id="edge7" class="edge">
<title>4&#45;&gt;5</title>
<path fill="none" stroke="black" d="M247.12,-52.92C257.94,-47.86 271.65,-41.45 283.77,-35.78"/>
<polygon fill="black" stroke="black" points="284.95,-39.09 292.52,-31.68 281.98,-32.75 284.95,-39.09"/>
<text text-anchor="middle" x="270.47" y="-45.65" font-family="Arial" font-size="14.00">d</text>
</g>
<!-- 4&#45;&gt;2 -->
<g id="edge6" class="edge">
<title>4&#45;&gt;2</title>
<path fill="none" stroke="black" d="M206.94,-52.28C198.39,-49.12 188.18,-47.13 179.22,-50.25 174.22,-51.99 169.41,-54.77 165.02,-57.92"/>
<polygon fill="black" stroke="black" points="162.92,-55.12 157.4,-64.17 167.36,-60.53 162.92,-55.12"/>
<text text-anchor="middle" x="182.97" y="-52.7" font-family="Arial" font-size="14.00">a</text>
</g>
<!-- 5&#45;&gt;2 -->
<g id="edge8" class="edge">
<title>5&#45;&gt;2</title>
<path fill="none" stroke="black" d="M292.7,-15.43C270.17,-9.4 233.38,-3.07 204.72,-15.25 186.39,-23.04 170.91,-39.41 160.2,-53.47"/>
<polygon fill="black" stroke="black" points="157.44,-51.32 154.46,-61.48 163.13,-55.4 157.44,-51.32"/>
<text text-anchor="middle" x="226.72" y="-17.7" font-family="Arial" font-size="14.00">a</text>
</g>
<!-- 2&#45;&gt;3 -->
<g id="edge3" class="edge">
<title>2&#45;&gt;3</title>
<path fill="none" stroke="black" d="M150.14,-94.86C155.6,-107.79 165.03,-124.9 179.22,-134 183.38,-136.67 188.19,-138.41 193.1,-139.51"/>
<polygon fill="black" stroke="black" points="192.6,-142.98 202.99,-140.86 193.55,-136.04 192.6,-142.98"/>
<text text-anchor="middle" x="182.97" y="-139.82" font-family="Arial" font-size="14.00">b</text>
</g>
<!-- 2&#45;&gt;4 -->
<g id="edge4" class="edge">
<title>2&#45;&gt;4</title>
<path fill="none" stroke="black" d="M161.11,-74.68C170.52,-72.84 182.55,-70.47 193.68,-68.29"/>
<polygon fill="black" stroke="black" points="194.17,-71.76 203.31,-66.4 192.83,-64.89 194.17,-71.76"/>
<text text-anchor="middle" x="182.97" y="-73.41" font-family="Arial" font-size="14.00">c</text>
</g>
</g>
</svg>
