<?xml version="1.0" encoding="UTF-8" standalone="no"?>
<!DOCTYPE svg PUBLIC "-//W3C//DTD SVG 1.1//EN"
 "http://www.w3.org/Graphics/SVG/1.1/DTD/svg11.dtd">
<!-- Generated by graphviz version 12.2.1 (20241206.2353)
 -->
<!-- Title: g_nonmin Pages: 1 -->
<svg width="328pt" height="98pt"
 viewBox="0.00 0.00 328.22 98.00" xmlns="http://www.w3.org/2000/svg" xmlns:xlink="http://www.w3.org/1999/xlink">
<g id="graph0" class="graph" transform="scale(1 1) rotate(0) translate(4 94)">
<title>g_nonmin</title>
<!-- dot_dummyinit_1 -->
<g id="node1" class="node">
<title>dot_dummyinit_1</title>
</g>
<!-- 1 -->
<g id="node2" class="node">
<title>1</title>
<ellipse fill="none" stroke="black" cx="59.72" cy="-44" rx="18" ry="18"/>
<ellipse fill="none" stroke="black" cx="59.72" cy="-44" rx="22" ry="22"/>
<text text-anchor="middle" x="59.72" y="-38.58" font-family="Arial" font-size="14.00">1</text>
</g>
<!-- dot_dummyinit_1&#45;&gt;1 -->
<g id="edge1" class="edge">
<title>dot_dummyinit_1&#45;&gt;1</title>
<path fill="none" stroke="black" d="M0.89,-44C2.38,-44 13.74,-44 26,-44"/>
<polygon fill="black" stroke="black" points="25.74,-47.5 35.74,-44 25.74,-40.5 25.74,-47.5"/>
</g>
<!-- 2 -->
<g id="node3" class="node">
<title>2</title>
<ellipse fill="none" stroke="black" cx="143.22" cy="-72" rx="18" ry="18"/>
<text text-anchor="middle" x="143.22" y="-66.58" font-family="Arial" font-size="14.00">2</text>
</g>
<!-- 1&#45;&gt;2 -->
<g id="edge2" class="edge">
<title>1&#45;&gt;2</title>
<path fill="none" stroke="black" d="M80.87,-50.92C91.26,-54.49 104.08,-58.9 115.31,-62.75"/>
<polygon fill="black" stroke="black" points="113.83,-65.95 124.43,-65.89 116.11,-59.33 113.83,-65.95"/>
<text text-anchor="middle" x="103.47" y="-62.13" font-family="Arial" font-size="14.00">a</text>
</g>
<!-- 3 -->
<g id="node4" class="node">
<title>3</title>
<ellipse fill="none" stroke="black" cx="143.22" cy="-18" rx="18" ry="18"/>
<text text-anchor="middle" x="143.22" y="-12.57" font-family="Arial" font-size="14.00">3</text>
</g>
<!-- 1&#45;&gt;3 -->
<g id="edge3" class="edge">
<title>1&#45;&gt;3</title>
<path fill="none" stroke="black" d="M80.89,-36.64C86.92,-34.5 93.57,-32.22 99.72,-30.25 104.49,-28.72 109.59,-27.18 114.54,-25.72"/>
<polygon fill="black" stroke="black" points="115.5,-29.09 124.15,-22.97 113.57,-22.36 115.5,-29.09"/>
<text text-anchor="middle" x="103.47" y="-32.7" font-family="Arial" font-size="14.00">c</text>
</g>
<!-- 4 -->
<g id="node5" class="node">
<title>4</title>
<ellipse fill="none" stroke="black" cx="222.72" cy="-72" rx="18" ry="18"/>
<text text-anchor="middle" x="222.72" y="-66.58" font-family="Arial" font-size="14.00">4</text>
</g>
<!-- 2&#45;&gt;4 -->
<g id="edge4" class="edge">
<title>2&#45;&gt;4</title>
<path fill="none" stroke="black" d="M161.42,-72C170.69,-72 182.36,-72 192.97,-72"/>
<polygon fill="black" stroke="black" points="192.79,-75.5 202.79,-72 192.79,-68.5 192.79,-75.5"/>
<text text-anchor="middle" x="182.97" y="-74.45" font-family="Arial" font-size="14.00">b</text>
</g>
<!-- 5 -->
<g id="node6" class="node">
<title>5</title>
<ellipse fill="none" stroke="black" cx="222.72" cy="-18" rx="18" ry="18"/>
<text text-anchor="middle" x="222.72" y="-12.57" font-family="Arial" font-size="14.00">5</text>
</g>
<!-- 3&#45;&gt;5 -->
<g id="edge5" class="edge">
<title>3&#45;&gt;5</title>
<path fill="none" stroke="black" d="M161.42,-18C170.69,-18 182.36,-18 192.97,-18"/>
<polygon fill="black" stroke="black" points="192.79,-21.5 202.79,-18 192.79,-14.5 192.79,-21.5"/>
<text text-anchor="middle" x="182.97" y="-20.45" font-family="Arial" font-size="14.00">a</text>
</g>
<!-- 6 -->
<g id="node7" class="node">
<title>6</title>
<ellipse fill="none" stroke="black" cx="302.22" cy="-18" rx="18" ry="18"/>
<text text-anchor="middle" x="302.22" y="-12.57" font-family="Arial" font-size="14.00">6</text>
</g>
<!-- 5&#45;&gt;6 -->
<g id="edge6" class="edge">
<title>5&#45;&gt;6</title>
<path fill="none" stroke="black" d="M240.92,-18C250.19,-18 261.86,-18 272.47,-18"/>
<polygon fill="black" stroke="black" points="272.29,-21.5 282.29,-18 272.29,-14.5 272.29,-21.5"/>
<text text-anchor="middle" x="262.47" y="-20.45" font-family="Arial" font-size="14.00">b</text>
</g>
</g>
</svg>
