<?xml version="1.0" encoding="UTF-8" standalone="no"?>
<!DOCTYPE svg PUBLIC "-//W3C//DTD SVG 1.0//EN"
 "http://www.w3.org/TR/2001/REC-SVG-20010904/DTD/svg10.dtd" [
 <!ATTLIST svg xmlns:xlink CDATA #FIXED "http://www.w3.org/1999/xlink">
]>
<!-- Generated by Graphviz version 2.20.2 (Tue Mar &#160;2 21:46:26 UTC 2010)
     For user: (mtmoor) Prof. Thomas Moor -->
<!-- Title: g Pages: 1 -->
<svg width="340pt" height="185pt"
 viewBox="0.00 0.00 340.00 185.00" xmlns="http://www.w3.org/2000/svg" xmlns:xlink="http://www.w3.org/1999/xlink">
<g id="graph0" class="graph" transform="scale(1 1) rotate(0) translate(4 181)">
<title>g</title>
<polygon style="fill:none;stroke:none;" points="-4,4 -4,-181 336,-181 336,4 -4,4"/>
<!-- dot_dummyinit_1 -->
<g id="node1" class="node"><title>dot_dummyinit_1</title>
</g>
<!-- 1 -->
<g id="node3" class="node"><title>1</title>
<ellipse style="fill:none;stroke:black;" cx="62" cy="-22" rx="18" ry="18"/>
<ellipse style="fill:none;stroke:black;" cx="62" cy="-22" rx="22" ry="22"/>
<text text-anchor="middle" x="62" y="-17.9" style="font-family:Times New Roman;font-size:14.00;">1</text>
</g>
<!-- dot_dummyinit_1&#45;&gt;1 -->
<g id="edge2" class="edge"><title>dot_dummyinit_1&#45;&gt;1</title>
<path style="fill:none;stroke:black;" d="M2,-22C5,-22 17,-22 30,-22"/>
<polygon style="fill:black;stroke:black;" points="30,-25.5001 40,-22 30,-18.5001 30,-25.5001"/>
</g>
<!-- 2 -->
<g id="node5" class="node"><title>2</title>
<ellipse style="fill:none;stroke:black;" cx="146" cy="-79" rx="18" ry="18"/>
<text text-anchor="middle" x="146" y="-74.9" style="font-family:Times New Roman;font-size:14.00;">2</text>
</g>
<!-- 1&#45;&gt;2 -->
<g id="edge4" class="edge"><title>1&#45;&gt;2</title>
<path style="fill:none;stroke:black;" d="M80,-34C92,-42 109,-54 123,-63"/>
<polygon style="fill:black;stroke:black;" points="120.9,-65.8 131,-69 125.1,-60.2 120.9,-65.8"/>
<text text-anchor="middle" x="106" y="-56.9" style="font-family:Times New Roman;font-size:14.00;">a</text>
</g>
<!-- 5 -->
<g id="node4" class="node"><title>5</title>
<ellipse style="fill:none;stroke:black;" cx="310" cy="-106" rx="18" ry="18"/>
<ellipse style="fill:none;stroke:black;" cx="310" cy="-106" rx="22" ry="22"/>
<text text-anchor="middle" x="310" y="-101.9" style="font-family:Times New Roman;font-size:14.00;">5</text>
</g>
<!-- 3 -->
<g id="node6" class="node"><title>3</title>
<ellipse style="fill:none;stroke:black;" cx="226" cy="-159" rx="18" ry="18"/>
<text text-anchor="middle" x="226" y="-154.9" style="font-family:Times New Roman;font-size:14.00;">3</text>
</g>
<!-- 2&#45;&gt;3 -->
<g id="edge6" class="edge"><title>2&#45;&gt;3</title>
<path style="fill:none;stroke:black;" d="M158,-92C165,-100 174,-110 182,-118 189,-125 198,-133 205,-140"/>
<polygon style="fill:black;stroke:black;" points="203.169,-143.049 213,-147 207.779,-137.781 203.169,-143.049"/>
<text text-anchor="middle" x="186" y="-125.9" style="font-family:Times New Roman;font-size:14.00;">b</text>
</g>
<!-- 4 -->
<g id="node7" class="node"><title>4</title>
<ellipse style="fill:none;stroke:black;" cx="226" cy="-105" rx="18" ry="18"/>
<text text-anchor="middle" x="226" y="-100.9" style="font-family:Times New Roman;font-size:14.00;">4</text>
</g>
<!-- 2&#45;&gt;4 -->
<g id="edge10" class="edge"><title>2&#45;&gt;4</title>
<path style="fill:none;stroke:black;" d="M162,-88C168,-91 175,-95 182,-97 187,-99 192,-100 198,-101"/>
<polygon style="fill:black;stroke:black;" points="197.508,-104.471 208,-103 198.881,-97.6067 197.508,-104.471"/>
<text text-anchor="middle" x="186" y="-100.9" style="font-family:Times New Roman;font-size:14.00;">c</text>
</g>
<!-- 6 -->
<g id="node8" class="node"><title>6</title>
<ellipse style="fill:none;stroke:black;" cx="226" cy="-39" rx="18" ry="18"/>
<text text-anchor="middle" x="226" y="-34.9" style="font-family:Times New Roman;font-size:14.00;">6</text>
</g>
<!-- 2&#45;&gt;6 -->
<g id="edge8" class="edge"><title>2&#45;&gt;6</title>
<path style="fill:none;stroke:black;" d="M159,-66C165,-59 174,-52 182,-48 187,-46 192,-44 198,-43"/>
<polygon style="fill:black;stroke:black;" points="198.881,-46.3933 208,-41 197.508,-39.5292 198.881,-46.3933"/>
<text text-anchor="middle" x="186" y="-51.9" style="font-family:Times New Roman;font-size:14.00;">d</text>
</g>
<!-- 4&#45;&gt;5 -->
<g id="edge12" class="edge"><title>4&#45;&gt;5</title>
<path style="fill:none;stroke:black;" d="M244,-105C254,-106 266,-106 278,-106"/>
<polygon style="fill:black;stroke:black;" points="278,-109.5 288,-106 278,-102.5 278,-109.5"/>
<text text-anchor="middle" x="266" y="-108.9" style="font-family:Times New Roman;font-size:14.00;">a</text>
</g>
<!-- 4&#45;&gt;2 -->
<g id="edge14" class="edge"><title>4&#45;&gt;2</title>
<path style="fill:none;stroke:black;" d="M215,-91C209,-84 200,-76 190,-73 185,-71 179,-70 173,-71"/>
<polygon style="fill:black;stroke:black;" points="172.119,-67.6067 163,-73 173.492,-74.4708 172.119,-67.6067"/>
<text text-anchor="middle" x="186" y="-76.9" style="font-family:Times New Roman;font-size:14.00;">b</text>
</g>
<!-- 7 -->
<g id="node9" class="node"><title>7</title>
<ellipse style="fill:none;stroke:black;" cx="310" cy="-26" rx="18" ry="18"/>
<text text-anchor="middle" x="310" y="-21.9" style="font-family:Times New Roman;font-size:14.00;">7</text>
</g>
<!-- 6&#45;&gt;7 -->
<g id="edge16" class="edge"><title>6&#45;&gt;7</title>
<path style="fill:none;stroke:black;" d="M244,-44C252,-45 262,-46 270,-44 275,-43 280,-41 285,-39"/>
<polygon style="fill:black;stroke:black;" points="286.283,-42.2598 294,-35 283.44,-35.8631 286.283,-42.2598"/>
<text text-anchor="middle" x="266" y="-47.9" style="font-family:Times New Roman;font-size:14.00;">a</text>
</g>
<!-- 7&#45;&gt;1 -->
<g id="edge20" class="edge"><title>7&#45;&gt;1</title>
<path style="fill:none;stroke:black;" d="M292,-21C279,-18 261,-14 244,-12 192,-7 130,-13 94,-18"/>
<polygon style="fill:black;stroke:black;" points="93.6021,-14.5222 84,-19 94.2987,-21.4875 93.6021,-14.5222"/>
<text text-anchor="middle" x="186" y="-16.9" style="font-family:Times New Roman;font-size:14.00;">c</text>
</g>
<!-- 7&#45;&gt;6 -->
<g id="edge18" class="edge"><title>7&#45;&gt;6</title>
<path style="fill:none;stroke:black;" d="M292,-23C283,-22 272,-21 262,-23 258,-24 255,-25 251,-26"/>
<polygon style="fill:black;stroke:black;" points="249.717,-22.7402 242,-30 252.56,-29.1369 249.717,-22.7402"/>
<text text-anchor="middle" x="266" y="-29.9" style="font-family:Times New Roman;font-size:14.00;">b</text>
</g>
</g>
</svg>
