<?xml version="1.0" encoding="UTF-8" standalone="no"?>
<!DOCTYPE svg PUBLIC "-//W3C//DTD SVG 1.1//EN"
 "http://www.w3.org/Graphics/SVG/1.1/DTD/svg11.dtd">
<!-- Generated by graphviz version 12.2.1 (20241206.2353)
 -->
<!-- Title: Complement(Complement(g1)) Pages: 1 -->
<svg width="336pt" height="390pt"
 viewBox="0.00 0.00 336.22 389.74" xmlns="http://www.w3.org/2000/svg" xmlns:xlink="http://www.w3.org/1999/xlink">
<g id="graph0" class="graph" transform="scale(1 1) rotate(0) translate(4 385.74)">
<title>Complement(Complement(g1))</title>
<!-- dot_dummyinit_1 -->
<g id="node1" class="node">
<title>dot_dummyinit_1</title>
</g>
<!-- 1 -->
<g id="node2" class="node">
<title>1</title>
<ellipse fill="none" stroke="black" cx="59.72" cy="-22" rx="18" ry="18"/>
<ellipse fill="none" stroke="black" cx="59.72" cy="-22" rx="22" ry="22"/>
<text text-anchor="middle" x="59.72" y="-16.57" font-family="Arial" font-size="14.00">1</text>
</g>
<!-- dot_dummyinit_1&#45;&gt;1 -->
<g id="edge1" class="edge">
<title>dot_dummyinit_1&#45;&gt;1</title>
<path fill="none" stroke="black" d="M0.89,-22C2.38,-22 13.74,-22 26,-22"/>
<polygon fill="black" stroke="black" points="25.74,-25.5 35.74,-22 25.74,-18.5 25.74,-25.5"/>
</g>
<!-- 2 -->
<g id="node3" class="node">
<title>2</title>
<ellipse fill="none" stroke="black" cx="147.22" cy="-210" rx="18" ry="18"/>
<ellipse fill="none" stroke="black" cx="147.22" cy="-210" rx="22" ry="22"/>
<text text-anchor="middle" x="147.22" y="-204.57" font-family="Arial" font-size="14.00">2</text>
</g>
<!-- 1&#45;&gt;2 -->
<g id="edge3" class="edge">
<title>1&#45;&gt;2</title>
<path fill="none" stroke="black" d="M69.71,-41.76C84.68,-74.68 114.82,-140.95 132.47,-179.76"/>
<polygon fill="black" stroke="black" points="129.14,-180.9 136.47,-188.56 135.51,-178.01 129.14,-180.9"/>
<text text-anchor="middle" x="103.47" y="-124.09" font-family="Arial" font-size="14.00">a</text>
</g>
<!-- 4 -->
<g id="node5" class="node">
<title>4</title>
<ellipse fill="none" stroke="black" cx="310.22" cy="-184" rx="18" ry="18"/>
<text text-anchor="middle" x="310.22" y="-178.57" font-family="Arial" font-size="14.00">4</text>
</g>
<!-- 1&#45;&gt;4 -->
<g id="edge2" class="edge">
<title>1&#45;&gt;4</title>
<path fill="none" stroke="black" d="M79.7,-32.17C117.87,-52.94 206.08,-102.52 274.22,-153 278.99,-156.53 283.89,-160.58 288.46,-164.55"/>
<polygon fill="black" stroke="black" points="285.8,-166.87 295.58,-170.95 290.48,-161.66 285.8,-166.87"/>
<text text-anchor="middle" x="190.97" y="-100.7" font-family="Arial" font-size="14.00">f</text>
</g>
<!-- 1&#45;&gt;4 -->
<g id="edge4" class="edge">
<title>1&#45;&gt;4</title>
<path fill="none" stroke="black" d="M81.79,-26.23C104.16,-31.17 140.22,-40.44 169.22,-54 207.69,-71.99 217.54,-78.17 248.72,-107 265.77,-122.77 281.86,-143.65 293.15,-159.68"/>
<polygon fill="black" stroke="black" points="290.12,-161.45 298.67,-167.7 295.88,-157.48 290.12,-161.45"/>
<text text-anchor="middle" x="190.97" y="-68.76" font-family="Arial" font-size="14.00">b</text>
</g>
<!-- 1&#45;&gt;4 -->
<g id="edge5" class="edge">
<title>1&#45;&gt;4</title>
<path fill="none" stroke="black" d="M82.11,-21.34C120.93,-21.36 203.15,-27.22 248.72,-73 272.51,-96.9 289.54,-132.1 299.35,-156.43"/>
<polygon fill="black" stroke="black" points="296.05,-157.6 302.92,-165.66 302.58,-155.08 296.05,-157.6"/>
<text text-anchor="middle" x="190.97" y="-41.95" font-family="Arial" font-size="14.00">d</text>
</g>
<!-- 1&#45;&gt;4 -->
<g id="edge6" class="edge">
<title>1&#45;&gt;4</title>
<path fill="none" stroke="black" d="M81.58,-17.23C120.25,-9.74 203.28,-0.22 248.72,-44 280.17,-74.3 296.21,-123.67 303.64,-154.96"/>
<polygon fill="black" stroke="black" points="300.17,-155.5 305.75,-164.51 307.01,-153.99 300.17,-155.5"/>
<text text-anchor="middle" x="190.97" y="-18.17" font-family="Arial" font-size="14.00">c</text>
</g>
<!-- 3 -->
<g id="node4" class="node">
<title>3</title>
<ellipse fill="none" stroke="black" cx="230.72" cy="-324" rx="18" ry="18"/>
<text text-anchor="middle" x="230.72" y="-318.57" font-family="Arial" font-size="14.00">3</text>
</g>
<!-- 2&#45;&gt;3 -->
<g id="edge8" class="edge">
<title>2&#45;&gt;3</title>
<path fill="none" stroke="black" d="M150.82,-231.93C154.72,-255.06 164.27,-291.03 187.22,-312 191.32,-315.75 196.5,-318.33 201.83,-320.12"/>
<polygon fill="black" stroke="black" points="200.64,-323.43 211.18,-322.41 202.3,-316.63 200.64,-323.43"/>
<text text-anchor="middle" x="190.97" y="-319.2" font-family="Arial" font-size="14.00">a</text>
</g>
<!-- 2&#45;&gt;4 -->
<g id="edge7" class="edge">
<title>2&#45;&gt;4</title>
<path fill="none" stroke="black" d="M168.32,-217.71C174.35,-219.89 181.01,-222.16 187.22,-224 213.55,-231.8 221.65,-234.64 248.72,-230 260.57,-227.97 264.14,-227.55 274.22,-221 280.2,-217.11 285.9,-212 290.88,-206.81"/>
<polygon fill="black" stroke="black" points="293.48,-209.16 297.53,-199.37 288.26,-204.5 293.48,-209.16"/>
<text text-anchor="middle" x="230.72" y="-234.69" font-family="Arial" font-size="14.00">f</text>
</g>
<!-- 2&#45;&gt;4 -->
<g id="edge9" class="edge">
<title>2&#45;&gt;4</title>
<path fill="none" stroke="black" d="M169.27,-206.6C197.84,-201.99 248.98,-193.73 280.9,-188.57"/>
<polygon fill="black" stroke="black" points="281.29,-192.06 290.61,-187.01 280.18,-185.15 281.29,-192.06"/>
<text text-anchor="middle" x="230.72" y="-201.61" font-family="Arial" font-size="14.00">b</text>
</g>
<!-- 2&#45;&gt;4 -->
<g id="edge10" class="edge">
<title>2&#45;&gt;4</title>
<path fill="none" stroke="black" d="M165.53,-197.22C177.96,-188.86 195.49,-178.71 212.72,-174.25 235.4,-168.38 261.93,-171.77 281.43,-176.09"/>
<polygon fill="black" stroke="black" points="280.54,-179.48 291.09,-178.46 282.21,-172.68 280.54,-179.48"/>
<text text-anchor="middle" x="230.72" y="-176.7" font-family="Arial" font-size="14.00">d</text>
</g>
<!-- 2&#45;&gt;4 -->
<g id="edge11" class="edge">
<title>2&#45;&gt;4</title>
<path fill="none" stroke="black" d="M161.11,-192.62C172.78,-178.46 191.39,-159.51 212.72,-151.25 237.45,-141.68 266.3,-154.54 285.97,-166.85"/>
<polygon fill="black" stroke="black" points="283.83,-169.63 294.09,-172.27 287.72,-163.81 283.83,-169.63"/>
<text text-anchor="middle" x="230.72" y="-153.7" font-family="Arial" font-size="14.00">c</text>
</g>
<!-- 3&#45;&gt;2 -->
<g id="edge14" class="edge">
<title>3&#45;&gt;2</title>
<path fill="none" stroke="black" d="M218.01,-310.99C209.16,-300.92 196.92,-286.46 187.22,-273 179.33,-262.05 171.36,-249.5 164.7,-238.5"/>
<polygon fill="black" stroke="black" points="167.89,-237.01 159.76,-230.22 161.87,-240.6 167.89,-237.01"/>
<text text-anchor="middle" x="190.97" y="-284.15" font-family="Arial" font-size="14.00">b</text>
</g>
<!-- 3&#45;&gt;4 -->
<g id="edge12" class="edge">
<title>3&#45;&gt;4</title>
<path fill="none" stroke="black" d="M239.64,-340.08C248,-354.96 261.7,-373.31 274.22,-363 296.83,-344.38 305.04,-259.22 307.85,-213.39"/>
<polygon fill="black" stroke="black" points="311.33,-213.82 308.4,-203.64 304.35,-213.43 311.33,-213.82"/>
<text text-anchor="middle" x="270.47" y="-368.44" font-family="Arial" font-size="14.00">f</text>
</g>
<!-- 3&#45;&gt;4 -->
<g id="edge13" class="edge">
<title>3&#45;&gt;4</title>
<path fill="none" stroke="black" d="M248.63,-328.55C257.14,-329.8 267.12,-329.54 274.22,-324 291.5,-310.5 301.52,-250 306.12,-213.09"/>
<polygon fill="black" stroke="black" points="309.55,-213.87 307.25,-203.53 302.6,-213.05 309.55,-213.87"/>
<text text-anchor="middle" x="270.47" y="-330.06" font-family="Arial" font-size="14.00">a</text>
</g>
<!-- 3&#45;&gt;4 -->
<g id="edge15" class="edge">
<title>3&#45;&gt;4</title>
<path fill="none" stroke="black" d="M246.05,-313.83C255.22,-306.68 266.75,-296.39 274.22,-285 288.76,-262.85 297.97,-233.99 303.27,-212.8"/>
<polygon fill="black" stroke="black" points="306.67,-213.62 305.54,-203.08 299.86,-212.02 306.67,-213.62"/>
<text text-anchor="middle" x="270.47" y="-296.19" font-family="Arial" font-size="14.00">d</text>
</g>
<!-- 3&#45;&gt;4 -->
<g id="edge16" class="edge">
<title>3&#45;&gt;4</title>
<path fill="none" stroke="black" d="M240.31,-308.48C253.58,-284.52 279.19,-238.25 295.18,-209.37"/>
<polygon fill="black" stroke="black" points="298.08,-211.36 299.86,-200.91 291.95,-207.96 298.08,-211.36"/>
<text text-anchor="middle" x="270.47" y="-260.65" font-family="Arial" font-size="14.00">c</text>
</g>
<!-- 4&#45;&gt;4 -->
<g id="edge17" class="edge">
<title>4&#45;&gt;4</title>
<path fill="none" stroke="black" d="M308.77,-202.15C308.55,-211.54 309.03,-220 310.22,-220 310.87,-220 311.31,-217.47 311.54,-213.64"/>
<polygon fill="black" stroke="black" points="315.04,-213.71 311.65,-203.67 308.04,-213.63 315.04,-213.71"/>
<text text-anchor="middle" x="310.22" y="-222.45" font-family="Arial" font-size="14.00">f</text>
</g>
<!-- 4&#45;&gt;4 -->
<g id="edge18" class="edge">
<title>4&#45;&gt;4</title>
<path fill="none" stroke="black" d="M307.79,-202.26C306.54,-219.4 307.35,-238 310.22,-238 312.47,-238 313.45,-226.65 313.17,-213.51"/>
<polygon fill="black" stroke="black" points="316.68,-213.59 312.72,-203.77 309.69,-213.92 316.68,-213.59"/>
<text text-anchor="middle" x="310.22" y="-240.45" font-family="Arial" font-size="14.00">a</text>
</g>
<!-- 4&#45;&gt;4 -->
<g id="edge19" class="edge">
<title>4&#45;&gt;4</title>
<path fill="none" stroke="black" d="M307.18,-202.08C304.5,-226.41 305.51,-256 310.22,-256 314.21,-256 315.55,-234.74 314.23,-213.44"/>
<polygon fill="black" stroke="black" points="317.72,-213.25 313.39,-203.59 310.75,-213.85 317.72,-213.25"/>
<text text-anchor="middle" x="310.22" y="-258.45" font-family="Arial" font-size="14.00">b</text>
</g>
<!-- 4&#45;&gt;4 -->
<g id="edge20" class="edge">
<title>4&#45;&gt;4</title>
<path fill="none" stroke="black" d="M306.74,-202.11C302.47,-233.24 303.63,-274 310.22,-274 316.04,-274 317.63,-242.23 314.98,-213.37"/>
<polygon fill="black" stroke="black" points="318.47,-213.16 313.87,-203.62 311.52,-213.95 318.47,-213.16"/>
<text text-anchor="middle" x="310.22" y="-276.45" font-family="Arial" font-size="14.00">d</text>
</g>
<!-- 4&#45;&gt;4 -->
<g id="edge21" class="edge">
<title>4&#45;&gt;4</title>
<path fill="none" stroke="black" d="M306.43,-202.06C300.44,-239.79 301.7,-292 310.22,-292 317.9,-292 319.68,-249.49 315.56,-213.46"/>
<polygon fill="black" stroke="black" points="319.03,-213 314.22,-203.56 312.09,-213.94 319.03,-213"/>
<text text-anchor="middle" x="310.22" y="-294.45" font-family="Arial" font-size="14.00">c</text>
</g>
</g>
</svg>
