<?xml version="1.0" encoding="UTF-8" standalone="no"?>
<!DOCTYPE svg PUBLIC "-//W3C//DTD SVG 1.1//EN"
 "http://www.w3.org/Graphics/SVG/1.1/DTD/svg11.dtd">
<!-- Generated by graphviz version 12.2.1 (20241206.2353)
 -->
<!-- Title: GSigoCompleteC Pages: 1 -->
<svg width="345pt" height="56pt"
 viewBox="0.00 0.00 345.23 56.25" xmlns="http://www.w3.org/2000/svg" xmlns:xlink="http://www.w3.org/1999/xlink">
<g id="graph0" class="graph" transform="scale(1 1) rotate(0) translate(4 52.25)">
<title>GSigoCompleteC</title>
<!-- dot_dummyinit_1 -->
<g id="node1" class="node">
<title>dot_dummyinit_1</title>
</g>
<!-- s1 -->
<g id="node2" class="node">
<title>s1</title>
<ellipse fill="none" stroke="black" cx="57.85" cy="-24.13" rx="20.13" ry="20.13"/>
<text text-anchor="middle" x="57.85" y="-18.7" font-family="Arial" font-size="14.00">s1</text>
</g>
<!-- dot_dummyinit_1&#45;&gt;s1 -->
<g id="edge1" class="edge">
<title>dot_dummyinit_1&#45;&gt;s1</title>
<path fill="none" stroke="black" d="M0.88,-24.13C2.37,-24.13 13.93,-24.13 26.15,-24.13"/>
<polygon fill="black" stroke="black" points="25.79,-27.63 35.79,-24.13 25.79,-20.63 25.79,-27.63"/>
</g>
<!-- s2 -->
<g id="node3" class="node">
<title>s2</title>
<ellipse fill="none" stroke="black" cx="145.6" cy="-24.13" rx="20.13" ry="20.13"/>
<ellipse fill="none" stroke="black" cx="145.6" cy="-24.13" rx="24.13" ry="24.13"/>
<text text-anchor="middle" x="145.6" y="-18.7" font-family="Arial" font-size="14.00">s2</text>
</g>
<!-- s1&#45;&gt;s2 -->
<g id="edge2" class="edge">
<title>s1&#45;&gt;s2</title>
<path fill="none" stroke="black" d="M78.3,-24.13C87.67,-24.13 99.18,-24.13 109.97,-24.13"/>
<polygon fill="black" stroke="black" points="109.74,-27.63 119.74,-24.13 109.74,-20.63 109.74,-27.63"/>
<text text-anchor="middle" x="99.72" y="-26.58" font-family="Arial" font-size="14.00">a</text>
</g>
<!-- s2&#45;&gt;s1 -->
<g id="edge4" class="edge">
<title>s2&#45;&gt;s1</title>
<path fill="none" stroke="black" d="M125.62,-10.32C116.8,-5.5 106.05,-1.86 95.97,-4.38 92.36,-5.28 88.71,-6.6 85.19,-8.15"/>
<polygon fill="black" stroke="black" points="83.83,-4.91 76.49,-12.56 87,-11.16 83.83,-4.91"/>
<text text-anchor="middle" x="99.72" y="-6.83" font-family="Arial" font-size="14.00">b</text>
</g>
<!-- s3 -->
<g id="node4" class="node">
<title>s3</title>
<ellipse fill="none" stroke="black" cx="233.35" cy="-24.13" rx="20.13" ry="20.13"/>
<text text-anchor="middle" x="233.35" y="-18.7" font-family="Arial" font-size="14.00">s3</text>
</g>
<!-- s2&#45;&gt;s3 -->
<g id="edge3" class="edge">
<title>s2&#45;&gt;s3</title>
<path fill="none" stroke="black" d="M170.03,-24.13C179.83,-24.13 191.35,-24.13 201.8,-24.13"/>
<polygon fill="black" stroke="black" points="201.49,-27.63 211.49,-24.13 201.49,-20.63 201.49,-27.63"/>
<text text-anchor="middle" x="191.47" y="-26.58" font-family="Arial" font-size="14.00">a</text>
</g>
<!-- s4 -->
<g id="node5" class="node">
<title>s4</title>
<ellipse fill="none" stroke="black" cx="317.1" cy="-24.13" rx="20.13" ry="20.13"/>
<text text-anchor="middle" x="317.1" y="-18.7" font-family="Arial" font-size="14.00">s4</text>
</g>
<!-- s3&#45;&gt;s4 -->
<g id="edge5" class="edge">
<title>s3&#45;&gt;s4</title>
<path fill="none" stroke="black" d="M253.72,-24.13C263.12,-24.13 274.65,-24.13 285.22,-24.13"/>
<polygon fill="black" stroke="black" points="285.07,-27.63 295.07,-24.13 285.07,-20.63 285.07,-27.63"/>
<text text-anchor="middle" x="275.23" y="-26.58" font-family="Arial" font-size="14.00">c</text>
</g>
<!-- s4&#45;&gt;s3 -->
<g id="edge6" class="edge">
<title>s4&#45;&gt;s3</title>
<path fill="none" stroke="black" d="M300.87,-11.76C292.46,-6.39 281.67,-1.83 271.48,-4.38 267.86,-5.28 264.22,-6.6 260.69,-8.15"/>
<polygon fill="black" stroke="black" points="259.34,-4.91 252,-12.56 262.5,-11.16 259.34,-4.91"/>
<text text-anchor="middle" x="275.23" y="-6.83" font-family="Arial" font-size="14.00">d</text>
</g>
</g>
</svg>
