<?xml version="1.0" encoding="UTF-8" standalone="no"?>
<!DOCTYPE svg PUBLIC "-//W3C//DTD SVG 1.1//EN"
 "http://www.w3.org/Graphics/SVG/1.1/DTD/svg11.dtd">
<!-- Generated by graphviz version 12.2.1 (20241206.2353)
 -->
<!-- Title: g2 Pages: 1 -->
<svg width="197pt" height="44pt"
 viewBox="0.00 0.00 197.47 44.00" xmlns="http://www.w3.org/2000/svg" xmlns:xlink="http://www.w3.org/1999/xlink">
<g id="graph0" class="graph" transform="scale(1 1) rotate(0) translate(4 40)">
<title>g2</title>
<!-- dot_dummyinit_1 -->
<g id="node1" class="node">
<title>dot_dummyinit_1</title>
</g>
<!-- s1 -->
<g id="node2" class="node">
<title>s1</title>
<path fill="none" stroke="black" d="M79.72,-36C79.72,-36 49.72,-36 49.72,-36 43.72,-36 37.72,-30 37.72,-24 37.72,-24 37.72,-12 37.72,-12 37.72,-6 43.72,0 49.72,0 49.72,0 79.72,0 79.72,0 85.72,0 91.72,-6 91.72,-12 91.72,-12 91.72,-24 91.72,-24 91.72,-30 85.72,-36 79.72,-36"/>
<text text-anchor="middle" x="64.72" y="-12.57" font-family="Arial" font-size="14.00">s1</text>
</g>
<!-- dot_dummyinit_1&#45;&gt;s1 -->
<g id="edge1" class="edge">
<title>dot_dummyinit_1&#45;&gt;s1</title>
<path fill="none" stroke="black" d="M0.77,-18C1.57,-18 12.96,-18 25.83,-18"/>
<polygon fill="black" stroke="black" points="25.79,-21.5 35.79,-18 25.79,-14.5 25.79,-21.5"/>
</g>
<!-- s2 -->
<g id="node3" class="node">
<title>s2</title>
<path fill="none" stroke="black" d="M177.47,-36C177.47,-36 147.22,-36 147.22,-36 141.22,-36 135.22,-30 135.22,-24 135.22,-24 135.22,-12 135.22,-12 135.22,-6 141.22,0 147.22,0 147.22,0 177.47,0 177.47,0 183.47,0 189.47,-6 189.47,-12 189.47,-12 189.47,-24 189.47,-24 189.47,-30 183.47,-36 177.47,-36"/>
<text text-anchor="start" x="147.22" y="-12.57" font-family="Arial" font-size="14.00">s2</text>
<polygon fill="black" stroke="none" points="171.47,-8.12 171.47,-27.88 179.47,-27.88 179.47,-8.12 171.47,-8.12"/>
</g>
<!-- s1&#45;&gt;s2 -->
<g id="edge2" class="edge">
<title>s1&#45;&gt;s2</title>
<path fill="none" stroke="black" d="M92.1,-18C101.82,-18 113.03,-18 123.56,-18"/>
<polygon fill="black" stroke="black" points="123.53,-21.5 133.53,-18 123.53,-14.5 123.53,-21.5"/>
<text text-anchor="middle" x="113.47" y="-20.45" font-family="Arial" font-size="14.00">a</text>
</g>
</g>
</svg>
