<?xml version="1.0" encoding="UTF-8" standalone="no"?>
<!DOCTYPE svg PUBLIC "-//W3C//DTD SVG 1.1//EN"
 "http://www.w3.org/Graphics/SVG/1.1/DTD/svg11.dtd">
<!-- Generated by graphviz version 12.2.1 (20241206.2353)
 -->
<!-- Title: Complement(Complement(g1)) Pages: 1 -->
<svg width="439pt" height="132pt"
 viewBox="0.00 0.00 439.35 132.42" xmlns="http://www.w3.org/2000/svg" xmlns:xlink="http://www.w3.org/1999/xlink">
<g id="graph0" class="graph" transform="scale(1 1) rotate(0) translate(4 128.42)">
<title>Complement(Complement(g1))</title>
<!-- dot_dummyinit_1 -->
<g id="node1" class="node">
<title>dot_dummyinit_1</title>
</g>
<!-- 1 -->
<g id="node2" class="node">
<title>1</title>
<ellipse fill="none" stroke="black" cx="59.72" cy="-22" rx="18" ry="18"/>
<ellipse fill="none" stroke="black" cx="59.72" cy="-22" rx="22" ry="22"/>
<text text-anchor="middle" x="59.72" y="-16.57" font-family="Arial" font-size="14.00">1</text>
</g>
<!-- dot_dummyinit_1&#45;&gt;1 -->
<g id="edge1" class="edge">
<title>dot_dummyinit_1&#45;&gt;1</title>
<path fill="none" stroke="black" d="M0.89,-22C2.38,-22 13.74,-22 26,-22"/>
<polygon fill="black" stroke="black" points="25.74,-25.5 35.74,-22 25.74,-18.5 25.74,-25.5"/>
</g>
<!-- 2 -->
<g id="node3" class="node">
<title>2</title>
<ellipse fill="none" stroke="black" cx="147.22" cy="-70" rx="18" ry="18"/>
<ellipse fill="none" stroke="black" cx="147.22" cy="-70" rx="22" ry="22"/>
<text text-anchor="middle" x="147.22" y="-64.58" font-family="Arial" font-size="14.00">2</text>
</g>
<!-- 1&#45;&gt;2 -->
<g id="edge2" class="edge">
<title>1&#45;&gt;2</title>
<path fill="none" stroke="black" d="M79.27,-32.42C90.4,-38.66 104.79,-46.74 117.37,-53.81"/>
<polygon fill="black" stroke="black" points="115.66,-56.85 126.09,-58.7 119.08,-50.75 115.66,-56.85"/>
<text text-anchor="middle" x="103.47" y="-49.89" font-family="Arial" font-size="14.00">a</text>
</g>
<!-- 4 -->
<g id="node5" class="node">
<title>4</title>
<ellipse fill="none" stroke="black" cx="403.22" cy="-52" rx="18" ry="18"/>
<text text-anchor="middle" x="403.22" y="-46.58" font-family="Arial" font-size="14.00">4</text>
</g>
<!-- 1&#45;&gt;4 -->
<g id="edge3" class="edge">
<title>1&#45;&gt;4</title>
<path fill="none" stroke="black" d="M82.08,-23.88C141.19,-29.07 306.95,-43.63 373.77,-49.5"/>
<polygon fill="black" stroke="black" points="373.27,-52.97 383.54,-50.36 373.88,-46 373.27,-52.97"/>
<text text-anchor="middle" x="211.22" y="-39.45" font-family="Arial" font-size="14.00">f, b, d, c</text>
</g>
<!-- 3 -->
<g id="node4" class="node">
<title>3</title>
<ellipse fill="none" stroke="black" cx="277.22" cy="-104" rx="18" ry="18"/>
<text text-anchor="middle" x="277.22" y="-98.58" font-family="Arial" font-size="14.00">3</text>
</g>
<!-- 2&#45;&gt;3 -->
<g id="edge4" class="edge">
<title>2&#45;&gt;3</title>
<path fill="none" stroke="black" d="M162.63,-85.75C169.41,-92.04 178.02,-98.59 187.22,-102 206.53,-109.15 229.85,-109.4 247.78,-108"/>
<polygon fill="black" stroke="black" points="248.11,-111.48 257.7,-106.98 247.4,-104.52 248.11,-111.48"/>
<text text-anchor="middle" x="211.22" y="-111.12" font-family="Arial" font-size="14.00">a</text>
</g>
<!-- 2&#45;&gt;4 -->
<g id="edge5" class="edge">
<title>2&#45;&gt;4</title>
<path fill="none" stroke="black" d="M169.53,-68.09C190.73,-66.22 224.21,-63.36 253.22,-61.25 295.02,-58.21 343.47,-55.32 373.49,-53.6"/>
<polygon fill="black" stroke="black" points="373.48,-57.11 383.27,-53.05 373.09,-50.12 373.48,-57.11"/>
<text text-anchor="middle" x="277.22" y="-63.7" font-family="Arial" font-size="14.00">f, b, d, c</text>
</g>
<!-- 3&#45;&gt;2 -->
<g id="edge6" class="edge">
<title>3&#45;&gt;2</title>
<path fill="none" stroke="black" d="M261.59,-94.63C254,-90.2 244.42,-85.23 235.22,-82.25 217.71,-76.57 197.37,-73.52 180.76,-71.89"/>
<polygon fill="black" stroke="black" points="181.19,-68.41 170.93,-71.06 180.6,-75.38 181.19,-68.41"/>
<text text-anchor="middle" x="211.22" y="-84.7" font-family="Arial" font-size="14.00">b</text>
</g>
<!-- 3&#45;&gt;4 -->
<g id="edge7" class="edge">
<title>3&#45;&gt;4</title>
<path fill="none" stroke="black" d="M294.18,-97.31C314.82,-88.65 351.08,-73.45 375.85,-63.06"/>
<polygon fill="black" stroke="black" points="377.06,-66.35 384.93,-59.25 374.35,-59.89 377.06,-66.35"/>
<text text-anchor="middle" x="343.22" y="-88.15" font-family="Arial" font-size="14.00">f, a, d, c</text>
</g>
<!-- 4&#45;&gt;4 -->
<g id="edge8" class="edge">
<title>4&#45;&gt;4</title>
<path fill="none" stroke="black" d="M393.07,-67.17C389.99,-77.66 393.38,-88 403.22,-88 409.37,-88 413,-83.96 414.11,-78.37"/>
<polygon fill="black" stroke="black" points="417.62,-78.43 413.47,-68.68 410.63,-78.88 417.62,-78.43"/>
<text text-anchor="middle" x="403.22" y="-106.2" font-family="Arial" font-size="14.00">f, a, b, d, </text>
<text text-anchor="middle" x="403.22" y="-90.45" font-family="Arial" font-size="14.00">c</text>
</g>
</g>
</svg>
