<?xml version="1.0" encoding="UTF-8" standalone="no"?>
<!DOCTYPE svg PUBLIC "-//W3C//DTD SVG 1.1//EN"
 "http://www.w3.org/Graphics/SVG/1.1/DTD/svg11.dtd">
<!-- Generated by graphviz version 12.2.1 (20241206.2353)
 -->
<!-- Title: SelfLoopMarkedStates(g,NameSet) Pages: 1 -->
<svg width="336pt" height="250pt"
 viewBox="0.00 0.00 336.22 249.50" xmlns="http://www.w3.org/2000/svg" xmlns:xlink="http://www.w3.org/1999/xlink">
<g id="graph0" class="graph" transform="scale(1 1) rotate(0) translate(4 245.5)">
<title>SelfLoopMarkedStates(g,NameSet)</title>
<!-- dot_dummyinit_1 -->
<g id="node1" class="node">
<title>dot_dummyinit_1</title>
</g>
<!-- 1 -->
<g id="node2" class="node">
<title>1</title>
<ellipse fill="none" stroke="black" cx="55.72" cy="-86" rx="18" ry="18"/>
<text text-anchor="middle" x="55.72" y="-80.58" font-family="Arial" font-size="14.00">1</text>
</g>
<!-- dot_dummyinit_1&#45;&gt;1 -->
<g id="edge1" class="edge">
<title>dot_dummyinit_1&#45;&gt;1</title>
<path fill="none" stroke="black" d="M0.87,-86C2.34,-86 13.93,-86 25.99,-86"/>
<polygon fill="black" stroke="black" points="25.86,-89.5 35.86,-86 25.86,-82.5 25.86,-89.5"/>
</g>
<!-- 2 -->
<g id="node6" class="node">
<title>2</title>
<ellipse fill="none" stroke="black" cx="135.22" cy="-86" rx="18" ry="18"/>
<text text-anchor="middle" x="135.22" y="-80.58" font-family="Arial" font-size="14.00">2</text>
</g>
<!-- 1&#45;&gt;2 -->
<g id="edge2" class="edge">
<title>1&#45;&gt;2</title>
<path fill="none" stroke="black" d="M73.92,-86C83.19,-86 94.86,-86 105.47,-86"/>
<polygon fill="black" stroke="black" points="105.29,-89.5 115.29,-86 105.29,-82.5 105.29,-89.5"/>
<text text-anchor="middle" x="95.47" y="-88.45" font-family="Arial" font-size="14.00">a</text>
</g>
<!-- 3 -->
<g id="node3" class="node">
<title>3</title>
<ellipse fill="none" stroke="black" cx="218.72" cy="-152" rx="18" ry="18"/>
<ellipse fill="none" stroke="black" cx="218.72" cy="-152" rx="22" ry="22"/>
<text text-anchor="middle" x="218.72" y="-146.57" font-family="Arial" font-size="14.00">3</text>
</g>
<!-- 3&#45;&gt;3 -->
<g id="edge5" class="edge">
<title>3&#45;&gt;3</title>
<path fill="none" stroke="black" d="M214.68,-173.81C214.3,-183.56 215.64,-192 218.72,-192 220.45,-192 221.63,-189.33 222.27,-185.26"/>
<polygon fill="black" stroke="black" points="225.76,-185.46 222.69,-175.32 218.77,-185.16 225.76,-185.46"/>
<text text-anchor="middle" x="218.72" y="-194.45" font-family="Arial" font-size="14.00">f</text>
</g>
<!-- 3&#45;&gt;3 -->
<g id="edge6" class="edge">
<title>3&#45;&gt;3</title>
<path fill="none" stroke="black" d="M211.82,-173.11C208.77,-191.1 211.07,-210 218.72,-210 224.75,-210 227.46,-198.23 226.84,-184.43"/>
<polygon fill="black" stroke="black" points="230.33,-184.19 225.78,-174.62 223.37,-184.94 230.33,-184.19"/>
<text text-anchor="middle" x="218.72" y="-212.45" font-family="Arial" font-size="14.00">e</text>
</g>
<!-- 4 -->
<g id="node4" class="node">
<title>4</title>
<ellipse fill="none" stroke="black" cx="218.72" cy="-22" rx="18" ry="18"/>
<ellipse fill="none" stroke="black" cx="218.72" cy="-22" rx="22" ry="22"/>
<text text-anchor="middle" x="218.72" y="-16.57" font-family="Arial" font-size="14.00">4</text>
</g>
<!-- 4&#45;&gt;4 -->
<g id="edge7" class="edge">
<title>4&#45;&gt;4</title>
<path fill="none" stroke="black" d="M214.68,-43.81C214.3,-53.56 215.64,-62 218.72,-62 220.45,-62 221.63,-59.33 222.27,-55.26"/>
<polygon fill="black" stroke="black" points="225.76,-55.46 222.69,-45.32 218.77,-55.16 225.76,-55.46"/>
<text text-anchor="middle" x="218.72" y="-64.45" font-family="Arial" font-size="14.00">f</text>
</g>
<!-- 4&#45;&gt;4 -->
<g id="edge9" class="edge">
<title>4&#45;&gt;4</title>
<path fill="none" stroke="black" d="M211.82,-43.11C208.77,-61.1 211.07,-80 218.72,-80 224.75,-80 227.46,-68.23 226.84,-54.43"/>
<polygon fill="black" stroke="black" points="230.33,-54.19 225.78,-44.62 223.37,-54.94 230.33,-54.19"/>
<text text-anchor="middle" x="218.72" y="-82.45" font-family="Arial" font-size="14.00">e</text>
</g>
<!-- 5 -->
<g id="node5" class="node">
<title>5</title>
<ellipse fill="none" stroke="black" cx="306.22" cy="-22" rx="18" ry="18"/>
<ellipse fill="none" stroke="black" cx="306.22" cy="-22" rx="22" ry="22"/>
<text text-anchor="middle" x="306.22" y="-16.57" font-family="Arial" font-size="14.00">5</text>
</g>
<!-- 4&#45;&gt;5 -->
<g id="edge8" class="edge">
<title>4&#45;&gt;5</title>
<path fill="none" stroke="black" d="M240.85,-22C250.34,-22 261.75,-22 272.32,-22"/>
<polygon fill="black" stroke="black" points="272.22,-25.5 282.22,-22 272.22,-18.5 272.22,-25.5"/>
<text text-anchor="middle" x="262.47" y="-24.45" font-family="Arial" font-size="14.00">d</text>
</g>
<!-- 5&#45;&gt;5 -->
<g id="edge10" class="edge">
<title>5&#45;&gt;5</title>
<path fill="none" stroke="black" d="M302.18,-43.81C301.8,-53.56 303.14,-62 306.22,-62 307.95,-62 309.13,-59.33 309.77,-55.26"/>
<polygon fill="black" stroke="black" points="313.26,-55.46 310.19,-45.32 306.27,-55.16 313.26,-55.46"/>
<text text-anchor="middle" x="306.22" y="-64.45" font-family="Arial" font-size="14.00">f</text>
</g>
<!-- 5&#45;&gt;5 -->
<g id="edge11" class="edge">
<title>5&#45;&gt;5</title>
<path fill="none" stroke="black" d="M299.32,-43.11C296.27,-61.1 298.57,-80 306.22,-80 312.25,-80 314.96,-68.23 314.34,-54.43"/>
<polygon fill="black" stroke="black" points="317.83,-54.19 313.28,-44.62 310.87,-54.94 317.83,-54.19"/>
<text text-anchor="middle" x="306.22" y="-82.45" font-family="Arial" font-size="14.00">e</text>
</g>
<!-- 2&#45;&gt;3 -->
<g id="edge3" class="edge">
<title>2&#45;&gt;3</title>
<path fill="none" stroke="black" d="M149.68,-96.9C161.18,-106.21 178.04,-119.86 192.1,-131.25"/>
<polygon fill="black" stroke="black" points="189.7,-133.81 199.67,-137.38 194.1,-128.37 189.7,-133.81"/>
<text text-anchor="middle" x="174.97" y="-121.45" font-family="Arial" font-size="14.00">b</text>
</g>
<!-- 2&#45;&gt;4 -->
<g id="edge4" class="edge">
<title>2&#45;&gt;4</title>
<path fill="none" stroke="black" d="M150.05,-75.14C161.52,-66.13 178.15,-53.07 192.05,-42.16"/>
<polygon fill="black" stroke="black" points="193.82,-45.22 199.52,-36.29 189.5,-39.71 193.82,-45.22"/>
<text text-anchor="middle" x="174.97" y="-60.28" font-family="Arial" font-size="14.00">c</text>
</g>
</g>
</svg>
