<?xml version="1.0" encoding="UTF-8" standalone="no"?>
<!DOCTYPE svg PUBLIC "-//W3C//DTD SVG 1.0//EN"
 "http://www.w3.org/TR/2001/REC-SVG-20010904/DTD/svg10.dtd" [
 <!ATTLIST svg xmlns:xlink CDATA #FIXED "http://www.w3.org/1999/xlink">
]>
<!-- Generated by Graphviz version 2.20.2 (Tue Mar &#160;2 21:46:26 UTC 2010)
     For user: (mtmoor) Prof. Thomas Moor -->
<!-- Title: Complement(g1) Pages: 1 -->
<svg width="340pt" height="407pt"
 viewBox="0.00 0.00 340.00 407.00" xmlns="http://www.w3.org/2000/svg" xmlns:xlink="http://www.w3.org/1999/xlink">
<g id="graph0" class="graph" transform="scale(1 1) rotate(0) translate(4 403)">
<title>Complement(g1)</title>
<polygon style="fill:none;stroke:none;" points="-4,4 -4,-403 336,-403 336,4 -4,4"/>
<!-- dot_dummyinit_1 -->
<g id="node1" class="node"><title>dot_dummyinit_1</title>
</g>
<!-- 1 -->
<g id="node3" class="node"><title>1</title>
<ellipse style="fill:none;stroke:black;" cx="58" cy="-298" rx="18" ry="18"/>
<text text-anchor="middle" x="58" y="-293.9" style="font-family:Times New Roman;font-size:14.00;">1</text>
</g>
<!-- dot_dummyinit_1&#45;&gt;1 -->
<g id="edge2" class="edge"><title>dot_dummyinit_1&#45;&gt;1</title>
<path style="fill:none;stroke:black;" d="M2,-298C6,-298 18,-298 30,-298"/>
<polygon style="fill:black;stroke:black;" points="30,-301.5 40,-298 30,-294.5 30,-301.5"/>
</g>
<!-- 4 -->
<g id="node5" class="node"><title>4</title>
<ellipse style="fill:none;stroke:black;" cx="310" cy="-174" rx="18" ry="18"/>
<ellipse style="fill:none;stroke:black;" cx="310" cy="-174" rx="22" ry="22"/>
<text text-anchor="middle" x="310" y="-169.9" style="font-family:Times New Roman;font-size:14.00;">4</text>
</g>
<!-- 1&#45;&gt;4 -->
<g id="edge4" class="edge"><title>1&#45;&gt;4</title>
<path style="fill:none;stroke:black;" d="M64,-315C70,-327 80,-344 94,-352 163,-390 211,-402 270,-352 292,-333 303,-252 307,-206"/>
<polygon style="fill:black;stroke:black;" points="310.488,-206.299 308,-196 303.522,-205.602 310.488,-206.299"/>
<text text-anchor="middle" x="178" y="-386.9" style="font-family:Times New Roman;font-size:14.00;">f</text>
</g>
<!-- 1&#45;&gt;4 -->
<g id="edge8" class="edge"><title>1&#45;&gt;4</title>
<path style="fill:none;stroke:black;" d="M75,-306C113,-323 212,-358 270,-312 287,-298 299,-242 305,-206"/>
<polygon style="fill:black;stroke:black;" points="308.471,-206.492 307,-196 301.607,-205.119 308.471,-206.492"/>
<text text-anchor="middle" x="178" y="-336.9" style="font-family:Times New Roman;font-size:14.00;">b</text>
</g>
<!-- 1&#45;&gt;4 -->
<g id="edge10" class="edge"><title>1&#45;&gt;4</title>
<path style="fill:none;stroke:black;" d="M76,-299C122,-300 240,-302 270,-280 282,-270 295,-233 302,-206"/>
<polygon style="fill:black;stroke:black;" points="305.479,-206.584 305,-196 298.774,-204.573 305.479,-206.584"/>
<text text-anchor="middle" x="178" y="-300.9" style="font-family:Times New Roman;font-size:14.00;">d</text>
</g>
<!-- 1&#45;&gt;4 -->
<g id="edge12" class="edge"><title>1&#45;&gt;4</title>
<path style="fill:none;stroke:black;" d="M76,-294C121,-284 239,-256 270,-233 281,-225 289,-214 296,-203"/>
<polygon style="fill:black;stroke:black;" points="299.203,-204.441 301,-194 293.084,-201.042 299.203,-204.441"/>
<text text-anchor="middle" x="178" y="-271.9" style="font-family:Times New Roman;font-size:14.00;">c</text>
</g>
<!-- 2 -->
<g id="node6" class="node"><title>2</title>
<ellipse style="fill:none;stroke:black;" cx="138" cy="-99" rx="18" ry="18"/>
<text text-anchor="middle" x="138" y="-94.9" style="font-family:Times New Roman;font-size:14.00;">2</text>
</g>
<!-- 1&#45;&gt;2 -->
<g id="edge6" class="edge"><title>1&#45;&gt;2</title>
<path style="fill:none;stroke:black;" d="M65,-281C79,-247 111,-167 127,-126"/>
<polygon style="fill:black;stroke:black;" points="130.536,-126.585 131,-116 124.036,-123.985 130.536,-126.585"/>
<text text-anchor="middle" x="98" y="-212.9" style="font-family:Times New Roman;font-size:14.00;">a</text>
</g>
<!-- 3 -->
<g id="node4" class="node"><title>3</title>
<ellipse style="fill:none;stroke:black;" cx="222" cy="-164" rx="18" ry="18"/>
<ellipse style="fill:none;stroke:black;" cx="222" cy="-164" rx="22" ry="22"/>
<text text-anchor="middle" x="222" y="-159.9" style="font-family:Times New Roman;font-size:14.00;">3</text>
</g>
<!-- 3&#45;&gt;4 -->
<g id="edge24" class="edge"><title>3&#45;&gt;4</title>
<path style="fill:none;stroke:black;" d="M233,-184C239,-194 249,-206 262,-212 273,-217 283,-210 292,-201"/>
<polygon style="fill:black;stroke:black;" points="295.049,-202.831 299,-193 289.781,-198.221 295.049,-202.831"/>
<text text-anchor="middle" x="266" y="-215.9" style="font-family:Times New Roman;font-size:14.00;">f</text>
</g>
<!-- 3&#45;&gt;4 -->
<g id="edge26" class="edge"><title>3&#45;&gt;4</title>
<path style="fill:none;stroke:black;" d="M244,-169C250,-170 256,-171 262,-172 267,-173 273,-173 278,-173"/>
<polygon style="fill:black;stroke:black;" points="277.701,-176.488 288,-174 278.398,-169.522 277.701,-176.488"/>
<text text-anchor="middle" x="266" y="-175.9" style="font-family:Times New Roman;font-size:14.00;">a</text>
</g>
<!-- 3&#45;&gt;4 -->
<g id="edge30" class="edge"><title>3&#45;&gt;4</title>
<path style="fill:none;stroke:black;" d="M241,-152C250,-148 260,-145 270,-148 275,-149 280,-152 284,-154"/>
<polygon style="fill:black;stroke:black;" points="282.738,-157.365 293,-160 286.621,-151.541 282.738,-157.365"/>
<text text-anchor="middle" x="266" y="-151.9" style="font-family:Times New Roman;font-size:14.00;">d</text>
</g>
<!-- 3&#45;&gt;4 -->
<g id="edge32" class="edge"><title>3&#45;&gt;4</title>
<path style="fill:none;stroke:black;" d="M233,-145C242,-131 256,-116 270,-124 280,-129 288,-137 294,-146"/>
<polygon style="fill:black;stroke:black;" points="291.2,-148.1 300,-154 296.8,-143.9 291.2,-148.1"/>
<text text-anchor="middle" x="266" y="-127.9" style="font-family:Times New Roman;font-size:14.00;">c</text>
</g>
<!-- 3&#45;&gt;2 -->
<g id="edge28" class="edge"><title>3&#45;&gt;2</title>
<path style="fill:none;stroke:black;" d="M207,-148C200,-140 191,-132 182,-126 176,-121 169,-117 163,-113"/>
<polygon style="fill:black;stroke:black;" points="164.441,-109.797 154,-108 161.042,-115.916 164.441,-109.797"/>
<text text-anchor="middle" x="178" y="-129.9" style="font-family:Times New Roman;font-size:14.00;">b</text>
</g>
<!-- 4&#45;&gt;4 -->
<g id="edge34" class="edge"><title>4&#45;&gt;4</title>
<path style="fill:none;stroke:black;" d="M309,-196C308,-206 309,-214 310,-214 311,-214 311,-211 311,-206"/>
<polygon style="fill:black;stroke:black;" points="314.5,-206 311,-196 307.5,-206 314.5,-206"/>
<text text-anchor="middle" x="310" y="-217.9" style="font-family:Times New Roman;font-size:14.00;">f</text>
</g>
<!-- 4&#45;&gt;4 -->
<g id="edge36" class="edge"><title>4&#45;&gt;4</title>
<path style="fill:none;stroke:black;" d="M306,-196C304,-213 305,-232 310,-232 314,-232 315,-220 315,-206"/>
<polygon style="fill:black;stroke:black;" points="318.478,-205.602 314,-196 311.512,-206.299 318.478,-205.602"/>
<text text-anchor="middle" x="310" y="-235.9" style="font-family:Times New Roman;font-size:14.00;">a</text>
</g>
<!-- 4&#45;&gt;4 -->
<g id="edge38" class="edge"><title>4&#45;&gt;4</title>
<path style="fill:none;stroke:black;" d="M305,-196C302,-221 303,-250 310,-250 316,-250 318,-228 316,-206"/>
<polygon style="fill:black;stroke:black;" points="319.478,-205.602 315,-196 312.512,-206.299 319.478,-205.602"/>
<text text-anchor="middle" x="310" y="-253.9" style="font-family:Times New Roman;font-size:14.00;">b</text>
</g>
<!-- 4&#45;&gt;4 -->
<g id="edge40" class="edge"><title>4&#45;&gt;4</title>
<path style="fill:none;stroke:black;" d="M305,-196C299,-228 301,-268 310,-268 318,-268 321,-236 317,-206"/>
<polygon style="fill:black;stroke:black;" points="320.393,-205.119 315,-196 313.529,-206.492 320.393,-205.119"/>
<text text-anchor="middle" x="310" y="-271.9" style="font-family:Times New Roman;font-size:14.00;">d</text>
</g>
<!-- 4&#45;&gt;4 -->
<g id="edge42" class="edge"><title>4&#45;&gt;4</title>
<path style="fill:none;stroke:black;" d="M305,-195C297,-234 299,-286 310,-286 320,-286 323,-243 317,-205"/>
<polygon style="fill:black;stroke:black;" points="320.393,-204.119 315,-195 313.529,-205.492 320.393,-204.119"/>
<text text-anchor="middle" x="310" y="-289.9" style="font-family:Times New Roman;font-size:14.00;">c</text>
</g>
<!-- 2&#45;&gt;3 -->
<g id="edge16" class="edge"><title>2&#45;&gt;3</title>
<path style="fill:none;stroke:black;" d="M146,-115C152,-126 162,-141 174,-150 179,-153 184,-155 190,-157"/>
<polygon style="fill:black;stroke:black;" points="189.416,-160.479 200,-160 191.427,-153.774 189.416,-160.479"/>
<text text-anchor="middle" x="178" y="-156.9" style="font-family:Times New Roman;font-size:14.00;">a</text>
</g>
<!-- 2&#45;&gt;4 -->
<g id="edge22" class="edge"><title>2&#45;&gt;4</title>
<path style="fill:none;stroke:black;" d="M156,-97C183,-95 235,-95 270,-116 281,-123 290,-134 296,-145"/>
<polygon style="fill:black;stroke:black;" points="293.084,-146.958 301,-154 299.203,-143.559 293.084,-146.958"/>
<text text-anchor="middle" x="222" y="-107.9" style="font-family:Times New Roman;font-size:14.00;">c</text>
</g>
<!-- 2&#45;&gt;4 -->
<g id="edge14" class="edge"><title>2&#45;&gt;4</title>
<path style="fill:none;stroke:black;" d="M152,-87C164,-78 182,-66 200,-60 231,-52 247,-46 270,-67 292,-86 301,-118 306,-142"/>
<polygon style="fill:black;stroke:black;" points="302.607,-142.881 308,-152 309.471,-141.508 302.607,-142.881"/>
<text text-anchor="middle" x="222" y="-67.9" style="font-family:Times New Roman;font-size:14.00;">f</text>
</g>
<!-- 2&#45;&gt;4 -->
<g id="edge18" class="edge"><title>2&#45;&gt;4</title>
<path style="fill:none;stroke:black;" d="M147,-84C158,-67 177,-43 200,-33 218,-26 226,-26 244,-33 287,-50 302,-106 307,-142"/>
<polygon style="fill:black;stroke:black;" points="303.522,-142.398 308,-152 310.488,-141.701 303.522,-142.398"/>
<text text-anchor="middle" x="222" y="-40.9" style="font-family:Times New Roman;font-size:14.00;">b</text>
</g>
<!-- 2&#45;&gt;4 -->
<g id="edge20" class="edge"><title>2&#45;&gt;4</title>
<path style="fill:none;stroke:black;" d="M144,-82C152,-60 171,-23 200,-8 218,-0 227,-0 244,-8 261,-17 262,-25 270,-41 287,-74 298,-114 304,-142"/>
<polygon style="fill:black;stroke:black;" points="300.607,-142.881 306,-152 307.471,-141.508 300.607,-142.881"/>
<text text-anchor="middle" x="222" y="-15.9" style="font-family:Times New Roman;font-size:14.00;">d</text>
</g>
</g>
</svg>
