<?xml version="1.0" encoding="UTF-8" standalone="no"?>
<!DOCTYPE svg PUBLIC "-//W3C//DTD SVG 1.1//EN"
 "http://www.w3.org/Graphics/SVG/1.1/DTD/svg11.dtd">
<!-- Generated by graphviz version 12.2.1 (20241206.2353)
 -->
<!-- Title: g1 Pages: 1 -->
<svg width="257pt" height="140pt"
 viewBox="0.00 0.00 256.72 140.00" xmlns="http://www.w3.org/2000/svg" xmlns:xlink="http://www.w3.org/1999/xlink">
<g id="graph0" class="graph" transform="scale(1 1) rotate(0) translate(4 136)">
<title>g1</title>
<!-- dot_dummyinit_1 -->
<g id="node1" class="node">
<title>dot_dummyinit_1</title>
</g>
<!-- 1 -->
<g id="node2" class="node">
<title>1</title>
<ellipse fill="none" stroke="black" cx="59.72" cy="-63" rx="18" ry="18"/>
<ellipse fill="none" stroke="black" cx="59.72" cy="-63" rx="22" ry="22"/>
<text text-anchor="middle" x="59.72" y="-57.58" font-family="Arial" font-size="14.00">1</text>
</g>
<!-- dot_dummyinit_1&#45;&gt;1 -->
<g id="edge1" class="edge">
<title>dot_dummyinit_1&#45;&gt;1</title>
<path fill="none" stroke="black" d="M0.89,-63C2.38,-63 13.74,-63 26,-63"/>
<polygon fill="black" stroke="black" points="25.74,-66.5 35.74,-63 25.74,-59.5 25.74,-66.5"/>
</g>
<!-- 2 -->
<g id="node3" class="node">
<title>2</title>
<ellipse fill="none" stroke="black" cx="147.22" cy="-110" rx="18" ry="18"/>
<ellipse fill="none" stroke="black" cx="147.22" cy="-110" rx="22" ry="22"/>
<text text-anchor="middle" x="147.22" y="-104.58" font-family="Arial" font-size="14.00">2</text>
</g>
<!-- 1&#45;&gt;2 -->
<g id="edge2" class="edge">
<title>1&#45;&gt;2</title>
<path fill="none" stroke="black" d="M79.27,-73.2C90.4,-79.32 104.79,-87.22 117.37,-94.14"/>
<polygon fill="black" stroke="black" points="115.63,-97.18 126.08,-98.93 119.01,-91.05 115.63,-97.18"/>
<text text-anchor="middle" x="103.47" y="-90.36" font-family="Arial" font-size="14.00">a</text>
</g>
<!-- 4 -->
<g id="node5" class="node">
<title>4</title>
<ellipse fill="none" stroke="black" cx="147.22" cy="-18" rx="18" ry="18"/>
<text text-anchor="middle" x="147.22" y="-12.57" font-family="Arial" font-size="14.00">4</text>
</g>
<!-- 1&#45;&gt;4 -->
<g id="edge3" class="edge">
<title>1&#45;&gt;4</title>
<path fill="none" stroke="black" d="M79.7,-53.01C91.81,-46.64 107.65,-38.3 120.84,-31.36"/>
<polygon fill="black" stroke="black" points="122.17,-34.62 129.38,-26.86 118.91,-28.42 122.17,-34.62"/>
<text text-anchor="middle" x="103.47" y="-44.3" font-family="Arial" font-size="14.00">c</text>
</g>
<!-- 3 -->
<g id="node4" class="node">
<title>3</title>
<ellipse fill="none" stroke="black" cx="230.72" cy="-109" rx="18" ry="18"/>
<text text-anchor="middle" x="230.72" y="-103.58" font-family="Arial" font-size="14.00">3</text>
</g>
<!-- 2&#45;&gt;3 -->
<g id="edge4" class="edge">
<title>2&#45;&gt;3</title>
<path fill="none" stroke="black" d="M169.63,-109.74C179.19,-109.62 190.6,-109.48 200.89,-109.35"/>
<polygon fill="black" stroke="black" points="200.82,-112.85 210.78,-109.23 200.73,-105.86 200.82,-112.85"/>
<text text-anchor="middle" x="190.97" y="-111.95" font-family="Arial" font-size="14.00">a</text>
</g>
<!-- 3&#45;&gt;2 -->
<g id="edge5" class="edge">
<title>3&#45;&gt;2</title>
<path fill="none" stroke="black" d="M216.43,-97.5C208.28,-91.82 197.48,-86.69 187.22,-89.25 183.57,-90.16 179.89,-91.48 176.33,-93.02"/>
<polygon fill="black" stroke="black" points="174.85,-89.85 167.47,-97.45 177.98,-96.11 174.85,-89.85"/>
<text text-anchor="middle" x="190.97" y="-91.7" font-family="Arial" font-size="14.00">b</text>
</g>
<!-- 4&#45;&gt;4 -->
<g id="edge6" class="edge">
<title>4&#45;&gt;4</title>
<path fill="none" stroke="black" d="M139.53,-34.66C137.82,-44.62 140.38,-54 147.22,-54 151.28,-54 153.83,-50.69 154.88,-45.92"/>
<polygon fill="black" stroke="black" points="158.38,-46.19 154.91,-36.18 151.38,-46.17 158.38,-46.19"/>
<text text-anchor="middle" x="147.22" y="-56.45" font-family="Arial" font-size="14.00">d</text>
</g>
</g>
</svg>
