<?xml version="1.0" encoding="UTF-8" standalone="no"?>
<!DOCTYPE svg PUBLIC "-//W3C//DTD SVG 1.0//EN"
 "http://www.w3.org/TR/2001/REC-SVG-20010904/DTD/svg10.dtd" [
 <!ATTLIST svg xmlns:xlink CDATA #FIXED "http://www.w3.org/1999/xlink">
]>
<!-- Generated by Graphviz version 2.20.2 (Tue Mar &#160;2 21:46:26 UTC 2010)
     For user: (mtmoor) Prof. Thomas Moor -->
<!-- Title: g1 Pages: 1 -->
<svg width="254pt" height="106pt"
 viewBox="0.00 0.00 254.00 106.00" xmlns="http://www.w3.org/2000/svg" xmlns:xlink="http://www.w3.org/1999/xlink">
<g id="graph0" class="graph" transform="scale(1 1) rotate(0) translate(4 102)">
<title>g1</title>
<polygon style="fill:none;stroke:none;" points="-4,4 -4,-102 250,-102 250,4 -4,4"/>
<!-- dot_dummyinit_1 -->
<g id="node1" class="node"><title>dot_dummyinit_1</title>
</g>
<!-- 1 -->
<g id="node3" class="node"><title>1</title>
<ellipse style="fill:none;stroke:black;" cx="58" cy="-47" rx="18" ry="18"/>
<text text-anchor="middle" x="58" y="-42.9" style="font-family:Times New Roman;font-size:14.00;">1</text>
</g>
<!-- dot_dummyinit_1&#45;&gt;1 -->
<g id="edge2" class="edge"><title>dot_dummyinit_1&#45;&gt;1</title>
<path style="fill:none;stroke:black;" d="M2,-47C6,-47 18,-47 30,-47"/>
<polygon style="fill:black;stroke:black;" points="30,-50.5001 40,-47 30,-43.5001 30,-50.5001"/>
</g>
<!-- 2 -->
<g id="node5" class="node"><title>2</title>
<ellipse style="fill:none;stroke:black;" cx="138" cy="-47" rx="18" ry="18"/>
<text text-anchor="middle" x="138" y="-42.9" style="font-family:Times New Roman;font-size:14.00;">2</text>
</g>
<!-- 1&#45;&gt;2 -->
<g id="edge4" class="edge"><title>1&#45;&gt;2</title>
<path style="fill:none;stroke:black;" d="M76,-47C86,-47 99,-47 110,-47"/>
<polygon style="fill:black;stroke:black;" points="110,-50.5001 120,-47 110,-43.5001 110,-50.5001"/>
<text text-anchor="middle" x="98" y="-50.9" style="font-family:Times New Roman;font-size:14.00;">d</text>
</g>
<!-- 3 -->
<g id="node4" class="node"><title>3</title>
<ellipse style="fill:none;stroke:black;" cx="224" cy="-76" rx="18" ry="18"/>
<ellipse style="fill:none;stroke:black;" cx="224" cy="-76" rx="22" ry="22"/>
<text text-anchor="middle" x="224" y="-71.9" style="font-family:Times New Roman;font-size:14.00;">3</text>
</g>
<!-- 2&#45;&gt;3 -->
<g id="edge8" class="edge"><title>2&#45;&gt;3</title>
<path style="fill:none;stroke:black;" d="M155,-53C166,-56 181,-61 193,-66"/>
<polygon style="fill:black;stroke:black;" points="192.416,-69.4788 203,-69 194.427,-62.7741 192.416,-69.4788"/>
<text text-anchor="middle" x="179" y="-64.9" style="font-family:Times New Roman;font-size:14.00;">u</text>
</g>
<!-- 4 -->
<g id="node6" class="node"><title>4</title>
<ellipse style="fill:none;stroke:black;" cx="224" cy="-18" rx="18" ry="18"/>
<text text-anchor="middle" x="224" y="-13.9" style="font-family:Times New Roman;font-size:14.00;">4</text>
</g>
<!-- 2&#45;&gt;4 -->
<g id="edge6" class="edge"><title>2&#45;&gt;4</title>
<path style="fill:none;stroke:black;" d="M155,-41C167,-37 183,-32 197,-27"/>
<polygon style="fill:black;stroke:black;" points="198.427,-30.2259 207,-24 196.416,-23.5212 198.427,-30.2259"/>
<text text-anchor="middle" x="179" y="-37.9" style="font-family:Times New Roman;font-size:14.00;">a</text>
</g>
</g>
</svg>
