<?xml version="1.0" encoding="UTF-8" standalone="no"?>
<!DOCTYPE svg PUBLIC "-//W3C//DTD SVG 1.0//EN"
 "http://www.w3.org/TR/2001/REC-SVG-20010904/DTD/svg10.dtd" [
 <!ATTLIST svg xmlns:xlink CDATA #FIXED "http://www.w3.org/1999/xlink">
]>
<!-- Generated by Graphviz version 2.20.2 (Tue Mar &#160;2 21:46:26 UTC 2010)
     For user: (mtmoor) Prof. Thomas Moor -->
<!-- Title: G1||G2 Pages: 1 -->
<svg width="608pt" height="293pt"
 viewBox="0.00 0.00 608.00 293.00" xmlns="http://www.w3.org/2000/svg" xmlns:xlink="http://www.w3.org/1999/xlink">
<g id="graph0" class="graph" transform="scale(1 1) rotate(0) translate(4 289)">
<title>G1||G2</title>
<polygon style="fill:none;stroke:none;" points="-4,4 -4,-289 604,-289 604,4 -4,4"/>
<!-- dot_dummyinit_1 -->
<g id="node1" class="node"><title>dot_dummyinit_1</title>
</g>
<!-- 1|1 -->
<g id="node3" class="node"><title>1|1</title>
<ellipse style="fill:none;stroke:black;" cx="67" cy="-70" rx="27.1004" ry="27.1004"/>
<text text-anchor="middle" x="67" y="-65.9" style="font-family:Times New Roman;font-size:14.00;">1|1</text>
</g>
<!-- dot_dummyinit_1&#45;&gt;1|1 -->
<g id="edge2" class="edge"><title>dot_dummyinit_1&#45;&gt;1|1</title>
<path style="fill:none;stroke:black;" d="M2,-70C6,-70 17,-70 30,-70"/>
<polygon style="fill:black;stroke:black;" points="30,-73.5001 40,-70 30,-66.5001 30,-73.5001"/>
</g>
<!-- 1|2 -->
<g id="node4" class="node"><title>1|2</title>
<ellipse style="fill:none;stroke:black;" cx="169" cy="-187" rx="27.1004" ry="27.1004"/>
<ellipse style="fill:none;stroke:black;" cx="169" cy="-187" rx="31.1004" ry="31.1004"/>
<text text-anchor="middle" x="169" y="-182.9" style="font-family:Times New Roman;font-size:14.00;">1|2</text>
</g>
<!-- 1|1&#45;&gt;1|2 -->
<g id="edge6" class="edge"><title>1|1&#45;&gt;1|2</title>
<path style="fill:none;stroke:black;" d="M85,-90C101,-109 124,-135 141,-155"/>
<polygon style="fill:black;stroke:black;" points="138.781,-157.779 148,-163 144.049,-153.169 138.781,-157.779"/>
<text text-anchor="middle" x="116" y="-131.9" style="font-family:Times New Roman;font-size:14.00;">a</text>
</g>
<!-- 2|1 -->
<g id="node6" class="node"><title>2|1</title>
<ellipse style="fill:none;stroke:black;" cx="377" cy="-27" rx="27.1004" ry="27.1004"/>
<text text-anchor="middle" x="377" y="-22.9" style="font-family:Times New Roman;font-size:14.00;">2|1</text>
</g>
<!-- 1|1&#45;&gt;2|1 -->
<g id="edge4" class="edge"><title>1|1&#45;&gt;2|1</title>
<path style="fill:none;stroke:black;" d="M94,-66C149,-58 277,-41 340,-32"/>
<polygon style="fill:black;stroke:black;" points="340.398,-35.4778 350,-31 339.701,-28.5125 340.398,-35.4778"/>
<text text-anchor="middle" x="222" y="-51.9" style="font-family:Times New Roman;font-size:14.00;">g</text>
</g>
<!-- 1|2&#45;&gt;1|2 -->
<g id="edge16" class="edge"><title>1|2&#45;&gt;1|2</title>
<path style="fill:none;stroke:black;" d="M159,-217C159,-227 162,-236 169,-236 173,-236 176,-232 178,-227"/>
<polygon style="fill:black;stroke:black;" points="181.488,-227.299 179,-217 174.522,-226.602 181.488,-227.299"/>
<text text-anchor="middle" x="169" y="-239.9" style="font-family:Times New Roman;font-size:14.00;">a</text>
</g>
<!-- 2|2 -->
<g id="node5" class="node"><title>2|2</title>
<ellipse style="fill:none;stroke:black;" cx="275" cy="-145" rx="27.1004" ry="27.1004"/>
<ellipse style="fill:none;stroke:black;" cx="275" cy="-145" rx="31.1004" ry="31.1004"/>
<text text-anchor="middle" x="275" y="-140.9" style="font-family:Times New Roman;font-size:14.00;">2|2</text>
</g>
<!-- 1|2&#45;&gt;2|2 -->
<g id="edge14" class="edge"><title>1|2&#45;&gt;2|2</title>
<path style="fill:none;stroke:black;" d="M198,-176C210,-171 224,-165 237,-160"/>
<polygon style="fill:black;stroke:black;" points="238.283,-163.26 246,-156 235.44,-156.863 238.283,-163.26"/>
<text text-anchor="middle" x="222" y="-168.9" style="font-family:Times New Roman;font-size:14.00;">g</text>
</g>
<!-- 2|2&#45;&gt;2|1 -->
<g id="edge22" class="edge"><title>2|2&#45;&gt;2|1</title>
<path style="fill:none;stroke:black;" d="M295,-121C312,-102 335,-75 352,-55"/>
<polygon style="fill:black;stroke:black;" points="355.049,-56.8306 359,-47 349.781,-52.221 355.049,-56.8306"/>
<text text-anchor="middle" x="328" y="-91.9" style="font-family:Times New Roman;font-size:14.00;">b</text>
</g>
<!-- 3|2 -->
<g id="node7" class="node"><title>3|2</title>
<ellipse style="fill:none;stroke:black;" cx="475" cy="-151" rx="27.1004" ry="27.1004"/>
<text text-anchor="middle" x="475" y="-146.9" style="font-family:Times New Roman;font-size:14.00;">3|2</text>
</g>
<!-- 2|2&#45;&gt;3|2 -->
<g id="edge18" class="edge"><title>2|2&#45;&gt;3|2</title>
<path style="fill:none;stroke:black;" d="M306,-146C342,-147 400,-149 438,-150"/>
<polygon style="fill:black;stroke:black;" points="438,-153.5 448,-150 438,-146.5 438,-153.5"/>
<text text-anchor="middle" x="377" y="-150.9" style="font-family:Times New Roman;font-size:14.00;">g</text>
</g>
<!-- 2|2&#45;&gt;3|2 -->
<g id="edge20" class="edge"><title>2|2&#45;&gt;3|2</title>
<path style="fill:none;stroke:black;" d="M304,-135C331,-127 370,-118 404,-125 416,-127 430,-131 441,-135"/>
<polygon style="fill:black;stroke:black;" points="440.415,-138.536 451,-139 443.015,-132.036 440.415,-138.536"/>
<text text-anchor="middle" x="377" y="-128.9" style="font-family:Times New Roman;font-size:14.00;">a</text>
</g>
<!-- 2|1&#45;&gt;2|1 -->
<g id="edge12" class="edge"><title>2|1&#45;&gt;2|1</title>
<path style="fill:none;stroke:black;" d="M368,-53C368,-63 371,-72 377,-72 381,-72 383,-68 385,-63"/>
<polygon style="fill:black;stroke:black;" points="388.488,-63.2987 386,-53 381.522,-62.6021 388.488,-63.2987"/>
<text text-anchor="middle" x="377" y="-75.9" style="font-family:Times New Roman;font-size:14.00;">b</text>
</g>
<!-- 2|1&#45;&gt;3|2 -->
<g id="edge10" class="edge"><title>2|1&#45;&gt;3|2</title>
<path style="fill:none;stroke:black;" d="M394,-48C405,-61 418,-79 430,-94 438,-103 445,-113 452,-121"/>
<polygon style="fill:black;stroke:black;" points="449.781,-123.779 459,-129 455.049,-119.169 449.781,-123.779"/>
<text text-anchor="middle" x="426" y="-97.9" style="font-family:Times New Roman;font-size:14.00;">a</text>
</g>
<!-- 3|1 -->
<g id="node8" class="node"><title>3|1</title>
<ellipse style="fill:none;stroke:black;" cx="573" cy="-151" rx="27.1004" ry="27.1004"/>
<text text-anchor="middle" x="573" y="-146.9" style="font-family:Times New Roman;font-size:14.00;">3|1</text>
</g>
<!-- 2|1&#45;&gt;3|1 -->
<g id="edge8" class="edge"><title>2|1&#45;&gt;3|1</title>
<path style="fill:none;stroke:black;" d="M401,-39C427,-53 468,-76 502,-98 516,-107 531,-118 544,-128"/>
<polygon style="fill:black;stroke:black;" points="541.9,-130.8 552,-134 546.1,-125.2 541.9,-130.8"/>
<text text-anchor="middle" x="475" y="-101.9" style="font-family:Times New Roman;font-size:14.00;">g</text>
</g>
<!-- 3|2&#45;&gt;1|2 -->
<g id="edge24" class="edge"><title>3|2&#45;&gt;1|2</title>
<path style="fill:none;stroke:black;" d="M449,-158C435,-161 419,-165 404,-168 361,-176 351,-180 306,-185 274,-188 237,-188 210,-188"/>
<polygon style="fill:black;stroke:black;" points="210,-184.5 200,-188 210,-191.5 210,-184.5"/>
<text text-anchor="middle" x="328" y="-185.9" style="font-family:Times New Roman;font-size:14.00;">a</text>
</g>
<!-- 3|2&#45;&gt;3|1 -->
<g id="edge26" class="edge"><title>3|2&#45;&gt;3|1</title>
<path style="fill:none;stroke:black;" d="M502,-151C513,-151 525,-151 536,-151"/>
<polygon style="fill:black;stroke:black;" points="536,-154.5 546,-151 536,-147.5 536,-154.5"/>
<text text-anchor="middle" x="524" y="-154.9" style="font-family:Times New Roman;font-size:14.00;">b</text>
</g>
<!-- 3|1&#45;&gt;1|2 -->
<g id="edge28" class="edge"><title>3|1&#45;&gt;1|2</title>
<path style="fill:none;stroke:black;" d="M565,-177C552,-212 523,-269 475,-269 275,-269 275,-269 275,-269 242,-269 213,-243 193,-221"/>
<polygon style="fill:black;stroke:black;" points="195.8,-218.9 187,-213 190.2,-223.1 195.8,-218.9"/>
<text text-anchor="middle" x="377" y="-272.9" style="font-family:Times New Roman;font-size:14.00;">a</text>
</g>
<!-- 3|1&#45;&gt;3|1 -->
<g id="edge30" class="edge"><title>3|1&#45;&gt;3|1</title>
<path style="fill:none;stroke:black;" d="M564,-177C564,-187 567,-196 573,-196 577,-196 579,-192 581,-187"/>
<polygon style="fill:black;stroke:black;" points="584.488,-187.299 582,-177 577.522,-186.602 584.488,-187.299"/>
<text text-anchor="middle" x="573" y="-199.9" style="font-family:Times New Roman;font-size:14.00;">b</text>
</g>
</g>
</svg>
