<?xml version="1.0" encoding="UTF-8" standalone="no"?>
<!DOCTYPE svg PUBLIC "-//W3C//DTD SVG 1.1//EN"
 "http://www.w3.org/Graphics/SVG/1.1/DTD/svg11.dtd">
<!-- Generated by graphviz version 12.2.1 (20241206.2353)
 -->
<!-- Title: Concatenate(g5,g6) Pages: 1 -->
<svg width="415pt" height="52pt"
 viewBox="0.00 0.00 414.97 52.00" xmlns="http://www.w3.org/2000/svg" xmlns:xlink="http://www.w3.org/1999/xlink">
<g id="graph0" class="graph" transform="scale(1 1) rotate(0) translate(4 48)">
<title>Concatenate(g5,g6)</title>
<!-- dot_dummyinit_1 -->
<g id="node1" class="node">
<title>dot_dummyinit_1</title>
</g>
<!-- 1 -->
<g id="node2" class="node">
<title>1</title>
<ellipse fill="none" stroke="black" cx="55.72" cy="-22" rx="18" ry="18"/>
<text text-anchor="middle" x="55.72" y="-16.57" font-family="Arial" font-size="14.00">1</text>
</g>
<!-- dot_dummyinit_1&#45;&gt;1 -->
<g id="edge1" class="edge">
<title>dot_dummyinit_1&#45;&gt;1</title>
<path fill="none" stroke="black" d="M0.87,-22C2.34,-22 13.93,-22 25.99,-22"/>
<polygon fill="black" stroke="black" points="25.86,-25.5 35.86,-22 25.86,-18.5 25.86,-25.5"/>
</g>
<!-- 2 -->
<g id="node5" class="node">
<title>2</title>
<ellipse fill="none" stroke="black" cx="135.22" cy="-22" rx="18" ry="18"/>
<text text-anchor="middle" x="135.22" y="-16.57" font-family="Arial" font-size="14.00">2</text>
</g>
<!-- 1&#45;&gt;2 -->
<g id="edge2" class="edge">
<title>1&#45;&gt;2</title>
<path fill="none" stroke="black" d="M73.92,-22C83.19,-22 94.86,-22 105.47,-22"/>
<polygon fill="black" stroke="black" points="105.29,-25.5 115.29,-22 105.29,-18.5 105.29,-25.5"/>
<text text-anchor="middle" x="95.47" y="-24.45" font-family="Arial" font-size="14.00">a</text>
</g>
<!-- 3 -->
<g id="node3" class="node">
<title>3</title>
<ellipse fill="none" stroke="black" cx="218.72" cy="-22" rx="18" ry="18"/>
<ellipse fill="none" stroke="black" cx="218.72" cy="-22" rx="22" ry="22"/>
<text text-anchor="middle" x="218.72" y="-16.57" font-family="Arial" font-size="14.00">3</text>
</g>
<!-- 3&#45;&gt;2 -->
<g id="edge4" class="edge">
<title>3&#45;&gt;2</title>
<path fill="none" stroke="black" d="M200.91,-8.94C192.25,-3.75 181.4,0.42 171.22,-2.25 167.58,-3.21 163.91,-4.64 160.4,-6.3"/>
<polygon fill="black" stroke="black" points="158.89,-3.14 151.81,-11.02 162.26,-9.28 158.89,-3.14"/>
<text text-anchor="middle" x="174.97" y="-4.7" font-family="Arial" font-size="14.00">a</text>
</g>
<!-- 4 -->
<g id="node6" class="node">
<title>4</title>
<ellipse fill="none" stroke="black" cx="301.47" cy="-22" rx="18" ry="18"/>
<text text-anchor="middle" x="301.47" y="-16.57" font-family="Arial" font-size="14.00">4</text>
</g>
<!-- 3&#45;&gt;4 -->
<g id="edge5" class="edge">
<title>3&#45;&gt;4</title>
<path fill="none" stroke="black" d="M240.94,-22C250.41,-22 261.71,-22 271.91,-22"/>
<polygon fill="black" stroke="black" points="271.69,-25.5 281.69,-22 271.69,-18.5 271.69,-25.5"/>
<text text-anchor="middle" x="262.1" y="-24.45" font-family="Arial" font-size="14.00">c</text>
</g>
<!-- 5 -->
<g id="node4" class="node">
<title>5</title>
<ellipse fill="none" stroke="black" cx="384.97" cy="-22" rx="18" ry="18"/>
<ellipse fill="none" stroke="black" cx="384.97" cy="-22" rx="22" ry="22"/>
<text text-anchor="middle" x="384.97" y="-16.57" font-family="Arial" font-size="14.00">5</text>
</g>
<!-- 5&#45;&gt;4 -->
<g id="edge7" class="edge">
<title>5&#45;&gt;4</title>
<path fill="none" stroke="black" d="M367.16,-8.94C358.5,-3.75 347.65,0.42 337.47,-2.25 333.83,-3.21 330.16,-4.64 326.65,-6.3"/>
<polygon fill="black" stroke="black" points="325.14,-3.14 318.06,-11.02 328.51,-9.28 325.14,-3.14"/>
<text text-anchor="middle" x="341.22" y="-4.7" font-family="Arial" font-size="14.00">c</text>
</g>
<!-- 2&#45;&gt;3 -->
<g id="edge3" class="edge">
<title>2&#45;&gt;3</title>
<path fill="none" stroke="black" d="M153.5,-22C162.7,-22 174.32,-22 185.13,-22"/>
<polygon fill="black" stroke="black" points="184.89,-25.5 194.89,-22 184.89,-18.5 184.89,-25.5"/>
<text text-anchor="middle" x="174.97" y="-24.45" font-family="Arial" font-size="14.00">b</text>
</g>
<!-- 4&#45;&gt;5 -->
<g id="edge6" class="edge">
<title>4&#45;&gt;5</title>
<path fill="none" stroke="black" d="M319.75,-22C328.95,-22 340.57,-22 351.38,-22"/>
<polygon fill="black" stroke="black" points="351.14,-25.5 361.14,-22 351.14,-18.5 351.14,-25.5"/>
<text text-anchor="middle" x="341.22" y="-24.45" font-family="Arial" font-size="14.00">b</text>
</g>
</g>
</svg>
