<?xml version="1.0" encoding="UTF-8" standalone="no"?>
<!DOCTYPE svg PUBLIC "-//W3C//DTD SVG 1.1//EN"
 "http://www.w3.org/Graphics/SVG/1.1/DTD/svg11.dtd">
<!-- Generated by graphviz version 12.2.1 (20241206.2353)
 -->
<!-- Title: SelfLoop(g,NameSet,InitStates) Pages: 1 -->
<svg width="336pt" height="147pt"
 viewBox="0.00 0.00 336.22 146.50" xmlns="http://www.w3.org/2000/svg" xmlns:xlink="http://www.w3.org/1999/xlink">
<g id="graph0" class="graph" transform="scale(1 1) rotate(0) translate(4 142.5)">
<title>SelfLoop(g,NameSet,InitStates)</title>
<!-- dot_dummyinit_1 -->
<g id="node1" class="node">
<title>dot_dummyinit_1</title>
</g>
<!-- 1 -->
<g id="node2" class="node">
<title>1</title>
<ellipse fill="none" stroke="black" cx="55.72" cy="-53" rx="18" ry="18"/>
<text text-anchor="middle" x="55.72" y="-47.58" font-family="Arial" font-size="14.00">1</text>
</g>
<!-- dot_dummyinit_1&#45;&gt;1 -->
<g id="edge1" class="edge">
<title>dot_dummyinit_1&#45;&gt;1</title>
<path fill="none" stroke="black" d="M0.87,-53C2.34,-53 13.93,-53 25.99,-53"/>
<polygon fill="black" stroke="black" points="25.86,-56.5 35.86,-53 25.86,-49.5 25.86,-56.5"/>
</g>
<!-- 1&#45;&gt;1 -->
<g id="edge2" class="edge">
<title>1&#45;&gt;1</title>
<path fill="none" stroke="black" d="M52.42,-71.15C51.91,-80.54 53.01,-89 55.72,-89 57.2,-89 58.2,-86.47 58.72,-82.64"/>
<polygon fill="black" stroke="black" points="62.22,-82.75 58.98,-72.67 55.22,-82.57 62.22,-82.75"/>
<text text-anchor="middle" x="55.72" y="-91.45" font-family="Arial" font-size="14.00">f</text>
</g>
<!-- 1&#45;&gt;1 -->
<g id="edge4" class="edge">
<title>1&#45;&gt;1</title>
<path fill="none" stroke="black" d="M50.33,-70.42C47.26,-87.79 49.05,-107 55.72,-107 60.98,-107 63.21,-95.04 62.4,-81.46"/>
<polygon fill="black" stroke="black" points="65.93,-81.45 61.29,-71.92 58.97,-82.26 65.93,-81.45"/>
<text text-anchor="middle" x="55.72" y="-109.45" font-family="Arial" font-size="14.00">e</text>
</g>
<!-- 2 -->
<g id="node6" class="node">
<title>2</title>
<ellipse fill="none" stroke="black" cx="135.22" cy="-53" rx="18" ry="18"/>
<text text-anchor="middle" x="135.22" y="-47.58" font-family="Arial" font-size="14.00">2</text>
</g>
<!-- 1&#45;&gt;2 -->
<g id="edge3" class="edge">
<title>1&#45;&gt;2</title>
<path fill="none" stroke="black" d="M73.92,-53C83.19,-53 94.86,-53 105.47,-53"/>
<polygon fill="black" stroke="black" points="105.29,-56.5 115.29,-53 105.29,-49.5 105.29,-56.5"/>
<text text-anchor="middle" x="95.47" y="-55.45" font-family="Arial" font-size="14.00">a</text>
</g>
<!-- 3 -->
<g id="node3" class="node">
<title>3</title>
<ellipse fill="none" stroke="black" cx="218.72" cy="-84" rx="18" ry="18"/>
<ellipse fill="none" stroke="black" cx="218.72" cy="-84" rx="22" ry="22"/>
<text text-anchor="middle" x="218.72" y="-78.58" font-family="Arial" font-size="14.00">3</text>
</g>
<!-- 4 -->
<g id="node4" class="node">
<title>4</title>
<ellipse fill="none" stroke="black" cx="218.72" cy="-22" rx="18" ry="18"/>
<ellipse fill="none" stroke="black" cx="218.72" cy="-22" rx="22" ry="22"/>
<text text-anchor="middle" x="218.72" y="-16.57" font-family="Arial" font-size="14.00">4</text>
</g>
<!-- 5 -->
<g id="node5" class="node">
<title>5</title>
<ellipse fill="none" stroke="black" cx="306.22" cy="-22" rx="18" ry="18"/>
<ellipse fill="none" stroke="black" cx="306.22" cy="-22" rx="22" ry="22"/>
<text text-anchor="middle" x="306.22" y="-16.57" font-family="Arial" font-size="14.00">5</text>
</g>
<!-- 4&#45;&gt;5 -->
<g id="edge7" class="edge">
<title>4&#45;&gt;5</title>
<path fill="none" stroke="black" d="M240.85,-22C250.34,-22 261.75,-22 272.32,-22"/>
<polygon fill="black" stroke="black" points="272.22,-25.5 282.22,-22 272.22,-18.5 272.22,-25.5"/>
<text text-anchor="middle" x="262.47" y="-24.45" font-family="Arial" font-size="14.00">d</text>
</g>
<!-- 2&#45;&gt;3 -->
<g id="edge5" class="edge">
<title>2&#45;&gt;3</title>
<path fill="none" stroke="black" d="M152.32,-59.12C162.27,-62.91 175.35,-67.88 187.2,-72.39"/>
<polygon fill="black" stroke="black" points="185.6,-75.53 196.19,-75.81 188.09,-68.98 185.6,-75.53"/>
<text text-anchor="middle" x="174.97" y="-70.95" font-family="Arial" font-size="14.00">b</text>
</g>
<!-- 2&#45;&gt;4 -->
<g id="edge6" class="edge">
<title>2&#45;&gt;4</title>
<path fill="none" stroke="black" d="M152.32,-46.88C162.27,-43.09 175.35,-38.12 187.2,-33.61"/>
<polygon fill="black" stroke="black" points="188.09,-37.02 196.19,-30.19 185.6,-30.47 188.09,-37.02"/>
<text text-anchor="middle" x="174.97" y="-41.81" font-family="Arial" font-size="14.00">c</text>
</g>
</g>
</svg>
