<?xml version="1.0" encoding="UTF-8" standalone="no"?>
<!DOCTYPE svg PUBLIC "-//W3C//DTD SVG 1.0//EN"
 "http://www.w3.org/TR/2001/REC-SVG-20010904/DTD/svg10.dtd" [
 <!ATTLIST svg xmlns:xlink CDATA #FIXED "http://www.w3.org/1999/xlink">
]>
<!-- Generated by Graphviz version 2.20.2 (Tue Mar &#160;2 21:46:26 UTC 2010)
     For user: (mtmoor) Prof. Thomas Moor -->
<!-- Title: GSigoCompleteB Pages: 1 -->
<svg width="708pt" height="137pt"
 viewBox="0.00 0.00 708.00 137.00" xmlns="http://www.w3.org/2000/svg" xmlns:xlink="http://www.w3.org/1999/xlink">
<g id="graph0" class="graph" transform="scale(1 1) rotate(0) translate(4 133)">
<title>GSigoCompleteB</title>
<polygon style="fill:none;stroke:none;" points="-4,4 -4,-133 704,-133 704,4 -4,4"/>
<!-- dot_dummyinit_1 -->
<g id="node1" class="node"><title>dot_dummyinit_1</title>
</g>
<!-- s1 -->
<g id="node3" class="node"><title>s1</title>
<ellipse style="fill:none;stroke:black;" cx="136" cy="-26" rx="22.2362" ry="22.2362"/>
<text text-anchor="middle" x="136" y="-21.9" style="font-family:Times New Roman;font-size:14.00;">s1</text>
</g>
<!-- dot_dummyinit_1&#45;&gt;s1 -->
<g id="edge2" class="edge"><title>dot_dummyinit_1&#45;&gt;s1</title>
<path style="fill:none;stroke:black;" d="M33,-26C40,-26 76,-26 104,-26"/>
<polygon style="fill:black;stroke:black;" points="104,-29.5001 114,-26 104,-22.5001 104,-29.5001"/>
</g>
<!-- s2 -->
<g id="node4" class="node"><title>s2</title>
<ellipse style="fill:none;stroke:black;" cx="234" cy="-26" rx="22.2362" ry="22.2362"/>
<ellipse style="fill:none;stroke:black;" cx="234" cy="-26" rx="26.2362" ry="26.2362"/>
<text text-anchor="middle" x="234" y="-21.9" style="font-family:Times New Roman;font-size:14.00;">s2</text>
</g>
<!-- s1&#45;&gt;s2 -->
<g id="edge4" class="edge"><title>s1&#45;&gt;s2</title>
<path style="fill:none;stroke:black;" d="M158,-26C170,-26 184,-26 198,-26"/>
<polygon style="fill:black;stroke:black;" points="198,-29.5001 208,-26 198,-22.5001 198,-29.5001"/>
<text text-anchor="middle" x="186" y="-30.9" style="font-family:Times New Roman;font-size:14.00;">a</text>
</g>
<!-- s2&#45;&gt;s1 -->
<g id="edge8" class="edge"><title>s2&#45;&gt;s1</title>
<path style="fill:none;stroke:black;" d="M211,-13C205,-10 197,-7 190,-5 181,-4 172,-6 163,-9"/>
<polygon style="fill:black;stroke:black;" points="161.717,-5.74021 154,-13 164.56,-12.1369 161.717,-5.74021"/>
<text text-anchor="middle" x="186" y="-10.9" style="font-family:Times New Roman;font-size:14.00;">b</text>
</g>
<!-- s3 -->
<g id="node6" class="node"><title>s3</title>
<ellipse style="fill:none;stroke:black;" cx="326" cy="-26" rx="22.2362" ry="22.2362"/>
<text text-anchor="middle" x="326" y="-21.9" style="font-family:Times New Roman;font-size:14.00;">s3</text>
</g>
<!-- s2&#45;&gt;s3 -->
<g id="edge6" class="edge"><title>s2&#45;&gt;s3</title>
<path style="fill:none;stroke:black;" d="M260,-26C271,-26 283,-26 294,-26"/>
<polygon style="fill:black;stroke:black;" points="294,-29.5001 304,-26 294,-22.5001 294,-29.5001"/>
<text text-anchor="middle" x="282" y="-30.9" style="font-family:Times New Roman;font-size:14.00;">a</text>
</g>
<!-- s20 -->
<g id="node5" class="node"><title>s20</title>
<ellipse style="fill:none;stroke:black;" cx="32" cy="-92" rx="28.0519" ry="28.0519"/>
<ellipse style="fill:none;stroke:black;" cx="32" cy="-92" rx="31.9903" ry="31.9903"/>
<text text-anchor="middle" x="32" y="-87.9" style="font-family:Times New Roman;font-size:14.00;">s20</text>
</g>
<!-- s21 -->
<g id="node11" class="node"><title>s21</title>
<ellipse style="fill:none;stroke:black;" cx="136" cy="-101" rx="27.9903" ry="27.9903"/>
<text text-anchor="middle" x="136" y="-96.9" style="font-family:Times New Roman;font-size:14.00;">s21</text>
</g>
<!-- s20&#45;&gt;s21 -->
<g id="edge22" class="edge"><title>s20&#45;&gt;s21</title>
<path style="fill:none;stroke:black;" d="M64,-95C75,-96 87,-97 98,-97"/>
<polygon style="fill:black;stroke:black;" points="97.7013,-100.488 108,-98 98.3979,-93.5222 97.7013,-100.488"/>
<text text-anchor="middle" x="86" y="-99.9" style="font-family:Times New Roman;font-size:14.00;">a</text>
</g>
<!-- s4 -->
<g id="node7" class="node"><title>s4</title>
<ellipse style="fill:none;stroke:black;" cx="414" cy="-26" rx="22.2362" ry="22.2362"/>
<text text-anchor="middle" x="414" y="-21.9" style="font-family:Times New Roman;font-size:14.00;">s4</text>
</g>
<!-- s3&#45;&gt;s4 -->
<g id="edge10" class="edge"><title>s3&#45;&gt;s4</title>
<path style="fill:none;stroke:black;" d="M348,-26C358,-26 371,-26 382,-26"/>
<polygon style="fill:black;stroke:black;" points="382,-29.5001 392,-26 382,-22.5001 382,-29.5001"/>
<text text-anchor="middle" x="370" y="-30.9" style="font-family:Times New Roman;font-size:14.00;">c</text>
</g>
<!-- s4&#45;&gt;s3 -->
<g id="edge14" class="edge"><title>s4&#45;&gt;s3</title>
<path style="fill:none;stroke:black;" d="M396,-12C388,-7 377,-3 366,-5 362,-6 358,-7 354,-9"/>
<polygon style="fill:black;stroke:black;" points="352.042,-6.08397 345,-14 355.441,-12.2031 352.042,-6.08397"/>
<text text-anchor="middle" x="370" y="-12.9" style="font-family:Times New Roman;font-size:14.00;">d</text>
</g>
<!-- s5 -->
<g id="node8" class="node"><title>s5</title>
<ellipse style="fill:none;stroke:black;" cx="502" cy="-26" rx="22.2362" ry="22.2362"/>
<text text-anchor="middle" x="502" y="-21.9" style="font-family:Times New Roman;font-size:14.00;">s5</text>
</g>
<!-- s4&#45;&gt;s5 -->
<g id="edge12" class="edge"><title>s4&#45;&gt;s5</title>
<path style="fill:none;stroke:black;" d="M436,-26C446,-26 459,-26 470,-26"/>
<polygon style="fill:black;stroke:black;" points="470,-29.5001 480,-26 470,-22.5001 470,-29.5001"/>
<text text-anchor="middle" x="458" y="-30.9" style="font-family:Times New Roman;font-size:14.00;">b</text>
</g>
<!-- s6 -->
<g id="node9" class="node"><title>s6</title>
<ellipse style="fill:none;stroke:black;" cx="590" cy="-26" rx="22.2362" ry="22.2362"/>
<text text-anchor="middle" x="590" y="-21.9" style="font-family:Times New Roman;font-size:14.00;">s6</text>
</g>
<!-- s5&#45;&gt;s6 -->
<g id="edge16" class="edge"><title>s5&#45;&gt;s6</title>
<path style="fill:none;stroke:black;" d="M524,-26C534,-26 547,-26 558,-26"/>
<polygon style="fill:black;stroke:black;" points="558,-29.5001 568,-26 558,-22.5001 558,-29.5001"/>
<text text-anchor="middle" x="546" y="-30.9" style="font-family:Times New Roman;font-size:14.00;">a</text>
</g>
<!-- s7 -->
<g id="node10" class="node"><title>s7</title>
<ellipse style="fill:none;stroke:black;" cx="678" cy="-26" rx="22.2362" ry="22.2362"/>
<text text-anchor="middle" x="678" y="-21.9" style="font-family:Times New Roman;font-size:14.00;">s7</text>
</g>
<!-- s6&#45;&gt;s7 -->
<g id="edge18" class="edge"><title>s6&#45;&gt;s7</title>
<path style="fill:none;stroke:black;" d="M612,-26C622,-26 635,-26 646,-26"/>
<polygon style="fill:black;stroke:black;" points="646,-29.5001 656,-26 646,-22.5001 646,-29.5001"/>
<text text-anchor="middle" x="634" y="-30.9" style="font-family:Times New Roman;font-size:14.00;">b</text>
</g>
<!-- s7&#45;&gt;s6 -->
<g id="edge20" class="edge"><title>s7&#45;&gt;s6</title>
<path style="fill:none;stroke:black;" d="M659,-14C653,-10 645,-7 638,-5 631,-4 624,-5 617,-8"/>
<polygon style="fill:black;stroke:black;" points="615.042,-5.08397 608,-13 618.441,-11.2031 615.042,-5.08397"/>
<text text-anchor="middle" x="634" y="-10.9" style="font-family:Times New Roman;font-size:14.00;">a</text>
</g>
<!-- s21&#45;&gt;s20 -->
<g id="edge24" class="edge"><title>s21&#45;&gt;s20</title>
<path style="fill:none;stroke:black;" d="M113,-84C106,-80 98,-76 90,-74 83,-72 76,-72 70,-73"/>
<polygon style="fill:black;stroke:black;" points="68.5725,-69.7741 60,-76 70.584,-76.4788 68.5725,-69.7741"/>
<text text-anchor="middle" x="86" y="-77.9" style="font-family:Times New Roman;font-size:14.00;">b</text>
</g>
</g>
</svg>
