<?xml version="1.0" encoding="UTF-8" standalone="no"?>
<!DOCTYPE svg PUBLIC "-//W3C//DTD SVG 1.1//EN"
 "http://www.w3.org/Graphics/SVG/1.1/DTD/svg11.dtd">
<!-- Generated by graphviz version 12.2.1 (20241206.2353)
 -->
<!-- Title: Complement(g1) Pages: 1 -->
<svg width="427pt" height="132pt"
 viewBox="0.00 0.00 427.35 132.43" xmlns="http://www.w3.org/2000/svg" xmlns:xlink="http://www.w3.org/1999/xlink">
<g id="graph0" class="graph" transform="scale(1 1) rotate(0) translate(4 128.43)">
<title>Complement(g1)</title>
<!-- dot_dummyinit_1 -->
<g id="node1" class="node">
<title>dot_dummyinit_1</title>
</g>
<!-- 1 -->
<g id="node2" class="node">
<title>1</title>
<ellipse fill="none" stroke="black" cx="55.72" cy="-82.93" rx="18" ry="18"/>
<text text-anchor="middle" x="55.72" y="-77.51" font-family="Arial" font-size="14.00">1</text>
</g>
<!-- dot_dummyinit_1&#45;&gt;1 -->
<g id="edge1" class="edge">
<title>dot_dummyinit_1&#45;&gt;1</title>
<path fill="none" stroke="black" d="M0.87,-82.93C2.34,-82.93 13.93,-82.93 25.99,-82.93"/>
<polygon fill="black" stroke="black" points="25.86,-86.43 35.86,-82.93 25.86,-79.43 25.86,-86.43"/>
</g>
<!-- 4 -->
<g id="node4" class="node">
<title>4</title>
<ellipse fill="none" stroke="black" cx="391.22" cy="-52.93" rx="18" ry="18"/>
<ellipse fill="none" stroke="black" cx="391.22" cy="-52.93" rx="22" ry="22"/>
<text text-anchor="middle" x="391.22" y="-47.51" font-family="Arial" font-size="14.00">4</text>
</g>
<!-- 1&#45;&gt;4 -->
<g id="edge3" class="edge">
<title>1&#45;&gt;4</title>
<path fill="none" stroke="black" d="M73.96,-84.03C112.11,-86.23 206.54,-90.44 285.22,-83.93 314.86,-81.48 322.99,-82.27 351.22,-72.93 354.58,-71.82 358,-70.45 361.36,-68.96"/>
<polygon fill="black" stroke="black" points="362.88,-72.11 370.33,-64.58 359.81,-65.82 362.88,-72.11"/>
<text text-anchor="middle" x="195.22" y="-89.86" font-family="Arial" font-size="14.00">f, b, d, c</text>
</g>
<!-- 2 -->
<g id="node5" class="node">
<title>2</title>
<ellipse fill="none" stroke="black" cx="135.22" cy="-43.93" rx="18" ry="18"/>
<text text-anchor="middle" x="135.22" y="-38.51" font-family="Arial" font-size="14.00">2</text>
</g>
<!-- 1&#45;&gt;2 -->
<g id="edge2" class="edge">
<title>1&#45;&gt;2</title>
<path fill="none" stroke="black" d="M72.4,-75.04C82.7,-69.86 96.41,-62.96 108.3,-56.97"/>
<polygon fill="black" stroke="black" points="109.85,-60.11 117.21,-52.49 106.7,-53.86 109.85,-60.11"/>
<text text-anchor="middle" x="95.47" y="-67.05" font-family="Arial" font-size="14.00">a</text>
</g>
<!-- 3 -->
<g id="node3" class="node">
<title>3</title>
<ellipse fill="none" stroke="black" cx="261.22" cy="-52.93" rx="18" ry="18"/>
<ellipse fill="none" stroke="black" cx="261.22" cy="-52.93" rx="22" ry="22"/>
<text text-anchor="middle" x="261.22" y="-47.51" font-family="Arial" font-size="14.00">3</text>
</g>
<!-- 3&#45;&gt;4 -->
<g id="edge7" class="edge">
<title>3&#45;&gt;4</title>
<path fill="none" stroke="black" d="M283.64,-52.93C303.77,-52.93 334.16,-52.93 357.35,-52.93"/>
<polygon fill="black" stroke="black" points="357.21,-56.43 367.21,-52.93 357.21,-49.43 357.21,-56.43"/>
<text text-anchor="middle" x="327.22" y="-55.38" font-family="Arial" font-size="14.00">f, a, d, c</text>
</g>
<!-- 3&#45;&gt;2 -->
<g id="edge6" class="edge">
<title>3&#45;&gt;2</title>
<path fill="none" stroke="black" d="M243.7,-39.58C236.6,-34.67 227.94,-29.69 219.22,-27.18 198.72,-21.28 192.02,-22.46 171.22,-27.18 167.96,-27.92 164.64,-29.01 161.42,-30.27"/>
<polygon fill="black" stroke="black" points="160.02,-27.06 152.39,-34.41 162.94,-33.42 160.02,-27.06"/>
<text text-anchor="middle" x="195.22" y="-29.63" font-family="Arial" font-size="14.00">b</text>
</g>
<!-- 4&#45;&gt;4 -->
<g id="edge8" class="edge">
<title>4&#45;&gt;4</title>
<path fill="none" stroke="black" d="M379.79,-72.28C377.66,-83.03 381.47,-92.93 391.22,-92.93 397.31,-92.93 401.09,-89.06 402.54,-83.54"/>
<polygon fill="black" stroke="black" points="406.04,-83.82 402.63,-73.79 399.04,-83.76 406.04,-83.82"/>
<text text-anchor="middle" x="391.22" y="-111.13" font-family="Arial" font-size="14.00">f, a, b, d, </text>
<text text-anchor="middle" x="391.22" y="-95.38" font-family="Arial" font-size="14.00">c</text>
</g>
<!-- 2&#45;&gt;3 -->
<g id="edge4" class="edge">
<title>2&#45;&gt;3</title>
<path fill="none" stroke="black" d="M153.46,-45.18C172.59,-46.57 203.89,-48.84 227.66,-50.57"/>
<polygon fill="black" stroke="black" points="227.24,-54.05 237.46,-51.28 227.74,-47.06 227.24,-54.05"/>
<text text-anchor="middle" x="195.22" y="-52.21" font-family="Arial" font-size="14.00">a</text>
</g>
<!-- 2&#45;&gt;4 -->
<g id="edge5" class="edge">
<title>2&#45;&gt;4</title>
<path fill="none" stroke="black" d="M149.36,-32.49C155.6,-27.61 163.4,-22.29 171.22,-18.93 218.07,1.18 235.35,4.42 285.22,-6.18 312.48,-11.98 341.24,-25.36 361.76,-36.33"/>
<polygon fill="black" stroke="black" points="359.91,-39.31 370.36,-41.06 363.29,-33.18 359.91,-39.31"/>
<text text-anchor="middle" x="261.22" y="-8.63" font-family="Arial" font-size="14.00">f, b, d, c</text>
</g>
</g>
</svg>
