<?xml version="1.0" encoding="UTF-8" standalone="no"?>
<!DOCTYPE svg PUBLIC "-//W3C//DTD SVG 1.1//EN"
 "http://www.w3.org/Graphics/SVG/1.1/DTD/svg11.dtd">
<!-- Generated by graphviz version 12.2.1 (20241206.2353)
 -->
<!-- Title: Project(g) [minstate] Pages: 1 -->
<svg width="257pt" height="145pt"
 viewBox="0.00 0.00 256.72 145.00" xmlns="http://www.w3.org/2000/svg" xmlns:xlink="http://www.w3.org/1999/xlink">
<g id="graph0" class="graph" transform="scale(1 1) rotate(0) translate(4 141)">
<title>Project(g) [minstate]</title>
<!-- dot_dummyinit_1 -->
<g id="node1" class="node">
<title>dot_dummyinit_1</title>
</g>
<!-- 4 -->
<g id="node2" class="node">
<title>4</title>
<ellipse fill="none" stroke="black" cx="55.72" cy="-64" rx="18" ry="18"/>
<text text-anchor="middle" x="55.72" y="-58.58" font-family="Arial" font-size="14.00">4</text>
</g>
<!-- dot_dummyinit_1&#45;&gt;4 -->
<g id="edge1" class="edge">
<title>dot_dummyinit_1&#45;&gt;4</title>
<path fill="none" stroke="black" d="M0.87,-64C2.34,-64 13.93,-64 25.99,-64"/>
<polygon fill="black" stroke="black" points="25.86,-67.5 35.86,-64 25.86,-60.5 25.86,-67.5"/>
</g>
<!-- 1 -->
<g id="node3" class="node">
<title>1</title>
<ellipse fill="none" stroke="black" cx="139.22" cy="-63" rx="18" ry="18"/>
<ellipse fill="none" stroke="black" cx="139.22" cy="-63" rx="22" ry="22"/>
<text text-anchor="middle" x="139.22" y="-57.58" font-family="Arial" font-size="14.00">1</text>
</g>
<!-- 4&#45;&gt;1 -->
<g id="edge7" class="edge">
<title>4&#45;&gt;1</title>
<path fill="none" stroke="black" d="M70.98,-53.75C77.06,-49.98 84.43,-46.16 91.72,-44.25 97.93,-42.62 104.42,-43.48 110.51,-45.54"/>
<polygon fill="black" stroke="black" points="108.98,-48.69 119.53,-49.63 111.87,-42.31 108.98,-48.69"/>
<text text-anchor="middle" x="95.47" y="-46.7" font-family="Arial" font-size="14.00">a</text>
</g>
<!-- 2 -->
<g id="node5" class="node">
<title>2</title>
<ellipse fill="none" stroke="black" cx="226.72" cy="-18" rx="18" ry="18"/>
<text text-anchor="middle" x="226.72" y="-12.57" font-family="Arial" font-size="14.00">2</text>
</g>
<!-- 4&#45;&gt;2 -->
<g id="edge8" class="edge">
<title>4&#45;&gt;2</title>
<path fill="none" stroke="black" d="M68.18,-50.97C79.35,-39.33 97.5,-23.09 117.22,-16.25 143.47,-7.14 175.49,-9.11 197.91,-12.41"/>
<polygon fill="black" stroke="black" points="197.05,-15.82 207.49,-14.02 198.21,-8.91 197.05,-15.82"/>
<text text-anchor="middle" x="139.22" y="-18.7" font-family="Arial" font-size="14.00">e</text>
</g>
<!-- 1&#45;&gt;4 -->
<g id="edge3" class="edge">
<title>1&#45;&gt;4</title>
<path fill="none" stroke="black" d="M116.9,-63.26C107.29,-63.38 95.81,-63.52 85.45,-63.65"/>
<polygon fill="black" stroke="black" points="85.47,-60.15 75.52,-63.77 85.56,-67.15 85.47,-60.15"/>
<text text-anchor="middle" x="95.47" y="-66.01" font-family="Arial" font-size="14.00">e</text>
</g>
<!-- 3 -->
<g id="node4" class="node">
<title>3</title>
<ellipse fill="none" stroke="black" cx="226.72" cy="-115" rx="18" ry="18"/>
<ellipse fill="none" stroke="black" cx="226.72" cy="-115" rx="22" ry="22"/>
<text text-anchor="middle" x="226.72" y="-109.58" font-family="Arial" font-size="14.00">3</text>
</g>
<!-- 1&#45;&gt;3 -->
<g id="edge4" class="edge">
<title>1&#45;&gt;3</title>
<path fill="none" stroke="black" d="M158.33,-74C166.93,-79.22 177.36,-85.56 186.72,-91.25 190.32,-93.44 194.1,-95.74 197.84,-98.02"/>
<polygon fill="black" stroke="black" points="195.81,-100.88 206.18,-103.09 199.46,-94.9 195.81,-100.88"/>
<text text-anchor="middle" x="182.97" y="-93.7" font-family="Arial" font-size="14.00">c</text>
</g>
<!-- 1&#45;&gt;2 -->
<g id="edge2" class="edge">
<title>1&#45;&gt;2</title>
<path fill="none" stroke="black" d="M159.2,-53.01C171.31,-46.64 187.15,-38.3 200.34,-31.36"/>
<polygon fill="black" stroke="black" points="201.67,-34.62 208.88,-26.86 198.41,-28.42 201.67,-34.62"/>
<text text-anchor="middle" x="182.97" y="-44.3" font-family="Arial" font-size="14.00">g</text>
</g>
<!-- 3&#45;&gt;4 -->
<g id="edge6" class="edge">
<title>3&#45;&gt;4</title>
<path fill="none" stroke="black" d="M204.86,-111.58C196.83,-110.22 187.59,-108.6 179.22,-107 151.56,-101.72 144.06,-102.51 117.22,-94 105.45,-90.27 102.82,-88.39 91.72,-83 88.53,-81.45 85.21,-79.76 81.94,-78.04"/>
<polygon fill="black" stroke="black" points="83.69,-75.01 73.23,-73.34 80.37,-81.17 83.69,-75.01"/>
<text text-anchor="middle" x="139.22" y="-106.23" font-family="Arial" font-size="14.00">e</text>
</g>
<!-- 2&#45;&gt;2 -->
<g id="edge5" class="edge">
<title>2&#45;&gt;2</title>
<path fill="none" stroke="black" d="M219.03,-34.66C217.32,-44.62 219.88,-54 226.72,-54 230.78,-54 233.33,-50.69 234.38,-45.92"/>
<polygon fill="black" stroke="black" points="237.88,-46.19 234.41,-36.18 230.88,-46.17 237.88,-46.19"/>
<text text-anchor="middle" x="226.72" y="-56.45" font-family="Arial" font-size="14.00">g</text>
</g>
</g>
</svg>
