<?xml version="1.0" encoding="UTF-8" standalone="no"?>
<!DOCTYPE svg PUBLIC "-//W3C//DTD SVG 1.0//EN"
 "http://www.w3.org/TR/2001/REC-SVG-20010904/DTD/svg10.dtd" [
 <!ATTLIST svg xmlns:xlink CDATA #FIXED "http://www.w3.org/1999/xlink">
]>
<!-- Generated by Graphviz version 2.20.2 (Tue Mar &#160;2 21:46:26 UTC 2010)
     For user: (mtmoor) Prof. Thomas Moor -->
<!-- Title: SelfLoopMarkedStates(g,NameSet) Pages: 1 -->
<svg width="340pt" height="254pt"
 viewBox="0.00 0.00 340.00 254.00" xmlns="http://www.w3.org/2000/svg" xmlns:xlink="http://www.w3.org/1999/xlink">
<g id="graph0" class="graph" transform="scale(1 1) rotate(0) translate(4 250)">
<title>SelfLoopMarkedStates(g,NameSet)</title>
<polygon style="fill:none;stroke:none;" points="-4,4 -4,-250 336,-250 336,4 -4,4"/>
<!-- dot_dummyinit_1 -->
<g id="node1" class="node"><title>dot_dummyinit_1</title>
</g>
<!-- 1 -->
<g id="node3" class="node"><title>1</title>
<ellipse style="fill:none;stroke:black;" cx="58" cy="-99" rx="18" ry="18"/>
<text text-anchor="middle" x="58" y="-94.9" style="font-family:Times New Roman;font-size:14.00;">1</text>
</g>
<!-- dot_dummyinit_1&#45;&gt;1 -->
<g id="edge2" class="edge"><title>dot_dummyinit_1&#45;&gt;1</title>
<path style="fill:none;stroke:black;" d="M2,-99C6,-99 18,-99 30,-99"/>
<polygon style="fill:black;stroke:black;" points="30,-102.5 40,-99 30,-95.5001 30,-102.5"/>
</g>
<!-- 2 -->
<g id="node7" class="node"><title>2</title>
<ellipse style="fill:none;stroke:black;" cx="138" cy="-99" rx="18" ry="18"/>
<text text-anchor="middle" x="138" y="-94.9" style="font-family:Times New Roman;font-size:14.00;">2</text>
</g>
<!-- 1&#45;&gt;2 -->
<g id="edge4" class="edge"><title>1&#45;&gt;2</title>
<path style="fill:none;stroke:black;" d="M76,-99C86,-99 99,-99 110,-99"/>
<polygon style="fill:black;stroke:black;" points="110,-102.5 120,-99 110,-95.5001 110,-102.5"/>
<text text-anchor="middle" x="98" y="-102.9" style="font-family:Times New Roman;font-size:14.00;">a</text>
</g>
<!-- 3 -->
<g id="node4" class="node"><title>3</title>
<ellipse style="fill:none;stroke:black;" cx="222" cy="-154" rx="18" ry="18"/>
<ellipse style="fill:none;stroke:black;" cx="222" cy="-154" rx="22" ry="22"/>
<text text-anchor="middle" x="222" y="-149.9" style="font-family:Times New Roman;font-size:14.00;">3</text>
</g>
<!-- 3&#45;&gt;3 -->
<g id="edge10" class="edge"><title>3&#45;&gt;3</title>
<path style="fill:none;stroke:black;" d="M218,-176C218,-186 219,-194 222,-194 224,-194 225,-191 226,-186"/>
<polygon style="fill:black;stroke:black;" points="229.5,-186 226,-176 222.5,-186 229.5,-186"/>
<text text-anchor="middle" x="222" y="-197.9" style="font-family:Times New Roman;font-size:14.00;">f</text>
</g>
<!-- 3&#45;&gt;3 -->
<g id="edge12" class="edge"><title>3&#45;&gt;3</title>
<path style="fill:none;stroke:black;" d="M216,-175C213,-193 215,-212 222,-212 228,-212 230,-199 229,-185"/>
<polygon style="fill:black;stroke:black;" points="232.478,-184.602 228,-175 225.512,-185.299 232.478,-184.602"/>
<text text-anchor="middle" x="222" y="-215.9" style="font-family:Times New Roman;font-size:14.00;">e</text>
</g>
<!-- 4 -->
<g id="node5" class="node"><title>4</title>
<ellipse style="fill:none;stroke:black;" cx="222" cy="-22" rx="18" ry="18"/>
<ellipse style="fill:none;stroke:black;" cx="222" cy="-22" rx="22" ry="22"/>
<text text-anchor="middle" x="222" y="-17.9" style="font-family:Times New Roman;font-size:14.00;">4</text>
</g>
<!-- 4&#45;&gt;4 -->
<g id="edge14" class="edge"><title>4&#45;&gt;4</title>
<path style="fill:none;stroke:black;" d="M218,-44C218,-54 219,-62 222,-62 224,-62 225,-59 226,-54"/>
<polygon style="fill:black;stroke:black;" points="229.5,-54 226,-44 222.5,-54 229.5,-54"/>
<text text-anchor="middle" x="222" y="-65.9" style="font-family:Times New Roman;font-size:14.00;">f</text>
</g>
<!-- 4&#45;&gt;4 -->
<g id="edge18" class="edge"><title>4&#45;&gt;4</title>
<path style="fill:none;stroke:black;" d="M216,-43C213,-61 215,-80 222,-80 228,-80 230,-67 229,-53"/>
<polygon style="fill:black;stroke:black;" points="232.478,-52.6021 228,-43 225.512,-53.2987 232.478,-52.6021"/>
<text text-anchor="middle" x="222" y="-83.9" style="font-family:Times New Roman;font-size:14.00;">e</text>
</g>
<!-- 5 -->
<g id="node6" class="node"><title>5</title>
<ellipse style="fill:none;stroke:black;" cx="310" cy="-22" rx="18" ry="18"/>
<ellipse style="fill:none;stroke:black;" cx="310" cy="-22" rx="22" ry="22"/>
<text text-anchor="middle" x="310" y="-17.9" style="font-family:Times New Roman;font-size:14.00;">5</text>
</g>
<!-- 4&#45;&gt;5 -->
<g id="edge16" class="edge"><title>4&#45;&gt;5</title>
<path style="fill:none;stroke:black;" d="M244,-22C254,-22 267,-22 278,-22"/>
<polygon style="fill:black;stroke:black;" points="278,-25.5001 288,-22 278,-18.5001 278,-25.5001"/>
<text text-anchor="middle" x="266" y="-25.9" style="font-family:Times New Roman;font-size:14.00;">d</text>
</g>
<!-- 5&#45;&gt;5 -->
<g id="edge22" class="edge"><title>5&#45;&gt;5</title>
<path style="fill:none;stroke:black;" d="M304,-43C301,-61 303,-80 310,-80 316,-80 318,-67 317,-53"/>
<polygon style="fill:black;stroke:black;" points="320.478,-52.6021 316,-43 313.512,-53.2987 320.478,-52.6021"/>
<text text-anchor="middle" x="310" y="-83.9" style="font-family:Times New Roman;font-size:14.00;">e</text>
</g>
<!-- 5&#45;&gt;5 -->
<g id="edge20" class="edge"><title>5&#45;&gt;5</title>
<path style="fill:none;stroke:black;" d="M306,-44C306,-54 307,-62 310,-62 312,-62 313,-59 314,-54"/>
<polygon style="fill:black;stroke:black;" points="317.5,-54 314,-44 310.5,-54 317.5,-54"/>
<text text-anchor="middle" x="310" y="-65.9" style="font-family:Times New Roman;font-size:14.00;">f</text>
</g>
<!-- 2&#45;&gt;3 -->
<g id="edge6" class="edge"><title>2&#45;&gt;3</title>
<path style="fill:none;stroke:black;" d="M153,-109C165,-116 182,-127 195,-136"/>
<polygon style="fill:black;stroke:black;" points="193.738,-139.365 204,-142 197.621,-133.541 193.738,-139.365"/>
<text text-anchor="middle" x="178" y="-129.9" style="font-family:Times New Roman;font-size:14.00;">b</text>
</g>
<!-- 2&#45;&gt;4 -->
<g id="edge8" class="edge"><title>2&#45;&gt;4</title>
<path style="fill:none;stroke:black;" d="M151,-87C164,-75 183,-58 198,-44"/>
<polygon style="fill:black;stroke:black;" points="200.779,-46.2191 206,-37 196.169,-40.9511 200.779,-46.2191"/>
<text text-anchor="middle" x="178" y="-70.9" style="font-family:Times New Roman;font-size:14.00;">c</text>
</g>
</g>
</svg>
