<?xml version="1.0" encoding="UTF-8" standalone="no"?>
<!DOCTYPE svg PUBLIC "-//W3C//DTD SVG 1.1//EN"
 "http://www.w3.org/Graphics/SVG/1.1/DTD/svg11.dtd">
<!-- Generated by graphviz version 12.2.1 (20241206.2353)
 -->
<!-- Title: Generator Pages: 1 -->
<svg width="295pt" height="80pt"
 viewBox="0.00 0.00 295.22 80.00" xmlns="http://www.w3.org/2000/svg" xmlns:xlink="http://www.w3.org/1999/xlink">
<g id="graph0" class="graph" transform="scale(1 1) rotate(0) translate(4 76)">
<title>Generator</title>
<!-- dot_dummyinit_1 -->
<g id="node1" class="node">
<title>dot_dummyinit_1</title>
</g>
<!-- s1 -->
<g id="node2" class="node">
<title>s1</title>
<path fill="none" stroke="black" d="M79.72,-36C79.72,-36 49.72,-36 49.72,-36 43.72,-36 37.72,-30 37.72,-24 37.72,-24 37.72,-12 37.72,-12 37.72,-6 43.72,0 49.72,0 49.72,0 79.72,0 79.72,0 85.72,0 91.72,-6 91.72,-12 91.72,-12 91.72,-24 91.72,-24 91.72,-30 85.72,-36 79.72,-36"/>
<text text-anchor="middle" x="64.72" y="-12.57" font-family="Arial" font-size="14.00">s1</text>
</g>
<!-- dot_dummyinit_1&#45;&gt;s1 -->
<g id="edge1" class="edge">
<title>dot_dummyinit_1&#45;&gt;s1</title>
<path fill="none" stroke="black" d="M0.77,-18C1.57,-18 12.96,-18 25.83,-18"/>
<polygon fill="black" stroke="black" points="25.79,-21.5 35.79,-18 25.79,-14.5 25.79,-21.5"/>
</g>
<!-- s2 -->
<g id="node3" class="node">
<title>s2</title>
<path fill="none" stroke="black" d="M177.47,-72C177.47,-72 147.22,-72 147.22,-72 141.22,-72 135.22,-66 135.22,-60 135.22,-60 135.22,-48 135.22,-48 135.22,-42 141.22,-36 147.22,-36 147.22,-36 177.47,-36 177.47,-36 183.47,-36 189.47,-42 189.47,-48 189.47,-48 189.47,-60 189.47,-60 189.47,-66 183.47,-72 177.47,-72"/>
<text text-anchor="start" x="147.22" y="-48.58" font-family="Arial" font-size="14.00">s2</text>
<polygon fill="black" stroke="none" points="171.47,-44.12 171.47,-63.88 179.47,-63.88 179.47,-44.12 171.47,-44.12"/>
</g>
<!-- s1&#45;&gt;s2 -->
<g id="edge2" class="edge">
<title>s1&#45;&gt;s2</title>
<path fill="none" stroke="black" d="M92.1,-27.93C102.14,-31.71 113.76,-36.08 124.58,-40.16"/>
<polygon fill="black" stroke="black" points="123.04,-43.32 133.63,-43.57 125.51,-36.77 123.04,-43.32"/>
<text text-anchor="middle" x="113.47" y="-39.53" font-family="Arial" font-size="14.00">a</text>
</g>
<!-- s3 -->
<g id="node4" class="node">
<title>s3</title>
<path fill="none" stroke="black" d="M275.22,-36C275.22,-36 244.97,-36 244.97,-36 238.97,-36 232.97,-30 232.97,-24 232.97,-24 232.97,-12 232.97,-12 232.97,-6 238.97,0 244.97,0 244.97,0 275.22,0 275.22,0 281.22,0 287.22,-6 287.22,-12 287.22,-12 287.22,-24 287.22,-24 287.22,-30 281.22,-36 275.22,-36"/>
<text text-anchor="start" x="244.97" y="-12.57" font-family="Arial" font-size="14.00">s3</text>
<polygon fill="black" stroke="none" points="269.22,-8.12 269.22,-27.88 277.22,-27.88 277.22,-8.12 269.22,-8.12"/>
</g>
<!-- s2&#45;&gt;s3 -->
<g id="edge3" class="edge">
<title>s2&#45;&gt;s3</title>
<path fill="none" stroke="black" d="M189.76,-44.07C199.81,-40.29 211.45,-35.92 222.28,-31.84"/>
<polygon fill="black" stroke="black" points="223.22,-35.23 231.35,-28.43 220.75,-28.68 223.22,-35.23"/>
<text text-anchor="middle" x="211.22" y="-39.53" font-family="Arial" font-size="14.00">a</text>
</g>
<!-- s3&#45;&gt;s1 -->
<g id="edge4" class="edge">
<title>s3&#45;&gt;s1</title>
<path fill="none" stroke="black" d="M232.69,-14.83C219.69,-13.43 203.78,-11.94 189.47,-11.25 165.39,-10.09 159.3,-10.08 135.22,-11.25 124.84,-11.75 113.62,-12.68 103.28,-13.68"/>
<polygon fill="black" stroke="black" points="103.17,-10.17 93.58,-14.68 103.89,-17.14 103.17,-10.17"/>
<text text-anchor="middle" x="162.35" y="-13.7" font-family="Arial" font-size="14.00">b</text>
</g>
<!-- s3&#45;&gt;s3 -->
<g id="edge5" class="edge">
<title>s3&#45;&gt;s3</title>
<path fill="none" stroke="black" d="M251.25,-36.15C249.89,-45.54 252.84,-54 260.1,-54 264.18,-54 266.89,-51.32 268.25,-47.31"/>
<polygon fill="black" stroke="black" points="271.72,-47.86 268.84,-37.66 264.73,-47.43 271.72,-47.86"/>
<text text-anchor="middle" x="260.1" y="-56.45" font-family="Arial" font-size="14.00">c</text>
</g>
</g>
</svg>
