<?xml version="1.0" encoding="UTF-8" standalone="no"?>
<!DOCTYPE svg PUBLIC "-//W3C//DTD SVG 1.0//EN"
 "http://www.w3.org/TR/2001/REC-SVG-20010904/DTD/svg10.dtd" [
 <!ATTLIST svg xmlns:xlink CDATA #FIXED "http://www.w3.org/1999/xlink">
]>
<!-- Generated by Graphviz version 2.20.2 (Tue Mar &#160;2 21:46:26 UTC 2010)
     For user: (mtmoor) Prof. Thomas Moor -->
<!-- Title: Union(g1,g2) Pages: 1 -->
<svg width="348pt" height="289pt"
 viewBox="0.00 0.00 348.00 289.00" xmlns="http://www.w3.org/2000/svg" xmlns:xlink="http://www.w3.org/1999/xlink">
<g id="graph0" class="graph" transform="scale(1 1) rotate(0) translate(4 285)">
<title>Union(g1,g2)</title>
<polygon style="fill:none;stroke:none;" points="-4,4 -4,-285 344,-285 344,4 -4,4"/>
<!-- dot_dummyinit_1 -->
<g id="node1" class="node"><title>dot_dummyinit_1</title>
</g>
<!-- 1 -->
<g id="node3" class="node"><title>1</title>
<ellipse style="fill:none;stroke:black;" cx="62" cy="-157" rx="18" ry="18"/>
<ellipse style="fill:none;stroke:black;" cx="62" cy="-157" rx="22" ry="22"/>
<text text-anchor="middle" x="62" y="-152.9" style="font-family:Times New Roman;font-size:14.00;">1</text>
</g>
<!-- dot_dummyinit_1&#45;&gt;1 -->
<g id="edge2" class="edge"><title>dot_dummyinit_1&#45;&gt;1</title>
<path style="fill:none;stroke:black;" d="M2,-157C5,-157 17,-157 30,-157"/>
<polygon style="fill:black;stroke:black;" points="30,-160.5 40,-157 30,-153.5 30,-160.5"/>
</g>
<!-- 2 -->
<g id="node4" class="node"><title>2</title>
<ellipse style="fill:none;stroke:black;" cx="150" cy="-196" rx="18" ry="18"/>
<ellipse style="fill:none;stroke:black;" cx="150" cy="-196" rx="22" ry="22"/>
<text text-anchor="middle" x="150" y="-191.9" style="font-family:Times New Roman;font-size:14.00;">2</text>
</g>
<!-- 1&#45;&gt;2 -->
<g id="edge4" class="edge"><title>1&#45;&gt;2</title>
<path style="fill:none;stroke:black;" d="M82,-166C93,-172 107,-178 120,-183"/>
<polygon style="fill:black;stroke:black;" points="119.415,-186.536 130,-187 122.015,-180.036 119.415,-186.536"/>
<text text-anchor="middle" x="106" y="-179.9" style="font-family:Times New Roman;font-size:14.00;">a</text>
</g>
<!-- 3 -->
<g id="node7" class="node"><title>3</title>
<ellipse style="fill:none;stroke:black;" cx="150" cy="-107" rx="18" ry="18"/>
<text text-anchor="middle" x="150" y="-102.9" style="font-family:Times New Roman;font-size:14.00;">3</text>
</g>
<!-- 1&#45;&gt;3 -->
<g id="edge6" class="edge"><title>1&#45;&gt;3</title>
<path style="fill:none;stroke:black;" d="M82,-146C94,-139 111,-129 125,-121"/>
<polygon style="fill:black;stroke:black;" points="126.958,-123.916 134,-116 123.559,-117.797 126.958,-123.916"/>
<text text-anchor="middle" x="106" y="-137.9" style="font-family:Times New Roman;font-size:14.00;">c</text>
</g>
<!-- 4 -->
<g id="node8" class="node"><title>4</title>
<ellipse style="fill:none;stroke:black;" cx="234" cy="-250" rx="18" ry="18"/>
<text text-anchor="middle" x="234" y="-245.9" style="font-family:Times New Roman;font-size:14.00;">4</text>
</g>
<!-- 2&#45;&gt;4 -->
<g id="edge8" class="edge"><title>2&#45;&gt;4</title>
<path style="fill:none;stroke:black;" d="M169,-208C181,-216 197,-226 210,-235"/>
<polygon style="fill:black;stroke:black;" points="208.559,-238.203 219,-240 211.958,-232.084 208.559,-238.203"/>
<text text-anchor="middle" x="194" y="-228.9" style="font-family:Times New Roman;font-size:14.00;">a</text>
</g>
<!-- 5 -->
<g id="node9" class="node"><title>5</title>
<ellipse style="fill:none;stroke:black;" cx="234" cy="-196" rx="18" ry="18"/>
<text text-anchor="middle" x="234" y="-191.9" style="font-family:Times New Roman;font-size:14.00;">5</text>
</g>
<!-- 2&#45;&gt;5 -->
<g id="edge10" class="edge"><title>2&#45;&gt;5</title>
<path style="fill:none;stroke:black;" d="M172,-196C183,-196 195,-196 206,-196"/>
<polygon style="fill:black;stroke:black;" points="206,-199.5 216,-196 206,-192.5 206,-199.5"/>
<text text-anchor="middle" x="194" y="-199.9" style="font-family:Times New Roman;font-size:14.00;">b</text>
</g>
<!-- 8 -->
<g id="node5" class="node"><title>8</title>
<ellipse style="fill:none;stroke:black;" cx="318" cy="-259" rx="18" ry="18"/>
<ellipse style="fill:none;stroke:black;" cx="318" cy="-259" rx="22" ry="22"/>
<text text-anchor="middle" x="318" y="-254.9" style="font-family:Times New Roman;font-size:14.00;">8</text>
</g>
<!-- 8&#45;&gt;4 -->
<g id="edge24" class="edge"><title>8&#45;&gt;4</title>
<path style="fill:none;stroke:black;" d="M299,-248C293,-244 285,-241 278,-240 272,-239 266,-239 261,-240"/>
<polygon style="fill:black;stroke:black;" points="259.573,-236.774 251,-243 261.584,-243.479 259.573,-236.774"/>
<text text-anchor="middle" x="274" y="-243.9" style="font-family:Times New Roman;font-size:14.00;">a</text>
</g>
<!-- 9 -->
<g id="node6" class="node"><title>9</title>
<ellipse style="fill:none;stroke:black;" cx="318" cy="-185" rx="18" ry="18"/>
<ellipse style="fill:none;stroke:black;" cx="318" cy="-185" rx="22" ry="22"/>
<text text-anchor="middle" x="318" y="-180.9" style="font-family:Times New Roman;font-size:14.00;">9</text>
</g>
<!-- 9&#45;&gt;5 -->
<g id="edge26" class="edge"><title>9&#45;&gt;5</title>
<path style="fill:none;stroke:black;" d="M300,-172C291,-168 280,-164 270,-168 264,-170 259,-173 254,-177"/>
<polygon style="fill:black;stroke:black;" points="251.9,-174.2 246,-183 256.1,-179.8 251.9,-174.2"/>
<text text-anchor="middle" x="274" y="-171.9" style="font-family:Times New Roman;font-size:14.00;">b</text>
</g>
<!-- 6 -->
<g id="node10" class="node"><title>6</title>
<ellipse style="fill:none;stroke:black;" cx="234" cy="-107" rx="18" ry="18"/>
<text text-anchor="middle" x="234" y="-102.9" style="font-family:Times New Roman;font-size:14.00;">6</text>
</g>
<!-- 3&#45;&gt;6 -->
<g id="edge12" class="edge"><title>3&#45;&gt;6</title>
<path style="fill:none;stroke:black;" d="M168,-107C179,-107 193,-107 206,-107"/>
<polygon style="fill:black;stroke:black;" points="206,-110.5 216,-107 206,-103.5 206,-110.5"/>
<text text-anchor="middle" x="194" y="-111.9" style="font-family:Times New Roman;font-size:14.00;">d</text>
</g>
<!-- 7 -->
<g id="node11" class="node"><title>7</title>
<ellipse style="fill:none;stroke:black;" cx="234" cy="-18" rx="18" ry="18"/>
<text text-anchor="middle" x="234" y="-13.9" style="font-family:Times New Roman;font-size:14.00;">7</text>
</g>
<!-- 3&#45;&gt;7 -->
<g id="edge14" class="edge"><title>3&#45;&gt;7</title>
<path style="fill:none;stroke:black;" d="M162,-94C176,-79 199,-55 215,-38"/>
<polygon style="fill:black;stroke:black;" points="217.404,-40.546 222,-31 212.454,-35.5962 217.404,-40.546"/>
<text text-anchor="middle" x="194" y="-70.9" style="font-family:Times New Roman;font-size:14.00;">e</text>
</g>
<!-- 4&#45;&gt;8 -->
<g id="edge16" class="edge"><title>4&#45;&gt;8</title>
<path style="fill:none;stroke:black;" d="M250,-257C257,-260 264,-262 270,-264 275,-265 281,-265 286,-265"/>
<polygon style="fill:black;stroke:black;" points="286.398,-268.478 296,-264 285.701,-261.512 286.398,-268.478"/>
<text text-anchor="middle" x="274" y="-267.9" style="font-family:Times New Roman;font-size:14.00;">b</text>
</g>
<!-- 5&#45;&gt;9 -->
<g id="edge18" class="edge"><title>5&#45;&gt;9</title>
<path style="fill:none;stroke:black;" d="M252,-194C262,-192 274,-191 286,-189"/>
<polygon style="fill:black;stroke:black;" points="286.398,-192.478 296,-188 285.701,-185.512 286.398,-192.478"/>
<text text-anchor="middle" x="274" y="-193.9" style="font-family:Times New Roman;font-size:14.00;">a</text>
</g>
<!-- 6&#45;&gt;6 -->
<g id="edge20" class="edge"><title>6&#45;&gt;6</title>
<path style="fill:none;stroke:black;" d="M227,-124C225,-134 228,-143 234,-143 238,-143 240,-139 241,-134"/>
<polygon style="fill:black;stroke:black;" points="244.5,-134 241,-124 237.5,-134 244.5,-134"/>
<text text-anchor="middle" x="234" y="-146.9" style="font-family:Times New Roman;font-size:14.00;">d</text>
</g>
<!-- 7&#45;&gt;7 -->
<g id="edge22" class="edge"><title>7&#45;&gt;7</title>
<path style="fill:none;stroke:black;" d="M227,-35C225,-45 228,-54 234,-54 238,-54 240,-50 241,-45"/>
<polygon style="fill:black;stroke:black;" points="244.5,-45 241,-35 237.5,-45 244.5,-45"/>
<text text-anchor="middle" x="234" y="-58.9" style="font-family:Times New Roman;font-size:14.00;">e</text>
</g>
</g>
</svg>
