<?xml version="1.0" encoding="UTF-8" standalone="no"?>
<!DOCTYPE svg PUBLIC "-//W3C//DTD SVG 1.1//EN"
 "http://www.w3.org/Graphics/SVG/1.1/DTD/svg11.dtd">
<!-- Generated by graphviz version 12.2.1 (20241206.2353)
 -->
<!-- Title: PrefixClosure(g) Pages: 1 -->
<svg width="295pt" height="110pt"
 viewBox="0.00 0.00 294.72 110.00" xmlns="http://www.w3.org/2000/svg" xmlns:xlink="http://www.w3.org/1999/xlink">
<g id="graph0" class="graph" transform="scale(1 1) rotate(0) translate(4 106)">
<title>PrefixClosure(g)</title>
<!-- dot_dummyinit_1 -->
<g id="node1" class="node">
<title>dot_dummyinit_1</title>
</g>
<!-- 1 -->
<g id="node2" class="node">
<title>1</title>
<path fill="none" stroke="black" d="M79.72,-63C79.72,-63 49.72,-63 49.72,-63 43.72,-63 37.72,-57 37.72,-51 37.72,-51 37.72,-39 37.72,-39 37.72,-33 43.72,-27 49.72,-27 49.72,-27 79.72,-27 79.72,-27 85.72,-27 91.72,-33 91.72,-39 91.72,-39 91.72,-51 91.72,-51 91.72,-57 85.72,-63 79.72,-63"/>
<text text-anchor="start" x="52.97" y="-39.58" font-family="Arial" font-size="14.00">1</text>
<polygon fill="black" stroke="none" points="70.47,-35.12 70.47,-54.88 78.47,-54.88 78.47,-35.12 70.47,-35.12"/>
</g>
<!-- dot_dummyinit_1&#45;&gt;1 -->
<g id="edge1" class="edge">
<title>dot_dummyinit_1&#45;&gt;1</title>
<path fill="none" stroke="black" d="M0.77,-45C1.57,-45 12.96,-45 25.83,-45"/>
<polygon fill="black" stroke="black" points="25.79,-48.5 35.79,-45 25.79,-41.5 25.79,-48.5"/>
</g>
<!-- 2 -->
<g id="node3" class="node">
<title>2</title>
<path fill="none" stroke="black" d="M177.22,-63C177.22,-63 147.22,-63 147.22,-63 141.22,-63 135.22,-57 135.22,-51 135.22,-51 135.22,-39 135.22,-39 135.22,-33 141.22,-27 147.22,-27 147.22,-27 177.22,-27 177.22,-27 183.22,-27 189.22,-33 189.22,-39 189.22,-39 189.22,-51 189.22,-51 189.22,-57 183.22,-63 177.22,-63"/>
<text text-anchor="start" x="150.47" y="-39.58" font-family="Arial" font-size="14.00">2</text>
<polygon fill="black" stroke="none" points="167.97,-35.12 167.97,-54.88 175.97,-54.88 175.97,-35.12 167.97,-35.12"/>
</g>
<!-- 1&#45;&gt;2 -->
<g id="edge2" class="edge">
<title>1&#45;&gt;2</title>
<path fill="none" stroke="black" d="M92.07,-45C101.78,-45 112.97,-45 123.49,-45"/>
<polygon fill="black" stroke="black" points="123.44,-48.5 133.44,-45 123.44,-41.5 123.44,-48.5"/>
<text text-anchor="middle" x="113.47" y="-47.45" font-family="Arial" font-size="14.00">a</text>
</g>
<!-- 3 -->
<g id="node4" class="node">
<title>3</title>
<path fill="none" stroke="black" d="M274.72,-102C274.72,-102 244.72,-102 244.72,-102 238.72,-102 232.72,-96 232.72,-90 232.72,-90 232.72,-78 232.72,-78 232.72,-72 238.72,-66 244.72,-66 244.72,-66 274.72,-66 274.72,-66 280.72,-66 286.72,-72 286.72,-78 286.72,-78 286.72,-90 286.72,-90 286.72,-96 280.72,-102 274.72,-102"/>
<text text-anchor="start" x="247.97" y="-78.58" font-family="Arial" font-size="14.00">3</text>
<polygon fill="black" stroke="none" points="265.47,-74.12 265.47,-93.88 273.47,-93.88 273.47,-74.12 265.47,-74.12"/>
</g>
<!-- 2&#45;&gt;3 -->
<g id="edge3" class="edge">
<title>2&#45;&gt;3</title>
<path fill="none" stroke="black" d="M189.57,-55.76C199.59,-59.85 211.2,-64.59 222,-69.01"/>
<polygon fill="black" stroke="black" points="220.48,-72.16 231.06,-72.7 223.12,-65.68 220.48,-72.16"/>
<text text-anchor="middle" x="210.97" y="-68.12" font-family="Arial" font-size="14.00">b</text>
</g>
<!-- 4 -->
<g id="node5" class="node">
<title>4</title>
<path fill="none" stroke="black" d="M274.72,-36C274.72,-36 244.72,-36 244.72,-36 238.72,-36 232.72,-30 232.72,-24 232.72,-24 232.72,-12 232.72,-12 232.72,-6 238.72,0 244.72,0 244.72,0 274.72,0 274.72,0 280.72,0 286.72,-6 286.72,-12 286.72,-12 286.72,-24 286.72,-24 286.72,-30 280.72,-36 274.72,-36"/>
<text text-anchor="start" x="247.97" y="-12.57" font-family="Arial" font-size="14.00">4</text>
<polygon fill="black" stroke="none" points="265.47,-8.12 265.47,-27.88 273.47,-27.88 273.47,-8.12 265.47,-8.12"/>
</g>
<!-- 2&#45;&gt;4 -->
<g id="edge4" class="edge">
<title>2&#45;&gt;4</title>
<path fill="none" stroke="black" d="M189.57,-37.55C199.48,-34.75 210.95,-31.5 221.67,-28.48"/>
<polygon fill="black" stroke="black" points="222.33,-31.93 231,-25.84 220.43,-25.19 222.33,-31.93"/>
<text text-anchor="middle" x="210.97" y="-34.76" font-family="Arial" font-size="14.00">c</text>
</g>
<!-- 4&#45;&gt;2 -->
<g id="edge5" class="edge">
<title>4&#45;&gt;2</title>
<path fill="none" stroke="black" d="M232.33,-10C224.13,-8.71 215.16,-8.56 207.22,-11.25 201.29,-13.26 195.54,-16.43 190.25,-20.03"/>
<polygon fill="black" stroke="black" points="188.35,-17.08 182.51,-25.92 192.59,-22.65 188.35,-17.08"/>
<text text-anchor="middle" x="210.97" y="-13.7" font-family="Arial" font-size="14.00">b</text>
</g>
</g>
</svg>
