<?xml version="1.0" encoding="UTF-8" standalone="no"?>
<!DOCTYPE svg PUBLIC "-//W3C//DTD SVG 1.1//EN"
 "http://www.w3.org/Graphics/SVG/1.1/DTD/svg11.dtd">
<!-- Generated by graphviz version 12.2.1 (20241206.2353)
 -->
<!-- Title: EmptyStringLanguage(NameSet) Pages: 1 -->
<svg width="99pt" height="44pt"
 viewBox="0.00 0.00 98.72 44.00" xmlns="http://www.w3.org/2000/svg" xmlns:xlink="http://www.w3.org/1999/xlink">
<g id="graph0" class="graph" transform="scale(1 1) rotate(0) translate(4 40)">
<title>EmptyStringLanguage(NameSet)</title>
<!-- dot_dummyinit_1 -->
<g id="node1" class="node">
<title>dot_dummyinit_1</title>
</g>
<!-- 1 -->
<g id="node2" class="node">
<title>1</title>
<path fill="none" stroke="black" d="M78.72,-36C78.72,-36 48.72,-36 48.72,-36 42.72,-36 36.72,-30 36.72,-24 36.72,-24 36.72,-12 36.72,-12 36.72,-6 42.72,0 48.72,0 48.72,0 78.72,0 78.72,0 84.72,0 90.72,-6 90.72,-12 90.72,-12 90.72,-24 90.72,-24 90.72,-30 84.72,-36 78.72,-36"/>
<text text-anchor="start" x="51.97" y="-12.57" font-family="Arial" font-size="14.00">1</text>
<polygon fill="black" stroke="none" points="69.47,-8.12 69.47,-27.88 77.47,-27.88 77.47,-8.12 69.47,-8.12"/>
</g>
<!-- dot_dummyinit_1&#45;&gt;1 -->
<g id="edge1" class="edge">
<title>dot_dummyinit_1&#45;&gt;1</title>
<path fill="none" stroke="black" d="M0.76,-18C1.55,-18 12.61,-18 25.16,-18"/>
<polygon fill="black" stroke="black" points="24.85,-21.5 34.85,-18 24.85,-14.5 24.85,-21.5"/>
</g>
</g>
</svg>
