<?xml version="1.0" encoding="UTF-8" standalone="no"?>
<!DOCTYPE svg PUBLIC "-//W3C//DTD SVG 1.1//EN"
 "http://www.w3.org/Graphics/SVG/1.1/DTD/svg11.dtd">
<!-- Generated by graphviz version 12.2.1 (20241206.2353)
 -->
<!-- Title: Concatenate(g2,g3) Pages: 1 -->
<svg width="249pt" height="78pt"
 viewBox="0.00 0.00 248.72 77.96" xmlns="http://www.w3.org/2000/svg" xmlns:xlink="http://www.w3.org/1999/xlink">
<g id="graph0" class="graph" transform="scale(1 1) rotate(0) translate(4 73.96)">
<title>Concatenate(g2,g3)</title>
<!-- dot_dummyinit_1 -->
<g id="node1" class="node">
<title>dot_dummyinit_1</title>
</g>
<!-- 1 -->
<g id="node2" class="node">
<title>1</title>
<ellipse fill="none" stroke="black" cx="55.72" cy="-45" rx="18" ry="18"/>
<text text-anchor="middle" x="55.72" y="-39.58" font-family="Arial" font-size="14.00">1</text>
</g>
<!-- dot_dummyinit_1&#45;&gt;1 -->
<g id="edge1" class="edge">
<title>dot_dummyinit_1&#45;&gt;1</title>
<path fill="none" stroke="black" d="M0.87,-45C2.34,-45 13.93,-45 25.99,-45"/>
<polygon fill="black" stroke="black" points="25.86,-48.5 35.86,-45 25.86,-41.5 25.86,-48.5"/>
</g>
<!-- 3 -->
<g id="node3" class="node">
<title>3</title>
<ellipse fill="none" stroke="black" cx="218.72" cy="-45" rx="18" ry="18"/>
<ellipse fill="none" stroke="black" cx="218.72" cy="-45" rx="22" ry="22"/>
<text text-anchor="middle" x="218.72" y="-39.58" font-family="Arial" font-size="14.00">3</text>
</g>
<!-- 1&#45;&gt;3 -->
<g id="edge3" class="edge">
<title>1&#45;&gt;3</title>
<path fill="none" stroke="black" d="M73.71,-49.1C79.4,-50.28 85.8,-51.41 91.72,-52 130.2,-55.81 140.18,-54.19 178.72,-51 180.92,-50.82 183.19,-50.59 185.47,-50.32"/>
<polygon fill="black" stroke="black" points="185.8,-53.81 195.23,-48.99 184.85,-46.87 185.8,-53.81"/>
<text text-anchor="middle" x="135.22" y="-56.66" font-family="Arial" font-size="14.00">b</text>
</g>
<!-- 2 -->
<g id="node4" class="node">
<title>2</title>
<ellipse fill="none" stroke="black" cx="135.22" cy="-18" rx="18" ry="18"/>
<text text-anchor="middle" x="135.22" y="-12.57" font-family="Arial" font-size="14.00">2</text>
</g>
<!-- 1&#45;&gt;2 -->
<g id="edge2" class="edge">
<title>1&#45;&gt;2</title>
<path fill="none" stroke="black" d="M73.16,-39.27C83.02,-35.84 95.81,-31.38 107.13,-27.44"/>
<polygon fill="black" stroke="black" points="108.09,-30.81 116.38,-24.22 105.78,-24.2 108.09,-30.81"/>
<text text-anchor="middle" x="95.47" y="-34.76" font-family="Arial" font-size="14.00">a</text>
</g>
<!-- 2&#45;&gt;3 -->
<g id="edge4" class="edge">
<title>2&#45;&gt;3</title>
<path fill="none" stroke="black" d="M152.71,-23.46C162.51,-26.71 175.25,-30.93 186.86,-34.78"/>
<polygon fill="black" stroke="black" points="185.47,-38 196.06,-37.82 187.67,-31.36 185.47,-38"/>
<text text-anchor="middle" x="174.97" y="-33.95" font-family="Arial" font-size="14.00">b</text>
</g>
</g>
</svg>
