<?xml version="1.0" encoding="UTF-8" standalone="no"?>
<!DOCTYPE svg PUBLIC "-//W3C//DTD SVG 1.0//EN"
 "http://www.w3.org/TR/2001/REC-SVG-20010904/DTD/svg10.dtd" [
 <!ATTLIST svg xmlns:xlink CDATA #FIXED "http://www.w3.org/1999/xlink">
]>
<!-- Generated by Graphviz version 2.20.2 (Tue Mar &#160;2 21:46:26 UTC 2010)
     For user: (mtmoor) Prof. Thomas Moor -->
<!-- Title: simple machine Pages: 1 -->
<svg width="392pt" height="121pt"
 viewBox="0.00 0.00 392.00 121.00" xmlns="http://www.w3.org/2000/svg" xmlns:xlink="http://www.w3.org/1999/xlink">
<g id="graph0" class="graph" transform="scale(1 1) rotate(0) translate(4 117)">
<title>simple machine</title>
<polygon style="fill:none;stroke:none;" points="-4,4 -4,-117 388,-117 388,4 -4,4"/>
<!-- dot_dummyinit_1 -->
<g id="node1" class="node"><title>dot_dummyinit_1</title>
</g>
<!-- idle -->
<g id="node3" class="node"><title>idle</title>
<ellipse style="fill:none;stroke:black;" cx="72" cy="-45" rx="27.7953" ry="27.7953"/>
<ellipse style="fill:none;stroke:black;" cx="72" cy="-45" rx="31.7953" ry="31.7953"/>
<text text-anchor="middle" x="72" y="-40.9" style="font-family:Times New Roman;font-size:14.00;">idle</text>
</g>
<!-- dot_dummyinit_1&#45;&gt;idle -->
<g id="edge2" class="edge"><title>dot_dummyinit_1&#45;&gt;idle</title>
<path style="fill:none;stroke:black;" d="M2,-45C5,-45 17,-45 30,-45"/>
<polygon style="fill:black;stroke:black;" points="30,-48.5001 40,-45 30,-41.5001 30,-48.5001"/>
</g>
<!-- busy -->
<g id="node4" class="node"><title>busy</title>
<ellipse style="fill:none;stroke:black;" cx="211" cy="-80" rx="32.8565" ry="32.8565"/>
<text text-anchor="middle" x="211" y="-75.9" style="font-family:Times New Roman;font-size:14.00;">busy</text>
</g>
<!-- idle&#45;&gt;busy -->
<g id="edge4" class="edge"><title>idle&#45;&gt;busy</title>
<path style="fill:none;stroke:black;" d="M102,-56C109,-59 116,-61 122,-63 137,-67 153,-70 168,-73"/>
<polygon style="fill:black;stroke:black;" points="167.508,-76.4708 178,-75 168.881,-69.6067 167.508,-76.4708"/>
<text text-anchor="middle" x="141" y="-73.9" style="font-family:Times New Roman;font-size:14.00;">alpha</text>
</g>
<!-- busy&#45;&gt;idle -->
<g id="edge6" class="edge"><title>busy&#45;&gt;idle</title>
<path style="fill:none;stroke:black;" d="M188,-56C180,-49 170,-42 160,-39 145,-33 128,-33 113,-35"/>
<polygon style="fill:black;stroke:black;" points="112.119,-31.6067 103,-37 113.492,-38.4708 112.119,-31.6067"/>
<text text-anchor="middle" x="141" y="-42.9" style="font-family:Times New Roman;font-size:14.00;">beta</text>
</g>
<!-- down -->
<g id="node5" class="node"><title>down</title>
<ellipse style="fill:none;stroke:black;" cx="347" cy="-37" rx="37.0233" ry="37.0233"/>
<text text-anchor="middle" x="347" y="-32.9" style="font-family:Times New Roman;font-size:14.00;">down</text>
</g>
<!-- busy&#45;&gt;down -->
<g id="edge8" class="edge"><title>busy&#45;&gt;down</title>
<path style="fill:none;stroke:black;" d="M243,-70C260,-64 282,-57 301,-51"/>
<polygon style="fill:black;stroke:black;" points="302.427,-54.2259 311,-48 300.416,-47.5212 302.427,-54.2259"/>
<text text-anchor="middle" x="277" y="-65.9" style="font-family:Times New Roman;font-size:14.00;">mue</text>
</g>
<!-- down&#45;&gt;idle -->
<g id="edge10" class="edge"><title>down&#45;&gt;idle</title>
<path style="fill:none;stroke:black;" d="M310,-30C291,-26 266,-22 244,-21 190,-16 175,-15 122,-28 119,-29 115,-30 112,-31"/>
<polygon style="fill:black;stroke:black;" points="110.573,-27.7741 102,-34 112.584,-34.4788 110.573,-27.7741"/>
<text text-anchor="middle" x="211" y="-24.9" style="font-family:Times New Roman;font-size:14.00;">lambda</text>
</g>
</g>
</svg>
