<?xml version="1.0" encoding="UTF-8" standalone="no"?>
<!DOCTYPE svg PUBLIC "-//W3C//DTD SVG 1.0//EN"
 "http://www.w3.org/TR/2001/REC-SVG-20010904/DTD/svg10.dtd" [
 <!ATTLIST svg xmlns:xlink CDATA #FIXED "http://www.w3.org/1999/xlink">
]>
<!-- Generated by Graphviz version 2.20.2 (Tue Mar &#160;2 21:46:26 UTC 2010)
     For user: (mtmoor) Prof. Thomas Moor -->
<!-- Title: Intersection(languagedifference_g1,...nt(languagedifference_g2,Alphabet)) Pages: 1 -->
<svg width="402pt" height="105pt"
 viewBox="0.00 0.00 402.00 105.00" xmlns="http://www.w3.org/2000/svg" xmlns:xlink="http://www.w3.org/1999/xlink">
<g id="graph0" class="graph" transform="scale(1 1) rotate(0) translate(4 101)">
<title>Intersection(languagedifference_g1,...nt(languagedifference_g2,Alphabet))</title>
<polygon style="fill:none;stroke:none;" points="-4,4 -4,-101 398,-101 398,4 -4,4"/>
<!-- dot_dummyinit_1 -->
<g id="node1" class="node"><title>dot_dummyinit_1</title>
</g>
<!-- 1|1 -->
<g id="node3" class="node"><title>1|1</title>
<ellipse style="fill:none;stroke:black;" cx="67" cy="-31" rx="27.1004" ry="27.1004"/>
<text text-anchor="middle" x="67" y="-26.9" style="font-family:Times New Roman;font-size:14.00;">1|1</text>
</g>
<!-- dot_dummyinit_1&#45;&gt;1|1 -->
<g id="edge2" class="edge"><title>dot_dummyinit_1&#45;&gt;1|1</title>
<path style="fill:none;stroke:black;" d="M2,-31C6,-31 17,-31 30,-31"/>
<polygon style="fill:black;stroke:black;" points="30,-34.5001 40,-31 30,-27.5001 30,-34.5001"/>
</g>
<!-- 2|2 -->
<g id="node5" class="node"><title>2|2</title>
<ellipse style="fill:none;stroke:black;" cx="165" cy="-70" rx="27.1004" ry="27.1004"/>
<text text-anchor="middle" x="165" y="-65.9" style="font-family:Times New Roman;font-size:14.00;">2|2</text>
</g>
<!-- 1|1&#45;&gt;2|2 -->
<g id="edge4" class="edge"><title>1|1&#45;&gt;2|2</title>
<path style="fill:none;stroke:black;" d="M92,-41C104,-46 118,-51 131,-56"/>
<polygon style="fill:black;stroke:black;" points="129.44,-59.1369 140,-60 132.283,-52.7402 129.44,-59.1369"/>
<text text-anchor="middle" x="116" y="-53.9" style="font-family:Times New Roman;font-size:14.00;">a</text>
</g>
<!-- 4|5 -->
<g id="node4" class="node"><title>4|5</title>
<ellipse style="fill:none;stroke:black;" cx="363" cy="-31" rx="27.1004" ry="27.1004"/>
<ellipse style="fill:none;stroke:black;" cx="363" cy="-31" rx="31.1004" ry="31.1004"/>
<text text-anchor="middle" x="363" y="-26.9" style="font-family:Times New Roman;font-size:14.00;">4|5</text>
</g>
<!-- 3|3 -->
<g id="node6" class="node"><title>3|3</title>
<ellipse style="fill:none;stroke:black;" cx="263" cy="-31" rx="27.1004" ry="27.1004"/>
<text text-anchor="middle" x="263" y="-26.9" style="font-family:Times New Roman;font-size:14.00;">3|3</text>
</g>
<!-- 2|2&#45;&gt;3|3 -->
<g id="edge6" class="edge"><title>2|2&#45;&gt;3|3</title>
<path style="fill:none;stroke:black;" d="M190,-60C202,-55 216,-50 229,-45"/>
<polygon style="fill:black;stroke:black;" points="230.283,-48.2598 238,-41 227.44,-41.8631 230.283,-48.2598"/>
<text text-anchor="middle" x="214" y="-55.9" style="font-family:Times New Roman;font-size:14.00;">b</text>
</g>
<!-- 3|3&#45;&gt;1|1 -->
<g id="edge10" class="edge"><title>3|3&#45;&gt;1|1</title>
<path style="fill:none;stroke:black;" d="M237,-24C223,-21 207,-18 192,-17 169,-14 162,-14 138,-17 127,-18 114,-20 103,-22"/>
<polygon style="fill:black;stroke:black;" points="102.119,-18.6067 93,-24 103.492,-25.4708 102.119,-18.6067"/>
<text text-anchor="middle" x="165" y="-20.9" style="font-family:Times New Roman;font-size:14.00;">c</text>
</g>
<!-- 3|3&#45;&gt;4|5 -->
<g id="edge8" class="edge"><title>3|3&#45;&gt;4|5</title>
<path style="fill:none;stroke:black;" d="M290,-31C300,-31 311,-31 322,-31"/>
<polygon style="fill:black;stroke:black;" points="322,-34.5001 332,-31 322,-27.5001 322,-34.5001"/>
<text text-anchor="middle" x="311" y="-34.9" style="font-family:Times New Roman;font-size:14.00;">f</text>
</g>
</g>
</svg>
