<?xml version="1.0" encoding="UTF-8" standalone="no"?>
<!DOCTYPE svg PUBLIC "-//W3C//DTD SVG 1.1//EN"
 "http://www.w3.org/Graphics/SVG/1.1/DTD/svg11.dtd">
<!-- Generated by graphviz version 12.2.1 (20241206.2353)
 -->
<!-- Title: g2 Pages: 1 -->
<svg width="295pt" height="132pt"
 viewBox="0.00 0.00 294.72 132.00" xmlns="http://www.w3.org/2000/svg" xmlns:xlink="http://www.w3.org/1999/xlink">
<g id="graph0" class="graph" transform="scale(1 1) rotate(0) translate(4 128)">
<title>g2</title>
<!-- dot_dummyinit_1 -->
<g id="node1" class="node">
<title>dot_dummyinit_1</title>
</g>
<!-- 1 -->
<g id="node2" class="node">
<title>1</title>
<path fill="none" stroke="black" d="M79.72,-79C79.72,-79 49.72,-79 49.72,-79 43.72,-79 37.72,-73 37.72,-67 37.72,-67 37.72,-55 37.72,-55 37.72,-49 43.72,-43 49.72,-43 49.72,-43 79.72,-43 79.72,-43 85.72,-43 91.72,-49 91.72,-55 91.72,-55 91.72,-67 91.72,-67 91.72,-73 85.72,-79 79.72,-79"/>
<text text-anchor="start" x="52.97" y="-55.58" font-family="Arial" font-size="14.00">1</text>
<polygon fill="black" stroke="none" points="70.47,-51.12 70.47,-70.88 78.47,-70.88 78.47,-51.12 70.47,-51.12"/>
</g>
<!-- dot_dummyinit_1&#45;&gt;1 -->
<g id="edge1" class="edge">
<title>dot_dummyinit_1&#45;&gt;1</title>
<path fill="none" stroke="black" d="M0.77,-61C1.57,-61 12.96,-61 25.83,-61"/>
<polygon fill="black" stroke="black" points="25.79,-64.5 35.79,-61 25.79,-57.5 25.79,-64.5"/>
</g>
<!-- 2 -->
<g id="node3" class="node">
<title>2</title>
<path fill="none" stroke="black" d="M177.22,-124C177.22,-124 147.22,-124 147.22,-124 141.22,-124 135.22,-118 135.22,-112 135.22,-112 135.22,-100 135.22,-100 135.22,-94 141.22,-88 147.22,-88 147.22,-88 177.22,-88 177.22,-88 183.22,-88 189.22,-94 189.22,-100 189.22,-100 189.22,-112 189.22,-112 189.22,-118 183.22,-124 177.22,-124"/>
<text text-anchor="start" x="150.47" y="-100.58" font-family="Arial" font-size="14.00">2</text>
<polygon fill="black" stroke="none" points="167.97,-96.12 167.97,-115.88 175.97,-115.88 175.97,-96.12 167.97,-96.12"/>
</g>
<!-- 1&#45;&gt;2 -->
<g id="edge2" class="edge">
<title>1&#45;&gt;2</title>
<path fill="none" stroke="black" d="M92.07,-73.42C102.19,-78.19 113.94,-83.72 124.84,-88.86"/>
<polygon fill="black" stroke="black" points="123.05,-91.88 133.59,-92.98 126.03,-85.55 123.05,-91.88"/>
<text text-anchor="middle" x="113.47" y="-87.3" font-family="Arial" font-size="14.00">a</text>
</g>
<!-- 4 -->
<g id="node5" class="node">
<title>4</title>
<path fill="none" stroke="black" d="M177.22,-36C177.22,-36 147.22,-36 147.22,-36 141.22,-36 135.22,-30 135.22,-24 135.22,-24 135.22,-12 135.22,-12 135.22,-6 141.22,0 147.22,0 147.22,0 177.22,0 177.22,0 183.22,0 189.22,-6 189.22,-12 189.22,-12 189.22,-24 189.22,-24 189.22,-30 183.22,-36 177.22,-36"/>
<text text-anchor="middle" x="162.22" y="-12.57" font-family="Arial" font-size="14.00">4</text>
</g>
<!-- 1&#45;&gt;4 -->
<g id="edge3" class="edge">
<title>1&#45;&gt;4</title>
<path fill="none" stroke="black" d="M92.07,-49.14C102.09,-44.62 113.7,-39.4 124.5,-34.53"/>
<polygon fill="black" stroke="black" points="125.9,-37.74 133.58,-30.45 123.02,-31.36 125.9,-37.74"/>
<text text-anchor="middle" x="113.47" y="-43.24" font-family="Arial" font-size="14.00">c</text>
</g>
<!-- 3 -->
<g id="node4" class="node">
<title>3</title>
<path fill="none" stroke="black" d="M274.72,-123C274.72,-123 244.72,-123 244.72,-123 238.72,-123 232.72,-117 232.72,-111 232.72,-111 232.72,-99 232.72,-99 232.72,-93 238.72,-87 244.72,-87 244.72,-87 274.72,-87 274.72,-87 280.72,-87 286.72,-93 286.72,-99 286.72,-99 286.72,-111 286.72,-111 286.72,-117 280.72,-123 274.72,-123"/>
<text text-anchor="middle" x="259.72" y="-99.58" font-family="Arial" font-size="14.00">3</text>
</g>
<!-- 2&#45;&gt;3 -->
<g id="edge4" class="edge">
<title>2&#45;&gt;3</title>
<path fill="none" stroke="black" d="M189.57,-105.72C199.28,-105.62 210.47,-105.51 220.99,-105.4"/>
<polygon fill="black" stroke="black" points="220.98,-108.9 230.94,-105.29 220.91,-101.9 220.98,-108.9"/>
<text text-anchor="middle" x="210.97" y="-107.98" font-family="Arial" font-size="14.00">b</text>
</g>
<!-- 3&#45;&gt;2 -->
<g id="edge5" class="edge">
<title>3&#45;&gt;2</title>
<path fill="none" stroke="black" d="M232.45,-88.48C224.49,-85.25 215.63,-83.37 207.22,-85.25 204.9,-85.77 202.56,-86.42 200.23,-87.18"/>
<polygon fill="black" stroke="black" points="199.02,-83.9 190.95,-90.77 201.54,-90.43 199.02,-83.9"/>
<text text-anchor="middle" x="210.97" y="-87.7" font-family="Arial" font-size="14.00">a</text>
</g>
<!-- 4&#45;&gt;4 -->
<g id="edge6" class="edge">
<title>4&#45;&gt;4</title>
<path fill="none" stroke="black" d="M153.4,-36.15C152.04,-45.54 154.98,-54 162.22,-54 166.29,-54 169,-51.32 170.35,-47.31"/>
<polygon fill="black" stroke="black" points="173.83,-47.86 170.95,-37.66 166.84,-47.43 173.83,-47.86"/>
<text text-anchor="middle" x="162.22" y="-56.45" font-family="Arial" font-size="14.00">e</text>
</g>
</g>
</svg>
