<?xml version="1.0" encoding="UTF-8" standalone="no"?>
<!DOCTYPE svg PUBLIC "-//W3C//DTD SVG 1.0//EN"
 "http://www.w3.org/TR/2001/REC-SVG-20010904/DTD/svg10.dtd" [
 <!ATTLIST svg xmlns:xlink CDATA #FIXED "http://www.w3.org/1999/xlink">
]>
<!-- Generated by Graphviz version 2.20.2 (Tue Mar &#160;2 21:46:26 UTC 2010)
     For user: (mtmoor) Prof. Thomas Moor -->
<!-- Title: GSigoCompleteC Pages: 1 -->
<svg width="364pt" height="60pt"
 viewBox="0.00 0.00 364.00 60.00" xmlns="http://www.w3.org/2000/svg" xmlns:xlink="http://www.w3.org/1999/xlink">
<g id="graph0" class="graph" transform="scale(1 1) rotate(0) translate(4 56)">
<title>GSigoCompleteC</title>
<polygon style="fill:none;stroke:none;" points="-4,4 -4,-56 360,-56 360,4 -4,4"/>
<!-- dot_dummyinit_1 -->
<g id="node1" class="node"><title>dot_dummyinit_1</title>
</g>
<!-- s1 -->
<g id="node3" class="node"><title>s1</title>
<ellipse style="fill:none;stroke:black;" cx="62" cy="-26" rx="22.2362" ry="22.2362"/>
<text text-anchor="middle" x="62" y="-21.9" style="font-family:Times New Roman;font-size:14.00;">s1</text>
</g>
<!-- dot_dummyinit_1&#45;&gt;s1 -->
<g id="edge2" class="edge"><title>dot_dummyinit_1&#45;&gt;s1</title>
<path style="fill:none;stroke:black;" d="M2,-26C5,-26 17,-26 30,-26"/>
<polygon style="fill:black;stroke:black;" points="30,-29.5001 40,-26 30,-22.5001 30,-29.5001"/>
</g>
<!-- s2 -->
<g id="node4" class="node"><title>s2</title>
<ellipse style="fill:none;stroke:black;" cx="154" cy="-26" rx="22.2362" ry="22.2362"/>
<ellipse style="fill:none;stroke:black;" cx="154" cy="-26" rx="26.2362" ry="26.2362"/>
<text text-anchor="middle" x="154" y="-21.9" style="font-family:Times New Roman;font-size:14.00;">s2</text>
</g>
<!-- s1&#45;&gt;s2 -->
<g id="edge4" class="edge"><title>s1&#45;&gt;s2</title>
<path style="fill:none;stroke:black;" d="M84,-26C94,-26 106,-26 118,-26"/>
<polygon style="fill:black;stroke:black;" points="118,-29.5001 128,-26 118,-22.5001 118,-29.5001"/>
<text text-anchor="middle" x="106" y="-29.9" style="font-family:Times New Roman;font-size:14.00;">a</text>
</g>
<!-- s2&#45;&gt;s1 -->
<g id="edge8" class="edge"><title>s2&#45;&gt;s1</title>
<path style="fill:none;stroke:black;" d="M133,-11C123,-6 113,-3 102,-5 98,-6 94,-7 90,-9"/>
<polygon style="fill:black;stroke:black;" points="88.0418,-6.08397 81,-14 91.4414,-12.2031 88.0418,-6.08397"/>
<text text-anchor="middle" x="106" y="-9.9" style="font-family:Times New Roman;font-size:14.00;">b</text>
</g>
<!-- s3 -->
<g id="node5" class="node"><title>s3</title>
<ellipse style="fill:none;stroke:black;" cx="246" cy="-26" rx="22.2362" ry="22.2362"/>
<text text-anchor="middle" x="246" y="-21.9" style="font-family:Times New Roman;font-size:14.00;">s3</text>
</g>
<!-- s2&#45;&gt;s3 -->
<g id="edge6" class="edge"><title>s2&#45;&gt;s3</title>
<path style="fill:none;stroke:black;" d="M180,-26C191,-26 203,-26 214,-26"/>
<polygon style="fill:black;stroke:black;" points="214,-29.5001 224,-26 214,-22.5001 214,-29.5001"/>
<text text-anchor="middle" x="202" y="-29.9" style="font-family:Times New Roman;font-size:14.00;">a</text>
</g>
<!-- s4 -->
<g id="node6" class="node"><title>s4</title>
<ellipse style="fill:none;stroke:black;" cx="334" cy="-26" rx="22.2362" ry="22.2362"/>
<text text-anchor="middle" x="334" y="-21.9" style="font-family:Times New Roman;font-size:14.00;">s4</text>
</g>
<!-- s3&#45;&gt;s4 -->
<g id="edge10" class="edge"><title>s3&#45;&gt;s4</title>
<path style="fill:none;stroke:black;" d="M268,-26C278,-26 291,-26 302,-26"/>
<polygon style="fill:black;stroke:black;" points="302,-29.5001 312,-26 302,-22.5001 302,-29.5001"/>
<text text-anchor="middle" x="290" y="-29.9" style="font-family:Times New Roman;font-size:14.00;">c</text>
</g>
<!-- s4&#45;&gt;s3 -->
<g id="edge12" class="edge"><title>s4&#45;&gt;s3</title>
<path style="fill:none;stroke:black;" d="M315,-13C309,-10 301,-7 294,-5 287,-4 280,-5 273,-8"/>
<polygon style="fill:black;stroke:black;" points="271.042,-5.08397 264,-13 274.441,-11.2031 271.042,-5.08397"/>
<text text-anchor="middle" x="290" y="-9.9" style="font-family:Times New Roman;font-size:14.00;">d</text>
</g>
</g>
</svg>
