<?xml version="1.0" encoding="UTF-8" standalone="no"?>
<!DOCTYPE svg PUBLIC "-//W3C//DTD SVG 1.1//EN"
 "http://www.w3.org/Graphics/SVG/1.1/DTD/svg11.dtd">
<!-- Generated by graphviz version 12.2.1 (20241206.2353)
 -->
<!-- Title: Det(g_nondet) Pages: 1 -->
<svg width="408pt" height="143pt"
 viewBox="0.00 0.00 408.47 142.60" xmlns="http://www.w3.org/2000/svg" xmlns:xlink="http://www.w3.org/1999/xlink">
<g id="graph0" class="graph" transform="scale(1 1) rotate(0) translate(4 138.6)">
<title>Det(g_nondet)</title>
<!-- dot_dummyinit_1 -->
<g id="node1" class="node">
<title>dot_dummyinit_1</title>
</g>
<!-- {1} -->
<g id="node2" class="node">
<title>{1}</title>
<path fill="none" stroke="black" d="M79.72,-76C79.72,-76 49.72,-76 49.72,-76 43.72,-76 37.72,-70 37.72,-64 37.72,-64 37.72,-52 37.72,-52 37.72,-46 43.72,-40 49.72,-40 49.72,-40 79.72,-40 79.72,-40 85.72,-40 91.72,-46 91.72,-52 91.72,-52 91.72,-64 91.72,-64 91.72,-70 85.72,-76 79.72,-76"/>
<text text-anchor="middle" x="64.72" y="-52.58" font-family="Arial" font-size="14.00">{1}</text>
</g>
<!-- dot_dummyinit_1&#45;&gt;{1} -->
<g id="edge1" class="edge">
<title>dot_dummyinit_1&#45;&gt;{1}</title>
<path fill="none" stroke="black" d="M0.77,-58C1.57,-58 12.96,-58 25.83,-58"/>
<polygon fill="black" stroke="black" points="25.79,-61.5 35.79,-58 25.79,-54.5 25.79,-61.5"/>
</g>
<!-- {2} -->
<g id="node5" class="node">
<title>{2}</title>
<path fill="none" stroke="black" d="M177.22,-102C177.22,-102 147.22,-102 147.22,-102 141.22,-102 135.22,-96 135.22,-90 135.22,-90 135.22,-78 135.22,-78 135.22,-72 141.22,-66 147.22,-66 147.22,-66 177.22,-66 177.22,-66 183.22,-66 189.22,-72 189.22,-78 189.22,-78 189.22,-90 189.22,-90 189.22,-96 183.22,-102 177.22,-102"/>
<text text-anchor="middle" x="162.22" y="-78.58" font-family="Arial" font-size="14.00">{2}</text>
</g>
<!-- {1}&#45;&gt;{2} -->
<g id="edge2" class="edge">
<title>{1}&#45;&gt;{2}</title>
<path fill="none" stroke="black" d="M92.07,-65.17C101.98,-67.87 113.45,-71 124.17,-73.91"/>
<polygon fill="black" stroke="black" points="122.93,-77.2 133.5,-76.45 124.77,-70.45 122.93,-77.2"/>
<text text-anchor="middle" x="113.47" y="-74.23" font-family="Arial" font-size="14.00">a</text>
</g>
<!-- {5} -->
<g id="node6" class="node">
<title>{5}</title>
<path fill="none" stroke="black" d="M281.6,-125C281.6,-125 251.6,-125 251.6,-125 245.6,-125 239.6,-119 239.6,-113 239.6,-113 239.6,-101 239.6,-101 239.6,-95 245.6,-89 251.6,-89 251.6,-89 281.6,-89 281.6,-89 287.6,-89 293.6,-95 293.6,-101 293.6,-101 293.6,-113 293.6,-113 293.6,-119 287.6,-125 281.6,-125"/>
<text text-anchor="middle" x="266.6" y="-101.58" font-family="Arial" font-size="14.00">{5}</text>
</g>
<!-- {1}&#45;&gt;{5} -->
<g id="edge3" class="edge">
<title>{1}&#45;&gt;{5}</title>
<path fill="none" stroke="black" d="M83.3,-76.32C96.34,-88.59 115.25,-103.76 135.22,-111 165.08,-121.83 201.35,-119.59 228.05,-115.36"/>
<polygon fill="black" stroke="black" points="228.49,-118.83 237.73,-113.64 227.27,-111.94 228.49,-118.83"/>
<text text-anchor="middle" x="162.22" y="-121.3" font-family="Arial" font-size="14.00">e</text>
</g>
<!-- {3,4} -->
<g id="node3" class="node">
<title>{3,4}</title>
<path fill="none" stroke="black" d="M288.47,-50C288.47,-50 244.72,-50 244.72,-50 238.72,-50 232.72,-44 232.72,-38 232.72,-38 232.72,-26 232.72,-26 232.72,-20 238.72,-14 244.72,-14 244.72,-14 288.47,-14 288.47,-14 294.47,-14 300.47,-20 300.47,-26 300.47,-26 300.47,-38 300.47,-38 300.47,-44 294.47,-50 288.47,-50"/>
<text text-anchor="start" x="244.72" y="-26.57" font-family="Arial" font-size="14.00">{3,4}</text>
<polygon fill="black" stroke="none" points="282.47,-22.12 282.47,-41.88 290.47,-41.88 290.47,-22.12 282.47,-22.12"/>
</g>
<!-- {3,4}&#45;&gt;{1} -->
<g id="edge8" class="edge">
<title>{3,4}&#45;&gt;{1}</title>
<path fill="none" stroke="black" d="M232.47,-32.84C206.02,-33.87 168.07,-36.16 135.22,-41.25 124.59,-42.9 113.19,-45.35 102.77,-47.87"/>
<polygon fill="black" stroke="black" points="102.23,-44.4 93.38,-50.23 103.94,-51.18 102.23,-44.4"/>
<text text-anchor="middle" x="162.22" y="-43.7" font-family="Arial" font-size="14.00">e</text>
</g>
<!-- {4} -->
<g id="node4" class="node">
<title>{4}</title>
<path fill="none" stroke="black" d="M388.47,-36C388.47,-36 355.97,-36 355.97,-36 349.97,-36 343.97,-30 343.97,-24 343.97,-24 343.97,-12 343.97,-12 343.97,-6 349.97,0 355.97,0 355.97,0 388.47,0 388.47,0 394.47,0 400.47,-6 400.47,-12 400.47,-12 400.47,-24 400.47,-24 400.47,-30 394.47,-36 388.47,-36"/>
<text text-anchor="start" x="355.97" y="-12.57" font-family="Arial" font-size="14.00">{4}</text>
<polygon fill="black" stroke="none" points="382.47,-8.12 382.47,-27.88 390.47,-27.88 390.47,-8.12 382.47,-8.12"/>
</g>
<!-- {3,4}&#45;&gt;{4} -->
<g id="edge7" class="edge">
<title>{3,4}&#45;&gt;{4}</title>
<path fill="none" stroke="black" d="M300.95,-27.49C310.93,-26.15 321.95,-24.66 332.25,-23.27"/>
<polygon fill="black" stroke="black" points="332.53,-26.76 341.98,-21.95 331.6,-19.82 332.53,-26.76"/>
<text text-anchor="middle" x="322.22" y="-27.45" font-family="Arial" font-size="14.00">d</text>
</g>
<!-- {4}&#45;&gt;{1} -->
<g id="edge10" class="edge">
<title>{4}&#45;&gt;{1}</title>
<path fill="none" stroke="black" d="M343.49,-11.7C330.5,-9.06 314.77,-6.3 300.47,-5 226.43,1.75 205.9,-7.93 135.22,-31 124.53,-34.49 113.1,-38.72 102.66,-42.78"/>
<polygon fill="black" stroke="black" points="101.62,-39.43 93.61,-46.36 104.2,-45.94 101.62,-39.43"/>
<text text-anchor="middle" x="210.97" y="-11.08" font-family="Arial" font-size="14.00">e</text>
</g>
<!-- {2}&#45;&gt;{3,4} -->
<g id="edge5" class="edge">
<title>{2}&#45;&gt;{3,4}</title>
<path fill="none" stroke="black" d="M189.58,-70.61C199.56,-65.54 211.2,-59.63 222.33,-53.98"/>
<polygon fill="black" stroke="black" points="223.66,-57.22 230.99,-49.58 220.49,-50.98 223.66,-57.22"/>
<text text-anchor="middle" x="210.97" y="-63.56" font-family="Arial" font-size="14.00">b</text>
</g>
<!-- {2}&#45;&gt;{5} -->
<g id="edge4" class="edge">
<title>{2}&#45;&gt;{5}</title>
<path fill="none" stroke="black" d="M189.58,-89.92C201.41,-92.58 215.56,-95.76 228.43,-98.65"/>
<polygon fill="black" stroke="black" points="227.32,-101.99 237.84,-100.77 228.85,-95.16 227.32,-101.99"/>
<text text-anchor="middle" x="210.97" y="-97.95" font-family="Arial" font-size="14.00">f</text>
</g>
<!-- {6} -->
<g id="node7" class="node">
<title>{6}</title>
<path fill="none" stroke="black" d="M387.22,-102C387.22,-102 357.22,-102 357.22,-102 351.22,-102 345.22,-96 345.22,-90 345.22,-90 345.22,-78 345.22,-78 345.22,-72 351.22,-66 357.22,-66 357.22,-66 387.22,-66 387.22,-66 393.22,-66 399.22,-72 399.22,-78 399.22,-78 399.22,-90 399.22,-90 399.22,-96 393.22,-102 387.22,-102"/>
<text text-anchor="middle" x="372.22" y="-78.58" font-family="Arial" font-size="14.00">{6}</text>
</g>
<!-- {5}&#45;&gt;{6} -->
<g id="edge6" class="edge">
<title>{5}&#45;&gt;{6}</title>
<path fill="none" stroke="black" d="M294.01,-101.14C306.07,-98.46 320.57,-95.24 333.73,-92.32"/>
<polygon fill="black" stroke="black" points="334.37,-95.76 343.37,-90.18 332.85,-88.93 334.37,-95.76"/>
<text text-anchor="middle" x="322.22" y="-97.95" font-family="Arial" font-size="14.00">g</text>
</g>
<!-- {6}&#45;&gt;{5} -->
<g id="edge9" class="edge">
<title>{6}&#45;&gt;{5}</title>
<path fill="none" stroke="black" d="M344.94,-74.32C336.41,-72.45 326.96,-71.75 318.47,-74.25 312.01,-76.15 305.6,-79.15 299.62,-82.58"/>
<polygon fill="black" stroke="black" points="297.89,-79.53 291.3,-87.83 301.62,-85.45 297.89,-79.53"/>
<text text-anchor="middle" x="322.22" y="-76.7" font-family="Arial" font-size="14.00">h</text>
</g>
</g>
</svg>
