<?xml version="1.0" encoding="UTF-8" standalone="no"?>
<!DOCTYPE svg PUBLIC "-//W3C//DTD SVG 1.1//EN"
 "http://www.w3.org/Graphics/SVG/1.1/DTD/svg11.dtd">
<!-- Generated by graphviz version 12.2.1 (20241206.2353)
 -->
<!-- Title: languagedifference_g2 Pages: 1 -->
<svg width="265pt" height="113pt"
 viewBox="0.00 0.00 264.72 113.00" xmlns="http://www.w3.org/2000/svg" xmlns:xlink="http://www.w3.org/1999/xlink">
<g id="graph0" class="graph" transform="scale(1 1) rotate(0) translate(4 109)">
<title>languagedifference_g2</title>
<!-- dot_dummyinit_1 -->
<g id="node1" class="node">
<title>dot_dummyinit_1</title>
</g>
<!-- 1 -->
<g id="node2" class="node">
<title>1</title>
<ellipse fill="none" stroke="black" cx="59.72" cy="-27" rx="18" ry="18"/>
<ellipse fill="none" stroke="black" cx="59.72" cy="-27" rx="22" ry="22"/>
<text text-anchor="middle" x="59.72" y="-21.57" font-family="Arial" font-size="14.00">1</text>
</g>
<!-- dot_dummyinit_1&#45;&gt;1 -->
<g id="edge1" class="edge">
<title>dot_dummyinit_1&#45;&gt;1</title>
<path fill="none" stroke="black" d="M0.89,-27C2.38,-27 13.74,-27 26,-27"/>
<polygon fill="black" stroke="black" points="25.74,-30.5 35.74,-27 25.74,-23.5 25.74,-30.5"/>
</g>
<!-- 2 -->
<g id="node3" class="node">
<title>2</title>
<ellipse fill="none" stroke="black" cx="147.22" cy="-67" rx="18" ry="18"/>
<ellipse fill="none" stroke="black" cx="147.22" cy="-67" rx="22" ry="22"/>
<text text-anchor="middle" x="147.22" y="-61.58" font-family="Arial" font-size="14.00">2</text>
</g>
<!-- 1&#45;&gt;2 -->
<g id="edge2" class="edge">
<title>1&#45;&gt;2</title>
<path fill="none" stroke="black" d="M80.12,-36.08C90.94,-41.14 104.65,-47.55 116.77,-53.22"/>
<polygon fill="black" stroke="black" points="114.98,-56.25 125.52,-57.32 117.95,-49.91 114.98,-56.25"/>
<text text-anchor="middle" x="103.47" y="-50.65" font-family="Arial" font-size="14.00">a</text>
</g>
<!-- 4 -->
<g id="node4" class="node">
<title>4</title>
<ellipse fill="none" stroke="black" cx="234.72" cy="-83" rx="18" ry="18"/>
<ellipse fill="none" stroke="black" cx="234.72" cy="-83" rx="22" ry="22"/>
<text text-anchor="middle" x="234.72" y="-77.58" font-family="Arial" font-size="14.00">4</text>
</g>
<!-- 2&#45;&gt;4 -->
<g id="edge4" class="edge">
<title>2&#45;&gt;4</title>
<path fill="none" stroke="black" d="M169.35,-70.96C179.09,-72.78 190.85,-74.98 201.64,-77"/>
<polygon fill="black" stroke="black" points="200.87,-80.41 211.34,-78.81 202.16,-73.53 200.87,-80.41"/>
<text text-anchor="middle" x="190.97" y="-77.93" font-family="Arial" font-size="14.00">e</text>
</g>
<!-- 3 -->
<g id="node5" class="node">
<title>3</title>
<ellipse fill="none" stroke="black" cx="234.72" cy="-18" rx="18" ry="18"/>
<text text-anchor="middle" x="234.72" y="-12.57" font-family="Arial" font-size="14.00">3</text>
</g>
<!-- 2&#45;&gt;3 -->
<g id="edge3" class="edge">
<title>2&#45;&gt;3</title>
<path fill="none" stroke="black" d="M166.77,-56.37C179.14,-49.28 195.54,-39.88 209.01,-32.16"/>
<polygon fill="black" stroke="black" points="210.37,-35.41 217.31,-27.41 206.89,-29.34 210.37,-35.41"/>
<text text-anchor="middle" x="190.97" y="-46.42" font-family="Arial" font-size="14.00">b</text>
</g>
<!-- 3&#45;&gt;1 -->
<g id="edge5" class="edge">
<title>3&#45;&gt;1</title>
<path fill="none" stroke="black" d="M216.41,-17.91C194.98,-17.91 157.37,-18.24 125.22,-20.25 114.8,-20.9 103.47,-21.97 93.25,-23.06"/>
<polygon fill="black" stroke="black" points="92.94,-19.57 83.39,-24.17 93.72,-26.53 92.94,-19.57"/>
<text text-anchor="middle" x="147.22" y="-22.7" font-family="Arial" font-size="14.00">c</text>
</g>
</g>
</svg>
