<?xml version="1.0" encoding="UTF-8" standalone="no"?>
<!DOCTYPE svg PUBLIC "-//W3C//DTD SVG 1.1//EN"
 "http://www.w3.org/Graphics/SVG/1.1/DTD/svg11.dtd">
<!-- Generated by graphviz version 12.2.1 (20241206.2353)
 -->
<!-- Title: GOmegaTrim Pages: 1 -->
<svg width="197pt" height="47pt"
 viewBox="0.00 0.00 197.47 46.64" xmlns="http://www.w3.org/2000/svg" xmlns:xlink="http://www.w3.org/1999/xlink">
<g id="graph0" class="graph" transform="scale(1 1) rotate(0) translate(4 42.64)">
<title>GOmegaTrim</title>
<!-- dot_dummyinit_1 -->
<g id="node1" class="node">
<title>dot_dummyinit_1</title>
</g>
<!-- s1 -->
<g id="node2" class="node">
<title>s1</title>
<path fill="none" stroke="black" d="M79.72,-38.64C79.72,-38.64 49.72,-38.64 49.72,-38.64 43.72,-38.64 37.72,-32.64 37.72,-26.64 37.72,-26.64 37.72,-14.64 37.72,-14.64 37.72,-8.64 43.72,-2.64 49.72,-2.64 49.72,-2.64 79.72,-2.64 79.72,-2.64 85.72,-2.64 91.72,-8.64 91.72,-14.64 91.72,-14.64 91.72,-26.64 91.72,-26.64 91.72,-32.64 85.72,-38.64 79.72,-38.64"/>
<text text-anchor="middle" x="64.72" y="-15.22" font-family="Arial" font-size="14.00">s1</text>
</g>
<!-- dot_dummyinit_1&#45;&gt;s1 -->
<g id="edge1" class="edge">
<title>dot_dummyinit_1&#45;&gt;s1</title>
<path fill="none" stroke="black" d="M0.77,-20.64C1.57,-20.64 12.96,-20.64 25.83,-20.64"/>
<polygon fill="black" stroke="black" points="25.79,-24.14 35.79,-20.64 25.79,-17.14 25.79,-24.14"/>
</g>
<!-- s2 -->
<g id="node3" class="node">
<title>s2</title>
<path fill="none" stroke="black" d="M177.47,-38.64C177.47,-38.64 147.22,-38.64 147.22,-38.64 141.22,-38.64 135.22,-32.64 135.22,-26.64 135.22,-26.64 135.22,-14.64 135.22,-14.64 135.22,-8.64 141.22,-2.64 147.22,-2.64 147.22,-2.64 177.47,-2.64 177.47,-2.64 183.47,-2.64 189.47,-8.64 189.47,-14.64 189.47,-14.64 189.47,-26.64 189.47,-26.64 189.47,-32.64 183.47,-38.64 177.47,-38.64"/>
<text text-anchor="start" x="147.22" y="-15.22" font-family="Arial" font-size="14.00">s2</text>
<polygon fill="black" stroke="none" points="171.47,-10.77 171.47,-30.52 179.47,-30.52 179.47,-10.77 171.47,-10.77"/>
</g>
<!-- s1&#45;&gt;s2 -->
<g id="edge2" class="edge">
<title>s1&#45;&gt;s2</title>
<path fill="none" stroke="black" d="M92.1,-20.64C101.82,-20.64 113.03,-20.64 123.56,-20.64"/>
<polygon fill="black" stroke="black" points="123.53,-24.14 133.53,-20.64 123.53,-17.14 123.53,-24.14"/>
<text text-anchor="middle" x="113.47" y="-23.09" font-family="Arial" font-size="14.00">a</text>
</g>
<!-- s2&#45;&gt;s1 -->
<g id="edge3" class="edge">
<title>s2&#45;&gt;s1</title>
<path fill="none" stroke="black" d="M134.76,-4.11C126.86,-0.95 118.07,0.89 109.72,-0.89 107.42,-1.39 105.09,-2.01 102.77,-2.73"/>
<polygon fill="black" stroke="black" points="101.69,0.6 93.52,-6.14 104.11,-5.96 101.69,0.6"/>
<text text-anchor="middle" x="113.47" y="-3.34" font-family="Arial" font-size="14.00">b</text>
</g>
</g>
</svg>
