<?xml version="1.0" encoding="UTF-8" standalone="no"?>
<!DOCTYPE svg PUBLIC "-//W3C//DTD SVG 1.0//EN"
 "http://www.w3.org/TR/2001/REC-SVG-20010904/DTD/svg10.dtd" [
 <!ATTLIST svg xmlns:xlink CDATA #FIXED "http://www.w3.org/1999/xlink">
]>
<!-- Generated by Graphviz version 2.20.2 (Tue Mar &#160;2 21:46:26 UTC 2010)
     For user: (mtmoor) Prof. Thomas Moor -->
<!-- Title: FullLanguage(NameSet) Pages: 1 -->
<svg width="92pt" height="122pt"
 viewBox="0.00 0.00 92.00 122.00" xmlns="http://www.w3.org/2000/svg" xmlns:xlink="http://www.w3.org/1999/xlink">
<g id="graph0" class="graph" transform="scale(1 1) rotate(0) translate(4 118)">
<title>FullLanguage(NameSet)</title>
<polygon style="fill:none;stroke:none;" points="-4,4 -4,-118 88,-118 88,4 -4,4"/>
<!-- dot_dummyinit_1 -->
<g id="node1" class="node"><title>dot_dummyinit_1</title>
</g>
<!-- 1 -->
<g id="node3" class="node"><title>1</title>
<ellipse style="fill:none;stroke:black;" cx="62" cy="-22" rx="18" ry="18"/>
<ellipse style="fill:none;stroke:black;" cx="62" cy="-22" rx="22" ry="22"/>
<text text-anchor="middle" x="62" y="-17.9" style="font-family:Times New Roman;font-size:14.00;">1</text>
</g>
<!-- dot_dummyinit_1&#45;&gt;1 -->
<g id="edge2" class="edge"><title>dot_dummyinit_1&#45;&gt;1</title>
<path style="fill:none;stroke:black;" d="M2,-22C5,-22 17,-22 30,-22"/>
<polygon style="fill:black;stroke:black;" points="30,-25.5001 40,-22 30,-18.5001 30,-25.5001"/>
</g>
<!-- 1&#45;&gt;1 -->
<g id="edge4" class="edge"><title>1&#45;&gt;1</title>
<path style="fill:none;stroke:black;" d="M58,-44C58,-54 59,-62 62,-62 64,-62 65,-59 66,-54"/>
<polygon style="fill:black;stroke:black;" points="69.5001,-54 66,-44 62.5001,-54 69.5001,-54"/>
<text text-anchor="middle" x="62" y="-65.9" style="font-family:Times New Roman;font-size:14.00;">a</text>
</g>
<!-- 1&#45;&gt;1 -->
<g id="edge6" class="edge"><title>1&#45;&gt;1</title>
<path style="fill:none;stroke:black;" d="M56,-43C53,-61 55,-80 62,-80 68,-80 70,-67 69,-53"/>
<polygon style="fill:black;stroke:black;" points="72.4778,-52.6021 68,-43 65.5125,-53.2987 72.4778,-52.6021"/>
<text text-anchor="middle" x="62" y="-83.9" style="font-family:Times New Roman;font-size:14.00;">b</text>
</g>
</g>
</svg>
