<?xml version="1.0" encoding="UTF-8" standalone="no"?>
<!DOCTYPE svg PUBLIC "-//W3C//DTD SVG 1.0//EN"
 "http://www.w3.org/TR/2001/REC-SVG-20010904/DTD/svg10.dtd" [
 <!ATTLIST svg xmlns:xlink CDATA #FIXED "http://www.w3.org/1999/xlink">
]>
<!-- Generated by Graphviz version 2.20.2 (Tue Mar &#160;2 21:46:26 UTC 2010)
     For user: (mtmoor) Prof. Thomas Moor -->
<!-- Title: languagedifference_g1 Pages: 1 -->
<svg width="346pt" height="87pt"
 viewBox="0.00 0.00 346.00 87.00" xmlns="http://www.w3.org/2000/svg" xmlns:xlink="http://www.w3.org/1999/xlink">
<g id="graph0" class="graph" transform="scale(1 1) rotate(0) translate(4 83)">
<title>languagedifference_g1</title>
<polygon style="fill:none;stroke:none;" points="-4,4 -4,-83 342,-83 342,4 -4,4"/>
<!-- dot_dummyinit_1 -->
<g id="node1" class="node"><title>dot_dummyinit_1</title>
</g>
<!-- 1 -->
<g id="node3" class="node"><title>1</title>
<ellipse style="fill:none;stroke:black;" cx="62" cy="-22" rx="18" ry="18"/>
<ellipse style="fill:none;stroke:black;" cx="62" cy="-22" rx="22" ry="22"/>
<text text-anchor="middle" x="62" y="-17.9" style="font-family:Times New Roman;font-size:14.00;">1</text>
</g>
<!-- dot_dummyinit_1&#45;&gt;1 -->
<g id="edge2" class="edge"><title>dot_dummyinit_1&#45;&gt;1</title>
<path style="fill:none;stroke:black;" d="M2,-22C5,-22 17,-22 30,-22"/>
<polygon style="fill:black;stroke:black;" points="30,-25.5001 40,-22 30,-18.5001 30,-25.5001"/>
</g>
<!-- 2 -->
<g id="node4" class="node"><title>2</title>
<ellipse style="fill:none;stroke:black;" cx="150" cy="-57" rx="18" ry="18"/>
<ellipse style="fill:none;stroke:black;" cx="150" cy="-57" rx="22" ry="22"/>
<text text-anchor="middle" x="150" y="-52.9" style="font-family:Times New Roman;font-size:14.00;">2</text>
</g>
<!-- 1&#45;&gt;2 -->
<g id="edge4" class="edge"><title>1&#45;&gt;2</title>
<path style="fill:none;stroke:black;" d="M83,-30C94,-35 108,-40 120,-45"/>
<polygon style="fill:black;stroke:black;" points="118.44,-48.1369 129,-49 121.283,-41.7402 118.44,-48.1369"/>
<text text-anchor="middle" x="106" y="-42.9" style="font-family:Times New Roman;font-size:14.00;">a</text>
</g>
<!-- 3 -->
<g id="node6" class="node"><title>3</title>
<ellipse style="fill:none;stroke:black;" cx="234" cy="-22" rx="18" ry="18"/>
<text text-anchor="middle" x="234" y="-17.9" style="font-family:Times New Roman;font-size:14.00;">3</text>
</g>
<!-- 2&#45;&gt;3 -->
<g id="edge6" class="edge"><title>2&#45;&gt;3</title>
<path style="fill:none;stroke:black;" d="M170,-49C181,-44 196,-38 208,-33"/>
<polygon style="fill:black;stroke:black;" points="209.283,-36.2598 217,-29 206.44,-29.8631 209.283,-36.2598"/>
<text text-anchor="middle" x="194" y="-42.9" style="font-family:Times New Roman;font-size:14.00;">b</text>
</g>
<!-- 4 -->
<g id="node5" class="node"><title>4</title>
<ellipse style="fill:none;stroke:black;" cx="316" cy="-22" rx="18" ry="18"/>
<ellipse style="fill:none;stroke:black;" cx="316" cy="-22" rx="22" ry="22"/>
<text text-anchor="middle" x="316" y="-17.9" style="font-family:Times New Roman;font-size:14.00;">4</text>
</g>
<!-- 3&#45;&gt;1 -->
<g id="edge10" class="edge"><title>3&#45;&gt;1</title>
<path style="fill:none;stroke:black;" d="M217,-17C204,-14 188,-10 172,-9 153,-6 148,-7 128,-9 117,-10 104,-12 94,-14"/>
<polygon style="fill:black;stroke:black;" points="93.1194,-10.6067 84,-16 94.4922,-17.4708 93.1194,-10.6067"/>
<text text-anchor="middle" x="150" y="-12.9" style="font-family:Times New Roman;font-size:14.00;">c</text>
</g>
<!-- 3&#45;&gt;4 -->
<g id="edge8" class="edge"><title>3&#45;&gt;4</title>
<path style="fill:none;stroke:black;" d="M252,-22C261,-22 273,-22 284,-22"/>
<polygon style="fill:black;stroke:black;" points="284,-25.5001 294,-22 284,-18.5001 284,-25.5001"/>
<text text-anchor="middle" x="273" y="-25.9" style="font-family:Times New Roman;font-size:14.00;">f</text>
</g>
</g>
</svg>
