<?xml version="1.0" encoding="UTF-8" standalone="no"?>
<!DOCTYPE svg PUBLIC "-//W3C//DTD SVG 1.1//EN"
 "http://www.w3.org/Graphics/SVG/1.1/DTD/svg11.dtd">
<!-- Generated by graphviz version 12.2.1 (20241206.2353)
 -->
<!-- Title: AlphabetLanguage(NameSet) Pages: 1 -->
<svg width="212pt" height="44pt"
 viewBox="0.00 0.00 212.22 44.00" xmlns="http://www.w3.org/2000/svg" xmlns:xlink="http://www.w3.org/1999/xlink">
<g id="graph0" class="graph" transform="scale(1 1) rotate(0) translate(4 40)">
<title>AlphabetLanguage(NameSet)</title>
<!-- dot_dummyinit_1 -->
<g id="node1" class="node">
<title>dot_dummyinit_1</title>
</g>
<!-- 1 -->
<g id="node2" class="node">
<title>1</title>
<path fill="none" stroke="black" d="M79.72,-36C79.72,-36 49.72,-36 49.72,-36 43.72,-36 37.72,-30 37.72,-24 37.72,-24 37.72,-12 37.72,-12 37.72,-6 43.72,0 49.72,0 49.72,0 79.72,0 79.72,0 85.72,0 91.72,-6 91.72,-12 91.72,-12 91.72,-24 91.72,-24 91.72,-30 85.72,-36 79.72,-36"/>
<text text-anchor="middle" x="64.72" y="-12.57" font-family="Arial" font-size="14.00">1</text>
</g>
<!-- dot_dummyinit_1&#45;&gt;1 -->
<g id="edge1" class="edge">
<title>dot_dummyinit_1&#45;&gt;1</title>
<path fill="none" stroke="black" d="M0.77,-18C1.57,-18 12.96,-18 25.83,-18"/>
<polygon fill="black" stroke="black" points="25.79,-21.5 35.79,-18 25.79,-14.5 25.79,-21.5"/>
</g>
<!-- 2 -->
<g id="node3" class="node">
<title>2</title>
<path fill="none" stroke="black" d="M192.22,-36C192.22,-36 162.22,-36 162.22,-36 156.22,-36 150.22,-30 150.22,-24 150.22,-24 150.22,-12 150.22,-12 150.22,-6 156.22,0 162.22,0 162.22,0 192.22,0 192.22,0 198.22,0 204.22,-6 204.22,-12 204.22,-12 204.22,-24 204.22,-24 204.22,-30 198.22,-36 192.22,-36"/>
<text text-anchor="start" x="165.47" y="-12.57" font-family="Arial" font-size="14.00">2</text>
<polygon fill="black" stroke="none" points="182.97,-8.12 182.97,-27.88 190.97,-27.88 190.97,-8.12 182.97,-8.12"/>
</g>
<!-- 1&#45;&gt;2 -->
<g id="edge2" class="edge">
<title>1&#45;&gt;2</title>
<path fill="none" stroke="black" d="M92.19,-18C106.13,-18 123.46,-18 138.76,-18"/>
<polygon fill="black" stroke="black" points="138.45,-21.5 148.45,-18 138.45,-14.5 138.45,-21.5"/>
<text text-anchor="middle" x="120.97" y="-20.45" font-family="Arial" font-size="14.00">a, b</text>
</g>
</g>
</svg>
