<?xml version="1.0" encoding="UTF-8" standalone="no"?>
<!DOCTYPE svg PUBLIC "-//W3C//DTD SVG 1.0//EN"
 "http://www.w3.org/TR/2001/REC-SVG-20010904/DTD/svg10.dtd" [
 <!ATTLIST svg xmlns:xlink CDATA #FIXED "http://www.w3.org/1999/xlink">
]>
<!-- Generated by Graphviz version 2.20.2 (Tue Mar &#160;2 21:46:26 UTC 2010)
     For user: (mtmoor) Prof. Thomas Moor -->
<!-- Title: Concatenate(g2,g3) Pages: 1 -->
<svg width="252pt" height="81pt"
 viewBox="0.00 0.00 252.00 81.00" xmlns="http://www.w3.org/2000/svg" xmlns:xlink="http://www.w3.org/1999/xlink">
<g id="graph0" class="graph" transform="scale(1 1) rotate(0) translate(4 77)">
<title>Concatenate(g2,g3)</title>
<polygon style="fill:none;stroke:none;" points="-4,4 -4,-77 248,-77 248,4 -4,4"/>
<!-- dot_dummyinit_1 -->
<g id="node1" class="node"><title>dot_dummyinit_1</title>
</g>
<!-- 1 -->
<g id="node3" class="node"><title>1</title>
<ellipse style="fill:none;stroke:black;" cx="58" cy="-50" rx="18" ry="18"/>
<text text-anchor="middle" x="58" y="-45.9" style="font-family:Times New Roman;font-size:14.00;">1</text>
</g>
<!-- dot_dummyinit_1&#45;&gt;1 -->
<g id="edge2" class="edge"><title>dot_dummyinit_1&#45;&gt;1</title>
<path style="fill:none;stroke:black;" d="M2,-50C6,-50 18,-50 30,-50"/>
<polygon style="fill:black;stroke:black;" points="30,-53.5001 40,-50 30,-46.5001 30,-53.5001"/>
</g>
<!-- 3 -->
<g id="node4" class="node"><title>3</title>
<ellipse style="fill:none;stroke:black;" cx="222" cy="-50" rx="18" ry="18"/>
<ellipse style="fill:none;stroke:black;" cx="222" cy="-50" rx="22" ry="22"/>
<text text-anchor="middle" x="222" y="-45.9" style="font-family:Times New Roman;font-size:14.00;">3</text>
</g>
<!-- 1&#45;&gt;3 -->
<g id="edge6" class="edge"><title>1&#45;&gt;3</title>
<path style="fill:none;stroke:black;" d="M76,-53C82,-54 88,-55 94,-56 133,-59 143,-57 182,-55 185,-55 187,-54 190,-54"/>
<polygon style="fill:black;stroke:black;" points="190.398,-57.4778 200,-53 189.701,-50.5125 190.398,-57.4778"/>
<text text-anchor="middle" x="138" y="-60.9" style="font-family:Times New Roman;font-size:14.00;">b</text>
</g>
<!-- 2 -->
<g id="node5" class="node"><title>2</title>
<ellipse style="fill:none;stroke:black;" cx="138" cy="-18" rx="18" ry="18"/>
<text text-anchor="middle" x="138" y="-13.9" style="font-family:Times New Roman;font-size:14.00;">2</text>
</g>
<!-- 1&#45;&gt;2 -->
<g id="edge4" class="edge"><title>1&#45;&gt;2</title>
<path style="fill:none;stroke:black;" d="M75,-43C85,-39 100,-33 112,-29"/>
<polygon style="fill:black;stroke:black;" points="113.283,-32.2598 121,-25 110.44,-25.8631 113.283,-32.2598"/>
<text text-anchor="middle" x="98" y="-38.9" style="font-family:Times New Roman;font-size:14.00;">a</text>
</g>
<!-- 2&#45;&gt;3 -->
<g id="edge8" class="edge"><title>2&#45;&gt;3</title>
<path style="fill:none;stroke:black;" d="M155,-24C166,-28 179,-34 191,-38"/>
<polygon style="fill:black;stroke:black;" points="190.415,-41.5357 201,-42 193.015,-35.0364 190.415,-41.5357"/>
<text text-anchor="middle" x="178" y="-37.9" style="font-family:Times New Roman;font-size:14.00;">b</text>
</g>
</g>
</svg>
