<?xml version="1.0" encoding="UTF-8" standalone="no"?>
<!DOCTYPE svg PUBLIC "-//W3C//DTD SVG 1.0//EN"
 "http://www.w3.org/TR/2001/REC-SVG-20010904/DTD/svg10.dtd" [
 <!ATTLIST svg xmlns:xlink CDATA #FIXED "http://www.w3.org/1999/xlink">
]>
<!-- Generated by Graphviz version 2.20.2 (Tue Mar &#160;2 21:46:26 UTC 2010)
     For user: (mtmoor) Prof. Thomas Moor -->
<!-- Title: Generator Pages: 1 -->
<svg width="317pt" height="166pt"
 viewBox="0.00 0.00 317.00 166.00" xmlns="http://www.w3.org/2000/svg" xmlns:xlink="http://www.w3.org/1999/xlink">
<g id="graph0" class="graph" transform="scale(1 1) rotate(0) translate(4 162)">
<title>Generator</title>
<polygon style="fill:none;stroke:none;" points="-4,4 -4,-162 313,-162 313,4 -4,4"/>
<g id="cluster2" class="cluster"><title>cluster_0</title>
<polygon style="fill:none;stroke:red;" points="8,-8 8,-76 76,-76 76,-8 8,-8"/>
</g>
<g id="cluster3" class="cluster"><title>cluster_1</title>
<polygon style="fill:none;stroke:magenta;" points="16,-16 16,-68 68,-68 68,-16 16,-16"/>
</g>
<!-- dot_dummyinit_1 -->
<g id="node1" class="node"><title>dot_dummyinit_1</title>
</g>
<!-- 1 -->
<g id="node3" class="node"><title>1</title>
<ellipse style="fill:none;stroke:black;" cx="131" cy="-131" rx="18" ry="18"/>
<text text-anchor="middle" x="131" y="-126.9" style="font-family:Times New Roman;font-size:14.00;">1</text>
</g>
<!-- dot_dummyinit_1&#45;&gt;1 -->
<g id="edge2" class="edge"><title>dot_dummyinit_1&#45;&gt;1</title>
<path style="fill:none;stroke:black;" d="M69,-131C80,-131 92,-131 103,-131"/>
<polygon style="fill:black;stroke:black;" points="103,-134.5 113,-131 103,-127.5 103,-134.5"/>
</g>
<!-- 2 -->
<g id="node4" class="node"><title>2</title>
<ellipse style="fill:none;stroke:black;" cx="211" cy="-140" rx="18" ry="18"/>
<text text-anchor="middle" x="211" y="-135.9" style="font-family:Times New Roman;font-size:14.00;">2</text>
</g>
<!-- 1&#45;&gt;2 -->
<g id="edge6" class="edge"><title>1&#45;&gt;2</title>
<path style="fill:none;stroke:black;" d="M149,-133C159,-135 172,-136 183,-137"/>
<polygon style="fill:black;stroke:black;" points="182.701,-140.488 193,-138 183.398,-133.522 182.701,-140.488"/>
<text text-anchor="middle" x="171" y="-138.9" style="font-family:Times New Roman;font-size:14.00;">a</text>
</g>
<!-- 4 -->
<g id="node6" class="node"><title>4</title>
<ellipse style="fill:none;stroke:blue;" cx="291" cy="-86" rx="18" ry="18"/>
<text text-anchor="middle" x="291" y="-81.9" style="font-family:Times New Roman;font-size:14.00;">4</text>
</g>
<!-- 2&#45;&gt;4 -->
<g id="edge8" class="edge"><title>2&#45;&gt;4</title>
<path style="fill:none;stroke:black;" d="M226,-130C237,-122 254,-111 268,-102"/>
<polygon style="fill:black;stroke:black;" points="270.1,-104.8 276,-96 265.9,-99.2 270.1,-104.8"/>
<text text-anchor="middle" x="251" y="-119.9" style="font-family:Times New Roman;font-size:14.00;">c</text>
</g>
<!-- 5 -->
<g id="node5" class="node"><title>5</title>
<ellipse style="fill:none;stroke:black;" cx="211" cy="-86" rx="18" ry="18"/>
<text text-anchor="middle" x="211" y="-81.9" style="font-family:Times New Roman;font-size:14.00;">5</text>
</g>
<!-- 5&#45;&gt;4 -->
<g id="edge12" class="edge"><title>5&#45;&gt;4</title>
<path style="fill:none;stroke:black;" d="M229,-86C239,-86 252,-86 263,-86"/>
<polygon style="fill:black;stroke:black;" points="263,-89.5001 273,-86 263,-82.5001 263,-89.5001"/>
<text text-anchor="middle" x="251" y="-90.9" style="font-family:Times New Roman;font-size:14.00;">a</text>
</g>
<!-- 6 -->
<g id="node9" class="node"><title>6</title>
<ellipse style="fill:none;stroke:black;" cx="42" cy="-42" rx="18" ry="18"/>
<text text-anchor="middle" x="42" y="-37.9" style="font-family:Times New Roman;font-size:14.00;">6</text>
</g>
<!-- 4&#45;&gt;6 -->
<g id="edge10" class="edge"><title>4&#45;&gt;6</title>
<path style="fill:none;stroke:black;" d="M275,-77C263,-71 246,-63 229,-59 174,-45 107,-42 70,-42"/>
<polygon style="fill:black;stroke:black;" points="70,-38.5001 60,-42 70,-45.5001 70,-38.5001"/>
<text text-anchor="middle" x="171" y="-54.9" style="font-family:Times New Roman;font-size:14.00;">c</text>
</g>
<!-- 6&#45;&gt;1 -->
<g id="edge14" class="edge"><title>6&#45;&gt;1</title>
<path style="fill:none;stroke:black;" d="M58,-51C64,-55 71,-59 76,-64 91,-77 105,-94 115,-108"/>
<polygon style="fill:black;stroke:black;" points="112.2,-110.1 121,-116 117.8,-105.9 112.2,-110.1"/>
<text text-anchor="middle" x="91" y="-87.9" style="font-family:Times New Roman;font-size:14.00;">d</text>
</g>
</g>
</svg>
