<?xml version="1.0" encoding="UTF-8" standalone="no"?>
<!DOCTYPE svg PUBLIC "-//W3C//DTD SVG 1.0//EN"
 "http://www.w3.org/TR/2001/REC-SVG-20010904/DTD/svg10.dtd" [
 <!ATTLIST svg xmlns:xlink CDATA #FIXED "http://www.w3.org/1999/xlink">
]>
<!-- Generated by Graphviz version 2.20.2 (Tue Mar &#160;2 21:46:26 UTC 2010)
     For user: (mtmoor) Prof. Thomas Moor -->
<!-- Title: Generator||Generator Pages: 1 -->
<svg width="720pt" height="137pt"
 viewBox="0.00 0.00 720.00 136.70" xmlns="http://www.w3.org/2000/svg" xmlns:xlink="http://www.w3.org/1999/xlink">
<g id="graph0" class="graph" transform="scale(0.663594 0.663594) rotate(0) translate(4 202)">
<title>Generator||Generator</title>
<polygon style="fill:none;stroke:none;" points="-4,4 -4,-202 1081,-202 1081,4 -4,4"/>
<!-- dot_dummyinit_1 -->
<g id="node1" class="node"><title>dot_dummyinit_1</title>
</g>
<!-- 1 -->
<g id="node3" class="node"><title>1</title>
<ellipse style="fill:none;stroke:black;" cx="110" cy="-46" rx="18" ry="18"/>
<text text-anchor="middle" x="110" y="-41.9" style="font-family:Times New Roman;font-size:14.00;">1</text>
</g>
<!-- dot_dummyinit_1&#45;&gt;1 -->
<g id="edge2" class="edge"><title>dot_dummyinit_1&#45;&gt;1</title>
<path style="fill:none;stroke:black;" d="M54,-46C63,-46 73,-46 82,-46"/>
<polygon style="fill:black;stroke:black;" points="82,-49.5001 92,-46 82,-42.5001 82,-49.5001"/>
</g>
<!-- 1&#45;&gt;1 -->
<g id="edge4" class="edge"><title>1&#45;&gt;1</title>
<path style="fill:none;stroke:black;" d="M104,-63C102,-73 104,-82 110,-82 114,-82 116,-78 117,-73"/>
<polygon style="fill:black;stroke:black;" points="120.478,-72.6021 116,-63 113.512,-73.2987 120.478,-72.6021"/>
<text text-anchor="middle" x="110" y="-85.9" style="font-family:Times New Roman;font-size:14.00;">t_cb4</text>
</g>
<!-- 2 -->
<g id="node4" class="node"><title>2</title>
<ellipse style="fill:none;stroke:black;" cx="244" cy="-137" rx="18" ry="18"/>
<text text-anchor="middle" x="244" y="-132.9" style="font-family:Times New Roman;font-size:14.00;">2</text>
</g>
<!-- 1&#45;&gt;2 -->
<g id="edge6" class="edge"><title>1&#45;&gt;2</title>
<path style="fill:none;stroke:black;" d="M125,-56C148,-72 193,-102 221,-121"/>
<polygon style="fill:black;stroke:black;" points="218.9,-123.8 229,-127 223.1,-118.2 218.9,-123.8"/>
<text text-anchor="middle" x="177" y="-112.9" style="font-family:Times New Roman;font-size:14.00;">cb11&#45;cb4</text>
</g>
<!-- 3 -->
<g id="node5" class="node"><title>3</title>
<ellipse style="fill:none;stroke:black;" cx="244" cy="-46" rx="18" ry="18"/>
<text text-anchor="middle" x="244" y="-41.9" style="font-family:Times New Roman;font-size:14.00;">3</text>
</g>
<!-- 1&#45;&gt;3 -->
<g id="edge8" class="edge"><title>1&#45;&gt;3</title>
<path style="fill:none;stroke:black;" d="M128,-46C151,-46 189,-46 216,-46"/>
<polygon style="fill:black;stroke:black;" points="216,-49.5001 226,-46 216,-42.5001 216,-49.5001"/>
<text text-anchor="middle" x="177" y="-49.9" style="font-family:Times New Roman;font-size:14.00;">cb12&#45;cb4</text>
</g>
<!-- 2&#45;&gt;2 -->
<g id="edge12" class="edge"><title>2&#45;&gt;2</title>
<path style="fill:none;stroke:black;" d="M234,-153C232,-163 235,-173 244,-173 250,-173 253,-169 254,-163"/>
<polygon style="fill:black;stroke:black;" points="257.5,-163 254,-153 250.5,-163 257.5,-163"/>
<text text-anchor="middle" x="244" y="-176.9" style="font-family:Times New Roman;font-size:14.00;">t_cb4</text>
</g>
<!-- 10 -->
<g id="node12" class="node"><title>10</title>
<ellipse style="fill:none;stroke:black;" cx="365" cy="-140" rx="23.1233" ry="23.1233"/>
<text text-anchor="middle" x="365" y="-135.9" style="font-family:Times New Roman;font-size:14.00;">10</text>
</g>
<!-- 2&#45;&gt;10 -->
<g id="edge10" class="edge"><title>2&#45;&gt;10</title>
<path style="fill:none;stroke:black;" d="M262,-137C280,-138 309,-139 332,-139"/>
<polygon style="fill:black;stroke:black;" points="332,-142.5 342,-139 332,-135.5 332,-142.5"/>
<text text-anchor="middle" x="302" y="-141.9" style="font-family:Times New Roman;font-size:14.00;">cb4+x</text>
</g>
<!-- 3&#45;&gt;3 -->
<g id="edge16" class="edge"><title>3&#45;&gt;3</title>
<path style="fill:none;stroke:black;" d="M234,-62C232,-72 235,-82 244,-82 250,-82 253,-78 254,-72"/>
<polygon style="fill:black;stroke:black;" points="257.5,-72 254,-62 250.5,-72 257.5,-72"/>
<text text-anchor="middle" x="244" y="-85.9" style="font-family:Times New Roman;font-size:14.00;">t_cb4</text>
</g>
<!-- 4 -->
<g id="node6" class="node"><title>4</title>
<ellipse style="fill:none;stroke:black;" cx="365" cy="-46" rx="18" ry="18"/>
<text text-anchor="middle" x="365" y="-41.9" style="font-family:Times New Roman;font-size:14.00;">4</text>
</g>
<!-- 3&#45;&gt;4 -->
<g id="edge14" class="edge"><title>3&#45;&gt;4</title>
<path style="fill:none;stroke:black;" d="M262,-46C282,-46 314,-46 337,-46"/>
<polygon style="fill:black;stroke:black;" points="337,-49.5001 347,-46 337,-42.5001 337,-49.5001"/>
<text text-anchor="middle" x="302" y="-49.9" style="font-family:Times New Roman;font-size:14.00;">cb4&#45;x</text>
</g>
<!-- 4&#45;&gt;4 -->
<g id="edge18" class="edge"><title>4&#45;&gt;4</title>
<path style="fill:none;stroke:black;" d="M355,-61C352,-72 355,-82 365,-82 372,-82 375,-77 376,-71"/>
<polygon style="fill:black;stroke:black;" points="379.478,-70.6021 375,-61 372.512,-71.2987 379.478,-70.6021"/>
<text text-anchor="middle" x="365" y="-85.9" style="font-family:Times New Roman;font-size:14.00;">t_cb4</text>
</g>
<!-- 5 -->
<g id="node7" class="node"><title>5</title>
<ellipse style="fill:none;stroke:black;" cx="507" cy="-46" rx="18" ry="18"/>
<text text-anchor="middle" x="507" y="-41.9" style="font-family:Times New Roman;font-size:14.00;">5</text>
</g>
<!-- 4&#45;&gt;5 -->
<g id="edge20" class="edge"><title>4&#45;&gt;5</title>
<path style="fill:none;stroke:black;" d="M383,-46C408,-46 451,-46 479,-46"/>
<polygon style="fill:black;stroke:black;" points="479,-49.5001 489,-46 479,-42.5001 479,-49.5001"/>
<text text-anchor="middle" x="436" y="-49.9" style="font-family:Times New Roman;font-size:14.00;">cb4wpar</text>
</g>
<!-- 5&#45;&gt;5 -->
<g id="edge24" class="edge"><title>5&#45;&gt;5</title>
<path style="fill:none;stroke:black;" d="M496,-61C493,-71 496,-82 507,-82 514,-82 518,-77 519,-71"/>
<polygon style="fill:black;stroke:black;" points="522.478,-70.6021 518,-61 515.512,-71.2987 522.478,-70.6021"/>
<text text-anchor="middle" x="507" y="-85.9" style="font-family:Times New Roman;font-size:14.00;">t_cb4</text>
</g>
<!-- 6 -->
<g id="node8" class="node"><title>6</title>
<ellipse style="fill:none;stroke:black;" cx="635" cy="-46" rx="18" ry="18"/>
<text text-anchor="middle" x="635" y="-41.9" style="font-family:Times New Roman;font-size:14.00;">6</text>
</g>
<!-- 5&#45;&gt;6 -->
<g id="edge22" class="edge"><title>5&#45;&gt;6</title>
<path style="fill:none;stroke:black;" d="M525,-46C546,-46 582,-46 607,-46"/>
<polygon style="fill:black;stroke:black;" points="607,-49.5001 617,-46 607,-42.5001 607,-49.5001"/>
<text text-anchor="middle" x="571" y="-49.9" style="font-family:Times New Roman;font-size:14.00;">cb4stp</text>
</g>
<!-- 6&#45;&gt;6 -->
<g id="edge26" class="edge"><title>6&#45;&gt;6</title>
<path style="fill:none;stroke:black;" d="M624,-61C621,-71 624,-82 635,-82 642,-82 646,-77 647,-71"/>
<polygon style="fill:black;stroke:black;" points="650.478,-70.6021 646,-61 643.512,-71.2987 650.478,-70.6021"/>
<text text-anchor="middle" x="635" y="-85.9" style="font-family:Times New Roman;font-size:14.00;">t_cb4</text>
</g>
<!-- 7 -->
<g id="node9" class="node"><title>7</title>
<ellipse style="fill:none;stroke:black;" cx="779" cy="-46" rx="18" ry="18"/>
<text text-anchor="middle" x="779" y="-41.9" style="font-family:Times New Roman;font-size:14.00;">7</text>
</g>
<!-- 6&#45;&gt;7 -->
<g id="edge28" class="edge"><title>6&#45;&gt;7</title>
<path style="fill:none;stroke:black;" d="M653,-46C678,-46 722,-46 751,-46"/>
<polygon style="fill:black;stroke:black;" points="751,-49.5001 761,-46 751,-42.5001 751,-49.5001"/>
<text text-anchor="middle" x="707" y="-49.9" style="font-family:Times New Roman;font-size:14.00;">cb4&#45;cb11</text>
</g>
<!-- 7&#45;&gt;7 -->
<g id="edge32" class="edge"><title>7&#45;&gt;7</title>
<path style="fill:none;stroke:black;" d="M769,-61C766,-72 769,-82 779,-82 786,-82 789,-77 790,-71"/>
<polygon style="fill:black;stroke:black;" points="793.478,-70.6021 789,-61 786.512,-71.2987 793.478,-70.6021"/>
<text text-anchor="middle" x="779" y="-85.9" style="font-family:Times New Roman;font-size:14.00;">t_cb4</text>
</g>
<!-- 8 -->
<g id="node10" class="node"><title>8</title>
<ellipse style="fill:none;stroke:black;" cx="905" cy="-46" rx="18" ry="18"/>
<text text-anchor="middle" x="905" y="-41.9" style="font-family:Times New Roman;font-size:14.00;">8</text>
</g>
<!-- 7&#45;&gt;8 -->
<g id="edge30" class="edge"><title>7&#45;&gt;8</title>
<path style="fill:none;stroke:black;" d="M797,-46C818,-46 852,-46 877,-46"/>
<polygon style="fill:black;stroke:black;" points="877,-49.5001 887,-46 877,-42.5001 877,-49.5001"/>
<text text-anchor="middle" x="842" y="-49.9" style="font-family:Times New Roman;font-size:14.00;">cb4&#45;x</text>
</g>
<!-- 8&#45;&gt;8 -->
<g id="edge34" class="edge"><title>8&#45;&gt;8</title>
<path style="fill:none;stroke:black;" d="M895,-61C892,-72 895,-82 905,-82 912,-82 915,-77 916,-71"/>
<polygon style="fill:black;stroke:black;" points="919.478,-70.6021 915,-61 912.512,-71.2987 919.478,-70.6021"/>
<text text-anchor="middle" x="905" y="-85.9" style="font-family:Times New Roman;font-size:14.00;">t_cb4</text>
</g>
<!-- 9 -->
<g id="node11" class="node"><title>9</title>
<ellipse style="fill:none;stroke:black;" cx="1058" cy="-46" rx="18" ry="18"/>
<text text-anchor="middle" x="1058" y="-41.9" style="font-family:Times New Roman;font-size:14.00;">9</text>
</g>
<!-- 8&#45;&gt;9 -->
<g id="edge36" class="edge"><title>8&#45;&gt;9</title>
<path style="fill:none;stroke:black;" d="M923,-46C950,-46 999,-46 1030,-46"/>
<polygon style="fill:black;stroke:black;" points="1030,-49.5001 1040,-46 1030,-42.5001 1030,-49.5001"/>
<text text-anchor="middle" x="984" y="-49.9" style="font-family:Times New Roman;font-size:14.00;">cb4wplv11</text>
</g>
<!-- 9&#45;&gt;1 -->
<g id="edge38" class="edge"><title>9&#45;&gt;1</title>
<path style="fill:none;stroke:black;" d="M1042,-38C1014,-24 957,-0 905,-0 244,-0 244,-0 244,-0 205,-0 161,-19 135,-32"/>
<polygon style="fill:black;stroke:black;" points="133.042,-29.084 126,-37 136.441,-35.2031 133.042,-29.084"/>
<text text-anchor="middle" x="571" y="-3.9" style="font-family:Times New Roman;font-size:14.00;">cb4stp</text>
</g>
<!-- 9&#45;&gt;9 -->
<g id="edge40" class="edge"><title>9&#45;&gt;9</title>
<path style="fill:none;stroke:black;" d="M1046,-60C1042,-71 1046,-82 1058,-82 1066,-82 1071,-77 1071,-70"/>
<polygon style="fill:black;stroke:black;" points="1074.48,-69.6021 1070,-60 1067.51,-70.2987 1074.48,-69.6021"/>
<text text-anchor="middle" x="1058" y="-85.9" style="font-family:Times New Roman;font-size:14.00;">t_cb4</text>
</g>
<!-- 10&#45;&gt;10 -->
<g id="edge42" class="edge"><title>10&#45;&gt;10</title>
<path style="fill:none;stroke:black;" d="M354,-160C352,-171 356,-181 365,-181 371,-181 375,-176 376,-170"/>
<polygon style="fill:black;stroke:black;" points="379.5,-170 376,-160 372.5,-170 379.5,-170"/>
<text text-anchor="middle" x="365" y="-184.9" style="font-family:Times New Roman;font-size:14.00;">t_cb4</text>
</g>
<!-- 11 -->
<g id="node13" class="node"><title>11</title>
<ellipse style="fill:none;stroke:black;" cx="507" cy="-140" rx="23.1233" ry="23.1233"/>
<text text-anchor="middle" x="507" y="-135.9" style="font-family:Times New Roman;font-size:14.00;">11</text>
</g>
<!-- 10&#45;&gt;11 -->
<g id="edge44" class="edge"><title>10&#45;&gt;11</title>
<path style="fill:none;stroke:black;" d="M388,-140C411,-140 447,-140 474,-140"/>
<polygon style="fill:black;stroke:black;" points="474,-143.5 484,-140 474,-136.5 474,-143.5"/>
<text text-anchor="middle" x="436" y="-143.9" style="font-family:Times New Roman;font-size:14.00;">cb4wpar</text>
</g>
<!-- 11&#45;&gt;11 -->
<g id="edge48" class="edge"><title>11&#45;&gt;11</title>
<path style="fill:none;stroke:black;" d="M495,-160C494,-171 497,-181 507,-181 514,-181 517,-176 519,-170"/>
<polygon style="fill:black;stroke:black;" points="522.5,-170 519,-160 515.5,-170 522.5,-170"/>
<text text-anchor="middle" x="507" y="-184.9" style="font-family:Times New Roman;font-size:14.00;">t_cb4</text>
</g>
<!-- 12 -->
<g id="node14" class="node"><title>12</title>
<ellipse style="fill:none;stroke:black;" cx="635" cy="-140" rx="23.1233" ry="23.1233"/>
<text text-anchor="middle" x="635" y="-135.9" style="font-family:Times New Roman;font-size:14.00;">12</text>
</g>
<!-- 11&#45;&gt;12 -->
<g id="edge46" class="edge"><title>11&#45;&gt;12</title>
<path style="fill:none;stroke:black;" d="M530,-140C550,-140 579,-140 602,-140"/>
<polygon style="fill:black;stroke:black;" points="602,-143.5 612,-140 602,-136.5 602,-143.5"/>
<text text-anchor="middle" x="571" y="-143.9" style="font-family:Times New Roman;font-size:14.00;">cb4stp</text>
</g>
<!-- 12&#45;&gt;12 -->
<g id="edge50" class="edge"><title>12&#45;&gt;12</title>
<path style="fill:none;stroke:black;" d="M623,-160C622,-171 625,-181 635,-181 642,-181 645,-176 647,-170"/>
<polygon style="fill:black;stroke:black;" points="650.5,-170 647,-160 643.5,-170 650.5,-170"/>
<text text-anchor="middle" x="635" y="-184.9" style="font-family:Times New Roman;font-size:14.00;">t_cb4</text>
</g>
<!-- 13 -->
<g id="node15" class="node"><title>13</title>
<ellipse style="fill:none;stroke:black;" cx="779" cy="-140" rx="23.1233" ry="23.1233"/>
<text text-anchor="middle" x="779" y="-135.9" style="font-family:Times New Roman;font-size:14.00;">13</text>
</g>
<!-- 12&#45;&gt;13 -->
<g id="edge52" class="edge"><title>12&#45;&gt;13</title>
<path style="fill:none;stroke:black;" d="M658,-140C682,-140 719,-140 746,-140"/>
<polygon style="fill:black;stroke:black;" points="746,-143.5 756,-140 746,-136.5 746,-143.5"/>
<text text-anchor="middle" x="707" y="-143.9" style="font-family:Times New Roman;font-size:14.00;">cb4&#45;cb12</text>
</g>
<!-- 13&#45;&gt;13 -->
<g id="edge56" class="edge"><title>13&#45;&gt;13</title>
<path style="fill:none;stroke:black;" d="M768,-160C766,-171 770,-181 779,-181 785,-181 789,-176 790,-170"/>
<polygon style="fill:black;stroke:black;" points="793.5,-170 790,-160 786.5,-170 793.5,-170"/>
<text text-anchor="middle" x="779" y="-184.9" style="font-family:Times New Roman;font-size:14.00;">t_cb4</text>
</g>
<!-- 14 -->
<g id="node16" class="node"><title>14</title>
<ellipse style="fill:none;stroke:black;" cx="905" cy="-140" rx="23.1233" ry="23.1233"/>
<text text-anchor="middle" x="905" y="-135.9" style="font-family:Times New Roman;font-size:14.00;">14</text>
</g>
<!-- 13&#45;&gt;14 -->
<g id="edge54" class="edge"><title>13&#45;&gt;14</title>
<path style="fill:none;stroke:black;" d="M802,-140C821,-140 850,-140 872,-140"/>
<polygon style="fill:black;stroke:black;" points="872,-143.5 882,-140 872,-136.5 872,-143.5"/>
<text text-anchor="middle" x="842" y="-143.9" style="font-family:Times New Roman;font-size:14.00;">cb4+x</text>
</g>
<!-- 14&#45;&gt;9 -->
<g id="edge60" class="edge"><title>14&#45;&gt;9</title>
<path style="fill:none;stroke:black;" d="M925,-128C953,-111 1004,-80 1034,-61"/>
<polygon style="fill:black;stroke:black;" points="1035.96,-63.916 1043,-56 1032.56,-57.7969 1035.96,-63.916"/>
<text text-anchor="middle" x="984" y="-117.9" style="font-family:Times New Roman;font-size:14.00;">cb4wplv12</text>
</g>
<!-- 14&#45;&gt;14 -->
<g id="edge58" class="edge"><title>14&#45;&gt;14</title>
<path style="fill:none;stroke:black;" d="M894,-160C892,-171 896,-181 905,-181 911,-181 915,-176 916,-170"/>
<polygon style="fill:black;stroke:black;" points="919.5,-170 916,-160 912.5,-170 919.5,-170"/>
<text text-anchor="middle" x="905" y="-184.9" style="font-family:Times New Roman;font-size:14.00;">t_cb4</text>
</g>
</g>
</svg>
