<?xml version="1.0" encoding="UTF-8" standalone="no"?>
<!DOCTYPE svg PUBLIC "-//W3C//DTD SVG 1.0//EN"
 "http://www.w3.org/TR/2001/REC-SVG-20010904/DTD/svg10.dtd" [
 <!ATTLIST svg xmlns:xlink CDATA #FIXED "http://www.w3.org/1999/xlink">
]>
<!-- Generated by Graphviz version 2.20.2 (Tue Mar &#160;2 21:46:26 UTC 2010)
     For user: (mtmoor) Prof. Thomas Moor -->
<!-- Title: Generator Pages: 1 -->
<svg width="424pt" height="135pt"
 viewBox="0.00 0.00 424.00 135.00" xmlns="http://www.w3.org/2000/svg" xmlns:xlink="http://www.w3.org/1999/xlink">
<g id="graph0" class="graph" transform="scale(1 1) rotate(0) translate(4 131)">
<title>Generator</title>
<polygon style="fill:none;stroke:none;" points="-4,4 -4,-131 420,-131 420,4 -4,4"/>
<g id="cluster2" class="cluster"><title>cluster_0</title>
<polygon style="fill:none;stroke:green;" points="340,-8 340,-76 408,-76 408,-8 340,-8"/>
</g>
<g id="cluster3" class="cluster"><title>cluster_1</title>
<polygon style="fill:none;stroke:darkorange;" points="348,-16 348,-68 400,-68 400,-16 348,-16"/>
</g>
<!-- dot_dummyinit_1 -->
<g id="node1" class="node"><title>dot_dummyinit_1</title>
</g>
<!-- 1 -->
<g id="node3" class="node"><title>1</title>
<ellipse style="fill:none;stroke:black;" cx="119" cy="-96" rx="18" ry="18"/>
<text text-anchor="middle" x="119" y="-91.9" style="font-family:Times New Roman;font-size:14.00;">1</text>
</g>
<!-- dot_dummyinit_1&#45;&gt;1 -->
<g id="edge2" class="edge"><title>dot_dummyinit_1&#45;&gt;1</title>
<path style="fill:none;stroke:black;" d="M54,-96C66,-96 79,-96 91,-96"/>
<polygon style="fill:black;stroke:black;" points="91,-99.5001 101,-96 91,-92.5001 91,-99.5001"/>
</g>
<!-- 2 -->
<g id="node7" class="node"><title>2</title>
<ellipse style="fill:none;stroke:black;" cx="208" cy="-96" rx="18" ry="18"/>
<text text-anchor="middle" x="208" y="-91.9" style="font-family:Times New Roman;font-size:14.00;">2</text>
</g>
<!-- 1&#45;&gt;2 -->
<g id="edge8" class="edge"><title>1&#45;&gt;2</title>
<path style="fill:none;stroke:black;" d="M137,-96C149,-96 165,-96 180,-96"/>
<polygon style="fill:black;stroke:black;" points="180,-99.5001 190,-96 180,-92.5001 180,-99.5001"/>
<text text-anchor="middle" x="168" y="-99.9" style="font-family:Times New Roman;font-size:14.00;">a</text>
</g>
<!-- dot_dummyinit_2 -->
<g id="node4" class="node"><title>dot_dummyinit_2</title>
</g>
<!-- 5 -->
<g id="node6" class="node"><title>5</title>
<ellipse style="fill:none;stroke:magenta;" cx="208" cy="-29" rx="18" ry="18"/>
<text text-anchor="middle" x="208" y="-24.9" style="font-family:Times New Roman;font-size:14.00;">5</text>
</g>
<!-- dot_dummyinit_2&#45;&gt;5 -->
<g id="edge4" class="edge"><title>dot_dummyinit_2&#45;&gt;5</title>
<path style="fill:none;stroke:black;" d="M146,-29C157,-29 169,-29 180,-29"/>
<polygon style="fill:black;stroke:black;" points="180,-32.5001 190,-29 180,-25.5001 180,-32.5001"/>
</g>
<!-- 4 -->
<g id="node9" class="node"><title>4</title>
<ellipse style="fill:none;stroke:red;" cx="288" cy="-42" rx="18" ry="18"/>
<text text-anchor="middle" x="288" y="-37.9" style="font-family:Times New Roman;font-size:14.00;">4</text>
</g>
<!-- 5&#45;&gt;4 -->
<g id="edge16" class="edge"><title>5&#45;&gt;4</title>
<path style="fill:none;stroke:black;" d="M226,-28C234,-28 244,-29 252,-30 255,-30 258,-31 261,-32"/>
<polygon style="fill:black;stroke:black;" points="260.416,-35.4788 271,-35 262.427,-28.7741 260.416,-35.4788"/>
<text text-anchor="middle" x="248" y="-34.9" style="font-family:Times New Roman;font-size:14.00;">a</text>
</g>
<!-- 3 -->
<g id="node8" class="node"><title>3</title>
<ellipse style="fill:none;stroke:blue;" cx="288" cy="-109" rx="18" ry="18"/>
<text text-anchor="middle" x="288" y="-104.9" style="font-family:Times New Roman;font-size:14.00;">3</text>
</g>
<!-- 2&#45;&gt;3 -->
<g id="edge10" class="edge"><title>2&#45;&gt;3</title>
<path style="fill:none;stroke:black;" d="M226,-99C236,-101 249,-103 260,-104"/>
<polygon style="fill:black;stroke:black;" points="259.508,-107.471 270,-106 260.881,-100.607 259.508,-107.471"/>
<text text-anchor="middle" x="248" y="-105.9" style="font-family:Times New Roman;font-size:14.00;">b</text>
</g>
<!-- 2&#45;&gt;4 -->
<g id="edge12" class="edge"><title>2&#45;&gt;4</title>
<path style="fill:none;stroke:black;" d="M223,-86C234,-78 251,-67 265,-58"/>
<polygon style="fill:black;stroke:black;" points="267.1,-60.8 273,-52 262.9,-55.2 267.1,-60.8"/>
<text text-anchor="middle" x="248" y="-78.9" style="font-family:Times New Roman;font-size:14.00;">b</text>
</g>
<!-- 6 -->
<g id="node12" class="node"><title>6</title>
<ellipse style="fill:none;stroke:black;" cx="374" cy="-42" rx="18" ry="18"/>
<text text-anchor="middle" x="374" y="-37.9" style="font-family:Times New Roman;font-size:14.00;">6</text>
</g>
<!-- 4&#45;&gt;6 -->
<g id="edge14" class="edge"><title>4&#45;&gt;6</title>
<path style="fill:none;stroke:black;" d="M306,-42C318,-42 333,-42 346,-42"/>
<polygon style="fill:black;stroke:black;" points="346,-45.5001 356,-42 346,-38.5001 346,-45.5001"/>
<text text-anchor="middle" x="328" y="-46.9" style="font-family:Times New Roman;font-size:14.00;">c</text>
</g>
</g>
</svg>
