<?xml version="1.0" encoding="UTF-8" standalone="no"?>
<!DOCTYPE svg PUBLIC "-//W3C//DTD SVG 1.0//EN"
 "http://www.w3.org/TR/2001/REC-SVG-20010904/DTD/svg10.dtd" [
 <!ATTLIST svg xmlns:xlink CDATA #FIXED "http://www.w3.org/1999/xlink">
]>
<!-- Generated by Graphviz version 2.20.2 (Tue Mar &#160;2 21:46:26 UTC 2010)
     For user: (mtmoor) Prof. Thomas Moor -->
<!-- Title: Det(MtcPro(mtcSupConNB((Generator),(Generator||Generator)))) [mtc minstate]: mtcProject||Det(MtcPro(Generator)) [mtc minstate]: mtcProject Pages: 1 -->
<svg width="712pt" height="377pt"
 viewBox="0.00 0.00 712.00 377.00" xmlns="http://www.w3.org/2000/svg" xmlns:xlink="http://www.w3.org/1999/xlink">
<g id="graph0" class="graph" transform="scale(1 1) rotate(0) translate(4 373)">
<title>Det(MtcPro(mtcSupConNB((Generator),(Generator||Generator)))) [mtc minstate]: mtcProject||Det(MtcPro(Generator)) [mtc minstate]: mtcProject</title>
<polygon style="fill:none;stroke:none;" points="-4,4 -4,-373 708,-373 708,4 -4,4"/>
<g id="cluster2" class="cluster"><title>cluster_0</title>
<polygon style="fill:none;stroke:blue;" points="218,-25 218,-93 286,-93 286,-25 218,-25"/>
</g>
<g id="cluster3" class="cluster"><title>cluster_1</title>
<polygon style="fill:none;stroke:red;" points="226,-33 226,-85 278,-85 278,-33 226,-33"/>
</g>
<!-- dot_dummyinit_1 -->
<g id="node1" class="node"><title>dot_dummyinit_1</title>
</g>
<!-- 1 -->
<g id="node3" class="node"><title>1</title>
<ellipse style="fill:none;stroke:blue;" cx="110" cy="-139" rx="18" ry="18"/>
<text text-anchor="middle" x="110" y="-134.9" style="font-family:Times New Roman;font-size:14.00;">1</text>
</g>
<!-- dot_dummyinit_1&#45;&gt;1 -->
<g id="edge2" class="edge"><title>dot_dummyinit_1&#45;&gt;1</title>
<path style="fill:none;stroke:black;" d="M54,-139C63,-139 73,-139 82,-139"/>
<polygon style="fill:black;stroke:black;" points="82,-142.5 92,-139 82,-135.5 82,-142.5"/>
</g>
<!-- 2 -->
<g id="node4" class="node"><title>2</title>
<ellipse style="fill:none;stroke:black;" cx="252" cy="-282" rx="18" ry="18"/>
<text text-anchor="middle" x="252" y="-277.9" style="font-family:Times New Roman;font-size:14.00;">2</text>
</g>
<!-- 1&#45;&gt;2 -->
<g id="edge6" class="edge"><title>1&#45;&gt;2</title>
<path style="fill:none;stroke:black;" d="M113,-157C117,-178 126,-212 146,-233 168,-256 201,-268 224,-275"/>
<polygon style="fill:black;stroke:black;" points="223.416,-278.479 234,-278 225.427,-271.774 223.416,-278.479"/>
<text text-anchor="middle" x="178" y="-275.9" style="font-family:Times New Roman;font-size:14.00;">cb11&#45;cb4</text>
</g>
<!-- 3 -->
<g id="node5" class="node"><title>3</title>
<ellipse style="fill:none;stroke:black;" cx="252" cy="-139" rx="18" ry="18"/>
<text text-anchor="middle" x="252" y="-134.9" style="font-family:Times New Roman;font-size:14.00;">3</text>
</g>
<!-- 1&#45;&gt;3 -->
<g id="edge8" class="edge"><title>1&#45;&gt;3</title>
<path style="fill:none;stroke:black;" d="M128,-139C153,-139 196,-139 224,-139"/>
<polygon style="fill:black;stroke:black;" points="224,-142.5 234,-139 224,-135.5 224,-142.5"/>
<text text-anchor="middle" x="178" y="-143.9" style="font-family:Times New Roman;font-size:14.00;">cb12&#45;cb4</text>
</g>
<!-- 4 -->
<g id="node11" class="node"><title>4</title>
<ellipse style="fill:none;stroke:black;" cx="252" cy="-59" rx="18" ry="18"/>
<text text-anchor="middle" x="252" y="-54.9" style="font-family:Times New Roman;font-size:14.00;">4</text>
</g>
<!-- 1&#45;&gt;4 -->
<g id="edge10" class="edge"><title>1&#45;&gt;4</title>
<path style="fill:none;stroke:black;" d="M126,-130C132,-126 139,-122 146,-118 174,-102 206,-84 227,-73"/>
<polygon style="fill:black;stroke:black;" points="228.958,-75.916 236,-68 225.559,-69.7969 228.958,-75.916"/>
<text text-anchor="middle" x="178" y="-125.9" style="font-family:Times New Roman;font-size:14.00;">mh1start</text>
</g>
<!-- 12 -->
<g id="node8" class="node"><title>12</title>
<ellipse style="fill:none;stroke:black;" cx="399" cy="-337" rx="23.1233" ry="23.1233"/>
<text text-anchor="middle" x="399" y="-332.9" style="font-family:Times New Roman;font-size:14.00;">12</text>
</g>
<!-- 2&#45;&gt;12 -->
<g id="edge12" class="edge"><title>2&#45;&gt;12</title>
<path style="fill:none;stroke:black;" d="M267,-291C275,-296 285,-301 294,-305 318,-314 346,-323 366,-329"/>
<polygon style="fill:black;stroke:black;" points="365.508,-332.471 376,-331 366.881,-325.607 365.508,-332.471"/>
<text text-anchor="middle" x="326" y="-327.9" style="font-family:Times New Roman;font-size:14.00;">cb4stp</text>
</g>
<!-- 5 -->
<g id="node12" class="node"><title>5</title>
<ellipse style="fill:none;stroke:red;" cx="399" cy="-265" rx="18" ry="18"/>
<text text-anchor="middle" x="399" y="-260.9" style="font-family:Times New Roman;font-size:14.00;">5</text>
</g>
<!-- 2&#45;&gt;5 -->
<g id="edge14" class="edge"><title>2&#45;&gt;5</title>
<path style="fill:none;stroke:black;" d="M270,-282C292,-283 328,-282 358,-277 363,-276 368,-275 372,-274"/>
<polygon style="fill:black;stroke:black;" points="373.427,-277.226 382,-271 371.416,-270.521 373.427,-277.226"/>
<text text-anchor="middle" x="326" y="-288.9" style="font-family:Times New Roman;font-size:14.00;">mh1start</text>
</g>
<!-- 9 -->
<g id="node6" class="node"><title>9</title>
<ellipse style="fill:none;stroke:black;" cx="399" cy="-156" rx="18" ry="18"/>
<text text-anchor="middle" x="399" y="-151.9" style="font-family:Times New Roman;font-size:14.00;">9</text>
</g>
<!-- 3&#45;&gt;9 -->
<g id="edge16" class="edge"><title>3&#45;&gt;9</title>
<path style="fill:none;stroke:black;" d="M268,-148C276,-151 285,-155 294,-157 320,-163 350,-162 371,-160"/>
<polygon style="fill:black;stroke:black;" points="371.398,-163.478 381,-159 370.701,-156.512 371.398,-163.478"/>
<text text-anchor="middle" x="326" y="-167.9" style="font-family:Times New Roman;font-size:14.00;">cb4stp</text>
</g>
<!-- 6 -->
<g id="node13" class="node"><title>6</title>
<ellipse style="fill:none;stroke:red;" cx="399" cy="-89" rx="18" ry="18"/>
<text text-anchor="middle" x="399" y="-84.9" style="font-family:Times New Roman;font-size:14.00;">6</text>
</g>
<!-- 3&#45;&gt;6 -->
<g id="edge18" class="edge"><title>3&#45;&gt;6</title>
<path style="fill:none;stroke:black;" d="M270,-137C292,-135 329,-130 358,-117 365,-114 371,-111 377,-107"/>
<polygon style="fill:black;stroke:black;" points="379.1,-109.8 385,-101 374.9,-104.2 379.1,-109.8"/>
<text text-anchor="middle" x="326" y="-140.9" style="font-family:Times New Roman;font-size:14.00;">mh1start</text>
</g>
<!-- 10 -->
<g id="node7" class="node"><title>10</title>
<ellipse style="fill:none;stroke:black;" cx="545" cy="-215" rx="23.1233" ry="23.1233"/>
<text text-anchor="middle" x="545" y="-210.9" style="font-family:Times New Roman;font-size:14.00;">10</text>
</g>
<!-- 9&#45;&gt;10 -->
<g id="edge42" class="edge"><title>9&#45;&gt;10</title>
<path style="fill:none;stroke:black;" d="M417,-160C438,-165 475,-175 504,-188 509,-190 513,-193 517,-196"/>
<polygon style="fill:black;stroke:black;" points="515.559,-199.203 526,-201 518.958,-193.084 515.559,-199.203"/>
<text text-anchor="middle" x="472" y="-192.9" style="font-family:Times New Roman;font-size:14.00;">cb4&#45;cb11</text>
</g>
<!-- 7 -->
<g id="node14" class="node"><title>7</title>
<ellipse style="fill:none;stroke:red;" cx="545" cy="-123" rx="18" ry="18"/>
<text text-anchor="middle" x="545" y="-118.9" style="font-family:Times New Roman;font-size:14.00;">7</text>
</g>
<!-- 9&#45;&gt;7 -->
<g id="edge44" class="edge"><title>9&#45;&gt;7</title>
<path style="fill:none;stroke:black;" d="M409,-141C416,-131 427,-119 440,-113 466,-103 497,-108 518,-114"/>
<polygon style="fill:black;stroke:black;" points="517.416,-117.479 528,-117 519.427,-110.774 517.416,-117.479"/>
<text text-anchor="middle" x="472" y="-120.9" style="font-family:Times New Roman;font-size:14.00;">mh1start</text>
</g>
<!-- 10&#45;&gt;1 -->
<g id="edge46" class="edge"><title>10&#45;&gt;1</title>
<path style="fill:none;stroke:black;" d="M522,-213C501,-211 468,-209 440,-205 309,-190 271,-205 146,-160 142,-158 138,-156 134,-154"/>
<polygon style="fill:black;stroke:black;" points="135.441,-150.797 125,-149 132.042,-156.916 135.441,-150.797"/>
<text text-anchor="middle" x="326" y="-203.9" style="font-family:Times New Roman;font-size:14.00;">cb4stp</text>
</g>
<!-- 8 -->
<g id="node15" class="node"><title>8</title>
<ellipse style="fill:none;stroke:red;" cx="686" cy="-175" rx="18" ry="18"/>
<text text-anchor="middle" x="686" y="-170.9" style="font-family:Times New Roman;font-size:14.00;">8</text>
</g>
<!-- 10&#45;&gt;8 -->
<g id="edge48" class="edge"><title>10&#45;&gt;8</title>
<path style="fill:none;stroke:black;" d="M558,-196C565,-187 575,-177 586,-172 609,-163 638,-165 659,-168"/>
<polygon style="fill:black;stroke:black;" points="658.508,-171.471 669,-170 659.881,-164.607 658.508,-171.471"/>
<text text-anchor="middle" x="618" y="-179.9" style="font-family:Times New Roman;font-size:14.00;">mh1start</text>
</g>
<!-- 12&#45;&gt;10 -->
<g id="edge54" class="edge"><title>12&#45;&gt;10</title>
<path style="fill:none;stroke:black;" d="M412,-318C420,-309 429,-298 440,-291 466,-276 480,-290 504,-272 514,-265 523,-254 530,-245"/>
<polygon style="fill:black;stroke:black;" points="533.203,-246.441 535,-236 527.084,-243.042 533.203,-246.441"/>
<text text-anchor="middle" x="472" y="-298.9" style="font-family:Times New Roman;font-size:14.00;">cb4&#45;cb12</text>
</g>
<!-- 11 -->
<g id="node16" class="node"><title>11</title>
<ellipse style="fill:none;stroke:red;" cx="545" cy="-294" rx="23.1233" ry="23.1233"/>
<text text-anchor="middle" x="545" y="-289.9" style="font-family:Times New Roman;font-size:14.00;">11</text>
</g>
<!-- 12&#45;&gt;11 -->
<g id="edge56" class="edge"><title>12&#45;&gt;11</title>
<path style="fill:none;stroke:black;" d="M421,-346C443,-353 478,-361 504,-348 515,-343 523,-333 530,-324"/>
<polygon style="fill:black;stroke:black;" points="533.203,-325.441 535,-315 527.084,-322.042 533.203,-325.441"/>
<text text-anchor="middle" x="472" y="-356.9" style="font-family:Times New Roman;font-size:14.00;">mh1start</text>
</g>
<!-- 4&#45;&gt;1 -->
<g id="edge24" class="edge"><title>4&#45;&gt;1</title>
<path style="fill:none;stroke:black;" d="M234,-55C212,-50 173,-46 146,-63 129,-74 120,-94 116,-111"/>
<polygon style="fill:black;stroke:black;" points="112.521,-110.416 113,-121 119.226,-112.427 112.521,-110.416"/>
<text text-anchor="middle" x="178" y="-70.9" style="font-family:Times New Roman;font-size:14.00;">mh1end</text>
</g>
<!-- 4&#45;&gt;5 -->
<g id="edge20" class="edge"><title>4&#45;&gt;5</title>
<path style="fill:none;stroke:black;" d="M270,-54C293,-49 335,-44 358,-65 378,-83 371,-158 376,-183 380,-202 385,-222 390,-238"/>
<polygon style="fill:black;stroke:black;" points="386.774,-239.427 393,-248 393.479,-237.416 386.774,-239.427"/>
<text text-anchor="middle" x="326" y="-69.9" style="font-family:Times New Roman;font-size:14.00;">cb11&#45;cb4</text>
</g>
<!-- 4&#45;&gt;6 -->
<g id="edge22" class="edge"><title>4&#45;&gt;6</title>
<path style="fill:none;stroke:black;" d="M263,-44C271,-36 282,-25 294,-20 321,-10 334,-6 358,-20 374,-29 385,-47 391,-62"/>
<polygon style="fill:black;stroke:black;" points="387.774,-63.4275 394,-72 394.479,-61.416 387.774,-63.4275"/>
<text text-anchor="middle" x="326" y="-27.9" style="font-family:Times New Roman;font-size:14.00;">cb12&#45;cb4</text>
</g>
<!-- 5&#45;&gt;2 -->
<g id="edge28" class="edge"><title>5&#45;&gt;2</title>
<path style="fill:none;stroke:black;" d="M381,-260C360,-255 324,-248 294,-256 287,-258 281,-261 274,-265"/>
<polygon style="fill:black;stroke:black;" points="271.9,-262.2 266,-271 276.1,-267.8 271.9,-262.2"/>
<text text-anchor="middle" x="326" y="-263.9" style="font-family:Times New Roman;font-size:14.00;">mh1end</text>
</g>
<!-- 5&#45;&gt;11 -->
<g id="edge26" class="edge"><title>5&#45;&gt;11</title>
<path style="fill:none;stroke:black;" d="M416,-259C438,-252 475,-244 504,-255 511,-258 518,-263 523,-268"/>
<polygon style="fill:black;stroke:black;" points="521.169,-271.049 531,-275 525.779,-265.781 521.169,-271.049"/>
<text text-anchor="middle" x="472" y="-259.9" style="font-family:Times New Roman;font-size:14.00;">cb4stp</text>
</g>
<!-- 6&#45;&gt;3 -->
<g id="edge32" class="edge"><title>6&#45;&gt;3</title>
<path style="fill:none;stroke:black;" d="M381,-87C359,-84 323,-83 294,-96 284,-100 276,-108 269,-116"/>
<polygon style="fill:black;stroke:black;" points="265.951,-114.169 262,-124 271.219,-118.779 265.951,-114.169"/>
<text text-anchor="middle" x="326" y="-103.9" style="font-family:Times New Roman;font-size:14.00;">mh1end</text>
</g>
<!-- 6&#45;&gt;7 -->
<g id="edge30" class="edge"><title>6&#45;&gt;7</title>
<path style="fill:none;stroke:black;" d="M417,-85C438,-81 475,-76 504,-87 512,-91 520,-96 526,-102"/>
<polygon style="fill:black;stroke:black;" points="523.454,-104.404 533,-109 528.404,-99.454 523.454,-104.404"/>
<text text-anchor="middle" x="472" y="-91.9" style="font-family:Times New Roman;font-size:14.00;">cb4stp</text>
</g>
<!-- 7&#45;&gt;9 -->
<g id="edge36" class="edge"><title>7&#45;&gt;9</title>
<path style="fill:none;stroke:black;" d="M527,-127C502,-132 456,-142 427,-150"/>
<polygon style="fill:black;stroke:black;" points="426.119,-146.607 417,-152 427.492,-153.471 426.119,-146.607"/>
<text text-anchor="middle" x="472" y="-152.9" style="font-family:Times New Roman;font-size:14.00;">mh1end</text>
</g>
<!-- 7&#45;&gt;8 -->
<g id="edge34" class="edge"><title>7&#45;&gt;8</title>
<path style="fill:none;stroke:black;" d="M563,-124C585,-126 622,-132 650,-145 656,-148 661,-152 665,-155"/>
<polygon style="fill:black;stroke:black;" points="663.169,-158.049 673,-162 667.779,-152.781 663.169,-158.049"/>
<text text-anchor="middle" x="618" y="-149.9" style="font-family:Times New Roman;font-size:14.00;">cb4&#45;cb11</text>
</g>
<!-- 8&#45;&gt;10 -->
<g id="edge40" class="edge"><title>8&#45;&gt;10</title>
<path style="fill:none;stroke:black;" d="M670,-184C664,-188 657,-191 650,-193 627,-202 599,-207 578,-211"/>
<polygon style="fill:black;stroke:black;" points="577.602,-207.522 568,-212 578.299,-214.488 577.602,-207.522"/>
<text text-anchor="middle" x="618" y="-215.9" style="font-family:Times New Roman;font-size:14.00;">mh1end</text>
</g>
<!-- 8&#45;&gt;4 -->
<g id="edge38" class="edge"><title>8&#45;&gt;4</title>
<path style="fill:none;stroke:black;" d="M677,-159C671,-148 662,-135 650,-125 542,-37 496,-32 358,-8 330,-4 320,4 294,-8 282,-13 273,-24 266,-35"/>
<polygon style="fill:black;stroke:black;" points="263.2,-32.9 260,-43 268.8,-37.1 263.2,-32.9"/>
<text text-anchor="middle" x="472" y="-44.9" style="font-family:Times New Roman;font-size:14.00;">cb4stp</text>
</g>
<!-- 11&#45;&gt;12 -->
<g id="edge52" class="edge"><title>11&#45;&gt;12</title>
<path style="fill:none;stroke:black;" d="M524,-304C518,-307 511,-310 504,-312 481,-320 453,-326 432,-331"/>
<polygon style="fill:black;stroke:black;" points="431.119,-327.607 422,-333 432.492,-334.471 431.119,-327.607"/>
<text text-anchor="middle" x="472" y="-330.9" style="font-family:Times New Roman;font-size:14.00;">mh1end</text>
</g>
<!-- 11&#45;&gt;8 -->
<g id="edge50" class="edge"><title>11&#45;&gt;8</title>
<path style="fill:none;stroke:black;" d="M567,-285C589,-275 626,-256 650,-232 659,-223 668,-211 674,-200"/>
<polygon style="fill:black;stroke:black;" points="677.203,-201.441 679,-191 671.084,-198.042 677.203,-201.441"/>
<text text-anchor="middle" x="618" y="-281.9" style="font-family:Times New Roman;font-size:14.00;">cb4&#45;cb12</text>
</g>
</g>
</svg>
