<?xml version="1.0" encoding="UTF-8" standalone="no"?>
<!DOCTYPE svg PUBLIC "-//W3C//DTD SVG 1.0//EN"
 "http://www.w3.org/TR/2001/REC-SVG-20010904/DTD/svg10.dtd" [
 <!ATTLIST svg xmlns:xlink CDATA #FIXED "http://www.w3.org/1999/xlink">
]>
<!-- Generated by Graphviz version 2.20.2 (Tue Mar &#160;2 21:46:26 UTC 2010)
     For user: (mtmoor) Prof. Thomas Moor -->
<!-- Title: Det(MtcPro(Generator)) [mtc minstate]: mtcProject Pages: 1 -->
<svg width="272pt" height="54pt"
 viewBox="0.00 0.00 272.00 54.00" xmlns="http://www.w3.org/2000/svg" xmlns:xlink="http://www.w3.org/1999/xlink">
<g id="graph0" class="graph" transform="scale(1 1) rotate(0) translate(4 50)">
<title>Det(MtcPro(Generator)) [mtc minstate]: mtcProject</title>
<polygon style="fill:none;stroke:none;" points="-4,4 -4,-50 268,-50 268,4 -4,4"/>
<!-- dot_dummyinit_1 -->
<g id="node1" class="node"><title>dot_dummyinit_1</title>
</g>
<!-- 1 -->
<g id="node3" class="node"><title>1</title>
<ellipse style="fill:none;stroke:black;" cx="110" cy="-28" rx="18" ry="18"/>
<text text-anchor="middle" x="110" y="-23.9" style="font-family:Times New Roman;font-size:14.00;">1</text>
</g>
<!-- dot_dummyinit_1&#45;&gt;1 -->
<g id="edge2" class="edge"><title>dot_dummyinit_1&#45;&gt;1</title>
<path style="fill:none;stroke:black;" d="M54,-28C63,-28 73,-28 82,-28"/>
<polygon style="fill:black;stroke:black;" points="82,-31.5001 92,-28 82,-24.5001 82,-31.5001"/>
</g>
<!-- 2 -->
<g id="node4" class="node"><title>2</title>
<ellipse style="fill:none;stroke:blue;" cx="246" cy="-28" rx="18" ry="18"/>
<text text-anchor="middle" x="246" y="-23.9" style="font-family:Times New Roman;font-size:14.00;">2</text>
</g>
<!-- 1&#45;&gt;2 -->
<g id="edge4" class="edge"><title>1&#45;&gt;2</title>
<path style="fill:none;stroke:black;" d="M128,-28C151,-28 191,-28 218,-28"/>
<polygon style="fill:black;stroke:black;" points="218,-31.5001 228,-28 218,-24.5001 218,-31.5001"/>
<text text-anchor="middle" x="178" y="-31.9" style="font-family:Times New Roman;font-size:14.00;">mh1start</text>
</g>
<!-- 2&#45;&gt;1 -->
<g id="edge6" class="edge"><title>2&#45;&gt;1</title>
<path style="fill:none;stroke:black;" d="M231,-17C225,-13 218,-9 210,-7 183,-0 174,-0 146,-7 142,-8 138,-10 134,-12"/>
<polygon style="fill:black;stroke:black;" points="132.042,-9.08397 125,-17 135.441,-15.2031 132.042,-9.08397"/>
<text text-anchor="middle" x="178" y="-11.9" style="font-family:Times New Roman;font-size:14.00;">mh1end</text>
</g>
</g>
</svg>
