<?xml version="1.0" encoding="UTF-8" standalone="no"?>
<!DOCTYPE svg PUBLIC "-//W3C//DTD SVG 1.0//EN"
 "http://www.w3.org/TR/2001/REC-SVG-20010904/DTD/svg10.dtd" [
 <!ATTLIST svg xmlns:xlink CDATA #FIXED "http://www.w3.org/1999/xlink">
]>
<!-- Generated by Graphviz version 2.20.2 (Tue Mar &#160;2 21:46:26 UTC 2010)
     For user: (mtmoor) Prof. Thomas Moor -->
<!-- Title: Det(MtcPro(mtcSupConNB((Generator),(Generator||Generator)))) [mtc minstate]: mtcProject Pages: 1 -->
<svg width="522pt" height="115pt"
 viewBox="0.00 0.00 522.00 115.00" xmlns="http://www.w3.org/2000/svg" xmlns:xlink="http://www.w3.org/1999/xlink">
<g id="graph0" class="graph" transform="scale(1 1) rotate(0) translate(4 111)">
<title>Det(MtcPro(mtcSupConNB((Generator),(Generator||Generator)))) [mtc minstate]: mtcProject</title>
<polygon style="fill:none;stroke:none;" points="-4,4 -4,-111 518,-111 518,4 -4,4"/>
<!-- dot_dummyinit_1 -->
<g id="node1" class="node"><title>dot_dummyinit_1</title>
</g>
<!-- 2 -->
<g id="node3" class="node"><title>2</title>
<ellipse style="fill:none;stroke:blue;" cx="110" cy="-35" rx="18" ry="18"/>
<text text-anchor="middle" x="110" y="-30.9" style="font-family:Times New Roman;font-size:14.00;">2</text>
</g>
<!-- dot_dummyinit_1&#45;&gt;2 -->
<g id="edge2" class="edge"><title>dot_dummyinit_1&#45;&gt;2</title>
<path style="fill:none;stroke:black;" d="M54,-35C63,-35 73,-35 82,-35"/>
<polygon style="fill:black;stroke:black;" points="82,-38.5001 92,-35 82,-31.5001 82,-38.5001"/>
</g>
<!-- 1 -->
<g id="node4" class="node"><title>1</title>
<ellipse style="fill:none;stroke:black;" cx="244" cy="-89" rx="18" ry="18"/>
<text text-anchor="middle" x="244" y="-84.9" style="font-family:Times New Roman;font-size:14.00;">1</text>
</g>
<!-- 2&#45;&gt;1 -->
<g id="edge8" class="edge"><title>2&#45;&gt;1</title>
<path style="fill:none;stroke:black;" d="M125,-45C132,-48 139,-53 146,-56 169,-66 196,-76 216,-81"/>
<polygon style="fill:black;stroke:black;" points="215.416,-84.4788 226,-84 217.427,-77.7741 215.416,-84.4788"/>
<text text-anchor="middle" x="177" y="-79.9" style="font-family:Times New Roman;font-size:14.00;">cb12&#45;cb4</text>
</g>
<!-- 6 -->
<g id="node8" class="node"><title>6</title>
<ellipse style="fill:none;stroke:black;" cx="244" cy="-35" rx="18" ry="18"/>
<text text-anchor="middle" x="244" y="-30.9" style="font-family:Times New Roman;font-size:14.00;">6</text>
</g>
<!-- 2&#45;&gt;6 -->
<g id="edge6" class="edge"><title>2&#45;&gt;6</title>
<path style="fill:none;stroke:black;" d="M128,-35C151,-35 189,-35 216,-35"/>
<polygon style="fill:black;stroke:black;" points="216,-38.5001 226,-35 216,-31.5001 216,-38.5001"/>
<text text-anchor="middle" x="177" y="-38.9" style="font-family:Times New Roman;font-size:14.00;">cb11&#45;cb4</text>
</g>
<!-- 3 -->
<g id="node5" class="node"><title>3</title>
<ellipse style="fill:none;stroke:black;" cx="362" cy="-89" rx="18" ry="18"/>
<text text-anchor="middle" x="362" y="-84.9" style="font-family:Times New Roman;font-size:14.00;">3</text>
</g>
<!-- 1&#45;&gt;3 -->
<g id="edge4" class="edge"><title>1&#45;&gt;3</title>
<path style="fill:none;stroke:black;" d="M262,-89C281,-89 312,-89 334,-89"/>
<polygon style="fill:black;stroke:black;" points="334,-92.5001 344,-89 334,-85.5001 334,-92.5001"/>
<text text-anchor="middle" x="303" y="-92.9" style="font-family:Times New Roman;font-size:14.00;">cb4stp</text>
</g>
<!-- 5 -->
<g id="node7" class="node"><title>5</title>
<ellipse style="fill:none;stroke:black;" cx="496" cy="-35" rx="18" ry="18"/>
<text text-anchor="middle" x="496" y="-30.9" style="font-family:Times New Roman;font-size:14.00;">5</text>
</g>
<!-- 3&#45;&gt;5 -->
<g id="edge10" class="edge"><title>3&#45;&gt;5</title>
<path style="fill:none;stroke:black;" d="M380,-84C400,-79 433,-68 460,-56 464,-54 468,-52 472,-50"/>
<polygon style="fill:black;stroke:black;" points="473.958,-52.916 481,-45 470.559,-46.7969 473.958,-52.916"/>
<text text-anchor="middle" x="429" y="-80.9" style="font-family:Times New Roman;font-size:14.00;">cb4&#45;cb11</text>
</g>
<!-- 4 -->
<g id="node6" class="node"><title>4</title>
<ellipse style="fill:none;stroke:black;" cx="362" cy="-35" rx="18" ry="18"/>
<text text-anchor="middle" x="362" y="-30.9" style="font-family:Times New Roman;font-size:14.00;">4</text>
</g>
<!-- 4&#45;&gt;5 -->
<g id="edge12" class="edge"><title>4&#45;&gt;5</title>
<path style="fill:none;stroke:black;" d="M380,-35C403,-35 441,-35 468,-35"/>
<polygon style="fill:black;stroke:black;" points="468,-38.5001 478,-35 468,-31.5001 468,-38.5001"/>
<text text-anchor="middle" x="429" y="-38.9" style="font-family:Times New Roman;font-size:14.00;">cb4&#45;cb12</text>
</g>
<!-- 5&#45;&gt;2 -->
<g id="edge14" class="edge"><title>5&#45;&gt;2</title>
<path style="fill:none;stroke:black;" d="M479,-30C456,-23 416,-12 380,-8 313,-0 294,-0 226,-8 196,-11 161,-20 138,-27"/>
<polygon style="fill:black;stroke:black;" points="136.573,-23.7741 128,-30 138.584,-30.4788 136.573,-23.7741"/>
<text text-anchor="middle" x="303" y="-5.9" style="font-family:Times New Roman;font-size:14.00;">cb4stp</text>
</g>
<!-- 6&#45;&gt;4 -->
<g id="edge16" class="edge"><title>6&#45;&gt;4</title>
<path style="fill:none;stroke:black;" d="M262,-35C281,-35 312,-35 334,-35"/>
<polygon style="fill:black;stroke:black;" points="334,-38.5001 344,-35 334,-31.5001 334,-38.5001"/>
<text text-anchor="middle" x="303" y="-38.9" style="font-family:Times New Roman;font-size:14.00;">cb4stp</text>
</g>
</g>
</svg>
