<?xml version="1.0" encoding="UTF-8" standalone="no"?>
<!DOCTYPE svg PUBLIC "-//W3C//DTD SVG 1.0//EN"
 "http://www.w3.org/TR/2001/REC-SVG-20010904/DTD/svg10.dtd" [
 <!ATTLIST svg xmlns:xlink CDATA #FIXED "http://www.w3.org/1999/xlink">
]>
<!-- Generated by Graphviz version 2.20.2 (Tue Mar &#160;2 21:46:26 UTC 2010)
     For user: (mtmoor) Prof. Thomas Moor -->
<!-- Title: mtcSupCon((Generator),(Generator)) Pages: 1 -->
<svg width="376pt" height="71pt"
 viewBox="0.00 0.00 376.00 71.00" xmlns="http://www.w3.org/2000/svg" xmlns:xlink="http://www.w3.org/1999/xlink">
<g id="graph0" class="graph" transform="scale(1 1) rotate(0) translate(4 67)">
<title>mtcSupCon((Generator),(Generator))</title>
<polygon style="fill:none;stroke:none;" points="-4,4 -4,-67 372,-67 372,4 -4,4"/>
<!-- dot_dummyinit_1 -->
<g id="node1" class="node"><title>dot_dummyinit_1</title>
</g>
<!-- 1 -->
<g id="node3" class="node"><title>1</title>
<ellipse style="fill:none;stroke:blue;" cx="110" cy="-18" rx="18" ry="18"/>
<text text-anchor="middle" x="110" y="-13.9" style="font-family:Times New Roman;font-size:14.00;">1</text>
</g>
<!-- dot_dummyinit_1&#45;&gt;1 -->
<g id="edge2" class="edge"><title>dot_dummyinit_1&#45;&gt;1</title>
<path style="fill:none;stroke:black;" d="M54,-18C63,-18 73,-18 82,-18"/>
<polygon style="fill:black;stroke:black;" points="82,-21.5001 92,-18 82,-14.5001 82,-21.5001"/>
</g>
<!-- 2 -->
<g id="node4" class="node"><title>2</title>
<ellipse style="fill:none;stroke:black;" cx="190" cy="-45" rx="18" ry="18"/>
<text text-anchor="middle" x="190" y="-40.9" style="font-family:Times New Roman;font-size:14.00;">2</text>
</g>
<!-- 1&#45;&gt;2 -->
<g id="edge4" class="edge"><title>1&#45;&gt;2</title>
<path style="fill:none;stroke:black;" d="M127,-24C138,-28 151,-32 163,-36"/>
<polygon style="fill:black;stroke:black;" points="162.416,-39.4788 173,-39 164.427,-32.7741 162.416,-39.4788"/>
<text text-anchor="middle" x="150" y="-34.9" style="font-family:Times New Roman;font-size:14.00;">b</text>
</g>
<!-- 3 -->
<g id="node5" class="node"><title>3</title>
<ellipse style="fill:none;stroke:black;" cx="270" cy="-45" rx="18" ry="18"/>
<text text-anchor="middle" x="270" y="-40.9" style="font-family:Times New Roman;font-size:14.00;">3</text>
</g>
<!-- 2&#45;&gt;3 -->
<g id="edge6" class="edge"><title>2&#45;&gt;3</title>
<path style="fill:none;stroke:black;" d="M208,-45C218,-45 231,-45 242,-45"/>
<polygon style="fill:black;stroke:black;" points="242,-48.5001 252,-45 242,-41.5001 242,-48.5001"/>
<text text-anchor="middle" x="230" y="-48.9" style="font-family:Times New Roman;font-size:14.00;">c</text>
</g>
<!-- 4 -->
<g id="node6" class="node"><title>4</title>
<ellipse style="fill:none;stroke:red;" cx="350" cy="-18" rx="18" ry="18"/>
<text text-anchor="middle" x="350" y="-13.9" style="font-family:Times New Roman;font-size:14.00;">4</text>
</g>
<!-- 3&#45;&gt;4 -->
<g id="edge8" class="edge"><title>3&#45;&gt;4</title>
<path style="fill:none;stroke:black;" d="M287,-39C298,-35 311,-31 323,-27"/>
<polygon style="fill:black;stroke:black;" points="324.427,-30.2259 333,-24 322.416,-23.5212 324.427,-30.2259"/>
<text text-anchor="middle" x="310" y="-35.9" style="font-family:Times New Roman;font-size:14.00;">a</text>
</g>
<!-- 4&#45;&gt;1 -->
<g id="edge10" class="edge"><title>4&#45;&gt;1</title>
<path style="fill:none;stroke:black;" d="M332,-18C290,-18 188,-18 138,-18"/>
<polygon style="fill:black;stroke:black;" points="138,-14.5001 128,-18 138,-21.5001 138,-14.5001"/>
<text text-anchor="middle" x="230" y="-21.9" style="font-family:Times New Roman;font-size:14.00;">a</text>
</g>
</g>
</svg>
