<?xml version="1.0" encoding="UTF-8" standalone="no"?>
<!DOCTYPE svg PUBLIC "-//W3C//DTD SVG 1.0//EN"
 "http://www.w3.org/TR/2001/REC-SVG-20010904/DTD/svg10.dtd" [
 <!ATTLIST svg xmlns:xlink CDATA #FIXED "http://www.w3.org/1999/xlink">
]>
<!-- Generated by Graphviz version 2.20.2 (Tue Mar &#160;2 21:46:26 UTC 2010)
     For user: (mtmoor) Prof. Thomas Moor -->
<!-- Title: Generator||Generator Pages: 1 -->
<svg width="296pt" height="109pt"
 viewBox="0.00 0.00 296.00 109.00" xmlns="http://www.w3.org/2000/svg" xmlns:xlink="http://www.w3.org/1999/xlink">
<g id="graph0" class="graph" transform="scale(1 1) rotate(0) translate(4 105)">
<title>Generator||Generator</title>
<polygon style="fill:none;stroke:none;" points="-4,4 -4,-105 292,-105 292,4 -4,4"/>
<!-- dot_dummyinit_1 -->
<g id="node1" class="node"><title>dot_dummyinit_1</title>
</g>
<!-- 1 -->
<g id="node3" class="node"><title>1</title>
<ellipse style="fill:none;stroke:black;" cx="110" cy="-49" rx="18" ry="18"/>
<text text-anchor="middle" x="110" y="-44.9" style="font-family:Times New Roman;font-size:14.00;">1</text>
</g>
<!-- dot_dummyinit_1&#45;&gt;1 -->
<g id="edge2" class="edge"><title>dot_dummyinit_1&#45;&gt;1</title>
<path style="fill:none;stroke:black;" d="M54,-49C63,-49 73,-49 82,-49"/>
<polygon style="fill:black;stroke:black;" points="82,-52.5001 92,-49 82,-45.5001 82,-52.5001"/>
</g>
<!-- 2 -->
<g id="node4" class="node"><title>2</title>
<ellipse style="fill:none;stroke:blue;" cx="190" cy="-49" rx="18" ry="18"/>
<text text-anchor="middle" x="190" y="-44.9" style="font-family:Times New Roman;font-size:14.00;">2</text>
</g>
<!-- 1&#45;&gt;2 -->
<g id="edge4" class="edge"><title>1&#45;&gt;2</title>
<path style="fill:none;stroke:black;" d="M128,-49C138,-49 151,-49 162,-49"/>
<polygon style="fill:black;stroke:black;" points="162,-52.5001 172,-49 162,-45.5001 162,-52.5001"/>
<text text-anchor="middle" x="150" y="-52.9" style="font-family:Times New Roman;font-size:14.00;">a</text>
</g>
<!-- 3 -->
<g id="node5" class="node"><title>3</title>
<ellipse style="fill:none;stroke:blue;" cx="270" cy="-82" rx="18" ry="18"/>
<text text-anchor="middle" x="270" y="-77.9" style="font-family:Times New Roman;font-size:14.00;">3</text>
</g>
<!-- 2&#45;&gt;3 -->
<g id="edge6" class="edge"><title>2&#45;&gt;3</title>
<path style="fill:none;stroke:black;" d="M207,-56C217,-61 232,-67 244,-71"/>
<polygon style="fill:black;stroke:black;" points="242.44,-74.1369 253,-75 245.283,-67.7402 242.44,-74.1369"/>
<text text-anchor="middle" x="230" y="-68.9" style="font-family:Times New Roman;font-size:14.00;">b</text>
</g>
<!-- 4 -->
<g id="node6" class="node"><title>4</title>
<ellipse style="fill:none;stroke:red;" cx="270" cy="-18" rx="18" ry="18"/>
<text text-anchor="middle" x="270" y="-13.9" style="font-family:Times New Roman;font-size:14.00;">4</text>
</g>
<!-- 2&#45;&gt;4 -->
<g id="edge8" class="edge"><title>2&#45;&gt;4</title>
<path style="fill:none;stroke:black;" d="M206,-40C212,-37 219,-33 226,-31 231,-29 236,-26 242,-25"/>
<polygon style="fill:black;stroke:black;" points="243.427,-28.2259 252,-22 241.416,-21.5212 243.427,-28.2259"/>
<text text-anchor="middle" x="230" y="-34.9" style="font-family:Times New Roman;font-size:14.00;">c</text>
</g>
<!-- 3&#45;&gt;1 -->
<g id="edge10" class="edge"><title>3&#45;&gt;1</title>
<path style="fill:none;stroke:black;" d="M252,-84C246,-85 240,-86 234,-86 195,-88 183,-84 146,-70 142,-68 138,-66 134,-64"/>
<polygon style="fill:black;stroke:black;" points="135.441,-60.7969 125,-59 132.042,-66.916 135.441,-60.7969"/>
<text text-anchor="middle" x="190" y="-88.9" style="font-family:Times New Roman;font-size:14.00;">c</text>
</g>
<!-- 4&#45;&gt;1 -->
<g id="edge12" class="edge"><title>4&#45;&gt;1</title>
<path style="fill:none;stroke:black;" d="M253,-11C233,-5 200,4 172,-5 157,-10 142,-20 131,-29"/>
<polygon style="fill:black;stroke:black;" points="128.221,-26.7809 123,-36 132.831,-32.0489 128.221,-26.7809"/>
<text text-anchor="middle" x="190" y="-8.9" style="font-family:Times New Roman;font-size:14.00;">b</text>
</g>
</g>
</svg>
