<?xml version="1.0" encoding="UTF-8" standalone="no"?>
<!DOCTYPE svg PUBLIC "-//W3C//DTD SVG 1.0//EN"
 "http://www.w3.org/TR/2001/REC-SVG-20010904/DTD/svg10.dtd" [
 <!ATTLIST svg xmlns:xlink CDATA #FIXED "http://www.w3.org/1999/xlink">
]>
<!-- Generated by Graphviz version 2.20.2 (Tue Mar &#160;2 21:46:26 UTC 2010)
     For user: (mtmoor) Prof. Thomas Moor -->
<!-- Title: Det(MtcPro(Generator)) [mtc minstate]: mtcProject Pages: 1 -->
<svg width="368pt" height="109pt"
 viewBox="0.00 0.00 368.00 109.00" xmlns="http://www.w3.org/2000/svg" xmlns:xlink="http://www.w3.org/1999/xlink">
<g id="graph0" class="graph" transform="scale(1 1) rotate(0) translate(4 105)">
<title>Det(MtcPro(Generator)) [mtc minstate]: mtcProject</title>
<polygon style="fill:none;stroke:none;" points="-4,4 -4,-105 364,-105 364,4 -4,4"/>
<!-- dot_dummyinit_1 -->
<g id="node1" class="node"><title>dot_dummyinit_1</title>
</g>
<!-- {1} -->
<g id="node3" class="node"><title>{1}</title>
<ellipse style="fill:none;stroke:black;" cx="122" cy="-30" rx="29.8799" ry="29.8799"/>
<text text-anchor="middle" x="122" y="-25.9" style="font-family:Times New Roman;font-size:14.00;">{1}</text>
</g>
<!-- dot_dummyinit_1&#45;&gt;{1} -->
<g id="edge2" class="edge"><title>dot_dummyinit_1&#45;&gt;{1}</title>
<path style="fill:none;stroke:black;" d="M54,-30C63,-30 72,-30 82,-30"/>
<polygon style="fill:black;stroke:black;" points="82,-33.5001 92,-30 82,-26.5001 82,-33.5001"/>
</g>
<!-- {2} -->
<g id="node4" class="node"><title>{2}</title>
<ellipse style="fill:none;stroke:blue;" cx="226" cy="-71" rx="29.8799" ry="29.8799"/>
<text text-anchor="middle" x="226" y="-66.9" style="font-family:Times New Roman;font-size:14.00;">{2}</text>
</g>
<!-- {1}&#45;&gt;{2} -->
<g id="edge4" class="edge"><title>{1}&#45;&gt;{2}</title>
<path style="fill:none;stroke:black;" d="M150,-41C162,-46 176,-51 189,-56"/>
<polygon style="fill:black;stroke:black;" points="187.44,-59.1369 198,-60 190.283,-52.7402 187.44,-59.1369"/>
<text text-anchor="middle" x="174" y="-53.9" style="font-family:Times New Roman;font-size:14.00;">a</text>
</g>
<!-- {3} -->
<g id="node5" class="node"><title>{3}</title>
<ellipse style="fill:none;stroke:red;" cx="330" cy="-30" rx="29.8799" ry="29.8799"/>
<text text-anchor="middle" x="330" y="-25.9" style="font-family:Times New Roman;font-size:14.00;">{3}</text>
</g>
<!-- {2}&#45;&gt;{3} -->
<g id="edge6" class="edge"><title>{2}&#45;&gt;{3}</title>
<path style="fill:none;stroke:black;" d="M254,-60C266,-55 280,-50 293,-45"/>
<polygon style="fill:black;stroke:black;" points="294.283,-48.2598 302,-41 291.44,-41.8631 294.283,-48.2598"/>
<text text-anchor="middle" x="278" y="-53.9" style="font-family:Times New Roman;font-size:14.00;">b</text>
</g>
<!-- {3}&#45;&gt;{1} -->
<g id="edge8" class="edge"><title>{3}&#45;&gt;{1}</title>
<path style="fill:none;stroke:black;" d="M301,-23C287,-19 271,-16 256,-15 230,-12 223,-12 196,-15 184,-16 172,-18 161,-21"/>
<polygon style="fill:black;stroke:black;" points="160.119,-17.6067 151,-23 161.492,-24.4708 160.119,-17.6067"/>
<text text-anchor="middle" x="226" y="-18.9" style="font-family:Times New Roman;font-size:14.00;">d</text>
</g>
</g>
</svg>
