<?xml version="1.0" encoding="UTF-8" standalone="no"?>
<!DOCTYPE svg PUBLIC "-//W3C//DTD SVG 1.0//EN"
 "http://www.w3.org/TR/2001/REC-SVG-20010904/DTD/svg10.dtd" [
 <!ATTLIST svg xmlns:xlink CDATA #FIXED "http://www.w3.org/1999/xlink">
]>
<!-- Generated by Graphviz version 2.20.2 (Tue Mar &#160;2 21:46:26 UTC 2010)
     For user: (mtmoor) Prof. Thomas Moor -->
<!-- Title: mtcSupCon((Generator),(Generator||Generator)) Pages: 1 -->
<svg width="720pt" height="79pt"
 viewBox="0.00 0.00 720.00 78.80" xmlns="http://www.w3.org/2000/svg" xmlns:xlink="http://www.w3.org/1999/xlink">
<g id="graph0" class="graph" transform="scale(0.53973 0.53973) rotate(0) translate(4 142)">
<title>mtcSupCon((Generator),(Generator||Generator))</title>
<polygon style="fill:none;stroke:none;" points="-4,4 -4,-142 1330,-142 1330,4 -4,4"/>
<!-- dot_dummyinit_1 -->
<g id="node1" class="node"><title>dot_dummyinit_1</title>
</g>
<!-- 1 -->
<g id="node3" class="node"><title>1</title>
<ellipse style="fill:none;stroke:blue;" cx="110" cy="-51" rx="18" ry="18"/>
<text text-anchor="middle" x="110" y="-46.9" style="font-family:Times New Roman;font-size:14.00;">1</text>
</g>
<!-- dot_dummyinit_1&#45;&gt;1 -->
<g id="edge2" class="edge"><title>dot_dummyinit_1&#45;&gt;1</title>
<path style="fill:none;stroke:black;" d="M54,-51C63,-51 73,-51 82,-51"/>
<polygon style="fill:black;stroke:black;" points="82,-54.5001 92,-51 82,-47.5001 82,-54.5001"/>
</g>
<!-- 2 -->
<g id="node4" class="node"><title>2</title>
<ellipse style="fill:none;stroke:black;" cx="244" cy="-107" rx="18" ry="18"/>
<text text-anchor="middle" x="244" y="-102.9" style="font-family:Times New Roman;font-size:14.00;">2</text>
</g>
<!-- 1&#45;&gt;2 -->
<g id="edge4" class="edge"><title>1&#45;&gt;2</title>
<path style="fill:none;stroke:black;" d="M125,-61C132,-64 139,-69 146,-72 169,-82 197,-92 217,-99"/>
<polygon style="fill:black;stroke:black;" points="216.416,-102.479 227,-102 218.427,-95.7741 216.416,-102.479"/>
<text text-anchor="middle" x="177" y="-97.9" style="font-family:Times New Roman;font-size:14.00;">cb11&#45;cb4</text>
</g>
<!-- 3 -->
<g id="node5" class="node"><title>3</title>
<ellipse style="fill:none;stroke:black;" cx="244" cy="-51" rx="18" ry="18"/>
<text text-anchor="middle" x="244" y="-46.9" style="font-family:Times New Roman;font-size:14.00;">3</text>
</g>
<!-- 1&#45;&gt;3 -->
<g id="edge6" class="edge"><title>1&#45;&gt;3</title>
<path style="fill:none;stroke:black;" d="M128,-51C151,-51 189,-51 216,-51"/>
<polygon style="fill:black;stroke:black;" points="216,-54.5001 226,-51 216,-47.5001 216,-54.5001"/>
<text text-anchor="middle" x="177" y="-54.9" style="font-family:Times New Roman;font-size:14.00;">cb12&#45;cb4</text>
</g>
<!-- 12 -->
<g id="node14" class="node"><title>12</title>
<ellipse style="fill:none;stroke:black;" cx="365" cy="-110" rx="23.1233" ry="23.1233"/>
<text text-anchor="middle" x="365" y="-105.9" style="font-family:Times New Roman;font-size:14.00;">12</text>
</g>
<!-- 2&#45;&gt;12 -->
<g id="edge8" class="edge"><title>2&#45;&gt;12</title>
<path style="fill:none;stroke:black;" d="M262,-107C280,-108 309,-109 332,-109"/>
<polygon style="fill:black;stroke:black;" points="332,-112.5 342,-109 332,-105.5 332,-112.5"/>
<text text-anchor="middle" x="302" y="-111.9" style="font-family:Times New Roman;font-size:14.00;">cb4+x</text>
</g>
<!-- 4 -->
<g id="node6" class="node"><title>4</title>
<ellipse style="fill:none;stroke:black;" cx="365" cy="-51" rx="18" ry="18"/>
<text text-anchor="middle" x="365" y="-46.9" style="font-family:Times New Roman;font-size:14.00;">4</text>
</g>
<!-- 3&#45;&gt;4 -->
<g id="edge10" class="edge"><title>3&#45;&gt;4</title>
<path style="fill:none;stroke:black;" d="M262,-51C282,-51 314,-51 337,-51"/>
<polygon style="fill:black;stroke:black;" points="337,-54.5001 347,-51 337,-47.5001 337,-54.5001"/>
<text text-anchor="middle" x="302" y="-54.9" style="font-family:Times New Roman;font-size:14.00;">cb4&#45;x</text>
</g>
<!-- 5 -->
<g id="node7" class="node"><title>5</title>
<ellipse style="fill:none;stroke:black;" cx="485" cy="-51" rx="18" ry="18"/>
<text text-anchor="middle" x="485" y="-46.9" style="font-family:Times New Roman;font-size:14.00;">5</text>
</g>
<!-- 4&#45;&gt;5 -->
<g id="edge12" class="edge"><title>4&#45;&gt;5</title>
<path style="fill:none;stroke:black;" d="M383,-51C403,-51 434,-51 457,-51"/>
<polygon style="fill:black;stroke:black;" points="457,-54.5001 467,-51 457,-47.5001 457,-54.5001"/>
<text text-anchor="middle" x="425" y="-54.9" style="font-family:Times New Roman;font-size:14.00;">t_cb4</text>
</g>
<!-- 6 -->
<g id="node8" class="node"><title>6</title>
<ellipse style="fill:none;stroke:black;" cx="627" cy="-51" rx="18" ry="18"/>
<text text-anchor="middle" x="627" y="-46.9" style="font-family:Times New Roman;font-size:14.00;">6</text>
</g>
<!-- 5&#45;&gt;6 -->
<g id="edge14" class="edge"><title>5&#45;&gt;6</title>
<path style="fill:none;stroke:black;" d="M503,-51C528,-51 571,-51 599,-51"/>
<polygon style="fill:black;stroke:black;" points="599,-54.5001 609,-51 599,-47.5001 599,-54.5001"/>
<text text-anchor="middle" x="556" y="-54.9" style="font-family:Times New Roman;font-size:14.00;">cb4wpar</text>
</g>
<!-- 7 -->
<g id="node9" class="node"><title>7</title>
<ellipse style="fill:none;stroke:black;" cx="755" cy="-51" rx="18" ry="18"/>
<text text-anchor="middle" x="755" y="-46.9" style="font-family:Times New Roman;font-size:14.00;">7</text>
</g>
<!-- 6&#45;&gt;7 -->
<g id="edge16" class="edge"><title>6&#45;&gt;7</title>
<path style="fill:none;stroke:black;" d="M645,-51C666,-51 702,-51 727,-51"/>
<polygon style="fill:black;stroke:black;" points="727,-54.5001 737,-51 727,-47.5001 727,-54.5001"/>
<text text-anchor="middle" x="691" y="-54.9" style="font-family:Times New Roman;font-size:14.00;">cb4stp</text>
</g>
<!-- 8 -->
<g id="node10" class="node"><title>8</title>
<ellipse style="fill:none;stroke:black;" cx="899" cy="-51" rx="18" ry="18"/>
<text text-anchor="middle" x="899" y="-46.9" style="font-family:Times New Roman;font-size:14.00;">8</text>
</g>
<!-- 7&#45;&gt;8 -->
<g id="edge18" class="edge"><title>7&#45;&gt;8</title>
<path style="fill:none;stroke:black;" d="M773,-51C798,-51 842,-51 871,-51"/>
<polygon style="fill:black;stroke:black;" points="871,-54.5001 881,-51 871,-47.5001 871,-54.5001"/>
<text text-anchor="middle" x="827" y="-54.9" style="font-family:Times New Roman;font-size:14.00;">cb4&#45;cb11</text>
</g>
<!-- 9 -->
<g id="node11" class="node"><title>9</title>
<ellipse style="fill:none;stroke:black;" cx="1025" cy="-51" rx="18" ry="18"/>
<text text-anchor="middle" x="1025" y="-46.9" style="font-family:Times New Roman;font-size:14.00;">9</text>
</g>
<!-- 8&#45;&gt;9 -->
<g id="edge20" class="edge"><title>8&#45;&gt;9</title>
<path style="fill:none;stroke:black;" d="M917,-51C938,-51 972,-51 997,-51"/>
<polygon style="fill:black;stroke:black;" points="997,-54.5001 1007,-51 997,-47.5001 997,-54.5001"/>
<text text-anchor="middle" x="962" y="-54.9" style="font-family:Times New Roman;font-size:14.00;">cb4&#45;x</text>
</g>
<!-- 10 -->
<g id="node12" class="node"><title>10</title>
<ellipse style="fill:none;stroke:black;" cx="1145" cy="-51" rx="23.1233" ry="23.1233"/>
<text text-anchor="middle" x="1145" y="-46.9" style="font-family:Times New Roman;font-size:14.00;">10</text>
</g>
<!-- 9&#45;&gt;10 -->
<g id="edge22" class="edge"><title>9&#45;&gt;10</title>
<path style="fill:none;stroke:black;" d="M1043,-51C1061,-51 1090,-51 1112,-51"/>
<polygon style="fill:black;stroke:black;" points="1112,-54.5001 1122,-51 1112,-47.5001 1112,-54.5001"/>
<text text-anchor="middle" x="1085" y="-54.9" style="font-family:Times New Roman;font-size:14.00;">t_cb4</text>
</g>
<!-- 11 -->
<g id="node13" class="node"><title>11</title>
<ellipse style="fill:none;stroke:black;" cx="1303" cy="-51" rx="23.1233" ry="23.1233"/>
<text text-anchor="middle" x="1303" y="-46.9" style="font-family:Times New Roman;font-size:14.00;">11</text>
</g>
<!-- 10&#45;&gt;11 -->
<g id="edge24" class="edge"><title>10&#45;&gt;11</title>
<path style="fill:none;stroke:black;" d="M1168,-51C1195,-51 1239,-51 1270,-51"/>
<polygon style="fill:black;stroke:black;" points="1270,-54.5001 1280,-51 1270,-47.5001 1270,-54.5001"/>
<text text-anchor="middle" x="1224" y="-54.9" style="font-family:Times New Roman;font-size:14.00;">cb4wplv11</text>
</g>
<!-- 11&#45;&gt;1 -->
<g id="edge26" class="edge"><title>11&#45;&gt;1</title>
<path style="fill:none;stroke:black;" d="M1283,-40C1253,-25 1197,-0 1145,-0 244,-0 244,-0 244,-0 204,-0 160,-21 134,-36"/>
<polygon style="fill:black;stroke:black;" points="132.042,-33.084 125,-41 135.441,-39.2031 132.042,-33.084"/>
<text text-anchor="middle" x="691" y="-3.9" style="font-family:Times New Roman;font-size:14.00;">cb4stp</text>
</g>
<!-- 13 -->
<g id="node15" class="node"><title>13</title>
<ellipse style="fill:none;stroke:black;" cx="485" cy="-110" rx="23.1233" ry="23.1233"/>
<text text-anchor="middle" x="485" y="-105.9" style="font-family:Times New Roman;font-size:14.00;">13</text>
</g>
<!-- 12&#45;&gt;13 -->
<g id="edge28" class="edge"><title>12&#45;&gt;13</title>
<path style="fill:none;stroke:black;" d="M388,-110C406,-110 432,-110 452,-110"/>
<polygon style="fill:black;stroke:black;" points="452,-113.5 462,-110 452,-106.5 452,-113.5"/>
<text text-anchor="middle" x="425" y="-113.9" style="font-family:Times New Roman;font-size:14.00;">t_cb4</text>
</g>
<!-- 14 -->
<g id="node16" class="node"><title>14</title>
<ellipse style="fill:none;stroke:black;" cx="627" cy="-110" rx="23.1233" ry="23.1233"/>
<text text-anchor="middle" x="627" y="-105.9" style="font-family:Times New Roman;font-size:14.00;">14</text>
</g>
<!-- 13&#45;&gt;14 -->
<g id="edge30" class="edge"><title>13&#45;&gt;14</title>
<path style="fill:none;stroke:black;" d="M508,-110C531,-110 567,-110 594,-110"/>
<polygon style="fill:black;stroke:black;" points="594,-113.5 604,-110 594,-106.5 594,-113.5"/>
<text text-anchor="middle" x="556" y="-113.9" style="font-family:Times New Roman;font-size:14.00;">cb4wpar</text>
</g>
<!-- 15 -->
<g id="node17" class="node"><title>15</title>
<ellipse style="fill:none;stroke:black;" cx="755" cy="-110" rx="23.1233" ry="23.1233"/>
<text text-anchor="middle" x="755" y="-105.9" style="font-family:Times New Roman;font-size:14.00;">15</text>
</g>
<!-- 14&#45;&gt;15 -->
<g id="edge32" class="edge"><title>14&#45;&gt;15</title>
<path style="fill:none;stroke:black;" d="M650,-110C670,-110 699,-110 722,-110"/>
<polygon style="fill:black;stroke:black;" points="722,-113.5 732,-110 722,-106.5 722,-113.5"/>
<text text-anchor="middle" x="691" y="-113.9" style="font-family:Times New Roman;font-size:14.00;">cb4stp</text>
</g>
<!-- 16 -->
<g id="node18" class="node"><title>16</title>
<ellipse style="fill:none;stroke:black;" cx="899" cy="-110" rx="23.1233" ry="23.1233"/>
<text text-anchor="middle" x="899" y="-105.9" style="font-family:Times New Roman;font-size:14.00;">16</text>
</g>
<!-- 15&#45;&gt;16 -->
<g id="edge34" class="edge"><title>15&#45;&gt;16</title>
<path style="fill:none;stroke:black;" d="M778,-110C802,-110 839,-110 866,-110"/>
<polygon style="fill:black;stroke:black;" points="866,-113.5 876,-110 866,-106.5 866,-113.5"/>
<text text-anchor="middle" x="827" y="-113.9" style="font-family:Times New Roman;font-size:14.00;">cb4&#45;cb12</text>
</g>
<!-- 17 -->
<g id="node19" class="node"><title>17</title>
<ellipse style="fill:none;stroke:black;" cx="1025" cy="-112" rx="23.1233" ry="23.1233"/>
<text text-anchor="middle" x="1025" y="-107.9" style="font-family:Times New Roman;font-size:14.00;">17</text>
</g>
<!-- 16&#45;&gt;17 -->
<g id="edge36" class="edge"><title>16&#45;&gt;17</title>
<path style="fill:none;stroke:black;" d="M922,-110C941,-111 970,-111 992,-112"/>
<polygon style="fill:black;stroke:black;" points="992,-115.5 1002,-112 992,-108.5 992,-115.5"/>
<text text-anchor="middle" x="962" y="-113.9" style="font-family:Times New Roman;font-size:14.00;">cb4+x</text>
</g>
<!-- 18 -->
<g id="node20" class="node"><title>18</title>
<ellipse style="fill:none;stroke:black;" cx="1145" cy="-115" rx="23.1233" ry="23.1233"/>
<text text-anchor="middle" x="1145" y="-110.9" style="font-family:Times New Roman;font-size:14.00;">18</text>
</g>
<!-- 17&#45;&gt;18 -->
<g id="edge38" class="edge"><title>17&#45;&gt;18</title>
<path style="fill:none;stroke:black;" d="M1048,-113C1066,-113 1092,-114 1112,-114"/>
<polygon style="fill:black;stroke:black;" points="1112,-117.5 1122,-114 1112,-110.5 1112,-117.5"/>
<text text-anchor="middle" x="1085" y="-116.9" style="font-family:Times New Roman;font-size:14.00;">t_cb4</text>
</g>
<!-- 18&#45;&gt;11 -->
<g id="edge40" class="edge"><title>18&#45;&gt;11</title>
<path style="fill:none;stroke:black;" d="M1167,-108C1191,-100 1230,-86 1262,-72 1266,-70 1269,-69 1273,-67"/>
<polygon style="fill:black;stroke:black;" points="1274.96,-69.916 1282,-62 1271.56,-63.7969 1274.96,-69.916"/>
<text text-anchor="middle" x="1224" y="-103.9" style="font-family:Times New Roman;font-size:14.00;">cb4wplv12</text>
</g>
</g>
</svg>
