<?xml version="1.0" encoding="UTF-8" standalone="no"?>
<!DOCTYPE svg PUBLIC "-//W3C//DTD SVG 1.0//EN"
 "http://www.w3.org/TR/2001/REC-SVG-20010904/DTD/svg10.dtd" [
 <!ATTLIST svg xmlns:xlink CDATA #FIXED "http://www.w3.org/1999/xlink">
]>
<!-- Generated by Graphviz version 2.20.2 (Tue Mar &#160;2 21:46:26 UTC 2010)
     For user: (mtmoor) Prof. Thomas Moor -->
<!-- Title: MtcPro(Generator) Pages: 1 -->
<svg width="296pt" height="167pt"
 viewBox="0.00 0.00 296.00 167.00" xmlns="http://www.w3.org/2000/svg" xmlns:xlink="http://www.w3.org/1999/xlink">
<g id="graph0" class="graph" transform="scale(1 1) rotate(0) translate(4 163)">
<title>MtcPro(Generator)</title>
<polygon style="fill:none;stroke:none;" points="-4,4 -4,-163 292,-163 292,4 -4,4"/>
<!-- dot_dummyinit_1 -->
<g id="node1" class="node"><title>dot_dummyinit_1</title>
</g>
<!-- 1 -->
<g id="node3" class="node"><title>1</title>
<ellipse style="fill:none;stroke:black;" cx="110" cy="-102" rx="18" ry="18"/>
<text text-anchor="middle" x="110" y="-97.9" style="font-family:Times New Roman;font-size:14.00;">1</text>
</g>
<!-- dot_dummyinit_1&#45;&gt;1 -->
<g id="edge2" class="edge"><title>dot_dummyinit_1&#45;&gt;1</title>
<path style="fill:none;stroke:black;" d="M54,-102C63,-102 73,-102 82,-102"/>
<polygon style="fill:black;stroke:black;" points="82,-105.5 92,-102 82,-98.5001 82,-105.5"/>
</g>
<!-- 2 -->
<g id="node6" class="node"><title>2</title>
<ellipse style="fill:none;stroke:blue;" cx="190" cy="-102" rx="18" ry="18"/>
<text text-anchor="middle" x="190" y="-97.9" style="font-family:Times New Roman;font-size:14.00;">2</text>
</g>
<!-- 1&#45;&gt;2 -->
<g id="edge4" class="edge"><title>1&#45;&gt;2</title>
<path style="fill:none;stroke:black;" d="M128,-102C138,-102 151,-102 162,-102"/>
<polygon style="fill:black;stroke:black;" points="162,-105.5 172,-102 162,-98.5001 162,-105.5"/>
<text text-anchor="middle" x="150" y="-105.9" style="font-family:Times New Roman;font-size:14.00;">a</text>
</g>
<!-- 4 -->
<g id="node4" class="node"><title>4</title>
<ellipse style="fill:none;stroke:black;" cx="190" cy="-46" rx="18" ry="18"/>
<text text-anchor="middle" x="190" y="-41.9" style="font-family:Times New Roman;font-size:14.00;">4</text>
</g>
<!-- 5 -->
<g id="node5" class="node"><title>5</title>
<ellipse style="fill:none;stroke:black;" cx="270" cy="-45" rx="18" ry="18"/>
<text text-anchor="middle" x="270" y="-40.9" style="font-family:Times New Roman;font-size:14.00;">5</text>
</g>
<!-- 4&#45;&gt;5 -->
<g id="edge12" class="edge"><title>4&#45;&gt;5</title>
<path style="fill:none;stroke:black;" d="M208,-46C218,-45 231,-45 242,-45"/>
<polygon style="fill:black;stroke:black;" points="242,-48.5001 252,-45 242,-41.5001 242,-48.5001"/>
<text text-anchor="middle" x="230" y="-50.9" style="font-family:Times New Roman;font-size:14.00;">b</text>
</g>
<!-- 5&#45;&gt;1 -->
<g id="edge14" class="edge"><title>5&#45;&gt;1</title>
<path style="fill:none;stroke:black;" d="M257,-32C238,-14 202,14 172,-2 145,-18 128,-51 118,-75"/>
<polygon style="fill:black;stroke:black;" points="114.842,-73.4063 115,-84 121.483,-75.62 114.842,-73.4063"/>
<text text-anchor="middle" x="190" y="-9.9" style="font-family:Times New Roman;font-size:14.00;">d</text>
</g>
<!-- 2&#45;&gt;5 -->
<g id="edge8" class="edge"><title>2&#45;&gt;5</title>
<path style="fill:none;stroke:black;" d="M205,-92C216,-83 233,-71 247,-62"/>
<polygon style="fill:black;stroke:black;" points="249.1,-64.8 255,-56 244.9,-59.2 249.1,-64.8"/>
<text text-anchor="middle" x="230" y="-82.9" style="font-family:Times New Roman;font-size:14.00;">b</text>
</g>
<!-- 3 -->
<g id="node7" class="node"><title>3</title>
<ellipse style="fill:none;stroke:red;" cx="270" cy="-141" rx="18" ry="18"/>
<text text-anchor="middle" x="270" y="-136.9" style="font-family:Times New Roman;font-size:14.00;">3</text>
</g>
<!-- 2&#45;&gt;3 -->
<g id="edge6" class="edge"><title>2&#45;&gt;3</title>
<path style="fill:none;stroke:black;" d="M206,-110C217,-115 232,-122 245,-128"/>
<polygon style="fill:black;stroke:black;" points="243.559,-131.203 254,-133 246.958,-125.084 243.559,-131.203"/>
<text text-anchor="middle" x="230" y="-124.9" style="font-family:Times New Roman;font-size:14.00;">b</text>
</g>
<!-- 3&#45;&gt;1 -->
<g id="edge10" class="edge"><title>3&#45;&gt;1</title>
<path style="fill:none;stroke:black;" d="M252,-141C246,-141 240,-142 234,-142 194,-142 184,-137 146,-123 142,-121 138,-119 134,-117"/>
<polygon style="fill:black;stroke:black;" points="135.441,-113.797 125,-112 132.042,-119.916 135.441,-113.797"/>
<text text-anchor="middle" x="190" y="-143.9" style="font-family:Times New Roman;font-size:14.00;">d</text>
</g>
</g>
</svg>
