<?xml version="1.0" encoding="UTF-8" standalone="no"?>
<!DOCTYPE svg PUBLIC "-//W3C//DTD SVG 1.0//EN"
 "http://www.w3.org/TR/2001/REC-SVG-20010904/DTD/svg10.dtd" [
 <!ATTLIST svg xmlns:xlink CDATA #FIXED "http://www.w3.org/1999/xlink">
]>
<!-- Generated by Graphviz version 2.20.2 (Tue Mar &#160;2 21:46:26 UTC 2010)
     For user: (mtmoor) Prof. Thomas Moor -->
<!-- Title: Generator Pages: 1 -->
<svg width="317pt" height="174pt"
 viewBox="0.00 0.00 317.00 174.00" xmlns="http://www.w3.org/2000/svg" xmlns:xlink="http://www.w3.org/1999/xlink">
<g id="graph0" class="graph" transform="scale(1 1) rotate(0) translate(4 170)">
<title>Generator</title>
<polygon style="fill:none;stroke:none;" points="-4,4 -4,-170 313,-170 313,4 -4,4"/>
<g id="cluster2" class="cluster"><title>cluster_0</title>
<polygon style="fill:none;stroke:magenta;" points="8,-8 8,-76 76,-76 76,-8 8,-8"/>
</g>
<g id="cluster3" class="cluster"><title>cluster_1</title>
<polygon style="fill:none;stroke:green;" points="16,-16 16,-68 68,-68 68,-16 16,-16"/>
</g>
<!-- dot_dummyinit_1 -->
<g id="node1" class="node"><title>dot_dummyinit_1</title>
</g>
<!-- 1 -->
<g id="node3" class="node"><title>1</title>
<ellipse style="fill:none;stroke:black;" cx="131" cy="-95" rx="18" ry="18"/>
<text text-anchor="middle" x="131" y="-90.9" style="font-family:Times New Roman;font-size:14.00;">1</text>
</g>
<!-- dot_dummyinit_1&#45;&gt;1 -->
<g id="edge2" class="edge"><title>dot_dummyinit_1&#45;&gt;1</title>
<path style="fill:none;stroke:black;" d="M69,-102C80,-100 92,-99 103,-98"/>
<polygon style="fill:black;stroke:black;" points="103.398,-101.478 113,-97 102.701,-94.5125 103.398,-101.478"/>
</g>
<!-- 2 -->
<g id="node4" class="node"><title>2</title>
<ellipse style="fill:none;stroke:black;" cx="211" cy="-95" rx="18" ry="18"/>
<text text-anchor="middle" x="211" y="-90.9" style="font-family:Times New Roman;font-size:14.00;">2</text>
</g>
<!-- 1&#45;&gt;2 -->
<g id="edge6" class="edge"><title>1&#45;&gt;2</title>
<path style="fill:none;stroke:black;" d="M149,-95C159,-95 172,-95 183,-95"/>
<polygon style="fill:black;stroke:black;" points="183,-98.5001 193,-95 183,-91.5001 183,-98.5001"/>
<text text-anchor="middle" x="171" y="-98.9" style="font-family:Times New Roman;font-size:14.00;">a</text>
</g>
<!-- 3 -->
<g id="node5" class="node"><title>3</title>
<ellipse style="fill:none;stroke:blue;" cx="291" cy="-113" rx="18" ry="18"/>
<text text-anchor="middle" x="291" y="-108.9" style="font-family:Times New Roman;font-size:14.00;">3</text>
</g>
<!-- 2&#45;&gt;3 -->
<g id="edge8" class="edge"><title>2&#45;&gt;3</title>
<path style="fill:none;stroke:black;" d="M229,-99C239,-101 252,-104 263,-107"/>
<polygon style="fill:black;stroke:black;" points="262.508,-110.471 273,-109 263.881,-103.607 262.508,-110.471"/>
<text text-anchor="middle" x="251" y="-107.9" style="font-family:Times New Roman;font-size:14.00;">b</text>
</g>
<!-- 4 -->
<g id="node6" class="node"><title>4</title>
<ellipse style="fill:none;stroke:red;" cx="291" cy="-50" rx="18" ry="18"/>
<text text-anchor="middle" x="291" y="-45.9" style="font-family:Times New Roman;font-size:14.00;">4</text>
</g>
<!-- 2&#45;&gt;4 -->
<g id="edge10" class="edge"><title>2&#45;&gt;4</title>
<path style="fill:none;stroke:black;" d="M227,-86C238,-80 253,-71 266,-64"/>
<polygon style="fill:black;stroke:black;" points="267.958,-66.916 275,-59 264.559,-60.7969 267.958,-66.916"/>
<text text-anchor="middle" x="251" y="-80.9" style="font-family:Times New Roman;font-size:14.00;">c</text>
</g>
<!-- 3&#45;&gt;3 -->
<g id="edge12" class="edge"><title>3&#45;&gt;3</title>
<path style="fill:none;stroke:black;" d="M284,-130C282,-140 285,-149 291,-149 295,-149 297,-145 298,-140"/>
<polygon style="fill:black;stroke:black;" points="301.5,-140 298,-130 294.5,-140 301.5,-140"/>
<text text-anchor="middle" x="291" y="-152.9" style="font-family:Times New Roman;font-size:14.00;">d</text>
</g>
<!-- 6 -->
<g id="node9" class="node"><title>6</title>
<ellipse style="fill:none;stroke:black;" cx="42" cy="-42" rx="18" ry="18"/>
<text text-anchor="middle" x="42" y="-37.9" style="font-family:Times New Roman;font-size:14.00;">6</text>
</g>
<!-- 4&#45;&gt;6 -->
<g id="edge14" class="edge"><title>4&#45;&gt;6</title>
<path style="fill:none;stroke:black;" d="M273,-49C230,-48 122,-45 70,-43"/>
<polygon style="fill:black;stroke:black;" points="70,-39.5001 60,-43 70,-46.5001 70,-39.5001"/>
<text text-anchor="middle" x="171" y="-52.9" style="font-family:Times New Roman;font-size:14.00;">c</text>
</g>
<!-- 6&#45;&gt;1 -->
<g id="edge16" class="edge"><title>6&#45;&gt;1</title>
<path style="fill:none;stroke:black;" d="M58,-51C71,-59 91,-71 106,-81"/>
<polygon style="fill:black;stroke:black;" points="104.559,-84.2031 115,-86 107.958,-78.084 104.559,-84.2031"/>
<text text-anchor="middle" x="91" y="-77.9" style="font-family:Times New Roman;font-size:14.00;">d</text>
</g>
</g>
</svg>
