<?xml version="1.0" encoding="UTF-8" standalone="no"?>
<!DOCTYPE svg PUBLIC "-//W3C//DTD SVG 1.0//EN"
 "http://www.w3.org/TR/2001/REC-SVG-20010904/DTD/svg10.dtd" [
 <!ATTLIST svg xmlns:xlink CDATA #FIXED "http://www.w3.org/1999/xlink">
]>
<!-- Generated by Graphviz version 2.20.2 (Tue Mar &#160;2 21:46:26 UTC 2010)
     For user: (mtmoor) Prof. Thomas Moor -->
<!-- Title: Det(MtcPro(mtcSupConNB((Det(MtcPro(mtcSupConNB((Generator),(Generator||Generator)))) [mtc minstate]: mtcProject||Det(MtcPro(Generator)) [mtc minstate]: mtcProject),(Generator)))) [mtc minstate]: mtcProject Pages: 1 -->
<svg width="424pt" height="204pt"
 viewBox="0.00 0.00 424.00 204.00" xmlns="http://www.w3.org/2000/svg" xmlns:xlink="http://www.w3.org/1999/xlink">
<g id="graph0" class="graph" transform="scale(1 1) rotate(0) translate(4 200)">
<title>Det(MtcPro(mtcSupConNB((Det(MtcPro(mtcSupConNB((Generator),(Generator||Generator)))) [mtc minstate]: mtcProject||Det(MtcPro(Generator)) [mtc minstate]: mtcProject),(Generator)))) [mtc minstate]: mtcProject</title>
<polygon style="fill:none;stroke:none;" points="-4,4 -4,-200 420,-200 420,4 -4,4"/>
<!-- dot_dummyinit_1 -->
<g id="node1" class="node"><title>dot_dummyinit_1</title>
</g>
<!-- 4 -->
<g id="node3" class="node"><title>4</title>
<ellipse style="fill:none;stroke:black;" cx="110" cy="-98" rx="18" ry="18"/>
<text text-anchor="middle" x="110" y="-93.9" style="font-family:Times New Roman;font-size:14.00;">4</text>
</g>
<!-- dot_dummyinit_1&#45;&gt;4 -->
<g id="edge2" class="edge"><title>dot_dummyinit_1&#45;&gt;4</title>
<path style="fill:none;stroke:black;" d="M54,-98C63,-98 73,-98 82,-98"/>
<polygon style="fill:black;stroke:black;" points="82,-101.5 92,-98 82,-94.5001 82,-101.5"/>
</g>
<!-- 2 -->
<g id="node6" class="node"><title>2</title>
<ellipse style="fill:none;stroke:blue;" cx="257" cy="-178" rx="18" ry="18"/>
<text text-anchor="middle" x="257" y="-173.9" style="font-family:Times New Roman;font-size:14.00;">2</text>
</g>
<!-- 4&#45;&gt;2 -->
<g id="edge12" class="edge"><title>4&#45;&gt;2</title>
<path style="fill:none;stroke:black;" d="M120,-113C127,-121 136,-132 146,-139 172,-156 206,-167 229,-173"/>
<polygon style="fill:black;stroke:black;" points="228.508,-176.471 239,-175 229.881,-169.607 228.508,-176.471"/>
<text text-anchor="middle" x="177" y="-168.9" style="font-family:Times New Roman;font-size:14.00;">cb12&#45;cb4</text>
</g>
<!-- 5 -->
<g id="node7" class="node"><title>5</title>
<ellipse style="fill:none;stroke:blue;" cx="257" cy="-18" rx="18" ry="18"/>
<text text-anchor="middle" x="257" y="-13.9" style="font-family:Times New Roman;font-size:14.00;">5</text>
</g>
<!-- 4&#45;&gt;5 -->
<g id="edge10" class="edge"><title>4&#45;&gt;5</title>
<path style="fill:none;stroke:black;" d="M117,-81C122,-68 132,-51 146,-41 171,-25 205,-19 229,-18"/>
<polygon style="fill:black;stroke:black;" points="229,-21.5001 239,-18 229,-14.5001 229,-21.5001"/>
<text text-anchor="middle" x="177" y="-44.9" style="font-family:Times New Roman;font-size:14.00;">cb11&#45;cb4</text>
</g>
<!-- 1 -->
<g id="node4" class="node"><title>1</title>
<ellipse style="fill:none;stroke:black;" cx="398" cy="-136" rx="18" ry="18"/>
<text text-anchor="middle" x="398" y="-131.9" style="font-family:Times New Roman;font-size:14.00;">1</text>
</g>
<!-- 1&#45;&gt;4 -->
<g id="edge4" class="edge"><title>1&#45;&gt;4</title>
<path style="fill:none;stroke:black;" d="M380,-134C331,-127 197,-109 138,-101"/>
<polygon style="fill:black;stroke:black;" points="138.299,-97.5125 128,-100 137.602,-104.478 138.299,-97.5125"/>
<text text-anchor="middle" x="257" y="-123.9" style="font-family:Times New Roman;font-size:14.00;">cb4&#45;cb11</text>
</g>
<!-- 3 -->
<g id="node5" class="node"><title>3</title>
<ellipse style="fill:none;stroke:black;" cx="398" cy="-61" rx="18" ry="18"/>
<text text-anchor="middle" x="398" y="-56.9" style="font-family:Times New Roman;font-size:14.00;">3</text>
</g>
<!-- 3&#45;&gt;4 -->
<g id="edge8" class="edge"><title>3&#45;&gt;4</title>
<path style="fill:none;stroke:black;" d="M380,-63C331,-70 197,-87 138,-95"/>
<polygon style="fill:black;stroke:black;" points="137.602,-91.5222 128,-96 138.299,-98.4875 137.602,-91.5222"/>
<text text-anchor="middle" x="257" y="-85.9" style="font-family:Times New Roman;font-size:14.00;">cb4&#45;cb12</text>
</g>
<!-- 2&#45;&gt;1 -->
<g id="edge6" class="edge"><title>2&#45;&gt;1</title>
<path style="fill:none;stroke:black;" d="M274,-173C298,-166 342,-152 371,-144"/>
<polygon style="fill:black;stroke:black;" points="372.427,-147.226 381,-141 370.416,-140.521 372.427,-147.226"/>
<text text-anchor="middle" x="334" y="-165.9" style="font-family:Times New Roman;font-size:14.00;">mh1end</text>
</g>
<!-- 5&#45;&gt;3 -->
<g id="edge14" class="edge"><title>5&#45;&gt;3</title>
<path style="fill:none;stroke:black;" d="M275,-21C296,-24 333,-30 362,-41 366,-42 370,-44 374,-46"/>
<polygon style="fill:black;stroke:black;" points="372.559,-49.2031 383,-51 375.958,-43.084 372.559,-49.2031"/>
<text text-anchor="middle" x="334" y="-44.9" style="font-family:Times New Roman;font-size:14.00;">mh1end</text>
</g>
</g>
</svg>
