<?xml version="1.0" encoding="UTF-8" standalone="no"?>
<!DOCTYPE svg PUBLIC "-//W3C//DTD SVG 1.0//EN"
 "http://www.w3.org/TR/2001/REC-SVG-20010904/DTD/svg10.dtd" [
 <!ATTLIST svg xmlns:xlink CDATA #FIXED "http://www.w3.org/1999/xlink">
]>
<!-- Generated by Graphviz version 2.20.2 (Tue Mar &#160;2 21:46:26 UTC 2010)
     For user: (mtmoor) Prof. Thomas Moor -->
<!-- Title: mtcSupCon((Det(MtcPro(mtcSupCon((Generator),(Generator||Generator)))) [mtc minstate]: mtcProject||Det(MtcPro(Generator)) [mtc minstate]: mtcProject),(Generator)) Pages: 1 -->
<svg width="720pt" height="123pt"
 viewBox="0.00 0.00 720.00 123.02" xmlns="http://www.w3.org/2000/svg" xmlns:xlink="http://www.w3.org/1999/xlink">
<g id="graph0" class="graph" transform="scale(0.904523 0.904523) rotate(0) translate(4 132)">
<title>mtcSupCon((Det(MtcPro(mtcSupCon((Generator),(Generator||Generator)))) [mtc minstate]: mtcProject||Det(MtcPro(Generator)) [mtc minstate]: mtcProject),(Generator))</title>
<polygon style="fill:none;stroke:none;" points="-4,4 -4,-132 792,-132 792,4 -4,4"/>
<!-- dot_dummyinit_1 -->
<g id="node1" class="node"><title>dot_dummyinit_1</title>
</g>
<!-- 1 -->
<g id="node3" class="node"><title>1</title>
<ellipse style="fill:none;stroke:blue;" cx="110" cy="-46" rx="18" ry="18"/>
<text text-anchor="middle" x="110" y="-41.9" style="font-family:Times New Roman;font-size:14.00;">1</text>
</g>
<!-- dot_dummyinit_1&#45;&gt;1 -->
<g id="edge2" class="edge"><title>dot_dummyinit_1&#45;&gt;1</title>
<path style="fill:none;stroke:black;" d="M54,-46C63,-46 73,-46 82,-46"/>
<polygon style="fill:black;stroke:black;" points="82,-49.5001 92,-46 82,-42.5001 82,-49.5001"/>
</g>
<!-- 2 -->
<g id="node4" class="node"><title>2</title>
<ellipse style="fill:none;stroke:black;" cx="244" cy="-100" rx="18" ry="18"/>
<text text-anchor="middle" x="244" y="-95.9" style="font-family:Times New Roman;font-size:14.00;">2</text>
</g>
<!-- 1&#45;&gt;2 -->
<g id="edge4" class="edge"><title>1&#45;&gt;2</title>
<path style="fill:none;stroke:black;" d="M125,-56C132,-59 139,-64 146,-67 169,-77 196,-87 216,-92"/>
<polygon style="fill:black;stroke:black;" points="215.416,-95.4788 226,-95 217.427,-88.7741 215.416,-95.4788"/>
<text text-anchor="middle" x="177" y="-90.9" style="font-family:Times New Roman;font-size:14.00;">cb11&#45;cb4</text>
</g>
<!-- 3 -->
<g id="node5" class="node"><title>3</title>
<ellipse style="fill:none;stroke:black;" cx="244" cy="-46" rx="18" ry="18"/>
<text text-anchor="middle" x="244" y="-41.9" style="font-family:Times New Roman;font-size:14.00;">3</text>
</g>
<!-- 1&#45;&gt;3 -->
<g id="edge6" class="edge"><title>1&#45;&gt;3</title>
<path style="fill:none;stroke:black;" d="M128,-46C151,-46 189,-46 216,-46"/>
<polygon style="fill:black;stroke:black;" points="216,-49.5001 226,-46 216,-42.5001 216,-49.5001"/>
<text text-anchor="middle" x="177" y="-49.9" style="font-family:Times New Roman;font-size:14.00;">cb12&#45;cb4</text>
</g>
<!-- 8 -->
<g id="node9" class="node"><title>8</title>
<ellipse style="fill:none;stroke:black;" cx="362" cy="-100" rx="18" ry="18"/>
<text text-anchor="middle" x="362" y="-95.9" style="font-family:Times New Roman;font-size:14.00;">8</text>
</g>
<!-- 2&#45;&gt;8 -->
<g id="edge8" class="edge"><title>2&#45;&gt;8</title>
<path style="fill:none;stroke:black;" d="M262,-100C281,-100 312,-100 334,-100"/>
<polygon style="fill:black;stroke:black;" points="334,-103.5 344,-100 334,-96.5001 334,-103.5"/>
<text text-anchor="middle" x="303" y="-103.9" style="font-family:Times New Roman;font-size:14.00;">cb4stp</text>
</g>
<!-- 4 -->
<g id="node6" class="node"><title>4</title>
<ellipse style="fill:none;stroke:black;" cx="362" cy="-46" rx="18" ry="18"/>
<text text-anchor="middle" x="362" y="-41.9" style="font-family:Times New Roman;font-size:14.00;">4</text>
</g>
<!-- 3&#45;&gt;4 -->
<g id="edge10" class="edge"><title>3&#45;&gt;4</title>
<path style="fill:none;stroke:black;" d="M262,-46C281,-46 312,-46 334,-46"/>
<polygon style="fill:black;stroke:black;" points="334,-49.5001 344,-46 334,-42.5001 334,-49.5001"/>
<text text-anchor="middle" x="303" y="-49.9" style="font-family:Times New Roman;font-size:14.00;">cb4stp</text>
</g>
<!-- 5 -->
<g id="node11" class="node"><title>5</title>
<ellipse style="fill:none;stroke:red;" cx="498" cy="-46" rx="18" ry="18"/>
<text text-anchor="middle" x="498" y="-41.9" style="font-family:Times New Roman;font-size:14.00;">5</text>
</g>
<!-- 4&#45;&gt;5 -->
<g id="edge12" class="edge"><title>4&#45;&gt;5</title>
<path style="fill:none;stroke:black;" d="M380,-46C403,-46 443,-46 470,-46"/>
<polygon style="fill:black;stroke:black;" points="470,-49.5001 480,-46 470,-42.5001 470,-49.5001"/>
<text text-anchor="middle" x="430" y="-49.9" style="font-family:Times New Roman;font-size:14.00;">mh1start</text>
</g>
<!-- 6 -->
<g id="node7" class="node"><title>6</title>
<ellipse style="fill:none;stroke:black;" cx="631" cy="-46" rx="18" ry="18"/>
<text text-anchor="middle" x="631" y="-41.9" style="font-family:Times New Roman;font-size:14.00;">6</text>
</g>
<!-- 7 -->
<g id="node8" class="node"><title>7</title>
<ellipse style="fill:none;stroke:black;" cx="770" cy="-46" rx="18" ry="18"/>
<text text-anchor="middle" x="770" y="-41.9" style="font-family:Times New Roman;font-size:14.00;">7</text>
</g>
<!-- 6&#45;&gt;7 -->
<g id="edge16" class="edge"><title>6&#45;&gt;7</title>
<path style="fill:none;stroke:black;" d="M649,-46C673,-46 714,-46 742,-46"/>
<polygon style="fill:black;stroke:black;" points="742,-49.5001 752,-46 742,-42.5001 742,-49.5001"/>
<text text-anchor="middle" x="703" y="-49.9" style="font-family:Times New Roman;font-size:14.00;">cb4&#45;cb11</text>
</g>
<!-- 7&#45;&gt;1 -->
<g id="edge18" class="edge"><title>7&#45;&gt;1</title>
<path style="fill:none;stroke:black;" d="M754,-37C729,-24 678,-0 631,-0 244,-0 244,-0 244,-0 205,-0 161,-19 135,-32"/>
<polygon style="fill:black;stroke:black;" points="133.042,-29.084 126,-37 136.441,-35.2031 133.042,-29.084"/>
<text text-anchor="middle" x="430" y="-3.9" style="font-family:Times New Roman;font-size:14.00;">cb4stp</text>
</g>
<!-- 9 -->
<g id="node12" class="node"><title>9</title>
<ellipse style="fill:none;stroke:red;" cx="498" cy="-102" rx="18" ry="18"/>
<text text-anchor="middle" x="498" y="-97.9" style="font-family:Times New Roman;font-size:14.00;">9</text>
</g>
<!-- 8&#45;&gt;9 -->
<g id="edge20" class="edge"><title>8&#45;&gt;9</title>
<path style="fill:none;stroke:black;" d="M380,-100C403,-101 443,-101 470,-102"/>
<polygon style="fill:black;stroke:black;" points="470,-105.5 480,-102 470,-98.5001 470,-105.5"/>
<text text-anchor="middle" x="430" y="-103.9" style="font-family:Times New Roman;font-size:14.00;">mh1start</text>
</g>
<!-- 10 -->
<g id="node10" class="node"><title>10</title>
<ellipse style="fill:none;stroke:black;" cx="631" cy="-105" rx="23.1233" ry="23.1233"/>
<text text-anchor="middle" x="631" y="-100.9" style="font-family:Times New Roman;font-size:14.00;">10</text>
</g>
<!-- 10&#45;&gt;7 -->
<g id="edge24" class="edge"><title>10&#45;&gt;7</title>
<path style="fill:none;stroke:black;" d="M653,-98C674,-91 707,-79 734,-67 738,-65 742,-63 746,-61"/>
<polygon style="fill:black;stroke:black;" points="747.958,-63.916 755,-56 744.559,-57.7969 747.958,-63.916"/>
<text text-anchor="middle" x="703" y="-93.9" style="font-family:Times New Roman;font-size:14.00;">cb4&#45;cb12</text>
</g>
<!-- 5&#45;&gt;6 -->
<g id="edge14" class="edge"><title>5&#45;&gt;6</title>
<path style="fill:none;stroke:black;" d="M516,-46C539,-46 576,-46 603,-46"/>
<polygon style="fill:black;stroke:black;" points="603,-49.5001 613,-46 603,-42.5001 603,-49.5001"/>
<text text-anchor="middle" x="562" y="-49.9" style="font-family:Times New Roman;font-size:14.00;">mh1end</text>
</g>
<!-- 9&#45;&gt;10 -->
<g id="edge22" class="edge"><title>9&#45;&gt;10</title>
<path style="fill:none;stroke:black;" d="M516,-102C537,-103 572,-104 598,-104"/>
<polygon style="fill:black;stroke:black;" points="598,-107.5 608,-104 598,-100.5 598,-107.5"/>
<text text-anchor="middle" x="562" y="-106.9" style="font-family:Times New Roman;font-size:14.00;">mh1end</text>
</g>
</g>
</svg>
