<?xml version="1.0" encoding="UTF-8" standalone="no"?>
<!DOCTYPE svg PUBLIC "-//W3C//DTD SVG 1.0//EN"
 "http://www.w3.org/TR/2001/REC-SVG-20010904/DTD/svg10.dtd" [
 <!ATTLIST svg xmlns:xlink CDATA #FIXED "http://www.w3.org/1999/xlink">
]>
<!-- Generated by Graphviz version 2.20.2 (Tue Mar &#160;2 21:46:26 UTC 2010)
     For user: (mtmoor) Prof. Thomas Moor -->
<!-- Title: Generator Pages: 1 -->
<svg width="317pt" height="131pt"
 viewBox="0.00 0.00 317.00 131.00" xmlns="http://www.w3.org/2000/svg" xmlns:xlink="http://www.w3.org/1999/xlink">
<g id="graph0" class="graph" transform="scale(1 1) rotate(0) translate(4 127)">
<title>Generator</title>
<polygon style="fill:none;stroke:none;" points="-4,4 -4,-127 313,-127 313,4 -4,4"/>
<g id="cluster2" class="cluster"><title>cluster_0</title>
<polygon style="fill:none;stroke:red;" points="8,-8 8,-76 76,-76 76,-8 8,-8"/>
</g>
<g id="cluster3" class="cluster"><title>cluster_1</title>
<polygon style="fill:none;stroke:magenta;" points="16,-16 16,-68 68,-68 68,-16 16,-16"/>
</g>
<!-- dot_dummyinit_1 -->
<g id="node1" class="node"><title>dot_dummyinit_1</title>
</g>
<!-- 1 -->
<g id="node3" class="node"><title>1</title>
<ellipse style="fill:none;stroke:black;" cx="131" cy="-86" rx="18" ry="18"/>
<text text-anchor="middle" x="131" y="-81.9" style="font-family:Times New Roman;font-size:14.00;">1</text>
</g>
<!-- dot_dummyinit_1&#45;&gt;1 -->
<g id="edge2" class="edge"><title>dot_dummyinit_1&#45;&gt;1</title>
<path style="fill:none;stroke:black;" d="M69,-99C79,-97 92,-94 103,-92"/>
<polygon style="fill:black;stroke:black;" points="103.881,-95.3933 113,-90 102.508,-88.5292 103.881,-95.3933"/>
</g>
<!-- 2 -->
<g id="node4" class="node"><title>2</title>
<ellipse style="fill:none;stroke:black;" cx="211" cy="-86" rx="18" ry="18"/>
<text text-anchor="middle" x="211" y="-81.9" style="font-family:Times New Roman;font-size:14.00;">2</text>
</g>
<!-- 1&#45;&gt;2 -->
<g id="edge6" class="edge"><title>1&#45;&gt;2</title>
<path style="fill:none;stroke:black;" d="M149,-86C159,-86 172,-86 183,-86"/>
<polygon style="fill:black;stroke:black;" points="183,-89.5001 193,-86 183,-82.5001 183,-89.5001"/>
<text text-anchor="middle" x="171" y="-90.9" style="font-family:Times New Roman;font-size:14.00;">a</text>
</g>
<!-- 4 -->
<g id="node5" class="node"><title>4</title>
<ellipse style="fill:none;stroke:blue;" cx="291" cy="-59" rx="18" ry="18"/>
<text text-anchor="middle" x="291" y="-54.9" style="font-family:Times New Roman;font-size:14.00;">4</text>
</g>
<!-- 2&#45;&gt;4 -->
<g id="edge8" class="edge"><title>2&#45;&gt;4</title>
<path style="fill:none;stroke:black;" d="M228,-80C239,-76 252,-72 264,-68"/>
<polygon style="fill:black;stroke:black;" points="265.427,-71.2259 274,-65 263.416,-64.5212 265.427,-71.2259"/>
<text text-anchor="middle" x="251" y="-80.9" style="font-family:Times New Roman;font-size:14.00;">c</text>
</g>
<!-- 6 -->
<g id="node8" class="node"><title>6</title>
<ellipse style="fill:none;stroke:black;" cx="42" cy="-42" rx="18" ry="18"/>
<text text-anchor="middle" x="42" y="-37.9" style="font-family:Times New Roman;font-size:14.00;">6</text>
</g>
<!-- 4&#45;&gt;6 -->
<g id="edge10" class="edge"><title>4&#45;&gt;6</title>
<path style="fill:none;stroke:black;" d="M273,-58C230,-55 123,-47 70,-44"/>
<polygon style="fill:black;stroke:black;" points="70.2987,-40.5125 60,-43 69.6021,-47.4778 70.2987,-40.5125"/>
<text text-anchor="middle" x="171" y="-56.9" style="font-family:Times New Roman;font-size:14.00;">c</text>
</g>
<!-- 6&#45;&gt;1 -->
<g id="edge12" class="edge"><title>6&#45;&gt;1</title>
<path style="fill:none;stroke:black;" d="M58,-50C71,-57 90,-66 106,-73"/>
<polygon style="fill:black;stroke:black;" points="104.559,-76.2031 115,-78 107.958,-70.084 104.559,-76.2031"/>
<text text-anchor="middle" x="91" y="-71.9" style="font-family:Times New Roman;font-size:14.00;">d</text>
</g>
</g>
</svg>
