<?xml version="1.0" encoding="UTF-8" standalone="no"?>
<!DOCTYPE svg PUBLIC "-//W3C//DTD SVG 1.0//EN"
 "http://www.w3.org/TR/2001/REC-SVG-20010904/DTD/svg10.dtd" [
 <!ATTLIST svg xmlns:xlink CDATA #FIXED "http://www.w3.org/1999/xlink">
]>
<!-- Generated by Graphviz version 2.20.2 (Tue Mar &#160;2 21:46:26 UTC 2010)
     For user: (mtmoor) Prof. Thomas Moor -->
<!-- Title: Generator Pages: 1 -->
<svg width="216pt" height="47pt"
 viewBox="0.00 0.00 216.00 47.00" xmlns="http://www.w3.org/2000/svg" xmlns:xlink="http://www.w3.org/1999/xlink">
<g id="graph0" class="graph" transform="scale(1 1) rotate(0) translate(4 43)">
<title>Generator</title>
<polygon style="fill:none;stroke:none;" points="-4,4 -4,-43 212,-43 212,4 -4,4"/>
<!-- dot_dummyinit_1 -->
<g id="node1" class="node"><title>dot_dummyinit_1</title>
</g>
<!-- 1 -->
<g id="node3" class="node"><title>1</title>
<ellipse style="fill:none;stroke:black;" cx="110" cy="-21" rx="18" ry="18"/>
<text text-anchor="middle" x="110" y="-16.9" style="font-family:Times New Roman;font-size:14.00;">1</text>
</g>
<!-- dot_dummyinit_1&#45;&gt;1 -->
<g id="edge2" class="edge"><title>dot_dummyinit_1&#45;&gt;1</title>
<path style="fill:none;stroke:black;" d="M54,-21C63,-21 73,-21 82,-21"/>
<polygon style="fill:black;stroke:black;" points="82,-24.5001 92,-21 82,-17.5001 82,-24.5001"/>
</g>
<!-- 2 -->
<g id="node4" class="node"><title>2</title>
<ellipse style="fill:none;stroke:blue;" cx="190" cy="-21" rx="18" ry="18"/>
<text text-anchor="middle" x="190" y="-16.9" style="font-family:Times New Roman;font-size:14.00;">2</text>
</g>
<!-- 1&#45;&gt;2 -->
<g id="edge4" class="edge"><title>1&#45;&gt;2</title>
<path style="fill:none;stroke:black;" d="M128,-21C138,-21 151,-21 162,-21"/>
<polygon style="fill:black;stroke:black;" points="162,-24.5001 172,-21 162,-17.5001 162,-24.5001"/>
<text text-anchor="middle" x="150" y="-24.9" style="font-family:Times New Roman;font-size:14.00;">a</text>
</g>
<!-- 2&#45;&gt;1 -->
<g id="edge6" class="edge"><title>2&#45;&gt;1</title>
<path style="fill:none;stroke:black;" d="M176,-9C168,-3 157,3 146,-0 142,-1 138,-3 134,-5"/>
<polygon style="fill:black;stroke:black;" points="132.042,-2.08397 125,-10 135.441,-8.20308 132.042,-2.08397"/>
<text text-anchor="middle" x="150" y="-4.9" style="font-family:Times New Roman;font-size:14.00;">b</text>
</g>
</g>
</svg>
