<?xml version="1.0" encoding="UTF-8" standalone="no"?>
<!DOCTYPE svg PUBLIC "-//W3C//DTD SVG 1.0//EN"
 "http://www.w3.org/TR/2001/REC-SVG-20010904/DTD/svg10.dtd" [
 <!ATTLIST svg xmlns:xlink CDATA #FIXED "http://www.w3.org/1999/xlink">
]>
<!-- Generated by Graphviz version 2.20.2 (Tue Mar &#160;2 21:46:26 UTC 2010)
     For user: (mtmoor) Prof. Thomas Moor -->
<!-- Title: Det(Generator) Pages: 1 -->
<svg width="568pt" height="162pt"
 viewBox="0.00 0.00 568.00 162.00" xmlns="http://www.w3.org/2000/svg" xmlns:xlink="http://www.w3.org/1999/xlink">
<g id="graph0" class="graph" transform="scale(1 1) rotate(0) translate(4 158)">
<title>Det(Generator)</title>
<polygon style="fill:none;stroke:none;" points="-4,4 -4,-158 564,-158 564,4 -4,4"/>
<g id="cluster2" class="cluster"><title>cluster_0</title>
<polygon style="fill:none;stroke:red;" points="326,-36 326,-146 436,-146 436,-36 326,-36"/>
</g>
<g id="cluster3" class="cluster"><title>cluster_1</title>
<polygon style="fill:none;stroke:magenta;" points="334,-44 334,-138 428,-138 428,-44 334,-44"/>
</g>
<g id="cluster4" class="cluster"><title>cluster_2</title>
<polygon style="fill:none;stroke:green;" points="460,-28 460,-120 552,-120 552,-28 460,-28"/>
</g>
<g id="cluster5" class="cluster"><title>cluster_3</title>
<polygon style="fill:none;stroke:darkorange;" points="468,-36 468,-112 544,-112 544,-36 468,-36"/>
</g>
<!-- dot_dummyinit_1 -->
<g id="node1" class="node"><title>dot_dummyinit_1</title>
</g>
<!-- {1,5} -->
<g id="node3" class="node"><title>{1,5}</title>
<ellipse style="fill:none;stroke:blue;" cx="131" cy="-39" rx="39.1069" ry="39.1069"/>
<text text-anchor="middle" x="131" y="-34.9" style="font-family:Times New Roman;font-size:14.00;">{1,5}</text>
</g>
<!-- dot_dummyinit_1&#45;&gt;{1,5} -->
<g id="edge2" class="edge"><title>dot_dummyinit_1&#45;&gt;{1,5}</title>
<path style="fill:none;stroke:black;" d="M54,-39C63,-39 72,-39 82,-39"/>
<polygon style="fill:black;stroke:black;" points="82,-42.5001 92,-39 82,-35.5001 82,-42.5001"/>
</g>
<!-- {2,4} -->
<g id="node4" class="node"><title>{2,4}</title>
<ellipse style="fill:none;stroke:red;" cx="253" cy="-39" rx="39.1069" ry="39.1069"/>
<text text-anchor="middle" x="253" y="-34.9" style="font-family:Times New Roman;font-size:14.00;">{2,4}</text>
</g>
<!-- {1,5}&#45;&gt;{2,4} -->
<g id="edge8" class="edge"><title>{1,5}&#45;&gt;{2,4}</title>
<path style="fill:none;stroke:black;" d="M170,-39C181,-39 193,-39 204,-39"/>
<polygon style="fill:black;stroke:black;" points="204,-42.5001 214,-39 204,-35.5001 204,-42.5001"/>
<text text-anchor="middle" x="192" y="-42.9" style="font-family:Times New Roman;font-size:14.00;">a</text>
</g>
<!-- {3,4} -->
<g id="node7" class="node"><title>{3,4}</title>
<ellipse style="fill:none;stroke:black;" cx="381" cy="-91" rx="39.1069" ry="39.1069"/>
<text text-anchor="middle" x="381" y="-86.9" style="font-family:Times New Roman;font-size:14.00;">{3,4}</text>
</g>
<!-- {2,4}&#45;&gt;{3,4} -->
<g id="edge10" class="edge"><title>{2,4}&#45;&gt;{3,4}</title>
<path style="fill:none;stroke:black;" d="M289,-54C303,-60 320,-66 334,-72"/>
<polygon style="fill:black;stroke:black;" points="333.415,-75.5357 344,-76 336.015,-69.0364 333.415,-75.5357"/>
<text text-anchor="middle" x="314" y="-65.9" style="font-family:Times New Roman;font-size:14.00;">b</text>
</g>
<!-- {6} -->
<g id="node10" class="node"><title>{6}</title>
<ellipse style="fill:none;stroke:black;" cx="506" cy="-74" rx="29.8799" ry="29.8799"/>
<text text-anchor="middle" x="506" y="-69.9" style="font-family:Times New Roman;font-size:14.00;">{6}</text>
</g>
<!-- {2,4}&#45;&gt;{6} -->
<g id="edge12" class="edge"><title>{2,4}&#45;&gt;{6}</title>
<path style="fill:none;stroke:black;" d="M291,-27C328,-18 388,-7 436,-23 451,-28 465,-37 477,-47"/>
<polygon style="fill:black;stroke:black;" points="474.9,-49.8 485,-53 479.1,-44.2 474.9,-49.8"/>
<text text-anchor="middle" x="381" y="-27.9" style="font-family:Times New Roman;font-size:14.00;">c</text>
</g>
<!-- {3,4}&#45;&gt;{6} -->
<g id="edge14" class="edge"><title>{3,4}&#45;&gt;{6}</title>
<path style="fill:none;stroke:black;" d="M420,-86C435,-84 451,-82 466,-80"/>
<polygon style="fill:black;stroke:black;" points="466.881,-83.3933 476,-78 465.508,-76.5292 466.881,-83.3933"/>
<text text-anchor="middle" x="448" y="-84.9" style="font-family:Times New Roman;font-size:14.00;">c</text>
</g>
</g>
</svg>
