<?xml version="1.0" encoding="UTF-8" standalone="no"?>
<!DOCTYPE svg PUBLIC "-//W3C//DTD SVG 1.0//EN"
 "http://www.w3.org/TR/2001/REC-SVG-20010904/DTD/svg10.dtd" [
 <!ATTLIST svg xmlns:xlink CDATA #FIXED "http://www.w3.org/1999/xlink">
]>
<!-- Generated by Graphviz version 2.20.2 (Tue Mar &#160;2 21:46:26 UTC 2010)
     For user: (mtmoor) Prof. Thomas Moor -->
<!-- Title: Generator Pages: 1 -->
<svg width="404pt" height="177pt"
 viewBox="0.00 0.00 404.00 177.00" xmlns="http://www.w3.org/2000/svg" xmlns:xlink="http://www.w3.org/1999/xlink">
<g id="graph0" class="graph" transform="scale(1 1) rotate(0) translate(4 173)">
<title>Generator</title>
<polygon style="fill:none;stroke:none;" points="-4,4 -4,-173 400,-173 400,4 -4,4"/>
<!-- dot_dummyinit_1 -->
<g id="node1" class="node"><title>dot_dummyinit_1</title>
</g>
<!-- 1 -->
<g id="node3" class="node"><title>1</title>
<ellipse style="fill:none;stroke:blue;" cx="110" cy="-44" rx="18" ry="18"/>
<text text-anchor="middle" x="110" y="-39.9" style="font-family:Times New Roman;font-size:14.00;">1</text>
</g>
<!-- dot_dummyinit_1&#45;&gt;1 -->
<g id="edge2" class="edge"><title>dot_dummyinit_1&#45;&gt;1</title>
<path style="fill:none;stroke:black;" d="M54,-44C63,-44 73,-44 82,-44"/>
<polygon style="fill:black;stroke:black;" points="82,-47.5001 92,-44 82,-40.5001 82,-47.5001"/>
</g>
<!-- 2 -->
<g id="node4" class="node"><title>2</title>
<ellipse style="fill:none;stroke:black;" cx="190" cy="-97" rx="18" ry="18"/>
<text text-anchor="middle" x="190" y="-92.9" style="font-family:Times New Roman;font-size:14.00;">2</text>
</g>
<!-- 1&#45;&gt;2 -->
<g id="edge4" class="edge"><title>1&#45;&gt;2</title>
<path style="fill:none;stroke:black;" d="M125,-54C136,-61 153,-72 167,-81"/>
<polygon style="fill:black;stroke:black;" points="164.9,-83.8 175,-87 169.1,-78.2 164.9,-83.8"/>
<text text-anchor="middle" x="150" y="-74.9" style="font-family:Times New Roman;font-size:14.00;">b</text>
</g>
<!-- 5 -->
<g id="node7" class="node"><title>5</title>
<ellipse style="fill:none;stroke:black;" cx="244" cy="-44" rx="18" ry="18"/>
<text text-anchor="middle" x="244" y="-39.9" style="font-family:Times New Roman;font-size:14.00;">5</text>
</g>
<!-- 1&#45;&gt;5 -->
<g id="edge6" class="edge"><title>1&#45;&gt;5</title>
<path style="fill:none;stroke:black;" d="M128,-44C151,-44 189,-44 216,-44"/>
<polygon style="fill:black;stroke:black;" points="216,-47.5001 226,-44 216,-40.5001 216,-47.5001"/>
<text text-anchor="middle" x="150" y="-47.9" style="font-family:Times New Roman;font-size:14.00;">c</text>
</g>
<!-- 3 -->
<g id="node5" class="node"><title>3</title>
<ellipse style="fill:none;stroke:black;" cx="298" cy="-151" rx="18" ry="18"/>
<text text-anchor="middle" x="298" y="-146.9" style="font-family:Times New Roman;font-size:14.00;">3</text>
</g>
<!-- 2&#45;&gt;3 -->
<g id="edge8" class="edge"><title>2&#45;&gt;3</title>
<path style="fill:none;stroke:black;" d="M206,-106C212,-110 219,-114 226,-118 241,-126 259,-133 272,-140"/>
<polygon style="fill:black;stroke:black;" points="270.44,-143.137 281,-144 273.283,-136.74 270.44,-143.137"/>
<text text-anchor="middle" x="244" y="-136.9" style="font-family:Times New Roman;font-size:14.00;">a</text>
</g>
<!-- 4 -->
<g id="node6" class="node"><title>4</title>
<ellipse style="fill:none;stroke:black;" cx="298" cy="-97" rx="18" ry="18"/>
<text text-anchor="middle" x="298" y="-92.9" style="font-family:Times New Roman;font-size:14.00;">4</text>
</g>
<!-- 2&#45;&gt;4 -->
<g id="edge10" class="edge"><title>2&#45;&gt;4</title>
<path style="fill:none;stroke:black;" d="M208,-97C225,-97 250,-97 270,-97"/>
<polygon style="fill:black;stroke:black;" points="270,-100.5 280,-97 270,-93.5001 270,-100.5"/>
<text text-anchor="middle" x="244" y="-100.9" style="font-family:Times New Roman;font-size:14.00;">c</text>
</g>
<!-- 6 -->
<g id="node8" class="node"><title>6</title>
<ellipse style="fill:none;stroke:red;" cx="378" cy="-44" rx="18" ry="18"/>
<text text-anchor="middle" x="378" y="-39.9" style="font-family:Times New Roman;font-size:14.00;">6</text>
</g>
<!-- 4&#45;&gt;6 -->
<g id="edge12" class="edge"><title>4&#45;&gt;6</title>
<path style="fill:none;stroke:black;" d="M313,-87C324,-80 341,-69 355,-60"/>
<polygon style="fill:black;stroke:black;" points="357.1,-62.8 363,-54 352.9,-57.2 357.1,-62.8"/>
<text text-anchor="middle" x="338" y="-76.9" style="font-family:Times New Roman;font-size:14.00;">a</text>
</g>
<!-- 5&#45;&gt;6 -->
<g id="edge14" class="edge"><title>5&#45;&gt;6</title>
<path style="fill:none;stroke:black;" d="M262,-44C285,-44 323,-44 350,-44"/>
<polygon style="fill:black;stroke:black;" points="350,-47.5001 360,-44 350,-40.5001 350,-47.5001"/>
<text text-anchor="middle" x="298" y="-47.9" style="font-family:Times New Roman;font-size:14.00;">b</text>
</g>
<!-- 6&#45;&gt;1 -->
<g id="edge16" class="edge"><title>6&#45;&gt;1</title>
<path style="fill:none;stroke:black;" d="M362,-35C340,-24 300,-6 262,-0 216,8 165,-14 135,-29"/>
<polygon style="fill:black;stroke:black;" points="133.042,-26.084 126,-34 136.441,-32.2031 133.042,-26.084"/>
<text text-anchor="middle" x="244" y="-3.9" style="font-family:Times New Roman;font-size:14.00;">a</text>
</g>
</g>
</svg>
