<?xml version="1.0" encoding="UTF-8" standalone="no"?>
<!DOCTYPE svg PUBLIC "-//W3C//DTD SVG 1.0//EN"
 "http://www.w3.org/TR/2001/REC-SVG-20010904/DTD/svg10.dtd" [
 <!ATTLIST svg xmlns:xlink CDATA #FIXED "http://www.w3.org/1999/xlink">
]>
<!-- Generated by Graphviz version 2.20.2 (Tue Mar &#160;2 21:46:26 UTC 2010)
     For user: (mtmoor) Prof. Thomas Moor -->
<!-- Title: IOSystem1 Pages: 1 -->
<svg width="394pt" height="97pt"
 viewBox="0.00 0.00 394.00 97.00" xmlns="http://www.w3.org/2000/svg" xmlns:xlink="http://www.w3.org/1999/xlink">
<g id="graph0" class="graph" transform="scale(1 1) rotate(0) translate(4 93)">
<title>IOSystem1</title>
<polygon style="fill:none;stroke:none;" points="-4,4 -4,-93 390,-93 390,4 -4,4"/>
<!-- dot_dummyinit_1 -->
<g id="node1" class="node"><title>dot_dummyinit_1</title>
</g>
<!-- s1 -->
<g id="node3" class="node"><title>s1</title>
<ellipse style="fill:none;stroke:black;" cx="66" cy="-26" rx="22.2362" ry="22.2362"/>
<ellipse style="fill:none;stroke:black;" cx="66" cy="-26" rx="26.2362" ry="26.2362"/>
<text text-anchor="middle" x="66" y="-21.9" style="font-family:Times New Roman;font-size:14.00;">s1</text>
</g>
<!-- dot_dummyinit_1&#45;&gt;s1 -->
<g id="edge2" class="edge"><title>dot_dummyinit_1&#45;&gt;s1</title>
<path style="fill:none;stroke:black;" d="M2,-26C6,-26 17,-26 30,-26"/>
<polygon style="fill:black;stroke:black;" points="30,-29.5001 40,-26 30,-22.5001 30,-29.5001"/>
</g>
<!-- s2 -->
<g id="node4" class="node"><title>s2</title>
<ellipse style="fill:none;stroke:black;" cx="168" cy="-56" rx="22.2362" ry="22.2362"/>
<text text-anchor="middle" x="168" y="-51.9" style="font-family:Times New Roman;font-size:14.00;">s2</text>
</g>
<!-- s1&#45;&gt;s2 -->
<g id="edge4" class="edge"><title>s1&#45;&gt;s2</title>
<path style="fill:none;stroke:black;" d="M91,-33C105,-37 122,-43 137,-47"/>
<polygon style="fill:black;stroke:black;" points="136.416,-50.4788 147,-50 138.427,-43.7741 136.416,-50.4788"/>
<text text-anchor="middle" x="119" y="-45.9" style="font-family:Times New Roman;font-size:14.00;">u1</text>
</g>
<!-- s3 -->
<g id="node5" class="node"><title>s3</title>
<ellipse style="fill:none;stroke:black;" cx="266" cy="-67" rx="22.2362" ry="22.2362"/>
<text text-anchor="middle" x="266" y="-62.9" style="font-family:Times New Roman;font-size:14.00;">s3</text>
</g>
<!-- s2&#45;&gt;s3 -->
<g id="edge6" class="edge"><title>s2&#45;&gt;s3</title>
<path style="fill:none;stroke:black;" d="M189,-64C195,-66 202,-68 208,-69 216,-70 225,-71 234,-71"/>
<polygon style="fill:black;stroke:black;" points="234.398,-74.4778 244,-70 233.701,-67.5125 234.398,-74.4778"/>
<text text-anchor="middle" x="217" y="-72.9" style="font-family:Times New Roman;font-size:14.00;">y1</text>
</g>
<!-- s3&#45;&gt;s2 -->
<g id="edge10" class="edge"><title>s3&#45;&gt;s2</title>
<path style="fill:none;stroke:black;" d="M248,-54C241,-51 234,-47 226,-45 217,-43 207,-43 198,-45"/>
<polygon style="fill:black;stroke:black;" points="196.573,-41.7741 188,-48 198.584,-48.4788 196.573,-41.7741"/>
<text text-anchor="middle" x="217" y="-48.9" style="font-family:Times New Roman;font-size:14.00;">u2</text>
</g>
<!-- s4 -->
<g id="node6" class="node"><title>s4</title>
<ellipse style="fill:none;stroke:black;" cx="364" cy="-39" rx="22.2362" ry="22.2362"/>
<text text-anchor="middle" x="364" y="-34.9" style="font-family:Times New Roman;font-size:14.00;">s4</text>
</g>
<!-- s3&#45;&gt;s4 -->
<g id="edge8" class="edge"><title>s3&#45;&gt;s4</title>
<path style="fill:none;stroke:black;" d="M288,-64C299,-63 312,-60 324,-57 328,-56 331,-55 335,-53"/>
<polygon style="fill:black;stroke:black;" points="336.283,-56.2598 344,-49 333.44,-49.8631 336.283,-56.2598"/>
<text text-anchor="middle" x="315" y="-63.9" style="font-family:Times New Roman;font-size:14.00;">u1</text>
</g>
<!-- s4&#45;&gt;s1 -->
<g id="edge12" class="edge"><title>s4&#45;&gt;s1</title>
<path style="fill:none;stroke:black;" d="M343,-31C337,-30 330,-28 324,-27 247,-13 152,-18 102,-22"/>
<polygon style="fill:black;stroke:black;" points="101.602,-18.5222 92,-23 102.299,-25.4875 101.602,-18.5222"/>
<text text-anchor="middle" x="217" y="-20.9" style="font-family:Times New Roman;font-size:14.00;">y1</text>
</g>
<!-- s4&#45;&gt;s3 -->
<g id="edge14" class="edge"><title>s4&#45;&gt;s3</title>
<path style="fill:none;stroke:black;" d="M342,-34C331,-32 318,-32 306,-36 300,-38 294,-41 289,-45"/>
<polygon style="fill:black;stroke:black;" points="286.9,-42.2 281,-51 291.1,-47.8 286.9,-42.2"/>
<text text-anchor="middle" x="315" y="-39.9" style="font-family:Times New Roman;font-size:14.00;">y2</text>
</g>
</g>
</svg>
