<?xml version="1.0" encoding="UTF-8" standalone="no"?>
<!DOCTYPE svg PUBLIC "-//W3C//DTD SVG 1.0//EN"
 "http://www.w3.org/TR/2001/REC-SVG-20010904/DTD/svg10.dtd" [
 <!ATTLIST svg xmlns:xlink CDATA #FIXED "http://www.w3.org/1999/xlink">
]>
<!-- Generated by Graphviz version 2.20.2 (Tue Mar &#160;2 21:46:26 UTC 2010)
     For user: (mtmoor) Prof. Thomas Moor -->
<!-- Title: IOSystem1 Pages: 1 -->
<svg width="394pt" height="235pt"
 viewBox="0.00 0.00 394.00 235.00" xmlns="http://www.w3.org/2000/svg" xmlns:xlink="http://www.w3.org/1999/xlink">
<g id="graph0" class="graph" transform="scale(1 1) rotate(0) translate(4 231)">
<title>IOSystem1</title>
<polygon style="fill:none;stroke:none;" points="-4,4 -4,-231 390,-231 390,4 -4,4"/>
<!-- dot_dummyinit_1 -->
<g id="node1" class="node"><title>dot_dummyinit_1</title>
</g>
<!-- s1 -->
<g id="node3" class="node"><title>s1</title>
<ellipse style="fill:none;stroke:black;" cx="66" cy="-57" rx="22.2362" ry="22.2362"/>
<ellipse style="fill:none;stroke:black;" cx="66" cy="-57" rx="26.2362" ry="26.2362"/>
<text text-anchor="middle" x="66" y="-52.9" style="font-family:Times New Roman;font-size:14.00;">s1</text>
</g>
<!-- dot_dummyinit_1&#45;&gt;s1 -->
<g id="edge2" class="edge"><title>dot_dummyinit_1&#45;&gt;s1</title>
<path style="fill:none;stroke:black;" d="M2,-57C6,-57 17,-57 30,-57"/>
<polygon style="fill:black;stroke:black;" points="30,-60.5001 40,-57 30,-53.5001 30,-60.5001"/>
</g>
<!-- 5 -->
<g id="node4" class="node"><title>5</title>
<ellipse style="fill:none;stroke:black;" cx="168" cy="-152" rx="18" ry="18"/>
<ellipse style="fill:none;stroke:black;" cx="168" cy="-152" rx="22" ry="22"/>
<text text-anchor="middle" x="168" y="-147.9" style="font-family:Times New Roman;font-size:14.00;">5</text>
</g>
<!-- s1&#45;&gt;5 -->
<g id="edge6" class="edge"><title>s1&#45;&gt;5</title>
<path style="fill:none;stroke:black;" d="M85,-75C101,-91 126,-113 144,-130"/>
<polygon style="fill:black;stroke:black;" points="142.169,-133.049 152,-137 146.779,-127.781 142.169,-133.049"/>
<text text-anchor="middle" x="119" y="-115.9" style="font-family:Times New Roman;font-size:14.00;">u2</text>
</g>
<!-- s2 -->
<g id="node6" class="node"><title>s2</title>
<ellipse style="fill:none;stroke:black;" cx="168" cy="-57" rx="22.2362" ry="22.2362"/>
<text text-anchor="middle" x="168" y="-52.9" style="font-family:Times New Roman;font-size:14.00;">s2</text>
</g>
<!-- s1&#45;&gt;s2 -->
<g id="edge4" class="edge"><title>s1&#45;&gt;s2</title>
<path style="fill:none;stroke:black;" d="M92,-57C106,-57 122,-57 136,-57"/>
<polygon style="fill:black;stroke:black;" points="136,-60.5001 146,-57 136,-53.5001 136,-60.5001"/>
<text text-anchor="middle" x="119" y="-60.9" style="font-family:Times New Roman;font-size:14.00;">u1</text>
</g>
<!-- 6 -->
<g id="node5" class="node"><title>6</title>
<ellipse style="fill:none;stroke:black;" cx="266" cy="-172" rx="18" ry="18"/>
<ellipse style="fill:none;stroke:black;" cx="266" cy="-172" rx="22" ry="22"/>
<text text-anchor="middle" x="266" y="-167.9" style="font-family:Times New Roman;font-size:14.00;">6</text>
</g>
<!-- 5&#45;&gt;6 -->
<g id="edge18" class="edge"><title>5&#45;&gt;6</title>
<path style="fill:none;stroke:black;" d="M176,-172C183,-186 193,-202 208,-210 222,-217 236,-208 246,-198"/>
<polygon style="fill:black;stroke:black;" points="249.049,-199.831 253,-190 243.781,-195.221 249.049,-199.831"/>
<text text-anchor="middle" x="217" y="-214.9" style="font-family:Times New Roman;font-size:14.00;">y1</text>
</g>
<!-- 5&#45;&gt;6 -->
<g id="edge20" class="edge"><title>5&#45;&gt;6</title>
<path style="fill:none;stroke:black;" d="M188,-162C194,-165 201,-168 208,-170 216,-171 225,-172 234,-173"/>
<polygon style="fill:black;stroke:black;" points="234,-176.5 244,-173 234,-169.5 234,-176.5"/>
<text text-anchor="middle" x="217" y="-174.9" style="font-family:Times New Roman;font-size:14.00;">y2</text>
</g>
<!-- 6&#45;&gt;5 -->
<g id="edge22" class="edge"><title>6&#45;&gt;5</title>
<path style="fill:none;stroke:black;" d="M249,-158C242,-153 234,-148 226,-146 217,-143 208,-143 199,-144"/>
<polygon style="fill:black;stroke:black;" points="198.119,-140.607 189,-146 199.492,-147.471 198.119,-140.607"/>
<text text-anchor="middle" x="217" y="-149.9" style="font-family:Times New Roman;font-size:14.00;">u1</text>
</g>
<!-- 6&#45;&gt;5 -->
<g id="edge24" class="edge"><title>6&#45;&gt;5</title>
<path style="fill:none;stroke:black;" d="M256,-152C250,-141 239,-127 226,-121 214,-115 201,-121 191,-129"/>
<polygon style="fill:black;stroke:black;" points="188.9,-126.2 183,-135 193.1,-131.8 188.9,-126.2"/>
<text text-anchor="middle" x="217" y="-124.9" style="font-family:Times New Roman;font-size:14.00;">u2</text>
</g>
<!-- s3 -->
<g id="node7" class="node"><title>s3</title>
<ellipse style="fill:none;stroke:black;" cx="266" cy="-54" rx="22.2362" ry="22.2362"/>
<text text-anchor="middle" x="266" y="-49.9" style="font-family:Times New Roman;font-size:14.00;">s3</text>
</g>
<!-- s2&#45;&gt;s3 -->
<g id="edge8" class="edge"><title>s2&#45;&gt;s3</title>
<path style="fill:none;stroke:black;" d="M190,-56C203,-55 219,-55 234,-55"/>
<polygon style="fill:black;stroke:black;" points="234,-58.5001 244,-55 234,-51.5001 234,-58.5001"/>
<text text-anchor="middle" x="217" y="-58.9" style="font-family:Times New Roman;font-size:14.00;">y1</text>
</g>
<!-- s3&#45;&gt;s2 -->
<g id="edge12" class="edge"><title>s3&#45;&gt;s2</title>
<path style="fill:none;stroke:black;" d="M248,-41C237,-35 222,-29 208,-33 203,-34 199,-36 195,-38"/>
<polygon style="fill:black;stroke:black;" points="192.379,-35.5408 186,-44 196.262,-41.3651 192.379,-35.5408"/>
<text text-anchor="middle" x="217" y="-36.9" style="font-family:Times New Roman;font-size:14.00;">u2</text>
</g>
<!-- s4 -->
<g id="node8" class="node"><title>s4</title>
<ellipse style="fill:none;stroke:black;" cx="364" cy="-25" rx="22.2362" ry="22.2362"/>
<text text-anchor="middle" x="364" y="-20.9" style="font-family:Times New Roman;font-size:14.00;">s4</text>
</g>
<!-- s3&#45;&gt;s4 -->
<g id="edge10" class="edge"><title>s3&#45;&gt;s4</title>
<path style="fill:none;stroke:black;" d="M288,-51C299,-49 312,-46 324,-43 328,-42 331,-41 335,-39"/>
<polygon style="fill:black;stroke:black;" points="336.283,-42.2598 344,-35 333.44,-35.8631 336.283,-42.2598"/>
<text text-anchor="middle" x="315" y="-49.9" style="font-family:Times New Roman;font-size:14.00;">u1</text>
</g>
<!-- s4&#45;&gt;s1 -->
<g id="edge14" class="edge"><title>s4&#45;&gt;s1</title>
<path style="fill:none;stroke:black;" d="M343,-17C337,-16 330,-14 324,-13 246,1 222,-1 146,-26 131,-31 114,-37 99,-43"/>
<polygon style="fill:black;stroke:black;" points="97.7166,-39.7402 90,-47 100.56,-46.1369 97.7166,-39.7402"/>
<text text-anchor="middle" x="217" y="-10.9" style="font-family:Times New Roman;font-size:14.00;">y1</text>
</g>
<!-- s4&#45;&gt;s3 -->
<g id="edge16" class="edge"><title>s4&#45;&gt;s3</title>
<path style="fill:none;stroke:black;" d="M342,-20C331,-18 318,-18 306,-22 300,-24 294,-27 289,-31"/>
<polygon style="fill:black;stroke:black;" points="286.221,-28.7809 281,-38 290.831,-34.0489 286.221,-28.7809"/>
<text text-anchor="middle" x="315" y="-25.9" style="font-family:Times New Roman;font-size:14.00;">y2</text>
</g>
</g>
</svg>
