<?xml version="1.0" encoding="UTF-8" standalone="no"?>
<!DOCTYPE svg PUBLIC "-//W3C//DTD SVG 1.0//EN"
 "http://www.w3.org/TR/2001/REC-SVG-20010904/DTD/svg10.dtd" [
 <!ATTLIST svg xmlns:xlink CDATA #FIXED "http://www.w3.org/1999/xlink">
]>
<!-- Generated by Graphviz version 2.20.2 (Tue Mar &#160;2 21:46:26 UTC 2010)
     For user: (mtmoor) Prof. Thomas Moor -->
<!-- Title: NoPlant Pages: 1 -->
<svg width="498pt" height="172pt"
 viewBox="0.00 0.00 498.00 172.00" xmlns="http://www.w3.org/2000/svg" xmlns:xlink="http://www.w3.org/1999/xlink">
<g id="graph0" class="graph" transform="scale(1 1) rotate(0) translate(4 168)">
<title>NoPlant</title>
<polygon style="fill:none;stroke:none;" points="-4,4 -4,-168 494,-168 494,4 -4,4"/>
<!-- dot_dummyinit_1 -->
<g id="node1" class="node"><title>dot_dummyinit_1</title>
</g>
<!-- A -->
<g id="node3" class="node"><title>A</title>
<ellipse style="fill:none;stroke:black;" cx="58" cy="-90" rx="18.0669" ry="18.0669"/>
<text text-anchor="middle" x="58" y="-85.9" style="font-family:Times New Roman;font-size:14.00;">A</text>
</g>
<!-- dot_dummyinit_1&#45;&gt;A -->
<g id="edge2" class="edge"><title>dot_dummyinit_1&#45;&gt;A</title>
<path style="fill:none;stroke:black;" d="M2,-90C6,-90 18,-90 30,-90"/>
<polygon style="fill:black;stroke:black;" points="30,-93.5001 40,-90 30,-86.5001 30,-93.5001"/>
</g>
<!-- A1 -->
<g id="node6" class="node"><title>A1</title>
<ellipse style="fill:none;stroke:black;" cx="150" cy="-130" rx="23.8942" ry="23.8942"/>
<ellipse style="fill:none;stroke:black;" cx="150" cy="-130" rx="27.824" ry="27.824"/>
<text text-anchor="middle" x="150" y="-125.9" style="font-family:Times New Roman;font-size:14.00;">A1</text>
</g>
<!-- A&#45;&gt;A1 -->
<g id="edge6" class="edge"><title>A&#45;&gt;A1</title>
<path style="fill:none;stroke:black;" d="M75,-97C86,-102 101,-109 115,-115"/>
<polygon style="fill:black;stroke:black;" points="113.44,-118.137 124,-119 116.283,-111.74 113.44,-118.137"/>
<text text-anchor="middle" x="99" y="-111.9" style="font-family:Times New Roman;font-size:14.00;">b</text>
</g>
<!-- Y -->
<g id="node8" class="node"><title>Y</title>
<ellipse style="fill:none;stroke:black;" cx="150" cy="-50" rx="18" ry="18"/>
<text text-anchor="middle" x="150" y="-45.9" style="font-family:Times New Roman;font-size:14.00;">Y</text>
</g>
<!-- A&#45;&gt;Y -->
<g id="edge4" class="edge"><title>A&#45;&gt;Y</title>
<path style="fill:none;stroke:black;" d="M75,-83C88,-76 108,-68 124,-61"/>
<polygon style="fill:black;stroke:black;" points="125.283,-64.2598 133,-57 122.44,-57.8631 125.283,-64.2598"/>
<text text-anchor="middle" x="99" y="-77.9" style="font-family:Times New Roman;font-size:14.00;">a</text>
</g>
<!-- B1 -->
<g id="node4" class="node"><title>B1</title>
<ellipse style="fill:none;stroke:black;" cx="356" cy="-30" rx="23.8942" ry="23.8942"/>
<ellipse style="fill:none;stroke:black;" cx="356" cy="-30" rx="27.824" ry="27.824"/>
<text text-anchor="middle" x="356" y="-25.9" style="font-family:Times New Roman;font-size:14.00;">B1</text>
</g>
<!-- BM -->
<g id="node5" class="node"><title>BM</title>
<ellipse style="fill:none;stroke:black;" cx="460" cy="-30" rx="25.9726" ry="25.9726"/>
<ellipse style="fill:none;stroke:black;" cx="460" cy="-30" rx="29.9071" ry="29.9071"/>
<text text-anchor="middle" x="460" y="-25.9" style="font-family:Times New Roman;font-size:14.00;">BM</text>
</g>
<!-- B1&#45;&gt;BM -->
<g id="edge16" class="edge"><title>B1&#45;&gt;BM</title>
<path style="fill:none;stroke:black;" d="M382,-42C388,-44 395,-47 402,-48 409,-49 416,-49 423,-47"/>
<polygon style="fill:black;stroke:black;" points="424.427,-50.2259 433,-44 422.416,-43.5212 424.427,-50.2259"/>
<text text-anchor="middle" x="407" y="-53.9" style="font-family:Times New Roman;font-size:14.00;">A</text>
</g>
<!-- BM&#45;&gt;B1 -->
<g id="edge18" class="edge"><title>BM&#45;&gt;B1</title>
<path style="fill:none;stroke:black;" d="M430,-28C421,-27 411,-27 402,-27 399,-27 397,-27 394,-27"/>
<polygon style="fill:black;stroke:black;" points="393.602,-23.5222 384,-28 394.299,-30.4875 393.602,-23.5222"/>
<text text-anchor="middle" x="407" y="-34.9" style="font-family:Times New Roman;font-size:14.00;">a</text>
</g>
<!-- BM&#45;&gt;B1 -->
<g id="edge20" class="edge"><title>BM&#45;&gt;B1</title>
<path style="fill:none;stroke:black;" d="M436,-12C426,-7 414,-4 402,-6 398,-7 394,-9 389,-10"/>
<polygon style="fill:black;stroke:black;" points="387.042,-7.08397 380,-15 390.441,-13.2031 387.042,-7.08397"/>
<text text-anchor="middle" x="407" y="-13.9" style="font-family:Times New Roman;font-size:14.00;">b</text>
</g>
<!-- AM -->
<g id="node7" class="node"><title>AM</title>
<ellipse style="fill:none;stroke:black;" cx="254" cy="-130" rx="25.9726" ry="25.9726"/>
<ellipse style="fill:none;stroke:black;" cx="254" cy="-130" rx="29.9071" ry="29.9071"/>
<text text-anchor="middle" x="254" y="-125.9" style="font-family:Times New Roman;font-size:14.00;">AM</text>
</g>
<!-- A1&#45;&gt;AM -->
<g id="edge22" class="edge"><title>A1&#45;&gt;AM</title>
<path style="fill:none;stroke:black;" d="M176,-142C182,-144 189,-146 196,-148 203,-149 210,-149 217,-147"/>
<polygon style="fill:black;stroke:black;" points="218.427,-150.226 227,-144 216.416,-143.521 218.427,-150.226"/>
<text text-anchor="middle" x="201" y="-151.9" style="font-family:Times New Roman;font-size:14.00;">B</text>
</g>
<!-- AM&#45;&gt;A1 -->
<g id="edge24" class="edge"><title>AM&#45;&gt;A1</title>
<path style="fill:none;stroke:black;" d="M224,-125C215,-124 205,-123 196,-124 193,-124 191,-124 188,-124"/>
<polygon style="fill:black;stroke:black;" points="187.119,-120.607 178,-126 188.492,-127.471 187.119,-120.607"/>
<text text-anchor="middle" x="201" y="-127.9" style="font-family:Times New Roman;font-size:14.00;">a</text>
</g>
<!-- AM&#45;&gt;A1 -->
<g id="edge26" class="edge"><title>AM&#45;&gt;A1</title>
<path style="fill:none;stroke:black;" d="M232,-109C222,-102 209,-96 196,-100 191,-101 186,-104 181,-107"/>
<polygon style="fill:black;stroke:black;" points="179.042,-104.084 172,-112 182.441,-110.203 179.042,-104.084"/>
<text text-anchor="middle" x="201" y="-103.9" style="font-family:Times New Roman;font-size:14.00;">b</text>
</g>
<!-- Y&#45;&gt;A -->
<g id="edge8" class="edge"><title>Y&#45;&gt;A</title>
<path style="fill:none;stroke:black;" d="M132,-46C121,-44 106,-44 94,-49 86,-53 79,-59 73,-66"/>
<polygon style="fill:black;stroke:black;" points="70.2,-63.9 67,-74 75.8,-68.1 70.2,-63.9"/>
<text text-anchor="middle" x="99" y="-53.9" style="font-family:Times New Roman;font-size:14.00;">A</text>
</g>
<!-- B -->
<g id="node9" class="node"><title>B</title>
<ellipse style="fill:none;stroke:black;" cx="254" cy="-30" rx="18.0669" ry="18.0669"/>
<text text-anchor="middle" x="254" y="-25.9" style="font-family:Times New Roman;font-size:14.00;">B</text>
</g>
<!-- Y&#45;&gt;B -->
<g id="edge10" class="edge"><title>Y&#45;&gt;B</title>
<path style="fill:none;stroke:black;" d="M168,-47C184,-44 208,-39 226,-36"/>
<polygon style="fill:black;stroke:black;" points="226.881,-39.3933 236,-34 225.508,-32.5292 226.881,-39.3933"/>
<text text-anchor="middle" x="201" y="-45.9" style="font-family:Times New Roman;font-size:14.00;">B</text>
</g>
<!-- B&#45;&gt;B1 -->
<g id="edge12" class="edge"><title>B&#45;&gt;B1</title>
<path style="fill:none;stroke:black;" d="M272,-30C285,-30 302,-30 318,-30"/>
<polygon style="fill:black;stroke:black;" points="318,-33.5001 328,-30 318,-26.5001 318,-33.5001"/>
<text text-anchor="middle" x="306" y="-34.9" style="font-family:Times New Roman;font-size:14.00;">a</text>
</g>
<!-- B&#45;&gt;Y -->
<g id="edge14" class="edge"><title>B&#45;&gt;Y</title>
<path style="fill:none;stroke:black;" d="M237,-23C226,-19 210,-15 196,-19 188,-22 179,-27 172,-32"/>
<polygon style="fill:black;stroke:black;" points="169.9,-29.2 164,-38 174.1,-34.8 169.9,-29.2"/>
<text text-anchor="middle" x="201" y="-26.9" style="font-family:Times New Roman;font-size:14.00;">b</text>
</g>
</g>
</svg>
