<?xml version="1.0" encoding="UTF-8" standalone="no"?>
<!DOCTYPE svg PUBLIC "-//W3C//DTD SVG 1.1//EN"
 "http://www.w3.org/Graphics/SVG/1.1/DTD/svg11.dtd">
<!-- Generated by graphviz version 12.2.1 (20241206.2353)
 -->
<!-- Title: process and transport Pages: 1 -->
<svg width="384pt" height="166pt"
 viewBox="0.00 0.00 384.22 165.75" xmlns="http://www.w3.org/2000/svg" xmlns:xlink="http://www.w3.org/1999/xlink">
<g id="graph0" class="graph" transform="scale(1 1) rotate(0) translate(4 161.75)">
<title>process and transport</title>
<!-- dot_dummyinit_1 -->
<g id="node1" class="node">
<title>dot_dummyinit_1</title>
</g>
<!-- F1 -->
<g id="node2" class="node">
<title>F1</title>
<path fill="none" stroke="black" d="M81.47,-54C81.47,-54 49.72,-54 49.72,-54 43.72,-54 37.72,-48 37.72,-42 37.72,-42 37.72,-30 37.72,-30 37.72,-24 43.72,-18 49.72,-18 49.72,-18 81.47,-18 81.47,-18 87.47,-18 93.47,-24 93.47,-30 93.47,-30 93.47,-42 93.47,-42 93.47,-48 87.47,-54 81.47,-54"/>
<text text-anchor="start" x="49.72" y="-30.57" font-family="Arial" font-size="14.00">F1</text>
<polygon fill="black" stroke="none" points="75.47,-26.12 75.47,-45.88 83.47,-45.88 83.47,-26.12 75.47,-26.12"/>
</g>
<!-- dot_dummyinit_1&#45;&gt;F1 -->
<g id="edge1" class="edge">
<title>dot_dummyinit_1&#45;&gt;F1</title>
<path fill="none" stroke="black" d="M0.77,-36C1.59,-36 13.2,-36 26.29,-36"/>
<polygon fill="black" stroke="black" points="25.93,-39.5 35.93,-36 25.93,-32.5 25.93,-39.5"/>
</g>
<!-- F2 -->
<g id="node3" class="node">
<title>F2</title>
<path fill="none" stroke="black" d="M175.22,-103C175.22,-103 145.22,-103 145.22,-103 139.22,-103 133.22,-97 133.22,-91 133.22,-91 133.22,-79 133.22,-79 133.22,-73 139.22,-67 145.22,-67 145.22,-67 175.22,-67 175.22,-67 181.22,-67 187.22,-73 187.22,-79 187.22,-79 187.22,-91 187.22,-91 187.22,-97 181.22,-103 175.22,-103"/>
<text text-anchor="middle" x="160.22" y="-79.58" font-family="Arial" font-size="14.00">F2</text>
</g>
<!-- F1&#45;&gt;F2 -->
<g id="edge2" class="edge">
<title>F1&#45;&gt;F2</title>
<path fill="none" stroke="black" d="M93.88,-50.44C102.9,-55.2 113.07,-60.59 122.67,-65.66"/>
<polygon fill="black" stroke="black" points="120.95,-68.71 131.42,-70.3 124.22,-62.53 120.95,-68.71"/>
<text text-anchor="middle" x="113.35" y="-62.95" font-family="Arial" font-size="14.00">f</text>
</g>
<!-- F3 -->
<g id="node4" class="node">
<title>F3</title>
<path fill="none" stroke="black" d="M269.72,-124C269.72,-124 239.72,-124 239.72,-124 233.72,-124 227.72,-118 227.72,-112 227.72,-112 227.72,-100 227.72,-100 227.72,-94 233.72,-88 239.72,-88 239.72,-88 269.72,-88 269.72,-88 275.72,-88 281.72,-94 281.72,-100 281.72,-100 281.72,-112 281.72,-112 281.72,-118 275.72,-124 269.72,-124"/>
<text text-anchor="middle" x="254.72" y="-100.58" font-family="Arial" font-size="14.00">F3</text>
</g>
<!-- F2&#45;&gt;F3 -->
<g id="edge3" class="edge">
<title>F2&#45;&gt;F3</title>
<path fill="none" stroke="black" d="M187.48,-90.96C196.46,-93 206.69,-95.32 216.38,-97.52"/>
<polygon fill="black" stroke="black" points="215.39,-100.89 225.92,-99.69 216.94,-94.06 215.39,-100.89"/>
<text text-anchor="middle" x="207.47" y="-97.95" font-family="Arial" font-size="14.00">f</text>
</g>
<!-- P1 -->
<g id="node6" class="node">
<title>P1</title>
<path fill="none" stroke="black" d="M269.72,-36C269.72,-36 239.72,-36 239.72,-36 233.72,-36 227.72,-30 227.72,-24 227.72,-24 227.72,-12 227.72,-12 227.72,-6 233.72,0 239.72,0 239.72,0 269.72,0 269.72,0 275.72,0 281.72,-6 281.72,-12 281.72,-12 281.72,-24 281.72,-24 281.72,-30 275.72,-36 269.72,-36"/>
<text text-anchor="middle" x="254.72" y="-12.57" font-family="Arial" font-size="14.00">P1</text>
</g>
<!-- F2&#45;&gt;P1 -->
<g id="edge4" class="edge">
<title>F2&#45;&gt;P1</title>
<path fill="none" stroke="black" d="M186.5,-66.69C196.59,-59.38 208.38,-50.84 219.24,-42.98"/>
<polygon fill="black" stroke="black" points="221.2,-45.87 227.25,-37.17 217.1,-40.21 221.2,-45.87"/>
<text text-anchor="middle" x="207.47" y="-53.95" font-family="Arial" font-size="14.00">r</text>
</g>
<!-- P2 -->
<g id="node5" class="node">
<title>P2</title>
<path fill="none" stroke="black" d="M364.22,-124C364.22,-124 334.22,-124 334.22,-124 328.22,-124 322.22,-118 322.22,-112 322.22,-112 322.22,-100 322.22,-100 322.22,-94 328.22,-88 334.22,-88 334.22,-88 364.22,-88 364.22,-88 370.22,-88 376.22,-94 376.22,-100 376.22,-100 376.22,-112 376.22,-112 376.22,-118 370.22,-124 364.22,-124"/>
<text text-anchor="middle" x="349.22" y="-100.58" font-family="Arial" font-size="14.00">P2</text>
</g>
<!-- F3&#45;&gt;P2 -->
<g id="edge5" class="edge">
<title>F3&#45;&gt;P2</title>
<path fill="none" stroke="black" d="M281.98,-106C290.86,-106 300.97,-106 310.56,-106"/>
<polygon fill="black" stroke="black" points="310.38,-109.5 320.38,-106 310.38,-102.5 310.38,-109.5"/>
<text text-anchor="middle" x="301.97" y="-108.45" font-family="Arial" font-size="14.00">r</text>
</g>
<!-- P2&#45;&gt;F2 -->
<g id="edge6" class="edge">
<title>P2&#45;&gt;F2</title>
<path fill="none" stroke="black" d="M321.99,-119.85C297.33,-131.01 259.54,-143.29 227.72,-133 213.54,-128.42 199.83,-119.55 188.59,-110.68"/>
<polygon fill="black" stroke="black" points="190.85,-108.01 180.93,-104.29 186.36,-113.38 190.85,-108.01"/>
<text text-anchor="middle" x="254.72" y="-139.31" font-family="Arial" font-size="14.00">a</text>
</g>
<!-- P2&#45;&gt;P2 -->
<g id="edge7" class="edge">
<title>P2&#45;&gt;P2</title>
<path fill="none" stroke="black" d="M340.67,-124.15C339.36,-133.54 342.21,-142 349.22,-142 353.17,-142 355.79,-139.32 357.1,-135.31"/>
<polygon fill="black" stroke="black" points="360.58,-135.85 357.68,-125.66 353.59,-135.44 360.58,-135.85"/>
<text text-anchor="middle" x="349.22" y="-144.45" font-family="Arial" font-size="14.00">p</text>
</g>
<!-- P1&#45;&gt;F1 -->
<g id="edge8" class="edge">
<title>P1&#45;&gt;F1</title>
<path fill="none" stroke="black" d="M227.38,-20.53C195.49,-23.6 141.53,-28.79 105,-32.31"/>
<polygon fill="black" stroke="black" points="104.93,-28.8 95.31,-33.24 105.6,-35.76 104.93,-28.8"/>
<text text-anchor="middle" x="160.22" y="-31.82" font-family="Arial" font-size="14.00">a</text>
</g>
<!-- P1&#45;&gt;P2 -->
<g id="edge9" class="edge">
<title>P1&#45;&gt;P2</title>
<path fill="none" stroke="black" d="M274.89,-36.23C288.16,-48.86 306.02,-65.85 320.79,-79.91"/>
<polygon fill="black" stroke="black" points="318.32,-82.39 327.98,-86.75 323.15,-77.32 318.32,-82.39"/>
<text text-anchor="middle" x="301.97" y="-64.45" font-family="Arial" font-size="14.00">f</text>
</g>
<!-- P1&#45;&gt;P1 -->
<g id="edge10" class="edge">
<title>P1&#45;&gt;P1</title>
<path fill="none" stroke="black" d="M246.17,-36.15C244.86,-45.54 247.71,-54 254.72,-54 258.67,-54 261.29,-51.32 262.6,-47.31"/>
<polygon fill="black" stroke="black" points="266.08,-47.85 263.18,-37.66 259.09,-47.44 266.08,-47.85"/>
<text text-anchor="middle" x="254.72" y="-56.45" font-family="Arial" font-size="14.00">p</text>
</g>
</g>
</svg>
