<?xml version="1.0" encoding="UTF-8" standalone="no"?>
<!DOCTYPE svg PUBLIC "-//W3C//DTD SVG 1.0//EN"
 "http://www.w3.org/TR/2001/REC-SVG-20010904/DTD/svg10.dtd" [
 <!ATTLIST svg xmlns:xlink CDATA #FIXED "http://www.w3.org/1999/xlink">
]>
<!-- Generated by Graphviz version 2.20.2 (Tue Mar &#160;2 21:46:26 UTC 2010)
     For user: (mtmoor) Prof. Thomas Moor -->
<!-- Title: Generator Pages: 1 -->
<svg width="720pt" height="130pt"
 viewBox="0.00 0.00 720.00 130.31" xmlns="http://www.w3.org/2000/svg" xmlns:xlink="http://www.w3.org/1999/xlink">
<g id="graph0" class="graph" transform="scale(0.736196 0.736196) rotate(0) translate(4 173)">
<title>Generator</title>
<polygon style="fill:none;stroke:none;" points="-4,4 -4,-173 974,-173 974,4 -4,4"/>
<!-- dot_dummyinit_1 -->
<g id="node1" class="node"><title>dot_dummyinit_1</title>
</g>
<!-- 1 -->
<g id="node3" class="node"><title>1</title>
<ellipse style="fill:none;stroke:black;" cx="62" cy="-130" rx="18" ry="18"/>
<ellipse style="fill:none;stroke:black;" cx="62" cy="-130" rx="22" ry="22"/>
<text text-anchor="middle" x="62" y="-125.9" style="font-family:Times New Roman;font-size:14.00;">1</text>
</g>
<!-- dot_dummyinit_1&#45;&gt;1 -->
<g id="edge2" class="edge"><title>dot_dummyinit_1&#45;&gt;1</title>
<path style="fill:none;stroke:black;" d="M2,-130C5,-130 17,-130 30,-130"/>
<polygon style="fill:black;stroke:black;" points="30,-133.5 40,-130 30,-126.5 30,-133.5"/>
</g>
<!-- 2 -->
<g id="node6" class="node"><title>2</title>
<ellipse style="fill:none;stroke:black;" cx="192" cy="-130" rx="18" ry="18"/>
<text text-anchor="middle" x="192" y="-125.9" style="font-family:Times New Roman;font-size:14.00;">2</text>
</g>
<!-- 1&#45;&gt;2 -->
<g id="edge4" class="edge"><title>1&#45;&gt;2</title>
<path style="fill:none;stroke:black;" d="M84,-130C106,-130 140,-130 164,-130"/>
<polygon style="fill:black;stroke:black;" points="164,-133.5 174,-130 164,-126.5 164,-133.5"/>
<text text-anchor="middle" x="129" y="-133.9" style="font-family:Times New Roman;font-size:14.00;">alpha_1</text>
</g>
<!-- 3 -->
<g id="node4" class="node"><title>3</title>
<ellipse style="fill:none;stroke:black;" cx="316" cy="-101" rx="18" ry="18"/>
<ellipse style="fill:none;stroke:black;" cx="316" cy="-101" rx="22" ry="22"/>
<text text-anchor="middle" x="316" y="-96.9" style="font-family:Times New Roman;font-size:14.00;">3</text>
</g>
<!-- 4 -->
<g id="node7" class="node"><title>4</title>
<ellipse style="fill:none;stroke:black;" cx="446" cy="-37" rx="18" ry="18"/>
<text text-anchor="middle" x="446" y="-32.9" style="font-family:Times New Roman;font-size:14.00;">4</text>
</g>
<!-- 3&#45;&gt;4 -->
<g id="edge8" class="edge"><title>3&#45;&gt;4</title>
<path style="fill:none;stroke:black;" d="M334,-88C341,-84 349,-78 356,-74 377,-63 402,-54 419,-47"/>
<polygon style="fill:black;stroke:black;" points="421.015,-49.9636 429,-43 418.415,-43.4643 421.015,-49.9636"/>
<text text-anchor="middle" x="383" y="-81.9" style="font-family:Times New Roman;font-size:14.00;">alpha_1</text>
</g>
<!-- 5 -->
<g id="node5" class="node"><title>5</title>
<ellipse style="fill:none;stroke:black;" cx="576" cy="-42" rx="18" ry="18"/>
<ellipse style="fill:none;stroke:black;" cx="576" cy="-42" rx="22" ry="22"/>
<text text-anchor="middle" x="576" y="-37.9" style="font-family:Times New Roman;font-size:14.00;">5</text>
</g>
<!-- 7 -->
<g id="node9" class="node"><title>7</title>
<ellipse style="fill:none;stroke:black;" cx="706" cy="-100" rx="18" ry="18"/>
<text text-anchor="middle" x="706" y="-95.9" style="font-family:Times New Roman;font-size:14.00;">7</text>
</g>
<!-- 5&#45;&gt;7 -->
<g id="edge14" class="edge"><title>5&#45;&gt;7</title>
<path style="fill:none;stroke:black;" d="M598,-47C617,-53 647,-62 670,-74 675,-76 679,-79 683,-82"/>
<polygon style="fill:black;stroke:black;" points="681.738,-85.3651 692,-88 685.621,-79.5408 681.738,-85.3651"/>
<text text-anchor="middle" x="643" y="-78.9" style="font-family:Times New Roman;font-size:14.00;">alpha_2</text>
</g>
<!-- 2&#45;&gt;3 -->
<g id="edge6" class="edge"><title>2&#45;&gt;3</title>
<path style="fill:none;stroke:black;" d="M209,-125C215,-123 222,-121 228,-120 247,-115 267,-111 284,-107"/>
<polygon style="fill:black;stroke:black;" points="284.881,-110.393 294,-105 283.508,-103.529 284.881,-110.393"/>
<text text-anchor="middle" x="252" y="-123.9" style="font-family:Times New Roman;font-size:14.00;">beta_1</text>
</g>
<!-- 4&#45;&gt;5 -->
<g id="edge10" class="edge"><title>4&#45;&gt;5</title>
<path style="fill:none;stroke:black;" d="M463,-31C469,-29 476,-27 482,-26 506,-23 513,-22 536,-26 539,-26 543,-27 546,-29"/>
<polygon style="fill:black;stroke:black;" points="545.416,-32.4788 556,-32 547.427,-25.7741 545.416,-32.4788"/>
<text text-anchor="middle" x="509" y="-33.9" style="font-family:Times New Roman;font-size:14.00;">beta_1</text>
</g>
<!-- 6 -->
<g id="node8" class="node"><title>6</title>
<ellipse style="fill:none;stroke:black;" cx="576" cy="-151" rx="18" ry="18"/>
<text text-anchor="middle" x="576" y="-146.9" style="font-family:Times New Roman;font-size:14.00;">6</text>
</g>
<!-- 4&#45;&gt;6 -->
<g id="edge12" class="edge"><title>4&#45;&gt;6</title>
<path style="fill:none;stroke:black;" d="M464,-41C487,-47 526,-57 536,-66 554,-81 564,-105 569,-123"/>
<polygon style="fill:black;stroke:black;" points="565.774,-124.427 572,-133 572.479,-122.416 565.774,-124.427"/>
<text text-anchor="middle" x="509" y="-70.9" style="font-family:Times New Roman;font-size:14.00;">alpha_2</text>
</g>
<!-- 6&#45;&gt;2 -->
<g id="edge18" class="edge"><title>6&#45;&gt;2</title>
<path style="fill:none;stroke:black;" d="M558,-151C506,-151 354,-151 228,-137 225,-137 223,-136 220,-136"/>
<polygon style="fill:black;stroke:black;" points="220.492,-132.529 210,-134 219.119,-139.393 220.492,-132.529"/>
<text text-anchor="middle" x="383" y="-150.9" style="font-family:Times New Roman;font-size:14.00;">beta_2</text>
</g>
<!-- 6&#45;&gt;7 -->
<g id="edge16" class="edge"><title>6&#45;&gt;7</title>
<path style="fill:none;stroke:black;" d="M593,-146C613,-140 644,-130 670,-119 674,-117 677,-116 681,-114"/>
<polygon style="fill:black;stroke:black;" points="682.958,-116.916 690,-109 679.559,-110.797 682.958,-116.916"/>
<text text-anchor="middle" x="643" y="-141.9" style="font-family:Times New Roman;font-size:14.00;">beta_1</text>
</g>
<!-- 7&#45;&gt;3 -->
<g id="edge22" class="edge"><title>7&#45;&gt;3</title>
<path style="fill:none;stroke:black;" d="M688,-100C627,-100 427,-101 348,-101"/>
<polygon style="fill:black;stroke:black;" points="348,-97.5001 338,-101 348,-104.5 348,-97.5001"/>
<text text-anchor="middle" x="509" y="-103.9" style="font-family:Times New Roman;font-size:14.00;">beta_2</text>
</g>
<!-- 8 -->
<g id="node10" class="node"><title>8</title>
<ellipse style="fill:none;stroke:black;" cx="832" cy="-86" rx="18" ry="18"/>
<text text-anchor="middle" x="832" y="-81.9" style="font-family:Times New Roman;font-size:14.00;">8</text>
</g>
<!-- 7&#45;&gt;8 -->
<g id="edge20" class="edge"><title>7&#45;&gt;8</title>
<path style="fill:none;stroke:black;" d="M724,-98C745,-95 779,-92 804,-89"/>
<polygon style="fill:black;stroke:black;" points="804.398,-92.4778 814,-88 803.701,-85.5125 804.398,-92.4778"/>
<text text-anchor="middle" x="769" y="-100.9" style="font-family:Times New Roman;font-size:14.00;">alpha_1</text>
</g>
<!-- 8&#45;&gt;4 -->
<g id="edge26" class="edge"><title>8&#45;&gt;4</title>
<path style="fill:none;stroke:black;" d="M822,-71C815,-63 806,-53 796,-47 701,5 663,-4 554,-11 522,-14 514,-13 482,-21 478,-22 475,-23 471,-25"/>
<polygon style="fill:black;stroke:black;" points="469.717,-21.7402 462,-29 472.56,-28.1369 469.717,-21.7402"/>
<text text-anchor="middle" x="643" y="-12.9" style="font-family:Times New Roman;font-size:14.00;">beta_2</text>
</g>
<!-- 9 -->
<g id="node11" class="node"><title>9</title>
<ellipse style="fill:none;stroke:black;" cx="952" cy="-59" rx="18" ry="18"/>
<text text-anchor="middle" x="952" y="-54.9" style="font-family:Times New Roman;font-size:14.00;">9</text>
</g>
<!-- 8&#45;&gt;9 -->
<g id="edge24" class="edge"><title>8&#45;&gt;9</title>
<path style="fill:none;stroke:black;" d="M850,-82C869,-78 901,-70 924,-65"/>
<polygon style="fill:black;stroke:black;" points="924.881,-68.3933 934,-63 923.508,-61.5292 924.881,-68.3933"/>
<text text-anchor="middle" x="892" y="-83.9" style="font-family:Times New Roman;font-size:14.00;">beta_1</text>
</g>
<!-- 9&#45;&gt;5 -->
<g id="edge28" class="edge"><title>9&#45;&gt;5</title>
<path style="fill:none;stroke:black;" d="M934,-58C874,-55 685,-47 608,-43"/>
<polygon style="fill:black;stroke:black;" points="608,-39.5001 598,-43 608,-46.5001 608,-39.5001"/>
<text text-anchor="middle" x="769" y="-57.9" style="font-family:Times New Roman;font-size:14.00;">beta_2</text>
</g>
</g>
</svg>
