<?xml version="1.0" encoding="UTF-8" standalone="no"?>
<!DOCTYPE svg PUBLIC "-//W3C//DTD SVG 1.1//EN"
 "http://www.w3.org/Graphics/SVG/1.1/DTD/svg11.dtd">
<!-- Generated by graphviz version 12.2.1 (20241206.2353)
 -->
<!-- Title: plant Pages: 1 -->
<svg width="566pt" height="151pt"
 viewBox="0.00 0.00 565.97 151.00" xmlns="http://www.w3.org/2000/svg" xmlns:xlink="http://www.w3.org/1999/xlink">
<g id="graph0" class="graph" transform="scale(1 1) rotate(0) translate(4 147)">
<title>plant</title>
<!-- dot_dummyinit_1 -->
<g id="node1" class="node">
<title>dot_dummyinit_1</title>
</g>
<!-- 1 -->
<g id="node2" class="node">
<title>1</title>
<ellipse fill="none" stroke="black" cx="55.72" cy="-50" rx="18" ry="18"/>
<text text-anchor="middle" x="55.72" y="-44.58" font-family="Arial" font-size="14.00">1</text>
</g>
<!-- dot_dummyinit_1&#45;&gt;1 -->
<g id="edge1" class="edge">
<title>dot_dummyinit_1&#45;&gt;1</title>
<path fill="none" stroke="black" d="M0.87,-50C2.34,-50 13.93,-50 25.99,-50"/>
<polygon fill="black" stroke="black" points="25.86,-53.5 35.86,-50 25.86,-46.5 25.86,-53.5"/>
</g>
<!-- 2 -->
<g id="node3" class="node">
<title>2</title>
<ellipse fill="none" stroke="black" cx="172.22" cy="-100" rx="18" ry="18"/>
<ellipse fill="none" stroke="black" cx="172.22" cy="-100" rx="22" ry="22"/>
<text text-anchor="middle" x="172.22" y="-94.58" font-family="Arial" font-size="14.00">2</text>
</g>
<!-- 1&#45;&gt;2 -->
<g id="edge2" class="edge">
<title>1&#45;&gt;2</title>
<path fill="none" stroke="black" d="M72.64,-56.95C90.3,-64.67 119.2,-77.29 141.16,-86.87"/>
<polygon fill="black" stroke="black" points="139.65,-90.03 150.21,-90.83 142.45,-83.62 139.65,-90.03"/>
<text text-anchor="middle" x="111.97" y="-84.85" font-family="Arial" font-size="14.00">alpha0</text>
</g>
<!-- 5 -->
<g id="node6" class="node">
<title>5</title>
<ellipse fill="none" stroke="black" cx="414.72" cy="-57" rx="18" ry="18"/>
<ellipse fill="none" stroke="black" cx="414.72" cy="-57" rx="22" ry="22"/>
<text text-anchor="middle" x="414.72" y="-51.58" font-family="Arial" font-size="14.00">5</text>
</g>
<!-- 1&#45;&gt;5 -->
<g id="edge3" class="edge">
<title>1&#45;&gt;5</title>
<path fill="none" stroke="black" d="M73.94,-50.34C129.88,-51.43 307.15,-54.91 380.96,-56.36"/>
<polygon fill="black" stroke="black" points="380.71,-59.85 390.78,-56.55 380.85,-52.85 380.71,-59.85"/>
<text text-anchor="middle" x="232.85" y="-56.27" font-family="Arial" font-size="14.00">beta02</text>
</g>
<!-- 6 -->
<g id="node7" class="node">
<title>6</title>
<ellipse fill="none" stroke="black" cx="535.97" cy="-22" rx="18" ry="18"/>
<ellipse fill="none" stroke="black" cx="535.97" cy="-22" rx="22" ry="22"/>
<text text-anchor="middle" x="535.97" y="-16.57" font-family="Arial" font-size="14.00">6</text>
</g>
<!-- 1&#45;&gt;6 -->
<g id="edge4" class="edge">
<title>1&#45;&gt;6</title>
<path fill="none" stroke="black" d="M71.22,-40.45C92.31,-27.51 133.1,-6 171.22,-6 171.22,-6 171.22,-6 415.72,-6 445.38,-6 478.83,-10.92 502.74,-15.31"/>
<polygon fill="black" stroke="black" points="502.01,-18.73 512.49,-17.17 503.32,-11.86 502.01,-18.73"/>
<text text-anchor="middle" x="293.47" y="-8.45" font-family="Arial" font-size="14.00">beta03</text>
</g>
<!-- 3 -->
<g id="node4" class="node">
<title>3</title>
<ellipse fill="none" stroke="black" cx="293.47" cy="-100" rx="18" ry="18"/>
<ellipse fill="none" stroke="black" cx="293.47" cy="-100" rx="22" ry="22"/>
<text text-anchor="middle" x="293.47" y="-94.58" font-family="Arial" font-size="14.00">3</text>
</g>
<!-- 2&#45;&gt;3 -->
<g id="edge5" class="edge">
<title>2&#45;&gt;3</title>
<path fill="none" stroke="black" d="M194.54,-100C212.68,-100 239.04,-100 259.83,-100"/>
<polygon fill="black" stroke="black" points="259.82,-103.5 269.82,-100 259.82,-96.5 259.82,-103.5"/>
<text text-anchor="middle" x="232.85" y="-102.45" font-family="Arial" font-size="14.00">alpha1</text>
</g>
<!-- 4 -->
<g id="node5" class="node">
<title>4</title>
<ellipse fill="none" stroke="black" cx="414.72" cy="-121" rx="18" ry="18"/>
<ellipse fill="none" stroke="black" cx="414.72" cy="-121" rx="22" ry="22"/>
<text text-anchor="middle" x="414.72" y="-115.58" font-family="Arial" font-size="14.00">4</text>
</g>
<!-- 3&#45;&gt;4 -->
<g id="edge6" class="edge">
<title>3&#45;&gt;4</title>
<path fill="none" stroke="black" d="M315.52,-103.71C333.82,-106.93 360.63,-111.65 381.62,-115.35"/>
<polygon fill="black" stroke="black" points="380.94,-118.78 391.39,-117.07 382.15,-111.89 380.94,-118.78"/>
<text text-anchor="middle" x="354.1" y="-116.06" font-family="Arial" font-size="14.00">alpha2</text>
</g>
<!-- 3&#45;&gt;5 -->
<g id="edge7" class="edge">
<title>3&#45;&gt;5</title>
<path fill="none" stroke="black" d="M314.7,-92.71C333.49,-85.93 361.72,-75.75 383.23,-67.99"/>
<polygon fill="black" stroke="black" points="384.15,-71.38 392.37,-64.7 381.77,-64.8 384.15,-71.38"/>
<text text-anchor="middle" x="354.1" y="-87.31" font-family="Arial" font-size="14.00">beta02</text>
</g>
<!-- 4&#45;&gt;6 -->
<g id="edge8" class="edge">
<title>4&#45;&gt;6</title>
<path fill="none" stroke="black" d="M432.3,-107.23C452.41,-90.54 486.52,-62.22 509.86,-42.85"/>
<polygon fill="black" stroke="black" points="511.91,-45.7 517.37,-36.62 507.44,-40.31 511.91,-45.7"/>
<text text-anchor="middle" x="475.35" y="-88.6" font-family="Arial" font-size="14.00">beta03</text>
</g>
</g>
</svg>
