<?xml version="1.0" encoding="UTF-8" standalone="no"?>
<!DOCTYPE svg PUBLIC "-//W3C//DTD SVG 1.1//EN"
 "http://www.w3.org/Graphics/SVG/1.1/DTD/svg11.dtd">
<!-- Generated by graphviz version 12.2.1 (20241206.2353)
 -->
<!-- Title: Generator Pages: 1 -->
<svg width="260pt" height="57pt"
 viewBox="0.00 0.00 259.72 56.72" xmlns="http://www.w3.org/2000/svg" xmlns:xlink="http://www.w3.org/1999/xlink">
<g id="graph0" class="graph" transform="scale(1 1) rotate(0) translate(4 52.72)">
<title>Generator</title>
<!-- dot_dummyinit_1 -->
<g id="node1" class="node">
<title>dot_dummyinit_1</title>
</g>
<!-- 1 -->
<g id="node2" class="node">
<title>1</title>
<ellipse fill="none" stroke="black" cx="59.72" cy="-26.72" rx="18" ry="18"/>
<ellipse fill="none" stroke="black" cx="59.72" cy="-26.72" rx="22" ry="22"/>
<text text-anchor="middle" x="59.72" y="-21.29" font-family="Arial" font-size="14.00">1</text>
</g>
<!-- dot_dummyinit_1&#45;&gt;1 -->
<g id="edge1" class="edge">
<title>dot_dummyinit_1&#45;&gt;1</title>
<path fill="none" stroke="black" d="M0.89,-26.72C2.38,-26.72 13.74,-26.72 26,-26.72"/>
<polygon fill="black" stroke="black" points="25.74,-30.22 35.74,-26.72 25.74,-23.22 25.74,-30.22"/>
</g>
<!-- 2 -->
<g id="node3" class="node">
<title>2</title>
<ellipse fill="none" stroke="black" cx="229.72" cy="-26.72" rx="18" ry="18"/>
<ellipse fill="none" stroke="black" cx="229.72" cy="-26.72" rx="22" ry="22"/>
<text text-anchor="middle" x="229.72" y="-21.29" font-family="Arial" font-size="14.00">2</text>
</g>
<!-- 1&#45;&gt;2 -->
<g id="edge2" class="edge">
<title>1&#45;&gt;2</title>
<path fill="none" stroke="black" d="M82,-26.72C110.83,-26.72 162.55,-26.72 196.25,-26.72"/>
<polygon fill="black" stroke="black" points="195.84,-30.22 205.84,-26.72 195.84,-23.22 195.84,-30.22"/>
<text text-anchor="middle" x="144.72" y="-29.17" font-family="Arial" font-size="14.00">alpha1</text>
</g>
<!-- 2&#45;&gt;1 -->
<g id="edge3" class="edge">
<title>2&#45;&gt;1</title>
<path fill="none" stroke="black" d="M210.76,-15.41C204.37,-11.99 196.95,-8.69 189.72,-6.97 150.81,2.32 138.63,2.32 99.72,-6.97 96.1,-7.83 92.44,-9.09 88.89,-10.56"/>
<polygon fill="black" stroke="black" points="87.58,-7.3 80.05,-14.76 90.58,-13.62 87.58,-7.3"/>
<text text-anchor="middle" x="144.72" y="-9.42" font-family="Arial" font-size="14.00">beta03, beta02</text>
</g>
</g>
</svg>
