<?xml version="1.0" encoding="UTF-8" standalone="no"?>
<!DOCTYPE svg PUBLIC "-//W3C//DTD SVG 1.1//EN"
 "http://www.w3.org/Graphics/SVG/1.1/DTD/svg11.dtd">
<!-- Generated by graphviz version 12.2.1 (20241206.2353)
 -->
<!-- Title: SelfLoop(buffer,Alphabet&#45;Alphabet) Pages: 1 -->
<svg width="259pt" height="83pt"
 viewBox="0.00 0.00 259.10 82.85" xmlns="http://www.w3.org/2000/svg" xmlns:xlink="http://www.w3.org/1999/xlink">
<g id="graph0" class="graph" transform="scale(1 1) rotate(0) translate(4 78.85)">
<title>SelfLoop(buffer,Alphabet&#45;Alphabet)</title>
<!-- dot_dummyinit_1 -->
<g id="node1" class="node">
<title>dot_dummyinit_1</title>
</g>
<!-- E -->
<g id="node2" class="node">
<title>E</title>
<path fill="none" stroke="black" d="M79.72,-41.1C79.72,-41.1 49.72,-41.1 49.72,-41.1 43.72,-41.1 37.72,-35.1 37.72,-29.1 37.72,-29.1 37.72,-17.1 37.72,-17.1 37.72,-11.1 43.72,-5.1 49.72,-5.1 49.72,-5.1 79.72,-5.1 79.72,-5.1 85.72,-5.1 91.72,-11.1 91.72,-17.1 91.72,-17.1 91.72,-29.1 91.72,-29.1 91.72,-35.1 85.72,-41.1 79.72,-41.1"/>
<text text-anchor="start" x="52.22" y="-17.68" font-family="Arial" font-size="14.00">E</text>
<polygon fill="black" stroke="none" points="71.22,-13.23 71.22,-32.98 79.22,-32.98 79.22,-13.23 71.22,-13.23"/>
</g>
<!-- dot_dummyinit_1&#45;&gt;E -->
<g id="edge1" class="edge">
<title>dot_dummyinit_1&#45;&gt;E</title>
<path fill="none" stroke="black" d="M0.77,-23.1C1.57,-23.1 12.96,-23.1 25.83,-23.1"/>
<polygon fill="black" stroke="black" points="25.79,-26.6 35.79,-23.1 25.79,-19.6 25.79,-26.6"/>
</g>
<!-- E&#45;&gt;E -->
<g id="edge2" class="edge">
<title>E&#45;&gt;E</title>
<path fill="none" stroke="black" d="M56.49,-41.25C55.22,-50.64 57.97,-59.1 64.72,-59.1 68.41,-59.1 70.91,-56.57 72.2,-52.74"/>
<polygon fill="black" stroke="black" points="75.7,-52.97 72.85,-42.76 68.71,-52.51 75.7,-52.97"/>
<text text-anchor="middle" x="64.72" y="-61.55" font-family="Arial" font-size="14.00">alpha_1, beta_2</text>
</g>
<!-- F -->
<g id="node3" class="node">
<title>F</title>
<path fill="none" stroke="black" d="M217.72,-41.1C217.72,-41.1 187.72,-41.1 187.72,-41.1 181.72,-41.1 175.72,-35.1 175.72,-29.1 175.72,-29.1 175.72,-17.1 175.72,-17.1 175.72,-11.1 181.72,-5.1 187.72,-5.1 187.72,-5.1 217.72,-5.1 217.72,-5.1 223.72,-5.1 229.72,-11.1 229.72,-17.1 229.72,-17.1 229.72,-29.1 229.72,-29.1 229.72,-35.1 223.72,-41.1 217.72,-41.1"/>
<text text-anchor="middle" x="202.72" y="-17.68" font-family="Arial" font-size="14.00">F</text>
</g>
<!-- E&#45;&gt;F -->
<g id="edge3" class="edge">
<title>E&#45;&gt;F</title>
<path fill="none" stroke="black" d="M91.94,-23.1C112.45,-23.1 141.23,-23.1 164.18,-23.1"/>
<polygon fill="black" stroke="black" points="164.06,-26.6 174.06,-23.1 164.06,-19.6 164.06,-26.6"/>
<text text-anchor="middle" x="133.72" y="-25.55" font-family="Arial" font-size="14.00">beta_1</text>
</g>
<!-- F&#45;&gt;E -->
<g id="edge4" class="edge">
<title>F&#45;&gt;E</title>
<path fill="none" stroke="black" d="M175.34,-9.11C169.67,-6.73 163.62,-4.61 157.72,-3.35 136.86,1.12 130.58,1.12 109.72,-3.35 107.42,-3.84 105.09,-4.47 102.77,-5.19"/>
<polygon fill="black" stroke="black" points="101.69,-1.85 93.52,-8.59 104.11,-8.42 101.69,-1.85"/>
<text text-anchor="middle" x="133.72" y="-5.8" font-family="Arial" font-size="14.00">alpha_2</text>
</g>
<!-- F&#45;&gt;F -->
<g id="edge5" class="edge">
<title>F&#45;&gt;F</title>
<path fill="none" stroke="black" d="M190.24,-41.25C188.32,-50.64 192.48,-59.1 202.72,-59.1 208.48,-59.1 212.32,-56.42 214.23,-52.41"/>
<polygon fill="black" stroke="black" points="217.69,-53.03 215.07,-42.76 210.72,-52.42 217.69,-53.03"/>
<text text-anchor="middle" x="202.72" y="-61.55" font-family="Arial" font-size="14.00">alpha_1, beta_2</text>
</g>
</g>
</svg>
