<?xml version="1.0" encoding="UTF-8" standalone="no"?>
<!DOCTYPE svg PUBLIC "-//W3C//DTD SVG 1.0//EN"
 "http://www.w3.org/TR/2001/REC-SVG-20010904/DTD/svg10.dtd" [
 <!ATTLIST svg xmlns:xlink CDATA #FIXED "http://www.w3.org/1999/xlink">
]>
<!-- Generated by Graphviz version 2.20.2 (Tue Mar &#160;2 21:46:26 UTC 2010)
     For user: (mtmoor) Prof. Thomas Moor -->
<!-- Title: SupConCmplNB(A&#45;B&#45;Machine, PrefixClosure(A&#45;B&#45;Spec&#45;Keep&#45;Running|||A&#45;B&#45;Machine)) [minstate] Pages: 1 -->
<svg width="252pt" height="71pt"
 viewBox="0.00 0.00 252.00 71.00" xmlns="http://www.w3.org/2000/svg" xmlns:xlink="http://www.w3.org/1999/xlink">
<g id="graph0" class="graph" transform="scale(1 1) rotate(0) translate(4 67)">
<title>SupConCmplNB(A&#45;B&#45;Machine, PrefixClosure(A&#45;B&#45;Spec&#45;Keep&#45;Running|||A&#45;B&#45;Machine)) [minstate]</title>
<polygon style="fill:none;stroke:none;" points="-4,4 -4,-67 248,-67 248,4 -4,4"/>
<!-- dot_dummyinit_1 -->
<g id="node1" class="node"><title>dot_dummyinit_1</title>
</g>
<!-- 2 -->
<g id="node3" class="node"><title>2</title>
<ellipse style="fill:none;stroke:black;" cx="62" cy="-29" rx="18" ry="18"/>
<ellipse style="fill:none;stroke:black;" cx="62" cy="-29" rx="22" ry="22"/>
<text text-anchor="middle" x="62" y="-24.9" style="font-family:Times New Roman;font-size:14.00;">2</text>
</g>
<!-- dot_dummyinit_1&#45;&gt;2 -->
<g id="edge2" class="edge"><title>dot_dummyinit_1&#45;&gt;2</title>
<path style="fill:none;stroke:black;" d="M2,-29C5,-29 17,-29 30,-29"/>
<polygon style="fill:black;stroke:black;" points="30,-32.5001 40,-29 30,-25.5001 30,-32.5001"/>
</g>
<!-- 3 -->
<g id="node5" class="node"><title>3</title>
<ellipse style="fill:none;stroke:black;" cx="146" cy="-29" rx="18" ry="18"/>
<text text-anchor="middle" x="146" y="-24.9" style="font-family:Times New Roman;font-size:14.00;">3</text>
</g>
<!-- 2&#45;&gt;3 -->
<g id="edge8" class="edge"><title>2&#45;&gt;3</title>
<path style="fill:none;stroke:black;" d="M80,-41C89,-46 100,-49 110,-47 114,-46 117,-45 121,-43"/>
<polygon style="fill:black;stroke:black;" points="122.283,-46.2598 130,-39 119.44,-39.8631 122.283,-46.2598"/>
<text text-anchor="middle" x="106" y="-50.9" style="font-family:Times New Roman;font-size:14.00;">a</text>
</g>
<!-- 2&#45;&gt;3 -->
<g id="edge10" class="edge"><title>2&#45;&gt;3</title>
<path style="fill:none;stroke:black;" d="M84,-26C92,-25 102,-24 110,-25 113,-25 115,-25 118,-25"/>
<polygon style="fill:black;stroke:black;" points="117.701,-28.4875 128,-26 118.398,-21.5222 117.701,-28.4875"/>
<text text-anchor="middle" x="106" y="-28.9" style="font-family:Times New Roman;font-size:14.00;">b</text>
</g>
<!-- 1 -->
<g id="node4" class="node"><title>1</title>
<ellipse style="fill:none;stroke:black;" cx="226" cy="-29" rx="18" ry="18"/>
<text text-anchor="middle" x="226" y="-24.9" style="font-family:Times New Roman;font-size:14.00;">1</text>
</g>
<!-- 1&#45;&gt;3 -->
<g id="edge4" class="edge"><title>1&#45;&gt;3</title>
<path style="fill:none;stroke:black;" d="M208,-29C198,-29 185,-29 174,-29"/>
<polygon style="fill:black;stroke:black;" points="174,-25.5001 164,-29 174,-32.5001 174,-25.5001"/>
<text text-anchor="middle" x="186" y="-32.9" style="font-family:Times New Roman;font-size:14.00;">a</text>
</g>
<!-- 1&#45;&gt;3 -->
<g id="edge6" class="edge"><title>1&#45;&gt;3</title>
<path style="fill:none;stroke:black;" d="M213,-17C204,-11 193,-5 182,-8 178,-9 174,-11 170,-13"/>
<polygon style="fill:black;stroke:black;" points="168.042,-10.084 161,-18 171.441,-16.2031 168.042,-10.084"/>
<text text-anchor="middle" x="186" y="-11.9" style="font-family:Times New Roman;font-size:14.00;">b</text>
</g>
<!-- 3&#45;&gt;2 -->
<g id="edge12" class="edge"><title>3&#45;&gt;2</title>
<path style="fill:none;stroke:black;" d="M133,-16C127,-11 119,-5 110,-2 101,1 93,-2 85,-7"/>
<polygon style="fill:black;stroke:black;" points="82.9,-4.19995 77,-13 87.1,-9.79997 82.9,-4.19995"/>
<text text-anchor="middle" x="106" y="-5.9" style="font-family:Times New Roman;font-size:14.00;">c</text>
</g>
<!-- 3&#45;&gt;1 -->
<g id="edge14" class="edge"><title>3&#45;&gt;1</title>
<path style="fill:none;stroke:black;" d="M161,-40C169,-45 180,-49 190,-47 194,-46 197,-45 201,-43"/>
<polygon style="fill:black;stroke:black;" points="202.283,-46.2598 210,-39 199.44,-39.8631 202.283,-46.2598"/>
<text text-anchor="middle" x="186" y="-50.9" style="font-family:Times New Roman;font-size:14.00;">d</text>
</g>
</g>
</svg>
