<?xml version="1.0" encoding="UTF-8" standalone="no"?>
<!DOCTYPE svg PUBLIC "-//W3C//DTD SVG 1.0//EN"
 "http://www.w3.org/TR/2001/REC-SVG-20010904/DTD/svg10.dtd" [
 <!ATTLIST svg xmlns:xlink CDATA #FIXED "http://www.w3.org/1999/xlink">
]>
<!-- Generated by Graphviz version 2.20.2 (Tue Mar &#160;2 21:46:26 UTC 2010)
     For user: (mtmoor) Prof. Thomas Moor -->
<!-- Title: two place buffer Pages: 1 -->
<svg width="380pt" height="62pt"
 viewBox="0.00 0.00 380.00 62.00" xmlns="http://www.w3.org/2000/svg" xmlns:xlink="http://www.w3.org/1999/xlink">
<g id="graph0" class="graph" transform="scale(1 1) rotate(0) translate(4 58)">
<title>two place buffer</title>
<polygon style="fill:none;stroke:none;" points="-4,4 -4,-58 376,-58 376,4 -4,4"/>
<!-- dot_dummyinit_1 -->
<g id="node1" class="node"><title>dot_dummyinit_1</title>
</g>
<!-- E -->
<g id="node3" class="node"><title>E</title>
<ellipse style="fill:none;stroke:black;" cx="62" cy="-27" rx="18" ry="18"/>
<ellipse style="fill:none;stroke:black;" cx="62" cy="-27" rx="22" ry="22"/>
<text text-anchor="middle" x="62" y="-22.9" style="font-family:Times New Roman;font-size:14.00;">E</text>
</g>
<!-- dot_dummyinit_1&#45;&gt;E -->
<g id="edge2" class="edge"><title>dot_dummyinit_1&#45;&gt;E</title>
<path style="fill:none;stroke:black;" d="M2,-27C5,-27 17,-27 30,-27"/>
<polygon style="fill:black;stroke:black;" points="30,-30.5001 40,-27 30,-23.5001 30,-30.5001"/>
</g>
<!-- F1 -->
<g id="node4" class="node"><title>F1</title>
<ellipse style="fill:none;stroke:black;" cx="201" cy="-27" rx="22.9311" ry="22.9311"/>
<ellipse style="fill:none;stroke:black;" cx="201" cy="-27" rx="26.9311" ry="26.9311"/>
<text text-anchor="middle" x="201" y="-22.9" style="font-family:Times New Roman;font-size:14.00;">F1</text>
</g>
<!-- E&#45;&gt;F1 -->
<g id="edge4" class="edge"><title>E&#45;&gt;F1</title>
<path style="fill:none;stroke:black;" d="M84,-27C105,-27 138,-27 164,-27"/>
<polygon style="fill:black;stroke:black;" points="164,-30.5001 174,-27 164,-23.5001 164,-30.5001"/>
<text text-anchor="middle" x="129" y="-30.9" style="font-family:Times New Roman;font-size:14.00;">beta_1</text>
</g>
<!-- F1&#45;&gt;E -->
<g id="edge8" class="edge"><title>F1&#45;&gt;E</title>
<path style="fill:none;stroke:black;" d="M178,-13C171,-10 163,-7 156,-6 133,-1 126,-1 102,-6 98,-7 94,-8 90,-10"/>
<polygon style="fill:black;stroke:black;" points="88.0418,-7.08397 81,-15 91.4414,-13.2031 88.0418,-7.08397"/>
<text text-anchor="middle" x="129" y="-10.9" style="font-family:Times New Roman;font-size:14.00;">alpha_2</text>
</g>
<!-- F2 -->
<g id="node5" class="node"><title>F2</title>
<ellipse style="fill:none;stroke:black;" cx="345" cy="-27" rx="22.9311" ry="22.9311"/>
<ellipse style="fill:none;stroke:black;" cx="345" cy="-27" rx="26.9311" ry="26.9311"/>
<text text-anchor="middle" x="345" y="-22.9" style="font-family:Times New Roman;font-size:14.00;">F2</text>
</g>
<!-- F1&#45;&gt;F2 -->
<g id="edge6" class="edge"><title>F1&#45;&gt;F2</title>
<path style="fill:none;stroke:black;" d="M228,-27C251,-27 283,-27 308,-27"/>
<polygon style="fill:black;stroke:black;" points="308,-30.5001 318,-27 308,-23.5001 308,-30.5001"/>
<text text-anchor="middle" x="273" y="-30.9" style="font-family:Times New Roman;font-size:14.00;">beta_1</text>
</g>
<!-- F2&#45;&gt;F1 -->
<g id="edge10" class="edge"><title>F2&#45;&gt;F1</title>
<path style="fill:none;stroke:black;" d="M322,-13C315,-10 307,-7 300,-6 277,-1 270,-1 246,-6 242,-7 238,-8 235,-9"/>
<polygon style="fill:black;stroke:black;" points="232.985,-6.03636 225,-13 235.585,-12.5357 232.985,-6.03636"/>
<text text-anchor="middle" x="273" y="-10.9" style="font-family:Times New Roman;font-size:14.00;">alpha_2</text>
</g>
</g>
</svg>
