<?xml version="1.0" encoding="UTF-8" standalone="no"?>
<!DOCTYPE svg PUBLIC "-//W3C//DTD SVG 1.1//EN"
 "http://www.w3.org/Graphics/SVG/1.1/DTD/svg11.dtd">
<!-- Generated by graphviz version 12.2.1 (20241206.2353)
 -->
<!-- Title: supervisor Pages: 1 -->
<svg width="720pt" height="98pt"
 viewBox="0.00 0.00 720.00 97.69" xmlns="http://www.w3.org/2000/svg" xmlns:xlink="http://www.w3.org/1999/xlink">
<g id="graph0" class="graph" transform="scale(0.915774 0.915774) rotate(0) translate(4 102.68)">
<title>supervisor</title>
<!-- dot_dummyinit_1 -->
<g id="node1" class="node">
<title>dot_dummyinit_1</title>
</g>
<!-- I|I|E -->
<g id="node2" class="node">
<title>I|I|E</title>
<path fill="none" stroke="black" d="M89.72,-84.55C89.72,-84.55 49.72,-84.55 49.72,-84.55 43.72,-84.55 37.72,-78.55 37.72,-72.55 37.72,-72.55 37.72,-60.55 37.72,-60.55 37.72,-54.55 43.72,-48.55 49.72,-48.55 49.72,-48.55 89.72,-48.55 89.72,-48.55 95.72,-48.55 101.72,-54.55 101.72,-60.55 101.72,-60.55 101.72,-72.55 101.72,-72.55 101.72,-78.55 95.72,-84.55 89.72,-84.55"/>
<text text-anchor="start" x="49.72" y="-61.12" font-family="Arial" font-size="14.00">I|I|E</text>
<polygon fill="black" stroke="none" points="83.72,-56.67 83.72,-76.42 91.72,-76.42 91.72,-56.67 83.72,-56.67"/>
</g>
<!-- dot_dummyinit_1&#45;&gt;I|I|E -->
<g id="edge1" class="edge">
<title>dot_dummyinit_1&#45;&gt;I|I|E</title>
<path fill="none" stroke="black" d="M0.77,-66.55C1.61,-66.55 12.96,-66.55 26.15,-66.55"/>
<polygon fill="black" stroke="black" points="25.96,-70.05 35.96,-66.55 25.96,-63.05 25.96,-70.05"/>
</g>
<!-- B|I|E -->
<g id="node3" class="node">
<title>B|I|E</title>
<path fill="none" stroke="black" d="M227.72,-56.55C227.72,-56.55 197.72,-56.55 197.72,-56.55 191.72,-56.55 185.72,-50.55 185.72,-44.55 185.72,-44.55 185.72,-32.55 185.72,-32.55 185.72,-26.55 191.72,-20.55 197.72,-20.55 197.72,-20.55 227.72,-20.55 227.72,-20.55 233.72,-20.55 239.72,-26.55 239.72,-32.55 239.72,-32.55 239.72,-44.55 239.72,-44.55 239.72,-50.55 233.72,-56.55 227.72,-56.55"/>
<text text-anchor="middle" x="212.72" y="-33.12" font-family="Arial" font-size="14.00">B|I|E</text>
</g>
<!-- I|I|E&#45;&gt;B|I|E -->
<g id="edge2" class="edge">
<title>I|I|E&#45;&gt;B|I|E</title>
<path fill="none" stroke="black" d="M102.01,-60.33C123.29,-56.11 151.56,-50.49 174.07,-46.02"/>
<polygon fill="black" stroke="black" points="174.64,-49.48 183.77,-44.1 173.28,-42.61 174.64,-49.48"/>
<text text-anchor="middle" x="143.72" y="-59.14" font-family="Arial" font-size="14.00">alpha_1</text>
</g>
<!-- I|I|F -->
<g id="node4" class="node">
<title>I|I|F</title>
<path fill="none" stroke="black" d="M358.97,-56.55C358.97,-56.55 328.97,-56.55 328.97,-56.55 322.97,-56.55 316.97,-50.55 316.97,-44.55 316.97,-44.55 316.97,-32.55 316.97,-32.55 316.97,-26.55 322.97,-20.55 328.97,-20.55 328.97,-20.55 358.97,-20.55 358.97,-20.55 364.97,-20.55 370.97,-26.55 370.97,-32.55 370.97,-32.55 370.97,-44.55 370.97,-44.55 370.97,-50.55 364.97,-56.55 358.97,-56.55"/>
<text text-anchor="middle" x="343.97" y="-33.12" font-family="Arial" font-size="14.00">I|I|F</text>
</g>
<!-- B|I|E&#45;&gt;I|I|F -->
<g id="edge3" class="edge">
<title>B|I|E&#45;&gt;I|I|F</title>
<path fill="none" stroke="black" d="M240.19,-38.55C258.92,-38.55 284.32,-38.55 305.18,-38.55"/>
<polygon fill="black" stroke="black" points="305.02,-42.05 315.02,-38.55 305.02,-35.05 305.02,-42.05"/>
<text text-anchor="middle" x="278.35" y="-41" font-family="Arial" font-size="14.00">beta_1</text>
</g>
<!-- I|B|E -->
<g id="node5" class="node">
<title>I|B|E</title>
<path fill="none" stroke="black" d="M496.97,-89.55C496.97,-89.55 466.97,-89.55 466.97,-89.55 460.97,-89.55 454.97,-83.55 454.97,-77.55 454.97,-77.55 454.97,-65.55 454.97,-65.55 454.97,-59.55 460.97,-53.55 466.97,-53.55 466.97,-53.55 496.97,-53.55 496.97,-53.55 502.97,-53.55 508.97,-59.55 508.97,-65.55 508.97,-65.55 508.97,-77.55 508.97,-77.55 508.97,-83.55 502.97,-89.55 496.97,-89.55"/>
<text text-anchor="middle" x="481.97" y="-66.12" font-family="Arial" font-size="14.00">I|B|E</text>
</g>
<!-- I|I|F&#45;&gt;I|B|E -->
<g id="edge4" class="edge">
<title>I|I|F&#45;&gt;I|B|E</title>
<path fill="none" stroke="black" d="M371.2,-44.36C389.64,-48.5 414.86,-54.29 436.97,-59.8 439.1,-60.33 441.28,-60.88 443.49,-61.45"/>
<polygon fill="black" stroke="black" points="442.46,-64.8 453.02,-63.94 444.23,-58.02 442.46,-64.8"/>
<text text-anchor="middle" x="412.97" y="-62.25" font-family="Arial" font-size="14.00">alpha_2</text>
</g>
<!-- I|B|E&#45;&gt;I|I|E -->
<g id="edge6" class="edge">
<title>I|B|E&#45;&gt;I|I|E</title>
<path fill="none" stroke="black" d="M454.47,-74.35C448.71,-74.85 442.64,-75.29 436.97,-75.55 296.11,-81.94 260.14,-88.34 119.72,-75.55 117.56,-75.35 115.34,-75.11 113.12,-74.82"/>
<polygon fill="black" stroke="black" points="113.87,-71.4 103.47,-73.39 112.84,-78.32 113.87,-71.4"/>
<text text-anchor="middle" x="278.35" y="-85.38" font-family="Arial" font-size="14.00">beta_2</text>
</g>
<!-- B|B|E -->
<g id="node6" class="node">
<title>B|B|E</title>
<path fill="none" stroke="black" d="M634.97,-89.55C634.97,-89.55 604.97,-89.55 604.97,-89.55 598.97,-89.55 592.97,-83.55 592.97,-77.55 592.97,-77.55 592.97,-65.55 592.97,-65.55 592.97,-59.55 598.97,-53.55 604.97,-53.55 604.97,-53.55 634.97,-53.55 634.97,-53.55 640.97,-53.55 646.97,-59.55 646.97,-65.55 646.97,-65.55 646.97,-77.55 646.97,-77.55 646.97,-83.55 640.97,-89.55 634.97,-89.55"/>
<text text-anchor="middle" x="619.97" y="-66.12" font-family="Arial" font-size="14.00">B|B|E</text>
</g>
<!-- I|B|E&#45;&gt;B|B|E -->
<g id="edge5" class="edge">
<title>I|B|E&#45;&gt;B|B|E</title>
<path fill="none" stroke="black" d="M509.19,-71.55C529.7,-71.55 558.48,-71.55 581.43,-71.55"/>
<polygon fill="black" stroke="black" points="581.31,-75.05 591.31,-71.55 581.31,-68.05 581.31,-75.05"/>
<text text-anchor="middle" x="550.97" y="-74" font-family="Arial" font-size="14.00">alpha_1</text>
</g>
<!-- B|B|E&#45;&gt;B|I|E -->
<g id="edge8" class="edge">
<title>B|B|E&#45;&gt;B|I|E</title>
<path fill="none" stroke="black" d="M601.27,-53.18C593.79,-46.53 584.59,-39.65 574.97,-35.55 469.05,9.64 431.19,3.14 316.97,-11.55 294.7,-14.41 270.37,-20.62 250.92,-26.36"/>
<polygon fill="black" stroke="black" points="250.09,-22.95 241.54,-29.21 252.13,-29.65 250.09,-22.95"/>
<text text-anchor="middle" x="412.97" y="-5.29" font-family="Arial" font-size="14.00">beta_2</text>
</g>
<!-- I|B|F -->
<g id="node7" class="node">
<title>I|B|F</title>
<path fill="none" stroke="black" d="M766.22,-59.55C766.22,-59.55 736.22,-59.55 736.22,-59.55 730.22,-59.55 724.22,-53.55 724.22,-47.55 724.22,-47.55 724.22,-35.55 724.22,-35.55 724.22,-29.55 730.22,-23.55 736.22,-23.55 736.22,-23.55 766.22,-23.55 766.22,-23.55 772.22,-23.55 778.22,-29.55 778.22,-35.55 778.22,-35.55 778.22,-47.55 778.22,-47.55 778.22,-53.55 772.22,-59.55 766.22,-59.55"/>
<text text-anchor="middle" x="751.22" y="-36.12" font-family="Arial" font-size="14.00">I|B|F</text>
</g>
<!-- B|B|E&#45;&gt;I|B|F -->
<g id="edge7" class="edge">
<title>B|B|E&#45;&gt;I|B|F</title>
<path fill="none" stroke="black" d="M647.44,-65.4C666.26,-61.04 691.8,-55.11 712.72,-50.25"/>
<polygon fill="black" stroke="black" points="713.36,-53.7 722.31,-48.03 711.78,-46.88 713.36,-53.7"/>
<text text-anchor="middle" x="685.6" y="-63.44" font-family="Arial" font-size="14.00">beta_1</text>
</g>
<!-- I|B|F&#45;&gt;I|I|F -->
<g id="edge9" class="edge">
<title>I|B|F&#45;&gt;I|I|F</title>
<path fill="none" stroke="black" d="M723.74,-41.35C653.78,-40.83 463.87,-39.43 382.64,-38.83"/>
<polygon fill="black" stroke="black" points="382.79,-35.33 372.76,-38.75 382.73,-42.33 382.79,-35.33"/>
<text text-anchor="middle" x="550.97" y="-42.67" font-family="Arial" font-size="14.00">beta_2</text>
</g>
</g>
</svg>
