<?xml version="1.0" encoding="UTF-8" standalone="no"?>
<!DOCTYPE svg PUBLIC "-//W3C//DTD SVG 1.0//EN"
 "http://www.w3.org/TR/2001/REC-SVG-20010904/DTD/svg10.dtd" [
 <!ATTLIST svg xmlns:xlink CDATA #FIXED "http://www.w3.org/1999/xlink">
]>
<!-- Generated by Graphviz version 2.20.2 (Tue Mar &#160;2 21:46:26 UTC 2010)
     For user: (mtmoor) Prof. Thomas Moor -->
<!-- Title: Generator Pages: 1 -->
<svg width="222pt" height="82pt"
 viewBox="0.00 0.00 222.00 82.00" xmlns="http://www.w3.org/2000/svg" xmlns:xlink="http://www.w3.org/1999/xlink">
<g id="graph0" class="graph" transform="scale(1 1) rotate(0) translate(4 78)">
<title>Generator</title>
<polygon style="fill:none;stroke:none;" points="-4,4 -4,-78 218,-78 218,4 -4,4"/>
<!-- dot_dummyinit_1 -->
<g id="node1" class="node"><title>dot_dummyinit_1</title>
</g>
<!-- 1 -->
<g id="node3" class="node"><title>1</title>
<ellipse style="fill:none;stroke:black;" cx="62" cy="-38" rx="18" ry="18"/>
<ellipse style="fill:none;stroke:black;" cx="62" cy="-38" rx="22" ry="22"/>
<text text-anchor="middle" x="62" y="-33.9" style="font-family:Times New Roman;font-size:14.00;">1</text>
</g>
<!-- dot_dummyinit_1&#45;&gt;1 -->
<g id="edge2" class="edge"><title>dot_dummyinit_1&#45;&gt;1</title>
<path style="fill:none;stroke:black;" d="M2,-38C5,-38 17,-38 30,-38"/>
<polygon style="fill:black;stroke:black;" points="30,-41.5001 40,-38 30,-34.5001 30,-41.5001"/>
</g>
<!-- 2 -->
<g id="node4" class="node"><title>2</title>
<ellipse style="fill:none;stroke:black;" cx="192" cy="-38" rx="18" ry="18"/>
<ellipse style="fill:none;stroke:black;" cx="192" cy="-38" rx="22" ry="22"/>
<text text-anchor="middle" x="192" y="-33.9" style="font-family:Times New Roman;font-size:14.00;">2</text>
</g>
<!-- 1&#45;&gt;2 -->
<g id="edge4" class="edge"><title>1&#45;&gt;2</title>
<path style="fill:none;stroke:black;" d="M82,-48C88,-51 95,-54 102,-56 124,-60 131,-60 152,-56 156,-55 160,-54 163,-52"/>
<polygon style="fill:black;stroke:black;" points="165.015,-54.9636 173,-48 162.415,-48.4643 165.015,-54.9636"/>
<text text-anchor="middle" x="127" y="-61.9" style="font-family:Times New Roman;font-size:14.00;">alpha1</text>
</g>
<!-- 2&#45;&gt;1 -->
<g id="edge6" class="edge"><title>2&#45;&gt;1</title>
<path style="fill:none;stroke:black;" d="M170,-34C164,-33 158,-32 152,-32 130,-30 125,-30 102,-32 99,-32 97,-32 94,-32"/>
<polygon style="fill:black;stroke:black;" points="93.1194,-28.6067 84,-34 94.4922,-35.4708 93.1194,-28.6067"/>
<text text-anchor="middle" x="127" y="-35.9" style="font-family:Times New Roman;font-size:14.00;">beta03</text>
</g>
<!-- 2&#45;&gt;1 -->
<g id="edge8" class="edge"><title>2&#45;&gt;1</title>
<path style="fill:none;stroke:black;" d="M176,-22C170,-17 161,-11 152,-8 131,-0 124,-0 102,-8 96,-10 91,-13 86,-16"/>
<polygon style="fill:black;stroke:black;" points="83.9,-13.2 78,-22 88.1,-18.8 83.9,-13.2"/>
<text text-anchor="middle" x="127" y="-11.9" style="font-family:Times New Roman;font-size:14.00;">beta02</text>
</g>
</g>
</svg>
