<?xml version="1.0" encoding="UTF-8" standalone="no"?>
<!DOCTYPE svg PUBLIC "-//W3C//DTD SVG 1.1//EN"
 "http://www.w3.org/Graphics/SVG/1.1/DTD/svg11.dtd">
<!-- Generated by graphviz version 2.26.3 (20100126.1600)
 -->
<!-- Title: Project(process and transport) Pages: 1 -->
<svg width="172pt" height="82pt"
 viewBox="0.00 0.00 172.00 82.00" xmlns="http://www.w3.org/2000/svg" xmlns:xlink="http://www.w3.org/1999/xlink">
<g id="graph1" class="graph" transform="scale(1 1) rotate(0) translate(4 78)">
<title>Project(process and transport)</title>
<!-- dot_dummyinit_1 -->
<g id="node1" class="node"><title>dot_dummyinit_1</title>
</g>
<!-- 2 -->
<g id="node3" class="node"><title>2</title>
<ellipse fill="none" stroke="black" cx="62" cy="-22" rx="18" ry="18"/>
<ellipse fill="none" stroke="black" cx="62" cy="-22" rx="22" ry="22"/>
<text text-anchor="middle" x="62" y="-17.4" font-family="Arial" font-size="14.00">2</text>
</g>
<!-- dot_dummyinit_1&#45;&gt;2 -->
<g id="edge2" class="edge"><title>dot_dummyinit_1&#45;&gt;2</title>
<path fill="none" stroke="black" d="M1.68506,-22C4.68023,-22 17.0458,-22 29.8077,-22"/>
<polygon fill="black" stroke="black" points="29.9561,-25.5001 39.956,-22 29.956,-18.5001 29.9561,-25.5001"/>
</g>
<!-- 1 -->
<g id="node4" class="node"><title>1</title>
<ellipse fill="none" stroke="black" cx="146" cy="-22" rx="18" ry="18"/>
<text text-anchor="middle" x="146" y="-17.4" font-family="Arial" font-size="14.00">1</text>
</g>
<!-- 2&#45;&gt;1 -->
<g id="edge8" class="edge"><title>2&#45;&gt;1</title>
<path fill="none" stroke="black" d="M84.07,-22C94.2779,-22 106.53,-22 117.433,-22"/>
<polygon fill="black" stroke="black" points="117.76,-25.5001 127.76,-22 117.76,-18.5001 117.76,-25.5001"/>
<text text-anchor="middle" x="106" y="-25.4" font-family="Arial" font-size="14.00">r</text>
</g>
<!-- 1&#45;&gt;2 -->
<g id="edge4" class="edge"><title>1&#45;&gt;2</title>
<path fill="none" stroke="black" d="M130.477,-12.2643C124.34,-8.95343 117.073,-5.66967 110,-4 103.249,-2.40633 96.1598,-3.45137 89.5639,-5.67615"/>
<polygon fill="black" stroke="black" points="88.1726,-2.46444 80.35,-9.60991 90.9212,-8.90227 88.1726,-2.46444"/>
<text text-anchor="middle" x="106" y="-7.4" font-family="Arial" font-size="14.00">a</text>
</g>
<!-- 1&#45;&gt;1 -->
<g id="edge6" class="edge"><title>1&#45;&gt;1</title>
<path fill="none" stroke="black" d="M138.969,-38.6641C137.406,-48.625 139.75,-58 146,-58 150.004,-58 152.405,-54.1525 153.202,-48.7682"/>
<polygon fill="black" stroke="black" points="156.7,-48.6033 153.031,-38.6641 149.701,-48.7219 156.7,-48.6033"/>
<text text-anchor="middle" x="146" y="-61.4" font-family="Arial" font-size="14.00">p</text>
</g>
</g>
</svg>
