<?xml version="1.0" encoding="UTF-8" standalone="no"?>
<!DOCTYPE svg PUBLIC "-//W3C//DTD SVG 1.1//EN"
 "http://www.w3.org/Graphics/SVG/1.1/DTD/svg11.dtd">
<!-- Generated by graphviz version 12.2.1 (20241206.2353)
 -->
<!-- Title: PrefixClosure(very simple machine_1||very simple machine_2) Pages: 1 -->
<svg width="526pt" height="91pt"
 viewBox="0.00 0.00 526.47 91.06" xmlns="http://www.w3.org/2000/svg" xmlns:xlink="http://www.w3.org/1999/xlink">
<g id="graph0" class="graph" transform="scale(1 1) rotate(0) translate(4 87.06)">
<title>PrefixClosure(very simple machine_1||very simple machine_2)</title>
<!-- dot_dummyinit_1 -->
<g id="node1" class="node">
<title>dot_dummyinit_1</title>
</g>
<!-- I|I -->
<g id="node2" class="node">
<title>I|I</title>
<path fill="none" stroke="black" d="M79.72,-40.06C79.72,-40.06 49.72,-40.06 49.72,-40.06 43.72,-40.06 37.72,-34.06 37.72,-28.06 37.72,-28.06 37.72,-16.06 37.72,-16.06 37.72,-10.06 43.72,-4.06 49.72,-4.06 49.72,-4.06 79.72,-4.06 79.72,-4.06 85.72,-4.06 91.72,-10.06 91.72,-16.06 91.72,-16.06 91.72,-28.06 91.72,-28.06 91.72,-34.06 85.72,-40.06 79.72,-40.06"/>
<text text-anchor="start" x="51.1" y="-16.63" font-family="Arial" font-size="14.00">I|I</text>
<polygon fill="black" stroke="none" points="72.35,-12.18 72.35,-31.93 80.35,-31.93 80.35,-12.18 72.35,-12.18"/>
</g>
<!-- dot_dummyinit_1&#45;&gt;I|I -->
<g id="edge1" class="edge">
<title>dot_dummyinit_1&#45;&gt;I|I</title>
<path fill="none" stroke="black" d="M0.77,-22.06C1.57,-22.06 12.96,-22.06 25.83,-22.06"/>
<polygon fill="black" stroke="black" points="25.79,-25.56 35.79,-22.06 25.79,-18.56 25.79,-25.56"/>
</g>
<!-- B|I -->
<g id="node3" class="node">
<title>B|I</title>
<path fill="none" stroke="black" d="M220.22,-83.06C220.22,-83.06 187.72,-83.06 187.72,-83.06 181.72,-83.06 175.72,-77.06 175.72,-71.06 175.72,-71.06 175.72,-59.06 175.72,-59.06 175.72,-53.06 181.72,-47.06 187.72,-47.06 187.72,-47.06 220.22,-47.06 220.22,-47.06 226.22,-47.06 232.22,-53.06 232.22,-59.06 232.22,-59.06 232.22,-71.06 232.22,-71.06 232.22,-77.06 226.22,-83.06 220.22,-83.06"/>
<text text-anchor="start" x="187.72" y="-59.63" font-family="Arial" font-size="14.00">B|I</text>
<polygon fill="black" stroke="none" points="214.22,-55.18 214.22,-74.93 222.22,-74.93 222.22,-55.18 214.22,-55.18"/>
</g>
<!-- I|I&#45;&gt;B|I -->
<g id="edge2" class="edge">
<title>I|I&#45;&gt;B|I</title>
<path fill="none" stroke="black" d="M84.39,-40.23C91.72,-46.3 100.56,-52.43 109.72,-56.06 126.8,-62.82 146.96,-65.37 164.15,-66.11"/>
<polygon fill="black" stroke="black" points="163.92,-69.6 174,-66.32 164.08,-62.6 163.92,-69.6"/>
<text text-anchor="middle" x="133.72" y="-68.14" font-family="Arial" font-size="14.00">alpha_1</text>
</g>
<!-- I|B -->
<g id="node4" class="node">
<title>I|B</title>
<path fill="none" stroke="black" d="M506.47,-40.06C506.47,-40.06 473.97,-40.06 473.97,-40.06 467.97,-40.06 461.97,-34.06 461.97,-28.06 461.97,-28.06 461.97,-16.06 461.97,-16.06 461.97,-10.06 467.97,-4.06 473.97,-4.06 473.97,-4.06 506.47,-4.06 506.47,-4.06 512.47,-4.06 518.47,-10.06 518.47,-16.06 518.47,-16.06 518.47,-28.06 518.47,-28.06 518.47,-34.06 512.47,-40.06 506.47,-40.06"/>
<text text-anchor="start" x="473.97" y="-16.63" font-family="Arial" font-size="14.00">I|B</text>
<polygon fill="black" stroke="none" points="500.47,-12.18 500.47,-31.93 508.47,-31.93 508.47,-12.18 500.47,-12.18"/>
</g>
<!-- I|I&#45;&gt;I|B -->
<g id="edge3" class="edge">
<title>I|I&#45;&gt;I|B</title>
<path fill="none" stroke="black" d="M91.78,-21.37C97.68,-21.24 103.91,-21.13 109.72,-21.06 131.05,-20.82 136.39,-21.03 157.72,-21.06 263.69,-21.22 388.72,-21.67 450.57,-21.91"/>
<polygon fill="black" stroke="black" points="450.19,-25.4 460.2,-21.94 450.22,-18.4 450.19,-25.4"/>
<text text-anchor="middle" x="274.22" y="-23.83" font-family="Arial" font-size="14.00">alpha_2</text>
</g>
<!-- B|I&#45;&gt;I|I -->
<g id="edge4" class="edge">
<title>B|I&#45;&gt;I|I</title>
<path fill="none" stroke="black" d="M178.1,-46.7C171.72,-42.72 164.69,-38.93 157.72,-36.31 140.39,-29.79 120.15,-26.25 103.07,-24.33"/>
<polygon fill="black" stroke="black" points="103.62,-20.87 93.33,-23.39 102.95,-27.84 103.62,-20.87"/>
<text text-anchor="middle" x="133.72" y="-38.76" font-family="Arial" font-size="14.00">beta_1</text>
</g>
<!-- B|B -->
<g id="node5" class="node">
<title>B|B</title>
<path fill="none" stroke="black" d="M365.97,-83.06C365.97,-83.06 328.22,-83.06 328.22,-83.06 322.22,-83.06 316.22,-77.06 316.22,-71.06 316.22,-71.06 316.22,-59.06 316.22,-59.06 316.22,-53.06 322.22,-47.06 328.22,-47.06 328.22,-47.06 365.97,-47.06 365.97,-47.06 371.97,-47.06 377.97,-53.06 377.97,-59.06 377.97,-59.06 377.97,-71.06 377.97,-71.06 377.97,-77.06 371.97,-83.06 365.97,-83.06"/>
<text text-anchor="start" x="328.22" y="-59.63" font-family="Arial" font-size="14.00">B|B</text>
<polygon fill="black" stroke="none" points="359.97,-55.18 359.97,-74.93 367.97,-74.93 367.97,-55.18 359.97,-55.18"/>
</g>
<!-- B|I&#45;&gt;B|B -->
<g id="edge5" class="edge">
<title>B|I&#45;&gt;B|B</title>
<path fill="none" stroke="black" d="M232.52,-65.06C253.1,-65.06 281.59,-65.06 304.88,-65.06"/>
<polygon fill="black" stroke="black" points="304.67,-68.56 314.67,-65.06 304.67,-61.56 304.67,-68.56"/>
<text text-anchor="middle" x="274.22" y="-67.51" font-family="Arial" font-size="14.00">alpha_2</text>
</g>
<!-- I|B&#45;&gt;I|I -->
<g id="edge7" class="edge">
<title>I|B&#45;&gt;I|I</title>
<path fill="none" stroke="black" d="M461.78,-18.13C424.75,-13.05 356.67,-4.48 298.22,-1.31 214.27,3.24 193.26,-7.63 109.72,-17.06 107.54,-17.31 105.3,-17.56 103.05,-17.81"/>
<polygon fill="black" stroke="black" points="102.82,-14.32 93.28,-18.92 103.61,-21.27 102.82,-14.32"/>
<text text-anchor="middle" x="274.22" y="-3.76" font-family="Arial" font-size="14.00">beta_2</text>
</g>
<!-- I|B&#45;&gt;B|B -->
<g id="edge6" class="edge">
<title>I|B&#45;&gt;B|B</title>
<path fill="none" stroke="black" d="M461.75,-25.34C442.89,-28.1 417.47,-32.82 395.97,-40.31 393.6,-41.14 391.2,-42.06 388.81,-43.05"/>
<polygon fill="black" stroke="black" points="387.47,-39.82 379.81,-47.13 390.36,-46.19 387.47,-39.82"/>
<text text-anchor="middle" x="419.97" y="-42.76" font-family="Arial" font-size="14.00">alpha_1</text>
</g>
<!-- B|B&#45;&gt;B|I -->
<g id="edge9" class="edge">
<title>B|B&#45;&gt;B|I</title>
<path fill="none" stroke="black" d="M315.74,-50.48C310.04,-48.33 304.04,-46.46 298.22,-45.31 277.29,-41.16 271.1,-40.95 250.22,-45.31 247.93,-45.79 245.61,-46.39 243.29,-47.08"/>
<polygon fill="black" stroke="black" points="242.3,-43.72 234.04,-50.37 244.64,-50.32 242.3,-43.72"/>
<text text-anchor="middle" x="274.22" y="-47.76" font-family="Arial" font-size="14.00">beta_2</text>
</g>
<!-- B|B&#45;&gt;I|B -->
<g id="edge8" class="edge">
<title>B|B&#45;&gt;I|B</title>
<path fill="none" stroke="black" d="M378.43,-66.38C397.79,-66.23 423.08,-64.14 443.97,-56.06 449.81,-53.8 455.55,-50.56 460.88,-46.96"/>
<polygon fill="black" stroke="black" points="462.78,-49.91 468.73,-41.14 458.61,-44.28 462.78,-49.91"/>
<text text-anchor="middle" x="419.97" y="-68" font-family="Arial" font-size="14.00">beta_1</text>
</g>
</g>
</svg>
