<?xml version="1.0" encoding="UTF-8" standalone="no"?>
<!DOCTYPE svg PUBLIC "-//W3C//DTD SVG 1.0//EN"
 "http://www.w3.org/TR/2001/REC-SVG-20010904/DTD/svg10.dtd" [
 <!ATTLIST svg xmlns:xlink CDATA #FIXED "http://www.w3.org/1999/xlink">
]>
<!-- Generated by Graphviz version 2.20.2 (Tue Mar &#160;2 21:46:26 UTC 2010)
     For user: (mtmoor) Prof. Thomas Moor -->
<!-- Title: SelfLoop(buffer,Alphabet&#45;Alphabet) Pages: 1 -->
<svg width="255pt" height="126pt"
 viewBox="0.00 0.00 255.00 126.00" xmlns="http://www.w3.org/2000/svg" xmlns:xlink="http://www.w3.org/1999/xlink">
<g id="graph0" class="graph" transform="scale(1 1) rotate(0) translate(4 122)">
<title>SelfLoop(buffer,Alphabet&#45;Alphabet)</title>
<polygon style="fill:none;stroke:none;" points="-4,4 -4,-122 251,-122 251,4 -4,4"/>
<!-- dot_dummyinit_1 -->
<g id="node1" class="node"><title>dot_dummyinit_1</title>
</g>
<!-- E -->
<g id="node3" class="node"><title>E</title>
<ellipse style="fill:none;stroke:black;" cx="62" cy="-26" rx="18" ry="18"/>
<ellipse style="fill:none;stroke:black;" cx="62" cy="-26" rx="22" ry="22"/>
<text text-anchor="middle" x="62" y="-21.9" style="font-family:Times New Roman;font-size:14.00;">E</text>
</g>
<!-- dot_dummyinit_1&#45;&gt;E -->
<g id="edge2" class="edge"><title>dot_dummyinit_1&#45;&gt;E</title>
<path style="fill:none;stroke:black;" d="M2,-26C5,-26 17,-26 30,-26"/>
<polygon style="fill:black;stroke:black;" points="30,-29.5001 40,-26 30,-22.5001 30,-29.5001"/>
</g>
<!-- E&#45;&gt;E -->
<g id="edge4" class="edge"><title>E&#45;&gt;E</title>
<path style="fill:none;stroke:black;" d="M58,-48C58,-58 59,-66 62,-66 64,-66 65,-63 66,-58"/>
<polygon style="fill:black;stroke:black;" points="69.5001,-58 66,-48 62.5001,-58 69.5001,-58"/>
<text text-anchor="middle" x="62" y="-69.9" style="font-family:Times New Roman;font-size:14.00;">alpha_1</text>
</g>
<!-- E&#45;&gt;E -->
<g id="edge8" class="edge"><title>E&#45;&gt;E</title>
<path style="fill:none;stroke:black;" d="M42,-34C4,-55 11,-84 62,-84 109,-84 118,-60 91,-40"/>
<polygon style="fill:black;stroke:black;" points="92.262,-36.6349 82,-34 88.3791,-42.4592 92.262,-36.6349"/>
<text text-anchor="middle" x="62" y="-87.9" style="font-family:Times New Roman;font-size:14.00;">beta_2</text>
</g>
<!-- F -->
<g id="node4" class="node"><title>F</title>
<ellipse style="fill:none;stroke:black;" cx="192" cy="-26" rx="18" ry="18"/>
<text text-anchor="middle" x="192" y="-21.9" style="font-family:Times New Roman;font-size:14.00;">F</text>
</g>
<!-- E&#45;&gt;F -->
<g id="edge6" class="edge"><title>E&#45;&gt;F</title>
<path style="fill:none;stroke:black;" d="M84,-26C106,-26 140,-26 164,-26"/>
<polygon style="fill:black;stroke:black;" points="164,-29.5001 174,-26 164,-22.5001 164,-29.5001"/>
<text text-anchor="middle" x="129" y="-29.9" style="font-family:Times New Roman;font-size:14.00;">beta_1</text>
</g>
<!-- F&#45;&gt;E -->
<g id="edge12" class="edge"><title>F&#45;&gt;E</title>
<path style="fill:none;stroke:black;" d="M177,-15C171,-11 164,-7 156,-5 133,1 126,-0 102,-5 98,-6 94,-7 90,-9"/>
<polygon style="fill:black;stroke:black;" points="88.0418,-6.08397 81,-14 91.4414,-12.2031 88.0418,-6.08397"/>
<text text-anchor="middle" x="129" y="-9.9" style="font-family:Times New Roman;font-size:14.00;">alpha_2</text>
</g>
<!-- F&#45;&gt;F -->
<g id="edge10" class="edge"><title>F&#45;&gt;F</title>
<path style="fill:none;stroke:black;" d="M187,-43C186,-53 188,-62 192,-62 195,-62 196,-58 197,-53"/>
<polygon style="fill:black;stroke:black;" points="200.5,-53 197,-43 193.5,-53 200.5,-53"/>
<text text-anchor="middle" x="192" y="-65.9" style="font-family:Times New Roman;font-size:14.00;">alpha_1</text>
</g>
<!-- F&#45;&gt;F -->
<g id="edge14" class="edge"><title>F&#45;&gt;F</title>
<path style="fill:none;stroke:black;" d="M175,-32C132,-51 137,-80 192,-80 243,-80 251,-55 218,-37"/>
<polygon style="fill:black;stroke:black;" points="219.441,-33.7969 209,-32 216.042,-39.916 219.441,-33.7969"/>
<text text-anchor="middle" x="192" y="-83.9" style="font-family:Times New Roman;font-size:14.00;">beta_2</text>
</g>
</g>
</svg>
