<?xml version="1.0" encoding="UTF-8" standalone="no"?>
<!DOCTYPE svg PUBLIC "-//W3C//DTD SVG 1.0//EN"
 "http://www.w3.org/TR/2001/REC-SVG-20010904/DTD/svg10.dtd" [
 <!ATTLIST svg xmlns:xlink CDATA #FIXED "http://www.w3.org/1999/xlink">
]>
<!-- Generated by Graphviz version 2.20.2 (Tue Mar &#160;2 21:46:26 UTC 2010)
     For user: (mtmoor) Prof. Thomas Moor -->
<!-- Title: PrefixClosure(supervisor) Pages: 1 -->
<svg width="720pt" height="126pt"
 viewBox="0.00 0.00 720.00 126.23" xmlns="http://www.w3.org/2000/svg" xmlns:xlink="http://www.w3.org/1999/xlink">
<g id="graph0" class="graph" transform="scale(0.779221 0.779221) rotate(0) translate(4 158)">
<title>PrefixClosure(supervisor)</title>
<polygon style="fill:none;stroke:none;" points="-4,4 -4,-158 920,-158 920,4 -4,4"/>
<!-- dot_dummyinit_1 -->
<g id="node1" class="node"><title>dot_dummyinit_1</title>
</g>
<!-- I|I|E -->
<g id="node3" class="node"><title>I|I|E</title>
<ellipse style="fill:none;stroke:black;" cx="74" cy="-106" rx="29.8799" ry="29.8799"/>
<ellipse style="fill:none;stroke:black;" cx="74" cy="-106" rx="33.8799" ry="33.8799"/>
<text text-anchor="middle" x="74" y="-101.9" style="font-family:Times New Roman;font-size:14.00;">I|I|E</text>
</g>
<!-- dot_dummyinit_1&#45;&gt;I|I|E -->
<g id="edge2" class="edge"><title>dot_dummyinit_1&#45;&gt;I|I|E</title>
<path style="fill:none;stroke:black;" d="M2,-106C5,-106 17,-106 30,-106"/>
<polygon style="fill:black;stroke:black;" points="30,-109.5 40,-106 30,-102.5 30,-109.5"/>
</g>
<!-- B|I|E -->
<g id="node4" class="node"><title>B|I|E</title>
<ellipse style="fill:none;stroke:black;" cx="235" cy="-58" rx="32.9096" ry="32.9096"/>
<ellipse style="fill:none;stroke:black;" cx="235" cy="-58" rx="36.8563" ry="36.8563"/>
<text text-anchor="middle" x="235" y="-53.9" style="font-family:Times New Roman;font-size:14.00;">B|I|E</text>
</g>
<!-- I|I|E&#45;&gt;B|I|E -->
<g id="edge4" class="edge"><title>I|I|E&#45;&gt;B|I|E</title>
<path style="fill:none;stroke:black;" d="M107,-96C131,-89 163,-80 189,-72"/>
<polygon style="fill:black;stroke:black;" points="190.427,-75.2259 199,-69 188.416,-68.5212 190.427,-75.2259"/>
<text text-anchor="middle" x="153" y="-94.9" style="font-family:Times New Roman;font-size:14.00;">alpha_1</text>
</g>
<!-- I|I|F -->
<g id="node5" class="node"><title>I|I|F</title>
<ellipse style="fill:none;stroke:black;" cx="389" cy="-62" rx="29.1851" ry="29.1851"/>
<ellipse style="fill:none;stroke:black;" cx="389" cy="-62" rx="33.1851" ry="33.1851"/>
<text text-anchor="middle" x="389" y="-57.9" style="font-family:Times New Roman;font-size:14.00;">I|I|F</text>
</g>
<!-- B|I|E&#45;&gt;I|I|F -->
<g id="edge6" class="edge"><title>B|I|E&#45;&gt;I|I|F</title>
<path style="fill:none;stroke:black;" d="M272,-59C295,-60 323,-60 346,-61"/>
<polygon style="fill:black;stroke:black;" points="346,-64.5001 356,-61 346,-57.5001 346,-64.5001"/>
<text text-anchor="middle" x="314" y="-66.9" style="font-family:Times New Roman;font-size:14.00;">beta_1</text>
</g>
<!-- I|B|E -->
<g id="node6" class="node"><title>I|B|E</title>
<ellipse style="fill:none;stroke:black;" cx="549" cy="-113" rx="32.9096" ry="32.9096"/>
<ellipse style="fill:none;stroke:black;" cx="549" cy="-113" rx="36.8563" ry="36.8563"/>
<text text-anchor="middle" x="549" y="-108.9" style="font-family:Times New Roman;font-size:14.00;">I|B|E</text>
</g>
<!-- I|I|F&#45;&gt;I|B|E -->
<g id="edge8" class="edge"><title>I|I|F&#45;&gt;I|B|E</title>
<path style="fill:none;stroke:black;" d="M421,-70C442,-76 470,-84 494,-92 498,-93 502,-94 505,-96"/>
<polygon style="fill:black;stroke:black;" points="504.416,-99.4788 515,-99 506.427,-92.7741 504.416,-99.4788"/>
<text text-anchor="middle" x="467" y="-95.9" style="font-family:Times New Roman;font-size:14.00;">alpha_2</text>
</g>
<!-- I|B|E&#45;&gt;I|I|E -->
<g id="edge12" class="edge"><title>I|B|E&#45;&gt;I|I|E</title>
<path style="fill:none;stroke:black;" d="M512,-113C438,-113 269,-114 126,-109 123,-109 121,-109 118,-109"/>
<polygon style="fill:black;stroke:black;" points="118.299,-105.512 108,-108 117.602,-112.478 118.299,-105.512"/>
<text text-anchor="middle" x="314" y="-115.9" style="font-family:Times New Roman;font-size:14.00;">beta_2</text>
</g>
<!-- B|B|E -->
<g id="node7" class="node"><title>B|B|E</title>
<ellipse style="fill:none;stroke:black;" cx="717" cy="-113" rx="37.0716" ry="37.0716"/>
<ellipse style="fill:none;stroke:black;" cx="717" cy="-113" rx="41.0234" ry="41.0234"/>
<text text-anchor="middle" x="717" y="-108.9" style="font-family:Times New Roman;font-size:14.00;">B|B|E</text>
</g>
<!-- I|B|E&#45;&gt;B|B|E -->
<g id="edge10" class="edge"><title>I|B|E&#45;&gt;B|B|E</title>
<path style="fill:none;stroke:black;" d="M586,-113C610,-113 640,-113 666,-113"/>
<polygon style="fill:black;stroke:black;" points="666,-116.5 676,-113 666,-109.5 666,-116.5"/>
<text text-anchor="middle" x="631" y="-116.9" style="font-family:Times New Roman;font-size:14.00;">alpha_1</text>
</g>
<!-- B|B|E&#45;&gt;B|I|E -->
<g id="edge16" class="edge"><title>B|B|E&#45;&gt;B|I|E</title>
<path style="fill:none;stroke:black;" d="M690,-82C681,-73 670,-64 658,-58 537,1 490,-0 356,-20 330,-24 302,-33 280,-41"/>
<polygon style="fill:black;stroke:black;" points="278.573,-37.7741 270,-44 280.584,-44.4788 278.573,-37.7741"/>
<text text-anchor="middle" x="467" y="-15.9" style="font-family:Times New Roman;font-size:14.00;">beta_2</text>
</g>
<!-- I|B|F -->
<g id="node8" class="node"><title>I|B|F</title>
<ellipse style="fill:none;stroke:black;" cx="879" cy="-69" rx="32.9096" ry="32.9096"/>
<ellipse style="fill:none;stroke:black;" cx="879" cy="-69" rx="36.8563" ry="36.8563"/>
<text text-anchor="middle" x="879" y="-64.9" style="font-family:Times New Roman;font-size:14.00;">I|B|F</text>
</g>
<!-- B|B|E&#45;&gt;I|B|F -->
<g id="edge14" class="edge"><title>B|B|E&#45;&gt;I|B|F</title>
<path style="fill:none;stroke:black;" d="M757,-102C780,-96 809,-88 833,-82"/>
<polygon style="fill:black;stroke:black;" points="834.427,-85.2259 843,-79 832.416,-78.5212 834.427,-85.2259"/>
<text text-anchor="middle" x="800" y="-99.9" style="font-family:Times New Roman;font-size:14.00;">beta_1</text>
</g>
<!-- I|B|F&#45;&gt;I|I|F -->
<g id="edge18" class="edge"><title>I|B|F&#45;&gt;I|I|F</title>
<path style="fill:none;stroke:black;" d="M842,-67C818,-66 786,-64 758,-63 641,-60 501,-61 432,-62"/>
<polygon style="fill:black;stroke:black;" points="432,-58.5001 422,-62 432,-65.5001 432,-58.5001"/>
<text text-anchor="middle" x="631" y="-67.9" style="font-family:Times New Roman;font-size:14.00;">beta_2</text>
</g>
</g>
</svg>
