<?xml version="1.0" encoding="UTF-8" standalone="no"?>
<!DOCTYPE svg PUBLIC "-//W3C//DTD SVG 1.1//EN"
 "http://www.w3.org/Graphics/SVG/1.1/DTD/svg11.dtd">
<!-- Generated by graphviz version 12.2.1 (20241206.2353)
 -->
<!-- Title: SupConNorm(very simple machine_1||very simple machine_2, two place buffer) Pages: 1 -->
<svg width="720pt" height="132pt"
 viewBox="0.00 0.00 720.00 131.59" xmlns="http://www.w3.org/2000/svg" xmlns:xlink="http://www.w3.org/1999/xlink">
<g id="graph0" class="graph" transform="scale(0.77235 0.77235) rotate(0) translate(4 166.38)">
<title>SupConNorm(very simple machine_1||very simple machine_2, two place buffer)</title>
<!-- dot_dummyinit_1 -->
<g id="node1" class="node">
<title>dot_dummyinit_1</title>
</g>
<!-- 1 -->
<g id="node2" class="node">
<title>1</title>
<ellipse fill="none" stroke="black" cx="59.72" cy="-119.38" rx="18" ry="18"/>
<ellipse fill="none" stroke="black" cx="59.72" cy="-119.38" rx="22" ry="22"/>
<text text-anchor="middle" x="59.72" y="-113.96" font-family="Arial" font-size="14.00">1</text>
</g>
<!-- dot_dummyinit_1&#45;&gt;1 -->
<g id="edge1" class="edge">
<title>dot_dummyinit_1&#45;&gt;1</title>
<path fill="none" stroke="black" d="M0.89,-119.38C2.38,-119.38 13.74,-119.38 26,-119.38"/>
<polygon fill="black" stroke="black" points="25.74,-122.88 35.74,-119.38 25.74,-115.88 25.74,-122.88"/>
</g>
<!-- 2 -->
<g id="node5" class="node">
<title>2</title>
<ellipse fill="none" stroke="black" cx="183.72" cy="-119.38" rx="18" ry="18"/>
<text text-anchor="middle" x="183.72" y="-113.96" font-family="Arial" font-size="14.00">2</text>
</g>
<!-- 1&#45;&gt;2 -->
<g id="edge2" class="edge">
<title>1&#45;&gt;2</title>
<path fill="none" stroke="black" d="M81.97,-119.38C101.9,-119.38 131.86,-119.38 153.93,-119.38"/>
<polygon fill="black" stroke="black" points="153.75,-122.88 163.75,-119.38 153.75,-115.88 153.75,-122.88"/>
<text text-anchor="middle" x="123.72" y="-121.83" font-family="Arial" font-size="14.00">alpha_1</text>
</g>
<!-- 3 -->
<g id="node3" class="node">
<title>3</title>
<ellipse fill="none" stroke="black" cx="300.97" cy="-94.38" rx="18" ry="18"/>
<ellipse fill="none" stroke="black" cx="300.97" cy="-94.38" rx="22" ry="22"/>
<text text-anchor="middle" x="300.97" y="-88.96" font-family="Arial" font-size="14.00">3</text>
</g>
<!-- 4 -->
<g id="node6" class="node">
<title>4</title>
<ellipse fill="none" stroke="black" cx="424.97" cy="-36.38" rx="18" ry="18"/>
<text text-anchor="middle" x="424.97" y="-30.96" font-family="Arial" font-size="14.00">4</text>
</g>
<!-- 3&#45;&gt;4 -->
<g id="edge4" class="edge">
<title>3&#45;&gt;4</title>
<path fill="none" stroke="black" d="M319.35,-81.76C325.93,-77.29 333.62,-72.43 340.97,-68.63 358.93,-59.34 380.21,-51.13 396.73,-45.31"/>
<polygon fill="black" stroke="black" points="397.54,-48.73 405.87,-42.18 395.27,-42.11 397.54,-48.73"/>
<text text-anchor="middle" x="364.97" y="-71.08" font-family="Arial" font-size="14.00">alpha_1</text>
</g>
<!-- 5 -->
<g id="node4" class="node">
<title>5</title>
<ellipse fill="none" stroke="black" cx="548.97" cy="-37.38" rx="18" ry="18"/>
<ellipse fill="none" stroke="black" cx="548.97" cy="-37.38" rx="22" ry="22"/>
<text text-anchor="middle" x="548.97" y="-31.96" font-family="Arial" font-size="14.00">5</text>
</g>
<!-- 7 -->
<g id="node8" class="node">
<title>7</title>
<ellipse fill="none" stroke="black" cx="672.97" cy="-93.38" rx="18" ry="18"/>
<text text-anchor="middle" x="672.97" y="-87.96" font-family="Arial" font-size="14.00">7</text>
</g>
<!-- 5&#45;&gt;7 -->
<g id="edge7" class="edge">
<title>5&#45;&gt;7</title>
<path fill="none" stroke="black" d="M570.67,-43.08C588.72,-48.46 615.33,-57.36 636.97,-68.63 641.01,-70.74 645.12,-73.25 649.04,-75.86"/>
<polygon fill="black" stroke="black" points="646.8,-78.56 656.99,-81.48 650.84,-72.85 646.8,-78.56"/>
<text text-anchor="middle" x="612.97" y="-71.08" font-family="Arial" font-size="14.00">alpha_2</text>
</g>
<!-- 2&#45;&gt;3 -->
<g id="edge3" class="edge">
<title>2&#45;&gt;3</title>
<path fill="none" stroke="black" d="M201.73,-115.69C219.05,-111.93 246.35,-106.01 267.78,-101.36"/>
<polygon fill="black" stroke="black" points="268.47,-104.79 277.5,-99.25 266.99,-97.95 268.47,-104.79"/>
<text text-anchor="middle" x="240.35" y="-113.74" font-family="Arial" font-size="14.00">beta_1</text>
</g>
<!-- 4&#45;&gt;5 -->
<g id="edge5" class="edge">
<title>4&#45;&gt;5</title>
<path fill="none" stroke="black" d="M441.57,-28.24C447.48,-25.57 454.38,-22.96 460.97,-21.63 481.88,-17.4 488.03,-17.56 508.97,-21.63 512.02,-22.22 515.14,-23.06 518.21,-24.03"/>
<polygon fill="black" stroke="black" points="516.97,-27.3 527.56,-27.49 519.4,-20.73 516.97,-27.3"/>
<text text-anchor="middle" x="484.97" y="-24.08" font-family="Arial" font-size="14.00">beta_1</text>
</g>
<!-- 6 -->
<g id="node7" class="node">
<title>6</title>
<ellipse fill="none" stroke="black" cx="548.97" cy="-144.38" rx="18" ry="18"/>
<text text-anchor="middle" x="548.97" y="-138.96" font-family="Arial" font-size="14.00">6</text>
</g>
<!-- 4&#45;&gt;6 -->
<g id="edge6" class="edge">
<title>4&#45;&gt;6</title>
<path fill="none" stroke="black" d="M443.19,-37.31C461.48,-39.15 490.29,-44.59 508.97,-60.63 525.52,-74.84 535.49,-97.59 541.2,-115.79"/>
<polygon fill="black" stroke="black" points="537.79,-116.57 543.89,-125.24 544.52,-114.66 537.79,-116.57"/>
<text text-anchor="middle" x="484.97" y="-63.08" font-family="Arial" font-size="14.00">alpha_2</text>
</g>
<!-- 6&#45;&gt;2 -->
<g id="edge8" class="edge">
<title>6&#45;&gt;2</title>
<path fill="none" stroke="black" d="M530.71,-145.22C481.62,-147.27 337.14,-150.97 219.72,-130.38 217.07,-129.92 214.35,-129.31 211.64,-128.61"/>
<polygon fill="black" stroke="black" points="212.92,-125.34 202.33,-125.86 210.93,-132.05 212.92,-125.34"/>
<text text-anchor="middle" x="364.97" y="-148.37" font-family="Arial" font-size="14.00">beta_2</text>
</g>
<!-- 6&#45;&gt;7 -->
<g id="edge9" class="edge">
<title>6&#45;&gt;7</title>
<path fill="none" stroke="black" d="M566.61,-139.06C584.33,-133.21 613.07,-123.19 636.97,-112.38 640.2,-110.92 643.55,-109.28 646.83,-107.59"/>
<polygon fill="black" stroke="black" points="648.39,-110.72 655.55,-102.91 645.08,-104.56 648.39,-110.72"/>
<text text-anchor="middle" x="612.97" y="-133.43" font-family="Arial" font-size="14.00">beta_1</text>
</g>
<!-- 7&#45;&gt;3 -->
<g id="edge10" class="edge">
<title>7&#45;&gt;3</title>
<path fill="none" stroke="black" d="M654.83,-93.43C597.34,-93.58 410.73,-94.09 334.68,-94.29"/>
<polygon fill="black" stroke="black" points="334.97,-90.79 324.98,-94.32 334.99,-97.79 334.97,-90.79"/>
<text text-anchor="middle" x="484.97" y="-96.4" font-family="Arial" font-size="14.00">beta_2</text>
</g>
<!-- 8 -->
<g id="node9" class="node">
<title>8</title>
<ellipse fill="none" stroke="black" cx="792.97" cy="-80.38" rx="18" ry="18"/>
<text text-anchor="middle" x="792.97" y="-74.96" font-family="Arial" font-size="14.00">8</text>
</g>
<!-- 7&#45;&gt;8 -->
<g id="edge11" class="edge">
<title>7&#45;&gt;8</title>
<path fill="none" stroke="black" d="M691.13,-91.49C710.09,-89.4 740.94,-86 763.53,-83.51"/>
<polygon fill="black" stroke="black" points="763.73,-87.01 773.29,-82.44 762.96,-80.05 763.73,-87.01"/>
<text text-anchor="middle" x="732.97" y="-91.63" font-family="Arial" font-size="14.00">alpha_1</text>
</g>
<!-- 8&#45;&gt;4 -->
<g id="edge12" class="edge">
<title>8&#45;&gt;4</title>
<path fill="none" stroke="black" d="M782.84,-65.16C776.66,-56.23 767.69,-45.52 756.97,-39.38 667.35,11.92 630.05,-0.16 526.97,-6.38 497.48,-8.16 488.82,-4.5 460.97,-14.38 457.13,-15.74 453.28,-17.58 449.6,-19.62"/>
<polygon fill="black" stroke="black" points="447.81,-16.61 441.16,-24.85 451.51,-22.55 447.81,-16.61"/>
<text text-anchor="middle" x="612.97" y="-4.44" font-family="Arial" font-size="14.00">beta_2</text>
</g>
<!-- 9 -->
<g id="node10" class="node">
<title>9</title>
<ellipse fill="none" stroke="black" cx="906.22" cy="-50.38" rx="18" ry="18"/>
<text text-anchor="middle" x="906.22" y="-44.96" font-family="Arial" font-size="14.00">9</text>
</g>
<!-- 8&#45;&gt;9 -->
<g id="edge13" class="edge">
<title>8&#45;&gt;9</title>
<path fill="none" stroke="black" d="M810.87,-75.82C828.53,-71.06 856.54,-63.51 877.46,-57.87"/>
<polygon fill="black" stroke="black" points="878.32,-61.26 887.07,-55.28 876.5,-54.5 878.32,-61.26"/>
<text text-anchor="middle" x="849.6" y="-73.13" font-family="Arial" font-size="14.00">beta_1</text>
</g>
<!-- 9&#45;&gt;5 -->
<g id="edge14" class="edge">
<title>9&#45;&gt;5</title>
<path fill="none" stroke="black" d="M888.06,-49.75C832.4,-47.72 656.19,-41.27 582.68,-38.58"/>
<polygon fill="black" stroke="black" points="583.03,-35.09 572.9,-38.22 582.77,-42.08 583.03,-35.09"/>
<text text-anchor="middle" x="732.97" y="-47.38" font-family="Arial" font-size="14.00">beta_2</text>
</g>
</g>
</svg>
