<?xml version="1.0" encoding="UTF-8" standalone="no"?>
<!DOCTYPE svg PUBLIC "-//W3C//DTD SVG 1.1//EN"
 "http://www.w3.org/Graphics/SVG/1.1/DTD/svg11.dtd">
<!-- Generated by graphviz version 12.2.1 (20241206.2353)
 -->
<!-- Title: E Pages: 1 -->
<svg width="195pt" height="86pt"
 viewBox="0.00 0.00 194.72 86.21" xmlns="http://www.w3.org/2000/svg" xmlns:xlink="http://www.w3.org/1999/xlink">
<g id="graph0" class="graph" transform="scale(1 1) rotate(0) translate(4 82.21)">
<title>E</title>
<!-- dot_dummyinit_1 -->
<g id="node1" class="node">
<title>dot_dummyinit_1</title>
</g>
<!-- 1 -->
<g id="node2" class="node">
<title>1</title>
<ellipse fill="none" stroke="black" cx="59.72" cy="-22.46" rx="18" ry="18"/>
<ellipse fill="none" stroke="black" cx="59.72" cy="-22.46" rx="22" ry="22"/>
<text text-anchor="middle" x="59.72" y="-17.04" font-family="Arial" font-size="14.00">1</text>
</g>
<!-- dot_dummyinit_1&#45;&gt;1 -->
<g id="edge1" class="edge">
<title>dot_dummyinit_1&#45;&gt;1</title>
<path fill="none" stroke="black" d="M0.89,-22.46C2.38,-22.46 13.74,-22.46 26,-22.46"/>
<polygon fill="black" stroke="black" points="25.74,-25.96 35.74,-22.46 25.74,-18.96 25.74,-25.96"/>
</g>
<!-- 1&#45;&gt;1 -->
<g id="edge2" class="edge">
<title>1&#45;&gt;1</title>
<path fill="none" stroke="black" d="M52.31,-43.46C51.4,-53.55 53.87,-62.46 59.72,-62.46 63.2,-62.46 65.48,-59.32 66.57,-54.66"/>
<polygon fill="black" stroke="black" points="70.05,-55.13 67.05,-44.97 63.06,-54.78 70.05,-55.13"/>
<text text-anchor="middle" x="59.72" y="-64.91" font-family="Arial" font-size="14.00">beta</text>
</g>
<!-- 2 -->
<g id="node3" class="node">
<title>2</title>
<ellipse fill="none" stroke="black" cx="168.72" cy="-22.46" rx="18" ry="18"/>
<text text-anchor="middle" x="168.72" y="-17.04" font-family="Arial" font-size="14.00">2</text>
</g>
<!-- 1&#45;&gt;2 -->
<g id="edge3" class="edge">
<title>1&#45;&gt;2</title>
<path fill="none" stroke="black" d="M82.12,-22.46C98.37,-22.46 120.89,-22.46 138.76,-22.46"/>
<polygon fill="black" stroke="black" points="138.74,-25.96 148.74,-22.46 138.74,-18.96 138.74,-25.96"/>
<text text-anchor="middle" x="116.22" y="-24.91" font-family="Arial" font-size="14.00">alpha</text>
</g>
<!-- 2&#45;&gt;1 -->
<g id="edge4" class="edge">
<title>2&#45;&gt;1</title>
<path fill="none" stroke="black" d="M153.46,-12.21C147.38,-8.44 140.01,-4.63 132.72,-2.71 118.53,1.01 113.99,0.69 99.72,-2.71 96.1,-3.58 92.44,-4.83 88.89,-6.3"/>
<polygon fill="black" stroke="black" points="87.58,-3.05 80.05,-10.51 90.58,-9.37 87.58,-3.05"/>
<text text-anchor="middle" x="116.22" y="-5.16" font-family="Arial" font-size="14.00">alpha</text>
</g>
</g>
</svg>
