<?xml version="1.0" encoding="UTF-8" standalone="no"?>
<!DOCTYPE svg PUBLIC "-//W3C//DTD SVG 1.0//EN"
 "http://www.w3.org/TR/2001/REC-SVG-20010904/DTD/svg10.dtd" [
 <!ATTLIST svg xmlns:xlink CDATA #FIXED "http://www.w3.org/1999/xlink">
]>
<!-- Generated by Graphviz version 2.20.2 (Tue Mar &#160;2 21:46:26 UTC 2010)
     For user: (mtmoor) Prof. Thomas Moor -->
<!-- Title: Intersection(SupCon((Project(very s...e machine_1||very simple machine_2) Pages: 1 -->
<svg width="354pt" height="52pt"
 viewBox="0.00 0.00 354.00 52.00" xmlns="http://www.w3.org/2000/svg" xmlns:xlink="http://www.w3.org/1999/xlink">
<g id="graph0" class="graph" transform="scale(1 1) rotate(0) translate(4 48)">
<title>Intersection(SupCon((Project(very s...e machine_1||very simple machine_2)</title>
<polygon style="fill:none;stroke:none;" points="-4,4 -4,-48 350,-48 350,4 -4,4"/>
<!-- dot_dummyinit_1 -->
<g id="node1" class="node"><title>dot_dummyinit_1</title>
</g>
<!-- 1 -->
<g id="node3" class="node"><title>1</title>
<ellipse style="fill:none;stroke:black;" cx="62" cy="-22" rx="18" ry="18"/>
<ellipse style="fill:none;stroke:black;" cx="62" cy="-22" rx="22" ry="22"/>
<text text-anchor="middle" x="62" y="-17.9" style="font-family:Times New Roman;font-size:14.00;">1</text>
</g>
<!-- dot_dummyinit_1&#45;&gt;1 -->
<g id="edge2" class="edge"><title>dot_dummyinit_1&#45;&gt;1</title>
<path style="fill:none;stroke:black;" d="M2,-22C5,-22 17,-22 30,-22"/>
<polygon style="fill:black;stroke:black;" points="30,-25.5001 40,-22 30,-18.5001 30,-25.5001"/>
</g>
<!-- 2 -->
<g id="node4" class="node"><title>2</title>
<ellipse style="fill:none;stroke:black;" cx="196" cy="-22" rx="18" ry="18"/>
<ellipse style="fill:none;stroke:black;" cx="196" cy="-22" rx="22" ry="22"/>
<text text-anchor="middle" x="196" y="-17.9" style="font-family:Times New Roman;font-size:14.00;">2</text>
</g>
<!-- 1&#45;&gt;2 -->
<g id="edge4" class="edge"><title>1&#45;&gt;2</title>
<path style="fill:none;stroke:black;" d="M84,-22C106,-22 139,-22 164,-22"/>
<polygon style="fill:black;stroke:black;" points="164,-25.5001 174,-22 164,-18.5001 164,-25.5001"/>
<text text-anchor="middle" x="129" y="-25.9" style="font-family:Times New Roman;font-size:14.00;">alpha_1</text>
</g>
<!-- 3 -->
<g id="node5" class="node"><title>3</title>
<ellipse style="fill:none;stroke:black;" cx="324" cy="-22" rx="18" ry="18"/>
<ellipse style="fill:none;stroke:black;" cx="324" cy="-22" rx="22" ry="22"/>
<text text-anchor="middle" x="324" y="-17.9" style="font-family:Times New Roman;font-size:14.00;">3</text>
</g>
<!-- 2&#45;&gt;3 -->
<g id="edge6" class="edge"><title>2&#45;&gt;3</title>
<path style="fill:none;stroke:black;" d="M218,-22C239,-22 269,-22 292,-22"/>
<polygon style="fill:black;stroke:black;" points="292,-25.5001 302,-22 292,-18.5001 292,-25.5001"/>
<text text-anchor="middle" x="260" y="-25.9" style="font-family:Times New Roman;font-size:14.00;">beta_1</text>
</g>
</g>
</svg>
