<?xml version="1.0" encoding="UTF-8" standalone="no"?>
<!DOCTYPE svg PUBLIC "-//W3C//DTD SVG 1.1//EN"
 "http://www.w3.org/Graphics/SVG/1.1/DTD/svg11.dtd">
<!-- Generated by graphviz version 12.2.1 (20241206.2353)
 -->
<!-- Title: PrefixClosure(supervisor) Pages: 1 -->
<svg width="720pt" height="82pt"
 viewBox="0.00 0.00 720.00 81.61" xmlns="http://www.w3.org/2000/svg" xmlns:xlink="http://www.w3.org/1999/xlink">
<g id="graph0" class="graph" transform="scale(0.836266 0.836266) rotate(0) translate(4 93.59)">
<title>PrefixClosure(supervisor)</title>
<!-- dot_dummyinit_1 -->
<g id="node1" class="node">
<title>dot_dummyinit_1</title>
</g>
<!-- I|I|E -->
<g id="node2" class="node">
<title>I|I|E</title>
<path fill="none" stroke="black" d="M89.72,-75.24C89.72,-75.24 49.72,-75.24 49.72,-75.24 43.72,-75.24 37.72,-69.24 37.72,-63.24 37.72,-63.24 37.72,-51.24 37.72,-51.24 37.72,-45.24 43.72,-39.24 49.72,-39.24 49.72,-39.24 89.72,-39.24 89.72,-39.24 95.72,-39.24 101.72,-45.24 101.72,-51.24 101.72,-51.24 101.72,-63.24 101.72,-63.24 101.72,-69.24 95.72,-75.24 89.72,-75.24"/>
<text text-anchor="start" x="49.72" y="-51.82" font-family="Arial" font-size="14.00">I|I|E</text>
<polygon fill="black" stroke="none" points="83.72,-47.37 83.72,-67.12 91.72,-67.12 91.72,-47.37 83.72,-47.37"/>
</g>
<!-- dot_dummyinit_1&#45;&gt;I|I|E -->
<g id="edge1" class="edge">
<title>dot_dummyinit_1&#45;&gt;I|I|E</title>
<path fill="none" stroke="black" d="M0.77,-57.24C1.61,-57.24 12.96,-57.24 26.15,-57.24"/>
<polygon fill="black" stroke="black" points="25.96,-60.74 35.96,-57.24 25.96,-53.74 25.96,-60.74"/>
</g>
<!-- B|I|E -->
<g id="node3" class="node">
<title>B|I|E</title>
<path fill="none" stroke="black" d="M242.97,-47.24C242.97,-47.24 197.72,-47.24 197.72,-47.24 191.72,-47.24 185.72,-41.24 185.72,-35.24 185.72,-35.24 185.72,-23.24 185.72,-23.24 185.72,-17.24 191.72,-11.24 197.72,-11.24 197.72,-11.24 242.97,-11.24 242.97,-11.24 248.97,-11.24 254.97,-17.24 254.97,-23.24 254.97,-23.24 254.97,-35.24 254.97,-35.24 254.97,-41.24 248.97,-47.24 242.97,-47.24"/>
<text text-anchor="start" x="197.72" y="-23.82" font-family="Arial" font-size="14.00">B|I|E</text>
<polygon fill="black" stroke="none" points="236.97,-19.37 236.97,-39.12 244.97,-39.12 244.97,-19.37 236.97,-19.37"/>
</g>
<!-- I|I|E&#45;&gt;B|I|E -->
<g id="edge2" class="edge">
<title>I|I|E&#45;&gt;B|I|E</title>
<path fill="none" stroke="black" d="M101.88,-51.37C122.87,-47.42 150.9,-42.14 174.31,-37.73"/>
<polygon fill="black" stroke="black" points="174.71,-41.21 183.89,-35.92 173.42,-34.33 174.71,-41.21"/>
<text text-anchor="middle" x="143.72" y="-49.84" font-family="Arial" font-size="14.00">alpha_1</text>
</g>
<!-- I|I|F -->
<g id="node4" class="node">
<title>I|I|F</title>
<path fill="none" stroke="black" d="M383.47,-47.24C383.47,-47.24 344.22,-47.24 344.22,-47.24 338.22,-47.24 332.22,-41.24 332.22,-35.24 332.22,-35.24 332.22,-23.24 332.22,-23.24 332.22,-17.24 338.22,-11.24 344.22,-11.24 344.22,-11.24 383.47,-11.24 383.47,-11.24 389.47,-11.24 395.47,-17.24 395.47,-23.24 395.47,-23.24 395.47,-35.24 395.47,-35.24 395.47,-41.24 389.47,-47.24 383.47,-47.24"/>
<text text-anchor="start" x="344.22" y="-23.82" font-family="Arial" font-size="14.00">I|I|F</text>
<polygon fill="black" stroke="none" points="377.47,-19.37 377.47,-39.12 385.47,-39.12 385.47,-19.37 377.47,-19.37"/>
</g>
<!-- B|I|E&#45;&gt;I|I|F -->
<g id="edge3" class="edge">
<title>B|I|E&#45;&gt;I|I|F</title>
<path fill="none" stroke="black" d="M255.24,-29.24C274.88,-29.24 299.77,-29.24 320.67,-29.24"/>
<polygon fill="black" stroke="black" points="320.61,-32.74 330.61,-29.24 320.61,-25.74 320.61,-32.74"/>
<text text-anchor="middle" x="293.6" y="-31.69" font-family="Arial" font-size="14.00">beta_1</text>
</g>
<!-- I|B|E -->
<g id="node5" class="node">
<title>I|B|E</title>
<path fill="none" stroke="black" d="M536.72,-80.24C536.72,-80.24 491.47,-80.24 491.47,-80.24 485.47,-80.24 479.47,-74.24 479.47,-68.24 479.47,-68.24 479.47,-56.24 479.47,-56.24 479.47,-50.24 485.47,-44.24 491.47,-44.24 491.47,-44.24 536.72,-44.24 536.72,-44.24 542.72,-44.24 548.72,-50.24 548.72,-56.24 548.72,-56.24 548.72,-68.24 548.72,-68.24 548.72,-74.24 542.72,-80.24 536.72,-80.24"/>
<text text-anchor="start" x="491.47" y="-56.82" font-family="Arial" font-size="14.00">I|B|E</text>
<polygon fill="black" stroke="none" points="530.72,-52.37 530.72,-72.12 538.72,-72.12 538.72,-52.37 530.72,-52.37"/>
</g>
<!-- I|I|F&#45;&gt;I|B|E -->
<g id="edge4" class="edge">
<title>I|I|F&#45;&gt;I|B|E</title>
<path fill="none" stroke="black" d="M395.75,-35.98C414.73,-40.13 439.51,-45.58 461.47,-50.49 463.62,-50.97 465.83,-51.47 468.05,-51.97"/>
<polygon fill="black" stroke="black" points="467.22,-55.37 477.75,-54.16 468.77,-48.54 467.22,-55.37"/>
<text text-anchor="middle" x="437.47" y="-52.94" font-family="Arial" font-size="14.00">alpha_2</text>
</g>
<!-- I|B|E&#45;&gt;I|I|E -->
<g id="edge6" class="edge">
<title>I|B|E&#45;&gt;I|I|E</title>
<path fill="none" stroke="black" d="M479.24,-65.24C473.32,-65.66 467.22,-66.02 461.47,-66.24 309.69,-72.11 270.98,-80.02 119.72,-66.24 117.56,-66.05 115.34,-65.8 113.12,-65.52"/>
<polygon fill="black" stroke="black" points="113.87,-62.09 103.47,-64.08 112.84,-69.02 113.87,-62.09"/>
<text text-anchor="middle" x="293.6" y="-76.29" font-family="Arial" font-size="14.00">beta_2</text>
</g>
<!-- B|B|E -->
<g id="node6" class="node">
<title>B|B|E</title>
<path fill="none" stroke="black" d="M695.22,-80.24C695.22,-80.24 644.72,-80.24 644.72,-80.24 638.72,-80.24 632.72,-74.24 632.72,-68.24 632.72,-68.24 632.72,-56.24 632.72,-56.24 632.72,-50.24 638.72,-44.24 644.72,-44.24 644.72,-44.24 695.22,-44.24 695.22,-44.24 701.22,-44.24 707.22,-50.24 707.22,-56.24 707.22,-56.24 707.22,-68.24 707.22,-68.24 707.22,-74.24 701.22,-80.24 695.22,-80.24"/>
<text text-anchor="start" x="644.72" y="-56.82" font-family="Arial" font-size="14.00">B|B|E</text>
<polygon fill="black" stroke="none" points="689.22,-52.37 689.22,-72.12 697.22,-72.12 697.22,-52.37 689.22,-52.37"/>
</g>
<!-- I|B|E&#45;&gt;B|B|E -->
<g id="edge5" class="edge">
<title>I|B|E&#45;&gt;B|B|E</title>
<path fill="none" stroke="black" d="M548.86,-62.24C569.98,-62.24 597.51,-62.24 620.88,-62.24"/>
<polygon fill="black" stroke="black" points="620.81,-65.74 630.81,-62.24 620.81,-58.74 620.81,-65.74"/>
<text text-anchor="middle" x="590.72" y="-64.69" font-family="Arial" font-size="14.00">alpha_1</text>
</g>
<!-- B|B|E&#45;&gt;B|I|E -->
<g id="edge8" class="edge">
<title>B|B|E&#45;&gt;B|I|E</title>
<path fill="none" stroke="black" d="M646.52,-43.85C637.22,-37.2 625.99,-30.32 614.72,-26.24 608.87,-24.13 421.06,8.42 332.22,-2.24 310.25,-4.88 286.34,-10.36 266.37,-15.69"/>
<polygon fill="black" stroke="black" points="265.59,-12.28 256.88,-18.31 267.45,-19.03 265.59,-12.28"/>
<text text-anchor="middle" x="437.47" y="-7.11" font-family="Arial" font-size="14.00">beta_2</text>
</g>
<!-- I|B|F -->
<g id="node7" class="node">
<title>I|B|F</title>
<path fill="none" stroke="black" d="M840.97,-50.24C840.97,-50.24 796.47,-50.24 796.47,-50.24 790.47,-50.24 784.47,-44.24 784.47,-38.24 784.47,-38.24 784.47,-26.24 784.47,-26.24 784.47,-20.24 790.47,-14.24 796.47,-14.24 796.47,-14.24 840.97,-14.24 840.97,-14.24 846.97,-14.24 852.97,-20.24 852.97,-26.24 852.97,-26.24 852.97,-38.24 852.97,-38.24 852.97,-44.24 846.97,-50.24 840.97,-50.24"/>
<text text-anchor="start" x="796.47" y="-26.82" font-family="Arial" font-size="14.00">I|B|F</text>
<polygon fill="black" stroke="none" points="834.97,-22.37 834.97,-42.12 842.97,-42.12 842.97,-22.37 834.97,-22.37"/>
</g>
<!-- B|B|E&#45;&gt;I|B|F -->
<g id="edge7" class="edge">
<title>B|B|E&#45;&gt;I|B|F</title>
<path fill="none" stroke="black" d="M707.62,-54.75C727.39,-50.71 751.95,-45.69 772.86,-41.41"/>
<polygon fill="black" stroke="black" points="773.46,-44.86 782.56,-39.43 772.06,-38 773.46,-44.86"/>
<text text-anchor="middle" x="745.85" y="-53.26" font-family="Arial" font-size="14.00">beta_1</text>
</g>
<!-- I|B|F&#45;&gt;I|I|F -->
<g id="edge9" class="edge">
<title>I|B|F&#45;&gt;I|I|F</title>
<path fill="none" stroke="black" d="M784.17,-32.02C703,-31.48 496.17,-30.11 406.91,-29.52"/>
<polygon fill="black" stroke="black" points="407.15,-26.02 397.13,-29.46 407.11,-33.02 407.15,-26.02"/>
<text text-anchor="middle" x="590.72" y="-33.33" font-family="Arial" font-size="14.00">beta_2</text>
</g>
</g>
</svg>
