<?xml version="1.0" encoding="UTF-8" standalone="no"?>
<!DOCTYPE svg PUBLIC "-//W3C//DTD SVG 1.1//EN"
 "http://www.w3.org/Graphics/SVG/1.1/DTD/svg11.dtd">
<!-- Generated by graphviz version 12.2.1 (20241206.2353)
 -->
<!-- Title: Plant B Pages: 1 -->
<svg width="437pt" height="133pt"
 viewBox="0.00 0.00 437.47 133.00" xmlns="http://www.w3.org/2000/svg" xmlns:xlink="http://www.w3.org/1999/xlink">
<g id="graph0" class="graph" transform="scale(1 1) rotate(0) translate(4 129)">
<title>Plant B</title>
<!-- dot_dummyinit_1 -->
<g id="node1" class="node">
<title>dot_dummyinit_1</title>
</g>
<!-- s0 -->
<g id="node2" class="node">
<title>s0</title>
<path fill="none" stroke="black" d="M79.97,-36C79.97,-36 49.72,-36 49.72,-36 43.72,-36 37.72,-30 37.72,-24 37.72,-24 37.72,-12 37.72,-12 37.72,-6 43.72,0 49.72,0 49.72,0 79.97,0 79.97,0 85.97,0 91.97,-6 91.97,-12 91.97,-12 91.97,-24 91.97,-24 91.97,-30 85.97,-36 79.97,-36"/>
<text text-anchor="start" x="49.72" y="-12.57" font-family="Arial" font-size="14.00">s0</text>
<polygon fill="black" stroke="none" points="73.97,-8.12 73.97,-27.88 81.97,-27.88 81.97,-8.12 73.97,-8.12"/>
</g>
<!-- dot_dummyinit_1&#45;&gt;s0 -->
<g id="edge1" class="edge">
<title>dot_dummyinit_1&#45;&gt;s0</title>
<path fill="none" stroke="black" d="M0.77,-18C1.57,-18 12.98,-18 25.88,-18"/>
<polygon fill="black" stroke="black" points="25.86,-21.5 35.86,-18 25.86,-14.5 25.86,-21.5"/>
</g>
<!-- s2 -->
<g id="node3" class="node">
<title>s2</title>
<path fill="none" stroke="black" d="M192.47,-82C192.47,-82 162.47,-82 162.47,-82 156.47,-82 150.47,-76 150.47,-70 150.47,-70 150.47,-58 150.47,-58 150.47,-52 156.47,-46 162.47,-46 162.47,-46 192.47,-46 192.47,-46 198.47,-46 204.47,-52 204.47,-58 204.47,-58 204.47,-70 204.47,-70 204.47,-76 198.47,-82 192.47,-82"/>
<text text-anchor="middle" x="177.47" y="-58.58" font-family="Arial" font-size="14.00">s2</text>
</g>
<!-- s0&#45;&gt;s2 -->
<g id="edge2" class="edge">
<title>s0&#45;&gt;s2</title>
<path fill="none" stroke="black" d="M92.34,-29.02C106.57,-34.94 124.33,-42.32 139.86,-48.78"/>
<polygon fill="black" stroke="black" points="138.21,-51.88 148.79,-52.49 140.9,-45.42 138.21,-51.88"/>
<text text-anchor="middle" x="121.22" y="-47.57" font-family="Arial" font-size="14.00">e51</text>
</g>
<!-- s5 -->
<g id="node4" class="node">
<title>s5</title>
<path fill="none" stroke="black" d="M304.97,-125C304.97,-125 274.97,-125 274.97,-125 268.97,-125 262.97,-119 262.97,-113 262.97,-113 262.97,-101 262.97,-101 262.97,-95 268.97,-89 274.97,-89 274.97,-89 304.97,-89 304.97,-89 310.97,-89 316.97,-95 316.97,-101 316.97,-101 316.97,-113 316.97,-113 316.97,-119 310.97,-125 304.97,-125"/>
<text text-anchor="middle" x="289.97" y="-101.58" font-family="Arial" font-size="14.00">s5</text>
</g>
<!-- s2&#45;&gt;s5 -->
<g id="edge3" class="edge">
<title>s2&#45;&gt;s5</title>
<path fill="none" stroke="black" d="M196.14,-82.45C203.61,-89.11 212.81,-95.97 222.47,-100 231.38,-103.72 241.52,-105.76 251.15,-106.82"/>
<polygon fill="black" stroke="black" points="250.79,-110.3 261.02,-107.56 251.31,-103.32 250.79,-110.3"/>
<text text-anchor="middle" x="233.72" y="-108.23" font-family="Arial" font-size="14.00">e55</text>
</g>
<!-- s4 -->
<g id="node5" class="node">
<title>s4</title>
<path fill="none" stroke="black" d="M304.97,-66C304.97,-66 274.97,-66 274.97,-66 268.97,-66 262.97,-60 262.97,-54 262.97,-54 262.97,-42 262.97,-42 262.97,-36 268.97,-30 274.97,-30 274.97,-30 304.97,-30 304.97,-30 310.97,-30 316.97,-36 316.97,-42 316.97,-42 316.97,-54 316.97,-54 316.97,-60 310.97,-66 304.97,-66"/>
<text text-anchor="middle" x="289.97" y="-42.58" font-family="Arial" font-size="14.00">s4</text>
</g>
<!-- s2&#45;&gt;s4 -->
<g id="edge4" class="edge">
<title>s2&#45;&gt;s4</title>
<path fill="none" stroke="black" d="M204.91,-50.72C210.57,-48.45 216.61,-46.45 222.47,-45.25 231.62,-43.38 241.63,-42.97 251.04,-43.28"/>
<polygon fill="black" stroke="black" points="250.81,-46.77 261.01,-43.9 251.25,-39.78 250.81,-46.77"/>
<text text-anchor="middle" x="233.72" y="-47.7" font-family="Arial" font-size="14.00">e52</text>
</g>
<!-- s5&#45;&gt;s2 -->
<g id="edge5" class="edge">
<title>s5&#45;&gt;s2</title>
<path fill="none" stroke="black" d="M262.67,-89.23C257,-85.91 250.92,-82.71 244.97,-80.25 235.82,-76.46 225.57,-73.41 215.92,-71.03"/>
<polygon fill="black" stroke="black" points="216.96,-67.67 206.43,-68.86 215.4,-74.5 216.96,-67.67"/>
<text text-anchor="middle" x="233.72" y="-82.7" font-family="Arial" font-size="14.00">e51</text>
</g>
<!-- s8 -->
<g id="node6" class="node">
<title>s8</title>
<path fill="none" stroke="black" d="M417.47,-78C417.47,-78 387.47,-78 387.47,-78 381.47,-78 375.47,-72 375.47,-66 375.47,-66 375.47,-54 375.47,-54 375.47,-48 381.47,-42 387.47,-42 387.47,-42 417.47,-42 417.47,-42 423.47,-42 429.47,-48 429.47,-54 429.47,-54 429.47,-66 429.47,-66 429.47,-72 423.47,-78 417.47,-78"/>
<text text-anchor="middle" x="402.47" y="-54.58" font-family="Arial" font-size="14.00">s8</text>
</g>
<!-- s5&#45;&gt;s8 -->
<g id="edge6" class="edge">
<title>s5&#45;&gt;s8</title>
<path fill="none" stroke="black" d="M317.16,-106.36C329.81,-105.24 344.91,-102.67 357.47,-97 363.92,-94.09 370.17,-89.95 375.83,-85.49"/>
<polygon fill="black" stroke="black" points="377.72,-88.49 383.05,-79.33 373.18,-83.16 377.72,-88.49"/>
<text text-anchor="middle" x="346.22" y="-106.02" font-family="Arial" font-size="14.00">e53</text>
</g>
<!-- s4&#45;&gt;s8 -->
<g id="edge7" class="edge">
<title>s4&#45;&gt;s8</title>
<path fill="none" stroke="black" d="M317.36,-42.38C329.64,-40.61 344.39,-39.71 357.47,-42.25 359.65,-42.67 361.87,-43.21 364.08,-43.82"/>
<polygon fill="black" stroke="black" points="362.95,-47.13 373.54,-46.95 365.14,-40.48 362.95,-47.13"/>
<text text-anchor="middle" x="346.22" y="-44.7" font-family="Arial" font-size="14.00">e53</text>
</g>
<!-- s8&#45;&gt;s0 -->
<g id="edge8" class="edge">
<title>s8&#45;&gt;s0</title>
<path fill="none" stroke="black" d="M375.19,-43.9C359.05,-35.05 337.58,-25.05 316.97,-21 242.47,-6.36 153.12,-10.25 103.6,-14.23"/>
<polygon fill="black" stroke="black" points="103.37,-10.74 93.7,-15.08 103.97,-17.71 103.37,-10.74"/>
<text text-anchor="middle" x="233.72" y="-14.53" font-family="Arial" font-size="14.00">e54</text>
</g>
<!-- s8&#45;&gt;s5 -->
<g id="edge9" class="edge">
<title>s8&#45;&gt;s5</title>
<path fill="none" stroke="black" d="M375.19,-64.65C362.67,-67.41 347.69,-71.51 334.97,-77.25 331.42,-78.85 327.84,-80.74 324.34,-82.77"/>
<polygon fill="black" stroke="black" points="322.67,-79.69 316.05,-87.96 326.38,-85.62 322.67,-79.69"/>
<text text-anchor="middle" x="346.22" y="-79.7" font-family="Arial" font-size="14.00">e57</text>
</g>
</g>
</svg>
