<?xml version="1.0" encoding="UTF-8" standalone="no"?>
<!DOCTYPE svg PUBLIC "-//W3C//DTD SVG 1.1//EN"
 "http://www.w3.org/Graphics/SVG/1.1/DTD/svg11.dtd">
<!-- Generated by graphviz version 12.2.1 (20241206.2353)
 -->
<!-- Title: plant Pages: 1 -->
<svg width="418pt" height="192pt"
 viewBox="0.00 0.00 418.22 192.29" xmlns="http://www.w3.org/2000/svg" xmlns:xlink="http://www.w3.org/1999/xlink">
<g id="graph0" class="graph" transform="scale(1 1) rotate(0) translate(4 188.29)">
<title>plant</title>
<!-- dot_dummyinit_1 -->
<g id="node1" class="node">
<title>dot_dummyinit_1</title>
</g>
<!-- 1 -->
<g id="node2" class="node">
<title>1</title>
<ellipse fill="none" stroke="black" cx="59.72" cy="-57.44" rx="18" ry="18"/>
<ellipse fill="none" stroke="black" cx="59.72" cy="-57.44" rx="22" ry="22"/>
<text text-anchor="middle" x="59.72" y="-52.01" font-family="Arial" font-size="14.00">1</text>
</g>
<!-- dot_dummyinit_1&#45;&gt;1 -->
<g id="edge1" class="edge">
<title>dot_dummyinit_1&#45;&gt;1</title>
<path fill="none" stroke="black" d="M0.89,-57.44C2.38,-57.44 13.74,-57.44 26,-57.44"/>
<polygon fill="black" stroke="black" points="25.74,-60.94 35.74,-57.44 25.74,-53.94 25.74,-60.94"/>
</g>
<!-- 2 -->
<g id="node3" class="node">
<title>2</title>
<ellipse fill="none" stroke="black" cx="168.72" cy="-137.44" rx="18" ry="18"/>
<text text-anchor="middle" x="168.72" y="-132.01" font-family="Arial" font-size="14.00">2</text>
</g>
<!-- 1&#45;&gt;2 -->
<g id="edge2" class="edge">
<title>1&#45;&gt;2</title>
<path fill="none" stroke="black" d="M77.91,-70.29C95.98,-83.8 124.53,-105.14 144.57,-120.13"/>
<polygon fill="black" stroke="black" points="142.33,-122.82 152.43,-126.01 146.52,-117.22 142.33,-122.82"/>
<text text-anchor="middle" x="116.22" y="-111.73" font-family="Arial" font-size="14.00">alpha</text>
</g>
<!-- 3 -->
<g id="node4" class="node">
<title>3</title>
<ellipse fill="none" stroke="black" cx="168.72" cy="-57.44" rx="18" ry="18"/>
<text text-anchor="middle" x="168.72" y="-52.01" font-family="Arial" font-size="14.00">3</text>
</g>
<!-- 1&#45;&gt;3 -->
<g id="edge3" class="edge">
<title>1&#45;&gt;3</title>
<path fill="none" stroke="black" d="M82.12,-57.44C98.37,-57.44 120.89,-57.44 138.76,-57.44"/>
<polygon fill="black" stroke="black" points="138.74,-60.94 148.74,-57.44 138.74,-53.94 138.74,-60.94"/>
<text text-anchor="middle" x="116.22" y="-59.89" font-family="Arial" font-size="14.00">beta</text>
</g>
<!-- 4 -->
<g id="node5" class="node">
<title>4</title>
<ellipse fill="none" stroke="black" cx="392.22" cy="-85.44" rx="18" ry="18"/>
<text text-anchor="middle" x="392.22" y="-80.01" font-family="Arial" font-size="14.00">4</text>
</g>
<!-- 2&#45;&gt;4 -->
<g id="edge4" class="edge">
<title>2&#45;&gt;4</title>
<path fill="none" stroke="black" d="M184.11,-147.32C190.22,-151.06 197.56,-155 204.72,-157.44 241.45,-169.93 253.54,-171.31 291.72,-164.44 321.82,-159.02 332.44,-159.67 356.22,-140.44 365.62,-132.83 373.28,-121.99 379,-111.94"/>
<polygon fill="black" stroke="black" points="382.01,-113.74 383.56,-103.26 375.81,-110.49 382.01,-113.74"/>
<text text-anchor="middle" x="273.72" y="-170.99" font-family="Arial" font-size="14.00">alpha</text>
</g>
<!-- 5 -->
<g id="node6" class="node">
<title>5</title>
<ellipse fill="none" stroke="black" cx="273.72" cy="-137.44" rx="18" ry="18"/>
<text text-anchor="middle" x="273.72" y="-132.01" font-family="Arial" font-size="14.00">5</text>
</g>
<!-- 2&#45;&gt;5 -->
<g id="edge5" class="edge">
<title>2&#45;&gt;5</title>
<path fill="none" stroke="black" d="M187.19,-137.44C202.75,-137.44 225.8,-137.44 244.06,-137.44"/>
<polygon fill="black" stroke="black" points="243.99,-140.94 253.99,-137.44 243.99,-133.94 243.99,-140.94"/>
<text text-anchor="middle" x="221.22" y="-139.89" font-family="Arial" font-size="14.00">beta</text>
</g>
<!-- 3&#45;&gt;4 -->
<g id="edge6" class="edge">
<title>3&#45;&gt;4</title>
<path fill="none" stroke="black" d="M185.91,-63.32C191.77,-65.23 198.47,-67.19 204.72,-68.44 259.86,-79.48 325.61,-83.36 362.48,-84.72"/>
<polygon fill="black" stroke="black" points="362.19,-88.21 372.3,-85.04 362.42,-81.21 362.19,-88.21"/>
<text text-anchor="middle" x="273.72" y="-82.56" font-family="Arial" font-size="14.00">beta</text>
</g>
<!-- 6 -->
<g id="node7" class="node">
<title>6</title>
<ellipse fill="none" stroke="black" cx="273.72" cy="-31.44" rx="18" ry="18"/>
<text text-anchor="middle" x="273.72" y="-26.01" font-family="Arial" font-size="14.00">6</text>
</g>
<!-- 3&#45;&gt;6 -->
<g id="edge7" class="edge">
<title>3&#45;&gt;6</title>
<path fill="none" stroke="black" d="M186.27,-53.26C202.02,-49.28 226.02,-43.22 244.74,-38.5"/>
<polygon fill="black" stroke="black" points="245.56,-41.9 254.4,-36.06 243.85,-35.11 245.56,-41.9"/>
<text text-anchor="middle" x="221.22" y="-50.73" font-family="Arial" font-size="14.00">alpha</text>
</g>
<!-- 4&#45;&gt;1 -->
<g id="edge8" class="edge">
<title>4&#45;&gt;1</title>
<path fill="none" stroke="black" d="M383.24,-69.49C377.09,-58.49 367.7,-44.15 356.22,-34.44 332.09,-14.01 322.59,-11.26 291.72,-4.44 218.94,11.66 133.5,-21.56 89.75,-42.36"/>
<polygon fill="black" stroke="black" points="88.37,-39.15 80.92,-46.68 91.44,-45.43 88.37,-39.15"/>
<text text-anchor="middle" x="221.22" y="-6.53" font-family="Arial" font-size="14.00">delta</text>
</g>
<!-- 5&#45;&gt;4 -->
<g id="edge9" class="edge">
<title>5&#45;&gt;4</title>
<path fill="none" stroke="black" d="M290.43,-130.42C309.54,-121.89 342.08,-107.37 365,-97.14"/>
<polygon fill="black" stroke="black" points="366.3,-100.39 374,-93.12 363.44,-94 366.3,-100.39"/>
<text text-anchor="middle" x="332.97" y="-123.07" font-family="Arial" font-size="14.00">gamma</text>
</g>
<!-- 6&#45;&gt;4 -->
<g id="edge10" class="edge">
<title>6&#45;&gt;4</title>
<path fill="none" stroke="black" d="M291.75,-34.36C308.81,-37.77 335.46,-44.43 356.22,-55.69 361.13,-58.35 365.98,-61.78 370.42,-65.37"/>
<polygon fill="black" stroke="black" points="367.9,-67.81 377.74,-71.74 372.5,-62.53 367.9,-67.81"/>
<text text-anchor="middle" x="332.97" y="-58.14" font-family="Arial" font-size="14.00">gamma</text>
</g>
</g>
</svg>
