<?xml version="1.0" encoding="UTF-8" standalone="no"?>
<!DOCTYPE svg PUBLIC "-//W3C//DTD SVG 1.0//EN"
 "http://www.w3.org/TR/2001/REC-SVG-20010904/DTD/svg10.dtd" [
 <!ATTLIST svg xmlns:xlink CDATA #FIXED "http://www.w3.org/1999/xlink">
]>
<!-- Generated by Graphviz version 2.20.2 (Tue Mar &#160;2 21:46:26 UTC 2010)
     For user: (mtmoor) Prof. Thomas Moor -->
<!-- Title: sup Pages: 1 -->
<svg width="600pt" height="114pt"
 viewBox="0.00 0.00 600.00 114.00" xmlns="http://www.w3.org/2000/svg" xmlns:xlink="http://www.w3.org/1999/xlink">
<g id="graph0" class="graph" transform="scale(1 1) rotate(0) translate(4 110)">
<title>sup</title>
<polygon style="fill:none;stroke:none;" points="-4,4 -4,-110 596,-110 596,4 -4,4"/>
<!-- dot_dummyinit_1 -->
<g id="node1" class="node"><title>dot_dummyinit_1</title>
</g>
<!-- 1 -->
<g id="node3" class="node"><title>1</title>
<ellipse style="fill:none;stroke:black;" cx="58" cy="-47" rx="18" ry="18"/>
<text text-anchor="middle" x="58" y="-42.9" style="font-family:Times New Roman;font-size:14.00;">1</text>
</g>
<!-- dot_dummyinit_1&#45;&gt;1 -->
<g id="edge2" class="edge"><title>dot_dummyinit_1&#45;&gt;1</title>
<path style="fill:none;stroke:black;" d="M2,-47C6,-47 18,-47 30,-47"/>
<polygon style="fill:black;stroke:black;" points="30,-50.5001 40,-47 30,-43.5001 30,-50.5001"/>
</g>
<!-- 2 -->
<g id="node4" class="node"><title>2</title>
<ellipse style="fill:none;stroke:black;" cx="182" cy="-47" rx="18" ry="18"/>
<ellipse style="fill:none;stroke:black;" cx="182" cy="-47" rx="22" ry="22"/>
<text text-anchor="middle" x="182" y="-42.9" style="font-family:Times New Roman;font-size:14.00;">2</text>
</g>
<!-- 1&#45;&gt;2 -->
<g id="edge4" class="edge"><title>1&#45;&gt;2</title>
<path style="fill:none;stroke:black;" d="M76,-47C95,-47 126,-47 150,-47"/>
<polygon style="fill:black;stroke:black;" points="150,-50.5001 160,-47 150,-43.5001 150,-50.5001"/>
<text text-anchor="middle" x="118" y="-51.9" style="font-family:Times New Roman;font-size:14.00;">alpha0</text>
</g>
<!-- 3 -->
<g id="node5" class="node"><title>3</title>
<ellipse style="fill:none;stroke:black;" cx="310" cy="-47" rx="18" ry="18"/>
<ellipse style="fill:none;stroke:black;" cx="310" cy="-47" rx="22" ry="22"/>
<text text-anchor="middle" x="310" y="-42.9" style="font-family:Times New Roman;font-size:14.00;">3</text>
</g>
<!-- 2&#45;&gt;3 -->
<g id="edge6" class="edge"><title>2&#45;&gt;3</title>
<path style="fill:none;stroke:black;" d="M204,-47C225,-47 255,-47 278,-47"/>
<polygon style="fill:black;stroke:black;" points="278,-50.5001 288,-47 278,-43.5001 278,-50.5001"/>
<text text-anchor="middle" x="246" y="-51.9" style="font-family:Times New Roman;font-size:14.00;">alpha1</text>
</g>
<!-- 4 -->
<g id="node6" class="node"><title>4</title>
<ellipse style="fill:none;stroke:black;" cx="440" cy="-84" rx="18" ry="18"/>
<ellipse style="fill:none;stroke:black;" cx="440" cy="-84" rx="22" ry="22"/>
<text text-anchor="middle" x="440" y="-79.9" style="font-family:Times New Roman;font-size:14.00;">4</text>
</g>
<!-- 3&#45;&gt;4 -->
<g id="edge8" class="edge"><title>3&#45;&gt;4</title>
<path style="fill:none;stroke:black;" d="M331,-53C352,-59 384,-68 408,-75"/>
<polygon style="fill:black;stroke:black;" points="407.416,-78.4788 418,-78 409.427,-71.7741 407.416,-78.4788"/>
<text text-anchor="middle" x="375" y="-77.9" style="font-family:Times New Roman;font-size:14.00;">alpha2</text>
</g>
<!-- 5 -->
<g id="node7" class="node"><title>5</title>
<ellipse style="fill:none;stroke:black;" cx="440" cy="-22" rx="18" ry="18"/>
<ellipse style="fill:none;stroke:black;" cx="440" cy="-22" rx="22" ry="22"/>
<text text-anchor="middle" x="440" y="-17.9" style="font-family:Times New Roman;font-size:14.00;">5</text>
</g>
<!-- 3&#45;&gt;5 -->
<g id="edge10" class="edge"><title>3&#45;&gt;5</title>
<path style="fill:none;stroke:black;" d="M331,-40C337,-38 344,-36 350,-34 369,-30 391,-27 408,-25"/>
<polygon style="fill:black;stroke:black;" points="408.398,-28.4778 418,-24 407.701,-21.5125 408.398,-28.4778"/>
<text text-anchor="middle" x="375" y="-41.9" style="font-family:Times New Roman;font-size:14.00;">beta02</text>
</g>
<!-- 6 -->
<g id="node8" class="node"><title>6</title>
<ellipse style="fill:none;stroke:black;" cx="570" cy="-84" rx="18" ry="18"/>
<ellipse style="fill:none;stroke:black;" cx="570" cy="-84" rx="22" ry="22"/>
<text text-anchor="middle" x="570" y="-79.9" style="font-family:Times New Roman;font-size:14.00;">6</text>
</g>
<!-- 4&#45;&gt;6 -->
<g id="edge12" class="edge"><title>4&#45;&gt;6</title>
<path style="fill:none;stroke:black;" d="M462,-84C483,-84 514,-84 538,-84"/>
<polygon style="fill:black;stroke:black;" points="538,-87.5001 548,-84 538,-80.5001 538,-87.5001"/>
<text text-anchor="middle" x="505" y="-87.9" style="font-family:Times New Roman;font-size:14.00;">beta03</text>
</g>
</g>
</svg>
