<?xml version="1.0" encoding="UTF-8" standalone="no"?>
<!DOCTYPE svg PUBLIC "-//W3C//DTD SVG 1.0//EN"
 "http://www.w3.org/TR/2001/REC-SVG-20010904/DTD/svg10.dtd" [
 <!ATTLIST svg xmlns:xlink CDATA #FIXED "http://www.w3.org/1999/xlink">
]>
<!-- Generated by Graphviz version 2.20.2 (Tue Mar &#160;2 21:46:26 UTC 2010)
     For user: (mtmoor) Prof. Thomas Moor -->
<!-- Title: PrefixClosure(very simple machine_1...|Project(PrefixClosure(supervisor)) Pages: 1 -->
<svg width="720pt" height="93pt"
 viewBox="0.00 0.00 720.00 93.12" xmlns="http://www.w3.org/2000/svg" xmlns:xlink="http://www.w3.org/1999/xlink">
<g id="graph0" class="graph" transform="scale(0.96 0.96) rotate(0) translate(4 93)">
<title>PrefixClosure(very simple machine_1...|Project(PrefixClosure(supervisor))</title>
<polygon style="fill:none;stroke:none;" points="-4,4 -4,-93 746,-93 746,4 -4,4"/>
<!-- dot_dummyinit_1 -->
<g id="node1" class="node"><title>dot_dummyinit_1</title>
</g>
<!-- 1 -->
<g id="node3" class="node"><title>1</title>
<ellipse style="fill:none;stroke:black;" cx="62" cy="-65" rx="18" ry="18"/>
<ellipse style="fill:none;stroke:black;" cx="62" cy="-65" rx="22" ry="22"/>
<text text-anchor="middle" x="62" y="-60.9" style="font-family:Times New Roman;font-size:14.00;">1</text>
</g>
<!-- dot_dummyinit_1&#45;&gt;1 -->
<g id="edge2" class="edge"><title>dot_dummyinit_1&#45;&gt;1</title>
<path style="fill:none;stroke:black;" d="M2,-65C5,-65 17,-65 30,-65"/>
<polygon style="fill:black;stroke:black;" points="30,-68.5001 40,-65 30,-61.5001 30,-68.5001"/>
</g>
<!-- 2 -->
<g id="node4" class="node"><title>2</title>
<ellipse style="fill:none;stroke:black;" cx="196" cy="-31" rx="18" ry="18"/>
<ellipse style="fill:none;stroke:black;" cx="196" cy="-31" rx="22" ry="22"/>
<text text-anchor="middle" x="196" y="-26.9" style="font-family:Times New Roman;font-size:14.00;">2</text>
</g>
<!-- 1&#45;&gt;2 -->
<g id="edge4" class="edge"><title>1&#45;&gt;2</title>
<path style="fill:none;stroke:black;" d="M83,-57C89,-55 96,-53 102,-51 123,-46 146,-41 164,-37"/>
<polygon style="fill:black;stroke:black;" points="164.881,-40.3933 174,-35 163.508,-33.5292 164.881,-40.3933"/>
<text text-anchor="middle" x="129" y="-58.9" style="font-family:Times New Roman;font-size:14.00;">alpha_1</text>
</g>
<!-- 3 -->
<g id="node5" class="node"><title>3</title>
<ellipse style="fill:none;stroke:black;" cx="324" cy="-31" rx="18" ry="18"/>
<ellipse style="fill:none;stroke:black;" cx="324" cy="-31" rx="22" ry="22"/>
<text text-anchor="middle" x="324" y="-26.9" style="font-family:Times New Roman;font-size:14.00;">3</text>
</g>
<!-- 2&#45;&gt;3 -->
<g id="edge6" class="edge"><title>2&#45;&gt;3</title>
<path style="fill:none;stroke:black;" d="M218,-31C239,-31 269,-31 292,-31"/>
<polygon style="fill:black;stroke:black;" points="292,-34.5001 302,-31 292,-27.5001 292,-34.5001"/>
<text text-anchor="middle" x="260" y="-35.9" style="font-family:Times New Roman;font-size:14.00;">beta_1</text>
</g>
<!-- 4 -->
<g id="node6" class="node"><title>4</title>
<ellipse style="fill:none;stroke:black;" cx="458" cy="-67" rx="18" ry="18"/>
<ellipse style="fill:none;stroke:black;" cx="458" cy="-67" rx="22" ry="22"/>
<text text-anchor="middle" x="458" y="-62.9" style="font-family:Times New Roman;font-size:14.00;">4</text>
</g>
<!-- 3&#45;&gt;4 -->
<g id="edge8" class="edge"><title>3&#45;&gt;4</title>
<path style="fill:none;stroke:black;" d="M346,-35C365,-38 394,-44 418,-51 421,-52 425,-53 428,-54"/>
<polygon style="fill:black;stroke:black;" points="427.415,-57.5357 438,-58 430.015,-51.0364 427.415,-57.5357"/>
<text text-anchor="middle" x="391" y="-55.9" style="font-family:Times New Roman;font-size:14.00;">alpha_2</text>
</g>
<!-- 4&#45;&gt;1 -->
<g id="edge12" class="edge"><title>4&#45;&gt;1</title>
<path style="fill:none;stroke:black;" d="M436,-68C380,-69 229,-72 102,-68 99,-68 97,-68 94,-68"/>
<polygon style="fill:black;stroke:black;" points="94.2987,-64.5125 84,-67 93.6021,-71.4778 94.2987,-64.5125"/>
<text text-anchor="middle" x="260" y="-74.9" style="font-family:Times New Roman;font-size:14.00;">beta_2</text>
</g>
<!-- 5 -->
<g id="node7" class="node"><title>5</title>
<ellipse style="fill:none;stroke:black;" cx="592" cy="-67" rx="18" ry="18"/>
<ellipse style="fill:none;stroke:black;" cx="592" cy="-67" rx="22" ry="22"/>
<text text-anchor="middle" x="592" y="-62.9" style="font-family:Times New Roman;font-size:14.00;">5</text>
</g>
<!-- 4&#45;&gt;5 -->
<g id="edge10" class="edge"><title>4&#45;&gt;5</title>
<path style="fill:none;stroke:black;" d="M480,-67C502,-67 535,-67 560,-67"/>
<polygon style="fill:black;stroke:black;" points="560,-70.5001 570,-67 560,-63.5001 560,-70.5001"/>
<text text-anchor="middle" x="525" y="-70.9" style="font-family:Times New Roman;font-size:14.00;">alpha_1</text>
</g>
<!-- 5&#45;&gt;2 -->
<g id="edge16" class="edge"><title>5&#45;&gt;2</title>
<path style="fill:none;stroke:black;" d="M577,-50C570,-43 562,-36 552,-31 526,-19 386,11 302,-0 276,-3 247,-12 227,-19"/>
<polygon style="fill:black;stroke:black;" points="224.985,-16.0364 217,-23 227.585,-22.5357 224.985,-16.0364"/>
<text text-anchor="middle" x="391" y="-8.9" style="font-family:Times New Roman;font-size:14.00;">beta_2</text>
</g>
<!-- 6 -->
<g id="node8" class="node"><title>6</title>
<ellipse style="fill:none;stroke:black;" cx="720" cy="-37" rx="18" ry="18"/>
<ellipse style="fill:none;stroke:black;" cx="720" cy="-37" rx="22" ry="22"/>
<text text-anchor="middle" x="720" y="-32.9" style="font-family:Times New Roman;font-size:14.00;">6</text>
</g>
<!-- 5&#45;&gt;6 -->
<g id="edge14" class="edge"><title>5&#45;&gt;6</title>
<path style="fill:none;stroke:black;" d="M613,-62C634,-57 665,-49 689,-44"/>
<polygon style="fill:black;stroke:black;" points="689.881,-47.3933 699,-42 688.508,-40.5292 689.881,-47.3933"/>
<text text-anchor="middle" x="656" y="-62.9" style="font-family:Times New Roman;font-size:14.00;">beta_1</text>
</g>
<!-- 6&#45;&gt;3 -->
<g id="edge18" class="edge"><title>6&#45;&gt;3</title>
<path style="fill:none;stroke:black;" d="M698,-37C631,-36 435,-33 356,-31"/>
<polygon style="fill:black;stroke:black;" points="356,-27.5001 346,-31 356,-34.5001 356,-27.5001"/>
<text text-anchor="middle" x="525" y="-40.9" style="font-family:Times New Roman;font-size:14.00;">beta_2</text>
</g>
</g>
</svg>
