<?xml version="1.0" encoding="UTF-8" standalone="no"?>
<!DOCTYPE svg PUBLIC "-//W3C//DTD SVG 1.1//EN"
 "http://www.w3.org/Graphics/SVG/1.1/DTD/svg11.dtd">
<!-- Generated by graphviz version 12.2.1 (20241206.2353)
 -->
<!-- Title: Generator Pages: 1 -->
<svg width="218pt" height="66pt"
 viewBox="0.00 0.00 218.47 65.66" xmlns="http://www.w3.org/2000/svg" xmlns:xlink="http://www.w3.org/1999/xlink">
<g id="graph0" class="graph" transform="scale(1 1) rotate(0) translate(4 61.66)">
<title>Generator</title>
<!-- dot_dummyinit_1 -->
<g id="node1" class="node">
<title>dot_dummyinit_1</title>
</g>
<!-- 1 -->
<g id="node2" class="node">
<title>1</title>
<ellipse fill="none" stroke="black" cx="59.72" cy="-34.67" rx="18" ry="18"/>
<ellipse fill="none" stroke="black" cx="59.72" cy="-34.67" rx="22" ry="22"/>
<text text-anchor="middle" x="59.72" y="-29.25" font-family="Arial" font-size="14.00">1</text>
</g>
<!-- dot_dummyinit_1&#45;&gt;1 -->
<g id="edge1" class="edge">
<title>dot_dummyinit_1&#45;&gt;1</title>
<path fill="none" stroke="black" d="M0.89,-34.67C2.38,-34.67 13.74,-34.67 26,-34.67"/>
<polygon fill="black" stroke="black" points="25.74,-38.17 35.74,-34.67 25.74,-31.17 25.74,-38.17"/>
</g>
<!-- 2 -->
<g id="node3" class="node">
<title>2</title>
<ellipse fill="none" stroke="black" cx="188.47" cy="-34.67" rx="18" ry="18"/>
<ellipse fill="none" stroke="black" cx="188.47" cy="-34.67" rx="22" ry="22"/>
<text text-anchor="middle" x="188.47" y="-29.25" font-family="Arial" font-size="14.00">2</text>
</g>
<!-- 1&#45;&gt;2 -->
<g id="edge2" class="edge">
<title>1&#45;&gt;2</title>
<path fill="none" stroke="black" d="M81.7,-38.5C87.52,-39.4 93.85,-40.22 99.72,-40.67 121.32,-42.32 126.87,-42.32 148.47,-40.67 150.67,-40.5 152.94,-40.28 155.22,-40.02"/>
<polygon fill="black" stroke="black" points="155.55,-43.51 164.99,-38.7 154.61,-36.57 155.55,-43.51"/>
<text text-anchor="middle" x="124.1" y="-44.36" font-family="Arial" font-size="14.00">alpha1</text>
</g>
<!-- 2&#45;&gt;1 -->
<g id="edge3" class="edge">
<title>2&#45;&gt;1</title>
<path fill="none" stroke="black" d="M172.15,-19.42C165.46,-13.79 157.16,-8.09 148.47,-5.17 127.93,1.72 120.26,1.72 99.72,-5.17 94.56,-6.9 89.54,-9.62 84.91,-12.71"/>
<polygon fill="black" stroke="black" points="83.11,-9.68 77.25,-18.5 87.33,-15.27 83.11,-9.68"/>
<text text-anchor="middle" x="124.1" y="-23.37" font-family="Arial" font-size="14.00">beta03, </text>
<text text-anchor="middle" x="124.1" y="-7.62" font-family="Arial" font-size="14.00">beta02</text>
</g>
</g>
</svg>
