<?xml version="1.0" encoding="UTF-8" standalone="no"?>
<!DOCTYPE svg PUBLIC "-//W3C//DTD SVG 1.0//EN"
 "http://www.w3.org/TR/2001/REC-SVG-20010904/DTD/svg10.dtd" [
 <!ATTLIST svg xmlns:xlink CDATA #FIXED "http://www.w3.org/1999/xlink">
]>
<!-- Generated by Graphviz version 2.20.2 (Tue Mar &#160;2 21:46:26 UTC 2010)
     For user: (mtmoor) Prof. Thomas Moor -->
<!-- Title: PrefixClosure(very simple machine_1||very simple machine_2) Pages: 1 -->
<svg width="544pt" height="119pt"
 viewBox="0.00 0.00 544.00 119.00" xmlns="http://www.w3.org/2000/svg" xmlns:xlink="http://www.w3.org/1999/xlink">
<g id="graph0" class="graph" transform="scale(1 1) rotate(0) translate(4 115)">
<title>PrefixClosure(very simple machine_1||very simple machine_2)</title>
<polygon style="fill:none;stroke:none;" points="-4,4 -4,-115 540,-115 540,4 -4,4"/>
<!-- dot_dummyinit_1 -->
<g id="node1" class="node"><title>dot_dummyinit_1</title>
</g>
<!-- I|I -->
<g id="node3" class="node"><title>I|I</title>
<ellipse style="fill:none;stroke:black;" cx="65" cy="-28" rx="20.8465" ry="20.8465"/>
<ellipse style="fill:none;stroke:black;" cx="65" cy="-28" rx="24.8465" ry="24.8465"/>
<text text-anchor="middle" x="65" y="-23.9" style="font-family:Times New Roman;font-size:14.00;">I|I</text>
</g>
<!-- dot_dummyinit_1&#45;&gt;I|I -->
<g id="edge2" class="edge"><title>dot_dummyinit_1&#45;&gt;I|I</title>
<path style="fill:none;stroke:black;" d="M2,-28C6,-28 18,-28 30,-28"/>
<polygon style="fill:black;stroke:black;" points="30,-31.5001 40,-28 30,-24.5001 30,-31.5001"/>
</g>
<!-- B|I -->
<g id="node4" class="node"><title>B|I</title>
<ellipse style="fill:none;stroke:black;" cx="208" cy="-76" rx="23.8942" ry="23.8942"/>
<ellipse style="fill:none;stroke:black;" cx="208" cy="-76" rx="27.824" ry="27.824"/>
<text text-anchor="middle" x="208" y="-71.9" style="font-family:Times New Roman;font-size:14.00;">B|I</text>
</g>
<!-- I|I&#45;&gt;B|I -->
<g id="edge4" class="edge"><title>I|I&#45;&gt;B|I</title>
<path style="fill:none;stroke:black;" d="M83,-46C90,-52 99,-59 108,-63 127,-71 151,-74 170,-75"/>
<polygon style="fill:black;stroke:black;" points="169.701,-78.4875 180,-76 170.398,-71.5222 169.701,-78.4875"/>
<text text-anchor="middle" x="135" y="-76.9" style="font-family:Times New Roman;font-size:14.00;">alpha_1</text>
</g>
<!-- I|B -->
<g id="node5" class="node"><title>I|B</title>
<ellipse style="fill:none;stroke:black;" cx="508" cy="-28" rx="23.8942" ry="23.8942"/>
<ellipse style="fill:none;stroke:black;" cx="508" cy="-28" rx="27.824" ry="27.824"/>
<text text-anchor="middle" x="508" y="-23.9" style="font-family:Times New Roman;font-size:14.00;">I|B</text>
</g>
<!-- I|I&#45;&gt;I|B -->
<g id="edge6" class="edge"><title>I|I&#45;&gt;I|B</title>
<path style="fill:none;stroke:black;" d="M90,-26C96,-26 102,-26 108,-26 132,-25 139,-25 162,-26 296,-26 329,-25 462,-27 465,-27 467,-27 470,-27"/>
<polygon style="fill:black;stroke:black;" points="470,-30.5001 480,-27 470,-23.5001 470,-30.5001"/>
<text text-anchor="middle" x="281" y="-28.9" style="font-family:Times New Roman;font-size:14.00;">alpha_2</text>
</g>
<!-- B|I&#45;&gt;I|I -->
<g id="edge8" class="edge"><title>B|I&#45;&gt;I|I</title>
<path style="fill:none;stroke:black;" d="M188,-56C181,-49 172,-43 162,-39 143,-31 119,-28 100,-27"/>
<polygon style="fill:black;stroke:black;" points="100,-23.5001 90,-27 100,-30.5001 100,-23.5001"/>
<text text-anchor="middle" x="135" y="-42.9" style="font-family:Times New Roman;font-size:14.00;">beta_1</text>
</g>
<!-- B|B -->
<g id="node6" class="node"><title>B|B</title>
<ellipse style="fill:none;stroke:black;" cx="358" cy="-79" rx="27.7953" ry="27.7953"/>
<ellipse style="fill:none;stroke:black;" cx="358" cy="-79" rx="31.7953" ry="31.7953"/>
<text text-anchor="middle" x="358" y="-74.9" style="font-family:Times New Roman;font-size:14.00;">B|B</text>
</g>
<!-- B|I&#45;&gt;B|B -->
<g id="edge10" class="edge"><title>B|I&#45;&gt;B|B</title>
<path style="fill:none;stroke:black;" d="M236,-80C242,-81 248,-81 254,-82 274,-83 297,-82 316,-81"/>
<polygon style="fill:black;stroke:black;" points="316,-84.5001 326,-81 316,-77.5001 316,-84.5001"/>
<text text-anchor="middle" x="281" y="-85.9" style="font-family:Times New Roman;font-size:14.00;">alpha_2</text>
</g>
<!-- I|B&#45;&gt;I|I -->
<g id="edge14" class="edge"><title>I|B&#45;&gt;I|I</title>
<path style="fill:none;stroke:black;" d="M480,-23C474,-22 468,-22 462,-21 371,-8 347,2 254,-4 189,-7 173,-11 108,-21 105,-21 103,-22 100,-22"/>
<polygon style="fill:black;stroke:black;" points="99.1194,-18.6067 90,-24 100.492,-25.4708 99.1194,-18.6067"/>
<text text-anchor="middle" x="281" y="-7.9" style="font-family:Times New Roman;font-size:14.00;">beta_2</text>
</g>
<!-- I|B&#45;&gt;B|B -->
<g id="edge12" class="edge"><title>I|B&#45;&gt;B|B</title>
<path style="fill:none;stroke:black;" d="M480,-30C460,-32 431,-37 408,-46 403,-48 397,-51 392,-54"/>
<polygon style="fill:black;stroke:black;" points="390.042,-51.084 383,-59 393.441,-57.2031 390.042,-51.084"/>
<text text-anchor="middle" x="435" y="-49.9" style="font-family:Times New Roman;font-size:14.00;">alpha_1</text>
</g>
<!-- B|B&#45;&gt;B|I -->
<g id="edge18" class="edge"><title>B|B&#45;&gt;B|I</title>
<path style="fill:none;stroke:black;" d="M329,-64C323,-62 315,-59 308,-58 285,-53 278,-53 254,-58 250,-59 247,-60 244,-61"/>
<polygon style="fill:black;stroke:black;" points="242.573,-57.7741 234,-64 244.584,-64.4788 242.573,-57.7741"/>
<text text-anchor="middle" x="281" y="-61.9" style="font-family:Times New Roman;font-size:14.00;">beta_2</text>
</g>
<!-- B|B&#45;&gt;I|B -->
<g id="edge16" class="edge"><title>B|B&#45;&gt;I|B</title>
<path style="fill:none;stroke:black;" d="M390,-78C411,-76 439,-73 462,-63 468,-60 474,-57 479,-53"/>
<polygon style="fill:black;stroke:black;" points="481.1,-55.8 487,-47 476.9,-50.2 481.1,-55.8"/>
<text text-anchor="middle" x="435" y="-78.9" style="font-family:Times New Roman;font-size:14.00;">beta_1</text>
</g>
</g>
</svg>
