<?xml version="1.0" encoding="UTF-8" standalone="no"?>
<!DOCTYPE svg PUBLIC "-//W3C//DTD SVG 1.1//EN"
 "http://www.w3.org/Graphics/SVG/1.1/DTD/svg11.dtd">
<!-- Generated by graphviz version 12.2.1 (20241206.2353)
 -->
<!-- Title: PrefixClosure(very simple machine_1...|Project(PrefixClosure(supervisor)) Pages: 1 -->
<svg width="720pt" height="239pt"
 viewBox="0.00 0.00 720.00 238.72" xmlns="http://www.w3.org/2000/svg" xmlns:xlink="http://www.w3.org/1999/xlink">
<g id="graph0" class="graph" transform="scale(0.995892 0.995892) rotate(0) translate(4 235.71)">
<title>PrefixClosure(very simple machine_1...|Project(PrefixClosure(supervisor))</title>
<!-- dot_dummyinit_1 -->
<g id="node1" class="node">
<title>dot_dummyinit_1</title>
</g>
<!-- 1 -->
<g id="node2" class="node">
<title>1</title>
<ellipse fill="none" stroke="black" cx="59.72" cy="-39.43" rx="18" ry="18"/>
<ellipse fill="none" stroke="black" cx="59.72" cy="-39.43" rx="22" ry="22"/>
<text text-anchor="middle" x="59.72" y="-34" font-family="Arial" font-size="14.00">1</text>
</g>
<!-- dot_dummyinit_1&#45;&gt;1 -->
<g id="edge1" class="edge">
<title>dot_dummyinit_1&#45;&gt;1</title>
<path fill="none" stroke="black" d="M0.89,-39.43C2.38,-39.43 13.74,-39.43 26,-39.43"/>
<polygon fill="black" stroke="black" points="25.74,-42.93 35.74,-39.43 25.74,-35.93 25.74,-42.93"/>
</g>
<!-- 2 -->
<g id="node3" class="node">
<title>2</title>
<ellipse fill="none" stroke="black" cx="187.72" cy="-98.43" rx="18" ry="18"/>
<ellipse fill="none" stroke="black" cx="187.72" cy="-98.43" rx="22" ry="22"/>
<text text-anchor="middle" x="187.72" y="-93" font-family="Arial" font-size="14.00">2</text>
</g>
<!-- 1&#45;&gt;2 -->
<g id="edge2" class="edge">
<title>1&#45;&gt;2</title>
<path fill="none" stroke="black" d="M80.13,-48.52C100.72,-58.16 133.5,-73.51 157.28,-84.64"/>
<polygon fill="black" stroke="black" points="155.58,-87.71 166.12,-88.78 158.55,-81.37 155.58,-87.71"/>
<text text-anchor="middle" x="123.72" y="-81.8" font-family="Arial" font-size="14.00">alpha_1</text>
</g>
<!-- 3 -->
<g id="node4" class="node">
<title>3</title>
<ellipse fill="none" stroke="black" cx="315.72" cy="-160.43" rx="18" ry="18"/>
<ellipse fill="none" stroke="black" cx="315.72" cy="-160.43" rx="22" ry="22"/>
<text text-anchor="middle" x="315.72" y="-155" font-family="Arial" font-size="14.00">3</text>
</g>
<!-- 2&#45;&gt;3 -->
<g id="edge3" class="edge">
<title>2&#45;&gt;3</title>
<path fill="none" stroke="black" d="M207.72,-108.29C214.06,-111.55 221.18,-115.17 227.72,-118.43 246.69,-127.87 268.12,-138.22 284.97,-146.28"/>
<polygon fill="black" stroke="black" points="283.41,-149.42 293.94,-150.57 286.42,-143.1 283.41,-149.42"/>
<text text-anchor="middle" x="251.72" y="-143.93" font-family="Arial" font-size="14.00">beta_1</text>
</g>
<!-- 4 -->
<g id="node5" class="node">
<title>4</title>
<ellipse fill="none" stroke="black" cx="315.72" cy="-98.43" rx="18" ry="18"/>
<ellipse fill="none" stroke="black" cx="315.72" cy="-98.43" rx="22" ry="22"/>
<text text-anchor="middle" x="315.72" y="-93" font-family="Arial" font-size="14.00">4</text>
</g>
<!-- 2&#45;&gt;4 -->
<g id="edge4" class="edge">
<title>2&#45;&gt;4</title>
<path fill="none" stroke="black" d="M210.09,-98.43C229.73,-98.43 259.14,-98.43 281.79,-98.43"/>
<polygon fill="black" stroke="black" points="281.73,-101.93 291.73,-98.43 281.73,-94.93 281.73,-101.93"/>
<text text-anchor="middle" x="251.72" y="-100.88" font-family="Arial" font-size="14.00">alpha_2</text>
</g>
<!-- 5 -->
<g id="node6" class="node">
<title>5</title>
<ellipse fill="none" stroke="black" cx="443.72" cy="-116.43" rx="18" ry="18"/>
<ellipse fill="none" stroke="black" cx="443.72" cy="-116.43" rx="22" ry="22"/>
<text text-anchor="middle" x="443.72" y="-111" font-family="Arial" font-size="14.00">5</text>
</g>
<!-- 3&#45;&gt;5 -->
<g id="edge5" class="edge">
<title>3&#45;&gt;5</title>
<path fill="none" stroke="black" d="M336.96,-153.36C357.17,-146.3 388.49,-135.37 411.81,-127.23"/>
<polygon fill="black" stroke="black" points="412.81,-130.58 421.1,-123.98 410.5,-123.97 412.81,-130.58"/>
<text text-anchor="middle" x="379.72" y="-148.65" font-family="Arial" font-size="14.00">alpha_2</text>
</g>
<!-- 4&#45;&gt;5 -->
<g id="edge6" class="edge">
<title>4&#45;&gt;5</title>
<path fill="none" stroke="black" d="M337.81,-101.44C357.62,-104.27 387.54,-108.55 410.36,-111.81"/>
<polygon fill="black" stroke="black" points="409.67,-115.24 420.06,-113.19 410.66,-108.31 409.67,-115.24"/>
<text text-anchor="middle" x="379.72" y="-113.06" font-family="Arial" font-size="14.00">beta_1</text>
</g>
<!-- 6 -->
<g id="node7" class="node">
<title>6</title>
<ellipse fill="none" stroke="black" cx="443.72" cy="-30.43" rx="18" ry="18"/>
<ellipse fill="none" stroke="black" cx="443.72" cy="-30.43" rx="22" ry="22"/>
<text text-anchor="middle" x="443.72" y="-25" font-family="Arial" font-size="14.00">6</text>
</g>
<!-- 4&#45;&gt;6 -->
<g id="edge7" class="edge">
<title>4&#45;&gt;6</title>
<path fill="none" stroke="black" d="M335.58,-88.25C356.28,-77.08 389.73,-59.03 413.75,-46.06"/>
<polygon fill="black" stroke="black" points="415.26,-49.23 422.4,-41.4 411.93,-43.07 415.26,-49.23"/>
<text text-anchor="middle" x="379.72" y="-78.88" font-family="Arial" font-size="14.00">beta_2</text>
</g>
<!-- 5&#45;&gt;1 -->
<g id="edge8" class="edge">
<title>5&#45;&gt;1</title>
<path fill="none" stroke="black" d="M435.79,-95.56C429.77,-81.02 419.49,-62.64 403.72,-53.43 351.7,-23.04 167.9,-31.92 92.92,-37"/>
<polygon fill="black" stroke="black" points="93.1,-33.48 83.37,-37.67 93.59,-40.46 93.1,-33.48"/>
<text text-anchor="middle" x="251.72" y="-34.7" font-family="Arial" font-size="14.00">beta_2</text>
</g>
<!-- 7 -->
<g id="node8" class="node">
<title>7</title>
<ellipse fill="none" stroke="black" cx="571.72" cy="-131.43" rx="18" ry="18"/>
<ellipse fill="none" stroke="black" cx="571.72" cy="-131.43" rx="22" ry="22"/>
<text text-anchor="middle" x="571.72" y="-126" font-family="Arial" font-size="14.00">7</text>
</g>
<!-- 5&#45;&gt;7 -->
<g id="edge9" class="edge">
<title>5&#45;&gt;7</title>
<path fill="none" stroke="black" d="M465.81,-118.94C485.62,-121.3 515.54,-124.86 538.36,-127.58"/>
<polygon fill="black" stroke="black" points="537.72,-131.03 548.06,-128.73 538.54,-124.07 537.72,-131.03"/>
<text text-anchor="middle" x="507.72" y="-129.03" font-family="Arial" font-size="14.00">alpha_1</text>
</g>
<!-- 6&#45;&gt;1 -->
<g id="edge10" class="edge">
<title>6&#45;&gt;1</title>
<path fill="none" stroke="black" d="M422.03,-24.54C383.77,-14.34 299.35,4.91 227.72,-1.68 170.1,-6.98 155.57,-10.33 99.72,-25.43 96.99,-26.17 94.17,-27.01 91.36,-27.91"/>
<polygon fill="black" stroke="black" points="90.52,-24.5 82.2,-31.05 92.79,-31.12 90.52,-24.5"/>
<text text-anchor="middle" x="251.72" y="-4.13" font-family="Arial" font-size="14.00">beta_1</text>
</g>
<!-- 7&#45;&gt;2 -->
<g id="edge11" class="edge">
<title>7&#45;&gt;2</title>
<path fill="none" stroke="black" d="M562.89,-151.97C556.64,-165.25 546.46,-181.48 531.72,-189.43 432.16,-243.12 352.94,-204.26 293.72,-191.43 262.23,-184.61 251.91,-182.71 227.72,-161.43 217.44,-152.39 208.97,-139.98 202.58,-128.56"/>
<polygon fill="black" stroke="black" points="205.74,-127.05 198,-119.82 199.54,-130.3 205.74,-127.05"/>
<text text-anchor="middle" x="379.72" y="-218.41" font-family="Arial" font-size="14.00">beta_2</text>
</g>
<!-- 8 -->
<g id="node9" class="node">
<title>8</title>
<ellipse fill="none" stroke="black" cx="692.97" cy="-156.43" rx="18" ry="18"/>
<ellipse fill="none" stroke="black" cx="692.97" cy="-156.43" rx="22" ry="22"/>
<text text-anchor="middle" x="692.97" y="-151" font-family="Arial" font-size="14.00">8</text>
</g>
<!-- 7&#45;&gt;8 -->
<g id="edge12" class="edge">
<title>7&#45;&gt;8</title>
<path fill="none" stroke="black" d="M593.77,-135.84C612.16,-139.7 639.13,-145.35 660.16,-149.76"/>
<polygon fill="black" stroke="black" points="659.15,-153.12 669.65,-151.75 660.58,-146.27 659.15,-153.12"/>
<text text-anchor="middle" x="632.35" y="-150.08" font-family="Arial" font-size="14.00">beta_1</text>
</g>
<!-- 8&#45;&gt;3 -->
<g id="edge13" class="edge">
<title>8&#45;&gt;3</title>
<path fill="none" stroke="black" d="M671.95,-163.21C665.92,-164.94 659.24,-166.56 652.97,-167.43 634.81,-169.94 630.05,-167.47 611.72,-167.43 497.94,-167.21 469.15,-175.33 355.72,-166.43 353.52,-166.26 351.25,-166.03 348.97,-165.77"/>
<polygon fill="black" stroke="black" points="349.58,-162.32 339.2,-164.45 348.64,-169.26 349.58,-162.32"/>
<text text-anchor="middle" x="507.72" y="-172.59" font-family="Arial" font-size="14.00">beta_2</text>
</g>
</g>
</svg>
