<?xml version="1.0" encoding="UTF-8" standalone="no"?>
<!DOCTYPE svg PUBLIC "-//W3C//DTD SVG 1.0//EN"
 "http://www.w3.org/TR/2001/REC-SVG-20010904/DTD/svg10.dtd" [
 <!ATTLIST svg xmlns:xlink CDATA #FIXED "http://www.w3.org/1999/xlink">
]>
<!-- Generated by Graphviz version 2.20.2 (Tue Mar &#160;2 21:46:26 UTC 2010)
     For user: (mtmoor) Prof. Thomas Moor -->
<!-- Title: PrefixClosure(very simple machine_1...|Project(PrefixClosure(supervisor)) Pages: 1 -->
<svg width="720pt" height="224pt"
 viewBox="0.00 0.00 720.00 223.81" xmlns="http://www.w3.org/2000/svg" xmlns:xlink="http://www.w3.org/1999/xlink">
<g id="graph0" class="graph" transform="scale(0.952381 0.952381) rotate(0) translate(4 231)">
<title>PrefixClosure(very simple machine_1...|Project(PrefixClosure(supervisor))</title>
<polygon style="fill:none;stroke:none;" points="-4,4 -4,-231 752,-231 752,4 -4,4"/>
<!-- dot_dummyinit_1 -->
<g id="node1" class="node"><title>dot_dummyinit_1</title>
</g>
<!-- 1 -->
<g id="node3" class="node"><title>1</title>
<ellipse style="fill:none;stroke:black;" cx="62" cy="-39" rx="18" ry="18"/>
<ellipse style="fill:none;stroke:black;" cx="62" cy="-39" rx="22" ry="22"/>
<text text-anchor="middle" x="62" y="-34.9" style="font-family:Times New Roman;font-size:14.00;">1</text>
</g>
<!-- dot_dummyinit_1&#45;&gt;1 -->
<g id="edge2" class="edge"><title>dot_dummyinit_1&#45;&gt;1</title>
<path style="fill:none;stroke:black;" d="M2,-39C5,-39 17,-39 30,-39"/>
<polygon style="fill:black;stroke:black;" points="30,-42.5001 40,-39 30,-35.5001 30,-42.5001"/>
</g>
<!-- 2 -->
<g id="node4" class="node"><title>2</title>
<ellipse style="fill:none;stroke:black;" cx="196" cy="-126" rx="18" ry="18"/>
<ellipse style="fill:none;stroke:black;" cx="196" cy="-126" rx="22" ry="22"/>
<text text-anchor="middle" x="196" y="-121.9" style="font-family:Times New Roman;font-size:14.00;">2</text>
</g>
<!-- 1&#45;&gt;2 -->
<g id="edge4" class="edge"><title>1&#45;&gt;2</title>
<path style="fill:none;stroke:black;" d="M81,-51C103,-66 143,-91 168,-108"/>
<polygon style="fill:black;stroke:black;" points="166.738,-111.365 177,-114 170.621,-105.541 166.738,-111.365"/>
<text text-anchor="middle" x="129" y="-100.9" style="font-family:Times New Roman;font-size:14.00;">alpha_1</text>
</g>
<!-- 3 -->
<g id="node5" class="node"><title>3</title>
<ellipse style="fill:none;stroke:black;" cx="330" cy="-162" rx="18" ry="18"/>
<ellipse style="fill:none;stroke:black;" cx="330" cy="-162" rx="22" ry="22"/>
<text text-anchor="middle" x="330" y="-157.9" style="font-family:Times New Roman;font-size:14.00;">3</text>
</g>
<!-- 2&#45;&gt;3 -->
<g id="edge6" class="edge"><title>2&#45;&gt;3</title>
<path style="fill:none;stroke:black;" d="M218,-132C239,-138 273,-147 298,-154"/>
<polygon style="fill:black;stroke:black;" points="297.508,-157.471 308,-156 298.881,-150.607 297.508,-157.471"/>
<text text-anchor="middle" x="263" y="-152.9" style="font-family:Times New Roman;font-size:14.00;">beta_1</text>
</g>
<!-- 4 -->
<g id="node6" class="node"><title>4</title>
<ellipse style="fill:none;stroke:black;" cx="330" cy="-100" rx="18" ry="18"/>
<ellipse style="fill:none;stroke:black;" cx="330" cy="-100" rx="22" ry="22"/>
<text text-anchor="middle" x="330" y="-95.9" style="font-family:Times New Roman;font-size:14.00;">4</text>
</g>
<!-- 2&#45;&gt;4 -->
<g id="edge8" class="edge"><title>2&#45;&gt;4</title>
<path style="fill:none;stroke:black;" d="M217,-118C223,-116 230,-113 236,-112 256,-107 280,-104 298,-102"/>
<polygon style="fill:black;stroke:black;" points="298.398,-105.478 308,-101 297.701,-98.5125 298.398,-105.478"/>
<text text-anchor="middle" x="263" y="-115.9" style="font-family:Times New Roman;font-size:14.00;">alpha_2</text>
</g>
<!-- 5 -->
<g id="node7" class="node"><title>5</title>
<ellipse style="fill:none;stroke:black;" cx="464" cy="-117" rx="18" ry="18"/>
<ellipse style="fill:none;stroke:black;" cx="464" cy="-117" rx="22" ry="22"/>
<text text-anchor="middle" x="464" y="-112.9" style="font-family:Times New Roman;font-size:14.00;">5</text>
</g>
<!-- 3&#45;&gt;5 -->
<g id="edge10" class="edge"><title>3&#45;&gt;5</title>
<path style="fill:none;stroke:black;" d="M351,-155C373,-147 408,-135 433,-127"/>
<polygon style="fill:black;stroke:black;" points="434.427,-130.226 443,-124 432.416,-123.521 434.427,-130.226"/>
<text text-anchor="middle" x="397" y="-150.9" style="font-family:Times New Roman;font-size:14.00;">alpha_2</text>
</g>
<!-- 4&#45;&gt;5 -->
<g id="edge12" class="edge"><title>4&#45;&gt;5</title>
<path style="fill:none;stroke:black;" d="M352,-103C374,-106 407,-110 432,-113"/>
<polygon style="fill:black;stroke:black;" points="431.701,-116.488 442,-114 432.398,-109.522 431.701,-116.488"/>
<text text-anchor="middle" x="397" y="-113.9" style="font-family:Times New Roman;font-size:14.00;">beta_1</text>
</g>
<!-- 6 -->
<g id="node8" class="node"><title>6</title>
<ellipse style="fill:none;stroke:black;" cx="464" cy="-30" rx="18" ry="18"/>
<ellipse style="fill:none;stroke:black;" cx="464" cy="-30" rx="22" ry="22"/>
<text text-anchor="middle" x="464" y="-25.9" style="font-family:Times New Roman;font-size:14.00;">6</text>
</g>
<!-- 4&#45;&gt;6 -->
<g id="edge14" class="edge"><title>4&#45;&gt;6</title>
<path style="fill:none;stroke:black;" d="M350,-90C372,-78 410,-59 435,-45"/>
<polygon style="fill:black;stroke:black;" points="436.958,-47.916 444,-40 433.559,-41.7969 436.958,-47.916"/>
<text text-anchor="middle" x="397" y="-81.9" style="font-family:Times New Roman;font-size:14.00;">beta_2</text>
</g>
<!-- 5&#45;&gt;1 -->
<g id="edge18" class="edge"><title>5&#45;&gt;1</title>
<path style="fill:none;stroke:black;" d="M457,-96C451,-81 441,-62 424,-53 370,-21 173,-31 94,-36"/>
<polygon style="fill:black;stroke:black;" points="93.6021,-32.5222 84,-37 94.2987,-39.4875 93.6021,-32.5222"/>
<text text-anchor="middle" x="263" y="-37.9" style="font-family:Times New Roman;font-size:14.00;">beta_2</text>
</g>
<!-- 7 -->
<g id="node9" class="node"><title>7</title>
<ellipse style="fill:none;stroke:black;" cx="598" cy="-134" rx="18" ry="18"/>
<ellipse style="fill:none;stroke:black;" cx="598" cy="-134" rx="22" ry="22"/>
<text text-anchor="middle" x="598" y="-129.9" style="font-family:Times New Roman;font-size:14.00;">7</text>
</g>
<!-- 5&#45;&gt;7 -->
<g id="edge16" class="edge"><title>5&#45;&gt;7</title>
<path style="fill:none;stroke:black;" d="M486,-120C508,-123 541,-127 566,-130"/>
<polygon style="fill:black;stroke:black;" points="565.701,-133.488 576,-131 566.398,-126.522 565.701,-133.488"/>
<text text-anchor="middle" x="531" y="-130.9" style="font-family:Times New Roman;font-size:14.00;">alpha_1</text>
</g>
<!-- 6&#45;&gt;1 -->
<g id="edge20" class="edge"><title>6&#45;&gt;1</title>
<path style="fill:none;stroke:black;" d="M443,-24C402,-13 312,7 236,-0 176,-6 161,-10 102,-25 99,-26 96,-27 93,-28"/>
<polygon style="fill:black;stroke:black;" points="91.5725,-24.7741 83,-31 93.584,-31.4788 91.5725,-24.7741"/>
<text text-anchor="middle" x="263" y="-7.9" style="font-family:Times New Roman;font-size:14.00;">beta_1</text>
</g>
<!-- 7&#45;&gt;2 -->
<g id="edge24" class="edge"><title>7&#45;&gt;2</title>
<path style="fill:none;stroke:black;" d="M590,-155C583,-167 573,-183 558,-191 469,-237 377,-203 308,-193 275,-187 265,-188 236,-170 229,-165 222,-158 216,-152"/>
<polygon style="fill:black;stroke:black;" points="218.219,-149.221 209,-144 212.951,-153.831 218.219,-149.221"/>
<text text-anchor="middle" x="397" y="-214.9" style="font-family:Times New Roman;font-size:14.00;">beta_2</text>
</g>
<!-- 8 -->
<g id="node10" class="node"><title>8</title>
<ellipse style="fill:none;stroke:black;" cx="726" cy="-163" rx="18" ry="18"/>
<ellipse style="fill:none;stroke:black;" cx="726" cy="-163" rx="22" ry="22"/>
<text text-anchor="middle" x="726" y="-158.9" style="font-family:Times New Roman;font-size:14.00;">8</text>
</g>
<!-- 7&#45;&gt;8 -->
<g id="edge22" class="edge"><title>7&#45;&gt;8</title>
<path style="fill:none;stroke:black;" d="M620,-138C638,-142 664,-147 686,-153 689,-153 692,-154 695,-155"/>
<polygon style="fill:black;stroke:black;" points="694.508,-158.471 705,-157 695.881,-151.607 694.508,-158.471"/>
<text text-anchor="middle" x="662" y="-156.9" style="font-family:Times New Roman;font-size:14.00;">beta_1</text>
</g>
<!-- 8&#45;&gt;3 -->
<g id="edge26" class="edge"><title>8&#45;&gt;3</title>
<path style="fill:none;stroke:black;" d="M704,-167C698,-168 692,-169 686,-170 665,-171 660,-170 638,-170 519,-169 489,-177 370,-168 367,-168 365,-167 362,-167"/>
<polygon style="fill:black;stroke:black;" points="362.299,-163.512 352,-166 361.602,-170.478 362.299,-163.512"/>
<text text-anchor="middle" x="531" y="-173.9" style="font-family:Times New Roman;font-size:14.00;">beta_2</text>
</g>
</g>
</svg>
