<?xml version="1.0" encoding="UTF-8" standalone="no"?>
<!DOCTYPE svg PUBLIC "-//W3C//DTD SVG 1.0//EN"
 "http://www.w3.org/TR/2001/REC-SVG-20010904/DTD/svg10.dtd" [
 <!ATTLIST svg xmlns:xlink CDATA #FIXED "http://www.w3.org/1999/xlink">
]>
<!-- Generated by Graphviz version 2.20.2 (Tue Mar &#160;2 21:46:26 UTC 2010)
     For user: (mtmoor) Prof. Thomas Moor -->
<!-- Title: OmegaSupConNB((A&#45;B&#45;Machine),(A&#45;B&#45;Spec&#45;Eventually&#45;B)) [minstate] Pages: 1 -->
<svg width="332pt" height="177pt"
 viewBox="0.00 0.00 332.00 177.00" xmlns="http://www.w3.org/2000/svg" xmlns:xlink="http://www.w3.org/1999/xlink">
<g id="graph0" class="graph" transform="scale(1 1) rotate(0) translate(4 173)">
<title>OmegaSupConNB((A&#45;B&#45;Machine),(A&#45;B&#45;Spec&#45;Eventually&#45;B)) [minstate]</title>
<polygon style="fill:none;stroke:none;" points="-4,4 -4,-173 328,-173 328,4 -4,4"/>
<!-- dot_dummyinit_1 -->
<g id="node1" class="node"><title>dot_dummyinit_1</title>
</g>
<!-- 1 -->
<g id="node3" class="node"><title>1</title>
<ellipse style="fill:none;stroke:black;" cx="58" cy="-75" rx="18" ry="18"/>
<text text-anchor="middle" x="58" y="-70.9" style="font-family:Times New Roman;font-size:14.00;">1</text>
</g>
<!-- dot_dummyinit_1&#45;&gt;1 -->
<g id="edge2" class="edge"><title>dot_dummyinit_1&#45;&gt;1</title>
<path style="fill:none;stroke:black;" d="M2,-75C6,-75 18,-75 30,-75"/>
<polygon style="fill:black;stroke:black;" points="30,-78.5001 40,-75 30,-71.5001 30,-78.5001"/>
</g>
<!-- 2 -->
<g id="node4" class="node"><title>2</title>
<ellipse style="fill:none;stroke:black;" cx="142" cy="-135" rx="18" ry="18"/>
<ellipse style="fill:none;stroke:black;" cx="142" cy="-135" rx="22" ry="22"/>
<text text-anchor="middle" x="142" y="-130.9" style="font-family:Times New Roman;font-size:14.00;">2</text>
</g>
<!-- 1&#45;&gt;2 -->
<g id="edge6" class="edge"><title>1&#45;&gt;2</title>
<path style="fill:none;stroke:black;" d="M61,-93C65,-112 74,-140 94,-153 101,-157 109,-156 116,-154"/>
<polygon style="fill:black;stroke:black;" points="117.958,-156.916 125,-149 114.559,-150.797 117.958,-156.916"/>
<text text-anchor="middle" x="98" y="-156.9" style="font-family:Times New Roman;font-size:14.00;">b</text>
</g>
<!-- 5 -->
<g id="node7" class="node"><title>5</title>
<ellipse style="fill:none;stroke:black;" cx="142" cy="-55" rx="18" ry="18"/>
<text text-anchor="middle" x="142" y="-50.9" style="font-family:Times New Roman;font-size:14.00;">5</text>
</g>
<!-- 1&#45;&gt;5 -->
<g id="edge4" class="edge"><title>1&#45;&gt;5</title>
<path style="fill:none;stroke:black;" d="M76,-75C84,-75 94,-75 102,-73 107,-72 112,-70 117,-68"/>
<polygon style="fill:black;stroke:black;" points="118.283,-71.2598 126,-64 115.44,-64.8631 118.283,-71.2598"/>
<text text-anchor="middle" x="98" y="-76.9" style="font-family:Times New Roman;font-size:14.00;">a</text>
</g>
<!-- 2&#45;&gt;1 -->
<g id="edge8" class="edge"><title>2&#45;&gt;1</title>
<path style="fill:none;stroke:black;" d="M124,-122C112,-113 95,-101 81,-92"/>
<polygon style="fill:black;stroke:black;" points="83.1,-89.2 73,-86 78.9,-94.8 83.1,-89.2"/>
<text text-anchor="middle" x="98" y="-108.9" style="font-family:Times New Roman;font-size:14.00;">c</text>
</g>
<!-- 3 -->
<g id="node5" class="node"><title>3</title>
<ellipse style="fill:none;stroke:black;" cx="226" cy="-75" rx="18" ry="18"/>
<text text-anchor="middle" x="226" y="-70.9" style="font-family:Times New Roman;font-size:14.00;">3</text>
</g>
<!-- 2&#45;&gt;3 -->
<g id="edge10" class="edge"><title>2&#45;&gt;3</title>
<path style="fill:none;stroke:black;" d="M160,-122C172,-113 189,-101 203,-92"/>
<polygon style="fill:black;stroke:black;" points="205.1,-94.8 211,-86 200.9,-89.2 205.1,-94.8"/>
<text text-anchor="middle" x="186" y="-109.9" style="font-family:Times New Roman;font-size:14.00;">d</text>
</g>
<!-- 4 -->
<g id="node6" class="node"><title>4</title>
<ellipse style="fill:none;stroke:black;" cx="306" cy="-35" rx="18" ry="18"/>
<text text-anchor="middle" x="306" y="-30.9" style="font-family:Times New Roman;font-size:14.00;">4</text>
</g>
<!-- 3&#45;&gt;4 -->
<g id="edge12" class="edge"><title>3&#45;&gt;4</title>
<path style="fill:none;stroke:black;" d="M242,-67C253,-61 268,-54 281,-48"/>
<polygon style="fill:black;stroke:black;" points="282.958,-50.916 290,-43 279.559,-44.7969 282.958,-50.916"/>
<text text-anchor="middle" x="266" y="-59.9" style="font-family:Times New Roman;font-size:14.00;">b</text>
</g>
<!-- 4&#45;&gt;1 -->
<g id="edge14" class="edge"><title>4&#45;&gt;1</title>
<path style="fill:none;stroke:black;" d="M289,-28C252,-14 159,13 94,-21 83,-26 75,-38 69,-49"/>
<polygon style="fill:black;stroke:black;" points="65.7969,-47.5586 64,-58 71.916,-50.9582 65.7969,-47.5586"/>
<text text-anchor="middle" x="186" y="-7.9" style="font-family:Times New Roman;font-size:14.00;">c</text>
</g>
<!-- 4&#45;&gt;3 -->
<g id="edge16" class="edge"><title>4&#45;&gt;3</title>
<path style="fill:none;stroke:black;" d="M289,-30C280,-28 270,-28 262,-32 253,-36 246,-43 241,-50"/>
<polygon style="fill:black;stroke:black;" points="237.635,-48.738 235,-59 243.459,-52.6209 237.635,-48.738"/>
<text text-anchor="middle" x="266" y="-35.9" style="font-family:Times New Roman;font-size:14.00;">d</text>
</g>
<!-- 5&#45;&gt;1 -->
<g id="edge18" class="edge"><title>5&#45;&gt;1</title>
<path style="fill:none;stroke:black;" d="M124,-51C115,-50 104,-49 94,-52 89,-53 85,-55 81,-58"/>
<polygon style="fill:black;stroke:black;" points="79.0418,-55.084 72,-63 82.4414,-61.2031 79.0418,-55.084"/>
<text text-anchor="middle" x="98" y="-55.9" style="font-family:Times New Roman;font-size:14.00;">c</text>
</g>
<!-- 5&#45;&gt;1 -->
<g id="edge20" class="edge"><title>5&#45;&gt;1</title>
<path style="fill:none;stroke:black;" d="M130,-41C121,-32 107,-22 94,-28 84,-33 77,-42 71,-50"/>
<polygon style="fill:black;stroke:black;" points="67.7969,-48.5586 66,-59 73.916,-51.9582 67.7969,-48.5586"/>
<text text-anchor="middle" x="98" y="-31.9" style="font-family:Times New Roman;font-size:14.00;">d</text>
</g>
</g>
</svg>
