<?xml version="1.0" encoding="UTF-8" standalone="no"?>
<!DOCTYPE svg PUBLIC "-//W3C//DTD SVG 1.1//EN"
 "http://www.w3.org/Graphics/SVG/1.1/DTD/svg11.dtd">
<!-- Generated by graphviz version 12.2.1 (20241206.2353)
 -->
<!-- Title: two place buffer Pages: 1 -->
<svg width="358pt" height="58pt"
 viewBox="0.00 0.00 358.22 58.25" xmlns="http://www.w3.org/2000/svg" xmlns:xlink="http://www.w3.org/1999/xlink">
<g id="graph0" class="graph" transform="scale(1 1) rotate(0) translate(4 54.25)">
<title>two place buffer</title>
<!-- dot_dummyinit_1 -->
<g id="node1" class="node">
<title>dot_dummyinit_1</title>
</g>
<!-- E -->
<g id="node2" class="node">
<title>E</title>
<ellipse fill="none" stroke="black" cx="59.72" cy="-25.12" rx="18" ry="18"/>
<ellipse fill="none" stroke="black" cx="59.72" cy="-25.12" rx="22" ry="22"/>
<text text-anchor="middle" x="59.72" y="-19.7" font-family="Arial" font-size="14.00">E</text>
</g>
<!-- dot_dummyinit_1&#45;&gt;E -->
<g id="edge1" class="edge">
<title>dot_dummyinit_1&#45;&gt;E</title>
<path fill="none" stroke="black" d="M0.89,-25.12C2.38,-25.12 13.74,-25.12 26,-25.12"/>
<polygon fill="black" stroke="black" points="25.74,-28.62 35.74,-25.12 25.74,-21.62 25.74,-28.62"/>
</g>
<!-- F1 -->
<g id="node3" class="node">
<title>F1</title>
<ellipse fill="none" stroke="black" cx="190.84" cy="-25.12" rx="21.12" ry="21.12"/>
<ellipse fill="none" stroke="black" cx="190.84" cy="-25.12" rx="25.12" ry="25.12"/>
<text text-anchor="middle" x="190.84" y="-19.7" font-family="Arial" font-size="14.00">F1</text>
</g>
<!-- E&#45;&gt;F1 -->
<g id="edge2" class="edge">
<title>E&#45;&gt;F1</title>
<path fill="none" stroke="black" d="M82.04,-25.12C101.56,-25.12 130.84,-25.12 153.96,-25.12"/>
<polygon fill="black" stroke="black" points="153.89,-28.62 163.89,-25.12 153.89,-21.62 153.89,-28.62"/>
<text text-anchor="middle" x="123.72" y="-27.57" font-family="Arial" font-size="14.00">beta_1</text>
</g>
<!-- F1&#45;&gt;E -->
<g id="edge4" class="edge">
<title>F1&#45;&gt;E</title>
<path fill="none" stroke="black" d="M168.63,-12.97C162.13,-9.87 154.82,-6.95 147.72,-5.37 126.9,-0.74 120.47,-0.42 99.72,-5.37 96.1,-6.24 92.44,-7.49 88.89,-8.96"/>
<polygon fill="black" stroke="black" points="87.58,-5.71 80.05,-13.16 90.58,-12.03 87.58,-5.71"/>
<text text-anchor="middle" x="123.72" y="-7.82" font-family="Arial" font-size="14.00">alpha_2</text>
</g>
<!-- F2 -->
<g id="node4" class="node">
<title>F2</title>
<ellipse fill="none" stroke="black" cx="325.09" cy="-25.12" rx="21.12" ry="21.12"/>
<ellipse fill="none" stroke="black" cx="325.09" cy="-25.12" rx="25.12" ry="25.12"/>
<text text-anchor="middle" x="325.09" y="-19.7" font-family="Arial" font-size="14.00">F2</text>
</g>
<!-- F1&#45;&gt;F2 -->
<g id="edge3" class="edge">
<title>F1&#45;&gt;F2</title>
<path fill="none" stroke="black" d="M216.41,-25.12C236.64,-25.12 265.59,-25.12 288.38,-25.12"/>
<polygon fill="black" stroke="black" points="288.15,-28.62 298.15,-25.12 288.15,-21.62 288.15,-28.62"/>
<text text-anchor="middle" x="257.97" y="-27.57" font-family="Arial" font-size="14.00">beta_1</text>
</g>
<!-- F2&#45;&gt;F1 -->
<g id="edge5" class="edge">
<title>F2&#45;&gt;F1</title>
<path fill="none" stroke="black" d="M302.88,-12.97C296.38,-9.87 289.06,-6.95 281.97,-5.37 261.15,-0.74 254.79,-0.74 233.97,-5.37 230.53,-6.14 227.04,-7.22 223.62,-8.48"/>
<polygon fill="black" stroke="black" points="222.28,-5.24 214.45,-12.38 225.02,-11.69 222.28,-5.24"/>
<text text-anchor="middle" x="257.97" y="-7.82" font-family="Arial" font-size="14.00">alpha_2</text>
</g>
</g>
</svg>
