<?xml version="1.0" encoding="UTF-8" standalone="no"?>
<!DOCTYPE svg PUBLIC "-//W3C//DTD SVG 1.1//EN"
 "http://www.w3.org/Graphics/SVG/1.1/DTD/svg11.dtd">
<!-- Generated by graphviz version 12.2.1 (20241206.2353)
 -->
<!-- Title: two place buffer Pages: 1 -->
<svg width="379pt" height="49pt"
 viewBox="0.00 0.00 379.22 49.08" xmlns="http://www.w3.org/2000/svg" xmlns:xlink="http://www.w3.org/1999/xlink">
<g id="graph0" class="graph" transform="scale(1 1) rotate(0) translate(4 45.08)">
<title>two place buffer</title>
<!-- dot_dummyinit_1 -->
<g id="node1" class="node">
<title>dot_dummyinit_1</title>
</g>
<!-- E -->
<g id="node2" class="node">
<title>E</title>
<path fill="none" stroke="black" d="M79.72,-41.08C79.72,-41.08 49.72,-41.08 49.72,-41.08 43.72,-41.08 37.72,-35.08 37.72,-29.08 37.72,-29.08 37.72,-17.08 37.72,-17.08 37.72,-11.08 43.72,-5.08 49.72,-5.08 49.72,-5.08 79.72,-5.08 79.72,-5.08 85.72,-5.08 91.72,-11.08 91.72,-17.08 91.72,-17.08 91.72,-29.08 91.72,-29.08 91.72,-35.08 85.72,-41.08 79.72,-41.08"/>
<text text-anchor="start" x="52.22" y="-17.66" font-family="Arial" font-size="14.00">E</text>
<polygon fill="black" stroke="none" points="71.22,-13.21 71.22,-32.96 79.22,-32.96 79.22,-13.21 71.22,-13.21"/>
</g>
<!-- dot_dummyinit_1&#45;&gt;E -->
<g id="edge1" class="edge">
<title>dot_dummyinit_1&#45;&gt;E</title>
<path fill="none" stroke="black" d="M0.77,-23.08C1.57,-23.08 12.96,-23.08 25.83,-23.08"/>
<polygon fill="black" stroke="black" points="25.79,-26.58 35.79,-23.08 25.79,-19.58 25.79,-26.58"/>
</g>
<!-- F1 -->
<g id="node3" class="node">
<title>F1</title>
<path fill="none" stroke="black" d="M219.47,-41.08C219.47,-41.08 187.72,-41.08 187.72,-41.08 181.72,-41.08 175.72,-35.08 175.72,-29.08 175.72,-29.08 175.72,-17.08 175.72,-17.08 175.72,-11.08 181.72,-5.08 187.72,-5.08 187.72,-5.08 219.47,-5.08 219.47,-5.08 225.47,-5.08 231.47,-11.08 231.47,-17.08 231.47,-17.08 231.47,-29.08 231.47,-29.08 231.47,-35.08 225.47,-41.08 219.47,-41.08"/>
<text text-anchor="start" x="187.72" y="-17.66" font-family="Arial" font-size="14.00">F1</text>
<polygon fill="black" stroke="none" points="213.47,-13.21 213.47,-32.96 221.47,-32.96 221.47,-13.21 213.47,-13.21"/>
</g>
<!-- E&#45;&gt;F1 -->
<g id="edge2" class="edge">
<title>E&#45;&gt;F1</title>
<path fill="none" stroke="black" d="M92.11,-23.08C112.49,-23.08 140.98,-23.08 163.93,-23.08"/>
<polygon fill="black" stroke="black" points="163.83,-26.58 173.83,-23.08 163.83,-19.58 163.83,-26.58"/>
<text text-anchor="middle" x="133.72" y="-25.53" font-family="Arial" font-size="14.00">beta_1</text>
</g>
<!-- F1&#45;&gt;E -->
<g id="edge3" class="edge">
<title>F1&#45;&gt;E</title>
<path fill="none" stroke="black" d="M175.67,-9.09C169.89,-6.71 163.72,-4.59 157.72,-3.33 136.84,1.06 130.58,1.14 109.72,-3.33 107.42,-3.82 105.09,-4.45 102.77,-5.17"/>
<polygon fill="black" stroke="black" points="101.69,-1.83 93.52,-8.57 104.11,-8.4 101.69,-1.83"/>
<text text-anchor="middle" x="133.72" y="-5.78" font-family="Arial" font-size="14.00">alpha_2</text>
</g>
<!-- F2 -->
<g id="node4" class="node">
<title>F2</title>
<path fill="none" stroke="black" d="M359.22,-41.08C359.22,-41.08 327.47,-41.08 327.47,-41.08 321.47,-41.08 315.47,-35.08 315.47,-29.08 315.47,-29.08 315.47,-17.08 315.47,-17.08 315.47,-11.08 321.47,-5.08 327.47,-5.08 327.47,-5.08 359.22,-5.08 359.22,-5.08 365.22,-5.08 371.22,-11.08 371.22,-17.08 371.22,-17.08 371.22,-29.08 371.22,-29.08 371.22,-35.08 365.22,-41.08 359.22,-41.08"/>
<text text-anchor="start" x="327.47" y="-17.66" font-family="Arial" font-size="14.00">F2</text>
<polygon fill="black" stroke="none" points="353.22,-13.21 353.22,-32.96 361.22,-32.96 361.22,-13.21 353.22,-13.21"/>
</g>
<!-- F1&#45;&gt;F2 -->
<g id="edge4" class="edge">
<title>F1&#45;&gt;F2</title>
<path fill="none" stroke="black" d="M231.81,-23.08C252.37,-23.08 280.88,-23.08 303.79,-23.08"/>
<polygon fill="black" stroke="black" points="303.67,-26.58 313.67,-23.08 303.67,-19.58 303.67,-26.58"/>
<text text-anchor="middle" x="273.47" y="-25.53" font-family="Arial" font-size="14.00">beta_1</text>
</g>
<!-- F2&#45;&gt;F1 -->
<g id="edge5" class="edge">
<title>F2&#45;&gt;F1</title>
<path fill="none" stroke="black" d="M315.42,-9.09C309.64,-6.71 303.47,-4.59 297.47,-3.33 276.59,1.06 270.35,1.06 249.47,-3.33 247.03,-3.84 244.57,-4.5 242.11,-5.25"/>
<polygon fill="black" stroke="black" points="241.15,-1.88 232.95,-8.58 243.54,-8.46 241.15,-1.88"/>
<text text-anchor="middle" x="273.47" y="-5.78" font-family="Arial" font-size="14.00">alpha_2</text>
</g>
</g>
</svg>
