<?xml version="1.0" encoding="UTF-8" standalone="no"?>
<!DOCTYPE svg PUBLIC "-//W3C//DTD SVG 1.1//EN"
 "http://www.w3.org/Graphics/SVG/1.1/DTD/svg11.dtd">
<!-- Generated by graphviz version 12.2.1 (20241206.2353)
 -->
<!-- Title: Generator Pages: 1 -->
<svg width="195pt" height="116pt"
 viewBox="0.00 0.00 194.72 115.87" xmlns="http://www.w3.org/2000/svg" xmlns:xlink="http://www.w3.org/1999/xlink">
<g id="graph0" class="graph" transform="scale(1 1) rotate(0) translate(4 111.87)">
<title>Generator</title>
<!-- dot_dummyinit_1 -->
<g id="node1" class="node">
<title>dot_dummyinit_1</title>
</g>
<!-- 1 -->
<g id="node2" class="node">
<title>1</title>
<ellipse fill="none" stroke="black" cx="59.72" cy="-51" rx="18" ry="18"/>
<ellipse fill="none" stroke="black" cx="59.72" cy="-51" rx="22" ry="22"/>
<text text-anchor="middle" x="59.72" y="-45.58" font-family="Arial" font-size="14.00">1</text>
</g>
<!-- dot_dummyinit_1&#45;&gt;1 -->
<g id="edge1" class="edge">
<title>dot_dummyinit_1&#45;&gt;1</title>
<path fill="none" stroke="black" d="M0.89,-51C2.38,-51 13.74,-51 26,-51"/>
<polygon fill="black" stroke="black" points="25.74,-54.5 35.74,-51 25.74,-47.5 25.74,-54.5"/>
</g>
<!-- 2 -->
<g id="node3" class="node">
<title>2</title>
<ellipse fill="none" stroke="black" cx="168.72" cy="-84" rx="18" ry="18"/>
<text text-anchor="middle" x="168.72" y="-78.58" font-family="Arial" font-size="14.00">2</text>
</g>
<!-- 1&#45;&gt;2 -->
<g id="edge2" class="edge">
<title>1&#45;&gt;2</title>
<path fill="none" stroke="black" d="M73.58,-68.11C80.41,-75.74 89.49,-83.92 99.72,-88 112.21,-92.98 127.01,-92.75 139.61,-90.95"/>
<polygon fill="black" stroke="black" points="140.19,-94.41 149.39,-89.15 138.92,-87.52 140.19,-94.41"/>
<text text-anchor="middle" x="116.22" y="-94.57" font-family="Arial" font-size="14.00">alpha</text>
</g>
<!-- 3 -->
<g id="node4" class="node">
<title>3</title>
<ellipse fill="none" stroke="black" cx="168.72" cy="-18" rx="18" ry="18"/>
<text text-anchor="middle" x="168.72" y="-12.57" font-family="Arial" font-size="14.00">3</text>
</g>
<!-- 1&#45;&gt;3 -->
<g id="edge3" class="edge">
<title>1&#45;&gt;3</title>
<path fill="none" stroke="black" d="M79.84,-41.35C86.07,-38.46 93.09,-35.48 99.72,-33.25 112.58,-28.93 127.23,-25.47 139.62,-22.94"/>
<polygon fill="black" stroke="black" points="140.05,-26.43 149.2,-21.1 138.72,-19.55 140.05,-26.43"/>
<text text-anchor="middle" x="116.22" y="-35.7" font-family="Arial" font-size="14.00">beta</text>
</g>
<!-- 2&#45;&gt;1 -->
<g id="edge4" class="edge">
<title>2&#45;&gt;1</title>
<path fill="none" stroke="black" d="M152.29,-76.3C146.28,-73.51 139.28,-70.49 132.72,-68.25 119.87,-63.86 105.36,-60.16 92.75,-57.32"/>
<polygon fill="black" stroke="black" points="93.8,-53.97 83.29,-55.28 92.33,-60.81 93.8,-53.97"/>
<text text-anchor="middle" x="116.22" y="-70.7" font-family="Arial" font-size="14.00">alpha</text>
</g>
<!-- 3&#45;&gt;1 -->
<g id="edge5" class="edge">
<title>3&#45;&gt;1</title>
<path fill="none" stroke="black" d="M152.21,-9.97C137.99,-3.77 116.62,2.55 99.72,-5.25 91.32,-9.13 84.07,-15.8 78.17,-22.87"/>
<polygon fill="black" stroke="black" points="75.54,-20.54 72.35,-30.64 81.14,-24.74 75.54,-20.54"/>
<text text-anchor="middle" x="116.22" y="-7.7" font-family="Arial" font-size="14.00">beta</text>
</g>
</g>
</svg>
