<?xml version="1.0" encoding="UTF-8" standalone="no"?>
<!DOCTYPE svg PUBLIC "-//W3C//DTD SVG 1.1//EN"
 "http://www.w3.org/Graphics/SVG/1.1/DTD/svg11.dtd">
<!-- Generated by graphviz version 2.26.3 (20100126.1600)
 -->
<!-- Title: process and transport Pages: 1 -->
<svg width="370pt" height="186pt"
 viewBox="0.00 0.00 370.00 186.00" xmlns="http://www.w3.org/2000/svg" xmlns:xlink="http://www.w3.org/1999/xlink">
<g id="graph1" class="graph" transform="scale(1 1) rotate(0) translate(4 182)">
<title>process and transport</title>
<!-- dot_dummyinit_1 -->
<g id="node1" class="node"><title>dot_dummyinit_1</title>
</g>
<!-- F1 -->
<g id="node3" class="node"><title>F1</title>
<ellipse fill="none" stroke="black" cx="67" cy="-51" rx="22.8079" ry="22.8079"/>
<ellipse fill="none" stroke="black" cx="67" cy="-51" rx="26.8079" ry="26.8079"/>
<text text-anchor="middle" x="67" y="-46.4" font-family="Arial" font-size="14.00">F1</text>
</g>
<!-- dot_dummyinit_1&#45;&gt;F1 -->
<g id="edge2" class="edge"><title>dot_dummyinit_1&#45;&gt;F1</title>
<path fill="none" stroke="black" d="M1.74121,-51C4.78074,-51 16.7393,-51 29.6052,-51"/>
<polygon fill="black" stroke="black" points="29.9649,-54.5001 39.9648,-51 29.9648,-47.5001 29.9649,-54.5001"/>
</g>
<!-- F2 -->
<g id="node4" class="node"><title>F2</title>
<ellipse fill="none" stroke="black" cx="159" cy="-90" rx="22.8079" ry="22.8079"/>
<text text-anchor="middle" x="159" y="-85.4" font-family="Arial" font-size="14.00">F2</text>
</g>
<!-- F1&#45;&gt;F2 -->
<g id="edge4" class="edge"><title>F1&#45;&gt;F2</title>
<path fill="none" stroke="black" d="M92.1394,-61.6569C103.279,-66.379 116.488,-71.9788 128.212,-76.9487"/>
<polygon fill="black" stroke="black" points="127.06,-80.2617 137.633,-80.9423 129.792,-73.8169 127.06,-80.2617"/>
<text text-anchor="middle" x="115" y="-74.4" font-family="Arial" font-size="14.00">f</text>
</g>
<!-- F3 -->
<g id="node5" class="node"><title>F3</title>
<ellipse fill="none" stroke="black" cx="248" cy="-121" rx="22.8079" ry="22.8079"/>
<text text-anchor="middle" x="248" y="-116.4" font-family="Arial" font-size="14.00">F3</text>
</g>
<!-- F2&#45;&gt;F3 -->
<g id="edge6" class="edge"><title>F2&#45;&gt;F3</title>
<path fill="none" stroke="black" d="M181,-97.6629C191.778,-101.417 204.945,-106.003 216.745,-110.113"/>
<polygon fill="black" stroke="black" points="215.658,-113.441 226.253,-113.425 217.961,-106.831 215.658,-113.441"/>
<text text-anchor="middle" x="203" y="-108.4" font-family="Arial" font-size="14.00">f</text>
</g>
<!-- P1 -->
<g id="node7" class="node"><title>P1</title>
<ellipse fill="none" stroke="black" cx="248" cy="-23" rx="22.9792" ry="23.4787"/>
<text text-anchor="middle" x="248" y="-18.4" font-family="Arial" font-size="14.00">P1</text>
</g>
<!-- F2&#45;&gt;P1 -->
<g id="edge8" class="edge"><title>F2&#45;&gt;P1</title>
<path fill="none" stroke="black" d="M177.441,-76.1176C190.006,-66.6586 206.85,-53.9777 220.93,-43.3784"/>
<polygon fill="black" stroke="black" points="223.392,-45.9058 229.277,-37.0952 219.182,-40.3133 223.392,-45.9058"/>
<text text-anchor="middle" x="203" y="-61.4" font-family="Arial" font-size="14.00">r</text>
</g>
<!-- P2 -->
<g id="node6" class="node"><title>P2</title>
<ellipse fill="none" stroke="black" cx="338" cy="-121" rx="22.9792" ry="23.4787"/>
<text text-anchor="middle" x="338" y="-116.4" font-family="Arial" font-size="14.00">P2</text>
</g>
<!-- F3&#45;&gt;P2 -->
<g id="edge10" class="edge"><title>F3&#45;&gt;P2</title>
<path fill="none" stroke="black" d="M271.177,-121C281.202,-121 293.134,-121 304.122,-121"/>
<polygon fill="black" stroke="black" points="304.275,-124.5 314.274,-121 304.274,-117.5 304.275,-124.5"/>
<text text-anchor="middle" x="293" y="-124.4" font-family="Arial" font-size="14.00">r</text>
</g>
<!-- P2&#45;&gt;F2 -->
<g id="edge12" class="edge"><title>P2&#45;&gt;F2</title>
<path fill="none" stroke="black" d="M318.606,-134.095C295.567,-147.92 256.199,-166.044 224,-153 206.027,-145.719 190.279,-130.821 178.787,-117.34"/>
<polygon fill="black" stroke="black" points="181.214,-114.776 172.199,-109.21 175.776,-119.183 181.214,-114.776"/>
<text text-anchor="middle" x="248" y="-160.4" font-family="Arial" font-size="14.00">a</text>
</g>
<!-- P2&#45;&gt;P2 -->
<g id="edge14" class="edge"><title>P2&#45;&gt;P2</title>
<path fill="none" stroke="black" d="M329.913,-142.934C329.031,-153.11 331.727,-162 338,-162 342.019,-162 344.57,-158.351 345.652,-153.054"/>
<polygon fill="black" stroke="black" points="349.154,-153.076 346.087,-142.934 342.16,-152.775 349.154,-153.076"/>
<text text-anchor="middle" x="338" y="-165.4" font-family="Arial" font-size="14.00">p</text>
</g>
<!-- P1&#45;&gt;F1 -->
<g id="edge18" class="edge"><title>P1&#45;&gt;F1</title>
<path fill="none" stroke="black" d="M224.639,-26.6139C194.028,-31.3492 140.002,-39.7068 103.851,-45.2993"/>
<polygon fill="black" stroke="black" points="103.055,-41.8808 93.7072,-46.8685 104.125,-48.7985 103.055,-41.8808"/>
<text text-anchor="middle" x="159" y="-43.4" font-family="Arial" font-size="14.00">a</text>
</g>
<!-- P1&#45;&gt;P2 -->
<g id="edge16" class="edge"><title>P1&#45;&gt;P2</title>
<path fill="none" stroke="black" d="M264.09,-40.5204C278.296,-55.9892 299.168,-78.7165 315.112,-96.0775"/>
<polygon fill="black" stroke="black" points="312.707,-98.6334 322.049,-103.631 317.863,-93.8985 312.707,-98.6334"/>
<text text-anchor="middle" x="293" y="-77.4" font-family="Arial" font-size="14.00">f</text>
</g>
<!-- P1&#45;&gt;P1 -->
<g id="edge20" class="edge"><title>P1&#45;&gt;P1</title>
<path fill="none" stroke="black" d="M239.913,-44.9344C239.031,-55.1097 241.727,-64 248,-64 252.019,-64 254.57,-60.3514 255.652,-55.0538"/>
<polygon fill="black" stroke="black" points="259.154,-55.0755 256.087,-44.9344 252.16,-54.7748 259.154,-55.0755"/>
<text text-anchor="middle" x="248" y="-67.4" font-family="Arial" font-size="14.00">p</text>
</g>
</g>
</svg>
