<?xml version="1.0" encoding="UTF-8" standalone="no"?>
<!DOCTYPE svg PUBLIC "-//W3C//DTD SVG 1.1//EN"
 "http://www.w3.org/Graphics/SVG/1.1/DTD/svg11.dtd">
<!-- Generated by graphviz version 12.2.1 (20241206.2353)
 -->
<!-- Title: Generator Pages: 1 -->
<svg width="211pt" height="70pt"
 viewBox="0.00 0.00 210.97 69.89" xmlns="http://www.w3.org/2000/svg" xmlns:xlink="http://www.w3.org/1999/xlink">
<g id="graph0" class="graph" transform="scale(1 1) rotate(0) translate(4 65.89)">
<title>Generator</title>
<!-- dot_dummyinit_1 -->
<g id="node1" class="node">
<title>dot_dummyinit_1</title>
</g>
<!-- 1 -->
<g id="node2" class="node">
<title>1</title>
<ellipse fill="none" stroke="black" cx="59.72" cy="-26.34" rx="18" ry="18"/>
<ellipse fill="none" stroke="black" cx="59.72" cy="-26.34" rx="22" ry="22"/>
<text text-anchor="middle" x="59.72" y="-20.91" font-family="Arial" font-size="14.00">1</text>
</g>
<!-- dot_dummyinit_1&#45;&gt;1 -->
<g id="edge1" class="edge">
<title>dot_dummyinit_1&#45;&gt;1</title>
<path fill="none" stroke="black" d="M0.89,-26.34C2.38,-26.34 13.74,-26.34 26,-26.34"/>
<polygon fill="black" stroke="black" points="25.74,-29.84 35.74,-26.34 25.74,-22.84 25.74,-29.84"/>
</g>
<!-- 2 -->
<g id="node3" class="node">
<title>2</title>
<ellipse fill="none" stroke="black" cx="180.97" cy="-26.34" rx="18" ry="18"/>
<ellipse fill="none" stroke="black" cx="180.97" cy="-26.34" rx="22" ry="22"/>
<text text-anchor="middle" x="180.97" y="-20.91" font-family="Arial" font-size="14.00">2</text>
</g>
<!-- 1&#45;&gt;2 -->
<g id="edge2" class="edge">
<title>1&#45;&gt;2</title>
<path fill="none" stroke="black" d="M79.64,-36.44C85.86,-39.25 92.92,-41.92 99.72,-43.34 117.67,-47.08 123.02,-47.08 140.97,-43.34 144.16,-42.67 147.4,-41.74 150.59,-40.64"/>
<polygon fill="black" stroke="black" points="151.66,-43.98 159.64,-37.01 149.06,-37.48 151.66,-43.98"/>
<text text-anchor="middle" x="120.35" y="-48.59" font-family="Arial" font-size="14.00">alpha1</text>
</g>
<!-- 2&#45;&gt;1 -->
<g id="edge3" class="edge">
<title>2&#45;&gt;1</title>
<path fill="none" stroke="black" d="M158.93,-24.58C153.12,-24.17 146.8,-23.79 140.97,-23.59 122.65,-22.94 118.04,-22.94 99.72,-23.59 97.53,-23.67 95.28,-23.77 93.01,-23.88"/>
<polygon fill="black" stroke="black" points="93.03,-20.38 83.27,-24.49 93.46,-27.36 93.03,-20.38"/>
<text text-anchor="middle" x="120.35" y="-26.04" font-family="Arial" font-size="14.00">beta03</text>
</g>
<!-- 2&#45;&gt;1 -->
<g id="edge4" class="edge">
<title>2&#45;&gt;1</title>
<path fill="none" stroke="black" d="M162.6,-13.57C156.14,-9.55 148.54,-5.63 140.97,-3.59 123.27,1.2 117.42,1.2 99.72,-3.59 95.82,-4.64 91.91,-6.2 88.15,-8"/>
<polygon fill="black" stroke="black" points="86.47,-4.93 79.41,-12.84 89.86,-11.06 86.47,-4.93"/>
<text text-anchor="middle" x="120.35" y="-6.04" font-family="Arial" font-size="14.00">beta02</text>
</g>
</g>
</svg>
