<?xml version="1.0" encoding="UTF-8" standalone="no"?>
<!DOCTYPE svg PUBLIC "-//W3C//DTD SVG 1.0//EN"
 "http://www.w3.org/TR/2001/REC-SVG-20010904/DTD/svg10.dtd" [
 <!ATTLIST svg xmlns:xlink CDATA #FIXED "http://www.w3.org/1999/xlink">
]>
<!-- Generated by Graphviz version 2.20.2 (Tue Mar &#160;2 21:46:26 UTC 2010)
     For user: (mtmoor) Prof. Thomas Moor -->
<!-- Title: Generator Pages: 1 -->
<svg width="202pt" height="120pt"
 viewBox="0.00 0.00 202.00 120.00" xmlns="http://www.w3.org/2000/svg" xmlns:xlink="http://www.w3.org/1999/xlink">
<g id="graph0" class="graph" transform="scale(1 1) rotate(0) translate(4 116)">
<title>Generator</title>
<polygon style="fill:none;stroke:none;" points="-4,4 -4,-116 198,-116 198,4 -4,4"/>
<!-- dot_dummyinit_1 -->
<g id="node1" class="node"><title>dot_dummyinit_1</title>
</g>
<!-- 1 -->
<g id="node3" class="node"><title>1</title>
<ellipse style="fill:none;stroke:black;" cx="62" cy="-55" rx="18" ry="18"/>
<ellipse style="fill:none;stroke:black;" cx="62" cy="-55" rx="22" ry="22"/>
<text text-anchor="middle" x="62" y="-50.9" style="font-family:Times New Roman;font-size:14.00;">1</text>
</g>
<!-- dot_dummyinit_1&#45;&gt;1 -->
<g id="edge2" class="edge"><title>dot_dummyinit_1&#45;&gt;1</title>
<path style="fill:none;stroke:black;" d="M2,-55C5,-55 17,-55 30,-55"/>
<polygon style="fill:black;stroke:black;" points="30,-58.5001 40,-55 30,-51.5001 30,-58.5001"/>
</g>
<!-- 2 -->
<g id="node4" class="node"><title>2</title>
<ellipse style="fill:none;stroke:black;" cx="176" cy="-88" rx="18" ry="18"/>
<text text-anchor="middle" x="176" y="-83.9" style="font-family:Times New Roman;font-size:14.00;">2</text>
</g>
<!-- 1&#45;&gt;2 -->
<g id="edge4" class="edge"><title>1&#45;&gt;2</title>
<path style="fill:none;stroke:black;" d="M76,-73C83,-80 92,-88 102,-93 117,-99 135,-98 149,-95"/>
<polygon style="fill:black;stroke:black;" points="149.881,-98.3933 159,-93 148.508,-91.5292 149.881,-98.3933"/>
<text text-anchor="middle" x="121" y="-99.9" style="font-family:Times New Roman;font-size:14.00;">alpha</text>
</g>
<!-- 3 -->
<g id="node5" class="node"><title>3</title>
<ellipse style="fill:none;stroke:black;" cx="176" cy="-21" rx="18" ry="18"/>
<text text-anchor="middle" x="176" y="-16.9" style="font-family:Times New Roman;font-size:14.00;">3</text>
</g>
<!-- 1&#45;&gt;3 -->
<g id="edge6" class="edge"><title>1&#45;&gt;3</title>
<path style="fill:none;stroke:black;" d="M82,-45C88,-42 95,-39 102,-37 117,-32 134,-28 148,-26"/>
<polygon style="fill:black;stroke:black;" points="148.881,-29.3933 158,-24 147.508,-22.5292 148.881,-29.3933"/>
<text text-anchor="middle" x="121" y="-40.9" style="font-family:Times New Roman;font-size:14.00;">beta</text>
</g>
<!-- 2&#45;&gt;1 -->
<g id="edge8" class="edge"><title>2&#45;&gt;1</title>
<path style="fill:none;stroke:black;" d="M161,-78C155,-75 147,-71 140,-69 126,-63 108,-60 94,-58"/>
<polygon style="fill:black;stroke:black;" points="94.2987,-54.5125 84,-57 93.6021,-61.4778 94.2987,-54.5125"/>
<text text-anchor="middle" x="121" y="-72.9" style="font-family:Times New Roman;font-size:14.00;">alpha</text>
</g>
<!-- 3&#45;&gt;1 -->
<g id="edge10" class="edge"><title>3&#45;&gt;1</title>
<path style="fill:none;stroke:black;" d="M160,-12C145,-4 121,4 102,-5 92,-10 84,-18 78,-27"/>
<polygon style="fill:black;stroke:black;" points="75.2,-24.9 72,-35 80.8,-29.1 75.2,-24.9"/>
<text text-anchor="middle" x="121" y="-8.9" style="font-family:Times New Roman;font-size:14.00;">beta</text>
</g>
</g>
</svg>
