<?xml version="1.0" encoding="UTF-8" standalone="no"?>
<!DOCTYPE svg PUBLIC "-//W3C//DTD SVG 1.0//EN"
 "http://www.w3.org/TR/2001/REC-SVG-20010904/DTD/svg10.dtd" [
 <!ATTLIST svg xmlns:xlink CDATA #FIXED "http://www.w3.org/1999/xlink">
]>
<!-- Generated by Graphviz version 2.20.2 (Tue Mar &#160;2 21:46:26 UTC 2010)
     For user: (mtmoor) Prof. Thomas Moor -->
<!-- Title: OmegaSupConNB((A&#45;B&#45;Machine&#45;B&#45;Breaks),(A&#45;B&#45;Spec&#45;Eventually&#45;B)) [minstate] Pages: 1 -->
<svg width="420pt" height="161pt"
 viewBox="0.00 0.00 420.00 161.00" xmlns="http://www.w3.org/2000/svg" xmlns:xlink="http://www.w3.org/1999/xlink">
<g id="graph0" class="graph" transform="scale(1 1) rotate(0) translate(4 157)">
<title>OmegaSupConNB((A&#45;B&#45;Machine&#45;B&#45;Breaks),(A&#45;B&#45;Spec&#45;Eventually&#45;B)) [minstate]</title>
<polygon style="fill:none;stroke:none;" points="-4,4 -4,-157 416,-157 416,4 -4,4"/>
<!-- dot_dummyinit_1 -->
<g id="node1" class="node"><title>dot_dummyinit_1</title>
</g>
<!-- 1 -->
<g id="node3" class="node"><title>1</title>
<ellipse style="fill:none;stroke:black;" cx="58" cy="-46" rx="18" ry="18"/>
<text text-anchor="middle" x="58" y="-41.9" style="font-family:Times New Roman;font-size:14.00;">1</text>
</g>
<!-- dot_dummyinit_1&#45;&gt;1 -->
<g id="edge2" class="edge"><title>dot_dummyinit_1&#45;&gt;1</title>
<path style="fill:none;stroke:black;" d="M2,-46C6,-46 18,-46 30,-46"/>
<polygon style="fill:black;stroke:black;" points="30,-49.5001 40,-46 30,-42.5001 30,-49.5001"/>
</g>
<!-- 2 -->
<g id="node4" class="node"><title>2</title>
<ellipse style="fill:none;stroke:black;" cx="142" cy="-106" rx="18" ry="18"/>
<ellipse style="fill:none;stroke:black;" cx="142" cy="-106" rx="22" ry="22"/>
<text text-anchor="middle" x="142" y="-101.9" style="font-family:Times New Roman;font-size:14.00;">2</text>
</g>
<!-- 1&#45;&gt;2 -->
<g id="edge6" class="edge"><title>1&#45;&gt;2</title>
<path style="fill:none;stroke:black;" d="M73,-57C85,-65 102,-77 116,-87"/>
<polygon style="fill:black;stroke:black;" points="113.9,-89.8 124,-93 118.1,-84.2 113.9,-89.8"/>
<text text-anchor="middle" x="98" y="-79.9" style="font-family:Times New Roman;font-size:14.00;">b</text>
</g>
<!-- 3 -->
<g id="node6" class="node"><title>3</title>
<ellipse style="fill:none;stroke:black;" cx="142" cy="-26" rx="18" ry="18"/>
<text text-anchor="middle" x="142" y="-21.9" style="font-family:Times New Roman;font-size:14.00;">3</text>
</g>
<!-- 1&#45;&gt;3 -->
<g id="edge4" class="edge"><title>1&#45;&gt;3</title>
<path style="fill:none;stroke:black;" d="M76,-46C84,-46 94,-46 102,-44 107,-43 112,-41 117,-39"/>
<polygon style="fill:black;stroke:black;" points="118.283,-42.2598 126,-35 115.44,-35.8631 118.283,-42.2598"/>
<text text-anchor="middle" x="98" y="-47.9" style="font-family:Times New Roman;font-size:14.00;">a</text>
</g>
<!-- 7 -->
<g id="node9" class="node"><title>7</title>
<ellipse style="fill:none;stroke:black;" cx="226" cy="-106" rx="18" ry="18"/>
<text text-anchor="middle" x="226" y="-101.9" style="font-family:Times New Roman;font-size:14.00;">7</text>
</g>
<!-- 2&#45;&gt;7 -->
<g id="edge8" class="edge"><title>2&#45;&gt;7</title>
<path style="fill:none;stroke:black;" d="M164,-106C175,-106 187,-106 198,-106"/>
<polygon style="fill:black;stroke:black;" points="198,-109.5 208,-106 198,-102.5 198,-109.5"/>
<text text-anchor="middle" x="186" y="-109.9" style="font-family:Times New Roman;font-size:14.00;">c</text>
</g>
<!-- 4 -->
<g id="node5" class="node"><title>4</title>
<ellipse style="fill:none;stroke:black;" cx="310" cy="-66" rx="18" ry="18"/>
<ellipse style="fill:none;stroke:black;" cx="310" cy="-66" rx="22" ry="22"/>
<text text-anchor="middle" x="310" y="-61.9" style="font-family:Times New Roman;font-size:14.00;">4</text>
</g>
<!-- 6 -->
<g id="node8" class="node"><title>6</title>
<ellipse style="fill:none;stroke:black;" cx="394" cy="-66" rx="18" ry="18"/>
<text text-anchor="middle" x="394" y="-61.9" style="font-family:Times New Roman;font-size:14.00;">6</text>
</g>
<!-- 4&#45;&gt;6 -->
<g id="edge14" class="edge"><title>4&#45;&gt;6</title>
<path style="fill:none;stroke:black;" d="M332,-66C343,-66 355,-66 366,-66"/>
<polygon style="fill:black;stroke:black;" points="366,-69.5001 376,-66 366,-62.5001 366,-69.5001"/>
<text text-anchor="middle" x="354" y="-69.9" style="font-family:Times New Roman;font-size:14.00;">d</text>
</g>
<!-- 3&#45;&gt;1 -->
<g id="edge10" class="edge"><title>3&#45;&gt;1</title>
<path style="fill:none;stroke:black;" d="M124,-22C115,-21 104,-21 94,-23 89,-25 85,-27 81,-29"/>
<polygon style="fill:black;stroke:black;" points="78.3791,-26.5408 72,-35 82.262,-32.3651 78.3791,-26.5408"/>
<text text-anchor="middle" x="98" y="-30.9" style="font-family:Times New Roman;font-size:14.00;">c</text>
</g>
<!-- 3&#45;&gt;1 -->
<g id="edge12" class="edge"><title>3&#45;&gt;1</title>
<path style="fill:none;stroke:black;" d="M129,-13C120,-4 106,4 94,-2 85,-6 78,-14 73,-21"/>
<polygon style="fill:black;stroke:black;" points="69.6349,-19.738 67,-30 75.4592,-23.6209 69.6349,-19.738"/>
<text text-anchor="middle" x="98" y="-9.9" style="font-family:Times New Roman;font-size:14.00;">d</text>
</g>
<!-- 5 -->
<g id="node7" class="node"><title>5</title>
<ellipse style="fill:none;stroke:black;" cx="310" cy="-135" rx="18" ry="18"/>
<text text-anchor="middle" x="310" y="-130.9" style="font-family:Times New Roman;font-size:14.00;">5</text>
</g>
<!-- 5&#45;&gt;7 -->
<g id="edge16" class="edge"><title>5&#45;&gt;7</title>
<path style="fill:none;stroke:black;" d="M297,-122C290,-116 280,-110 270,-107 265,-105 260,-104 254,-104"/>
<polygon style="fill:black;stroke:black;" points="254,-100.5 244,-104 254,-107.5 254,-100.5"/>
<text text-anchor="middle" x="266" y="-110.9" style="font-family:Times New Roman;font-size:14.00;">d</text>
</g>
<!-- 6&#45;&gt;4 -->
<g id="edge18" class="edge"><title>6&#45;&gt;4</title>
<path style="fill:none;stroke:black;" d="M379,-55C373,-51 366,-47 358,-45 351,-43 344,-45 337,-47"/>
<polygon style="fill:black;stroke:black;" points="335.042,-44.084 328,-52 338.441,-50.2031 335.042,-44.084"/>
<text text-anchor="middle" x="354" y="-48.9" style="font-family:Times New Roman;font-size:14.00;">b</text>
</g>
<!-- 7&#45;&gt;4 -->
<g id="edge22" class="edge"><title>7&#45;&gt;4</title>
<path style="fill:none;stroke:black;" d="M241,-95C247,-90 255,-85 262,-82 267,-80 273,-77 278,-76"/>
<polygon style="fill:black;stroke:black;" points="280.015,-78.9636 288,-72 277.415,-72.4643 280.015,-78.9636"/>
<text text-anchor="middle" x="266" y="-85.9" style="font-family:Times New Roman;font-size:14.00;">b</text>
</g>
<!-- 7&#45;&gt;5 -->
<g id="edge20" class="edge"><title>7&#45;&gt;5</title>
<path style="fill:none;stroke:black;" d="M242,-114C248,-118 255,-121 262,-124 269,-126 276,-128 282,-130"/>
<polygon style="fill:black;stroke:black;" points="281.508,-133.471 292,-132 282.881,-126.607 281.508,-133.471"/>
<text text-anchor="middle" x="266" y="-127.9" style="font-family:Times New Roman;font-size:14.00;">a</text>
</g>
</g>
</svg>
