<?xml version="1.0" encoding="UTF-8" standalone="no"?>
<!DOCTYPE svg PUBLIC "-//W3C//DTD SVG 1.1//EN"
 "http://www.w3.org/Graphics/SVG/1.1/DTD/svg11.dtd">
<!-- Generated by graphviz version 12.2.1 (20241206.2353)
 -->
<!-- Title: SupRpc((L),(E)) Pages: 1 -->
<svg width="221pt" height="48pt"
 viewBox="0.00 0.00 220.72 47.55" xmlns="http://www.w3.org/2000/svg" xmlns:xlink="http://www.w3.org/1999/xlink">
<g id="graph0" class="graph" transform="scale(1 1) rotate(0) translate(4 43.55)">
<title>SupRpc((L),(E))</title>
<!-- dot_dummyinit_1 -->
<g id="node1" class="node">
<title>dot_dummyinit_1</title>
</g>
<!-- 1|1 -->
<g id="node2" class="node">
<title>1|1</title>
<path fill="none" stroke="black" d="M84.47,-39.55C84.47,-39.55 49.72,-39.55 49.72,-39.55 43.72,-39.55 37.72,-33.55 37.72,-27.55 37.72,-27.55 37.72,-15.55 37.72,-15.55 37.72,-9.55 43.72,-3.55 49.72,-3.55 49.72,-3.55 84.47,-3.55 84.47,-3.55 90.47,-3.55 96.47,-9.55 96.47,-15.55 96.47,-15.55 96.47,-27.55 96.47,-27.55 96.47,-33.55 90.47,-39.55 84.47,-39.55"/>
<text text-anchor="start" x="49.72" y="-16.13" font-family="Arial" font-size="14.00">1|1</text>
<polygon fill="black" stroke="none" points="78.47,-11.68 78.47,-31.43 86.47,-31.43 86.47,-11.68 78.47,-11.68"/>
</g>
<!-- dot_dummyinit_1&#45;&gt;1|1 -->
<g id="edge1" class="edge">
<title>dot_dummyinit_1&#45;&gt;1|1</title>
<path fill="none" stroke="black" d="M0.77,-21.55C1.6,-21.55 13.15,-21.55 26.32,-21.55"/>
<polygon fill="black" stroke="black" points="26.04,-25.05 36.04,-21.55 26.04,-18.05 26.04,-25.05"/>
</g>
<!-- 2|1 -->
<g id="node3" class="node">
<title>2|1</title>
<path fill="none" stroke="black" d="M200.72,-39.55C200.72,-39.55 170.72,-39.55 170.72,-39.55 164.72,-39.55 158.72,-33.55 158.72,-27.55 158.72,-27.55 158.72,-15.55 158.72,-15.55 158.72,-9.55 164.72,-3.55 170.72,-3.55 170.72,-3.55 200.72,-3.55 200.72,-3.55 206.72,-3.55 212.72,-9.55 212.72,-15.55 212.72,-15.55 212.72,-27.55 212.72,-27.55 212.72,-33.55 206.72,-39.55 200.72,-39.55"/>
<text text-anchor="middle" x="185.72" y="-16.13" font-family="Arial" font-size="14.00">2|1</text>
</g>
<!-- 1|1&#45;&gt;2|1 -->
<g id="edge2" class="edge">
<title>1|1&#45;&gt;2|1</title>
<path fill="none" stroke="black" d="M96.92,-21.55C112.12,-21.55 130.95,-21.55 147.26,-21.55"/>
<polygon fill="black" stroke="black" points="147.1,-25.05 157.1,-21.55 147.1,-18.05 147.1,-25.05"/>
<text text-anchor="middle" x="127.6" y="-24" font-family="Arial" font-size="14.00">beta</text>
</g>
<!-- 2|1&#45;&gt;1|1 -->
<g id="edge3" class="edge">
<title>2|1&#45;&gt;1|1</title>
<path fill="none" stroke="black" d="M158.34,-7.57C152.67,-5.18 146.62,-3.07 140.72,-1.8 129.31,0.64 125.9,0.53 114.47,-1.8 112.19,-2.27 109.89,-2.85 107.59,-3.52"/>
<polygon fill="black" stroke="black" points="106.71,-0.12 98.39,-6.68 108.98,-6.74 106.71,-0.12"/>
<text text-anchor="middle" x="127.6" y="-4.25" font-family="Arial" font-size="14.00">beta</text>
</g>
</g>
</svg>
