<?xml version="1.0" encoding="UTF-8" standalone="no"?>
<!DOCTYPE svg PUBLIC "-//W3C//DTD SVG 1.1//EN"
 "http://www.w3.org/Graphics/SVG/1.1/DTD/svg11.dtd">
<!-- Generated by graphviz version 12.2.1 (20241206.2353)
 -->
<!-- Title: PrefixClosure(very simple machine_1...|Project(PrefixClosure(supervisor)) Pages: 1 -->
<svg width="716pt" height="104pt"
 viewBox="0.00 0.00 716.22 104.00" xmlns="http://www.w3.org/2000/svg" xmlns:xlink="http://www.w3.org/1999/xlink">
<g id="graph0" class="graph" transform="scale(1 1) rotate(0) translate(4 100)">
<title>PrefixClosure(very simple machine_1...|Project(PrefixClosure(supervisor))</title>
<!-- dot_dummyinit_1 -->
<g id="node1" class="node">
<title>dot_dummyinit_1</title>
</g>
<!-- 1 -->
<g id="node2" class="node">
<title>1</title>
<ellipse fill="none" stroke="black" cx="59.72" cy="-60.15" rx="18" ry="18"/>
<ellipse fill="none" stroke="black" cx="59.72" cy="-60.15" rx="22" ry="22"/>
<text text-anchor="middle" x="59.72" y="-54.72" font-family="Arial" font-size="14.00">1</text>
</g>
<!-- dot_dummyinit_1&#45;&gt;1 -->
<g id="edge1" class="edge">
<title>dot_dummyinit_1&#45;&gt;1</title>
<path fill="none" stroke="black" d="M0.89,-60.15C2.38,-60.15 13.74,-60.15 26,-60.15"/>
<polygon fill="black" stroke="black" points="25.74,-63.65 35.74,-60.15 25.74,-56.65 25.74,-63.65"/>
</g>
<!-- 2 -->
<g id="node3" class="node">
<title>2</title>
<ellipse fill="none" stroke="black" cx="187.72" cy="-34.15" rx="18" ry="18"/>
<ellipse fill="none" stroke="black" cx="187.72" cy="-34.15" rx="22" ry="22"/>
<text text-anchor="middle" x="187.72" y="-28.72" font-family="Arial" font-size="14.00">2</text>
</g>
<!-- 1&#45;&gt;2 -->
<g id="edge2" class="edge">
<title>1&#45;&gt;2</title>
<path fill="none" stroke="black" d="M81.53,-55.86C101.41,-51.75 131.66,-45.51 154.63,-40.77"/>
<polygon fill="black" stroke="black" points="155.31,-44.2 164.4,-38.76 153.9,-37.35 155.31,-44.2"/>
<text text-anchor="middle" x="123.72" y="-54.19" font-family="Arial" font-size="14.00">alpha_1</text>
</g>
<!-- 3 -->
<g id="node4" class="node">
<title>3</title>
<ellipse fill="none" stroke="black" cx="308.97" cy="-34.15" rx="18" ry="18"/>
<ellipse fill="none" stroke="black" cx="308.97" cy="-34.15" rx="22" ry="22"/>
<text text-anchor="middle" x="308.97" y="-28.72" font-family="Arial" font-size="14.00">3</text>
</g>
<!-- 2&#45;&gt;3 -->
<g id="edge3" class="edge">
<title>2&#45;&gt;3</title>
<path fill="none" stroke="black" d="M210.04,-34.15C228.18,-34.15 254.54,-34.15 275.33,-34.15"/>
<polygon fill="black" stroke="black" points="275.32,-37.65 285.32,-34.15 275.32,-30.65 275.32,-37.65"/>
<text text-anchor="middle" x="248.35" y="-36.6" font-family="Arial" font-size="14.00">beta_1</text>
</g>
<!-- 4 -->
<g id="node5" class="node">
<title>4</title>
<ellipse fill="none" stroke="black" cx="436.97" cy="-71.15" rx="18" ry="18"/>
<ellipse fill="none" stroke="black" cx="436.97" cy="-71.15" rx="22" ry="22"/>
<text text-anchor="middle" x="436.97" y="-65.72" font-family="Arial" font-size="14.00">4</text>
</g>
<!-- 3&#45;&gt;4 -->
<g id="edge4" class="edge">
<title>3&#45;&gt;4</title>
<path fill="none" stroke="black" d="M330.95,-38.38C348.72,-42.18 374.77,-48.25 396.97,-55.4 399.87,-56.33 402.86,-57.38 405.83,-58.48"/>
<polygon fill="black" stroke="black" points="404.33,-61.65 414.92,-62.03 406.88,-55.13 404.33,-61.65"/>
<text text-anchor="middle" x="372.97" y="-57.85" font-family="Arial" font-size="14.00">alpha_2</text>
</g>
<!-- 4&#45;&gt;1 -->
<g id="edge5" class="edge">
<title>4&#45;&gt;1</title>
<path fill="none" stroke="black" d="M414.59,-73.17C361.17,-77.78 217.69,-87.47 99.72,-71.15 97.07,-70.78 94.36,-70.28 91.64,-69.7"/>
<polygon fill="black" stroke="black" points="92.76,-66.37 82.2,-67.3 91.04,-73.16 92.76,-66.37"/>
<text text-anchor="middle" x="248.35" y="-82.7" font-family="Arial" font-size="14.00">beta_2</text>
</g>
<!-- 5 -->
<g id="node6" class="node">
<title>5</title>
<ellipse fill="none" stroke="black" cx="564.97" cy="-71.15" rx="18" ry="18"/>
<ellipse fill="none" stroke="black" cx="564.97" cy="-71.15" rx="22" ry="22"/>
<text text-anchor="middle" x="564.97" y="-65.72" font-family="Arial" font-size="14.00">5</text>
</g>
<!-- 4&#45;&gt;5 -->
<g id="edge6" class="edge">
<title>4&#45;&gt;5</title>
<path fill="none" stroke="black" d="M459.34,-71.15C478.98,-71.15 508.39,-71.15 531.04,-71.15"/>
<polygon fill="black" stroke="black" points="530.98,-74.65 540.98,-71.15 530.98,-67.65 530.98,-74.65"/>
<text text-anchor="middle" x="500.97" y="-73.6" font-family="Arial" font-size="14.00">alpha_1</text>
</g>
<!-- 5&#45;&gt;2 -->
<g id="edge7" class="edge">
<title>5&#45;&gt;2</title>
<path fill="none" stroke="black" d="M551.43,-53.75C544.56,-45.55 535.34,-36.43 524.97,-31.15 499.21,-18.04 364.56,8.8 286.97,-3.15 263.73,-6.73 238.45,-14.81 219.35,-21.82"/>
<polygon fill="black" stroke="black" points="218.14,-18.54 210.03,-25.35 220.62,-25.08 218.14,-18.54"/>
<text text-anchor="middle" x="372.97" y="-6.52" font-family="Arial" font-size="14.00">beta_2</text>
</g>
<!-- 6 -->
<g id="node7" class="node">
<title>6</title>
<ellipse fill="none" stroke="black" cx="686.22" cy="-37.15" rx="18" ry="18"/>
<ellipse fill="none" stroke="black" cx="686.22" cy="-37.15" rx="22" ry="22"/>
<text text-anchor="middle" x="686.22" y="-31.72" font-family="Arial" font-size="14.00">6</text>
</g>
<!-- 5&#45;&gt;6 -->
<g id="edge8" class="edge">
<title>5&#45;&gt;6</title>
<path fill="none" stroke="black" d="M586.47,-65.3C604.98,-60.03 632.51,-52.18 653.8,-46.11"/>
<polygon fill="black" stroke="black" points="654.48,-49.55 663.13,-43.45 652.56,-42.82 654.48,-49.55"/>
<text text-anchor="middle" x="625.6" y="-61.63" font-family="Arial" font-size="14.00">beta_1</text>
</g>
<!-- 6&#45;&gt;3 -->
<g id="edge9" class="edge">
<title>6&#45;&gt;3</title>
<path fill="none" stroke="black" d="M663.74,-36.98C601.02,-36.48 417.88,-35.01 342.73,-34.41"/>
<polygon fill="black" stroke="black" points="342.76,-30.91 332.73,-34.33 342.71,-37.91 342.76,-30.91"/>
<text text-anchor="middle" x="500.97" y="-38.31" font-family="Arial" font-size="14.00">beta_2</text>
</g>
</g>
</svg>
