<?xml version="1.0" encoding="UTF-8" standalone="no"?>
<!DOCTYPE svg PUBLIC "-//W3C//DTD SVG 1.0//EN"
 "http://www.w3.org/TR/2001/REC-SVG-20010904/DTD/svg10.dtd" [
 <!ATTLIST svg xmlns:xlink CDATA #FIXED "http://www.w3.org/1999/xlink">
]>
<!-- Generated by Graphviz version 2.20.2 (Tue Mar &#160;2 21:46:26 UTC 2010)
     For user: (mtmoor) Prof. Thomas Moor -->
<!-- Title: A&#45;B&#45;Spec&#45;Alternate Pages: 1 -->
<svg width="380pt" height="161pt"
 viewBox="0.00 0.00 380.00 161.00" xmlns="http://www.w3.org/2000/svg" xmlns:xlink="http://www.w3.org/1999/xlink">
<g id="graph0" class="graph" transform="scale(1 1) rotate(0) translate(4 157)">
<title>A&#45;B&#45;Spec&#45;Alternate</title>
<polygon style="fill:none;stroke:none;" points="-4,4 -4,-157 376,-157 376,4 -4,4"/>
<!-- dot_dummyinit_1 -->
<g id="node1" class="node"><title>dot_dummyinit_1</title>
</g>
<!-- A1 -->
<g id="node3" class="node"><title>A1</title>
<ellipse style="fill:none;stroke:black;" cx="68" cy="-28" rx="23.8942" ry="23.8942"/>
<ellipse style="fill:none;stroke:black;" cx="68" cy="-28" rx="27.824" ry="27.824"/>
<text text-anchor="middle" x="68" y="-23.9" style="font-family:Times New Roman;font-size:14.00;">A1</text>
</g>
<!-- dot_dummyinit_1&#45;&gt;A1 -->
<g id="edge2" class="edge"><title>dot_dummyinit_1&#45;&gt;A1</title>
<path style="fill:none;stroke:black;" d="M2,-28C6,-28 17,-28 30,-28"/>
<polygon style="fill:black;stroke:black;" points="30,-31.5001 40,-28 30,-24.5001 30,-31.5001"/>
</g>
<!-- A2 -->
<g id="node4" class="node"><title>A2</title>
<ellipse style="fill:none;stroke:black;" cx="164" cy="-59" rx="23.8245" ry="23.8245"/>
<text text-anchor="middle" x="164" y="-54.9" style="font-family:Times New Roman;font-size:14.00;">A2</text>
</g>
<!-- A1&#45;&gt;A2 -->
<g id="edge4" class="edge"><title>A1&#45;&gt;A2</title>
<path style="fill:none;stroke:black;" d="M95,-37C106,-41 119,-45 131,-49"/>
<polygon style="fill:black;stroke:black;" points="130.416,-52.4788 141,-52 132.427,-45.7741 130.416,-52.4788"/>
<text text-anchor="middle" x="118" y="-46.9" style="font-family:Times New Roman;font-size:14.00;">a</text>
</g>
<!-- A2&#45;&gt;A2 -->
<g id="edge6" class="edge"><title>A2&#45;&gt;A2</title>
<path style="fill:none;stroke:black;" d="M160,-83C160,-93 161,-101 164,-101 166,-101 167,-98 168,-93"/>
<polygon style="fill:black;stroke:black;" points="171.5,-93 168,-83 164.5,-93 171.5,-93"/>
<text text-anchor="middle" x="164" y="-104.9" style="font-family:Times New Roman;font-size:14.00;">a</text>
</g>
<!-- A2&#45;&gt;A2 -->
<g id="edge10" class="edge"><title>A2&#45;&gt;A2</title>
<path style="fill:none;stroke:black;" d="M157,-82C155,-101 157,-119 164,-119 170,-119 172,-107 172,-92"/>
<polygon style="fill:black;stroke:black;" points="175.478,-91.6021 171,-82 168.512,-92.2987 175.478,-91.6021"/>
<text text-anchor="middle" x="164" y="-122.9" style="font-family:Times New Roman;font-size:14.00;">d</text>
</g>
<!-- B1 -->
<g id="node5" class="node"><title>B1</title>
<ellipse style="fill:none;stroke:black;" cx="256" cy="-59" rx="23.8245" ry="23.8245"/>
<text text-anchor="middle" x="256" y="-54.9" style="font-family:Times New Roman;font-size:14.00;">B1</text>
</g>
<!-- A2&#45;&gt;B1 -->
<g id="edge8" class="edge"><title>A2&#45;&gt;B1</title>
<path style="fill:none;stroke:black;" d="M188,-59C198,-59 210,-59 222,-59"/>
<polygon style="fill:black;stroke:black;" points="222,-62.5001 232,-59 222,-55.5001 222,-62.5001"/>
<text text-anchor="middle" x="210" y="-62.9" style="font-family:Times New Roman;font-size:14.00;">c</text>
</g>
<!-- B2 -->
<g id="node6" class="node"><title>B2</title>
<ellipse style="fill:none;stroke:black;" cx="348" cy="-28" rx="23.8245" ry="23.8245"/>
<text text-anchor="middle" x="348" y="-23.9" style="font-family:Times New Roman;font-size:14.00;">B2</text>
</g>
<!-- B1&#45;&gt;B2 -->
<g id="edge12" class="edge"><title>B1&#45;&gt;B2</title>
<path style="fill:none;stroke:black;" d="M279,-51C290,-47 303,-43 315,-39"/>
<polygon style="fill:black;stroke:black;" points="316.427,-42.2259 325,-36 314.416,-35.5212 316.427,-42.2259"/>
<text text-anchor="middle" x="302" y="-47.9" style="font-family:Times New Roman;font-size:14.00;">b</text>
</g>
<!-- B2&#45;&gt;A1 -->
<g id="edge16" class="edge"><title>B2&#45;&gt;A1</title>
<path style="fill:none;stroke:black;" d="M324,-27C311,-26 295,-26 280,-26 218,-25 203,-25 140,-26 129,-26 117,-26 106,-26"/>
<polygon style="fill:black;stroke:black;" points="105.602,-22.5222 96,-27 106.299,-29.4875 105.602,-22.5222"/>
<text text-anchor="middle" x="210" y="-28.9" style="font-family:Times New Roman;font-size:14.00;">c</text>
</g>
<!-- B2&#45;&gt;B2 -->
<g id="edge14" class="edge"><title>B2&#45;&gt;B2</title>
<path style="fill:none;stroke:black;" d="M344,-52C344,-62 345,-70 348,-70 350,-70 351,-67 352,-62"/>
<polygon style="fill:black;stroke:black;" points="355.5,-62 352,-52 348.5,-62 355.5,-62"/>
<text text-anchor="middle" x="348" y="-73.9" style="font-family:Times New Roman;font-size:14.00;">b</text>
</g>
<!-- B2&#45;&gt;B2 -->
<g id="edge18" class="edge"><title>B2&#45;&gt;B2</title>
<path style="fill:none;stroke:black;" d="M341,-51C339,-70 341,-88 348,-88 354,-88 356,-76 356,-61"/>
<polygon style="fill:black;stroke:black;" points="359.478,-60.6021 355,-51 352.512,-61.2987 359.478,-60.6021"/>
<text text-anchor="middle" x="348" y="-91.9" style="font-family:Times New Roman;font-size:14.00;">d</text>
</g>
</g>
</svg>
