<?xml version="1.0" encoding="UTF-8" standalone="no"?>
<!DOCTYPE svg PUBLIC "-//W3C//DTD SVG 1.0//EN"
 "http://www.w3.org/TR/2001/REC-SVG-20010904/DTD/svg10.dtd" [
 <!ATTLIST svg xmlns:xlink CDATA #FIXED "http://www.w3.org/1999/xlink">
]>
<!-- Generated by Graphviz version 2.20.2 (Tue Mar &#160;2 21:46:26 UTC 2010)
     For user: (mtmoor) Prof. Thomas Moor -->
<!-- Title: SupRpcNB((L),(E)) Pages: 1 -->
<svg width="232pt" height="70pt"
 viewBox="0.00 0.00 232.00 70.00" xmlns="http://www.w3.org/2000/svg" xmlns:xlink="http://www.w3.org/1999/xlink">
<g id="graph0" class="graph" transform="scale(1 1) rotate(0) translate(4 66)">
<title>SupRpcNB((L),(E))</title>
<polygon style="fill:none;stroke:none;" points="-4,4 -4,-66 228,-66 228,4 -4,4"/>
<!-- dot_dummyinit_1 -->
<g id="node1" class="node"><title>dot_dummyinit_1</title>
</g>
<!-- 1|1 -->
<g id="node3" class="node"><title>1|1</title>
<ellipse style="fill:none;stroke:black;" cx="71" cy="-31" rx="27.1004" ry="27.1004"/>
<ellipse style="fill:none;stroke:black;" cx="71" cy="-31" rx="31.1004" ry="31.1004"/>
<text text-anchor="middle" x="71" y="-26.9" style="font-family:Times New Roman;font-size:14.00;">1|1</text>
</g>
<!-- dot_dummyinit_1&#45;&gt;1|1 -->
<g id="edge2" class="edge"><title>dot_dummyinit_1&#45;&gt;1|1</title>
<path style="fill:none;stroke:black;" d="M2,-31C6,-31 17,-31 30,-31"/>
<polygon style="fill:black;stroke:black;" points="30,-34.5001 40,-31 30,-27.5001 30,-34.5001"/>
</g>
<!-- 2|1 -->
<g id="node4" class="node"><title>2|1</title>
<ellipse style="fill:none;stroke:black;" cx="197" cy="-31" rx="27.1004" ry="27.1004"/>
<text text-anchor="middle" x="197" y="-26.9" style="font-family:Times New Roman;font-size:14.00;">2|1</text>
</g>
<!-- 1|1&#45;&gt;2|1 -->
<g id="edge4" class="edge"><title>1|1&#45;&gt;2|1</title>
<path style="fill:none;stroke:black;" d="M102,-31C120,-31 142,-31 160,-31"/>
<polygon style="fill:black;stroke:black;" points="160,-34.5001 170,-31 160,-27.5001 160,-34.5001"/>
<text text-anchor="middle" x="136" y="-34.9" style="font-family:Times New Roman;font-size:14.00;">beta</text>
</g>
<!-- 2|1&#45;&gt;1|1 -->
<g id="edge6" class="edge"><title>2|1&#45;&gt;1|1</title>
<path style="fill:none;stroke:black;" d="M174,-17C167,-14 159,-11 152,-10 139,-7 134,-8 120,-10 116,-11 112,-12 109,-13"/>
<polygon style="fill:black;stroke:black;" points="106.985,-10.0364 99,-17 109.585,-16.5357 106.985,-10.0364"/>
<text text-anchor="middle" x="136" y="-14.9" style="font-family:Times New Roman;font-size:14.00;">beta</text>
</g>
</g>
</svg>
