<?xml version="1.0" encoding="UTF-8" standalone="no"?>
<!DOCTYPE svg PUBLIC "-//W3C//DTD SVG 1.1//EN"
 "http://www.w3.org/Graphics/SVG/1.1/DTD/svg11.dtd">
<!-- Generated by graphviz version 12.2.1 (20241206.2353)
 -->
<!-- Title: process and transport Pages: 1 -->
<svg width="345pt" height="179pt"
 viewBox="0.00 0.00 345.46 179.00" xmlns="http://www.w3.org/2000/svg" xmlns:xlink="http://www.w3.org/1999/xlink">
<g id="graph0" class="graph" transform="scale(1 1) rotate(0) translate(4 175)">
<title>process and transport</title>
<!-- dot_dummyinit_1 -->
<g id="node1" class="node">
<title>dot_dummyinit_1</title>
</g>
<!-- F1 -->
<g id="node2" class="node">
<title>F1</title>
<ellipse fill="none" stroke="black" cx="62.84" cy="-40.62" rx="21.12" ry="21.12"/>
<ellipse fill="none" stroke="black" cx="62.84" cy="-40.62" rx="25.12" ry="25.12"/>
<text text-anchor="middle" x="62.84" y="-35.2" font-family="Arial" font-size="14.00">F1</text>
</g>
<!-- dot_dummyinit_1&#45;&gt;F1 -->
<g id="edge1" class="edge">
<title>dot_dummyinit_1&#45;&gt;F1</title>
<path fill="none" stroke="black" d="M0.76,-40.62C1.56,-40.62 13.07,-40.62 25.89,-40.62"/>
<polygon fill="black" stroke="black" points="25.74,-44.12 35.74,-40.62 25.74,-37.12 25.74,-44.12"/>
</g>
<!-- F2 -->
<g id="node3" class="node">
<title>F2</title>
<ellipse fill="none" stroke="black" cx="148.84" cy="-91.62" rx="21.12" ry="21.12"/>
<text text-anchor="middle" x="148.84" y="-86.2" font-family="Arial" font-size="14.00">F2</text>
</g>
<!-- F1&#45;&gt;F2 -->
<g id="edge2" class="edge">
<title>F1&#45;&gt;F2</title>
<path fill="none" stroke="black" d="M84.61,-53.23C95.43,-59.8 108.8,-67.92 120.46,-75"/>
<polygon fill="black" stroke="black" points="118.5,-77.9 128.86,-80.1 122.13,-71.92 118.5,-77.9"/>
<text text-anchor="middle" x="107.84" y="-70.1" font-family="Arial" font-size="14.00">f</text>
</g>
<!-- F3 -->
<g id="node4" class="node">
<title>F3</title>
<ellipse fill="none" stroke="black" cx="232.09" cy="-115.62" rx="21.12" ry="21.12"/>
<text text-anchor="middle" x="232.09" y="-110.2" font-family="Arial" font-size="14.00">F3</text>
</g>
<!-- F2&#45;&gt;F3 -->
<g id="edge3" class="edge">
<title>F2&#45;&gt;F3</title>
<path fill="none" stroke="black" d="M169.51,-97.43C178.82,-100.18 190.16,-103.53 200.55,-106.6"/>
<polygon fill="black" stroke="black" points="199.29,-109.88 209.87,-109.35 201.27,-103.17 199.29,-109.88"/>
<text text-anchor="middle" x="190.22" y="-106.07" font-family="Arial" font-size="14.00">f</text>
</g>
<!-- P1 -->
<g id="node6" class="node">
<title>P1</title>
<ellipse fill="none" stroke="black" cx="232.09" cy="-21.62" rx="21.62" ry="21.62"/>
<text text-anchor="middle" x="232.09" y="-16.2" font-family="Arial" font-size="14.00">P1</text>
</g>
<!-- F2&#45;&gt;P1 -->
<g id="edge4" class="edge">
<title>F2&#45;&gt;P1</title>
<path fill="none" stroke="black" d="M165.51,-78.13C177.05,-68.18 192.97,-54.46 206.24,-43.03"/>
<polygon fill="black" stroke="black" points="208.48,-45.72 213.77,-36.55 203.91,-40.42 208.48,-45.72"/>
<text text-anchor="middle" x="190.22" y="-61.17" font-family="Arial" font-size="14.00">r</text>
</g>
<!-- P2 -->
<g id="node5" class="node">
<title>P2</title>
<ellipse fill="none" stroke="black" cx="315.84" cy="-115.62" rx="21.62" ry="21.62"/>
<text text-anchor="middle" x="315.84" y="-110.2" font-family="Arial" font-size="14.00">P2</text>
</g>
<!-- F3&#45;&gt;P2 -->
<g id="edge5" class="edge">
<title>F3&#45;&gt;P2</title>
<path fill="none" stroke="black" d="M253.3,-115.62C262.04,-115.62 272.49,-115.62 282.27,-115.62"/>
<polygon fill="black" stroke="black" points="282.21,-119.12 292.21,-115.62 282.21,-112.12 282.21,-119.12"/>
<text text-anchor="middle" x="273.96" y="-118.07" font-family="Arial" font-size="14.00">r</text>
</g>
<!-- P2&#45;&gt;F2 -->
<g id="edge6" class="edge">
<title>P2&#45;&gt;F2</title>
<path fill="none" stroke="black" d="M297.56,-127.37C276.62,-140.06 240.42,-157.03 210.47,-145.62 194.83,-139.67 180.65,-127.62 169.95,-116.41"/>
<polygon fill="black" stroke="black" points="172.78,-114.33 163.49,-109.25 167.59,-119.02 172.78,-114.33"/>
<text text-anchor="middle" x="232.09" y="-151.84" font-family="Arial" font-size="14.00">a</text>
</g>
<!-- P2&#45;&gt;P2 -->
<g id="edge7" class="edge">
<title>P2&#45;&gt;P2</title>
<path fill="none" stroke="black" d="M308.22,-136.01C307.16,-146.18 309.7,-155.25 315.84,-155.25 319.48,-155.25 321.85,-152.05 322.96,-147.32"/>
<polygon fill="black" stroke="black" points="326.45,-147.67 323.39,-137.52 319.46,-147.36 326.45,-147.67"/>
<text text-anchor="middle" x="315.84" y="-157.7" font-family="Arial" font-size="14.00">p</text>
</g>
<!-- P1&#45;&gt;F1 -->
<g id="edge9" class="edge">
<title>P1&#45;&gt;F1</title>
<path fill="none" stroke="black" d="M210.18,-24C182.42,-27.15 133,-32.77 99.35,-36.59"/>
<polygon fill="black" stroke="black" points="99.21,-33.08 89.67,-37.69 100,-40.04 99.21,-33.08"/>
<text text-anchor="middle" x="148.84" y="-35.77" font-family="Arial" font-size="14.00">a</text>
</g>
<!-- P1&#45;&gt;P2 -->
<g id="edge8" class="edge">
<title>P1&#45;&gt;P2</title>
<path fill="none" stroke="black" d="M246.96,-37.57C259.76,-52.29 278.96,-74.36 293.67,-91.29"/>
<polygon fill="black" stroke="black" points="290.7,-93.21 299.91,-98.46 295.99,-88.61 290.7,-93.21"/>
<text text-anchor="middle" x="273.96" y="-71.07" font-family="Arial" font-size="14.00">f</text>
</g>
<!-- P1&#45;&gt;P1 -->
<g id="edge10" class="edge">
<title>P1&#45;&gt;P1</title>
<path fill="none" stroke="black" d="M224.47,-42.01C223.42,-52.18 225.96,-61.25 232.09,-61.25 235.73,-61.25 238.11,-58.05 239.21,-53.32"/>
<polygon fill="black" stroke="black" points="242.7,-53.67 239.64,-43.52 235.71,-53.36 242.7,-53.67"/>
<text text-anchor="middle" x="232.09" y="-63.7" font-family="Arial" font-size="14.00">p</text>
</g>
</g>
</svg>
