<?xml version="1.0" encoding="UTF-8" standalone="no"?>
<!DOCTYPE svg PUBLIC "-//W3C//DTD SVG 1.1//EN"
 "http://www.w3.org/Graphics/SVG/1.1/DTD/svg11.dtd">
<!-- Generated by graphviz version 12.2.1 (20241206.2353)
 -->
<!-- Title: sup Pages: 1 -->
<svg width="565pt" height="114pt"
 viewBox="0.00 0.00 565.22 114.00" xmlns="http://www.w3.org/2000/svg" xmlns:xlink="http://www.w3.org/1999/xlink">
<g id="graph0" class="graph" transform="scale(1 1) rotate(0) translate(4 110)">
<title>sup</title>
<!-- dot_dummyinit_1 -->
<g id="node1" class="node">
<title>dot_dummyinit_1</title>
</g>
<!-- 1 -->
<g id="node2" class="node">
<title>1</title>
<ellipse fill="none" stroke="black" cx="55.72" cy="-41" rx="18" ry="18"/>
<text text-anchor="middle" x="55.72" y="-35.58" font-family="Arial" font-size="14.00">1</text>
</g>
<!-- dot_dummyinit_1&#45;&gt;1 -->
<g id="edge1" class="edge">
<title>dot_dummyinit_1&#45;&gt;1</title>
<path fill="none" stroke="black" d="M0.87,-41C2.34,-41 13.93,-41 25.99,-41"/>
<polygon fill="black" stroke="black" points="25.86,-44.5 35.86,-41 25.86,-37.5 25.86,-44.5"/>
</g>
<!-- 2 -->
<g id="node3" class="node">
<title>2</title>
<ellipse fill="none" stroke="black" cx="172.22" cy="-41" rx="18" ry="18"/>
<ellipse fill="none" stroke="black" cx="172.22" cy="-41" rx="22" ry="22"/>
<text text-anchor="middle" x="172.22" y="-35.58" font-family="Arial" font-size="14.00">2</text>
</g>
<!-- 1&#45;&gt;2 -->
<g id="edge2" class="edge">
<title>1&#45;&gt;2</title>
<path fill="none" stroke="black" d="M74.11,-41C91.13,-41 117.49,-41 138.45,-41"/>
<polygon fill="black" stroke="black" points="138.24,-44.5 148.24,-41 138.24,-37.5 138.24,-44.5"/>
<text text-anchor="middle" x="111.97" y="-43.45" font-family="Arial" font-size="14.00">alpha0</text>
</g>
<!-- 3 -->
<g id="node4" class="node">
<title>3</title>
<ellipse fill="none" stroke="black" cx="292.72" cy="-41" rx="18" ry="18"/>
<ellipse fill="none" stroke="black" cx="292.72" cy="-41" rx="22" ry="22"/>
<text text-anchor="middle" x="292.72" y="-35.58" font-family="Arial" font-size="14.00">3</text>
</g>
<!-- 2&#45;&gt;3 -->
<g id="edge3" class="edge">
<title>2&#45;&gt;3</title>
<path fill="none" stroke="black" d="M194.68,-41C212.63,-41 238.53,-41 259.06,-41"/>
<polygon fill="black" stroke="black" points="258.91,-44.5 268.91,-41 258.91,-37.5 258.91,-44.5"/>
<text text-anchor="middle" x="232.47" y="-43.45" font-family="Arial" font-size="14.00">alpha1</text>
</g>
<!-- 4 -->
<g id="node5" class="node">
<title>4</title>
<ellipse fill="none" stroke="black" cx="413.97" cy="-84" rx="18" ry="18"/>
<ellipse fill="none" stroke="black" cx="413.97" cy="-84" rx="22" ry="22"/>
<text text-anchor="middle" x="413.97" y="-78.58" font-family="Arial" font-size="14.00">4</text>
</g>
<!-- 3&#45;&gt;4 -->
<g id="edge4" class="edge">
<title>3&#45;&gt;4</title>
<path fill="none" stroke="black" d="M313.95,-48.29C332.74,-55.07 360.97,-65.25 382.48,-73.01"/>
<polygon fill="black" stroke="black" points="381.02,-76.2 391.62,-76.3 383.4,-69.62 381.02,-76.2"/>
<text text-anchor="middle" x="353.35" y="-71.31" font-family="Arial" font-size="14.00">alpha2</text>
</g>
<!-- 5 -->
<g id="node6" class="node">
<title>5</title>
<ellipse fill="none" stroke="black" cx="413.97" cy="-22" rx="18" ry="18"/>
<ellipse fill="none" stroke="black" cx="413.97" cy="-22" rx="22" ry="22"/>
<text text-anchor="middle" x="413.97" y="-16.57" font-family="Arial" font-size="14.00">5</text>
</g>
<!-- 3&#45;&gt;5 -->
<g id="edge5" class="edge">
<title>3&#45;&gt;5</title>
<path fill="none" stroke="black" d="M314.76,-37.28C320.57,-36.27 326.89,-35.2 332.72,-34.25 348.53,-31.68 366.11,-28.97 380.78,-26.76"/>
<polygon fill="black" stroke="black" points="380.96,-30.28 390.33,-25.33 379.93,-23.35 380.96,-30.28"/>
<text text-anchor="middle" x="353.35" y="-36.7" font-family="Arial" font-size="14.00">beta02</text>
</g>
<!-- 6 -->
<g id="node7" class="node">
<title>6</title>
<ellipse fill="none" stroke="black" cx="535.22" cy="-84" rx="18" ry="18"/>
<ellipse fill="none" stroke="black" cx="535.22" cy="-84" rx="22" ry="22"/>
<text text-anchor="middle" x="535.22" y="-78.58" font-family="Arial" font-size="14.00">6</text>
</g>
<!-- 4&#45;&gt;6 -->
<g id="edge6" class="edge">
<title>4&#45;&gt;6</title>
<path fill="none" stroke="black" d="M436.29,-84C454.43,-84 480.79,-84 501.58,-84"/>
<polygon fill="black" stroke="black" points="501.57,-87.5 511.57,-84 501.57,-80.5 501.57,-87.5"/>
<text text-anchor="middle" x="474.6" y="-86.45" font-family="Arial" font-size="14.00">beta03</text>
</g>
</g>
</svg>
