<?xml version="1.0" encoding="UTF-8" standalone="no"?>
<!DOCTYPE svg PUBLIC "-//W3C//DTD SVG 1.1//EN"
 "http://www.w3.org/Graphics/SVG/1.1/DTD/svg11.dtd">
<!-- Generated by graphviz version 12.2.1 (20241206.2353)
 -->
<!-- Title: Generator Pages: 1 -->
<svg width="720pt" height="134pt"
 viewBox="0.00 0.00 720.00 133.88" xmlns="http://www.w3.org/2000/svg" xmlns:xlink="http://www.w3.org/1999/xlink">
<g id="graph0" class="graph" transform="scale(0.779035 0.779035) rotate(0) translate(4 167.85)">
<title>Generator</title>
<!-- dot_dummyinit_1 -->
<g id="node1" class="node">
<title>dot_dummyinit_1</title>
</g>
<!-- I|I|E -->
<g id="node2" class="node">
<title>I|I|E</title>
<path fill="none" stroke="black" d="M89.72,-140.85C89.72,-140.85 49.72,-140.85 49.72,-140.85 43.72,-140.85 37.72,-134.85 37.72,-128.85 37.72,-128.85 37.72,-116.85 37.72,-116.85 37.72,-110.85 43.72,-104.85 49.72,-104.85 49.72,-104.85 89.72,-104.85 89.72,-104.85 95.72,-104.85 101.72,-110.85 101.72,-116.85 101.72,-116.85 101.72,-128.85 101.72,-128.85 101.72,-134.85 95.72,-140.85 89.72,-140.85"/>
<text text-anchor="start" x="49.72" y="-117.43" font-family="Arial" font-size="14.00">I|I|E</text>
<polygon fill="black" stroke="none" points="83.72,-112.98 83.72,-132.73 91.72,-132.73 91.72,-112.98 83.72,-112.98"/>
</g>
<!-- dot_dummyinit_1&#45;&gt;I|I|E -->
<g id="edge1" class="edge">
<title>dot_dummyinit_1&#45;&gt;I|I|E</title>
<path fill="none" stroke="black" d="M0.77,-122.85C1.61,-122.85 12.96,-122.85 26.15,-122.85"/>
<polygon fill="black" stroke="black" points="25.96,-126.35 35.96,-122.85 25.96,-119.35 25.96,-126.35"/>
</g>
<!-- B|I|E -->
<g id="node3" class="node">
<title>B|I|E</title>
<path fill="none" stroke="black" d="M227.72,-117.85C227.72,-117.85 197.72,-117.85 197.72,-117.85 191.72,-117.85 185.72,-111.85 185.72,-105.85 185.72,-105.85 185.72,-93.85 185.72,-93.85 185.72,-87.85 191.72,-81.85 197.72,-81.85 197.72,-81.85 227.72,-81.85 227.72,-81.85 233.72,-81.85 239.72,-87.85 239.72,-93.85 239.72,-93.85 239.72,-105.85 239.72,-105.85 239.72,-111.85 233.72,-117.85 227.72,-117.85"/>
<text text-anchor="middle" x="212.72" y="-94.43" font-family="Arial" font-size="14.00">B|I|E</text>
</g>
<!-- I|I|E&#45;&gt;B|I|E -->
<g id="edge2" class="edge">
<title>I|I|E&#45;&gt;B|I|E</title>
<path fill="none" stroke="black" d="M102.01,-117.75C123.29,-114.28 151.56,-109.67 174.07,-105.99"/>
<polygon fill="black" stroke="black" points="174.45,-109.48 183.76,-104.41 173.32,-102.57 174.45,-109.48"/>
<text text-anchor="middle" x="143.72" y="-117.21" font-family="Arial" font-size="14.00">alpha_1</text>
</g>
<!-- I|I|F -->
<g id="node4" class="node">
<title>I|I|F</title>
<path fill="none" stroke="black" d="M358.97,-55.85C358.97,-55.85 328.97,-55.85 328.97,-55.85 322.97,-55.85 316.97,-49.85 316.97,-43.85 316.97,-43.85 316.97,-31.85 316.97,-31.85 316.97,-25.85 322.97,-19.85 328.97,-19.85 328.97,-19.85 358.97,-19.85 358.97,-19.85 364.97,-19.85 370.97,-25.85 370.97,-31.85 370.97,-31.85 370.97,-43.85 370.97,-43.85 370.97,-49.85 364.97,-55.85 358.97,-55.85"/>
<text text-anchor="middle" x="343.97" y="-32.43" font-family="Arial" font-size="14.00">I|I|F</text>
</g>
<!-- B|I|E&#45;&gt;I|I|F -->
<g id="edge3" class="edge">
<title>B|I|E&#45;&gt;I|I|F</title>
<path fill="none" stroke="black" d="M238.69,-81.5C244.75,-77.47 251.33,-73.41 257.72,-70.1 272.98,-62.19 290.64,-55.19 305.92,-49.75"/>
<polygon fill="black" stroke="black" points="306.81,-53.14 315.12,-46.56 304.52,-46.52 306.81,-53.14"/>
<text text-anchor="middle" x="278.35" y="-72.55" font-family="Arial" font-size="14.00">beta_1</text>
</g>
<!-- B|I|F -->
<g id="node5" class="node">
<title>B|I|F</title>
<path fill="none" stroke="black" d="M496.97,-52.85C496.97,-52.85 466.97,-52.85 466.97,-52.85 460.97,-52.85 454.97,-46.85 454.97,-40.85 454.97,-40.85 454.97,-28.85 454.97,-28.85 454.97,-22.85 460.97,-16.85 466.97,-16.85 466.97,-16.85 496.97,-16.85 496.97,-16.85 502.97,-16.85 508.97,-22.85 508.97,-28.85 508.97,-28.85 508.97,-40.85 508.97,-40.85 508.97,-46.85 502.97,-52.85 496.97,-52.85"/>
<text text-anchor="middle" x="481.97" y="-29.43" font-family="Arial" font-size="14.00">B|I|F</text>
</g>
<!-- I|I|F&#45;&gt;B|I|F -->
<g id="edge4" class="edge">
<title>I|I|F&#45;&gt;B|I|F</title>
<path fill="none" stroke="black" d="M371.14,-27.54C376.93,-25.7 383.09,-24.06 388.97,-23.1 410.02,-19.67 415.82,-20.33 436.97,-23.1 439.15,-23.39 441.37,-23.75 443.6,-24.17"/>
<polygon fill="black" stroke="black" points="442.67,-27.55 453.19,-26.3 444.19,-20.71 442.67,-27.55"/>
<text text-anchor="middle" x="412.97" y="-25.55" font-family="Arial" font-size="14.00">alpha_1</text>
</g>
<!-- I|B|E -->
<g id="node6" class="node">
<title>I|B|E</title>
<path fill="none" stroke="black" d="M496.97,-163.85C496.97,-163.85 466.97,-163.85 466.97,-163.85 460.97,-163.85 454.97,-157.85 454.97,-151.85 454.97,-151.85 454.97,-139.85 454.97,-139.85 454.97,-133.85 460.97,-127.85 466.97,-127.85 466.97,-127.85 496.97,-127.85 496.97,-127.85 502.97,-127.85 508.97,-133.85 508.97,-139.85 508.97,-139.85 508.97,-151.85 508.97,-151.85 508.97,-157.85 502.97,-163.85 496.97,-163.85"/>
<text text-anchor="middle" x="481.97" y="-140.43" font-family="Arial" font-size="14.00">I|B|E</text>
</g>
<!-- I|I|F&#45;&gt;I|B|E -->
<g id="edge5" class="edge">
<title>I|I|F&#45;&gt;I|B|E</title>
<path fill="none" stroke="black" d="M371.29,-39.16C391.21,-41.39 418.23,-47.18 436.97,-62.1 454.42,-76 465.74,-98.72 472.52,-116.99"/>
<polygon fill="black" stroke="black" points="469.14,-117.91 475.68,-126.25 475.76,-115.65 469.14,-117.91"/>
<text text-anchor="middle" x="412.97" y="-64.55" font-family="Arial" font-size="14.00">alpha_2</text>
</g>
<!-- B|B|E -->
<g id="node7" class="node">
<title>B|B|E</title>
<path fill="none" stroke="black" d="M634.97,-112.85C634.97,-112.85 604.97,-112.85 604.97,-112.85 598.97,-112.85 592.97,-106.85 592.97,-100.85 592.97,-100.85 592.97,-88.85 592.97,-88.85 592.97,-82.85 598.97,-76.85 604.97,-76.85 604.97,-76.85 634.97,-76.85 634.97,-76.85 640.97,-76.85 646.97,-82.85 646.97,-88.85 646.97,-88.85 646.97,-100.85 646.97,-100.85 646.97,-106.85 640.97,-112.85 634.97,-112.85"/>
<text text-anchor="middle" x="619.97" y="-89.43" font-family="Arial" font-size="14.00">B|B|E</text>
</g>
<!-- B|I|F&#45;&gt;B|B|E -->
<g id="edge6" class="edge">
<title>B|I|F&#45;&gt;B|B|E</title>
<path fill="none" stroke="black" d="M509.17,-43.73C527.81,-50.33 553.3,-59.92 574.97,-70.1 577.54,-71.31 580.16,-72.61 582.78,-73.95"/>
<polygon fill="black" stroke="black" points="580.97,-76.95 591.44,-78.58 584.27,-70.78 580.97,-76.95"/>
<text text-anchor="middle" x="550.97" y="-72.55" font-family="Arial" font-size="14.00">alpha_2</text>
</g>
<!-- I|B|E&#45;&gt;I|I|E -->
<g id="edge8" class="edge">
<title>I|B|E&#45;&gt;I|I|E</title>
<path fill="none" stroke="black" d="M454.58,-146.12C394.8,-146.44 244.49,-145.66 119.72,-131.85 117.56,-131.61 115.35,-131.33 113.13,-131.03"/>
<polygon fill="black" stroke="black" points="113.91,-127.61 103.48,-129.52 112.82,-134.52 113.91,-127.61"/>
<text text-anchor="middle" x="278.35" y="-146.28" font-family="Arial" font-size="14.00">beta_2</text>
</g>
<!-- I|B|E&#45;&gt;B|B|E -->
<g id="edge7" class="edge">
<title>I|B|E&#45;&gt;B|B|E</title>
<path fill="none" stroke="black" d="M509.33,-137.25C527.82,-131.08 553.06,-122.38 574.97,-113.85 577.3,-112.94 579.69,-111.99 582.09,-111.01"/>
<polygon fill="black" stroke="black" points="583.31,-114.29 591.18,-107.2 580.6,-107.84 583.31,-114.29"/>
<text text-anchor="middle" x="550.97" y="-133.53" font-family="Arial" font-size="14.00">alpha_1</text>
</g>
<!-- B|B|E&#45;&gt;B|I|E -->
<g id="edge10" class="edge">
<title>B|B|E&#45;&gt;B|I|E</title>
<path fill="none" stroke="black" d="M592.49,-95.18C522.53,-96.04 332.62,-98.38 251.39,-99.39"/>
<polygon fill="black" stroke="black" points="251.47,-95.89 241.51,-99.51 251.55,-102.89 251.47,-95.89"/>
<text text-anchor="middle" x="412.97" y="-100.09" font-family="Arial" font-size="14.00">beta_2</text>
</g>
<!-- I|B|F -->
<g id="node8" class="node">
<title>I|B|F</title>
<path fill="none" stroke="black" d="M766.22,-98.85C766.22,-98.85 736.22,-98.85 736.22,-98.85 730.22,-98.85 724.22,-92.85 724.22,-86.85 724.22,-86.85 724.22,-74.85 724.22,-74.85 724.22,-68.85 730.22,-62.85 736.22,-62.85 736.22,-62.85 766.22,-62.85 766.22,-62.85 772.22,-62.85 778.22,-68.85 778.22,-74.85 778.22,-74.85 778.22,-86.85 778.22,-86.85 778.22,-92.85 772.22,-98.85 766.22,-98.85"/>
<text text-anchor="middle" x="751.22" y="-75.43" font-family="Arial" font-size="14.00">I|B|F</text>
</g>
<!-- B|B|E&#45;&gt;I|B|F -->
<g id="edge9" class="edge">
<title>B|B|E&#45;&gt;I|B|F</title>
<path fill="none" stroke="black" d="M647.44,-91.98C666.17,-89.96 691.57,-87.21 712.43,-84.95"/>
<polygon fill="black" stroke="black" points="712.72,-88.43 722.28,-83.88 711.96,-81.48 712.72,-88.43"/>
<text text-anchor="middle" x="685.6" y="-92.37" font-family="Arial" font-size="14.00">beta_1</text>
</g>
<!-- I|B|F&#45;&gt;I|I|F -->
<g id="edge12" class="edge">
<title>I|B|F&#45;&gt;I|I|F</title>
<path fill="none" stroke="black" d="M736.25,-62.65C728.4,-53.74 717.87,-43.7 706.22,-37.85 605.72,12.61 567.17,-0.24 454.97,-7.85 425.43,-9.86 417.34,-8.37 388.97,-16.85 386.6,-17.56 384.19,-18.38 381.79,-19.28"/>
<polygon fill="black" stroke="black" points="380.71,-15.94 372.83,-23.02 383.41,-22.4 380.71,-15.94"/>
<text text-anchor="middle" x="550.97" y="-4.61" font-family="Arial" font-size="14.00">beta_2</text>
</g>
<!-- B|B|F -->
<g id="node9" class="node">
<title>B|B|F</title>
<path fill="none" stroke="black" d="M904.22,-68.85C904.22,-68.85 874.22,-68.85 874.22,-68.85 868.22,-68.85 862.22,-62.85 862.22,-56.85 862.22,-56.85 862.22,-44.85 862.22,-44.85 862.22,-38.85 868.22,-32.85 874.22,-32.85 874.22,-32.85 904.22,-32.85 904.22,-32.85 910.22,-32.85 916.22,-38.85 916.22,-44.85 916.22,-44.85 916.22,-56.85 916.22,-56.85 916.22,-62.85 910.22,-68.85 904.22,-68.85"/>
<text text-anchor="middle" x="889.22" y="-45.43" font-family="Arial" font-size="14.00">B|B|F</text>
</g>
<!-- I|B|F&#45;&gt;B|B|F -->
<g id="edge11" class="edge">
<title>I|B|F&#45;&gt;B|B|F</title>
<path fill="none" stroke="black" d="M778.44,-75.07C799.04,-70.52 828,-64.14 851,-59.06"/>
<polygon fill="black" stroke="black" points="851.59,-62.52 860.6,-56.94 850.08,-55.68 851.59,-62.52"/>
<text text-anchor="middle" x="820.22" y="-72.74" font-family="Arial" font-size="14.00">alpha_1</text>
</g>
<!-- B|B|F&#45;&gt;B|I|F -->
<g id="edge13" class="edge">
<title>B|B|F&#45;&gt;B|I|F</title>
<path fill="none" stroke="black" d="M861.74,-49.81C791.78,-47.04 601.87,-39.55 520.64,-36.34"/>
<polygon fill="black" stroke="black" points="520.89,-32.85 510.76,-35.95 520.61,-39.84 520.89,-32.85"/>
<text text-anchor="middle" x="685.6" y="-46.04" font-family="Arial" font-size="14.00">beta_2</text>
</g>
</g>
</svg>
