<?xml version="1.0" encoding="UTF-8" standalone="no"?>
<!DOCTYPE svg PUBLIC "-//W3C//DTD SVG 1.0//EN"
 "http://www.w3.org/TR/2001/REC-SVG-20010904/DTD/svg10.dtd" [
 <!ATTLIST svg xmlns:xlink CDATA #FIXED "http://www.w3.org/1999/xlink">
]>
<!-- Generated by Graphviz version 2.20.2 (Tue Mar &#160;2 21:46:26 UTC 2010)
     For user: (mtmoor) Prof. Thomas Moor -->
<!-- Title: buffer Pages: 1 -->
<svg width="218pt" height="56pt"
 viewBox="0.00 0.00 218.00 56.00" xmlns="http://www.w3.org/2000/svg" xmlns:xlink="http://www.w3.org/1999/xlink">
<g id="graph0" class="graph" transform="scale(1 1) rotate(0) translate(4 52)">
<title>buffer</title>
<polygon style="fill:none;stroke:none;" points="-4,4 -4,-52 214,-52 214,4 -4,4"/>
<!-- dot_dummyinit_1 -->
<g id="node1" class="node"><title>dot_dummyinit_1</title>
</g>
<!-- E -->
<g id="node3" class="node"><title>E</title>
<ellipse style="fill:none;stroke:black;" cx="62" cy="-26" rx="18" ry="18"/>
<ellipse style="fill:none;stroke:black;" cx="62" cy="-26" rx="22" ry="22"/>
<text text-anchor="middle" x="62" y="-21.9" style="font-family:Times New Roman;font-size:14.00;">E</text>
</g>
<!-- dot_dummyinit_1&#45;&gt;E -->
<g id="edge2" class="edge"><title>dot_dummyinit_1&#45;&gt;E</title>
<path style="fill:none;stroke:black;" d="M2,-26C5,-26 17,-26 30,-26"/>
<polygon style="fill:black;stroke:black;" points="30,-29.5001 40,-26 30,-22.5001 30,-29.5001"/>
</g>
<!-- F -->
<g id="node4" class="node"><title>F</title>
<ellipse style="fill:none;stroke:black;" cx="192" cy="-26" rx="18" ry="18"/>
<text text-anchor="middle" x="192" y="-21.9" style="font-family:Times New Roman;font-size:14.00;">F</text>
</g>
<!-- E&#45;&gt;F -->
<g id="edge4" class="edge"><title>E&#45;&gt;F</title>
<path style="fill:none;stroke:black;" d="M84,-26C106,-26 140,-26 164,-26"/>
<polygon style="fill:black;stroke:black;" points="164,-29.5001 174,-26 164,-22.5001 164,-29.5001"/>
<text text-anchor="middle" x="129" y="-29.9" style="font-family:Times New Roman;font-size:14.00;">beta_1</text>
</g>
<!-- F&#45;&gt;E -->
<g id="edge6" class="edge"><title>F&#45;&gt;E</title>
<path style="fill:none;stroke:black;" d="M177,-15C171,-11 164,-7 156,-5 133,1 126,-0 102,-5 98,-6 94,-7 90,-9"/>
<polygon style="fill:black;stroke:black;" points="88.0418,-6.08397 81,-14 91.4414,-12.2031 88.0418,-6.08397"/>
<text text-anchor="middle" x="129" y="-9.9" style="font-family:Times New Roman;font-size:14.00;">alpha_2</text>
</g>
</g>
</svg>
