<?xml version="1.0" encoding="UTF-8" standalone="no"?>
<!DOCTYPE svg PUBLIC "-//W3C//DTD SVG 1.0//EN"
 "http://www.w3.org/TR/2001/REC-SVG-20010904/DTD/svg10.dtd" [
 <!ATTLIST svg xmlns:xlink CDATA #FIXED "http://www.w3.org/1999/xlink">
]>
<!-- Generated by Graphviz version 2.20.2 (Tue Mar &#160;2 21:46:26 UTC 2010)
     For user: (mtmoor) Prof. Thomas Moor -->
<!-- Title: plant Pages: 1 -->
<svg width="436pt" height="188pt"
 viewBox="0.00 0.00 436.00 188.00" xmlns="http://www.w3.org/2000/svg" xmlns:xlink="http://www.w3.org/1999/xlink">
<g id="graph0" class="graph" transform="scale(1 1) rotate(0) translate(4 184)">
<title>plant</title>
<polygon style="fill:none;stroke:none;" points="-4,4 -4,-184 432,-184 432,4 -4,4"/>
<!-- dot_dummyinit_1 -->
<g id="node1" class="node"><title>dot_dummyinit_1</title>
</g>
<!-- 1 -->
<g id="node3" class="node"><title>1</title>
<ellipse style="fill:none;stroke:black;" cx="62" cy="-53" rx="18" ry="18"/>
<ellipse style="fill:none;stroke:black;" cx="62" cy="-53" rx="22" ry="22"/>
<text text-anchor="middle" x="62" y="-48.9" style="font-family:Times New Roman;font-size:14.00;">1</text>
</g>
<!-- dot_dummyinit_1&#45;&gt;1 -->
<g id="edge2" class="edge"><title>dot_dummyinit_1&#45;&gt;1</title>
<path style="fill:none;stroke:black;" d="M2,-53C5,-53 17,-53 30,-53"/>
<polygon style="fill:black;stroke:black;" points="30,-56.5001 40,-53 30,-49.5001 30,-56.5001"/>
</g>
<!-- 2 -->
<g id="node4" class="node"><title>2</title>
<ellipse style="fill:none;stroke:black;" cx="176" cy="-134" rx="18" ry="18"/>
<text text-anchor="middle" x="176" y="-129.9" style="font-family:Times New Roman;font-size:14.00;">2</text>
</g>
<!-- 1&#45;&gt;2 -->
<g id="edge4" class="edge"><title>1&#45;&gt;2</title>
<path style="fill:none;stroke:black;" d="M80,-66C99,-80 131,-103 153,-118"/>
<polygon style="fill:black;stroke:black;" points="150.9,-120.8 161,-124 155.1,-115.2 150.9,-120.8"/>
<text text-anchor="middle" x="121" y="-110.9" style="font-family:Times New Roman;font-size:14.00;">alpha</text>
</g>
<!-- 3 -->
<g id="node5" class="node"><title>3</title>
<ellipse style="fill:none;stroke:black;" cx="176" cy="-53" rx="18" ry="18"/>
<text text-anchor="middle" x="176" y="-48.9" style="font-family:Times New Roman;font-size:14.00;">3</text>
</g>
<!-- 1&#45;&gt;3 -->
<g id="edge6" class="edge"><title>1&#45;&gt;3</title>
<path style="fill:none;stroke:black;" d="M84,-53C102,-53 128,-53 148,-53"/>
<polygon style="fill:black;stroke:black;" points="148,-56.5001 158,-53 148,-49.5001 148,-56.5001"/>
<text text-anchor="middle" x="121" y="-56.9" style="font-family:Times New Roman;font-size:14.00;">beta</text>
</g>
<!-- 4 -->
<g id="node6" class="node"><title>4</title>
<ellipse style="fill:none;stroke:black;" cx="410" cy="-81" rx="18" ry="18"/>
<text text-anchor="middle" x="410" y="-76.9" style="font-family:Times New Roman;font-size:14.00;">4</text>
</g>
<!-- 2&#45;&gt;4 -->
<g id="edge8" class="edge"><title>2&#45;&gt;4</title>
<path style="fill:none;stroke:black;" d="M191,-144C197,-148 205,-152 212,-155 252,-168 265,-167 306,-161 338,-155 349,-157 374,-138 385,-130 393,-118 398,-107"/>
<polygon style="fill:black;stroke:black;" points="401.203,-108.441 403,-98 395.084,-105.042 401.203,-108.441"/>
<text text-anchor="middle" x="287" y="-167.9" style="font-family:Times New Roman;font-size:14.00;">alpha</text>
</g>
<!-- 5 -->
<g id="node7" class="node"><title>5</title>
<ellipse style="fill:none;stroke:black;" cx="287" cy="-134" rx="18" ry="18"/>
<text text-anchor="middle" x="287" y="-129.9" style="font-family:Times New Roman;font-size:14.00;">5</text>
</g>
<!-- 2&#45;&gt;5 -->
<g id="edge10" class="edge"><title>2&#45;&gt;5</title>
<path style="fill:none;stroke:black;" d="M194,-134C212,-134 238,-134 259,-134"/>
<polygon style="fill:black;stroke:black;" points="259,-137.5 269,-134 259,-130.5 259,-137.5"/>
<text text-anchor="middle" x="231" y="-137.9" style="font-family:Times New Roman;font-size:14.00;">beta</text>
</g>
<!-- 3&#45;&gt;4 -->
<g id="edge14" class="edge"><title>3&#45;&gt;4</title>
<path style="fill:none;stroke:black;" d="M193,-59C199,-61 206,-63 212,-65 272,-77 343,-80 382,-81"/>
<polygon style="fill:black;stroke:black;" points="382,-84.5001 392,-81 382,-77.5001 382,-84.5001"/>
<text text-anchor="middle" x="287" y="-78.9" style="font-family:Times New Roman;font-size:14.00;">beta</text>
</g>
<!-- 6 -->
<g id="node8" class="node"><title>6</title>
<ellipse style="fill:none;stroke:black;" cx="287" cy="-27" rx="18" ry="18"/>
<text text-anchor="middle" x="287" y="-22.9" style="font-family:Times New Roman;font-size:14.00;">6</text>
</g>
<!-- 3&#45;&gt;6 -->
<g id="edge12" class="edge"><title>3&#45;&gt;6</title>
<path style="fill:none;stroke:black;" d="M194,-49C211,-45 238,-38 259,-33"/>
<polygon style="fill:black;stroke:black;" points="259.881,-36.3933 269,-31 258.508,-29.5292 259.881,-36.3933"/>
<text text-anchor="middle" x="231" y="-47.9" style="font-family:Times New Roman;font-size:14.00;">alpha</text>
</g>
<!-- 4&#45;&gt;1 -->
<g id="edge16" class="edge"><title>4&#45;&gt;1</title>
<path style="fill:none;stroke:black;" d="M403,-64C396,-53 387,-37 374,-28 349,-8 339,-7 306,-0 229,15 137,-19 91,-39"/>
<polygon style="fill:black;stroke:black;" points="89.7166,-35.7402 82,-43 92.5596,-42.1369 89.7166,-35.7402"/>
<text text-anchor="middle" x="231" y="-7.9" style="font-family:Times New Roman;font-size:14.00;">delta</text>
</g>
<!-- 5&#45;&gt;4 -->
<g id="edge18" class="edge"><title>5&#45;&gt;4</title>
<path style="fill:none;stroke:black;" d="M304,-127C324,-118 360,-103 384,-92"/>
<polygon style="fill:black;stroke:black;" points="385.283,-95.2598 393,-88 382.44,-88.8631 385.283,-95.2598"/>
<text text-anchor="middle" x="349" y="-120.9" style="font-family:Times New Roman;font-size:14.00;">gamma</text>
</g>
<!-- 6&#45;&gt;4 -->
<g id="edge20" class="edge"><title>6&#45;&gt;4</title>
<path style="fill:none;stroke:black;" d="M305,-29C323,-32 352,-38 374,-50 380,-53 385,-57 390,-61"/>
<polygon style="fill:black;stroke:black;" points="388.169,-64.0489 398,-68 392.779,-58.7809 388.169,-64.0489"/>
<text text-anchor="middle" x="349" y="-53.9" style="font-family:Times New Roman;font-size:14.00;">gamma</text>
</g>
</g>
</svg>
