<?xml version="1.0" encoding="UTF-8" standalone="no"?>
<!DOCTYPE svg PUBLIC "-//W3C//DTD SVG 1.0//EN"
 "http://www.w3.org/TR/2001/REC-SVG-20010904/DTD/svg10.dtd" [
 <!ATTLIST svg xmlns:xlink CDATA #FIXED "http://www.w3.org/1999/xlink">
]>
<!-- Generated by Graphviz version 2.20.2 (Tue Mar &#160;2 21:46:26 UTC 2010)
     For user: (mtmoor) Prof. Thomas Moor -->
<!-- Title: A&#45;B&#45;Spec&#45;Keep&#45;Running Pages: 1 -->
<svg width="172pt" height="160pt"
 viewBox="0.00 0.00 172.00 160.00" xmlns="http://www.w3.org/2000/svg" xmlns:xlink="http://www.w3.org/1999/xlink">
<g id="graph0" class="graph" transform="scale(1 1) rotate(0) translate(4 156)">
<title>A&#45;B&#45;Spec&#45;Keep&#45;Running</title>
<polygon style="fill:none;stroke:none;" points="-4,4 -4,-156 168,-156 168,4 -4,4"/>
<!-- dot_dummyinit_1 -->
<g id="node1" class="node"><title>dot_dummyinit_1</title>
</g>
<!-- I -->
<g id="node3" class="node"><title>I</title>
<ellipse style="fill:none;stroke:black;" cx="62" cy="-29" rx="18" ry="18"/>
<ellipse style="fill:none;stroke:black;" cx="62" cy="-29" rx="22" ry="22"/>
<text text-anchor="middle" x="62" y="-24.9" style="font-family:Times New Roman;font-size:14.00;">I</text>
</g>
<!-- dot_dummyinit_1&#45;&gt;I -->
<g id="edge2" class="edge"><title>dot_dummyinit_1&#45;&gt;I</title>
<path style="fill:none;stroke:black;" d="M2,-29C5,-29 17,-29 30,-29"/>
<polygon style="fill:black;stroke:black;" points="30,-32.5001 40,-29 30,-25.5001 30,-32.5001"/>
</g>
<!-- B -->
<g id="node4" class="node"><title>B</title>
<ellipse style="fill:none;stroke:black;" cx="146" cy="-29" rx="18.0669" ry="18.0669"/>
<text text-anchor="middle" x="146" y="-24.9" style="font-family:Times New Roman;font-size:14.00;">B</text>
</g>
<!-- I&#45;&gt;B -->
<g id="edge4" class="edge"><title>I&#45;&gt;B</title>
<path style="fill:none;stroke:black;" d="M80,-41C89,-46 100,-49 110,-47 114,-46 117,-45 121,-43"/>
<polygon style="fill:black;stroke:black;" points="122.283,-46.2598 130,-39 119.44,-39.8631 122.283,-46.2598"/>
<text text-anchor="middle" x="106" y="-50.9" style="font-family:Times New Roman;font-size:14.00;">a</text>
</g>
<!-- I&#45;&gt;B -->
<g id="edge6" class="edge"><title>I&#45;&gt;B</title>
<path style="fill:none;stroke:black;" d="M84,-26C92,-25 102,-24 110,-25 113,-25 115,-25 118,-25"/>
<polygon style="fill:black;stroke:black;" points="117.701,-28.4875 128,-26 118.398,-21.5222 117.701,-28.4875"/>
<text text-anchor="middle" x="106" y="-28.9" style="font-family:Times New Roman;font-size:14.00;">b</text>
</g>
<!-- B&#45;&gt;I -->
<g id="edge12" class="edge"><title>B&#45;&gt;I</title>
<path style="fill:none;stroke:black;" d="M133,-16C127,-11 119,-5 110,-2 101,1 93,-2 85,-7"/>
<polygon style="fill:black;stroke:black;" points="82.9,-4.19995 77,-13 87.1,-9.79997 82.9,-4.19995"/>
<text text-anchor="middle" x="106" y="-5.9" style="font-family:Times New Roman;font-size:14.00;">c</text>
</g>
<!-- B&#45;&gt;B -->
<g id="edge8" class="edge"><title>B&#45;&gt;B</title>
<path style="fill:none;stroke:black;" d="M144,-47C143,-57 144,-65 146,-65 147,-65 148,-62 148,-57"/>
<polygon style="fill:black;stroke:black;" points="151.5,-57 148,-47 144.5,-57 151.5,-57"/>
<text text-anchor="middle" x="146" y="-68.9" style="font-family:Times New Roman;font-size:14.00;">a</text>
</g>
<!-- B&#45;&gt;B -->
<g id="edge10" class="edge"><title>B&#45;&gt;B</title>
<path style="fill:none;stroke:black;" d="M140,-46C136,-63 138,-83 146,-83 152,-83 155,-70 154,-56"/>
<polygon style="fill:black;stroke:black;" points="157.393,-55.1194 152,-46 150.529,-56.4922 157.393,-55.1194"/>
<text text-anchor="middle" x="146" y="-86.9" style="font-family:Times New Roman;font-size:14.00;">b</text>
</g>
<!-- B&#45;&gt;B -->
<g id="edge14" class="edge"><title>B&#45;&gt;B</title>
<path style="fill:none;stroke:black;" d="M139,-46C133,-71 135,-101 146,-101 156,-101 158,-78 155,-56"/>
<polygon style="fill:black;stroke:black;" points="158.393,-55.1194 153,-46 151.529,-56.4922 158.393,-55.1194"/>
<text text-anchor="middle" x="146" y="-104.9" style="font-family:Times New Roman;font-size:14.00;">d</text>
</g>
</g>
</svg>
