<?xml version="1.0" encoding="UTF-8" standalone="no"?>
<!DOCTYPE svg PUBLIC "-//W3C//DTD SVG 1.1//EN"
 "http://www.w3.org/Graphics/SVG/1.1/DTD/svg11.dtd">
<!-- Generated by graphviz version 12.2.1 (20241206.2353)
 -->
<!-- Title: Project(Plant B) Pages: 1 -->
<svg width="381pt" height="136pt"
 viewBox="0.00 0.00 381.22 135.56" xmlns="http://www.w3.org/2000/svg" xmlns:xlink="http://www.w3.org/1999/xlink">
<g id="graph0" class="graph" transform="scale(1 1) rotate(0) translate(4 131.56)">
<title>Project(Plant B)</title>
<!-- dot_dummyinit_1 -->
<g id="node1" class="node">
<title>dot_dummyinit_1</title>
</g>
<!-- 4 -->
<g id="node2" class="node">
<title>4</title>
<ellipse fill="none" stroke="black" cx="59.72" cy="-57.56" rx="18" ry="18"/>
<ellipse fill="none" stroke="black" cx="59.72" cy="-57.56" rx="22" ry="22"/>
<text text-anchor="middle" x="59.72" y="-52.14" font-family="Arial" font-size="14.00">4</text>
</g>
<!-- dot_dummyinit_1&#45;&gt;4 -->
<g id="edge1" class="edge">
<title>dot_dummyinit_1&#45;&gt;4</title>
<path fill="none" stroke="black" d="M0.89,-57.56C2.38,-57.56 13.74,-57.56 26,-57.56"/>
<polygon fill="black" stroke="black" points="25.74,-61.06 35.74,-57.56 25.74,-54.06 25.74,-61.06"/>
</g>
<!-- 3 -->
<g id="node5" class="node">
<title>3</title>
<ellipse fill="none" stroke="black" cx="158.22" cy="-57.56" rx="18" ry="18"/>
<text text-anchor="middle" x="158.22" y="-52.14" font-family="Arial" font-size="14.00">3</text>
</g>
<!-- 4&#45;&gt;3 -->
<g id="edge8" class="edge">
<title>4&#45;&gt;3</title>
<path fill="none" stroke="black" d="M82.14,-57.56C95.81,-57.56 113.69,-57.56 128.57,-57.56"/>
<polygon fill="black" stroke="black" points="128.22,-61.06 138.22,-57.56 128.22,-54.06 128.22,-61.06"/>
<text text-anchor="middle" x="110.97" y="-60.01" font-family="Arial" font-size="14.00">e51</text>
</g>
<!-- 1 -->
<g id="node3" class="node">
<title>1</title>
<ellipse fill="none" stroke="black" cx="256.72" cy="-105.56" rx="18" ry="18"/>
<ellipse fill="none" stroke="black" cx="256.72" cy="-105.56" rx="22" ry="22"/>
<text text-anchor="middle" x="256.72" y="-100.14" font-family="Arial" font-size="14.00">1</text>
</g>
<!-- 2 -->
<g id="node4" class="node">
<title>2</title>
<ellipse fill="none" stroke="black" cx="355.22" cy="-57.56" rx="18" ry="18"/>
<text text-anchor="middle" x="355.22" y="-52.14" font-family="Arial" font-size="14.00">2</text>
</g>
<!-- 1&#45;&gt;2 -->
<g id="edge2" class="edge">
<title>1&#45;&gt;2</title>
<path fill="none" stroke="black" d="M278.94,-103.62C291.29,-101.8 306.81,-98.3 319.22,-91.56 324.99,-88.43 330.47,-84.08 335.32,-79.53"/>
<polygon fill="black" stroke="black" points="337.74,-82.05 342.21,-72.44 332.73,-77.17 337.74,-82.05"/>
<text text-anchor="middle" x="307.97" y="-102.51" font-family="Arial" font-size="14.00">e57</text>
</g>
<!-- 1&#45;&gt;3 -->
<g id="edge3" class="edge">
<title>1&#45;&gt;3</title>
<path fill="none" stroke="black" d="M239.49,-91.18C232.79,-85.79 224.73,-79.97 216.72,-75.81 207.54,-71.04 196.88,-67.23 187.25,-64.35"/>
<polygon fill="black" stroke="black" points="188.21,-60.99 177.64,-61.71 186.35,-67.74 188.21,-60.99"/>
<text text-anchor="middle" x="205.47" y="-78.26" font-family="Arial" font-size="14.00">e51</text>
</g>
<!-- 2&#45;&gt;1 -->
<g id="edge4" class="edge">
<title>2&#45;&gt;1</title>
<path fill="none" stroke="black" d="M336.86,-59.69C325.05,-61.65 309.32,-65.28 296.72,-71.81 291.16,-74.69 285.72,-78.52 280.75,-82.57"/>
<polygon fill="black" stroke="black" points="278.73,-79.68 273.54,-88.92 283.36,-84.94 278.73,-79.68"/>
<text text-anchor="middle" x="307.97" y="-74.26" font-family="Arial" font-size="14.00">e53</text>
</g>
<!-- 2&#45;&gt;3 -->
<g id="edge5" class="edge">
<title>2&#45;&gt;3</title>
<path fill="none" stroke="black" d="M342.09,-44.65C328.3,-31.09 304.34,-10.77 278.72,-3.81 241.07,6.41 225.98,-4.91 194.22,-27.56 189.65,-30.82 184.97,-34.54 180.57,-38.22"/>
<polygon fill="black" stroke="black" points="178.48,-35.4 173.21,-44.6 183.06,-40.69 178.48,-35.4"/>
<text text-anchor="middle" x="256.72" y="-6.26" font-family="Arial" font-size="14.00">e51</text>
</g>
<!-- 3&#45;&gt;1 -->
<g id="edge6" class="edge">
<title>3&#45;&gt;1</title>
<path fill="none" stroke="black" d="M170.18,-71.36C176.49,-78.41 184.99,-86.55 194.22,-91.56 203.14,-96.4 213.67,-99.58 223.47,-101.65"/>
<polygon fill="black" stroke="black" points="222.55,-105.04 233.01,-103.35 223.78,-98.15 222.55,-105.04"/>
<text text-anchor="middle" x="205.47" y="-102.51" font-family="Arial" font-size="14.00">e53</text>
</g>
<!-- 3&#45;&gt;2 -->
<g id="edge7" class="edge">
<title>3&#45;&gt;2</title>
<path fill="none" stroke="black" d="M176.52,-57.56C210.13,-57.56 284.53,-57.56 325.6,-57.56"/>
<polygon fill="black" stroke="black" points="325.44,-61.06 335.44,-57.56 325.44,-54.06 325.44,-61.06"/>
<text text-anchor="middle" x="256.72" y="-60.01" font-family="Arial" font-size="14.00">e55</text>
</g>
</g>
</svg>
