<?xml version="1.0" encoding="UTF-8" standalone="no"?>
<!DOCTYPE svg PUBLIC "-//W3C//DTD SVG 1.0//EN"
 "http://www.w3.org/TR/2001/REC-SVG-20010904/DTD/svg10.dtd" [
 <!ATTLIST svg xmlns:xlink CDATA #FIXED "http://www.w3.org/1999/xlink">
]>
<!-- Generated by Graphviz version 2.20.2 (Tue Mar &#160;2 21:46:26 UTC 2010)
     For user: (mtmoor) Prof. Thomas Moor -->
<!-- Title: A&#45;B&#45;Spec&#45;Eventually&#45;B Pages: 1 -->
<svg width="172pt" height="153pt"
 viewBox="0.00 0.00 172.00 153.00" xmlns="http://www.w3.org/2000/svg" xmlns:xlink="http://www.w3.org/1999/xlink">
<g id="graph0" class="graph" transform="scale(1 1) rotate(0) translate(4 149)">
<title>A&#45;B&#45;Spec&#45;Eventually&#45;B</title>
<polygon style="fill:none;stroke:none;" points="-4,4 -4,-149 168,-149 168,4 -4,4"/>
<!-- dot_dummyinit_1 -->
<g id="node1" class="node"><title>dot_dummyinit_1</title>
</g>
<!-- A -->
<g id="node3" class="node"><title>A</title>
<ellipse style="fill:none;stroke:black;" cx="58" cy="-22" rx="18.0669" ry="18.0669"/>
<text text-anchor="middle" x="58" y="-17.9" style="font-family:Times New Roman;font-size:14.00;">A</text>
</g>
<!-- dot_dummyinit_1&#45;&gt;A -->
<g id="edge2" class="edge"><title>dot_dummyinit_1&#45;&gt;A</title>
<path style="fill:none;stroke:black;" d="M2,-22C6,-22 18,-22 30,-22"/>
<polygon style="fill:black;stroke:black;" points="30,-25.5001 40,-22 30,-18.5001 30,-25.5001"/>
</g>
<!-- A&#45;&gt;A -->
<g id="edge4" class="edge"><title>A&#45;&gt;A</title>
<path style="fill:none;stroke:black;" d="M56,-40C55,-50 56,-58 58,-58 59,-58 60,-55 60,-50"/>
<polygon style="fill:black;stroke:black;" points="63.5001,-50 60,-40 56.5001,-50 63.5001,-50"/>
<text text-anchor="middle" x="58" y="-61.9" style="font-family:Times New Roman;font-size:14.00;">a</text>
</g>
<!-- A&#45;&gt;A -->
<g id="edge8" class="edge"><title>A&#45;&gt;A</title>
<path style="fill:none;stroke:black;" d="M52,-39C48,-56 50,-76 58,-76 64,-76 67,-63 66,-49"/>
<polygon style="fill:black;stroke:black;" points="69.3933,-48.1194 64,-39 62.5292,-49.4922 69.3933,-48.1194"/>
<text text-anchor="middle" x="58" y="-79.9" style="font-family:Times New Roman;font-size:14.00;">c</text>
</g>
<!-- A&#45;&gt;A -->
<g id="edge10" class="edge"><title>A&#45;&gt;A</title>
<path style="fill:none;stroke:black;" d="M51,-39C45,-64 47,-94 58,-94 68,-94 70,-71 67,-49"/>
<polygon style="fill:black;stroke:black;" points="70.3933,-48.1194 65,-39 63.5292,-49.4922 70.3933,-48.1194"/>
<text text-anchor="middle" x="58" y="-97.9" style="font-family:Times New Roman;font-size:14.00;">d</text>
</g>
<!-- B -->
<g id="node4" class="node"><title>B</title>
<ellipse style="fill:none;stroke:black;" cx="142" cy="-22" rx="18.0669" ry="18.0669"/>
<ellipse style="fill:none;stroke:black;" cx="142" cy="-22" rx="22.0669" ry="22.0669"/>
<text text-anchor="middle" x="142" y="-17.9" style="font-family:Times New Roman;font-size:14.00;">B</text>
</g>
<!-- A&#45;&gt;B -->
<g id="edge6" class="edge"><title>A&#45;&gt;B</title>
<path style="fill:none;stroke:black;" d="M76,-22C86,-22 98,-22 110,-22"/>
<polygon style="fill:black;stroke:black;" points="110,-25.5001 120,-22 110,-18.5001 110,-25.5001"/>
<text text-anchor="middle" x="98" y="-25.9" style="font-family:Times New Roman;font-size:14.00;">b</text>
</g>
<!-- B&#45;&gt;A -->
<g id="edge14" class="edge"><title>B&#45;&gt;A</title>
<path style="fill:none;stroke:black;" d="M125,-8C116,-3 105,2 94,-1 90,-2 86,-4 82,-6"/>
<polygon style="fill:black;stroke:black;" points="80.0418,-3.08397 73,-11 83.4414,-9.20308 80.0418,-3.08397"/>
<text text-anchor="middle" x="98" y="-5.9" style="font-family:Times New Roman;font-size:14.00;">c</text>
</g>
<!-- B&#45;&gt;B -->
<g id="edge12" class="edge"><title>B&#45;&gt;B</title>
<path style="fill:none;stroke:black;" d="M138,-44C138,-54 139,-62 142,-62 144,-62 145,-59 146,-54"/>
<polygon style="fill:black;stroke:black;" points="149.5,-54 146,-44 142.5,-54 149.5,-54"/>
<text text-anchor="middle" x="142" y="-65.9" style="font-family:Times New Roman;font-size:14.00;">b</text>
</g>
<!-- B&#45;&gt;B -->
<g id="edge16" class="edge"><title>B&#45;&gt;B</title>
<path style="fill:none;stroke:black;" d="M136,-43C133,-61 135,-80 142,-80 148,-80 150,-67 149,-53"/>
<polygon style="fill:black;stroke:black;" points="152.478,-52.6021 148,-43 145.512,-53.2987 152.478,-52.6021"/>
<text text-anchor="middle" x="142" y="-83.9" style="font-family:Times New Roman;font-size:14.00;">d</text>
</g>
</g>
</svg>
