<?xml version="1.0" encoding="UTF-8" standalone="no"?>
<!DOCTYPE svg PUBLIC "-//W3C//DTD SVG 1.0//EN"
 "http://www.w3.org/TR/2001/REC-SVG-20010904/DTD/svg10.dtd" [
 <!ATTLIST svg xmlns:xlink CDATA #FIXED "http://www.w3.org/1999/xlink">
]>
<!-- Generated by Graphviz version 2.20.2 (Tue Mar &#160;2 21:46:26 UTC 2010)
     For user: (mtmoor) Prof. Thomas Moor -->
<!-- Title: SupConCmplNB(A&#45;B&#45;Machine&#45;B&#45;Breaks, PrefixClosure(A&#45;B&#45;Spec&#45;Keep&#45;Running|||A&#45;B&#45;Machine&#45;B&#45;Breaks)) [minstate] Pages: 1 -->
<svg width="252pt" height="52pt"
 viewBox="0.00 0.00 252.00 52.00" xmlns="http://www.w3.org/2000/svg" xmlns:xlink="http://www.w3.org/1999/xlink">
<g id="graph0" class="graph" transform="scale(1 1) rotate(0) translate(4 48)">
<title>SupConCmplNB(A&#45;B&#45;Machine&#45;B&#45;Breaks, PrefixClosure(A&#45;B&#45;Spec&#45;Keep&#45;Running|||A&#45;B&#45;Machine&#45;B&#45;Breaks)) [minstate]</title>
<polygon style="fill:none;stroke:none;" points="-4,4 -4,-48 248,-48 248,4 -4,4"/>
<!-- dot_dummyinit_1 -->
<g id="node1" class="node"><title>dot_dummyinit_1</title>
</g>
<!-- 2 -->
<g id="node3" class="node"><title>2</title>
<ellipse style="fill:none;stroke:black;" cx="62" cy="-22" rx="18" ry="18"/>
<ellipse style="fill:none;stroke:black;" cx="62" cy="-22" rx="22" ry="22"/>
<text text-anchor="middle" x="62" y="-17.9" style="font-family:Times New Roman;font-size:14.00;">2</text>
</g>
<!-- dot_dummyinit_1&#45;&gt;2 -->
<g id="edge2" class="edge"><title>dot_dummyinit_1&#45;&gt;2</title>
<path style="fill:none;stroke:black;" d="M2,-22C5,-22 17,-22 30,-22"/>
<polygon style="fill:black;stroke:black;" points="30,-25.5001 40,-22 30,-18.5001 30,-25.5001"/>
</g>
<!-- 3 -->
<g id="node5" class="node"><title>3</title>
<ellipse style="fill:none;stroke:black;" cx="146" cy="-22" rx="18" ry="18"/>
<text text-anchor="middle" x="146" y="-17.9" style="font-family:Times New Roman;font-size:14.00;">3</text>
</g>
<!-- 2&#45;&gt;3 -->
<g id="edge6" class="edge"><title>2&#45;&gt;3</title>
<path style="fill:none;stroke:black;" d="M84,-22C95,-22 107,-22 118,-22"/>
<polygon style="fill:black;stroke:black;" points="118,-25.5001 128,-22 118,-18.5001 118,-25.5001"/>
<text text-anchor="middle" x="106" y="-25.9" style="font-family:Times New Roman;font-size:14.00;">a</text>
</g>
<!-- 1 -->
<g id="node4" class="node"><title>1</title>
<ellipse style="fill:none;stroke:black;" cx="226" cy="-22" rx="18" ry="18"/>
<text text-anchor="middle" x="226" y="-17.9" style="font-family:Times New Roman;font-size:14.00;">1</text>
</g>
<!-- 1&#45;&gt;3 -->
<g id="edge4" class="edge"><title>1&#45;&gt;3</title>
<path style="fill:none;stroke:black;" d="M211,-12C205,-8 197,-5 190,-3 183,-1 176,-3 169,-6"/>
<polygon style="fill:black;stroke:black;" points="167.042,-3.08397 160,-11 170.441,-9.20308 167.042,-3.08397"/>
<text text-anchor="middle" x="186" y="-6.9" style="font-family:Times New Roman;font-size:14.00;">a</text>
</g>
<!-- 3&#45;&gt;2 -->
<g id="edge8" class="edge"><title>3&#45;&gt;2</title>
<path style="fill:none;stroke:black;" d="M131,-11C125,-7 118,-3 110,-1 103,1 96,-1 89,-3"/>
<polygon style="fill:black;stroke:black;" points="87.0418,-0.083966 80,-8 90.4414,-6.20308 87.0418,-0.083966"/>
<text text-anchor="middle" x="106" y="-5.9" style="font-family:Times New Roman;font-size:14.00;">c</text>
</g>
<!-- 3&#45;&gt;1 -->
<g id="edge10" class="edge"><title>3&#45;&gt;1</title>
<path style="fill:none;stroke:black;" d="M164,-22C174,-22 187,-22 198,-22"/>
<polygon style="fill:black;stroke:black;" points="198,-25.5001 208,-22 198,-18.5001 198,-25.5001"/>
<text text-anchor="middle" x="186" y="-25.9" style="font-family:Times New Roman;font-size:14.00;">d</text>
</g>
</g>
</svg>
