<?xml version="1.0" encoding="UTF-8" standalone="no"?>
<!DOCTYPE svg PUBLIC "-//W3C//DTD SVG 1.0//EN"
 "http://www.w3.org/TR/2001/REC-SVG-20010904/DTD/svg10.dtd" [
 <!ATTLIST svg xmlns:xlink CDATA #FIXED "http://www.w3.org/1999/xlink">
]>
<!-- Generated by Graphviz version 2.20.2 (Tue Mar &#160;2 21:46:26 UTC 2010)
     For user: (mtmoor) Prof. Thomas Moor -->
<!-- Title: Generator Pages: 1 -->
<svg width="720pt" height="142pt"
 viewBox="0.00 0.00 720.00 142.21" xmlns="http://www.w3.org/2000/svg" xmlns:xlink="http://www.w3.org/1999/xlink">
<g id="graph0" class="graph" transform="scale(0.687023 0.687023) rotate(0) translate(4 203)">
<title>Generator</title>
<polygon style="fill:none;stroke:none;" points="-4,4 -4,-203 1044,-203 1044,4 -4,4"/>
<!-- dot_dummyinit_1 -->
<g id="node1" class="node"><title>dot_dummyinit_1</title>
</g>
<!-- I|I|E -->
<g id="node3" class="node"><title>I|I|E</title>
<ellipse style="fill:none;stroke:black;" cx="74" cy="-143" rx="29.8799" ry="29.8799"/>
<ellipse style="fill:none;stroke:black;" cx="74" cy="-143" rx="33.8799" ry="33.8799"/>
<text text-anchor="middle" x="74" y="-138.9" style="font-family:Times New Roman;font-size:14.00;">I|I|E</text>
</g>
<!-- dot_dummyinit_1&#45;&gt;I|I|E -->
<g id="edge2" class="edge"><title>dot_dummyinit_1&#45;&gt;I|I|E</title>
<path style="fill:none;stroke:black;" d="M2,-143C5,-143 17,-143 30,-143"/>
<polygon style="fill:black;stroke:black;" points="30,-146.5 40,-143 30,-139.5 30,-146.5"/>
</g>
<!-- B|I|E -->
<g id="node4" class="node"><title>B|I|E</title>
<ellipse style="fill:none;stroke:black;" cx="231" cy="-105" rx="32.8565" ry="32.8565"/>
<text text-anchor="middle" x="231" y="-100.9" style="font-family:Times New Roman;font-size:14.00;">B|I|E</text>
</g>
<!-- I|I|E&#45;&gt;B|I|E -->
<g id="edge4" class="edge"><title>I|I|E&#45;&gt;B|I|E</title>
<path style="fill:none;stroke:black;" d="M107,-135C131,-130 163,-121 189,-115"/>
<polygon style="fill:black;stroke:black;" points="189.881,-118.393 199,-113 188.508,-111.529 189.881,-118.393"/>
<text text-anchor="middle" x="153" y="-133.9" style="font-family:Times New Roman;font-size:14.00;">alpha_1</text>
</g>
<!-- I|I|F -->
<g id="node5" class="node"><title>I|I|F</title>
<ellipse style="fill:none;stroke:black;" cx="377" cy="-36" rx="29.1851" ry="29.1851"/>
<text text-anchor="middle" x="377" y="-31.9" style="font-family:Times New Roman;font-size:14.00;">I|I|F</text>
</g>
<!-- B|I|E&#45;&gt;I|I|F -->
<g id="edge6" class="edge"><title>B|I|E&#45;&gt;I|I|F</title>
<path style="fill:none;stroke:black;" d="M259,-87C266,-82 274,-78 282,-74 301,-65 322,-56 340,-49"/>
<polygon style="fill:black;stroke:black;" points="341.427,-52.2259 350,-46 339.416,-45.5212 341.427,-52.2259"/>
<text text-anchor="middle" x="306" y="-80.9" style="font-family:Times New Roman;font-size:14.00;">beta_1</text>
</g>
<!-- B|I|F -->
<g id="node6" class="node"><title>B|I|F</title>
<ellipse style="fill:none;stroke:black;" cx="529" cy="-44" rx="32.8565" ry="32.8565"/>
<text text-anchor="middle" x="529" y="-39.9" style="font-family:Times New Roman;font-size:14.00;">B|I|F</text>
</g>
<!-- I|I|F&#45;&gt;B|I|F -->
<g id="edge8" class="edge"><title>I|I|F&#45;&gt;B|I|F</title>
<path style="fill:none;stroke:black;" d="M405,-29C411,-28 418,-27 424,-26 448,-24 455,-22 478,-26 482,-27 485,-27 489,-28"/>
<polygon style="fill:black;stroke:black;" points="487.44,-31.1369 498,-32 490.283,-24.7402 487.44,-31.1369"/>
<text text-anchor="middle" x="451" y="-33.9" style="font-family:Times New Roman;font-size:14.00;">alpha_1</text>
</g>
<!-- I|B|E -->
<g id="node7" class="node"><title>I|B|E</title>
<ellipse style="fill:none;stroke:black;" cx="529" cy="-166" rx="32.8565" ry="32.8565"/>
<text text-anchor="middle" x="529" y="-161.9" style="font-family:Times New Roman;font-size:14.00;">I|B|E</text>
</g>
<!-- I|I|F&#45;&gt;I|B|E -->
<g id="edge10" class="edge"><title>I|I|F&#45;&gt;I|B|E</title>
<path style="fill:none;stroke:black;" d="M405,-42C431,-48 468,-57 478,-66 489,-75 502,-102 513,-126"/>
<polygon style="fill:black;stroke:black;" points="509.74,-127.283 517,-135 516.137,-124.44 509.74,-127.283"/>
<text text-anchor="middle" x="451" y="-70.9" style="font-family:Times New Roman;font-size:14.00;">alpha_2</text>
</g>
<!-- B|B|E -->
<g id="node8" class="node"><title>B|B|E</title>
<ellipse style="fill:none;stroke:black;" cx="689" cy="-105" rx="37.0233" ry="37.0233"/>
<text text-anchor="middle" x="689" y="-100.9" style="font-family:Times New Roman;font-size:14.00;">B|B|E</text>
</g>
<!-- B|I|F&#45;&gt;B|B|E -->
<g id="edge12" class="edge"><title>B|I|F&#45;&gt;B|B|E</title>
<path style="fill:none;stroke:black;" d="M562,-51C583,-57 611,-65 634,-74 639,-76 644,-78 648,-81"/>
<polygon style="fill:black;stroke:black;" points="646.559,-84.2031 657,-86 649.958,-78.084 646.559,-84.2031"/>
<text text-anchor="middle" x="607" y="-78.9" style="font-family:Times New Roman;font-size:14.00;">alpha_2</text>
</g>
<!-- I|B|E&#45;&gt;I|I|E -->
<g id="edge16" class="edge"><title>I|B|E&#45;&gt;I|I|E</title>
<path style="fill:none;stroke:black;" d="M496,-166C427,-166 263,-163 126,-151 123,-151 121,-150 118,-150"/>
<polygon style="fill:black;stroke:black;" points="118.492,-146.529 108,-148 117.119,-153.393 118.492,-146.529"/>
<text text-anchor="middle" x="306" y="-164.9" style="font-family:Times New Roman;font-size:14.00;">beta_2</text>
</g>
<!-- I|B|E&#45;&gt;B|B|E -->
<g id="edge14" class="edge"><title>I|B|E&#45;&gt;B|B|E</title>
<path style="fill:none;stroke:black;" d="M560,-154C584,-145 618,-132 644,-122"/>
<polygon style="fill:black;stroke:black;" points="646.015,-124.964 654,-118 643.415,-118.464 646.015,-124.964"/>
<text text-anchor="middle" x="607" y="-147.9" style="font-family:Times New Roman;font-size:14.00;">alpha_1</text>
</g>
<!-- B|B|E&#45;&gt;B|I|E -->
<g id="edge20" class="edge"><title>B|B|E&#45;&gt;B|I|E</title>
<path style="fill:none;stroke:black;" d="M652,-105C567,-105 364,-105 274,-105"/>
<polygon style="fill:black;stroke:black;" points="274,-101.5 264,-105 274,-108.5 274,-101.5"/>
<text text-anchor="middle" x="451" y="-108.9" style="font-family:Times New Roman;font-size:14.00;">beta_2</text>
</g>
<!-- I|B|F -->
<g id="node9" class="node"><title>I|B|F</title>
<ellipse style="fill:none;stroke:black;" cx="843" cy="-101" rx="32.8565" ry="32.8565"/>
<text text-anchor="middle" x="843" y="-96.9" style="font-family:Times New Roman;font-size:14.00;">I|B|F</text>
</g>
<!-- B|B|E&#45;&gt;I|B|F -->
<g id="edge18" class="edge"><title>B|B|E&#45;&gt;I|B|F</title>
<path style="fill:none;stroke:black;" d="M726,-104C749,-103 777,-103 800,-102"/>
<polygon style="fill:black;stroke:black;" points="800,-105.5 810,-102 800,-98.5001 800,-105.5"/>
<text text-anchor="middle" x="768" y="-106.9" style="font-family:Times New Roman;font-size:14.00;">beta_1</text>
</g>
<!-- I|B|F&#45;&gt;I|I|F -->
<g id="edge24" class="edge"><title>I|B|F&#45;&gt;I|I|F</title>
<path style="fill:none;stroke:black;" d="M823,-75C814,-66 804,-56 792,-50 701,-1 666,-13 562,-2 501,4 484,-4 424,-21 421,-22 418,-23 415,-24"/>
<polygon style="fill:black;stroke:black;" points="413.573,-20.7741 405,-27 415.584,-27.4788 413.573,-20.7741"/>
<text text-anchor="middle" x="607" y="-13.9" style="font-family:Times New Roman;font-size:14.00;">beta_2</text>
</g>
<!-- B|B|F -->
<g id="node10" class="node"><title>B|B|F</title>
<ellipse style="fill:none;stroke:black;" cx="1003" cy="-63" rx="36.8288" ry="36.8288"/>
<text text-anchor="middle" x="1003" y="-58.9" style="font-family:Times New Roman;font-size:14.00;">B|B|F</text>
</g>
<!-- I|B|F&#45;&gt;B|B|F -->
<g id="edge22" class="edge"><title>I|B|F&#45;&gt;B|B|F</title>
<path style="fill:none;stroke:black;" d="M875,-93C899,-88 931,-80 957,-73"/>
<polygon style="fill:black;stroke:black;" points="957.881,-76.3933 967,-71 956.508,-69.5292 957.881,-76.3933"/>
<text text-anchor="middle" x="921" y="-91.9" style="font-family:Times New Roman;font-size:14.00;">alpha_1</text>
</g>
<!-- B|B|F&#45;&gt;B|I|F -->
<g id="edge26" class="edge"><title>B|B|F&#45;&gt;B|I|F</title>
<path style="fill:none;stroke:black;" d="M966,-62C879,-58 665,-50 572,-45"/>
<polygon style="fill:black;stroke:black;" points="572,-41.5001 562,-45 572,-48.5001 572,-41.5001"/>
<text text-anchor="middle" x="768" y="-60.9" style="font-family:Times New Roman;font-size:14.00;">beta_2</text>
</g>
</g>
</svg>
