<?xml version="1.0" encoding="UTF-8" standalone="no"?>
<!DOCTYPE svg PUBLIC "-//W3C//DTD SVG 1.0//EN"
 "http://www.w3.org/TR/2001/REC-SVG-20010904/DTD/svg10.dtd" [
 <!ATTLIST svg xmlns:xlink CDATA #FIXED "http://www.w3.org/1999/xlink">
]>
<!-- Generated by Graphviz version 2.20.2 (Tue Mar &#160;2 21:46:26 UTC 2010)
     For user: (mtmoor) Prof. Thomas Moor -->
<!-- Title: sup Pages: 1 -->
<svg width="312pt" height="124pt"
 viewBox="0.00 0.00 312.00 124.00" xmlns="http://www.w3.org/2000/svg" xmlns:xlink="http://www.w3.org/1999/xlink">
<g id="graph0" class="graph" transform="scale(1 1) rotate(0) translate(4 120)">
<title>sup</title>
<polygon style="fill:none;stroke:none;" points="-4,4 -4,-120 308,-120 308,4 -4,4"/>
<!-- dot_dummyinit_1 -->
<g id="node1" class="node"><title>dot_dummyinit_1</title>
</g>
<!-- 1 -->
<g id="node3" class="node"><title>1</title>
<ellipse style="fill:none;stroke:black;" cx="62" cy="-44" rx="18" ry="18"/>
<ellipse style="fill:none;stroke:black;" cx="62" cy="-44" rx="22" ry="22"/>
<text text-anchor="middle" x="62" y="-39.9" style="font-family:Times New Roman;font-size:14.00;">1</text>
</g>
<!-- dot_dummyinit_1&#45;&gt;1 -->
<g id="edge2" class="edge"><title>dot_dummyinit_1&#45;&gt;1</title>
<path style="fill:none;stroke:black;" d="M2,-44C5,-44 17,-44 30,-44"/>
<polygon style="fill:black;stroke:black;" points="30,-47.5001 40,-44 30,-40.5001 30,-47.5001"/>
</g>
<!-- 2 -->
<g id="node4" class="node"><title>2</title>
<ellipse style="fill:none;stroke:black;" cx="176" cy="-98" rx="18" ry="18"/>
<text text-anchor="middle" x="176" y="-93.9" style="font-family:Times New Roman;font-size:14.00;">2</text>
</g>
<!-- 1&#45;&gt;2 -->
<g id="edge4" class="edge"><title>1&#45;&gt;2</title>
<path style="fill:none;stroke:black;" d="M81,-54C88,-58 95,-62 102,-65 118,-72 136,-80 150,-87"/>
<polygon style="fill:black;stroke:black;" points="148.44,-90.1369 159,-91 151.283,-83.7402 148.44,-90.1369"/>
<text text-anchor="middle" x="121" y="-83.9" style="font-family:Times New Roman;font-size:14.00;">alpha</text>
</g>
<!-- 3 -->
<g id="node5" class="node"><title>3</title>
<ellipse style="fill:none;stroke:black;" cx="176" cy="-44" rx="18" ry="18"/>
<text text-anchor="middle" x="176" y="-39.9" style="font-family:Times New Roman;font-size:14.00;">3</text>
</g>
<!-- 1&#45;&gt;3 -->
<g id="edge6" class="edge"><title>1&#45;&gt;3</title>
<path style="fill:none;stroke:black;" d="M84,-44C102,-44 128,-44 148,-44"/>
<polygon style="fill:black;stroke:black;" points="148,-47.5001 158,-44 148,-40.5001 148,-47.5001"/>
<text text-anchor="middle" x="121" y="-47.9" style="font-family:Times New Roman;font-size:14.00;">beta</text>
</g>
<!-- 4 -->
<g id="node6" class="node"><title>4</title>
<ellipse style="fill:none;stroke:black;" cx="286" cy="-44" rx="18" ry="18"/>
<text text-anchor="middle" x="286" y="-39.9" style="font-family:Times New Roman;font-size:14.00;">4</text>
</g>
<!-- 2&#45;&gt;4 -->
<g id="edge8" class="edge"><title>2&#45;&gt;4</title>
<path style="fill:none;stroke:black;" d="M193,-91C208,-85 231,-75 250,-65 254,-63 257,-61 261,-59"/>
<polygon style="fill:black;stroke:black;" points="262.958,-61.916 270,-54 259.559,-55.7969 262.958,-61.916"/>
<text text-anchor="middle" x="231" y="-85.9" style="font-family:Times New Roman;font-size:14.00;">alpha</text>
</g>
<!-- 3&#45;&gt;4 -->
<g id="edge10" class="edge"><title>3&#45;&gt;4</title>
<path style="fill:none;stroke:black;" d="M194,-44C211,-44 237,-44 258,-44"/>
<polygon style="fill:black;stroke:black;" points="258,-47.5001 268,-44 258,-40.5001 258,-47.5001"/>
<text text-anchor="middle" x="231" y="-47.9" style="font-family:Times New Roman;font-size:14.00;">beta</text>
</g>
<!-- 4&#45;&gt;1 -->
<g id="edge12" class="edge"><title>4&#45;&gt;1</title>
<path style="fill:none;stroke:black;" d="M271,-34C253,-23 223,-6 194,-0 157,8 115,-10 89,-26"/>
<polygon style="fill:black;stroke:black;" points="87.0418,-23.084 80,-31 90.4414,-29.2031 87.0418,-23.084"/>
<text text-anchor="middle" x="176" y="-3.9" style="font-family:Times New Roman;font-size:14.00;">delta</text>
</g>
</g>
</svg>
