<?xml version="1.0" encoding="UTF-8" standalone="no"?>
<!DOCTYPE svg PUBLIC "-//W3C//DTD SVG 1.1//EN"
 "http://www.w3.org/Graphics/SVG/1.1/DTD/svg11.dtd">
<!-- Generated by graphviz version 12.2.1 (20241206.2353)
 -->
<!-- Title: sup Pages: 1 -->
<svg width="300pt" height="125pt"
 viewBox="0.00 0.00 299.72 125.25" xmlns="http://www.w3.org/2000/svg" xmlns:xlink="http://www.w3.org/1999/xlink">
<g id="graph0" class="graph" transform="scale(1 1) rotate(0) translate(4 121.25)">
<title>sup</title>
<!-- dot_dummyinit_1 -->
<g id="node1" class="node">
<title>dot_dummyinit_1</title>
</g>
<!-- 1 -->
<g id="node2" class="node">
<title>1</title>
<ellipse fill="none" stroke="black" cx="59.72" cy="-45.25" rx="18" ry="18"/>
<ellipse fill="none" stroke="black" cx="59.72" cy="-45.25" rx="22" ry="22"/>
<text text-anchor="middle" x="59.72" y="-39.82" font-family="Arial" font-size="14.00">1</text>
</g>
<!-- dot_dummyinit_1&#45;&gt;1 -->
<g id="edge1" class="edge">
<title>dot_dummyinit_1&#45;&gt;1</title>
<path fill="none" stroke="black" d="M0.89,-45.25C2.38,-45.25 13.74,-45.25 26,-45.25"/>
<polygon fill="black" stroke="black" points="25.74,-48.75 35.74,-45.25 25.74,-41.75 25.74,-48.75"/>
</g>
<!-- 2 -->
<g id="node3" class="node">
<title>2</title>
<ellipse fill="none" stroke="black" cx="168.72" cy="-99.25" rx="18" ry="18"/>
<text text-anchor="middle" x="168.72" y="-93.82" font-family="Arial" font-size="14.00">2</text>
</g>
<!-- 1&#45;&gt;2 -->
<g id="edge2" class="edge">
<title>1&#45;&gt;2</title>
<path fill="none" stroke="black" d="M79.74,-55.05C86.09,-58.31 93.2,-61.95 99.72,-65.25 113.7,-72.33 129.35,-80.16 142.1,-86.51"/>
<polygon fill="black" stroke="black" points="140.17,-89.46 150.68,-90.79 143.29,-83.19 140.17,-89.46"/>
<text text-anchor="middle" x="116.22" y="-83.6" font-family="Arial" font-size="14.00">alpha</text>
</g>
<!-- 3 -->
<g id="node4" class="node">
<title>3</title>
<ellipse fill="none" stroke="black" cx="168.72" cy="-45.25" rx="18" ry="18"/>
<text text-anchor="middle" x="168.72" y="-39.82" font-family="Arial" font-size="14.00">3</text>
</g>
<!-- 1&#45;&gt;3 -->
<g id="edge3" class="edge">
<title>1&#45;&gt;3</title>
<path fill="none" stroke="black" d="M82.12,-45.25C98.37,-45.25 120.89,-45.25 138.76,-45.25"/>
<polygon fill="black" stroke="black" points="138.74,-48.75 148.74,-45.25 138.74,-41.75 138.74,-48.75"/>
<text text-anchor="middle" x="116.22" y="-47.7" font-family="Arial" font-size="14.00">beta</text>
</g>
<!-- 4 -->
<g id="node5" class="node">
<title>4</title>
<ellipse fill="none" stroke="black" cx="273.72" cy="-45.25" rx="18" ry="18"/>
<text text-anchor="middle" x="273.72" y="-39.82" font-family="Arial" font-size="14.00">4</text>
</g>
<!-- 2&#45;&gt;4 -->
<g id="edge4" class="edge">
<title>2&#45;&gt;4</title>
<path fill="none" stroke="black" d="M185.51,-91.66C199.38,-84.93 220.03,-74.71 237.72,-65.25 241.05,-63.46 244.54,-61.54 247.96,-59.62"/>
<polygon fill="black" stroke="black" points="249.56,-62.74 256.52,-54.74 246.1,-56.65 249.56,-62.74"/>
<text text-anchor="middle" x="221.22" y="-83.9" font-family="Arial" font-size="14.00">alpha</text>
</g>
<!-- 3&#45;&gt;4 -->
<g id="edge5" class="edge">
<title>3&#45;&gt;4</title>
<path fill="none" stroke="black" d="M187.19,-45.25C202.75,-45.25 225.8,-45.25 244.06,-45.25"/>
<polygon fill="black" stroke="black" points="243.99,-48.75 253.99,-45.25 243.99,-41.75 243.99,-48.75"/>
<text text-anchor="middle" x="221.22" y="-47.7" font-family="Arial" font-size="14.00">beta</text>
</g>
<!-- 4&#45;&gt;1 -->
<g id="edge6" class="edge">
<title>4&#45;&gt;1</title>
<path fill="none" stroke="black" d="M258.3,-35.46C241.83,-24.92 213.66,-8.82 186.72,-2.5 151.74,5.72 112.74,-11.84 87.53,-26.88"/>
<polygon fill="black" stroke="black" points="85.84,-23.8 79.22,-32.07 89.56,-29.74 85.84,-23.8"/>
<text text-anchor="middle" x="168.72" y="-4.95" font-family="Arial" font-size="14.00">delta</text>
</g>
</g>
</svg>
