<?xml version="1.0" encoding="UTF-8" standalone="no"?>
<!DOCTYPE svg PUBLIC "-//W3C//DTD SVG 1.0//EN"
 "http://www.w3.org/TR/2001/REC-SVG-20010904/DTD/svg10.dtd" [
 <!ATTLIST svg xmlns:xlink CDATA #FIXED "http://www.w3.org/1999/xlink">
]>
<!-- Generated by Graphviz version 2.20.2 (Tue Mar &#160;2 21:46:26 UTC 2010)
     For user: (mtmoor) Prof. Thomas Moor -->
<!-- Title: A&#45;B&#45;Machine&#45;B&#45;Breaks Pages: 1 -->
<svg width="534pt" height="105pt"
 viewBox="0.00 0.00 534.00 105.00" xmlns="http://www.w3.org/2000/svg" xmlns:xlink="http://www.w3.org/1999/xlink">
<g id="graph0" class="graph" transform="scale(1 1) rotate(0) translate(4 101)">
<title>A&#45;B&#45;Machine&#45;B&#45;Breaks</title>
<polygon style="fill:none;stroke:none;" points="-4,4 -4,-101 530,-101 530,4 -4,4"/>
<!-- dot_dummyinit_1 -->
<g id="node1" class="node"><title>dot_dummyinit_1</title>
</g>
<!-- I -->
<g id="node3" class="node"><title>I</title>
<ellipse style="fill:none;stroke:black;" cx="62" cy="-51" rx="18" ry="18"/>
<ellipse style="fill:none;stroke:black;" cx="62" cy="-51" rx="22" ry="22"/>
<text text-anchor="middle" x="62" y="-46.9" style="font-family:Times New Roman;font-size:14.00;">I</text>
</g>
<!-- dot_dummyinit_1&#45;&gt;I -->
<g id="edge2" class="edge"><title>dot_dummyinit_1&#45;&gt;I</title>
<path style="fill:none;stroke:black;" d="M2,-51C5,-51 17,-51 30,-51"/>
<polygon style="fill:black;stroke:black;" points="30,-54.5001 40,-51 30,-47.5001 30,-54.5001"/>
</g>
<!-- A -->
<g id="node5" class="node"><title>A</title>
<ellipse style="fill:none;stroke:black;" cx="146" cy="-77" rx="18.0669" ry="18.0669"/>
<text text-anchor="middle" x="146" y="-72.9" style="font-family:Times New Roman;font-size:14.00;">A</text>
</g>
<!-- I&#45;&gt;A -->
<g id="edge4" class="edge"><title>I&#45;&gt;A</title>
<path style="fill:none;stroke:black;" d="M82,-61C88,-64 95,-67 102,-69 107,-70 112,-71 118,-72"/>
<polygon style="fill:black;stroke:black;" points="117.508,-75.4708 128,-74 118.881,-68.6067 117.508,-75.4708"/>
<text text-anchor="middle" x="106" y="-72.9" style="font-family:Times New Roman;font-size:14.00;">a</text>
</g>
<!-- B -->
<g id="node6" class="node"><title>B</title>
<ellipse style="fill:none;stroke:black;" cx="316" cy="-39" rx="18.0669" ry="18.0669"/>
<text text-anchor="middle" x="316" y="-34.9" style="font-family:Times New Roman;font-size:14.00;">B</text>
</g>
<!-- I&#45;&gt;B -->
<g id="edge6" class="edge"><title>I&#45;&gt;B</title>
<path style="fill:none;stroke:black;" d="M83,-42C89,-40 96,-38 102,-37 168,-25 247,-31 288,-36"/>
<polygon style="fill:black;stroke:black;" points="287.701,-39.4875 298,-37 288.398,-32.5222 287.701,-39.4875"/>
<text text-anchor="middle" x="186" y="-32.9" style="font-family:Times New Roman;font-size:14.00;">b</text>
</g>
<!-- XB -->
<g id="node4" class="node"><title>XB</title>
<ellipse style="fill:none;stroke:black;" cx="407" cy="-39" rx="25.0158" ry="25.0158"/>
<ellipse style="fill:none;stroke:black;" cx="407" cy="-39" rx="29.0158" ry="29.0158"/>
<text text-anchor="middle" x="407" y="-34.9" style="font-family:Times New Roman;font-size:14.00;">XB</text>
</g>
<!-- FB -->
<g id="node8" class="node"><title>FB</title>
<ellipse style="fill:none;stroke:black;" cx="503" cy="-39" rx="23.1233" ry="23.1233"/>
<text text-anchor="middle" x="503" y="-34.9" style="font-family:Times New Roman;font-size:14.00;">FB</text>
</g>
<!-- XB&#45;&gt;FB -->
<g id="edge22" class="edge"><title>XB&#45;&gt;FB</title>
<path style="fill:none;stroke:black;" d="M433,-53C442,-57 452,-59 462,-57 466,-56 470,-55 473,-53"/>
<polygon style="fill:black;stroke:black;" points="474.427,-56.2259 483,-50 472.416,-49.5212 474.427,-56.2259"/>
<text text-anchor="middle" x="458" y="-60.9" style="font-family:Times New Roman;font-size:14.00;">b</text>
</g>
<!-- XB&#45;&gt;FB -->
<g id="edge20" class="edge"><title>XB&#45;&gt;FB</title>
<path style="fill:none;stroke:black;" d="M436,-39C447,-39 459,-39 470,-39"/>
<polygon style="fill:black;stroke:black;" points="470,-42.5001 480,-39 470,-35.5001 470,-42.5001"/>
<text text-anchor="middle" x="458" y="-42.9" style="font-family:Times New Roman;font-size:14.00;">a</text>
</g>
<!-- A&#45;&gt;I -->
<g id="edge8" class="edge"><title>A&#45;&gt;I</title>
<path style="fill:none;stroke:black;" d="M135,-63C129,-56 120,-48 110,-45 105,-43 99,-42 93,-43"/>
<polygon style="fill:black;stroke:black;" points="92.6021,-39.5222 83,-44 93.2987,-46.4875 92.6021,-39.5222"/>
<text text-anchor="middle" x="106" y="-48.9" style="font-family:Times New Roman;font-size:14.00;">c</text>
</g>
<!-- FA -->
<g id="node7" class="node"><title>FA</title>
<ellipse style="fill:none;stroke:black;" cx="231" cy="-69" rx="22.9311" ry="22.9311"/>
<text text-anchor="middle" x="231" y="-64.9" style="font-family:Times New Roman;font-size:14.00;">FA</text>
</g>
<!-- A&#45;&gt;FA -->
<g id="edge10" class="edge"><title>A&#45;&gt;FA</title>
<path style="fill:none;stroke:black;" d="M164,-80C172,-81 182,-82 190,-81 193,-81 196,-80 199,-79"/>
<polygon style="fill:black;stroke:black;" points="199.881,-82.3933 209,-77 198.508,-75.5292 199.881,-82.3933"/>
<text text-anchor="middle" x="186" y="-84.9" style="font-family:Times New Roman;font-size:14.00;">d</text>
</g>
<!-- B&#45;&gt;XB -->
<g id="edge12" class="edge"><title>B&#45;&gt;XB</title>
<path style="fill:none;stroke:black;" d="M334,-39C344,-39 356,-39 368,-39"/>
<polygon style="fill:black;stroke:black;" points="368,-42.5001 378,-39 368,-35.5001 368,-42.5001"/>
<text text-anchor="middle" x="356" y="-42.9" style="font-family:Times New Roman;font-size:14.00;">c</text>
</g>
<!-- FA&#45;&gt;A -->
<g id="edge14" class="edge"><title>FA&#45;&gt;A</title>
<path style="fill:none;stroke:black;" d="M209,-61C201,-59 191,-58 182,-60 178,-61 175,-62 171,-63"/>
<polygon style="fill:black;stroke:black;" points="169.717,-59.7402 162,-67 172.56,-66.1369 169.717,-59.7402"/>
<text text-anchor="middle" x="186" y="-63.9" style="font-family:Times New Roman;font-size:14.00;">a</text>
</g>
<!-- FA&#45;&gt;B -->
<g id="edge16" class="edge"><title>FA&#45;&gt;B</title>
<path style="fill:none;stroke:black;" d="M253,-61C264,-57 277,-53 289,-48"/>
<polygon style="fill:black;stroke:black;" points="290.427,-51.2259 299,-45 288.416,-44.5212 290.427,-51.2259"/>
<text text-anchor="middle" x="276" y="-56.9" style="font-family:Times New Roman;font-size:14.00;">b</text>
</g>
<!-- FB&#45;&gt;XB -->
<g id="edge18" class="edge"><title>FB&#45;&gt;XB</title>
<path style="fill:none;stroke:black;" d="M491,-19C482,-7 469,5 454,-0 447,-3 441,-7 435,-12"/>
<polygon style="fill:black;stroke:black;" points="432.9,-9.19995 427,-18 437.1,-14.8 432.9,-9.19995"/>
<text text-anchor="middle" x="458" y="-7.9" style="font-family:Times New Roman;font-size:14.00;">d</text>
</g>
</g>
</svg>
