<?xml version="1.0" encoding="UTF-8" standalone="no"?>
<!DOCTYPE svg PUBLIC "-//W3C//DTD SVG 1.0//EN"
 "http://www.w3.org/TR/2001/REC-SVG-20010904/DTD/svg10.dtd" [
 <!ATTLIST svg xmlns:xlink CDATA #FIXED "http://www.w3.org/1999/xlink">
]>
<!-- Generated by Graphviz version 2.20.2 (Tue Mar &#160;2 21:46:26 UTC 2010)
     For user: (mtmoor) Prof. Thomas Moor -->
<!-- Title: A&#45;B&#45;Machine&#45;B&#45;Exhausts Pages: 1 -->
<svg width="534pt" height="118pt"
 viewBox="0.00 0.00 534.00 118.00" xmlns="http://www.w3.org/2000/svg" xmlns:xlink="http://www.w3.org/1999/xlink">
<g id="graph0" class="graph" transform="scale(1 1) rotate(0) translate(4 114)">
<title>A&#45;B&#45;Machine&#45;B&#45;Exhausts</title>
<polygon style="fill:none;stroke:none;" points="-4,4 -4,-114 530,-114 530,4 -4,4"/>
<!-- dot_dummyinit_1 -->
<g id="node1" class="node"><title>dot_dummyinit_1</title>
</g>
<!-- I -->
<g id="node3" class="node"><title>I</title>
<ellipse style="fill:none;stroke:black;" cx="62" cy="-27" rx="18" ry="18"/>
<ellipse style="fill:none;stroke:black;" cx="62" cy="-27" rx="22" ry="22"/>
<text text-anchor="middle" x="62" y="-22.9" style="font-family:Times New Roman;font-size:14.00;">I</text>
</g>
<!-- dot_dummyinit_1&#45;&gt;I -->
<g id="edge2" class="edge"><title>dot_dummyinit_1&#45;&gt;I</title>
<path style="fill:none;stroke:black;" d="M2,-27C5,-27 17,-27 30,-27"/>
<polygon style="fill:black;stroke:black;" points="30,-30.5001 40,-27 30,-23.5001 30,-30.5001"/>
</g>
<!-- A -->
<g id="node5" class="node"><title>A</title>
<ellipse style="fill:none;stroke:black;" cx="146" cy="-67" rx="18.0669" ry="18.0669"/>
<text text-anchor="middle" x="146" y="-62.9" style="font-family:Times New Roman;font-size:14.00;">A</text>
</g>
<!-- I&#45;&gt;A -->
<g id="edge4" class="edge"><title>I&#45;&gt;A</title>
<path style="fill:none;stroke:black;" d="M82,-36C94,-42 108,-48 121,-55"/>
<polygon style="fill:black;stroke:black;" points="119.44,-58.1369 130,-59 122.283,-51.7402 119.44,-58.1369"/>
<text text-anchor="middle" x="106" y="-51.9" style="font-family:Times New Roman;font-size:14.00;">a</text>
</g>
<!-- B -->
<g id="node6" class="node"><title>B</title>
<ellipse style="fill:none;stroke:black;" cx="316" cy="-47" rx="18.0669" ry="18.0669"/>
<text text-anchor="middle" x="316" y="-42.9" style="font-family:Times New Roman;font-size:14.00;">B</text>
</g>
<!-- I&#45;&gt;B -->
<g id="edge6" class="edge"><title>I&#45;&gt;B</title>
<path style="fill:none;stroke:black;" d="M83,-20C89,-19 96,-17 102,-16 169,-4 190,4 254,-15 267,-19 281,-25 292,-32"/>
<polygon style="fill:black;stroke:black;" points="290.559,-35.2031 301,-37 293.958,-29.084 290.559,-35.2031"/>
<text text-anchor="middle" x="186" y="-6.9" style="font-family:Times New Roman;font-size:14.00;">b</text>
</g>
<!-- XB -->
<g id="node4" class="node"><title>XB</title>
<ellipse style="fill:none;stroke:black;" cx="407" cy="-81" rx="25.0158" ry="25.0158"/>
<ellipse style="fill:none;stroke:black;" cx="407" cy="-81" rx="29.0158" ry="29.0158"/>
<text text-anchor="middle" x="407" y="-76.9" style="font-family:Times New Roman;font-size:14.00;">XB</text>
</g>
<!-- XB&#45;&gt;A -->
<g id="edge20" class="edge"><title>XB&#45;&gt;A</title>
<path style="fill:none;stroke:black;" d="M378,-82C370,-83 360,-83 352,-83 277,-82 257,-91 182,-79 179,-79 176,-78 173,-77"/>
<polygon style="fill:black;stroke:black;" points="173.584,-73.5212 163,-74 171.573,-80.2259 173.584,-73.5212"/>
<text text-anchor="middle" x="276" y="-86.9" style="font-family:Times New Roman;font-size:14.00;">a</text>
</g>
<!-- FB -->
<g id="node8" class="node"><title>FB</title>
<ellipse style="fill:none;stroke:black;" cx="503" cy="-81" rx="23.1233" ry="23.1233"/>
<text text-anchor="middle" x="503" y="-76.9" style="font-family:Times New Roman;font-size:14.00;">FB</text>
</g>
<!-- XB&#45;&gt;FB -->
<g id="edge22" class="edge"><title>XB&#45;&gt;FB</title>
<path style="fill:none;stroke:black;" d="M436,-81C447,-81 459,-81 470,-81"/>
<polygon style="fill:black;stroke:black;" points="470,-84.5001 480,-81 470,-77.5001 470,-84.5001"/>
<text text-anchor="middle" x="458" y="-84.9" style="font-family:Times New Roman;font-size:14.00;">b</text>
</g>
<!-- A&#45;&gt;I -->
<g id="edge8" class="edge"><title>A&#45;&gt;I</title>
<path style="fill:none;stroke:black;" d="M137,-51C131,-41 122,-29 110,-24 105,-22 100,-21 94,-20"/>
<polygon style="fill:black;stroke:black;" points="93.6021,-16.5222 84,-21 94.2987,-23.4875 93.6021,-16.5222"/>
<text text-anchor="middle" x="106" y="-27.9" style="font-family:Times New Roman;font-size:14.00;">c</text>
</g>
<!-- FA -->
<g id="node7" class="node"><title>FA</title>
<ellipse style="fill:none;stroke:black;" cx="231" cy="-47" rx="22.9311" ry="22.9311"/>
<text text-anchor="middle" x="231" y="-42.9" style="font-family:Times New Roman;font-size:14.00;">FA</text>
</g>
<!-- A&#45;&gt;FA -->
<g id="edge10" class="edge"><title>A&#45;&gt;FA</title>
<path style="fill:none;stroke:black;" d="M164,-63C174,-61 187,-58 198,-55"/>
<polygon style="fill:black;stroke:black;" points="199.427,-58.2259 208,-52 197.416,-51.5212 199.427,-58.2259"/>
<text text-anchor="middle" x="186" y="-61.9" style="font-family:Times New Roman;font-size:14.00;">d</text>
</g>
<!-- B&#45;&gt;XB -->
<g id="edge12" class="edge"><title>B&#45;&gt;XB</title>
<path style="fill:none;stroke:black;" d="M333,-53C343,-57 357,-62 370,-67"/>
<polygon style="fill:black;stroke:black;" points="369.415,-70.5357 380,-71 372.015,-64.0364 369.415,-70.5357"/>
<text text-anchor="middle" x="356" y="-65.9" style="font-family:Times New Roman;font-size:14.00;">c</text>
</g>
<!-- FA&#45;&gt;A -->
<g id="edge14" class="edge"><title>FA&#45;&gt;A</title>
<path style="fill:none;stroke:black;" d="M211,-36C202,-32 191,-30 182,-34 175,-36 169,-40 164,-45"/>
<polygon style="fill:black;stroke:black;" points="161.596,-42.454 157,-52 166.546,-47.4038 161.596,-42.454"/>
<text text-anchor="middle" x="186" y="-37.9" style="font-family:Times New Roman;font-size:14.00;">a</text>
</g>
<!-- FA&#45;&gt;B -->
<g id="edge16" class="edge"><title>FA&#45;&gt;B</title>
<path style="fill:none;stroke:black;" d="M254,-47C265,-47 277,-47 288,-47"/>
<polygon style="fill:black;stroke:black;" points="288,-50.5001 298,-47 288,-43.5001 288,-50.5001"/>
<text text-anchor="middle" x="276" y="-50.9" style="font-family:Times New Roman;font-size:14.00;">b</text>
</g>
<!-- FB&#45;&gt;XB -->
<g id="edge18" class="edge"><title>FB&#45;&gt;XB</title>
<path style="fill:none;stroke:black;" d="M483,-69C477,-66 469,-63 462,-62 455,-61 448,-61 442,-63"/>
<polygon style="fill:black;stroke:black;" points="440.573,-59.7741 432,-66 442.584,-66.4788 440.573,-59.7741"/>
<text text-anchor="middle" x="458" y="-65.9" style="font-family:Times New Roman;font-size:14.00;">d</text>
</g>
</g>
</svg>
