<?xml version="1.0" encoding="UTF-8" standalone="no"?>
<!DOCTYPE svg PUBLIC "-//W3C//DTD SVG 1.1//EN"
 "http://www.w3.org/Graphics/SVG/1.1/DTD/svg11.dtd">
<!-- Generated by graphviz version 12.2.1 (20241206.2353)
 -->
<!-- Title: SupConNormClosed(very simple machine_1||very simple machine_2, PrefixClosure(buffer)) Pages: 1 -->
<svg width="339pt" height="52pt"
 viewBox="0.00 0.00 338.97 52.00" xmlns="http://www.w3.org/2000/svg" xmlns:xlink="http://www.w3.org/1999/xlink">
<g id="graph0" class="graph" transform="scale(1 1) rotate(0) translate(4 48)">
<title>SupConNormClosed(very simple machine_1||very simple machine_2, PrefixClosure(buffer))</title>
<!-- dot_dummyinit_1 -->
<g id="node1" class="node">
<title>dot_dummyinit_1</title>
</g>
<!-- 1 -->
<g id="node2" class="node">
<title>1</title>
<ellipse fill="none" stroke="black" cx="59.72" cy="-22" rx="18" ry="18"/>
<ellipse fill="none" stroke="black" cx="59.72" cy="-22" rx="22" ry="22"/>
<text text-anchor="middle" x="59.72" y="-16.57" font-family="Arial" font-size="14.00">1</text>
</g>
<!-- dot_dummyinit_1&#45;&gt;1 -->
<g id="edge1" class="edge">
<title>dot_dummyinit_1&#45;&gt;1</title>
<path fill="none" stroke="black" d="M0.89,-22C2.38,-22 13.74,-22 26,-22"/>
<polygon fill="black" stroke="black" points="25.74,-25.5 35.74,-22 25.74,-18.5 25.74,-25.5"/>
</g>
<!-- 2 -->
<g id="node3" class="node">
<title>2</title>
<ellipse fill="none" stroke="black" cx="187.72" cy="-22" rx="18" ry="18"/>
<ellipse fill="none" stroke="black" cx="187.72" cy="-22" rx="22" ry="22"/>
<text text-anchor="middle" x="187.72" y="-16.57" font-family="Arial" font-size="14.00">2</text>
</g>
<!-- 1&#45;&gt;2 -->
<g id="edge2" class="edge">
<title>1&#45;&gt;2</title>
<path fill="none" stroke="black" d="M82.09,-22C101.73,-22 131.14,-22 153.79,-22"/>
<polygon fill="black" stroke="black" points="153.73,-25.5 163.73,-22 153.73,-18.5 153.73,-25.5"/>
<text text-anchor="middle" x="123.72" y="-24.45" font-family="Arial" font-size="14.00">alpha_1</text>
</g>
<!-- 3 -->
<g id="node4" class="node">
<title>3</title>
<ellipse fill="none" stroke="black" cx="308.97" cy="-22" rx="18" ry="18"/>
<ellipse fill="none" stroke="black" cx="308.97" cy="-22" rx="22" ry="22"/>
<text text-anchor="middle" x="308.97" y="-16.57" font-family="Arial" font-size="14.00">3</text>
</g>
<!-- 2&#45;&gt;3 -->
<g id="edge3" class="edge">
<title>2&#45;&gt;3</title>
<path fill="none" stroke="black" d="M210.04,-22C228.18,-22 254.54,-22 275.33,-22"/>
<polygon fill="black" stroke="black" points="275.32,-25.5 285.32,-22 275.32,-18.5 275.32,-25.5"/>
<text text-anchor="middle" x="248.35" y="-24.45" font-family="Arial" font-size="14.00">beta_1</text>
</g>
</g>
</svg>
