<?xml version="1.0" encoding="UTF-8" standalone="no"?>
<!DOCTYPE svg PUBLIC "-//W3C//DTD SVG 1.0//EN"
 "http://www.w3.org/TR/2001/REC-SVG-20010904/DTD/svg10.dtd" [
 <!ATTLIST svg xmlns:xlink CDATA #FIXED "http://www.w3.org/1999/xlink">
]>
<!-- Generated by Graphviz version 2.20.2 (Tue Mar &#160;2 21:46:26 UTC 2010)
     For user: (mtmoor) Prof. Thomas Moor -->
<!-- Title: supervisor Pages: 1 -->
<svg width="720pt" height="108pt"
 viewBox="0.00 0.00 720.00 107.51" xmlns="http://www.w3.org/2000/svg" xmlns:xlink="http://www.w3.org/1999/xlink">
<g id="graph0" class="graph" transform="scale(0.81448 0.81448) rotate(0) translate(4 128)">
<title>supervisor</title>
<polygon style="fill:none;stroke:none;" points="-4,4 -4,-128 880,-128 880,4 -4,4"/>
<!-- dot_dummyinit_1 -->
<g id="node1" class="node"><title>dot_dummyinit_1</title>
</g>
<!-- I|I|E -->
<g id="node3" class="node"><title>I|I|E</title>
<ellipse style="fill:none;stroke:black;" cx="74" cy="-78" rx="29.8799" ry="29.8799"/>
<ellipse style="fill:none;stroke:black;" cx="74" cy="-78" rx="33.8799" ry="33.8799"/>
<text text-anchor="middle" x="74" y="-73.9" style="font-family:Times New Roman;font-size:14.00;">I|I|E</text>
</g>
<!-- dot_dummyinit_1&#45;&gt;I|I|E -->
<g id="edge2" class="edge"><title>dot_dummyinit_1&#45;&gt;I|I|E</title>
<path style="fill:none;stroke:black;" d="M2,-78C5,-78 17,-78 30,-78"/>
<polygon style="fill:black;stroke:black;" points="30,-81.5001 40,-78 30,-74.5001 30,-81.5001"/>
</g>
<!-- B|I|E -->
<g id="node4" class="node"><title>B|I|E</title>
<ellipse style="fill:none;stroke:black;" cx="231" cy="-34" rx="32.8565" ry="32.8565"/>
<text text-anchor="middle" x="231" y="-29.9" style="font-family:Times New Roman;font-size:14.00;">B|I|E</text>
</g>
<!-- I|I|E&#45;&gt;B|I|E -->
<g id="edge4" class="edge"><title>I|I|E&#45;&gt;B|I|E</title>
<path style="fill:none;stroke:black;" d="M107,-69C131,-62 163,-53 189,-46"/>
<polygon style="fill:black;stroke:black;" points="190.427,-49.2259 199,-43 188.416,-42.5212 190.427,-49.2259"/>
<text text-anchor="middle" x="153" y="-67.9" style="font-family:Times New Roman;font-size:14.00;">alpha_1</text>
</g>
<!-- I|I|F -->
<g id="node5" class="node"><title>I|I|F</title>
<ellipse style="fill:none;stroke:black;" cx="377" cy="-38" rx="29.1851" ry="29.1851"/>
<text text-anchor="middle" x="377" y="-33.9" style="font-family:Times New Roman;font-size:14.00;">I|I|F</text>
</g>
<!-- B|I|E&#45;&gt;I|I|F -->
<g id="edge6" class="edge"><title>B|I|E&#45;&gt;I|I|F</title>
<path style="fill:none;stroke:black;" d="M264,-35C286,-36 315,-37 338,-37"/>
<polygon style="fill:black;stroke:black;" points="338,-40.5001 348,-37 338,-33.5001 338,-40.5001"/>
<text text-anchor="middle" x="306" y="-42.9" style="font-family:Times New Roman;font-size:14.00;">beta_1</text>
</g>
<!-- I|B|E -->
<g id="node6" class="node"><title>I|B|E</title>
<ellipse style="fill:none;stroke:black;" cx="529" cy="-87" rx="32.8565" ry="32.8565"/>
<text text-anchor="middle" x="529" y="-82.9" style="font-family:Times New Roman;font-size:14.00;">I|B|E</text>
</g>
<!-- I|I|F&#45;&gt;I|B|E -->
<g id="edge8" class="edge"><title>I|I|F&#45;&gt;I|B|E</title>
<path style="fill:none;stroke:black;" d="M405,-44C426,-49 454,-56 478,-64 482,-65 486,-66 490,-68"/>
<polygon style="fill:black;stroke:black;" points="488.44,-71.1369 499,-72 491.283,-64.7402 488.44,-71.1369"/>
<text text-anchor="middle" x="451" y="-67.9" style="font-family:Times New Roman;font-size:14.00;">alpha_2</text>
</g>
<!-- I|B|E&#45;&gt;I|I|E -->
<g id="edge12" class="edge"><title>I|B|E&#45;&gt;I|I|E</title>
<path style="fill:none;stroke:black;" d="M496,-87C427,-87 264,-86 126,-81 123,-81 121,-81 118,-81"/>
<polygon style="fill:black;stroke:black;" points="118.299,-77.5125 108,-80 117.602,-84.4778 118.299,-77.5125"/>
<text text-anchor="middle" x="306" y="-88.9" style="font-family:Times New Roman;font-size:14.00;">beta_2</text>
</g>
<!-- B|B|E -->
<g id="node7" class="node"><title>B|B|E</title>
<ellipse style="fill:none;stroke:black;" cx="689" cy="-87" rx="37.0233" ry="37.0233"/>
<text text-anchor="middle" x="689" y="-82.9" style="font-family:Times New Roman;font-size:14.00;">B|B|E</text>
</g>
<!-- I|B|E&#45;&gt;B|B|E -->
<g id="edge10" class="edge"><title>I|B|E&#45;&gt;B|B|E</title>
<path style="fill:none;stroke:black;" d="M562,-87C585,-87 616,-87 642,-87"/>
<polygon style="fill:black;stroke:black;" points="642,-90.5001 652,-87 642,-83.5001 642,-90.5001"/>
<text text-anchor="middle" x="607" y="-90.9" style="font-family:Times New Roman;font-size:14.00;">alpha_1</text>
</g>
<!-- B|B|E&#45;&gt;B|I|E -->
<g id="edge16" class="edge"><title>B|B|E&#45;&gt;B|I|E</title>
<path style="fill:none;stroke:black;" d="M664,-59C656,-51 645,-43 634,-37 632,-36 445,13 348,-0 323,-3 294,-12 272,-19"/>
<polygon style="fill:black;stroke:black;" points="270.573,-15.7741 262,-22 272.584,-22.4788 270.573,-15.7741"/>
<text text-anchor="middle" x="451" y="-11.9" style="font-family:Times New Roman;font-size:14.00;">beta_2</text>
</g>
<!-- I|B|F -->
<g id="node8" class="node"><title>I|B|F</title>
<ellipse style="fill:none;stroke:black;" cx="843" cy="-46" rx="32.8565" ry="32.8565"/>
<text text-anchor="middle" x="843" y="-41.9" style="font-family:Times New Roman;font-size:14.00;">I|B|F</text>
</g>
<!-- B|B|E&#45;&gt;I|B|F -->
<g id="edge14" class="edge"><title>B|B|E&#45;&gt;I|B|F</title>
<path style="fill:none;stroke:black;" d="M725,-77C748,-71 777,-63 801,-57"/>
<polygon style="fill:black;stroke:black;" points="802.427,-60.2259 811,-54 800.416,-53.5212 802.427,-60.2259"/>
<text text-anchor="middle" x="768" y="-75.9" style="font-family:Times New Roman;font-size:14.00;">beta_1</text>
</g>
<!-- I|B|F&#45;&gt;I|I|F -->
<g id="edge18" class="edge"><title>I|B|F&#45;&gt;I|I|F</title>
<path style="fill:none;stroke:black;" d="M810,-44C787,-43 755,-42 726,-41 614,-39 482,-38 416,-38"/>
<polygon style="fill:black;stroke:black;" points="416,-34.5001 406,-38 416,-41.5001 416,-34.5001"/>
<text text-anchor="middle" x="607" y="-45.9" style="font-family:Times New Roman;font-size:14.00;">beta_2</text>
</g>
</g>
</svg>
