<?xml version="1.0" encoding="UTF-8" standalone="no"?>
<!DOCTYPE svg PUBLIC "-//W3C//DTD SVG 1.1//EN"
 "http://www.w3.org/Graphics/SVG/1.1/DTD/svg11.dtd">
<!-- Generated by graphviz version 12.2.1 (20241206.2353)
 -->
<!-- Title: SelfLoop(buffer,Alphabet&#45;Alphabet) Pages: 1 -->
<svg width="216pt" height="121pt"
 viewBox="0.00 0.00 215.72 121.20" xmlns="http://www.w3.org/2000/svg" xmlns:xlink="http://www.w3.org/1999/xlink">
<g id="graph0" class="graph" transform="scale(1 1) rotate(0) translate(4 117.2)">
<title>SelfLoop(buffer,Alphabet&#45;Alphabet)</title>
<!-- dot_dummyinit_1 -->
<g id="node1" class="node">
<title>dot_dummyinit_1</title>
</g>
<!-- E -->
<g id="node2" class="node">
<title>E</title>
<ellipse fill="none" stroke="black" cx="59.72" cy="-23.7" rx="18" ry="18"/>
<ellipse fill="none" stroke="black" cx="59.72" cy="-23.7" rx="22" ry="22"/>
<text text-anchor="middle" x="59.72" y="-18.27" font-family="Arial" font-size="14.00">E</text>
</g>
<!-- dot_dummyinit_1&#45;&gt;E -->
<g id="edge1" class="edge">
<title>dot_dummyinit_1&#45;&gt;E</title>
<path fill="none" stroke="black" d="M0.89,-23.7C2.38,-23.7 13.74,-23.7 26,-23.7"/>
<polygon fill="black" stroke="black" points="25.74,-27.2 35.74,-23.7 25.74,-20.2 25.74,-27.2"/>
</g>
<!-- E&#45;&gt;E -->
<g id="edge2" class="edge">
<title>E&#45;&gt;E</title>
<path fill="none" stroke="black" d="M55.98,-45.51C55.63,-55.26 56.87,-63.7 59.72,-63.7 61.32,-63.7 62.42,-61.03 63,-56.96"/>
<polygon fill="black" stroke="black" points="66.5,-57.15 63.4,-47.02 59.51,-56.87 66.5,-57.15"/>
<text text-anchor="middle" x="59.72" y="-66.15" font-family="Arial" font-size="14.00">alpha_1</text>
</g>
<!-- E&#45;&gt;E -->
<g id="edge4" class="edge">
<title>E&#45;&gt;E</title>
<path fill="none" stroke="black" d="M53.28,-45.11C50.53,-63 52.68,-81.7 59.72,-81.7 65.28,-81.7 67.78,-70.06 67.24,-56.36"/>
<polygon fill="black" stroke="black" points="70.75,-56.24 66.3,-46.62 63.78,-56.91 70.75,-56.24"/>
<text text-anchor="middle" x="59.72" y="-84.15" font-family="Arial" font-size="14.00">beta_2</text>
</g>
<!-- F -->
<g id="node3" class="node">
<title>F</title>
<ellipse fill="none" stroke="black" cx="183.72" cy="-23.7" rx="18" ry="18"/>
<text text-anchor="middle" x="183.72" y="-18.27" font-family="Arial" font-size="14.00">F</text>
</g>
<!-- E&#45;&gt;F -->
<g id="edge3" class="edge">
<title>E&#45;&gt;F</title>
<path fill="none" stroke="black" d="M81.97,-23.7C101.9,-23.7 131.86,-23.7 153.93,-23.7"/>
<polygon fill="black" stroke="black" points="153.75,-27.2 163.75,-23.7 153.75,-20.2 153.75,-27.2"/>
<text text-anchor="middle" x="123.72" y="-26.15" font-family="Arial" font-size="14.00">beta_1</text>
</g>
<!-- F&#45;&gt;E -->
<g id="edge6" class="edge">
<title>F&#45;&gt;E</title>
<path fill="none" stroke="black" d="M168.46,-13.45C162.38,-9.68 155.01,-5.86 147.72,-3.95 127.09,1.47 120.47,1.01 99.72,-3.95 96.1,-4.81 92.44,-6.07 88.89,-7.54"/>
<polygon fill="black" stroke="black" points="87.58,-4.28 80.05,-11.74 90.58,-10.6 87.58,-4.28"/>
<text text-anchor="middle" x="123.72" y="-6.4" font-family="Arial" font-size="14.00">alpha_2</text>
</g>
<!-- F&#45;&gt;F -->
<g id="edge5" class="edge">
<title>F&#45;&gt;F</title>
<path fill="none" stroke="black" d="M178.36,-41.11C177.36,-50.79 179.15,-59.7 183.72,-59.7 186.36,-59.7 188.07,-56.72 188.85,-52.34"/>
<polygon fill="black" stroke="black" points="192.35,-52.69 189.05,-42.62 185.35,-52.55 192.35,-52.69"/>
<text text-anchor="middle" x="183.72" y="-62.15" font-family="Arial" font-size="14.00">alpha_1</text>
</g>
<!-- F&#45;&gt;F -->
<g id="edge7" class="edge">
<title>F&#45;&gt;F</title>
<path fill="none" stroke="black" d="M175.2,-40.01C169.69,-57.66 172.53,-77.7 183.72,-77.7 192.64,-77.7 196.25,-64.97 194.57,-50.87"/>
<polygon fill="black" stroke="black" points="198.07,-50.53 192.56,-41.49 191.23,-52 198.07,-50.53"/>
<text text-anchor="middle" x="183.72" y="-80.15" font-family="Arial" font-size="14.00">beta_2</text>
</g>
</g>
</svg>
