<?xml version="1.0" encoding="UTF-8" standalone="no"?>
<!DOCTYPE svg PUBLIC "-//W3C//DTD SVG 1.0//EN"
 "http://www.w3.org/TR/2001/REC-SVG-20010904/DTD/svg10.dtd" [
 <!ATTLIST svg xmlns:xlink CDATA #FIXED "http://www.w3.org/1999/xlink">
]>
<!-- Generated by Graphviz version 2.20.2 (Tue Mar &#160;2 21:46:26 UTC 2010)
     For user: (mtmoor) Prof. Thomas Moor -->
<!-- Title: OmegaSupConNB((A&#45;B&#45;Machine&#45;B&#45;Exhausts),(A&#45;B&#45;Spec&#45;Eventually&#45;B)) [minstate] Pages: 1 -->
<svg width="420pt" height="168pt"
 viewBox="0.00 0.00 420.00 168.00" xmlns="http://www.w3.org/2000/svg" xmlns:xlink="http://www.w3.org/1999/xlink">
<g id="graph0" class="graph" transform="scale(1 1) rotate(0) translate(4 164)">
<title>OmegaSupConNB((A&#45;B&#45;Machine&#45;B&#45;Exhausts),(A&#45;B&#45;Spec&#45;Eventually&#45;B)) [minstate]</title>
<polygon style="fill:none;stroke:none;" points="-4,4 -4,-164 416,-164 416,4 -4,4"/>
<!-- dot_dummyinit_1 -->
<g id="node1" class="node"><title>dot_dummyinit_1</title>
</g>
<!-- 1 -->
<g id="node3" class="node"><title>1</title>
<ellipse style="fill:none;stroke:black;" cx="58" cy="-45" rx="18" ry="18"/>
<text text-anchor="middle" x="58" y="-40.9" style="font-family:Times New Roman;font-size:14.00;">1</text>
</g>
<!-- dot_dummyinit_1&#45;&gt;1 -->
<g id="edge2" class="edge"><title>dot_dummyinit_1&#45;&gt;1</title>
<path style="fill:none;stroke:black;" d="M2,-45C6,-45 18,-45 30,-45"/>
<polygon style="fill:black;stroke:black;" points="30,-48.5001 40,-45 30,-41.5001 30,-48.5001"/>
</g>
<!-- 2 -->
<g id="node4" class="node"><title>2</title>
<ellipse style="fill:none;stroke:black;" cx="142" cy="-115" rx="18" ry="18"/>
<ellipse style="fill:none;stroke:black;" cx="142" cy="-115" rx="22" ry="22"/>
<text text-anchor="middle" x="142" y="-110.9" style="font-family:Times New Roman;font-size:14.00;">2</text>
</g>
<!-- 1&#45;&gt;2 -->
<g id="edge6" class="edge"><title>1&#45;&gt;2</title>
<path style="fill:none;stroke:black;" d="M71,-58C78,-64 86,-72 94,-79 101,-85 109,-91 116,-96"/>
<polygon style="fill:black;stroke:black;" points="113.9,-98.8 124,-102 118.1,-93.2 113.9,-98.8"/>
<text text-anchor="middle" x="98" y="-85.9" style="font-family:Times New Roman;font-size:14.00;">b</text>
</g>
<!-- 3 -->
<g id="node6" class="node"><title>3</title>
<ellipse style="fill:none;stroke:black;" cx="310" cy="-45" rx="18" ry="18"/>
<text text-anchor="middle" x="310" y="-40.9" style="font-family:Times New Roman;font-size:14.00;">3</text>
</g>
<!-- 1&#45;&gt;3 -->
<g id="edge4" class="edge"><title>1&#45;&gt;3</title>
<path style="fill:none;stroke:black;" d="M76,-45C120,-45 229,-45 282,-45"/>
<polygon style="fill:black;stroke:black;" points="282,-48.5001 292,-45 282,-41.5001 282,-48.5001"/>
<text text-anchor="middle" x="186" y="-48.9" style="font-family:Times New Roman;font-size:14.00;">a</text>
</g>
<!-- 6 -->
<g id="node8" class="node"><title>6</title>
<ellipse style="fill:none;stroke:black;" cx="226" cy="-115" rx="18" ry="18"/>
<text text-anchor="middle" x="226" y="-110.9" style="font-family:Times New Roman;font-size:14.00;">6</text>
</g>
<!-- 2&#45;&gt;6 -->
<g id="edge8" class="edge"><title>2&#45;&gt;6</title>
<path style="fill:none;stroke:black;" d="M164,-115C175,-115 187,-115 198,-115"/>
<polygon style="fill:black;stroke:black;" points="198,-118.5 208,-115 198,-111.5 198,-118.5"/>
<text text-anchor="middle" x="186" y="-118.9" style="font-family:Times New Roman;font-size:14.00;">c</text>
</g>
<!-- 4 -->
<g id="node5" class="node"><title>4</title>
<ellipse style="fill:none;stroke:black;" cx="310" cy="-138" rx="18" ry="18"/>
<ellipse style="fill:none;stroke:black;" cx="310" cy="-138" rx="22" ry="22"/>
<text text-anchor="middle" x="310" y="-133.9" style="font-family:Times New Roman;font-size:14.00;">4</text>
</g>
<!-- 5 -->
<g id="node7" class="node"><title>5</title>
<ellipse style="fill:none;stroke:black;" cx="394" cy="-138" rx="18" ry="18"/>
<text text-anchor="middle" x="394" y="-133.9" style="font-family:Times New Roman;font-size:14.00;">5</text>
</g>
<!-- 4&#45;&gt;5 -->
<g id="edge14" class="edge"><title>4&#45;&gt;5</title>
<path style="fill:none;stroke:black;" d="M332,-138C343,-138 355,-138 366,-138"/>
<polygon style="fill:black;stroke:black;" points="366,-141.5 376,-138 366,-134.5 366,-141.5"/>
<text text-anchor="middle" x="354" y="-141.9" style="font-family:Times New Roman;font-size:14.00;">d</text>
</g>
<!-- 3&#45;&gt;1 -->
<g id="edge10" class="edge"><title>3&#45;&gt;1</title>
<path style="fill:none;stroke:black;" d="M292,-41C269,-35 227,-27 190,-24 154,-20 112,-29 85,-36"/>
<polygon style="fill:black;stroke:black;" points="83.5725,-32.7741 75,-39 85.584,-39.4788 83.5725,-32.7741"/>
<text text-anchor="middle" x="186" y="-27.9" style="font-family:Times New Roman;font-size:14.00;">c</text>
</g>
<!-- 3&#45;&gt;1 -->
<g id="edge12" class="edge"><title>3&#45;&gt;1</title>
<path style="fill:none;stroke:black;" d="M294,-37C272,-25 229,-6 190,-0 151,6 108,-14 82,-29"/>
<polygon style="fill:black;stroke:black;" points="79.3791,-26.5408 73,-35 83.262,-32.3651 79.3791,-26.5408"/>
<text text-anchor="middle" x="186" y="-3.9" style="font-family:Times New Roman;font-size:14.00;">d</text>
</g>
<!-- 5&#45;&gt;4 -->
<g id="edge16" class="edge"><title>5&#45;&gt;4</title>
<path style="fill:none;stroke:black;" d="M379,-127C373,-123 366,-119 358,-117 351,-115 343,-116 336,-119"/>
<polygon style="fill:black;stroke:black;" points="334.042,-116.084 327,-124 337.441,-122.203 334.042,-116.084"/>
<text text-anchor="middle" x="354" y="-120.9" style="font-family:Times New Roman;font-size:14.00;">b</text>
</g>
<!-- 6&#45;&gt;4 -->
<g id="edge20" class="edge"><title>6&#45;&gt;4</title>
<path style="fill:none;stroke:black;" d="M243,-120C253,-123 267,-127 279,-130"/>
<polygon style="fill:black;stroke:black;" points="278.508,-133.471 289,-132 279.881,-126.607 278.508,-133.471"/>
<text text-anchor="middle" x="266" y="-129.9" style="font-family:Times New Roman;font-size:14.00;">b</text>
</g>
<!-- 6&#45;&gt;3 -->
<g id="edge18" class="edge"><title>6&#45;&gt;3</title>
<path style="fill:none;stroke:black;" d="M240,-103C253,-93 273,-76 288,-64"/>
<polygon style="fill:black;stroke:black;" points="290.779,-66.2191 296,-57 286.169,-60.9511 290.779,-66.2191"/>
<text text-anchor="middle" x="266" y="-88.9" style="font-family:Times New Roman;font-size:14.00;">a</text>
</g>
</g>
</svg>
