<?xml version="1.0" encoding="UTF-8" standalone="no"?>
<!DOCTYPE svg PUBLIC "-//W3C//DTD SVG 1.1//EN"
 "http://www.w3.org/Graphics/SVG/1.1/DTD/svg11.dtd">
<!-- Generated by graphviz version 12.2.1 (20241206.2353)
 -->
<!-- Title: Plant B Pages: 1 -->
<svg width="390pt" height="144pt"
 viewBox="0.00 0.00 390.23 144.25" xmlns="http://www.w3.org/2000/svg" xmlns:xlink="http://www.w3.org/1999/xlink">
<g id="graph0" class="graph" transform="scale(1 1) rotate(0) translate(4 140.25)">
<title>Plant B</title>
<!-- dot_dummyinit_1 -->
<g id="node1" class="node">
<title>dot_dummyinit_1</title>
</g>
<!-- s0 -->
<g id="node2" class="node">
<title>s0</title>
<ellipse fill="none" stroke="black" cx="61.85" cy="-24.13" rx="20.13" ry="20.13"/>
<ellipse fill="none" stroke="black" cx="61.85" cy="-24.13" rx="24.13" ry="24.13"/>
<text text-anchor="middle" x="61.85" y="-18.7" font-family="Arial" font-size="14.00">s0</text>
</g>
<!-- dot_dummyinit_1&#45;&gt;s0 -->
<g id="edge1" class="edge">
<title>dot_dummyinit_1&#45;&gt;s0</title>
<path fill="none" stroke="black" d="M0.76,-24.13C1.56,-24.13 13.19,-24.13 26.01,-24.13"/>
<polygon fill="black" stroke="black" points="25.82,-27.63 35.82,-24.13 25.82,-20.63 25.82,-27.63"/>
</g>
<!-- s2 -->
<g id="node3" class="node">
<title>s2</title>
<ellipse fill="none" stroke="black" cx="164.6" cy="-71.13" rx="20.13" ry="20.13"/>
<text text-anchor="middle" x="164.6" y="-65.7" font-family="Arial" font-size="14.00">s2</text>
</g>
<!-- s0&#45;&gt;s2 -->
<g id="edge2" class="edge">
<title>s0&#45;&gt;s2</title>
<path fill="none" stroke="black" d="M84.21,-34.09C99.28,-41.12 119.6,-50.6 135.91,-58.21"/>
<polygon fill="black" stroke="black" points="134.04,-61.2 144.58,-62.26 137,-54.86 134.04,-61.2"/>
<text text-anchor="middle" x="115.22" y="-55.67" font-family="Arial" font-size="14.00">e51</text>
</g>
<!-- s5 -->
<g id="node4" class="node">
<title>s5</title>
<ellipse fill="none" stroke="black" cx="263.35" cy="-116.13" rx="20.13" ry="20.13"/>
<text text-anchor="middle" x="263.35" y="-110.7" font-family="Arial" font-size="14.00">s5</text>
</g>
<!-- s2&#45;&gt;s5 -->
<g id="edge3" class="edge">
<title>s2&#45;&gt;s5</title>
<path fill="none" stroke="black" d="M177.73,-86.76C184.31,-94.14 193.07,-102.34 202.72,-107.13 211.6,-111.52 222.05,-113.9 231.7,-115.14"/>
<polygon fill="black" stroke="black" points="231.14,-118.61 241.42,-116.03 231.78,-111.64 231.14,-118.61"/>
<text text-anchor="middle" x="213.97" y="-116.48" font-family="Arial" font-size="14.00">e55</text>
</g>
<!-- s4 -->
<g id="node5" class="node">
<title>s4</title>
<ellipse fill="none" stroke="black" cx="263.35" cy="-56.13" rx="20.13" ry="20.13"/>
<text text-anchor="middle" x="263.35" y="-50.7" font-family="Arial" font-size="14.00">s4</text>
</g>
<!-- s2&#45;&gt;s4 -->
<g id="edge4" class="edge">
<title>s2&#45;&gt;s4</title>
<path fill="none" stroke="black" d="M181.96,-60.79C188.21,-57.41 195.56,-54.08 202.72,-52.38 212.09,-50.15 222.5,-50.03 231.97,-50.78"/>
<polygon fill="black" stroke="black" points="231.47,-54.24 241.81,-51.93 232.28,-47.29 231.47,-54.24"/>
<text text-anchor="middle" x="213.97" y="-54.83" font-family="Arial" font-size="14.00">e52</text>
</g>
<!-- s5&#45;&gt;s2 -->
<g id="edge5" class="edge">
<title>s5&#45;&gt;s2</title>
<path fill="none" stroke="black" d="M248.08,-102.94C241.52,-97.46 233.4,-91.45 225.22,-87.38 216.15,-82.85 205.64,-79.45 196,-76.96"/>
<polygon fill="black" stroke="black" points="196.83,-73.56 186.3,-74.71 195.24,-80.38 196.83,-73.56"/>
<text text-anchor="middle" x="213.97" y="-89.83" font-family="Arial" font-size="14.00">e51</text>
</g>
<!-- s8 -->
<g id="node6" class="node">
<title>s8</title>
<ellipse fill="none" stroke="black" cx="362.1" cy="-67.13" rx="20.13" ry="20.13"/>
<text text-anchor="middle" x="362.1" y="-61.7" font-family="Arial" font-size="14.00">s8</text>
</g>
<!-- s5&#45;&gt;s8 -->
<g id="edge6" class="edge">
<title>s5&#45;&gt;s8</title>
<path fill="none" stroke="black" d="M283.84,-115.06C295.98,-113.73 311.59,-110.75 323.98,-104.13 330.15,-100.83 335.96,-96.17 341.07,-91.27"/>
<polygon fill="black" stroke="black" points="343.55,-93.75 347.91,-84.09 338.48,-88.92 343.55,-93.75"/>
<text text-anchor="middle" x="312.73" y="-114.42" font-family="Arial" font-size="14.00">e53</text>
</g>
<!-- s4&#45;&gt;s8 -->
<g id="edge7" class="edge">
<title>s4&#45;&gt;s8</title>
<path fill="none" stroke="black" d="M283.06,-50.83C294.9,-48.25 310.46,-46.31 323.98,-49.38 327.35,-50.14 330.78,-51.25 334.12,-52.55"/>
<polygon fill="black" stroke="black" points="332.37,-55.6 342.93,-56.52 335.25,-49.22 332.37,-55.6"/>
<text text-anchor="middle" x="312.73" y="-51.83" font-family="Arial" font-size="14.00">e53</text>
</g>
<!-- s8&#45;&gt;s0 -->
<g id="edge9" class="edge">
<title>s8&#45;&gt;s0</title>
<path fill="none" stroke="black" d="M345.13,-55.6C330.09,-45.57 306.48,-31.92 283.48,-27.13 218.86,-13.66 141.28,-16.96 97.46,-20.56"/>
<polygon fill="black" stroke="black" points="97.19,-17.07 87.54,-21.44 97.81,-24.04 97.19,-17.07"/>
<text text-anchor="middle" x="213.97" y="-21.58" font-family="Arial" font-size="14.00">e54</text>
</g>
<!-- s8&#45;&gt;s5 -->
<g id="edge8" class="edge">
<title>s8&#45;&gt;s5</title>
<path fill="none" stroke="black" d="M341.77,-70.53C329.69,-73.18 314.09,-77.57 301.48,-84.38 296.29,-87.17 291.19,-90.79 286.5,-94.58"/>
<polygon fill="black" stroke="black" points="284.48,-91.69 279.23,-100.9 289.07,-96.97 284.48,-91.69"/>
<text text-anchor="middle" x="312.73" y="-86.83" font-family="Arial" font-size="14.00">e57</text>
</g>
</g>
</svg>
