<?xml version="1.0" encoding="UTF-8" standalone="no"?>
<!DOCTYPE svg PUBLIC "-//W3C//DTD SVG 1.0//EN"
 "http://www.w3.org/TR/2001/REC-SVG-20010904/DTD/svg10.dtd" [
 <!ATTLIST svg xmlns:xlink CDATA #FIXED "http://www.w3.org/1999/xlink">
]>
<!-- Generated by Graphviz version 2.20.2 (Tue Mar &#160;2 21:46:26 UTC 2010)
     For user: (mtmoor) Prof. Thomas Moor -->
<!-- Title: plant Pages: 1 -->
<svg width="608pt" height="146pt"
 viewBox="0.00 0.00 608.00 146.00" xmlns="http://www.w3.org/2000/svg" xmlns:xlink="http://www.w3.org/1999/xlink">
<g id="graph0" class="graph" transform="scale(1 1) rotate(0) translate(4 142)">
<title>plant</title>
<polygon style="fill:none;stroke:none;" points="-4,4 -4,-142 604,-142 604,4 -4,4"/>
<!-- dot_dummyinit_1 -->
<g id="node1" class="node"><title>dot_dummyinit_1</title>
</g>
<!-- 1 -->
<g id="node3" class="node"><title>1</title>
<ellipse style="fill:none;stroke:black;" cx="58" cy="-45" rx="18" ry="18"/>
<text text-anchor="middle" x="58" y="-40.9" style="font-family:Times New Roman;font-size:14.00;">1</text>
</g>
<!-- dot_dummyinit_1&#45;&gt;1 -->
<g id="edge2" class="edge"><title>dot_dummyinit_1&#45;&gt;1</title>
<path style="fill:none;stroke:black;" d="M2,-45C6,-45 18,-45 30,-45"/>
<polygon style="fill:black;stroke:black;" points="30,-48.5001 40,-45 30,-41.5001 30,-48.5001"/>
</g>
<!-- 2 -->
<g id="node4" class="node"><title>2</title>
<ellipse style="fill:none;stroke:black;" cx="182" cy="-95" rx="18" ry="18"/>
<ellipse style="fill:none;stroke:black;" cx="182" cy="-95" rx="22" ry="22"/>
<text text-anchor="middle" x="182" y="-90.9" style="font-family:Times New Roman;font-size:14.00;">2</text>
</g>
<!-- 1&#45;&gt;2 -->
<g id="edge4" class="edge"><title>1&#45;&gt;2</title>
<path style="fill:none;stroke:black;" d="M75,-52C95,-60 128,-73 153,-83"/>
<polygon style="fill:black;stroke:black;" points="151.44,-86.1369 162,-87 154.283,-79.7402 151.44,-86.1369"/>
<text text-anchor="middle" x="118" y="-80.9" style="font-family:Times New Roman;font-size:14.00;">alpha0</text>
</g>
<!-- 5 -->
<g id="node7" class="node"><title>5</title>
<ellipse style="fill:none;stroke:black;" cx="448" cy="-53" rx="18" ry="18"/>
<ellipse style="fill:none;stroke:black;" cx="448" cy="-53" rx="22" ry="22"/>
<text text-anchor="middle" x="448" y="-48.9" style="font-family:Times New Roman;font-size:14.00;">5</text>
</g>
<!-- 1&#45;&gt;5 -->
<g id="edge8" class="edge"><title>1&#45;&gt;5</title>
<path style="fill:none;stroke:black;" d="M76,-45C137,-47 337,-51 416,-53"/>
<polygon style="fill:black;stroke:black;" points="416,-56.5001 426,-53 416,-49.5001 416,-56.5001"/>
<text text-anchor="middle" x="247" y="-52.9" style="font-family:Times New Roman;font-size:14.00;">beta02</text>
</g>
<!-- 6 -->
<g id="node8" class="node"><title>6</title>
<ellipse style="fill:none;stroke:black;" cx="578" cy="-37" rx="18" ry="18"/>
<ellipse style="fill:none;stroke:black;" cx="578" cy="-37" rx="22" ry="22"/>
<text text-anchor="middle" x="578" y="-32.9" style="font-family:Times New Roman;font-size:14.00;">6</text>
</g>
<!-- 1&#45;&gt;6 -->
<g id="edge6" class="edge"><title>1&#45;&gt;6</title>
<path style="fill:none;stroke:black;" d="M74,-36C96,-23 141,-1 182,-0 182,-0 182,-0 448,-0 484,-1 523,-13 548,-24"/>
<polygon style="fill:black;stroke:black;" points="547.415,-27.5357 558,-28 550.015,-21.0364 547.415,-27.5357"/>
<text text-anchor="middle" x="315" y="-4.9" style="font-family:Times New Roman;font-size:14.00;">beta03</text>
</g>
<!-- 3 -->
<g id="node5" class="node"><title>3</title>
<ellipse style="fill:none;stroke:black;" cx="315" cy="-95" rx="18" ry="18"/>
<ellipse style="fill:none;stroke:black;" cx="315" cy="-95" rx="22" ry="22"/>
<text text-anchor="middle" x="315" y="-90.9" style="font-family:Times New Roman;font-size:14.00;">3</text>
</g>
<!-- 2&#45;&gt;3 -->
<g id="edge10" class="edge"><title>2&#45;&gt;3</title>
<path style="fill:none;stroke:black;" d="M204,-95C226,-95 258,-95 283,-95"/>
<polygon style="fill:black;stroke:black;" points="283,-98.5001 293,-95 283,-91.5001 283,-98.5001"/>
<text text-anchor="middle" x="247" y="-98.9" style="font-family:Times New Roman;font-size:14.00;">alpha1</text>
</g>
<!-- 4 -->
<g id="node6" class="node"><title>4</title>
<ellipse style="fill:none;stroke:black;" cx="448" cy="-116" rx="18" ry="18"/>
<ellipse style="fill:none;stroke:black;" cx="448" cy="-116" rx="22" ry="22"/>
<text text-anchor="middle" x="448" y="-111.9" style="font-family:Times New Roman;font-size:14.00;">4</text>
</g>
<!-- 3&#45;&gt;4 -->
<g id="edge12" class="edge"><title>3&#45;&gt;4</title>
<path style="fill:none;stroke:black;" d="M337,-98C359,-102 391,-107 416,-110"/>
<polygon style="fill:black;stroke:black;" points="415.508,-113.471 426,-112 416.881,-106.607 415.508,-113.471"/>
<text text-anchor="middle" x="383" y="-111.9" style="font-family:Times New Roman;font-size:14.00;">alpha2</text>
</g>
<!-- 3&#45;&gt;5 -->
<g id="edge14" class="edge"><title>3&#45;&gt;5</title>
<path style="fill:none;stroke:black;" d="M336,-87C343,-84 351,-81 358,-79 377,-72 399,-66 417,-61"/>
<polygon style="fill:black;stroke:black;" points="418.427,-64.2259 427,-58 416.416,-57.5212 418.427,-64.2259"/>
<text text-anchor="middle" x="383" y="-82.9" style="font-family:Times New Roman;font-size:14.00;">beta02</text>
</g>
<!-- 4&#45;&gt;6 -->
<g id="edge16" class="edge"><title>4&#45;&gt;6</title>
<path style="fill:none;stroke:black;" d="M467,-105C489,-92 525,-70 550,-54"/>
<polygon style="fill:black;stroke:black;" points="551.958,-56.916 559,-49 548.559,-50.7969 551.958,-56.916"/>
<text text-anchor="middle" x="513" y="-92.9" style="font-family:Times New Roman;font-size:14.00;">beta03</text>
</g>
</g>
</svg>
