<?xml version="1.0" encoding="UTF-8" standalone="no"?>
<!DOCTYPE svg PUBLIC "-//W3C//DTD SVG 1.0//EN"
 "http://www.w3.org/TR/2001/REC-SVG-20010904/DTD/svg10.dtd" [
 <!ATTLIST svg xmlns:xlink CDATA #FIXED "http://www.w3.org/1999/xlink">
]>
<!-- Generated by Graphviz version 2.20.2 (Tue Mar &#160;2 21:46:26 UTC 2010)
     For user: (mtmoor) Prof. Thomas Moor -->
<!-- Title: A&#45;B&#45;Machine Pages: 1 -->
<svg width="432pt" height="143pt"
 viewBox="0.00 0.00 432.00 143.00" xmlns="http://www.w3.org/2000/svg" xmlns:xlink="http://www.w3.org/1999/xlink">
<g id="graph0" class="graph" transform="scale(1 1) rotate(0) translate(4 139)">
<title>A&#45;B&#45;Machine</title>
<polygon style="fill:none;stroke:none;" points="-4,4 -4,-139 428,-139 428,4 -4,4"/>
<!-- dot_dummyinit_1 -->
<g id="node1" class="node"><title>dot_dummyinit_1</title>
</g>
<!-- I -->
<g id="node3" class="node"><title>I</title>
<ellipse style="fill:none;stroke:black;" cx="62" cy="-55" rx="18" ry="18"/>
<ellipse style="fill:none;stroke:black;" cx="62" cy="-55" rx="22" ry="22"/>
<text text-anchor="middle" x="62" y="-50.9" style="font-family:Times New Roman;font-size:14.00;">I</text>
</g>
<!-- dot_dummyinit_1&#45;&gt;I -->
<g id="edge2" class="edge"><title>dot_dummyinit_1&#45;&gt;I</title>
<path style="fill:none;stroke:black;" d="M2,-55C5,-55 17,-55 30,-55"/>
<polygon style="fill:black;stroke:black;" points="30,-58.5001 40,-55 30,-51.5001 30,-58.5001"/>
</g>
<!-- A -->
<g id="node4" class="node"><title>A</title>
<ellipse style="fill:none;stroke:black;" cx="146" cy="-112" rx="18.0669" ry="18.0669"/>
<text text-anchor="middle" x="146" y="-107.9" style="font-family:Times New Roman;font-size:14.00;">A</text>
</g>
<!-- I&#45;&gt;A -->
<g id="edge4" class="edge"><title>I&#45;&gt;A</title>
<path style="fill:none;stroke:black;" d="M78,-70C85,-77 94,-84 102,-90 108,-94 114,-97 120,-100"/>
<polygon style="fill:black;stroke:black;" points="118.559,-103.203 129,-105 121.958,-97.084 118.559,-103.203"/>
<text text-anchor="middle" x="106" y="-96.9" style="font-family:Times New Roman;font-size:14.00;">a</text>
</g>
<!-- B -->
<g id="node5" class="node"><title>B</title>
<ellipse style="fill:none;stroke:black;" cx="316" cy="-59" rx="18.0669" ry="18.0669"/>
<text text-anchor="middle" x="316" y="-54.9" style="font-family:Times New Roman;font-size:14.00;">B</text>
</g>
<!-- I&#45;&gt;B -->
<g id="edge6" class="edge"><title>I&#45;&gt;B</title>
<path style="fill:none;stroke:black;" d="M79,-41C103,-23 148,6 190,-0 232,-6 244,-5 280,-25 287,-28 293,-33 298,-38"/>
<polygon style="fill:black;stroke:black;" points="295.454,-40.4038 305,-45 300.404,-35.454 295.454,-40.4038"/>
<text text-anchor="middle" x="186" y="-4.9" style="font-family:Times New Roman;font-size:14.00;">b</text>
</g>
<!-- A&#45;&gt;I -->
<g id="edge8" class="edge"><title>A&#45;&gt;I</title>
<path style="fill:none;stroke:black;" d="M137,-96C131,-85 122,-73 110,-66 105,-63 100,-61 94,-59"/>
<polygon style="fill:black;stroke:black;" points="94.4922,-55.5292 84,-57 93.1194,-62.3933 94.4922,-55.5292"/>
<text text-anchor="middle" x="106" y="-69.9" style="font-family:Times New Roman;font-size:14.00;">c</text>
</g>
<!-- FA -->
<g id="node6" class="node"><title>FA</title>
<ellipse style="fill:none;stroke:black;" cx="231" cy="-90" rx="22.9311" ry="22.9311"/>
<text text-anchor="middle" x="231" y="-85.9" style="font-family:Times New Roman;font-size:14.00;">FA</text>
</g>
<!-- A&#45;&gt;FA -->
<g id="edge10" class="edge"><title>A&#45;&gt;FA</title>
<path style="fill:none;stroke:black;" d="M157,-98C164,-91 172,-83 182,-80 188,-78 194,-78 200,-78"/>
<polygon style="fill:black;stroke:black;" points="199.508,-81.4708 210,-80 200.881,-74.6067 199.508,-81.4708"/>
<text text-anchor="middle" x="186" y="-83.9" style="font-family:Times New Roman;font-size:14.00;">d</text>
</g>
<!-- B&#45;&gt;I -->
<g id="edge12" class="edge"><title>B&#45;&gt;I</title>
<path style="fill:none;stroke:black;" d="M298,-58C274,-57 229,-56 190,-56 157,-55 120,-55 94,-55"/>
<polygon style="fill:black;stroke:black;" points="94,-51.5001 84,-55 94,-58.5001 94,-51.5001"/>
<text text-anchor="middle" x="186" y="-59.9" style="font-family:Times New Roman;font-size:14.00;">c</text>
</g>
<!-- FB -->
<g id="node7" class="node"><title>FB</title>
<ellipse style="fill:none;stroke:black;" cx="401" cy="-99" rx="23.1233" ry="23.1233"/>
<text text-anchor="middle" x="401" y="-94.9" style="font-family:Times New Roman;font-size:14.00;">FB</text>
</g>
<!-- B&#45;&gt;FB -->
<g id="edge14" class="edge"><title>B&#45;&gt;FB</title>
<path style="fill:none;stroke:black;" d="M332,-67C338,-70 345,-74 352,-77 358,-80 364,-83 370,-85"/>
<polygon style="fill:black;stroke:black;" points="369.415,-88.5357 380,-89 372.015,-82.0364 369.415,-88.5357"/>
<text text-anchor="middle" x="356" y="-80.9" style="font-family:Times New Roman;font-size:14.00;">d</text>
</g>
<!-- FA&#45;&gt;A -->
<g id="edge16" class="edge"><title>FA&#45;&gt;A</title>
<path style="fill:none;stroke:black;" d="M208,-96C198,-98 185,-102 174,-105"/>
<polygon style="fill:black;stroke:black;" points="173.119,-101.607 164,-107 174.492,-108.471 173.119,-101.607"/>
<text text-anchor="middle" x="186" y="-105.9" style="font-family:Times New Roman;font-size:14.00;">a</text>
</g>
<!-- FA&#45;&gt;B -->
<g id="edge18" class="edge"><title>FA&#45;&gt;B</title>
<path style="fill:none;stroke:black;" d="M253,-82C264,-78 278,-73 289,-69"/>
<polygon style="fill:black;stroke:black;" points="291.015,-71.9636 299,-65 288.415,-65.4643 291.015,-71.9636"/>
<text text-anchor="middle" x="276" y="-77.9" style="font-family:Times New Roman;font-size:14.00;">b</text>
</g>
<!-- FB&#45;&gt;A -->
<g id="edge20" class="edge"><title>FB&#45;&gt;A</title>
<path style="fill:none;stroke:black;" d="M378,-104C349,-109 298,-118 254,-122 226,-124 219,-122 190,-123 187,-123 186,-123 182,-123 179,-123 176,-122 173,-121"/>
<polygon style="fill:black;stroke:black;" points="173.584,-117.521 163,-118 171.573,-124.226 173.584,-117.521"/>
<text text-anchor="middle" x="276" y="-122.9" style="font-family:Times New Roman;font-size:14.00;">a</text>
</g>
<!-- FB&#45;&gt;B -->
<g id="edge22" class="edge"><title>FB&#45;&gt;B</title>
<path style="fill:none;stroke:black;" d="M389,-79C382,-69 372,-58 360,-53 355,-51 349,-50 343,-50"/>
<polygon style="fill:black;stroke:black;" points="342.119,-46.6067 333,-52 343.492,-53.4708 342.119,-46.6067"/>
<text text-anchor="middle" x="356" y="-56.9" style="font-family:Times New Roman;font-size:14.00;">b</text>
</g>
</g>
</svg>
