<?xml version="1.0" encoding="UTF-8" standalone="no"?>
<!DOCTYPE svg PUBLIC "-//W3C//DTD SVG 1.1//EN"
 "http://www.w3.org/Graphics/SVG/1.1/DTD/svg11.dtd">
<!-- Generated by graphviz version 12.2.1 (20241206.2353)
 -->
<!-- Title: L Pages: 1 -->
<svg width="188pt" height="86pt"
 viewBox="0.00 0.00 187.97 85.75" xmlns="http://www.w3.org/2000/svg" xmlns:xlink="http://www.w3.org/1999/xlink">
<g id="graph0" class="graph" transform="scale(1 1) rotate(0) translate(4 81.75)">
<title>L</title>
<!-- dot_dummyinit_1 -->
<g id="node1" class="node">
<title>dot_dummyinit_1</title>
</g>
<!-- 1 -->
<g id="node2" class="node">
<title>1</title>
<ellipse fill="none" stroke="black" cx="59.72" cy="-22" rx="18" ry="18"/>
<ellipse fill="none" stroke="black" cx="59.72" cy="-22" rx="22" ry="22"/>
<text text-anchor="middle" x="59.72" y="-16.57" font-family="Arial" font-size="14.00">1</text>
</g>
<!-- dot_dummyinit_1&#45;&gt;1 -->
<g id="edge1" class="edge">
<title>dot_dummyinit_1&#45;&gt;1</title>
<path fill="none" stroke="black" d="M0.89,-22C2.38,-22 13.74,-22 26,-22"/>
<polygon fill="black" stroke="black" points="25.74,-25.5 35.74,-22 25.74,-18.5 25.74,-25.5"/>
</g>
<!-- 1&#45;&gt;1 -->
<g id="edge2" class="edge">
<title>1&#45;&gt;1</title>
<path fill="none" stroke="black" d="M52.31,-42.99C51.4,-53.09 53.87,-62 59.72,-62 63.2,-62 65.48,-58.86 66.57,-54.19"/>
<polygon fill="black" stroke="black" points="70.05,-54.66 67.05,-44.5 63.06,-54.31 70.05,-54.66"/>
<text text-anchor="middle" x="59.72" y="-64.45" font-family="Arial" font-size="14.00">alpha</text>
</g>
<!-- 2 -->
<g id="node3" class="node">
<title>2</title>
<ellipse fill="none" stroke="black" cx="161.97" cy="-22" rx="18" ry="18"/>
<text text-anchor="middle" x="161.97" y="-16.57" font-family="Arial" font-size="14.00">2</text>
</g>
<!-- 1&#45;&gt;2 -->
<g id="edge3" class="edge">
<title>1&#45;&gt;2</title>
<path fill="none" stroke="black" d="M81.98,-22C96.64,-22 116.29,-22 132.32,-22"/>
<polygon fill="black" stroke="black" points="132.22,-25.5 142.22,-22 132.22,-18.5 132.22,-25.5"/>
<text text-anchor="middle" x="112.85" y="-24.45" font-family="Arial" font-size="14.00">beta</text>
</g>
<!-- 2&#45;&gt;1 -->
<g id="edge4" class="edge">
<title>2&#45;&gt;1</title>
<path fill="none" stroke="black" d="M146.71,-11.75C140.63,-7.98 133.26,-4.16 125.97,-2.25 114.69,0.71 111.07,0.46 99.72,-2.25 96.1,-3.11 92.44,-4.37 88.89,-5.84"/>
<polygon fill="black" stroke="black" points="87.58,-2.58 80.05,-10.04 90.58,-8.91 87.58,-2.58"/>
<text text-anchor="middle" x="112.85" y="-4.7" font-family="Arial" font-size="14.00">beta</text>
</g>
</g>
</svg>
