<?xml version="1.0" encoding="UTF-8" standalone="no"?>
<!DOCTYPE svg PUBLIC "-//W3C//DTD SVG 1.0//EN"
 "http://www.w3.org/TR/2001/REC-SVG-20010904/DTD/svg10.dtd" [
 <!ATTLIST svg xmlns:xlink CDATA #FIXED "http://www.w3.org/1999/xlink">
]>
<!-- Generated by Graphviz version 2.20.2 (Tue Mar &#160;2 21:46:26 UTC 2010)
     For user: (mtmoor) Prof. Thomas Moor -->
<!-- Title: SupConCmplNB(A&#45;B&#45;Machine, PrefixClosure(A&#45;B&#45;Spec&#45;Alternate|||A&#45;B&#45;Machine)) [minstate] Pages: 1 -->
<svg width="420pt" height="145pt"
 viewBox="0.00 0.00 420.00 145.00" xmlns="http://www.w3.org/2000/svg" xmlns:xlink="http://www.w3.org/1999/xlink">
<g id="graph0" class="graph" transform="scale(1 1) rotate(0) translate(4 141)">
<title>SupConCmplNB(A&#45;B&#45;Machine, PrefixClosure(A&#45;B&#45;Spec&#45;Alternate|||A&#45;B&#45;Machine)) [minstate]</title>
<polygon style="fill:none;stroke:none;" points="-4,4 -4,-141 416,-141 416,4 -4,4"/>
<!-- dot_dummyinit_1 -->
<g id="node1" class="node"><title>dot_dummyinit_1</title>
</g>
<!-- 2 -->
<g id="node3" class="node"><title>2</title>
<ellipse style="fill:none;stroke:black;" cx="62" cy="-22" rx="18" ry="18"/>
<ellipse style="fill:none;stroke:black;" cx="62" cy="-22" rx="22" ry="22"/>
<text text-anchor="middle" x="62" y="-17.9" style="font-family:Times New Roman;font-size:14.00;">2</text>
</g>
<!-- dot_dummyinit_1&#45;&gt;2 -->
<g id="edge2" class="edge"><title>dot_dummyinit_1&#45;&gt;2</title>
<path style="fill:none;stroke:black;" d="M2,-22C5,-22 17,-22 30,-22"/>
<polygon style="fill:black;stroke:black;" points="30,-25.5001 40,-22 30,-18.5001 30,-25.5001"/>
</g>
<!-- 5 -->
<g id="node7" class="node"><title>5</title>
<ellipse style="fill:none;stroke:black;" cx="146" cy="-66" rx="18" ry="18"/>
<text text-anchor="middle" x="146" y="-61.9" style="font-family:Times New Roman;font-size:14.00;">5</text>
</g>
<!-- 2&#45;&gt;5 -->
<g id="edge6" class="edge"><title>2&#45;&gt;5</title>
<path style="fill:none;stroke:black;" d="M82,-32C94,-38 108,-46 121,-52"/>
<polygon style="fill:black;stroke:black;" points="119.559,-55.2031 130,-57 122.958,-49.084 119.559,-55.2031"/>
<text text-anchor="middle" x="106" y="-48.9" style="font-family:Times New Roman;font-size:14.00;">a</text>
</g>
<!-- 4 -->
<g id="node4" class="node"><title>4</title>
<ellipse style="fill:none;stroke:black;" cx="230" cy="-53" rx="18" ry="18"/>
<ellipse style="fill:none;stroke:black;" cx="230" cy="-53" rx="22" ry="22"/>
<text text-anchor="middle" x="230" y="-48.9" style="font-family:Times New Roman;font-size:14.00;">4</text>
</g>
<!-- 6 -->
<g id="node8" class="node"><title>6</title>
<ellipse style="fill:none;stroke:black;" cx="314" cy="-23" rx="18" ry="18"/>
<text text-anchor="middle" x="314" y="-18.9" style="font-family:Times New Roman;font-size:14.00;">6</text>
</g>
<!-- 4&#45;&gt;6 -->
<g id="edge10" class="edge"><title>4&#45;&gt;6</title>
<path style="fill:none;stroke:black;" d="M251,-46C262,-42 276,-37 287,-33"/>
<polygon style="fill:black;stroke:black;" points="289.015,-35.9636 297,-29 286.415,-29.4643 289.015,-35.9636"/>
<text text-anchor="middle" x="274" y="-40.9" style="font-family:Times New Roman;font-size:14.00;">b</text>
</g>
<!-- 1 -->
<g id="node5" class="node"><title>1</title>
<ellipse style="fill:none;stroke:black;" cx="230" cy="-119" rx="18" ry="18"/>
<text text-anchor="middle" x="230" y="-114.9" style="font-family:Times New Roman;font-size:14.00;">1</text>
</g>
<!-- 1&#45;&gt;5 -->
<g id="edge4" class="edge"><title>1&#45;&gt;5</title>
<path style="fill:none;stroke:black;" d="M216,-107C209,-101 199,-94 190,-89 184,-85 177,-81 171,-78"/>
<polygon style="fill:black;stroke:black;" points="172.56,-74.8631 162,-74 169.717,-81.2598 172.56,-74.8631"/>
<text text-anchor="middle" x="186" y="-92.9" style="font-family:Times New Roman;font-size:14.00;">a</text>
</g>
<!-- 3 -->
<g id="node6" class="node"><title>3</title>
<ellipse style="fill:none;stroke:black;" cx="394" cy="-23" rx="18" ry="18"/>
<text text-anchor="middle" x="394" y="-18.9" style="font-family:Times New Roman;font-size:14.00;">3</text>
</g>
<!-- 3&#45;&gt;6 -->
<g id="edge8" class="edge"><title>3&#45;&gt;6</title>
<path style="fill:none;stroke:black;" d="M379,-13C373,-9 365,-6 358,-4 351,-2 344,-4 337,-7"/>
<polygon style="fill:black;stroke:black;" points="335.042,-4.08397 328,-12 338.441,-10.2031 335.042,-4.08397"/>
<text text-anchor="middle" x="354" y="-7.9" style="font-family:Times New Roman;font-size:14.00;">b</text>
</g>
<!-- 5&#45;&gt;4 -->
<g id="edge12" class="edge"><title>5&#45;&gt;4</title>
<path style="fill:none;stroke:black;" d="M162,-56C168,-53 175,-50 182,-49 187,-48 193,-47 198,-47"/>
<polygon style="fill:black;stroke:black;" points="197.701,-50.4875 208,-48 198.398,-43.5222 197.701,-50.4875"/>
<text text-anchor="middle" x="186" y="-52.9" style="font-family:Times New Roman;font-size:14.00;">c</text>
</g>
<!-- 5&#45;&gt;1 -->
<g id="edge14" class="edge"><title>5&#45;&gt;1</title>
<path style="fill:none;stroke:black;" d="M156,-81C163,-90 172,-100 182,-106 188,-109 195,-112 202,-114"/>
<polygon style="fill:black;stroke:black;" points="201.508,-117.471 212,-116 202.881,-110.607 201.508,-117.471"/>
<text text-anchor="middle" x="186" y="-111.9" style="font-family:Times New Roman;font-size:14.00;">d</text>
</g>
<!-- 6&#45;&gt;2 -->
<g id="edge16" class="edge"><title>6&#45;&gt;2</title>
<path style="fill:none;stroke:black;" d="M296,-23C284,-22 267,-22 252,-22 196,-21 132,-22 94,-22"/>
<polygon style="fill:black;stroke:black;" points="94,-18.5001 84,-22 94,-25.5001 94,-18.5001"/>
<text text-anchor="middle" x="186" y="-24.9" style="font-family:Times New Roman;font-size:14.00;">c</text>
</g>
<!-- 6&#45;&gt;3 -->
<g id="edge18" class="edge"><title>6&#45;&gt;3</title>
<path style="fill:none;stroke:black;" d="M332,-23C342,-23 355,-23 366,-23"/>
<polygon style="fill:black;stroke:black;" points="366,-26.5001 376,-23 366,-19.5001 366,-26.5001"/>
<text text-anchor="middle" x="354" y="-26.9" style="font-family:Times New Roman;font-size:14.00;">d</text>
</g>
</g>
</svg>
