<?xml version="1.0" encoding="UTF-8" standalone="no"?>
<!DOCTYPE svg PUBLIC "-//W3C//DTD SVG 1.0//EN"
 "http://www.w3.org/TR/2001/REC-SVG-20010904/DTD/svg10.dtd" [
 <!ATTLIST svg xmlns:xlink CDATA #FIXED "http://www.w3.org/1999/xlink">
]>
<!-- Generated by Graphviz version 2.20.2 (Tue Mar &#160;2 21:46:26 UTC 2010)
     For user: (mtmoor) Prof. Thomas Moor -->
<!-- Title: L Pages: 1 -->
<svg width="196pt" height="89pt"
 viewBox="0.00 0.00 196.00 89.00" xmlns="http://www.w3.org/2000/svg" xmlns:xlink="http://www.w3.org/1999/xlink">
<g id="graph0" class="graph" transform="scale(1 1) rotate(0) translate(4 85)">
<title>L</title>
<polygon style="fill:none;stroke:none;" points="-4,4 -4,-85 192,-85 192,4 -4,4"/>
<!-- dot_dummyinit_1 -->
<g id="node1" class="node"><title>dot_dummyinit_1</title>
</g>
<!-- 1 -->
<g id="node3" class="node"><title>1</title>
<ellipse style="fill:none;stroke:black;" cx="62" cy="-24" rx="18" ry="18"/>
<ellipse style="fill:none;stroke:black;" cx="62" cy="-24" rx="22" ry="22"/>
<text text-anchor="middle" x="62" y="-19.9" style="font-family:Times New Roman;font-size:14.00;">1</text>
</g>
<!-- dot_dummyinit_1&#45;&gt;1 -->
<g id="edge2" class="edge"><title>dot_dummyinit_1&#45;&gt;1</title>
<path style="fill:none;stroke:black;" d="M2,-24C5,-24 17,-24 30,-24"/>
<polygon style="fill:black;stroke:black;" points="30,-27.5001 40,-24 30,-20.5001 30,-27.5001"/>
</g>
<!-- 1&#45;&gt;1 -->
<g id="edge4" class="edge"><title>1&#45;&gt;1</title>
<path style="fill:none;stroke:black;" d="M55,-45C54,-55 56,-64 62,-64 66,-64 68,-60 69,-55"/>
<polygon style="fill:black;stroke:black;" points="72.5001,-55 69,-45 65.5001,-55 72.5001,-55"/>
<text text-anchor="middle" x="62" y="-67.9" style="font-family:Times New Roman;font-size:14.00;">alpha</text>
</g>
<!-- 2 -->
<g id="node4" class="node"><title>2</title>
<ellipse style="fill:none;stroke:black;" cx="170" cy="-24" rx="18" ry="18"/>
<text text-anchor="middle" x="170" y="-19.9" style="font-family:Times New Roman;font-size:14.00;">2</text>
</g>
<!-- 1&#45;&gt;2 -->
<g id="edge6" class="edge"><title>1&#45;&gt;2</title>
<path style="fill:none;stroke:black;" d="M84,-24C101,-24 124,-24 142,-24"/>
<polygon style="fill:black;stroke:black;" points="142,-27.5001 152,-24 142,-20.5001 142,-27.5001"/>
<text text-anchor="middle" x="118" y="-27.9" style="font-family:Times New Roman;font-size:14.00;">beta</text>
</g>
<!-- 2&#45;&gt;1 -->
<g id="edge8" class="edge"><title>2&#45;&gt;1</title>
<path style="fill:none;stroke:black;" d="M155,-13C149,-9 142,-5 134,-3 121,-0 116,-0 102,-3 98,-4 94,-5 90,-7"/>
<polygon style="fill:black;stroke:black;" points="88.0418,-4.08397 81,-12 91.4414,-10.2031 88.0418,-4.08397"/>
<text text-anchor="middle" x="118" y="-7.9" style="font-family:Times New Roman;font-size:14.00;">beta</text>
</g>
</g>
</svg>
